<svg width="56" height="88" viewBox="0 0 56 88" fill="none" xmlns="http://www.w3.org/2000/svg">
<path fill-rule="evenodd" clip-rule="evenodd" d="M3.93945 64.3438L5.50923 68.5615C5.60534 68.5125 15.1892 63.679 28.0007 63.679C40.8122 63.679 50.396 68.5125 50.4891 68.5615L52.0639 64.3438C51.6455 64.1285 41.6812 59.0808 28.0007 59.0808C14.3192 59.0808 4.35693 64.1285 3.93945 64.3438Z" fill="#A47848"/>
<path fill-rule="evenodd" clip-rule="evenodd" d="M43.0419 66.0972C43.1681 66.0222 43.3102 65.9401 43.4614 65.925C43.5755 66.2024 43.8298 66.3195 43.963 66.5778C44.1041 66.8561 44.1632 67.1234 44.3234 67.3877C45.0542 67.62 46.649 65.7949 47.1476 66.6138C46.7371 66.9482 45.1813 67.0623 45.4246 67.7932C45.5097 68.0555 45.8541 68.1155 45.8821 68.4259C45.8991 68.6211 45.5427 69.0496 45.3635 69.1507C45.0292 69.3429 44.9421 69.0526 44.6688 68.7843C44.3634 68.4759 44.2833 68.3138 43.8769 68.4149C43.5955 68.4859 43.2802 68.6712 42.9959 68.6561C42.6585 68.6371 42.5123 68.3268 42.4482 67.8763C42.8737 67.69 43.4023 67.7011 43.8538 67.5829C43.8168 66.9532 42.9648 66.785 43.0419 66.0972Z" fill="#A47848"/>
<path fill-rule="evenodd" clip-rule="evenodd" d="M9.36343 70.1297L9.45554 70.0826C10.0382 69.9975 10.1483 71.1879 9.71183 71.327C9.26132 71.4702 8.99702 70.2818 9.36343 70.1297ZM8.46942 68.7721C8.04494 68.68 8.11202 68.1464 8.54551 68.1995C8.75174 68.3416 9.03406 68.8983 8.46942 68.7721ZM11.609 74.4856C11.9073 74.1542 12.1656 73.5245 12.1135 73.045C11.8523 72.9609 11.656 73.3884 11.4958 73.5465C11.2766 73.7608 11.0033 73.966 10.733 74.0932C10.5278 74.1873 10.0522 74.3555 9.86 74.1843C9.61972 73.974 9.7789 73.4674 9.89103 73.2372C10.1473 72.7266 10.6269 72.2591 10.718 71.6934C10.8261 71.0057 10.6169 70.2298 10.1894 69.7562C9.84498 69.3768 9.29736 69.4749 8.92694 69.1065C9.49058 69.0745 9.89704 68.2836 9.35142 67.8781C8.77277 67.4476 8.39734 67.8781 7.88876 68.1494L7.88776 68.1865C7.92581 68.4478 7.77464 68.4207 7.68353 68.5829C7.6525 68.638 7.5624 68.666 7.52736 68.7221C7.49432 68.7851 7.5624 68.9303 7.52635 68.9994C7.37418 69.2997 7.0378 69.2787 6.82156 69.4879C7.20799 69.9975 8.095 68.9093 8.48744 69.6621C8.10201 69.8504 8.11802 70.1487 8.30724 70.4871C8.13304 70.6753 7.77464 70.4761 7.55539 70.5862C7.33614 70.6993 7.15093 71.0487 7.15093 71.311C7.59343 71.33 8.35429 70.7303 8.49545 71.6153C8.61058 72.3362 7.90779 72.6896 7.4753 73.0019C6.95671 73.3783 6.52722 73.9099 6.46916 74.6017C6.41309 75.2885 6.73446 76.1965 7.38219 76.4048C7.55439 76.4618 7.85773 76.5249 8.02592 76.4488C7.95684 76.6831 7.68553 77.0715 7.80867 77.3148C7.99789 77.6782 8.07598 76.9824 8.17409 76.8493C8.38132 76.5579 8.59757 76.611 8.89691 76.6681C9.04007 76.6931 9.72685 76.8583 9.58068 76.4728C9.49959 76.2746 8.79879 76.4258 8.91292 76.0053C8.95197 75.8521 9.50459 75.7761 9.64275 75.7881C9.96612 75.8131 10.0292 76.1295 10.2975 76.2296C10.5177 76.3077 10.9412 76.1375 10.8521 75.8702C10.752 75.5538 10.1473 75.6789 10.2504 75.2254C10.733 75.0973 11.2476 74.8931 11.609 74.4856Z" fill="#A47848"/>
<path fill-rule="evenodd" clip-rule="evenodd" d="M14.0152 70.2515C13.7989 70.0092 13.862 69.7159 13.87 69.3414C14.4096 69.5497 14.8241 69.9521 14.785 70.6599C14.5367 70.6259 14.1974 70.4497 14.0152 70.2515ZM13.9701 67.7396L13.9691 67.7817C14.4006 67.7486 14.6809 68.2462 14.6719 68.6807C14.6599 69.2814 14.2905 68.95 13.921 68.8298C13.9 68.4865 13.9631 68.107 13.9701 67.7396ZM12.2341 70.5668C12.1971 70.1944 12.4324 69.9972 12.6206 69.7379L12.5805 69.82C12.7808 69.6207 12.9019 69.3735 13.1872 69.3434C12.968 69.7249 12.7838 70.688 12.2341 70.5668ZM13.0991 67.9809V67.9789H13.1352C13.1231 67.9789 13.1121 67.9809 13.0991 67.9809C13.1592 68.1581 13.1382 68.6016 13.005 68.7588C12.9369 68.8359 12.4704 69.0641 12.3733 69.0531C12.4234 68.5475 12.5525 67.9739 13.0991 67.9809ZM15.2916 69.4966C15.3306 68.8238 15.1955 68.3643 15.1785 67.6795C15.1494 66.6854 14.4947 67.4713 14.1613 66.8816C13.891 66.4051 14.3816 65.7504 14.2274 65.2228C13.4215 64.8894 13.7539 65.8825 13.6517 66.3861C13.4856 67.199 13.033 66.2249 12.981 65.8325C12.8308 65.6613 12.6506 65.2508 12.3903 65.443C12.1731 65.6072 12.3453 65.8805 12.4574 66.0577C12.7748 66.5573 13.3044 66.7625 13.3274 67.3852C12.9049 67.4012 12.6556 67.3171 12.3613 67.6785C12.083 68.0099 11.9929 68.6166 11.9048 69.0811C11.8217 69.5166 11.7196 69.873 11.6605 70.2985C11.6094 70.6519 11.3902 71.2186 11.4372 71.5219C11.6755 71.598 12.0599 71.2186 12.2902 71.1034C12.5805 70.9583 12.8258 70.8742 13.1692 70.8431C13.5056 70.8161 13.889 70.769 14.2244 70.8742C14.5337 70.9683 14.8641 71.3457 15.1915 71.2556C15.3577 70.767 15.2616 70.0122 15.2916 69.4966Z" fill="#A47848"/>
<path fill-rule="evenodd" clip-rule="evenodd" d="M16.8365 69.3121C16.6573 69.267 16.5712 68.9927 16.39 69.0087C16.1948 69.0268 16.1077 69.3521 16.0867 69.5423C16.7985 69.6635 16.326 70.9639 16.0176 71.3103C15.6362 71.7358 14.6901 72.0662 14.6731 72.769C14.6621 73.2856 15.1326 73.1775 15.1937 73.4968C15.2728 73.9473 14.6941 73.9994 14.4338 74.0274C14.0934 74.0625 13.8812 74.0224 13.5268 73.9173C13.2715 73.8432 12.7389 73.5028 12.5066 73.8542C12.4806 73.8542 12.4576 73.8612 12.4375 73.8833C12.4346 74.1345 12.6418 74.2807 12.6768 74.511C12.7219 74.7863 12.5587 75.0185 12.6138 75.2928C12.8721 75.3109 13.0623 75.4751 13.3436 75.433C13.3946 75.1176 13.1944 74.9224 13.3987 74.6721C13.5498 74.4839 13.8722 74.4829 14.0834 74.4008C14.2076 74.3568 14.3207 74.2597 14.4488 74.2336C14.8413 74.1716 15.1727 74.517 15.5521 74.4709C15.7503 74.4499 16.0647 74.2637 16.0547 73.9804C16.2809 73.9804 16.5352 74.0364 16.6573 73.7861C16.8235 73.4418 16.4811 73.4287 16.4021 73.2225C16.3019 72.9682 16.4721 73.0303 16.7264 72.8601C16.9026 72.744 17.0077 72.5347 17.1749 72.4056C17.4462 72.1983 18.0319 71.889 18.3442 71.871C18.5485 71.859 19.4715 72.5437 19.3174 71.937C19.0681 71.871 18.964 71.6938 18.8418 71.4665C18.7017 71.2052 18.7978 71 18.7017 70.7387C18.4454 70.0479 18.1791 71.1291 18.3442 71.5216C18.163 71.6888 17.9168 71.6928 17.6735 71.7308C17.3571 71.7779 17.1199 71.866 16.8436 71.919C16.8345 71.7308 16.8345 71.5216 16.8606 71.3424C17.3992 71.3914 17.5113 71.033 17.5704 70.5054C17.6214 70.092 17.7856 69.6244 17.7366 69.21C17.4122 68.9807 17.1199 69.1689 16.8365 69.3121Z" fill="#A47848"/>
<path fill-rule="evenodd" clip-rule="evenodd" d="M22.9621 71.951C22.7168 71.6376 22.4685 71.7087 22.6227 71.2191C22.7148 70.9368 22.929 70.5103 23.0612 70.223C23.2253 69.8656 23.5157 69.8045 23.79 69.5643C23.9171 69.4531 24.3576 68.7423 23.9241 68.8134C23.7539 69.315 23.3144 68.3629 23.4456 68.0075C23.6208 67.5149 24.2105 67.604 24.4157 68.0235C24.643 67.7122 25.0895 67.9084 25.1886 68.2107C25.2827 68.492 25.2006 69.0236 25.1826 69.332C24.7981 69.4031 24.4728 69.4031 24.68 69.9627C24.8101 70.3171 25.1415 70.5394 25.4699 70.6084C25.9915 70.7146 25.9735 70.3592 26.2227 69.9777C26.5361 69.5022 26.5992 69.4471 27.1448 69.5512C27.1358 69.9327 26.6923 70.6185 26.475 70.9188C26.1316 71.3973 25.601 71.2181 25.1355 70.9688C24.7901 70.7856 24.0172 70.6415 24.0643 71.3393C24.0953 71.8308 24.7761 72.2573 25.1465 72.4105C25.0814 73.0142 24.1124 72.6868 23.7099 72.7238C23.5407 72.7369 23.0682 72.7739 22.949 72.9291C22.7758 73.1533 22.953 73.3325 23.0091 73.5468C22.2362 73.742 21.163 73.7099 20.6885 72.886C21.5735 72.9461 22.3654 72.7018 23.1393 72.3274C23.1533 72.1472 22.9621 71.951 22.9621 71.951Z" fill="#A47848"/>
<path fill-rule="evenodd" clip-rule="evenodd" d="M21.6918 66.59C21.7909 66.7062 21.8049 67.1997 21.907 67.3779C21.5997 67.3949 21.2803 67.3869 20.972 67.3619C20.964 67.1286 20.974 66.8864 20.978 66.6511H21.018C21.1592 66.561 21.5466 66.4178 21.6918 66.59ZM22.0342 68.8976C21.7248 68.8956 21.3504 68.8195 21.026 68.7935C21.018 68.5322 21.0411 68.295 20.959 68.0427L20.996 68.1278C21.0461 67.9105 21.6928 67.8645 21.864 67.9836C22.0702 68.1258 22.0732 68.6433 22.0342 68.8976ZM20.2051 67.428C19.9678 67.472 19.7035 67.5351 19.4613 67.5411C19.4412 67.3909 19.4513 66.8934 19.5424 66.7802C19.6365 66.6661 20.131 66.6491 20.1871 66.7202L20.2612 66.6791C20.1921 66.9114 20.2211 67.1837 20.2051 67.428ZM20.2241 68.8196C20.0129 68.8316 19.6595 69.0748 19.5113 69.0378C19.265 68.9777 19.3582 68.4842 19.3692 68.1738C19.3582 68.1888 19.3431 68.2029 19.3341 68.2219L19.3692 68.1368V68.1738C19.5364 67.9786 19.9989 68.0577 20.2341 68.0747C20.2442 68.323 20.2391 68.5783 20.2241 68.8196ZM23.9994 63.6046C23.8222 63.5676 23.5319 63.5676 23.4708 63.7859C23.0463 63.7238 23.1655 63.6667 22.8601 63.894C22.742 63.9771 22.6279 64.1262 22.5157 64.2253C22.2724 64.4396 22.1043 64.4486 22.0662 64.5537C22.0172 64.6919 21.9481 64.7299 21.882 64.8691C21.8149 65.0072 21.2052 65.5228 20.8438 65.4277C20.5065 65.3386 20.2652 64.9191 19.9929 64.6819C19.6865 64.4156 19.3381 63.9931 18.9837 63.914C18.7114 63.8569 17.5051 63.953 17.6953 64.3545L17.6572 64.3535C18.1798 64.6188 18.7264 64.815 19.183 65.1514C19.3692 65.2906 19.7977 65.6369 19.7836 65.9113C19.7666 66.2406 19.4863 66.1806 19.2961 66.3337C18.7995 66.7342 18.7665 67.6562 18.7294 68.295C18.6944 68.8716 18.4902 69.6395 18.6674 70.2261C18.8195 70.2462 18.9507 70.2181 19.0878 70.1671C19.6705 69.9468 20.1661 69.4202 20.8208 69.4723C21.2593 69.5063 21.6507 69.6745 22.0612 69.8267C22.4587 69.9729 22.5277 70.0259 22.5578 69.5043C22.5988 68.7435 22.6098 67.9406 22.5548 67.1927C22.5327 66.8824 22.5498 66.4509 22.3896 66.2056C22.1803 65.8742 21.859 66.0885 21.6267 65.8622C21.6417 65.8232 21.6928 65.699 21.7168 65.669C22.1433 65.5128 22.5828 65.0513 22.9312 64.76C23.1374 64.5868 23.3036 64.3745 23.5099 64.2223C23.7391 64.0552 24.0825 64.0001 23.9994 63.6046Z" fill="#A47848"/>
<path fill-rule="evenodd" clip-rule="evenodd" d="M27.8042 68.1541C28.0465 68.1601 28.565 68.088 28.7202 68.3273C28.8083 68.4675 28.7412 68.8759 28.7302 69.0511C28.4109 69.0972 28.1085 68.93 27.7992 68.905C27.8112 68.6477 27.7401 68.4164 27.7651 68.1541H27.8042ZM27.8272 66.7195L27.8652 66.6784C28.6161 66.7195 28.7202 66.9157 28.6752 67.7016C27.9153 67.7266 27.8122 67.5715 27.8272 66.7195ZM27.3136 67.7997C26.9973 67.8157 26.5988 67.8478 26.3095 67.7396C26.3015 67.4683 26.2324 66.9958 26.4516 66.8346C26.4306 66.8456 26.4126 66.8516 26.3926 66.8617L26.4687 66.8216C26.4627 66.8246 26.4577 66.8316 26.4516 66.8346C26.6919 66.7245 26.9692 66.6935 27.2175 66.6764C27.3126 66.9518 27.3266 67.5064 27.3136 67.7997ZM27.0023 68.981C26.6919 69.1162 26.3756 68.916 26.0452 69.1202C26.0852 68.8889 26.1093 68.4424 26.2194 68.2492V68.2913C26.5758 68.3003 26.9392 68.3243 27.2335 68.2342C27.2425 68.5686 27.2976 68.8559 27.0023 68.981ZM28.7172 64.7172C29.0486 64.475 29.8695 64.0004 29.7564 63.4438C29.5231 63.4117 29.0766 63.4498 28.8464 63.5269C28.6301 63.602 28.3578 63.9193 28.1396 64.0635C27.7932 64.2927 27.2305 64.5821 26.8291 64.551C26.4376 64.527 26.0912 64.2066 25.6798 64.1125C25.2122 64.0044 25.0861 63.8522 24.8228 63.4188L24.9379 63.3767C24.7868 63.3767 24.152 63.5329 24.0459 63.7071C23.7586 64.1676 24.3693 64.2487 24.6216 64.3108C25.2693 64.4649 25.7509 64.8934 26.3145 65.2498C26.5127 65.377 26.8741 65.5502 26.8261 65.9016C26.776 66.2149 26.4306 66.2149 26.1934 66.3401C25.6327 66.6424 25.6938 67.6205 25.5777 68.2382C25.5016 68.6587 25.4395 69.0491 25.4515 69.4936C26.0542 69.5387 26.5898 69.3515 27.2195 69.3655C27.5088 69.3705 27.7992 69.3655 28.0885 69.3815C28.519 69.4025 28.8604 69.6478 29.2468 69.6919C29.3449 69.0151 29.1527 68.1982 29.1377 67.4964C29.1067 66.3511 28.7322 66.1629 27.7681 65.8705C27.8272 65.2018 28.2497 65.0586 28.7172 64.7172Z" fill="#A47848"/>
<path fill-rule="evenodd" clip-rule="evenodd" d="M29.4813 65.5742C29.5063 65.417 30.126 65.1187 30.3863 64.8554C30.1881 64.6041 29.8848 64.4759 29.6495 64.2787C28.9337 63.68 29.8717 63.3427 30.3082 63.8142C30.4033 63.9203 30.6236 64.1456 30.6827 64.2487C30.7427 64.3418 30.7467 64.5961 30.7988 64.6532C31.0361 64.9134 31.5086 64.512 31.7088 64.3638C31.9641 64.1686 32.1763 63.9453 32.4637 63.7872C32.6048 63.7081 33.3697 63.2956 33.5449 63.4978C33.7792 63.7631 33.2135 64.0234 33.0583 64.1025C32.5358 64.3748 32.0622 64.6982 31.5186 64.8854C31.4966 65.2198 31.6988 65.1787 31.847 65.3419C31.89 65.393 32.1954 65.7144 32.2104 65.7504C32.3515 66.1038 32.0192 65.9696 31.9701 66.291C31.906 66.6504 32.1623 66.5783 32.3786 66.6664C32.5808 66.7435 33.3747 67.2611 33.4278 66.7285C33.4428 66.5543 33.2265 66.3821 33.1765 66.2019C33.1484 66.1058 33.0423 65.6012 33.0523 65.5361C33.0974 65.2628 33.4928 65.0556 33.7281 65.0536C34.1296 65.0506 34.0995 65.4581 34.3298 65.6443C34.5691 65.8345 34.7593 65.5752 34.9995 65.4861C35.3019 65.377 35.6803 65.4581 35.5382 65.0015C35.4571 64.7382 34.1896 63.645 35.0926 63.7331C35.5211 63.7782 36.2209 64.6271 36.322 65.0997C36.9748 65.5081 37.6305 64.1416 38.2863 64.3318C38.928 64.521 38.3053 64.9675 38.045 65.1197C37.6525 65.3489 37.168 65.5061 36.8226 65.7814C36.9638 66.0888 37.6415 66.5563 37.5414 66.9207C37.5144 67.0178 37.0939 67.3362 37.0118 67.3262C36.8767 67.3152 36.7766 67.0268 36.6895 66.9027C36.5523 66.7045 36.4272 66.4982 36.29 66.306C36.2409 66.2359 35.9626 65.7654 35.8986 65.7394C35.7013 65.6553 35.6172 65.9266 35.4631 66.0187C35.1437 66.2149 34.7663 66.1278 34.4629 66.301C34.529 66.7005 34.0385 66.8186 34.0294 67.2221C34.0214 67.6265 34.3218 67.9659 34.6311 68.048C35.7844 68.3563 35.2228 66.28 36.1058 66.5723C36.1979 67.3112 36.1939 68.3293 35.5131 68.6026C34.9054 68.8479 34.4589 67.7617 34.0465 68.7077C33.7191 69.4486 34.1846 70.3366 34.1085 71.1385C34.0385 71.8643 33.3827 72.2938 33.637 73.0517C33.675 73.1688 33.8462 73.351 33.8202 73.4871C33.7441 73.8886 32.9552 73.4191 32.6879 73.344C32.3025 73.2319 31.849 73.2229 31.4876 73.0607C31.4725 72.7473 31.3024 72.6862 31.3574 72.3659C31.4105 72.0055 31.6908 71.7472 31.8199 71.4248C32.0502 70.8422 32.2825 70.2855 32.4867 69.7259C32.8111 68.8559 32.4456 68.2272 32.0302 67.4974C31.874 67.2201 31.7238 67.0569 31.5877 66.7725C31.4505 66.4842 31.5546 66.5713 31.2803 66.3541C31.1742 66.273 31.0761 66.2409 30.979 66.1418C31.1232 65.5321 30.9359 65.2358 30.4394 65.6403C30.2672 65.7794 29.8747 66.0958 29.7496 66.0227C29.6285 65.9516 29.4583 65.7294 29.4813 65.5742Z" fill="#A47848"/>
<path fill-rule="evenodd" clip-rule="evenodd" d="M37.9339 66.5517C38.4575 66.4646 38.9681 66.3725 39.4827 66.3385C40.0463 66.3025 39.9522 66.0462 39.6229 65.6928C39.4587 65.5116 39.3145 65.3774 39.0782 65.2763C38.8099 65.1622 38.3114 65.1972 38.1031 64.974C37.4634 64.2842 39.6429 64.5435 39.8531 64.5084C39.9302 65.028 40.0894 65.5506 40.3507 65.9601C40.6901 65.921 43.5193 64.4914 43.4482 65.6758C43.0117 65.7729 42.5462 65.8049 42.1197 65.9431C41.9705 65.9901 41.6932 66.1593 41.498 66.2364C41.4339 66.2604 41.0905 66.3515 41.0375 66.4126C40.6971 66.791 41.2407 66.8811 41.537 67.0783C41.7783 67.2385 42.0516 67.4728 42.1557 67.7651C42.2799 68.1095 42.2138 68.544 42.2658 68.8884C42.3129 69.2218 42.5512 69.414 42.6303 69.7824C42.8695 70.8766 42.0866 70.8086 41.4179 70.6344C40.9223 70.5052 40.0333 70.5222 40.4508 71.2951C40.7701 71.8868 41.1656 72.4154 40.8913 73.1392C40.5199 74.1163 39.7029 73.3514 39.0762 73.2003C38.2032 72.986 38.1612 73.7509 38.6347 74.3586C38.1622 74.5138 37.4304 74.2525 36.9869 74.0402C36.4723 73.7879 35.9357 73.3454 35.8906 72.6837C36.1359 72.7838 36.264 72.8108 36.4973 72.8078C37.0309 72.8058 37.8488 72.6787 38.3144 72.4604C38.6558 72.3023 38.6257 72.0229 38.5246 71.6015C38.4315 71.211 38.1832 70.8967 38.3744 70.4892C38.5096 70.2039 39.0712 69.7824 39.3285 69.5922C39.1713 69.2348 38.896 69.2118 38.854 68.7693C38.8179 68.4289 39.0452 67.8332 39.4246 67.7611C40.0373 67.647 40.662 69.1337 39.9562 69.2318C39.9963 69.9186 40.669 70.2379 41.2667 70.0998C41.9255 69.9486 41.3248 68.8584 41.0665 68.502C41.2697 68.4729 41.5981 68.4269 41.538 68.1516C41.2697 68.0524 41.0134 67.7391 40.7982 67.5549C40.622 67.4057 40.4288 67.2766 40.3056 67.0733C39.5007 67.1684 38.841 67.695 38.0581 67.7571C37.985 67.5148 38.0801 67.3897 38.0601 67.1684C38.0421 66.9482 37.95 66.774 37.9339 66.5517Z" fill="#A47848"/>
<path fill-rule="evenodd" clip-rule="evenodd" d="M47.8453 68.6721C47.8102 68.4388 47.9634 68.2586 48.1406 68.1815C48.1206 68.1805 48.0955 68.1765 48.0715 68.1765L48.1496 68.1805C48.1476 68.1815 48.1436 68.1815 48.1406 68.1815C48.3148 68.2155 48.479 68.4017 48.3789 68.605C48.2738 68.8242 48.0235 68.6711 47.8453 68.6721ZM47.3887 69.6772C47.4839 69.9505 47.3557 70.383 47.0223 70.352C46.5128 70.3079 46.5718 69.4679 47.0724 69.4629C47.0724 69.4629 47.3357 69.527 47.3887 69.6772ZM49.1848 72.0389C49.2519 72.1049 49.2719 72.2031 49.3339 72.2731C49.4801 71.9848 49.355 71.8527 49.3119 71.6064C49.2649 71.3261 49.2719 71.0608 49.2779 70.7694C49.2849 70.4461 49.2849 70.2058 49.1868 69.9004C49.1117 69.6452 48.9335 69.4579 48.8484 69.2908C48.7803 69.1626 48.6802 69.2557 48.7082 69.0415C48.8714 69.0305 49.0967 69.2437 49.2238 69.0445C49.363 68.8232 49.0727 68.5009 48.9575 68.3667C48.6992 68.0694 48.1146 67.706 47.7401 67.7921H47.7021C47.1925 67.5298 47.3867 68.5719 47.4188 68.7792C46.6819 68.9083 46.1523 69.0094 45.8961 69.9064C45.6278 70.8525 46.2595 71.6294 46.1954 72.6065C46.1133 73.888 44.6897 73.049 44.1961 72.5845C43.6966 72.116 43.4703 71.4392 43.5023 70.7064C43.202 70.7334 43.3492 71.8526 43.3372 72.132C43.3121 72.6836 43.4142 73.1171 43.8367 73.4214C44.055 73.5776 44.2202 73.5326 44.4434 73.6287C44.7087 73.7448 44.6707 73.8069 44.7858 74.1302C44.95 74.5817 45.0621 75.3246 45.5427 75.5128C45.878 76.1966 46.9032 76.0464 47.4618 76.2997C47.9163 76.5069 48.0415 77.0615 47.8202 77.5231C48.0955 77.5972 48.4129 77.447 48.6862 77.3889C49.0306 77.3118 49.2348 77.2658 48.9695 76.8653C48.7803 76.58 48.4239 76.5219 48.515 76.0694C48.5911 75.704 48.9846 75.4347 49.0967 75.0653C49.4931 73.7828 48.9105 73.1051 48.2317 72.1019C48.0105 71.7776 47.6791 71.1539 47.9954 70.7434C48.467 70.1287 48.9675 71.8106 49.1848 72.0389Z" fill="#A47848"/>
<path fill-rule="evenodd" clip-rule="evenodd" d="M5.3589 80.3914C7.33013 79.4523 16.4344 75.4398 28.1817 75.4398C39.93 75.4398 49.0363 79.4543 51.0026 80.3924L51.0837 81.3645L51.0997 81.5537C51.0997 81.5537 41.3987 76.464 28.1817 76.464C14.9638 76.464 5.26179 81.5537 5.26179 81.5537L5.27981 81.3335L5.3589 80.3914ZM52.6745 54.5842C54.1531 54.2788 55.2033 52.8913 55.0712 51.3295C54.938 49.7687 53.6666 48.5864 52.1569 48.5443L51.8345 44.7801C53.2982 44.4637 54.3373 43.0852 54.2032 41.5314C54.069 39.9797 52.8126 38.8033 51.3169 38.7493L50.9946 34.987C52.4722 34.6817 53.5234 33.2951 53.3903 31.7333C53.2551 30.1726 51.9837 28.9902 50.476 28.9482L50.2407 26.1991C50.1386 25.0127 49.1054 24.1357 47.9381 24.2398C46.8298 24.3389 45.9959 25.5643 45.9959 26.6696C45.9959 26.7337 45.9999 26.7977 46.0049 26.8618L50.8734 78.0608C50.8734 78.0608 41.2806 73.1212 28.2108 73.1212C15.141 73.1212 5.54711 78.0608 5.54711 78.0608L9.99515 26.5775C10.0002 26.5134 10.0042 26.4493 10.0042 26.3863C10.0042 25.28 9.17021 24.3389 8.06396 24.2398C6.89363 24.1357 5.86447 25.0127 5.76035 26.1991L5.52408 28.9482C4.01638 28.9902 2.74594 30.1726 2.61179 31.7333C2.47764 33.2941 3.52883 34.6807 5.0065 34.987L4.68413 38.7483C3.17543 38.7883 1.90499 39.9706 1.77184 41.5314C1.63768 43.0942 2.68787 44.4797 4.16555 44.7861L3.84318 48.5443C2.33547 48.5874 1.06504 49.7687 0.930884 51.3295C0.796732 52.8913 1.84592 54.2788 3.3256 54.5842L0.526426 87.2191C0.474367 87.8108 1.11309 88.2052 1.60665 87.8869C4.90038 85.7585 14.6724 80.2793 27.9915 80.2793C41.3276 80.2793 51.0997 85.7585 54.3924 87.8859C54.886 88.2052 55.5247 87.8108 55.4736 87.2191L52.6745 54.5842Z" fill="#A47848"/>
<path fill-rule="evenodd" clip-rule="evenodd" d="M26.409 53.7822C26.2788 53.7822 26.1677 53.8283 26.0766 53.9204C25.9855 54.0125 25.9404 54.1226 25.9404 54.2578C25.9404 54.3929 25.9865 54.506 26.0766 54.5951C26.1667 54.6883 26.2758 54.7333 26.409 54.7333C26.5421 54.7333 26.6512 54.6883 26.7413 54.5961C26.8344 54.5 26.8795 54.3889 26.8795 54.2578C26.8795 54.1266 26.8344 54.0165 26.7413 53.9234C26.6492 53.8283 26.5411 53.7822 26.409 53.7822Z" fill="#A47848"/>
<path fill-rule="evenodd" clip-rule="evenodd" d="M36.3346 51.2593H36.2796C35.5898 51.2593 35.0151 50.7508 34.879 50.076L34.865 49.9989C34.7108 49.196 34.7649 48.272 34.7649 48.272H33.6836V21.2404H36.1444C36.6039 21.2584 38.3619 21.5317 37.7803 24.7053C37.53 26.1389 37.0725 27.9149 37.0224 31.2677C36.9143 38.5259 38.8295 42.7457 38.8295 45.2375C38.8295 47.8395 38.3729 51.1883 36.3346 51.2593ZM32.7316 48.272H31.0787V21.2394H32.7316V48.272ZM31.8716 53.7672L30.6452 56.1509L30.3559 55.9997L31.4281 53.9103C31.4391 53.8883 31.4381 53.8633 31.4261 53.8413C31.4131 53.8202 31.392 53.8082 31.367 53.8082H30.3328V53.4708H31.6954C31.7655 53.4708 31.8295 53.5079 31.8656 53.569C31.9016 53.629 31.9046 53.7041 31.8716 53.7672ZM30.1296 48.272H28.4777V21.2394H30.1296V48.272ZM29.5339 56.1339H27.9802C27.9301 56.1339 27.8871 56.1048 27.867 56.0588C27.847 56.0117 27.855 55.9607 27.8891 55.9236L28.713 55.0196C28.8742 54.8434 28.9913 54.7012 29.0634 54.5971C29.1285 54.501 29.1625 54.3899 29.1625 54.2667C29.1625 54.1486 29.1145 54.0415 29.0194 53.9474C28.9222 53.8543 28.8061 53.8092 28.6649 53.8092C28.5238 53.8092 28.4097 53.8553 28.3156 53.9514C28.2225 54.0495 28.1684 54.1917 28.1544 54.3709L28.1514 54.4179H27.815L27.818 54.3649C27.83 54.0966 27.9191 53.8783 28.0833 53.7171C28.2475 53.5539 28.4497 53.4718 28.684 53.4718C28.9433 53.4718 29.1565 53.569 29.3177 53.7602C29.4238 53.8853 29.4879 54.0455 29.4979 54.2097C29.5099 54.3949 29.4669 54.5691 29.3677 54.7273C29.2917 54.8564 29.1695 55.0126 28.9953 55.2048L28.4557 55.7955L29.5339 55.7945V56.1339ZM27.5237 48.272H25.8738V21.2394H27.5237V48.272ZM27.1432 54.6211C27.0922 54.7463 27.0201 54.8774 26.93 55.0116L26.1541 56.1839L25.8688 55.9977L26.4915 55.0416C26.4434 55.0506 26.3954 55.0546 26.3463 55.0546C26.1371 55.0546 25.9579 54.9766 25.8147 54.8234C25.6736 54.6692 25.6015 54.477 25.6015 54.2507C25.6015 54.0235 25.6816 53.8283 25.8377 53.6721C25.9969 53.5179 26.1922 53.4388 26.4214 53.4388C26.6497 53.4388 26.8419 53.5199 26.9921 53.6791C27.1412 53.8383 27.2173 54.0305 27.2173 54.2527C27.2173 54.3719 27.1923 54.496 27.1432 54.6211ZM24.9207 48.272H23.2708V21.2394H24.9207V48.272ZM24.6784 56.1028H24.3361V53.8793C24.3361 53.8603 24.321 53.8453 24.303 53.8453H23.9116L24.0697 53.585C24.0998 53.5339 24.1558 53.5019 24.2139 53.5019H24.5122C24.6044 53.5019 24.6784 53.578 24.6784 53.6711V56.1028ZM22.3158 48.272H21.0393C21.0393 48.272 21.0924 49.196 20.9392 49.9989L20.9252 50.076C20.789 50.7508 20.2134 51.2593 19.5236 51.2593H19.4705C17.4312 51.1883 16.9737 47.8395 16.9737 45.2375C16.9737 42.7457 18.8889 38.5259 18.7808 31.2677C18.7297 27.8448 18.2542 26.0648 18.0079 24.6152L18.0479 24.7033C17.4943 21.6919 19.0431 21.2894 19.5987 21.2404H22.3158V48.272ZM50.2133 19.4804C49.8419 18.8376 49.4134 18.6274 48.8929 18.3641C47.25 17.5222 44.4839 17.6913 42.1833 18.3791C40.5504 18.8657 39.3901 19.2721 36.1975 19.2721H19.6648C16.4721 19.2721 15.3108 18.8657 13.68 18.3791C11.3784 17.6913 8.61225 17.5222 6.96939 18.3641C6.4488 18.6274 6.02232 18.8376 5.64889 19.4804C4.9531 20.6827 5.78805 21.7599 6.31064 22.0443C7.16861 22.5128 7.88843 22.0182 9.40615 22.2775C10.6596 22.4918 12.3245 23.2256 13.5168 24.7253C15.3399 27.0179 15.494 29.727 15.437 31.9094C15.3258 36.1362 12.804 39.9265 12.7279 46.2397C12.6819 50.2062 14.0414 53.3547 16.2309 55.6583C18.7187 58.2813 23.0035 59.9932 26.6887 60.2986H29.3898C33.0749 59.9932 37.1435 58.2813 39.6314 55.6583C41.8198 53.3547 43.1814 50.2062 43.1333 46.2397C43.0512 39.2207 40.7456 37.8141 40.3932 32.0836C40.2591 29.9062 40.7046 26.7906 42.3434 24.7253C43.5368 23.2246 45.2037 22.4918 46.4581 22.2775C47.9758 22.0182 48.6936 22.5128 49.5526 22.0443C50.0732 21.7599 50.9101 20.6827 50.2133 19.4804Z" fill="#A47848"/>
<path fill-rule="evenodd" clip-rule="evenodd" d="M29.0752 6.42753H29.0782V6.42456H29.0752V6.42753Z" fill="white"/>
<path fill-rule="evenodd" clip-rule="evenodd" d="M27.8945 4.99272H27.8975V4.98975H27.8945V4.99272Z" fill="white"/>
<path fill-rule="evenodd" clip-rule="evenodd" d="M27.4603 14.7521C27.4603 14.7521 26.9357 14.7581 26.7175 14.9053C26.7095 14.9113 26.6144 14.9824 26.6104 15.1516V15.1726C26.6114 15.1936 26.6134 15.2166 26.6174 15.2407C26.6254 15.3017 26.6454 15.3688 26.6874 15.4309C26.7295 15.486 26.7906 15.534 26.8807 15.552C26.9547 15.568 27.0398 15.5791 27.1309 15.5861H27.178L27.195 15.5841L28.2012 15.567C28.2222 15.565 28.2342 15.564 28.2342 15.564C28.2342 15.564 28.2322 15.566 28.2312 15.567L28.2963 15.566L28.2973 15.565C28.5195 15.569 28.7828 15.565 28.979 15.534C29.1152 15.511 29.1733 15.4379 29.1953 15.3999C29.2343 15.3228 29.2724 15.2016 29.2283 15.0665C29.1903 14.9453 29.0922 14.8763 29.0151 14.8402C29.0021 14.8332 28.989 14.8282 28.976 14.8232C28.951 14.8132 28.931 14.8072 28.922 14.8042C28.7107 14.7631 28.4925 14.7421 28.2913 14.7331H28.2772C27.8648 14.7151 27.5244 14.7461 27.4603 14.7521Z" fill="#A47848"/>
<path fill-rule="evenodd" clip-rule="evenodd" d="M28.6159 15.8925C28.4016 15.8855 28.1874 15.8755 27.9732 15.8815C27.6678 15.8885 27.3635 15.9065 27.0591 15.9255C27.0411 15.9265 27.0241 15.9275 27.0091 15.9295C26.947 15.9385 26.8949 15.9546 26.8569 15.9696C26.7878 16.0046 26.7638 16.0467 26.7608 16.0537C26.7388 16.1107 26.7428 16.1918 26.8158 16.31C26.8889 16.4091 26.994 16.5102 27.1472 16.5873C27.1702 16.5993 27.1933 16.6103 27.2183 16.6203C27.2473 16.6323 27.2764 16.6433 27.3084 16.6544H27.3114C27.3244 16.6594 27.3374 16.6634 27.3514 16.6674C27.3675 16.6714 27.3845 16.6734 27.4015 16.6764C27.7199 16.7495 28.0663 16.7184 28.0663 16.7184V16.7174C28.1033 16.7164 28.1403 16.7154 28.1774 16.7124C28.3326 16.6974 28.5718 16.6504 28.75 16.5112C28.76 16.5032 28.7691 16.4952 28.7781 16.4872C28.7881 16.4782 28.7971 16.4701 28.8061 16.4611C28.8592 16.4111 28.9082 16.356 28.9513 16.2949C29.0003 16.2229 29.0193 16.1648 29.0243 16.1177C29.0253 16.1087 29.0263 16.1007 29.0253 16.0927V16.0827C29.0033 15.8935 28.6159 15.8925 28.6159 15.8925Z" fill="#A47848"/>
<path fill-rule="evenodd" clip-rule="evenodd" d="M28.3944 12.07H28.3934C28.3874 11.9408 28.2953 11.9368 28.2052 11.9348L27.6075 11.9488C27.6075 11.9488 27.4783 11.9508 27.4613 12.079V12.083C27.4603 12.085 27.4603 12.087 27.4603 12.089C27.4603 12.089 27.4533 12.1871 27.5014 12.2652H27.5004C27.5134 12.2882 27.5324 12.3072 27.5554 12.3233V12.3253C27.5554 12.3253 27.5574 12.3253 27.5594 12.3263C27.7026 12.4224 27.9899 12.3963 27.9899 12.3963C28.073 12.3933 28.1571 12.3793 28.2312 12.3453C28.2492 12.3393 28.2903 12.3213 28.3273 12.2822C28.3283 12.2812 28.3293 12.2802 28.3313 12.2792H28.3303C28.3653 12.2412 28.3954 12.1841 28.3934 12.096C28.3944 12.095 28.3944 12.093 28.3944 12.092V12.085C28.3934 12.08 28.3954 12.075 28.3944 12.07Z" fill="#9F7647"/>
<path fill-rule="evenodd" clip-rule="evenodd" d="M30.2917 9.44169C30.2917 9.46071 30.2867 9.47873 30.2826 9.49074C30.2776 9.50075 30.2716 9.50876 30.2646 9.51777C30.1765 9.64091 29.69 9.61689 29.4907 9.60187C29.1634 9.58685 28.5307 9.57584 28.5247 9.57584C28.4796 9.57684 28.4316 9.57684 28.3785 9.57784C28.1072 9.57985 27.8339 9.57184 27.5636 9.58785C27.5636 9.58785 26.9098 9.61689 26.4183 9.64392L26.3932 9.64492C26.3682 9.64592 26.3432 9.64692 26.3172 9.64892C26.2901 9.64992 26.2351 9.65393 26.173 9.65793C26.146 9.65994 26.1219 9.66194 26.0979 9.66294C26.0819 9.66394 26.0669 9.66594 26.0519 9.66594L26.0509 9.66694C26.0018 9.66995 25.9608 9.67295 25.9317 9.67595C25.7775 9.68496 25.5543 9.68797 25.4191 9.64892C25.283 9.59386 25.322 9.4487 25.322 9.4487H25.321C25.321 9.4487 25.331 9.33857 25.5463 9.32055L26.5985 9.2785L27.102 9.24046C27.2002 9.23445 27.2282 9.13434 27.2302 9.12733C27.2312 9.12233 27.2322 9.11732 27.2322 9.11232C27.2382 8.80096 27.2332 8.48961 27.2322 8.17826C27.2322 8.07915 27.2352 7.97903 27.2382 7.87992C27.2472 7.56256 27.2412 7.2442 27.2712 6.92984C27.2772 6.81271 27.2903 6.71861 27.3073 6.63952C27.3083 6.63351 27.3093 6.62951 27.3103 6.6235C27.3113 6.62049 27.3113 6.61849 27.3123 6.61649C27.3323 6.51237 27.3643 6.43629 27.3994 6.38223C27.4314 6.33317 27.4645 6.30314 27.4885 6.28411C27.5105 6.2681 27.5265 6.26009 27.5265 6.26009C27.7508 6.13194 27.9991 6.13895 28.2453 6.12593C28.3104 6.12293 28.3775 6.12393 28.4436 6.11893C28.4436 6.11893 28.7239 6.11793 28.865 5.95774C28.9992 5.77654 28.8921 5.6574 28.845 5.61736C28.813 5.59233 28.7749 5.57131 28.7339 5.56029C28.5727 5.51725 28.4065 5.49022 28.2403 5.47119C28.0481 5.45017 27.8539 5.45317 27.6617 5.43115C27.2492 5.3851 27.1661 5.32102 27.1761 4.88953C27.1891 4.3269 27.1411 4.49108 27.1821 3.92945C27.1941 3.77227 27.3253 3.6201 27.4454 3.59807C27.5546 3.57805 27.6126 3.62911 27.6246 3.72422C27.6256 3.72622 27.6256 3.72922 27.6256 3.73222C27.6326 3.80531 27.6146 3.91743 27.5916 4.02556C27.5916 4.02656 27.5696 4.17673 27.5556 4.36594C27.5526 4.413 27.5295 4.60822 27.5746 4.77941C27.5966 4.8545 27.6346 4.93058 27.7007 4.97563C27.7308 4.99666 27.7658 5.01167 27.8088 5.01568C27.8139 5.01568 27.8199 5.01668 27.8249 5.01668C27.8659 5.02068 27.917 5.02569 27.973 5.0317C28.0561 5.03971 28.1462 5.04972 28.2223 5.05873C28.2413 5.06173 28.4976 5.10378 28.7239 5.16385C28.7569 5.17286 28.791 5.18287 28.823 5.19388C28.841 5.19889 28.868 5.20689 28.9001 5.21891C28.9001 5.21891 28.9031 5.21891 28.9041 5.21991H28.9051C28.9181 5.22492 28.9842 5.24894 29.0482 5.28298C29.1173 5.31502 29.2515 5.40512 29.2985 5.60935C29.3135 5.68444 29.3366 5.86864 29.2645 6.09991C29.2565 6.12293 29.2485 6.14696 29.2375 6.17099C29.1994 6.25108 29.1554 6.30714 29.1193 6.34218C29.1093 6.35019 29.1013 6.3602 29.0903 6.36821H29.0893C28.7699 6.61349 28.0641 6.6245 28.0641 6.6245C27.8339 6.6265 27.7538 6.66354 27.7258 6.96488C27.7248 6.98391 27.7217 7.00193 27.7187 7.02095L27.7197 7.01995C27.7197 7.01995 27.6607 7.52452 27.7978 7.54754C27.8209 7.55155 27.8449 7.55455 27.8729 7.55455C28.2604 7.55355 28.6478 7.56356 29.0352 7.55155C29.0693 7.55055 29.1013 7.55255 29.1333 7.55655V7.55555C29.1333 7.55555 29.4427 7.55255 29.5518 7.72174C29.5608 7.73876 29.5788 7.78682 29.5638 7.87592C29.5518 7.92197 29.5278 7.97303 29.4777 8.01107C29.3926 8.07614 29.2845 8.09516 29.1724 8.08816C28.9652 8.07514 28.7579 8.05111 28.5507 8.03009C28.5237 8.02909 27.8889 7.99305 27.7648 8.08115C27.7648 8.08115 27.7097 8.10818 27.6637 8.19528C27.6517 8.22731 27.6346 8.29439 27.6286 8.42954C27.6286 8.42954 27.6206 8.66681 27.6196 8.69384C27.6186 8.82399 27.6216 8.97116 27.6367 9.06426C27.6497 9.12833 27.6717 9.17539 27.7057 9.18239C27.7508 9.19241 27.8179 9.19341 27.915 9.19541C28.4906 9.19641 28.853 9.17138 29.4267 9.20542C29.5508 9.21343 29.6589 9.21143 29.7641 9.21743L29.7651 9.21643C30.3317 9.22544 30.2917 9.44169 30.2917 9.44169ZM29.716 11.7893C29.702 11.7964 29.689 11.8024 29.677 11.8054C29.4307 11.8614 29.1814 11.9025 28.9321 11.9365C28.819 11.9525 28.7599 11.9896 28.7759 12.1137C28.789 12.2579 28.7689 12.366 28.7349 12.4471C28.7339 12.4491 28.7339 12.4521 28.7329 12.4541C28.7239 12.4731 28.7139 12.4891 28.7049 12.5052C28.6959 12.5192 28.6858 12.5312 28.6768 12.5422C28.6738 12.5462 28.6718 12.5492 28.6688 12.5522C28.6598 12.5622 28.6508 12.5712 28.6418 12.5792C28.6348 12.5862 28.6278 12.5923 28.6208 12.5983C28.6198 12.5993 28.6188 12.5993 28.6188 12.6003C28.5417 12.6603 28.4506 12.6934 28.4506 12.6934V12.6954C28.3455 12.7264 28.2443 12.7895 28.1753 12.8766C28.1582 12.9036 28.1402 12.9437 28.1262 12.9947C28.1152 13.0428 28.0922 13.1859 28.1743 13.25C28.1883 13.259 28.2043 13.268 28.2253 13.275C28.3074 13.294 28.4436 13.3121 28.5967 13.277C28.6658 13.262 28.7369 13.237 28.809 13.1959C28.809 13.1959 29.0553 13.0888 29.1063 12.5572V12.5562C29.1083 12.5492 29.1093 12.5432 29.1113 12.5372L29.1093 12.5362L29.1223 12.4891C29.1323 12.4471 29.1694 12.333 29.2705 12.347C29.3506 12.36 29.4417 12.403 29.4487 12.4941V12.4931C29.4507 12.5002 29.4517 12.5092 29.4517 12.5182C29.4517 12.5252 29.4507 12.5342 29.4507 12.5422C29.4367 12.8035 29.2685 13.1349 29.2465 13.1779C29.0472 13.5563 28.5076 13.6324 28.5076 13.6324L28.5086 13.6314C28.4916 13.6344 28.4736 13.6394 28.4576 13.6424C28.4456 13.6444 28.4285 13.6474 28.4095 13.6495C28.3835 13.6535 28.3585 13.6565 28.3344 13.6585C28.3294 13.6585 28.3254 13.6595 28.3204 13.6595L28.3224 13.6615C28.2483 13.6665 28.2003 13.6805 28.1673 13.6965C28.1192 13.7215 28.1042 13.7776 28.1002 13.8056C28.0902 13.8957 28.0832 14.0189 28.0912 14.131C28.0972 14.167 28.1142 14.2271 28.1632 14.2661C28.1683 14.2692 28.1733 14.2722 28.1793 14.2752C28.1853 14.2782 28.1913 14.2822 28.1973 14.2852C28.2373 14.3042 28.2914 14.3202 28.3655 14.3242C28.4846 14.3312 28.816 14.3512 29.0432 14.3593H29.0442C29.0693 14.3603 29.0933 14.3613 29.1153 14.3613C29.2495 14.3723 29.5318 14.4343 29.6159 14.7517C29.6169 14.7557 29.6179 14.7597 29.6189 14.7647C29.6209 14.7727 29.6219 14.7807 29.6239 14.7887C29.6449 14.8969 29.6589 15.035 29.6599 15.2142V15.2232C29.6599 15.2383 29.6609 15.2513 29.6609 15.2673L29.6589 15.2633C29.6569 15.3394 29.6509 15.4165 29.6419 15.4935C29.6179 15.6938 29.5678 15.883 29.4988 16.0642C29.4988 16.0642 29.3916 16.4116 29.1614 16.6839C29.0503 16.808 28.817 17.0022 28.4326 17.0433C28.2934 17.0583 28.1783 17.0603 28.1783 17.0603C28.1783 17.0603 28.1803 17.0593 28.1813 17.0583C28.0201 17.0633 27.8919 17.0583 27.8919 17.0583H27.8849L27.8859 17.0573C27.6967 17.0613 27.5465 17.0553 27.4284 17.0463C27.3884 17.0423 27.3503 17.0363 27.3123 17.0283C27.3113 17.0283 27.3093 17.0273 27.3083 17.0273C27.2132 17.0073 27.1261 16.9792 27.053 16.9502C26.8067 16.8421 26.6505 16.6719 26.5965 16.6058C26.3702 16.3135 26.3222 16.0091 26.3222 16.0091C26.3021 15.925 26.2881 15.8219 26.2791 15.7118C26.2481 15.5356 26.2471 15.1522 26.2471 15.061V15.041C26.2461 14.8728 26.2681 14.7557 26.2941 14.6766C26.3011 14.6546 26.3081 14.6356 26.3152 14.6195C26.3212 14.6075 26.3262 14.5965 26.3312 14.5875C26.3332 14.5845 26.3342 14.5825 26.3362 14.5795C26.3442 14.5665 26.3542 14.5555 26.3632 14.5435C26.4023 14.4974 26.4733 14.4413 26.5935 14.4203C26.8928 14.3713 27.1952 14.3542 27.4965 14.3222C27.5105 14.3202 27.5315 14.3172 27.5556 14.3112C27.5596 14.3102 27.5636 14.3092 27.5676 14.3082C27.5796 14.3052 27.5916 14.3012 27.6046 14.2972C27.7087 14.2521 27.7298 14.143 27.7298 14.14C27.7448 13.9808 27.7348 13.7536 27.7338 13.7386C27.7037 13.6334 27.6036 13.6204 27.4184 13.6144C27.3954 13.6134 27.3744 13.6124 27.3523 13.6114C27.2012 13.6044 26.4914 13.5403 26.3952 12.9757L26.3412 12.7184L26.3212 12.5822C26.3212 12.5822 26.2741 12.339 26.3802 12.3169C26.3852 12.3169 26.4833 12.2889 26.5514 12.392C26.5514 12.392 26.6185 12.4931 26.6445 12.6063C26.6636 12.6743 26.6736 12.7374 26.6786 12.7755C26.6786 12.7755 26.7146 13.1889 27.1481 13.288C27.1901 13.294 27.2322 13.3021 27.2742 13.3081C27.2742 13.3081 27.2792 13.3081 27.2822 13.3091C27.2893 13.3091 27.2963 13.3101 27.3023 13.3111C27.4024 13.3221 27.6527 13.3371 27.7217 13.226C27.7278 13.214 27.7328 13.2009 27.7358 13.1879C27.7428 13.1259 27.7428 13.0738 27.7388 13.0308C27.7378 13.0237 27.7378 13.0197 27.7378 13.0197C27.7368 13.0107 27.7358 13.0017 27.7348 12.9937C27.7338 12.9857 27.7328 12.9787 27.7308 12.9717C27.7077 12.8616 27.6256 12.8035 27.5586 12.7745V12.7735C27.5566 12.7725 27.5526 12.7715 27.5496 12.7705C27.5476 12.7695 27.5466 12.7685 27.5445 12.7685C27.5365 12.7644 27.5295 12.7624 27.5225 12.7604V12.7594C27.5175 12.7584 27.5145 12.7574 27.5095 12.7564C27.4775 12.7454 27.4414 12.7344 27.4294 12.7304C27.3714 12.7084 27.3233 12.6844 27.3063 12.6753C27.1111 12.5522 27.072 12.329 27.072 12.329H27.074C27.063 12.2829 27.056 12.2369 27.058 12.1898C27.065 11.9786 26.9919 11.9215 26.7887 11.9405C26.5144 11.9655 26.2381 11.9806 25.9628 11.9876C25.9387 11.9866 25.9137 11.9826 25.8907 11.9796C25.8717 11.9776 25.8536 11.9736 25.8386 11.9685C25.8366 11.9685 25.8336 11.9675 25.8316 11.9675C25.7645 11.9445 25.7385 11.8995 25.7285 11.8624C25.7155 11.8014 25.7335 11.7353 25.7445 11.7032C25.7635 11.6602 25.7946 11.6292 25.8216 11.6101C25.9427 11.522 26.138 11.52 26.138 11.52L26.137 11.521C26.147 11.52 26.157 11.518 26.167 11.518C26.7887 11.497 27.4114 11.507 28.0331 11.496C28.4766 11.488 28.9191 11.462 29.3626 11.45C29.4707 11.447 29.5869 11.444 29.685 11.48C29.69 11.482 29.695 11.485 29.699 11.487C29.699 11.487 29.701 11.488 29.704 11.49C29.718 11.497 29.731 11.508 29.744 11.52C29.7621 11.5351 29.7801 11.5521 29.7851 11.5661C29.7871 11.5701 29.8071 11.6081 29.7981 11.6722C29.7901 11.7113 29.7681 11.7543 29.716 11.7893ZM25.6564 10.8763C25.6784 10.7592 25.7155 10.618 25.8887 10.621C26.0609 10.625 26.2331 10.625 26.4053 10.624C27.085 10.62 27.7648 10.617 28.4436 10.609C28.827 10.604 29.2094 10.584 29.5929 10.581C29.6499 10.581 29.742 10.632 29.755 10.6781C29.7721 10.7352 29.747 10.8693 29.702 10.9073C29.6409 10.9584 29.5508 10.9764 29.4687 10.9804C29.2765 10.9884 29.0813 10.9854 28.8871 10.9844L28.2113 10.9964L27.903 11.0085L26.6415 11.0335C26.3792 11.0325 26.1189 11.0595 25.8566 11.0565C25.7395 11.0555 25.6314 11.0095 25.6564 10.8763ZM36.2013 9.32355C36.2013 8.04411 35.3454 7.00493 34.2922 7.00493H33.4903L33.0398 3.34379C32.7945 1.46165 31.1546 0 28.831 0H27.1691C24.8455 0 23.2056 1.46165 22.9614 3.34379L22.5108 7.00493H21.7059C20.6537 7.00493 19.8008 8.04411 19.8008 9.32355C19.8008 10.604 20.6537 11.6442 21.7059 11.6442H21.9392L20.9581 19.6112C20.9581 19.8985 21.1333 20.1258 21.4106 20.1258H34.5915C34.8648 20.1258 35.041 19.8985 35.041 19.6112L34.0609 11.6442H34.2922C35.3454 11.6442 36.2013 10.604 36.2013 9.32355Z" fill="#A47848"/>
<path fill-rule="evenodd" clip-rule="evenodd" d="M28.2314 15.5686H28.2344V15.5657H28.2314V15.5686Z" fill="white"/>
</svg>
