<?xml version="1.0" encoding="UTF-8"?><svg width="88" height="88" xmlns="http://www.w3.org/2000/svg" viewBox="0 0 87.94 88"><g id="c"><path d="m27.36,15.05c.96-3-.41-4.98-1.24-5.09-1.8.32-2.52,1.3-3.36,4l.04,3.46-2.46,2.7c-2.85,8.3-2.71,16.46-.1,24.49,3.41-.71,5.62-.89,5.02,1.17-.3.76,1.53,4.1,1.22,4.86l-3.14,2.12c-3.65,1.1-5.22,14.24-2.46,21.9,3.12,5.37-.7,6.58-1.09,8.33l-4.81.16.32,1.03,15.28.91.51.21h12.72v1.04l9.53-.35v-1.65h-5.26c.9-3.85-.54-7.19-4.32-10,2.02-.84,2.99-1.81,2.9-2.92l-1.43-3.34.73-6.83.71-2.36c-2.18-2.75-1.76-4.46,1.27-5.13-.67-2.14-.57-3.76.32-4.86l-1.59-3.4,2.35-1.83.9-4.85c3.77-6.01-9.28-5.35-15.75-4.05-3.32,3.1-5.62,2.98-6.36,1.39s-.3-5.25,5.97-4.54c3.26-1.78,10.25-3.36,16.2-2.22,2.39-1.34,3.46-5.47,3.82-6.32,1.45-3.72.46-2.8-.05-7.81.84-.34-2.32-1.47-2.94-.06-1,4.75-1.38,6.6-3.46,8.12-4.82.12-11.61.86-16.43,4.85l-2.05-1.1c-.35-3.77,3.03-4.51,7.67-6.48.51-.62.98-1.26,1.42-1.92.19-.28-.86-1.96-1.87-1.73-.43-1.41.26-2.67,2.55-6.83l2.05-.18c1.09,1.79-.1,4.94-1,6.91.34,1.44.09,4.71,3.41,2.47l3.59-1.05c1.34-.3,1.75-.82,1.27-2.94l-3.98.56.04-2.3,4.52-1.38.35-1.95c-1.5-.79-3.25-.95-4.87-.43l-2.01-2.13c-2.11-1.79-4.01-2.48-4.76.76-3.12,2.4-4.4,5.47-4.09,9.09-3.64.08-2.52,2.47-5.78,2.83-.26-2.35,0-3.56-.04-5.33Zm33.83,13.5c2.65,2.86,3.21,6.33,5.42,6.91,1.24-2.72,5.77-1.15,7.57-5.18-.47-3.02.63-5.1,1.5-6.85,1.62-.26,2.68.18,2.95,1.65l-1.23,1.65c-.36,8.77-4.17,10.5-8.84,10.62-1.37,2.01-1.56,4.17-.43,6.73,5.55,2.34,8.65,3.69,11.98,6.91.62,1.81.8,3.33.54,4.55l-.63,1.59c-2.19.47-2.31-1.77-2.57-4.48-5.39-2.94-9.23-7.07-10.02-4.51-.57,4.44,5.35,8.87-.04,12.43.83,6.09,3.03,7.98,2.3,12.58,1.46,1.45,3.39,2.32,5.44,2.45,1.02,2.35.35,4.89-6.08,3.67-5.42-1.79-4.01-10.8-5.42-14.69-3.95-.67-4.09,9.14-5.86,9.3-1.78-.28-3.03-1.17-3.35-3.15.67-2.06,3.24-7.18,6.66-11.29.12-4.87-2.81-8.32-1.3-12.53-1.49-1.02-2.39-1.69-4.92-1.73-1.16-.9-1.42-3.64-.11-6.12l2.69-1.05c-1.55-3.72-1.09-5.97.55-9.11.73-1.62,2.73-1.23,3.19-.38h0Zm-27.8,10.4l10.32-.8c2,1.25,1.52,2.83-.73,4.01l-10.87.38c-.36-1.55-.49-2.83,1.28-3.59Zm-2.13,6.61c3.74,2.24,7.49,2.12,11.24-.07l1.63,2.38c-3.29,2.42-5.72,1.48-5.92,4.94-.06,1.63,1.05,2.87,2.55,4.5-1.62,1.66-3.83,2.08-5.86,0l-5.69-4.01c-.35-1.62,5.14.24,6.73-.84,1.2-1.3-.83-4.11-5.75-4.09l1.07-2.82Zm-.84,15.16c4.09.14,2.3,2.28,3.78,3.08,2.56,3.41,4.09,1.04,6.46-2.29.74,2.56.19,5.12-1.67,7.68l-3.22.18-8.09-6.71-.3-3.89c1.61-.71,3.96-.52,3.07,1.97h-.01Zm-.95,8.92c1.59,2.39,3.97,4.15,6.72,4.97,1.6,1.73,1.45,3.89,1.68,4.86,1.3,3.76,1.25,3.77-2.79,3.72-.46-2.03.3-1.81-2.11-3.65-.75-1.14-3.03-1.3-3.51.48-6.75-1.33.8-3.89-.13-5.49-1.45-2.7-1.53-4.37.14-4.89Z" style="fill:#672651; fill-rule:evenodd; stroke-width:0px;"/><path d="m6.33,7.71c-4.66,25.06-4.4,49.87,1.82,74.34,23.74,3.46,47.47,4,71.21.22,6.13-25.16,8.41-50.3,0-75.47C52.98.98,29.08,2.64,6.33,7.71Zm-2.87-2.77C27.95-.51,53.65-2.3,82.05,3.96c9.03,27.08,6.59,54.15,0,81.22-25.55,4.07-51.09,3.5-76.64-.24C-1.29,58.61-1.56,31.92,3.46,4.94Z" style="fill:#672651; fill-rule:evenodd; stroke-width:0px;"/></g></svg>