<svg width="901" height="889" viewBox="0 0 901 889" fill="none" xmlns="http://www.w3.org/2000/svg">
<path fill-rule="evenodd" clip-rule="evenodd" d="M421.223 1.32178C513.25 -5.80158 590.438 16.9148 651.414 46.7546C698.87 70.0365 741.833 101.529 778.313 139.774C846.563 211.277 902.224 315.019 900.755 457.388C900.07 524.632 880.993 584.189 857.705 634.346C834 685.409 802.679 725.995 765.31 762.175C694.293 830.716 589.409 888.976 452.176 888.976C389.365 889.411 327.17 876.582 269.664 851.327C167.327 806.482 93.053 736.594 44.1496 636.647C20.053 587.493 0.658101 528.744 0.290775 460.521C-0.174506 387.305 10.6249 328.923 33.3992 275.216C54.0941 225.97 83.5297 180.872 120.285 142.1C156.302 103.379 199.102 71.5715 246.571 48.2478C295.989 24.0382 352.214 6.70714 421.223 1.32178ZM247.355 61.3195C198.941 86.5573 158.609 116.862 124.202 155.882C89.0859 195.831 62.3445 233.553 41.1375 289.781C21.8896 340.599 4.94358 407.965 12.5349 477.51C26.9098 608.203 79.7558 696.914 157.923 766.654C197.568 802.323 243.541 830.26 293.466 849.026C346.239 869.025 413.803 881.877 481.17 875.953C611.963 864.35 704.725 811.451 775.203 735.15C811.211 696.439 839.666 651.342 859.101 602.181C879.328 550.775 893.898 486.273 887.581 414.452C881.703 347.992 865.027 294.873 839.142 246.013C789.479 152.357 713.101 81.2209 608.217 41.4182C556.179 21.4924 488.737 7.85764 418.137 13.7081C350.867 19.2158 295.156 36.3266 247.33 61.3195H247.355Z" fill="#00395B"/>
<path fill-rule="evenodd" clip-rule="evenodd" d="M433.369 23.7446C500.125 19.8525 564.774 35.1028 614.167 55.3224C662.015 74.5351 705.874 102.466 743.515 137.694C813.307 202.759 872.569 298.349 877.394 427.646C882.536 564.728 826.359 662.864 760.461 732.996C692.408 805.282 595.972 858.524 468.804 865.304C406.917 868.32 345.133 857.535 287.932 833.727C240.371 814.085 196.625 786.255 158.682 751.502C120.717 717.471 89.6207 676.491 67.071 630.772C43.6112 582.475 28.3793 530.409 24.0449 462.21C19.6124 395.089 34.6484 332.472 55.537 282.976C75.0948 235.481 103.564 192.166 139.41 155.368C193.857 97.9245 263.486 57.0966 340.216 37.6242C370.758 30.0572 401.948 25.4099 433.369 23.7446ZM429.549 29.9378C314.183 35.2252 234.915 79.5075 169.408 135.197C103.289 191.67 57.1778 267.505 37.1707 368.26C13.8577 485.172 47.6763 591.018 92.5391 662.937C139.777 738.528 207.855 795.123 292.683 829.198C340.992 849.075 392.735 859.27 444.976 859.209C504.484 859.209 554.024 849.418 600.405 831.67C683.575 800.32 754.677 743.446 803.512 669.204C850.751 598.044 886.112 492.271 866.594 379.227C848.865 275.828 801.847 202.171 738.887 140.68C662.825 76.8638 571.802 23.2795 429.549 29.9378Z" fill="#00395B"/>
<path d="M173.792 270.296C173.792 270.296 184.151 250.027 189.073 246.649C193.995 243.271 199.113 244.495 201.17 246.845C203.227 249.195 202.859 255.486 200.852 263.809C198.844 272.132 197.668 281.409 195.586 283.221C193.505 285.032 190.689 286.158 188.901 284.273C187.113 282.389 186.036 279.108 187.922 274.482C189.807 269.855 191.718 267.334 191.815 261.288C191.913 255.241 191.375 252.696 188.265 255.413C185.154 258.13 173.792 270.981 173.792 270.981V270.296Z" fill="#00395B"/>
<path d="M123.566 218.303C123.566 219.233 121.925 220.139 119.109 221.73C116.293 223.321 119.109 229.612 121.386 237.543C123.664 245.474 128.268 254.874 131.182 254.923C134.096 254.972 134.292 249.856 134.389 244.52C134.487 239.183 136.251 230.151 135.37 227.825C134.487 225.5 127.19 218.034 127.19 218.034C131.777 218.798 136.122 220.625 139.875 223.37C146.756 228.266 146.511 229.514 146.879 234.41C147.246 239.306 143.157 248.51 141.271 261.949C139.385 275.388 138.455 277.248 139.116 279.573C139.777 281.899 143.206 284.763 146.463 288.043C149.719 291.323 150.846 290.932 151.532 286.281C152.217 281.63 151.972 278.937 150.405 276.979C148.838 275.02 144.234 270.614 144.283 267.824C144.745 264.769 147.132 262.362 150.184 261.875C152.572 261.457 154.491 259.672 155.082 257.322C155.082 255.927 156.16 248.265 155.253 247.335C154.336 246.595 153.291 246.03 152.168 245.67C152.168 245.67 156.062 241.068 159.515 243.908C162.967 246.747 162.453 248.803 161.327 257.2C160.2 265.596 160.69 269.023 161.082 270.663C161.474 272.303 174.649 282.291 184.028 289.879C193.407 297.467 196.272 302.118 194.68 306.109C193.335 309.79 190.374 312.649 186.648 313.868C182.901 314.945 171.048 314.04 169.898 313.868C168.747 313.697 168.232 316.855 169.09 320.82C169.919 326.216 169.82 331.713 168.796 337.074C168.256 340.413 165.876 343.16 162.649 344.173C159.368 345.74 160.2 346.45 157.286 344.173C154.372 341.897 150.551 331.738 150.111 328.947C149.67 326.157 150.65 326.181 152.731 325.52C154.813 324.859 158.487 329.315 160.078 329.119C161.67 328.923 163.678 325.227 163.825 316.414C164.217 309.257 165.035 302.128 166.274 295.069C166.775 293.056 165.735 290.978 163.825 290.173C161.768 288.973 160.592 290.173 159.392 292.621C158.192 295.069 159.392 298.667 157.58 302.412C155.769 306.158 153.564 306.745 150.503 308.556C147.442 310.368 145.851 309.168 143.328 305.423C140.806 301.678 138.626 297.443 137.23 297.639C135.835 297.835 135.786 300.625 134.071 304.322C131.937 307.964 128.483 310.647 124.423 311.812C120.701 313.134 119.525 311.812 119.525 311.812C119.259 307.102 120.221 302.405 122.316 298.177C125.639 291.815 127.361 284.741 127.336 277.566C127.214 271.52 125.354 270.565 123.811 266.82C122.267 263.075 119.329 256.514 114.627 245.988C109.926 235.462 107.526 227.066 109.068 218.474C110.611 209.882 111.517 210.151 113.966 210.421C116.415 210.69 123.615 216.638 123.615 216.638C123.615 216.638 123.59 217.373 123.566 218.303ZM173.277 299.328C172.437 301.967 171.847 304.681 171.514 307.43C171.735 308.826 179.179 307.798 180.795 307.577C182.412 307.357 184.518 307.161 180.795 303.857C177.073 300.552 175.897 299.377 174.6 299.352L173.277 299.328Z" fill="#00395B"/>
<path d="M229.845 165.037C226.983 160.924 223.78 157.059 220.271 153.483C216.891 150.692 213.732 149.958 211.455 151.035C209.177 152.112 208.394 156.224 209.471 159.529C210.392 161.742 212.042 163.573 214.148 164.718C214.176 169.273 213.947 173.825 213.463 178.353C212.655 185.158 210.524 189.442 214.344 191.988C218.165 194.534 221.348 195.537 221.862 192.135C221.935 189.766 223.272 187.618 225.365 186.505C226.491 186.309 232.71 193.383 232.955 194.583C233.201 195.782 231.682 215.023 232.539 217.324C233.763 219.572 235.895 221.186 238.392 221.754C239.763 221.754 240.595 212.697 241.796 209.76C242.995 206.822 244.098 207.532 245.469 206.871C246.84 206.21 247.599 202.367 248.138 198.034C248.677 193.701 249.191 189.222 246.302 185.281C243.412 181.34 239.861 177.227 239.861 177.227L238.711 164.718L237.828 163.127C236.786 164.753 236.202 166.631 236.139 168.562C235.845 172.185 233.837 170.789 232.049 168.929C230.976 167.855 230.213 166.51 229.845 165.037Z" fill="#00395B"/>
<path d="M225.585 117.499C225.36 121.347 225.36 125.205 225.585 129.053C226.025 130.864 237.461 151.524 239.665 156.543C241.869 161.561 254.946 179.797 262.611 184.008C270.276 188.218 273.19 189.418 277.965 189.051C282.741 188.683 293.638 176.591 297.826 170.765C302.013 164.939 302.723 161.291 302.723 157.669C302.723 154.046 302.136 152.528 299.858 152.087C297.581 151.647 297.997 155.417 293.907 154.021C290.88 152.932 287.942 151.614 285.116 150.08C286.581 152.373 287.905 154.752 289.084 157.203C290.405 160.165 290.822 161.316 286.193 167.142C281.566 172.968 280.757 177.741 272.137 177.129C263.518 176.517 260.653 170.569 254.456 160.337C248.261 150.105 239.053 131.329 236.213 125.822C235.521 123.489 234.399 121.306 232.907 119.384C230.899 117.768 225.585 117.499 225.585 117.499Z" fill="#00395B"/>
<path d="M253.893 115.908C255.747 114.79 257.986 114.497 260.064 115.1C262.979 116.275 264.57 119.286 264.252 124.279C263.934 129.273 259.672 149.639 259.672 149.639C256.976 144.077 254.939 138.22 253.6 132.186C251.449 126.951 251.557 121.062 253.893 115.908Z" fill="#00395B"/>
<path d="M355.838 90.5718C355.838 90.5718 353.218 97.3525 350.01 97.0587C346.802 96.765 346.288 90.6452 344.28 88.3442C342.272 86.0432 341.366 85.7739 339.064 87.1203C336.762 88.4666 334.607 94.978 333.848 99.3597C333.089 103.742 337.252 112.383 339.945 114.928C342.24 117.145 345.658 117.737 348.566 116.422C351.015 115.345 355.153 102.689 360.05 96.6426C364.948 90.5963 369.087 87.0224 371.781 88.1973C374.475 89.3723 375.625 90.1067 374.23 94.8311C373.531 96.9082 372.958 99.0253 372.515 101.171C372.515 101.171 379.421 96.765 380.645 91.551C381.87 86.337 380.645 81.074 375.747 80.0948C370.85 79.1157 368.694 80.4131 365.242 81.7349C362.629 82.9667 360.403 84.8881 358.802 87.2916C357.822 88.3442 355.838 90.5718 355.838 90.5718Z" fill="#00395B"/>
<path d="M368.108 115.565C368.933 113.455 368.977 111.119 368.23 108.98C367.588 106.222 366.22 103.686 364.263 101.636C362.742 105.002 361.016 108.272 359.096 111.428C356.662 115.005 355.109 119.107 354.565 123.398C353.547 129.029 352.006 134.552 349.962 139.897C348.297 143.74 346.166 148.489 346.166 148.489C346.166 148.489 351.455 148.342 357.259 139.114C360.203 134.635 362.863 129.974 365.217 125.161C365.217 125.161 365.684 124.5 369.528 125.161C373.373 125.822 379.715 128.318 383.192 125.405C386.67 122.492 385.641 120.338 383.192 117.499C380.744 114.659 378.467 114.879 375.062 115.051L368.108 115.565Z" fill="#00395B"/>
<path d="M380.817 100.559C380.817 100.559 385.714 104.965 388.555 104.574C391.396 104.182 392.963 98.7237 395.461 98.9929C397.959 99.2622 398.13 102.909 398.277 106.777C398.424 110.645 395.828 113.876 393.379 117.866C390.93 121.856 386.597 127.927 383.78 133.361C380.963 138.795 381.478 142.173 385.127 144.499C388.775 146.824 391.788 142.81 394.604 138.085C397.42 133.361 401.338 127.29 401.338 127.29C401.338 127.29 401.828 124.842 402.636 131.182C403.444 137.522 406.627 150.105 407.24 154.437C407.852 158.77 408.024 161.267 410.277 162.687C412.53 164.107 414.439 158.427 416.3 155.735C418.162 153.042 418.602 153.948 415.517 148.685C412.407 142.041 410.382 134.942 409.518 127.657C409.125 123.325 407.314 110.522 407.338 108.539C407.363 106.557 411.696 100.192 411.696 100.192C411.696 100.192 408.758 98.7726 407.607 99.2133C406.708 99.4424 405.758 99.3912 404.889 99.0664C404.889 99.0664 404.056 95.0518 404.742 94.1706C405.428 93.2894 415.737 83.7671 419.141 80.4869C422.546 77.2067 424.186 75.175 420.66 69.2266C417.134 63.2782 415.321 62.5439 415.321 62.5439C415.321 62.5439 418.627 68.737 417.427 71.8948C416.227 75.0526 410.668 80.0463 407.632 80.2911C404.596 80.5359 404.253 80.2911 403.346 78.6999C402.44 77.1088 401.706 54.3434 402.416 46.3878C402.869 42.0861 402.942 37.7531 402.636 33.4385C402.636 33.4385 398.179 36.9879 396.784 37.8936C395.387 38.7993 394.139 46.4857 394.066 50.5737C393.992 54.6617 393.134 65.261 393.722 71.0136C394.31 76.7661 394.58 86.0191 394.555 87.6347C394.531 89.2503 389.364 93.2159 385.959 95.419C383.905 96.7551 382.154 98.5061 380.817 100.559Z" fill="#00395B"/>
<path d="M515.577 66.46C512.394 68.3938 508.965 68.3204 503.798 68.5162C498.63 68.712 492.631 68.3204 491.407 72.6042C490.182 76.888 492.484 76.0557 494.174 77.2307C495.863 78.4057 502.745 79.1156 502.965 82.5426C503.186 85.9697 500.027 86.802 498.263 90.18C496.501 93.5581 497.602 95.0758 501.913 95.0758C506.222 95.0758 511.438 90.6696 515.503 86.7285C519.569 82.7874 525.642 80.9025 527.087 79.7765C528.531 78.6505 528.8 81.2452 527.625 83.4973C526.449 85.7494 528.115 86.3858 529.83 86.1165C531.543 85.8473 531.029 83.84 534.726 82.1999C538.425 80.5598 539.061 78.5526 541.094 78.577C543.127 78.6015 539.968 77.1328 536.196 77.3531C532.425 77.5734 532.744 77.0104 532.499 74.7094C532.254 72.4084 535.707 71.3313 538.596 70.2297C541.481 68.9598 544.691 68.6176 547.78 69.2506C550.057 70.1563 549.738 71.6985 554.048 71.6985C558.358 71.6985 558.628 67.1944 561.077 67.2433C563.526 67.2923 563.526 69.8626 564.113 73.0203C564.701 76.1781 563.477 76.4474 557.427 78.3567C551.626 80.5456 546.023 83.2236 540.678 86.3613C538.645 87.4874 540.678 88.6624 543.127 91.2571C544.72 92.9795 545.872 95.0626 546.481 97.3279C546.481 97.3279 553.632 97.3279 559.362 98.1357C565.436 99.1486 571.301 101.15 576.725 104.06C582.7 106.973 587.793 110.082 586.03 112.897C584.267 115.712 580.251 115.957 571.092 115.785C561.933 115.614 561.958 112.481 559.999 111.306C558.04 110.131 563.183 108.49 564.064 106.801C564.945 105.112 564.431 103.374 554.097 103.668C543.763 103.962 542.613 105.847 542.539 109.274C542.466 112.701 546.212 112.211 549.591 115.124C552.649 117.916 554.188 122.001 553.73 126.115C553.652 130.235 551.254 133.958 547.535 135.735C543.494 138.183 537.446 140.631 536.539 143.275C535.633 145.919 538.498 145.307 542.784 146.531C547.069 147.755 548.759 147.779 551.012 149.835C553.265 151.892 552.113 153.287 546.604 156.347C541.721 159.136 536.128 160.43 530.515 160.067C524.196 160.067 525.617 159.7 526.792 158.281C527.968 156.861 529.437 156.028 529.437 153.385C529.437 150.741 529.217 152.136 523.756 152.626C518.295 153.115 508.279 153.507 507.716 152.332C507.153 151.157 503.479 149.664 504.949 146.58C506.418 143.495 508.744 142.614 513.397 139.554C518.05 136.494 517.194 135.05 516.973 131.305C516.752 127.56 519.078 125.626 520.842 122.786C523.048 119.593 525.82 116.831 529.021 114.635C531.617 112.946 529.021 109.47 527.674 109.151C525.443 108.775 523.151 109.038 521.062 109.91C518.173 111.012 511.267 115.761 508.059 116.275C504.851 116.789 505.61 113.656 503.161 113.337C500.712 113.019 499.146 113.827 498.484 118.233C497.823 122.639 498.901 127.682 498.827 131.966C499.05 135.206 497.588 138.332 494.958 140.24C492.509 141.929 486.754 146.139 484.183 146.09C481.612 146.041 479.701 141.194 477.718 139.089C475.735 136.984 469.857 129.298 472.82 124.965C475.784 120.632 479.701 115.932 483.522 110.547C487.342 105.161 487.366 104.035 487.44 100.021C487.513 96.006 487.268 93.7295 488.15 91.7467C489.032 89.7639 491.407 86.6551 490.305 84.6233C489.203 82.5916 486.852 84.6233 484.256 84.6233C481.661 84.6233 478.306 81.9307 475.759 79.6052C473.212 77.2797 472.722 74.3667 475.931 70.4256C479.138 66.4845 482.615 65.9704 492.093 63.0819C501.57 60.1934 505.928 57.8924 512.247 57.9903C518.564 58.0882 519.348 60.683 519.348 60.683C518.88 63.0217 517.531 65.0904 515.577 66.46ZM523.756 90.0821C525.764 90.0821 525.813 87.6342 525.813 87.6342C525.813 87.6342 523.829 85.7249 522.679 86.5572C521.388 87.329 520.027 87.9765 518.613 88.491C520.232 89.2922 521.969 89.8295 523.756 90.0821ZM522.165 92.0404C520.573 92.0404 521.944 95.1982 522.165 96.6425C522.581 98.2451 524.059 99.3378 525.715 99.2617C527.43 99.2617 528.629 97.0097 529.732 96.1774C530.833 95.3451 531.249 94.2191 533.821 94.268C536.392 94.317 533.282 92.53 532.719 90.229C532.155 87.928 530.76 88.7603 529.854 90.229C528.644 91.6772 527.29 92.9976 525.813 94.1701C525.813 94.1701 523.707 92.0649 522.165 92.0404ZM537.813 122.394C538.058 123.839 537.813 122.394 539.771 125.014C541.73 127.633 539.771 125.014 541.094 125.014H542.613C543.494 125.014 542.613 122.982 542.613 122.982V119.849H539.183C539.183 119.849 537.543 120.95 537.813 122.394ZM488.198 125.234C488.198 125.234 485.04 126.042 485.015 127.486C484.991 128.93 482.982 128.294 482.958 129.738C482.933 131.182 482.958 133.459 482.958 133.459H485.529H489.252C489.091 132.61 489.091 131.738 489.252 130.889L489.57 129.469V126.605L488.198 125.234Z" fill="#00395B"/>
<path d="M712.317 136.347C709.78 135.666 707.204 135.143 704.603 134.781C701.738 134.781 695.028 141.464 690.694 144.572C685.87 148.033 680.843 151.196 675.634 154.046C672.156 155.71 666.157 153.874 660.451 152.332C654.745 150.79 655.871 152.552 648.77 149.566C641.669 146.58 640.542 144.842 636.795 146.482C633.048 148.122 630.991 150.668 634.126 152.455C639.881 156.248 645.439 160.334 650.778 164.694C651.905 165.844 652.468 167.876 642.354 172.038C632.02 176.516 621.172 179.697 610.053 181.511C598.006 183.298 588.529 184.277 586.814 184.253C585.1 184.228 583.313 187.043 585.272 189.662C587.23 192.282 612.747 191.278 631.162 185.599C649.578 179.92 661.822 170.667 666.964 170.765C672.107 170.863 681.144 178.451 692.604 178.941C704.065 179.43 706.098 176.909 708.203 170.912C710.309 164.914 707.224 162.32 707.224 162.32C706.675 165.29 704.361 167.621 701.396 168.194C696.498 168.709 689.665 166.652 688.857 163.592C688.05 160.533 695.297 156.102 699.95 151.867C704.603 147.632 709.746 144.303 712.195 141.488C713.591 140.078 713.645 137.823 712.317 136.347Z" fill="#00395B"/>
<path d="M662.483 184.424C662.483 184.424 676 197.569 678.082 209.05C680.164 220.53 681.412 232.011 677.592 236.809C673.772 241.607 670.955 239.893 666.94 239.893C662.923 239.893 661.454 226.332 660.768 216.296C660.083 206.259 658.466 201.363 655.87 197.594C653.275 193.824 653.422 192.404 657.169 187.802C660.915 183.2 662.483 184.424 662.483 184.424Z" fill="#00395B"/>
<path d="M805.373 263.075C807.944 263.075 808.777 263.417 809.634 264.592C810.491 265.767 809.634 268.313 810.932 271.471C812.23 274.629 813.209 272.67 818.915 275.045C824.62 277.419 828.539 280.969 829.886 286.428C831.233 291.886 830.278 296.439 825.136 296.366C819.993 296.293 818.572 293.918 812.891 292.694C807.21 291.47 805.74 291.715 805.716 292.865C805.691 294.016 811.936 298.128 815.511 304.199C819.267 309.984 818.494 317.599 813.65 322.509C808.556 327.283 799.105 323.391 793.741 319.866C788.378 316.341 782.183 309.364 775.301 308.948C768.42 308.532 768.935 312.84 769.767 314.285C770.599 315.729 776.55 319.866 777.113 324.076C777.677 328.286 778.411 332.423 774.665 332.35C771.621 332.365 768.717 331.062 766.706 328.776C764.681 326.482 761.532 325.535 758.576 326.328C755.858 327.43 746.331 332.986 735.092 333.672C723.851 334.357 720.251 331.224 716.308 327.625C712.246 323.836 708.58 319.645 705.362 315.117C703.109 311.91 704.064 305.937 704.064 305.937C705.933 305.927 707.748 306.557 709.206 307.724C712.024 309.78 714.521 315.068 719.296 320.233C724.071 325.398 730.39 324.443 735.263 324.223C740.136 324.003 746.576 316.879 746.625 313.55C746.674 310.221 742.437 306.892 740.185 306.206C737.932 305.521 737.736 296.146 737.736 294.432C737.736 292.719 738.079 291.274 742.364 292.498C746.65 293.722 755.907 304.738 757.327 305.35C758.747 305.962 759.629 304.248 759.775 301.115C759.922 297.982 760.731 296.219 764.159 296.219C767.587 296.219 768.371 300.576 770.183 301.482C771.995 302.388 773.832 299.524 772.46 296.586C771.09 293.649 761.661 292.4 759.947 292.082C758.233 291.764 758.013 287.456 762.91 286.379C767.808 285.302 772.926 287.431 780.052 290.711C787.178 293.992 787.668 297.443 789.578 303.196C790.942 307.548 793.315 311.516 796.508 314.774C799.888 318.838 808.409 322.999 812.206 318.764C816.001 314.529 812.94 309.634 807.088 300.625C801.234 291.617 781.056 283 776.746 282.34C772.436 281.679 760.707 282.07 757.841 282.021C754.976 281.972 755.589 279.573 750.74 278.766C745.891 277.958 738.716 278.545 733.842 278.447C728.969 278.349 726.789 273.552 726.863 268.876C726.936 264.201 732.25 256.367 734.209 256.637C736.169 256.906 749.123 255.241 751.352 255.29C753.58 255.339 765.923 256.979 769.644 257.273C773.366 257.567 778.755 260.627 781.326 261.533C783.897 262.438 785.121 256.637 787.717 255.339C790.401 253.454 793.829 252.98 796.925 254.066C802.067 255.315 801.381 261.875 801.381 261.875C802.589 262.605 803.962 263.018 805.373 263.075ZM813.234 287.284C815.193 289.585 819.258 287.284 819.258 287.284C820.125 286.087 820.125 284.467 819.258 283.27C817.862 280.822 811.299 279.99 811.299 279.99C811.26 282.562 811.956 285.093 813.307 287.284H813.234ZM740.895 264.372C740.895 264.372 739.646 270.345 744.47 271.3C749.294 272.254 755.049 273.209 755.589 274.359C756.127 275.51 755.589 276.807 760.143 277.003C764.698 277.199 769.057 275.755 771.897 277.223C774.219 278.384 776.692 279.206 779.244 279.671C781.815 280.308 780.933 281.409 783.211 281.458C785.488 281.507 786.884 284.543 789.187 283.906C791.489 283.27 792.664 281.605 790.41 279.843C788.157 278.08 787.325 275.485 784.191 275.706C781.056 275.926 778.975 277.909 777.603 275.706C776.232 273.503 774.836 269.659 773.415 269.072C771.995 268.484 773.71 268.215 770.305 267.016C766.902 265.816 769.742 265.278 766.314 264.935C762.885 264.592 764.575 266.624 761.735 264.935C760.505 264.064 759.161 263.364 757.743 262.854H753.752H747.752C745.387 262.881 743.053 263.398 740.895 264.372Z" fill="#00395B"/>
<path fill-rule="evenodd" clip-rule="evenodd" d="M448.968 162.98C506.447 162.191 562.766 179.17 610.224 211.596C654.94 241.484 685.233 282.119 705.852 324.81C727.891 370.17 740.919 437.952 727.034 502.087C714.936 558.021 689.077 604.898 655.21 639.364C619.212 675.887 576.503 704.013 523.609 717.452C460.967 733.29 395.02 725.946 344.843 705.482C200.885 647.998 130.803 484.743 188.308 340.842C191.149 333.733 194.279 326.742 197.692 319.89C226.612 260.47 275.808 213.324 336.419 186.945C368.646 172.552 403.126 163.421 448.968 162.98ZM379.175 180.116C328.918 192.98 283.573 220.382 248.824 258.889C207.193 304.199 169.873 372.863 177.049 465.662C179.936 500.309 189.149 534.134 204.23 565.462C217.71 592.972 235.875 617.928 257.909 639.217C300.935 679.338 357.038 714.049 434.226 717.892C492.827 720.903 536.612 707.832 574.299 688.689C632.925 658.874 679.6 611.165 704.578 547.275C717.239 514.962 727.622 475.258 724.169 431.612C717.41 347.233 685.282 288.826 639.145 244.887C596.657 204.472 525.151 165.6 440.47 171.107C419.799 172.221 399.281 175.261 379.175 180.189V180.116Z" fill="#00395B"/>
<path d="M406.799 227.874H494.149C494.149 227.874 491.7 236.344 488.517 250.982C486.638 260.064 485.595 269.297 485.407 278.57H531.788C531.788 278.57 525.42 298.691 525.249 373.572C525.007 410.002 531.905 446.128 545.55 479.909H483.741C483.741 479.909 476.395 450.828 472.11 428.723C467.824 406.619 466.624 393.131 466.624 393.131H434.226C433.043 405.047 431.246 416.895 428.839 428.625C424.455 450.656 417.108 479.909 417.108 479.909H355.373C355.373 479.909 375.625 435.651 375.674 373.646C375.674 298.716 369.16 278.594 369.16 278.594H415.541C415.279 269.309 414.221 260.064 412.382 250.958C409.248 236.368 406.799 227.874 406.799 227.874Z" fill="#00395B"/>
<path d="M231.511 509.43C231.511 509.43 321.408 500.447 385.274 529.821C436.014 553.15 450.56 586.392 450.56 586.392C450.56 586.392 464.298 553.835 516.385 529.772C580.642 500.079 669.609 509.43 669.609 509.43L689.2 543.015C689.2 543.015 587.744 530.213 513.936 575.425C488.762 590.847 471.351 620.466 471.351 620.466L429.402 620.222C418.899 602.24 404.373 586.933 386.964 575.499C317.319 530.604 211.97 543.26 211.97 543.26L231.511 509.43Z" fill="#00395B"/>
<path d="M211.822 554.741C211.822 554.741 302.846 546.002 366.712 578.338C407.926 599.219 422.202 632.657 422.202 632.657H478.966C478.966 632.657 492.191 599.292 533.919 578.338C598.911 545.708 689.15 554.79 689.15 554.79V565.169C689.15 565.169 594.135 552.929 525.862 594.103C499.487 610.014 485.162 641.347 485.162 641.347H415.615C406.87 621.921 392.596 605.498 374.572 594.127C311.588 553.664 211.969 564.753 211.969 564.753L211.822 554.741Z" fill="#00395B"/>
<path d="M95.2575 363.316C94.8167 365.984 95.6493 367.477 97.7063 367.844L121.852 372.079C123.86 372.544 125.158 371.418 125.77 368.652L126.897 368.848L124.448 383.535C122.211 394.96 115.876 400.041 105.444 398.786C94.9146 396.6 90.3027 389.77 91.6087 378.297L94.2045 363.144L95.2575 363.316ZM96.6533 375.555C95.3927 375.066 93.9736 375.69 93.4836 376.951C93.3533 377.286 93.2984 377.643 93.3229 378.003C92.0659 384.532 96.441 388.61 106.449 390.243C116.113 391.484 121.518 389.158 122.66 383.266C123.052 380.99 122.464 379.839 120.921 379.839L96.6533 375.555Z" fill="#00395B"/>
<path d="M102.065 436.948C91.2413 435.577 85.9354 429.441 86.1477 418.54C87.4211 407.574 93.4943 402.164 104.392 402.237C115.215 403.608 120.644 409.818 120.676 420.866C119.191 431.668 112.987 437.029 102.065 436.948ZM103.804 410.878C93.4698 410.168 88.0089 412.763 87.4945 418.638C86.9803 424.513 92.3923 427.622 102.653 428.307C112.913 428.993 118.325 426.226 118.938 420.743C119.061 415.113 114.016 411.808 103.804 410.878Z" fill="#00395B"/>
<path d="M86.662 440.302C86.7413 441.536 87.1654 442.723 87.8864 443.729C88.6725 444.451 89.7455 444.777 90.8005 444.61L114.04 443.998C116.489 441.746 117.738 440.302 117.591 439.665H118.741L119.011 450.044L98.5388 467.694L113.232 467.302C116.439 467.473 118.129 465.882 118.129 462.553H119.281L119.55 473.104H118.399C118.08 470.288 116.685 469.04 114.261 469.358L85.6334 470.117V468.771L111.371 446.177L91.78 446.691C88.4251 446.544 86.8824 448.111 86.8824 451.44H85.7314L85.4375 440.326L86.662 440.302Z" fill="#00395B"/>
<path d="M103.829 512.147C103.469 510.255 103.004 509.154 102.432 508.843C101.333 508.324 100.086 508.201 98.9062 508.5L92.6126 509.283C90.3305 505.352 88.9115 500.978 88.4496 496.456C87.4701 485.343 92.3677 478.741 103.142 476.653C114.195 476.195 120.725 481.255 122.733 491.83C122.908 494.349 122.627 496.877 121.901 499.296C121.656 500.092 121.499 500.914 121.435 501.744C121.435 502.625 122.391 503.237 123.884 503.555L124.055 504.902L112.595 506.297L112.473 505.171C118.448 501.45 121.288 497.24 120.97 492.491C120.236 486.518 114.652 484.175 104.22 485.465C93.7881 486.755 88.9558 490.574 89.723 496.922C90.0413 500.495 91.3882 501.989 93.7881 501.45L98.9307 500.814C100.327 500.642 101.184 500.202 101.38 499.516C101.781 498.192 101.873 496.794 101.649 495.428L102.8 495.281L104.881 512.074L103.829 512.147Z" fill="#00395B"/>
<path d="M92.9555 517.435C93.3016 518.59 93.8763 519.665 94.6453 520.593C95.4872 521.143 96.5372 521.268 97.4859 520.935L120.554 515.746C123.003 515.33 123.811 513.641 123.15 510.63L124.277 510.385L127.631 525.195C129.37 533.469 127.631 538.217 122.733 539.49C119.11 540.298 116.17 538.315 113.943 533.591H113.747C114.073 539.694 111.934 543.326 107.33 544.484C101.502 545.39 97.5349 541.62 95.331 533.199L91.8291 517.631L92.9555 517.435ZM99.0287 528.744C96.8738 529.087 96.0901 530.262 96.5799 532.22C97.4451 536.088 100.319 537.476 105.2 536.381C110.081 535.287 112.089 532.276 111.224 527.349L110.93 526.027L99.0287 528.744ZM112.35 525.758C112.571 527.927 113.582 529.939 115.191 531.412C117 532.289 119.089 532.387 120.97 531.682C125.084 530.751 126.774 528.597 126.015 525.219C125.623 523.474 124.693 522.837 123.223 523.31L112.35 525.758Z" fill="#00395B"/>
<path d="M131.206 541.204L140.096 568.131L130.766 571.19L130.349 569.918C132.663 569.088 134.51 567.306 135.419 565.022C135.958 562.263 135.651 559.404 134.537 556.821C133.949 554.178 132.847 553.247 131.206 554.055L120.431 557.605C120.924 559.561 122.074 561.289 123.688 562.5C125.659 563.325 127.85 563.465 129.909 562.892L130.251 563.994L114.555 569.134L114.187 568.033C116.206 567.24 117.922 565.825 119.085 563.994C119.691 562.035 119.569 559.923 118.741 558.045L107.428 561.742C105.518 562.109 104.979 563.724 106.18 566.637C107.617 572.226 112.65 576.14 118.423 576.16L118.84 577.433L108.554 578.779L99.5674 551.412L100.669 551.044C101.074 552.188 101.755 553.213 102.653 554.031C103.555 554.484 104.617 554.484 105.518 554.031L127.974 546.687C130.423 546.051 131.035 544.239 130.08 541.351L131.206 541.204Z" fill="#00395B"/>
<path d="M117.419 600.149L110.758 584.189L111.835 583.748C112.381 584.896 113.156 585.922 114.113 586.759C115.04 587.148 116.095 587.094 116.978 586.612L138.798 577.506C141.075 576.674 141.614 574.789 140.389 571.827L141.442 571.386L148.103 587.347L147.05 587.787L146.903 587.444C145.703 584.605 144.014 583.699 141.834 584.776L120.014 593.858C117.713 594.69 117.198 596.624 118.497 599.708L117.419 600.149Z" fill="#00395B"/>
<path d="M168.795 628.471C168.075 626.691 166.047 625.832 164.267 626.554C163.878 626.711 163.52 626.939 163.212 627.223L149.523 635.031C146.716 636.892 143.346 637.714 139.997 637.357C136.725 636.123 134.023 633.727 132.406 630.625C130.447 627.671 129.526 624.148 129.785 620.613C130.425 617.24 132.742 614.425 135.932 613.147L150.111 605.045C151.679 604.164 152.56 603.356 152.731 602.597C152.902 601.838 152.902 600.81 152.119 599.17L153.123 598.607L161.4 613.123L160.396 613.686C159.319 611.801 158.412 610.846 157.653 610.846C156.895 610.846 155.694 610.846 154.004 611.825L139.875 619.977C134.243 623.037 132.65 626.684 134.977 630.919C137.964 636.126 142.454 636.885 148.445 633.196L161.473 625.852C163.661 625.191 164.898 622.88 164.236 620.694C164.072 620.153 163.798 619.649 163.432 619.218L164.437 618.631L169.751 627.982L168.795 628.471Z" fill="#00395B"/>
<path d="M144.038 647.1C144.801 648.074 145.83 648.806 147.001 649.205C148.052 649.359 149.117 649.026 149.891 648.299L168.722 634.64C169.506 631.36 169.653 629.499 169.188 629.059L170.118 628.398L176.215 636.769L169.261 662.913L181.236 654.223C183.329 653.307 184.283 650.867 183.367 648.774C183.171 648.326 182.897 647.917 182.558 647.565L183.489 646.879L189.709 655.422L188.851 656.034C186.967 653.905 185.13 653.586 183.317 655.3L160.151 672.117L159.368 671.04L167.792 637.92L151.923 649.45C149.843 650.294 148.843 652.666 149.689 654.744C149.897 655.256 150.207 655.721 150.6 656.108L149.67 656.793L143.107 647.785L144.038 647.1Z" fill="#00395B"/>
<path d="M176.73 690.745L165.441 677.649L166.323 676.89C167.191 677.818 168.253 678.545 169.433 679.02C170.435 679.123 171.428 678.741 172.102 677.992L190.003 662.57C191.938 661.077 191.84 659.119 189.758 656.695L190.639 655.936L201.929 669.033L201.047 669.791L200.802 669.498C198.794 667.18 196.909 666.861 195.146 668.543L177.244 683.965C175.302 685.451 175.424 687.458 177.612 689.987L176.73 690.745Z" fill="#00395B"/>
<path d="M225.217 694.172C223.512 692.743 221.058 692.643 219.242 693.928L191.3 706.461L190.346 705.506L202.002 675.96C203.045 674.222 202.805 672.002 201.414 670.526L202.246 669.718L214.001 681.321L213.169 682.153C212.347 681.304 211.376 680.616 210.303 680.122C209.862 679.852 209.324 680.122 208.687 680.685C207.806 681.916 207.166 683.304 206.802 684.773L200.362 700.292L216.23 693.267C216.442 693.103 216.672 692.963 216.915 692.851C217.8 692.53 218.628 692.067 219.364 691.48C219.945 691.032 220.163 690.256 219.903 689.57C219.431 688.567 218.785 687.654 217.992 686.878L218.801 686.045L226.148 693.389L225.217 694.172Z" fill="#00395B"/>
<path d="M226.491 693.658L248.531 711.699L242.31 719.263L241.282 718.431C242.776 716.483 243.364 713.988 242.898 711.577C241.883 708.948 240.09 706.693 237.756 705.115C235.845 703.205 234.425 703.034 233.47 704.576L226.295 713.364C227.758 714.801 229.686 715.667 231.731 715.812C233.834 715.474 235.755 714.419 237.167 712.825L238.05 713.56L227.569 726.338L226.686 725.603C227.979 723.843 228.674 721.716 228.67 719.533C228.132 717.538 226.898 715.802 225.193 714.637L217.651 723.841C216.23 725.187 216.744 726.754 219.193 728.614C223.408 732.565 229.762 733.167 234.645 730.083L235.674 730.94L227.74 737.598L205.455 719.337L206.19 718.431C207.141 719.187 208.271 719.684 209.472 719.875C210.471 719.792 211.376 719.249 211.921 718.407L226.882 700.096C228.523 698.285 228.156 696.4 225.756 694.466L226.491 693.658Z" fill="#00395B"/>
<path d="M260.946 760.608L252.62 755.052V736.619L251.493 735.884L246.155 743.865C245.364 744.787 244.913 745.955 244.881 747.169C244.881 747.732 245.568 748.687 247.134 750.033L246.473 751.012L232.931 741.833L233.568 740.878C235.234 741.833 236.384 742.2 236.972 742.004C238.11 741.427 239.041 740.511 239.641 739.385L251.714 721.32C252.541 720.326 252.977 719.063 252.938 717.77C252.938 717.109 252.179 716.252 250.759 715.151L251.396 714.196L264.497 722.935C271.99 728.076 274.226 733.028 271.207 737.794C269.035 741.27 265.336 742.193 260.113 740.56L260.627 757.695C260.725 758.439 261.113 759.117 261.705 759.58L260.946 760.608ZM252.522 734.587C254.417 736.203 256.795 737.14 259.281 737.255C260.922 737.108 262.562 735.836 264.179 733.363C266.799 729.422 266.481 726.362 263.174 724.159C261.387 722.666 260.186 722.617 259.55 724.159L252.522 734.587Z" fill="#00395B"/>
<path d="M293.443 752.065C294.65 745.962 293.328 741.767 289.475 739.483C286.341 738.014 284.014 738.479 282.52 740.878C281.881 741.855 281.612 743.025 281.761 744.183C282.288 745.801 283.121 747.306 284.21 748.614L288.716 755.1C290.845 758.248 290.957 762.341 289.01 765.602C285.418 770.938 280.268 771.868 273.558 768.392C271.692 767.323 269.985 765.996 268.489 764.451C267.98 763.942 267.422 763.482 266.823 763.081C266.145 762.711 265.298 762.899 264.84 763.521L263.665 762.86L269.395 752.628L270.571 753.289C268.628 760.143 269.891 764.819 274.366 767.315C277.795 769.102 280.464 768.515 282.373 765.626C283.745 763.472 283.084 760.731 280.415 757.72L278.431 754.611C274.66 749.274 273.893 744.876 276.129 741.417C279.582 736.031 284.382 734.954 290.48 738.234C292.1 739.243 293.548 740.509 294.765 741.98C295.203 742.567 295.733 743.079 296.332 743.497C297.116 743.938 297.85 743.693 298.512 742.739L299.858 743.497L294.691 752.701L293.443 752.065Z" fill="#00395B"/>
<path d="M303.947 783.325L288.324 775.981L288.813 774.928C289.994 775.411 291.26 775.65 292.536 775.638C293.476 775.298 294.214 774.551 294.544 773.606L304.683 752.261C305.833 750.107 304.976 748.369 302.087 746.973L302.576 745.945L318.2 753.289L317.71 754.317L317.368 754.17C314.575 752.848 312.739 753.313 311.808 755.566L301.67 776.911C300.519 779.065 301.449 780.828 304.438 782.272L303.947 783.325Z" fill="#00395B"/>
<path d="M329.612 793.41L313.278 787.168L313.694 786.091C315.898 786.801 317.196 786.972 317.637 786.58C318.078 786.189 319.156 785.307 319.841 783.52L329.098 759.286C323.759 757.115 319.785 758.545 317.172 763.57L315.922 763.081L319.596 753.999L347.047 764.5L343.741 773.729L342.297 773.166C343.839 767.732 341.88 764.035 336.468 762.101L327.188 786.336C326.501 788.122 326.379 789.371 326.796 790.081C326.796 790.644 327.922 791.403 330.028 792.333L329.612 793.41Z" fill="#00395B"/>
<path d="M380.255 774.732H380.083C378.826 774.561 377.556 774.945 376.605 775.785L363.553 788.22L361.104 796.935C360.614 798.115 360.536 799.427 360.884 800.656C361.129 801.268 362.231 801.88 364.165 802.541L363.871 803.642L347.342 799.236L347.636 798.11C349.668 798.526 350.941 798.477 351.48 797.963C352.019 797.449 352.827 796.592 353.292 794.854L355.178 787.804L350.672 769.69C350.393 768.033 349.228 766.659 347.636 766.116L347.954 764.99L363.92 769.249L363.626 770.375C360.688 769.47 359.218 769.665 359.267 771.012C359.199 771.761 359.265 772.515 359.464 773.239C359.635 773.558 359.733 773.778 359.684 773.9L362.476 786.58L370.043 779.041C371.34 778.049 372.374 776.754 373.055 775.271C373.544 773.949 372.443 772.823 369.749 772.015L370.043 770.889L380.426 773.68L380.255 774.732Z" fill="#00395B"/>
<path d="M426.391 796.543C424.561 807.297 418.203 812.325 407.314 811.622C396.424 809.909 391.257 803.61 391.813 792.724C393.657 781.986 400.089 776.83 411.11 777.254C421.804 779.212 426.897 785.643 426.391 796.543ZM400.408 793.655C399.257 803.985 401.608 809.517 407.461 810.3C413.313 811.084 416.644 805.894 417.795 795.613C418.946 785.332 416.375 779.873 410.913 778.992C405.208 778.625 401.682 783.52 400.31 793.655H400.408Z" fill="#00395B"/>
<path d="M429.451 779.824L457.319 780.02V789.811H456.168C455.947 787.395 454.872 785.138 453.131 783.447C450.819 782.081 448.142 781.464 445.466 781.684C442.772 781.391 441.548 782.15 441.793 783.961V795.295C446.397 795.704 448.912 793.256 449.335 787.951H450.682L450.559 804.474H449.213C449 799.236 446.551 796.722 441.866 796.935V808.269C441.724 809.36 442.15 810.45 442.992 811.157C444.33 811.732 445.775 812.009 447.229 811.965V813.115L429.549 812.993V811.842C430.759 811.813 431.941 811.495 433.002 810.912C433.729 810.217 434.091 809.221 433.981 808.22L434.153 784.597C434.299 782.15 432.83 780.926 429.744 780.901L429.451 779.824Z" fill="#00395B"/>
<path d="M470.151 779.335L497.823 776.03L498.974 785.821L497.847 785.944C497.323 783.582 495.976 781.484 494.052 780.02C491.574 778.96 488.833 778.678 486.191 779.212C483.498 779.212 482.37 780.191 482.836 781.929L484.183 793.19C488.819 793.011 491.015 790.301 490.77 785.063L492.093 784.891L494.052 801.292L492.729 801.463C491.848 796.274 489.064 794.088 484.379 794.903L485.725 806.163C485.723 807.265 486.287 808.291 487.219 808.881C488.611 809.287 490.075 809.378 491.505 809.15L491.652 810.3L474.094 812.381L473.947 811.231C475.151 811.064 476.295 810.601 477.277 809.884C477.899 809.098 478.131 808.073 477.913 807.094L475.122 783.618C474.95 781.17 473.335 780.167 470.224 780.51L470.151 779.335Z" fill="#00395B"/>
<path d="M522.482 805.013L505.512 808.269L505.292 807.143C506.528 806.841 507.689 806.283 508.695 805.502C509.253 804.675 509.415 803.645 509.136 802.687L504.753 779.481C504.409 777.051 502.671 776.145 499.536 776.764L499.316 775.638L516.311 772.383L516.532 773.509H516.14C513.128 774.096 511.903 775.565 512.492 777.915L516.948 801.145C517.266 803.593 519.078 804.45 522.335 803.813L522.482 805.013Z" fill="#00395B"/>
<path d="M525.323 803.495C526.502 803.118 527.552 802.423 528.36 801.488C528.874 800.553 528.935 799.439 528.531 798.453L522.409 776.03C519.618 774.12 517.952 773.313 517.365 773.582L517.047 772.48L527.062 769.739L549.101 785.43L545.184 771.085C545.049 768.791 543.08 767.041 540.783 767.176C540.318 767.203 539.86 767.308 539.429 767.487L539.11 766.385L549.322 763.741L549.617 764.843C546.972 765.839 546.09 767.47 546.972 769.739L554.513 797.351L553.216 797.694L525.152 778.111L530.319 797.008C530.373 799.253 532.237 801.028 534.48 800.974C535.031 800.962 535.572 800.837 536.074 800.607L536.392 801.733L525.642 804.67L525.323 803.495Z" fill="#00395B"/>
<path d="M592.642 782.737L577.728 788.441L577.337 787.364L577.851 787.168C580.3 786.115 581.058 785.112 580.3 784.132C579.067 782.164 577.557 780.385 575.818 778.845L565.582 782.762C565.232 785.004 565.273 787.29 565.704 789.518C566.079 790.48 567.524 790.676 570.039 790.105H570.235L570.651 791.182L561.296 794.756L560.904 793.679C562.815 792.945 563.622 790.595 563.353 786.58L563.892 757.377L565.141 756.887L584.732 777.205C586.12 778.772 587.69 780.169 589.409 781.366C590.222 781.964 591.285 782.103 592.225 781.733L592.642 782.737ZM574.521 777.327L565.508 767.805V780.877L574.521 777.327Z" fill="#00395B"/>
<path d="M596.168 779.946C597.214 779.342 598.064 778.448 598.617 777.376C598.94 776.36 598.788 775.254 598.201 774.365L588.013 753.583C584.928 752.261 583.116 751.796 582.602 752.212L582.088 751.184L591.368 746.533L616.028 757.622L609.417 744.379C608.877 742.158 606.639 740.797 604.419 741.336C603.938 741.453 603.483 741.654 603.074 741.931L602.535 740.903L612.013 736.178L612.527 737.206C610.078 738.7 609.564 740.462 610.886 742.543L623.693 768.148L622.494 768.735L591.123 755.003L599.891 772.529C600.339 774.715 602.477 776.123 604.661 775.672C605.229 775.557 605.765 775.32 606.233 774.977L606.747 776.005L596.781 780.901L596.168 779.946Z" fill="#00395B"/>
<path d="M654.695 741.147C654.272 746.579 651.292 751.487 646.663 754.366C637.242 759.818 629.308 758.143 622.861 749.348C617.652 739.556 619.4 731.503 628.101 725.187C630.301 723.946 632.705 723.116 635.203 722.739C636.036 722.634 636.856 722.446 637.651 722.176C638.387 721.687 638.582 720.659 638.215 719.092L639.341 718.382L645.488 728.174L644.508 728.81C638.607 724.942 633.562 724.159 629.423 726.362C624.33 729.625 624.574 735.681 630.159 744.526C631.924 747.796 634.514 750.55 637.677 752.506C640.429 753.896 643.698 753.805 646.37 752.261C649.927 750.188 652.092 746.41 652.859 740.927L654.695 741.147Z" fill="#00395B"/>
<path d="M641.325 717.697L663.879 700.366L669.854 708.125L668.801 708.958C667.246 707.048 664.944 705.898 662.483 705.8C659.733 706.221 657.174 707.457 655.137 709.349C652.835 710.794 652.344 712.14 653.643 713.388L660.549 722.372C662.289 721.283 663.585 719.609 664.197 717.648C664.325 715.523 663.73 713.418 662.507 711.675L663.414 710.965L673.503 724.086L672.572 724.771C671.15 723.119 669.237 721.961 667.111 721.466C665.059 721.537 663.106 722.345 661.601 723.743L668.948 733.192C669.896 734.825 671.527 734.678 673.846 732.751C678.634 729.542 680.647 723.503 678.744 718.064L679.821 717.232L684.498 726.485L661.601 744.158L660.892 743.253C661.834 742.491 662.576 741.507 663.047 740.389C663.191 739.395 662.866 738.391 662.165 737.671L647.766 718.921C646.394 716.913 644.484 716.864 642.035 718.725L641.325 717.697Z" fill="#00395B"/>
<path d="M710.823 672.827L711.631 673.635C710.472 674.536 710.053 676.095 710.603 677.453C711.567 680.873 712.28 684.359 712.732 687.881C716.553 688.395 718.978 688.004 720.079 686.731C720.824 685.869 721.076 684.687 720.741 683.598L721.818 683.328C722.479 685.776 722.797 687.074 722.797 687.245C722.785 689.331 721.98 691.335 720.544 692.851C718.4 694.858 715.48 695.822 712.561 695.494C712.04 699.413 710.33 703.078 707.663 705.996C703.256 710.14 699.093 710.458 695.175 706.95C691.91 703.687 691.494 698.792 693.926 692.263C691.374 691.92 688.986 690.802 687.093 689.056C683.616 685.482 683.959 681.394 688.073 676.817C691.844 673.17 695.2 672.582 698.114 675.103C700.318 677.258 700.293 680.734 698.114 685.556L710.75 687.49C710.909 684.777 710.12 682.097 708.521 679.901C707.688 678.726 706.415 679.02 704.725 680.734L703.893 679.926L710.823 672.827ZM696.399 685.066C697.598 683.438 697.398 681.172 695.934 679.779C693.02 677.331 690.522 677.16 688.44 678.898C687.289 680.073 687.388 681.346 688.759 682.692C690.968 684.317 693.659 685.152 696.399 685.066ZM695.371 692.679C694.587 695.494 694.88 697.575 696.252 698.652C701.15 702.03 705.411 702.397 708.913 699.754C709.926 698.461 710.524 696.89 710.627 695.25C708.815 695.078 705.73 694.564 701.101 693.707C700.638 693.658 700.181 693.578 699.729 693.463L695.371 692.679Z" fill="#00395B"/>
<path d="M710.578 653.342L727.329 630.356L735.263 636.133L734.454 637.21C732.43 635.825 729.907 635.369 727.525 635.962C724.966 637.132 722.82 639.053 721.377 641.469C719.591 643.477 719.493 644.921 721.084 645.778L730.243 652.46C731.601 650.916 732.366 648.938 732.398 646.879C731.925 644.801 730.759 642.945 729.091 641.616L729.778 640.686L743.124 650.478L742.463 651.408C740.628 650.23 738.468 649.655 736.291 649.768C734.339 650.416 732.689 651.746 731.638 653.513L741.262 660.538C742.683 661.885 744.225 661.273 745.94 658.703C749.649 654.277 749.889 647.902 746.527 643.207L747.335 642.13L754.437 649.67L737.394 672.925L736.462 672.239C737.16 671.238 737.589 670.075 737.712 668.861C737.602 667.838 737.011 666.93 736.12 666.413L717.019 652.485C715.133 650.967 713.272 651.432 711.46 653.905L710.578 653.342Z" fill="#00395B"/>
<path d="M769.007 612.829C771.157 617.83 770.802 623.553 768.052 628.251C762.273 637.504 754.479 639.731 744.666 634.934C735.507 628.748 733.295 620.809 738.029 611.116C739.401 609.001 741.144 607.152 743.172 605.657C743.84 605.197 744.451 604.653 744.984 604.041C745.449 603.282 745.131 602.279 744.053 601.055L744.739 599.904L754.706 605.681L754.142 606.66C747.115 606.024 742.315 607.664 739.719 611.556C736.715 616.763 739.751 621.992 748.828 627.247C751.916 629.325 755.497 630.557 759.211 630.821C762.276 630.797 765.119 629.232 766.778 626.66C768.951 623.184 769.105 618.834 767.243 613.612L769.007 612.829Z" fill="#00395B"/>
<path d="M775.717 572.39C785.513 577.286 788.427 584.825 784.607 595.008C779.709 604.947 772.363 608.031 761.98 604.335C752.184 599.439 749.13 591.785 752.82 581.374C757.816 571.68 765.449 568.686 775.717 572.39ZM765.408 596.404C774.926 600.499 780.916 599.863 783.382 594.494C785.537 589.126 781.846 584.402 772.314 580.321C762.795 576.534 756.83 577.114 754.413 582.059C752.436 587.315 756.102 592.095 765.408 596.404Z" fill="#00395B"/>
<path d="M791.268 574.006C791.618 572.816 791.618 571.548 791.268 570.358C790.749 569.44 789.855 568.796 788.819 568.596L766.584 561.766C763.498 563.112 761.906 564.092 761.857 564.753L760.756 564.41L763.792 554.618L788.819 544.411L774.689 540.053C772.683 538.93 770.146 539.642 769.023 541.647C768.783 542.07 768.621 542.533 768.543 543.015L767.44 542.673L770.551 532.563L771.653 532.906C771.065 535.664 771.971 537.295 774.371 537.801L801.749 546.198L801.358 547.495L769.767 560.714L788.501 566.466C790.44 567.621 792.95 566.987 794.109 565.049C794.39 564.574 794.574 564.05 794.647 563.504L795.749 563.847L792.468 574.52L791.268 574.006Z" fill="#00395B"/>
<path d="M794.206 500.006C804.785 502.73 809.283 509.479 807.7 520.25C805.087 530.972 798.377 535.606 787.57 534.154C776.991 531.429 772.38 524.59 773.733 513.641C776.574 503.115 783.399 498.569 794.206 500.006ZM789.308 525.66C799.495 527.65 805.209 525.765 806.45 520.005C807.429 514.326 802.826 510.49 792.639 508.5C782.533 506.867 776.82 508.696 775.497 513.983C774.616 519.565 779.194 523.457 789.21 525.66H789.308Z" fill="#00395B"/>
<path d="M814.581 453.765L813.307 469.995H812.157C812.201 468.788 811.958 467.588 811.446 466.494C810.736 465.694 809.701 465.261 808.63 465.319L783.897 463.532V463.704L812.72 478.122V479.468L782.868 489.578L805.691 491.218C806.968 491.468 808.287 491.223 809.39 490.533C810.41 489.551 811 488.202 811.03 486.787H812.181L811.348 498.096H810.197C810.361 496.824 810.122 495.531 809.512 494.4C808.662 493.712 807.592 493.355 806.499 493.397L783.309 491.708C781.008 491.291 779.685 492.662 779.342 495.869H778.191L779.097 483.409L802.998 475.331L780.517 463.875L781.424 451.415H782.574C782.574 453.325 782.795 454.5 783.284 454.916C784.269 455.76 785.54 456.198 786.836 456.14L808.409 457.755C809.6 458.027 810.849 457.843 811.912 457.241C812.45 456.899 812.94 455.724 813.332 453.692L814.581 453.765Z" fill="#00395B"/>
<path d="M813.773 432.591L814.067 449.898H812.916C812.825 448.625 812.475 447.384 811.888 446.25C811.175 445.555 810.183 445.222 809.194 445.344L785.563 445.761C783.114 445.761 781.913 447.229 781.987 450.436H780.836L780.518 433.154H781.669V433.546C781.669 436.606 782.967 438.05 785.415 437.878L809.047 437.462C811.496 437.462 812.671 435.92 812.622 432.567L813.773 432.591Z" fill="#00395B"/>
<path d="M804.467 397.097C809.128 399.912 812.171 404.773 812.671 410.193C813.307 421.086 808.238 427.328 797.463 429.213C786.444 429.475 780.035 424.293 778.24 413.669C778.16 411.179 778.507 408.695 779.269 406.325C779.548 405.534 779.729 404.712 779.807 403.877C779.807 402.964 778.992 402.328 777.358 401.968L777.236 400.646L788.721 399.544L788.844 400.695C782.721 404.244 779.783 408.381 779.979 413.106C780.55 419.11 786.06 421.617 796.509 420.621C800.233 420.52 803.865 419.439 807.039 417.488C809.519 415.664 810.902 412.702 810.711 409.63C810.467 405.542 808.067 401.894 803.513 398.737L804.467 397.097Z" fill="#00395B"/>
<path d="M783.015 375.335C777.579 378.321 775.203 382.025 775.889 386.448C776.795 389.802 778.632 391.344 781.424 390.879C782.586 390.744 783.664 390.198 784.46 389.337C785.368 387.917 786 386.341 786.322 384.686L788.402 377.073C789.463 373.416 792.549 370.703 796.312 370.121C802.711 369.435 806.727 372.789 808.361 380.182C808.713 382.302 808.786 384.456 808.581 386.595C808.502 387.303 808.502 388.017 808.581 388.725C808.735 389.486 809.419 390.025 810.197 389.998L810.442 391.32L798.932 393.474L798.663 392.152C805.194 389.246 807.969 385.273 806.99 380.231C806.156 376.485 804.026 374.796 800.573 375.188C798.124 375.531 796.434 377.636 795.675 381.748L794.574 385.273C792.884 391.589 790.019 395.065 785.929 395.505C779.562 396.321 775.676 393.334 774.273 386.546C774.001 384.659 774.04 382.74 774.395 380.867C774.552 380.145 774.611 379.403 774.567 378.664C774.403 377.783 773.742 377.391 772.583 377.489L772.289 375.971L782.697 374.038L783.015 375.335Z" fill="#00395B"/>
<path d="M485.431 432.493H485.994V448.747H485.431V432.493Z" fill="#00395B"/>
</svg>
