<svg width="88" height="88" viewBox="0 0 88 88" fill="none" xmlns="http://www.w3.org/2000/svg">
<mask id="mask0_316_79" style="mask-type:alpha" maskUnits="userSpaceOnUse" x="0" y="0" width="88" height="88">
<path d="M0 0H88V87.9993H0V0Z" fill="white"/>
</mask>
<g mask="url(#mask0_316_79)">
<path fill-rule="evenodd" clip-rule="evenodd" d="M2.79467 43.9965C2.79467 21.2765 21.2803 2.7937 43.9961 2.7937C66.7175 2.7937 85.2031 21.2765 85.2031 43.9965C85.2031 66.7165 66.7175 85.2021 43.9961 85.2021C21.2803 85.2021 2.79467 66.7165 2.79467 43.9965ZM-0.00146484 43.9965C-0.00146484 68.2602 19.7366 87.9982 43.9961 87.9982C68.2612 87.9982 87.9992 68.2602 87.9992 43.9965C87.9992 19.7356 68.2612 -0.00244141 43.9961 -0.00244141C19.7366 -0.00244141 -0.00146484 19.7356 -0.00146484 43.9965Z" fill="#004098"/>
</g>
<path fill-rule="evenodd" clip-rule="evenodd" d="M12.5901 30.8249L11.2669 30.2729L11.9535 28.6197L13.2767 29.1731L12.5901 30.8249ZM12.5471 33.8541L12.4237 33.8208L13.0964 32.2064L14.6026 32.8319L15.4584 33.2244L15.8953 32.1662L15.0173 31.8361L13.5111 31.2091L14.2004 29.5545L14.3211 29.6169L14.7441 28.5989L13.8384 28.2521L12.181 27.56L11.4417 27.2244L11.1407 28.0316L10.3654 29.8984L9.90216 29.7057L8.99924 29.2937L8.55957 30.3506L9.48746 30.7029L9.94793 30.8957L9.19342 32.7154L8.84251 33.4741L9.60119 33.7639L11.2572 34.4547L12.1352 34.8416L12.5471 33.8541ZM10.1768 32.8888L10.8495 31.2688L12.1726 31.825L11.5013 33.4394L10.1768 32.8888Z" fill="#E60012"/>
<path fill-rule="evenodd" clip-rule="evenodd" d="M17.9366 17.9076L21.5399 14.73L24.9755 18.6288L21.3749 21.8064L17.9366 17.9076ZM17.214 18.504L20.7008 22.4527L21.2847 23.1545L22.0032 22.5207L21.9352 22.4374L25.5358 19.2599L25.644 19.3833L26.3777 18.737L25.7522 18.0699L22.2334 14.0768L21.6911 13.4221L21.1183 13.963L17.2459 17.3764L16.6328 17.8826L17.214 18.504ZM21.171 21.3723L21.6772 20.8979L24.006 18.8452L24.5732 18.3736L24.0184 17.7425L23.5857 18.1517C23.5885 17.9561 23.5954 17.7744 23.601 17.6122L23.3305 17.5927L22.9449 17.5803C22.8853 17.5747 22.7937 17.5664 22.6717 17.547L23.1377 17.1822L22.5635 16.5317L22.189 16.8785L21.4498 17.5331L20.9408 16.9561L21.7202 16.271L22.2598 15.841L21.68 15.1822L21.1405 15.6857L18.9255 17.6399L18.4026 18.0782L18.9712 18.7231L19.4678 18.2543L20.2334 17.5803L20.7438 18.1572L20.1308 18.6982L19.6079 19.1351L20.1765 19.78L20.6745 19.3112L21.2847 18.7717L21.9838 19.5623L21.1571 20.2973L20.6162 20.7412L21.171 21.3723ZM22.6939 18.9395L21.9935 18.1489L22.404 17.7828C22.3888 17.9964 22.3555 18.1864 22.3028 18.3486C22.6648 18.3403 22.895 18.3486 22.9962 18.3681C23.1017 18.3903 23.196 18.4083 23.2736 18.4249L22.6939 18.9395Z" fill="#E60012"/>
<path fill-rule="evenodd" clip-rule="evenodd" d="M32.2245 9.21561C32.4034 9.31824 32.5588 9.41117 32.6905 9.48884C32.7335 9.37788 32.7932 9.21838 32.8722 9.01033C32.9471 8.80645 32.9998 8.66637 33.0262 8.59286C32.5713 8.35152 32.1163 8.14348 31.6586 7.95901C31.5712 8.24334 31.4423 8.52212 31.2661 8.78981C31.7238 8.96873 32.0456 9.11297 32.2245 9.21561ZM33.0941 15.0312C33.2134 15.1158 33.3216 15.1893 33.4215 15.2614L33.5144 14.8453C33.5865 14.5277 33.6517 14.0978 33.7113 13.561L33.8015 12.6539C33.8071 12.5943 33.814 12.5041 33.8306 12.3765L33.6032 12.3072C33.5629 12.2961 33.3299 12.1976 32.8986 12.0062L32.9069 12.2572C32.9125 12.364 32.9 12.5582 32.8722 12.837C32.8445 13.1185 32.8154 13.3474 32.7849 13.5222C32.7557 13.7011 32.7127 13.8855 32.6683 14.0811C32.6226 14.2753 32.5851 14.4112 32.5574 14.4875C32.5283 14.5624 32.4977 14.6414 32.4617 14.7233C32.7627 14.8453 32.9721 14.948 33.0941 15.0312ZM32.2079 11.2822C32.3701 11.3585 32.5934 11.4778 32.8722 11.6428L32.9527 11.364L33.126 10.9146C33.1427 10.8758 33.1649 10.8134 33.194 10.7274C32.9804 10.6303 32.531 10.4348 31.8375 10.1449C31.764 10.4126 31.7044 10.597 31.6503 10.6969C31.6018 10.7981 31.5477 10.9008 31.4908 11.0034C31.8043 11.1144 32.04 11.2073 32.2079 11.2822ZM36.9541 10.2988C36.5963 10.0658 36.3424 9.90909 36.1954 9.81755L37.4132 9.50548L37.5935 10.364L36.6975 10.5915L36.9541 10.2988ZM37.0359 12.3904C37.1788 12.2364 37.3092 12.1061 37.4284 12.0034C37.0761 11.7593 36.8126 11.5887 36.6406 11.4805L37.7752 11.1934L37.8529 11.5665C37.8806 11.7316 37.9167 11.9271 37.9486 12.1602L37.0359 12.3904ZM35.0387 10.1102L35.9166 9.8869C35.8334 10.0006 35.6892 10.1587 35.4811 10.3502C35.6268 10.4209 35.8431 10.5513 36.1302 10.7357L35.1524 10.984L35.0387 10.1102ZM33.2966 10.1338C33.4034 10.2073 33.5199 10.2905 33.6434 10.389L33.7987 10.1255C33.8334 10.0686 33.9069 9.91464 34.0179 9.66499L34.0914 10.0533C34.0914 10.0658 34.115 10.2045 34.1566 10.4611C34.1968 10.7246 34.2204 10.8841 34.2287 10.941C34.237 11.0006 34.2467 11.0936 34.2592 11.2115L33.4575 11.3987L33.6739 12.2572L34.3868 12.0547L34.4215 12.4389C34.4326 12.586 34.4464 12.7801 34.4562 13.0242C34.47 13.2683 34.4756 13.4362 34.4783 13.5222C34.4811 13.6123 34.4811 13.7427 34.4811 13.9105L35.2634 13.6775L38.0193 12.9785L38.0026 13.095C37.9971 13.1893 37.9028 13.2767 37.7266 13.3543C37.5505 13.4389 37.4284 13.4847 37.3605 13.4986C37.2953 13.5125 37.0761 13.5471 36.71 13.6012C36.9291 13.8342 37.0678 14.0076 37.1275 14.1158C37.1871 14.224 37.244 14.3377 37.2953 14.4598C37.9056 14.2864 38.2981 14.1324 38.4825 13.9882C38.6642 13.8481 38.7835 13.7011 38.8459 13.5527C38.9125 13.4015 38.9486 13.2572 38.9583 13.1185C38.9666 12.9785 38.9721 12.8536 38.9832 12.7344L39.6254 12.5915L39.4174 11.7649L38.8154 11.941L38.7669 11.6622L38.6906 11.2558C38.6767 11.1962 38.6628 11.0977 38.642 10.9715L39.3549 10.8134L39.1372 9.95764L38.4479 10.1477L38.3438 9.61089C38.3355 9.56235 38.3008 9.40562 38.2454 9.13932L38.1108 8.45971L37.2412 8.71214L34.8029 9.32934L34.0775 9.49161C34.1371 9.31824 34.1968 9.14487 34.2564 8.96873L37.3854 8.17538L38.4118 7.94514L38.1927 7.08105L37.1788 7.36816L34.5061 8.045C34.5602 7.86053 34.6059 7.66358 34.6462 7.44999C34.3646 7.46802 34.0317 7.44444 33.6462 7.3848C33.6309 7.61227 33.6032 7.81754 33.5713 7.99923C33.5352 8.18092 33.4756 8.43058 33.3923 8.73849C33.3077 9.05056 33.2134 9.28912 33.1025 9.45139C32.9887 9.61089 32.8861 9.75237 32.7876 9.87165C33.0206 9.97151 33.1885 10.0575 33.2966 10.1338ZM35.2592 11.8328L36.2772 11.5721L36.201 11.6373L35.9791 11.8439C35.9471 11.873 35.8972 11.9077 35.8376 11.9618C36.1594 12.1491 36.3563 12.2711 36.4229 12.328C36.4964 12.3821 36.5671 12.4362 36.6351 12.493L35.3424 12.8217L35.2592 11.8328Z" fill="#E60012"/>
<path fill-rule="evenodd" clip-rule="evenodd" d="M50.3041 11.7235L51.3846 11.9857L51.6023 11.098L50.5566 10.8428L49.8132 10.6805L50.0281 9.79424L50.7161 9.98148L51.8076 10.2478L52.0212 9.36982L50.5857 9.02031L49.8894 8.87051L50.1016 8.00088L50.7785 8.18812L51.472 8.35595C51.4123 8.0203 51.3097 7.65414 51.1655 7.25053C51.5344 7.18673 51.8367 7.11877 52.0698 7.05913C52.2112 7.50018 52.3388 7.92599 52.4498 8.33792C52.2958 8.37537 52.1266 8.42114 51.9533 8.47245L53.4956 8.84694C53.3569 8.74153 53.2085 8.63473 53.0531 8.52377C53.2223 8.35872 53.368 8.20199 53.4845 8.05497C53.6038 7.91212 53.7369 7.73597 53.8881 7.51683C54.1377 7.71933 54.3971 7.92321 54.6662 8.12294C54.3402 8.50019 54.1613 8.70269 54.135 8.7332L53.9533 8.95789L54.6218 9.12017L55.3375 9.27412L55.1239 10.1632L54.4567 9.98148L52.9616 9.61809L52.7535 10.4752L53.7369 10.718L54.4734 10.8733L54.2598 11.761L53.6301 11.5904L52.5469 11.3255L52.3305 12.2145L53.8534 12.5821L54.5649 12.736L54.3486 13.6362L53.6648 13.4461L52.1225 13.0758L51.9408 13.8178L51.7286 14.804L50.7327 14.5599L50.9976 13.5876L51.1765 12.8428L50.1044 12.5821L49.0448 12.3435L49.2639 11.4475L50.3041 11.7235ZM48.7008 7.0619C48.9893 6.88021 49.2487 6.69019 49.4803 6.49463C49.8506 6.93707 50.1391 7.29491 50.3416 7.57647C50.293 7.62501 50.0531 7.85525 49.6301 8.26718C49.5247 8.11739 49.2154 7.71378 48.7008 7.0619ZM47.4054 12.1244C47.5524 11.951 47.7258 11.718 47.931 11.4336C48.1349 11.1465 48.2667 10.951 48.3319 10.8428L48.6079 10.3879C48.7868 10.6126 49.0045 10.8511 49.2528 11.1119C48.9796 11.5446 48.741 11.908 48.5385 12.2006C48.3346 12.4905 48.1419 12.761 47.9643 13.0106C47.7854 13.2561 47.6148 13.4739 47.4511 13.6556C47.2861 13.2755 47.1543 13.0162 47.0531 12.8719L46.8853 12.6306C47.0836 12.4683 47.257 12.2977 47.4054 12.1244ZM47.766 8.98702C48.1418 8.67911 48.3887 8.47523 48.4997 8.37814C48.7688 8.68466 49.0683 9.06053 49.4095 9.51268C49.0254 9.8622 48.7868 10.0841 48.7008 10.1743C48.619 10.0494 48.533 9.93016 48.4428 9.80811C48.3568 9.68883 48.1294 9.4156 47.766 8.98702Z" fill="#E60012"/>
<path fill-rule="evenodd" clip-rule="evenodd" d="M60.9051 17.4531C61.2809 17.6292 61.7095 17.7832 62.1977 17.9219C62.6818 18.0578 63.145 18.0675 63.5778 17.9454C64.0091 17.8317 64.3531 17.6944 64.6111 17.5294C64.8677 17.3671 65.091 17.1826 65.2851 16.9704L65.6541 16.5862C64.8496 15.8955 64.3226 15.4614 64.0715 15.2783L63.3073 14.7083L63.8982 13.969L64.6568 14.6056L66.2449 15.8789C66.5889 15.4614 66.79 15.2103 66.8621 15.1174L67.4044 14.4087C67.772 14.761 67.9675 14.9413 67.9939 14.9579L68.2408 15.1562C68.0161 15.4128 67.894 15.5571 67.8691 15.5862L67.0674 16.5404L68.7068 17.8511L69.4918 18.4503L68.8885 19.2034L68.1326 18.5668L66.4932 17.2547C66.385 17.399 66.3046 17.5155 66.2546 17.607C66.2033 17.7027 66.1381 17.8622 66.0632 18.0897C65.9814 18.3144 65.9218 18.564 65.8788 18.8317C65.8385 19.0952 65.8302 19.4961 65.8566 20.0287C65.8871 20.5682 65.998 20.9885 66.1894 21.2922C66.3795 21.5973 66.5806 21.8761 66.7803 22.1341C66.6776 22.166 66.5639 22.2076 66.4474 22.2562C66.3323 22.3075 66.1853 22.3949 66.0091 22.5211L65.7567 22.6889C65.6402 22.5003 65.4807 22.2076 65.2768 21.8193C65.0715 21.4323 64.9412 20.9399 64.8843 20.3435C64.8274 19.7527 64.8219 19.3491 64.8677 19.141L64.98 18.4933C64.7706 18.6015 64.557 18.7013 64.3434 18.7887C64.1284 18.8775 63.8246 18.9427 63.4238 18.9843C63.0271 19.0217 62.568 18.9968 62.0618 18.9052C61.5486 18.8123 61.1159 18.7152 60.7622 18.6154C60.7913 18.5183 60.8191 18.4115 60.8454 18.295C60.8704 18.184 60.8912 17.9025 60.9051 17.4531Z" fill="#E60012"/>
<path fill-rule="evenodd" clip-rule="evenodd" d="M78.781 28.7823C78.2747 29.2996 77.9571 29.6242 77.8198 29.7573L77.4287 30.1235C77.1693 29.7975 76.9308 29.5326 76.7088 29.3274C76.8545 29.2206 76.9793 29.129 77.0875 29.0472C77.1915 28.9695 77.3205 28.8558 77.4731 28.7088C77.6242 28.5631 77.8226 28.3412 78.0653 28.0458C78.2803 28.319 78.5188 28.5631 78.781 28.7823ZM74.2414 26.8918L74.842 26.645L75.3357 26.4203L75.6478 27.2594L75.8767 27.8211C76.2775 27.3953 76.559 27.0208 76.7283 26.7046L76.9307 26.3176C77.2608 26.5936 77.4592 26.7448 77.5216 26.7753L77.774 26.8974C77.4564 27.43 77.1915 27.8308 76.9793 28.1082L76.7255 28.4383C76.4522 28.2192 76.1749 28.0292 75.8933 27.8641L77.2289 31.1277C77.2692 30.9446 77.2941 30.7171 77.3094 30.4425C77.5133 30.4994 77.6825 30.5437 77.8198 30.5701C77.9571 30.6006 78.136 30.6186 78.3552 30.6325C78.5785 30.6464 78.7408 30.6519 78.8434 30.6436L79.3469 30.6048C79.3385 30.9792 79.358 31.3579 79.4093 31.7351C79.2317 31.7268 79.0819 31.7185 78.9488 31.713C78.8156 31.7019 78.5965 31.6811 78.2844 31.645C77.971 31.6103 77.7657 31.5812 77.67 31.559L77.3801 31.4966L77.6104 32.0625L77.9987 32.9293L77.4564 33.136L76.7713 33.4175L76.2622 33.6422L75.8767 32.6963L76.4925 32.4689L76.7823 32.3468L74.8753 27.688L74.5382 27.8267L74.0126 28.0611L73.6284 27.1165L74.2414 26.8918ZM74.5008 29.9959C74.4495 30.2122 74.3815 30.4314 74.2955 30.6602C74.4897 30.7629 74.6852 30.8544 74.885 30.9335L74.5008 29.9959ZM71.8655 27.6574L72.7476 27.2982L73.0514 28.1262L73.7338 29.7948C73.7698 29.7143 73.799 29.6269 73.8239 29.5326C74.0514 29.706 74.2705 29.8447 74.4814 29.9529L74.1845 29.2178L73.8392 28.455L74.6783 28.1138L74.9613 28.8905L76.1776 31.8711L75.842 32.3607C75.7601 32.3385 75.6492 32.3038 75.5119 32.258C75.3718 32.2123 75.0486 32.0444 74.5355 31.7546L75.1679 33.2927L75.5188 34.0777L74.6422 34.4411L74.3219 33.5937L73.5687 31.7462C73.4439 31.8295 73.3413 31.8946 73.2608 31.9376C73.1818 31.9848 73.0597 32.0444 72.8947 32.1221C72.7324 32.1984 72.5451 32.2386 72.3371 32.2469C72.1346 32.2525 71.9432 32.1679 71.7726 31.9876C71.6034 31.8031 71.4744 31.6297 71.3967 31.4675C71.3121 31.3038 71.2275 31.1013 71.1401 30.86C71.2566 30.7892 71.3551 30.724 71.4425 30.6644C71.5271 30.6048 71.5992 30.5437 71.6672 30.4702L71.9141 30.2012C71.9793 30.3773 72.0278 30.5271 72.068 30.638C72.1041 30.749 72.1346 30.8308 72.1582 30.8794C72.2358 31.0583 72.3371 31.1526 72.4508 31.1554C72.5646 31.1582 72.6727 31.1415 72.7754 31.1041C72.921 31.0417 73.0167 30.9876 73.0597 30.9335L73.179 30.7948L72.222 28.455L71.8655 27.6574Z" fill="#E60012"/>
<path fill-rule="evenodd" clip-rule="evenodd" d="M8.54196 44.1092C7.19104 44.2424 5.59325 44.8873 5.75275 46.5392C5.90671 48.0801 7.45318 48.5115 8.98024 48.3617C10.6918 48.1966 11.9511 47.3714 11.8097 45.9345C11.6779 44.5724 10.4158 43.9275 8.54196 44.1092ZM8.66262 45.0218C9.52393 44.9386 10.6973 45.0329 10.7972 46.0385C10.8998 47.1217 9.57941 47.3783 8.91783 47.4463C7.22294 47.6113 6.8124 46.9026 6.7694 46.4338C6.71809 45.8998 7.07731 45.5475 7.41019 45.3686C7.63488 45.241 8.00104 45.0842 8.66262 45.0218Z" fill="#004098"/>
<path fill-rule="evenodd" clip-rule="evenodd" d="M8.86882 53.3497C8.40141 53.358 6.9326 53.3816 6.61915 51.9738C6.35978 50.806 7.31541 49.7546 9.10738 49.3621C10.7024 49.0043 12.2614 49.2969 12.572 50.7006C12.6261 50.9419 12.726 51.5536 12.2059 52.1638C11.9645 52.4454 11.6511 52.6312 11.2697 52.8018L10.805 52.0029C11.4084 51.7574 11.665 51.3261 11.5679 50.8795C11.3279 49.8087 9.75509 50.1583 9.38616 50.2401C8.84662 50.3594 8.31958 50.5272 7.99086 50.7893C7.70376 51.0168 7.52761 51.358 7.61638 51.7436C7.74259 52.3233 8.38615 52.4579 9.03664 52.426L8.86882 53.3497Z" fill="#004098"/>
<path fill-rule="evenodd" clip-rule="evenodd" d="M13.1052 53.2678L14.2162 56.3455L13.2842 56.6867L12.47 54.4412L11.2425 54.885L11.9943 56.9738L11.0608 57.3095L10.3063 55.2207L8.80562 55.7658L9.64335 58.0876L8.70853 58.4232L7.56982 55.2692L13.1052 53.2678Z" fill="#004098"/>
<path fill-rule="evenodd" clip-rule="evenodd" d="M11.4641 63.4699L15.686 58.9996L15.2131 58.1799L9.25049 59.6265L9.72483 60.449L11.0619 60.0995L11.944 61.6307L10.9787 62.6252L11.4641 63.4699ZM12.0605 59.8401L14.2575 59.2687L12.6611 60.8859L12.0605 59.8401Z" fill="#004098"/>
<path fill-rule="evenodd" clip-rule="evenodd" d="M16.9083 60.9609L17.4353 61.6433L15.4381 65.4742L15.4436 65.4825L18.5463 63.0691L19.0525 63.7182L14.4062 67.3382L13.8555 66.6337L15.8015 62.8791L15.7973 62.8708L12.7654 65.23L12.2563 64.5768L16.9083 60.9609Z" fill="#004098"/>
<path fill-rule="evenodd" clip-rule="evenodd" d="M23.1639 67.7172L21.1846 70.2124C20.7505 70.7588 20.5716 70.9835 20.4842 71.272C20.3552 71.7075 20.566 71.9974 20.7769 72.1652C21.444 72.6937 21.8906 72.1333 22.5106 71.3469L24.5286 68.8032L25.2263 69.3566L23.3053 71.7755C22.6521 72.6035 22.2651 73.0404 21.8171 73.254C21.1181 73.5924 20.5494 73.2873 20.1624 72.9808C18.745 71.8559 19.6715 70.6923 20.5161 69.6271L22.4676 67.168L23.1639 67.7172Z" fill="#004098"/>
<path fill-rule="evenodd" clip-rule="evenodd" d="M26.0766 69.9441L26.8186 70.3852L26.3443 74.6848L26.3526 74.6875L28.3706 71.3116L29.0808 71.7347L26.0613 76.7916L25.2943 76.3339L25.7492 72.1327L25.7368 72.1244L23.7659 75.424L23.0571 74.9996L26.0766 69.9441Z" fill="#004098"/>
<path fill-rule="evenodd" clip-rule="evenodd" d="M30.0008 72.1599L30.8024 72.5386L28.2782 77.859L27.4751 77.4776L30.0008 72.1599Z" fill="#004098"/>
<path fill-rule="evenodd" clip-rule="evenodd" d="M31.2817 72.8208L32.1888 73.1537L31.72 77.6294L31.7338 77.6322L34.2512 73.9123L35.1361 74.2397L31.6229 79.2189L30.7241 78.8888L31.2817 72.8208Z" fill="#004098"/>
<path fill-rule="evenodd" clip-rule="evenodd" d="M35.6903 74.3757L38.879 75.1122L38.657 76.0803L36.3297 75.5436L36.0343 76.8168L38.1966 77.3203L37.9719 78.287L35.8096 77.7863L35.449 79.3411L37.854 79.8987L37.6265 80.8695L34.3574 80.1081L35.6903 74.3757Z" fill="#004098"/>
<path fill-rule="evenodd" clip-rule="evenodd" d="M39.1577 81.1239L40.044 81.2155L40.3047 78.7702L40.4795 78.7911C41.0759 78.8535 41.1189 78.9728 41.5419 80.0837L42.0454 81.4305L43.105 81.5414L42.6931 80.3417C42.3519 79.3528 42.1993 79.1225 41.8637 78.8049V78.7883C42.0398 78.7841 42.2104 78.7342 42.3727 78.6593C42.8276 78.4665 43.1286 77.9297 43.1938 77.2904C43.2562 76.7217 43.1175 76.0254 42.6362 75.7175C42.5086 75.6468 42.3034 75.5358 41.6446 75.4651L39.7805 75.2695L39.1577 81.1239ZM40.5613 76.3514L41.252 76.4207C41.8443 76.4887 41.9594 76.4998 42.1106 76.6454C42.259 76.7952 42.3006 77.031 42.2756 77.2695C42.2562 77.4401 42.1841 77.8132 41.8637 77.9214C41.7014 77.9755 41.3269 77.9381 41.0593 77.9089L40.4004 77.841L40.5613 76.3514Z" fill="#004098"/>
<path fill-rule="evenodd" clip-rule="evenodd" d="M45.125 79.4982C45.1901 79.8019 45.358 80.6147 46.1541 80.5634C46.7796 80.5273 46.9974 80.0724 46.9724 79.6965C46.9447 79.2028 46.6257 79.1168 45.799 78.9018C45.3524 78.7853 44.358 78.5259 44.2775 77.2277C44.2359 76.5883 44.4883 75.5675 45.7838 75.4857C46.6451 75.4316 47.4579 75.8324 47.5799 77.1598L46.6909 77.2666C46.634 76.9628 46.5341 76.4177 45.8295 76.4621C45.566 76.4801 45.0903 76.6161 45.1222 77.0932C45.1444 77.4718 45.4315 77.6188 46.1541 77.7936C46.8393 77.967 47.7685 78.1958 47.8628 79.6424C47.9031 80.354 47.6063 80.9739 47.2387 81.2291C46.8587 81.4996 46.4148 81.544 46.211 81.5537C45.7394 81.587 44.5674 81.6036 44.272 79.6577L45.125 79.4982Z" fill="#004098"/>
<path fill-rule="evenodd" clip-rule="evenodd" d="M48.4219 75.3193L49.2998 75.1833L50.1986 81.0059L49.3234 81.1404L48.4219 75.3193Z" fill="#004098"/>
<path fill-rule="evenodd" clip-rule="evenodd" d="M51.524 75.7551L50.2535 76.0644L50.0205 75.0991L53.42 74.2683L53.6558 75.235L52.3881 75.5443L53.5448 80.2975L52.6835 80.5097L51.524 75.7551Z" fill="#004098"/>
<path fill-rule="evenodd" clip-rule="evenodd" d="M56.3598 76.8496L53.6538 74.2171L54.6288 73.8509L56.4139 75.6679L56.5609 73.1325L57.5193 72.7747L57.1975 76.5458L58.0561 78.8565L57.2239 79.1686L56.3598 76.8496Z" fill="#004098"/>
<path fill-rule="evenodd" clip-rule="evenodd" d="M62.944 73.3058C63.7082 74.4251 65.0411 75.5167 66.4142 74.5846C67.693 73.7094 67.3268 72.1435 66.46 70.8731C65.4933 69.457 64.1687 68.7468 62.9731 69.5596C61.8414 70.3308 61.8816 71.7482 62.944 73.3058ZM63.686 72.7607C63.1992 72.0464 62.7193 70.9702 63.5529 70.3987C64.4503 69.7871 65.3116 70.8217 65.6888 71.3738C66.65 72.7774 66.2214 73.4764 65.8345 73.7413C65.3906 74.0451 64.908 73.8967 64.5903 73.6928C64.3684 73.5582 64.0605 73.3086 63.686 72.7607Z" fill="#004098"/>
<path fill-rule="evenodd" clip-rule="evenodd" d="M65.4087 67.9072L67.6667 65.8892L68.3297 66.6312L66.7319 68.0556L67.6639 69.0958L69.0426 67.8698L69.7083 68.609L68.3255 69.8434L69.9913 71.7075L69.3269 72.2984L65.4087 67.9072Z" fill="#004098"/>
<path fill-rule="evenodd" clip-rule="evenodd" d="M76.1593 61.5354C76.495 61.8627 77.5435 62.8932 76.7599 64.1041C76.108 65.111 74.6933 65.1651 73.1524 64.1679C71.7793 63.2774 70.8958 61.964 71.6739 60.7573C71.8084 60.5492 72.1718 60.0485 72.9762 59.9889C73.3452 59.9639 73.6975 60.0569 74.0872 60.208L73.8431 61.1026C73.2453 60.8474 72.7543 60.9639 72.5074 61.3454C71.911 62.2663 73.2633 63.1443 73.5837 63.3509C74.0498 63.6505 74.5366 63.9085 74.9554 63.9598C75.3174 64.0028 75.685 63.8863 75.9 63.5562C76.2218 63.0611 75.8667 62.5049 75.384 62.0638L76.1593 61.5354Z" fill="#004098"/>
<path fill-rule="evenodd" clip-rule="evenodd" d="M73.0742 58.6532L73.4126 57.8293L75.5583 58.7101L76.2199 57.0956L74.077 56.2149L74.4126 55.3938L79.8607 57.6351L79.5209 58.4521L77.1408 57.4743L76.4792 59.0887L78.8607 60.0693L78.5223 60.8904L73.0742 58.6532Z" fill="#004098"/>
<path fill-rule="evenodd" clip-rule="evenodd" d="M74.6221 54.4415L74.8565 53.5857L80.5361 55.1405L80.3003 55.9963L74.6221 54.4415Z" fill="#004098"/>
<path fill-rule="evenodd" clip-rule="evenodd" d="M75.1455 52.5583L75.3106 51.7108L79.5117 50.7053L79.5145 50.6942L75.6573 49.9383L75.8168 49.1255L81.5949 50.2586L81.4216 51.1366L77.3147 52.1269L77.312 52.1408L81.0804 52.8773L80.9236 53.6872L75.1455 52.5583Z" fill="#004098"/>
<path fill-rule="evenodd" clip-rule="evenodd" d="M82.23 44.678L76.1952 45.8458L76.0981 46.7834L81.7847 49.0913L81.879 48.1454L80.5919 47.6503L80.7681 45.8916L82.1342 45.6475L82.23 44.678ZM79.628 47.2786L77.5129 46.4602L79.75 46.076L79.628 47.2786Z" fill="#004098"/>
<path fill-rule="evenodd" clip-rule="evenodd" d="M18.8247 56.2804C18.858 56.3567 18.9024 56.4288 18.937 56.5051C19.091 56.8061 19.2491 57.1043 19.4142 57.3997C19.4696 57.5051 19.5307 57.6078 19.5889 57.7104C19.7609 58.0114 19.9398 58.3068 20.1201 58.605C20.1562 58.6619 20.1853 58.7159 20.2242 58.77C20.2242 58.77 20.2297 58.7839 20.2366 58.7936C20.4378 59.1112 20.6458 59.4233 20.8594 59.7284C25.2187 55.8144 30.9843 53.4302 37.3061 53.4302C40.2451 53.4302 43.0704 53.9323 45.6821 54.8768C45.7015 54.8851 45.7209 54.8907 45.7389 54.8962C45.7611 54.9073 45.7847 54.9184 45.8097 54.9226C49.4158 56.2402 53.3076 56.9573 57.3659 56.9573C61.5421 56.9573 65.5394 56.1958 69.2287 54.8088C69.2634 54.7312 69.2994 54.6577 69.3313 54.5758C69.3452 54.5384 69.3619 54.4982 69.3771 54.4607C69.4784 54.2166 69.5727 53.967 69.667 53.7145C69.7086 53.6008 69.7571 53.4871 69.7988 53.3706C69.7988 53.3678 69.8001 53.3622 69.8001 53.3622C69.9028 53.071 69.9985 52.7811 70.0928 52.494C70.1302 52.3719 70.1718 52.2582 70.2065 52.1445C70.2981 51.8463 70.3799 51.5453 70.4603 51.2415C70.4936 51.125 70.5255 51.0113 70.556 50.892C70.6337 50.5883 70.7044 50.2831 70.7752 49.9711C70.8001 49.8573 70.8265 49.7408 70.8487 49.6243C70.9139 49.3109 70.9707 48.996 71.0248 48.684C71.0359 48.6146 71.0484 48.5439 71.0595 48.4731C66.5713 51.9142 60.961 53.9586 54.8708 53.9586C50.7487 53.9586 46.8471 53.0238 43.363 51.3497C43.2008 51.2693 43.0385 51.1847 42.8762 51.107L42.8651 51.0987C40.0232 49.7173 36.829 48.9503 33.4573 48.9503C27.5488 48.9503 22.2034 51.3317 18.3115 55.1889C18.3198 55.2027 18.3282 55.2208 18.3351 55.2402C18.496 55.5897 18.6527 55.9392 18.8247 56.2804Z" fill="#004098"/>
<path fill-rule="evenodd" clip-rule="evenodd" d="M62.0066 64.8104C60.8124 65.1516 59.5516 65.3361 58.2492 65.3361C56.191 65.3361 54.2423 64.8812 52.4878 64.0712C52.4198 64.0379 52.3602 64.0032 52.2922 63.9713C52.2409 63.9436 52.1868 63.9242 52.1355 63.9006C50.2228 63.0226 48.0911 62.5344 45.8511 62.5344C40.4627 62.5344 35.7359 65.3652 33.0757 69.6246C36.342 70.9811 39.9273 71.7342 43.6916 71.7342C50.7124 71.7342 57.123 69.117 62.0093 64.816L62.0066 64.8104Z" fill="#004098"/>
<path fill-rule="evenodd" clip-rule="evenodd" d="M59.5669 60.1953C56.0426 60.1953 52.6972 59.4075 49.6985 58.0094C49.6819 58.0039 49.668 57.9983 49.6528 57.99C49.5973 57.9636 49.539 57.9414 49.4836 57.9137C46.8539 56.7001 43.9315 56.0288 40.8483 56.0288C34.2061 56.0288 28.3031 59.1689 24.5264 64.0372C24.611 64.1204 24.6984 64.2022 24.7871 64.2827C24.7941 64.291 24.8038 64.2966 24.8079 64.3049C24.9466 64.4325 25.0881 64.5587 25.2268 64.6863C25.267 64.7224 25.3017 64.7543 25.3419 64.7903C25.4529 64.8846 25.561 64.979 25.6734 65.0774C25.7733 65.1579 25.8676 65.2425 25.9647 65.3201C26.0548 65.3964 26.1436 65.4755 26.2393 65.5476C26.3364 65.6294 26.4362 65.7057 26.5375 65.7862C26.6346 65.8597 26.7261 65.936 26.8246 66.0081C26.8759 66.0497 26.9272 66.0899 26.9785 66.1274C27.1547 66.2605 27.3308 66.3881 27.507 66.5157C27.6373 66.61 27.7691 66.7043 27.9023 66.7973C28.0895 66.9276 28.2781 67.0539 28.4709 67.1815C28.6013 67.2661 28.7344 67.3493 28.8634 67.4339C28.9675 67.4991 29.0673 67.5615 29.1727 67.6253C32.2823 62.9068 37.6277 59.7917 43.7027 59.7917C46.7124 59.7917 49.5543 60.5587 52.0245 61.904C52.0841 61.9429 52.1521 61.972 52.2145 62.0053C52.2991 62.0538 52.3796 62.1079 52.4628 62.1537C54.4364 63.2133 56.6903 63.8167 59.087 63.8167C60.786 63.8167 62.4115 63.5143 63.915 62.9609C64.1203 62.7473 64.3159 62.5254 64.5156 62.3035C64.5724 62.2383 64.6293 62.1759 64.6862 62.1107C64.8956 61.8694 65.0953 61.6225 65.2964 61.3742C65.3644 61.2924 65.4296 61.2133 65.4934 61.1301C65.6834 60.8915 65.8651 60.6474 66.044 60.4033C66.1175 60.3062 66.1883 60.2119 66.2576 60.1135C66.431 59.8735 66.596 59.6294 66.7611 59.3797C66.8291 59.2771 66.9026 59.1717 66.9733 59.0691C66.9927 59.033 67.0107 59.0011 67.0329 58.9706C64.6862 59.7598 62.1785 60.1953 59.5669 60.1953Z" fill="#004098"/>
<path fill-rule="evenodd" clip-rule="evenodd" d="M54.9068 28.3841H53.997V30.1858H52.1759V28.3841H48.56V27.7822L52.1759 24.7683H53.997V27.7822H54.9068V28.3841ZM48.739 30.1858H43.2993V29.5866C43.2993 29.1664 43.8846 28.631 45.0524 27.9639L45.1731 27.8931C46.3367 27.2301 46.9179 26.6906 46.9179 26.2787V25.9791C46.9179 25.8085 46.8263 25.6698 46.6502 25.5505C46.4685 25.4312 46.2521 25.3772 46.0163 25.3772H45.112C44.5572 25.3772 44.2521 25.5783 44.2174 25.986H43.2993C43.4421 25.176 44.0482 24.7683 45.112 24.7683H46.9262C47.42 24.7683 47.8471 24.8876 48.205 25.1247C48.56 25.3605 48.739 25.6476 48.739 25.9735V26.2787C48.739 26.6906 48.1564 27.2301 46.9858 27.8931L46.8666 27.9639C45.7043 28.6254 45.1162 29.1539 45.1162 29.5325V29.5783H48.739V30.1858ZM42.5697 28.0831C42.5697 28.6601 42.2618 29.1539 41.6391 29.563C41.0149 29.9791 40.2673 30.1858 39.3977 30.1858H38.0412V29.5783H38.9455C39.4449 29.5783 39.872 29.4562 40.2243 29.2218C40.5739 28.9861 40.7556 28.7031 40.7556 28.373V27.7669C40.6848 28.1788 40.3866 28.3841 39.8512 28.3841H38.9455C38.4546 28.3841 38.0301 28.2648 37.6723 28.029C37.3117 27.796 37.1314 27.5117 37.1314 27.1844V25.9791C37.1314 25.6476 37.3089 25.3633 37.6723 25.1275C38.0246 24.8875 38.449 24.7683 38.9455 24.7683H40.7583C41.2535 24.7683 41.682 24.8875 42.0385 25.1275C42.3894 25.3633 42.5697 25.6476 42.5697 25.9791V28.0831ZM34.5877 30.1858H32.768V25.986H31.8623V25.3772L33.6737 24.7683H34.5877V30.1858ZM43.6918 16.262C38.9885 16.262 34.5627 17.4367 30.6806 19.5019C21.9246 24.1636 15.9551 33.3841 15.9551 43.9987C15.9551 45.6533 16.109 47.2677 16.3864 48.842C20.0314 46.258 24.4822 44.7324 29.2908 44.7324C33.5031 44.7324 37.4601 45.8919 40.8207 47.9266C40.8665 47.9501 40.9095 47.9751 40.9553 48.0028C41.0565 48.0639 41.1536 48.1263 41.2507 48.1915C44.904 50.3801 49.1745 51.6409 53.7446 51.6409C60.7099 51.6409 66.9915 48.706 71.4257 44.0167L71.4285 43.9987C71.4285 28.6795 59.0081 16.262 43.6918 16.262Z" fill="#00A7EA"/>
<path fill-rule="evenodd" clip-rule="evenodd" d="M40.4877 25.5501C40.3088 25.4308 40.1007 25.3767 39.8538 25.3767C39.6042 25.3767 39.3906 25.4308 39.22 25.5501C39.0411 25.6694 38.9551 25.8122 38.9551 25.9787V27.1839C38.9551 27.349 39.0383 27.4821 39.2172 27.6014C39.3906 27.7193 39.6042 27.7817 39.8538 27.7817C40.1007 27.7817 40.3088 27.7193 40.4877 27.6014C40.6638 27.4766 40.7554 27.3296 40.7554 27.1728V25.9731C40.7554 25.8081 40.6638 25.6666 40.4877 25.5501Z" fill="#00A7EA"/>
<path fill-rule="evenodd" clip-rule="evenodd" d="M52.1775 27.7824V25.5286L49.4688 27.7824H52.1775Z" fill="#00A7EA"/>
</svg>
