<svg xmlns="http://www.w3.org/2000/svg" viewBox="0 0 623.63 623.63"><defs><style>.cls-1,.cls-3{fill:#263c92;}.cls-1,.cls-2{fill-rule:evenodd;}.cls-2{fill:#fefefe;}</style></defs><g id="Layer_2" data-name="Layer 2"><g id="Layer_1-2" data-name="Layer 1"><g id="图层_1"><path class="cls-1" d="M311.81,0C484,0,623.63,139.6,623.63,311.81S484,623.63,311.81,623.63,0,484,0,311.81,139.6,0,311.81,0Zm0,9.75C478.64,9.75,613.87,145,613.87,311.81S478.64,613.87,311.81,613.87,9.75,478.63,9.75,311.81,145,9.75,311.81,9.75Z"/><path class="cls-1" d="M312.43,130.5c102.16,0,185,82.18,185,183.55,0,78.33-49.46,145.19-119.07,171.55l-2.72-5.39C443.26,454.87,491.36,390,491.36,314.05c0-98.06-80.11-177.55-178.93-177.55S133.49,216,133.49,314.05c0,76.18,48.34,141.13,116.23,166.34l-2.37,5.52c-70-26.13-119.9-93.21-119.9-171.86,0-101.37,82.82-183.55,185-183.55Z"/><g id="_1445331744096" data-name=" 1445331744096"><polygon class="cls-1" points="273 191.78 358.98 235.62 358.98 275.5 358.98 287.16 358.98 296.99 358.98 336.87 273 380.71 187.02 336.87 187.02 296.99 187.02 287.16 187.02 275.5 187.02 235.62 273 191.78"/><polygon class="cls-1" points="350.63 191.78 436.6 235.62 436.6 275.5 436.6 287.16 436.6 296.99 436.6 336.87 350.63 380.71 264.64 336.87 264.64 296.99 264.64 287.16 264.64 275.5 264.64 235.62 350.63 191.78"/><polygon class="cls-2" points="347.29 217.54 413.16 249.64 413.16 278.85 413.16 287.39 413.16 294.59 413.16 323.8 347.29 355.91 281.41 323.8 281.41 294.59 281.41 287.39 281.41 278.85 281.41 249.64 347.29 217.54"/><polygon class="cls-2" points="275.58 217.54 341.45 249.64 341.45 278.85 341.45 287.39 341.45 294.59 341.45 323.8 275.58 355.91 209.7 323.8 209.7 294.59 209.7 287.39 209.7 278.85 209.7 249.64 275.58 217.54"/><polygon class="cls-1" points="311.87 210.85 402.34 256.8 402.34 325.38 402.34 393.95 311.87 439.9 221.39 393.95 221.39 325.38 221.39 256.8 311.87 210.85"/><polygon class="cls-2" points="311.43 236.58 377.36 269.46 377.36 324.61 377.36 379.33 311.43 412.65 245.51 379.33 245.51 324.61 245.51 269.46 311.43 236.58"/><polygon class="cls-1" points="221.39 329.5 311.43 377.55 402.37 329.07 402.34 354.34 311.43 402.38 221.39 354.4 221.39 329.5"/></g><g id="_1445331748256" data-name=" 1445331748256"><circle class="cls-3" cx="311.81" cy="271.97" r="17.78"/><path class="cls-1" d="M309.68,302.23c.46,0,.92.06,1.38.07l.7,0h.1l.7,0c.46,0,.92,0,1.38-.07h0c19.35-1.39,33-21.59,33-21.59l14.53,19.93s-12.53.43-21.32,7.3-17.57,20.63-17.57,42.3a88.73,88.73,0,0,0,.52,13.92H300.54a88.73,88.73,0,0,0,.52-13.92c0-21.67-8.79-35.42-17.58-42.3s-21.32-7.3-21.32-7.3l14.53-19.93s13.64,20.2,33,21.59Z"/></g><g id="_1445331750304" data-name=" 1445331750304"><path class="cls-1" d="M54.42,273.6s3.78,3.22,12,5.09c0,0-7.92-10.45-9.44-17l-1.79-6.53-.15-.58s-9.31-3-21.58-8.05a8,8,0,0,0-3-1.33c-1.74-.35-.13-1.57,1.11-1.72s4.05.5,7.53,2.11a49.08,49.08,0,0,0,9.83,3,22.18,22.18,0,0,0,5.31.79h.47s-1.93-12.19.55-16.89,2.89-4.8,2.41-4.85a.62.62,0,0,0-.63.24s0-1.26,1.85-1.2,4.13,1.81,6.18,6a35.08,35.08,0,0,1,3.52,10c.65,3.48.78,3.52.78,3.52a3.08,3.08,0,0,1,3.88.72c1.56,2-.18,6,2.3,8.81,0,0,10.49,3.31,13.28,4.31s9.48,1.91,13.48,2.61,7.44,3.22,9.14,3.92a22.93,22.93,0,0,0,5.35,1.39c.79,0,.92,4.05.26,4.61s-2.26.91-4.43-1.22-13.54-4.91-18-6.26-14.8-4.66-14.8-4.66-2.3-1.15-3.52,0-.79,3.06-.22,4.39-.61,4.81-4.35,5.11-3-1.67-1.92-2.93-.19-5-1.19-6.81S66,256,62.74,256.15s-.31,8.58,1,11.45,4.22,7.66,7.18,8.53,4.18,1.08,4.09,4.57-2,5-6.53,5.83-9.57-3.66-11.53-5-3.35-4.22-2.54-7.92Zm12.42-20.15s.09-3.61-1-5.4S64,242.14,63,239.26a9,9,0,0,0-3.22-4.74c-.6-.35-1.13,2.61-1.21,7.13s.61,8.45,1.52,9.75,3.7,1.48,4.7,1.74a11.46,11.46,0,0,0,2,.31Z"/><path class="cls-1" d="M123.84,189.44V185a78,78,0,0,0-10.4-8.92,32.34,32.34,0,0,1-7-6,2.07,2.07,0,0,0-2.79-.08c-.91.69-.08,2.69,1.44,4.74s8.92,9.27,10.57,10.88,6.92,7,10.88,10.44,5.88,3.75,8.27,2.7,2-4.44.91-5.4-7.48-3-8.31-3.48-3.61-.48-3.61-.48Z"/><path class="cls-1" d="M107.44,166.2s-5.22-6.91-5.22-19.8a84.23,84.23,0,0,1,2-13c1.52-6,2.69-9.27,6.74-11.88a10.92,10.92,0,0,1,10.58-.57c2.26,1.09,6,4.92,8.79,7.22s5.65,4.31,8.57,6.49,2.66,2.91,4.57,5.44,5.53,2.65,10.49,7,6.26,5.7,8.79,7.4,2.78,6.48,1.52,14.49c0,0-1.87-7.75-5.74-12.06S142.86,143,142.86,143s-9.31-7.7-15.14-12.1-10-7.35-13.66-7.35-6.66,3-8.84,11.53-2.29,19.26,2.22,31.11Z"/><path class="cls-1" d="M111.77,135.94c.61.61,3.67,2.76,4.46,3.55a2.77,2.77,0,0,0,3,.72c1-.46,3.83-2.79,4-3.55s-.3-2.39-3.55-3.85-6.91,1.7-7.39,2a1.55,1.55,0,0,0-.5,1.11Z"/><path class="cls-1" d="M112.86,140.86a74.24,74.24,0,0,1,6.52,4.35,18.61,18.61,0,0,0,5.64,3.07c1.59.68,5.11,3.16,5.86,3.44s1.06.19,1.06-.48-1.78-3.11-2.89-4.22-4.09-4-4.11-5.35,4.93-.48,7.59,1.56a20.55,20.55,0,0,1,6.11,8.29c1,2.7,1.65,4.49,4.75,6.14a21,21,0,0,0,7.53,2.26c2.08.35,2.61,1,2.52,3.14s-.26,2.87-2,2.83a10.77,10.77,0,0,1-5.4-1.14c-1.65-1-2-1.43-2.26.92a16,16,0,0,1,1.74,6.39c0,3-4.35,4.88-4.35,4.88s.39-4.48-2.22-11.19c0,0-1.31-4.13-4-5.78a4.71,4.71,0,0,0,.17,1.52,17.59,17.59,0,0,1,.79,3.79c.21,1.91-.66,4.52-1.92,12.4,0,0-.74,5-1.7,5.39s-4.52.4-5.78-1.47-2.35-7.92-3.09-10.66-1.26-3.62-3.22-4-2.61-1.13-2.92-2.83c0,0-1.08.22-1,1.92s-.48,3.79-1.57,3.92-1.79-.35-2.53-3.83-2.21-10.58-2-13.88a28.25,28.25,0,0,1,1.53-6.83s-2.85.13-4.14-1.07c0,0-.56-.19.09-1.15s3.11-3.59,5.15-2.31Zm8.53,10.92s5,2.76,6.57,4,3.72,2,3.89,2.64a1.81,1.81,0,0,1-.85,2.19c-1,.5-.89,3.24-.58,5s-.13,6.83-.13,8.44a7,7,0,0,1-1.22,3.75.89.89,0,0,1-.7.3s.22-1.65.48-3.13-1-5.57-1.65-8.53-.7-6.74-1.26-8-.7-2.44-1.87-2.66-2.44,1.14-2.92,1.22-1.39.09-1.39-1.52.12-3-.15-3.47.34-.88.58-.86a6.44,6.44,0,0,1,1.2.63Z"/><path class="cls-1" d="M139.6,186s4.78.87,7.61-2,3.35-6.83,4.75-9.62,3.56-3.69,3.48-5.35-1.75-2-3.18-2-2.44.65-4.18,2.74-2.52,4-4.05,7.31-2.39,5.62-3,6.09a2.34,2.34,0,0,1-1,.53,3.17,3.17,0,0,1-.43,2.3Z"/><path class="cls-1" d="M231.15,67.79c.26,0,12.87-10.92,13.4-11.31s6.13-10.75,6.92-12.45,4.35-5.83,5.48-6-.05,2.26-.4,3a82.58,82.58,0,0,0-6.78,14.14,39.83,39.83,0,0,0-2.31,6.09,3.06,3.06,0,0,0,1.26-.13s7.13-6,13.18-7.92,8-.74,8.14,1.43-1.52,2.44-2.74,2.83-5.48-.78-14.14,5c0,0-5.88,3.35-7.66,5.83,0,0-2.57,9.4-3.87,13.49,0,0-1.57,3.18-4.66,2.83,0,0-3.57,5.92-3.74,6.35a2.86,2.86,0,0,0,2-.57,2.76,2.76,0,0,1,3.31-.56c1.43.69,1.26,2,.52,3a25.7,25.7,0,0,0-5,8,9.47,9.47,0,0,0,3-1c1.22-.74,3.44-.26,4.35,2.48s1.31,7-.35,10.18-2.52,2.48-3,5.22-2.11,2.59-2.11,2.59-2.68-.22-2.74-4.29,2.11-6.4,2.54-9.09,1.07-2.5,1.07-2.5a5.54,5.54,0,0,0-.31,3,2.35,2.35,0,0,0,1-1.75c.17-1.28.82-4.11.82-4.11s-1.91-.37-3.65,2.24a7.16,7.16,0,0,0-1.74,2.4c-.4,1.17-2.72.41-3-.72s-.32-2.29,1.24-4,3.57-6.79,3.44-8.18A11.6,11.6,0,0,0,230,96.07a19.19,19.19,0,0,0-4.16,5.3,3.46,3.46,0,0,1-4.48,1.66c-1.19-.59-1.69-1.94-1.19-3.9,0,0,1-1.07,3.46-3.26S229,88.75,231,86.32a12.06,12.06,0,0,1,3.13-3s-.5-2.19,1.18-5.69,4.4-10.53,4.61-10.86,2.44-5.57,2.74-6.05a1.6,1.6,0,0,0,.16-1.11s-8.18,8.14-9.45,9.64-1.11,1.94-1,3.68,1.9,3.39.55,5.72c0,0-2.14,2.37-4.14.74s-1.91-3-3.52-2.41c0,0-10.23,8.11-11.49,8.85s-6.4,5.07-6.4,5.07-2.21,1.22-3,0-.87-2.74.1-3.35,4.68-2.28,6.42-4.22,9.7-7.83,10.84-8.53,2.41-1.47,1.3-4.22a60.14,60.14,0,0,1-3.26-13.94c-.31-4.27-.61-7.88,2.18-8.05s2.39,3.74,4.65,9.83,3.09,9.58,4.53,9.38Z"/><path class="cls-1" d="M245.94,96.09a11.37,11.37,0,0,0,.31,7.44,4.44,4.44,0,0,0,6.87,2.31,5.73,5.73,0,0,1,1.48-1.61,8.61,8.61,0,0,1-1.48-3.22c-.21-1.54-2.72-3.31-4-3.76l-1.24-.46s.07,1-.47,1.07-1.31,0-1.51-1.76Z"/><path class="cls-1" d="M249.14,110.76a38,38,0,0,1,2.94,5.09c2,3.85,6.65,3.22,8.07,2.26s5.5-7.83,5.76-18.84-2-17.19-7.3-17.58a5,5,0,0,0-3.75,1.08c-1.61,1.42-2.67,1.46-3.37,0a3.66,3.66,0,0,1,.54-2.22c.7-1.11.87-6.14.48-7.62s-1.08-1.63-2.69-.06-4.2,8.7-4.29,14.31,3.74,4.83,5.4,3.57S254.32,88,256.67,88s2.92,8.84,3,10.58a60.4,60.4,0,0,1-2.48,12.23s-.57,2.76-1.65,2.8-2.35.22-3.44-1.17a4.87,4.87,0,0,0-2.91-1.64Z"/><path class="cls-1" d="M401.76,90.5s-9.22-2.83-11.27-4.79a4.55,4.55,0,0,1-1.65-3.91s-.7.13-2.18,3.31-4.78,7.91-5.09,8.65a1,1,0,0,0-.17.64l-4.35-.07s-1.85,0-2-2.37.92-3.79,2-5.33a62.55,62.55,0,0,0,3.77-7.27,5.12,5.12,0,0,0,.06-1.76,39,39,0,0,0-6.94,3.51c-2.65,1.87-7.29,5.78-7.74,6.13s-2.44.63-2.72.11a11.06,11.06,0,0,1,0-3.63c.1-.48,1.06-2,2.28-2.07s1.46.91,3,0,8.68-5,10.86-6.1a16.07,16.07,0,0,0,3.5-2.13,10.6,10.6,0,0,0,.05-1.65l-22.63,0s-3.33.18-3.46-2,2.31-2.83,2.87-2.87a23.34,23.34,0,0,0,4.41-1l12.49-5.22,16.67-8a16.54,16.54,0,0,1,6.83-1.74c1.74,0,2.44,1.7,2.26,4.09s-1,2.87-4.18,3.44S378.65,61.5,376.65,62a66,66,0,0,0-10.81,4.14s-3.83,1.17-4,2.17,2.29,1.07,3.07,1.07,12.49.52,19.3-1.09a14,14,0,0,0,4.26-3.13c1.48-1.83,3.48-3.18,4.64-3.16s1.37,3.36,1.65,4.62-2.43,2.89-2.87,4.93.46,3.53-.58,5.29-1.66,2-1.64,3.11,2,.14,2.4,0a25.44,25.44,0,0,1,4.19-1.28,2.53,2.53,0,0,0,1.92-1.09c.17-.3-.7-1.56-1.39-2.24s-.42-4,.41-4.76,6.05-2.09,6.33-4-.61-4.67.61-4.63a5.35,5.35,0,0,1,4.48,2.41c1.53,2.09,1.05,2.53,2.18,2.81s1.72-4,5.33-9.94,4.87-6.81,5.35-7.47,1.29-1,1.18.18,0,1-.65,2-2,1.76-1.14,4-1.37,5.59-2.39,8.27-4.57,11.29-5.7,14.07-4.09,9.23-3.7,9.88c0,0,4.09.52,8.79,1.44s4.66.47,4.66.47a2.75,2.75,0,0,0,1.28-2.26,14.11,14.11,0,0,0-.87-4.39,10.64,10.64,0,0,0,2.59,4.59c1.85,1.61,4.59,2,4.61,3.56s-2.06,2.64-3.56,2.66-1.4-.76-8.66-2.09a59.3,59.3,0,0,0-10.4-1.26,22.35,22.35,0,0,1-2.94,5.59c-1.83,2.35-2.83,3-2.92,6.44s-1.39,5.31-3.3,9.75a60.94,60.94,0,0,0-2.83,7.83,24.53,24.53,0,0,0-1.7,5.4,11.83,11.83,0,0,1-2.82,6.13c-.79.66-4.05,0-4.92-.52s-3-1.87-1.52-4,5-9.1,5.61-12.06.57-4.52,2-7.44,3.61-4.78,5.7-10.31,3.93-7.22,3.93-7.22Zm4-8.79s-.91,4.53-2.74,5.09-7.14-2.09-7.79-3.13-.92-2.14.91-2,9.62,0,9.62,0Zm0-2.39a3.94,3.94,0,0,0-1.09-3.16c-1.39-1.5-2-1.56-2.33-2.89s1-1.61,1.59-1.61a7.93,7.93,0,0,1,3.74,1.85c1.09,1.07,1.22,1.83.63,2.89S407,79,406.82,79.19s-1.11.13-1.11.13Z"/><path class="cls-1" d="M504.15,141.91a9.72,9.72,0,0,0,5.4,1.74c2.74-.18,11.44-4.26,12.79-4.87s6.14-1.87,6.4-.26a4,4,0,0,1-2.14,4.13c-1.69,1-8.91,4.92-10.92,5.44,0,0-.17,1,1.22,1.44s7.57,1.87,7.23,5.87a5.7,5.7,0,0,1-1,2.91c-.91,1-1.74,1.31-2,1.74a58,58,0,0,0-6.18-2.69,64.54,64.54,0,0,1-12.1-6.57s-12.14,2.26-17.88,2.26-19.45-.22-27.54-3.53c0,0-7.58-3.61-7.45-6.87,0,0,1.75-.87,5.53,1s11.62,4.18,24.15,4.05,17.32-.87,18.45-1.7c0,0,0-2.11-1.81-2.37s-2.63-1-2.93-3.17.13-4.2,1.46-4.33,1.74.39,3.32,1.76a60.82,60.82,0,0,0,6.09,4Z"/><path class="cls-1" d="M497.36,158.25s-.52,13.92-.61,19.67-1.56,8.7-.78,13.83c0,0,.39,2.75,2.92,3a33.42,33.42,0,0,0,5.44,0s-.22.08.61-2c0,0,0-10.49,0-11.45s.18-9.14.53-11.22-1.22-9.53-3.31-10.84a8.61,8.61,0,0,0-4.77-1Z"/><path class="cls-1" d="M508.74,227.87s-3.74,10-3.74,19,3.74,13,10.79,17a37.33,37.33,0,0,0,15.32.61l.54-.11s0,5.51,4.57,6.38,5.22-1.66,5.35-1.92a22.07,22.07,0,0,0-1-7.7s2.31-4,2.61-4.18a2,2,0,0,1,2.26.61,10,10,0,0,0,7.92,4.05c4.53,0,4.7-7,1.92-11.23s-8.92-9.53-12-8.79-4.31,3.18-2.83,6.62a53.77,53.77,0,0,0,5,3.65,21.76,21.76,0,0,0,4.75,2.26s.34,1-.66,1.05-2,.43-3,.43-2.48.24-3.15-.5-.68-.72-2.26.54-1.83,1.44-2.46.63-5.92-11.77-6.18-12.24-1.65-2.81-3.11-2.85-3.52,2.11-4.05,5.89,3.52,9.27,4.27,11-.44,2.74-2,2.74-8.58.87-13.23-2.35-5.4-7.7-5.88-12.62a110,110,0,0,1,.26-18Z"/><path class="cls-1" d="M559.7,237.66a25.38,25.38,0,0,1,12.18-3c7.18,0,7.44,1.83,7.36,3.7s-1.83,3.18-4.18,3.79-4.35.91-4.35.91l.56,1s7.44-.48,7.44,1.74-3,2.83-4.91,3l-1.48.56s.63.87,4.46,3,6.75,4.92,9.05,6.58a4.08,4.08,0,0,1,1.35,4.83c-.26.39-3,1.26-4.74,1.26s-7.18-1.14-10.19-4.09-5.39-8-6.83-10.27-2.61-4.22-2.61-4.22h-2.18a52.62,52.62,0,0,1,7.23,10.79c3,6.18,5,10.79,5,16.06s-2.08,9-6.91,12-6.83.35-7.75-1.65a10.83,10.83,0,0,0-3.18-4c-.56-.31-.21-1.22,1.57-1.27a12.55,12.55,0,0,1,2.48.18c.43,0,.17,1.39,3,1.65s5.31-.17,6.09-2.74-.21-10.66-2.35-16.53-4.7-10.84-10.36-15.71c0,0-5.52-5.83-10.4-8.62s-5.17-2.3-8.79-4.57-4.09-4.39-3.3-5.87,8.57-3.57,15-.57,9.27,5.92,11.64,12.19Z"/></g><g id="_1445331756448" data-name=" 1445331756448"><path class="cls-1" d="M59.41,336.93l0-1.26s-8.09-1.39-8.09-6.75,8.13-9.09,16.49-9.09,13.66,2.87,13.66,7.57-6.13,6.66-8.13,6.66v1.3l9.7-.35v-1.52h-.74v-1.22a7.11,7.11,0,0,0,2-5.22c0-3.48-3.35-12.1-18.84-12.1S49,326.87,49,328.83s1,3.44.91,7l9.53,1.09Z"/><path class="cls-1" d="M54.19,354.25h-2l-1.4-10.36,1.65-.13a2.9,2.9,0,0,0,3.1,2.41c2.66-.2,23.63-4.09,23.63-4.09s3.45-.56,2.87-3.79l2.22-.35,1.53,10.62-1.79.3a3.59,3.59,0,0,0-4.26-2.65c-3.57.52-9.18,1.78-9.18,1.78l2,11,9.57-1.52s3-.87,2.91-3.83l1.66-.17,1.82,10.66-1.74.17s-.22-3.35-5-2.52-22.1,3.61-22.1,3.61-3.09,1.26-2.61,4l-2,.3-1.92-10.79,2.18-.22a2.79,2.79,0,0,0,2.91,2.57c2.66-.13,11.23-1.74,11.23-1.74l-1.91-11-10.8,1.91s-2.61,0-2.48,3.86Z"/><path class="cls-1" d="M92.12,376l-2.61-10-2.14.48s.87,3-2,3.7S62,376.52,62,376.52s-2.82.13-3.35-2.44l-2.39.87,3,9.79,1.83-.43a3,3,0,0,1,2-3.88c3-.87,22.28-6,22.28-6s3.87-1.39,4.79,1.87l2-.39Z"/><path class="cls-1" d="M92.42,378.43l2.31,6.09L77.54,405.63l17.19-6.4a2.84,2.84,0,0,0,1.7-4.24l1.85-.64,3,7.94-1.9.9s-.84-3.42-3.91-2.4L68.17,411l-.7-2L87.4,385.3l-20.67,7.53s-2.39,1-1.57,4.31l-1.82.74-3.05-8.05,1.83-.61a3.76,3.76,0,0,0,4.31,1.69l24.36-9.14,0-2.87,1.67-.47Z"/><path class="cls-1" d="M71.32,419.12l4,7.57,1.83-1.17-.81-1.83a1.56,1.56,0,0,1,1-1.94c1.42-.48,8.66-2.37,8.66-2.37l3.15,6.55-6.44,5.48s-1.85,1.07-2.74-.17a5.11,5.11,0,0,1-.93-1.57l-1.75,1,4.86,9.45,1.74-1s-.55-2.25.5-3,24.47-20.67,24.47-20.67l-2-3.83L79,418.94s-4.52,2.05-5.83-1l-1.83,1.18ZM89,418.73l2.4,5.39,9.61-8.5-12,3.11Z"/><path class="cls-1" d="M268.43,476.22l-.3-.59,7.66-4.13h1.72v32.13s-.15,2.26,4.5,2.26v1.35H268.22v-1.52s4.69.52,4.74-2.14V477.65a1.85,1.85,0,0,0-1.85-2.07,4.12,4.12,0,0,0-2.68.63Z"/><path class="cls-1" d="M288.63,508v-1.05a14.12,14.12,0,0,0,8.7-3c4-3.26,6.7-8.31,7-12a12.65,12.65,0,0,1-7.05,2.43c-4,0-9-3.46-9-10.59s4.53-12.36,11-12.36,11.18,5.66,11.18,14.23-3.74,14.05-10.22,19c0,0-3.57,3.13-11.53,3.41Zm16.27-18a13.69,13.69,0,0,0,.57-4.48c0-3-.53-12.53-6.75-12.53s-6.05,8.61-5.53,12.18,3.05,6.62,6.14,6.62A10.59,10.59,0,0,0,304.9,490Z"/><path class="cls-1" d="M313.49,479c.26,0,1.18,0,1.18,0s1.85-4.36,6.29-4.36,5.93,3.79,5.93,6.49-2.93,7.76-8.07,7.76v1s10.14-.39,10.14,8.53-9.18,8-11.4,5.53a3.31,3.31,0,0,0-2.33-1,2.09,2.09,0,0,0-2.39,2.39c0,1.79,2.83,2.72,6.83,2.72a13.26,13.26,0,0,0,10.7-5.22c2.92-3.66,4.88-12.75-4.08-16.49,0,0,4.83-2.7,4.83-8.27s-6.39-6.66-9.17-6.66c-3.65,0-8.67,3.88-8.45,7.6Z"/><path class="cls-1" d="M359,471.36v1.05a14.1,14.1,0,0,0-8.7,3c-4.05,3.27-6.7,8.31-7,12a12.65,12.65,0,0,1,7.05-2.43c4,0,9.05,3.46,9.05,10.59S354.9,508,348.45,508s-11.18-5.66-11.18-14.23,3.74-14.05,10.22-19c0,0,3.57-3.13,11.54-3.41Zm-16.28,17.95a13.91,13.91,0,0,0-.56,4.48c0,3,.52,12.53,6.74,12.53s6.05-8.61,5.53-12.18-3-6.61-6.14-6.61a10.62,10.62,0,0,0-5.57,1.78Z"/><path class="cls-1" d="M100.25,468l7.18,8.79L109,475.4l-1.57-1.74s-.91-1.05.78-2.53,7.79-6.3,7.79-6.3,2.75,5.74,7.62,6,8.57-3.53,8.57-3.53,3.92-3.48,3.87-7.48-3.48-7.66-3.48-7.66l-5.83-6-1.69,1.91s2,1.35.43,3l-20,16.54s-1.86,1.26-3-.18l-.54-.74L100.25,468ZM118,463.32l12.4-9.79,2,2.26a6.15,6.15,0,0,1-1.13,5.7,15.09,15.09,0,0,1-8.31,5.4c-2.18.35-3.7-.65-5-3.57Z"/><path class="cls-1" d="M124.86,493.75l-1.66,1.12-7-7.81,1.3-1a2.89,2.89,0,0,0,3.91.25c2.09-1.64,17.3-16.6,17.3-16.6s2.54-2.4.26-4.75l1.65-1.53,7.2,7.95-1.3,1.25a3.59,3.59,0,0,0-5,.19c-2.67,2.43-6.62,6.61-6.62,6.61l7.79,8,7.08-6.62s2-2.4.27-4.8l1.28-1.07,7.48,7.81-1.35,1.12s-2-2.66-5.6.73S135.58,500,135.58,500s-1.85,2.78.08,4.78l-1.49,1.37-7.62-7.87,1.68-1.4a2.79,2.79,0,0,0,3.85.5c2.13-1.6,8.33-7.73,8.33-7.73l-7.77-8.09-7.87,7.63s-2.17,1.46.09,4.58Z"/><path class="cls-1" d="M139,509.77l6.77,5.23,1.17-1.83-1.5-1.33a1.56,1.56,0,0,1,.1-2.17c1.08-1,6.87-5.78,6.87-5.78l5.61,4.63-3.56,7.67s-1.24,1.75-2.57,1a5,5,0,0,1-1.5-1l-1.15,1.68,8.36,6.55,1.16-1.64s-1.43-1.81-.79-2.92,13.59-29,13.59-29l-3.38-2.66-22.3,18.27s-3.25,3.75-5.71,1.53L139,509.78ZM154.88,502l4.43,3.91,5.18-11.75L154.88,502Z"/><path class="cls-1" d="M161.47,527.33l9.71,6.18,1.3-1.79-1.83-1.3s-1.08-.57.18-2.78,5.26-8.36,5.26-8.36l2.18,1.57s-.83,8.74-1.05,12.57,1.22,4.66,2.35,5.7a19.33,19.33,0,0,0,3.48,2.22l1.09-1.52s-2.22-1.18-2.22-4.7,1.26-8.83,1.09-12.92a12,12,0,0,0,5.26-1c2.22-1.13,5.7-5.53,5.83-10.62s-8.61-9.18-8.61-9.18l-5.7-3.05-1.26,1.92s3.17,1.3,1.39,4.22-12.7,20.32-12.7,20.32-1.79,2.39-3.36,1.74l-1.26-.69-1.13,1.43Zm15.71-9.75L185.54,504s4.43,2.35,4.3,5.4-3,7.53-5.35,9.18S178.14,518.72,177.18,517.58Z"/><path class="cls-1" d="M187.45,543.34l6.22,3.27,1-2-1.08-.7s-.79-.56-.14-2.43,10.14-20.37,10.14-20.37l-4.22,28L218,527.77l-8.75,21s-1.31,2.28-2.5,1.61l-1.22-.7-1.07,1.7,9.42,4.3.74-1.83-1-.6s-1-.87-.09-3.75,9.62-22.23,9.62-22.23,1-2,2.39-1.46l1,.35.72-1.7-6.29-3.28-15.42,18.14,3.65-23.67-6.09-3-.91,2a2.77,2.77,0,0,1,1.22,3.39L192,540.34s-1.4,3-3.57,1.3l-1,1.7Z"/><path class="cls-1" d="M219.36,557.75l8.18,2.49.44-2.13-1.87-.71a1.57,1.57,0,0,1-.68-2.07c.65-1.34,4.38-7.84,4.38-7.84l6.88,2.34-.61,8.43s-.53,2.07-2,1.84a5.68,5.68,0,0,1-1.78-.43l-.47,2,10.14,3.16.5-1.95s-2-1.18-1.77-2.44,2.41-31.95,2.41-31.95L239,527.17l-14.36,25s-1.71,4.66-4.8,3.46l-.44,2.13Zm12.12-12.89,5.53,2.07.67-12.82-6.2,10.75Z"/><path class="cls-1" d="M271,561.51l-1.22-.33s-3.25,7.54-8.45,6.29-6.94-10-5-18.16,6-12.61,10.56-11.52,5,7.52,4.57,9.47l1.27.31,1.93-9.52-1.49-.35-.17.71-1.18-.28a7.16,7.16,0,0,0-4.61-3.17c-3.39-.81-12.55.44-16.17,15.5s7.73,18.86,9.63,19.32,3.58-.17,7,.74l3.28-9Z"/><path class="cls-1" d="M278.33,537.86l18.32,1.7-.48,8.05h-1.26V545s.08-2.62-2.05-2.79l-7.18-.57-1.17,12.23,5.61.79s2-.09,2.39-1.79l.26-2.09,1.09.05L293.12,562l-1.09-.09.05-2.35s0-2-2.57-2.22-5.44-.39-5.44-.39l-.87,11.4s-.09,1.66,1.3,1.83,6.31.48,6.31.48,3-.92,3.14-5.75h1.3l-1,8.53-19.88-1.78v-2.09l2.26.08a2.31,2.31,0,0,0,2.17-2.26l2.31-24.28s.61-2.87-2.92-3.13l.09-2.14Z"/><path class="cls-1" d="M299.56,540H310v2.14s-2.83-.57-2.83,3.69,0,16.1,0,16.1-.48,9.19,6.22,9.19,6.4-8.92,6.4-8.92l0-15.93s.17-4.09-3.26-4.09V540h8.57v2.14s-3.44-.39-3.44,3.87v15.71s1,13-9.31,13S302.48,561,302.48,561V545s.78-2.74-2.87-2.74l0-2.18Z"/><path class="cls-1" d="M329,549.17h-1.48L327,538.86l1.4,0s.08.69,1.61.69,15-1.39,15-1.39,1.57-.39,1.57-1.48h1.83l1.35,10.4-1.26-.08-1.18-5s-.91-1.65-3.52-1.26-3.48.61-3.48.61l2.83,26.5s.69,2.39,4,2.39v1.66l-11.44,1.39-.4-1.65s3.31-.65,3.36-3.7-2.79-26.28-2.79-26.28l-4.79.52s-1.82,0-1.91,3.53l-.09,3.52Z"/><path class="cls-1" d="M361.4,534.65l-10.18,1.84.31,2.16s3.06-.64,3.53,2.32,4.59,23.79,4.59,23.79-.08,2.82-2.68,3.15l.68,2.45,10-2.24-.29-1.86a2.94,2.94,0,0,1-3.7-2.33c-.64-3.11-4.24-22.67-4.24-22.67s-1.09-4,2.23-4.63l-.24-2Z"/><path class="cls-1" d="M391.9,552.24l-1.24.21s.25,8.21-5,9.28-10.54-6.16-12.21-14.35.09-14,4.7-14.9,7.75,4.68,8.14,6.65l1.28-.26-2.28-9.44-1.49.3.15.72-1.2.25a7.07,7.07,0,0,0-5.51-.92c-3.41.69-11.18,5.7-8.09,20.88s15,13.82,16.9,13.42,3.17-1.66,6.69-2.29l-.84-9.55Z"/><path class="cls-1" d="M400,559.35l7.88-3.3-1-1.92-1.89.64a1.56,1.56,0,0,1-1.84-1.16c-.36-1.45-1.63-8.83-1.63-8.83l6.8-2.58,4.91,6.88s.91,1.93-.41,2.72a5.07,5.07,0,0,1-1.64.79l.9,1.83,9.82-4-.85-1.82s-2.28.35-2.93-.75-18.5-26.15-18.5-26.15l-4,1.62,4.86,28.41s1.65,4.68-1.49,5.72l1,1.92Zm1.12-17.65,5.58-1.93-7.65-10.3Z"/><path class="cls-1" d="M410.52,517.84l10-5.13,1,2-1.69,1.22s-1.22,1,0,3.18,11.09,20.79,11.09,20.79,1.48,2.4,2.83,1.53,4.65-2.7,4.74-3.14.4-7.66.4-7.66l1.17-.17,2.22,9.36-15.45,8.44-1.35-1.79,1.83-1.21s1.3-1.14,0-3-11.7-21.75-11.7-21.75-1.18-1.87-3.92-.57l-1.17-2.09Z"/><path class="cls-1" d="M438.58,502.53l8.31-6.25,1.28,1.7s-2.6,1.25,0,4.66,9.64,12.89,9.64,12.89,5.13,7.63,10.49,3.6-.25-11-.25-11l-9.53-12.76s-2.32-3.37-5.07-1.31l-1.33-1.77,6.85-5.15,1.28,1.71s-3,1.75-.42,5.16l2.56,3.41,6.87,9.14s8.65,9.84.4,16-16.12-5.08-16.12-5.08l-9.65-12.84s-1-2.66-3.94-.46l-1.34-1.71Z"/><path class="cls-1" d="M460.38,486.07l4.71-4.51,26.15,7.55L478.62,475.8a2.85,2.85,0,0,0-4.57.1l-1.3-1.45,6.13-5.86,1.57,1.39s-2.81,2.12-.67,4.54l20.1,21.1L498.35,497l-29.67-9,15,16.07s1.82,1.83,4.58-.25l1.39,1.39-6.21,6-1.28-1.44a3.78,3.78,0,0,0-.13-4.63l-17.95-18.84-2.63,1.17-1.09-1.36Z"/><path class="cls-1" d="M486.79,459.07l-6.94,7.67,1.57,1.52s2-2.37,4.22-.32,18.16,16,18.16,16,1.66,2.29-.2,4.14l2,1.52,6.54-7.88-1.36-1.29a3,3,0,0,1-4.36.42c-2.4-2.08-17.21-15.36-17.21-15.36s-3.29-2.48-1.06-5l-1.4-1.42Z"/><path class="cls-1" d="M488.4,457.8l6.79-8.88,1.57,1.39s-2.22,2.48-.44,3.92l20.32,7.88-13-16.15s-2-2.61-4.26.57c0,0-1.7-1.22-1.44-1.44s5.05-6.61,5.05-6.61l1.48,1.39s-1.39,2.05,0,3.7l19.36,24.24-1.22,1.83-27.85-11.06s-3-1.61-4.91.91l-1.48-1.69Z"/><path class="cls-1" d="M503.49,437.13l9.28-15.88,7.1,3.83-.54,1.15L517,425.12s-2.33-1.18-3.39.68L510,432.06l10.58,6.24,3.09-4.75s.78-1.89-.61-2.93l-1.78-1.12.5-1,9.82,5.4-.54.95-2.11-1s-1.79-.89-3.1,1.39-2.65,4.76-2.65,4.76l10,5.61s1.46.78,2.21-.41,3.1-5.51,3.1-5.51.44-3.11-3.88-5.27l.55-1.18,7.33,4.47-10,17.27-1.89-.88,1-2a2.32,2.32,0,0,0-1.13-2.93l-21-12.35s-2.35-1.77-4.07,1.31l-1.9-1Z"/><path class="cls-1" d="M545,433l5.13-10.29-1.91-1.11-1.1,1.95s-.46,1.14-2.79.12-8.86-4.37-8.86-4.37l1.33-2.33s8.78-.08,12.62-.27,4.5-1.69,5.42-2.93a19.42,19.42,0,0,0,1.85-3.69l-1.63-.92s-.94,2.33-4.44,2.69-8.92-.33-13,.27a12,12,0,0,0-1.5-5.14c-1.35-2.09-6.09-5.09-11.17-4.7s-8.23,9.53-8.23,9.53l-2.44,6,2,1.06s1-3.29,4-1.82S542,427.58,542,427.58s2.57,1.52,2.08,3.15l-.56,1.33,1.55,1Zm-11.33-14.6-14.42-6.89s1.88-4.66,4.92-4.85,7.8,2.16,9.69,4.37S534.72,417.36,533.7,418.43Z"/><path class="cls-1" d="M548.89,401.19l9.61,2.61.33-1.11s-.76.08-.48-1.37a7.91,7.91,0,0,0,3.46-6.25c0-4.07-4.11-7.07-8.33-8.16s-9.09.09-12.66,2.14-4.09,2.52-6.74,2.52-4.23-1.35-4.23-3.7,3-3.74,5.14-3.74a25.16,25.16,0,0,1,3.74.26l.35-1.09-8.61-2.61-.35.79s.74.52.61,1.17-3.27,1-3.27,6,5.29,7.85,10.21,7.85A16.66,16.66,0,0,0,547,393.4a14,14,0,0,1,6.35-1.74c2.64,0,5.64,1.74,5.64,4.76s-3.07,4.18-5.68,4.18a10.72,10.72,0,0,1-3.83-.52l-.55,1.11Z"/><path class="cls-1" d="M534.67,365.81l-2.79,10,2.08.66s.76-3,3.63-2.17S561,380.52,561,380.52s2.5,1.32,1.66,3.8l2.5.45,2.35-10-1.8-.55a3,3,0,0,1-3.72,2.32c-3.07-.78-22.25-6.09-22.25-6.09s-4-.75-3.19-4l-1.89-.64Z"/><path class="cls-1" d="M545.42,363.63l-.38,1.43L534.93,363l.32-1.36s.69.1,1.08-1.37,2.51-14.83,2.51-14.83,0-1.61-1-1.89l.47-1.76,10.4,1.37-.41,1.19-5.14-.15s-1.83.46-2.12,3.08-.31,3.52-.31,3.52L567,354.84s2.5-.06,3.35-3.25L572,352l-1.59,11.42-1.7-.05s.22-3.36-2.71-4.18-26.12-4.07-26.12-4.07l-.72,4.76s-.47,1.77,2.91,2.76l3.39,1Z"/><path class="cls-1" d="M574.32,335.17l.61-11.26h-2s.35,3.26-2.7,3.26-9.22-.7-9.22-.7L546,319.38a4.56,4.56,0,0,1-2.39-3.78h-2l-.61,7.87h1.69s.61-3,3.7-1.69,10.75,5.09,10.75,5.09l-11.58,4.43s-3,1.35-3-2.39h-2L540,340h1.53s0-2.13,2.78-3.13,15.8-5.83,15.8-5.83l9.4.39a3.42,3.42,0,0,1,2.87,3.74l2,0Z"/></g></g></g></g></svg>