<svg width="71" height="88" viewBox="0 0 71 88" fill="none" xmlns="http://www.w3.org/2000/svg">
<path fill-rule="evenodd" clip-rule="evenodd" d="M35.4725 32.3484C33.7218 32.3484 32.3021 31.1567 32.3021 29.688C32.3021 28.2193 33.7218 27.0301 35.4725 27.0301C37.2232 27.0301 38.6404 28.2193 38.6404 29.688C38.6404 31.1567 37.2232 32.3484 35.4725 32.3484ZM37.3433 20.2799C34.2661 19.0196 31.417 20.763 30.6888 23.9284C30.2695 25.7404 30.0194 27.6161 29.9924 29.151C29.9581 31.191 30.2965 32.8657 30.4951 34.5379C30.6716 35.9968 31.1767 37.3748 32.1795 38.4561C33.3908 39.7655 34.9257 40.2926 36.6936 39.7802C38.454 39.2726 39.6187 38.0834 40.0233 36.3131C40.9893 32.0835 41.0261 27.8294 39.989 23.6023C39.6285 22.1238 38.8292 20.888 37.3433 20.2799Z" fill="#811F45"/>
<path fill-rule="evenodd" clip-rule="evenodd" d="M59.2462 45.7875C58.084 46.8148 56.657 47.2464 55.1539 47.4376C54.5998 47.5087 54.0334 47.4965 53.4719 47.4867C52.7756 47.4768 52.5696 47.8128 52.5451 48.4821C52.5059 49.6738 52.4789 50.885 52.241 52.0473C51.8291 54.0603 50.2697 55.0582 48.5239 55.8134C47.6437 56.1959 46.7217 56.5049 45.8856 56.9658C44.6253 57.6646 44.3311 58.6381 44.7798 60.0209C45.3707 61.8354 46.3711 63.4291 47.5971 64.839C48.8549 66.2832 50.1937 67.693 51.6746 68.8969C53.695 70.5446 55.8895 71.9717 57.9908 73.5213C58.3464 73.7861 58.6063 74.1809 58.9079 74.5168C58.5817 74.7988 58.2777 75.1151 57.9222 75.3529C57.4612 75.6667 56.9537 75.9095 56.4731 76.1939C54.997 77.0668 53.6141 76.8437 52.2974 75.8433C49.9264 74.046 47.6633 72.1286 45.7925 69.8017C43.5808 67.0555 41.7247 64.0887 40.7537 60.6707C40.4546 59.6188 40.3148 58.4419 40.4423 57.363C40.7169 55.0411 42.3892 53.8788 44.4145 53.0697C45.3683 52.6897 46.3098 52.2262 47.1557 51.65C48.367 50.8237 48.416 49.4752 48.3278 48.1781C48.313 47.9305 47.8055 47.5234 47.5162 47.5161C45.5914 47.4744 43.6617 47.5112 41.8841 48.4159C41.6511 48.5336 41.4574 48.7273 41.2564 48.8965C40.7194 49.3428 40.1677 49.1515 40.0083 48.4625C39.719 47.2218 40.6753 45.0445 41.7468 44.2844C42.7668 43.5611 43.9094 43.4238 45.0912 43.4189C45.8636 43.4164 46.6359 43.4581 47.4083 43.5072C48.0826 43.5513 48.4111 43.2816 48.4013 42.5877C48.3743 40.9841 48.3547 39.3781 48.3523 37.7745C48.3498 37.0659 48.1512 36.4677 47.5995 35.992C46.045 34.6483 46.2436 31.4535 48.1659 30.046C49.8063 28.8421 51.7654 28.825 53.1875 29.9602C54.8842 31.3161 55.2177 33.8833 53.6975 35.4329C52.6039 36.5461 52.4396 37.7304 52.5647 39.1501C52.6579 40.2069 52.5549 41.2833 52.5402 42.3523C52.5279 43.3527 52.702 43.5317 53.673 43.5219C56.2965 43.4974 57.9148 41.8815 57.9222 39.258C57.9295 37.1419 57.8682 35.0259 57.9246 32.9124C57.9933 30.252 56.7452 28.1801 55.073 26.3167C53.8765 24.9853 52.4274 23.8745 51.324 22.4794C49.414 20.0716 49.056 17.1979 51.7972 14.9715C52.0375 14.7803 52.474 14.6013 52.7045 14.6945C52.9349 14.7877 53.1188 15.2241 53.1532 15.5281C53.2807 16.7002 53.6583 17.7839 54.3595 18.7108C55.5046 20.2187 56.7011 21.6899 57.9173 23.1463C60.0112 25.6546 61.4848 28.3983 61.4113 31.7869L61.4137 40.7831C61.3524 42.7225 60.7444 44.4659 59.2462 45.7875ZM37.5932 44.9023C37.6128 50.4461 37.5883 55.9875 37.5883 61.5289C37.5883 65.7609 37.6054 69.993 37.6079 74.2225C37.6079 75.2842 37.1886 75.8433 36.1564 75.9855C35.5385 76.0713 34.8715 76.0492 34.2708 75.8997C33.9398 75.8188 33.5941 75.4166 33.4445 75.0783C33.2704 74.6786 33.2533 74.1907 33.2533 73.742C33.241 68.946 33.2459 64.1525 33.2459 59.3589H33.2386C33.2386 54.4575 33.2287 49.5561 33.2533 44.6571C33.2557 43.9215 32.9664 43.5317 32.3019 43.2767C29.617 42.2444 28.0919 40.1627 27.3171 37.4926C26.3903 34.3026 26.1181 31.0121 26.2334 27.7093C26.3216 25.1986 26.6061 22.6976 27.8982 20.4296C28.6142 19.1742 29.7298 18.3895 30.8602 17.5804C31.5148 17.1096 32.1523 16.5751 32.6623 15.9572C32.9737 15.5796 33.1184 14.9961 33.1772 14.4885C33.2729 13.6671 33.2459 12.831 33.2508 11.9998C33.2582 10.6145 34.0428 9.79061 35.4085 9.76119C36.7424 9.73177 37.5319 10.4943 37.5883 11.8797C37.6054 12.3357 37.63 12.7942 37.5834 13.2454C37.3848 15.1456 38.2111 16.5653 39.7877 17.4603C42.2862 18.8775 43.5367 21.0474 44.0884 23.7789C45.0593 28.5749 44.8313 33.3292 43.5195 38.005C42.8207 40.4888 41.1534 42.2984 38.7407 43.3037C37.9806 43.62 37.5907 44.0319 37.5932 44.9023ZM30.7449 48.6734C30.6885 49.2079 30.2668 49.4556 29.823 49.0583C28.3273 47.7269 26.5006 47.5798 24.647 47.5259C22.3961 47.4597 22.526 47.2733 22.6192 49.6321C22.6683 50.8948 23.448 51.6525 24.4214 52.1919C25.4169 52.7436 26.5423 53.0648 27.5501 53.6018C30.409 55.1171 30.9117 57.108 30.2938 59.9866C29.8083 62.2473 28.7662 64.2775 27.5574 66.266C25.2232 70.1058 22.1068 73.1437 18.5809 75.8433C16.8498 77.1673 15.2463 76.7382 13.6108 75.7624C13.1302 75.4779 12.6693 75.1518 12.2279 74.8061C11.816 74.48 11.8503 74.1833 12.3064 73.8621C14.7019 72.1727 17.1784 70.5765 19.444 68.7229C22.0798 66.5652 24.3258 64.0102 25.7724 60.8571C25.9833 60.3985 26.1427 59.9082 26.2652 59.4178C26.4884 58.5326 26.1206 57.5739 25.2256 57.1007C24.1223 56.5147 22.9331 56.0905 21.7954 55.5682C19.645 54.5776 18.3798 52.9863 18.4215 50.5123C18.4338 49.8724 18.3553 49.2324 18.3602 48.59C18.3651 47.8348 18.0709 47.4548 17.2691 47.4597C15.7391 47.4719 14.2508 47.2979 12.8409 46.5868C11.2373 45.7801 10.1609 44.5419 9.81522 42.8108C9.5406 41.4304 9.42291 40.0009 9.39594 38.591C9.3518 36.1317 9.40329 33.6676 9.46704 31.2083C9.5308 28.7171 10.4208 26.5104 11.9459 24.5611C13.3288 22.7981 14.8098 21.1087 16.1118 19.2919C16.9405 18.1345 17.681 16.8816 17.7619 15.3565C17.8061 14.5277 18.3651 14.3586 19.0443 14.9078C21.4325 16.8399 21.5919 19.6695 19.6818 22.2513C18.8481 23.3768 17.8257 24.3894 16.7738 25.3261C14.2802 27.5475 12.8679 30.2177 12.9292 33.621C12.966 35.5972 12.7379 37.6005 12.966 39.5497C13.2994 42.4087 14.7755 43.6347 17.6712 43.5317C18.3357 43.5072 18.4117 43.0339 18.4117 42.5141L18.37 38.6646C18.4975 37.3896 18.1812 36.372 17.1637 35.4648C16.0677 34.4914 15.9647 32.3312 16.7174 30.9704C17.4187 29.7052 19.0468 29.0432 20.5645 29.1732C23.5264 29.4306 24.7549 32.4367 24.0438 34.6361C23.8918 35.1019 23.524 35.4918 23.3107 35.9429C23.036 36.5241 22.6462 37.1199 22.6045 37.728C22.5015 39.2457 22.5726 40.7757 22.5579 42.3008C22.5481 43.3625 22.6781 43.4802 23.7324 43.463C24.8505 43.4459 25.9833 43.3723 27.0842 43.517C29.9995 43.8995 31.0122 46.1602 30.7449 48.6734ZM70.633 44.3335H70.6256C70.6256 35.3643 70.606 26.3927 70.6379 17.4235C70.6477 14.9495 70.2873 12.5687 69.1815 10.357C68.5047 9.00354 67.7986 7.63046 66.8742 6.45108C65.4374 4.62193 63.7284 3.01346 61.5535 2.07437C59.972 1.39274 58.3635 0.666963 56.6913 0.335952C54.9578 -0.00731897 53.1335 0.0245566 51.3461 0.0196525C40.7366 -0.00731898 30.127 0.00739295 19.5151 3.6985e-05C16.2565 -0.00241479 13.0469 0.112826 10.0114 1.61096C8.63829 2.29014 7.40742 3.1238 6.19862 4.02121C4.83534 5.03631 3.73687 6.31132 2.92773 7.78248C2.09408 9.29287 1.23345 10.84 0.757773 12.4804C0.132529 14.6283 -0.00477906 16.8865 0.000125121 19.1521C0.0295483 34.1751 0.0148364 49.1957 0.0197406 64.2187C0.0221924 66.038 0.139885 67.8647 0.0491638 69.6791C-0.110212 72.9353 0.485608 76.01 2.05239 78.8592C2.74629 80.117 3.44264 81.4484 4.44058 82.4414C6.20352 84.1946 8.11112 85.7834 10.514 86.7348C12.2475 87.4213 13.9541 87.9583 15.8151 87.9607C28.6706 87.9755 41.5261 87.9804 54.3791 88C57.8682 88.0073 60.9405 86.7716 63.7038 84.7757C65.5036 83.4762 66.9943 81.8505 68.1198 79.8865C69.689 77.1477 70.6575 74.2838 70.6453 71.0841C70.6085 62.1688 70.633 53.2512 70.633 44.3335Z" fill="#811F45"/>
</svg>
