<svg width="241" height="241" viewBox="0 0 241 241" fill="none" xmlns="http://www.w3.org/2000/svg">
    <g clip-path="url(#clip0_6_8)">
    <path fill-rule="evenodd" clip-rule="evenodd" d="M120.467 0C187 0 240.935 53.9351 240.935 120.467C240.935 187 187 240.935 120.467 240.935C53.935 240.935 0 187 0 120.467C0 53.935 53.9351 0 120.467 0ZM122.124 48.2233V58.7491L121.814 58.7418C135.314 59.0227 147.776 63.5145 157.945 70.9565C152.855 60.226 146.149 51.7334 138.44 46.5029C133.148 47.5387 127.696 48.1257 122.124 48.2233ZM119.121 58.7418L118.811 58.7491V48.2233C113.239 48.1257 107.787 47.5387 102.495 46.5029C94.7863 51.7334 88.0795 60.2263 82.9902 70.9565C93.1584 63.5147 105.621 59.0227 119.121 58.7418ZM17.9668 90.3078C17.8662 90.2792 17.7639 90.2517 17.6604 90.2245C13.1913 89.367 10.4701 90.8776 9.5032 94.7542C8.8784 98.1876 10.1806 100.535 13.4048 101.788L13.775 100.032C11.4599 99.0218 10.4922 97.4883 10.8734 95.4295C11.4789 92.5622 13.4972 91.4394 16.9313 92.0647C17.9841 92.2564 18.688 92.4786 19.6183 93.0084C21.3894 94.0167 22.1088 95.5766 21.7755 97.6884C21.301 99.7052 20.1458 100.751 18.303 100.832C18.2736 100.833 18.2531 100.834 18.2313 100.835L17.8605 102.59C17.9949 102.595 18.1293 102.596 18.2585 102.594C18.2693 102.594 18.2801 102.593 18.2908 102.593C20.9055 102.535 22.5743 101.009 23.3008 98.0164C23.8805 94.4141 22.4513 91.9584 19.0159 90.6548C18.6211 90.5048 18.343 90.4144 17.9668 90.3078ZM217.854 175.21C219.455 174.908 220.771 173.858 221.807 172.056C223.345 168.928 222.736 166.309 219.978 164.207L219.143 165.793C221.091 167.406 221.603 169.15 220.673 171.025C219.968 172.362 219.029 173.148 217.854 173.377C216.664 173.61 215.238 173.28 213.566 172.385C213.001 172.06 212.506 171.719 212.086 171.362C210.246 169.805 209.822 167.956 210.809 165.821C211.182 165.153 211.608 164.64 212.086 164.278C212.922 163.647 213.915 163.483 215.079 163.782L215.913 162.197C214.481 161.725 213.205 161.769 212.086 162.324C211.075 162.827 210.193 163.744 209.437 165.082C207.803 168.576 208.686 171.459 212.086 173.734C212.292 173.871 212.506 174.005 212.729 174.14C214.676 175.128 216.381 175.486 217.854 175.21ZM194.37 41.0649L198.093 44.78L199.412 43.505L213.201 60.4839L211.948 61.3423L214.796 66.0506L218.047 63.8178L215.982 60.8873L217.119 59.7481L213.808 54.8957L212.38 56.5585L209.777 53.4722L210.057 50.3889L206.025 45.7594L205.658 48.3338L203.968 46.4088L204.149 43.6688L200.356 39.8633L200.059 42.0658L197.033 38.7292L194.37 41.0649ZM127.558 7.0466L126.577 17.8979C126.457 19.2912 125.325 19.7943 124.125 20.0256L124.231 21.1467C126.613 20.8445 128.126 20.8423 130.232 18.701C130.955 15.6067 130.923 13.4858 131.238 9.5573L141.185 11.0761C141.153 11.6546 141.046 11.9472 140.972 12.5144L132.204 11.1095L132.08 12.4937L140.794 13.8404C140.733 14.3492 140.637 14.6803 140.534 15.2691L132.626 14.2222L132.193 18.0377L136.362 18.5281L136.611 16.4163L140.013 16.8882C137.598 20.1827 134.067 20.8573 129.703 21.3225L129.553 22.5606C133.108 22.8614 136.857 23.654 141.766 20.649C145.12 24.417 148.946 25.6272 153.707 26.7335L153.997 24.9896C149.271 24.165 145.231 22.316 144.331 17.6624L149.055 18.3781L148.636 21.1895L153.156 21.9135L153.864 17.6386L144.451 15.9086C144.54 15.3229 144.543 15.0341 144.639 14.4853L155.837 16.5639L156.143 15.2521L144.843 13.0833C144.913 12.6303 144.964 12.1759 145.061 11.7255C147.387 12.1657 151.954 13.0456 156.893 14.2401C157.206 12.8741 157.146 13.174 157.285 12.5609C147.61 10.0706 138.038 8.4588 127.558 7.0466ZM199.537 45.97L198.177 47.0078L203.974 54.0039L202.062 54.2817L200.977 54.4201L192.267 44.534L191.001 45.4952L199.8 55.1999C199.388 55.5599 198.223 55.7747 197.869 55.37L193.74 50.6341L192.304 51.751L199.872 60.6929C200.515 61.4508 201.233 61.5608 201.84 61.2042L203.659 60.1353L210.584 68.8839L211.956 68.0593L205.169 59.6078L205.712 58.9756L207.83 59.582L210.082 59.197L199.537 45.97ZM163.422 19.3073L162.446 21.0588L173.748 27.1253C169.815 28.4658 167.428 27.6349 158.462 27.8373C158.293 27.8416 158.401 28.5485 158.704 28.6565C168.386 31.5986 169.626 30.8355 174.586 31.1244C176.718 35.3928 181.691 41.2889 185.607 44.6964L187.389 43.2249C183.334 39.6697 179.813 34.0563 179.036 30.3066L188.735 37.3362L190.026 35.7673L179.715 28.5242L181.972 25.2207L177.415 22.2879L174.878 25.5302L163.422 19.3073ZM43.7136 38.7144C40.589 42.2373 37.4647 45.7602 34.3403 49.2831L32.072 47.4644L28.6756 51.4822L30.9631 53.3163C28.1563 56.747 25.3588 60.1486 22.6145 63.644C25.1402 65.6008 27.6976 67.5601 30.2244 69.516C32.944 66.1016 35.6624 62.6867 38.3811 59.2716C39.2922 60.0055 40.2035 60.7393 41.1148 61.473L44.4994 57.4591L41.7611 55.254L49.2446 46.6231C50.7804 44.8531 50.7396 44.803 49.8158 44.0022L43.7136 38.7144ZM36.212 50.79L39.5362 53.462C41.3558 51.3825 43.1776 49.3052 44.9989 47.2272C45.2086 46.9865 45.1191 46.9553 44.9124 46.7833L41.7036 44.1048C39.8727 46.3328 38.0427 48.5614 36.212 50.79ZM97.5356 23.4759V24.0758L97.6391 24.0551C97.6065 23.8461 97.5716 23.6576 97.5356 23.4759ZM76.1715 14.0678C66.3576 19.3646 56.7958 24.9196 47.5537 31.1953C50.6614 35.2301 54.2446 39.9526 57.3523 43.9874C60.8675 41.7784 64.3853 39.5739 67.9085 37.3782C73.4083 33.9514 78.6215 30.7264 83.2621 27.8764L76.1715 14.0678ZM77.1724 28.2965C77.8034 27.9102 77.7767 27.9612 77.5358 27.519C75.9691 24.635 74.4032 21.7496 72.8371 18.8657C66.3837 22.4421 59.9097 26.0577 53.8376 30.2573L59.9202 38.8956C65.6711 35.363 71.4217 31.8299 77.1724 28.2965ZM56.7031 31.9858L61.9387 28.7946L62.6304 29.9004L57.4713 33.0715L58.5712 34.6422L63.8527 31.4059L64.675 32.6313L59.413 35.8676L60.4157 37.2912C65.0744 34.4086 71.7423 30.3517 76.1148 27.6474L75.1655 26.181C74.5214 26.5785 73.5721 27.1681 73.0358 27.4887C72.9533 27.5408 73.0412 25.571 72.9598 25.6144C72.3498 25.9217 72.3858 25.8006 71.5896 26.1723C71.6258 26.4033 71.8268 28.226 71.71 28.2982C71.1907 28.6231 71.0172 28.7297 70.5467 29.0259L69.7502 27.7968L74.6056 24.8476L73.6299 23.1636L68.9119 26.0467L68.1525 24.9783L73.0182 21.9917L72.1111 20.3593L55.6387 30.4588L56.7031 31.9858ZM109.997 199.547H108.323C108.089 200.169 107.655 200.716 107.025 201.182C106.392 201.65 105.808 201.967 105.269 202.135L105.269 203.914C106.291 203.592 107.179 203.097 107.932 202.427V209.825H109.997V199.547ZM150.77 78.0015C153.536 78.9698 156.118 80.0793 158.534 81.316C160.108 82.1219 161.611 82.9803 163.045 83.8902C163.615 84.2539 164.175 84.6215 164.722 84.9997C165.735 85.6454 164.801 86.6324 163.09 86.4981L163.045 86.4944C161.564 86.3781 160.053 86.2687 158.534 86.1678C155.95 85.9977 153.337 85.8543 150.77 85.7576C146.973 85.6145 143.279 85.5694 139.936 85.6831C131.301 85.9719 125.002 87.3076 125.326 90.6692L125.279 102.401V112.405L158.407 117.073L179.953 120.109H180.658C180.285 109.546 177.191 99.6758 172.058 91.1761C171.799 90.7489 171.536 90.324 171.268 89.903C168.768 85.9867 165.827 82.379 162.516 79.1492L162.465 79.1008C162.273 78.9137 162.08 78.7283 161.885 78.5438L161.746 78.4119C161.578 78.2538 161.408 78.0967 161.239 77.9403C161.17 77.8776 161.102 77.8147 161.033 77.752C150.33 67.9926 136.095 62.0404 120.467 62.0404C104.84 62.0404 90.6052 67.9926 79.9019 77.752C79.833 77.8147 79.7647 77.8773 79.6961 77.9403C79.5266 78.0964 79.3576 78.2535 79.1895 78.4117C78.9477 78.6399 78.7073 78.8689 78.4692 79.1008C75.1303 82.351 72.1743 85.9753 69.6671 89.903C69.4213 90.2883 69.1804 90.676 68.9431 91.0667C63.6027 99.8915 60.641 109.798 60.2768 120.109H60.9817L82.5279 117.073L115.656 112.405V110.114L115.555 90.3951C115.676 85.7908 106.069 85.3469 90.9981 85.5677C90.4227 85.5765 84.3123 85.6922 84.3123 85.6919L84.011 85.697L83.4834 77.1004C85.9771 76.6176 88.4903 76.1833 90.9981 75.7822C110.874 72.6089 126.965 72.6236 139.936 75.1161C143.821 75.8613 147.427 76.8305 150.77 78.0015ZM114.13 209.371C114.648 209.796 115.327 210.01 116.168 210.01C117.335 210.01 118.282 209.596 119.012 208.767C119.739 207.937 120.102 206.587 120.102 204.715C120.102 202.876 119.753 201.554 119.056 200.752C118.357 199.949 117.463 199.547 116.372 199.547C115.369 199.547 114.547 199.864 113.899 200.5C113.251 201.134 112.927 201.969 112.927 203.006C112.927 204.001 113.234 204.809 113.847 205.43C114.46 206.051 115.188 206.362 116.034 206.362C116.811 206.362 117.459 206.075 117.977 205.503C117.893 206.676 117.704 207.448 117.406 207.822C117.107 208.196 116.747 208.381 116.323 208.381C115.986 208.381 115.715 208.29 115.51 208.102C115.305 207.917 115.179 207.631 115.131 207.247L113.133 207.454C113.279 208.305 113.612 208.943 114.13 209.371ZM117.387 204.473C117.658 204.177 117.793 203.742 117.793 203.165C117.793 202.534 117.641 202.045 117.335 201.698C117.031 201.35 116.677 201.176 116.279 201.176C115.897 201.176 115.581 201.32 115.331 201.604C115.079 201.888 114.953 202.356 114.953 203.006C114.953 203.665 115.09 204.148 115.364 204.455C115.637 204.763 115.979 204.918 116.388 204.918C116.783 204.918 117.116 204.771 117.387 204.473ZM122.599 209.238C123.225 209.747 124.036 210.001 125.028 210.001C126.27 210.001 127.241 209.55 127.941 208.647C128.455 207.983 128.711 207.234 128.711 206.389C128.711 205.378 128.394 204.557 127.758 203.923C127.122 203.289 126.348 202.973 125.435 202.973C124.956 202.973 124.486 203.083 124.027 203.3L124.353 201.558H128.232V199.725H122.788L121.73 205.051L123.403 205.28C123.871 204.784 124.4 204.536 124.992 204.536C125.464 204.536 125.848 204.695 126.144 205.008C126.438 205.323 126.587 205.794 126.587 206.423C126.587 207.093 126.438 207.596 126.14 207.929C125.842 208.261 125.477 208.429 125.048 208.429C124.673 208.429 124.341 208.299 124.053 208.039C123.764 207.779 123.59 207.428 123.533 206.984L121.476 207.189C121.599 208.047 121.973 208.731 122.599 209.238ZM132.676 207.999C132.783 207.824 132.925 207.642 133.098 207.454C133.272 207.27 133.687 206.893 134.338 206.324C134.991 205.757 135.444 205.321 135.694 205.019C136.071 204.563 136.345 204.127 136.519 203.711C136.693 203.295 136.781 202.855 136.781 202.395C136.781 201.585 136.477 200.909 135.87 200.364C135.263 199.82 134.427 199.547 133.366 199.547C132.397 199.547 131.589 199.782 130.944 200.253C130.297 200.723 129.912 201.501 129.79 202.582L131.846 202.777C131.886 202.204 132.032 201.793 132.286 201.547C132.541 201.3 132.882 201.176 133.312 201.176C133.748 201.176 134.088 201.292 134.334 201.53C134.582 201.765 134.705 202.101 134.705 202.538C134.705 202.934 134.563 203.332 134.279 203.738C134.068 204.032 133.499 204.589 132.569 205.413C131.414 206.433 130.642 207.251 130.25 207.867C129.859 208.483 129.624 209.135 129.545 209.825H136.781V207.999H132.676ZM97.5356 13.9164L97.7188 15.1565L98.733 14.9913C99.2602 19.4663 99.0615 18.5686 99.6231 23.0496C104.518 22.4456 117.538 21.2553 120.2 21.1099L119.927 17.5391L114.634 18.0014L114.756 19.6021L104.261 20.6356C104.084 19.1679 103.699 15.2484 103.589 14.2282L106.721 13.7489L107.103 17.2332L111.899 16.7819L111.54 12.9767L114.758 12.49C114.795 12.9747 114.89 14.0286 114.871 14.0309L113.824 14.2098L114.055 16.2986C116.8 16.0602 117.648 16.0211 119.671 15.8808C119.589 13.4393 119.321 10.6262 119.228 9.8166L111.305 11.0775L110.993 6.525L106.022 6.7541L106.553 11.8221L103.404 12.2921L103.21 10.4904L98.3089 10.9652L98.5402 13.0493L97.5356 13.2006V13.9164ZM84.6428 15.6577L85.0881 17.2834L88.2318 16.6141L89.699 23.8904L87.4525 24.3558L87.7947 26.0059C91.0205 25.3922 94.3231 24.6438 97.5356 24.0758V23.4759C97.4668 23.1102 97.3945 22.7764 97.3273 22.35L94.7129 22.8724L93.2491 15.4559L95.6024 15.0253L95.2759 13.4039L92.8789 13.8611L92.2524 10.0723L86.9842 10.9358L87.8324 14.8887L84.6428 15.6577ZM97.5356 13.2006L97.4344 13.2168L97.5356 13.9164V13.2006ZM31.8577 63.1647C33.368 61.3363 34.8795 59.5085 36.3903 57.6805L32.8785 54.8566C32.6999 55.0766 32.5182 55.2991 32.3357 55.5205C30.9833 57.1626 29.5946 58.8129 28.2804 60.4825L31.8577 63.1647ZM217.854 159.65L225.663 162.832L226.354 161.096L217.854 157.63L213.765 155.964L213.071 157.699L217.854 159.65ZM217.854 153.702L228.13 156.677L230.89 146.962L229.322 146.508L227.07 154.421L222.721 153.166L224.766 145.97L223.196 145.515L221.152 152.711L217.854 151.756L217.086 151.534L217.854 148.839L219.296 143.762L217.854 143.344L217.796 143.328L215.079 152.899L217.854 153.702ZM217.854 97.7496C218.64 100.337 220.276 101.436 222.759 101.047C224.357 100.702 225.223 99.5233 225.351 97.5053L225.347 94.5969C225.282 92.3683 225.874 91.2175 227.123 91.154C228.586 90.8923 229.587 91.9258 230.13 94.2579C230.586 96.6637 229.801 98.1079 227.78 98.5912L228.151 100.35C229.662 100.074 230.676 99.3741 231.195 98.2403C231.805 97.2924 231.91 95.8711 231.507 93.9645C230.681 90.5179 229.029 89.0345 226.552 89.5178C224.617 89.9322 223.616 91.1917 223.555 93.2967L223.486 97.2924C223.567 98.3968 223.123 99.055 222.159 99.2605C220.658 99.5831 219.674 98.7491 219.204 96.7575C218.847 94.5904 219.504 93.2726 221.177 92.8122L220.822 91.1282C219.33 91.5026 218.341 92.2598 217.854 93.4018C217.427 94.3877 217.38 95.6659 217.711 97.2312C217.754 97.41 217.8 97.5835 217.854 97.7496ZM230.553 133.862L218.731 139.143L218.421 141.368L231.866 143.275L232.11 141.493L221.238 139.95L221.248 139.879L233.082 134.524L233.373 132.448L219.928 130.542L219.682 132.322L230.553 133.862ZM224.639 116.463C221.805 116.86 220.28 118.681 220.069 121.921C220.123 126.017 222.423 128.245 226.965 128.606C231.515 128.667 233.933 126.703 234.219 122.717C234.242 119.224 232.555 117.141 229.165 116.47L229.102 118.266C231.554 118.854 232.773 120.195 232.751 122.291C232.649 125.334 230.714 126.791 226.956 126.657C223.452 126.436 221.674 124.873 221.626 121.977C221.748 119.88 222.728 118.643 224.577 118.257L224.639 116.463ZM231.288 102.997L232.279 111.171L227.792 111.726L226.887 104.298L225.265 104.498L226.17 111.926L221.972 112.448L220.995 104.422L219.451 104.614L220.65 114.498L234.128 112.829L232.905 102.795L231.288 102.997ZM212.086 187.03C212.815 186.565 213.536 185.78 214.248 184.675C216.075 181.65 215.947 179.421 213.858 177.994C213.256 177.602 212.666 177.374 212.086 177.311C211.058 177.203 210.061 177.607 209.091 178.529L206.245 181.307C205.525 182.146 204.75 182.291 203.924 181.751C203.481 181.46 203.177 181.116 203.013 180.719C202.82 180.25 202.82 179.707 203.013 179.091C203.133 178.714 203.324 178.303 203.588 177.868C204.856 176.082 206.245 175.621 207.752 176.49L208.678 175.045C206.568 173.763 204.68 174.097 203.013 176.04C202.738 176.362 202.467 176.729 202.199 177.139C200.663 179.712 200.931 181.79 203.013 183.378L203.099 183.44C204.468 184.338 205.909 184.12 207.412 182.786L209.445 180.726C210.456 179.644 211.337 179.113 212.086 179.126C212.462 179.131 212.804 179.279 213.115 179.561C214.332 180.419 214.317 181.865 213.066 183.901C212.75 184.371 212.424 184.754 212.086 185.056C210.967 186.056 209.728 186.133 208.369 185.287L207.399 186.796C208.659 187.68 209.868 187.908 211.029 187.477C211.383 187.4 211.736 187.251 212.086 187.03ZM203.013 198.071C203.62 197.69 204.216 197.185 204.797 196.561C207.375 193.334 207.064 190.12 203.863 186.913C203.577 186.693 203.294 186.49 203.013 186.306C200.446 184.612 198.102 184.386 195.984 185.624C195.337 186.005 194.708 186.523 194.1 187.179C191.417 190.447 191.768 193.73 195.149 197.031C195.428 197.244 195.709 197.443 195.984 197.622C198.522 199.273 200.864 199.424 203.013 198.071ZM203.013 188.704C202.899 188.578 202.774 188.453 202.648 188.326C200.141 186.365 197.918 186.117 195.984 187.583C195.742 187.764 195.507 187.975 195.276 188.21C193.515 190.468 193.753 192.775 195.984 195.126C196.123 195.272 196.265 195.414 196.415 195.559C198.88 197.542 201.076 197.752 203.013 196.194C203.238 196.012 203.458 195.808 203.678 195.579C205.378 193.311 205.158 191.02 203.013 188.704ZM195.984 205.072L197.858 203.486L196.807 202.224L195.984 202.921L190.558 207.516L187.646 204.021L193.329 199.21L192.279 197.947L186.594 202.757L184.115 199.771L183.88 199.489L184.115 199.288L190.015 194.292L189.017 193.087L184.115 197.237L181.456 199.487L184.115 202.685L190.183 209.985L195.984 205.072ZM184.115 213.691C184.297 213.268 184.421 212.825 184.484 212.357L185.767 213.579L186.774 212.943L184.115 208.65L182.921 206.72L177.886 209.894L178.711 211.228L182.234 209.006C183.145 210.378 183.387 211.667 182.967 212.873C182.61 213.803 181.97 214.559 181.046 215.142C178.488 216.756 176.213 215.951 174.223 212.738C172.486 209.651 172.76 207.27 175.048 205.594C176.962 204.447 178.628 204.543 180.041 205.888L181.55 204.936C179.663 202.829 177.243 202.591 174.285 204.222C171.034 206.507 170.455 209.665 172.544 213.704C173.788 215.805 175.404 217.05 177.397 217.443C178.735 217.72 180.179 217.365 181.731 216.387C182.875 215.624 183.67 214.727 184.115 213.691ZM140.112 232.406C140.467 232.4 140.834 232.374 141.214 232.329C145.246 231.532 147.056 228.868 146.644 224.335C145.721 220.178 143.545 218.114 140.112 218.131C139.755 218.133 139.384 218.157 138.999 218.204C134.861 218.966 133.039 221.708 133.526 226.43C134.433 230.46 136.628 232.451 140.112 232.406ZM140.112 230.893C140.39 230.896 140.681 230.884 140.983 230.85C143.882 230.183 145.159 228.111 144.812 224.627C144.136 221.468 142.572 219.835 140.112 219.734C139.833 219.723 139.544 219.73 139.243 219.757C136.286 220.382 135.016 222.505 135.435 226.126C136.061 229.256 137.621 230.842 140.112 230.893ZM151.032 223.372L157.381 221.29L156.876 219.723L150.53 221.805L149.219 217.745L156.416 215.387L155.934 213.891L146.975 216.829L151.171 229.858L152.934 229.282L151.032 223.372ZM75.3866 219.749C74.0262 222.795 75.9359 224.96 78.6705 226.13C81.94 227.424 84.0932 226.91 85.1222 224.585C85.8954 222.746 85.4473 221.196 83.7717 219.938L80.5666 217.591C79.6249 217.025 79.3466 216.28 79.7321 215.363C80.3319 213.94 81.5735 213.604 83.4602 214.357C85.4243 215.306 86.1157 216.605 85.5292 218.251L87.101 218.926C88.1306 216.22 87.0744 214.197 83.9327 212.851C81.1171 211.754 79.1189 212.414 77.9392 214.838C77.3002 216.354 77.7626 217.747 79.3273 219.01L81.6902 220.676C83.539 221.9 84.1314 223.05 83.4645 224.117C82.838 225.477 81.4266 225.712 79.2207 224.822C77.0085 223.82 76.2846 222.343 77.0528 220.394L75.4115 219.694L75.3866 219.749ZM75.3866 213.558C76.0076 212.345 76.0076 211.241 75.3866 210.245C74.9438 209.535 74.1861 208.881 73.1135 208.279L70.0827 206.585L67.5984 205.194C65.4044 209.189 63.2103 213.183 61.0155 217.178L62.6377 218.087C63.5856 216.362 64.5327 214.637 65.48 212.911L69.3743 215.088C69.6507 215.245 69.8876 215.411 70.0827 215.587C70.9234 216.346 71.0031 217.3 70.3259 218.449C70.2408 218.615 70.1612 218.775 70.0827 218.929C69.4769 220.146 69.0914 221.038 68.9309 221.607L70.0827 222.251L70.9441 222.732L71.0873 222.469C70.7496 222.052 70.772 221.55 71.1522 220.964L72.2086 218.731C72.9037 217.464 72.8481 216.433 72.0371 215.641C73.4976 215.658 74.59 215.012 75.3103 213.702C75.3375 213.653 75.3619 213.606 75.3866 213.558ZM93.3622 216.561L91.5891 216.014L87.6189 229.118L89.3931 229.664L93.3622 216.561ZM95.2362 218.695L99.7339 219.659L97.2357 231.525L98.9759 231.899L101.474 220.034L105.978 220.998L106.301 219.463L95.561 217.157L95.2362 218.695ZM112.976 228.249L118.912 220.669L116.771 220.442L112.18 226.579L109.024 219.621L106.887 219.396L111.131 228.051L110.558 233.561L112.404 233.757L112.976 228.249ZM70.0827 208.298L68.5018 207.414L66.2363 211.536L69.9985 213.642L70.0827 213.688C71.6414 214.526 72.7951 214.261 73.5494 212.887C74.2924 211.536 73.9488 210.46 72.5233 209.662L70.0827 208.298ZM64.7989 205.213L65.7357 203.958C63.1097 201.96 60.4834 199.962 57.8568 197.964C55.1333 201.612 52.4095 205.26 49.6857 208.907C52.3519 210.935 55.0188 212.963 57.6856 214.991L58.6664 213.673C56.4942 212.021 54.3217 210.369 52.1498 208.717C53.0575 207.502 53.9643 206.287 54.8711 205.072L60.7961 209.576L61.7786 208.26L55.855 203.756L58.4014 200.347C60.5342 201.969 62.6672 203.59 64.7989 205.213ZM43.3182 203.351C47.6901 201.304 52.0617 199.257 56.4333 197.21L54.9627 195.725C51.3096 197.546 47.6547 199.362 44.0002 201.179L49.4544 190.167L47.9857 188.686C45.9578 193.098 43.9285 197.509 41.9023 201.922C42.374 202.399 42.8462 202.875 43.3182 203.351ZM46.2285 186.662L44.9875 185.27C41.6245 188.326 38.2615 191.384 34.8982 194.44L36.1392 195.831C39.5028 192.775 42.865 189.718 46.2285 186.662ZM31.8164 191.013C35.4311 188.265 39.0532 185.525 42.6586 182.765C42.3014 182.288 41.9454 181.81 41.5891 181.333C38.6663 183.557 35.7423 185.779 32.8181 188.001L37.4791 175.83L36.1392 174.036C32.5253 176.785 28.9111 179.533 25.297 182.282L26.3702 183.718C29.2935 181.495 32.2163 179.273 35.1388 177.05L35.1825 177.108L30.5657 189.339L31.8164 191.013ZM27.4244 176.224C30.0016 174.841 32.5792 173.458 35.1567 172.075L34.2859 170.421C31.7747 171.769 29.2635 173.117 26.7514 174.463C24.5685 175.636 22.8858 175.155 21.7032 173.018C20.7028 171.014 21.2837 169.398 23.4434 168.184C25.9552 166.837 28.4692 165.495 30.9773 164.142C30.6868 163.592 30.3959 163.042 30.1065 162.492L22.1159 166.779C19.4769 168.363 18.8924 170.656 20.3596 173.653C22.1182 176.779 24.4732 177.638 27.4244 176.224ZM11.6822 152.035C15.6784 149.33 19.6747 146.627 23.6719 143.923L23.1687 141.891C18.3643 141.325 13.5601 140.76 8.7557 140.195L9.2047 142.01L13.3614 142.43L14.688 147.803L11.1963 150.072L11.6822 152.035ZM21.4571 143.324L21.4401 143.251C19.3232 143.038 17.206 142.826 15.0891 142.615L16.1113 146.751C17.8943 145.61 19.6759 144.468 21.4571 143.324ZM8.4447 137.107C12.9456 136.63 17.4461 136.153 21.947 135.675L21.7616 133.888C18.1208 134.275 14.4802 134.662 10.8394 135.048C14.2424 132.377 17.6457 129.707 21.0473 127.035L20.8154 124.802C16.3142 125.281 11.8128 125.758 7.3114 126.235L7.4985 128.026C11.1373 127.639 14.7799 127.231 18.4204 126.865L18.428 126.938C15.0389 129.646 11.6266 132.33 8.2267 135.024L8.4447 137.107ZM20.7405 119.869H7.1646V121.741H20.7405V119.869ZM7.0257 115.161C11.5262 115.638 16.0265 116.117 20.5274 116.593L20.7221 114.732C18.8773 114.535 17.0323 114.339 15.1872 114.144L15.931 106.994C17.7766 107.191 19.622 107.387 21.4676 107.583L21.6595 105.72C17.159 105.244 12.6587 104.766 8.1581 104.288L7.9631 106.151L14.235 106.815L13.4907 113.964L7.2176 113.301L7.0257 115.161ZM179.608 123.422L158.407 126.409L125.279 131.077V177.924C125.279 178.917 124.465 179.731 123.471 179.731H117.463C116.469 179.731 115.656 178.917 115.656 177.924V131.077L82.5279 126.409L61.3273 123.422H60.2481C60.4483 134.12 63.4382 144.135 68.5191 152.772C68.563 152.847 68.6067 152.921 68.6509 152.995C68.8533 153.336 69.0591 153.675 69.268 154.011L69.3825 154.195C69.6047 154.55 69.8301 154.902 70.0591 155.252L70.1385 155.373C72.9859 159.694 76.3753 163.627 80.2094 167.075L80.3342 167.187C80.4906 167.327 80.6482 167.466 80.8061 167.604C80.9252 167.708 81.0445 167.812 81.1644 167.915C81.2305 167.972 81.2968 168.028 81.3631 168.085C81.7645 168.428 82.1702 168.765 82.5803 169.098L82.5812 169.099C92.929 177.484 106.111 182.508 120.467 182.508C134.824 182.508 148.006 177.484 158.354 169.099L158.354 169.098C158.773 168.758 159.188 168.413 159.597 168.063C159.651 168.017 159.705 167.971 159.76 167.924C159.885 167.817 160.009 167.709 160.133 167.6C160.286 167.467 160.438 167.332 160.589 167.197L160.731 167.07C164.563 163.624 167.949 159.694 170.794 155.375L170.876 155.252C171.105 154.902 171.33 154.55 171.552 154.195L171.667 154.011C171.876 153.674 172.082 153.334 172.286 152.993C172.329 152.919 172.372 152.846 172.416 152.772C177.497 144.135 180.486 134.12 180.687 123.422H179.608ZM125.279 121.741H176.477L150.878 118.428L125.279 115.116V121.741ZM115.656 128.367V121.741H64.4579L90.0573 125.054L115.656 128.367ZM163.43 75.4602C167.357 79.0676 170.831 83.162 173.752 87.6492C177.399 86.1809 180.971 84.5662 184.461 82.813C177.542 65.4579 165.989 51.3448 151.758 42.8451C148.791 43.9041 145.753 44.8169 142.656 45.5748C151.156 52.2521 158.346 62.6459 163.43 75.4602ZM98.2789 45.5748C95.1812 44.8169 92.1444 43.9041 89.1771 42.8451C74.9463 51.3448 63.3929 65.4585 56.4738 82.813C59.9641 84.5662 63.536 86.1809 67.1828 87.6492C70.1039 83.162 73.5778 79.0676 77.5052 75.4602C82.5885 62.6462 89.7783 52.2521 98.2789 45.5748ZM159.547 35.9926C147.664 30.4846 134.426 27.4062 120.467 27.4062C106.508 27.4062 93.2706 30.4846 81.3881 35.9926C93.5983 41.9079 106.929 44.9249 120.467 44.9249C134.019 44.9249 147.385 41.8841 159.547 35.9926ZM160.895 171.3C156.063 181.456 149.817 189.74 142.637 195.374C145.734 196.131 148.771 197.043 151.738 198.102C165.126 190.111 176.145 177.153 183.168 161.201C180.096 159.651 176.959 158.212 173.762 156.889C170.225 162.324 165.879 167.185 160.895 171.3ZM120.467 196.029C106.936 196.029 93.6133 199.042 81.4071 204.952C93.2851 210.453 106.516 213.528 120.467 213.528C134.418 213.528 147.65 210.454 159.528 204.952C147.37 199.066 134.013 196.029 120.467 196.029ZM138.419 194.447C144.728 190.171 150.366 183.709 154.998 175.625C145.381 181.864 133.972 185.574 121.711 185.809C121.848 185.806 121.986 185.803 122.124 185.799V192.73C127.688 192.827 133.134 193.413 138.419 194.447ZM119.224 185.809C106.963 185.574 95.5539 181.864 85.9371 175.624C90.5681 183.709 96.2065 190.171 102.516 194.447C107.801 193.413 113.246 192.827 118.811 192.73V185.799C118.948 185.803 119.086 185.806 119.224 185.809ZM98.2973 195.374C91.1177 189.74 84.8719 181.455 80.0396 171.3C75.0558 167.185 70.71 162.324 67.1732 156.889C63.976 158.212 60.8386 159.651 57.7667 161.201C64.7898 177.153 75.8092 190.111 89.1972 198.102C92.164 197.043 95.2005 196.131 98.2973 195.374ZM187.41 81.288C191.988 78.853 196.418 76.1763 200.682 73.2744C191.811 58.2293 178.83 45.8971 163.282 37.8246C160.794 39.1161 158.24 40.2979 155.627 41.3651C169.392 50.2891 180.561 64.288 187.41 81.288ZM85.3073 41.3651C82.6946 40.2979 80.1411 39.1161 77.6531 37.8246C62.1043 45.8971 49.1236 58.2293 40.2528 73.2744C44.517 76.1763 48.9467 78.853 53.5244 81.288C60.3743 64.2883 71.5425 50.2891 85.3073 41.3651ZM188.605 84.4086C192.586 95.341 194.812 107.414 194.853 120.109H213.524C213.464 104.205 209.411 89.244 202.321 76.1706C197.915 79.1569 193.337 81.9088 188.605 84.4086ZM194.814 123.422C194.466 136.385 191.842 148.653 187.404 159.661C191.981 162.096 196.41 164.772 200.674 167.673C208.369 154.628 212.974 139.543 213.477 123.422H194.814ZM186.106 162.727C179.182 178.344 168.541 191.202 155.609 199.581C158.221 200.647 160.775 201.828 163.262 203.119C177.828 195.56 190.144 184.265 198.938 170.502C194.814 167.689 190.531 165.092 186.106 162.727ZM184.455 158.136C188.663 147.585 191.157 135.835 191.5 123.422H183.999C183.802 134.558 180.737 144.994 175.516 154.027C178.55 155.296 181.531 156.667 184.455 158.136ZM191.54 120.109C191.5 107.962 189.399 96.4063 185.641 85.932C182.334 87.5832 178.956 89.1124 175.513 90.5145C180.577 99.2735 183.613 109.352 183.973 120.109H191.54ZM85.3254 199.581C72.3935 191.202 61.7528 178.344 54.8289 162.727C50.4037 165.092 46.1208 167.689 41.997 170.502C50.7912 184.265 63.1063 195.561 77.673 203.119C80.1604 201.828 82.7136 200.647 85.3254 199.581ZM53.5303 159.661C49.0927 148.653 46.4684 136.385 46.1208 123.422H27.4578C27.9607 139.543 32.5658 154.628 40.261 167.673C44.5246 164.772 48.9535 162.096 53.5303 159.661ZM46.0814 120.109C46.1225 107.414 48.3486 95.341 52.3296 84.4086C47.598 81.909 43.02 79.1569 38.6141 76.1706C31.5235 89.244 27.4708 104.205 27.4108 120.109H46.0814ZM55.294 85.932C51.5356 96.406 49.4351 107.962 49.3946 120.109H56.9616C57.3219 109.352 60.3578 99.2735 65.4216 90.5145C61.9784 89.1124 58.6006 87.5832 55.294 85.932ZM49.4348 123.422C49.7778 135.835 52.2709 147.585 56.4798 158.136C59.4034 156.667 62.3846 155.296 65.4188 154.027C60.1977 144.994 57.1329 134.558 56.9353 123.422H49.4348ZM203.399 169.574C210.901 156.932 215.598 142.429 216.624 126.921C216.891 122.869 216.916 118.945 216.68 114.841C215.836 100.2 211.724 86.4363 205.062 74.2666C204.899 73.9692 204.735 73.6727 204.569 73.3776C195.59 57.3792 182.181 44.202 166.001 35.5121C165.643 35.3202 165.283 35.1306 164.923 34.9432C164.423 34.6827 163.919 34.4276 163.414 34.1756L163.358 34.1478L163.303 34.1203L163.247 34.0928C150.356 27.6959 135.834 24.0933 120.467 24.0933C105.101 24.0933 90.5783 27.6953 77.6883 34.0931L77.4258 34.2232C77.002 34.435 76.5799 34.6487 76.1601 34.8664C75.7588 35.0739 75.3591 35.2842 74.9611 35.4974C74.7499 35.6108 74.5393 35.7244 74.3292 35.8393L74.1739 35.924L74.1753 35.9249C59.0136 44.2451 46.3351 56.5262 37.5273 71.3732L37.3657 71.6445C37.2818 71.7871 37.1979 71.9294 37.1146 72.0723C36.6914 72.7976 36.2764 73.5284 35.8725 74.2666L35.8759 74.2691C28.501 87.7433 24.2496 103.171 24.1013 119.581C24.0877 121.122 24.1101 122.594 24.1654 124.091C24.7782 140.664 29.5787 156.166 37.5364 169.574L37.5341 169.575C38.0999 170.529 38.6762 171.475 39.2735 172.407L39.2805 172.402C47.9863 185.981 60.0035 197.234 74.1946 205.018L74.1909 205.02C74.4557 205.165 74.721 205.309 74.9874 205.451C75.227 205.58 75.4679 205.707 75.7089 205.833C76.0422 206.008 76.3767 206.181 76.7123 206.352C89.8433 213.055 104.712 216.841 120.467 216.841C136.223 216.841 151.095 213.055 164.226 206.35C164.559 206.18 164.891 206.009 165.222 205.836C165.465 205.708 165.708 205.58 165.95 205.45C166.215 205.308 166.48 205.165 166.744 205.02L166.74 205.018C180.931 197.234 192.949 185.981 201.654 172.402L201.661 172.407C202.259 171.475 202.835 170.529 203.401 169.575L203.399 169.574ZM120.467 3.6139C55.9313 3.6139 3.6142 55.9309 3.6142 120.467C3.6142 185.004 55.9313 237.32 120.467 237.32C185.003 237.32 237.321 185.003 237.321 120.467C237.321 55.9312 185.003 3.6139 120.467 3.6139Z" fill="#0068B7"/>
    </g>
    <defs>
    <clipPath id="clip0_6_8">
    <rect width="240.935" height="240.935" fill="white"/>
    </clipPath>
    </defs>
    </svg>
    