<svg width="733" height="734" viewBox="0 0 733 734" fill="none" xmlns="http://www.w3.org/2000/svg">
<path d="M369.26 733.645C236.965 732.714 117.139 698.202 7.31052 629.177C3.31325 627.037 0.935593 622.759 1.22797 618.237C0.211836 583.094 1.8448 547.926 6.11301 513.028C22.2571 388.313 69.3778 276.628 147.475 177.973C205.466 105.048 278.17 45.1395 360.858 2.14426C364.341 -0.0578512 368.781 -0.0578512 372.263 2.14426C538.773 91.7711 649.716 226.939 705.092 407.649C716.433 445.276 724.14 483.903 728.111 523C731.677 555.395 732.871 588.006 731.685 620.573C731.812 623.715 730.149 626.659 727.389 628.171C663.163 669.169 592.417 698.935 518.187 716.189C481.418 724.704 444.001 730.123 406.326 732.391C393.02 733.208 379.866 733.341 369.26 733.683M348.846 722.248C402.486 722.248 441.034 719.133 478.1 712.618C560.672 698.219 639.665 667.946 710.7 623.479C720.413 617.42 720.432 617.401 720.755 605.853C721.698 570.296 719.721 534.72 714.844 499.486C709.105 456.409 698.808 414.062 684.126 373.156C626.166 213.733 522.374 93.8604 372.757 13.5407C368.918 11.1547 364.046 11.1991 360.25 13.6547C243.352 75.7021 153.228 164.772 89.881 280.864C53.6582 347.674 29.6125 420.389 18.8673 495.611C13.4798 533.76 11.3685 572.301 12.5567 610.81C12.3809 615.133 14.732 619.164 18.5822 621.143C124.76 688.059 240.69 721.337 348.846 722.248Z" fill="#CE0021"/>
<path d="M24.7032 608.949C24.4941 598.16 24.0379 587.314 24.133 576.469C24.7222 516.485 32.9527 457.585 50.9152 400.299C103.339 233.213 206.786 108.169 361.258 25.1651C364.604 23.0801 368.858 23.132 372.15 25.2981C509.944 98.8939 607.881 208.13 665.955 353.003C685.897 403.36 699.038 456.147 705.036 509.97C708.487 541.191 709.759 572.613 708.838 604.01C708.938 607.361 707.094 610.468 704.104 611.988C672.745 631.92 639.703 649.079 605.358 663.272C557.458 682.997 507.293 696.701 456.012 704.071C411.39 710.599 366.181 712.187 321.208 708.8C218.016 701.389 118.282 668.489 30.9569 613.051C29.0561 611.817 27.0032 610.487 24.7032 608.949ZM499.009 354.808C486.178 388.731 464.795 414.544 433.45 431.525C403.188 448.283 367.694 452.967 334.114 444.631C258.704 426.655 212.154 350.996 230.143 275.64C241.457 228.246 276.572 190.113 322.9 174.915C352.012 165.084 383.594 165.372 412.523 175.731C454.739 190.68 483.156 219.95 499.389 261.813L530.847 250.682C509.273 183.234 434.572 121.522 340.178 135.844C246.641 150.013 184.199 234.613 192.809 324.797C201.29 413.94 275.964 482.171 365.573 482.657C410.489 483.075 449.949 467.614 483.422 437.698C505.49 418.058 528.775 381.988 530.257 365.52L499.009 354.808ZM256.03 255.905C255.916 258.166 255.745 259.704 255.745 261.262C255.745 294.255 255.745 327.228 255.745 360.202C255.811 363.349 256.711 366.423 258.349 369.11C283.441 413.887 333.609 438.513 384.41 430.993C424.459 424.953 454.492 403.85 475.021 369.034C476.786 366.181 477.716 362.892 477.701 359.537C477.701 326.962 477.701 294.368 477.701 261.794C477.701 259.894 477.397 257.995 477.207 255.735C465.687 255.469 454.758 255.165 443.391 255.886V263.693C443.391 292.716 443.391 321.739 443.391 350.762C443.532 353.913 442.6 357.02 440.749 359.575C422.521 384.571 397.887 398 367.036 398.152C336.624 398.285 312.16 385.35 293.704 361.114C291.033 357.687 289.653 353.431 289.807 349.09C289.959 320.466 289.807 291.823 289.807 263.199V255.905H256.03ZM308.187 219.475V363.982C315.981 365.254 337.289 364.932 341.87 363.374V274.216L366.58 298.604C374.659 290.589 382.395 282.896 390.15 275.222C391.253 290.532 391.158 305.29 391.272 320.03C391.386 334.769 390.797 349.489 391.613 364.077C400.662 365.311 421.133 364.913 425.087 363.526C426.342 353.744 425.809 224.033 424.364 219.456C417.028 219.456 409.519 219.608 402.03 219.456C399.077 219.317 396.22 220.535 394.275 222.761C386.253 230.947 378.099 239.001 369.963 247.092C368.9 248.137 367.702 248.992 366.409 250.169C364.718 248.536 363.273 247.206 361.867 245.839C354.263 238.241 346.564 230.415 338.772 222.837C337.39 221.237 335.519 220.136 333.45 219.703C325.181 219.342 316.913 219.532 308.149 219.532M219.383 523.437C214.327 519.069 213.281 518.727 210.411 521.063C205.792 524.862 201.325 529.249 200.128 535.194C197.942 546.268 192.942 556.924 194.635 568.681C194.623 570.841 194.231 572.981 193.475 575.006C193.266 575.918 192.41 576.792 192.467 577.608C193.037 585.434 193.57 593.259 194.52 601.028C194.903 605.15 198.033 608.489 202.123 609.139C209.498 610.354 216.665 609.537 222.576 604.086C224.632 602.491 225.006 599.531 223.409 597.476C223.403 597.47 223.399 597.463 223.394 597.457C222.177 598.141 220.999 598.749 219.858 599.356C216.5 601.102 212.669 601.727 208.928 601.142C205.754 600.8 203.34 599.47 202.674 595.919C200.742 587.259 200.215 578.343 201.116 569.517C202.556 557.75 206.638 546.458 213.053 536.486H219.592L221.663 544.255L214.934 548.054C215.543 551.377 216.132 554.758 216.969 559.355C216.474 559.963 215.467 562.375 213.757 563.154C209.365 564.939 207.332 568.662 204.462 572.214C205.223 574.028 206.214 575.739 207.408 577.304C208.831 578.419 210.415 579.316 212.102 579.964C210.202 583.003 208.301 585.776 206.533 588.625C205.119 590.674 205.562 593.474 207.541 594.988C209.282 597.225 212.243 598.124 214.934 597.229C219.402 595.767 223.926 594.456 228.24 593.126C231.719 596.583 231.719 596.583 239.988 597.343C240.576 599.831 241.204 602.509 241.888 605.587C236.186 605.587 234.284 599.072 228.715 600.325L226.644 606.023C229.001 609.176 231.224 612.159 233.449 615.179C238.162 621.599 242.059 621.978 248.332 617.078C251.962 614.248 254.034 610.297 256.733 606.783C264.574 596.901 270.581 585.694 274.468 573.696C277.617 563.342 279.75 552.705 280.835 541.937C281.74 533.582 279.324 525.205 274.107 518.613C272.582 516.028 269.81 514.434 266.807 514.415C261.314 514.415 255.802 514.111 250.289 513.997C246.768 513.756 243.232 513.819 239.721 514.187C232.109 515.123 224.971 518.387 219.288 523.532M388.99 581.464C388.248 583.301 387.39 585.09 386.424 586.82C383.383 591.208 380.323 595.539 377.111 599.793C375.117 602.32 374.868 605.805 376.483 608.588C377.89 611.285 380.741 611.874 383.707 611.342C386.234 610.886 388.762 610.506 391.31 610.126C391.813 610.512 392.296 610.924 392.754 611.361C397.962 616.869 400.871 616.755 405.699 611.057C413.302 602.111 409.767 591.759 409.5 581.806C409.5 581.654 409.253 581.502 409.177 581.312C406.939 575.162 408.679 568.269 413.568 563.914C414.48 565.433 415.317 566.972 416.324 568.415C418.33 570.985 418.527 574.529 416.819 577.304C415.784 579.208 414.87 581.175 414.081 583.193C413.019 585.516 412.19 587.941 411.61 590.429C410.924 592.709 412.216 595.115 414.497 595.801C415.176 596.004 415.895 596.038 416.59 595.9C419.277 595.429 421.925 594.762 424.516 593.905C424.155 599.774 423.87 605.302 423.491 610.715C423.186 614.818 422.274 619.129 427.291 620.991C426.151 622.054 424.725 622.719 424.535 623.669C424.127 625.802 423.973 627.977 424.079 630.146C424.079 632.862 425.98 633.679 428.337 634.249C430.137 634.779 432.027 633.762 432.576 631.969C433.287 630.769 433.866 629.494 434.305 628.171C436.966 617.078 441.681 606.46 441.776 594.779C441.776 591.645 442.023 588.492 442.251 585.282C442.593 580.742 442.992 580.305 447.193 579.242C456.335 576.963 458.503 571.948 453.827 563.382C452.11 563.477 450.392 563.477 448.676 563.382C444.152 562.869 442.65 561.311 442.973 556.867C443.31 553.945 443.881 551.055 444.684 548.224C446.242 541.842 448.258 535.479 441.186 530.75C440.065 529.99 439.571 528.262 438.868 527.084C436.757 527.445 435.066 527.787 433.28 527.996C427.748 528.604 425.847 531.13 427.006 536.6C427.278 537.755 427.661 538.881 428.147 539.962C429.499 543.254 429.499 546.946 428.147 550.238C425.047 546.137 419.205 545.324 415.101 548.422C414.345 548.994 413.68 549.676 413.131 550.447C411.511 552.238 409.715 553.86 407.77 555.29C406.231 553.296 405.204 551.852 404.064 550.523C402.924 549.193 401.517 547.674 399.692 545.66C402.695 544.312 405.166 543.229 407.618 542.108C411.992 540.085 413.895 534.904 411.872 530.535C411.557 529.855 411.156 529.219 410.679 528.642C406.25 532.174 401.745 535.574 397.373 539.24C393.001 542.906 388.8 546.838 384.676 550.732C381.749 553.505 382.09 555.917 385.797 559.811L394.902 557.285C397.031 559.868 396.023 561.406 394.313 562.774C388.781 567.2 383.345 571.758 377.605 575.956C375.849 576.809 375.115 578.921 375.968 580.678C376.092 580.932 376.246 581.17 376.426 581.388C377.483 583.846 380.332 584.984 382.792 583.928C382.832 583.911 382.87 583.893 382.908 583.876C384.543 583.269 386.12 582.49 389.066 581.217M121.529 585.985C124.153 585.814 126.13 585.149 127.765 585.643C132.858 587.219 133.98 586.991 136.831 582.452C137.762 580.97 138.58 579.394 139.397 577.817C141.45 573.885 143.484 569.935 145.461 566.098C157.873 568.909 158.006 566.516 160.229 561.767C161.085 559.868 160.229 557.171 159.831 554.948C158.88 550.599 153.597 553.372 151.334 549.63C152.076 548.585 152.684 546.648 153.976 546.021C158.063 544.008 161.351 540.323 166.256 539.829C167.821 539.369 169.28 538.61 170.551 537.588L186.251 538.974C186.67 533.789 187.221 529.344 187.373 524.881C187.373 522.411 183.438 519.505 180.987 519.999C180.587 520.968 180.112 521.994 179.713 522.943C173.725 522.715 173.383 522.43 173.326 517.416L165.058 515.403C165.248 513.275 165.438 511.509 165.628 509.704C165.933 504.924 164.48 500.194 161.541 496.409C158.082 491.413 152.037 492.078 149.396 497.529C146.982 502.696 144.491 507.843 142.248 513.085C141.662 514.745 140.193 515.934 138.447 516.162C131.129 517.359 123.811 518.632 116.588 519.961L110.41 512.801C106.043 516.366 103.877 521.965 104.708 527.54C105.721 533.705 107.338 539.755 109.535 545.603C111.437 551.168 115.238 554.948 122.119 554.682C122.119 556.905 121.321 559.488 122.271 560.647C124.419 563.287 123.107 565.433 122.461 567.826C120.726 573.703 120.406 579.905 121.529 585.928M332.214 576.944C338.943 574.398 346.564 575.709 352.115 570.011C349.123 568.47 347.798 564.907 349.055 561.786C350.252 557.683 347.99 555.594 343.561 555.822C341.071 555.955 338.563 556.221 335.635 556.449C335.788 554.113 335.864 552.479 335.978 550.751C344.018 553.068 347.762 550.124 347.61 541.956C347.61 540.988 347.382 540.057 347.363 539.031C347.249 536.106 347.363 533.181 347.097 530.275C346.907 528.243 346.926 525.64 345.729 524.349C343.827 522.298 341.262 524.064 339.266 525.204C332.727 528.647 327.435 534.055 324.135 540.665C323.681 541.417 323.173 542.133 322.615 542.811L319.384 539.107C320.334 536.524 321.075 534.074 322.14 531.738C323.295 529.814 322.672 527.316 320.747 526.161C320.541 526.037 320.328 525.935 320.106 525.849C318.591 524.976 316.905 524.438 315.163 524.273C309.309 523.931 298.893 530.921 296.669 536.448C295.471 539.468 296.498 541.159 299.634 542.146C303.436 543.438 305.488 540.931 307.865 537.968C307.314 544.843 306.991 545.793 303.778 546.857C298.762 548.105 295.39 552.802 295.813 557.949C296.08 566.801 296.688 575.633 297.239 584.541C297.496 585.521 297.927 586.448 298.512 587.276C306.116 585.377 312.921 581.578 322.178 582.376C317.445 587.409 313.491 591.569 308.872 596.45L317.521 600.002C315.411 603.801 314.328 608.284 308.321 608.36C308.625 602.092 301.592 603.174 299.938 598.863C295.722 600.443 292.799 604.312 292.43 608.797C292.261 611.129 294.017 613.158 296.352 613.327C296.496 613.338 296.639 613.34 296.783 613.336C299.647 612.935 302.481 612.333 305.26 611.532L309.537 610.639C308.407 612.842 307.428 615.12 306.61 617.458C305.475 620.235 306.807 623.407 309.586 624.541C310.45 624.894 311.387 625.018 312.312 624.904C317.615 624.695 322.919 624.353 328.222 624.011C332.104 623.975 335.544 621.504 336.814 617.838C332.879 611.589 325.827 612.14 319.517 609.993C321.569 607.391 323.318 605.302 324.953 603.098C329.249 597.134 329.211 595.786 324.572 589.897C326.153 588.215 327.861 586.659 329.686 585.244C332.86 583.136 334.552 580.761 332.081 576.906M608.513 513.522C613.626 507.824 614.216 506.741 613.987 501.081C613.911 497.731 613.497 494.395 612.753 491.128C611.422 485.696 606.935 480.852 600.454 481.213C598.297 481.456 596.122 481.519 593.954 481.403C592.258 481.27 590.647 480.606 589.354 479.504C585.019 474.983 582.32 475.306 580.23 481.061C579.355 483.512 578.785 486.038 575.839 486.855C574.547 485.525 573.273 484.157 572.037 482.79C568.084 484.689 568.71 487.652 569.338 490.577C569.889 493.218 571.334 495.953 568.349 498.08C563.274 495.972 560.347 497.13 561.203 501.309C563.103 510.388 562.362 520.303 569.224 527.901C568.558 528.604 568.008 529.154 567.514 529.8C562.809 534.885 559.857 541.341 559.092 548.224C558.579 553.923 562.229 557.209 567.78 556.772C572.459 556.096 576.358 552.84 577.854 548.357C578.842 545.204 579.279 541.292 581.389 539.164C587.927 532.554 595.36 527.046 604.617 524.482C609.844 523.057 614.691 524.33 619.634 525.508C622.104 526.096 623.035 527.939 623.168 530.503C621.925 531.037 620.75 531.719 619.672 532.535C618.896 533.502 618.257 534.568 617.77 535.707C618.846 536.418 620.034 536.938 621.287 537.246C622.836 537.1 624.374 536.845 625.887 536.486C627.08 536.553 628.265 536.737 629.422 537.037L619.918 541.026C624.803 542.488 628.624 543.742 632.502 544.825C634.161 545.322 635.909 544.382 636.408 542.726C636.455 542.566 636.489 542.405 636.512 542.241C637.084 540.351 637.131 538.342 636.645 536.429C634.326 530.731 631.57 525.375 628.833 519.923C628.358 518.974 627.16 517.701 626.285 517.701C620.241 517.701 615.28 513.902 608.666 513.522M475.286 608.284C477.454 610.354 481.161 610.753 479.868 614.59C479.773 614.932 481.654 616.489 482.567 616.489C484.887 616.645 487.21 616.254 489.353 615.35C496.724 611.116 502.817 604.973 506.992 597.571C507.707 596.409 508.183 595.119 508.398 593.772C509.121 587.922 509.882 582.11 510.3 576.241C510.717 570.372 510.736 570.03 516.591 568.947C523.128 568.009 529.192 565 533.888 560.362C534.097 556.392 534.477 553.334 534.363 550.295C534.367 548.602 533.805 546.959 532.767 545.622C528.281 540.741 523.452 540.19 517.56 543.343C514.595 544.938 511.611 546.857 508.874 546.648C507.847 540.722 506.973 535.612 506.042 530.541C505.871 529.686 504.977 528.945 504.292 528.224C500.872 524.71 497.412 521.196 493.972 517.701C493.154 516.846 492.508 515.707 491.519 515.194C490.521 514.639 489.342 514.516 488.25 514.852C487.49 515.251 487.148 516.751 486.901 517.701C486.84 518.495 486.931 519.295 487.167 520.056C488.649 528.376 490.246 536.657 489.429 545.242C489.232 547.598 489.511 549.968 490.246 552.213C491.519 556.012 490.246 558.405 487.452 560.95C484.194 564.056 481.187 567.416 478.461 570.998C477.646 572.089 477.266 573.443 477.397 574.797C478.217 579.992 482.844 583.719 488.098 583.421C488.839 583.421 489.6 583.421 490.969 583.421C490.626 588.384 489.016 593.178 486.292 597.343C483.669 601.446 479.316 604.466 475.324 608.36M599.542 544.445L601.176 545.394C600.378 547.294 600.055 549.725 598.648 550.751C594.58 553.695 592.946 556.962 595.702 561.501C593.25 563.762 590.646 563.23 588.099 563.249C580.876 563.249 573.938 564.711 568.273 569.498C562.305 574.569 562.761 578.444 569.623 582.034C571.351 582.841 573.319 582.968 575.135 582.395C577.66 581.289 580.053 579.899 582.263 578.254C588.973 573.828 596.634 573.582 605.586 572.556C604.649 574.801 603.511 576.955 602.184 578.995C599.466 582.281 596.139 578.748 592.68 579.109C593.383 581.217 593.972 582.908 594.58 584.541C595.296 586.323 595.892 588.15 596.368 590.011C597.526 596.071 602.07 598.521 607.772 596.052C616.969 591.841 621.317 581.223 617.713 571.777C617.181 570.41 616.686 569.023 616.155 567.636C616.824 567.308 617.517 567.029 618.227 566.801C619.956 566.478 621.705 566.212 623.472 565.927C628.643 565.072 630.353 561.501 627.75 556.981C625.146 552.46 621.021 551.282 615.984 553.182C613.702 554.056 611.441 555.081 608.057 556.411C608.057 550.827 607.772 546.363 608.057 541.918C608.342 537.018 606.157 533.504 601.48 532.326C597.261 531.301 588.327 535.346 586.274 539.392C584.81 542.393 583.537 545.508 582.358 548.642C580.997 551.474 582.187 554.874 585.019 556.24C587.604 557.513 589.582 556.639 591.368 553.03C593.098 549.336 596.015 546.327 599.656 544.483M521.001 573.791C519.576 574.436 518.239 575.266 517.028 576.26C515.476 578.034 514.082 579.939 512.866 581.958C511.421 584.104 511.687 585.985 512.866 588.454C515.584 593.848 520.715 596.773 524.555 600.99C524.821 601.281 525.154 601.503 525.525 601.636C529.959 603.26 533.974 605.856 537.271 609.233C538.184 610.031 540.161 610.943 540.807 610.506C545.008 607.752 549.531 604.808 551.148 599.926C553.523 592.766 552.268 589.973 545.787 585.795C540.655 582.528 535.314 579.546 529.915 576.773C526.998 575.555 523.993 574.558 520.925 573.791M236.585 677.46L242.116 667.146L242.763 667.469C242.268 670.907 241.793 674.345 241.261 678.144L247.343 679.17C248.921 671.344 250.403 663.974 252.019 655.883L242.325 654.097L236.414 664.829C235.882 659.796 235.482 656.149 235.083 652.35C231.643 651.78 228.81 651.286 225.446 650.697C223.831 658.732 222.348 666.178 220.733 674.212L227.024 675.029C227.955 671.23 228.715 668.077 229.495 664.924H230.389C230.674 668.514 230.958 672.104 231.262 675.827L236.585 677.422M158.976 632.501C156.657 639.814 154.375 647.07 151.904 654.838L158.671 656.928L162.758 646.538C163.879 649.957 164.659 652.388 165.457 654.8C167.225 660.498 167.206 660.498 174.144 661.106L181.196 638.978L174.391 636.908L170.285 647.336C169.219 644.65 168.336 641.896 167.643 639.092C166.901 634.61 164.335 632.653 158.976 632.501ZM453.389 674.174L454.359 673.775C456.069 675.675 457.762 677.574 459.472 679.36C463.54 683.785 463.54 683.785 470.04 681.259C469.014 673.908 467.969 666.444 466.847 658.371L459.719 659.644C460.08 663.329 460.403 666.539 460.879 671.192C458.047 668.058 456.126 665.912 454.15 663.784C450.5 659.891 450.139 659.834 444.133 662.683C445.178 669.996 446.242 677.46 447.364 685.476L454.511 684.146C454.093 680.48 453.732 677.403 453.389 674.326M545.217 666.254L552.478 663.708C551.737 660.423 551.167 657.839 550.577 655.275C550.919 655.047 551.243 654.819 551.604 654.61C552.896 655.655 554.284 656.51 555.406 657.725C560.499 662.531 560.48 662.55 567.514 658.618L559.13 651.229C559.872 649.976 560.328 649.33 560.652 648.646C562.015 646.143 561.704 643.06 559.872 640.878C558.093 638.631 555.045 637.819 552.383 638.883C547.878 640.213 543.392 641.466 538.26 642.929C540.598 650.83 542.726 658.124 545.122 666.254M351.564 605.416C351.423 604.287 351.097 603.189 350.594 602.168C347.439 597.457 344.189 592.785 340.824 588.226C339.914 587.185 338.759 586.389 337.46 585.909C334.552 584.731 332.119 585.909 331.872 589.024C331.301 596.906 331.396 604.789 335.426 611.931C336.386 613.604 337.929 614.869 339.76 615.483C345.177 616.983 351.545 611.684 351.564 605.416ZM118.223 616.641C115.143 624.391 112.349 631.419 109.402 638.864C112.234 639.947 114.307 640.764 116.493 641.523C117.976 638.484 119.115 636.053 120.484 633.223L126.586 635.806C125.635 638.864 124.818 641.409 123.849 644.562L130.882 647.222C133.866 639.624 136.584 632.596 139.587 625.15C136.831 624.068 134.759 623.251 132.611 622.434C131.242 625.075 130.198 627.126 128.981 629.557C126.833 628.664 124.951 627.848 122.993 627.012C123.735 624.277 124.343 622.054 125.027 619.414L118.223 616.603M279.904 684.697C285.151 685.077 289.617 685.571 294.084 685.704C297.123 685.783 299.938 684.114 301.326 681.411C303.599 677.641 304.152 673.078 302.847 668.875C302.126 665.705 299.611 663.251 296.422 662.607C292.05 661.771 287.621 661.353 282.641 660.707C281.71 668.837 280.873 676.207 279.885 684.773M277.376 659.91L257.436 656.852C256.468 665.19 254.395 672.674 254.205 680.803L273.631 683.747C274.049 681.696 274.335 680.252 274.734 678.258C271.503 677.631 268.671 677.156 265.838 676.549C263.937 676.15 262.265 675.542 263.937 672.541L273.954 673.528L274.867 669.597C271.959 666.197 266.636 669.293 264.146 664.012L276.159 665.152C276.558 663.557 276.882 662.132 277.414 659.91M415.374 664.126C415.697 668.628 415.925 672.332 416.248 676.036C416.362 677.415 416.59 678.78 416.933 680.119C418.282 685.4 421.57 687.812 427.31 687.717C434.191 687.717 438.716 685.039 439.457 679.683C440.331 673.87 438.963 668.134 438.107 662.018L430.789 662.911C430.941 665.095 431.036 666.824 431.131 668.609C431.302 671.762 431.549 674.915 431.606 678.106C431.805 679.709 430.662 681.168 429.058 681.365C428.793 681.398 428.525 681.394 428.261 681.354C426.841 680.955 425.619 680.041 424.84 678.79C424.231 677.935 424.459 676.491 424.307 675.333C423.851 671.648 423.395 667.963 422.863 663.746L415.374 664.145M533.032 644.278L513.739 649.216C515.812 657.383 517.674 664.734 519.652 672.579L539.268 667.564C538.698 665.475 538.336 664.012 537.842 662.132C534.649 662.816 531.817 663.462 528.946 664.031C527.045 664.43 525.145 664.449 525.62 661.201L535.675 657.896C535.029 656.092 534.554 654.724 534.116 653.471C524.707 654.914 524.707 654.914 523.073 653.015L534.287 649.444C533.869 647.677 533.565 646.424 533.032 644.278ZM573.292 638.674V637.535C574.471 637.288 575.991 636.471 576.751 636.908C580.04 638.807 582.263 637.06 585.133 635.179C584.383 633.992 583.476 632.911 582.434 631.969C577.797 628.873 568.122 632.311 566.335 637.573C565.088 640.587 566.523 644.042 569.539 645.288C569.796 645.394 570.058 645.482 570.327 645.55C572.628 646.014 574.974 646.236 577.322 646.215C578.994 646.329 580.971 645.588 581.864 647.829C579.222 650.432 578.899 650.869 577.208 649.729C573.767 647.279 571.505 649.007 569.11 650.717C569.11 651.324 568.977 651.59 569.11 651.723C571.866 655.921 574.185 657.023 579.032 655.959C583.594 654.952 587.889 653.3 589.296 648.171C590.338 644.443 588.158 640.577 584.427 639.537C584.153 639.461 583.875 639.4 583.594 639.358C581.439 639.178 579.273 639.14 577.113 639.244C575.877 639.244 574.661 638.902 573.444 638.731M375.096 689.958C372.036 681.582 369.279 674.079 366.523 666.653C365.438 666.419 364.339 666.248 363.235 666.14C358.008 665.95 357.97 665.969 356.012 671.021C354.054 676.074 352.211 680.917 350.309 685.913C349.952 687.212 349.711 688.541 349.588 689.882C352.989 690.167 355.689 691.041 357.875 687.717C359.225 685.628 364.547 685.571 365.762 687.603C367.987 691.402 370.952 690.148 375.02 689.958M178.459 662.512C184.427 665.361 184.427 665.361 189.483 661.98C191.232 662.911 194.559 663.575 195.015 665.095C196.402 669.692 199.557 668.894 203.34 669.369C202.636 661.562 202.123 654.287 201.249 647.108C200.789 645.698 199.772 644.54 198.436 643.898C196.676 643.225 194.846 642.749 192.98 642.473L178.497 662.493M110.676 621.029C111.019 614.039 107.502 609.936 100.488 608.588C94.5574 607.429 89.6153 610.81 87.1824 617.686C84.9204 624.182 87.0303 629.272 93.2649 632.387C99.1574 635.293 103.472 634.287 107.084 629.025L102.826 625.226C102.169 625.441 101.534 625.715 100.925 626.043C99.301 627.66 96.6757 627.66 95.0516 626.043C93.0178 624.144 93.8351 622.092 94.7095 620.06C95.0995 618.943 95.6572 617.893 96.3632 616.945C98.4161 614.4 102.066 614.21 103.187 617.078C104.651 620.706 107.16 620.877 110.543 620.877M339.989 679.379C339.304 680.157 338.981 680.404 338.772 680.727C337.517 682.76 335.921 684.013 333.412 683.12C330.902 682.228 330.712 680.043 330.731 677.821C330.703 677.035 330.741 676.246 330.845 675.466C331.567 671.211 334.647 669.597 337.973 672.237C340.9 674.592 343.106 673.889 345.767 672.446C343.144 665.874 338.696 663.614 331.548 665C325.846 666.083 322.52 670.964 322.729 677.859C322.938 684.754 326.398 688.477 332.936 689.464C339.798 690.471 343.39 688.344 345.501 681.62L339.989 679.379ZM484.62 655.066C489.6 662.911 493.934 669.806 498.172 676.529C499.655 676.416 500.435 676.378 501.194 676.245C506.555 675.409 506.612 675.333 507.391 670.109C507.98 666.216 508.589 662.322 509.102 658.39C509.444 655.75 509.653 653.11 509.977 649.862L502.772 651.476C502.107 656.529 501.498 661.296 500.719 667.431L492.603 653.547L484.62 655.066ZM600.568 622.092C601.708 624.334 602.469 625.682 603.096 627.107L609.901 625.872L616.686 641.485L623.644 638.617C621.496 632.919 619.5 627.715 617.542 622.548L623.834 619.148C622.978 617.249 622.219 615.672 621.306 613.678L600.568 622.092ZM624.195 613.545C627.627 615.906 631.18 618.087 634.84 620.079C639.211 622.244 638.812 627.677 642.442 630.526L649.323 627.316C641.911 619.718 646.909 611.133 646.814 602.984C639.762 603.288 638.603 607.904 638.394 613.678C633.756 611.114 629.498 607.467 624.195 613.545ZM398.266 683.405L386.672 682.798V665.836L379.505 666.159V690.224C386.215 689.901 392.184 689.616 398.266 689.293V683.405ZM310.089 663.804C309.423 672.104 308.834 679.626 308.187 687.641H316.076C316.704 679.835 317.312 672.313 317.977 664.316L310.127 663.804M137.724 649.615L145.061 652.483C147.97 644.619 150.764 637.421 152.95 629.69L145.689 627.278L137.648 649.577M484.866 679.512C483.46 671.401 482.205 664.126 480.837 656.282L473.234 657.421C474.198 665.376 475.633 673.266 477.53 681.05C480.153 680.48 482.186 680.081 484.866 679.512ZM588.783 626.86C591.786 634.591 594.086 642.055 597.412 649.292L604.541 646.5C601.708 638.902 599.067 631.836 596.216 624.239C593.517 625.17 591.425 625.929 588.783 626.86ZM255.707 590.182C264.611 572.976 269.949 554.151 271.408 534.834C271.807 530.446 269.734 526.818 267.606 523.228C266.255 520.487 263.232 518.993 260.23 519.581C256.511 519.933 252.818 520.51 249.168 521.31C241.666 523.395 234.553 526.687 228.107 531.054L230.901 537.873C232.259 536.957 233.667 536.119 235.121 535.365C237.156 534.416 239.246 532.516 241.584 534.701C243.551 536.554 243.898 539.554 242.401 541.804C241.36 544.566 239.862 547.134 237.972 549.402C235.026 552.289 235.083 555.1 236.243 558.519C237.137 561.14 237.858 563.819 238.847 566.364C239.352 567.274 239.993 568.1 240.747 568.814C243.428 561.026 241.185 552.308 247.989 546.458C246.804 541.254 246.929 535.837 248.351 530.693C248.87 529.077 249.984 527.718 251.468 526.894C253.502 526.02 262.075 531.092 262.873 533.2C266.124 541.349 263.538 546.667 255.004 549.383C254.68 549.478 254.433 549.858 254.585 549.725C252.97 558.272 251.943 566.497 249.796 574.417C247.894 581.521 249.016 587.979 251.696 595.843C253.099 594.013 254.407 592.11 255.612 590.144M232.061 573.449C227.594 577.247 222.709 579.147 220.086 584.522C225.579 585.111 229.59 583.06 234 579.964C233.297 577.684 232.745 575.804 232.099 573.449M248.104 593.468C247.837 591.987 247.533 590.505 247.21 589.024H246.849C246.849 590.543 247.02 592.082 247.115 593.677L248.104 593.43M402.068 598.483C401.802 601.655 399.939 604.675 398.627 608.094C399.521 607.733 400.529 607.619 400.776 607.106C401.586 606.016 402.138 604.757 402.391 603.421C403.399 595.254 402.581 587.162 401.326 577.551L394.674 589.29L400.377 587.789C401.061 591.778 402.277 595.197 401.992 598.464M405.451 578.862L405.851 575.177H404.729V578.976H405.451M123.735 538.177L126.871 547.845C132.973 546.059 133.467 540.798 134.797 535.593C130.559 535.194 126.89 535.498 123.735 538.177ZM330.047 544.578C328.319 546.973 326.804 549.514 325.523 552.175C321.854 560.008 316.945 567.2 310.982 573.468C309.893 574.879 308.931 576.385 308.111 577.969L309.062 579.204L326.949 574.702C325.656 571.492 323.889 569.004 323.813 566.478C323.642 562.261 328.355 563.914 329.743 562.679C331.206 555.081 332.518 548.319 334.019 540.665C332.577 541.803 331.248 543.073 330.047 544.464M311.21 558.899L303.93 554.474C302.656 561.349 301.592 567.181 300.509 573.012C304.804 568.852 309.1 565.091 311.21 558.899ZM311.419 617.781C314.802 620.193 318.3 619.471 322.729 618.408C316.532 611.912 313.891 611.912 311.419 617.781ZM594.048 495.782C593.969 493.525 595.539 491.546 597.755 491.109C600.163 490.473 602.685 491.637 603.761 493.882C605.178 496.536 605.178 499.719 603.761 502.373C603.173 503.645 602.811 505.032 602.07 507.235C603.347 506.939 604.579 506.479 605.738 505.868C609.787 502.43 610.604 493.54 607.011 489.666C605.624 488.091 603.701 487.09 601.613 486.855C596.683 486.741 592.042 489.174 589.335 493.294C590.608 497.187 591.634 500.378 592.775 503.816C594.504 501.233 593.745 498.422 593.972 495.782M573.577 519.296C573.349 521.196 573.14 522.81 572.873 524.767C576.029 522.108 576.029 522.108 573.577 519.296ZM577.512 496.864C577.219 497.723 577.039 498.618 576.979 499.524C576.979 500.169 577.74 500.758 578.614 502.088V496.978L577.512 496.864ZM550.9 648.817C551.946 648.418 553.485 647.013 553.371 646.291C553.029 644.031 551.129 644.79 549.664 645.189C549.104 645.411 548.57 645.691 548.068 646.025C548.068 647.924 548.278 649.824 550.9 648.817ZM289.218 673.509C289.027 675.409 288.894 677.194 288.723 679.056C294.084 679.398 294.807 678.847 295.338 674.554C295.889 669.844 295.167 668.856 289.94 667.963C289.674 670.09 289.427 671.762 289.218 673.509ZM363.805 679.872L362.285 674.782C359.965 679.835 359.965 679.835 363.805 679.872ZM195.319 657.364C195.11 655.465 194.958 653.946 194.654 651.058L191.403 656.909L195.319 657.364Z" fill="#CE0021"/>
</svg>
