<?xml version="1.0" encoding="UTF-8"?><svg id="b" xmlns="http://www.w3.org/2000/svg" viewBox="0 0 87.5382 95.0217"><g id="c"><polygon points="10.9283 69.0681 10.9311 69.0718 10.9305 69.0708 10.9283 69.0681" fill="#b42128" stroke-width="0"/><polygon points="3.8461 54.5556 3.8489 54.5626 3.8473 54.5576 3.8461 54.5556" fill="#b42128" stroke-width="0"/><polygon points="26.3365 84.8838 26.3401 84.8867 26.3386 84.8854 26.3365 84.8838" fill="#b42128" stroke-width="0"/><polygon points="63.7884 82.8481 63.7907 82.8461 63.7875 82.8488 63.7884 82.8481" fill="#b42128" stroke-width="0"/><polygon points="61.1414 84.8867 61.145 84.8838 61.1429 84.8854 61.1414 84.8867" fill="#b42128" stroke-width="0"/><path d="M87.4681,24.8216c-.0606-1.8551-.1589-3.7089-.2879-5.5565-.1301-1.8635-.3057-3.7216-.4897-5.5789-.0713-.7193-.1069-1.4475-.2839-2.1531-.0356.0436-.0713.0871-.107.1307.0078-.036.0082-.0696-.0007-.1014.0095-.057-.0214-.1031-.0986-.1397-.0644-.0558-.1568-.1136-.2823-.1817-.0467-.0254-.092-.0537-.138-.0807-1.7206-.7007-3.444-1.394-5.1696-2.0822-1.5825-.6311-3.17-1.2493-4.7648-1.8469-2.3497-.8806-4.7096-1.7339-7.0921-2.5212-2.3191-.7664-4.6484-1.498-7.0097-2.1219-.3118-.0885-.6245-.1738-.9343-.2697-.2044-.0062-.3917-.0914-.5889-.1317-.6702-.1368-1.3154-.3912-2.0053-.4357-1.2242-.2698-2.4516-.5211-3.6841-.7516-2.449-.458-4.9169-.7637-7.3979-.9003-.0562-.0033-.1124-.0068-.1686-.0099-.2228-.0115-.445-.0307-.668-.0393-.5037-.0194-1.0074-.0316-1.511-.0401-.1544-.0028-.3089-.0041-.4633-.0058-.2206-.0022-.4413-.0041-.6619-.0041s-.4412.0018-.6619.0041c-.1544.0016-.3089.003-.4633.0058-.5036.0086-1.0073.0207-1.511.0401-.223.0086-.4452.0278-.6679.0393-.0563.0031-.1124.0066-.1687.0099-2.4811.1366-4.9489.4423-7.3979.9003-1.2326.2305-2.46.4818-3.6841.7516-.6899.0445-1.3351.2988-2.0053.4357-.1972.0403-.3845.1255-.5889.1317-.3097.0959-.6223.1812-.9341.2697-2.3614.6239-4.6908,1.3555-7.0099,2.122-2.3825.7873-4.7424,1.6406-7.0921,2.5212-1.5947.5977-3.1823,1.2159-4.7648,1.8469-1.7255.6882-3.449,1.3815-5.1695,2.0822-.0459.027-.0912.0553-.138.0807-.1254.0681-.2179.1259-.2823.1817-.0771.0366-.108.0827-.0985.1396-.0125.0449-.0079.0927.0126.1469-.1419.6503-.1786,1.3173-.244,1.977C-.4802,26.5232-.5733,39.9098,3.2066,52.3589c2.4842,8.1815,6.5276,15.9062,12.0585,22.4429,2.5147,2.9719,5.3547,5.6574,8.4038,8.0748,3.0489,2.4172,6.3015,4.5683,9.6573,6.534,3.4298,2.009,7.0005,3.7553,10.5127,5.6111l2.7496-1.5453c.2148-.0979.4301-.1949.6407-.3019,7.8592-3.9951,15.3365-8.9395,21.6957-15.0635h.1912v-.1869c1.8682-1.8126,3.6436-3.7228,5.2962-5.7478,9.3933-11.5099,12.9013-26.866,13.1136-41.4467.0286-1.9669.0066-3.9382-.0577-5.9081Z" fill="#b42128" stroke-width="0"/><polygon points="13.8993 67.2902 13.9019 67.2936 13.9013 67.2927 13.8993 67.2902" fill="#fff" stroke-width="0"/><polygon points="7.3861 54.1068 7.3886 54.1131 7.3871 54.1086 7.3861 54.1068" fill="#fff" stroke-width="0"/><polygon points="62.5131 79.8083 62.5152 79.8065 62.5122 79.8089 62.5131 79.8083" fill="#fff" stroke-width="0"/><polygon points="60.0787 81.6602 60.0821 81.6576 60.0801 81.659 60.0787 81.6602" fill="#fff" stroke-width="0"/><path d="M84.2906,27.0957c-.0558-1.6852-.1461-3.3692-.2648-5.0477-.1197-1.6929-.2812-3.3808-.4503-5.068-.0655-.6534-.0983-1.315-.2611-1.9559-.0327.0396-.0656.0791-.0984.1187.0072-.0327.0075-.0632-.0007-.0922.0087-.0518-.0197-.0937-.0907-.1269-.0592-.0507-.1442-.1032-.2596-.165-.043-.023-.0846-.0488-.1269-.0733-1.5824-.6365-3.1673-1.2663-4.7543-1.8915-1.4554-.5733-2.9154-1.1349-4.382-1.6778-2.161-.8-4.3313-1.5751-6.5224-2.2903-2.1328-.6962-4.275-1.3608-6.4467-1.9276-.2868-.0804-.5744-.1579-.8592-.245-.188-.0056-.3603-.083-.5416-.1196-.6164-.1243-1.2097-.3553-1.8442-.3958-1.1259-.2451-2.2546-.4734-3.3882-.6828-2.2523-.4161-4.5219-.6938-6.8037-.8178-.0517-.003-.1034-.0062-.155-.009-.2049-.0104-.4093-.0278-.6143-.0357-.4633-.0177-.9264-.0287-1.3896-.0364-.142-.0025-.2841-.0038-.4261-.0052-.2029-.002-.4059-.0037-.6088-.0037s-.4058.0017-.6087.0037c-.142.0015-.2841.0027-.4261.0053-.4631.0078-.9264.0188-1.3896.0364-.2051.0078-.4094.0252-.6143.0357-.0517.0029-.1034.006-.1551.009-2.2817.1241-4.5514.4018-6.8036.8178-1.1336.2094-2.2623.4377-3.3882.6828-.6345.0404-1.2279.2715-1.8442.3958-.1814.0366-.3536.114-.5416.1196-.2848.0871-.5723.1646-.8591.245-2.1717.5668-4.314,1.2314-6.4468,1.9276-2.1911.7152-4.3614,1.4904-6.5224,2.2903-1.4666.5429-2.9266,1.1045-4.382,1.6778-1.5869.6251-3.1719,1.255-4.7542,1.8915-.0423.0245-.0839.0502-.1269.0733-.1153.0618-.2004.1144-.2596.1651-.0709.0332-.0993.0751-.0906.1268-.0115.0408-.0072.0842.0116.1334-.1305.5908-.1643,1.1967-.2244,1.7959-1.169,11.6614-1.2547,23.8221,2.2216,35.1312,2.2846,7.4323,6.0032,14.4495,11.0898,20.3876,2.3127,2.6998,4.9246,5.1393,7.7287,7.3354,2.804,2.1959,5.7953,4.15,8.8815,5.9356,3.1542,1.825,6.4382,3.4114,9.6682,5.0973l2.5287-1.4038c.1976-.089.3956-.177.5892-.2743,7.2279-3.6292,14.1045-8.1208,19.9528-13.684h.1759v-.1697c1.7182-1.6466,3.3509-3.3819,4.8708-5.2214,8.6388-10.4558,11.8649-24.4057,12.0601-37.6511.0263-1.7868.0061-3.5775-.0531-5.367ZM14.6958,54.4503s.0005.001.0009.0015c.0004.0012.0008.0024.0012.0036l-.002-.0051ZM19.9123,65.0091c.0005.0006.0011.0014.0016.002.0002.0002.0003.0005.0005.0007l-.0021-.0027ZM28.0697,81.6576c.0007.0005.0013.001.002.0014.0004.0004.0009.0008.0014.0012l-.0033-.0026ZM56.8979,76.5181s.0007-.0006.0011-.001c.0005-.0004.001-.0008.0016-.0011l-.0027.0021ZM58.8476,75.0349s-.0004.0003-.0007.0005l.0024-.0019c-.0005.0005-.0012.0009-.0017.0014ZM76.332,37.1153c-.1563,10.6084-2.7402,21.781-9.6591,30.1552-1.2173,1.4733-2.525,2.8631-3.901,4.1819v.136h-.1409c-4.684,4.4556-10.1916,8.053-15.9804,10.9597-.1551.0779-.3137.1484-.4719.2197l-2.0253,1.1243c-2.587-1.3503-5.2171-2.6208-7.7434-4.0825-2.4718-1.4301-4.8675-2.9952-7.1133-4.7539-2.2458-1.7588-4.3378-3.7127-6.19-5.875-4.0739-4.7559-7.0522-10.3761-8.882-16.3287-2.7842-9.0576-2.7156-18.7972-1.7793-28.1369.0481-.48.0752-.9652.1797-1.4384-.0151-.0394-.0185-.0742-.0093-.1069-.007-.0415.0158-.075.0726-.1016.0474-.0406.1156-.0827.2079-.1322.0345-.0184.0678-.0391.1016-.0587,1.2673-.5098,2.5367-1.0142,3.8077-1.5149,1.1656-.4591,2.335-.9089,3.5096-1.3438,1.7308-.6407,3.469-1.2615,5.2239-1.8344,1.7082-.5576,3.424-1.0899,5.1633-1.5439.2296-.0644.4599-.1264.688-.1962.1505-.0045.2885-.0665.4338-.0958.4936-.0996.9689-.2846,1.4771-.317.9017-.1963,1.8057-.3791,2.7136-.5469,1.8038-.3332,3.6216-.5557,5.4491-.655.0414-.0024.0828-.0049.1242-.0072.1641-.0084.3277-.0223.492-.0286.371-.0141.742-.0229,1.1129-.0291.1138-.0021.2275-.003.3413-.0042.1626-.0016.3251-.003.4876-.003s.325.0013.4875.003c.1138.0012.2275.0022.3413.0042.371.0062.7419.015,1.1129.0292.1642.0063.3279.0202.492.0286.0414.0023.0828.0048.1242.0072,1.8275.0994,3.6453.3218,5.4491.655.9079.1677,1.8119.3506,2.7136.5469.5081.0324.9834.2174,1.477.317.1453.0293.2832.0913.4338.0958.2281.0698.4585.1318.6881.1962,1.7393.4539,3.455.9862,5.1632,1.5438,1.7549.5728,3.4931,1.1937,5.2238,1.8344,1.1747.4348,2.344.8846,3.5096,1.3438,1.271.5007,2.5404,1.0051,3.8078,1.5149.0338.0196.0672.0403.1016.0587.0924.0495.1605.0916.2079.1322.0568.0266.0796.0602.0726.1016.0065.0232.0063.0476.0005.0738.0262-.0317.0526-.0634.0788-.0951.1303.5133.1566,1.0432.2091,1.5665.1355,1.3513.2648,2.7032.3607,4.059.095,1.3443.1674,2.693.2121,4.0427.0474,1.4332.0636,2.8675.0425,4.2985Z" fill="#fff" stroke-width="0"/><polygon points="31.2616 76.516 31.2642 76.5181 31.2632 76.5172 31.2616 76.516" fill="#fff" stroke-width="0"/><path d="M54.0778,44.8636c.8988.9081,1.9988,1.5619,2.9848,2.36.3911.3166.7326.6775,1.0621,1.0629-.1201-.4633-.3379-.8858-.5283-1.3186-.5064-1.1512-1.0677-2.2787-1.4562-3.48-.454-1.4035-.2688-2.7603.277-4.0916.0728-.1775.1175-.3405.1089-.5362-.0351-.8014-.0071-1.5993.2297-2.3755.3189-1.0453.9344-1.866,1.8495-2.4661,1.0171-.667,2.086-1.2174,3.3153-1.5249-.1219.3172-.3264.5308-.5123.7562-.6536.7925-1.1012,1.7082-1.5518,2.6197-.6297,1.2736-1.4938,2.3157-2.7746,2.9877-.3069.161-.3209.5458-.422.8398-.5177,1.5058-.4061,2.9756.2599,4.4241.445.9679.9006,1.9296,1.3919,2.8823-.0778-.4961-.0974-.9914-.108-1.4899-.0317-1.4922.4651-2.7559,1.5282-3.8099.9413-.9333,1.9157-1.8167,3.1257-2.3965.027-.0129.0564-.0209.0992-.0364.0357.1637-.0431.295-.1116.4107-.7223,1.2184-1.0782,2.569-1.4353,3.9206-.4115,1.5579-1.1931,2.8866-2.4762,3.8864-.2298.1791-.2959.3076-.1638.5974.6404,1.4053,1.149,2.857,1.421,4.3836.003.017.0264.0304.0552.0616.2048-.6464.4316-1.2697.8043-1.8277.528-.7906,1.2777-1.3271,2.0678-1.8201,1.0023-.6254,2.0347-1.1853,3.1856-1.4926.0683-.0182.1408-.0211.2584-.0378-.1775.3864-.4679.6391-.698.9338-.774.9911-1.297,2.1227-1.812,3.2558-.7739,1.7026-1.914,3.0511-3.6371,3.8489-.1606.0744-.2006.1886-.2315.3305-.4072,1.8666-1.1553,3.5914-2.1678,5.2058-.12.1913-.2529.3745-.3617.5802.3931-.2388.7319-.5464,1.1169-.7921,1.0812-.69,2.2749-1.0723,3.5188-1.3107,1.7653-.3383,3.5035-.7464,5.061-1.7003.1301-.0797.2636-.1633.4278-.1786.0722.1468-.0411.2417-.0956.3424-.6823,1.2617-1.5681,2.3747-2.5469,3.4136-.6068.6441-1.2003,1.308-1.9355,1.8158-.8501.5872-1.7865.9208-2.8233,1.0126-1.4016.1242-2.7076-.1841-3.9636-.7726-.1619-.0758-.2849-.0985-.433.0494-2.4941,2.4925-5.5638,3.931-8.9124,4.8603-.2657.0737-.5502.098-.8265.2717,1.2802.2049,2.5478.2016,3.8059.3328-.0103.0461-.0116.0566-.0151.0664-.2802.8077-.9548.4974-1.4915.4943-.5138-.003-1.0279-.1009-1.5404-.1679-.798-.1044-1.5973-.2034-2.3912-.3339-.3847-.0632-.7378.0644-1.1021.1099-.7677.096-1.5317.2168-2.3023.2987-.5472.0581-1.1032.0244-1.6439.1635-.2467.0635-.4722.0193-.5968-.2581-.0622-.1385-.1665-.258-.235-.3608,1.282-.1308,2.5655-.1476,3.8459-.3815-.3736-.1014-.7493-.1959-1.1205-.3054-2.4035-.7094-4.6867-1.6749-6.7194-3.1705-.6641-.4886-1.3075-1.0025-1.8838-1.594-.1272-.1305-.2284-.1575-.4019-.073-.8937.435-1.8315.6888-2.8304.7774-1.79.1589-3.3314-.3624-4.6484-1.5635-1.3812-1.2597-2.6226-2.6409-3.5905-4.2505-.1676-.2788-.3303-.5631-.4423-.9301.4483.2559.8434.4924,1.2484.7106,1.164.6271,2.433.9358,3.716,1.1886,1.3811.2722,2.7472.581,3.9663,1.3296.4756.292.9234.6241,1.371.9701-.2486-.3994-.5051-.7942-.7444-1.1991-.8449-1.4299-1.4884-2.942-1.8164-4.5763-.0542-.2702-.224-.3713-.4447-.4882-1.4507-.7684-2.5265-1.9025-3.2597-3.3724-.4989-1.0002-.9264-2.0367-1.5374-2.9808-.3632-.5612-.7911-1.0639-1.2598-1.5407.2057-.0528.3946-.032.7628.0951,1.4762.5093,2.8126,1.2822,4.0163,2.2614.8444.687,1.3161,1.6419,1.6001,2.6863.0131.0482.0285.0957.0716.1464.0731-.3885.1333-.7759.2357-1.1555.3255-1.2067.679-2.402,1.3312-3.4827.1008-.1671-.007-.2306-.1123-.3172-.5566-.4576-1.0892-.9405-1.5133-1.5286-.6771-.9389-1.0457-2.0136-1.3189-3.1203-.3364-1.3627-.8039-2.6641-1.6628-3.8705.5181.1955.9348.437,1.3307.7168,1.0755.7603,2.083,1.5991,2.875,2.6608.5422.7269.7912,1.5748.826,2.4741.0261.6743.0483,1.3534-.1484,2.0828.1635-.1535.1692-.3953.4084-.3403.0669.0154.0708-.0404.0684-.1012-.0206-.5235.2608-.9517.464-1.3998.3723-.8208.7641-1.6323.9714-2.5162.3014-1.285.0239-2.496-.4696-3.6793-.0328-.0786-.0822-.1411-.1625-.1809-1.3311-.6591-2.1942-1.7518-2.8221-3.0587-.5651-1.176-1.1734-2.3218-2.1561-3.2175-.0122-.0112-.0123-.0357-.0282-.0864.3637.0178.6972.1218,1.0127.2533,1.1819.4926,2.344,1.0292,3.2633,1.9563.7271.7332,1.0911,1.6459,1.2362,2.6559.0786.5471.1143,1.0931.0099,1.6419-.012.0629.0247.1414.0549.2051.8215,1.7324.8183,3.4683.0425,5.2158-.5538,1.2476-1.0919,2.5022-1.6384,3.753-.017.0389-.0413.0719-.0011.1389.9306-1.2336,2.3097-1.9216,3.445-2.9026.4347-.3757.8067-.8138,1.1793-1.2503.0833-.0976.1931-.2695.3098-.2084.1122.0587.0192.237.0012.3672-.1825,1.3234-.6602,2.5518-1.2029,3.7584-.721,1.6033-1.9776,2.5074-3.6932,2.8132-.257.0458-.5113.0802-.7713.0808-.1856.0004-.2964.07-.3452.2734-.2433,1.0128-.4163,2.0364-.3877,3.0788.0316,1.1547.2894,2.2681.7328,3.3369.0198.0477.0295.0965.1317.1308-.1929-1.6226.0027-3.1661,1.0707-4.446,1.1138-1.3349,2.4524-2.4197,4.0145-3.2081.086-.0434.198-.131.2865-.0319.0882.0988-.0371.1652-.0857.2344-.8765,1.2502-1.3054,2.6849-1.7114,4.1301-.329,1.1709-.7622,2.2935-1.5596,3.2396-.4048.4804-.8551.9169-1.3559,1.2929-.1545.116-.1343.1869-.0703.3192.5038,1.0401,1.1263,2.0042,1.8653,2.8914.7554.9068,1.6114,1.7099,2.5501,2.4253.09.0686.1669.1586.2847.0873-1.2601-1.2739-1.7696-2.8264-1.638-4.5819.0736-.9823.4389-1.9083.7689-2.831.3168-.8859.6879-1.7498,1.2293-2.5286.0453-.0652.0952-.1273.1751-.2337.0539.3492-.039.6383-.0471.9303-.0352,1.2767.2255,2.5098.5286,3.7396.2252.9136.4147,1.8359.402,2.7849-.0134,1.0015-.2304,1.9657-.596,2.8916-.1158.2931-.1002.4316.1873.6045,1.938,1.166,4.036,1.9126,6.2248,2.43.4016.0949.8092.1648,1.2108.2597.7819.1849,1.512-.0889,2.2521-.251,1.6087-.3524,3.1657-.8638,4.6584-1.5647.6197-.291,1.2195-.6173,1.8026-.9763.1344-.0828.1641-.1627.1054-.2999-.4878-1.1409-.7174-2.3314-.6696-3.5722.0271-.7043.1623-1.3972.3492-2.0701.0631-.2273.0707-.4583.1396-.6791-.0156-.122.0719-.1906.1444-.2607.4791-.4634.9024-.9731,1.2849-1.5183.054-.077.0932-.1988.2337-.1577.1637.2012.2061.4554.2842.69.3531,1.0599.7328,2.1186.7106,3.2576-.0267,1.3699-.5466,2.5675-1.2975,3.6292,1.4418-1.1347,2.7001-2.5005,3.6601-4.132.159-.2702.2802-.561.4541-.8226.1402-.211.1134-.3685-.1003-.5296-.9878-.7447-1.7228-1.6982-2.2334-2.8194-.2109-.463-.4244-.9324-.4712-1.4525.2071-.7428.4461-1.4771.5546-2.2449.0343-.243-.018-.5077.1523-.723.1135-.0679.2017-.0051.282.0628.8499.7178,1.6539,1.4765,2.1455,2.5007.4964,1.0343.62,2.1323.5504,3.1693.0459-.2428.188-.5536.2849-.878.5185-1.7351.4051-3.4647-.0147-5.1957-.0484-.1995-.158-.3099-.3673-.3163-.9636-.0295-1.8496-.3016-2.6483-.8473-.069-.0471-.1575-.0565-.2257-.1075-.09-.136-.1048-.295-.1207-.4487-.1515-1.4682-.6265-2.8241-1.386-4.0872-.1247-.2075-.3137-.3974-.2949-.672Z" fill="#fff" stroke-width="0"/><path d="M55.8994,51.6613c-.0927,1.0492-.3207,2.0679-.6871,3.0555.014.2428-.1223.4345-.2181.6398-.2018.4327-.4195.8571-.6644,1.2671-.0521.0872-.0877.1917-.2001.2269-.4914.6842-1.0247,1.3328-1.6334,1.917-1.0086.8643-2.1144,1.565-3.3961,1.9462-1.7241.5129-3.4374.5101-5.1361-.1406-.4239-.1624-.8588-.2969-1.2433-.5417-.0868-.0552-.2953-.0511-.2173-.2675.017-.0472-.077-.0463-.0814-.0207-.0476.2763-.1831.0924-.2666.0441-.8035-.4656-1.5496-1.0105-2.226-1.6479-.0597-.0563-.2174-.0922-.1454-.1944.0903-.1283.2062-.0083.2957.0495.6113.3949,1.2517.7359,1.9261,1.0069.8861.356,1.8022.5859,2.7609.6541,2.6883.1911,4.9178-.7534,6.7192-2.7228,1.0948-1.1969,1.7276-2.6341,1.9563-4.232.2927-2.0458-.2454-3.9157-1.2919-5.6661-.6145-1.0279-1.4542-1.776-2.6143-2.1126-.7193-.2087-1.4541-.2286-2.2068-.1469-.7912.0859-1.566.2299-2.3213.4612-.9086.2782-1.8221.5409-2.7242.8427-.4283.1433-.8749.2636-1.3624.1704-.9518-.1819-1.3251-.8472-1.5146-1.6841-.2716-1.1995.173-2.1783.9734-3.0385.2049-.2203.3691-.4779.632-.6877.1339.3148.1517.6414.2075.9577.0359.2036.0545.4104.0772.6162.0298.271.1657.3766.4496.3792.5877.0053,1.1427-.1461,1.6967-.3017.7847-.2205,1.5566-.496,2.3646-.6184,1.5632-.2368,3.1267-.4109,4.6806.0872,1.4412.462,2.4875,1.4247,3.3716,2.6026.0744.0992.1454.2009.218.3015.5261.8921,1.0572,1.7814,1.3623,2.7822.2395.7856.3915,1.5872.4605,2.4051.1774.3446.0657.7142.0871,1.0717.0108.1809.0449.3767-.0884.5388Z" fill="#fff" stroke-width="0"/><path d="M36.0083,32.386c.3837-.2778.7675-.5556,1.1512-.8334-.3059.021-.5618.152-.8253.2618-.2497.1041-.5022.2008-.7797.182-.3084-.0208-.3788-.1174-.267-.4017.4902-1.246,1.4298-1.9855,2.6901-2.3472.4479-.1285.9048-.238,1.3773-.1808.155.0187.2291-.0887.3191-.1615.8148-.66,1.6285-1.3184,2.5186-1.88,1.2276-.7747,2.5146-1.3985,3.9575-1.6423,1.6274-.275,3.0375.0878,4.064,1.472.4694.633.6743,1.3718.722,2.1453.1474,2.3874-.6814,4.5087-1.8536,6.5188-1.0574,1.8133-2.3684,3.4335-3.8794,4.8913-.3215.3102-.639.6246-.9598.9356-.0499.0483-.0912.1349-.1765.1021-.0729-.028-.0824-.1036-.0893-.182-.0583-.6624-.1171-1.3248-.1868-1.9861-.0598-.5677-.1371-1.133-.1286-1.7066.0028-.1853.0384-.3413.1488-.4913.8641-1.1747,1.6625-2.3918,2.3182-3.6964.4478-.891.8522-1.8068.9678-2.8067.133-1.1502-.3067-2.0095-1.6943-2.0902-.7738-.045-1.5139.1363-2.2563.3151-1.1174.2692-2.1503.7475-3.1752,1.2511-.2214.1088-.3386.2763-.4506.4827-.6048,1.1148-1.5109,1.7955-2.8027,1.9126-.232.021-.4505-.1579-.7093-.0642Z" fill="#fff" stroke-width="0"/><path d="M42.5204,29.6551c.1642.4206.1564.8831.1997,1.3328.1192,1.2408.2335,2.4831.3014,3.7275.0595,1.0901.2393,2.1675.2791,3.2599.031.8494.1531,1.6953.2268,2.5435.0369.4244.0442.8516.0895,1.2749.0165.1535-.0934.1843-.1648.226-.4814.2815-1.0126.3432-1.5597.3277-.1507-.0043-.1259-.1329-.1383-.2022-.1031-.5768-.1958-1.1555-.2839-1.7349-.1348-.887-.2607-1.7753-.3954-2.6623-.1145-.7539-.2386-1.5063-.3539-2.2601-.1607-1.051-.3166-2.1026-.4758-3.1538-.076-.5022-.1521-1.0044-.2343-1.5056-.024-.1464.0135-.2215.165-.2702.6148-.1977,1.1954-.4888,1.8165-.6723.1825-.0539.317-.2228.5281-.2309Z" fill="#fff" stroke-width="0"/><path d="M37.5721,21.9751c.0531-.9718.7152-1.7918,1.7957-2.3209,1.2258-.6001,2.4348-.273,3.2207.5507.6447.6757.671,1.4752.4047,2.2545-.3719,1.0884-1.1704,1.7977-2.3285,2.0107-.8612.1584-1.6858.0756-2.3672-.5658-.479-.4508-.7348-.998-.7255-1.9293Z" fill="#fff" stroke-width="0"/><path d="M43.6089,46.2254c.245-.0365.3651-.0036.3884.3228.0724,1.0139.2064,2.0215.2489,3.0406.0467,1.1202.1938,2.2361.2917,3.3543.0697.7966.1265,1.5943.1962,2.3909.0751.8589.1613,1.7168.2365,2.5756.0291.3319.0327.6652.0631.998.0265.2905-.2691.2493-.4432.2985-.1655.0467-.2788.0214-.3145-.2282-.2274-1.5917-.4911-3.1782-.731-4.7681-.24-1.5908-.462-3.1844-.7003-4.7755-.1301-.8684-.2729-1.735-.4203-2.6006-.0412-.2421-.0094-.3841.274-.4314.3027-.0506.5922-.1759.9106-.1769Z" fill="#fff" stroke-width="0"/><path d="M39.1347,24.9489c.5828.1125,1.128.1371,1.6663-.0028.3628-.0942.7221-.2192,1.0248-.4403.215-.157.2773-.0471.3113.1233.0625.3134.0691.6408.1571.9456.1943.6732-.1061,1.0338-.6835,1.3204-.4218.2094-.7875.5297-1.1877.7859-.0909.0582-.1714.2329-.3336.0903-.0511-.045.1396.0522-.0588.0583-.001.1484-.0986.2192-.2191.1899-.1046-.0254-.2252-.0516-.2482-.2278-.1028-.7875-.2326-1.5714-.3441-2.3578-.0212-.1494-.0026-.3044-.0845-.4852Z" fill="#fff" stroke-width="0"/><path d="M44.6715,61.4479c.0681-.0732-.1484-.2755.0478-.247.1922.0279.5234-.1091.5696.2641.0343.2773.0209.5564.0538.8367.0938.8008.1438,1.6069.2008,2.4117.0063.0897.102.2351-.0937.2734-.1811.0355-.2049-.1071-.2525-.2142-.1403-.3157-.155-.6626-.1992-.9953-.0961-.7238-.195-1.4465-.3253-2.165-.0091-.0504-.0012-.1039-.0012-.1645Z" fill="#fff" stroke-width="0"/><path d="M37.2401,30.1932c-.1573-.0103-.271-.0476-.2556-.2185.0208-.2297.1459-.3644.38-.3616.1456.0017.3229.0279.3028.2262-.0253.2494-.2329.316-.4272.354Z" fill="#96382e" stroke-width="0"/><path d="M37.1595,77.0872h1.0426v-3.1666h-.8496v-.4698c.4441-.0837.7594-.193,1.0362-.3603h.5599v3.9967h.9204v.6114h-2.7095v-.6114Z" fill="#fff" stroke-width="0"/><path d="M40.9569,77.2801l.4054-.4633c.1738.2188.4634.354.7466.354.5986,0,1.1005-.4505,1.1327-1.7957-.2767.341-.6886.547-1.0298.547-.7981,0-1.3387-.4698-1.3387-1.4224,0-.9075.65-1.4995,1.4159-1.4995.9075,0,1.6411.7143,1.6411,2.2397,0,1.815-.8559,2.5488-1.7827,2.5488-.5407,0-.9268-.2252-1.1906-.5086ZM42.3019,73.573c-.4119,0-.7337.3412-.7337.9268,0,.5665.2703.8882.7788.8882.2702,0,.5985-.1544.8753-.5728-.0837-.8431-.4248-1.2422-.9204-1.2422Z" fill="#fff" stroke-width="0"/><path d="M44.767,77.1516l.3538-.4828c.2703.2703.6115.5021,1.1134.5021.5279,0,.9333-.354.9333-.9398s-.3603-.9268-.901-.9268c-.3026,0-.4828.0902-.7531.2703l-.3668-.2317.1416-2.2525h2.4007v.6307h-1.7571l-.1095,1.2099c.206-.1093.3991-.1609.6501-.1609.7915,0,1.4417.4442,1.4417,1.4352,0,1.0042-.7659,1.5834-1.5962,1.5834-.7464,0-1.2164-.3089-1.5509-.6371Z" fill="#fff" stroke-width="0"/><path d="M48.9183,75.5425c0-1.8087.8494-2.5423,1.7892-2.5423.5277,0,.9138.2252,1.1841.5084l-.4054.4507c-.1737-.206-.457-.3477-.7466-.3477-.5986,0-1.1004.457-1.1327,1.8022.2768-.3475.6887-.5535,1.0298-.5535.7917,0,1.3387.4698,1.3387,1.4224,0,.9138-.6499,1.506-1.4159,1.506-.9075,0-1.6411-.7208-1.6411-2.2462ZM50.5466,77.2157c.4119,0,.7401-.3475.7401-.9331,0-.5665-.2833-.8817-.7852-.8817-.2703,0-.5986.1544-.8754.5663.0837.8496.4249,1.2485.9205,1.2485Z" fill="#fff" stroke-width="0"/><path d="M19.1232,14.8332c.0446.1168.0464.2624.0069.4376l.1733.4541c.0477.1956.094.3513.1384.4675.0522-.073.1259-.1944.2211-.3645.1043-.1461.1825-.256.2344-.3296l.0133.0349c-.052.0736-.0938.2096-.1246.4077-.0113.1113-.0311.1989-.0597.2629.0142-.0317.0592-.0889.1347-.1715-.0152.3797-.0616.6776-.1392.8936.1098.3583.1131.6109.0088.757-.029.0648-.1251.1278-.2877.1898-.1697.465-.3641.8993-.5833,1.3031-.1531.2986-.3069.4904-.4606.576-.1397.0533-.3342.0338-.5824-.0579l-.0483-.0216c-.1611-.0716-.2145-.2114-.16-.4192l-.0133-.0349c.0421-.3093.1195-.5258.2326-.649l.0483.0216c.1374.0814.228.0731.2712-.0235.1728-.3861.3948-.8173.6665-1.2949-.16-.4192-.3173-.8657-.4717-1.3408-.2065.1588-.4331.2991-.6803.4197-.1308.0768-.2681.1023-.4109.0768-.2166-.0774-.4202-.2261-.6109-.4472-.0354-.0928.1309-.2501.5005-.4712.0611-.0496.1029-.0793.1264-.0883.0841-.0584.2033-.1307.3576-.2165.1684-.1174.2877-.1898.3576-.2165l-.04-.1048c-.1421-.3723-.3098-.6021-.5029-.6885-.2197-.1563-.3503-.2528-.3912-.2909l-.0133-.0349c.0864-.1931.1921-.2997.3176-.3213.6911-.0767,1.1528.1204,1.3863.5915.0623.1633.1126.331.1517.5024.1107.0115.1887.075.2331.1912ZM20.1331,14.6479c.0053-.0551.0388-.1079.0997-.1581-.149-.5297-.332-1.1139-.5484-1.7517l-.0533-.1397c-.1212-.247-.1821-.4771-.1834-.6904-.007-.1574.0248-.2496.0947-.2763.2739-.0507.4263.1044.4578.4656.1098.3583.2171.7445.3218,1.1579.0446.1168.0903.2726.1384.4675.089.2331.1392.4008.1517.5024.2528-.1765.4849-.3714.6968-.5861.0751-.0818.0852-.1256.0299-.1315-.0088-.0229-.0297-.0418-.0616-.0565l-.0483-.0216.1048-.04c-.0088-.0229-.0297-.0418-.0616-.0565-.0412-.0374-.0736-.052-.0965-.0432l-.0133-.0349c.2072.0547.3925.0503.5557-.012.3258-.1243.5228-.1325.5907-.0253.08.2096.0211.4059-.176.5874-.3861.3875-.8511.6719-1.3955.8527.2109.6936.4026,1.3008.5751,1.8216.2063.4015.4743.5794.804.5336l.3843-.1466c.512-.1954.9114-.2678,1.1979-.217.1195.0344.1715.1347.1549.3011.0121.1024-.101.2256-.3392.3696-.5825.2223-1.0982.339-1.5472.3503-.485-.0813-.8394-.3463-1.0637-.7947-.0443-.1162-.0996-.2952-.165-.5373-.1136-.4369-.2626-.9666-.4468-1.5904-.0786.0037-.1315-.0299-.1581-.0997Z" fill="#96382e" stroke-width="0"/><path d="M25.0493,11.7512c-.1176-.0099-.2169-.0371-.2987-.0809.0144-.0269.008-.0479-.019-.0628l-.0095-.0314c.029-.0543.1106-.1245.2445-.2111.3409-.0802.6593-.1997.9542-.3575.1399-.0649.3641-.1557.6716-.272.3013-.1367.5249-.2275.6716-.272-.0062-.0206-.0234-.0384-.0504-.0533l-.0723-.0124.0219-.0409-.0285-.0942c-.0823-.2718-.2328-.4661-.4508-.5832-.0274-.0142-.0683-.0361-.1227-.0657-.1636-.0875-.2675-.2044-.312-.3511-.0126-.0416.0259-.0646.1161-.0694l.0628-.019c.23-.0697.4688-.0734.7163-.0113.2892.0495.4821.1967.5793.4415.0698.2305.0672.4483-.0077.6535.23-.0697.5691-.1949,1.017-.3765.1757-.0987.4269-.1748.7534-.2282.1672-.0506.2702-.0133.3082.1123.0107.1114-.0928.2225-.3102.3338-.2431.0282-.4797.0767-.7097.1464-.879.2662-1.7883.6219-2.7274,1.066-.0839.0254-.1927.0815-.3263.1674-.155.093-.271.1624-.3482.2083-.1677.0508-.2754.0722-.3234.0637ZM26.919,15.4348c-.0062-.0206-.0055-.0551.0029-.1037-.0126-.0416-.0329-.0698-.0599-.0847l-.019-.0628c.01-.117.0316-.272.0648-.4652.0328-.1925.0544-.3474.0648-.4652.0701-.2954.1558-.5039.256-.6259l.019.0628c.0254.0839.0194.1773-.0181.2797.0524.0987.0904.2243.1141.3767.0107.1114.0257.1979.0447.2607.0128.0422.0365.0463.0723.0124-.0147.0275-.0186.0517-.0124.0723l.0095.0314.0314-.0095c.0144-.0269.0283-.0198.0409.0219l-.0942.0285.019.0628c-.0084.0486-.0091.0831-.0029.1037l.0314-.0095.019.0628.0095.0314-.0124.0723c.0064.0211-.0021.0692-.0248.1446.0007.2285-.0413.3552-.1247.3805l-.0314.0095-.0942.0285c-.1029-.0374-.2045-.1094-.3053-.216ZM28.6463,16.3854c.069.0016.0973-.0183.0847-.0599l-.0942.0285c-.1114.0107-.1773.0194-.1979.0257-.0486-.0084-.0967-.0168-.1446-.0248l-.0409-.0219-.0314.0095.0095.0314c-.0692-.0021-.1209-.0207-.1541-.0561l.1256-.038c-.019-.0628-.1157-.0795-.2892-.0495l-.4338-.0743-.0095-.0314-.0095-.0314c.1968.1229.5226.1042.977-.056l.157-.0475c.077-.0464.138-.1103.1817-.1921.0264-.2136-.0407-.6614-.2015-1.3442-.1711-.5651-.3055-.9699-.4022-1.2148l-.0761-.2511c-.0062-.0206.0144-.0269.0628-.019.1884-.057.3498.0997.4851.47l.0475.157.5324,1.758.038.1256c.1457.4812.0823.7633-.1894.8456-.2723.0825-.4145.1025-.4271.0608ZM27.5386,13.2936c-.0062-.0206-.0369-.0456-.0913-.0752-.0612-.05-.0976-.0958-.1103-.138-.0464-.077-.1369-.1867-.2711-.3292-.2207-.2759-.3562-.4973-.407-.665-.0195-.2908-.0075-.4775.0362-.5593l.157-.0475c.0628-.019.1362.0733.2207.2759.1066-.1008.3458-.253.7183-.4575.0565-.0396.1053-.0662.1475-.0789.0502-.0607.2393-.1522.5679-.2748.3409-.0802.5538-.0189.6383.1837.0508.1677-.002.4461-.158.8361-.0521.1304-.0824.2194-.0904.2673-.0211.0064-.0281.0203-.0219.0409l.0314-.0095.019.0628c.0064.0211-.0199.0863-.078.195-.0775.0466-.1789.0884-.3044.1265l-.1256.038c-.0358.0339-.1268.0727-.273.117-.1403.0656-.2314.1044-.273.117l.0504.0533.0504.0533-.0314.0095c-.0147.0275-.0155.062-.0029.1037-.0084.0486-.0335.0787-.0752.0913-.105.0318-.2126.0532-.3234.0637ZM27.3029,12.0626c.1453.2533.2912.4719.4384.6555.1672-.0506.325-.1327.4738-.2463.0226-.0754.0499-.1747.0809-.2987.1203-.3561.1729-.635.158-.8361-.0211.0064-.0703.0331-.1475.0789-.701.3269-1.0353.5423-1.0037.6467ZM30.0879,13.7896c-.0274-.0142-.0579-.0392-.0913-.0752-.229-.2273-.4116-.3777-.5479-.451-.0126-.0416-.0329-.0698-.0599-.0847l-.0095-.0314c-.019-.0628-.0079-.1004.0343-.1132.0206-.0062.0347.0013.0409.0219l.0314-.0095c.0206-.0062.0385-.0229.0533-.0504l.0314-.0095c.4775-.0075.8885.2568,1.2337.7916.0698.2305.0207.3707-.1466.4214l-.0723-.0124c-.0484-.0078-.0831-.0091-.1037-.0029-.1762-.1292-.3077-.2607-.3938-.3948Z" fill="#96382e" stroke-width="0"/><path d="M45.0408,13.9029h.0724c0-.0486-.0486-.121-.1448-.2171-.1448-.121-.2171-.2171-.2171-.2895v-.0362l.0724.0724.0724.0362h.0362l-.1809-.1448h-.5428c-.3139.0238-.5428.0362-.6876.0362-.0486.458-.1691.5909-.3619.3981-.0724-.0486-.1329-.1572-.1809-.3257v-.3257c0-.3857.0362-.8199.1086-1.3028,0-.048.0118-.1086.0362-.1809.048-.2409.1323-.4461.2533-.6152.0724-.0724.1204-.1086.1448-.1086h.0362l-.0362.0362h.0724l-.0362.0724-.0724.0724v.579c.3375,0,.5547-.0118.6514-.0362l-.0362-.0362c-.0486-.0961-.0967-.3133-.1448-.6514h-.2895c.0238-.0238.06-.048.1086-.0724.0961-.048.1566-.0842.1809-.1086.0238-.0238.0362-.0724.0362-.1448.0238-.0961.0362-.1566.0362-.1809-.6758,0-1.3634.0486-2.0628.1448-.0967.0244-.2296.0606-.3981.1086-.3381.0724-.5915.1086-.76.1086-.0967,0-.2533-.06-.4705-.1809-.0967-.048-.1691-.0842-.2171-.1086l-.0362-.0362h.1809c.0238,0,.0842-.0118.1809-.0362h.1809c.3619-.0238.8324-.0724,1.4114-.1448.8442-.0724,1.5076-.1204,1.9904-.1448.0238-.048.06-.0842.1086-.1086h.0362c.0238,0,.06.0124.1086.0362.0238.0244.048.0362.0724.0362.0724-.0238.2171-.0362.4343-.0362.0238-.0238.0724-.048.1448-.0724.0238-.0238.048-.0362.0724-.0362.0238,0,.0842.0124.1809.0362-.0486-.0238-.0244-.0118.0724.0362.989-.0724,1.8095-.0362,2.4609.1086.0961.0244.1928.0848.2895.1809-.0486.0967-.1329.1809-.2533.2533-.1448,0-.4105-.06-.7962-.1809-.4343-.0961-1.0015-.1204-1.7009-.0724l-.0362.0362c-.0244.0724-.0362.121-.0362.1448v.0724c.4099.0486.6876.1934.8324.4343.0238.0244.0362.1086.0362.2533s.0118.3743.0362.6876c.0238.531.0238.9409,0,1.2305-.0486.7962-.2296,1.1818-.5428,1.1581-.0967,0-.2053-.0967-.3257-.2895l-.0724-.0724h-.0724c0-.0244-.0124-.0486-.0362-.0724ZM46.5246,9.922c-.2415-.3133-.5191-.579-.8324-.7962-.0244.0486-.0848.1086-.1809.1809l-.0724.0724c-.3619.2895-.6277.4343-.7962.4343h-.1086c-.0724-.0238-.1329-.0724-.1809-.1448h-.4343c-.0967,0-.2533.0124-.4705.0362-.1934.0486-.3501.0724-.4705.0724-.0244.0244-.0486.0724-.0724.1448-.0486.0967-.1086.1448-.1809.1448-.2171-.0961-.3619-.3375-.4343-.7238.0238-.0961.0362-.3857.0362-.8686.0238-.4823.0362-.7838.0362-.9047.0238-.5304.1448-.8442.3619-.9409.0238.0486.0724.1572.1448.3257v.579c.2895-.3375.4343-.6752.4343-1.0133-.2171,0-.4343-.048-.6514-.1448,0-.0238-.0244-.0362-.0724-.0362v-.0362l-.0724-.0724c.1448.0244.3619.0124.6514-.0362.048-.0238.0842-.0362.1086-.0362.1928-.0724.3619-.1566.5067-.2533.0724-.0238.229-.0362.4705-.0362.2409,0,.3619.0486.3619.1448,0,.0244-.0124.0362-.0362.0362l-.0362.0362v.0362c-.0244.0724-.1809.1329-.4705.1809-.2171.0486-.3619.0967-.4343.1448.048.0486.0724.0967.0724.1448-.0244.1691-.0848.3743-.1809.6152.0238,0,.0724-.0238.1448-.0724.2895-.0961.5067-.1448.6514-.1448.1204-.048.2171-.0118.2895.1086,0,.0724-.0967.121-.2895.1448-.1691.0244-.2777.0486-.3257.0724,0,.0244.0118.0486.0362.0724.0238.0486.0362.1086.0362.1809,0,.0967-.0244.2053-.0724.3257.048,0,.1086-.0118.1809-.0362.1204-.048.1928-.0724.2171-.0724h.1086c.1448,0,.2533.0486.3257.1448.0238-.0961.06-.1566.1086-.1809.0961-.0238.1928-.0362.2895-.0362.0238,0,.06-.0238.1086-.0724.0961-.048.1809-.0724.2533-.0724h-.0362c-.0724.0486-.1691.1086-.2895.1809l-.1086.0724c0,.0244.06.0244.1809,0-.0967.0244-.0724.0124.0724-.0362.2895-.0961.4823-.1448.579-.1448.0238,0,.06.0124.1086.0362.0724.0244.1086.0486.1086.0724.0238.0486.0362.0967.0362.1448,0,.1934-.1086.4829-.3257.8686.4343.2415.7238.5191.8686.8324,0,.2171-.0848.3257-.2533.3257ZM42.616,6.303c-.0244,0-.0244.0124,0,.0362.048-.0238.048-.0362,0-.0362ZM43.4122,7.4249c-.0486.0967-.1691.2415-.3619.4343l-.0724.0724c-.0967.0724-.1448.1448-.1448.2171.2409,0,.4942-.06.76-.1809.1204-.2895.1448-.4705.0724-.5428h-.2533ZM42.8694,8.6554c0,.1934.0118.3381.0362.4343.0238,0,.0362-.0118.0362-.0362h.0362c.2895-.2895.4705-.5428.5428-.76-.0967,0-.2533.0362-.4705.1086-.1448,0-.2053.0848-.1809.2533ZM44.4617,9.343c-.0967-.048-.1809-.1323-.2533-.2533v-.0362c-.1448-.1928-.2895-.3495-.4343-.4705-.2895.4586-.5672.7238-.8324.7962,0,.0724.048.1086.1448.1086.1204,0,.2895-.0238.5067-.0724.1204-.0238.2047-.0362.2533-.0362.4343-.0961.6876-.06.76.1086.2409-.1204.4705-.3133.6876-.579-.0486-.048-.1086-.0842-.1809-.1086-.3619-.2171-.5553-.3495-.579-.3981,0-.048.0238-.0724.0724-.0724.1448.0244.4343.1086.8686.2533l.0362.0362c.1448-.2652.2409-.4823.2895-.6514,0-.0238-.0124-.0362-.0362-.0362-.0724,0-.1691.0244-.2895.0724-.1691.0486-.3019.0724-.3981.0724-.0724,0-.1572-.0362-.2533-.1086,0,.0486-.0362.0848-.1086.1086-.2895,0-.5553.0362-.7962.1086,0,.0244-.0244.0967-.0724.2171-.0244.0486-.0362.0848-.0362.1086.579.1691.8561.3863.8324.6514-.0244.121-.0848.1809-.1809.1809ZM44.8598,13.2877c-.0244,0-.0124.0238.0362.0724.1685.1685.3257.2533.4705.2533h.1086c.0724-.121.1204-.3019.1448-.5428v-1.7733c-.0486-.3133-.1691-.4705-.3619-.4705-.0967,0-.1572.0362-.1809.1086v.0724c-.0486.1691-.1448.3501-.2895.5428h.0362c.048,0,.0961-.0118.1448-.0362h.0724c.2409-.0238.3619.0486.3619.2171l-.0362.0362c-.0967.0244-.1691.0486-.2171.0724-.0244,0-.0606-.0118-.1086-.0362h-.0362c-.0967,0-.2415.0124-.4343.0362-.4343.0724-.7962.0848-1.0857.0362v1.0857c.048-.0238.1086-.0362.1809-.0362l-.1086.1086c.4343.0244.808.0124,1.1219-.0362.2895-.048.5185-.0238.6876.0724.0238,0,.0362.0124.0362.0362-.0244.0486-.0124.0848.0362.1086-.0486.048-.2415.0724-.579.0724ZM43.557,12.3468c.0238-.0724.1323-.1323.3257-.1809l-.0362.0724h.1086c.2652,0,.5304-.0118.7962-.0362h.1086c.2652.0244.3981.1086.3981.2533,0,.0244-.0486.0486-.1448.0724h-.0724c-.1934-.0238-.2895-.0238-.2895,0-.0724,0-.1934.0124-.3619.0362-.1691.0244-.3019.0362-.3981.0362-.2895-.0238-.4343-.1086-.4343-.2533ZM43.9189,12.1296v-.0362c.048,0,.048.0124,0,.0362ZM44.0275,12.0211v.0362h-.0362l.0362-.0362ZM44.3894,10.6458c.1448,0,.3013-.0238.4705-.0724v-.0724c.0238-.048.0362-.0842.0362-.1086,0-.0238-.0124-.0362-.0362-.0362h-.4705v.2895ZM44.4255,10.9716v.4705h.0362c.0724-.048.1086-.0842.1086-.1086.0238-.0238.048-.0724.0724-.1448l.0362-.0724c0-.0238.0238-.0842.0724-.1809l.0362-.0724c-.0486,0-.0967-.0118-.1448-.0362h-.0724c-.0486,0-.0967.0124-.1448.0362v.1086ZM44.6789,7.3526c0-.0724.048-.1685.1448-.2895.0238-.0238.0362-.048.0362-.0724.0724-.2171.0961-.4461.0724-.6876v-.2171c0-.0238-.0124-.0724-.0362-.1448-.0486-.048-.0724-.0842-.0724-.1086.1685-.0238.3375.0848.5067.3257,0,.0244.0118.0362.0362.0362.0724,0,.1928-.048.3619-.1448.1685-.1204.3013-.1809.3981-.1809.1685.0244.2533.0724.2533.1448,0,.0967-.0606.2533-.1809.4705-.0967.1934-.1448.3381-.1448.4343,0,.0724.0238.121.0724.1448.0724.0486.1809.0724.3257.0724.1204.0244.1928.0486.2171.0724.0238,0,.048.0486.0724.1448-.0967.121-.2415.1691-.4343.1448-.3863-.048-.5915-.229-.6152-.5428,0-.0724.0238-.1685.0724-.2895.048-.1448.0724-.2652.0724-.3619-.0244.0244-.0967.0362-.2171.0362-.121.0244-.2053.0362-.2533.0362,0,.0724-.0124.1691-.0362.2895-.0244.121-.0362.2296-.0362.3257-.0967.3619-.2533.579-.4705.6514-.0486-.0238-.0967-.1204-.1448-.2895ZM44.9322,10.7182v-.0362c-.0244.0244-.0244.0362,0,.0362ZM45.1493,13.9391v.0362c.048,0,.048-.0124,0-.0362ZM47.5379,10.1392v.0362c.048-.0238.048-.0362,0-.0362Z" fill="#96382e" stroke-width="0"/><path d="M51.7437,14.7104l.0327.0027.0354-.03-.0327-.0027c-.0202-.0238-.081-.0839-.1825-.1798l-.1226-.109c.0654.0055.0972.0189.0953.0409l.0027-.0327c.0018-.022-.0174-.0565-.0572-.1035-.0617-.0494-.0908-.0956-.0871-.1389.3178.1361.543.1987.6755.1881.0868.0073.1372-.0657.1499-.2179.089-.2775.1416-.7781.1584-1.5009l.0027-.0327c-.7228-.0162-1.4192.0459-2.0894.1874-.022-.0018-.0663.0058-.1335.0218-.2688.0655-.4798.0916-.632.0788-.198.0056-.3868-.0982-.5665-.3107-.0202-.0233-.0412-.0364-.0626-.0382.0269-.0636.1053-.0786.2343-.0462.372.0095.7016.0041.9888-.0161.0434.0036.1204-.0007.2315-.0136,1.0148-.0684,1.6871-.1001,2.0158-.0948.0215.0018.0345-.0187.0382-.0626l.0219-.2615c.0018-.0215-.0067-.0551-.0245-.1008-.0202-.0233-.0291-.0461-.0272-.0681l.0055-.0654c.0415.0256.0823.062.1226.109.1069.0311.1507.1664.1306.4059l.0327.0027c1.1205-.0158,1.8069.0415,2.0593.1721.1033.0745.1834.1692.2396.2834-.0329.1289-.1257.187-.2779.1743l-.0327-.0027c-.1692-.08-.3505-.1388-.5448-.1772-.4742-.1055-.9636-.1571-1.4682-.1556l-.0354.03-.0027.0327c-.0057.8553-.0706,1.4969-.1939,1.9258-.1019.1668-.2189.2558-.3515.2669-.022-.0018-.0635-.0275-.1253-.0763-.0202-.0238-.0412-.0364-.0626-.0382l-.1307-.0109-.03-.0354ZM51.8243,8.6277l-.1035.0572c-.0928.0581-.1502.0862-.1716.0844l-.1307-.0109c-.0672.0165-.1228.0227-.1662.019-.1747-.0146-.308-.1245-.4003-.3297-.0403-.047-.0572-.1035-.0517-.1689.3483.0291.6672.0229.9561-.0188-.0544-.1362-.1192-.284-.1933-.4441-.0947-.1833-.1455-.3629-.1524-.5394.0233-.0197.0681-.0272.1335-.0218l.0654.0055c.0434.0036.1177.032.2233.0845.1289.0329.2041.05.2261.0518.3141.1801.4566.4445.4275.7928.0233-.0197.2221-.036.5966-.0489.2866-.0197.4519-.0281.4958-.0244.2216-.2885.3788-.5937.4715-.9151.0036-.0434-.0157-.0779-.0572-.1035-.0202-.0233-.0291-.0461-.0272-.0681.0036-.0434.0815-.059.2343-.0462.1704.0585.2796.1993.3268.4223-.0329.1289-.1617.3599-.387.6918.2212-.0252.3865-.0335.4958-.0244.2139.0621.3284.1375.3432.2262-.0329.1289-.2125.1797-.5394.1524l-.5884-.0492c-.3108.3032-.5579.5022-.7411.5964-.0654-.0055-.1066-.0418-.1226-.109.0251-.0416.0605-.0715.1063-.0899.0488-.0617.1108-.144.1853-.2478.0959-.1015.1569-.1731.1826-.2151-.3287-.0053-.6495.0228-.9616.0842-.0109.1307-.0094.2409.0054.3296-.0439-.0037-.0672.0165-.0708.0599-.0037.0439-.0167.0644-.0382.0626l-.0327-.0027c-.022-.0018-.0565.0174-.1035.0572-.0476.0402-.1035.0572-.1689.0517-.0874-.0073-.1473-.0781-.1797-.2125-.0367-.0905-.0657-.1372-.0871-.1389ZM50.9735,12.1115c-.049-.2016-.0689-.3565-.0598-.4658.0055-.0654.0198-.1078.0436-.128l.0708-.0599c.0726-.0814.1181-.2313.1363-.4494l.0082-.0981c-.0184-.0452-.1038-.0745-.256-.0872l-.1634-.0137-.0981-.0082c-.0421-.0251-.0599-.0708-.0544-.1362.0127-.1522.067-.2793.1635-.3813.0708-.0599.1187-.1104.1444-.1525.1777-.2921.2958-.5235.3543-.6945.0055-.0654.0179-.0859.0382-.0626.1723.0366.2675.2091.2859.5176.1595-.0741.3702-.2324.6321-.4738l.3188-.2696c.047-.0397.087-.1244.1199-.2533.0269-.0636.0525-.1051.0763-.1253.0215.0018.0424.0148.0626.0382l.0654.0055c.1033.0745.1479.1991.1334.3732-.0073.0874-.1862.2591-.5368.5147.0886-.0142.2239-.0579.4059-.1306.1595-.0741.284-.1187.3732-.1334.1307.0109.263.132.3976.3624.0178.0457.0025.099-.0463.1607-.0836.2127-.1373.4606-.1609.7436.1453-.1632.3829-.3846.7139-.6645.0488-.0617.087-.1244.1145-.1879.0036-.0434-.0263-.0788-.0899-.1063-.0421-.0251-.0617-.0488-.0599-.0708l.0327.0027c.3739-.0124.553.0791.5366.2753-.0091.1093-.1657.2716-.4687.4875-.3469.2127-.6388.4187-.8746.6181-.0128.1528-.0358.2932-.0682.4222-.0982.3868-.2453.572-.4414.5556-.0439-.0037-.0847-.04-.1226-.109.0091-.1087.007-.2185-.0054-.3296l-.0327-.0027-.3269-.0273-.0027.0327-.0082.0981c-.0439-.0037-.0681.0272-.0736.0926l-.0654-.0055-.0382.0626c-.1235-.0978-.1581-.3424-.1033-.7328-.1929.2035-.3261.357-.4005.4603-.0494.0617-.0993.1347-.1499.2179-.0548.1271-.1737.2381-.3569.3322-.0238.0202-.0574.0281-.1008.0245-.0439-.0037-.0645-.0161-.0626-.0382ZM50.7034,13.7676c.0146-.1741.1088-.3859.2835-.6346l.0382-.0626.1063-.0899.0708-.0599c.0452-.0178.0914-.0469.1389-.0871.0526.1582.0487.3332-.011.5257.0233-.0197.0905-.0361.2016-.049.0452-.0178.0788-.0263.1008-.0245.2248-.0687.245-.0454.0599.0708l-.2479.2097c-.0458.0183-.1054.0792-.1798.1825-.1453.1632-.2834.2396-.4141.2287l-.0654-.0055c-.0617-.0494-.0889-.1175-.0817-.2043ZM51.1728,10.5153c-.0018.022.029.0466.0926.0736l.0626.0382c.1413.1435.2158.3035.2232.4795l.0327.0027c.1344-.0324.2975-.1505.4904-.354.0743-.3666.0608-.5982-.0407-.6946-.2345.1779-.3833.2535-.4468.226-.0439-.0037-.0847-.04-.1226-.109-.0238.0202-.1212.1328-.2916.3377ZM51.7084,14.3454l-.0055.0654c.0452-.0184.047-.0403.0055-.0654ZM52.3852,9.7937c-.1381.0765-.2318.1452-.2806.207.2322.1074.3493.2818.3513.5231.0434.0036.1213-.0115.2343-.0462.069-.0379.1142-.0563.1362-.0544.0434.0036.1271.0548.2506.1526l.0246-.2942c.0342-.1504.0545-.2588.06-.3241s-.0003-.1317-.0163-.1989c.0018-.0215-.0202-.0233-.0654-.0055-.0654-.0055-.1653.0083-.2997.0408-.1564.0311-.2881.031-.395-.0001ZM51.8827,14.6233l-.0027.0327c.0434.0036.0443-.0076.0027-.0327ZM52.3985,10.8152l-.0437.523c.0434.0036.099-.0025.1662-.019.154-.0087.2615.0219.3214.0927.0941-.0796.1678-.3038.2208-.6728.0036-.0434-.0058-.0663-.0272-.0681l-.0327-.0027c-.113.0348-.1801.0508-.2016.049l-.0327-.0027c-.2382-.0415-.3614-.008-.3705.1007ZM52.9053,10.2651l-.0027.0327.0027-.0327ZM52.9734,10.2379l.0027-.0327c.0434.0036.0424.0148-.0027.0327ZM53.0742,10.2134l-.0327-.0027c.0018-.0215.0125-.0206.0327.0027ZM53.3762,11.7199l-.0327-.0027c-.0238.0202-.0458.0183-.0654-.0055.0233-.0197.0569-.0282.1008-.0245.0233-.0197.0461-.0291.0681-.0272.0959-.1015.3169-.2476.662-.4384.0452-.0178.0797-.037.1035-.0572.0215.0018.0443-.0071.0681-.0272.0923-.0581.1514-.1077.1771-.1498.0269-.0636-.1101-.1296-.4113-.199-.0636-.0269-.1066-.0418-.128-.0436.0018-.0215.0134-.0318.0354-.03.0215.0018.0769-.0043.1662-.019-.0018.022.0196.0238.0654.0055l.0327.0027.0654.0055c.2615.0219.4319.0803.5121.1745.0759.138.0896.2379.0408.2997-.3072.2598-.8086.4812-1.5038.6643l-.0327-.0027c.0018-.0215.0143-.0425.0382-.0626.0233-.0197.0363-.0406.0382-.0626ZM53.226,13.1227c.7588.1077,1.1283.4127,1.1084.9156-.0055.0654-.0436.128-.1145.1879.0018-.022-.0402-.0476-.1253-.0763l-.0953-.0409c-.1382-.1869-.2553-.3613-.3513-.5231l-.0599-.0708c-.2451-.218-.3659-.3484-.3622-.3924ZM53.6897,10.7257l.0027-.0327c-.022-.0018-.0229.0094-.0027.0327Z" fill="#96382e" stroke-width="0"/><path d="M57.2315,15.8246c-.0682-.0236-.1553-.0669-.261-.1286-.0832-.0545-.1475-.0893-.1928-.1049.0682.0236.1063.0237.1141.0013-.015-.0309-.1055-.1004-.2714-.2086l-.0459.0223-.0682-.0236c-.0458-.0159-.0641-.0353-.0564-.0577.0689-.0525.263-.0617.5823-.0275.0985.0084.1706.0209.2164.0368.0682.0236.1667.032.2964.0263.1212.0169.2047.0327.2505.0486.9993-.2392,1.9372-1.1107,2.8148-2.6147-.0152-.0303-.0301-.0611-.0446-.0918-.0222-.0841-.0519-.145-.0892-.1836l-.1023-.0354c-.1219-.0165-.2164-.0368-.2846-.0604-.0538.0071-.145.0137-.2741.0196-.282.0044-.4794-.0133-.5928-.0526-.0834-.054-.2112-.162-.3842-.324-.0152-.0303-.0262-.0723-.0328-.1259-.0301-.0611-.0524-.107-.0669-.1377-.0073-.0532-.0066-.0911.0013-.1141.0393-.1134.1725-.1312.4-.0524l.0682.0236c.0452.0157.1206.0549.2269.1168.1508.0779.276.1213.3751.1299.1441.0248.3566.0729.6374.1444.2426.0334.4211.0695.5351.1089.4355-.8163.7673-1.5541.9958-2.2136.0393-.1134.0399-.1896.0027-.2282l-.0682-.0236-.0341-.0118.0709-.2046c.0078-.0224.0689-.0525.1836-.0892l.0459-.0223c.0224.0078.0641.0353.1246.0813.1588.055.238.1206.2373.1968l-.0945.2728c-.2584.5979-.6135,1.3663-1.0653,2.3041.501.0971.9862.2019,1.457.3137.3862.1338.5481.2919.4852.4735-.0545.0832-.2033.1081-.4459.0747-.5232-.1812-1.0846-.3243-1.6839-.4304-.0388.0379-.0736.1022-.1049.1928-.0236.0682-.0211.1712.0078.3082.371,1.4268.8992,2.4756,1.5838,3.1452.5048.3789.9835.7988,1.4346,1.2606.0602.0466.0864.0812.0787.1036-.0157.0452-.0577.0564-.1259.0328-.0078.0224-.0235.03-.0459.0223-.023-.008-.0609-.0086-.1141-.0013l-.0341-.0118c-.015-.0309-.034-.05-.0564-.0577-.023-.008-.0497-.0047-.08.0105-.0307.0144-.0576.0182-.08.0105-.0682-.0236-.1401-.0742-.2151-.1509-.0602-.0466-.1022-.0736-.1246-.0813-.0602-.0466-.1704-.0972-.3292-.1522-.3788-.1569-.6204-.3037-.7252-.4421-.6157-.7221-1.1079-1.873-1.4775-3.452-1.0468,1.6995-2.1026,2.5427-3.1676,2.5307-.1218-.0171-.2505-.0486-.3869-.0958Z" fill="#96382e" stroke-width="0"/><path d="M66.4121,14.8106c.0185-.1036.2407-.2717.6659-.5039.0264-.0115.0706-.0388.1321-.0812.1643-.1352.2657-.1952.3045-.1799l.0288.0114c.0121.1382.0068.2361-.016.2938.0652.0038.1494.0148.2536.0335.1229.0266.2034.047.2422.0623-.0315-.1458.0174-.3818.1467-.709.1139-.2885.1568-.5383.1292-.7493.0075-.0189-.0005-.0555-.0235-.1093-.0121-.1382-.0068-.2361.016-.2938l.0228-.0577.0865.0342c.2537.145.4061.2938.4569.4473.0242.2763-.0724.6608-.2888,1.1531l-.1481.375c.0189.0075.0515.0095.0979.0053l.0865.0342c.0185-.1036.0356-.1746.0509-.2133.0685-.0615.2357-.4847.5014-1.2692.0945-.2961.1763-.5306.2446-.7037.0075-.0189-.0043-.0459-.0349-.0805l-.0288-.0114c-.0194-.0077-.0328-.0015-.0402.0175-.0654-.0034-.1004-.0282-.104-.0744.0075-.0189.0417-.0502.1033-.0926.195-.1006.3469-.063.4555.1132.0385.1267.018.263-.0616.4092.1154.0456.2194.12.312.2233.1838-.1275.3174-.2415.4017-.3415.0228-.0577-.0046-.1018-.0812-.1321.0075-.0189.0534-.0232.1382-.0121l.0288.0114c.1806.0494.2557.1125.2254.1891-.0381.0964-.0955.1848-.1716.2657-.1227.0849-.2354.1738-.3387.2664.0113.0269.0325.0576.0637.0919.0424.0615.075.1188.0987.1724.0113.0269.023.0539.0349.0805.0613.069.0849.1227.0698.161.2497.0986.4189.1769.5078.2339.1184-.1309.208-.2732.2689-.4274.0075-.0189-.062-.0687-.208-.1488-.2118-.0837-.3098-.1443-.2945-.183l.0114-.0288c.2416.0068.4588.0479.6513.1239.1843.0953.2484.243.192.4426-.0077.0194-.0499.0694-.1261.1503-.0499.0694-.092.1195-.1261.1503-.092.1195-.2295.2986-.4124.5374-.1836.2391-.3342.424-.4526.5549.6923.2735,1.0755.5697,1.15.8878-.0077.0194-.0059.0425.0061.0691.0272.0999.0257.1883-.0046.265-.0305.0771-.0858.1328-.1663.1677-.0347.0311-.1288.0158-.2824-.0449l-.0463-.0516-.0865-.0342c-.0577-.0228-.158-.051-.2999-.0851-.1231-.0262-.2232-.0548-.2999-.0851-.0194-.0077-.054-.0322-.104-.0744-.0313-.0342-.0657-.0593-.104-.0744-.0464.0041-.0559.0004-.0288-.0114.0341-.0308.1898-.0584.4662-.0826.2838-.0432.4197-.0785.4085-.1054-.0395-.2376-.3013-.4191-.7856-.5438l-.0402.0175c-.1497.0967-.2704.1491-.3622.1571l-.1154-.0456c-.0194-.0077-.0214-.0303-.0061-.0691l.0228-.0577c.0568-.0885.057-.1442-.0007-.167-.3538-.1173-.6768-.2007-.9687-.2492-.0422.05-.0864.0774-.1321.0812-.0388-.0153-.0657-.0593-.0812-.1321-.0848-.011-.2172-.041-.3978-.0904-.35-.0716-.615-.1315-.7956-.1809-.4435.4475-.7693.6523-.9765.6147-.089-.057-.1026-.1625-.0417-.3166ZM69.9638,17.0472c-.2351-.1371-.3621-.2097-.3811-.2172l-.5769-.2279c-.1807.9071-.4982,1.6264-.9525,2.1581-.1302.1039-.3294.1586-.5983.1638-.1578-.1071-.3237-.2504-.4972-.4298-.0811-.0768-.1274-.1285-.1389-.1549-.0311-.0347-.0637-.0919-.0987-.1724-.016-.073-.0334-.1132-.0524-.1207-.0118-.0271-.0135-.0501-.0061-.0691-.0118-.0271-.0135-.0501-.0061-.0691-.0194-.0077-.0463-.0516-.0812-.1321l.0114-.0288.0288.0114c.4585.3588.8164.5778,1.0741.6577.1343.0531.2858-.0205.454-.2208.336-.4008.5525-.9489.6495-1.6442-.6651-.1736-1.1357-.2485-1.412-.2243-.1382.0121-.3326-.0313-.5823-.13-.1079-.0645-.1791-.1375-.214-.2179.0075-.0189.0303-.0214.0691-.0061.0458-.0038.0785-.0023.0979.0053.2299-.0201.6103.0301,1.141.1506.0383.0151.0997.0285.1845.0395.2265.0452.4724.098.7379.1581-.0043-.0459-.0085-.0919-.0121-.1382-.0119-.0266-.0137-.0497-.0061-.0691l-.0288-.0114c-.0388-.0153-.0616-.0129-.0691.0061l-.0288-.0114c.0075-.0189.0015-.0328-.0175-.0402.0652.0038.0955-.0175.0919-.0637.0068-.1307-.0455-.2514-.1571-.3622-.0119-.0266-.0274-.0442-.0463-.0516-.0194-.0077-.0175-.0402.0053-.0979-.0464.0041-.1155.0102-.2073.0182-.1458.0315-.2381.0393-.2763.0242-.1348-.0533-.1583-.1626-.0705-.328.1335-.1692.2827-.266.448-.2899-.0077.0194.0036.0462.0349.0805.0113.0269.0135.0501.0061.0691-.0077.0194-.0252.0348-.0516.0463l-.0114.0288c-.0228.0577-.0053.0979.0524.1207.096.0379.2323.0584.4092.0616.1111-.0004.1897-.0027.2361-.0068.0383.0151.1034.019.1959.0107.2918.0486.5147.1033.6688.1641l.1442.057c.069.0497.0849.1227.047.2187l-.0228.0577c.0306.0345.0155.0728-.0456.1154-.3683.1437-.7096.2199-1.0242.229-.0077.0194-.0096.052-.0053.0979l-.0342.0865c.2959.095.5689.1914.8191.2902.2269.1563.3445.2809.3529.3728-.0228.0577-.1057.0697-.2475.0356ZM69.6232,12.8443l-.1709.4327c.0264-.0115.0571-.0327.0919-.0637.0341-.0308.1088-.079.224-.145-.0119-.0266-.0294-.0669-.0524-.1207-.0502-.0417-.0813-.0764-.0926-.1033ZM69.0937,14.2692c.0918-.008.2224-.0564.391-.1457-.0395-.2376-.0979-.3721-.1745-.4024l-.2165.5481ZM68.9972,14.5979l-.0228.0577c.2265.0452.4398.0961.64.1527-.0043-.0459-.0121-.1382-.0242-.2763.0034-.0654-.0008-.1113-.0121-.1382-.2032.1198-.3969.1881-.5808.2041ZM70.1043,13.5679c.0151-.0383-.0392-.1264-.1624-.2642-.1686.0892-.341.1879-.5171.296.1383.0994.2466.2199.3241.3614.1912-.1464.3098-.2778.3554-.3932ZM68.9029,15.4276c-.0194-.0077-.0328-.0015-.0402.0175-.0194-.0077-.0427-.0054-.0691.0061-.0464.0041-.0829.012-.1093.0235.2158.2411.3164.3809.3013.4191.3643-.0781.6286-.1852.7934-.3202-.2043-.1026-.4963-.1512-.8761-.146ZM68.8915,15.4565l.0114-.0288c-.0077.0194-.0213.0249-.0402.0175l.0288.0114ZM70.4391,13.7335c-.0727.1271-.2583.2872-.5566.4804.0853.2338.0864.4567.0029.6681l.2019.0798c.1567-.1157.2676-.2278.3326-.3355-.0119-.0266-.0463-.0516-.104-.0744-.189-.1414-.2603-.2696-.2148-.385.0228-.0577.0591-.0652.1093-.0235-.0228.0577.0618.1244.2543.2005l.0577.0228.0577.0228c.1108-.1115.1946-.2118.2521-.3006l-.2596-.1026-.0402.0175.0516-.0463.0114-.0288c-.0236-.0536-.0757-.1185-.1563-.1951ZM69.2451,15.9963l-.0402.0175.0288.0114.0114-.0288ZM69.2968,15.95l-.0288-.0114c.0113.0269.0212.0308.0288.0114ZM70.4519,14.0387l.0402-.0175c-.0077.0194-.0213.0249-.0402.0175Z" fill="#96382e" stroke-width="0"/><path d="M35.1351,11.0687c.0028.1861-.1066.3179-.328.3956-.1796.0489-.3177-.0248-.4152-.2205-.257-.3357-.5142-.7531-.7708-1.2524-.1564-.2801-.1642-.5004-.0236-.66.1272-.0878.2427-.0922.3471-.0142.0519.0395.1023.0673.1514.0833.4598-.2047.9666-.4042,1.5211-.5994l-.1744-1.2321c-.0419-.2963-.0812-.4887-.1166-.577-.0064-.0454-.0246-.0893-.0536-.1321-.0129-.0909.0491-.1466.186-.166.2605.0329.4149.3024.4634.8072l.0775.5476c.0157.2771.0336.484.053.6209.4663-.1588.893-.2661,1.2812-.321.2931-.0644.5472.0043.7624.2063.2377.1993.3106.387.2193.5625-.1569.3713-.3956.7428-.7151,1.1137.0487.0166.0766.0476.083.093.006.2086-.1179.3195-.3719.332-.2802-.0066-.6129.0289-.9974.1063.013.0915.0206.2301.0239.4156l.0388.2738c.0323.2284.0658.5493.1015.9632.1389.9814.2014,1.5888.1884,1.8237.0221.3225-.0221.5033-.1327.5425-.0199.0257-.0524.0423-.0978.0488-.046.0065-.0819-.0004-.1075-.0197-.0065-.046-.0214-.0668-.0439-.0636l-.0194-.1369c-.036-.0882-.0553-.1438-.0585-.1663-.0932-1.3135-.204-2.5077-.3328-3.5837-.2705.0618-.517.1316-.7384.2093ZM35.8251,10.5172c-.0581-.4107-.1083-.8455-.1499-1.3054-.5545.1952-.9704.3818-1.2473.5606.0681.1535.1817.3818.3413.6848.0648.1305.1136.2283.1463.2935.1562-.045.4594-.1229.9096-.2335ZM36.7737,10.3131c.2611-.4559.4966-.9311.7057-1.4266.0357-.0749.0406-.1219.0148-.1417-.0295-.0421-.0882-.0453-.176-.01-.2021.0521-.4711.1251-.8069.219-.1796.0489-.3149.0795-.4059.0924.0226.1599.0464.4124.0724.7578l.0872.6161c.0685-.0097.1578-.0337.269-.073l.2396-.0339Z" fill="#96382e" stroke-width="0"/><path d="M7.3218,25.7594l2.919.3575-.1341,1.0951c-.0273.2231-.0788.3983-.1543.5258-.0756.1276-.1795.222-.3116.2833-.1322.0611-.2653.0837-.3993.0672-.1248-.0153-.2382-.0634-.34-.1446-.1019-.0812-.1783-.1945-.2294-.3395-.0734.1702-.1782.2952-.3147.3748-.1364.0797-.2895.1091-.4595.0883-.1366-.0168-.2603-.0611-.3707-.1334-.1103-.072-.1922-.1546-.2456-.2472-.0533-.0928-.0883-.2052-.1052-.3374-.0168-.132-.0139-.291.0089-.4769l.1363-1.113ZM7.619,26.1879l-.0889.7267c-.0153.1248-.0214.213-.0182.2646.0051.0907.0224.1685.0523.2327.0297.0642.0779.12.1441.1672.0663.0472.1461.0764.2388.0879.1089.0134.2068-.0031.2939-.0487.0872-.046.1531-.1165.1978-.2113.0445-.095.0782-.2354.1011-.4213l.0826-.675-1.0036-.1228ZM8.967,26.353l-.0774.6312c-.0209.1712-.0246.2954-.0112.3725.0171.1016.0566.1817.1182.2398.0615.0581.1435.0932.2457.1058.0969.0118.185-.001.2644-.0384s.1378-.0974.1758-.1805c.0376-.0829.0695-.2293.0952-.439l.0714-.5833-.8821-.1081Z" fill="#952923" stroke-width="0"/><path d="M6.8556,30.1023l2.9345.1918-.1387,2.1218-.3464-.0227.1134-1.7334-.8988-.0588-.1061,1.6233-.3444-.0225.1062-1.6233-.9988-.0653-.1179,1.8016-.3463-.0227.1432-2.1896Z" fill="#952923" stroke-width="0"/><path d="M6.6404,34.5081l2.9401.0569-.0075.389-2.9402-.0569.0076-.389Z" fill="#952923" stroke-width="0"/><path d="M7.456,36.9808l.0565.3498c-.2243.0149-.377.0608-.4581.1376s-.1201.1815-.1168.3139c.0023.0976.0267.1813.0733.251s.1084.1171.186.1419.2006.0353.3691.0311l2.0254-.0489.0094.3892-2.0033.0483c-.246.0061-.4373-.0191-.5738-.0755-.1364-.0562-.2416-.1479-.3155-.2753-.074-.1272-.1131-.2778-.1174-.4516-.0061-.2579.0632-.4572.2082-.598.1453-.1406.3642-.2119.6572-.2136Z" fill="#952923" stroke-width="0"/><path d="M6.7883,41.0221l2.9332-.2121.028.388-2.9333.2121-.0279-.388Z" fill="#952923" stroke-width="0"/><path d="M7.034,43.8347l2.9149-.3899.053.3955-2.0838,1.8373,2.2885-.3063.0495.3699-2.9148.3899-.0529-.3957,2.0856-1.8375-2.2903.3064-.0497-.3697Z" fill="#952923" stroke-width="0"/><path d="M9.1912,49.6377l.3365-.076.2762,1.2147-1.0645.2401c-.1908-.153-.3461-.3202-.4658-.5015-.1198-.1813-.2032-.3764-.2503-.585-.0636-.2818-.061-.5516.0076-.8089.0686-.2575.2039-.4707.4058-.6396.2017-.1689.4435-.2852.7253-.3489.2791-.0629.5529-.0632.8213-.0011.2682.0621.4859.1895.6528.3821.1668.1928.2825.432.3469.7176.0468.2075.0555.4025.0262.5854-.0294.1826-.0933.3353-.1917.4578-.0987.1223-.2388.2298-.4208.3231l-.1712-.3212c.1364-.076.2392-.1555.3083-.2382s.1153-.1891.1387-.3192.0188-.2675-.0138-.4123c-.0393-.1735-.0995-.3175-.1809-.4322-.0813-.1146-.1739-.201-.2775-.2593-.1035-.0583-.2119-.0971-.3245-.1169-.194-.0331-.3947-.0262-.6021.0206-.2556.0577-.4598.1502-.6119.277-.1524.1269-.2513.2839-.2968.4709-.0456.1872-.0469.3754-.0043.5645.0371.1643.1049.3175.2037.4599.0985.1423.1928.2457.2828.3105l.5342-.1206-.1903-.8433Z" fill="#952923" stroke-width="0"/><path d="M13.3853,56.8251l.1462.3605-1.5743.6389c-.2739.1112-.504.1685-.6902.1719s-.3626-.0554-.5294-.176c-.1665-.1206-.303-.3126-.4097-.5752-.1036-.2552-.1443-.4818-.1222-.6799s.1024-.3657.2409-.5025c.1385-.1372.3521-.2642.6408-.3813l1.5745-.6389.1463.3605-1.5726.6381c-.2367.0963-.4022.1889-.4964.2784-.0943.0896-.1502.2002-.1673.3319-.0173.1318.0055.2753.0684.4302.1076.2652.2444.4297.4103.4937.166.0638.4201.0267.762-.112l1.5726-.6383Z" fill="#952923" stroke-width="0"/><path d="M11.8385,60.524l2.6083-1.3585.1845.3544-1.3345,2.4363,2.0479-1.0666.1723.3309-2.6082,1.3584-.1844-.354,1.336-2.4374-2.0495,1.0674-.1724-.3307Z" fill="#952923" stroke-width="0"/><path d="M14.1735,64.7307l2.5011-1.5467.2048.3309-2.5012,1.5469-.2047-.3311Z" fill="#952923" stroke-width="0"/><path d="M16.2061,67.7995l1.7222-2.642.246.342-1.2881,1.8677c-.1031.15-.2034.2856-.3007.4066.1569-.0567.3179-.1076.4834-.1526l2.1982-.6024.232.3225-3.0598.7825-.2331-.3242Z" fill="#952923" stroke-width="0"/><path d="M18.4466,70.7402l2.237-1.9088,1.3802,1.6178-.2639.2251-1.1276-1.3215-.6852.5848,1.0559,1.2372-.2625.2241-1.0558-1.2376-.7615.6496,1.1718,1.3736-.264.2251-1.4244-1.6694Z" fill="#952923" stroke-width="0"/><path d="M21.4604,74.1229l2.072-2.087.9252.9188c.186.1846.3088.3439.3683.4774.0597.1335.0713.2764.035.4291-.0363.1523-.1116.286-.2255.4006-.1469.1481-.3189.2252-.5154.2317-.1967.0061-.4088-.0762-.6364-.2474.0381.1076.0593.1975.0633.2694.0073.154-.0083.3225-.0464.5051l-.2009.9283-.3473-.345.1549-.7084c.0437-.2052.0724-.3668.0862-.4851s.0132-.2113-.0017-.2789-.0385-.1276-.0709-.1805c-.0247-.0376-.0727-.0919-.1439-.1626l-.3203-.3181-.9201.9266-.2762-.274ZM22.8942,73.231l.5936.5894c.1262.1253.238.2105.3349.2549.0971.0447.1927.0566.2867.0359.0941-.0206.1746-.0646.2414-.132.098-.0988.1427-.2153.1343-.35-.0085-.1347-.0903-.2789-.2449-.4325l-.6605-.6559-.6855.6903Z" fill="#952923" stroke-width="0"/><path d="M25.407,76.5849l.3011.2124c-.0818.1236-.1287.2421-.141.355s.0139.2348.0784.3655.1607.2501.2884.358c.1134.0957.2277.1635.3431.2033.1152.0395.2189.048.3109.025.092-.0227.1674-.0692.226-.1385.0597-.0705.0911-.1492.0949-.2365.0034-.0869-.0265-.1882-.0903-.3034-.0405-.0743-.1429-.2235-.3074-.4476-.1644-.2237-.2695-.3926-.3151-.5065-.0598-.1467-.0808-.2841-.063-.4119.0178-.1276.0702-.243.1574-.3462.0958-.1133.2175-.1922.3652-.2363.1476-.0443.3048-.0397.4716.0138.1667.0533.3257.1441.477.2717.1665.1408.2907.2915.3725.4526.0817.1612.1129.3229.0933.4849-.0197.162-.0825.311-.1889.4471l-.303-.2193c.1046-.1549.1434-.3061.1163-.4534-.0271-.1471-.127-.2936-.2996-.4394-.1798-.1519-.3385-.2296-.4766-.2333-.1379-.0036-.2461.0411-.3246.1339-.0682.0808-.0952.1718-.081.273.0131.1005.1174.2801.3128.5388.1953.2589.3208.4467.3762.5636.0797.1706.1119.3286.0959.4736-.0158.1452-.0745.278-.1764.3985-.101.1194-.2304.2033-.3882.251-.1578.048-.3255.047-.5033-.0025-.1779-.0499-.347-.1421-.5074-.2778-.2032-.1718-.3485-.3454-.4358-.5208s-.1198-.3554-.0974-.5403c.0224-.1851.095-.3546.2179-.508Z" fill="#952923" stroke-width="0"/><path d="M28.4461,80.2542l1.7546-2.3598.3122.2321-1.7544,2.36-.3124-.2323Z" fill="#952923" stroke-width="0"/><path d="M31.369,82.3087l1.4217-2.1692-.8103-.5311.1902-.2904,1.9497,1.2777-.1903.2902-.8138-.5334-1.4217,2.1695-.3255-.2134Z" fill="#952923" stroke-width="0"/><path d="M35.0945,84.5814l.6071-1.0878-.1639-2.0324.4135.2304.0742,1.0571c.0126.1968.0188.3901.0185.58.1521-.0913.3298-.1907.5335-.2973l.9188-.4774.3958.2207-1.8507.9084-.607,1.088-.3399-.1897Z" fill="#952923" stroke-width="0"/><path d="M53.3151,82.8345l.3939-.0774c.0629.3238.0342.607-.0856.8492-.12.2422-.3183.4289-.5953.5598-.2868.1355-.547.1872-.7818.1555-.2348-.0319-.4513-.1364-.6496-.3133s-.3575-.3922-.4776-.6461c-.1309-.2768-.1918-.5435-.1836-.7997.0084-.2562.0848-.4837.2294-.6832.1446-.1993.3343-.3542.5689-.4652.2661-.1257.5218-.1637.7671-.1139.2455.0495.4616.1803.649.3918l-.3078.2455c-.1532-.1643-.3089-.2627-.4679-.2957-.1591-.0327-.3275-.0073-.5053.0768-.2042.0967-.3519.2264-.4429.389-.0909.1628-.1253.3399-.1028.5311.0222.1914.0749.3748.1578.5502.1068.2262.2331.4079.3787.5453.1458.1376.3078.2151.4862.2327.1786.018.3487-.0115.5107-.0883.197-.093.3372-.2287.4201-.4067.0827-.1784.0957-.3907.0382-.6373Z" fill="#952923" stroke-width="0"/><path d="M56.1994,82.4631l-1.5183-2.5184.3334-.201.6234,1.0343,1.3093-.789-.6236-1.0343.3334-.2008,1.5183,2.5184-.3334.201-.7155-1.187-1.3093.789.7157,1.187-.3334.2008Z" fill="#952923" stroke-width="0"/><path d="M60.2895,79.8415l-1.7055-2.3957.3171-.2256,1.7051,2.3957-.3168.2256Z" fill="#952923" stroke-width="0"/><path d="M62.6268,78.1051l-1.883-2.259.3068-.2556,2.6649.7844-1.4785-1.7735.2868-.2388,1.8828,2.2592-.3066.2554-2.6661-.7864,1.4795,1.7754-.2866.2388Z" fill="#952923" stroke-width="0"/><path d="M66.2734,74.9052l-2.0872-2.0717,1.498-1.5091.2463.2445-1.2239,1.2328.6394.6345,1.1461-1.1545.2447.2434-1.1461,1.1543.7105.7052,1.2718-1.2812.2463.2445-1.546,1.5572Z" fill="#952923" stroke-width="0"/><path d="M68.6183,71.0598l.2082-.3041c.1246.08.2436.1253.3567.1362.1131.0107.2348-.0172.3645-.0837.1299-.0663.248-.1641.354-.2933.0944-.1146.1605-.23.1985-.3458.0382-.116.0451-.2197.0208-.3114-.0241-.0917-.0715-.1666-.1416-.2239-.0715-.0587-.1505-.0892-.2377-.0915-.0873-.0025-.188.029-.3022.0944-.0739.0413-.2216.1458-.4432.3135-.2218.1675-.389.2749-.5023.3221-.146.0617-.2829.0846-.4109.0686-.128-.0159-.244-.0667-.3485-.1525-.1148-.0942-.1951-.2149-.2413-.362s-.0439-.3041.0073-.4715c.051-.1675.1395-.3278.265-.4807.1385-.1685.2875-.2948.4474-.3788.1601-.0843.3212-.1175.4834-.0999.1624.0172.3122.0781.4497.1825l-.2151.3061c-.1563-.1026-.3078-.1391-.4547-.11-.1467.029-.2919.1311-.4354.3055-.1494.1821-.2251.342-.2266.4799-.0017.1377.0443.2455.1383.3225.0818.0672.1731.0928.2742.0774.1003-.0145.2784-.1213.5344-.3204.2562-.1987.4423-.3267.5582-.3836.1697-.0823.3271-.1165.4725-.1026.1452.0138.2789.0707.4008.1708.1207.0993.2063.2275.2564.3848.0499.157.0516.3248.0042.5034-.047.1784-.1372.3489-.2703.5109-.1689.2058-.3404.3534-.5145.4432-.1742.0896-.354.1246-.5393.1047-.1853-.0199-.3557-.09-.5109-.2105Z" fill="#952923" stroke-width="0"/><path d="M72.2725,67.9109l-2.4395-1.6421,1.1872-1.7641.2879.1939-.97,1.4411.7472.5028.9082-1.3496.2864.1926-.9084,1.3496.8305.559,1.0082-1.4976.2879.1937-1.2256,1.8207Z" fill="#952923" stroke-width="0"/><path d="M77.3632,58.7356l-2.7408-1.0661.2123-.5458,2.1929.106c.204.0103.3563.0195.4568.0269-.0877-.0699-.2153-.1756-.3829-.3166l-1.6518-1.3981.1899-.4879,2.7408,1.0661-.1358.3496-2.2941-.8924,1.9842,1.6887-.1272.3271-2.6414-.1146,2.3331.9075-.1358.3496Z" fill="#952923" stroke-width="0"/><path d="M79.16,53.7341l-2.8296-.8011.5793-2.0459.3338.0946-.473,1.6715.8664.2453.4432-1.5653.332.0938-.443,1.5655.9629.2726.492-1.7372.334.0946-.5978,2.1117Z" fill="#952923" stroke-width="0"/><path d="M80.3105,49.2911l-2.8875-.5584.1926-.9946c.0434-.2247.0904-.3934.1406-.5061.0701-.158.1664-.2858.2887-.3834.1584-.1274.3448-.2096.5594-.2463.2149-.0369.4511-.0304.7084.0193.2193.0424.4087.1056.568.1895.1597.0841.2873.1769.3825.2784.0953.1014.1658.2061.2111.3135.0453.1076.0715.2317.0779.3727.0069.141-.0065.2988-.0403.4734l-.2014,1.042ZM80.0438,48.8429l.119-.6165c.0367-.1903.0478-.3431.0334-.4583-.0145-.115-.0476-.2111-.0993-.2879-.0734-.1081-.1813-.2021-.3246-.2824-.1433-.08-.3238-.1412-.5418-.1832-.3019-.0585-.5437-.0539-.7248.0139-.1813.0678-.3133.1672-.3959.2982-.0592.095-.1108.256-.1547.4832l-.1173.6066,2.206.4264Z" fill="#952923" stroke-width="0"/><path d="M81.1184,44.5034l-2.9175-.3691.0489-.3859,2.9173.3689-.0487.3861Z" fill="#952923" stroke-width="0"/><path d="M80.5405,39.4749l.1236-.3819c.3135.1022.5474.2646.701.487.1538.2226.2207.4864.2006.7921-.0206.3164-.1018.5693-.2436.759s-.3382.3284-.5892.4159c-.2508.0873-.5164.1219-.7967.1037-.3057-.0201-.5684-.0959-.7885-.2273-.2197-.1316-.3817-.3091-.4856-.5325-.1039-.2231-.1477-.4642-.1307-.7231.0193-.2936.11-.5357.2724-.726.1626-.1905.3819-.316.658-.3771l.0651.3882c-.218.0541-.38.1427-.4858.2657s-.1653.2826-.1781.4788c-.0147.2256.0269.4176.1253.5762.098.1584.2363.2743.4144.3477s.3639.1163.5575.129c.2497.0162.4696-.0059.6608-.0665.1909-.0606.3372-.1645.4394-.312.102-.1475.1591-.3105.1708-.4895.0141-.2174-.0365-.4058-.1523-.5647-.1156-.159-.295-.2732-.5386-.3427Z" fill="#952923" stroke-width="0"/><path d="M81.6492,36.8265l-2.9406-.0279.0036-.389,2.9408.0277-.0038.3892Z" fill="#952923" stroke-width="0"/><path d="M81.6392,34.0833l-2.9383.1196-.0162-.3989,2.2442-1.6371-2.3071.0938-.0151-.3729,2.9385-.1194.016.3989-2.2463,1.6371,2.3092-.0938.0151.3727Z" fill="#952923" stroke-width="0"/><path d="M81.3809,29.4465l-2.9272.2828-.2044-2.1164.3454-.0332.1672,1.729.8964-.0865-.1565-1.6193.3433-.0332.1567,1.6193.9963-.0963-.1737-1.797.3454-.0334.2111,2.1845Z" fill="#952923" stroke-width="0"/><path d="M40.7531,86.3645c0-.4881.1309-.8702.3932-1.1465.2619-.2761.6003-.4142,1.0149-.4142.2715,0,.5162.065.7344.1945.2178.1299.384.3106.4984.5428.1142.2319.1714.4952.1714.7892,0,.2984-.06.5651-.1803.8005s-.291.4136-.5116.5346c-.2207.1211-.4587.1815-.7141.1815-.2768,0-.5242-.0667-.7422-.2006-.218-.1335-.3831-.3162-.4954-.5475s-.1685-.4761-.1685-.7342ZM41.1543,86.3704c0,.3546.0951.6337.2858.8376.1905.204.4295.3061.7172.3061.2927,0,.5338-.103.7231-.3091.1891-.2058.2837-.4981.2837-.8765,0-.2394-.0403-.4484-.1213-.6268-.0808-.1786-.1993-.3169-.355-.4153-.1559-.0982-.3307-.1473-.5246-.1473-.2755,0-.5126.0946-.7111.2837-.1987.1893-.2978.5053-.2978.9478Z" fill="#952923" stroke-width="0"/><path d="M45.7303,87.7968v-2.9408h1.9838v.3471h-1.5947v.9105h1.3801v.3471h-1.3801v1.336h-.3892Z" fill="#952923" stroke-width="0"/></g></svg>