<?xml version="1.0" encoding="UTF-8"?><svg width="88" height="88"  xmlns="http://www.w3.org/2000/svg" viewBox="0 0 249.4488 249.4488"><g id="c"><path d="m128.9895,185.65l.1536-2.3101h5.1847v-2.768h-7.9072l-.6628,8.0609s1.469-.3849,3.2541-.2839c1.5621.0884,3.0232.834,3.0676,2.1552.0402,1.1945-1.1694,1.8617-2.2652,2.0601-1.1804.2138-2.7748-.0653-3.545-.3764l-.6619,2.5921c.9286.4854,3.1967.7252,4.6628.4866,3.2501-.529,4.8708-2.3119,4.8708-5.0215,0-2.231-1.6334-4.7515-6.1515-4.595Z" style="fill:#046335; stroke-width:0px;"/><path d="m142.0973,189.6282s4.432-3.1551,4.432-5.6666c0-1.9949-1.6915-3.5395-4.3474-3.5395-1.9073,0-3.7357.824-5.0026,1.8929l1.4041,2.4345c1.0211-.973,2.2941-1.5512,3.3271-1.5512.9543,0,1.5212.4783,1.4965,1.1888-.0574,1.6497-5.7838,5.6831-5.7838,5.6831l-.2382,2.3075h9.4926l.3784-2.7495h-5.1586Z" style="fill:#046335; stroke-width:0px;"/><path d="m117.5036,180.1493c-2.8992.0147-4.8997,2.2969-4.8997,5.0649,0,2.5622,1.6487,4.6328,4.1925,4.6328,1.4213,0,2.6274-.5549,3.2447-1.434.1615,2.0267-.7454,3.7205-2.8503,4.1904-.9292.2075-2.2337.0595-2.9033-.2256l-.6619,2.5921c1.1037.4862,2.9687.6061,4.3476.2576,3.5245-.8907,5.0224-3.6776,5.0224-7.8669,0-4.0211-1.8492-7.2298-5.492-7.2113Zm.0223,7.2476c-1.2607,0-1.8545-1.0417-1.8545-2.1642,0-1.3484.7046-2.4089,1.864-2.4089,1.3091,0,2.0345,1.2293,2.016,2.2651.0185,1.0664-.6047,2.308-2.0255,2.308Z" style="fill:#046335; stroke-width:0px;"/><path d="m124.7244,249.4488C55.951,249.4488,0,193.4978,0,124.7244S55.951,0,124.7244,0s124.7244,55.951,124.7244,124.7244-55.951,124.7244-124.7244,124.7244Zm0-247.4228C57.0682,2.026,2.026,57.0682,2.026,124.7244s55.0422,122.6984,122.6984,122.6984,122.6984-55.0422,122.6984-122.6984S192.3806,2.026,124.7244,2.026Z" style="fill:#046335; stroke-width:0px;"/><path d="m124.7244,215.4875c-50.047,0-90.7631-40.7161-90.7631-90.7631S74.6774,33.9613,124.7244,33.9613s90.7631,40.7161,90.7631,90.7631-40.7161,90.7631-90.7631,90.7631Zm0-179.5002c-48.9298,0-88.7371,39.8073-88.7371,88.7371s39.8073,88.7371,88.7371,88.7371,88.7371-39.8073,88.7371-88.7371-39.8073-88.7371-88.7371-88.7371Z" style="fill:#046335; stroke-width:0px;"/><path d="m124.7239,100.0508s21.248,19.607,49.3102,36.2888l.008-18.3069c-30.6929-19.4185-49.3182-38.1911-49.3182-38.1911,0,0-18.6253,18.7726-49.3184,38.1911l.008,18.3069c28.0624-16.6818,49.3104-36.2888,49.3104-36.2888Z" style="fill:#046335; stroke-width:0px;"/><path d="m124.7239,67.3682s16.7563,16.9022,37.2428,29.9537l.0078-17.6378c-22.6807-16.3071-37.2506-32.526-37.2506-32.526,0,0-14.5699,16.2189-37.2506,32.526l.0076,17.6378c20.4868-13.0515,37.2431-29.9537,37.2431-29.9537Z" style="fill:#046335; stroke-width:0px;"/><path d="m189.9707,151.2369h-13.8312c-24.3031-13.2137-51.4155-38.7117-51.4155-38.7117,0,0-27.1126,25.498-51.4157,38.7117h-13.8312l-8.2068,14.2289s5.4636,2.9099,16.599,1.578c4.0998-.4905,13.5623-2.5303,24.3299-2.8521,7.9691-.2383,17.9346,1.0719,22.9463,6.0793l9.5786-.0042,9.5783.0042c5.0117-5.0074,14.9774-6.3176,22.9465-6.0793,10.7674.3218,20.2299,2.3616,24.3297,2.8521,11.1356,1.3319,16.599-1.578,16.599-1.578l-8.2068-14.2289Zm-65.2468,4.6767c-7.3049-5.8463-21.45-6.211-21.45-6.211l21.45-16.9692,21.45,16.9692s-14.145.3647-21.45,6.211Z" style="fill:#046335; stroke-width:0px;"/><path d="m36.6942,183.6973l-2.2617.1004s.0666.8505,1.0464,2.046c.1151.1404.2893.3331.4999.5695l-2.5482,1.6233c-1.0423-.5513-2.2897-1.8146-2.9653-2.8743-2.0593-3.2302-1.3312-5.8019,1.335-7.5017,2.7026-1.7229,5.6332-.9253,7.429,1.8915.9786,1.535,1.4608,3.5716,1.1785,5.0928l2.5143.2039c.3051-1.9665-.2862-4.4958-1.6698-6.5864-2.9802-4.5032-7.2261-5.2035-10.8761-2.8766-3.651,2.3275-5.0112,6.4022-2.11,10.9531,1.2737,1.998,3.3471,3.7535,5.1534,4.4242l5.5313-3.5262-1.2318-1.9323-1.0247-1.6074Z" style="fill:#046335; stroke-width:0px;"/><path d="m25.7126,131.7149l-.0094-.1075-.0561-.6421s-.6447.2169-.7821.8236l-14.0325,1.226.2311,2.6448,14.88-1.3-.2311-2.6448Z" style="fill:#046335; stroke-width:0px;"/><path d="m28.9243,150.6211l-.0295-.1038-.1762-.62s-.5923.3346-.6127.9563l-13.5495,3.8501.7257,2.5538,14.3679-4.0826-.7257-2.5538Z" style="fill:#046335; stroke-width:0px;"/><path d="m27.3394,143.8355l-.0188-.1062-.1122-.6347s-.6232.2726-.7068.889l-1.5199.2688-.7973.141-6.8705,1.215c-1.3869.2453-2.5575-.4711-2.8065-1.8795-.2083-1.178.245-2.4408,1.1421-3.6191l-2.1-1.1173c-1.1133,1.2755-1.8262,3.074-1.4691,5.0935.5422,3.066,2.6059,4.683,5.632,4.1479l10.0892-1.7842-.4623-2.6143Z" style="fill:#046335; stroke-width:0px;"/><path d="m30.4943,156.2439s-.5477.4034-.4933,1.023l-12.9925,5.453,1.0295,2.4471,9.3768-3.9354,4.3908-1.8633-1.3113-3.1244Z" style="fill:#046335; stroke-width:0px;"/><path d="m35.0829,167.177l-9.9416,4.173-1.0367.4351s1.0704-.7071,1.9843-2.5718v.0011c1.5427-3.2471,3.4583-6.3728,4.6386-8.203-1.5492.2363-3.7803,1.0172-5.2463,3.4363-1.2272,2.1711-2.8249,5.243-4.1377,8.5952l.9899,2.3648,13.777-5.7822-1.0276-2.4484Z" style="fill:#046335; stroke-width:0px;"/><path d="m19.5455,109.4998c.1077,1.6677,1.1696,2.8608,2.7864,3.1562,2.2679.4143,4.0272-1.2613,4.5987-4.3897l1.0687-5.8499.0009.005c.2-1.12.4097-1.9455.4097-1.9455,0,0-2.4198-.012-3.5163,5.5838-.1194.6548-.228,1.255-.2936,1.6291-.2543,1.4511-1.0924,2.3868-2.2782,2.1702-1.2225-.2233-1.7225-1.4036-1.4577-2.8527l.905-4.9415,3.2912.6012c.5759-1.6947,1.5915-2.408,1.5915-2.408l-1.0236-.187-11.9888-2.1901-1.4412,7.8889c-.6137,3.3596.5387,5.719,3.0588,6.1794,1.9534.3568,3.5745-.5624,4.2885-2.4493Zm-4.933-3.6356l.9028-4.9419,3.8985.7122-.9028,4.9419c-.3052,1.7883-1.1044,2.922-2.394,2.6864-1.3742-.251-1.8513-1.6179-1.5045-3.3986Z" style="fill:#046335; stroke-width:0px;"/><path d="m13.2737,118.1337l3.8765.1451-.3238,8.6469,2.3926.0896.3238-8.6469,3.416.1279c.027-.1449.0591-.2814.0931-.4141.0085-.0332.0172-.0656.026-.098.0333-.1215.0683-.239.106-.3498.0019-.0057.0037-.0118.0056-.0175.0417-.1213.0857-.2345.1308-.3429.0077-.0184.0153-.0361.0231-.0541.0444-.1036.0895-.2024.1352-.2938,0-.0001.0001-.0003.0002-.0004h0c.3491-.6974.7114-1.0401.7114-1.0401h0s-.6715-.0251-.6715-.0251l-.3628-.0136-3.5138-.1316-2.3926-.0896-3.8765-.1451-2.3926-.0896-.0993,2.653-.3647,9.741,2.3926.0896.3647-9.741Z" style="fill:#046335; stroke-width:0px;"/><path d="m25.8576,117.3832c.0428-.9029.1094-1.5337.1094-1.5337,0,0-2.382.3336-2.6728,6.0073l-.2297,6.1354,2.3925.0896.4006-10.6987Z" style="fill:#046335; stroke-width:0px;"/><polygon points="130.1709 224.2164 117.1319 224.0758 117.1061 226.4699 122.2982 226.5259 122.1629 239.0722 124.8176 239.1008 124.9529 226.5545 130.1451 226.6106 130.1709 224.2164" style="fill:#046335; stroke-width:0px;"/><path d="m67.7127,205.852c-3.6954-2.533-8.065-1.9122-10.7013,1.9273-2.6363,3.8394-1.6462,8.1404,2.0451,10.6794,3.6954,2.533,8.0461,1.926,10.6824-1.9135,2.6363-3.8394,1.6651-8.1542-2.0262-10.6932Zm-.1864,9.1744c-1.7815,2.5946-4.5627,3.0598-7.0565,1.374-2.4691-1.7218-3.0281-4.5066-1.2466-7.1012,0-.0001-.0408-.029-.0407-.0291s.0406.0292.0407.0291c1.7815-2.5946,4.5824-3.0747,7.0762-1.3889,2.4691,1.7218,3.0084,4.5215,1.2269,7.1161,0,.0001,0-.0001,0,0s0-.0001,0,0Z" style="fill:#046335; stroke-width:0px;"/><path d="m157.1693,218.7926s-1.4864,3.7934-2.2952,7.9906c-2.9584-3.0851-6.2666-5.4632-6.2666-5.4632l-2.702.7976s4.6218,3.3967,8.373,7.3378l1.5665,5.3068,1.2733-.3759h.0001s.0001,0,.0001,0l1.2733-.3759-1.5665-5.3068c1.0096-5.3464,3.0459-10.7085,3.0459-10.7085l-2.702.7976Z" style="fill:#046335; stroke-width:0px;"/><path d="m106.3679,226.6237c.1552-.9121,1.4464-1.3659,2.6105-1.1679,1.137.1934,2.3999.6693,4.1642,2.1149l1.4619-2.1299.483-.7083c-.5646-.202-1.0151.0287-1.1803.1346-1.1765-.8759-2.6654-1.5154-4.2855-1.791-3.3031-.5619-5.7946.7158-6.2347,3.3026-.8981,5.2799,7.4735,4.8931,6.9469,7.9891-.1766,1.0382-1.6003,1.5714-2.9901,1.335-1.5786-.2685-3.4971-1.4005-4.7823-3.0154l-1.5134,2.0988c1.3356,1.6896,3.4835,2.9362,5.8409,3.3373,3.2405.5512,5.9138-.6523,6.3864-3.4306.9261-5.3183-7.4199-5.0582-6.9077-8.0689Z" style="fill:#046335; stroke-width:0px;"/><path d="m80.8039,227.5755l-.0009.0032c0-.0156-.0012-.029-.0014-.0444-.0102-.1917-.0187-.3862-.0256-.5839-.1709-2.2484-1.1653-2.7209-1.1653-2.7209.6446.1609,1.2029.1968,1.2029.1968,1.7878.2139,3.5743-.6743,4.5213-2.496,1.4214-2.7343.1427-5.4353-3.1613-7.1529l-4.5764-2.3799.0015.0002c-1.0115-.5208-1.7388-.9641-1.7388-.9641,0,0-.7179,2.2965,4.2809,4.9853l.57.2965.0014.0007.3572.1858c2.0757,1.0791,2.6938,2.4851,1.9477,3.9203-.7382,1.4201-2.2974,1.6192-4.2892.5838l-3.8926-2.0248,2.1305-4.0989c-1.3334-.9647-1.7634-2.038-1.8242-2.2049l-.0136-.0151-6.0941,11.7229,2.3556,1.2245,2.3415-4.5041,4.0493,2.1038c.17.0884.4576.2096.6186.2695-.2751,3.1095.1084,5.831.1084,5.831l2.6553,1.3804s-.2529-1.5714-.3585-3.5146Z" style="fill:#046335; stroke-width:0px;"/><path d="m145.4696,234.3258l.0011.0031c-.009-.0127-.0177-.0229-.0267-.0355-.1189-.1508-.238-.3047-.3576-.4623-1.4361-1.7384-2.5211-1.551-2.5211-1.551.6194-.2402,1.0963-.5328,1.0963-.5328,1.584-.8562,2.5313-2.6119,2.2546-4.6464-.4154-3.0535-3.0177-4.5229-6.7074-4.0209l-5.1113.6946.0013-.0007c-1.1267.1578-1.9766.215-1.9766.215,0,0,.7378,2.2902,6.3722,1.6044l.6366-.0865.0015-.0002.3989-.0542c2.3181-.3154,3.6339.4769,3.8519,2.0798.2158,1.5859-.9433,2.6476-3.1676,2.9503l-4.3478.5904-.623-4.5773c-1.6457-.0193-2.6159-.6482-2.7618-.7495l-.0198-.0045,1.7811,13.0916,2.6306-.3579-.6843-5.03,4.5214-.6162c.1899-.0258.4947-.0926.6608-.1366,1.5683,2.6991,3.4509,4.7014,3.4509,4.7014l2.9654-.4034s-1.1127-1.138-2.3196-2.6647Z" style="fill:#046335; stroke-width:0px;"/><path d="m51.5454,195.8694c-1.0768-1.4282-1.0962-2.6684-1.0962-2.6684l-.0021-.0003-.4747.4822-2.7214,2.7645-1.6797,1.7062-4.4011,4.4707,1.8919,1.8625,4.4011-4.4707,6.1663,6.0704,1.6797-1.7062-6.1663-6.0704,2.4024-2.4404Z" style="fill:#046335; stroke-width:0px;"/><path d="m52.7783,193.0853c-.6942-.6911-1.1602-1.2165-1.1602-1.2165,0,0-1.3609,1.9846,2.633,6.0262l4.3727,4.3047,1.6797-1.7062-7.5252-7.4081Z" style="fill:#046335; stroke-width:0px;"/><path d="m88.5518,230.5621l1.2715-3.6649,8.175,2.8361.7847-2.262-8.175-2.8361,1.1204-3.2295c-.1307-.0682-.2519-.1387-.3688-.21-.0292-.0178-.0577-.0356-.0861-.0535-.1065-.0674-.2086-.1352-.3036-.2036-.0049-.0035-.0103-.007-.0151-.0105-.1039-.0753-.1992-.1505-.2897-.2253-.0154-.0127-.03-.0252-.045-.0379-.0861-.0728-.1675-.1447-.2415-.2152,0,0-.0002-.0002-.0003-.0003h0c-.565-.5376-.7869-.9843-.7869-.9843h0s-.2203.6349-.2203.6349l-.119.343-1.1525,3.322-.7847,2.262-1.2715,3.6649-.7847,2.262,2.5082.8702,9.2093,3.195.7847-2.262-9.2093-3.195Z" style="fill:#046335; stroke-width:0px;"/><path d="m91.5108,218.3081c-.851-.3047-1.4348-.5528-1.4348-.5528,0,0-.3769,2.3755,4.9642,4.3114l5.8005,2.0124.7847-2.262-10.1147-3.5091Z" style="fill:#046335; stroke-width:0px;"/><polygon points="223.3927 113.3962 224.079 126.7554 226.4701 126.6326 226.195 121.2786 238.7255 120.6349 238.5893 117.9835 226.0588 118.6273 225.7838 113.2733 223.3927 113.3962" style="fill:#046335; stroke-width:0px;"/><path d="m197.4098,192.4927l-.0729.0795-.4358.4749s.5953.3292,1.1356.021l10.3776,9.5246,1.7952-1.9559-11.0044-10.0999-1.7952,1.9559Z" style="fill:#046335; stroke-width:0px;"/><path d="m223.6881,131.9222l-.0056.1077-.0335.6437s.6686-.1254.8887-.7072l14.0669.7315.1379-2.6513-14.9165-.7756-.1379,2.6513Z" style="fill:#046335; stroke-width:0px;"/><path d="m208.1851,178.7857s3.0277,5.8569,7.364,11.2654l-.0005.0007c-6.5192-2.3596-13.0413-3.3355-13.0413-3.3355l-1.5887,2.2201s7.5666,1.3341,15.5479,3.9469l.8185-1.1433-.0002-.0002.4218-.5895.0023.0012.8179-1.1436c-5.0486-6.7111-8.7531-13.4424-8.7531-13.4424l-1.5887,2.2201Z" style="fill:#046335; stroke-width:0px;"/><path d="m220.8758,100.1831s3.6524,1.8054,7.765,2.9702c-3.3268,2.6838-5.9791,5.7764-5.9791,5.7764l.5636,2.7603s3.7795-4.3144,8.027-7.7148l5.4214-1.1069-.2656-1.3007h0s0-.0003,0-.0003l-.2656-1.3007-5.4214,1.1069c-5.2405-1.4632-10.4088-3.9506-10.4088-3.9506l.5636,2.7603Z" style="fill:#046335; stroke-width:0px;"/><path d="m225.787,144.0277c-.9075-.18-1.3259-1.4832-1.0961-2.6414.2244-1.1313.7346-2.3807,2.2279-4.1048l-2.0892-1.5196-.6948-.5022c-.2173.5589.0009,1.0155.1022,1.1836-.9077,1.1521-1.5877,2.6229-1.9075,4.2349-.652,3.2865.5571,5.812,3.1309,6.3226,5.2533,1.0422,5.0956-7.337,8.176-6.7259,1.033.2049,1.527,1.6426,1.2527,3.0255-.3116,1.5706-1.4956,3.4575-3.145,4.698l2.0566,1.5702c1.7255-1.2889,3.0304-3.402,3.4957-5.7475.6396-3.2243-.4904-5.9295-3.2548-6.4778-5.291-1.0712-5.2591,7.2788-8.2547,6.6845Z" style="fill:#046335; stroke-width:0px;"/><path d="m183.8041,204.8336s.553.3962,1.1254.1528l9.2033,10.6695,2.0088-1.7357-6.6421-7.7003-3.1297-3.5994-2.5658,2.2132Z" style="fill:#046335; stroke-width:0px;"/><path d="m192.7824,197.0891l7.0426,8.1639.7343.8513s-1.0034-.7993-3.0593-1.0918l.0011-.0004c-3.565-.463-7.1298-1.3181-9.2353-1.8747.7037,1.4002,2.1363,3.2804,4.8901,3.9266,2.4442.4957,5.8595,1.0652,9.4534,1.277l1.9428-1.6727-9.759-11.3138-2.0107,1.7344Z" style="fill:#046335; stroke-width:0px;"/><path d="m183.9185,218.5212c2.138-2.4269.9079-5.3694.2963-6.4995l-3.1436-5.2872-2.282,1.3568,4.5151,7.5938c.566.9519.7532,1.9396.6089,2.8431l.0052-.007Z" style="fill:#046335; stroke-width:0px;"/><path d="m186.0875,215.8321l-.0035-.0038c-.0541,3.4401-4.2315,5.4609-4.2315,5.4609h0c-1.9064,1.0136-4.1427.4304-5.3323-1.5704l-4.5151-7.5938-2.2729,1.3514,4.5151,7.5938c2.0366,3.4253,5.5003,4.2383,9.0048,2.1546,2.4996-1.4862,3.6504-3.6548,3.3552-6.0253-.1468-.8437-.5198-1.3674-.5198-1.3674Z" style="fill:#046335; stroke-width:0px;"/><path d="m232.1697,154.3221l.0033.0004c-.0154.0025-.0284.0058-.0436.0084-.1877.0403-.3784.0794-.5725.1174-2.1933.5235-2.503,1.5801-2.503,1.5801.0572-.6619.0046-1.2189.0046-1.2189-.0709-1.7992-1.2298-3.4231-3.1781-4.0708-2.9243-.9721-5.3898.7168-6.5644,4.2504l-1.628,4.8946v-.0015c-.3547,1.081-.6777,1.8692-.6777,1.8692,0,0,2.381.3465,4.2473-5.0139l.2028-.6096.0005-.0014.1271-.382c.738-2.22,2.0289-3.0522,3.5639-2.5419,1.5188.5049,1.9614,2.0131,1.2533,4.1433l-1.3852,4.1633-4.3837-1.457c-.7422,1.469-1.7342,2.0629-1.8895,2.1492l-.0128.0158,12.5376,4.168.8375-2.5193-4.8172-1.6014,1.4385-4.3305c.0604-.1818.1348-.4849.1685-.6533,3.1139-.219,5.7408-1.0271,5.7408-1.0271l.9441-2.8399s-1.5118.4977-3.414.9086Z" style="fill:#046335; stroke-width:0px;"/><path d="m223.0321,178.0522l-3.466-1.7423,3.8862-7.7311-2.1392-1.0753-3.8862,7.7311-3.0542-1.5353c-.0848.1206-.1706.2314-.2567.338-.0215.0266-.0429.0525-.0644.0783-.0808.0967-.1614.189-.2417.2742-.0041.0044-.0082.0093-.0124.0136-.0883.0931-.1754.1777-.2614.2575-.0146.0136-.0289.0264-.0435.0396-.0834.0758-.1655.147-.245.2111-.0001,0-.0002.0002-.0003.0003h0c-.6072.4894-1.0792.6506-1.0792.6506h0s.6004.3018.6004.3018l.3243.163,3.1417,1.5792,2.1392,1.0753,3.466,1.7423,2.1392,1.0753,1.1924-2.372,4.378-8.7094-2.1392-1.0753-4.378,8.7094Z" style="fill:#046335; stroke-width:0px;"/><path d="m211.2734,173.5079c-.4139.8035-.7366,1.3496-.7366,1.3496,0,0,2.3053.686,4.9267-4.3543l2.7575-5.4856-2.1392-1.0753-4.8084,9.5656Z" style="fill:#046335; stroke-width:0px;"/><polygon points="107.3825 180.5904 102.8637 182.5267 103.9765 184.6792 105.9248 184.135 105.9123 192.3778 109.2096 192.3778 109.2096 180.5904 107.3825 180.5904" style="fill:#046335; stroke-width:0px;"/><path d="m45.8203,45.6216c-.2349.4564-.4413-.06-.4621-.7825-.0165-.7323-.0568-1.3681-.5108-1.9901-.4446-.609-.779-.7353-1.453-1.7631-.6855-1.0311-3.1634.0352-3.6131,1.4296-.4644,1.4028,1.6726,2.8405,3.0082,3.6291,1.3355.7881,2.1539,2.5466,3.2556,4.1676,1.1005,1.6195.4899,2.1225-.089,3.1559-.5678,1.0354-.8996.5683-1.8603-.2673-.9574-.8462-.7105-.2926-1.4576-.9424-2.8159-2.4491-3.3252-3.8321-3.3252-3.8321,0,0-.3887-1.1746-1.2813-.9694-.8929.2074-1.3592-.6458-3.2025.151-1.8426.7974-3.158,3.4183-1.9141,5.4379,1.2439,2.0196,2.6193,1.7031,3.2692,1.2784.6371-.4281,3.1861.6656,3.7811,1.1729.594.5192-.7006.9246-1.0243,2.9301-.3349,2.0038,1.027,2.2125,1.8502,2.7462.8828.5723,1.2002-.2341,1.6638-.3163.4673-.0913.8758.0527,1.2026-.3128.3303-.3764.5987-1.0641.9225-1.1792.3107-.107,1.5181,1.0725,1.2438,1.644-.2851.5688-1.4384,1.7713-.6802,3.3435,1.1172,2.3168,3.1756,1.8012,4.0506.8171.8676-.9991.2763-2.5648.7145-2.4476,2.2862.6318,3.4415-.4341,3.6368-1.9008.1969-1.4798-1.5494-2.619-2.3784-2.8651-.8324-.2339-1.159-.6077-1.7042-.9902-.5482-.3703-1.3686-1.7406-1.4807-2.9303-.1085-1.1989.4082-1.4041.6891-1.1548.2732.2367,1.0675,1.1461,2.3671,1.4711,1.3109.3267,1.8629-.1207,2.2046-.2657.3394-.1346.2952.8559.2952.8559,0,0,.9161-.9976,1.3848-1.5218.4597-.5388,1.091-1.6166,1.2887-2.1499.199-.5449-.1097-1.2453-.8682-1.6441-.7615-.389-1.414-.1355-1.88.3321-.4657.4691-1.8548,2.4472-2.5789,2.01-.3988-.2408-1.3539-1.9443-1.7405-2.8907-.3792-.9349-.0728-1.5433.4102-2.6466.4755-1.1259,1.4147-1.9486-.0818-2.923-1.4954-.9756-3.4177,1.6581-3.6522,2.1136Z" style="fill:#046335; stroke-width:0px;"/><path d="m75.4484,41.4778c-.0956.0708-.1831.1323-.2708.1944-.8641.6203-.8253.9787-.3483,1.5028.5302.5607.5368.7992,1.2143.9899,0,0,.5731-.0671.9786-.3091.087-.063.1832-.1175.2623-.1871.3-.2549.507-.6259.2024-1.3637-.3768-.9388-.8943-1.5604-2.0386-.8271Z" style="fill:#046335; stroke-width:0px;"/><path d="m73.9856,22.7827c-1.3819.5663-2.7807,2.4581-4.0014,4.7014-.1669.2944-.3313.6192-.4881.947-.7822,1.631-1.5407,3.5648-2.4532,5.227-.2826.522-.5883,1.023-.9008,1.4733-1.5426,2.1636-1.6613,1.233-1.9976,1.9446-.3097.625-.3554,1.9096.1247,2.4314l.0808.0784c.0444.027.096.0625.1406.0898.1319.0544,1.2833.5377,1.8154.4368.5335-.0878.2902-.2621.95-.5266.6586-.2641.6746-.4605,1.3196-1.2603.4641-.5628,1.2323-4.7857,1.3582-5.4554.1425-.6711,1.9656-3.9099,2.1159-3.7825.1842.1619-.0307.4789.0589,1.1432.0272.1787.0188.4122-.0089.6654-.062.7209-.2383,1.6807-.1524,2.4401.1147,1.0109-.0441,1.5658.9193,3.1562.9703,1.5956,2.0462-.1503,2.1614-.1827.1229-.0251.2411.087.6524.5616.433.4668,1.3263,1.8763,1.6655,2.3535.5134.7264.9621,1.2775.675,1.6264-.1257.1623-.4022.4235-.3948.6979.0102.3478.3535.7026.6899.8504.6177.2601.6822.8165,1.3883.9339.7141.1114,1.6871-1.1246,1.4285-1.5539-.2723-.4261-1.1117-1.9681-1.4072-2.4597-.3044-.5-.4396-1.4453-.4282-1.6046-.0004-.0142.0631-.0658.2233.2112.0906.142.1979.327.3557.5343.1872.2483.4835.4856.8722.6278.5349.1957,1.2218.2136,2.0447-.1786,1.4019-.6761,1.2679-2.6799-.5452-2.7608-1.8225-.0731-2.6238.7745-2.9788,1.3132-.035.0517-.1959.161-.2225.1911-.1912.2436-1.2104-2.7754-1.2545-3.2959-.0354-.5138.5688-.7033.4269-1.3892-.141-.6825-.6478-.9237-.6947-1.3062-.0544-.4479.4244-1.1621-.1815-2.1617-.6004-.9909-1.5558-.6819-2.5834.1649-.5367.4495-1.5982,3.565-1.7637,3.294-.1979-.3284-.2782-.8693-.2813-1.4786-.0078-1.065.1927-2.3016.3371-2.8267.2313-.8107,1.6834-2.8353,2.7971-4.01,1.1049-1.1686-.4866-2.4357-1.863-1.8616Zm.5602,10.4321c.0878-.2127.1687-.4175.1861-.5567.0827-.472.8483-.0153.733.3003-.0528.1453-.271.4045-.5097.6427-.2683.2834-.567.5528-.6367.5974-.3152.1973-.0056-.4407.2273-.9837Z" style="fill:#046335; stroke-width:0px;"/><path d="m68.9885,22.8604s.4256-.5709.8455-1.1473c.4193-.576.4218-1.0259.0683-1.77-.3614-.736-1.6973-1.1425-3.0848-.4364-1.3865.7029-1.2326,1.5685-.4793,2.6492.755,1.0949,2.04.9009,2.6503.7045Z" style="fill:#046335; stroke-width:0px;"/><path d="m119.273,23.2184c-.6483.0669-2.0853-.0163-3.269-.2511-1.1731-.2276-2.6462-1.043-2.6343-1.3122.013-.2689-.5307-2.9073-.5639-3.2552-.0321-.3389,1.8672-1.3493,2.1314-1.4544.2547-.1032.1648-.6269-.0116-1.1905-.1671-.557-1.643-.6821-1.9273-.8098-.2805-.1188-.0697-.7644-.1265-1.2171-.3213-2.5602.739-2.9661.5315-3.9088-.2075-.9436-1.4158-.6316-1.928-.3461-.5122.2855-.697.343-.6422.8354.0434.4935.0333.7718.0864,1.2645.0452.494.2571,3.715.3179,4.2446.0551.5411.0198.2329-.5406,1.1394-.5681.9089-3.5314,3.5231-4.0083,3.8408-.4666.3144-.5348-1.842-.3454-2.6313.1901-.7888,1.2635-1.9718,2.1288-2.2223.858-.2391,1.1133-.8058.9522-1.2455-.1185-.3304-1.9054-.7811-2.2847-1.0868q-.3801-.3043-.503-.8013c-.1315-.4852-.2793-3.28-.3126-3.6279-.0412-.3364-.9502-.9059-1.656-1.0241-.7051-.1183-2.0939,1.0217-2.1079,1.5664-.025.5377-.3189,1.1129.0693,1.8806.3893.7766.811,2.2666.9379,3.5324.1355,1.2536-.57,1.9843-1.4201,2.6855-.8582.7032-.5248.5547-1.4965,1.2325-.9728.6769-3.3641,1.1296-3.0275,1.7,1.1169,1.8479,2.4287,1.5626,2.7764,1.5287.3457-.0427.872-.1727,1.3092-.4424.4341-.2781.9962-.8008,1.2271-.7801.229.0113-.0366.7668-.117,1.5139-.0813.7371-1.6358,3.5908-3.092,5.2475-.8587.9769-.3159,1.4562.8617,1.6147,1.1667.1498,2.8242-2.5268,2.8385-2.8363.0053-.3063.299-.4575.3812-.3461.092.1088.3065,2.5898.4062,3.1613.0892.5637.0465.4535.3243.9286.276.4741.7004.8492,1.7085.9039,1.0082.0553.8357-.9225.5997-1.6719-.2271-.7512-.6866-4.5253-.697-4.9483.0012-.4241.0632-.9702.3179-1.0728.2558-.102.9704.0137,1.2711-.0099.309-.0348.5226-1.255.4876-1.6707-.0801-.9534,2.7283-2.7532,2.7558-2.4829.027.271.0271.7322.0099,1.271-.0396,1.2408-1.3913,3.7642-1.5616,4.3632-.171.5981-1.9505,1.6627-2.2046,2.1892-.255.5269-.0611.9306.21,1.328.2696.3962.8968.1373,1.1353-.2292.2374-.3748.5611-.946.8163-1.4739.2543-.5265.4763-.9679.8014-1.539.3307-.5825,1.2038-3.0906,1.5374-.4324.1101.877.1856,2.912.3322,4.3619.1472,1.4485.9322,1.9545,1.4255,2.3246.5037.3782,1.2314-.4353,1.1594-1.1996-.0814-.7634-.9201-4.1447-1.0262-4.7472-.1156-.6564-.3488-1.112.1367-1.2435.4876-.1227,1.0163.8127,2.0227.8585,1.0092.0552,3.1564-.5338,3.4823-1.0365.3387-.5225,1.0292-.453,1.2619-.9055.2201-.451-.6008-.1314-1.2481-.0646Z" style="fill:#046335; stroke-width:0px;"/><path d="m151.011,8.9943c-1.1968-.2574-2.1979.7322-2.2966,1.3583-.1016.6369-.4489,1.1524-.6775,1.8083-.2287.6566-.63,1.3131-.63,1.3131,0,0,.5532-.4871.9157-.8986.3557-.4131.5828-.6019.7697-.3243.1774.278-1.4431,4.49-1.8364,5.0664-.3828.5881-1.4358,2.5609-1.7501,2.8108-.3132.2497-.8857.4282-1.5079.309-.1929-.0362-.3443-.082-.4515-.1498-.2594-.1521-.3096-.3987-.242-.849.1058-.6559.5754-3.1645.8714-3.6323.2665-.4328.2949-.6398.6555-.8681.0342-.0217.0832-.0508.131-.0814.4915-.2677,1.3816-.7243,1.6397-.9879.2626-.251.3842-.5368.5153-.8818.1242-.3558.1485-1.0002-.3669-1.7748-.3766-.5476-1.1315-.9615-1.3459-1.1247-.515-.3874-1.5327-.3883-2.2004-.0609-.307.14-.5418.3582-.6119.6461-.1316.4664.0136.8767.1742,1.1792.1536.261.3096.4505.3485.5408.0676.179.0261.443-.1025.9403-.1233.5089-1.5027,5.8466-1.5458,6.1411-.0504.2921-.1495.6241-.3894.9022-.0974.109-.2402.1968-.4164.2567-.2788.1041-.6088.1677-.859.2307-.4552.1238-2.6881-.1382-2.7426.1747-.0447.3136-.4041,1.0915.1208,2.3344.5256,1.2433,1.347,1.3699,1.7492,1.3446.3065-.0088.5459-.0727.7024.1999.052.082.0962.2041.1262.3743.1245.7003-.2263,2.3296-.0717,2.7862.197.5816-2.1385-.1368-2.972-.1433-.8395-.0087-.8464,2.053-.5203,2.557.5198.7959,1.2521.9202,1.8997.8414.5243-.066.987-.2597,1.2331-.3531.3363-.1341,1.0228-.3217,1.7266-.3355.4636-.0207,5.0347.4062,5.4385.5425.393.1358,1.2791-.0915,1.6826-.7981.4126-.7039-.0659-1.9661-.8644-2.0663-.7987-.0988-4.1007-.2391-4.0633-.484.0386-.2441,1.1944-2.2971,1.6012-2.8499.4091-.5616,1.6837-.4082,2.1743-.3821.4907.0276.5891.0392,1.0688-.1805.4812-.2202,1.0244-.5365,1.3811-.7552.2498-.1538.976-.772,1.1853-1.5549l.0231-.0961c.0624-.2998.054-.6073-.0945-.926-.5182-1.2216-3.0197-1.2944-3.4589-1.155-.4393.1275-.128-.1527.1399-.5762.2656-.4343,3.3875-6.1768,3.7752-6.5612.3783-.3874.7649-.7716,1.4488-1.0438.6838-.2638.6047-.6989.6567-1.1644.0377-.4581-.9413-1.3327-2.1369-1.5991Zm-10.8489,14.0988c-.0304-.0075-.06-.0043-.0891-.0109-.134-.0324-.263-.1344-.1727-.549.0791-.3682.4963-.2478.5569-.2433.2126.0405-.103.8082-.2951.8032Zm2.0572,4.7604c-.0886.0395-.3005.0286-.4914.0143-.1858-.0251-.3451-.0419-.3451-.0419-.063-.4122-.0088-.7241.0359-1.0373.0449-.3149.2447-.6333.5874-.7539.0557-.0173.1205-.0329.1748-.0503.2779-.0538.5299-.0046.4878.3006-.0578.361-.26,1.502-.4494,1.5685Zm2.884-5.628c-.2647.425-1.6417,2.5732-1.7674,2.7972-.137.2314-.325.2981-.3844.0394-.0748-.3225-.8274-.8282-.9355-1.0175-.1128-.2082.9295-2.4269,1.1603-2.6664.0358-.0323.0715-.0549.1248-.0722.3954-.1589,1.3935-.1227,1.6965.0105.3494.1545.3723.4749.1056.909Z" style="fill:#046335; stroke-width:0px;"/><path d="m180.8021,46.524c-.1622-.2282-.6446-.2451-1.1488-.6873-.5181-.4417-2.2234-2.7856-2.5907-3.8831-.3647-1.1116-1.5362-5.1131-1.5689-5.3939-.0378-.2912.0435-.4896.222-.9919.1691-.4927.4088-.8692.9817-1.5272.5748-.6582,1.4987-1.0556,2.3669-.718.877.3451,2.1302,1.0181,2.3997,1.2156.2787.1907.2326.1553.5203.1328.2889-.0397.3044-.0936.6194-.1855.3348-.0899.4277-.2248.3552-.4307-.0676-.1879-.1682-.4109-.4393-1.1498-.2701-.7382-.8344-1.1132-1.0999-1.1529-.2689-.0392-.7565-.4814-1.1383-.9132-.3692-.4176.5049-1.5418.8689-2.051.3613-.5092,1.472-.9617,1.9714-1.0144.5042-.06,1.6973-.4329,2.2309-.9843.5403-.5571.5603-1.8041.4771-2.3909-.0863-.5875-.4287-.9438-.8727-1.2284-.4365-.2753-2.3724-1.1513-2.8529-1.0254-.4654.1436-.6645.7929-.6699,1.3819.0088.5812.7686,1.2582.4981,1.633-.2543.3761-.7999.9802-1.0933,1.3115-.281.3271-1.3808,1.73-2.0674,2.4129-.7011.6973-2.3301,2.0499-2.8108,1.896-.47-.1596-.8009-.2743-1.7868-1.0447-.9814-.7678-1.7903-.3203-2.0805.0994-.2911.4043-.6759.9192-.586,1.2535.0995.3262.3762.3421.589.527.6288.381,1.2521,1.3176,1.3318,1.5862.0805.2533-.5581.7075-.6778.7916-.1244.0932-2.617,1.9523-2.909,2.1264-.3006.1644-3.6985,1.7635-4.6353,1.7624-.9308-.0081-.8367-.2631-1.1228-.8123-.2874-.5501-.8857-.6882-1.1829-.5707-.2889.1256-.3599.3896-.5358.6845-.1683.2881-.3774.5651-.2913.8589.5771,1.8866,3.4194,1.991,4.0921,1.9925,3.5137.008,7.0029-4.2285,7.7848-3.718.622.4061.5568,1.1907.6282,1.5392.0825.3409.1843,4.5122.3804,5.5619.2039,1.043.4246,2.0746.9054,2.4021.4657.3273,2.1702.6648,2.4629.8247.3006.1458.3513.2924.6529.3903.3173.0993,1.1575-.0665,1.6202-.0905.4666-.0394.3646-.1906.2019-.42Z" style="fill:#046335; stroke-width:0px;"/><path d="m201.6253,60.8937c-.421-.467-1.5528-1.5469-1.7073-1.7043-.3107-.3189-.1404-.8455.1201-1.1749.4948-.6255,1.967-.7968,2.5174-.9079.704-.142.8299-.5323.8379-.5449.1214-.2936-.5557-1.0598-.9793-1.2672-.4212-.2079-.4146-.1837-1.0132-.5559-.5936-.3631-.4677-.4678-.6949-.5251-.2228-.0346-.877.2584-.9716.5785-.0897.3209.0614.4939.2644.7227.2009.2178.9713.2734,1.1505.3662.1684.0992.3573.4885-.1162.5323-.4821.0556-1.3671.2928-1.8366.7492-.1978.1926-.3437.4442-.4556.6879-.1988.41-.2907.7294-.2907.7294,0,0-.5775-.3287-1.0277-.3593-.3387-.023-3.3129-.2916-3.6105-.1194-.3087.1789-.9571,1.1685-.9957,1.3311-.0572.1825-.0944.4412-.1344.8201-.036.316.1501,1.4024.2067,1.662.0849.4972.657.7173,1.9665.2661.2769-.0715,1.358-.1762,1.6523-.2767.7538-.2576,1.7517-.9762,1.7517-.9762,0,0,1.1478.2143,2.7134,1.7798.4275.4275.7496-.4312,1.0041-.7218.2661-.2856.0915-.6282-.3513-1.0919Zm-5.3742-.3036c-.4219.2567-1.2789.0431-1.4447-.0432-.0669-.0393-.1194-.0984-.1358-.1611-.0708-.4414.8136-.2922,1.0569-.4055.4305-.2922,1.1002-.1141,1.2121-.003.0522.0593.0814.1215.078.1938-.0126.2273-.4942.2533-.7665.419Z" style="fill:#046335; stroke-width:0px;"/><path d="m210.7636,57.6967c.2081-.2818-.0754-.7737-.4966-1.2796-.2239-.2672-1.3587-1.4211-2.2885-2.0135-.9435-.6012-1.8125-1.1996-2.1527-1.3215-.3408-.1228.099-.1584.4735-.0904.3829.0626,1.9099.3688,2.0984.5874.1999.22,1.112.4865,1.6281.3355.5012-.1571.6803-1.4009.6768-1.8509-.0155-.4567.141-.5261.6429-.8687.7055-.4816,1.2123-.5237,1.7458-.5147.5406.0211,3.2888.4728,3.6326.4296.3535-.0492.4073-.4652.2697-.6671-.1446-.1971-.4343-.7455-.5895-.9298-.1587-.1954.3929-1.0069.5529-1.2964.2791-.5014-.1903-.8495-.5582-1.2015-.3761-.3482-.5291-.0841-1.0457.0306-.4992.1227-1.7908.9157-2.2504,1.0984-.4608.1824-2.7337.7167-3.4231.7959-.6687.0723-1.8376.3018-1.7363.1917.098-.1204.4795-.1991.8392-.4478.3585-.2525,2.2918-1.1243,3.171-1.3811.2199-.0598.4033-.1792.5404-.3236.4002-.4125.415-1.0672.0586-1.469-.4618-.529-1.0569-.7227-1.4651-.7468-.4135-.0329-1.1302.0767-1.2693.3895-.1404.3186.0943.6704.1686.8625.0669.1963-.0427.1415-.4102.4549-.3754.3226-.4353.3166-.7877.5529-.339.2332.3076-.7564.553-1.2594.2421-.5042.0704-.5757-.0385-1.1633-.1173-.5709-.3172-1.0502-1.0471-1.5204-.3269-.2075-.5911-.3135-.8375-.2597l-.0337.0083c-.2736.0844-.5279.3763-.8475.9479-.6107,1.1238-1.5782,2.1617-2.4692,2.8153-.8957.6392-2.0063,1.2213-2.6455,1.9249-.5285.5544-.5101.9767-.3102,1.5026.0584.129.1169.2639.192.4116.2392.4924,1.0447.407,1.2865.3895.2461-.0197.4154-.2651.5999-.4205.1821-.1647.4118-.0141.3703.233-.0574.2282-.2297.8541-.3636.9478-.2551.1783-.7041.462-1.1202.2776-.4263-.1826-2.1363-1.0404-2.7326-1.366-.2362-.1275-.4459-.2474-.5782-.3432-.4946-.342-.3403-.6076-.5962-.9064-.255-.2869-.9414-.8626-1.4321-.8841-.4716-.039-1.4542.0167-1.8543.945-.6953,1.6129,1.2121,1.9972,1.2121,1.9972,1.1849.1496,7.4326,1.9597,7.7319,1.9712.3387.0292.7523.0244,1.1695.0772.9739.083,3.4601,2.1156,3.5333,2.196.6091.6697.5566.8918-.793,1.018-.9263.0802-2.18-.1773-2.8765-.3483-.3258-.0768-.5336-.1401-.5336-.1401.1023.0701.2026.1352.3038.2033.7048.4291,1.5099.7332,2.3432,1.0188.2737.0935.56.196.8486.2957,1.2502.4238,2.6401.5362,2.9399.1038Zm-5.1146-8.8642c-.2971.2586-1.053.6239-1.053.6239.0357-.1846.041-.2943.0977-.3922.0589-.0872.156-.1725.335-.3014.4149-.3013.6775-.3364.844-.3804.1421-.04.0719.1714-.1842.4164-.0072.0153-.0299.0192-.0396.0338Zm-.3685,3.1772c-.0027-.0481-.0005-.0823.0233-.1257.0933-.2251,1.495-.9206,2.0589-1.3794.577-.4601,1.8166-.8174,2.0147-.6555.1963.1488-.7049.9935-.7896,1.1614-.1233.2074-.3224,1.2312-.6488,1.294-.3349.0697-2.6761.3605-2.6584-.2948Z" style="fill:#046335; stroke-width:0px;"/></g></svg>