<?xml version="1.0" encoding="UTF-8"?><svg id="b" xmlns="http://www.w3.org/2000/svg" viewBox="0 0 422.9102 422.9099"><g id="c"><path d="M205.1884,0h12.5335c64.2532,3.3857,109.3063,28.0213,143.237,61.9505,33.9282,33.926,58.5609,78.9904,61.9513,143.2375v12.5335c-3.3852,64.2554-28.02,109.3063-61.9513,143.2377-33.926,33.927-78.9822,58.5692-143.237,61.9507h-12.5335c-64.249-3.3911-109.3073-28.0195-143.2382-61.9507C28.0242,327.0326,3.3842,281.9732,0,217.7215v-12.5335c.8289-16.3307,2.6603-31.5967,6.267-45.4776,10.4572-40.2552,30.2952-72.5509,55.6832-97.9393C95.7829,27.939,141.4901,3.3527,205.1884,0ZM123.7221,31.3333c-44.7418,22.4943-76.9898,55.8459-97.2229,102.9522-7.3443,17.0983-12.8221,37.6456-14.682,60.5181-3.3625,41.3453,5.4556,76.7722,19.3369,104.3844,22.4159,44.5861,56.0376,77.0272,103.1316,97.2222,22.9801,9.8548,52.3013,16.9489,84.868,15.399,61.9702-2.95,104.6936-28.8253,137.688-62.4872,16.3137-16.6454,29.6045-37.0579,39.5694-60.5184,9.6663-22.7582,16.96-51.7995,15.398-84.8683-1.4644-31.009-9.0212-57.7238-20.0533-80.0344-21.8868-44.2605-56.1753-77.5959-102.9518-97.4023-22.973-9.7262-52.7157-16.7578-85.0477-15.2182-31.6423,1.5063-57.6999,8.8238-80.034,20.053Z" fill="#003790" fill-rule="evenodd" stroke-width="0"/><path d="M171.5282,21.7718c2.4979.188,4.9697.4014,6.8035,1.2538.462.8509.2511,2.374,1.2528,2.6854,2.7854-.0808,4.7967-3.301,7.5203-1.2532-.3433,1.2086-1.4211,1.6823-2.865,1.7902-1.9439,1.0477-4.1791,2.734-6.0871,3.2231.4938-.8189,1.8506-.7747,1.9688-1.9696-1.514-1.1544-2.7352.856-3.9386,1.7902-1.3366,1.0391-2.8976,1.7885-4.4759,1.7909,1.3811-1.5793,3.7923-2.7647,3.5808-5.0132-.2185-2.3209-3.104-2.0691-3.7597-4.2977Z" fill="#003790" fill-rule="evenodd" stroke-width="0"/><path d="M257.8282,30.0088c.1114,1.1423,1.3215,1.1848,1.4322,2.3269-1.172,1.275-3.9754.9186-5.55,1.7909.6594-1.0115,2.3084-1.0339,2.865-2.1485.0348-.6922.0064-1.3193-.1794-1.7911.8509-1.6063,3.6052-2.2293,3.5814-4.1175-5.202.6316-7.3157,7.8019-14.6825,5.1921,4.5847-3.4734,11.4968-4.6178,16.2942-7.8783,5.7695,1.4156-2.2648,5.0313-3.7608,6.6255Z" fill="#003790" fill-rule="evenodd" stroke-width="0"/><path d="M184.5983,35.3794c-1.6164-.8989-2.9005.3812-3.9386.3588.152-.8629.7422-1.287.8947-2.1487-2.2078-2.3715-2.7859,1.9525-4.118,3.2224-1.0391.9898-2.7926,1.151-4.1183,1.7905-1.5936.7698-2.3311,2.0226-3.5813,2.3278-.0707-3.3599,3.8098-4.3028,4.6559-7.3408.6963.0468-.2257,1.3247.3581,1.7899,2.4483-.0219,7.216-6.0206,10.0262-2.6851.587.6956.7328,2.0884-.1787,2.6851Z" fill="#003790" fill-rule="evenodd" stroke-width="0"/><path d="M259.2605,36.6334c-.8492,1.9555-1.2786,4.3312-2.5057,5.9085v1.0739c-1.3632,1.6813-1.1342,4.9541-2.1497,6.9831.3033,3.9559-3.2246,1.6071-3.4015-.3585.8541-.1377.7951.638,1.6116.5376,1.9666-1.7645,1.647-4.9088,2.3279-7.6991.5429-2.2264,2.2657-4.2301,1.9693-6.267-1.9461-.4933-3.7169.6855-5.0137,1.4324.4817,1.388-.5312,1.7308-.3581,2.8653.2084,1.3602,1.7614,1.6773,1.7911,2.6852.0443,1.5423-1.9487,1.772-2.6857,3.223-.2284,1.5623-.3238,3.2578-1.0746,4.2972h-1.4321c.5074-2.2503,1.735-5.1096-.7159-6.0876.3324-1.4262,2.5563-2.368,1.4317-4.1178-2.9025.8575-2.0262,5.4932-3.5803,7.6986-3.2221-3.2371.7432-7.8606,2.1485-10.3848.4864.7563-.7956,1.4819-.1799,2.3278,3.1141-2.195,6.1056-6.2306,11.28-5.1924.1715.3659.3662.7087.537,1.0746ZM249.4132,40.7512c.2996.2376.6003.4743,1.2535.3585.9615-1.7471-1.2113-1.9853-1.2535-.3585ZM249.4132,45.7646c.671.0712.9236-.8147.5376-1.2535-.9474-.1463-1.0872.8745-.5376,1.2535Z" fill="#003790" fill-rule="evenodd" stroke-width="0"/><path d="M238.6703,38.2444c2.0783,1.2042,3.258,3.3084,3.2231,6.6255-3.7305,1.2528-2.6687-4.7065-3.2231-6.6255Z" fill="#003790" fill-rule="evenodd" stroke-width="0"/><path d="M179.048,39.6766c3.8229.0976,3.8399,5.1724,1.253,6.6255,3.9147,3.9042,9.1229,6.5131,15.2194,8.2359-1.1236,1.0514-2.4197.3134-3.9389.537-1.8649.2748-3.1373,1.3966-4.8348,1.0741-1.8991-.3602-2.6171-2.1404-4.2972-2.8648-.8297-1.7986-1.2365-5.4337-3.4015-5.1924-1.0941.1224-1.3641,1.9168-2.1485,3.2231-1.858,3.0913-5.7247,5.8109-8.7743,6.8037.6599-1.3099,1.9429-1.9977,3.2231-2.6861.5234-1.3513,2.127-2.0252,3.0444-3.5809.7385-1.2523.7706-2.852,1.2528-3.9381.3144-.7077,1.2851-1.4262,1.254-2.1492-.087-1.9922-4.2112-2.9195-4.8343-4.6548,2.5432-.4218,3.7518,1.9526,5.3711,3.0432,1.2794-.7498,1.2851-2.7729,1.6116-4.4763Z" fill="#003790" fill-rule="evenodd" stroke-width="0"/><path d="M240.103,46.4803c1.478.39,2.3311,2.3008,1.9686,3.9392-.2536-.0151-.5064-.0291-.5359.1794-1.342-.5093-.9718-2.7292-1.4327-4.1186Z" fill="#003790" fill-rule="evenodd" stroke-width="0"/><path d="M259.9774,58.2982c-2.1213.2521-5.3481,3.0715-7.6992,3.0437-3.0306-.036-5.7289-4.4928-8.0579-6.4462-3.1272-2.624-6.6889-3.1849-9.1303-5.3715-.1451-.0333-.1784-.1791-.3588-.1784,2.1038-.5741,6.3392,2.2207,8.4157,3.2224,2.7842,1.344,4.7159,3.4564,6.9823,4.2977,2.9809,1.1059,5.9779,1.2363,9.8483,1.4322Z" fill="#003790" fill-rule="evenodd" stroke-width="0"/><path d="M105.4592,59.9092c-.4367-1.2744,1.4322-2.6608.3581-4.1178-1.41-1.1562-5.0278-.105-6.6246-1.0748.6357-.8435,2.0736-.8683,3.2233-1.4322.588-.2885,1.0692-.8999,1.6105-1.0738,1.9424-.6244,4.9787-.1801,5.3716,1.2528.6816,2.488-3.4589,4.2935-3.9389,6.4457Z" fill="#003790" fill-rule="evenodd" stroke-width="0"/><path d="M114.4113,54.0005c-.1483,2.1404-1.9888,3.5597-3.2221,5.3718-2.1101,3.0984-3.7248,6.816-8.0569,6.9829,2.5004-1.8959,5.3174-5.1113,6.9823-8.2364.7254-1.3615,1.0951-2.9358,2.148-4.1183.411-.2799,1.7382-.2799,2.1487,0Z" fill="#003790" fill-rule="evenodd" stroke-width="0"/><path d="M116.3811,58.6559c1.0086.9866-.451,2.0977-.7159,3.2231-.434,1.8483-.1508,4.0735-1.0746,5.5502,1.0241-.053,1.5083-2.1901,2.8645-2.5063,2.012,1.9721-1.1204,4.1425-1.9691,5.5504,1.4058,2.779,6.4314,4.3731,4.8341,8.4152-1.6206.3028-2.781-1.0687-4.1178-1.6115-.0327-.9282.8361-.9536.8952-1.7911-.2706-.6236-.327-1.4627-.8952-1.7899-1.4396,3.1551-1.085,8.1057-3.5813,10.2054-1.0044-.2484-1.6381-.8683-2.5063-1.2528-.2531-1.0537.7444-1.5477,1.2533-2.5072.8731-1.6451,1.2862-3.7768,1.9698-5.1922.4268-.8846,1.6887-1.9174,1.6116-2.8646-.1229-1.5001-2.5837-2.0093-1.6116-4.1176-.8282.1274-1.1848.7249-1.6115,1.2528.8445,1.734,2.4839,3.9699.7158,5.9085-1.1458.0146-2.1443-.9585-2.6856-1.7905-1.015-1.5585-2.1096-3.6999-2.3274-5.3708.4738-.3622,1.6431-.0279,2.1485-.3586,2.1228-3.129,2.3222-8.1806,6.8035-8.9524Z" fill="#003790" fill-rule="evenodd" stroke-width="0"/><path d="M326.9411,62.0577c4.1897,4.5197-2.6055,7.6519-4.4759,10.5635,1.2793,1.7049,6.4383-.4706,6.4452,2.507-3.0417,1.0854-6.0137-.7971-8.9521-.1791-2.5464.5355-3.9848,3.4276-5.9089,4.6552,2.9235,4.1188,4.1786,9.9072,10.5642,10.564-.8134,1.0709-2.8079.3491-4.2982.5369-.8109.102-1.524.6347-2.148.537-4.0352-.6294-1.2145-9.528-4.8338-11.1009-4.5757,3.1837-10.8606,4.6569-18.6211,4.6554,7.8965-2.0103,15.0693-4.7449,19.8739-9.8476.1351-1.2641-1.6822-1.1417-.8957-2.5063-1.0049-.7846-1.6886-1.8919-1.9688-3.4024,2.2241.8765,3.5829,3.3202,6.0876,3.2231,2.3227-.0894,8.7632-6.4163,9.1315-9.6685.02-.1769-.0158-.36,0-.5374Z" fill="#003790" fill-rule="evenodd" stroke-width="0"/><path d="M118.3509,69.9362c.588-2.6637,7.3726-2.2557,6.8034,1.0734-.6082,3.5614-4.9218-1.018-6.8034-1.0734Z" fill="#003790" fill-rule="evenodd" stroke-width="0"/><path d="M63.0248,106.6408c2.2599-.3662,3.7437-1.5078,5.7305-2.1485.6493,2.3236,1.1752,4.6242,1.2528,6.9826.0279.8609-.3645,1.8081-.1799,2.6861.1994.944,1.0845,1.0552,1.6116,1.9693,1.3821,2.3931.6515,5.7656,1.0756,8.9524-1.4513-2.4737-4.8516-11.3174-7.5203-5.0133-.391-1.4608.7786-2.7071.537-3.9391-.1984-1.0078-1.8548-1.6939-2.865-2.507-2.4436-1.9659-6.287-6.1381-7.5198-9.131,3.2995-.666,6.3513.4453,7.8775,2.1485ZM63.9205,107.178c.1999,1.4701,1.4654,1.8765,2.6861,2.3274.3667-.3491.8736-.5588.8942-1.253-.4736-.9842-2.2066-1.5775-3.5803-1.0744Z" fill="#003790" fill-rule="evenodd" stroke-width="0"/><path d="M367.764,107.178c1.1167,3.25-2.2399,6.3993-3.402,9.1316,1.1621,1.9238,4.4502-.4542,5.5505-1.4326v-1.6115c.8235.6276,1.1584,1.1153.8952,2.506,4.2888,2.5149,9.2116,4.396,12.3536,8.0579-2.3416,4.7683-11.731-.1042-16.4719,2.6854,1.3062,2.7526,5.1598,2.9577,5.5505,6.6245-5.5263,1.3281-8.5517-2.8929-11.1006-5.7293-.8124-.381-1.9001-.4872-2.1487-1.4322,4.3911.9231,6.4432,5.1311,10.9218,5.3716-.9125-2.2512-2.9762-3.3505-4.4765-5.014h-1.7911c-.5232-.67-1.4723-.9134-1.6115-1.9693-2.9816-1.8735-6.4696-3.0752-10.9213-4.1181-1.8717-.4381-3.9828-.1065-5.55-1.2533.4573-1.8102,2.0474-2.4882,4.4759-2.3274-.6234.8092-2.3786.4864-2.865,1.4322,1.428,1.0307,4.0118,1.4694,6.4459,2.1485,2.3374.6523,4.7508,1.3062,6.2658,2.1492.5971.3316,1.2914,1.2915,1.9703,1.2528,1.0894-.0618,1.4122-1.3826,1.7899-1.9693-.0537-.9608-.7158-1.3134-.5369-2.5067-1.1791-.6108-3.4722-.1087-4.8348-.537.9706-1.357,4.5446-.1114,5.5516-1.4322.0939-1.288-1.284-1.1054-1.6116-1.9701,2.1228-2.4129,4.3058-4.7654,5.5507-8.0567ZM370.2697,118.9947c-2.013.1173-3.8467-.6538-5.3706,0-.4521,2.8887,4.4823,4.2132,6.4457,2.6861,1.2476-.9708,2.3528-4.8659,0-4.6554-.24.7752-.3139,1.7165-1.0751,1.9693ZM373.493,117.921c-1.0187,1.9211-.5487,4.873-2.3274,5.55-2.1081.8023-3.7824-2.0792-6.6248-1.7902-.5897.6631-1.0128,1.4937-.8957,2.8648,5.1503,1.7766,12.4116-.5174,17.5475-1.0746-1.9122-2.5046-4.3366-4.4966-7.6996-5.55Z" fill="#003790" fill-rule="evenodd" stroke-width="0"/><path d="M361.1394,109.3262c-.1367,2.1924.0369,6.2436-3.0444,6.0878-.6172-2.974,2.5785-3.607,3.0444-6.0878Z" fill="#003790" fill-rule="evenodd" stroke-width="0"/><path d="M66.6066,134.751c.4253,2.1325.9654,5.4666,1.6106,8.4154.4383,2.0043,1.5741,3.7026,1.4322,5.7294-.8763,1.3385-3.4321,1.7268-5.5502,1.253-.5986-.7143-1.3198-1.3055-1.2528-2.6852.3255-.39,1.4639.0318,1.7899-.3585.565-.2097.6225-.9282,1.0746-1.2532-.6409-3.8314.9026-10.043-.8952-13.4283-.6762-1.2724-2.3544-3.0338-3.7602-4.4766-2.5553-2.6196-6.0777-5.0201-8.2363-7.52-2.2271-2.5775-5.2335-7.1245-10.5635-6.4452-.862.1099-1.7082.6995-2.5068.8954,1.4866-1.0682,2.3089-3.0831,4.1183-4.1183,2.1893-1.2523,5.9509.2503,7.5198,1.6113,1.4851,1.288,2.0405,3.5402,3.0439,5.7294,1.6828,3.6747,6.0992,8.4239,9.1315,10.385,1.7128,1.1076,3.7073,1.8666,5.3711,2.865,1.0287.617,2.7975,1.1731,2.3274,3.0439-.5269,2.0967-4.3066,1.1584-4.6543.3576Z" fill="#003790" fill-rule="evenodd" stroke-width="0"/><path d="M380.6551,111.4749c.7005,2.8187.6404,6.0942-1.7905,6.2668-1.9814.1404-5.0869-2.7169-6.9833-3.0437,2.989-.3484,8.2494.1712,8.7738-3.2231Z" fill="#003790" fill-rule="evenodd" stroke-width="0"/><path d="M351.2916,116.6673c1.2993.6045,3.3286-.2989,4.4759.1787-.8267.6734-3.8314.5147-4.4759-.1787Z" fill="#003790" fill-rule="evenodd" stroke-width="0"/><path d="M82.5409,118.4577c.4216,2.2121-.7813,2.7998-1.4322,3.9396.3593,1.9321,2.0252,5.0682.3588,6.8032-1.2355-1.5672-.7622-5.1603-2.6862-5.1919-1.8114-.0298-1.1779,3.0817-3.5813,2.8646,1.1938-1.2648,2.8096-4.0281,1.2533-5.9085,1.3722-1.4309,3.4347-5.1056,6.0876-2.507Z" fill="#003790" fill-rule="evenodd" stroke-width="0"/><path d="M352.5445,123.1134c1.3636,2.8731,5.6029,2.8719,6.4462,6.2658-1.6448.3095-3.4151-.7459-5.0135-1.0734.6092-.4054,2.0736.0443,2.3274-.7165-.7585-1.3309-2.385-1.7936-3.5809-2.6861-.0505-.6062-.2853-1.028-.1792-1.7899Z" fill="#003790" fill-rule="evenodd" stroke-width="0"/><path d="M345.2035,123.6501c.8339-.0576.3137,1.2387.7163,1.6116,2.0188,1.9447,4.9386,2.6046,7.5198,4.1175,1.0889.6392,1.7921,2.0241,3.0439,2.5073.9384.3618,2.0684.0182,2.8643.7159.0422,1.4622,1.4065,2.8589.537,4.1178-2.7763-.8634-4.4095-2.871-6.4452-4.4761.4457.151.9595.2348,1.6116.1794.0396-1.2331-.977-1.41-1.6116-1.9693-3.555,3.0691-5.4208,7.8287-10.7429,9.1311-2.0933-2.9205-1.9599-8.0668-3.0439-11.9961,1.1379.9835.8752,2.6948,1.4332,3.9386.2395.5364.8067.7823,1.0736,1.2538.7301,1.2909.7365,2.9338,1.9693,3.7603,3.0647-1.651,5.855-3.5764,8.0579-6.0878-1.8712-2.5363-9.8912-1.7582-6.9833-6.8042Z" fill="#003790" fill-rule="evenodd" stroke-width="0"/><path d="M62.1302,131.8865c.2548,2.7138.9184,7.0181-.5376,8.9524-.086-1.7195-1.3784-5.0923-2.8645-5.3715-1.1295-.2129-1.5177.8842-2.6856,1.2528-1.628.5143-3.0755.1289-4.4761.3585.7548-.9755,1.9297-1.5312,3.0437-2.1484.6616-2.8402,4.638-5.6901,7.52-3.0439Z" fill="#003790" fill-rule="evenodd" stroke-width="0"/><path d="M357.8637,220.0534c.1215-2.1013.1968-4.2146.229-6.3388l-5.2266-.1921v-5.7833l5.2002-.2551c-.0565-2.124-.1649-4.2347-.3107-6.3353l-5.3261.2612c-.1714-2.0104-.3831-3.9841-.6177-5.9369l5.3555-.7336c-.2393-2.109-.5187-4.2055-.8465-6.2862l-5.3803.737c-.3395-2.1297-.7073-4.233-1.1219-6.293l5.276-1.2147c-.4285-2.0776-.9051-4.1373-1.4204-6.1818l-5.2225,1.2025c-.4798-1.9553-.9886-3.8833-1.5361-5.7746l5.0434-1.6346c-.6085-2.0305-1.2588-4.0426-1.952-6.0351l-5.0009,1.621c-.626-1.8461-1.2947-3.6506-1.9849-5.4346l4.8181-2.0324c-.7811-1.9693-1.6054-3.9165-2.4683-5.8428l-4.7778,2.0153c-.8141-1.8417-1.6645-3.647-2.5463-5.4214l4.5586-2.4099c-.95-1.8925-1.9404-3.7608-2.9689-5.6053l-4.5465,2.4035c-1.0432-1.8692-2.1226-3.7013-3.2395-5.4948l4.3165-2.8044c-1.1159-1.7986-2.2663-3.5731-3.4566-5.3186l-4.3366,2.8177c-1.2161-1.7627-2.4652-3.49-3.75-5.179l4.0914-3.2161c-1.2721-1.6903-2.5787-3.3534-3.9212-4.9859l-4.12,3.2388c-1.2378-1.4849-2.5021-2.9395-3.7906-4.3671l3.8463-3.5971c-1.4111-1.5754-2.8568-3.1185-4.334-4.6313l-3.856,3.6063c-.371-.3785-.7292-.7723-1.1036-1.1467-1.0323-1.0323-2.0976-2.0365-3.1612-3.0422l3.5247-3.925c-1.5416-1.4468-3.1113-2.8639-4.7142-4.2437l-3.5081,3.9065c-1.4116-1.2267-2.8543-2.4255-4.3208-3.6031l3.1483-4.1666c-1.6572-1.3117-3.3458-2.5846-5.0598-3.825l-3.122,4.1316c-1.6044-1.1732-3.243-2.3141-4.9126-3.426l2.7362-4.3647c-1.7642-1.1624-3.5534-2.2895-5.3696-3.3766l-2.7276,4.351c-1.6461-.9875-3.3273-1.9405-5.0361-2.8667l2.3502-4.5785c-1.8562-1.0065-3.7392-1.9695-5.6427-2.8971l-2.3556,4.5892c-1.7843-.8594-3.6044-1.6824-5.456-2.4739l1.9588-4.805c-1.9362-.84-3.8941-1.6388-5.8727-2.3967l-1.9765,4.8484c-1.9691-.7345-3.9757-1.4298-6.0196-2.0866l1.5497-5.0596c-2.0034-.661-4.0229-1.2864-6.0634-1.8624l-1.567,5.1163c-2.0286-.5534-4.0893-1.0728-6.1904-1.5492l1.1092-5.2763c-2.0529-.4763-4.1251-.902-6.2101-1.2911l-1.1106,5.2831c-1.8725-.3436-3.7653-.6654-5.6945-.9479l.6527-5.3468c-2.0858-.2979-4.1834-.5583-6.2964-.7674l-.6513,5.3356c-1.9519-.2109-3.9424-.3794-5.9512-.5278l.1819-5.2995c-2.1013-.1159-4.2155-.1823-6.3396-.2088l-.1793,5.2231h-5.6356l-.2611-5.1825c-2.1236.0599-4.235.1676-6.3352.3169l.2681,5.3195c-2.0106.1747-3.9837.3926-5.939.6313l-.7402-5.3502c-2.1085.2428-4.204.5274-6.2845.8587l.7441,5.3782c-1.9174.3098-3.8197.6363-5.6826,1.0076l-1.1987-5.2804c-2.0789.4227-4.139.8964-6.185,1.4061l1.1869,5.2284c-1.9572.4761-3.8811.9889-5.7766,1.5327l-1.6243-5.0648c-2.0322.6029-4.047,1.2454-6.0412,1.9329l1.6115,5.0247c-1.8774.6305-3.7154,1.3029-5.5305,1.9995l-2.0266-4.8368c-1.9711.7771-3.9177,1.6022-5.846,2.461l2.0053,4.786c-1.8444.8081-3.6535,1.6518-5.4318,2.5272l-2.397-4.5608c-1.8944.9461-3.7655,1.9312-5.6121,2.9557l2.3856,4.5391c-1.7018.9403-3.3719,1.9111-5.0112,2.9119l-2.7636-4.3152c-1.8053,1.1046-3.5858,2.2456-5.3386,3.4251l2.7666,4.3199c-1.6625,1.1252-3.292,2.28-4.8885,3.4654l-3.138-4.0703c-1.702,1.2568-3.374,2.5513-5.0186,3.8789l3.1505,4.0865c-1.6532,1.3481-3.2709,2.7263-4.8514,4.1363l-3.5201-3.8041c-1.5824,1.4034-3.135,2.839-4.6551,4.3087l3.5314,3.8162c-.5241.5092-1.0658,1.0043-1.5816,1.5201-.9883.9883-1.9612,1.9957-2.9238,3.0154l-3.8463-3.4709c-1.45,1.5386-2.8712,3.1044-4.2543,4.7045l3.8579,3.4815c-1.2574,1.4556-2.4875,2.9419-3.6921,4.4573l-4.1379-3.1351c-1.3132,1.656-2.5884,3.343-3.8304,5.0558l4.1211,3.1225c-1.1644,1.609-2.289,3.2601-3.3932,4.9327l-4.392-2.7613c-1.164,1.763-2.2934,3.5508-3.3823,5.3659l4.4038,2.7687c-.9567,1.6035-1.8909,3.2296-2.7919,4.8882l-4.6309-2.3911c-1.0103,1.8541-1.9764,3.7356-2.9079,5.6371l4.6368,2.3941c-.8659,1.7809-1.6926,3.5987-2.4939,5.44l-4.8454-1.9889c-.844,1.9347-1.6487,3.89-2.4106,5.867l4.8531,1.9921c-.6861,1.7874-1.3473,3.5971-1.9725,5.4388l-5.0045-1.5687c-.6736,1.9988-1.3007,4.0186-1.8894,6.0549l4.9758,1.5597c-.4484,1.5289-.8806,3.0717-1.2871,4.6364-.1319.5078-.2469,1.0289-.3719,1.5423l-5.0649-1.0993c-.4893,2.0504-.9335,4.1179-1.3357,6.2007l5.071,1.1006c-.3808,2.0581-.7161,4.1542-1.0086,6.2875l-5.2023-.6477c-.3023,2.0852-.5694,4.1818-.7829,6.2944l5.2523.6539c-.1927,1.9613-.3654,3.9414-.5029,5.9562l-5.2486-.1928c-.1203,2.1013-.1935,4.2149-.2243,6.339l5.2278.1921v5.7833l-5.1969.2549c.0577,2.1237.1659,4.2347.313,6.3351l5.3267-.2612c.1724,2.0105.3856,3.9833.6212,5.936l-5.3551.7335c.2406,2.1088.522,4.205.8511,6.2857l5.3791-.7369c.3404,2.1292.7097,4.2315,1.1253,6.2909l-5.2742,1.2143c.4297,2.0773.9062,4.1371,1.4227,6.1813l5.2224-1.2024c.4806,1.9537.9873,3.883,1.5355,5.7727l-5.039,1.6334c.6098,2.0302,1.2617,4.0417,1.956,6.0338l4.9966-1.6195c.6268,1.845,1.2971,3.648,1.9881,5.4308l-4.814,2.0306c.7822,1.9689,1.6062,3.9164,2.4702,5.8422l4.7759-2.0145c.8149,1.8401,1.6662,3.6438,2.5487,5.4165l-4.557,2.409c.951,1.8919,1.9428,3.7594,2.9723,5.6035l4.5451-2.4028c1.0439,1.8675,2.1237,3.6977,3.2409,5.4894l-4.3152,2.8037c1.1168,1.7978,2.2682,3.5716,3.4595,5.3164l4.3355-2.817c1.2163,1.7607,2.4654,3.4861,3.7502,5.1732l-4.0903,3.2155c1.2728,1.6897,2.5792,3.3529,3.9224,4.9846l4.1202-3.2388c1.2375,1.4829,2.5016,2.9356,3.7895,4.3614l-3.8462,3.597c1.4118,1.5746,2.8586,3.1171,4.3364,4.6293l3.8553-3.6058c.3556.3625.6986.7399,1.0574,1.0988,1.0466,1.0466,2.1264,2.0652,3.2052,3.0845l-3.5239,3.924c1.5422,1.4461,3.1127,2.8622,4.7163,4.2413l3.5067-3.905c1.4107,1.2249,2.8525,2.4217,4.318,3.5974l-3.148,4.1661c1.6576,1.3109,3.3469,2.5831,5.0613,3.8228l3.1216-4.131c1.6033,1.1711,3.2406,2.3102,4.9089,3.4202l-2.7358,4.3641c1.7645,1.1618,3.5541,2.2879,5.3706,3.3745l2.7274-4.3505c1.6446.9855,3.3243,1.9365,5.0315,2.861l-2.3503,4.5785c1.8566,1.0061,3.7395,1.9694,5.6433,2.8964l2.3562-4.5906c1.7824.8577,3.6007,1.679,5.4503,2.4691l-1.9594,4.8065c1.9365.8394,3.8946,1.6377,5.8735,2.395l1.9771-4.8498c1.9668.7331,3.971,1.4269,6.0126,2.0826l-1.5501,5.0611c2.0034.6607,4.023,1.2855,6.0636,1.861l1.5676-5.1178c2.0261.5523,4.0842,1.0708,6.1828,1.5463l-1.1096,5.2783c2.053.476,4.1252.9014,6.2103,1.2902l1.1109-5.2849c1.8702.3431,3.7603.6647,5.6869.9468l-.6527,5.3478c2.0858.2977,4.1833.5579,6.2963.7669l.6514-5.3362c1.9495.2106,3.9373.3788,5.9435.5272l-.1819,5.3c2.1013.1158,4.2154.1822,6.3394.2086l.1794-5.2232h5.628l.2611,5.1828c2.1236-.0598,4.2349-.1675,6.335-.3167l-.268-5.3191c2.0094-.1738,3.9801-.3898,5.9317-.6268l.7397,5.3464c2.1086-.2427,4.2043-.5271,6.2848-.8581l-.7428-5.3692c1.9159-.308,3.8178-.6308,5.6771-.9998l1.1952,5.2653c2.079-.4224,4.1392-.8957,6.1853-1.4051l-1.1822-5.208c1.9581-.4748,3.876-.9922,5.7699-1.5347l1.6194,5.0496c2.0323-.6025,4.0473-1.2446,6.0416-1.9317l-1.6064-5.0086c1.8762-.6301,3.7127-1.3013,5.5249-1.9975l2.0203,4.8221c1.9713-.7766,3.9182-1.601,5.8466-2.4594l-2.0013-4.7767c1.8418-.8091,3.6483-1.6535,5.4229-2.5303l2.3963,4.5592c1.8946-.9455,3.7661-1.9301,5.6131-2.9541l-2.3907-4.5484c1.6974-.9422,3.3636-1.9144,4.9986-2.9173l2.7766,4.3354c1.8058-1.104,3.5862-2.2453,5.3395-3.4241l-2.7881-4.3531c1.6564-1.1266,3.2807-2.2829,4.8722-3.4701l3.1716,4.1139c1.7025-1.2562,3.375-2.5499,5.0201-3.8769l-3.1932-4.142c1.6466-1.3475,3.2591-2.7251,4.8362-4.1343l3.5753,3.8635c1.5828-1.4027,3.1364-2.8373,4.657-4.3062l-3.5898-3.8793c.5584-.5423,1.1335-1.0704,1.6832-1.62.9514-.9515,1.8751-1.9357,2.8041-2.9137l3.921,3.5384.2201.1986,4.2494-4.7092-.2126-.1919-3.9055-3.5241c1.2634-1.4472,2.4989-2.9251,3.7108-4.43l4.1647,3.1554c1.3139-1.6553,2.5903-3.3415,3.8332-5.0536l-4.1313-3.1303c1.1743-1.6012,2.3166-3.2366,3.4299-4.9028l4.3658,2.7447c1.1651-1.7624,2.2957-3.5494,3.3855-5.3639l-4.3534-2.7368c.962-1.5984,1.8912-3.2303,2.7955-4.8878l4.5766,2.363c1.0114-1.8536,1.9787-3.7344,2.9114-5.6353l-4.5859-2.3679c.8636-1.7807,1.6919-3.5961,2.4878-5.444l4.8029,1.9713c.8452-1.9342,1.6513-3.8889,2.4144-5.8654l-4.8473-1.9897c.6722-1.7875,1.316-3.6022,1.9243-5.4516l5.0499,1.583c.6747-1.9984,1.3017-4.0183,1.8915-6.0543l-5.0914-1.5961c.567-2.0258,1.1036-4.0802,1.5934-6.1791l5.2496,1.1393c.4905-2.0501.9366-4.1171,1.34-6.1997l-5.2613-1.1419c.389-2.0498.7277-4.1462,1.0428-6.2643l5.3626.6677c.3035-2.0851.5722-4.1813.787-6.2939l-5.3538-.6666c.2151-1.951.3917-3.937.5442-5.9451l5.3115.1952ZM344.9513,224.9247c-.2113,2.133-.471,4.232-.779,6.2949-.2847,1.9067-.6041,3.7859-.9633,5.63-.4109,2.1087-.8715,4.1705-1.3689,6.1935-.4633,1.8838-.9586,3.7311-1.4872,5.5372-.6048,2.0666-1.246,4.0842-1.9232,6.0445-.5706,1.6522-1.166,3.2619-1.7788,4.8354-.492,1.2634-.9918,2.5103-1.5061,3.7212-.3058.7201-.6405,1.4133-.9556,2.1247-.7243,1.6345-1.4661,3.2523-2.2392,4.8405-.9323,1.9147-1.9007,3.7939-2.9033,5.6395-.7988,1.47-1.6054,2.9319-2.4484,4.3569-1.0837,1.8321-2.2072,3.6224-3.3632,5.3779-.9834,1.4935-1.9888,2.963-3.024,4.3998-1.2426,1.7248-2.5218,3.4087-3.8382,5.0498-1.0785,1.3445-2.1874,2.6537-3.3149,3.9406-1.3987,1.5967-2.8279,3.1566-4.301,4.6625-.0253.0258-.0487.0537-.074.0795-1.3052,1.3316-2.6374,2.6417-3.9894,3.9348-1.5249,1.4585-3.0777,2.8932-4.6656,4.297-1.4176,1.253-2.8627,2.4815-4.3333,3.6863-1.6304,1.3357-3.2938,2.641-4.9931,3.9121-1.4175,1.0602-2.8657,2.0907-4.3334,3.1022-1.733,1.1944-3.4986,2.3565-5.3049,3.4778-1.4506.9007-2.9385,1.7634-4.4385,2.6137-1.8271,1.0356-3.6914,2.0327-5.5947,2.9889-1.5801.7937-3.1955,1.5498-4.8301,2.2855-1.9108.8601-3.8609,1.6773-5.8492,2.4535-1.6149.6306-3.2585,1.2295-4.9263,1.802-1.9781.679-3.9938,1.3158-6.0488,1.9091-1.6955.4896-3.4059.9622-5.1553,1.3909-2.0298.4972-4.0878.9624-6.1924,1.374-1.6625.3252-3.3607.6092-5.0711.879-2.0573.3244-4.1592.5962-6.2876.8373-1.7432.1975-3.5134.3629-5.3057.5027-1.5785.1231-3.1416.2646-4.7591.3417-.5274.0251-1.0473.031-1.5721.0494-1.6824.0589-3.3512.0845-5.0059.0768-2.1378-.0101-4.2526-.0699-6.3403-.1842-1.7962-.0983-3.5708-.2364-5.327-.4064-2.1299-.2062-4.2298-.4605-6.2967-.7639-1.7182-.2523-3.4131-.5364-5.0849-.8501-2.1073-.3956-4.1749-.8378-6.2036-1.3217-1.8807-.4487-3.7336-.925-5.5422-1.4412-2.0683-.5902-4.0875-1.2221-6.0553-1.889-1.8342-.6216-3.6157-1.2772-5.357-1.9549-1.3489-.525-2.68-1.0596-3.9704-1.6129-.6365-.2729-1.2463-.5702-1.8755-.8498-1.633-.7257-3.2499-1.4661-4.8336-2.2369-1.9167-.9328-3.7965-1.8998-5.6419-2.8986-1.5138-.8194-3.0177-1.6479-4.484-2.5117-1.8339-1.0803-3.6267-2.1991-5.387-3.3486-1.4947-.9763-2.9625-1.978-4.4046-3.0042-1.7297-1.2308-3.4276-2.4919-5.0827-3.7947-1.3128-1.0333-2.5892-2.102-3.8555-3.1805-1.6125-1.3734-3.193-2.7783-4.731-4.225-1.2964-1.2195-2.5597-2.4717-3.8037-3.7432-1.4778-1.5105-2.924-3.0528-4.3286-4.6366-1.1364-1.2815-2.2411-2.5951-3.3303-3.9245-1.336-1.631-2.6405-3.2944-3.9061-4.9975-1.1323-1.5237-2.234-3.0789-3.3106-4.6604-1.184-1.7392-2.3373-3.5104-3.4548-5.3195-.9925-1.6068-1.9554-3.245-2.8961-4.9067-1.0346-1.8279-2.0394-3.6878-3.012-5.5823-.2068-.4027-.4271-.7907-.6311-1.1964-.5913-1.1761-1.1681-2.3745-1.7306-3.5928-.8727-1.8898-1.6986-3.8428-2.4946-5.8319-.6326-1.5803-1.2445-3.1845-1.8234-4.826-.6937-1.9669-1.3401-3.9832-1.9497-6.036-.5018-1.6902-.9723-3.4095-1.4121-5.1567-.5104-2.0274-.99-4.0816-1.4106-6.1841-.3711-1.8556-.6931-3.7491-.9891-5.6615-.3196-2.064-.5927-4.161-.8191-6.29-.1862-1.7513-.344-3.5211-.4636-5.3157-.1389-2.0848-.2356-4.1952-.2796-6.3367-.0348-1.6966-.0363-3.412-.0085-5.1434.0333-2.0862.1241-4.2025.2523-6.338.0618-1.0295.1125-2.0534.1971-3.0942.0609-.7487.1539-1.4759.2262-2.2172.2081-2.1319.4624-4.2303.7609-6.2972.2747-1.9023.5843-3.7754.9304-5.619.3955-2.1077.8294-4.1797,1.3108-6.2061.4474-1.8828.924-3.7339,1.4392-5.5424.5892-2.0684,1.2163-4.0902,1.886-6.0561.5626-1.6521,1.1542-3.2621,1.7675-4.838.4873-1.2521.9813-2.4936,1.4976-3.6954.313-.7288.6523-1.4276.9739-2.1466.7307-1.6333,1.4774-3.2487,2.2524-4.8316.9378-1.9151,1.9089-3.7927,2.9119-5.6351.7997-1.4688,1.6069-2.9291,2.4481-4.3524,1.0832-1.8327,2.2046-3.6238,3.357-5.3818.9794-1.4942,1.9792-2.9665,3.0084-4.4075,1.2344-1.728,2.5054-3.4174,3.8119-5.0698,1.068-1.3507,2.1649-2.6713,3.2812-3.9723,1.379-1.6073,2.7887-3.1834,4.2418-4.7158,1.3137-1.3856,2.6603-2.7383,4.0345-4.0635,1.5206-1.4662,3.0765-2.8975,4.6713-4.291,1.4288-1.2484,2.8854-2.4695,4.3739-3.6604,1.6449-1.316,3.3307-2.5931,5.0487-3.8401,1.4324-1.0396,2.8902-2.0553,4.3734-3.0475,1.7478-1.1692,3.527-2.3096,5.3457-3.4141,1.4554-.8838,2.9466-1.7355,4.4475-2.5785,1.8303-1.028,3.6931-2.0273,5.5911-2.9956.2852-.1455.5583-.3014.845-.4455,1.2936-.6503,2.6315-1.2541,3.9632-1.8645,1.9039-.8725,3.8493-1.7011,5.835-2.4875,1.6087-.6372,3.2511-1.239,4.9164-1.8169,1.9731-.6846,3.9881-1.3255,6.0446-1.923,1.6914-.4914,3.4023-.9626,5.1527-1.3925,2.0261-.4975,4.0838-.962,6.1923-1.3735,1.6614-.3244,3.3539-.6166,5.0685-.8856,2.0525-.3219,4.1573-.5892,6.2887-.8289,1.7391-.1955,3.5103-.3576,5.3039-.4965,1.5778-.1222,3.1363-.2645,4.7574-.3417.5274-.0251,1.0487-.0311,1.574-.0495,1.6792-.0587,3.3471-.0842,5.0032-.0762,2.1347.0104,4.2492.0707,6.3404.1847,1.7931.0978,3.5674.2343,5.3246.4029,2.128.2042,4.2283.4558,6.2977.7556,1.7174.2488,3.4126.5287,5.0857.8378,2.1079.3893,4.1772.8244,6.2082,1.3004,1.8833.4413,3.7398.9093,5.5512,1.4164,2.0728.5805,4.0944,1.2027,6.0647,1.8579,1.8423.6127,3.6304,1.2587,5.3757,1.9265,1.3781.5274,2.7364,1.0645,4.0501,1.6207.6129.2596,1.2015.5453,1.8081.8117,1.6383.7198,3.2612,1.4563,4.8528,2.2263,1.9163.9272,3.7974,1.8915,5.6459,2.8907,1.5174.82,3.0247,1.651,4.4963,2.519,1.831,1.0801,3.6231,2.2009,5.3835,3.3544,1.4958.9801,2.9661,1.9862,4.4109,3.0186,1.7261,1.2334,3.4212,2.4987,5.0745,3.8059,1.3129,1.038,2.5896,2.1123,3.8567,3.1962,1.6092,1.3767,3.1863,2.7853,4.7217,4.2352,1.2964,1.2242,2.5596,2.4813,3.8035,3.7571,1.4757,1.5138,2.9188,3.0589,4.3202,4.6442,1.1369,1.2859,2.2414,2.6026,3.3295,3.935,1.3349,1.6345,2.6364,3.3005,3.8979,5.004,1.1323,1.5289,2.2325,3.0876,3.3057,4.6714,1.1819,1.7441,2.3308,3.5187,3.4411,5.3284.9897,1.613,1.9475,3.255,2.8803,4.9195,1.0287,1.8354,2.0246,3.7004,2.9841,5.5973.208.4112.4312.8087.636,1.2228.5778,1.1686,1.1145,2.3875,1.6631,3.5921.8656,1.9013,1.6909,3.8478,2.4782,5.8387.625,1.5809,1.2215,3.1905,1.7932,4.8277.6888,1.9724,1.3372,3.9837,1.9435,6.0377.4993,1.6918.9854,3.3954,1.4252,5.1426.5103,2.0274.9915,4.081,1.4168,6.1826.3743,1.8497.6956,3.7435,1.0005,5.6506.3291,2.0588.6027,4.1608.8466,6.2862.2004,1.746.3653,3.5172.5055,5.3081.1211,1.5462.2635,3.077.3381,4.6566.0266.5626.0329,1.1157.0519,1.6749.0589,1.7349.0837,3.4533.0723,5.1534-.0144,2.1419-.0798,4.256-.1982,6.3399-.1021,1.7998-.2431,3.576-.4168,5.3305Z" fill="#003790" stroke-width="0"/><path d="M175.3566,175.9409c-2.1613-.8834-4.2198-1.8679-6.4456-2.6856-11.7884,36.1353-23.0205,72.8301-34.7354,109.0385-2.753-.7675-5.0975-1.9443-7.6992-2.8639-1.2549,3.3405-3.0011,6.1896-4.1183,9.6682,6.7641,3.7029,15.5197,7.387,26.3208,5.372.5346-1.7931,1.3999-3.2542,1.9694-5.0137-3.2349-1.3609-6.4419-2.7489-9.4899-4.2963,11.396-36.4089,22.827-72.7858,34.1983-109.2193Z" fill="#003790" stroke-width="0"/><rect x="198.569" y="98.2261" width="18.513" height="74.0521" fill="#003790" stroke-width="0"/><rect x="220.5684" y="98.2261" width="13.464" height="74.0521" fill="#003790" stroke-width="0"/><rect x="155.1647" y="136.6689" width="39.5292" height="10.8951" fill="#003790" stroke-width="0"/><polygon points="155.1647 160.7626 194.6939 160.7626 194.6939 149.8206 155.1647 149.8675 155.1647 160.7626" fill="#003790" stroke-width="0"/><polygon points="252.2239 172.2782 268.3144 172.2782 276.6267 163.7136 250.2858 106.6411 237.5166 111.6901 237.5433 136.9351 252.2239 172.2782" fill="#003790" stroke-width="0"/><path d="M194.6939,104.5447s-8.7536,10.5788-23.2999,12.2503c-14.5463,1.6715-17.8745,7.064-24.6254,11.0998v6.474h47.9253v-29.824Z" fill="#003790" stroke-width="0"/><rect x="178.5743" y="236.2438" width="60.3494" height="10.098" fill="#003790" stroke-width="0"/><rect x="158.294" y="277.281" width="100.9095" height="25.079" fill="#003790" stroke-width="0"/><path d="M167.8846,260.9498c-.6044.6706-.9389,1.5408-.9389,2.444v8.6952h83.6065v-8.6952c0-.9031-.3345-1.7734-.9389-2.444l-8.6155-9.5589h-64.4977l-8.6155,9.5589Z" fill="#003790" stroke-width="0"/><polygon points="155.1647 173.9612 163.5029 173.9612 165.3884 167.774 181.7184 173.9612 194.6939 173.9612 194.6939 163.0619 155.1647 163.0619 155.1647 173.9612" fill="#003790" stroke-width="0"/><polygon points="162.8997 175.9409 138.3544 175.9409 138.3544 209.1604 150.6355 216.1834 162.8997 175.9409" fill="#003790" stroke-width="0"/><polygon points="135.3734 175.9409 115.1971 175.9409 115.0175 195.8148 135.3734 207.4553 135.3734 175.9409" fill="#003790" stroke-width="0"/><path d="M256.5927,175.9409h-75.4459l-15.2514,48.969,8.9241,5.1032h62.5407c5.9287-6.0146,12.3616-11.5304,19.2325-16.4767v-37.5956Z" fill="#003790" stroke-width="0"/><path d="M262.3933,209.5648c2.3285-1.5154,4.6969-2.9748,7.1129-4.362v-29.2619h-7.1129v33.6239Z" fill="#003790" stroke-width="0"/><path d="M321.5572,217.1538v-22.3894l-4.9319-2.7069v-4.1155c.5806-.1077,1.1538-.235,1.7372-.3353l.0526-.0271v-8.5892h-43.099v23.0821c11.4359-5.9111,23.7215-10.4004,36.6402-13.2093v3.2197l-4.8851,2.6815v22.3894l4.8851,1.9542v7.115l-4.8851,2.6815v22.3894l4.8851,1.9542v21.5265h4.6689v-21.5076l4.9319-1.9731v-22.3894l-4.9319-2.7078v-7.0698l4.9319-1.9731ZM317.9513,234.0085l.0288.0353v11.0348l-.0267.032c-.8357,1.0231-2.0914,1.6896-3.5156,1.6896s-2.6802-.6665-3.516-1.6896l-.0267-.032v-11.0348l.0288-.0353c.8357-1.0215,2.0906-1.6871,3.5139-1.6871s2.6778.6656,3.5135,1.6871ZM314.4378,212.6611c-1.4246,0-2.6802-.6673-3.516-1.6904l-.0267-.032v-11.0348l.0288-.0345c.8357-1.0215,2.0906-1.6871,3.5139-1.6871s2.6778.6656,3.5135,1.6871l.0288.0345v11.0348l-.0267.032c-.8357,1.0231-2.0914,1.6904-3.5156,1.6904Z" fill="#003790" stroke-width="0"/><path d="M186.2466,315.1976c-.3197,1.3732-.7519,1.9205-1.0511,2.1333-.272.1874-.8949.4109-2.31.4109h-.5884v2.7439h3.4137v11.6573h3.1334v-17.4007h-2.4916l-.106.4553Z" fill="#003790" stroke-width="0"/><path d="M206.4205,322.6609c.2128-.1742.3895-.3534.5325-.5407.5391-.6854.8127-1.6066.8127-2.7373,0-1.2236-.4027-2.2771-1.1982-3.1326-.9303-1.0009-2.2451-1.508-3.9067-1.508-1.7537,0-3.1014.5966-4.0054,1.7734-.6747.8785-1.0174,1.9328-1.0174,3.1359,0,1.3264.4717,2.3675,1.3765,3.0636-.4602.3246-.8423.71-1.1406,1.1513-.4873.7232-.7347,1.6247-.7347,2.6806,0,.7215.0699,1.3395.2071,1.8317.2523.936.7569,1.7282,1.4989,2.3552.59.5013,1.3017.8719,2.1144,1.1028.5769.1635,1.1776.2465,1.7841.2465,1.8079,0,3.2329-.5884,4.233-1.7479.8694-1.0017,1.3099-2.2837,1.3099-3.8114,0-.8325-.175-1.6066-.5227-2.3043-.3172-.6237-.7675-1.1447-1.3436-1.5589ZM202.8063,329.1374c-.9492,0-1.6181-.281-2.0438-.8555-.3295-.452-.4898-1.0042-.4898-1.6904,0-.6459.2054-1.1866.627-1.6534.4084-.4495.9976-.6681,1.8022-.6681.7437,0,1.3296.203,1.7907.6196.4446.4027.6607,1.0108.6607,1.8589,0,.9212-.2457,1.5597-.7486,1.9509-.378.2909-.9163.438-1.5984.438ZM201.074,318.2981c.3016-.4109.7864-.6106,1.4825-.6106.8012,0,1.3715.2054,1.7405.6246.2671.3098.3977.6821.3977,1.1373,0,.5876-.1775,1.0469-.5424,1.4052-.7002.6878-2.0676.7503-2.8935.0222-.3698-.3254-.5498-.7552-.5498-1.3148,0-.5177.1192-.9311.3649-1.2639Z" fill="#003790" stroke-width="0"/><path d="M218.6675,314.7423c-1.651,0-2.988.6237-3.9791,1.8572-.8711,1.1012-1.3132,2.49-1.3132,4.1262,0,1.7003.4865,3.0825,1.4455,4.1073.9697,1.0379,2.2369,1.5638,3.767,1.5638.8062,0,1.5827-.1964,2.3076-.5851.0682-.0362.1339-.074.1989-.1126-.2145,1.0576-.4922,1.8786-.8308,2.4514-.4512.7651-1.0313,1.1217-1.8243,1.1217-.6015,0-1.0552-.1676-1.3872-.5144-.3369-.3501-.5013-.8316-.5013-1.4718v-.5884h-3.0094v.5884c0,1.1439.3427,2.1687,1.0165,3.0439.8908,1.1636,2.2106,1.7537,3.9224,1.7537,1.7085,0,3.0891-.7322,4.1048-2.1761.7273-1.0387,1.2434-2.43,1.5343-4.1344.1709-1.0009.258-2.0594.258-3.1441,0-1.9871-.2917-3.6224-.867-4.86-.9335-2.0084-2.5631-3.0266-4.8427-3.0266ZM221.0564,320.4569c0,1.1883-.2893,2.0405-.8555,2.5303-.3657.3115-.8127.4635-1.3666.4635-.6788,0-1.2138-.1529-1.586-.4503-.5317-.4323-.8021-1.2277-.8021-2.3643,0-.9327.2161-1.6756.641-2.2065.4002-.4996.9237-.7421,1.6016-.7421.8127,0,1.402.2539,1.8022.7774.3747.489.5654,1.1595.5654,1.992Z" fill="#003790" stroke-width="0"/><path d="M238.7714,321.6633c-.9566-.8045-2.084-1.2121-3.3504-1.2121-1.0198,0-1.9172.2515-2.6675.7462-.0312.0214-.0625.0419-.0929.0641.1035-.5769.263-1.1299.4775-1.6551.5292-1.291,1.2705-1.9189,2.2656-1.9189.5835,0,1.0215.166,1.3379.5054.2934.3164.4955.7938.6007,1.4209l.0822.4914h2.8762v-.5884c0-1.6518-.5835-2.9255-1.7348-3.7843-.8777-.6574-1.9279-.9902-3.1211-.9902-2.1925,0-3.8344,1.0979-4.8814,3.2666-.7421,1.5507-1.1184,3.4819-1.1184,5.7393,0,1.1957.0871,2.2673.2589,3.1869.1783.9508.4972,1.8178.9467,2.5763.5391.9122,1.2425,1.5975,2.0857,2.0347.6796.3567,1.4159.5374,2.1884.5374,1.0387,0,1.9131-.1619,2.6042-.4824.5457-.258,1.0667-.6788,1.5491-1.2466,1.019-1.1949,1.5351-2.6486,1.5351-4.3226,0-1.8753-.6196-3.3455-1.8416-4.3686ZM237.5421,326.1215c0,.9327-.2178,1.6633-.6656,2.2336-.4134.5259-.9426.7823-1.6189.7823-.8242,0-1.4389-.2884-1.8827-.8859-.4092-.5416-.6089-1.2014-.6089-2.0183,0-.8555.2128-1.5367.6508-2.0832.4068-.507.982-.7536,1.7578-.7536.8292,0,1.4332.2909,1.849.89.3484.5005.5185,1.1004.5185,1.835Z" fill="#003790" stroke-width="0"/><path d="M37.0823,250.7232c.4824,0,.9804-.0452,1.4932-.1348,1.7685-.3098,3.1187-1.0543,4.016-2.2172.3304-.4347.6163-.9968.8678-1.7027.6221.5621,1.3453.9524,2.1588,1.1653.8514.2243,1.766.2556,2.7193.0871,1.7307-.3024,3.0866-1.0765,4.0349-2.3051,1.0026-1.3222,1.3403-2.9716,1.0034-4.9027l-1.6173-9.2335-23.092,4.039,1.5811,9.042c.3953,2.2558,1.4217,3.9503,3.0496,5.035,1.1176.7503,2.3864,1.1275,3.7851,1.1275ZM49.2808,243.0478c-.3386.581-.9352.9385-1.8235,1.0938-1.102.1931-1.9131.0403-2.4736-.4643-.5218-.475-.8933-1.3305-1.1045-2.545l-.738-4.2116,5.5906-.9771.7404,4.2396c.2268,1.2927.1627,2.2566-.1915,2.8647ZM39.5682,237.546l.8136,4.6496c.2087,1.2031.1668,2.1876-.1249,2.9247-.3583.8974-1.1078,1.434-2.2895,1.6411-1.1135.1939-1.9928.051-2.6905-.4413-.6903-.484-1.1464-1.3395-1.3559-2.5418l-.8892-5.0885,6.5364-1.1439Z" fill="#003790" stroke-width="0"/><polygon points="37.3239 258.5573 43.3369 256.7962 46.4062 267.2813 50.096 266.2023 47.0258 255.7164 52.443 254.1303 55.7696 265.4955 59.461 264.4157 55.0464 249.332 32.5461 255.9185 37.0166 271.1888 40.7047 270.1098 37.3239 258.5573" fill="#003790" stroke-width="0"/><rect x="38.5113" y="270.7569" width="23.4427" height="3.8757" transform="translate(-93.7791 35.7425) rotate(-20.8525)" fill="#003790" stroke-width="0"/><path d="M52.2367,290.2442l15.3097-7.009-1.6132-3.523-15.4782,7.0862c-.9911.4528-1.8096.6221-2.4284.4996-.6829-.1331-1.2113-.6287-1.6173-1.517-.3402-.7396-.3986-1.3453-.1767-1.8515.2589-.5966.9097-1.1373,1.9345-1.6066l1.946-.89-1.5441-3.3718-2.5368,1.1612c-1.3715.6278-2.3988,1.5532-3.0504,2.7472-.8859,1.6074-.8604,3.4589.074,5.501.7223,1.5795,1.7865,2.679,3.1663,3.2682.6928.2926,1.4381.4388,2.232.4388,1.1604,0,2.4251-.3115,3.7826-.9335Z" fill="#003790" stroke-width="0"/><rect x="47.8642" y="291.1937" width="23.4437" height="3.874" transform="translate(-131.9012 63.3292) rotate(-28.3133)" fill="#003790" stroke-width="0"/><polygon points="79.325 303.0591 65.6506 311.903 74.3697 295.4362 72.1024 291.9692 52.4586 304.761 54.5254 307.9371 68.2499 299.0603 59.5843 315.7054 61.7464 319.027 81.3935 306.2344 79.325 303.0591" fill="#003790" stroke-width="0"/><path d="M81.1256,311.447c-2.7505.2482-5.3654,1.4036-7.7724,3.4334-1.3896,1.1735-2.4563,2.264-3.1688,3.2395-1.2236,1.6674-1.9616,3.5525-2.1917,5.5971-.1307,1.0486-.0863,2.0405.1315,2.9485.3115,1.2935.9927,2.5722,2.0257,3.7983.9196,1.0889,2.0602,1.9123,3.3923,2.4481.9064.3624,1.8219.5646,2.7357.6048l-1.3214,1.7315,1.8161,2.1498,10.0002-8.4372-6.4074-7.5941-2.8639,2.4185,4.0045,4.7507c-.7832.6089-1.5491,1.0658-2.2829,1.3617-.8333.3378-1.7496.4281-2.7308.2761-.7823-.1224-1.494-.3994-2.1128-.821-.415-.2893-.8374-.6862-1.2549-1.1801-1.443-1.7126-1.8128-3.4663-1.1308-5.3596.5514-1.5318,1.8276-3.1491,3.7933-4.8074,2.0388-1.7183,4.0579-2.6313,5.9998-2.7143,1.7742-.0633,3.1869.5235,4.2806,1.8186.807.9566,1.291,1.9534,1.4381,2.9617.1898,1.3214-.1972,2.5935-1.1825,3.8895l-.2852.3756,2.416,2.8655.4536-.4848c1.7118-1.8317,2.5294-3.9659,2.4292-6.345-.0929-2.0848-.8464-3.9807-2.2402-5.6349-2.0824-2.4686-4.7737-3.5739-7.9713-3.2904Z" fill="#003790" stroke-width="0"/><path d="M125.8846,347.551l-9.2212,14.3121c-.5868.9138-1.1842,1.4956-1.775,1.7298-.6484.2539-1.36.1224-2.1802-.4051-.6845-.4405-1.0593-.9196-1.1456-1.4652-.1035-.6418.1529-1.448.7634-2.3963l1.1587-1.7981-3.117-2.0084-1.5129,2.3462c-.816,1.2688-1.1817,2.6009-1.088,3.9585.1224,1.8326,1.1406,3.3783,3.0266,4.5937,1.1604.7462,2.3371,1.1217,3.5106,1.1217.3057,0,.6122-.0255.9171-.0764,1.8219-.3106,3.4367-1.5417,4.8017-3.6594l9.1185-14.1543-3.2567-2.0988Z" fill="#003790" stroke-width="0"/><rect x="116.0956" y="360.3599" width="23.4431" height="3.8737" transform="translate(-250.9978 298.3015) rotate(-60.9786)" fill="#003790" stroke-width="0"/><path d="M126.2577,375.0559l3.6766,1.6789,4.5658-5.0474,6.5126,2.9625-.8744,6.7139,3.7966,1.7372,2.7809-24.4915-3.5575-1.6189-16.9007,18.0652ZM137.1816,368.6838l5.2257-5.6177-1.0215,7.5291-4.2042-1.9115Z" fill="#003790" stroke-width="0"/><path d="M162.9468,364.0745c-3.403-1.0774-6.4649-.5169-9.0954,1.6682-2.0314,1.6863-3.5304,4.0275-4.4549,6.958-.9212,2.914-1.0322,5.6949-.3295,8.2638.8949,3.2978,3.0661,5.5133,6.4543,6.5849,1.1209.355,2.2048.5317,3.2477.5317,2.1251,0,4.0826-.7347,5.8453-2.1991,2.0273-1.6789,3.5271-4.0193,4.4573-6.9588.9229-2.914,1.0338-5.6949.3295-8.2638-.8974-3.2986-3.0685-5.5141-6.4543-6.5849ZM165.2979,377.73c-.761,2.4079-1.9525,4.2108-3.541,5.358-1.5548,1.1234-3.2164,1.3839-5.0769.7963-1.8597-.5892-3.0685-1.757-3.6947-3.5706-.6402-1.8515-.5777-4.0111.1849-6.4197.761-2.4078,1.9525-4.21,3.541-5.358,1.0182-.7355,2.0807-1.1012,3.214-1.1012.5991,0,1.2187.1027,1.8613.3065,1.8622.5876,3.08,1.7742,3.721,3.6249.6229,1.817.5522,3.9577-.2096,6.3639Z" fill="#003790" stroke-width="0"/><polygon points="189.2528 370.8533 172.1819 367.5408 171.4522 371.3152 178.084 372.6021 174.3498 391.8408 178.1538 392.5795 181.8863 373.34 188.5181 374.627 189.2528 370.8533" fill="#003790" stroke-width="0"/><path d="M199.1166,371.104c-3.5567-.2778-6.414.9607-8.4824,3.6807-1.5951,2.0939-2.527,4.7129-2.7686,7.7847-.2408,3.0455.2794,5.7796,1.5466,8.1241,1.6189,3.011,4.2354,4.6792,7.7781,4.9578.3279.0255.6492.0386.9648.0386,3.1113,0,5.6366-1.2483,7.5168-3.7185,1.5951-2.0996,2.5261-4.7187,2.7678-7.7855.2391-3.0447-.281-5.7779-1.5466-8.1249-1.6205-3.0102-4.2371-4.6784-7.7765-4.957ZM204.4935,383.8761c-.1972,2.5171-.95,4.5428-2.2377,6.0195-1.2606,1.4447-2.822,2.0742-4.7663,1.9221-1.9468-.1537-3.389-1.0182-4.4072-2.6428-1.042-1.6608-1.4702-3.7785-1.2705-6.2948.1972-2.5171.9508-4.5428,2.2377-6.0195,1.1382-1.3058,2.5188-1.9452,4.2075-1.9452.1824,0,.369.0074.5588.023,1.9468.1529,3.3997,1.033,4.4425,2.6913,1.0174,1.6263,1.4332,3.7276,1.2351,6.2463Z" fill="#003790" stroke-width="0"/><polygon points="223.7494 371.8017 224.4504 388.0713 214.6679 372.2126 210.5302 372.4106 211.6101 395.828 215.3935 395.6538 214.6926 379.3251 224.655 395.2281 228.6127 395.0457 227.5361 371.6275 223.7494 371.8017" fill="#003790" stroke-width="0"/><path d="M240.0469,380.1641l.6402,3.6964,6.1255-1.0585c.1282.9804.1348,1.8728.0205,2.6576-.1307.8908-.5144,1.7307-1.1431,2.4974-.4988.613-1.0979,1.0872-1.7767,1.4085-.4561.212-1.0116.3747-1.6501.4848-2.2048.3797-3.9076-.1841-5.1969-1.7298-1.0437-1.2491-1.7948-3.1671-2.232-5.7023-.4544-2.6256-.2227-4.8296.6878-6.5504.8399-1.5778,2.0602-2.4851,3.7317-2.7743,1.2351-.2128,2.3396-.1274,3.2822.2548,1.2343.5013,2.1374,1.4784,2.7587,2.9855l.18.4364,3.6939-.6385-.189-.6352c-.7141-2.4012-2.1432-4.1853-4.2494-5.3021-1.8457-.9738-3.8615-1.282-5.9941-.9122-3.1811.5489-5.4911,2.3043-6.8676,5.2175-1.1743,2.4974-1.4973,5.3366-.9607,8.4397.3073,1.7857.71,3.2567,1.1949,4.371.8218,1.9032,2.0766,3.4926,3.7227,4.7203.8341.6402,1.7126,1.1028,2.6116,1.3765.7445.226,1.5491.3386,2.4062.3386.6065,0,1.2392-.0567,1.895-.1701,1.4036-.2416,2.6905-.8111,3.8254-1.6904.77-.5966,1.4069-1.2844,1.9057-2.0553l.8259,2.0158,2.7719-.4807-2.2303-12.8937-9.7899,1.6929Z" fill="#003790" stroke-width="0"/><path d="M293.7345,349.7649l-3.4268,1.8054,6.8388,12.9759c.9442,1.7948,1.1916,3.3504.7347,4.6225-.369,1.0223-1.1184,1.8186-2.2895,2.4358-1.1332.5958-2.1794.7404-3.1992.4388-1.2779-.3821-2.4078-1.4899-3.3586-3.2929l-6.8076-12.9208-3.4285,1.8063,7.2004,13.6613c1.1217,2.1292,2.6428,3.5945,4.5206,4.3538.8538.3484,1.7364.5227,2.6437.5227,1.3337,0,2.7217-.3764,4.1483-1.1283,2.476-1.3058,3.9996-3.1302,4.5288-5.4229.4742-2.0717.106-4.2765-1.0938-6.5529l-7.0114-13.3046Z" fill="#003790" stroke-width="0"/><polygon points="306.6208 341.0409 315.8313 354.4704 299.1344 346.2 295.7298 348.5601 309.0467 367.8514 312.1687 365.6991 302.9245 352.2203 319.7972 360.4324 323.0564 358.1799 309.7387 338.8878 306.6208 341.0409" fill="#003790" stroke-width="0"/><rect x="318.9294" y="333.0041" width="3.8749" height="23.4424" transform="translate(-145.8363 281.644) rotate(-39.3553)" fill="#003790" stroke-width="0"/><polygon points="327.0716 323.2313 335.4735 339.5008 319.494 330.5615 316.4312 333.5142 338.2495 345.0248 340.9227 342.4403 330.1352 320.2572 327.0716 323.2313" fill="#003790" stroke-width="0"/><polygon points="348.5636 328.6443 343.7258 324.6653 350.6649 316.2281 347.6942 313.7849 340.7567 322.2229 336.3972 318.6383 343.9197 309.4919 340.949 307.0488 330.9652 319.1881 349.0698 334.0796 359.1802 321.7899 356.2094 319.3475 348.5636 328.6443" fill="#003790" stroke-width="0"/><path d="M370.0424,302.4772c-.4487.2087-.6903.2079-.793.1907-.1307-.0238-.4413-.1224-1.0774-.5325l-3.4589-2.0314c-1.2902-.8308-2.3914-1.194-3.366-1.1012-.3747.0288-.7832.1471-1.2343.3616-.0756-.687-.2285-1.2927-.4569-1.8104-.489-1.093-1.4094-2.0799-2.7349-2.9346-1.9821-1.2762-3.8862-1.5852-5.6579-.9122-1.3855.5268-2.6445,1.6583-3.7399,3.3619l-5.321,8.2523,19.7071,12.6998,2.0996-3.2567-8.0288-5.1739,3.2189-4.9956c.6722-1.0428,1.3987-1.5491,2.2188-1.5491h.0041c.5711.0016,1.3206.2991,2.2278.8842.7207.4643,1.5827.9746,2.582,1.5302,1.0133.5621,1.8548.9524,2.5031,1.1612l.4306.1389,2.3601-3.6569-1.1891-.7626-.2942.1364ZM355.8947,302.7953l-3.0677,4.7622-5.3703-3.4597,3.3241-5.1591c.4553-.7051.9524-1.1751,1.4808-1.3978.7552-.3213,1.6888-.1274,2.776.5744,1.1078.7133,1.6625,1.471,1.6962,2.324.0345.6467-.2482,1.4398-.839,2.356Z" fill="#003790" stroke-width="0"/><path d="M374.5006,282.0478c-1.623-.7971-3.1786-1.0198-4.6266-.6591-1.2466.3197-2.3955,1.0749-3.4194,2.2484l-3.818,4.4697c-.4101.4717-.8242.7864-1.2368.9376-.4643.1759-1.0001.1093-1.6353-.2022-1.1464-.5637-1.7487-1.3543-1.8424-2.4136-.0633-.7741.143-1.6542.6139-2.6133.5276-1.0741,1.2351-1.8457,2.1054-2.2952,1.0108-.5309,2.1087-.4922,3.352.1183l.5292.2605,1.6329-3.3298-.5284-.2589c-1.7413-.8555-3.4013-1.1505-4.9315-.8719-2.3289.406-4.2338,2.0873-5.6604,4.9981-1.0716,2.1785-1.208,4.2478-.4068,6.1502.6952,1.6394,1.9854,2.9313,3.8344,3.8385,1.6773.8234,3.2846.9237,4.7819.2942.8653-.369,1.7093-1.0215,2.5114-1.9427l2.7365-3.2066c1.3198-1.5302,2.1185-2.0602,2.5566-2.2344.5646-.226,1.2869-.1249,2.1448.2934.8431.415,1.3461,1.0091,1.5367,1.8161.235,1.0009-.0148,2.2591-.7429,3.7407-.6147,1.2549-1.4052,2.1284-2.3495,2.5968-1.176.5826-2.4727.5103-3.9634-.2219l-.5284-.2605-1.6362,3.3298.5292.2597c1.0889.5342,2.1473.8818,3.1466,1.033.2999.0452.6048.0682.9155.0682.7577,0,1.5433-.1356,2.3437-.406.9187-.3041,1.7052-.724,2.3404-1.2475.9508-.7864,1.8194-1.9723,2.5804-3.523.9639-1.9583,1.3329-3.8492,1.0954-5.6226-.3189-2.2804-1.651-4.0111-3.961-5.1443Z" fill="#003790" stroke-width="0"/><rect x="369.8253" y="263.348" width="3.8743" height="23.4429" transform="translate(-20.8154 519.514) rotate(-68.4071)" fill="#003790" stroke-width="0"/><polygon points="371.2266 251.8203 367.5516 250.6879 362.4336 267.3026 366.1086 268.435 368.0973 261.9792 386.8256 267.7489 387.9663 264.0459 369.2379 258.2762 371.2266 251.8203" fill="#003790" stroke-width="0"/><polygon points="383.8015 240.4387 371.3713 230.1295 370.5856 234.586 379.5052 241.6377 368.675 245.1598 367.8894 249.6056 383.1178 244.2526 392.3652 245.9093 393.0481 242.0954 383.8015 240.4387" fill="#003790" stroke-width="0"/></g></svg>