<?xml version="1.0" encoding="UTF-8"?><svg id="b" xmlns="http://www.w3.org/2000/svg" viewBox="0 0 82.8534 82.8534"><g id="c"><path d="M56.0619,13.1024c-1.0016.9713-1.9932,1.9325-2.9645,2.8835-.7588.7386-1.4873,1.4671-2.2158,2.1753l-.0101.0101-.0101.0101-.4351.4351-.0101.0202-.0202.0101h-.0101l-.0101.0101-.0202.0202-.0202.0101-.0101.0101-.0101.0101-.0809.0809-.0101.0101-.0101.0101-.0202.0202-.0202.0202-.0101.0101-.0101.0101-.0809.0809-.0101.0101h0l-.0202.0202-.0304.0304h0l-.0911.0911-.3136.3035c-.344.344-.6981.688-1.0118,1.0421-.5261.6071-.9713,1.2647-1.3153,1.9628-.3642.7082-.6273,1.4569-.7993,2.2259-.1416.6071-.2226,1.1838-.2327,1.7301-.0202.5464.0304,1.0624.1619,1.5581.1113.4148.2327.7689.4351,1.1028s.4856.6576.8904,1.0219c.4249.3744.8701.6779,1.2951.9814.4249.2934.8296.5767,1.2242.9207l-.0101-.0202c.2631.2226.516.4755.7386.7588-.5666-2.3271-1.204-4.3202.5362-7.0014.4249-.6273.9106-1.2141,1.4165-1.7807.3035-.3339.6172-.6779.9409-1.0118l.0809-.0809h0c.2934-.3035.5868-.6071.8904-.9005l.4856-.4654c.1416-.1416.2833-.2226.4148-.2631.1922-.0506.3642-.0101.4958.1214.1315.1315.1821.3238.172.5261,0,.1619-.0405.3238-.0809.4856-.9814,3.5311-1.9426,7.0621-2.9139,10.5932-.1315.4654-.2631.9409-.3744,1.4064-.0405.1619-.0911.3845-.0708.5969.0202.1922.0911.3946.2934.5666.172.1518.3541.2732.5362.3845.1922.1113.3845.2024.5767.2833.4654.1821.9511.2833,1.4468.3238.5059.0405,1.0118.0101,1.5075-.0506,1.032-.1315,2.0336-.4452,2.9746-.9106.9207-.4654,1.7908-1.0826,2.5699-1.8616l2.7318-2.7318v-.0101l.4047-.3845h0c1.2242-1.2546,2.5496-2.4788,3.8143-3.7031l-1.9932-1.9831-1.9729-1.9729-3.7536,3.7536h0l-1.6896,1.6694-1.4873,1.4873c-.2024.172-.4047.3136-.6172.4148-.2327.1113-.4755.1922-.7082.2327l-.1821.0304-.172.0202c-.5565.0405-.7184-.172-.7386-.4755-.0101-.1214.0202-.2226.0405-.3339.9915-4.1887,2.3068-8.5089,3.4299-12.6875l-3.9256-3.8751ZM20.7311,56.1529h0l.344-.344h0l.9106-.9207h0l1.8819-1.892c1.0219-.9207,2.3574-.86,3.5614-.2631.5464.2732,1.0725.6576,1.5176,1.1028.4553.4553.8296.9713,1.1028,1.5176.5969,1.204.6576,2.5395-.2631,3.5614l-1.548,1.548h0l-1.1939,1.1939v.0101l-.3946.4047-.0101-.0101-3.7536,3.7537,3.0555,3.0555.8802.8904c1.0522-1.0927,2.1146-2.1753,3.1769-3.268l1.8212-1.8515,1.8313-1.8414c.9409-.9308,1.6694-2.0134,2.1551-3.1567.4856-1.1332.7285-2.3473.6981-3.5614-.0607-2.4384-1.4266-3.3894-2.7722-4.3101-.5362-.3744-1.0725-.7386-1.5278-1.1939-.4553-.4654-.8296-.9915-1.1939-1.5379-.9207-1.3355-1.8718-2.7115-4.3101-2.7722-1.2141-.0304-2.4181.2125-3.5614.6981-1.1534.4856-2.2259,1.2141-3.1567,2.1551-.7892.7791-1.5682,1.5581-2.3473,2.3271s-1.5682,1.5379-2.3473,2.3068l-2.2664,2.1854.0202.0202h0l1.1129,1.1129,2.8228,2.8228,3.7536-3.7435ZM59.2793,46.612c-1.0118-.3642-2.064-.5464-3.1162-.5261-2.4384.0607-3.3894,1.4367-4.3101,2.7722-.3744.5362-.7386,1.0725-1.1939,1.5278-.4654.4553-.9915.8296-1.5379,1.1939-1.3355.9207-2.7115,1.8718-2.7722,4.3101-.0304,1.1129.172,2.2259.5868,3.2781v.0101l.0202.0405v.0101l.0202.0405.0202.0506.0202.0506.0202.0506.0202.0506.0202.0405.0202.0405.0304.0708.0202.0405.0202.0405.0202.0405.0202.0405.0202.0405.0202.0405.0202.0405.0202.0405.0202.0405.0202.0405.0202.0405.0202.0405.0202.0405.0202.0405.0202.0405.0202.0405.0202.0405.0202.0405h0l.0202.0405.0202.0405.0202.0405.0202.0405.0202.0405.0202.0405.0202.0405h0l.0202.0405.0202.0405.0304.0405.0304.0405.0304.0405.0304.0405.0304.0405.0304.0405h0l.0304.0405.0304.0405.0304.0405.0304.0405h0l.0304.0405.0304.0405.0304.0405h0l.0304.0405.0304.0405.0304.0405.0304.0405.0304.0405.0304.0405.0304.0405.0304.0405.0304.0405.0304.0405h0l.0304.0405.0304.0405.0304.0405h0l.0304.0405.0304.0405.0203.0708h0l.0304.0405.0304.0405h0l.0304.0405.0304.0405h0l.0304.0405h0l.0202.0304h0l.0202.0304h0l.0202.0304.0202.0304h0l.0202.0304.0202.0304h0l.0202.0304.0202.0304.0202.0304.0202.0304.0304.0304.0202.0304.0304.0304.0304.0304.0304.0304.0202.0304h0l.0304.0304.0607-.0405.0304.0304.0304.0304.0304.0304.0304.0304.0304.0304.0304.0304.0304.0304.0304.0304.0304.0304h0l.0304.0304h0l.0304.0304.0304.0304h0l.0304.0304h0l.0304.0304h0l.0304.0304h0l.0304.0304h0l.0304.0304h0l.0304.0304h0l.0304.0304.0304.0304.0304.0304.0304.0304.0304.0304h0l.0304.0304h0l.0304.0304h0l.0304.0304.0304.0304h0l.0304.0304h0l.0304.0304.0304.0304h0l.0304.0304.0304.0304h0l.0304.0304.0304.0304.0304.0304h0l.0304.0304.0304.0304h0l.0304.0304h0l.0304.0304h0l.0304.0304.0304.0304.0304.0304.0304.0304.0304.0304h0l.0304.0304.0304.0304,5.7468,5.7468c4.5631-4.6035,9.1261-9.1565,13.7296-13.7296l-4.0977-4.0976-1.2445-1.2445-.0405-.0405-.0405-.0405-.0405-.0405-.2326-.2023-.0405-.0405h0l-.0405-.0405-.0405-.0405h0l-.0405-.0405-.0405-.0405h0l-.0405-.0405-.0405-.0405-.0405-.0405-.0405-.0405h0l-.0405-.0405-.0405-.0405-.0405-.0405-.0405-.0405h0l-.0405-.0405-.0405-.0405-.0405-.0405-.0405-.0405-.0405-.0405-.0405-.0405-.0405-.0405-.0405-.0405-.0405-.0405-.0405-.0405-.0405-.0405-.0405-.0405-.0405-.0405-.0405-.0405-.0405-.0405-.0405-.0405-.0405-.0405-.0405-.0405-.0809-.0809-.0405-.0405-.0405-.0405-.0405-.0405-.0405-.0405-.0405-.0405-.0405-.0405-.0405-.0405h0l-.0405-.0405-.1315-.1214-.0405-.0405-.091-.0607-.0911-.0708-.0405-.0405h0l-.0911-.0708h0l-.0405-.0405h0l-.0405-.0405-.0911-.0708h0l-.0405-.0304h0l-.0405-.0304h0l-.0405-.0304h0l-.0405-.0304h0l-.0405-.0304h0l-.0304-.0202h0l-.0304-.0202h0l-.0304-.0202-.0304-.0202h0l-.0304-.0202-.0304-.0202h0l-.0304-.0202h0l-.0304-.0202h0l-.0304-.0202-.0304-.0202h0l-.0304-.0202h0l-.0304-.0202-.0304-.0202h0l-.0304-.0202h0l-.0304-.0202h0l-.0304-.0202h0l-.0304-.0202h0l-.0304-.0202-.0304-.0202h0l-.0304-.0202-.0304-.0202h0l-.0304-.0202h0l-.0304-.0202-.0304-.0202h0l-.0304-.0202-.0304-.0202h0l-.0304-.0202h0l-.0304-.0202h0l-.0304-.0202h0l-.0304-.0202h0l-.0304-.0202-.0304-.0202h0l-.0304-.0202h0l-.0304-.0202-.0304-.0202h0l-.0304-.0202h0l-.0304-.0202-.0304-.0202h0l-.0304-.0202h0l-.0304-.0202-.0304-.0202h0l-.0304-.0202h0l-.0304-.0202-.0304-.0202h0l-.0304-.0202h0l-.0304-.0202h0l-.0304-.0202-.0304-.0202h0l-.0304-.0202h0l-.0304-.0202h0l-.0304-.0202h0l-.0304-.0202-.0607-.0304h0l-.0304-.0202-.0304-.0202-.0304-.0101h0l-.0304-.0101-.0304-.0101h0l-.0304-.0101h0l-.0304-.0101-.0304-.0101h0l-.0304-.0101h0l-.0304-.0101-.0506-.0202h0l-.0506-.0202h0l-.0506-.0202-.0506-.0202h0l-.0506-.0202h0l-.0506-.0202-.0506-.0202-.0506-.0202-.0405-.0101-.1417.0101ZM55.7078,51.2965c1.1332-1.3355,3.3388-.2125,4.2798.7892l3.7435,3.7435-3.4906,3.4906-3.7334-3.7334c-1.0118-.9511-2.1449-3.1567-.7993-4.2899ZM51.5595,55.4447c1.1332-1.3456,3.3388-.2125,4.2798.7892l3.7435,3.7435-3.4906,3.4906-3.7334-3.7334c-1.0118-.9511-2.1449-3.1567-.7993-4.2899ZM23.5842,35.7457c1.0118.3642,2.064.5464,3.1162.5261,2.4384-.0607,3.3894-1.4367,4.3101-2.7722.3744-.5362.7386-1.0725,1.1939-1.5278.4654-.4553.9915-.8296,1.5379-1.1939,1.3355-.9207,2.7115-1.8616,2.7722-4.3101.0304-1.1129-.172-2.2259-.5868-3.2781v-.0101l-.0202-.0405v-.0101l-.0202-.0405-.0202-.0506-.0202-.0506-.0202-.0506-.0304-.0708-.0202-.0405-.0202-.0405-.0202-.0405-.0202-.0405-.0202-.0405-.0202-.0405-.0202-.0405-.0202-.0405-.0202-.0405-.0202-.0405-.0202-.0405-.0202-.0405-.0202-.0405-.0202-.0405-.0202-.0405-.0202-.0405-.0202-.0405-.0202-.0405-.0202-.0405-.0202-.0405-.0202-.0405h0l-.0202-.0405-.0202-.0405-.0202-.0405-.0202-.0405-.0202-.0405-.0202-.0405-.0202-.0405h0l-.0202-.0405-.0202-.0405-.0304-.0405-.0304-.0405-.0304-.0405-.0304-.0405-.0304-.0405-.0304-.0405h0l-.0304-.0405-.0304-.0405-.0304-.0405-.0304-.0405h0l-.0304-.0405-.0304-.0405-.0304-.0405h0l-.0304-.0405-.0304-.0405-.0304-.0405-.0304-.0405-.0304-.0405-.0304-.0405-.0304-.0405-.0304-.0405-.0304-.0405-.0304-.0405h0l-.0304-.0405h0l-.0304-.0405-.0304-.0405h0l-.0304-.0405-.0304-.0405-.0304-.0809h0l-.0304-.0405-.0304-.0405h0l-.0304-.0405h0l-.0304-.0405h0l-.0304-.0405h0l-.0202-.0304h0l-.0202-.0304h0l-.0202-.0304-.0202-.0304h0l-.0202-.0304-.0202-.0304h0l-.0202-.0304-.0202-.0304-.0202-.0304-.0202-.0304-.0304-.0304-.0202-.0304-.0304-.0304-.0202-.0304-.0304-.0304-.0202-.0304h0l-.0304-.0304-.0304-.0304-.0304-.0304-.0304-.0304-.0304-.0304-.0304-.0304-.0304-.0304-.0304-.0304-.0304-.0304-.0304-.0304-.0304-.0304h0l-.0304-.0304h0l-.0304-.0304-.0101.0708h0l-.0304-.0304h0l-.0304-.0304h0l-.0304-.0304h0l-.0304-.0304h0l-.0304-.0304-.0304-.0304h0l-.0304-.0304-.0304-.0304-.0304-.0304-.0304-.0304-.0304-.0304h0l-.0304-.0304h0l-.0304-.0304h0l-.0304-.0304-.0304-.0304h0l-.0304-.0304h0l-.0304-.0304-.0304-.0304h0l-.0304-.0304-.0304-.0304h0l-.0304-.0304-.0304-.0304-.0304-.0304h0l-.0304-.0304-.0304-.0304h0l-.0304-.0304h0l-.0304-.0304h0l-.0304-.0304-.0304-.0304-.0304-.0304-.0304-.0304-.0304-.0304h0l-.0304-.0304-.0304-.0304-5.7468-5.7468c-4.5631,4.6035-9.1261,9.1565-13.7296,13.7296l4.0976,4.0976,1.2445,1.2445.0405.0405.0405.0405.0405.0405.0405.0405.0405.0405h0l.0405.0405.0405.0405h0l.0405.0405.0405.0405h0l.0405.0405.0405.0405.0405.0405.0405.0405h0l.0405.0405.0405.0405.0405.0405.0405.0405.0405.0405.0405.0405.0405.0405.0405.0405.0405.0405.0405.0405.0405.0405.0405.0405.0405.0405.0405.0405.0405.0405.0405.0405.0405.0405.0405.0405.0405.0405.0405.0405.0405.0405.0405.0405.0809.0809.0405.0405.0405.0405.0405.0405.0405.0405.0405.0405.0405.0405.0405.0405h0l.0405.0405.1315.1214.0405.0405h0l.0405.0405.0911.0708h0l.0405.0405h0l.0911.0708h0l.0405.0405h0l.0405.0405.0911.0708h0l.0405.0304.0405.0304h0l.0405.0304h0l.0405.0304h0l.0405.0304h0l.0304.0202h0l.0304.0202h0l.0304.0202.0304.0202h0l.0304.0202.0304.0202h0l.0304.0202h0l.0304.0202h0l.0304.0202.2326.1922h0l.0304.0202h0l.0304.0202.0304.0202h0l.0304.0202h0l.0304.0202h0l.0304.0202h0l.0304.0202h0l.0304.0202.0304.0202h0l.0304.0202.0304.0202h0l.0304.0202h0l.0304.0202h0l.0304.0202h0l.0405.0202.0304.0202h0l.0304.0202h0l.0304.0202h0l.0304.0202h0l.0304.0202h0l.0304.0202.0304.0202h0l.0304.0202h0l.0304.0202.0304.0202h0l.0304.0202h0l.0304.0202.0304.0202h0l.0304.0202h0l.0304.0202.0304.0202h0l.0304.0202h0l.0304.0202.0304.0202h0l.0304.0202h0l.0304.0202h0l.0304.0202.0304.0202h0l.0304.0202.0304.0202h0l.0304.0202h0l.0304.0202.0607.0304h0l.0304.0101h0l.0304.0202.0304.0101h0l.0304.0101.0304.0101h0l.0304.0101h0l.0304.0101.0304.0101h0l.0304.0101h0l.0304.0101.0506.0202h0l.0506.0202h0l.0506.0202.0506.0202h0l.0506.0202h0l.0506.0202h0l.0506.0202.0506.0202.0405.0202.1214-.0304ZM27.1456,31.0612c-1.1332,1.3355-3.3388.2125-4.2798-.7892l-3.7435-3.7435,3.4906-3.4906,3.7334,3.7334c1.0118.9511,2.1449,3.1567.7993,4.2899ZM31.2939,26.9129c-1.1332,1.3456-3.3388.2125-4.2798-.7892l-3.7435-3.7435,3.4906-3.4906,3.7334,3.7334c1.0118.9409,2.1449,3.1567.7993,4.2899ZM45.3574,78.8367c0,2.1753-1.8414,4.0167-4.0167,4.0167s-3.8548-1.8414-3.8548-4.0167,1.6795-3.8548,3.8548-3.8548c2.1753.0101,4.0167,1.6795,4.0167,3.8548ZM4.0167,45.3675c-2.1753,0-4.0167-1.8414-4.0167-4.0167s1.8414-3.8548,4.0167-3.8548,3.8548,1.6795,3.8548,3.8548-1.6795,4.0167-3.8548,4.0167ZM78.9986,37.496c2.1753,0,3.8548,1.6795,3.8548,3.8548s-1.6694,4.0167-3.8548,4.0167c-2.1753,0-4.0167-1.8414-4.0167-4.0167s1.8414-3.8548,4.0167-3.8548ZM73.7577,38.356h-18.6064c-1.6795,0-2.9746,1.3052-2.9746,2.9746,0,1.6795,1.3052,3.1668,2.9746,3.1668h18.6064c-.5565-.9308-.7487-2.0438-.7487-3.1668,0-1.1129.1922-2.0438.7487-2.9746ZM9.0958,44.5075c.0809,0,18.7784-.0101,18.8593-.0101,1.5581-.1315,2.7318-1.5581,2.7318-3.1567,0-1.6694-1.3052-2.9746-2.9746-2.9746H9.0958c.5565.9308.9308,1.8616.9308,2.9746s-.3744,2.2259-.9308,3.1668ZM37.4859,3.8548c0-2.1753,1.6795-3.8548,3.8548-3.8548s4.0167,1.6694,4.0167,3.8548c0,2.1753-1.8414,4.0167-4.0167,4.0167s-3.8548-1.8414-3.8548-4.0167ZM38.356,9.0958v18.6064c0,1.6795,1.3052,2.9746,2.9746,2.9746s3.1668-1.3052,3.1668-2.9746V9.0958c-.9308.5565-2.0438.7487-3.1668.7487-1.1129,0-2.0438-.1821-2.9746-.7487ZM44.4974,73.7678c0-.0809-.0101-18.7784-.0101-18.8593-.1315-1.5581-1.5581-2.7318-3.1466-2.7318-1.6694,0-2.9746,1.3052-2.9746,2.9746v18.6064c.9308-.5565,1.8616-.9308,2.9746-.9308,1.1129.0101,2.2259.3744,3.1567.9409ZM34.9666,43.1214h2.064v.8904h-3.5614v-.6576l1.5581-1.7504c.2631-.3035.4553-.5362.5565-.7082.1012-.172.1619-.344.1619-.5362,0-.2024-.0607-.3642-.172-.4856-.1113-.1214-.2631-.1821-.4553-.1821-.2024,0-.3744.0708-.5261.2125s-.2631.344-.344.6071l-.7993-.4654c.1214-.4148.344-.7386.6576-.9612.3238-.2226.688-.3339,1.1028-.3339.3238,0,.6172.0708.86.2024.2428.1315.4249.3136.5565.5565.1315.2327.1922.5059.1922.7993s-.0708.5666-.2125.8296c-.1416.2529-.3946.5868-.7689.9915l-.8701.9915ZM41.1991,41.4419c0,.8701-.1619,1.5278-.4755,1.9831s-.7588.6779-1.3456.6779-1.032-.2226-1.3456-.6779c-.3136-.4553-.4755-1.1129-.4755-1.9831s.1619-1.5379.4755-1.9932.7689-.688,1.3456-.688c.5868,0,1.032.2226,1.3456.688.3238.4553.4755,1.1231.4755,1.9932ZM38.6494,41.4419c0,.5868.0607,1.0118.1821,1.2951s.3035.4249.5565.4249.4351-.1416.5565-.4249.172-.7184.172-1.2951c0-.5868-.0607-1.0219-.172-1.3052-.1214-.2833-.3035-.4249-.5565-.4249s-.4452.1416-.5565.4249c-.1214.2732-.1821.7082-.1821,1.3052ZM45.3372,41.4419c0,.8701-.1619,1.5278-.4755,1.9831s-.7588.6779-1.3456.6779-1.032-.2226-1.3456-.6779c-.3136-.4553-.4755-1.1129-.4755-1.9831s.1619-1.5379.4755-1.9932.7689-.688,1.3456-.688c.5868,0,1.032.2226,1.3456.688.3238.4553.4755,1.1231.4755,1.9932ZM42.7875,41.4419c0,.5868.0607,1.0118.1821,1.2951s.3035.4249.5565.4249.4351-.1416.5565-.4249.172-.7184.172-1.2951c0-.5868-.0607-1.0219-.172-1.3052-.1214-.2833-.3035-.4249-.5565-.4249s-.4452.1416-.5565.4249c-.1315.2732-.1821.7082-.1821,1.3052ZM47.7958,40.6628c.2934,0,.5666.0708.8094.2125.2428.1416.4351.3339.5767.5868s.2125.5464.2125.8802c0,.3642-.0809.6779-.2327.9409-.1619.2631-.3744.4654-.6475.6071s-.5767.2024-.9005.2024c-.3946,0-.7285-.0911-1.0118-.2631-.2833-.1821-.4856-.4452-.6071-.8094l.8195-.4755c.0607.2125.1619.3744.2934.4755.1315.1113.2934.1619.4755.1619.2327,0,.4047-.0809.5362-.2327.1214-.1518.1821-.344.1821-.5767s-.0607-.4351-.1922-.5868c-.1315-.1619-.3136-.2327-.5565-.2327-.3136,0-.5565.1518-.7386.4553l-.7285-.3642.3541-2.8026h2.7014v.8701h-1.8414l-.1416,1.0624c.2125-.0708.4249-.1113.6374-.1113Z" fill="#0166a4" fill-rule="evenodd" stroke-width="0"/></g></svg>