<svg width="88" height="88" viewBox="0 0 88 88" fill="none" xmlns="http://www.w3.org/2000/svg">
<path fill-rule="evenodd" clip-rule="evenodd" d="M80.6073 35.1942V35.5367C80.26 35.1942 79.9984 34.8504 79.6511 34.421C79.5643 34.421 79.5643 34.5066 79.4775 34.5066C79.6511 34.5923 79.8248 34.5923 80.172 35.1942C79.9984 35.3655 79.9984 35.4523 79.738 35.6236C79.3895 35.5367 79.0422 35.5367 78.6949 35.4523C78.8698 35.7092 78.9554 35.9662 79.0422 36.3099C79.0422 36.4824 78.9554 36.6537 78.9554 36.7393C78.7818 36.8261 78.6949 36.7393 78.5213 36.7393C78.5213 36.7393 78.3465 36.7393 78.4333 36.3956C78.4333 36.3099 78.3465 36.1386 78.3465 36.1386C78.2608 35.9662 78.1728 35.9662 78.086 35.796C78.3465 35.8805 78.4333 35.8805 78.4333 35.9662C78.3465 35.796 78.3465 35.7092 78.2608 35.5367C77.7387 35.7092 77.3035 35.9662 76.7826 36.053C76.5221 36.1386 76.2605 36.1386 76 36.053C75.9132 35.8805 75.9132 35.8805 75.9132 35.7092C75.9132 35.6236 76 35.5368 75.9132 35.1942C75.8264 34.7648 76.0868 34.3354 76.4353 33.8191L76.6089 33.7335C76.6957 33.6478 76 34.8504 76.2605 35.2798C76.4353 35.796 76.5221 35.7092 76.9562 35.6236C77.5651 35.4523 77.9992 35.1942 77.9992 35.1942C78.086 35.1942 77.6519 34.5066 77.3035 34.3354C77.1298 34.3354 77.043 34.2485 77.043 34.1629C77.043 33.9048 77.3035 33.4765 77.3903 33.4765L77.6519 33.5622C77.6519 33.5622 77.5651 33.5622 77.6519 33.9048C77.7388 34.2485 78.5213 35.1085 78.5213 35.1085C79.129 35.0229 79.3027 35.1085 79.3895 35.0229C79.2159 34.7648 78.9554 34.7648 78.7818 34.5066C78.6949 34.0772 78.8698 33.9048 78.9554 33.7335C79.4775 33.6478 79.9116 34.1629 80.0852 34.5923C80.26 34.8504 80.4337 35.0229 80.6073 35.1942ZM80.6073 33.9916C80.5205 33.9916 80.5205 33.9048 80.4337 33.8191C80.4337 33.6478 80.3457 33.3909 80.3457 33.1316C80.3457 33.1316 80.0852 33.2184 80.172 33.3053C80.0852 33.5622 80.172 33.6478 80.0852 33.8191C79.9984 33.8191 80.26 34.0772 80.6073 34.421V33.9916ZM80.6073 32.274V33.1316C80.5205 33.0471 80.4337 33.0471 80.4337 33.0471C80.26 33.0471 79.9984 33.1316 79.9116 33.1316C79.9116 33.0471 79.9116 32.9615 79.9984 32.9615C80.26 32.8747 80.3457 32.5309 80.4337 32.274H80.6073ZM79.6511 32.3596C79.5643 32.274 78.5213 31.6721 77.9136 32.1015C77.6519 32.274 77.7387 32.5309 77.7387 32.7022C77.7387 32.7022 77.7388 32.789 77.6519 32.789C77.6519 32.789 77.9136 32.8747 77.9992 32.789C78.086 32.6177 78.2608 32.6177 78.3465 32.6177C78.6081 32.7022 78.8698 32.789 78.9554 32.789H79.129L78.7818 32.5309H79.129L79.4775 32.6177H79.6511V32.3596ZM81.2162 35.8805V36.2254L80.6073 35.5367V35.1942C80.781 35.4523 80.9546 35.6236 81.2162 35.8805ZM81.2162 34.6791C81.2162 34.6791 81.1282 34.6791 81.1282 34.7648C80.9546 34.5066 80.781 34.2485 80.6073 33.9916V34.421C80.781 34.5923 81.0414 34.8504 81.2162 35.1942V34.6791ZM81.2162 33.7335V34.3354C81.1282 34.3354 81.0414 34.2485 81.0414 34.0772V33.9048L80.6073 33.3909C80.781 33.4765 81.0414 33.6478 81.2162 33.7335ZM81.2162 32.8747H81.1282C81.1282 33.0471 81.1282 33.2184 81.2162 33.3909V32.8747ZM81.2162 32.0159V32.274C81.1282 32.4453 80.9546 32.5309 80.781 32.6177C80.781 32.789 80.8678 32.9615 80.781 33.0471C80.781 33.1316 80.6941 33.1316 80.6073 33.1316V32.274C80.781 32.274 80.9546 32.1015 81.2162 32.0159ZM81.2162 32.274V32.0159L81.303 31.9302C81.303 32.1015 81.303 32.1872 81.2162 32.274ZM81.5635 36.1386V36.6537C81.4767 36.568 81.3899 36.3956 81.303 36.3099L81.2162 36.2254V35.8805L81.303 35.9662C81.303 35.9662 81.4767 36.1386 81.5635 36.1386ZM81.5635 33.4765V34.5923C81.4767 34.6791 81.4767 34.8504 81.3899 34.9361C81.4767 34.9361 81.5635 34.9361 81.5635 35.0229V35.8805C81.5635 35.6236 81.3899 35.3655 81.2162 35.1942V34.6791C81.303 34.5066 81.3899 34.421 81.4767 34.3354H81.2162V33.7335L81.303 33.8191C81.3899 33.7335 81.4767 33.5622 81.5635 33.4765ZM81.5635 32.5309V33.1316C81.4767 33.3053 81.303 33.3909 81.2162 33.3909V32.8747C81.303 32.8747 81.3899 32.789 81.4767 32.7022C81.4767 32.7022 81.5635 32.7022 81.5635 32.5309ZM81.5635 33.1316C81.824 32.9615 81.9976 32.789 81.9976 32.6177C82.0856 32.5309 82.0856 32.274 82.0856 32.1872C82.0856 32.1872 81.9108 32.1872 81.824 32.274C81.7371 32.3596 81.6503 32.5309 81.5635 32.5309V33.1316ZM81.5635 34.5923V33.4765H81.6503C81.7371 33.3909 81.7371 33.7335 81.6503 33.9916C81.7371 33.9916 81.824 34.0772 81.9108 34.0772L82.1712 33.9916L81.9108 33.7335C81.824 33.4765 81.7371 33.0471 81.824 33.2184L82.346 33.5622C82.346 33.3909 82.346 33.3053 82.2592 33.1316L82.5197 32.9615C82.6065 33.1316 82.6933 33.3909 82.6933 33.7335C82.867 33.8191 83.1274 33.9048 83.3891 33.8191C83.5627 33.7335 83.7363 33.7335 83.91 33.7335C83.7363 33.9916 83.6495 34.1629 83.3891 34.5923C83.1274 34.5066 82.867 34.3354 82.6065 34.2485C82.5197 34.3354 82.346 34.5066 82.2592 34.5923C82.1712 34.8504 81.9976 35.0229 81.824 34.9361C81.7371 34.8504 81.6503 34.6791 81.5635 34.5923ZM81.5635 35.3655C82.0856 35.5367 82.6065 35.7092 82.7813 35.9662C83.2154 36.1386 83.4759 35.9662 83.5627 35.5367C83.1274 35.0229 82.6933 34.7648 82.6933 34.9361C82.7813 35.1085 83.0418 35.2798 83.2154 35.4523C82.6933 35.4523 82.2592 35.1942 81.5635 35.0229V35.3655ZM81.5635 36.6537V36.1386C81.6503 36.1386 81.6503 36.1386 81.6503 36.053C81.6503 36.053 81.6503 35.9661 81.5635 35.8805V35.3655C81.7371 35.5367 81.824 35.796 81.9108 35.9662C81.9976 35.8805 82.0856 36.2254 82.1712 36.568C81.9976 36.568 81.7371 36.6537 81.5635 36.6537Z" fill="#007F3D"/>
<path fill-rule="evenodd" clip-rule="evenodd" d="M43.9979 75.0597C26.693 75.0597 12.6061 61.1418 12.6061 44.0434C12.6061 26.8606 26.693 12.9415 43.9979 12.9415V11.7397C25.9982 11.7397 11.389 26.1728 11.389 44.0434C11.389 61.8284 25.9982 76.2615 43.9979 76.2615V75.0597ZM75.3886 44.0434C75.3886 61.1418 61.3885 75.0597 43.9979 75.0597V76.2615C62.0845 76.2615 76.6936 61.8284 76.6936 44.0434C76.6936 26.1728 62.0845 11.7397 43.9979 11.7397V12.9415C61.3885 12.9415 75.3886 26.8606 75.3886 44.0434Z" fill="#007F3D"/>
<path fill-rule="evenodd" clip-rule="evenodd" d="M41.5672 66.3808V67.1542C41.3935 67.1542 41.2198 67.2399 41.1318 67.3267C41.0461 67.4124 40.9581 67.5838 40.9581 67.6706C40.9581 67.842 41.0461 68.0145 41.1318 68.1002C41.2198 68.1847 41.3935 68.2715 41.5672 68.2715V69.0449C41.3935 69.0449 41.2198 69.0449 41.0461 69.2163C40.9581 69.3019 40.8713 69.4745 40.8713 69.7315C40.8713 69.904 40.9581 70.0753 41.1318 70.2479C41.2198 70.3335 41.3935 70.4192 41.5672 70.4192V71.1938C41.0461 71.1938 40.6107 71.1058 40.2633 71.0201C40.0028 70.9356 39.7411 70.7619 39.6542 70.5061C39.4805 70.3335 39.3937 70.0753 39.3937 69.7315C39.3937 69.4745 39.4805 69.2163 39.5674 69.0449C39.7411 68.8724 40.0028 68.7022 40.2633 68.6154C40.0896 68.5297 39.9147 68.3572 39.7411 68.2715C39.6542 68.1002 39.5674 67.842 39.5674 67.6706C39.5674 67.2399 39.7411 66.896 40.1753 66.639C40.5239 66.4665 40.9581 66.3808 41.4804 66.3808H41.5672ZM37.7412 66.3808V71.1058H36.2625V68.0145C36.0019 68.1846 35.7414 68.3572 35.4797 68.444C35.3071 68.5297 34.9586 68.6154 34.6112 68.7022V67.6706C35.1323 67.4981 35.5677 67.3267 35.8282 67.1542C36.0899 66.896 36.3505 66.7258 36.5242 66.3808H37.7412ZM41.5672 71.1938V70.4192C41.7409 70.4192 41.9146 70.3335 42.0895 70.2479C42.2632 70.0753 42.2632 69.904 42.2632 69.7315C42.2632 69.4745 42.1763 69.3019 42.0895 69.2163C41.9146 69.0449 41.7409 69.0449 41.5672 69.0449V68.2715C41.7409 68.2715 41.9146 68.1847 42.0026 68.1002C42.1763 68.0145 42.1763 67.842 42.1763 67.7563C42.1763 67.5838 42.1763 67.4124 42.0026 67.3267C41.9146 67.2399 41.7409 67.1542 41.5672 67.1542V66.3808C42.2632 66.3808 42.7842 66.5521 43.1316 66.7258C43.4802 66.9829 43.6539 67.2399 43.6539 67.6706C43.6539 67.842 43.567 68.0145 43.3933 68.2715C43.3065 68.3572 43.1316 68.5297 42.9591 68.6154C43.2197 68.7879 43.4802 68.8724 43.567 69.1306C43.7407 69.3019 43.8276 69.5601 43.8276 69.7315C43.8276 69.9897 43.7407 70.2479 43.6539 70.4192C43.4802 70.5917 43.3065 70.7619 43.1316 70.8488C42.9591 71.0201 42.7842 71.1058 42.5237 71.1058C42.1763 71.1938 41.9146 71.1938 41.654 71.1938H41.5672ZM46.5234 70.4192V71.1938C46.0891 71.1938 45.7418 71.1938 45.48 71.1058C45.2195 71.0201 45.0458 70.8488 44.8709 70.6774C44.6972 70.5061 44.6104 70.3335 44.5235 70.0753L46.0023 69.904C46.0023 70.0753 46.0891 70.2479 46.176 70.3335C46.2628 70.4192 46.3497 70.4192 46.5234 70.4192ZM46.5234 66.3808V67.2399C46.2628 67.2399 46.0891 67.2399 46.0023 67.4124C45.8274 67.4981 45.8274 67.7563 45.8274 68.0145C45.8274 68.2715 45.8274 68.444 46.0023 68.5297C46.176 68.7022 46.3497 68.7879 46.5234 68.7879V69.5601H46.0891C45.6537 69.5601 45.2195 69.3888 44.8709 69.1306C44.5235 68.8724 44.3498 68.444 44.3498 68.0145C44.3498 67.6706 44.4367 67.4124 44.6104 67.1542C44.7853 66.896 45.0458 66.7258 45.3063 66.5522C45.6537 66.4665 46.0023 66.3808 46.4365 66.3808H46.5234ZM46.5234 71.1938V70.4192C46.7839 70.4192 46.9588 70.3335 47.0456 70.0753C47.2193 69.904 47.2193 69.6458 47.3062 69.1306C47.1325 69.3019 46.9588 69.3888 46.7839 69.4745C46.6982 69.4745 46.6102 69.5601 46.5234 69.5601V68.7879C46.6982 68.7879 46.8719 68.7022 47.0456 68.6154C47.2193 68.444 47.2193 68.2715 47.2193 68.0145C47.2193 67.7563 47.2193 67.5838 47.0456 67.4124C46.8719 67.2399 46.6982 67.2399 46.5234 67.2399V66.3808C47.0456 66.3808 47.4799 66.4665 47.7404 66.639C48.089 66.8103 48.3495 67.0697 48.5232 67.4124C48.6981 67.7563 48.8718 68.1847 48.8718 68.7879C48.8718 69.6458 48.6101 70.2479 48.1758 70.5917C47.8284 71.0201 47.2193 71.1938 46.5234 71.1938ZM51.6544 66.3808V67.1542C51.4796 67.1542 51.3059 67.2399 51.2202 67.3267C51.1322 67.4124 51.0453 67.5838 51.0453 67.6706C51.0453 67.842 51.1322 68.0145 51.2202 68.1002C51.3059 68.1847 51.4796 68.2715 51.6544 68.2715V69.0449C51.4796 69.0449 51.3059 69.0449 51.1322 69.2163C51.0453 69.3019 50.9585 69.4745 50.9585 69.7315C50.9585 69.904 51.0453 70.0753 51.1322 70.2479C51.3059 70.3335 51.4796 70.4192 51.6544 70.4192V71.1938C51.1322 71.1938 50.6979 71.1058 50.3494 71.0201C50.0888 70.9356 49.8283 70.7619 49.6546 70.5061C49.5666 70.3335 49.4797 70.0753 49.4797 69.7315C49.4797 69.4745 49.5666 69.2163 49.6546 69.0449C49.8283 68.8724 50.0888 68.7022 50.3494 68.6154C50.0888 68.5297 49.9151 68.3572 49.8283 68.2715C49.7414 68.1002 49.6546 67.842 49.6546 67.6706C49.6546 67.2399 49.8283 66.896 50.2625 66.639C50.6111 66.4665 51.0453 66.3808 51.5676 66.3808H51.6544ZM51.6544 71.1938V70.4192C51.8281 70.4192 52.0018 70.3335 52.1767 70.2479C52.2635 70.0753 52.3504 69.904 52.3504 69.7315C52.3504 69.4745 52.2635 69.3019 52.1767 69.2163C52.0018 69.0449 51.8281 69.0449 51.6544 69.0449V68.2715C51.8281 68.2715 52.0018 68.1847 52.0887 68.1002C52.1767 68.0145 52.2635 67.842 52.2635 67.7563C52.2635 67.5838 52.1767 67.4124 52.0887 67.3267C52.0018 67.2399 51.8281 67.1542 51.6544 67.1542V66.3808C52.3504 66.3808 52.8715 66.5521 53.22 66.7258C53.5674 66.9829 53.7411 67.2399 53.7411 67.6706C53.7411 67.842 53.6543 68.0145 53.4794 68.2715C53.3925 68.3572 53.22 68.5297 53.0452 68.6154C53.3069 68.7879 53.4794 68.8724 53.6543 69.1306C53.828 69.3019 53.9148 69.5601 53.9148 69.7315C53.9148 69.9897 53.828 70.2479 53.6543 70.4192C53.5674 70.5917 53.3925 70.7619 53.22 70.8488C53.0452 71.0201 52.8715 71.1058 52.5229 71.1058C52.2635 71.1938 52.0018 71.1938 51.7413 71.1938H51.6544Z" fill="#007F3D"/>
<path fill-rule="evenodd" clip-rule="evenodd" d="M71.3871 17.8385C71.1266 18.0098 70.8662 18.2679 70.6046 18.3536C70.8662 18.4404 71.1266 18.6117 71.3871 18.6117V19.1267C71.0398 19.0411 70.3441 18.7842 70.0836 18.8698C70.0836 18.8698 69.9968 18.9555 69.9968 18.8698C69.91 18.8698 69.5615 19.1267 69.5615 19.1267C69.4747 19.2124 69.1274 19.298 69.3011 19.5562C69.6484 19.9856 69.3879 21.6175 69.8232 22.0469C70.2573 22.4763 70.7794 22.3907 70.8662 22.6488C70.6046 22.9057 70.0836 23.0782 69.0406 22.9926C68.6922 22.3907 68.6053 22.1326 68.5185 21.79C68.6922 21.2749 68.9538 20.7587 69.0406 20.2437C69.1274 19.8999 69.3879 19.298 68.867 19.5562C68.2581 19.8999 67.9108 20.158 67.6492 20.3293C66.8666 20.5874 66.5193 20.2437 66.4325 20.2437C65.9984 19.9856 65.3895 19.3849 65.4752 19.3849C65.5631 19.3849 65.5631 19.298 65.5631 19.298C65.7368 19.4717 66.0852 19.6418 66.6062 19.8143C67.8228 19.8999 69.3879 18.526 69.3879 18.6117C69.2143 18.4404 69.0406 18.4404 68.867 18.3536H68.779C68.6054 18.0966 68.4317 17.6672 68.4317 17.2367C68.5185 17.0665 68.5185 17.0665 68.6922 17.0665C68.6922 17.2367 68.867 17.4091 68.867 17.5804C68.9538 17.6672 69.5615 18.0098 69.9968 18.0966C70.4309 17.7529 71.0398 17.4091 71.3871 17.1522V17.8385ZM72.1697 17.3235C71.996 17.4959 71.7344 17.6672 71.3871 17.8385V17.1522L71.4739 17.0665C72.5169 16.2066 73.2995 15.3477 73.2995 15.2621C73.3875 15.4334 73.4731 15.4334 73.4731 15.519C73.6479 15.7771 73.6479 16.1209 73.8216 16.4647C73.4731 16.8084 73.2127 16.7228 73.1258 16.7228C72.9522 16.8084 72.9522 16.8929 72.7786 16.8929C72.5169 17.0665 72.3433 17.2367 72.2565 17.3235C72.3433 17.5804 72.1696 18.1823 72.3433 18.3536C72.2565 18.6973 71.996 19.1267 71.7344 19.298C71.7344 19.298 71.5607 19.2124 71.3871 19.1267V18.6117H71.5607C71.6487 18.526 71.9092 18.3536 71.996 18.1823C72.0828 17.9242 72.1697 17.5804 72.1697 17.3235Z" fill="#007F3D"/>
<path fill-rule="evenodd" clip-rule="evenodd" d="M4.00122 33.9042C4.08804 33.9042 3.9144 33.9898 4.3485 34.0754C4.69695 33.9898 5.30469 34.1623 5.4795 34.3336C5.4795 34.763 5.04423 34.8498 5.4795 34.8498C5.82678 34.8498 6.00042 34.5917 6.00042 34.5917L5.9136 34.0754L6.00042 33.4759L6.3477 33.8185C6.3477 33.8185 6.17523 34.1623 6.17523 34.3336C6.17523 34.4192 6.69615 34.3336 6.86979 34.506C6.78297 34.506 6.78297 34.763 6.78297 34.8498C6.78297 34.8498 6.60933 35.0211 6.60933 35.1935C6.86979 35.1935 7.21707 35.3637 7.21707 35.3637L7.39188 35.6229C7.39188 35.6229 7.47753 35.4505 7.56552 35.4505H7.82598L7.99962 34.9354C7.99962 34.9354 7.9128 34.9354 7.82598 34.8498C7.65234 34.763 7.65234 34.6773 7.65234 34.6773L8.08644 34.763C8.08644 34.763 8.34807 36.0524 8.08644 36.7387C7.82598 37.1681 8.08644 36.9968 8.08644 37.0825C8.17326 37.0825 8.34807 36.9112 8.52171 36.8243V35.8799C8.43372 35.4505 8.34807 35.0211 8.43372 34.8498H8.52171V34.1623L8.43372 34.0754V33.5616L8.52171 33.7329V32.7884C8.52171 32.6159 8.43372 32.359 8.43372 32.0152C8.34807 31.6715 7.73916 32.359 7.82598 32.5303C7.99962 32.7016 8.08644 33.3035 8.08644 33.3035V33.9898L7.04343 33.7329C6.95661 33.5616 7.04343 33.646 6.78297 33.5616L6.52251 33.7329L6.43569 33.646V33.4759C6.43569 33.4759 6.60933 33.2178 6.86979 33.3035C6.95661 33.3035 6.86979 33.3903 6.86979 33.4759C7.04343 33.5616 7.04343 33.4759 7.30389 33.3903C7.47753 33.3035 7.65234 33.8185 7.82598 33.7329C7.65234 33.2178 7.73916 33.4759 7.47753 33.0465L7.21707 32.7016L7.13025 32.4446C7.13025 32.359 7.13025 32.2722 6.78297 32.1865C6.69615 32.2722 6.52251 32.359 6.69615 32.5303V32.7016C6.60933 32.7884 6.26088 32.874 6.26088 33.131C6.08724 33.131 5.82678 32.9597 5.9136 32.359C5.9136 31.9284 5.65314 32.0152 5.65314 32.0152C5.65314 32.0152 5.04423 31.8439 4.95624 32.0152C4.95624 32.2722 5.13105 32.5303 5.13105 32.5303L5.65314 33.2178L5.56515 33.7329C5.39268 33.7329 5.39268 33.5616 5.30469 33.4759C4.87059 33.3903 4.69695 33.131 4.00122 33.9042ZM8.52171 34.8498V34.1623H8.69535L8.52171 33.7329V32.7884C8.69535 33.5616 8.95581 34.0754 9.04263 33.9042L9.39108 33.646V34.2479C9.30426 34.2479 9.30426 34.3336 9.21627 34.3336H9.39108V35.0211H9.21627V35.2792C9.30426 35.4505 9.30426 35.5361 9.39108 35.6229V36.3949C9.30426 35.9655 8.86899 34.8498 8.86899 34.9354C8.86899 34.9354 8.69535 34.8498 8.52171 34.8498ZM8.52171 36.8243C8.69535 36.8243 8.78217 36.7387 8.78217 36.7387C8.78217 36.7387 8.95581 36.5674 8.69535 36.3093C8.69535 36.3093 8.60853 36.1368 8.52171 35.8799V36.8243ZM9.39108 35.6229V36.4806C9.39108 36.8243 9.99882 36.7387 10.0856 36.3093C10.2593 35.9655 10.0856 36.0523 9.99882 35.8799C9.912 35.6229 9.912 35.4505 9.99882 35.1935C9.99882 35.1935 11.7376 35.5361 12.3465 35.5361C12.4333 35.3637 12.5201 35.3637 11.9112 35.1067C11.5639 34.9354 10.0856 34.506 9.912 34.506C9.912 34.506 9.82518 34.3336 10.0856 33.7329C10.0856 33.3903 9.65154 33.4759 9.65154 33.4759L9.39108 33.646V34.2479C9.47673 34.2479 9.47673 34.3336 9.47673 34.4192C9.47673 34.4192 9.39108 34.4192 9.39108 34.3336V35.0211C9.47673 35.1067 9.56472 35.1067 9.56472 35.1067C9.65154 35.5361 9.65154 35.7942 9.65154 35.8799C9.56472 36.0523 9.56472 36.1368 9.56472 36.1368C9.47673 35.9655 9.39108 35.7942 9.39108 35.6229Z" fill="#007F3D"/>
<path fill-rule="evenodd" clip-rule="evenodd" d="M52.6939 7.52762V7.78574H51.7377C51.564 7.78574 51.476 7.87138 51.3904 7.78574C50.9551 7.52762 50.8683 7.27069 50.9551 7.27069C51.1299 7.27069 51.3024 7.44315 51.476 7.44315C52.0849 7.52762 52.4334 7.52762 52.6939 7.52762ZM52.6939 8.73019C52.607 8.64455 52.5202 8.47326 52.5202 8.30079C52.607 8.1295 52.607 8.04268 52.6939 8.04268V8.73019ZM52.6939 10.3622V12.7673C52.607 12.7673 52.2598 12.5948 52.2598 12.5092C52.0849 12.3379 52.0849 12.3379 51.9981 12.1654C51.9981 11.9953 51.9981 11.9953 52.0849 11.9085C52.1729 11.6516 52.2598 11.3934 52.3466 11.1353C51.9113 11.3078 51.564 11.4791 51.476 11.6516C51.3024 11.7372 51.0419 11.8228 51.0419 11.8228C50.8683 11.8228 50.6078 11.3078 50.5198 11.221C50.433 11.0497 50.5198 10.964 50.5198 10.7916C50.9551 11.0497 51.2168 11.221 51.3024 11.1353C51.7377 10.964 52.1729 10.8772 52.5202 10.7916C52.607 10.6203 52.6939 10.5346 52.6939 10.3622ZM52.6939 9.59018C52.4334 9.67582 52.3466 9.76147 52.3466 9.84829C52.5202 9.76147 52.607 9.76147 52.6939 9.67582V10.1041C52.5202 10.1909 52.4334 10.2765 52.2598 10.3622C52.1729 10.3622 51.9113 10.2765 51.9113 10.1909C51.8245 9.93394 51.7377 9.93394 51.7377 9.59018C51.9113 9.59018 52.0849 9.67582 52.1729 9.67582C52.3466 9.59018 52.5202 9.50453 52.607 9.41771C52.5202 9.24642 52.1729 9.50453 52.4334 8.90266C52.607 8.90266 52.6939 8.90266 52.6939 8.81701V9.59018ZM53.9117 5.98247V7.01375C53.9117 7.09939 53.8237 7.18504 53.8237 7.18504H53.9117V7.69892C53.6501 7.69892 53.3884 7.69892 53.0411 7.78574H52.6939V7.52762C52.9555 7.52762 53.1291 7.44315 53.3884 7.44315V7.18504L53.4764 7.09939C53.4764 6.92693 53.6501 6.66999 53.7369 6.49752H53.5632C53.4764 6.58317 53.5632 6.75563 53.4764 6.75563C53.216 6.84128 53.0411 6.84128 52.9555 6.41188V6.06812C52.9555 5.89565 53.1291 5.89565 53.216 5.98247L53.3884 6.15376C53.3028 6.06812 53.8237 6.41187 53.8237 6.15376C53.8237 6.06812 53.9117 6.06812 53.9117 5.98247ZM52.6939 12.5092H52.7807C52.7807 12.5948 52.7807 12.6817 52.6939 12.6817V12.5092ZM53.9117 11.9085C53.8237 11.8228 53.65 11.8228 53.5632 11.7372C53.7369 11.5647 53.8237 11.4791 53.9117 11.221V11.9085ZM52.6939 9.67582V10.1041C52.7807 10.1041 52.7807 10.0196 52.8675 10.0196C52.7807 10.1041 52.7807 10.2765 52.6939 10.3622V12.4235C52.6939 12.3379 52.7807 12.2523 52.7807 12.1654C52.8675 11.7372 52.9555 11.3078 53.0411 11.0497C53.3884 10.8772 53.8237 10.964 53.9117 11.0497V10.7059C53.5632 10.6203 53.1291 10.7059 53.1291 10.7059C53.216 10.5346 53.3884 10.0196 53.4764 9.84829C53.5632 9.76147 53.7369 9.76147 53.9117 9.67582V9.41771H53.5632C53.65 9.07395 53.7369 8.81701 53.9117 8.5589V8.1295C53.8237 8.1295 53.7369 8.21514 53.7369 8.21514C53.4764 8.73019 53.3884 8.98831 53.216 9.50453C53.0411 9.59018 52.8675 9.67582 52.6939 9.67582ZM52.7807 8.04268C53.0411 8.30079 53.216 8.47325 53.3028 8.64455C53.3028 8.73019 53.3028 8.81701 53.1291 8.90266C53.0411 8.98831 52.8675 8.98831 52.9555 9.07395C53.0411 9.07395 53.1291 9.07395 53.216 9.16077C53.216 9.24642 53.1291 9.41771 52.9555 9.50453C52.8675 9.50453 52.7807 9.50453 52.6939 9.59018V8.81701C52.7807 8.81701 52.7807 8.81701 52.7807 8.73019H52.6939V8.04268H52.7807ZM53.9117 7.01375V5.98247C54.259 4.95237 54.6931 4.52179 54.6062 4.69425C54.6062 4.69425 54.9535 5.03801 54.7799 5.3806C54.3458 5.46624 54.0853 6.66999 53.9973 6.58317C53.9973 6.66999 53.9117 6.92693 53.9117 7.01375ZM53.9117 7.69892C54.259 7.69892 54.5194 7.69892 54.8679 7.78574C54.9535 7.87138 54.6931 7.87138 54.7799 7.95703C54.9535 7.87138 55.3888 7.87138 55.8229 8.04268C55.9097 8.04268 55.9965 7.95703 56.1713 7.78574C56.1713 7.61327 56.2582 7.52762 55.9965 7.27069C55.8229 7.27069 55.8229 7.27069 55.6493 7.18504C55.5624 7.27069 55.5624 7.27069 55.4756 7.35633C54.9535 7.35633 54.5194 7.44315 54.0853 7.35633C54.259 7.27069 54.6062 7.09939 54.9535 7.01375C55.3888 6.92693 55.8229 6.75563 56.345 6.66999C56.4318 6.41187 56.5186 6.23941 56.5186 5.98247C56.345 5.89565 56.1713 5.81 55.9965 5.72436C55.6492 5.89565 55.3888 5.89565 55.0403 5.98247C54.7799 5.98247 54.6062 5.81 54.4314 5.81C54.4314 5.98247 54.4314 6.32623 54.5194 6.41188C54.8679 6.58317 54.8679 6.49752 55.1283 6.23941C55.302 6.15376 55.6493 5.98247 55.8229 5.89565C56.0845 5.89565 55.9097 6.06812 55.9097 6.15376C55.6492 6.41187 55.0403 6.66999 54.5194 6.84128C54.3458 7.01375 54.0853 7.09939 53.9117 7.18504V7.69892ZM53.9117 10.7059C54.0853 10.7916 54.3458 10.8772 54.4314 11.1353C54.6931 11.6516 54.3458 11.9085 54.3458 11.9085H53.9117V10.7059ZM53.9117 8.1295C53.9973 7.95703 54.1721 7.95703 54.259 8.04268C54.259 8.1295 54.3458 8.21514 54.3458 8.30079C54.3458 8.5589 54.3458 8.73019 54.259 9.16077C54.3458 9.24642 54.259 9.41771 54.259 9.50453C54.1721 9.59018 53.9973 9.67582 53.9117 9.67582V9.41771C53.9117 9.33206 53.9973 9.33206 53.9973 9.33206C54.0853 9.16077 54.0853 8.98831 54.1721 8.81701V8.30079H54.0853C53.9973 8.30079 53.9973 8.38644 53.9117 8.38644V8.5589V8.1295Z" fill="#007F3D"/>
<path fill-rule="evenodd" clip-rule="evenodd" d="M33.2158 7.52744C32.8685 7.09921 32.6937 7.01356 32.6937 7.01356L32.2596 7.09921C32.4333 7.61309 32.6937 7.52744 32.6937 8.04249C32.8685 8.21496 33.129 8.47307 33.129 8.47307H33.2158V7.52744ZM33.2158 6.06793V7.01356C33.129 7.01356 33.0422 7.01356 32.9542 7.09921C32.9542 6.92674 32.8685 6.84109 33.0422 6.75545C33.0422 6.49734 32.8685 6.23922 33.0422 6.06793H33.2158ZM33.2158 11.6514C33.0422 11.9951 32.8685 12.3377 32.8685 12.509C32.9542 12.7671 33.129 12.5947 33.2158 12.3377V12.7671C33.129 12.8528 33.129 12.9384 33.129 12.9384C33.129 12.9384 32.9542 13.1965 32.7805 13.1109C32.5201 12.6815 32.8685 11.737 33.2158 11.0495V11.6514ZM33.2158 8.47307C33.3026 8.47307 33.6499 8.3006 33.3895 7.69873C33.3026 7.61309 33.2158 7.52744 33.2158 7.52744V8.47307ZM34.8677 10.7057H34.7797C34.7797 10.7914 34.8677 10.9639 34.8677 11.0495V11.1351V10.7057ZM34.8677 9.67564C34.6929 9.58999 34.4336 9.67564 34.2588 9.67564C34.2588 10.1907 34.172 10.7057 34.2588 11.3076V11.8227C34.172 11.9083 34.2588 12.0808 34.2588 12.2521C34.3456 12.509 34.4336 12.5947 34.6929 12.6815L34.8677 12.509V11.5645L34.7797 11.6514C34.6073 11.1351 34.6929 10.7057 34.6073 10.0194C34.6929 9.93375 34.7797 10.0194 34.8677 10.1039V9.67564ZM33.4763 11.0495C33.4763 11.0495 33.3026 11.3076 33.2158 11.6514V11.0495C33.4763 10.5344 33.7367 10.1039 33.7367 10.1039L34.0852 8.55871C33.8247 8.64436 33.6499 8.55872 33.7367 8.3006C33.8247 7.95684 34.0852 6.49734 33.9984 6.58298C33.9115 6.58298 33.8247 6.75545 33.7367 6.75545C33.7367 7.18485 33.7367 7.18485 33.3895 7.2705C33.3026 7.18485 33.3895 7.18485 33.3895 7.09921C33.3026 7.09921 33.2158 7.09921 33.2158 7.01356V6.06793C33.3895 6.23922 33.3895 6.41169 33.5631 6.41169C33.7367 6.23922 33.9984 6.15358 33.9984 6.06793C33.9984 5.80982 34.0852 5.63853 33.8247 5.29594C33.9115 4.95218 33.9984 4.60842 34.2588 4.26467C34.4336 4.35031 34.6073 4.43596 34.8677 4.86536V5.46606C34.7797 5.55171 34.8677 5.55171 34.8677 5.63853V6.06793C34.7797 6.15358 34.6929 6.15358 34.6073 6.23922C34.6073 6.49734 34.5193 6.84109 34.6073 6.84109C34.6929 6.75545 34.7797 6.6698 34.8677 6.58298V7.44297C34.6929 7.44297 34.6073 7.44297 34.4336 7.35615C34.3456 7.52744 34.3456 7.61309 34.4336 7.78555C34.5193 7.69873 34.5193 7.61309 34.5193 7.52744C34.6073 7.52744 34.7797 7.61309 34.8677 7.69873C34.6073 8.21496 34.5193 8.73001 34.4336 9.16059L34.8677 8.64436V9.07377C34.6073 9.24623 34.3456 9.58999 34.0852 9.8481C33.9984 10.5344 33.7367 10.9639 33.5631 11.737C33.4763 12.1652 33.3026 12.509 33.2158 12.7671V12.3377C33.3895 11.8227 33.4763 11.0495 33.4763 11.0495ZM34.8677 5.29594C34.8677 5.20795 34.9546 5.12348 34.9546 4.95218L34.8677 4.86536V5.29594ZM34.8677 7.44297V6.58298C35.0414 6.32604 35.0414 6.15358 35.215 5.89547C35.215 5.89547 35.0414 5.98229 34.8677 6.06793V5.63853C35.0414 5.38041 35.3018 5.29594 35.4755 5.20795C35.8239 5.20795 35.9107 5.29594 36.0844 5.55171C35.6491 6.23922 35.3018 6.84109 34.9546 7.44297H34.8677ZM34.8677 10.1039V9.67564H34.9546C35.0414 9.41753 35.3018 9.16059 35.3018 8.73001C35.1282 8.81683 35.0414 8.90247 34.8677 9.07377V8.64436C35.0414 8.47307 35.1282 8.47307 35.3018 8.3006C35.5623 8.38625 35.7359 8.55871 35.8239 8.81683C35.8239 9.07377 35.5623 9.50434 35.3898 9.76128C35.3018 9.8481 35.1282 9.93375 34.9546 10.1907C34.9546 10.1039 34.8677 10.1039 34.8677 10.1039ZM34.8677 12.509V11.5645C34.9546 11.3933 35.0414 11.3076 35.0414 11.2208C35.0414 11.1351 34.9546 11.1351 34.8677 11.1351V10.7057C35.3898 10.6201 35.5623 10.4476 35.7359 10.1907C35.8239 10.1907 36.1712 10.362 36.258 10.5344C36.0844 10.7057 35.8239 10.877 35.5623 10.9639C35.7359 11.1351 36.1712 11.1351 36.5185 11.2208C36.6065 11.6514 35.9107 11.9083 35.9107 11.8227C35.8239 11.6514 35.6491 11.4789 35.3018 11.2208C35.215 11.3933 35.0414 11.6514 34.9546 11.9951C34.9546 12.3377 34.9546 12.4234 34.8677 12.509Z" fill="#007F3D"/>
<path fill-rule="evenodd" clip-rule="evenodd" d="M18.172 17.4087C18.3456 17.58 18.4336 17.7524 18.5193 17.8381V19.0418C18.3456 18.7837 18.172 18.6112 17.9984 18.44C17.9115 18.5256 17.9115 18.8694 17.9115 19.0418C17.9984 19.1263 17.9115 19.2976 17.8247 19.3856C17.6511 19.5557 17.3026 19.4712 17.129 19.3856C16.7817 19.3856 16.6081 19.2119 16.5212 19.1263C16.4344 18.955 17.0422 19.1263 17.217 18.8694C17.217 18.8694 17.3894 18.6981 17.4763 17.8381C15.9992 16.0348 15.3902 15.176 15.3902 14.8322C15.3902 14.6598 16.5212 14.7466 16.6949 15.0035C16.8685 15.5198 16.7817 15.6054 17.8247 16.8936C17.9115 16.6367 18.2588 16.0348 18.5193 15.6054V16.3774C18.4336 16.7223 18.2588 17.0661 18.172 17.4087ZM18.5193 17.8381L18.6073 18.0105C18.6941 17.7524 18.6941 17.4955 18.6073 17.2374L18.7809 17.0661C18.7809 16.3774 19.0414 15.7767 18.8677 15.8635C18.6941 16.0348 18.6073 16.2073 18.5193 16.3774V15.6054C18.6073 15.5198 18.6941 15.4329 18.7809 15.3473L18.9545 15.0892C19.0414 15.0892 19.215 15.0892 19.3898 15.176L19.4766 15.3473C19.3898 15.8635 19.303 16.1205 19.215 16.9793L19.3898 17.2374C19.303 17.4087 18.9545 18.2675 19.0414 18.44C19.5635 19.0418 20.0844 19.5557 20.346 19.8995C20.5196 19.8995 21.0406 20.8451 20.9537 21.102C20.9537 21.3601 20.5196 21.0164 19.8239 20.587V20.3289C19.3898 19.8138 18.9545 19.4712 18.5193 19.0418V17.8381Z" fill="#007F3D"/>
<path fill-rule="evenodd" clip-rule="evenodd" d="M43.9997 84.938C21.1307 84.938 2.52182 66.6378 2.52182 44.0422C2.52182 21.3609 21.1307 3.05958 43.9997 3.05958V2.45986C20.7821 2.45986 1.91272 21.1027 1.91272 44.0422C1.91272 66.9817 20.7821 85.6257 43.9997 85.6257V84.938ZM85.4776 44.0422C85.4776 66.6378 66.8688 84.938 43.9997 84.938V85.6257C67.303 85.6257 86.0867 66.9817 86.0867 44.0422C86.0867 21.1027 67.303 2.45986 43.9997 2.45986V3.05958C66.8688 3.05958 85.4776 21.3609 85.4776 44.0422Z" fill="#007F3D"/>
<path fill-rule="evenodd" clip-rule="evenodd" d="M44 86.2277C20.435 86.2277 1.30506 67.3267 1.30506 44.0433C1.30506 20.76 20.435 1.85772 44 1.85772V0.569092C19.739 0.569092 0 19.9866 0 44.0433C0 68.0132 19.739 87.4307 44 87.4307V86.2277ZM86.6949 44.0433C86.6949 67.3267 67.6519 86.2277 44 86.2277V87.4307C68.2598 87.4307 88 68.0132 88 44.0433C88 19.9866 68.2598 0.569092 44 0.569092V1.85772C67.6519 1.85772 86.6949 20.76 86.6949 44.0433Z" fill="#007F3D"/>
<path fill-rule="evenodd" clip-rule="evenodd" d="M32.782 25.0561C31.565 24.1982 29.9994 24.8848 29.9125 25.0561C29.9125 24.9704 29.1297 25.5713 29.3902 26.7743C29.7388 30.2118 28.7823 39.5761 28.2601 43.1838C28.1732 44.044 27.9995 44.9031 27.8246 45.8479C27.043 49.9708 25.7391 54.8683 25.5654 55.4704C23.9118 60.7974 22.2605 63.8042 21.5646 64.3194C24.4341 64.6633 27.6509 58.2201 28.6955 56.1581C28.8692 55.8142 29.0429 55.556 29.2165 55.2122C29.2165 55.1265 29.2166 55.1265 29.3046 55.0408C30.3479 52.6349 31.9992 47.4804 32.782 45.4195V25.0561ZM32.782 16.2071V16.8936C32.2609 16.6366 31.8255 16.6366 31.8255 16.6366C31.8255 16.6366 32.1729 16.3772 32.782 16.2071ZM32.782 65.351C32.2609 65.6949 31.6518 65.9531 31.0439 66.1244C30.869 66.1244 29.1297 66.8967 26.5219 66.811C23.5644 66.5528 21.9988 64.749 21.8251 64.6633C27.3904 65.2654 30.4348 61.5696 31.4781 60.024C31.565 59.9395 31.6518 59.8515 31.7386 59.6801C31.9992 59.2506 32.3478 58.8222 32.5215 58.3915C32.6083 58.2201 32.6951 58.0476 32.782 57.9619V65.351ZM41.1299 37.257C37.825 36.8263 34.6081 35.8815 34.2607 31.6718C34.1739 30.8995 34.2607 30.125 34.1739 29.3515C34.1739 28.2354 34.0859 27.0325 34.0002 26.86C33.7385 25.9152 33.3043 25.3143 32.782 25.0561V45.4195V45.3327C34.1739 41.982 36.0869 40.7779 36.7817 40.3495C36.8685 40.2627 37.0434 40.1781 37.1302 40.0913C38.4341 39.2322 39.9129 38.8027 41.1299 38.5445V37.257ZM41.1299 27.5477V36.0541C39.6523 35.5377 37.9999 34.5072 37.0434 32.3595C36.9565 32.1013 36.3474 31.1554 36.5211 29.3515C36.608 28.665 36.7817 28.0641 36.8685 27.3764C37.5645 19.9004 34.4344 17.5814 32.782 16.8936V16.2071C33.7385 15.9489 35.4778 15.9489 37.913 17.667C40.2603 19.3864 40.5208 22.5645 40.6077 23.5961V24.1982C40.6077 24.7979 40.5208 26.3447 41.1299 27.5477ZM41.1299 60.1097H40.9551C40.8694 60.1097 38.9564 60.7117 38.2604 61.2269C38.1736 61.3138 36.7817 61.9135 35.1292 63.5472C35.0424 63.5472 34.0859 64.5776 32.782 65.351V57.9619C33.2174 57.104 33.6516 56.0724 34.0002 54.8683C34.0859 54.6981 34.7818 52.6349 35.1292 50.9167L35.3909 49.8851C35.5646 48.9415 36.0869 46.9652 36.6948 45.247C36.7817 45.1601 37.3039 43.8715 37.913 43.0124C38.0867 42.7554 38.2604 42.496 38.521 42.2402C39.0432 41.7238 39.9129 40.8659 41.1299 40.3495V48.0825C40.6077 48.6833 40.3471 49.1986 40.3471 49.1986C40.3471 49.1986 39.0432 51.0892 38.521 55.6429C38.521 55.7285 39.3906 54.6981 41.1299 54.0104V60.1097ZM41.1299 38.5445V37.257C41.651 37.3427 42.1733 37.4284 42.6955 37.4284C43.1298 37.514 44.3468 37.7722 43.3915 38.2006C43.3035 38.2863 43.2166 38.2863 43.1298 38.2863H43.0429C42.6955 38.2863 41.9996 38.3731 41.1299 38.5445ZM43.9994 29.3515V36.4824C43.652 36.4824 42.5207 36.4824 41.1299 36.0541V27.5477C41.651 28.4936 42.435 29.2659 43.9994 29.3515ZM41.1299 40.3495C41.9127 40.0056 42.8692 39.7474 43.9126 39.7474H43.9994V46.5356C42.6955 46.707 41.739 47.3947 41.1299 48.0825V40.3495ZM43.9994 59.767H43.9126C43.4771 59.767 42.435 59.767 41.1299 60.1097V54.0104C41.9127 53.6665 42.8692 53.4083 43.9126 53.3226H43.9994V59.767ZM46.8689 37.257V38.5445C45.9993 38.3731 45.3033 38.2863 44.9559 38.2863H44.8691C44.7822 38.2863 44.6942 38.2863 44.5205 38.2006C43.652 37.7722 44.8691 37.514 45.3033 37.4284C45.8256 37.4284 46.3478 37.3427 46.8689 37.257ZM46.8689 27.5477V36.0541C45.477 36.4824 44.3468 36.4824 43.9994 36.4824V29.3515C45.565 29.2659 46.3478 28.4936 46.8689 27.5477ZM43.9994 39.7474H44.0863C45.1296 39.7474 46.0861 40.0056 46.8689 40.3495V48.0825C46.2598 47.3947 45.3033 46.707 43.9994 46.5356V39.7474ZM46.8689 60.1097C45.565 59.767 44.5205 59.767 44.0863 59.767H43.9994V53.3226H44.0863C45.1296 53.4083 46.0861 53.6665 46.8689 54.0104V60.1097ZM55.2168 25.0561C54.6946 25.4 54.2603 25.9152 53.9998 26.86C53.9129 27.0325 53.8249 28.2354 53.8249 29.3515C53.7381 30.125 53.8249 30.8995 53.7381 31.6718C53.3038 35.8815 50.1738 36.8263 46.8689 37.257V38.5445C48.0871 38.8027 49.5647 39.2322 50.8698 40.0913C50.9554 40.1781 51.1303 40.2627 51.2171 40.3495C51.8263 40.7779 53.7381 41.982 55.2168 45.3327V45.4195V25.0561ZM55.2168 16.2071V16.8936C53.5644 17.5814 50.3475 19.9004 51.1303 27.3764C51.2171 28.0641 51.3908 28.665 51.3908 29.3515C51.6514 31.1554 51.0434 32.1013 50.9554 32.3595C49.9989 34.5072 48.2596 35.5377 46.8689 36.0541V27.5477C47.4768 26.3447 47.3912 24.7979 47.3912 24.1982V23.5961C47.4768 22.5645 47.6517 19.3864 50.087 17.667C52.521 15.9489 54.2603 15.9489 55.2168 16.2071ZM55.2168 65.351C53.9129 64.5776 52.9564 63.5472 52.8684 63.5472C51.2171 61.9135 49.8252 61.3138 49.7384 61.2269C49.0424 60.7117 47.1306 60.1097 47.0426 60.1097H46.8689V54.0104C48.6082 54.6981 49.4778 55.7285 49.4778 55.6429C48.9556 51.0892 47.6517 49.1986 47.6517 49.1986C47.6517 49.1986 47.3912 48.6833 46.8689 48.0825V40.3495C48.0871 40.8659 48.9556 41.7238 49.4778 42.2402C49.6515 42.496 49.9133 42.7554 50.087 43.0124C50.6949 43.8715 51.2171 45.1601 51.2171 45.247C51.9119 46.9652 52.3473 48.9415 52.6079 49.8851C52.6947 50.229 52.7827 50.5729 52.8684 50.9167C53.217 52.6349 53.9129 54.6981 53.9129 54.8683C54.3472 56.0724 54.7814 57.104 55.2168 57.9619V65.351ZM55.2168 16.8936V16.2071C55.8248 16.3772 56.0865 16.6366 56.0865 16.6366C56.0865 16.6366 55.7391 16.6366 55.2168 16.8936ZM55.2168 45.4195C55.9996 47.4804 57.6509 52.6349 58.6954 55.0408C58.6954 55.1265 58.7823 55.1265 58.7823 55.2122C58.956 55.556 59.1297 55.8142 59.3034 56.1581C60.3467 58.2201 63.5648 64.6633 66.4342 64.3194C65.7383 63.8042 64.0858 60.7974 62.4334 55.4704C62.2597 54.8683 60.869 49.9708 60.173 45.8479C59.9993 44.9031 59.8256 44.044 59.7388 43.1838C59.2165 39.5761 58.26 30.2118 58.6086 26.7743C58.8691 25.5713 58.0863 24.9704 58.0863 25.0561C57.9995 24.8848 56.4339 24.1982 55.2168 25.0561V45.4195ZM66.1737 64.6633C66 64.749 64.4344 66.5528 61.4781 66.811C58.8691 66.8967 57.1298 66.1244 56.9561 66.1244C56.347 65.9531 55.7391 65.6949 55.2168 65.351V57.9619C55.3037 58.0476 55.3905 58.2201 55.3905 58.3915C55.6511 58.8222 55.9996 59.2506 56.2602 59.6801C56.347 59.8515 56.4339 59.9395 56.5219 60.024C57.5641 61.5696 60.6072 65.2654 66.1737 64.6633Z" fill="#007F3D"/>
<path fill-rule="evenodd" clip-rule="evenodd" d="M9.47743 50.0567L9.65106 51.088L8.52124 51.2593L8.69488 52.3774L9.82588 52.2037L9.9127 53.235L6.69568 53.7501L6.52204 52.6331L7.82551 52.4618L7.73986 51.3461L6.3484 51.5174L6.26158 50.4861L9.47743 50.0567Z" fill="#007F3D"/>
<path fill-rule="evenodd" clip-rule="evenodd" d="M10.5221 55.6414L10.7837 56.6727L8.87014 57.1866C8.69651 57.1866 8.52287 57.2734 8.34923 57.1866C8.17559 57.1866 8.00078 57.1866 7.82714 57.0165C7.6535 56.9296 7.56668 56.8428 7.47986 56.6727C7.30622 56.4991 7.2194 56.3289 7.2194 56.0708C7.13258 55.8995 7.13258 55.7271 7.13258 55.4701C7.04459 55.2977 7.04459 55.1264 7.13258 54.9539C7.13258 54.8683 7.2194 54.697 7.30622 54.6102C7.39304 54.44 7.47986 54.3532 7.6535 54.2676C7.82714 54.1808 8.00078 54.0963 8.17559 54.0095L10.0011 53.5801L10.2616 54.5245L8.34923 55.0396C8.17559 55.1264 8.00078 55.212 8.00078 55.2977C7.91396 55.4701 7.82714 55.5558 7.91396 55.7271C7.91396 55.8995 8.00078 56.0708 8.17559 56.1565C8.26241 56.2433 8.43605 56.2433 8.60969 56.1565L10.5221 55.6414Z" fill="#007F3D"/>
<path fill-rule="evenodd" clip-rule="evenodd" d="M9.04419 59.7668L8.60892 58.6498H8.088L7.74072 57.7042H10.0004V58.5642H9.39147L9.6531 59.2505L10.0004 58.9936V60.195L8.95737 61.1406L8.60892 60.1094L9.04419 59.7668ZM10.0004 57.7042H11.217L11.6523 58.7355L10.0004 60.195V58.9936L10.6081 58.5642H10.0004V57.7042Z" fill="#007F3D"/>
<path fill-rule="evenodd" clip-rule="evenodd" d="M12.0876 59.7673L13.3911 62.3437L12.8701 62.6863L10.262 61.9131L11.1314 63.6307L10.5225 63.9757L9.04538 61.1411L9.65312 60.7974L12.2612 61.5694L11.4787 60.1099L12.0876 59.7673Z" fill="#007F3D"/>
<path fill-rule="evenodd" clip-rule="evenodd" d="M13.5645 62.6879L14.1734 63.5467L13.216 64.2342L13.8249 65.1787L14.7811 64.4912L15.39 65.3512L12.6951 67.3257L12.0862 66.4669L13.216 65.6081L12.5203 64.7493L11.4784 65.5225L10.8695 64.6636L13.5645 62.6879Z" fill="#007F3D"/>
<path fill-rule="evenodd" clip-rule="evenodd" d="M14.263 66.6399C14.6103 66.2961 14.9588 66.126 15.3929 66.126V67.1549C15.2192 67.1549 15.0456 67.2418 14.8719 67.4131C14.6103 67.6712 14.5247 67.8425 14.5247 68.0149C14.4367 68.185 14.5247 68.4443 14.6103 68.53C14.7851 68.7024 14.9588 68.7881 15.1324 68.7881H15.3929V69.7325C15.2192 69.7325 15.0456 69.7325 14.8719 69.6469C14.6103 69.5601 14.3499 69.3888 14.0894 69.1307C13.8278 68.7881 13.6541 68.53 13.6541 68.273C13.5685 68.0149 13.5685 67.7568 13.6541 67.4131C13.7421 67.1549 13.9158 66.898 14.263 66.6399ZM15.3929 66.126H15.4809C15.9149 66.126 16.2622 66.3818 16.6107 66.8112C17.0448 67.2418 17.1316 67.6712 17.1316 68.1006C17.1316 68.53 16.8711 68.8726 16.5239 69.2163C16.1754 69.4744 15.9149 69.6469 15.6545 69.7325H15.3929V68.7881C15.4809 68.7024 15.6545 68.6168 15.8281 68.4443C16.0886 68.273 16.1754 68.0149 16.2622 67.8425C16.2622 67.6712 16.1754 67.4987 16.0886 67.3274C15.9149 67.1549 15.7413 67.0705 15.5677 67.0705C15.4809 67.0705 15.3929 67.0705 15.3929 67.1549V66.126Z" fill="#007F3D"/>
<path fill-rule="evenodd" clip-rule="evenodd" d="M17.9112 68.3576L18.6069 69.0452L18.1717 71.2778L19.4751 69.904L20.1709 70.5915L17.9112 72.9966L17.2155 72.3091L17.5639 70.1621L16.2593 71.4515L15.5647 70.7628L17.9112 68.3576Z" fill="#007F3D"/>
<path fill-rule="evenodd" clip-rule="evenodd" d="M20.5204 73.5122L20.9545 72.9983L22.1723 73.9416L21.3029 75.0585C20.9545 75.0585 20.6072 74.9728 20.4335 74.8872C20.1719 74.8016 19.9114 74.7147 19.651 74.4578C19.3905 74.2853 19.1289 74.0272 19.0421 73.7703C18.9553 73.4265 18.9553 73.1696 18.9553 72.9115C19.0421 72.5677 19.1289 72.3108 19.3905 72.0527C19.5642 71.7089 19.8246 71.5364 20.0851 71.452C20.4335 71.2795 20.694 71.2795 21.0413 71.3651C21.2149 71.3651 21.5634 71.5364 21.8238 71.7946C22.0843 71.967 22.3459 72.224 22.4327 72.3964C22.5196 72.5677 22.5196 72.7402 22.6064 72.9115C22.6064 73.0839 22.5196 73.2541 22.4327 73.5122L21.5634 72.9983C21.6502 72.9115 21.6502 72.7402 21.5634 72.6545C21.5634 72.5677 21.4765 72.3964 21.3897 72.3108C21.2149 72.224 20.9545 72.1383 20.7808 72.224C20.6072 72.224 20.3467 72.3964 20.1719 72.6545C19.9983 72.9115 19.8246 73.1696 19.9114 73.4265C19.9114 73.5978 19.9983 73.7703 20.1719 73.9416C20.2587 74.0272 20.3467 74.0272 20.4335 74.114C20.5204 74.114 20.694 74.1997 20.8676 74.1997L21.0413 73.9416L20.5204 73.5122Z" fill="#007F3D"/>
<path fill-rule="evenodd" clip-rule="evenodd" d="M26.1754 78.4944L26.0886 78.4088L26.1754 78.1507V78.4944ZM26.1754 77.8081L25.2192 77.293L24.7839 77.7213L23.8289 77.2062L26.1754 75.146V76.3474L25.7401 76.7768L26.1754 77.0349V77.8081ZM26.1754 78.4944V77.0349L26.349 77.1206L26.6106 75.9192L26.1754 76.3474V75.146L26.5227 74.8879L27.4788 75.4029L27.0447 78.9238L26.1754 78.4944Z" fill="#007F3D"/>
<path fill-rule="evenodd" clip-rule="evenodd" d="M29.217 78.5813L29.4775 77.8937L30.9546 78.4956L30.4337 79.8706C30.0864 79.9563 29.8259 79.9563 29.5643 79.9563C29.3039 79.9563 29.0434 79.8706 28.695 79.6982C28.3477 79.6125 28.0872 79.3544 27.9136 79.1831C27.7388 78.925 27.6519 78.6669 27.6519 78.41C27.5651 78.0674 27.6519 77.8093 27.7388 77.4655C27.9136 77.1217 28.0872 76.8636 28.3477 76.6055C28.5213 76.4342 28.8698 76.3486 29.1302 76.3486C29.3907 76.2618 29.738 76.3486 30.0864 76.5199C30.4337 76.6055 30.6073 76.778 30.781 76.9493C30.9546 77.0361 31.0426 77.2074 31.0426 77.3798C31.1294 77.5511 31.1294 77.7224 31.1294 77.9794L30.1732 77.8092C30.1732 77.6368 30.1732 77.5511 30.0864 77.3798C29.9996 77.293 29.9128 77.2074 29.738 77.2074C29.5643 77.1217 29.3907 77.1217 29.217 77.2074C28.9566 77.293 28.8698 77.4655 28.695 77.8092C28.6081 78.1518 28.5213 78.41 28.6081 78.6669C28.695 78.8394 28.8698 78.925 29.0434 79.0963H29.3907C29.4775 79.1831 29.6523 79.0963 29.738 79.0963L29.9128 78.8394L29.217 78.5813Z" fill="#007F3D"/>
<path fill-rule="evenodd" clip-rule="evenodd" d="M30.8717 80.4717L31.8279 77.2077L32.9577 77.5515V78.239L32.6093 78.151L32.4356 78.8385L32.7841 78.9253C32.8709 79.011 32.8709 79.011 32.9577 79.011V81.0724H32.8709L32.6093 79.9566C32.6093 79.7841 32.6093 79.6985 32.5236 79.6129C32.4356 79.526 32.4356 79.526 32.35 79.4404H32.2631L31.8279 80.7286L30.8717 80.4717ZM32.9577 77.5515L33.4798 77.7216C33.7403 77.8084 34.0007 77.8941 34.0875 77.9797C34.2623 78.151 34.348 78.239 34.436 78.4091V79.011C34.348 79.1823 34.2623 79.3548 34.1744 79.4404C34.0007 79.526 33.9139 79.6129 33.7403 79.6129C33.6534 79.6985 33.5666 79.6985 33.3918 79.6985C33.4798 79.7842 33.5666 79.7841 33.5666 79.8698C33.6534 79.8698 33.6534 79.9566 33.6534 80.1279C33.7403 80.2124 33.7403 80.3004 33.7403 80.3004L34.0007 81.4161L32.9577 81.0724V79.011H33.1313C33.1313 79.011 33.2182 79.011 33.3062 78.9253C33.3062 78.9253 33.3918 78.8385 33.3918 78.7529V78.4948C33.3062 78.4091 33.2182 78.3235 33.0445 78.3235L32.9577 78.239V77.5515Z" fill="#007F3D"/>
<path fill-rule="evenodd" clip-rule="evenodd" d="M35.0412 78.2387L35.9974 78.41L35.3029 81.7596L34.3455 81.5015L35.0412 78.2387Z" fill="#007F3D"/>
<path fill-rule="evenodd" clip-rule="evenodd" d="M38.4342 80.9007L39.3036 81.3301C39.2167 81.5882 39.0431 81.7595 38.8683 81.932C38.7815 82.0176 38.521 82.1901 38.3474 82.1901C38.1726 82.2757 37.9121 82.2757 37.6516 82.1901C37.3044 82.1901 36.9559 82.1032 36.7823 81.932C36.6086 81.7595 36.4338 81.5882 36.2602 81.2444C36.1734 80.9863 36.0877 80.6437 36.1734 80.2132C36.2602 79.6993 36.5218 79.2687 36.7823 79.0118C37.1296 78.7536 37.5648 78.668 38.0857 78.7536C38.521 78.8393 38.8683 78.9249 39.0431 79.1831C39.2167 79.3555 39.3904 79.6993 39.4772 80.043L38.521 80.1287C38.521 79.9562 38.521 79.8706 38.4342 79.8706C38.4342 79.7849 38.3474 79.6993 38.2606 79.6125C38.1726 79.6125 38.0857 79.5268 37.9989 79.5268C37.8253 79.5268 37.5648 79.5268 37.478 79.6993C37.3044 79.8706 37.2164 80.043 37.2164 80.3856C37.1296 80.7294 37.1296 80.9863 37.2164 81.1588C37.3044 81.3301 37.478 81.4157 37.6516 81.4157C37.9121 81.5025 37.9989 81.4157 38.1726 81.3301C38.2606 81.2444 38.3474 81.072 38.4342 80.9007Z" fill="#007F3D"/>
<path fill-rule="evenodd" clip-rule="evenodd" d="M41.9979 79.2696H42.954L42.8672 81.331C42.8672 81.5022 42.7804 81.6747 42.6936 81.846C42.6068 82.0185 42.5188 82.1898 42.4331 82.2766C42.2583 82.4467 42.0847 82.5335 41.9979 82.5335C41.7374 82.6192 41.5626 82.6192 41.2153 82.6192C41.1285 82.6192 40.9537 82.6192 40.6944 82.5335C40.5196 82.5335 40.3459 82.4467 40.2591 82.3622C40.1723 82.2766 39.9987 82.1898 39.9118 82.1041C39.8239 81.9328 39.737 81.7604 39.737 81.6747C39.737 81.4166 39.6514 81.2453 39.6514 81.0728L39.8239 79.0983L40.868 79.1839L40.6944 81.2453C40.6944 81.4166 40.6944 81.5022 40.78 81.6747C40.9537 81.7604 41.0417 81.846 41.2153 81.846C41.389 81.846 41.5626 81.7604 41.6494 81.6747C41.7374 81.5891 41.8242 81.5022 41.8242 81.2453L41.9979 79.2696Z" fill="#007F3D"/>
<path fill-rule="evenodd" clip-rule="evenodd" d="M43.3036 79.3551H44.3467L44.4335 81.8458H45.9986L46.0854 82.619L43.4773 82.7035L43.3036 79.3551Z" fill="#007F3D"/>
<path fill-rule="evenodd" clip-rule="evenodd" d="M45.8257 79.2696L48.9547 79.0983V79.8714L47.9117 79.9571L48.0866 82.5335H47.1304L46.9556 80.0427L45.9125 80.1284L45.8257 79.2696Z" fill="#007F3D"/>
<path fill-rule="evenodd" clip-rule="evenodd" d="M51.215 78.6678L52.258 78.4965L52.5185 80.4722V81.0729C52.5185 81.2442 52.4317 81.4167 52.3449 81.588C52.1712 81.7605 52.0844 81.8461 51.9096 81.9318C51.736 82.0174 51.5623 82.1042 51.3019 82.1899H50.7798C50.5193 82.1899 50.3457 82.1899 50.2588 82.1042C50.0852 82.1042 49.9972 82.0174 49.8236 81.9318C49.7368 81.8461 49.6499 81.6748 49.5631 81.588C49.4763 81.331 49.3895 81.1586 49.3895 80.9873L49.129 79.0116L50.0852 78.8391L50.4325 80.9005C50.4325 81.0729 50.5193 81.2442 50.6061 81.3311C50.7798 81.4167 50.8678 81.4167 51.0414 81.4167C51.215 81.331 51.3887 81.3311 51.4755 81.1586C51.5623 81.0729 51.5623 80.9005 51.5623 80.7292L51.215 78.6678Z" fill="#007F3D"/>
<path fill-rule="evenodd" clip-rule="evenodd" d="M53.3889 81.6739L52.5195 78.41L54.1715 77.9806H54.2595V78.6669L54.1715 78.7537L53.7374 78.8394L53.911 79.5269L54.2595 79.4412V80.0419C54.1715 80.0419 54.1715 80.1288 54.1715 80.1288H54.0846L54.2595 80.7283V81.5026L53.3889 81.6739ZM54.2595 80.7283V81.5026L54.4319 81.4158L54.2595 80.7283ZM54.2595 77.9806C54.5199 77.8937 54.7804 77.8937 54.954 77.8937C55.1277 77.8937 55.2156 77.9806 55.3893 78.0674C55.5629 78.2387 55.6497 78.3243 55.6497 78.5813C55.7366 78.7537 55.7366 78.925 55.6497 79.0975C55.6497 79.1831 55.5629 79.3544 55.4761 79.4412C55.3893 79.5269 55.3025 79.6125 55.1277 79.6982C55.3025 79.6982 55.3893 79.6982 55.3893 79.785C55.4761 79.785 55.5629 79.785 55.6497 79.8706C55.7366 79.9563 55.8234 79.9563 55.8234 80.0419L56.5191 80.8151L55.4761 81.1589L54.6067 80.3C54.5199 80.2132 54.4319 80.1288 54.4319 80.1288C54.3451 80.0419 54.2595 80.0419 54.2595 80.0419V79.4412L54.3451 79.3544C54.3451 79.3544 54.4319 79.3544 54.5199 79.2688C54.6067 79.2688 54.6936 79.1831 54.6936 79.0975V78.925C54.6936 78.8394 54.6067 78.7537 54.5199 78.6669H54.2595V77.9806Z" fill="#007F3D"/>
<path fill-rule="evenodd" clip-rule="evenodd" d="M57.7414 79.7839L57.4809 79.9552V80.4714L56.5247 80.8996L56.6116 77.2931L57.6546 76.8637L57.7414 77.035V78.4089L57.3929 77.8938L57.4809 79.182L57.7414 79.0107V79.7839ZM58.6108 79.5258L57.7414 79.7839V79.0107L58.0887 78.9251L57.7414 78.4089V77.035L59.9154 79.6126L58.8712 79.9552L58.6108 79.5258Z" fill="#007F3D"/>
<path fill-rule="evenodd" clip-rule="evenodd" d="M58.8684 76.4346L59.7377 76.0052L60.7807 78.3235L62.2578 77.6371L62.6063 78.3235L60.2587 79.5272L58.8684 76.4346Z" fill="#007F3D"/>
<path fill-rule="evenodd" clip-rule="evenodd" d="M65.5628 72.6544L66.3454 72.0525L67.5632 73.6857C67.6488 73.8558 67.7368 74.0282 67.8237 74.1995V74.7158C67.8237 74.9739 67.7368 75.0595 67.6488 75.2308C67.5632 75.4033 67.3896 75.5734 67.1279 75.747C67.0411 75.8315 66.8663 75.9183 66.6927 76.0028C66.519 76.0896 66.3454 76.1753 66.2586 76.1753C66.0849 76.2609 65.9113 76.2609 65.7365 76.1753C65.6508 76.1753 65.476 76.0896 65.3892 76.0028C65.2156 75.8315 65.0419 75.747 64.9551 75.5734L63.8253 73.9426L64.6078 73.3419L65.8245 75.0595C65.9113 75.1452 66.0849 75.2308 66.1717 75.3176C66.3454 75.3176 66.519 75.2308 66.6058 75.1452C66.7807 75.0595 66.8663 74.8871 66.8663 74.8014C66.8663 74.6301 66.8663 74.4576 66.7806 74.372L65.5628 72.6544Z" fill="#007F3D"/>
<path fill-rule="evenodd" clip-rule="evenodd" d="M66.6963 71.8793L67.4789 71.2775L69.5649 71.8793L68.3483 70.4198L69.1308 69.8179L71.3036 72.3087L70.5211 72.9962L68.4351 72.3944L69.6517 73.7682L68.8703 74.4557L66.6963 71.8793Z" fill="#007F3D"/>
<path fill-rule="evenodd" clip-rule="evenodd" d="M69.5634 69.389L70.258 68.7026L72.6056 71.1066L71.8231 71.7941L69.5634 69.389Z" fill="#007F3D"/>
<path fill-rule="evenodd" clip-rule="evenodd" d="M70.4358 68.6152L71.1316 67.842L73.3924 68.8721L72.0877 66.6383L72.7823 65.8663L74.4342 69.0434L73.7396 69.9034L70.4358 68.6152Z" fill="#007F3D"/>
<path fill-rule="evenodd" clip-rule="evenodd" d="M72.6962 65.9524L74.2601 63.6317L74.8702 64.0634L73.914 65.4373L74.3481 65.7811L75.2163 64.4917L75.7384 64.8354L74.8702 66.2093L75.3911 66.553L76.4353 65.0935L77.043 65.5229L75.3911 67.8413L72.6962 65.9524Z" fill="#007F3D"/>
<path fill-rule="evenodd" clip-rule="evenodd" d="M75.9986 64.2334L74.5203 63.3746L75.3029 61.9127C75.4777 61.569 75.6513 61.3989 75.737 61.3132C75.825 61.2264 75.9118 61.1407 75.9986 61.1407V62.0852C75.9986 62.1708 75.9118 62.2565 75.825 62.429L75.5633 62.7727L75.9986 63.0308V64.2334ZM77.3889 65.0054L75.9986 64.2334V63.0308L76.1722 63.1165L76.3459 62.7727C76.4339 62.6871 76.4339 62.6003 76.4339 62.5146C76.5195 62.429 76.5195 62.3445 76.4339 62.2565C76.4339 62.2565 76.4339 62.1708 76.3459 62.1708C76.2591 62.0852 76.1722 62.0852 76.0854 62.0852H75.9986V61.1407C76.0854 61.0551 76.1722 61.0551 76.1722 61.0551C76.4339 61.0551 76.6075 61.0551 76.7812 61.2264C76.9548 61.3132 77.0416 61.3989 77.1284 61.569C77.2152 61.657 77.2152 61.8271 77.2152 61.9996V62.3445C77.3021 62.2565 77.3889 62.1708 77.3889 62.1708C77.4757 62.1708 77.5625 62.1708 77.6505 62.0852H77.911L78.954 62.1708L78.4319 63.2021L77.3021 63.1165C77.1284 63.1165 77.0416 63.1165 76.9548 63.2021C76.868 63.2021 76.7812 63.2878 76.7812 63.3746L76.6943 63.4591L77.911 64.1466L77.3889 65.0054Z" fill="#007F3D"/>
<path fill-rule="evenodd" clip-rule="evenodd" d="M78.0872 61.5695L78.4345 60.625H78.7829C78.9565 60.625 79.0434 60.4538 79.1302 60.2813C79.217 60.1956 79.217 60.0243 79.217 59.9387C79.1302 59.8519 79.1302 59.7674 79.0434 59.7674C78.9565 59.6806 78.8697 59.6806 78.7829 59.7674C78.6961 59.7674 78.5224 59.9387 78.3476 60.1956C78.0872 60.5394 77.8267 60.7975 77.6531 60.8832C77.3914 61.0556 77.131 61.0556 76.9574 60.8832C76.7837 60.8832 76.6101 60.7119 76.5233 60.625C76.4364 60.4538 76.3484 60.2813 76.3484 60.0243C76.3484 59.7674 76.4364 59.5081 76.6101 59.25C76.7837 58.8218 76.9573 58.5637 77.2178 58.3924C77.3914 58.2211 77.6531 58.2211 78.0004 58.3067L77.7399 59.25H77.3046C77.2178 59.3368 77.131 59.4237 77.131 59.5949C77.0442 59.6806 77.0442 59.7674 77.0442 59.8519C77.131 59.9387 77.131 59.9387 77.2178 60.0243C77.2178 60.0243 77.3046 60.0243 77.3914 59.9387C77.3914 59.9387 77.4783 59.8519 77.6531 59.6806C77.9147 59.3368 78.0872 59.0787 78.2608 58.9063C78.4345 58.8218 78.6093 58.7361 78.7829 58.6505C78.9565 58.6505 79.1302 58.6505 79.3038 58.7361C79.4786 58.8218 79.6523 58.9942 79.7391 59.1655C79.8259 59.3368 79.9127 59.5081 79.9127 59.7674C79.9127 60.0243 79.8259 60.2813 79.7391 60.5394C79.4786 61.1413 79.3038 61.3982 78.9565 61.5695C78.6961 61.6563 78.4345 61.6563 78.0872 61.5695Z" fill="#007F3D"/>
<path fill-rule="evenodd" clip-rule="evenodd" d="M77.3041 57.532L77.7394 56.5007L80.7816 57.7033L80.4343 58.6489L77.3041 57.532Z" fill="#007F3D"/>
<path fill-rule="evenodd" clip-rule="evenodd" d="M77.8276 56.415L78.5221 53.3223L79.3047 53.4948L79.0442 54.5249L81.4775 55.2124L81.2171 56.1569L78.8706 55.5562L78.6101 56.5863L77.8276 56.415Z" fill="#007F3D"/>
<path fill-rule="evenodd" clip-rule="evenodd" d="M78.6088 53.4068L78.6956 52.2043L79.9123 51.6892L78.8704 50.916L79.0429 49.7146L80.7817 51.2598L82.1731 51.4311L81.9983 52.4612L80.608 52.2899L78.6088 53.4068Z" fill="#007F3D"/>
</svg>
