<?xml version="1.0" encoding="UTF-8"?><svg id="b" xmlns="http://www.w3.org/2000/svg" viewBox="0 0 55.4187 55.7011"><g id="c"><path d="M25.1364,17.0932l-.5905-.0017v10.6599h-1.4639v-10.6553h-1.1776v22.487h1.1776v-10.6541h1.4639v10.6501l.5905-.0017c1.0344-.0029,2.9911-.6193,2.9911-2.9331v-16.5398c0-2.3753-1.9567-3.0084-2.9911-3.0113ZM26.9499,36.6442c0,1.1086-.686,1.518-1.2265,1.6686v-19.9512c.5416.1581,1.2265.5859,1.2265,1.7428v16.5398Z" fill="#a72227" stroke-width="0"/><polygon points="31.5666 17.0932 28.4443 17.0932 28.4443 18.2708 30.2843 18.2708 28.4599 39.5813 31.5815 39.5813 31.5815 38.4037 29.7421 38.4037 31.5666 17.0932" fill="#a72227" stroke-width="0"/><polygon points="32.264 17.0955 32.264 39.583 33.4416 39.583 33.4416 28.9289 34.5433 28.9289 34.5433 27.7513 33.4416 27.7513 33.4416 18.2708 34.5433 18.2708 34.5433 17.0955 32.264 17.0955" fill="#a72227" stroke-width="0"/><path d="M27.7091,55.7011c-9.4299,0-18.7064-2.4828-26.827-7.1806l-.882-.51v-1.0189C0,27.8896,10.2786,10.0831,26.8247.5117l.8843-.5117.8843.5117c16.5467,9.5714,26.8253,27.3785,26.8253,46.4712l-.0006,1.0275-.882.51c-8.1201,4.6977-17.3965,7.1806-26.827,7.1806ZM3.5431,45.9664c7.3674,4.0606,15.6997,6.2019,24.166,6.2019s16.7997-2.1419,24.1665-6.2019c-.3507-17.1073-9.5173-32.9904-24.1665-41.873C13.0605,12.9754,3.8939,28.8591,3.5431,45.9664Z" fill="#a72227" stroke-width="0"/><path d="M33.4888,13.805l-.1456.2404-5.0012-3.1218v-.7177h-1.1776v.7177l-5.0019,3.122-.1458-.2406h-1.3774l.997,1.6448h12.2331l.9966-1.6448h-1.3773ZM31.4825,14.2723h-7.459l3.7297-2.3282,3.7293,2.3282Z" fill="#a72227" stroke-width="0"/><polygon points="40.7809 38.3991 40.7809 36.7374 46.0565 36.7374 47.0547 35.0908 45.6771 35.0908 45.3929 35.5598 36.9911 35.5598 36.707 35.0908 35.3299 35.0908 36.3275 36.7374 39.6033 36.7374 39.6033 39.5767 44.0319 39.5767 45.5493 42.1838 37.0532 42.1838 34.9964 42.1838 29.1257 42.1838 30.5943 46.4025 27.7095 46.4025 24.8242 46.4025 26.2933 42.1838 20.5094 42.1838 18.3658 42.1838 9.957 42.1838 11.4745 39.5767 15.9025 39.5767 15.9025 36.7374 19.1783 36.7374 20.1759 35.0908 18.7988 35.0908 18.5147 35.5598 10.1129 35.5598 9.8287 35.0908 8.4511 35.0908 9.4493 36.7374 14.7249 36.7374 14.7249 38.3991 10.7971 38.3991 7.9089 43.3613 18.3658 43.3613 20.5094 43.3613 24.6361 43.3613 23.167 47.5801 27.7095 47.5801 32.2514 47.5801 30.7829 43.3613 34.9964 43.3613 37.0532 43.3613 47.5975 43.3613 44.7093 38.3991 40.7809 38.3991" fill="#a72227" stroke-width="0"/></g></svg>