<?xml version="1.0" encoding="utf-8"?>
<!-- Generator: Adobe Illustrator 25.4.1, SVG Export Plug-In . SVG Version: 6.00 Build 0)  -->
<svg version="1.1" id="图层_1" xmlns="http://www.w3.org/2000/svg" xmlns:xlink="http://www.w3.org/1999/xlink" x="0px" y="0px"
	 viewBox="0 0 75.87 83.25" style="enable-background:new 0 0 75.87 83.25;" xml:space="preserve">
<style type="text/css">
	.st0{fill:#A5AEB4;}
	.st1{fill:#C30D23;}
	.st2{fill:#003F73;}
	.st3{fill:#D7E7F6;}
	.st4{fill:#FFFFFF;}
</style>
<g>
	<path class="st0" d="M70.59,39.53c0.11,0.27,2.81,4.17,0.15,9.73c3.45-2.58,4.82-1.78,5.13-2.68
		C75.23,42.42,72.18,40.44,70.59,39.53"/>
	<path class="st1" d="M64.96,63.56c1.88-2.36,6.58-6.19,10.91-6.76v-1.9c0,0-8.14,1.08-11.98,6.74
		C63.31,62.21,64.83,63.72,64.96,63.56"/>
	<path class="st2" d="M64.71,61.77c3.11-3.88,8.31-6.45,11.16-6.8v-7.2c0,0-9.02,1.75-12.79,6.49
		C60.99,57.51,64.15,62.47,64.71,61.77"/>
	<path class="st0" d="M66.65,60.11c-3.5-2.58-4.16-6.24-4.05-6.41c-2.73,2.6-2.08,11.09,1.87,14.29c3.72,3.01,8-3.91,8-3.91
		C71.24,62.83,68.77,61.43,66.65,60.11"/>
	<path class="st3" d="M62.5,55.42c3.15-4.44,10.65-7.1,13.37-7.24v-1.59c0,0-7.64,0.94-13.05,6.46
		C62.69,53.65,62.42,54.72,62.5,55.42"/>
	<path class="st1" d="M10.91,63.56C8.63,60.75,4.29,57.48,0,56.58V54.9c0,0,8.13,1.08,11.98,6.74
		C12.56,62.21,11.04,63.72,10.91,63.56"/>
	<path class="st2" d="M11.18,61.82C8.41,58.13,3.34,55.64,0,54.97v-7.2c0,0,9.01,1.75,12.79,6.49
		C14.88,57.51,11.72,62.53,11.18,61.82"/>
	<path class="st0" d="M9.22,60.11c3.5-2.58,4.16-6.24,4.05-6.41c2.73,2.6,2.08,11.09-1.87,14.29c-3.72,3.01-7.77-3.9-7.77-3.9
		C4.87,62.83,7.1,61.43,9.22,60.11 M5.28,39.53c-0.11,0.27-2.82,4.17-0.15,9.73C1.68,46.68,0.31,47.48,0,46.59
		C0.64,42.42,3.69,40.44,5.28,39.53"/>
	<path class="st3" d="M13.37,55.42C10.22,50.98,2.72,48.32,0,48.18v-1.59c0,0,7.64,0.94,13.05,6.46
		C13.18,53.65,13.45,54.72,13.37,55.42"/>
	<path class="st2" d="M3.63,64.84c12.88,0.31,17.65,9.06,33.41,9.06c15.16,0,17.02-7.51,35.45-9.56v9.06
		c-12.19,0-22.7,9.73-35.12,9.26c-11.72-0.44-25.22-8.76-33.74-9.09V64.84L3.63,64.84z"/>
	<path class="st1" d="M3.63,72.9c0.78,0.08,1.82,0.35,3.14,0.64c11.32,2.65,19.01,7.31,31.21,8.16c13.47-0.75,23.18-8.29,34.51-8.82
		v1.52c-12.13,1.17-19.03,7.79-34.51,8.84c-14.06-1.03-24.69-7.3-34.35-8.67V72.9L3.63,72.9z"/>
	<path class="st3" d="M3.63,64.08c9.75,1.11,21.6,7.94,34.35,9.32c12.77-0.74,16.8-6.46,34.51-9.38v1.77
		c-15.38,2.15-22.05,8.47-34.51,9.07c-14.19-1.37-22.06-7.05-34.35-9.07V64.08L3.63,64.08z"/>
	<path class="st4" d="M7.7,69.14L7.41,70.2l-0.07-0.02c0.03-0.21,0.04-0.38,0.01-0.52c-0.02-0.14-0.08-0.25-0.16-0.35
		c-0.09-0.1-0.18-0.16-0.29-0.19c-0.13-0.03-0.24-0.01-0.35,0.06c-0.11,0.07-0.18,0.17-0.21,0.29c-0.02,0.09-0.02,0.19,0.01,0.28
		c0.04,0.13,0.18,0.33,0.41,0.6c0.19,0.21,0.31,0.38,0.37,0.48c0.06,0.1,0.1,0.22,0.12,0.34c0.02,0.12,0.01,0.25-0.02,0.37
		c-0.06,0.23-0.19,0.42-0.38,0.55c-0.19,0.13-0.4,0.16-0.62,0.1c-0.07-0.02-0.14-0.04-0.2-0.07c-0.04-0.02-0.11-0.07-0.21-0.14
		c-0.1-0.08-0.17-0.12-0.2-0.13c-0.03-0.01-0.06,0-0.08,0.02c-0.02,0.02-0.05,0.06-0.08,0.13l-0.07-0.02l0.28-1.06l0.07,0.02
		c-0.03,0.23-0.03,0.4-0.01,0.53c0.02,0.12,0.08,0.23,0.17,0.34c0.09,0.1,0.2,0.17,0.33,0.2c0.15,0.04,0.28,0.02,0.4-0.05
		c0.11-0.08,0.19-0.18,0.23-0.32c0.02-0.08,0.02-0.15,0.01-0.24c-0.01-0.08-0.04-0.17-0.1-0.26c-0.04-0.06-0.14-0.19-0.31-0.39
		c-0.17-0.2-0.29-0.36-0.35-0.48C6.05,70.15,6,70.04,5.99,69.92c-0.02-0.12-0.01-0.24,0.03-0.37c0.06-0.22,0.18-0.39,0.36-0.52
		c0.18-0.13,0.37-0.16,0.58-0.1c0.13,0.04,0.26,0.11,0.38,0.23c0.06,0.05,0.1,0.09,0.13,0.09c0.03,0.01,0.06,0,0.09-0.01
		c0.03-0.02,0.06-0.06,0.09-0.13L7.7,69.14L7.7,69.14z"/>
	<path class="st4" d="M9.35,69.78c-0.22-0.05-0.42,0-0.61,0.18c-0.23,0.21-0.41,0.57-0.53,1.06c-0.13,0.51-0.14,0.92-0.03,1.23
		c0.08,0.24,0.23,0.39,0.45,0.44c0.23,0.06,0.45-0.01,0.66-0.2c0.21-0.19,0.37-0.53,0.49-1.02c0.13-0.53,0.15-0.95,0.05-1.25
		C9.74,69.99,9.58,69.84,9.35,69.78 M9.42,69.63c0.32,0.08,0.56,0.3,0.72,0.67c0.16,0.36,0.18,0.77,0.07,1.23
		c-0.12,0.47-0.33,0.83-0.65,1.08c-0.31,0.25-0.64,0.34-0.97,0.25C8.25,72.77,8,72.55,7.84,72.19c-0.15-0.36-0.17-0.78-0.05-1.26
		c0.12-0.49,0.36-0.86,0.7-1.1C8.79,69.61,9.1,69.55,9.42,69.63"/>
	<path class="st4" d="M12.58,70.66l0.02-0.08l0.86,0.25l-0.02,0.08l-0.09-0.03c-0.1-0.03-0.18,0-0.26,0.09
		c-0.04,0.04-0.08,0.14-0.13,0.31l-0.36,1.24c-0.09,0.31-0.18,0.54-0.28,0.7c-0.1,0.15-0.23,0.27-0.41,0.35
		c-0.18,0.08-0.39,0.08-0.63,0.02c-0.27-0.08-0.45-0.19-0.56-0.35c-0.1-0.16-0.16-0.34-0.16-0.55c0-0.15,0.05-0.4,0.16-0.77
		l0.34-1.2c0.05-0.19,0.07-0.32,0.04-0.39c-0.02-0.07-0.08-0.12-0.17-0.15l-0.09-0.02l0.02-0.08l1.06,0.3l-0.02,0.08l-0.09-0.03
		c-0.1-0.03-0.18-0.01-0.25,0.06c-0.05,0.05-0.09,0.15-0.14,0.33l-0.38,1.34c-0.03,0.12-0.06,0.26-0.09,0.42
		c-0.03,0.16-0.03,0.29-0.01,0.39c0.02,0.1,0.07,0.19,0.14,0.27c0.07,0.08,0.17,0.14,0.29,0.17c0.16,0.04,0.32,0.04,0.47-0.01
		c0.15-0.05,0.27-0.14,0.35-0.26c0.09-0.12,0.18-0.35,0.27-0.67l0.36-1.24c0.06-0.19,0.07-0.32,0.05-0.38
		c-0.03-0.08-0.09-0.13-0.18-0.16L12.58,70.66L12.58,70.66z"/>
	<path class="st4" d="M15.69,71.49l-0.19,0.72l-0.07-0.02c0.03-0.13,0.04-0.23,0.03-0.29c-0.01-0.1-0.04-0.18-0.09-0.23
		c-0.05-0.06-0.12-0.11-0.22-0.14l-0.34-0.1l-0.71,2.33c-0.06,0.19-0.08,0.31-0.06,0.36c0.03,0.08,0.09,0.13,0.18,0.16l0.08,0.03
		l-0.02,0.08l-1.03-0.32L13.26,74l0.09,0.03c0.1,0.03,0.19,0.01,0.26-0.05c0.04-0.04,0.09-0.15,0.14-0.32l0.71-2.33l-0.29-0.09
		c-0.11-0.03-0.2-0.05-0.25-0.04c-0.07,0.01-0.14,0.05-0.21,0.11c-0.07,0.07-0.13,0.17-0.18,0.31l-0.07-0.02l0.25-0.71L15.69,71.49
		L15.69,71.49z"/>
	<path class="st4" d="M16.15,73.19l1.12,0.36l0.28-0.87c0.05-0.16,0.08-0.26,0.08-0.32c0-0.04-0.01-0.08-0.04-0.12
		c-0.04-0.05-0.09-0.09-0.15-0.11l-0.08-0.03l0.03-0.08l1.03,0.34l-0.03,0.08l-0.09-0.03c-0.05-0.02-0.11-0.02-0.18,0
		c-0.05,0.01-0.09,0.04-0.11,0.08c-0.03,0.04-0.07,0.14-0.12,0.29l-0.64,1.96c-0.05,0.16-0.07,0.26-0.07,0.31
		c0,0.04,0.01,0.08,0.04,0.12c0.04,0.05,0.09,0.09,0.15,0.11l0.08,0.03l-0.03,0.08l-1.03-0.34l0.03-0.08l0.09,0.03
		c0.1,0.03,0.18,0.02,0.25-0.04c0.04-0.04,0.1-0.15,0.15-0.33l0.3-0.92l-1.12-0.37l-0.3,0.92c-0.05,0.16-0.08,0.26-0.08,0.31
		c0,0.04,0.01,0.08,0.04,0.12c0.04,0.05,0.09,0.09,0.14,0.11L16,74.85l-0.03,0.08l-1.04-0.34l0.03-0.08l0.09,0.03
		c0.1,0.03,0.18,0.02,0.25-0.04c0.04-0.04,0.1-0.15,0.15-0.33l0.64-1.96c0.05-0.16,0.08-0.26,0.08-0.32c0-0.04-0.01-0.08-0.04-0.12
		c-0.04-0.05-0.09-0.09-0.15-0.11l-0.09-0.03l0.03-0.08l1.04,0.34l-0.03,0.08l-0.09-0.03c-0.06-0.02-0.12-0.02-0.18,0
		c-0.04,0.01-0.08,0.04-0.11,0.08c-0.03,0.04-0.07,0.14-0.12,0.29L16.15,73.19L16.15,73.19z"/>
	<path class="st4" d="M21.63,73.32l-0.28,1.05l-0.06-0.02c0.03-0.33-0.01-0.59-0.1-0.77c-0.09-0.18-0.23-0.3-0.42-0.36
		c-0.16-0.05-0.32-0.05-0.49,0.01c-0.16,0.06-0.32,0.19-0.46,0.39c-0.15,0.2-0.28,0.46-0.38,0.8c-0.09,0.27-0.13,0.52-0.13,0.75
		c0,0.22,0.06,0.41,0.16,0.57c0.11,0.15,0.25,0.26,0.43,0.32c0.16,0.05,0.31,0.05,0.46,0.01c0.15-0.05,0.33-0.17,0.56-0.38
		l0.04,0.06c-0.21,0.23-0.41,0.38-0.62,0.46c-0.2,0.07-0.42,0.07-0.64,0c-0.4-0.13-0.65-0.42-0.75-0.86
		c-0.07-0.33-0.05-0.69,0.07-1.06c0.1-0.3,0.24-0.57,0.43-0.78c0.19-0.22,0.4-0.37,0.64-0.44c0.24-0.08,0.47-0.08,0.69-0.01
		c0.17,0.06,0.33,0.17,0.46,0.33c0.04,0.05,0.07,0.08,0.09,0.09c0.03,0.01,0.06,0.01,0.1-0.02c0.04-0.03,0.08-0.08,0.12-0.15
		L21.63,73.32L21.63,73.32z"/>
	<path class="st4" d="M22.14,75.12l1.12,0.37l0.28-0.87c0.05-0.15,0.08-0.26,0.08-0.31c0-0.04-0.01-0.08-0.04-0.12
		c-0.04-0.05-0.09-0.09-0.14-0.11l-0.09-0.03l0.03-0.08l1.03,0.34l-0.03,0.08l-0.08-0.03c-0.06-0.02-0.12-0.02-0.18,0
		c-0.05,0.01-0.08,0.04-0.11,0.08c-0.03,0.04-0.07,0.14-0.12,0.29l-0.64,1.96c-0.05,0.15-0.07,0.26-0.08,0.31
		c0,0.04,0.01,0.08,0.04,0.12c0.04,0.05,0.09,0.09,0.15,0.11l0.09,0.03l-0.03,0.08L22.39,77l0.03-0.08l0.08,0.03
		c0.1,0.03,0.18,0.02,0.25-0.04c0.05-0.04,0.1-0.15,0.16-0.33l0.3-0.92l-1.12-0.37l-0.3,0.92c-0.05,0.15-0.08,0.26-0.08,0.31
		c0,0.04,0.01,0.08,0.04,0.12c0.04,0.05,0.09,0.09,0.14,0.11l0.09,0.03l-0.03,0.08l-1.03-0.34l0.03-0.08l0.08,0.03
		c0.1,0.03,0.18,0.02,0.25-0.04c0.04-0.04,0.1-0.15,0.16-0.33l0.64-1.96c0.05-0.16,0.08-0.26,0.08-0.31c0-0.04-0.01-0.08-0.04-0.12
		c-0.04-0.05-0.09-0.09-0.15-0.11l-0.09-0.03l0.03-0.08l1.04,0.34l-0.03,0.08l-0.09-0.03c-0.06-0.02-0.12-0.02-0.18,0
		c-0.04,0.01-0.08,0.04-0.11,0.08c-0.03,0.04-0.07,0.14-0.12,0.29L22.14,75.12L22.14,75.12z"/>
	<path class="st4" d="M24.66,77.61l-0.03,0.08l-1.04-0.32l0.02-0.08l0.09,0.03c0.1,0.03,0.18,0.02,0.25-0.04
		c0.04-0.04,0.09-0.15,0.15-0.33l0.6-1.97c0.05-0.16,0.07-0.26,0.07-0.32c0-0.04-0.02-0.08-0.04-0.12c-0.04-0.05-0.09-0.09-0.15-0.1
		L24.5,74.4l0.02-0.08l1.04,0.32l-0.03,0.08l-0.09-0.03c-0.1-0.03-0.18-0.01-0.25,0.04c-0.04,0.04-0.1,0.15-0.15,0.33l-0.6,1.97
		c-0.05,0.15-0.07,0.26-0.07,0.31c0,0.04,0.02,0.08,0.05,0.12c0.04,0.05,0.09,0.09,0.15,0.1L24.66,77.61L24.66,77.61z"/>
	<path class="st4" d="M25.61,74.66l0.66,0.2l0.78,2.74l0.54-1.76c0.06-0.19,0.08-0.31,0.06-0.37c-0.02-0.08-0.09-0.13-0.18-0.16
		l-0.08-0.03l0.02-0.08l0.85,0.26l-0.03,0.08l-0.09-0.02c-0.1-0.03-0.19-0.02-0.25,0.05c-0.04,0.04-0.09,0.15-0.14,0.32l-0.79,2.57
		l-0.06-0.02l-0.85-2.95l-0.58,1.88c-0.06,0.19-0.08,0.31-0.06,0.37c0.02,0.08,0.08,0.13,0.18,0.16l0.09,0.02l-0.03,0.08l-0.85-0.26
		l0.02-0.08l0.08,0.03c0.1,0.03,0.19,0.02,0.26-0.05c0.04-0.04,0.09-0.14,0.14-0.32l0.65-2.12c-0.04-0.12-0.07-0.21-0.1-0.25
		c-0.03-0.04-0.07-0.09-0.13-0.14c-0.03-0.02-0.08-0.05-0.15-0.07L25.61,74.66L25.61,74.66z"/>
	<path class="st4" d="M29.34,77.78l-0.08-1.36l-0.76,1.13L29.34,77.78L29.34,77.78z M29.34,77.96l-0.95-0.25l-0.3,0.44
		c-0.07,0.11-0.12,0.19-0.13,0.25c-0.01,0.05-0.01,0.09,0.02,0.14c0.03,0.04,0.1,0.09,0.21,0.13l-0.02,0.08l-0.77-0.21l0.02-0.08
		c0.11,0,0.18-0.01,0.22-0.04c0.08-0.06,0.19-0.19,0.32-0.39l1.54-2.31l0.06,0.02l0.17,2.79c0.01,0.22,0.04,0.38,0.08,0.45
		c0.04,0.07,0.11,0.13,0.21,0.16l-0.02,0.08l-0.97-0.26l0.02-0.08c0.1,0.02,0.17,0.02,0.21-0.01c0.04-0.02,0.07-0.06,0.09-0.11
		c0.02-0.07,0.02-0.18,0.01-0.33L29.34,77.96L29.34,77.96z"/>
	<path class="st4" d="M31.6,76.34l0.67,0.14l1.02,2.67l0.38-1.8c0.04-0.19,0.05-0.32,0.02-0.37c-0.03-0.07-0.1-0.12-0.19-0.14
		l-0.09-0.02l0.02-0.09l0.86,0.18L34.28,77l-0.09-0.02c-0.11-0.02-0.19,0-0.25,0.07c-0.04,0.04-0.07,0.15-0.11,0.33l-0.56,2.63
		L33.21,80l-1.1-2.86l-0.41,1.92c-0.04,0.19-0.05,0.32-0.03,0.37c0.03,0.07,0.1,0.12,0.19,0.14l0.09,0.02l-0.02,0.09l-0.86-0.19
		l0.02-0.08l0.09,0.02c0.11,0.02,0.19,0,0.25-0.07c0.04-0.04,0.07-0.15,0.11-0.33L32,76.86c-0.05-0.12-0.09-0.2-0.12-0.25
		c-0.03-0.04-0.08-0.08-0.14-0.13c-0.03-0.02-0.09-0.04-0.16-0.05L31.6,76.34L31.6,76.34z"/>
	<path class="st4" d="M35.5,77.21c-0.23-0.02-0.42,0.06-0.58,0.26c-0.2,0.24-0.32,0.62-0.38,1.12c-0.05,0.52-0.01,0.92,0.14,1.22
		c0.11,0.23,0.28,0.35,0.5,0.37c0.24,0.03,0.44-0.07,0.62-0.29c0.18-0.22,0.3-0.57,0.35-1.07c0.06-0.54,0.01-0.95-0.13-1.24
		C35.92,77.36,35.75,77.23,35.5,77.21 M35.56,77.04c0.33,0.04,0.6,0.22,0.8,0.56c0.21,0.34,0.29,0.74,0.24,1.21
		c-0.05,0.48-0.21,0.87-0.49,1.16c-0.27,0.29-0.58,0.42-0.93,0.38c-0.35-0.04-0.63-0.22-0.83-0.55c-0.2-0.34-0.28-0.75-0.23-1.24
		c0.05-0.5,0.23-0.9,0.54-1.19C34.93,77.11,35.23,77,35.56,77.04"/>
	<path class="st4" d="M37.51,78.86c0.02,0,0.04,0,0.06,0.01c0.02,0,0.03,0,0.04,0c0.24,0.01,0.43-0.05,0.55-0.18
		c0.13-0.13,0.2-0.29,0.2-0.5c0.01-0.2-0.04-0.36-0.13-0.49c-0.1-0.13-0.22-0.2-0.39-0.2c-0.07,0-0.17,0.01-0.3,0.03L37.51,78.86
		L37.51,78.86z M39.26,80.56l-0.68-0.02l-0.81-1.52c-0.07,0-0.11,0-0.16,0c-0.02,0-0.03,0-0.05,0c-0.02,0-0.04,0-0.06-0.01
		l-0.03,0.93c-0.01,0.2,0.01,0.32,0.04,0.38c0.04,0.07,0.12,0.11,0.21,0.11l0.1,0l0,0.09l-1.09-0.04l0-0.09l0.1,0
		c0.11,0,0.19-0.04,0.23-0.12c0.03-0.05,0.04-0.16,0.05-0.34l0.07-2.06c0.01-0.2-0.01-0.33-0.04-0.38
		c-0.04-0.07-0.12-0.11-0.21-0.11l-0.1,0l0-0.09l0.92,0.03c0.27,0.01,0.47,0.04,0.59,0.1c0.13,0.05,0.23,0.15,0.32,0.28
		c0.08,0.14,0.13,0.29,0.12,0.48c-0.01,0.2-0.07,0.37-0.17,0.51c-0.11,0.14-0.27,0.24-0.48,0.29l0.49,0.93
		c0.11,0.22,0.21,0.36,0.3,0.43c0.08,0.07,0.19,0.12,0.33,0.14L39.26,80.56L39.26,80.56z"/>
	<path class="st4" d="M41.09,80.35l-1.3-2.55l0.26,2.12c0.02,0.19,0.05,0.32,0.09,0.36c0.05,0.06,0.13,0.08,0.23,0.07l0.09-0.01
		l0.01,0.09l-0.88,0.11l-0.01-0.09l0.09-0.01c0.11-0.02,0.18-0.06,0.21-0.15c0.02-0.05,0.02-0.17,0-0.35l-0.25-2.07
		c-0.02-0.14-0.04-0.24-0.07-0.3c-0.02-0.04-0.06-0.08-0.11-0.1c-0.05-0.02-0.13-0.03-0.23-0.02l-0.01-0.09l0.71-0.09l1.22,2.36
		l0.6-2.59l0.71-0.09l0.01,0.09l-0.09,0.01c-0.11,0.01-0.18,0.06-0.21,0.15c-0.02,0.05-0.02,0.17,0,0.35l0.25,2.07
		c0.03,0.19,0.06,0.31,0.1,0.36c0.05,0.06,0.13,0.08,0.23,0.07l0.09-0.01l0.01,0.09l-1.07,0.13l-0.01-0.09l0.09-0.01
		c0.11-0.01,0.18-0.06,0.21-0.15c0.02-0.05,0.02-0.17,0-0.35l-0.26-2.12l-0.65,2.78L41.09,80.35L41.09,80.35z"/>
	<path class="st4" d="M44.57,78.48l-0.69-1.17l-0.17,1.35L44.57,78.48L44.57,78.48z M44.66,78.64l-0.96,0.2l-0.06,0.53
		c-0.02,0.13-0.02,0.23-0.01,0.29c0.01,0.05,0.04,0.09,0.08,0.12c0.04,0.03,0.13,0.03,0.25,0.02l0.02,0.09l-0.78,0.17l-0.02-0.08
		c0.1-0.05,0.16-0.09,0.18-0.13c0.05-0.09,0.08-0.25,0.11-0.49l0.33-2.76l0.06-0.01l1.42,2.41c0.11,0.19,0.2,0.32,0.27,0.37
		c0.07,0.05,0.16,0.07,0.26,0.05l0.02,0.08l-0.98,0.21l-0.02-0.08c0.1-0.03,0.16-0.06,0.19-0.1c0.03-0.04,0.04-0.09,0.03-0.14
		c-0.02-0.07-0.06-0.17-0.14-0.3L44.66,78.64L44.66,78.64z"/>
	<path class="st4" d="M47.78,77.9l0.06,0l0.06,0.89l-1.87,0.61l-0.03-0.08l0.09-0.03c0.1-0.03,0.16-0.1,0.18-0.2
		c0.01-0.06-0.01-0.17-0.07-0.34l-0.64-1.96c-0.06-0.19-0.12-0.3-0.16-0.34c-0.07-0.05-0.15-0.06-0.24-0.03l-0.09,0.03l-0.03-0.08
		l1.09-0.36l0.03,0.08c-0.13,0.04-0.21,0.08-0.25,0.13c-0.04,0.05-0.06,0.1-0.07,0.15c0,0.05,0.02,0.17,0.08,0.35l0.62,1.91
		c0.04,0.12,0.08,0.21,0.11,0.25c0.02,0.03,0.05,0.04,0.09,0.05c0.04,0.01,0.13-0.02,0.29-0.07l0.17-0.06
		c0.19-0.06,0.31-0.12,0.37-0.18c0.06-0.06,0.11-0.14,0.15-0.25C47.76,78.27,47.78,78.11,47.78,77.9"/>
	<path class="st4" d="M49.8,74.89l-0.03-0.08l0.85-0.29l0.03,0.08l-0.09,0.03c-0.09,0.03-0.15,0.11-0.17,0.22
		c-0.01,0.06,0.02,0.17,0.08,0.34l0.42,1.22c0.1,0.3,0.16,0.55,0.17,0.73c0.01,0.18-0.03,0.36-0.13,0.53
		c-0.1,0.17-0.27,0.29-0.51,0.37c-0.26,0.09-0.48,0.1-0.66,0.04c-0.17-0.07-0.33-0.19-0.45-0.36c-0.08-0.12-0.19-0.36-0.31-0.72
		l-0.4-1.18c-0.06-0.19-0.13-0.3-0.19-0.35c-0.06-0.04-0.14-0.05-0.23-0.02l-0.09,0.03l-0.03-0.08l1.04-0.36l0.03,0.08l-0.09,0.03
		c-0.1,0.04-0.16,0.1-0.17,0.19c-0.01,0.06,0.01,0.18,0.07,0.35l0.45,1.32c0.04,0.12,0.09,0.25,0.16,0.39
		c0.07,0.15,0.14,0.25,0.22,0.32c0.07,0.07,0.16,0.12,0.27,0.14c0.1,0.02,0.22,0.02,0.34-0.03c0.16-0.05,0.28-0.14,0.38-0.27
		c0.09-0.13,0.14-0.27,0.14-0.42c0-0.15-0.06-0.39-0.17-0.71l-0.42-1.22c-0.06-0.19-0.12-0.3-0.17-0.34
		c-0.07-0.05-0.15-0.06-0.24-0.03L49.8,74.89L49.8,74.89z"/>
	<path class="st4" d="M50.56,74.53l0.65-0.24l2.28,1.72l-0.63-1.73c-0.07-0.18-0.13-0.29-0.17-0.33c-0.07-0.05-0.15-0.05-0.24-0.02
		l-0.08,0.03l-0.03-0.08l0.83-0.3l0.03,0.08L53.1,73.7c-0.1,0.04-0.16,0.1-0.18,0.19c-0.01,0.06,0.02,0.17,0.08,0.34l0.92,2.53
		l-0.07,0.02l-2.45-1.84l0.67,1.85c0.07,0.18,0.13,0.29,0.17,0.33c0.07,0.04,0.15,0.05,0.24,0.02l0.08-0.03l0.03,0.08l-0.83,0.3
		l-0.03-0.08l0.08-0.03c0.1-0.04,0.16-0.1,0.17-0.19c0.01-0.06-0.02-0.17-0.08-0.34l-0.76-2.09c-0.1-0.08-0.18-0.12-0.23-0.14
		c-0.05-0.02-0.11-0.03-0.19-0.03c-0.04,0-0.09,0.01-0.16,0.03L50.56,74.53L50.56,74.53z"/>
	<path class="st4" d="M55.38,76.07l0.03,0.08l-1.02,0.37l-0.03-0.08l0.08-0.03c0.1-0.04,0.16-0.1,0.18-0.19
		c0.01-0.06-0.02-0.18-0.08-0.35l-0.71-1.94c-0.05-0.15-0.1-0.25-0.13-0.29c-0.03-0.03-0.06-0.06-0.11-0.07
		c-0.07-0.02-0.12-0.01-0.18,0.01l-0.08,0.03l-0.03-0.08l1.02-0.37l0.03,0.08l-0.09,0.03c-0.1,0.04-0.15,0.1-0.17,0.19
		c-0.01,0.06,0.01,0.18,0.08,0.36l0.71,1.94c0.05,0.15,0.1,0.25,0.13,0.29c0.03,0.03,0.06,0.05,0.11,0.07
		c0.06,0.02,0.12,0.01,0.18,0L55.38,76.07L55.38,76.07z"/>
	<path class="st4" d="M56.96,72.18l0.03,0.08c-0.08,0.05-0.13,0.11-0.16,0.17c-0.03,0.09-0.05,0.23-0.04,0.39l0.1,2.85l-0.06,0.03
		l-1.84-2.26c-0.09-0.12-0.15-0.19-0.18-0.21c-0.05-0.04-0.1-0.06-0.15-0.07s-0.12-0.01-0.19,0.01l-0.03-0.08l0.98-0.36l0.03,0.08
		c-0.11,0.05-0.17,0.1-0.19,0.15c-0.02,0.05-0.02,0.1,0,0.15c0.03,0.07,0.09,0.18,0.2,0.32l1.25,1.54l-0.07-1.94
		c-0.01-0.19-0.02-0.32-0.05-0.39c-0.02-0.04-0.05-0.08-0.1-0.1c-0.05-0.03-0.12-0.04-0.2-0.02c-0.01,0-0.02,0-0.03,0l-0.03-0.08
		L56.96,72.18L56.96,72.18z"/>
	<path class="st4" d="M57.87,72.03l0.41,1.19l0.53-0.18c0.14-0.05,0.22-0.1,0.25-0.17c0.04-0.09,0.03-0.22-0.02-0.39l0.07-0.02
		l0.36,1.05l-0.07,0.02c-0.07-0.14-0.12-0.23-0.15-0.27c-0.04-0.04-0.09-0.07-0.15-0.09c-0.06-0.01-0.14,0-0.24,0.03l-0.53,0.18
		l0.34,0.99c0.05,0.13,0.08,0.21,0.1,0.24c0.02,0.02,0.05,0.04,0.08,0.05c0.03,0.01,0.08,0,0.14-0.02l0.41-0.14
		c0.14-0.05,0.23-0.09,0.28-0.14c0.05-0.04,0.1-0.11,0.13-0.2c0.04-0.12,0.07-0.28,0.08-0.49l0.07-0.02l0.05,0.83l-1.85,0.64
		l-0.03-0.08l0.09-0.03c0.06-0.02,0.1-0.05,0.14-0.11c0.03-0.04,0.04-0.08,0.04-0.13c0-0.05-0.03-0.15-0.08-0.3l-0.67-1.96
		c-0.07-0.19-0.12-0.3-0.17-0.34c-0.06-0.04-0.14-0.05-0.24-0.02l-0.09,0.03l-0.03-0.08l1.85-0.64l0.26,0.65l-0.07,0.02
		c-0.08-0.15-0.15-0.25-0.19-0.3c-0.05-0.05-0.11-0.08-0.18-0.09c-0.05-0.01-0.14,0.01-0.26,0.05L57.87,72.03L57.87,72.03z"/>
	<path class="st4" d="M60.53,72.56c0.02-0.01,0.04-0.01,0.06-0.02c0.02-0.01,0.03-0.01,0.04-0.01c0.23-0.08,0.38-0.19,0.46-0.36
		c0.08-0.16,0.08-0.34,0.02-0.54c-0.06-0.19-0.16-0.33-0.29-0.41c-0.13-0.09-0.28-0.11-0.43-0.06c-0.07,0.02-0.16,0.07-0.27,0.13
		L60.53,72.56L60.53,72.56z M62.76,73.56l-0.64,0.21l-1.28-1.15c-0.06,0.02-0.11,0.04-0.15,0.05c-0.02,0-0.03,0.01-0.05,0.02
		c-0.02,0-0.04,0.01-0.06,0.01l0.29,0.88c0.06,0.19,0.12,0.31,0.17,0.34c0.07,0.05,0.15,0.06,0.24,0.03l0.09-0.03l0.03,0.08
		l-1.04,0.34l-0.03-0.08l0.09-0.03c0.1-0.03,0.16-0.1,0.18-0.2c0.01-0.05-0.01-0.17-0.07-0.34l-0.64-1.96
		c-0.06-0.19-0.12-0.3-0.16-0.34c-0.07-0.05-0.15-0.06-0.24-0.03l-0.09,0.03l-0.03-0.08l0.88-0.29c0.26-0.08,0.45-0.12,0.59-0.11
		c0.14,0.01,0.27,0.06,0.4,0.16c0.13,0.1,0.22,0.23,0.28,0.41c0.06,0.19,0.06,0.36,0.01,0.54c-0.05,0.17-0.17,0.31-0.36,0.44
		l0.78,0.71c0.18,0.16,0.32,0.26,0.42,0.3c0.1,0.04,0.22,0.05,0.36,0.02L62.76,73.56L62.76,73.56z"/>
	<path class="st4" d="M63.52,69.94l0.3,1.06l-0.07,0.02c-0.08-0.2-0.16-0.35-0.26-0.45c-0.09-0.11-0.2-0.18-0.32-0.22
		c-0.12-0.04-0.24-0.05-0.35-0.02c-0.12,0.04-0.21,0.11-0.27,0.23c-0.05,0.12-0.06,0.24-0.03,0.36c0.03,0.09,0.08,0.17,0.15,0.23
		c0.11,0.09,0.33,0.19,0.66,0.3c0.27,0.09,0.46,0.16,0.57,0.22c0.11,0.06,0.2,0.14,0.28,0.23c0.08,0.1,0.13,0.21,0.17,0.33
		c0.07,0.23,0.05,0.45-0.04,0.66c-0.09,0.21-0.25,0.34-0.48,0.41c-0.07,0.02-0.14,0.03-0.21,0.04c-0.04,0-0.12,0-0.26-0.01
		c-0.13-0.01-0.21-0.02-0.24-0.01c-0.03,0.01-0.05,0.03-0.06,0.06c-0.01,0.02-0.01,0.08,0,0.15l-0.07,0.02l-0.3-1.05l0.07-0.02
		c0.09,0.21,0.18,0.36,0.27,0.46c0.08,0.09,0.19,0.16,0.32,0.2c0.13,0.04,0.26,0.04,0.39,0.01c0.15-0.04,0.26-0.13,0.31-0.25
		c0.06-0.13,0.07-0.25,0.03-0.39c-0.02-0.08-0.06-0.15-0.11-0.22c-0.05-0.07-0.13-0.12-0.22-0.17c-0.06-0.03-0.21-0.09-0.47-0.18
		c-0.25-0.09-0.43-0.16-0.55-0.23c-0.11-0.06-0.21-0.14-0.28-0.23c-0.08-0.09-0.13-0.2-0.17-0.33c-0.06-0.22-0.05-0.43,0.04-0.63
		c0.09-0.2,0.24-0.33,0.44-0.39c0.13-0.04,0.28-0.04,0.45,0c0.08,0.02,0.13,0.02,0.16,0.01c0.03-0.01,0.05-0.03,0.07-0.06
		c0.01-0.03,0.02-0.08,0.01-0.16L63.52,69.94L63.52,69.94z"/>
	<path class="st4" d="M65.91,72.62l0.02,0.08l-1.06,0.26l-0.02-0.08l0.09-0.02c0.1-0.02,0.17-0.08,0.19-0.17
		c0.02-0.05,0-0.18-0.04-0.36l-0.5-2c-0.04-0.16-0.07-0.26-0.1-0.31c-0.02-0.03-0.06-0.06-0.1-0.08c-0.06-0.02-0.12-0.03-0.18-0.01
		l-0.09,0.02l-0.02-0.08l1.06-0.26l0.02,0.09l-0.09,0.02c-0.1,0.02-0.16,0.08-0.19,0.17c-0.02,0.06,0,0.18,0.04,0.36l0.5,2
		c0.04,0.15,0.07,0.26,0.1,0.3c0.02,0.04,0.06,0.06,0.1,0.08c0.06,0.02,0.12,0.03,0.18,0.01L65.91,72.62L65.91,72.62z"/>
	<path class="st4" d="M67.53,69.09l0.18,0.72l-0.07,0.02c-0.04-0.13-0.08-0.21-0.11-0.27c-0.06-0.08-0.12-0.13-0.19-0.16
		c-0.07-0.03-0.16-0.03-0.26-0.01l-0.35,0.07l0.51,2.39c0.04,0.19,0.08,0.31,0.12,0.35c0.06,0.06,0.14,0.07,0.24,0.05l0.08-0.02
		l0.02,0.08l-1.06,0.22l-0.02-0.09l0.09-0.02c0.1-0.02,0.17-0.08,0.2-0.17c0.02-0.05,0.01-0.17-0.03-0.34l-0.51-2.39l-0.3,0.06
		c-0.12,0.02-0.2,0.05-0.24,0.08c-0.06,0.04-0.1,0.11-0.13,0.2c-0.03,0.09-0.03,0.21-0.01,0.35l-0.07,0.01l-0.12-0.74L67.53,69.09
		L67.53,69.09z"/>
	<path class="st4" d="M69.68,68.73l0.88-0.12l0.01,0.09l-0.05,0.01c-0.03,0-0.08,0.03-0.14,0.07c-0.06,0.05-0.11,0.1-0.15,0.18
		c-0.04,0.07-0.09,0.19-0.14,0.35l-0.44,1.29l0.11,0.79c0.03,0.19,0.06,0.31,0.1,0.36c0.06,0.06,0.13,0.08,0.24,0.07l0.08-0.01
		l0.01,0.08l-1.07,0.15l-0.01-0.09l0.09-0.01c0.11-0.02,0.18-0.06,0.21-0.15c0.02-0.05,0.02-0.17-0.01-0.35l-0.1-0.75l-0.88-1.23
		c-0.1-0.14-0.17-0.23-0.21-0.27c-0.03-0.04-0.1-0.07-0.2-0.12c-0.03-0.01-0.07-0.02-0.11-0.01l-0.01-0.09l1.08-0.15l0.01,0.09
		l-0.06,0.01c-0.06,0.01-0.11,0.03-0.15,0.07c-0.04,0.04-0.06,0.1-0.05,0.17c0.01,0.06,0.06,0.15,0.16,0.29l0.67,0.94l0.35-1.04
		c0.05-0.16,0.08-0.27,0.07-0.34c-0.01-0.04-0.02-0.08-0.04-0.11c-0.02-0.03-0.05-0.05-0.09-0.07c-0.04-0.02-0.09-0.02-0.16-0.01
		L69.68,68.73L69.68,68.73z"/>
	<path class="st3" d="M62.92,19.87c0,0,0.02,30.61,0.02,30.64c-0.01,0-0.03,0.12-0.03,0.12c0-0.01-0.1,0.38-0.1,0.38
		c-2.74,10.41-11.1,17.43-24.85,20.87C24.38,68.11,15.75,60.81,13,50.74c0,0-0.02-0.09-0.04-0.13c0-0.01-0.03-0.38-0.03-0.38
		l0-30.36L62.92,19.87L62.92,19.87z"/>
	<polygon class="st4" points="45.14,48.93 40.66,55.45 50.14,68.08 46.01,69.49 38.35,58.81 30.57,70.14 27.36,68.11 35.98,55.51 
		31.17,49.09 33.47,45.69 38.26,52.18 42.71,45.68 45.14,48.93 	"/>
	<polygon class="st2" points="34.83,21.52 41.29,21.52 41.29,32.31 59.94,57.84 59.71,58.19 40.91,32.43 40.91,21.91 40.81,21.91 
		38.15,23.57 38.15,32.77 58.3,60.25 56.28,62.57 38.06,37.37 20.11,62.8 18.19,60.64 38.03,32.77 38.02,23.56 35.32,21.9 
		35.22,21.9 35.22,32.43 16.53,58.53 16.3,58.12 34.83,32.31 34.83,21.52 	"/>
	<path class="st2" d="M15.14,43.84c0-0.25,0.2-0.44,0.45-0.44c0.25,0,0.45,0.2,0.45,0.44c0,0.25-0.2,0.45-0.45,0.45
		C15.35,44.29,15.14,44.09,15.14,43.84"/>
	<polygon class="st4" points="22.77,36.82 26.49,42.17 28.86,38.8 24.45,32.75 24.45,21.71 21.03,21.71 21.03,32.75 14.2,42.17 
		14.2,48.91 22.77,36.82 	"/>
	<path class="st2" d="M20.83,21.52c0,0,0,11.04,0,11.17c-0.07,0.1-6.82,9.42-6.82,9.42v7.42c0,0,8.45-11.93,8.76-12.36
		c0.29,0.41,3.72,5.35,3.72,5.35l2.6-3.72c0,0-4.38-6.01-4.45-6.11c0-0.12,0-11.17,0-11.17H20.83L20.83,21.52z M24.26,21.91
		c0,0.37,0,10.9,0,10.9s4.2,5.78,4.36,5.99c-0.14,0.2-1.86,2.65-2.12,3.04c-0.29-0.42-3.72-5.35-3.72-5.35S15.04,47.4,14.4,48.31
		c0-0.99,0-5.96,0-6.08c0.07-0.1,6.82-9.42,6.82-9.42s0-10.53,0-10.9C21.54,21.91,23.93,21.91,24.26,21.91L24.26,21.91z"/>
	<path class="st2" d="M22.33,22.95c0-0.25,0.2-0.45,0.45-0.45c0.25,0,0.45,0.2,0.45,0.45c0,0.25-0.2,0.45-0.45,0.45
		C22.52,23.4,22.33,23.2,22.33,22.95"/>
	<polygon class="st2" points="22.8,23.39 22.8,33.73 27.64,40.46 27.57,40.54 22.76,33.79 15.81,43.64 15.7,43.6 22.71,33.67 
		22.71,23.29 22.8,23.39 	"/>
	<polygon class="st4" points="53.36,36.82 49.64,42.17 47.28,38.8 51.68,32.75 51.68,21.71 55.11,21.71 55.11,32.75 61.93,42.17 
		61.93,48.91 53.36,36.82 	"/>
	<path class="st2" d="M55.3,21.52c0,0,0,11.04,0,11.17c0.07,0.1,6.82,9.42,6.82,9.42v7.42c0,0-8.45-11.93-8.76-12.36
		c-0.29,0.41-3.72,5.35-3.72,5.35l-2.6-3.72c0,0,4.38-6.01,4.45-6.11c0-0.12,0-11.17,0-11.17H55.3L55.3,21.52z M51.88,21.91
		c0,0.37,0,10.9,0,10.9s-4.2,5.78-4.36,5.99c0.14,0.2,1.86,2.65,2.12,3.04c0.29-0.42,3.72-5.35,3.72-5.35s7.73,10.91,8.38,11.82
		c0-0.99,0-5.96,0-6.08c-0.07-0.1-6.82-9.42-6.82-9.42s0-10.53,0-10.9C54.59,21.91,52.2,21.91,51.88,21.91L51.88,21.91z"/>
	<path class="st2" d="M53.81,22.95c0-0.25-0.2-0.45-0.45-0.45c-0.25,0-0.45,0.2-0.45,0.45c0,0.25,0.2,0.45,0.45,0.45
		C53.61,23.4,53.81,23.2,53.81,22.95"/>
	<polygon class="st2" points="53.33,23.39 53.33,33.73 48.49,40.46 48.57,40.54 53.38,33.79 60.33,43.64 60.44,43.6 53.42,33.67 
		53.42,23.29 53.33,23.39 	"/>
	<path class="st4" d="M37.54,23.66c0-0.32,0.26-0.57,0.57-0.57c0.32,0,0.57,0.26,0.57,0.57s-0.26,0.57-0.57,0.57
		C37.8,24.23,37.54,23.97,37.54,23.66"/>
	<path class="st2" d="M40.9,55.45c0.15-0.22,4.48-6.52,4.48-6.52l-2.67-3.58c0,0-4.17,6.09-4.45,6.51c-0.3-0.41-4.78-6.5-4.78-6.5
		l-2.53,3.74c0,0,4.64,6.21,4.8,6.42c-0.15,0.22-8.65,12.64-8.65,12.64l3.53,2.24c0,0,7.43-10.82,7.73-11.25
		c0.31,0.43,8.03,11.32,8.03,11.32l4.13-1.95C50.51,68.52,41.06,55.66,40.9,55.45L40.9,55.45z M33.48,46.02
		c0.3,0.41,4.78,6.5,4.78,6.5s4.17-6.09,4.45-6.51c0.13,0.17,0.57,0.76,1.03,1.37l-5.26,7.69c-0.06-0.03-0.13-0.05-0.2-0.05
		c-0.08,0-0.15,0.03-0.21,0.06l-5.57-7.61C32.93,46.83,33.36,46.2,33.48,46.02L33.48,46.02z M38.34,58.48c0,0-7.63,11.1-7.83,11.4
		c-0.27-0.17-2.59-1.64-2.88-1.83c0.22-0.32,8.58-12.54,8.58-12.54s-4.65-6.21-4.8-6.43c0.07-0.1,0.54-0.8,1.02-1.5l5.54,7.57
		c-0.08,0.08-0.14,0.19-0.14,0.32c0,0.13,0.06,0.25,0.15,0.33l-8.79,12.84l0.11,0.06l8.79-12.83c0.06,0.03,0.12,0.05,0.19,0.05
		c0.08,0,0.15-0.03,0.21-0.06l9.21,12.58l0.11-0.05l-9.22-12.6c0.09-0.08,0.14-0.2,0.14-0.32s-0.05-0.24-0.14-0.32l5.24-7.65
		c0.51,0.68,1,1.34,1.08,1.44c-0.15,0.22-4.48,6.52-4.48,6.52s9.42,12.81,9.6,13.05c-0.17,0.2-2.98,1.44-3.4,1.64
		C46.34,69.76,38.34,58.48,38.34,58.48L38.34,58.48z"/>
	<path class="st2" d="M48.63,3.17c-0.01-0.84-0.02-3.15-0.02-3.15L27.21,0c0,0,0,2.32,0,3.17c-1.27,0-19.29,0-19.29,0
		s3.3,3.32,3.64,3.66c0,0.56,0,43.38,0,43.38c0-0.01,0.06,0.69,0.06,0.69l0.01,0.06l0-0.03l0.05,0.17
		c2.89,10.61,11.92,18.27,26.1,22.15l0.17,0.05l0.17-0.04c14.38-3.55,23.13-10.92,26.02-21.9l0.1-0.38c0-0.01,0.08-0.46,0.08-0.46
		s0-43.3,0-43.86c0.34-0.34,3.47-3.49,3.47-3.49S49.89,3.17,48.63,3.17L48.63,3.17z M62.91,50.63c0-0.01-0.1,0.38-0.1,0.38
		c-2.74,10.41-11.1,17.43-24.85,20.87C24.38,68.11,15.75,60.81,13,50.74c0,0-0.02-0.09-0.04-0.13c0-0.01-0.03-0.38-0.03-0.38
		l0-30.36l49.99,0.01c0,0,0.02,30.61,0.02,30.64C62.94,50.51,62.91,50.63,62.91,50.63L62.91,50.63z"/>
	<polygon class="st1" points="11.22,4.54 12.74,6.06 27.12,6.06 27.12,4.53 11.22,4.54 	"/>
	<polygon class="st1" points="64.37,4.54 62.85,6.06 48.47,6.06 48.47,4.53 64.37,4.54 	"/>
	<path class="st4" d="M19.44,8.35c-0.09-0.02-0.13-0.03-0.16-0.05c-0.03-0.02-0.06-0.03-0.13,0.02c-0.07,0.05-0.13,0.05-0.15,0.08
		c-0.02,0.03-0.04,0.04-0.09,0.07c-0.05,0.03-0.32,0.28-0.36,0.39c-0.04,0.12-0.05,0.21-0.04,0.29c0.01,0.08,0.09,0.22,0.13,0.23
		c0.04,0.01,0.06,0.01,0.11,0.07c0.05,0.06,0.12,0.08,0.07,0.15c-0.05,0.06-0.04,0.08-0.12,0.08c-0.07,0-0.21,0-0.25-0.01
		c-0.04,0-0.12,0.05-0.12,0.09c0,0.04,0.04,0.11,0.05,0.16c0.01,0.05,0.05,0.07,0.1,0.12c0.04,0.06,0.06,0.12,0.12,0.16
		c0.07,0.04,0.09,0.04,0.13,0.05c0.04,0,0.08-0.02,0.12,0.04c0.03,0.06,0.04,0.07,0.03,0.13c-0.01,0.06,0.04,0.07,0.04,0.18
		c0,0.11,0,0.33,0,0.4c0,0.08,0.02,0.13-0.07,0.17c-0.09,0.04-0.31,0.14-0.39,0.17c-0.09,0.03-0.34,0.15-0.4,0.24
		c-0.06,0.09-0.05,0.15-0.09,0.18c-0.04,0.03-0.11,0.11-0.02,0.21c0.08,0.1,0.11,0.11,0.15,0.17c0.03,0.06,0.16,0.06,0.23,0.05
		c0.07-0.01,0.17-0.04,0.23-0.1c0.05-0.06,0.12-0.11,0.16-0.13c0.04-0.02,0.13-0.03,0.24-0.02c0.12,0.01,0.22,0.02,0.27-0.05
		c0.05-0.07,0.1-0.15,0.12-0.22c0.02-0.07,0.11-0.2,0.16-0.23c0.05-0.03,0.14-0.06,0.14,0.04c0,0.1-0.01,0.23-0.01,0.31
		s-0.08,0.11-0.07,0.23c0.01,0.12,0.03,0.21,0.02,0.28c-0.01,0.07-0.02,0.12,0.01,0.15c0.03,0.02,0.02,0.05,0.01,0.09
		c-0.02,0.04-0.02,0.1-0.06,0.15c-0.04,0.06-0.09,0.13-0.17,0.16c-0.07,0.03-0.15,0.04-0.27,0.11c-0.12,0.07-0.13,0.05-0.2,0.09
		c-0.07,0.04-0.1,0.07-0.15,0.08c-0.05,0.01-0.1,0-0.15,0.05c-0.05,0.04-0.1,0.07-0.14,0.09c-0.05,0.01-0.07,0.01-0.12,0.05
		c-0.06,0.04-0.12,0.07-0.16,0.08c-0.04,0.01-0.09,0.02-0.14,0.06c-0.04,0.04-0.1,0.04-0.15,0.08c-0.05,0.04-0.09,0.06-0.11,0.07
		c-0.02,0.01-0.08,0.04-0.11,0.07c-0.04,0.03-0.19,0.11-0.24,0.15c-0.05,0.04-0.08,0.04-0.11,0.05c-0.03,0.01-0.06,0.04-0.11,0.07
		c-0.05,0.04-0.11,0.07-0.17,0.09c-0.05,0.02-0.11,0.02-0.13,0.04c-0.03,0.02-0.09,0.03-0.17,0.03c-0.08,0-0.12,0.03-0.15,0.06
		c-0.03,0.03-0.1,0.07-0.1,0.13c0,0.06-0.02,0.06-0.04,0.1c-0.03,0.03-0.03,0.11,0,0.13c0.04,0.03,0.02,0.05,0.04,0.11
		c0.02,0.06,0.03,0.11,0.06,0.16c0.04,0.05,0.04,0.07,0.07,0.11c0.03,0.04,0.07,0.06,0.1,0.07c0.04,0.01,0.08,0.05,0.11,0.04
		c0.03,0,0.07,0.07,0.12,0.06c0.05-0.01,0.1-0.02,0.13-0.05c0.04-0.03,0.07-0.02,0.1-0.02c0.04,0,0.07,0,0.11-0.06
		c0.04-0.06,0.15-0.14,0.22-0.22c0.07-0.09,0.19-0.2,0.25-0.26c0.07-0.06,0.13-0.1,0.2-0.17c0.07-0.07,0.13-0.09,0.17-0.13
		c0.04-0.05,0.07-0.05,0.09-0.07c0.03-0.01,0.06-0.05,0.09-0.08c0.03-0.03,0.06-0.02,0.1-0.05c0.03-0.03,0.16-0.14,0.17-0.16
		c0.02-0.01,0.06-0.02,0.09-0.05c0.03-0.02,0.08-0.07,0.13-0.11c0.05-0.04,0.16-0.12,0.27-0.19c0.11-0.08,0.25-0.15,0.3-0.19
		c0.05-0.03,0.14-0.04,0.14,0.03c0,0.07,0.01,0.26,0.02,0.34c0.01,0.08,0.04,0.15,0.02,0.2c-0.02,0.05-0.02,0.08-0.01,0.16
		c0,0.09,0.01,0.18-0.05,0.24c-0.06,0.07-0.17,0.14-0.26,0.18c-0.09,0.03-0.09,0.05-0.16,0.1c-0.07,0.05-0.09,0.06-0.12,0.06
		c-0.04,0.01-0.07,0.01-0.1,0.05c-0.03,0.04-0.06,0.05-0.11,0.05c-0.04,0-0.05,0.01-0.11,0.06c-0.06,0.05-0.21,0.19-0.25,0.24
		c-0.05,0.05-0.07,0.08-0.07,0.17c0,0.09,0,0.16,0.05,0.21c0.05,0.06,0.1,0.13,0.16,0.17c0.04,0.03,0.08,0.05,0.11,0.07
		c0.03,0.02,0.09,0.04,0.13,0.07c0.04,0.03,0.1,0.1,0.15,0.1c0.06,0,0.12-0.01,0.16,0c0.04,0.01,0.06-0.03,0.09-0.06
		c0.03-0.03,0.07-0.02,0.1-0.06c0.03-0.04,0.08-0.09,0.1-0.13c0.02-0.04,0.07-0.14,0.11-0.18c0.04-0.04,0.1-0.05,0.1,0.04
		c0,0.09-0.01,0.14-0.01,0.17c0,0.04,0.04,0.08,0.06,0.11c0.01,0.03,0.01,0.08,0.01,0.15c0,0.07-0.01,0.27-0.01,0.32
		c0,0.05,0.01,0.09-0.02,0.13c-0.03,0.04-0.03,0.05-0.03,0.1c0,0.05,0,0.13-0.03,0.16c-0.03,0.04-0.02,0.08-0.05,0.11
		c-0.03,0.03-0.05,0.07-0.09,0.11c-0.04,0.04-0.04,0.08-0.04,0.13c0,0.05,0.01,0.09,0.03,0.11c0.02,0.02,0.04,0.07,0.04,0.1
		c0,0.04,0.02,0.09,0.04,0.1c0.02,0.02,0.03,0.06,0.03,0.09c0,0.03,0.02,0.06,0.04,0.08c0.02,0.03,0.09,0.09,0.1,0.15
		c0.02,0.05,0.04,0.1,0.07,0.12c0.03,0.01,0.07,0.04,0.11,0.08c0.04,0.05,0.07,0.09,0.1,0.09c0.03,0,0.09,0.02,0.12,0.07
		c0.03,0.04,0.08,0.02,0.13,0.02c0.05,0,0.1-0.03,0.13-0.07c0.03-0.03,0.13-0.13,0.13-0.19c0-0.06,0.06-0.25,0.09-0.3
		c0.03-0.05,0.04-0.15,0.04-0.24c0-0.09-0.01-0.19-0.02-0.27c-0.01-0.08,0-0.26,0-0.32c0-0.1-0.06-0.16-0.06-0.27
		c0-0.06,0.01-0.25,0-0.3c-0.01-0.06,0-0.15-0.01-0.19c-0.01-0.03-0.03-0.11-0.05-0.16c-0.02-0.05-0.01-0.15-0.02-0.19
		c0-0.04-0.03-0.09-0.02-0.16c0.01-0.07,0.01-0.17-0.02-0.22c-0.03-0.05-0.03-0.13-0.02-0.19c0-0.03,0.02-0.04,0.09-0.07
		c0.07-0.03,0.15-0.06,0.2-0.09c0.05-0.02,0.13-0.07,0.18-0.08c0.05-0.01,0.19-0.11,0.26-0.17c0.07-0.07,0.12-0.08,0.12-0.2
		c0-0.12-0.07-0.22-0.13-0.27c-0.06-0.05-0.19-0.12-0.23-0.16c-0.04-0.04-0.08-0.04-0.16-0.04c-0.08,0-0.18,0-0.21,0.01
		c-0.03,0.01-0.06,0.05-0.09,0.06c-0.03,0.01-0.12,0.04-0.14-0.02c-0.02-0.06-0.07-0.21-0.07-0.34c-0.01-0.14,0-0.31,0.02-0.38
		c0.02-0.08,0.05-0.14,0.05-0.14c0.01-0.07,0.02-0.1,0.06-0.14c0.04-0.04,0.11-0.1,0.17-0.13c0.06-0.03,0.18-0.04,0.22-0.07
		c0.04-0.03,0.13-0.04,0.18-0.06c0.05-0.03,0.09-0.05,0.18-0.08c0.09-0.03,0.18-0.08,0.24-0.09c0.06,0,0.17-0.06,0.21-0.08
		c0.04-0.02,0.11,0,0.16-0.02c0.05-0.01,0.17-0.06,0.19-0.08c0.03-0.01,0.1,0,0.13-0.02c0.07-0.05,0.14-0.02,0.2-0.03
		c0.06-0.01,0.15-0.06,0.19-0.09c0.04-0.03,0.12-0.05,0.16-0.05c0.04,0,0.15-0.1,0.19-0.16c0.04-0.07,0.1-0.16,0.09-0.28
		c-0.01-0.12-0.08-0.14-0.15-0.18c-0.07-0.04-0.15-0.1-0.18-0.12c-0.03-0.02-0.06-0.06-0.13-0.01c-0.07,0.05-0.16,0.06-0.24,0.09
		c-0.08,0.03-0.14-0.04-0.22,0.04c-0.09,0.08-0.19,0.12-0.25,0.14c-0.06,0.01-0.09,0.05-0.17,0.08c-0.08,0.03-0.06,0.01-0.14,0.05
		c-0.08,0.04-0.12,0.06-0.18,0.09c-0.06,0.03-0.2,0.13-0.29,0.15c-0.1,0.02-0.3,0.15-0.36,0.18c-0.06,0.03-0.18,0.03-0.16-0.07
		c0.01-0.1,0.01-0.19,0.03-0.22c0.02-0.02,0.04-0.08,0.04-0.16c0.01-0.08,0.05-0.15,0.1-0.24c0.05-0.09,0.09-0.22,0.15-0.3
		c0.06-0.08,0.04-0.12,0.09-0.19c0.05-0.07,0.05-0.09,0.15-0.13c0.1-0.04,0.35-0.19,0.43-0.24c0.08-0.05,0.23-0.13,0.3-0.18
		c0.07-0.05,0.31-0.18,0.35-0.23c0.04-0.05,0.13-0.1,0.12-0.21c-0.01-0.11-0.04-0.15-0.13-0.18c-0.09-0.03-0.06-0.05-0.16-0.05
		c-0.1,0-0.17,0.01-0.24,0.09c-0.07,0.08-0.11,0.17-0.17,0.21c-0.06,0.04-0.12,0.06-0.14,0.02c-0.02-0.04-0.01-0.06,0.03-0.14
		c0.04-0.07,0.08-0.14,0.07-0.22c-0.02-0.08-0.01-0.17-0.07-0.2c-0.06-0.03-0.08-0.08-0.16-0.02c-0.08,0.05-0.14,0.11-0.17,0.19
		c-0.03,0.08-0.08,0.23-0.07,0.33c0.01,0.1,0.01,0.15-0.04,0.2c-0.06,0.05-0.05,0.13-0.13,0.12c-0.08-0.01-0.14-0.09-0.21-0.15
		c-0.07-0.06-0.23-0.12-0.25-0.16c-0.02-0.04-0.08-0.04-0.13,0.03c-0.05,0.06-0.15,0.16-0.18,0.24c-0.03,0.08-0.05,0.13-0.09,0.18
		c-0.04,0.05-0.11,0.21-0.15,0.25c-0.04,0.04-0.08,0.08-0.13,0.07c-0.05-0.01-0.01-0.03-0.07-0.09c-0.05-0.07-0.05-0.08-0.06-0.12
		c0-0.05,0.05-0.09,0.02-0.12c-0.03-0.03,0-0.11,0.02-0.15c0.02-0.05,0.05-0.13,0.06-0.24c0.01-0.08,0.01-0.18,0.1-0.24
		c0.1-0.05,0.64-0.34,0.7-0.39c0.06-0.05,0.13-0.02,0.18-0.06c0.05-0.04,0.11-0.12,0.19-0.15c0.08-0.03,0.19-0.12,0.25-0.15
		c0.06-0.04,0.12-0.11,0.23-0.19c0.11-0.08,0.32-0.19,0.4-0.27c0.08-0.08,0.41-0.31,0.45-0.4c0.04-0.09,0.08-0.15,0.01-0.23
		C21.99,7.88,22,7.86,21.91,7.86c-0.09,0-0.08-0.02-0.12-0.05c-0.04-0.03-0.07-0.04-0.11-0.01c-0.04,0.03-0.08,0.06-0.13,0.05
		c-0.05-0.01-0.09,0.02-0.14,0.06c-0.05,0.04-0.13,0.05-0.23,0.16c-0.1,0.11-0.35,0.39-0.42,0.49c-0.12,0.17-0.25,0.21-0.32,0.28
		c-0.13,0.15-0.3,0.18-0.39,0.27c-0.1,0.1-0.15,0.08-0.23,0.14c-0.07,0.06-0.14,0.08-0.19,0.02c-0.04-0.06-0.01-0.14,0.03-0.19
		c0.04-0.05,0.03-0.15,0.02-0.26c0-0.12,0.01-0.21-0.05-0.28C19.57,8.49,19.57,8.37,19.44,8.35"/>
	<path class="st4" d="M26.72,9.21c-0.04,0.3,0.04,0.3,0.04,0.45c0,0.15,0.02,0.57,0.01,0.66c-0.01,0.09-0.06,0.12-0.05,0.24
		c0.01,0.12-0.02,0.51-0.03,0.6c-0.01,0.1-0.03,0.15-0.04,0.21c-0.01,0.06,0.01,0.08-0.1,0.16c-0.11,0.08-0.41,0.25-0.54,0.3
		c-0.13,0.06-0.46,0.18-0.55,0.19c-0.09,0.01-0.14-0.03-0.29-0.06c-0.15-0.04-0.24-0.05-0.38,0.02c-0.14,0.07-0.17,0.1-0.13,0.28
		c0.04,0.18,0.21,0.28,0.31,0.34c0.09,0.06,0.52,0.26,0.75,0.26c0.24,0,0.46-0.03,0.43,0.05c-0.03,0.08-0.05,0.09-0.06,0.18
		c-0.01,0.09-0.06,0.18-0.12,0.25c-0.05,0.08,0.01,0.12-0.16,0.23c-0.17,0.11-0.36,0.17-0.42,0.22c-0.07,0.05-0.23,0.07-0.34,0.11
		c-0.11,0.04-0.19,0.07-0.26,0.12c-0.07,0.05-0.18,0.11-0.32,0.12c-0.14,0.01-0.22-0.01-0.26,0.18c-0.04,0.19-0.04,0.41-0.09,0.62
		c-0.04,0.21-0.13,0.48-0.12,0.71c0.01,0.23-0.03,0.53,0.16,0.83c0.18,0.3,0.3,0.33,0.41,0.31c0.12-0.02,0.32-0.13,0.35-0.28
		c0.03-0.15,0.02-0.34,0.02-0.61c-0.01-0.27-0.03-0.3-0.03-0.38c-0.01-0.08,0-0.14-0.09-0.19c-0.09-0.06-0.11-0.08-0.13-0.17
		c-0.02-0.09-0.07-0.08-0.05-0.27c0.01-0.18,0.01-0.28,0.19-0.4c0.19-0.12,0.61-0.35,0.72-0.4c0.11-0.05,0.17-0.08,0.21,0.04
		c0.04,0.11,0.03,0.18,0.07,0.26c0.03,0.08,0.08,0.15,0.13,0.19c0.04,0.04,0.06,0.05,0.17,0.04c0.11-0.01,0.22-0.01,0.3-0.06
		c0.08-0.05,0.08-0.01,0.17-0.11c0.09-0.1,0.15-0.16,0.22-0.22c0.08-0.05,0.15-0.08,0.14,0.03c-0.01,0.1,0.03,0.16-0.06,0.22
		c-0.09,0.06-0.2,0.1-0.32,0.16c-0.11,0.06-0.12,0.05-0.18,0.08c-0.06,0.02-0.06,0.04-0.08,0.08c-0.02,0.04-0.08,0.01-0.08,0.1
		c0,0.09-0.05,0.22,0.05,0.26c0.1,0.04,0.21,0.08,0.12,0.16c-0.09,0.08-0.28,0.28-0.34,0.36c-0.06,0.08-0.08,0.1-0.08,0.25
		c0,0.15,0.04,0.28,0.13,0.29c0.09,0.01,0.22,0.02,0.31,0.03c0.08,0.01,0.15,0.01,0.14,0.09c-0.01,0.08-0.01,0.21,0.05,0.29
		c0.06,0.08-0.02,0.14,0.17,0.14c0.18,0,0.35-0.09,0.45-0.28c0.1-0.2,0.2-0.38,0.22-0.5c0.03-0.12,0.03-0.16,0.14-0.16
		c0.11-0.01,0.19-0.07,0.29,0.05c0.25,0.26,0.52,0.42,0.6,0.53c0.08,0.11,0.23,0.28,0.34,0.34c0.1,0.06,0.23,0.13,0.33-0.01
		c0.1-0.14,0.13-0.16,0.16-0.37c0.02-0.2-0.03-0.52,0.01-0.86c0.05-0.34,0.15-1.16,0.23-1.67c0.08-0.5,0.2-1.31,0.3-1.47
		c0.1-0.16,0.13-0.31,0.12-0.43c-0.01-0.11-0.15-0.26-0.27-0.33c-0.12-0.07-0.21-0.09-0.42,0.02c-0.2,0.1-0.35,0.13-0.56,0.39
		c-0.13,0.16-0.32,0.18-0.51,0.3c-0.19,0.12-1.02,0.55-1.16,0.62c-0.14,0.07-0.23,0.02-0.15-0.13c0.08-0.15,0.24-0.39,0.31-0.49
		c0.07-0.09,0.09-0.09,0.28-0.19c0.35-0.18,0.65-0.47,0.76-0.59c0.12-0.12,0.36-0.35,0.42-0.46c0.06-0.12,0.1-0.23,0.04-0.31
		c-0.06-0.08-0.19-0.13-0.26-0.16c-0.07-0.04-0.09-0.04-0.2,0.03c-0.11,0.07-0.24,0.16-0.34,0.21c-0.1,0.05-0.17-0.01-0.13-0.13
		c0.04-0.12,0.09-0.26,0.13-0.38c0.04-0.12,0.03-0.18-0.07-0.33c-0.1-0.14-0.7-0.72-0.8-0.85C26.93,9.04,26.74,9.04,26.72,9.21
		 M26.47,13.62c0.13-0.08,0.25-0.09,0.35-0.15c0.1-0.06,0.28-0.15,0.38-0.2c0.1-0.05,0.23-0.03,0.11,0.08
		c-0.11,0.11-0.33,0.24-0.45,0.32c-0.12,0.07-0.18,0.1-0.26,0.11c-0.08,0.01-0.07,0.07-0.17,0.05
		C26.35,13.79,26.34,13.71,26.47,13.62 M28.1,12.82c0.18-0.1,0.66-0.34,0.85-0.42c0.19-0.07,0.18-0.1,0.18,0.1
		c0,0.2,0.01,0.53-0.03,0.74c-0.05,0.2-0.02,0.46-0.13,0.78c-0.08,0.22-0.06,0.45-0.06,0.5c-0.01,0.06-0.05,0.12-0.07,0.29
		s-0.07,0.31-0.09,0.53c-0.02,0.22-0.06,0.26-0.07,0.38c-0.01,0.12,0,0.19-0.12,0.16c-0.12-0.03-0.54-0.21-0.61-0.27
		c-0.08-0.06-0.09-0.09-0.05-0.16c0.04-0.08,0.02-0.14,0.03-0.22c0.01-0.07,0.04-0.06-0.06-0.14c-0.1-0.08-0.15-0.16-0.17-0.2
		c-0.02-0.04-0.01-0.04,0.04-0.13c0.05-0.08,0.05-0.14,0.05-0.23c0-0.09-0.05-0.18-0.14-0.18c-0.08,0-0.13-0.04-0.06-0.18
		c0.07-0.13,0.55-0.59,0.68-0.72c0.12-0.12,0.24-0.29,0.11-0.36c-0.13-0.08-0.2-0.15-0.27-0.18C28.05,12.89,28.01,12.87,28.1,12.82"
		/>
	<path class="st4" d="M33.57,9.25c0.18,0.04,0.24,0.08,0.3,0.14c0.05,0.05,0.12,0.05,0.27,0.13c0.15,0.08,0.27,0.1,0.35,0.24
		c0.08,0.14,0.12,0.22,0.01,0.4c-0.11,0.18-0.24,0.35-0.45,0.56c-0.21,0.21-0.88,0.93-1.08,1.15c-0.2,0.22-0.7,0.82-0.83,0.96
		c-0.13,0.14-0.22,0.23-0.36,0.17c-0.14-0.06-0.27-0.12-0.14-0.27c0.15-0.18,0.77-0.72,1.06-1.23c0.29-0.51,0.62-1.17,0.71-1.37
		c0.09-0.2,0.17-0.22,0.06-0.39c-0.11-0.16-0.24-0.34-0.12-0.44C33.4,9.25,33.46,9.23,33.57,9.25 M33.85,11.69
		c-0.09,0.05-0.2,0.15-0.27,0.29c-0.07,0.14-0.15,0.28-0.25,0.4c-0.09,0.12-0.17,0.21-0.29,0.29c-0.12,0.08-0.14,0.06-0.22,0.11
		c-0.09,0.05-0.1,0.18-0.02,0.21c0.09,0.02,0.2,0,0.27,0.01c0.07,0.01,0.14-0.04,0.17,0.02c0.03,0.06,0.05,0.27,0.2,0.28
		c0.15,0.01,0.25,0,0.3-0.06c0.04-0.06,0.16-0.16,0.21-0.21c0.06-0.05,0.07-0.14,0.02-0.2c-0.04-0.06-0.03-0.13,0.02-0.21
		c0.05-0.09,0.1-0.18,0.14-0.26c0.04-0.08,0.1-0.2,0.09-0.35c-0.01-0.14-0.04-0.14-0.11-0.21C34.07,11.71,33.95,11.64,33.85,11.69
		 M32.29,13.91c0,0.19-0.02,0.58-0.02,0.74c0,0.16-0.01,0.28-0.04,0.48c-0.04,0.19,0,0.43,0.29,0.55c0.2,0.08,0.55-0.14,0.62-0.45
		c0.07-0.31,0.04-0.5-0.07-0.7c-0.11-0.21-0.23-0.47-0.36-0.63c-0.14-0.17-0.2-0.22-0.29-0.19C32.36,13.71,32.29,13.77,32.29,13.91
		 M33.31,13.74c0.08-0.08,0.12-0.1,0.19-0.15c0.07-0.05,0.1-0.11,0.12-0.18c0.02-0.07,0.09-0.04,0.13-0.05
		c0.04-0.02,0.06-0.06,0.11-0.03c0.05,0.03,0.09,0.03,0.15,0.05c0.06,0.02,0.13,0.03,0.12,0.16c-0.01,0.12,0,0.19-0.06,0.24
		c-0.06,0.05-0.04,0-0.04,0.13c-0.01,0.13,0.01,0.29,0.01,0.37c0,0.08-0.01,0.12-0.09,0.21c-0.08,0.09-0.14,0.19-0.17,0.27
		c-0.03,0.08-0.07,0.09-0.14,0.04c-0.08-0.04-0.12-0.01-0.2-0.13c-0.09-0.11-0.13-0.16-0.16-0.26c-0.03-0.1-0.01-0.14,0.05-0.19
		c0.06-0.06,0.06-0.08,0.09-0.14c0.03-0.06,0.02-0.1-0.04-0.15C33.33,13.88,33.26,13.8,33.31,13.74 M34.89,11.81
		c0.09-0.07,0.17-0.11,0.26-0.13c0.1-0.03,0.34-0.07,0.53-0.21c0.19-0.13,0.83-0.58,0.99-0.69c0.16-0.11,0.39-0.08,0.48,0.06
		c0.09,0.14,0.14,0.27-0.03,0.43s-0.48,0.34-0.63,0.49c-0.14,0.15-0.55,0.48-0.79,0.54c-0.24,0.06-0.34,0.05-0.53-0.04
		C35.01,12.18,34.75,11.92,34.89,11.81 M34.37,13.68c0.12-0.08,0.16-0.07,0.28-0.06c0.11,0.01,0.32-0.09,0.41-0.17
		c0.09-0.08,0.19-0.06,0.29-0.16c0.09-0.1,0.15-0.22,0.15-0.29c0-0.07-0.02-0.22,0.04-0.31c0.06-0.09,0.1-0.27,0.25-0.25
		c0.15,0.01,0.3,0.1,0.35,0.12c0.05,0.03,0.04,0.08,0.14-0.01c0.1-0.09,0.39-0.29,0.48-0.34c0.09-0.05,0.2-0.09,0.26-0.03
		c0.07,0.05,0.18,0.09,0.24,0.15c0.05,0.06,0.06,0.21,0.04,0.32c-0.02,0.12-0.04,0.18-0.13,0.32c-0.1,0.14-0.2,0.31-0.29,0.46
		c-0.1,0.15-0.22,0.35-0.31,0.41c-0.09,0.06-0.17,0.08-0.23,0.09c-0.06,0.01-0.1,0-0.1,0.12c0,0.12-0.01,1.2,0,1.42
		c0.01,0.33-0.04,0.33-0.04,0.48c0,0.15,0,0.39-0.07,0.5c-0.07,0.11-0.05,0.16-0.12,0.22c-0.07,0.07-0.11,0.16-0.21,0.15
		c-0.09-0.01-0.31-0.12-0.31-0.33c-0.01-0.22,0.01-0.55,0-0.62c-0.01-0.07-0.06-0.18-0.05-0.33c0.01-0.15,0.01-0.47-0.01-0.6
		c-0.02-0.12-0.03-0.38-0.01-0.58c0.02-0.2,0.04-0.36,0.02-0.45c-0.01-0.09-0.03-0.19-0.11-0.14c-0.08,0.05-0.26,0.27-0.34,0.32
		c-0.08,0.05-0.26,0.07-0.37,0.03c-0.12-0.04-0.23-0.2-0.27-0.3C34.32,13.74,34.29,13.73,34.37,13.68 M36.3,12.94
		c0.03-0.06,0.13-0.18,0.2-0.24c0.08-0.06,0.1-0.08,0.14-0.09c0.04-0.01,0.13,0.07,0.08,0.14c-0.05,0.08-0.24,0.3-0.31,0.38
		c-0.07,0.07-0.13,0.1-0.15-0.01C36.25,13.01,36.27,13,36.3,12.94"/>
	<path class="st4" d="M40.01,10.35c-0.13,0.12-0.21,0.21-0.3,0.31c-0.09,0.1-0.25,0.31-0.26,0.42c-0.01,0.11-0.02,0.16-0.06,0.22
		c-0.04,0.06-0.02,0.09-0.02,0.17c0,0.08,0.02,0.11,0.03,0.15c0.02,0.03,0.02,0.04,0.02,0.09c0,0.05,0.04,0.08,0.09,0.12
		c0.04,0.04,0.1,0.14,0.18,0.14c0.08,0,0.16-0.01,0.2-0.01c0.05,0,0.08-0.04,0.12-0.08c0.04-0.04,0.13-0.1,0.16-0.16
		c0.08-0.14,0.07-0.27,0.09-0.32c0.02-0.06,0.08-0.14,0.13-0.2c0.05-0.06,0.07-0.18,0-0.2c-0.07-0.01-0.15,0.01-0.15-0.1
		c0-0.11,0.01-0.22,0.03-0.28c0.03-0.05,0.08-0.13,0.06-0.18c-0.02-0.05-0.04-0.14-0.11-0.15C40.15,10.29,40.1,10.27,40.01,10.35
		 M40.91,10.6c0.05-0.07,0.06-0.09,0.15-0.16c0.09-0.07,0.25-0.14,0.35-0.13c0.11,0.01,0.1,0.01,0.17,0.05
		c0.07,0.04,0.14,0.07,0.19,0.04c0.05-0.03,0.11-0.04,0.17-0.02c0.05,0.02,0.08,0.01,0.12-0.02c0.04-0.03,0.06-0.03,0.13,0.03
		c0.06,0.06,0.1,0.09,0.03,0.16c-0.06,0.06-0.1,0.07-0.08,0.17c0.01,0.1,0.04,0.18-0.02,0.24c-0.04,0.05-0.05,0.13-0.13,0.2
		c-0.07,0.07-0.1,0.08-0.19,0.08c-0.09,0-0.2,0-0.3-0.05c-0.1-0.05-0.36-0.29-0.43-0.3c-0.07-0.01-0.18-0.06-0.2-0.14
		C40.84,10.65,40.86,10.67,40.91,10.6 M43.25,9.54c0.1-0.07,0.26-0.13,0.4-0.17c0.14-0.04,0.23-0.07,0.33-0.03s0.28,0.12,0.29,0.27
		c0.01,0.15,0.01,0.21-0.06,0.34c-0.08,0.13-0.18,0.23-0.3,0.28c-0.12,0.05-0.2,0.03-0.27,0.05c-0.07,0.02-0.11,0.01-0.2,0.07
		c-0.08,0.06-0.33,0.05-0.4,0.06c-0.08,0.01-0.14-0.07-0.07-0.13c0.06-0.06,0.18-0.07,0.26-0.21c0.04-0.07,0.14-0.11,0.04-0.16
		c-0.05-0.03-0.08-0.06-0.09-0.12c-0.01-0.06-0.08-0.09-0.06-0.14C43.14,9.62,43.15,9.61,43.25,9.54 M40.96,11.83
		c0-0.06,0.04-0.16,0.1-0.14c0.05,0.03,0.13,0.07,0.21,0.11c0.08,0.04,0.11,0.07,0.16,0.08c0.05,0.01,0.1,0.03,0.1,0.12
		c0,0.09,0,0.15-0.04,0.16c-0.04,0.01-0.02,0.04-0.01,0.08c0.01,0.04,0.03,0.08,0.1,0.06c0.07-0.01,0.1-0.04,0.17-0.04
		c0.07,0,0.1-0.01,0.14,0.04c0.05,0.05,0.12,0.08,0.11,0.15c-0.01,0.07-0.03,0.11-0.09,0.2c-0.07,0.09-0.12,0.2-0.17,0.28
		c-0.05,0.08-0.06,0.07-0.09,0.14c-0.04,0.07-0.04,0.06-0.04,0.14c0,0.08-0.01,0.16,0.09,0.21c0.11,0.05,0.14,0.05,0.14,0.17
		c-0.01,0.13,0,0.2,0,0.29c0,0.09-0.02,0.15-0.07,0.21c-0.08,0.09-0.37,0.33-0.46,0.43c-0.08,0.1-0.12,0.1-0.12,0.18
		c0,0.08,0,0.14-0.03,0.16c-0.02,0.02-0.03,0.03-0.02,0.12c0,0.09,0.01,0.49,0.01,0.64c0,0.15-0.03,0.19-0.05,0.21
		c-0.02,0.02-0.02,0.05-0.01,0.09c0,0.05,0,0.1-0.02,0.14c-0.02,0.04-0.02,0.12-0.01,0.21c0.01,0.1-0.01,0.21-0.01,0.28
		c0,0.07-0.07,0.2-0.12,0.24c-0.05,0.04-0.11,0.05-0.18,0.05c-0.07,0-0.13-0.05-0.18-0.1c-0.05-0.05-0.06-0.11-0.06-0.18
		c0-0.06,0-0.14-0.04-0.18c-0.03-0.04-0.03-0.1-0.03-0.13c0-0.03-0.01-0.07-0.05-0.11c-0.04-0.04-0.04-0.07-0.05-0.15
		c-0.01-0.08,0.06-0.22,0.12-0.27c0.06-0.05,0.06-0.09,0.06-0.14c0-0.07,0.07-0.07,0.06-0.14c0-0.08,0.03-0.13,0.04-0.21
		c0.01-0.07,0.01-0.13,0.01-0.18c-0.01-0.04-0.03-0.07-0.07-0.05c-0.04,0.02-0.06,0.09-0.11,0.11c-0.06,0.01-0.14,0.03-0.18,0.07
		c-0.05,0.05-0.26,0.17-0.35,0.24c-0.08,0.07-0.32,0.19-0.38,0.24c-0.07,0.05-0.13,0.09-0.22,0.03c-0.09-0.06-0.15-0.06-0.18-0.17
		c-0.02-0.1-0.07-0.1-0.02-0.18c0.02-0.04,0.04-0.04,0.04-0.11c0-0.07-0.02-0.13,0.04-0.18c0.06-0.05,0.36-0.31,0.43-0.38
		c0.07-0.07,0.13-0.1,0.16-0.13c0.03-0.04,0.07-0.06,0.12-0.05c0.05,0.01,0.09,0.04,0.05,0.1c-0.04,0.06-0.03,0.13,0.03,0.14
		c0.06,0.01,0.16,0,0.24-0.02c0.08-0.02,0.33-0.09,0.43-0.23c0.05-0.07,0.01-0.14-0.05-0.11c-0.07,0.03-0.2,0.05-0.27,0.04
		c-0.06-0.02-0.14-0.1-0.07-0.16c0.06-0.06,0.4-0.25,0.46-0.29c0.07-0.04,0.09-0.11,0.04-0.15c-0.05-0.04-0.16-0.12-0.2-0.2
		c-0.04-0.07-0.05-0.09,0.01-0.13c0.05-0.05,0.22-0.14,0.26-0.17c0.05-0.04,0.05-0.08,0.08-0.12c0.06-0.08,0.03-0.15-0.04-0.12
		c-0.07,0.03-0.12,0.07-0.19,0.12c-0.07,0.05-0.27,0.22-0.33,0.29c-0.06,0.07-0.26,0.26-0.37,0.32c-0.11,0.06-0.18,0.08-0.23,0.12
		c-0.06,0.04-0.09,0.02-0.16-0.03c-0.07-0.05-0.11-0.1-0.14-0.14c-0.04-0.04-0.01-0.08-0.01-0.13c0-0.05,0.05-0.08,0.05-0.14
		c0.01-0.06-0.02-0.12,0.04-0.17c0.06-0.04,0.14-0.12,0.19-0.15c0.05-0.03,0.1-0.04,0.16-0.02c0.05,0.02,0.15,0.04,0.2,0.02
		c0.05-0.02,0.08-0.04,0.16-0.04c0.05,0,0.07-0.02,0.14-0.07c0.07-0.04,0.2-0.13,0.27-0.19c0.07-0.06,0.14-0.06,0.17-0.07
		c0.03,0,0.08-0.04,0.11-0.07c0.03-0.03,0.1-0.07,0.06-0.13c-0.04-0.06-0.07-0.06-0.13-0.06c-0.07,0-0.16-0.04-0.21-0.07
		c-0.04-0.03-0.07-0.11-0.02-0.15c0.05-0.04,0.2-0.13,0.25-0.17c0.06-0.04,0.11-0.1,0.11-0.14C40.99,11.93,40.96,11.9,40.96,11.83
		 M41.47,12.8c0.02-0.05,0.12-0.04,0.1,0.04c-0.02,0.08-0.05,0.08-0.07,0.13c-0.04,0.07-0.08,0.05-0.09-0.01
		c-0.01-0.04,0.02-0.06,0.04-0.09C41.47,12.84,41.46,12.82,41.47,12.8 M41.28,13.91c0.04-0.05,0.09-0.04,0.1-0.01
		c0.03,0.04,0.02,0.07-0.01,0.1c-0.04,0.03-0.09,0.07-0.12,0.03C41.22,13.99,41.22,13.98,41.28,13.91 M43.33,11.5
		c0.11-0.07,0.4-0.23,0.49-0.27c0.09-0.04,0.14-0.03,0.23,0c0.13,0.04,0.25,0.19,0.3,0.25c0.05,0.06,0.07,0.21,0.04,0.3
		c-0.02,0.09-0.11,0.23-0.18,0.32c-0.11,0.17-0.3,0.28-0.36,0.37c-0.06,0.09-0.13,0.21-0.18,0.27c-0.04,0.06-0.04,0.07-0.04,0.15
		c0,0.08-0.01,0.17,0.01,0.23c0.02,0.05,0.07,0.11,0.06,0.19c-0.01,0.08-0.09,0.24-0.19,0.26c-0.11,0.02-0.21-0.01-0.28-0.06
		c-0.06-0.05-0.15-0.15-0.15-0.3c0-0.15,0.01-0.33,0.02-0.42c0.01-0.09,0.01-0.13,0.06-0.21c0.06-0.08,0.32-0.36,0.38-0.53
		c0.03-0.08,0.05-0.17-0.03-0.21c-0.08-0.05-0.12-0.11-0.22-0.12C43.2,11.71,43.15,11.63,43.33,11.5 M42.51,12.99
		c0,0.14-0.08,0.18-0.07,0.26c0,0.07,0.02,0.15-0.01,0.18c-0.03,0.03-0.03,0.04-0.04,0.1c0,0.06-0.02,0.08-0.03,0.14
		s-0.01,0.31-0.02,0.46c0,0.15-0.08,0.3-0.11,0.47c-0.03,0.16-0.02,0.28-0.03,0.5c-0.01,0.2,0.05,0.23,0.16,0.34
		c0.1,0.12,0.26,0.24,0.32,0.27c0.07,0.02,0.14,0.03,0.19,0.02c0.05,0,0.06,0.05,0.2,0.04c0.14,0,1.33-0.02,1.54-0.01
		c0.21,0,0.41-0.02,0.52-0.1c0.11-0.08,0.23-0.19,0.25-0.28c0.03-0.09,0.06-0.2,0.01-0.29c-0.07-0.15-0.11-0.24-0.17-0.34
		c-0.06-0.09-0.08-0.15-0.09-0.22c-0.01-0.07-0.04-0.17-0.09-0.24c-0.05-0.07-0.05-0.15-0.05-0.21c0-0.06-0.07-0.24-0.13-0.28
		c-0.06-0.04-0.16-0.09-0.16,0.06c0,0.15,0.02,0.27,0.01,0.34c0,0.07,0.01,0.1,0.03,0.13c0.02,0.03,0.03,0.07,0.03,0.13
		c0,0.07,0,0.35,0.01,0.45c0.01,0.09-0.01,0.17-0.11,0.2c-0.1,0.03-0.14,0.04-0.18,0.07c-0.03,0.02-0.1,0.01-0.13,0.01
		s-0.05,0.04-0.08,0.05c-0.03,0.01-0.22,0-0.27,0c-0.09,0-0.06,0.05-0.13,0.05c-0.06,0-0.45-0.01-0.51,0
		c-0.07,0.01-0.11-0.05-0.18-0.05c-0.07,0-0.14,0.02-0.19-0.03c-0.06-0.05-0.14-0.04-0.14-0.16c0-0.12,0-0.39,0.01-0.48
		c0.01-0.1,0.03-0.17,0.07-0.22c0.04-0.05,0.04-0.09,0.04-0.14c-0.01-0.04,0.04-0.02,0.04-0.09c0-0.07,0.01-0.16,0.01-0.24
		c0-0.08-0.05-0.19-0.06-0.23c0-0.04-0.04-0.09-0.07-0.13c-0.03-0.04-0.04-0.09-0.03-0.14c0-0.05-0.04-0.16-0.09-0.23
		c-0.04-0.07,0-0.08-0.07-0.13C42.66,12.93,42.51,12.82,42.51,12.99"/>
	<path class="st4" d="M49.24,9.8c0.01,0.18-0.01,0.19,0.01,0.24c0.02,0.05,0.05,0.11,0.04,0.38c-0.01,0.18,0,0.17,0.02,0.21
		c0.02,0.04,0.05,0.05,0.04,0.15c0,0.14-0.01,1.26-0.02,1.36c-0.01,0.1-0.04,0.15-0.04,0.21c0.01,0.21-0.05,0.18-0.05,0.25
		c0,0.08,0.01,0.21,0,0.26c0,0.05-0.05,0.06-0.05,0.15c0,0.09,0.02,0.18,0.01,0.24c-0.02,0.07-0.05,0.07-0.06,0.15
		c0,0.07-0.03,0.28-0.2,0.39c-0.09,0.05-0.32,0.09-0.42,0.11c-0.1,0.01-0.27,0.08-0.36,0.08c-0.09,0-0.16,0-0.24,0.04
		c-0.08,0.04-0.19,0.1-0.28,0.09c-0.09-0.01-0.26,0-0.34-0.05c-0.08-0.05-0.14-0.07-0.18-0.04c-0.08,0.06-0.17,0.11-0.12,0.24
		c0.05,0.13,0.12,0.16,0.12,0.24c0,0.07,0.03,0.14,0.09,0.21c0.05,0.07-0.01,0.12,0.05,0.16c0.11,0.07,0.09,0.2,0.27,0.17
		c0.18-0.03,0.23-0.1,0.36-0.14c0.13-0.05,0.87-0.41,0.94-0.42c0.07-0.01,0.13-0.03,0.12,0.08c0,0.1,0.02,0.13,0.01,0.18
		c-0.01,0.05-0.02,0.07-0.06,0.11c-0.03,0.04-0.01,0.06-0.03,0.15c-0.01,0.09-0.15,0.45-0.43,0.73c-0.28,0.28-0.59,0.41-0.66,0.44
		c-0.07,0.03-0.29,0.03-0.34,0.02c-0.05-0.01-0.1-0.09-0.19-0.06c-0.09,0.03-0.15,0.11-0.05,0.2c0.1,0.09,0.35,0.22,0.49,0.23
		c0.14,0,0.26,0.06,0.34,0.04c0.08-0.03,0.16-0.02,0.29-0.1c0.13-0.08,0.59-0.49,0.78-0.94c0.19-0.45,0.25-0.66,0.28-0.72
		c0.02-0.06,0.02-0.15,0.02-0.26c0-0.1,0.03-0.15,0.07-0.19c0.04-0.05,0.01-0.08,0.02-0.14c0.01-0.06,0.05-0.11,0.13-0.16
		c0.07-0.05,0.13-0.04,0.26-0.12c0.13-0.07,0.98-0.47,1.22-0.56c0.24-0.09,0.39-0.14,0.48-0.26c0.05-0.06,0.1-0.2,0-0.28
		c-0.1-0.09-0.11-0.1-0.17-0.1c-0.06,0-0.06-0.07-0.13-0.06c-0.07,0.01-0.1,0.02-0.16-0.04c-0.06-0.06-0.17-0.09-0.23-0.01
		c-0.06,0.08-0.1,0.16-0.19,0.25c-0.09,0.09-0.27,0.17-0.39,0.22c-0.11,0.05-0.3,0.11-0.41,0.16c-0.11,0.05-0.18,0.06-0.18-0.04
		c0-0.11,0.01-0.17,0.04-0.25c0.03-0.08,0.05-0.22,0.07-0.31c0.03-0.09,0.1-0.15,0.1-0.26c0-0.11,0.01-0.18,0.04-0.28
		c0.04-0.14,0.09-0.22,0.09-0.29c0-0.07,0.01-0.17,0.03-0.22c0.02-0.05,0.05-0.08,0.07-0.21c0.02-0.13,0.04-0.28,0.04-0.44
		c0-0.16-0.01-0.25-0.07-0.33c-0.05-0.08-0.06-0.19-0.12-0.25c-0.06-0.06-0.08-0.11-0.09-0.17c-0.01-0.06-0.08-0.11-0.17-0.22
		c-0.09-0.1-0.24-0.25-0.32-0.32C49.35,9.65,49.23,9.7,49.24,9.8"/>
	<path class="st4" d="M50.24,14.95c0.13,0.11,0.38,0.29,0.59,0.43c0.2,0.14,0.52,0.31,0.65,0.31c0.13,0,0.22,0,0.32,0.04
		c0.1,0.04,0.2,0.07,0.31,0.07c0.1,0,0.28,0.02,0.41,0c0.13-0.01,0.23,0.01,0.08,0.17c-0.14,0.16-0.24,0.19-0.34,0.29
		c-0.1,0.1-0.12,0.07-0.18,0.1c-0.06,0.03-0.07,0.04-0.14,0.14c-0.06,0.09-0.19,0.23-0.36,0.25c-0.17,0.02-0.34-0.02-0.45-0.11
		c-0.11-0.09-0.14-0.04-0.24-0.2c-0.1-0.16-0.14-0.29-0.2-0.42c-0.06-0.14-0.11-0.23-0.21-0.36c-0.1-0.12-0.19-0.26-0.25-0.34
		c-0.04-0.05-0.07-0.05-0.1-0.11c-0.03-0.06-0.01-0.09-0.02-0.13c0-0.04-0.07-0.07-0.04-0.12C50.1,14.91,50.11,14.84,50.24,14.95"/>
	<path class="st4" d="M55.01,9.47c0.11,0.12,0.18,0.16,0.33,0.21c0.13,0.05,0.42,0.46,0.47,0.65c0.06,0.24,0.01,0.55,0.02,0.77
		c0.01,0.22,0.04,0.34-0.07,0.44c-0.11,0.09-0.11,0.21-0.19,0.03c-0.08-0.19-0.07-0.42-0.24-0.51c-0.17-0.09-0.26-0.2-0.44-0.17
		c-0.19,0.03-0.24,0.05-0.17,0.22c0.08,0.17,0.13,0.31,0.11,0.73c-0.01,0.27,0.04,0.45,0.15,0.54c0.11,0.09,0.26,0.21,0.37,0.21
		c0.11,0,0.14,0.06,0.06,0.14c-0.08,0.08-0.99,0.91-1.32,1.45c-0.17,0.28-0.16,0.3-0.06,0.4c0.09,0.1,0.13,0.19,0.38,0.18
		c0.25-0.01,0.45-0.04,0.56-0.16c0.11-0.12,0.6-0.46,0.78-0.63c0.18-0.17,0.77-0.66,1.18-1.02c0.33-0.29,0.79-0.43,0.93-0.52
		c0.2-0.14,0.26-0.08,0.34-0.14c0.08-0.05,0.19-0.23,0.27-0.28c0.08-0.05,0.32-0.08,0.43-0.09c0.11-0.02,0.29-0.01,0.15,0.19
		c-0.15,0.2-0.33,0.37-0.45,0.45c-0.12,0.09-0.75,0.44-0.83,0.5c-0.08,0.05-0.15,0.09-0.3,0.08c-0.16-0.01-0.21,0.03-0.37,0.11
		c-0.16,0.08-0.2,0-0.34,0.14c-0.14,0.14-0.2,0.18-0.29,0.3c-0.09,0.12-0.08,0.2,0.01,0.27c0.09,0.07,0.11,0.1,0.22,0.05
		c0.11-0.05,0.2-0.04,0.27-0.08c0.07-0.04,0.19-0.02,0.17,0.07c-0.03,0.09-0.07,0.15-0.05,0.26c0.02,0.11,0.09,0.22-0.14,0.31
		c-0.22,0.09-0.49,0.15-0.65,0.2c-0.15,0.05-0.58,0.2-0.75,0.29c-0.17,0.09-0.55,0.25-0.7,0.35c-0.14,0.1-0.27,0.15-0.37,0.25
		c-0.1,0.09-0.17,0.19-0.14,0.33c0.03,0.15,0.13,0.24,0.27,0.25c0.14,0.01,0.21,0.11,0.3,0.15c0.1,0.04,0.18,0.06,0.28,0.11
		c0.1,0.05,0.21,0.11,0.42,0.28c0.21,0.17,0.74,0.58,0.95,0.73c0.22,0.15,0.36,0.25,0.5,0.24c0.13-0.01,0.18,0,0.31-0.12
		c0.13-0.12,0.19-0.12,0.18-0.34c-0.02-0.22-0.09-0.74-0.09-1.08c0-0.33,0.06-0.3,0.04-0.49c-0.02-0.19-0.04-0.29-0.02-0.38
		c0.02-0.09,0.07-0.15,0.19-0.16c0.12-0.01,0.66-0.04,0.82-0.03c0.16,0.02,0.21,0.05,0.35-0.05c0.14-0.1,0.14-0.12,0.15-0.24
		c0.02-0.12,0.11-0.1-0.01-0.26c-0.11-0.16-0.26-0.22-0.34-0.32c-0.08-0.09-0.11-0.14-0.27-0.04c-0.16,0.09-0.22,0.14-0.37,0.15
		c-0.16,0.01-0.18,0.02-0.25,0.01c-0.07-0.01-0.13-0.01-0.08-0.14c0.05-0.14,0.12-0.28,0.27-0.41c0.15-0.13,0.21-0.19,0.23-0.28
		c0.02-0.09,0-0.16,0-0.27c0-0.11-0.01-0.13,0.14-0.21c0.15-0.08,0.64-0.44,0.81-0.59c0.17-0.14,0.49-0.42,0.41-0.73
		c-0.05-0.19-0.17-0.26-0.35-0.27c-0.17-0.02-0.35-0.01-0.43-0.01c-0.12,0-0.12-0.05-0.05-0.14c0.07-0.09,0.11-0.11,0.14-0.17
		c0.03-0.06,0.11-0.23,0.21-0.34c0.09-0.11,0.27-0.4,0.37-0.49c0.1-0.09,0.19-0.25,0.26-0.34c0.07-0.09,0.06-0.22,0.06-0.3
		c0-0.09-0.05-0.22-0.17-0.29c-0.12-0.07-0.14-0.12-0.26-0.08c-0.13,0.05-0.35,0.17-0.48,0.26c-0.13,0.09-0.79,0.44-1.03,0.62
		c-0.24,0.17-0.59,0.35-0.67,0.39c-0.08,0.05-0.17,0.02-0.12-0.09c0.05-0.1,0.09-0.18,0.21-0.25c0.12-0.07,0.27-0.19,0.37-0.25
		c0.1-0.06,0.33-0.23,0.37-0.32c0.04-0.1,0.09-0.22,0.02-0.28C57.9,9.3,57.75,9.17,57.66,9.1c-0.09-0.07-0.15-0.13-0.2-0.14
		c-0.05-0.01-0.08-0.05-0.14-0.09c-0.06-0.03-0.09-0.02-0.15,0.06c-0.06,0.08-0.05,0.14-0.02,0.2c0.04,0.06,0.01,0.14,0.04,0.2
		c0.03,0.06,0.03,0.11,0.06,0.12c0.02,0.01,0,0.05-0.03,0.1c-0.03,0.05-0.01,0.12-0.06,0.2c-0.06,0.07-0.15,0.22-0.22,0.29
		c-0.07,0.07-0.09,0.12-0.18,0.06c-0.1-0.06-0.24-0.18-0.41-0.27c-0.17-0.08-0.4-0.15-0.49-0.24c-0.09-0.09-0.19-0.18-0.34-0.22
		c-0.15-0.05-0.35-0.08-0.44-0.07C54.99,9.29,54.89,9.35,55.01,9.47 M56.22,10.55c-0.01,0.1,0.01,0.2-0.05,0.25
		c-0.05,0.05-0.04,0.09-0.06,0.14c-0.02,0.05-0.03,0.1-0.01,0.18c0.01,0.08,0.05,0.15,0.11,0.1c0.07-0.05,0.32-0.21,0.37-0.27
		c0.05-0.06,0.1-0.17,0.02-0.2c-0.07-0.03-0.11-0.02-0.16-0.03c-0.05-0.02-0.07-0.03-0.06-0.1C56.4,10.5,56.24,10.45,56.22,10.55
		 M56.22,10.55c-0.01,0.1,0.01,0.2-0.05,0.25c-0.05,0.05-0.04,0.09-0.06,0.14c-0.02,0.05-0.03,0.1-0.01,0.18
		c0.01,0.08,0.05,0.15,0.11,0.1c0.07-0.05,0.32-0.21,0.37-0.27c0.05-0.06,0.1-0.17,0.02-0.2c-0.07-0.03-0.11-0.02-0.16-0.03
		c-0.05-0.02-0.07-0.03-0.06-0.1C56.4,10.5,56.24,10.45,56.22,10.55 M56.5,11.35c-0.09,0.06-0.42,0.31-0.52,0.42
		c-0.1,0.1-0.25,0.36-0.35,0.49c-0.15,0.22-0.09,0.29,0.03,0.22c0.09-0.05,0.07-0.07,0.11-0.08c0.05-0.01,0.15-0.07,0.23-0.14
		c0.08-0.07,0.2-0.1,0.29-0.12c0.08-0.02,0.15-0.06,0.27-0.1c0.12-0.04,0.13-0.02,0.24-0.05c0.11-0.02,0.16-0.05,0.21-0.08
		c0.05-0.03,0.05-0.05,0-0.11c-0.06-0.07-0.06-0.1-0.13-0.1c-0.11,0-0.19-0.01-0.24,0.04c-0.06,0.05-0.21,0.08-0.18-0.01
		c0.03-0.09,0.04-0.18,0.09-0.25C56.6,11.42,56.59,11.29,56.5,11.35 M56.5,11.35c-0.09,0.06-0.42,0.31-0.52,0.42
		c-0.1,0.1-0.25,0.36-0.35,0.49c-0.15,0.22-0.09,0.29,0.03,0.22c0.09-0.05,0.07-0.07,0.11-0.08c0.05-0.01,0.15-0.07,0.23-0.14
		c0.08-0.07,0.2-0.1,0.29-0.12c0.08-0.02,0.15-0.06,0.27-0.1c0.12-0.04,0.13-0.02,0.24-0.05c0.11-0.02,0.16-0.05,0.21-0.08
		c0.05-0.03,0.05-0.05,0-0.11c-0.06-0.07-0.06-0.1-0.13-0.1c-0.11,0-0.19-0.01-0.24,0.04c-0.06,0.05-0.21,0.08-0.18-0.01
		c0.03-0.09,0.04-0.18,0.09-0.25C56.6,11.42,56.59,11.29,56.5,11.35 M57.27,11.23c0.06-0.08,0.21-0.12,0.21,0.04
		c0,0.15-0.01,0.23-0.06,0.29c-0.06,0.05-0.07,0.05-0.1,0.11c-0.02,0.06-0.08,0.07-0.12,0.01c-0.03-0.06,0-0.15-0.02-0.21
		C57.15,11.41,57.22,11.32,57.27,11.23 M58.13,10.31c0.09-0.09,0.13-0.13,0.29-0.23c0.16-0.1,0.33-0.2,0.42-0.24
		c0.09-0.04,0.14-0.04,0.18-0.07c0.03-0.02,0.15-0.01,0.14,0.09c-0.01,0.1-0.05,0.19-0.06,0.24c-0.01,0.05-0.16,0.32-0.27,0.49
		c-0.11,0.17-0.31,0.52-0.36,0.68c-0.05,0.15-0.12,0.22-0.14,0.31c-0.02,0.08-0.03,0.08-0.09,0.14c-0.06,0.06-0.09,0.11-0.2,0.11
		c-0.11,0-0.09,0.01-0.14,0c-0.05,0-0.05-0.04,0-0.11c0.06-0.07,0.1-0.13,0.1-0.18s0.05-0.09,0.08-0.14
		c0.04-0.05,0.04-0.08,0.05-0.12c0-0.04,0.05-0.06,0.08-0.1c0.03-0.05,0.03-0.07,0.04-0.14c0.01-0.07,0.05-0.05,0.05-0.15
		c-0.01-0.1,0.02-0.19-0.04-0.27c-0.06-0.07-0.06-0.13-0.12-0.18C58.06,10.4,58.09,10.35,58.13,10.31 M55,13.71
		c0.09-0.12,0.47-0.63,0.71-0.82c0.24-0.19,0.51-0.32,0.65-0.39c0.15-0.07,0.36-0.12,0.41-0.16c0.05-0.04,0.15-0.02,0.21-0.03
		c0.06-0.01,0.12-0.05,0.2-0.05c0.08-0.01,0.18,0.02,0.08,0.1c-0.1,0.07-0.7,0.51-0.85,0.6c-0.15,0.09-0.85,0.58-1,0.68
		c-0.16,0.1-0.24,0.13-0.32,0.18C54.97,13.88,54.91,13.83,55,13.71 M55.23,15.95c0.15-0.1,0.31-0.18,0.45-0.24
		c0.14-0.06,0.67-0.22,0.81-0.25c0.13-0.03,0.3-0.06,0.34,0c0.05,0.09-0.02,0.08-0.02,0.17c0,0.15,0.01,0.28,0.01,0.32
		c0,0.04,0.04,0.1,0.04,0.18c0,0.08,0,0.32-0.01,0.4c-0.01,0.08,0,0.12-0.02,0.16c-0.02,0.04-0.02,0.06-0.02,0.11
		c0,0.05,0.01,0.1-0.05,0.12c-0.06,0.02-0.04,0.04-0.16-0.02c-0.12-0.06-0.49-0.22-0.6-0.29c-0.11-0.07-0.25-0.17-0.39-0.24
		c-0.14-0.07-0.31-0.18-0.4-0.22C55.11,16.12,55.08,16.05,55.23,15.95"/>
	<path class="st4" d="M31.43,1.64v3.78H30.1v-2.6c-0.41,0.23-0.92,0.42-1.51,0.54V2.61c0.87-0.19,1.46-0.51,1.76-0.97H31.43
		L31.43,1.64z"/>
	<path class="st4" d="M37.87,4.43l1.3-0.11c0.09,0.37,0.35,0.55,0.78,0.55c0.24,0,0.42-0.06,0.55-0.17c0.13-0.12,0.2-0.25,0.2-0.41
		c0-0.16-0.07-0.29-0.2-0.41c-0.13-0.11-0.3-0.16-0.52-0.16c-0.16,0-0.33,0.02-0.52,0.06l0.1-0.66c0.04,0,0.09,0.01,0.12,0.01
		c0.23,0,0.41-0.04,0.56-0.13c0.14-0.08,0.22-0.19,0.22-0.33c0-0.11-0.05-0.21-0.16-0.28c-0.1-0.07-0.25-0.11-0.43-0.11
		c-0.4,0-0.63,0.17-0.7,0.5l-1.23-0.14c0.2-0.65,0.86-0.97,1.97-0.97c0.61,0,1.07,0.1,1.38,0.29c0.31,0.19,0.47,0.41,0.47,0.66
		c0,0.33-0.26,0.59-0.8,0.79c0.36,0.06,0.63,0.16,0.8,0.32c0.18,0.16,0.27,0.34,0.27,0.57c0,0.33-0.18,0.62-0.55,0.86
		c-0.37,0.23-0.87,0.35-1.51,0.35c-0.57,0-1.04-0.09-1.42-0.27C38.19,5.04,37.96,4.78,37.87,4.43"/>
	<path class="st4" d="M42.68,4.43l1.3-0.11c0.09,0.37,0.35,0.55,0.78,0.55c0.24,0,0.42-0.06,0.55-0.17c0.13-0.12,0.2-0.25,0.2-0.41
		c0-0.16-0.06-0.29-0.2-0.41c-0.13-0.11-0.31-0.16-0.52-0.16c-0.16,0-0.33,0.02-0.52,0.06l0.1-0.66c0.04,0,0.08,0.01,0.13,0.01
		c0.23,0,0.41-0.04,0.56-0.13c0.15-0.08,0.22-0.19,0.22-0.33c0-0.11-0.05-0.21-0.16-0.28c-0.1-0.07-0.25-0.11-0.43-0.11
		c-0.4,0-0.63,0.17-0.69,0.5l-1.23-0.14c0.2-0.65,0.86-0.97,1.97-0.97c0.61,0,1.07,0.1,1.38,0.29c0.31,0.19,0.47,0.41,0.47,0.66
		c0,0.33-0.26,0.59-0.8,0.79c0.36,0.06,0.63,0.16,0.81,0.32c0.18,0.16,0.27,0.34,0.27,0.57c0,0.33-0.18,0.62-0.55,0.86
		c-0.37,0.23-0.87,0.35-1.51,0.35c-0.57,0-1.05-0.09-1.42-0.27C43,5.04,42.77,4.78,42.68,4.43"/>
	<path class="st2" d="M26.47,13.62c0.13-0.08,0.25-0.09,0.35-0.15c0.1-0.06,0.28-0.15,0.38-0.2c0.1-0.05,0.23-0.03,0.11,0.08
		c-0.11,0.11-0.33,0.24-0.45,0.32c-0.12,0.07-0.18,0.1-0.26,0.11c-0.08,0.01-0.07,0.07-0.17,0.05
		C26.35,13.79,26.34,13.71,26.47,13.62"/>
	<path class="st2" d="M55,13.71c0.09-0.12,0.47-0.63,0.71-0.82c0.24-0.19,0.51-0.32,0.65-0.39c0.15-0.07,0.36-0.12,0.41-0.16
		c0.05-0.04,0.15-0.02,0.21-0.03c0.06-0.01,0.12-0.05,0.2-0.05c0.08-0.01,0.18,0.02,0.08,0.1c-0.1,0.07-0.7,0.51-0.85,0.6
		c-0.15,0.09-0.85,0.58-1,0.68c-0.16,0.1-0.24,0.13-0.32,0.18C54.97,13.88,54.91,13.83,55,13.71"/>
	<path class="st2" d="M56.5,11.35c-0.09,0.06-0.42,0.31-0.52,0.42c-0.1,0.1-0.25,0.36-0.35,0.49c-0.15,0.22-0.09,0.29,0.03,0.22
		c0.09-0.05,0.07-0.07,0.11-0.08c0.05-0.01,0.15-0.07,0.23-0.14c0.08-0.07,0.2-0.1,0.29-0.12c0.09-0.02,0.15-0.06,0.27-0.1
		c0.12-0.04,0.13-0.02,0.24-0.05c0.11-0.02,0.16-0.05,0.21-0.08c0.05-0.03,0.05-0.05,0-0.11c-0.06-0.07-0.06-0.1-0.13-0.1
		c-0.11,0-0.19-0.01-0.24,0.04c-0.06,0.05-0.21,0.08-0.18-0.01c0.03-0.09,0.04-0.18,0.09-0.25C56.6,11.42,56.59,11.29,56.5,11.35"/>
	<path class="st2" d="M36.3,12.94c0.03-0.06,0.13-0.18,0.2-0.24c0.08-0.06,0.1-0.08,0.14-0.09c0.04-0.01,0.13,0.07,0.08,0.14
		c-0.05,0.08-0.24,0.3-0.31,0.38c-0.07,0.07-0.13,0.1-0.15-0.01C36.25,13.01,36.27,13,36.3,12.94"/>
	<path class="st2" d="M60.08,43.56c0-0.25,0.2-0.45,0.45-0.45c0.25,0,0.45,0.2,0.45,0.45c0,0.25-0.2,0.45-0.45,0.45
		C60.28,44,60.08,43.81,60.08,43.56"/>
	<path class="st2" d="M15.14,43.84c0-0.25,0.2-0.44,0.45-0.44c0.25,0,0.45,0.2,0.45,0.44c0,0.25-0.2,0.45-0.45,0.45
		C15.35,44.29,15.14,44.09,15.14,43.84"/>
	<path class="st4" d="M33.14,4.57l1.29-0.11c0.08,0.27,0.28,0.41,0.6,0.41c0.24,0,0.43-0.08,0.56-0.23
		c0.14-0.15,0.23-0.42,0.26-0.81l-0.01-0.01c-0.29,0.23-0.66,0.34-1.11,0.34c-0.49,0-0.89-0.12-1.22-0.36
		c-0.32-0.24-0.48-0.53-0.48-0.88c0-0.37,0.18-0.68,0.55-0.92c0.36-0.24,0.85-0.36,1.45-0.36c0.71,0,1.25,0.17,1.62,0.5
		c0.37,0.33,0.55,0.79,0.55,1.38c0,0.61-0.19,1.09-0.58,1.44c-0.39,0.35-0.95,0.52-1.7,0.52c-0.48,0-0.87-0.08-1.18-0.24
		C33.44,5.09,33.24,4.86,33.14,4.57"/>
	<path class="st2" d="M35.79,2.95c0-0.2-0.07-0.36-0.23-0.49c-0.15-0.13-0.33-0.2-0.56-0.2c-0.21,0-0.38,0.06-0.52,0.18
		c-0.13,0.12-0.2,0.28-0.2,0.49c0,0.2,0.07,0.36,0.21,0.47c0.14,0.12,0.32,0.18,0.54,0.18c0.21,0,0.39-0.06,0.53-0.17
		C35.72,3.3,35.79,3.14,35.79,2.95"/>
</g>
</svg>
