<?xml version="1.0" encoding="UTF-8"?><svg id="b" xmlns="http://www.w3.org/2000/svg" viewBox="0 0 309.4329 309.305"><g id="c"><path d="M52.9303,157.9545c0-57.8087,45.6205-104.8424,101.6953-104.8424s101.7068,47.0338,101.7068,104.8424-45.6262,104.8424-101.7068,104.8424-101.6953-47.0286-101.6953-104.8424M51.5399,157.9545c0,58.6053,46.2433,106.2796,103.0857,106.2796s103.0914-47.6743,103.0914-106.2796-46.2427-106.2741-103.0914-106.2741-103.0857,47.6744-103.0857,106.2741" fill="#b11116" stroke-width="0"/><path d="M154.6258,266.0546c-57.8457,0-104.9066-48.4934-104.9066-108.1002s47.0609-108.0947,104.9066-108.0947,104.9117,48.4907,104.9117,108.0947-47.0627,108.1002-104.9117,108.1002ZM154.6258,54.9327c-55.0711,0-99.8748,46.2157-99.8748,103.0216s44.8038,103.0216,99.8748,103.0216,99.8863-46.2157,99.8863-103.0216-44.8088-103.0216-99.8863-103.0216Z" fill="#b11116" stroke-width="0"/><path d="M25.7995,143.4311c0,2.2775,1.7989,4.1312,4.0162,4.1312,2.2054,0,4.0102-1.8537,4.0102-4.1312,0-2.284-1.8048-4.1496-4.0102-4.1496-2.2173,0-4.0162,1.8656-4.0162,4.1496" fill="#b11116" stroke-width="0"/><path d="M276.4003,143.4311c0,2.2775,1.7631,4.1312,3.9797,4.1312,2.2233,0,4.0168-1.8537,4.0168-4.1312,0-2.284-1.7935-4.1496-4.0168-4.1496-2.2167,0-3.9797,1.8656-3.9797,4.1496" fill="#b11116" stroke-width="0"/><path d="M22.3103,154.9304c.0119.7021.0238,1.3914.0423,2.0875,2.9861-.1285,5.9729-.2505,8.9532-.3724-2.9498,1.5133-5.8759,3.1125-8.7833,4.8029.0363.7021.0786,1.4041.121,2.1061,4.1615-.3416,8.3113-.684,12.4728-1.0257-.0363-.6161-.0727-1.2262-.1031-1.843-2.6775.2012-5.3608.403-8.0383.6101,2.6167-1.4826,5.2459-2.8926,7.8928-4.2234-.0238-.7746-.0357-1.5559-.0483-2.3432-4.1734.0666-8.3357.1338-12.5091.2011" fill="#b11116" stroke-width="0"/><path d="M26.6655,172.8926c-.7688-.2317-1.1933-.6654-1.2659-1.3001-.0668-.6347.2425-1.1842.9328-1.6238.6909-.4456,1.7082-.7507,3.0536-.9212,1.3506-.1771,2.3985-.1525,3.156.0792.7629.2318,1.1688.6408,1.2356,1.2449.0667.5921-.242,1.105-.9269,1.5446-.6842.439-1.6904.7687-3.0292.9884-.6538.1099-1.2415.1585-1.7624.1585-.5395,0-1.0055-.0546-1.3936-.1705M29.1618,166.5937c-1.9569.2198-3.4959.806-4.592,1.7825-1.1087.9764-1.5873,2.1726-1.4359,3.5461.1514,1.3734.8845,2.3805,2.1691,2.9905,1.2898.6162,2.9015.726,4.8339.3724,1.9323-.3543,3.4225-1.0197,4.4948-1.9775,1.0722-.9645,1.5324-2.0388,1.3995-3.2717-.1395-1.2388-.8237-2.1607-2.0718-2.7954-.9454-.4756-2.0838-.726-3.4285-.726-.4363,0-.8912.0307-1.3691.0792" fill="#b11116" stroke-width="0"/><path d="M32.7899,183.2131c-.3332-.1951-.5447-.5434-.636-1.0377-.1024-.5249-.1996-1.0438-.2909-1.5746,1.0604-.2378,2.1208-.4822,3.1805-.726.0973.5183.1878,1.0371.285,1.5439.0972.4883.0364.8852-.1758,1.2083-.2122.3237-.5818.5434-1.0902.6774-.2062.0553-.3999.0792-.5758.0792-.2664,0-.4964-.0546-.6968-.1705M24.4727,179.9295c.121.7692.2544,1.5199.388,2.2705,1.6475-.3724,3.2949-.7507,4.9489-1.123.0973.5488.1997,1.0984.3028,1.6479-1.551.9032-3.0893,1.8309-4.6217,2.7767.1574.7939.3206,1.5746.4905,2.3618,1.6838-1.0923,3.3743-2.1666,5.0706-3.2096.3815.4695.872.7626,1.4776.8845.6002.1225,1.2963.0733,2.0904-.1399,1.1629-.3177,1.9747-.8366,2.4473-1.5446.4727-.702.5997-1.5932.3815-2.6855-.236-1.2575-.4601-2.533-.6723-3.8205-4.1014.8666-8.2022,1.7271-12.3036,2.5817" fill="#b11116" stroke-width="0"/><path d="M36.4675,187.4913c.1574.6594.3147,1.3188.4846,1.9715-3.2896,1.0317-6.5793,2.0635-9.8682,3.1005.1811.7141.3695,1.428.5573,2.1361,3.2711-1.0924,6.5422-2.1787,9.8192-3.265.1759.6467.3517,1.2942.5335,1.9349l2.1743-.7566c-.5447-1.8983-1.0418-3.8212-1.5079-5.7741-.7272.2198-1.4603.4336-2.1929.6528" fill="#b11116" stroke-width="0"/><path d="M29.0402,199.5515c.2122.696.4304,1.3854.6485,2.0695,1.6838-.6594,3.3683-1.3248,5.0521-1.9895.2968.9271.6056,1.837.921,2.7521-1.666.696-3.3379,1.398-5.0099,2.0994.2361.6714.4727,1.3428.7146,2.0082,3.8833-1.7024,7.7659-3.4055,11.6492-5.1087-.2241-.5981-.4423-1.2021-.6539-1.8123-1.5146.6347-3.0351,1.2755-4.5556,1.9103-.3094-.8912-.6122-1.7884-.9091-2.6976,1.5331-.6041,3.0655-1.2088,4.598-1.807-.1997-.6221-.3934-1.2388-.5937-1.8676-3.9493,1.4833-7.9113,2.9606-11.8613,4.4433" fill="#b11116" stroke-width="0"/><path d="M47.4199,215.3164c-1.3328.0426-2.8837.5616-4.6343,1.5752-1.7751,1.0191-3.0291,2.1234-3.7497,3.3383-.7146,1.2142-.7999,2.3499-.2485,3.3749.4482.8299,1.1635,1.2875,2.1327,1.3614.9632.0853,2.1016-.2198,3.398-.9038-.2116-.5675-.4238-1.129-.63-1.6965-.7511.3663-1.3751.5615-1.8656.5675-.4905,0-.8297-.1766-1.03-.5368-.2605-.4942-.1514-1.0564.3332-1.6845.4846-.6228,1.3388-1.3001,2.575-2.0329,1.2177-.732,2.2107-1.1655,2.9802-1.3061.7636-.1466,1.272.0126,1.5146.4642.1877.3476.1328.7507-.1574,1.2203-.2909.4762-.7755.9584-1.4841,1.4407.3629.4762.7146.9458,1.0841,1.41,1.2052-.9218,2.023-1.8437,2.4653-2.7588.4363-.9218.4482-1.7577.0423-2.5203-.478-.8792-1.3143-1.3129-2.5499-1.3129h-.1758" fill="#b11116" stroke-width="0"/><path d="M42.1556,228.9999c.3451.5741.6909,1.1355,1.0419,1.6911,1.5027-1.0497,3.0047-2.1061,4.5013-3.1678.478.7567.9625,1.5073,1.4478,2.2459-1.4782,1.0863-2.9624,2.1787-4.4406,3.2657.3636.5489.7265,1.0924,1.0961,1.6292,3.4231-2.5936,6.8516-5.1879,10.2807-7.7816-.3398-.4882-.6664-.9824-.9996-1.4773-1.3453.9891-2.69,1.9775-4.0347,2.9666-.4786-.7267-.9513-1.4646-1.4239-2.2033,1.3632-.9645,2.7323-1.9169,4.0954-2.8813-.3154-.5122-.63-1.0125-.9454-1.5313-3.5375,2.4165-7.0816,4.8336-10.6191,7.2441" fill="#b11116" stroke-width="0"/><path d="M47.765,237.4474c.3881.5368.788,1.0677,1.1814,1.5926,3.326-2.7282,6.6519-5.4624,9.9772-8.1966-.3636-.4822-.7146-.9584-1.0722-1.4466-3.3557,2.6855-6.724,5.365-10.0864,8.0505" fill="#b11116" stroke-width="0"/><path d="M51.0182,241.7195c.3273.4149.6604.8299.9937,1.2389,2.2959-2.0628,4.5979-4.1315,6.8998-6.1884-1.6296,2.88-3.1984,5.816-4.707,8.7946.3577.4149.7206.8299,1.0783,1.2329,3.1256-2.9846,6.2519-5.9572,9.3716-8.9352-.3154-.3604-.63-.72-.9394-1.0804-2.023,1.9103-4.0406,3.8145-6.0636,5.7248,1.3751-2.6549,2.7984-5.2732,4.2707-7.8488-.3815-.4637-.757-.9279-1.1325-1.3914-3.2591,2.8134-6.5124,5.6395-9.7716,8.4529" fill="#b11116" stroke-width="0"/><path d="M62.3587,246.651c1.3142-.9398,2.6232-1.8923,3.9255-2.8441-.915,1.3548-1.8174,2.7095-2.7204,4.0769-.3994-.403-.8119-.8179-1.2052-1.2329M56.9185,248.5919c.3636.3903.7213.7753,1.0842,1.1596.8608-.5981,1.7149-1.1962,2.563-1.8003.5812.5981,1.157,1.1902,1.7447,1.7757-.5758.8912-1.145,1.7764-1.7149,2.6676.4549.4576.921.9092,1.3876,1.3548,2.2894-3.7899,4.6462-7.5378,7.0691-11.2304-.4423-.4456-.878-.8845-1.3083-1.3361-3.562,2.539-7.1663,5.0107-10.8254,7.4092" fill="#b11116" stroke-width="0"/><path d="M70.5304,255.3664c-.4237.5315-.7629.9831-1.0115,1.3794-.2425.397-.4118.7506-.5031,1.0744-.1996.6594-.2241,1.2695-.0786,1.813.1454.5428.4549,1.007.9394,1.3913.7933.6347,1.6415.7933,2.5135.4755.8785-.329,1.7691-1.117,2.6959-2.3678,1.7023-2.3012,3.3987-4.5898,5.101-6.8844-.3577-.2751-.7154-.5495-1.0664-.8239-1.6778,2.2153-3.3564,4.4306-5.0402,6.6466-.4964.6587-.9691,1.0924-1.4054,1.2935-.4363.2078-.8297.1651-1.1688-.1033-.3636-.293-.515-.6714-.4363-1.111.0786-.4516.3874-1.0131.9209-1.6905,1.7261-2.1913,3.4589-4.3886,5.1975-6.5793-.4422-.3603-.8785-.7267-1.3149-1.093-1.787,2.1913-3.562,4.3886-5.343,6.5793" fill="#b11116" stroke-width="0"/><path d="M75.0318,264.6192c.4178.293.8297.5921,1.2475.8851,1.7446-2.5696,3.4892-5.1392,5.2339-7.7089-.9024,3.1557-1.7447,6.3535-2.5135,9.5765.4423.2864.8839.5795,1.3328.8666,2.3257-3.662,4.6581-7.3179,6.9904-10.9739-.3874-.2564-.7755-.5069-1.1629-.7626-1.5146,2.3499-3.0232,4.693-4.5378,7.0429.7153-2.8747,1.4841-5.7308,2.3145-8.5628-.4726-.3297-.9453-.6654-1.4055-1.0011-2.5022,3.5461-5.0038,7.0922-7.4994,10.6383" fill="#b11116" stroke-width="0"/><path d="M83.0641,269.9596c.5336.3238,1.0723.6468,1.6177.9705,2.1929-3.7472,4.3857-7.4951,6.5785-11.2364-.4964-.2863-.9811-.5795-1.4716-.8785-2.2357,3.7166-4.4828,7.4278-6.7246,11.1444" fill="#b11116" stroke-width="0"/><path d="M89.0496,273.3899c.5328.293,1.0657.5734,1.6111.8479,2.7747-3.4482,5.4706-6.939,8.1057-10.4791-.4244-.2079-.8482-.4209-1.2727-.6347-1.9382,2.6183-3.9189,5.2185-5.9306,7.7942.9996-3.1072,2.0355-6.2077,3.1137-9.2835-.5143-.2811-1.0174-.5615-1.5205-.8486-1.4477,4.1749-2.8169,8.3743-4.1067,12.6038" fill="#b11116" stroke-width="0"/><path d="M95.1132,276.4537c1.7082.8053,3.4225,1.5746,5.1611,2.3005.3094-.7259.6241-1.4586.9335-2.1907-1.1754-.4949-2.3324-1.0011-3.4833-1.5259.4542-.9891.9024-1.9775,1.3565-2.9599.8964.4083,1.7936.7992,2.7019,1.1836.285-.6654.5817-1.3361.8726-2.0142-.8905-.3783-1.7751-.7686-2.6596-1.1716.4-.8545.7934-1.7091,1.1874-2.5696,1.0663.4822,2.1386.9584,3.2169,1.41.3086-.714.6174-1.434.9202-2.1547-1.5503-.6527-3.0953-1.3487-4.6217-2.0687-1.8656,3.9244-3.7193,7.8428-5.5856,11.7612" fill="#b11116" stroke-width="0"/><path d="M108.4282,273.988c-.3999-.1466-.7993-.2991-1.1992-.4516.4059-1.0504.8118-2.0934,1.2177-3.1498.3874.1525.7874.293,1.1814.4456.3696.1345.6056.3723.7087.708.0965.3357.0601.7506-.1276,1.2634-.1938.5129-.4357.8792-.7392,1.0863-.1877.122-.3874.1833-.5937.1833-.1454,0-.2902-.0247-.4482-.0853M102.8433,279.804c.5693.2264,1.1384.4456,1.7142.6654.6241-1.6291,1.26-3.259,1.8841-4.8949.4178.1585.8416.3177,1.266.4703-.2241,1.7817-.4244,3.5701-.6181,5.3584.6181.2198,1.2362.4337,1.8537.6475.1639-1.9902.3517-3.9797.5573-5.9633.515-.1159.9817-.415,1.3811-.8971.4059-.4763.7516-1.111,1.0299-1.9163.4059-1.1722.4972-2.1361.279-2.8747-.2241-.7386-.7576-1.2575-1.5992-1.5625-.9698-.3604-1.939-.7267-2.8962-1.111-1.6171,4.0284-3.2348,8.0567-4.8518,12.0783" fill="#b11116" stroke-width="0"/><path d="M115.8795,271.5222c-.7206.5675-1.2779,1.4094-1.6475,2.557-.1395.4396-.2366.8486-.2664,1.2449-.0304.3909-.0066.7513.0727,1.0743.1574.6714.5937,1.3188,1.3142,1.9349.0608.0553.1091.092.1395.122.0423.0366.1151.0979.2057.1771.7939.6774,1.0967,1.3428.909,2.0022-.1276.4269-.3392.7507-.636.9517-.2909.2018-.6181.2505-.9692.1525-.4489-.1338-.7695-.4149-.9573-.8478-.1877-.4337-.23-.9831-.1395-1.6479-.5817.012-1.1694.018-1.7565.024-.2003,1.2269-.1217,2.252.236,3.0885.3576.8299.9692,1.3794,1.8173,1.6232.9269.2751,1.7989.1159,2.5869-.4703.7993-.5915,1.3447-1.4646,1.6659-2.6175.1514-.5555.2241-1.0564.236-1.526.006-.4642-.0608-.8851-.1877-1.2575-.2063-.5615-.6485-1.1229-1.3269-1.7091-.0542-.0426-.0905-.0733-.121-.0972-.0667-.0672-.164-.1466-.279-.2445-.7087-.6161-.9752-1.2268-.7874-1.819.1276-.3963.3213-.6954.5937-.8905.2664-.1958.5573-.2504.86-.1532.3332.0979.5758.3117.7153.6533.1388.3358.1938.7933.1455,1.3675.5447-.092,1.0842-.1958,1.6111-.2991.0787-1.0804-.0363-1.9475-.3392-2.6063-.2968-.6594-.7695-1.0863-1.4114-1.2755-.2366-.0732-.4726-.1038-.7027-.1038-.5454,0-1.0723.1951-1.5813.5921" fill="#b11116" stroke-width="0"/><path d="M120.1567,285.3403c.6115.1525,1.2171.2984,1.8293.439,1.0055-4.2175,2.0229-8.4283,3.0291-12.6397-.5514-.1339-1.1028-.2684-1.6481-.403-1.0722,4.1995-2.1387,8.4043-3.2103,12.6038" fill="#b11116" stroke-width="0"/><path d="M126.6744,275.9288c.5514.1159,1.0968.2318,1.6481.3417-.7213,3.4668-1.4418,6.9397-2.1565,10.4184.5996.122,1.1992.2379,1.8048.3477.6723-3.4849,1.3453-6.9703,2.0117-10.4491.5507.1038,1.102.2018,1.6594.299.1335-.7746.273-1.5438.4118-2.3191-1.6296-.2864-3.2526-.5981-4.8643-.9459-.1759.7693-.3452,1.538-.5151,2.3072" fill="#b11116" stroke-width="0"/><path d="M134.4351,282.4895c-.2731,1.825-.5454,3.656-.8178,5.481.6056.0912,1.2052.1712,1.8108.2504.2545-1.8437.5031-3.6986.7576-5.5422,1.1391-2.3432,2.2233-4.693,3.2711-7.0555-.4905-.0607-.9877-.1159-1.4722-.1766-.7146,1.6052-1.4419,3.2044-2.1869,4.797-.2903-1.733-.5574-3.4728-.8053-5.2059-.6002-.0853-1.2058-.1832-1.8054-.2811.3755,2.5757.7873,5.1572,1.2481,7.7329" fill="#b11116" stroke-width="0"/><path d="M148.3313,287.1892c-.4965-.0246-.8661-.4209-1.0842-1.1903-.2301-.7686-.3087-1.8616-.2301-3.265.0727-1.4041.2605-2.4778.5514-3.2163.2843-.7507.6664-1.105,1.1205-1.0924.4667.018.8059.4083,1.0419,1.1775.2301.7693.3213,1.8497.285,3.253-.0423,1.3981-.2063,2.4778-.5032,3.2284-.2783.7326-.6663,1.105-1.145,1.105h-.0363M146.3625,277.7965c-.6664,1.1896-1.0782,2.8014-1.2177,4.8336-.1329,2.0388.0667,3.6926.6366,4.9622.5574,1.2634,1.3871,1.9288,2.4534,1.9715s1.9442-.5495,2.6107-1.7763c.6723-1.2269,1.0114-2.8561,1.0418-4.8949.0304-2.0262-.2545-3.662-.8177-4.9068-.5693-1.2449-1.3202-1.8803-2.2835-1.9169h-.0912c-.915,0-1.6898.5742-2.3324,1.7278" fill="#b11116" stroke-width="0"/><path d="M154.529,276.435c.0238,4.3274.0483,8.6608.0721,12.9881.6121,0,1.2302-.012,1.8477-.0187-.0423-1.8123-.0727-3.6253-.1031-5.4317.8971-.012,1.8054-.0425,2.7078-.0732-.0298-.7507-.0602-1.5013-.0846-2.2459-.8905.0306-1.781.0546-2.6655.0672-.0238-.9891-.0423-1.9775-.0542-2.9667,1.096-.0179,2.2047-.0546,3.3074-.1032-.0363-.7813-.0727-1.5566-.1032-2.3379-1.6415.0733-3.283.1099-4.9245.1219" fill="#b11116" stroke-width="0"/><path d="M168.9223,275.2634c-.8363.0972-1.4603.5429-1.8967,1.3428-.4298.8053-.5937,1.8004-.472,2.9966.0422.4517.1269.8666.2544,1.2389.1269.3783.2968.696.5025.9645.4118.5495,1.0782.9704,1.9872,1.2575.0727.024.1328.0366.1693.0546.0608.018.1455.0426.2604.0792,1.0056.3111,1.5569.8,1.6421,1.4833.0602.4396-.0059.818-.1877,1.117-.1943.3051-.4727.4763-.8303.5249-.4727.0546-.872-.0853-1.2237-.4029-.3451-.3171-.6115-.8059-.7874-1.4587-.5328.2445-1.0663.4822-1.6051.714.3087,1.2022.7993,2.1181,1.4597,2.7409.6663.6161,1.4477.8845,2.3323.7746.9573-.1159,1.6904-.6041,2.181-1.452.4846-.8546.636-1.8676.4601-3.0519-.0846-.5615-.2181-1.0624-.3999-1.4953-.1752-.4336-.4059-.7872-.6783-1.0803-.4119-.4337-1.0478-.7754-1.9019-1.0438-.0727-.0186-.1217-.0366-.1515-.0426-.0972-.0306-.2122-.0732-.3576-.1158-.9024-.2871-1.3811-.7387-1.4538-1.3555-.0482-.4149.0119-.7626.1818-1.0496.1634-.2864.4119-.4456.7266-.4822.3457-.0426.6485.0672.9149.3176.2724.2564.5032.6528.6968,1.1963.4482-.2991.9024-.5981,1.3506-.9032-.3637-1.0197-.8238-1.7704-1.3632-2.2587-.4661-.4209-.9752-.6287-1.5265-.6287-.0965,0-.1877.0059-.2842.0186" fill="#b11116" stroke-width="0"/><path d="M177.0822,274.0366c-.9328.1772-1.5753.9092-1.939,2.2033-.357,1.3001-.3874,2.9659-.0482,5.0047.3392,2.0448.8964,3.6194,1.7142,4.7117.8118,1.0924,1.7572,1.55,2.811,1.3547.8422-.1585,1.4537-.6953,1.8173-1.5985.3636-.9099.4423-2.1061.2605-3.5827-.5574.018-1.1087.0307-1.6535.0426.0846.8486.0542,1.5073-.0853,1.9835-.1514.4702-.3993.7446-.7688.8119-.5031.0972-.9573-.1958-1.3393-.8672-.3934-.6774-.7087-1.733-.9633-3.155-.2539-1.428-.3265-2.5271-.2175-3.3204.1151-.7872.3993-1.2208.8601-1.3061.351-.0673.6842.1219.9995.5615.3147.4336.5752,1.0624.7815,1.9042.515-.1891,1.0299-.3723,1.5383-.5675-.4178-1.4766-.9632-2.5756-1.6171-3.3083-.5513-.6041-1.1391-.9091-1.7691-.9091-.1269,0-.2545.012-.3815.0366" fill="#b11116" stroke-width="0"/><path d="M182.3161,273.2246c.9995,4.2175,1.9991,8.429,2.9927,12.6525.6116-.1405,1.2172-.2811,1.8293-.4337-1.0604-4.2048-2.1082-8.4042-3.1686-12.615-.5507.1399-1.1021.2684-1.6534.3962" fill="#b11116" stroke-width="0"/><path d="M186.7864,272.1077c1.1576,4.1809,2.3086,8.3557,3.4654,12.5365,1.8114-.4882,3.6162-1.013,5.4157-1.5746-.2425-.7566-.4845-1.5139-.7272-2.2705-1.2052.3783-2.4229.7446-3.6347,1.0863-.3087-1.0437-.6056-2.0874-.9143-3.1312.9447-.2684,1.8901-.5428,2.8229-.8358-.2181-.696-.4363-1.3914-.6544-2.0875-.9269.2745-1.8537.5555-2.7806.8179-.2605-.9091-.521-1.813-.7814-2.7162,1.1205-.323,2.2476-.6527,3.3623-1.007-.2366-.7447-.4786-1.4826-.7153-2.2333-1.6052.5062-3.2288.9764-4.8584,1.4153" fill="#b11116" stroke-width="0"/><path d="M198.1995,268.4278c1.0181,2.6062,2.0414,5.2059,3.0529,7.8062-1.9079-2.2646-3.7556-4.5592-5.5545-6.8843-.5394.1832-1.0782.3716-1.6177.5488,1.4055,4.1075,2.817,8.2091,4.2225,12.3107.4786-.1651.9632-.3296,1.4418-.4942-1.0663-2.918-2.1201-5.8353-3.1865-8.7587,2.023,2.5817,4.1073,5.1326,6.2579,7.6477.4905-.1892.9752-.3724,1.4657-.5675-1.5933-4.0343-3.1925-8.0626-4.7976-12.1029-.4243.1705-.8541.3357-1.2845.4942" fill="#b11116" stroke-width="0"/><path d="M204.6452,265.5165c-.8786.3903-1.3269,1.2515-1.3751,2.5936-.0549,1.3554.3087,2.9787,1.1087,4.8768.8058,1.9103,1.7201,3.3084,2.7679,4.1868,1.0485.8725,2.0719,1.0924,3.0411.6594.7939-.3484,1.2607-1.0131,1.3995-1.9842.1455-.9638-.0601-2.148-.5817-3.5454-.5328.1465-1.0598.2924-1.5993.4329.285.8.4119,1.4467.3821,1.9469-.0303.4949-.2181.8179-.5573.9771-.4726.2072-.9692.0241-1.5086-.5375-.5328-.5675-1.0842-1.5199-1.666-2.85-.5752-1.3248-.9023-2.3745-.9811-3.1678-.0786-.7933.1025-1.2875.5328-1.4773.3213-.1399.6842-.0366,1.0968.3058.4119.3537.8112.9091,1.2052,1.6784.4542-.3058.915-.6041,1.3692-.9158-.7511-1.3308-1.5384-2.2766-2.3442-2.8321-.5091-.3476-.9996-.5249-1.4723-.5249-.2783,0-.5513.0613-.8177.1772" fill="#b11116" stroke-width="0"/><path d="M209.534,263.4716c1.9501,3.8758,3.9011,7.7516,5.852,11.6267,1.6838-.8479,3.3497-1.733,4.9971-2.6549-.3814-.6894-.7688-1.3854-1.1569-2.0808-1.1028.6221-2.2292,1.2262-3.3497,1.8063-.5032-.9584-1.0056-1.9282-1.5087-2.8867.8726-.4575,1.7447-.9218,2.6113-1.398-.3576-.6408-.7094-1.2815-1.0603-1.9282-.8482.4695-1.7023.9271-2.5625,1.3667-.4363-.83-.866-1.6718-1.3023-2.5084,1.0419-.5428,2.0778-1.0983,3.1018-1.6658-.3761-.69-.7576-1.3734-1.1391-2.0575-1.4782.8306-2.9743,1.6179-4.4828,2.3805" fill="#b11116" stroke-width="0"/><path d="M223.7217,258.5221c1.108,1.1836,2.2352,2.3679,3.3616,3.5334-.466.3237-.9387.6408-1.4055.9525-.6419-1.5013-1.2963-2.9906-1.9561-4.4859M221.5044,256.5326c1.7387,4.0523,3.398,8.1479,4.9979,12.2734.4357-.2804.866-.5555,1.2957-.8359-.4059-.9771-.8118-1.9535-1.2237-2.9174.679-.4522,1.3513-.9038,2.0177-1.3613.7391.7506,1.4722,1.5012,2.2173,2.2586.5143-.3663,1.0419-.7326,1.5502-1.105-3.1679-3.0579-6.2817-6.1704-9.3347-9.3381-.5031.3477-1.0121.69-1.5205,1.0257" fill="#b11116" stroke-width="0"/><path d="M230.1667,250.1725c1.7327,2.1853,3.4713,4.37,5.2041,6.5493-2.4778-1.5752-4.9251-3.1924-7.3242-4.8709-.4602.3543-.921.702-1.3811,1.0497,2.5505,3.5035,5.0944,7.0069,7.6509,10.5224.4059-.3111.8178-.6168,1.2237-.9338-1.8716-2.4718-3.7378-4.9502-5.6094-7.4339,2.6834,1.8496,5.4217,3.6434,8.2141,5.3831.4184-.3358.8244-.6774,1.2362-1.0191-2.7137-3.3756-5.4217-6.7565-8.1295-10.1381-.3636.2991-.7212.5988-1.0848.8912" fill="#b11116" stroke-width="0"/><path d="M236.2487,247.9878c.2426-.2138.4786-.4336.7153-.6534.4298-.3903,1.0115-.4329,1.738-.1099.7332.3237,1.5391.9704,2.4236,1.9476.8845.9704,1.4418,1.843,1.6778,2.6183.2301.7746.1151,1.3727-.3451,1.8003-.2485.2318-.5091.4636-.7576.6954-1.8174-2.0994-3.6288-4.1988-5.4521-6.2982M236.461,244.9546c-.3755.1339-.7272.3597-1.0663.6707-.636.5861-1.2719,1.1603-1.9205,1.7278,2.7931,3.3203,5.5856,6.6346,8.378,9.9542.6968-.6161,1.3936-1.2389,2.0785-1.8676.9566-.8785,1.3083-2.0142,1.0538-3.3749-.2545-1.3614-1.0782-2.7708-2.4593-4.2481-.8178-.8785-1.66-1.5746-2.52-2.0934-.8541-.5248-1.6541-.8239-2.3872-.9032-.1092-.012-.2182-.0246-.3273-.0246-.2843,0-.5573.0553-.8297.1592" fill="#b11116" stroke-width="0"/><path d="M242.664,238.2953c.5699.5435,1.1332,1.0871,1.6963,1.6299.3881-.4329.7755-.8666,1.157-1.3061,2.5809,2.4111,5.1611,4.8275,7.7361,7.2387.4178-.4762.8356-.9585,1.2415-1.4467-2.6047-2.3805-5.2153-4.761-7.8267-7.1348.3755-.4455.7451-.8971,1.1212-1.3487-.5877-.5249-1.1754-1.0377-1.7572-1.5626-1.0961,1.3428-2.2173,2.655-3.3683,3.9304" fill="#b11116" stroke-width="0"/><path d="M247.4682,232.5646c3.283,2.7954,6.5607,5.5908,9.8377,8.3856,1.2177-1.5559,2.4051-3.1491,3.562-4.7783-.624-.4889-1.2475-.9705-1.8656-1.4527-.7754,1.0924-1.5688,2.1727-2.3747,3.2404-.8296-.6894-1.654-1.3794-2.4896-2.0628.624-.8239,1.2415-1.6599,1.8477-2.5084-.5698-.4516-1.1391-.8971-1.7149-1.3487-.5936.8299-1.1992,1.6538-1.8114,2.4597-.7205-.5921-1.4412-1.1903-2.1624-1.7884.7451-.9891,1.4782-1.9834,2.1929-3.0032-.6115-.4696-1.2177-.9459-1.8292-1.428-1.03,1.4646-2.0964,2.8933-3.1925,4.2847" fill="#b11116" stroke-width="0"/><path d="M253.6289,223.367c-.5454.8725-.5031,1.9042.1336,3.1371.63,1.2329,1.7624,2.4717,3.398,3.6926,1.6356,1.2389,3.1197,1.9529,4.4591,2.1174,1.3261.1652,2.3138-.2437,2.9253-1.2142.4972-.7813.5639-1.6604.1944-2.6122-.3637-.9525-1.1272-1.8983-2.2781-2.838-.3755.4575-.757.9032-1.1451,1.3487.6426.5555,1.0783,1.0558,1.3024,1.5259.2241.4576.2307.8606.0184,1.1963-.2968.4695-.8177.6101-1.5509.4149-.7451-.1891-1.6898-.714-2.8533-1.5566-1.1629-.8419-1.9688-1.5925-2.4348-2.2579-.4549-.6654-.5514-1.2022-.2791-1.6358.1997-.3237.5633-.4456,1.0902-.3783.5216.0672,1.145.3296,1.8662.7812.236-.5495.472-1.0923.7027-1.6418-1.309-.7446-2.4533-1.1229-3.4231-1.1349h-.0423c-.9447,0-1.6296.3476-2.0838,1.0557" fill="#b11116" stroke-width="0"/><path d="M258.8628,214.731c1.4359.8419,2.8652,1.6904,4.2951,2.5324-.4118.7999-.8237,1.5932-1.254,2.3804-1.4174-.8792-2.8289-1.7577-4.2463-2.6303-.285.5368-.5817,1.0677-.8785,1.5926,3.5983,2.3071,7.2085,4.6144,10.8134,6.9156.3266-.5801.6539-1.1663.9752-1.7584-1.5569-.9638-3.1137-1.9283-4.6647-2.8867.4304-.7992.8541-1.6051,1.2719-2.4231,1.5814.9279,3.1501,1.8556,4.7255,2.7835.3027-.6048.6115-1.2089.9143-1.813-3.7074-2.1174-7.4148-4.2295-11.1216-6.3416-.2731.5555-.5514,1.105-.8303,1.6485" fill="#b11116" stroke-width="0"/><path d="M263.0488,205.6552c2.4652,1.1717,4.937,2.3433,7.4089,3.5155-2.8836-.1712-5.7488-.4216-8.5961-.7387-.2545.5862-.5151,1.1656-.7815,1.7458,3.7557,2.0075,7.512,4.0216,11.2618,6.0298.242-.5129.4661-1.025.7027-1.5499-2.7145-1.386-5.4282-2.7648-8.142-4.1562,3.1746.3476,6.3788.5974,9.5957.7566.2182-.5495.4423-1.105.6604-1.6604-3.8409-1.8004-7.6878-3.5947-11.5281-5.3951-.1938.4822-.3881.9705-.5818,1.4526" fill="#b11116" stroke-width="0"/><path d="M271.2028,201.9686c-1.2719-.5308-2.1988-1.0804-2.7865-1.6418-.5818-.5615-.788-1.0924-.6241-1.6051.1699-.5129.6479-.7754,1.4234-.7873.788-.012,1.8173.2258,3.0959.72,1.2719.495,2.2107,1.0197,2.8044,1.5933.5937.5675.7999,1.1349.6241,1.6784-.1818.5495-.6723.8299-1.4597.8359h-.0423c-.7814,0-1.787-.2684-3.0351-.7933M268.1737,195.9142c-1.3328.2445-2.1624.8792-2.5141,1.9469-.357,1.0683-.0965,2.136.7695,3.259.8786,1.111,2.2173,2.0874,4.0406,2.8867,1.8359.8059,3.4291,1.117,4.7857.8971,1.3632-.2191,2.2418-.9271,2.6352-2.1113.394-1.1783.1395-2.3618-.7688-3.5095-.9091-1.147-2.296-2.0508-4.1623-2.7342-1.3506-.5002-2.5625-.7386-3.6288-.7386-.4059,0-.7873.0306-1.1569.1038" fill="#b11116" stroke-width="0"/><path d="M278.2057,192.6731c-3.2711-1.0496-6.5428-2.0994-9.8139-3.1491-.1693.6467-.3451,1.2942-.5269,1.9409,3.9983,1.3547,7.99,2.7095,11.9823,4.0649.5395-1.9775,1.0479-3.9796,1.5205-6.0184-.7511-.2132-1.496-.427-2.2352-.6408-.2968,1.2755-.6062,2.5391-.9269,3.8025" fill="#b11116" stroke-width="0"/><path d="M276.237,183.2864c-1.3268-.3297-2.3145-.7387-2.9683-1.2149-.6485-.4942-.9209-1.0071-.8178-1.5805.1025-.5675.5388-.9218,1.3083-1.0804.7755-.1525,1.8233-.0912,3.1442.1951,1.3261.2931,2.3257.6781,2.9861,1.1723.6604.4882.9387,1.0496.8303,1.6478-.1151.6101-.5573.9884-1.3328,1.135-.2426.0492-.5091.0733-.7999.0733-.6544,0-1.4359-.1159-2.3502-.3477M272.4688,177.4697c-1.2904.5009-2.0296,1.3308-2.2411,2.5084-.2182,1.1783.1752,2.2586,1.1747,3.2657,1.0121,1.0191,2.4599,1.7884,4.3679,2.3072,1.9145.5182,3.5255.5549,4.8464.0792,1.3143-.4762,2.1082-1.3674,2.3442-2.6795.236-1.3062-.1699-2.5024-1.2117-3.5461-1.0419-1.0438-2.532-1.7391-4.4704-2.1241-.8118-.1645-1.5694-.2378-2.2655-.2378-.9573,0-1.8055.1405-2.5446.4269" fill="#b11116" stroke-width="0"/><path d="M273.0869,166.7709c-.7636.5675-1.1933,1.3301-1.2964,2.3072-.1335,1.2815.3206,2.3738,1.393,3.3203,1.0603.9518,2.569,1.6112,4.5252,1.9529,1.9264.3417,3.5196.2318,4.7797-.3543,1.2481-.5795,1.9569-1.5439,2.0964-2.8561.0667-.6167,0-1.1962-.2182-1.7151-.2122-.5308-.5394-.9458-.9876-1.2695.4726-.0853.9453-.1651,1.4174-.2504.037-.415.0667-.83.1091-1.2449-2.2411-.2378-4.4763-.4703-6.7181-.708-.1091,1.3913-.2419,2.7648-.3874,4.1322.7027.0972,1.3995.1891,2.0957.2863.0727-.6654.1395-1.3361.2062-2.0082.1269.0187.2664.0373.4.0613.5996.0912,1.0782.3357,1.4293.726.3576.3909.5091.8425.4541,1.3494-.0786.708-.4779,1.1903-1.2111,1.446-.7273.2445-1.781.2624-3.1501.0493-1.3995-.2198-2.4354-.5435-3.1077-.9705-.6783-.4336-.9811-.9464-.915-1.5745.0489-.4337.279-.7754.6968-1.0258.4178-.2564.9936-.3963,1.7142-.4336-.0483-.726-.1091-1.446-.1693-2.1727-1.3328.0673-2.3872.391-3.156.9525" fill="#b11116" stroke-width="0"/><path d="M272.8568,156.7614c1.5933.732,3.1858,1.4953,4.7731,2.2766-1.6415.6287-3.2889,1.2329-4.937,1.8124-.0483.8119-.0906,1.6238-.1514,2.435,2.4592-.8419,4.9066-1.7577,7.354-2.7401,1.7691.1099,3.5441.2138,5.325.3237.0364-.8238.0727-1.6478.0973-2.4784-1.7936-.0792-3.5865-.1525-5.3793-.225-2.3324-1.203-4.6832-2.3499-7.0394-3.4362-.0125.6833-.0304,1.3607-.0423,2.0321" fill="#b11116" stroke-width="0"/><path d="M268.1558,104.3096c.7206.9752,5.0335-.0846,5.0335-.0846,0,0-1.6593-.5275-2.1802-.9698-.515-.4482.8416-3.4165.8416-3.4165,0,0-4.4281,3.4832-3.6949,4.4709" fill="#b11116" stroke-width="0"/><path d="M75.8674,54.2959c-.1937.0119-.7265-.0185-.8964-.1269-.1455-.1091-.1878-.2909-.3154-.3398-.0905-.0482-.1447-.0423-.2115-.0423-.0364.006-.0913.006-.1455-.0119-.2426.2301-.2485.3696-.279.5693-.0119.0608-.0602.1276-.0483.1877.006.0608.0608.0853.0906.1336l.9453,1.2904c.0787.3696-.3517.9692-.4601,1.3388-.0363.3874-.0793.7754-.1157,1.151-.2419.1692-.357.1573-.5143.1454-.0549,0-.1157-.0059-.1818-.0059-1.9991-1.7751-3.4833-3.4106-5.6946-3.4047-.5388,0-1.1814-.3153-1.7083-.1574.1574.5388.2791,1.1265.4786,1.6415.0483.121.1515.1699.1938.3028.4667,1.1629.9936,2.3078,1.496,3.5501.1157.285.7939,1.8352.9996,2.017.9876.8786,2.2417,1.9932,3.2228,2.7806.4549.3517.6062.7636,1.0359,1.0842.788.5817,2.8896,2.0414,3.6955,1.9932.9083-.0667,2.0534-.6419,2.5928-1.6052.1634-.2909.1092-.8177.2301-.9996l.7695-.5936c.5877-.7934,1.1874-1.5814,1.781-2.3747.1818-.3273.5752-1.2118.6181-1.551.0602-.5031-.3213-1.0722-.2366-1.6355-.2664-.3815-.4178-.5091-.6783-.6181-.745.5937-1.3328,1.3388-1.8781,2.1387-.5083.7391-.9692,1.5265-1.4716,2.2655-.4125.6181-.9817,1.545-1.89,1.5629-.0913-.0245-.043,0-.1336-.0727.0972-.9811-.1633-1.3202.3636-2.3383-.4059-.5878-.6908-1.4419-1.2421-1.5933-.5024-.1395,1.1933-2.0956,1.3387-2.2775.915-1.0782,1.4419-2.0718,1.0121-3.5864-.0726-.279-.4845-.6419-.509-.921l-.3154-.4237h-.0179c-.1937,0-1.6599.5024-1.9205.5269" fill="#b11116" stroke-width="0"/><path d="M65.5815,76.7162c-.1091-1.1028.0238-2.181-.0608-3.2592-.0482-.1455-.1091-.2909-.1693-.4482-.0244-.388.1515-.8541.0364-1.2541.9083-.6849,1.0419-1.5086.6902-2.3442.1395-.1031.1877-.1157.2909-.1514.4363.5812.9446,1.2475,1.3387,1.8412.2063.285.6181.7086.6485.9877l.4965.6782c.0608.2968-.285.8303-.3874,1.1146-.0794.2604-.1217.624-.2486.8667-.2366.4357-.5394.6783-.7027,1.1205-.1454.3934-.2545.9024-.3999,1.2964-.1151.3087-.6181,1.1814-1.1205,1.2112-.0727.0184-.1395.0363-.1938.0608-.382-.5936-.1699-1.1569-.2181-1.7201M57.173,59.0934c-.2485.0423-.4423-.0059-.636-.0542-.279-.0727-.5573-.1454-.9573.0542-.1573.0727-.2062.6003-.1454.685.5031.751,1.2481.6115,1.9509.7933.4238.1151.7874.3392,1.2111.4608.6604.1997,1.4908.1514,2.1082.5871.9996.6968,2.7442,3.0655,3.2896,4.2892l.7695,1.0478c.2664.4304.5151.8608.7815,1.2845-.1878.0667-.3815.0549-.5758.0423-.1938-.0119-.3815-.0179-.5693.0303-.7213.2063-1.2719.5514-2.0414.6909-.5091.0965-1.7995.0965-2.0296.7265-.3332.9633.9024.5997,1.266,1.0909l.3027.4238c1.7447,1.4603,3.4232,5.4824,2.6292,7.7903-.0119.0667-.0363.1216-.0119.1937,0,.0667.0905.2062.1091.2366.5996.8905,1.7082,2.6715,2.6774,2.3324.0364.0059.1151,0,.1151,0,.1091-.0304.794-.5573.8964-.6968.158-.3576.1157-1.4722.2605-1.9323.2122-.6968.5454-1.3149.7695-2.0051.0125-.1759.0185-.3392.0304-.515.2062-.7213.3874-1.4478.4786-2.187.0304-.0667.0905-.1335.1514-.121.1699.1455.5269.4846.5395.7392.6538.9142,1.0293,1.6289,1.7929,1.9019.2122-.1514.5091-.3577.5752-.5335.2849-.4542-.0298-1.3083-.1574-1.8537-.3392-1.3989-1.157-2.7316-1.7929-4.2039-.3154-.4482-.6062-.9023-.915-1.3572-.6056-1.3751-1.7202-2.7925-2.7197-4.1496-.3756-.5507-.7576-1.1146-1.1391-1.6719-.236-.2176-.521-.5084-.757-.8172-.5151-.6968-1.0849-1.5086-1.5992-1.9628-.4304-.3821-.6545-1.1272-1.0909-1.3876-.4964-.2909-1.1992-.394-1.9687-.394-1.2416,0-2.6471.273-3.5984.4422" fill="#b11116" stroke-width="0"/><path d="M117.0245,39.4967c.866-.3577.6419,1.5205.6419,1.5205l-1.1992.5937s-.3028-1.7387.5573-2.1141M117.7576,36.207c-.5758-.1269-.9328-.9269-.9328-.9269,0,0,.5633-.9083.8541-.285.2605.5818.5997,1.2303.1997,1.2303-.0363,0-.0727-.0066-.121-.0185M116.8064,24.7998c-1.7142.6426-3.4952,1.1999-2.8348,2.454.6604,1.2475,2.011,1.0901,3.2228.4059,1.2171-.679,1.2237.2604,1.2237.2604,0,0-.5335,4.1735-1.4478,5.228-.9031,1.0419-1.0359.521-2.9564,1.8352-1.9264,1.3209,1.617,1.8358,2.2047,1.8781.5699.0483.8608.757.2486,1.1391-.6116.3874-2.5809,3.5012-2.5988,4.8763-.006,1.3691,1.66,1.3268,3.9679.5513,2.3019-.7754,2.0957-2.5022,2.5446-4.2766.4601-1.7631.7629-2.6053,1.3811-4.1861.6115-1.5932.9142-3.5501.4541-2.8955-.4667.6478-1.5569,2.0289-1.5569,2.0289,0,0-.1514-2.6715-.0608-3.9494.0972-1.2845.5032-3.5745.9269-4.9132.4304-1.3446-.0542-.351-.6598-1.2534-.1639-.2486-.4118-.3458-.7272-.3458-.8297,0-2.0897.6909-3.3319,1.1629" fill="#b11116" stroke-width="0"/><path d="M123.4397,25.2065s.8482,7.0207,2.3932,6.3663c1.5442-.6604.4178-2.296.2175-3.162-.1811-.8785-.5024-2.2715-.6115-3.0529-.0483-.3035-.3452-.394-.7027-.394-.5752,0-1.2964.2426-1.2964.2426" fill="#b11116" stroke-width="0"/><path d="M127.0202,24.1824c-.4303,1.3447,2.4044.1877,5.228-.8965,2.8288-1.0848-2.2174,5.4158-2.2174,5.4158l-.4178-2.3509s-1.1331,1.9813-1.8537,3.8106c-.7027,1.8477.0179,2.1565-1.1939,2.8354-1.2111.6842-.8416,2.4348-.0363,2.9193.7999.4913,1.024,2.0475-.3511,2.5446-1.3692.5091.0363,1.896.6723,2.3747.63.4786.3696.63-.4965,1.1695-.8726.5328-.0853,3.513.7874,4.1734.872.6724,2.4837,1.4782,5.9247-.0667,3.447-1.545.0119-3.7802-1.0055-3.513-1.0181.2604-2.7627.2234-2.3449-1.0367.4184-1.2534,1.7995-3.1256,1.7876-4.0763-.0185-.9454-2.4051-.1759-2.4414-.9573-.0185-.7636.1633-2.2173,1.3447-3.671,1.1933-1.4538,2.7746-3.835,4.695-6.3551,1.9324-2.5135,1.7744-6.2268-.4422-6.7299-.1455-.0364-.3035-.0483-.4727-.0483-2.3806,0-6.767,3.2044-7.1662,4.4585" fill="#b11116" stroke-width="0"/><path d="M190.5547,30.8521s-3.1501-.4786,2.0599,2.6107c4.4035-.0423-2.9022,5.3675-4.0531,6.6394-.8053.8845-2.3442.7517-4.2344.63-.8356-.0542-1.7446-.115-2.6833-.0846-3.0715.1032-3.4833,1.4901-.8905,3.447,2.5928,1.9569,17.1977,1.6838,19.5545-.2605,2.3628-1.9449-2.5625-3.5745-6.7663-3.4773-4.1986.1091,4.6885-4.1252,6.8754-5.0765,2.1929-.9573,2.0355-3.9071.5031-4.8459-.394-.2367-1.2726-.3273-2.3568-.3273-3.1316,0-8.0084.7451-8.0084.7451" fill="#b11116" stroke-width="0"/><path d="M274.704,104.1397c.4303-1.4478.63.0304,1.2667.4363.7688.4726,2.4592,1.1451,1.5866,1.2422-.1996.0178-.4059.0297-.6175.0297-1.3149,0-2.6172-.4601-2.2357-1.7082M274.7588,100.4871c-.9996,1.3262-1.4299,1.2112-1.6904,2.2108-.2604.9996.121,1.5271.121,1.5271l-.0542,1.0598-3.0291.2849,3.3743.8297s-.1997.9633.4971,2.054c.6968,1.0961.5084.0846,1.0664-1.3757.5506-1.4538,1.8715-.7265,1.8715-.7265,0,0,1.7268-.1759,2.0296.2115.3027.3881,2.2047,1.3394,3.3742,2.6233.7629.8422.3874.8303-.1699.8058-.2909-.0059-.6359-.0185-.8904.0972-.7146.3326-1.0479-.4184-2.811-1.6295-1.7684-1.2118-2.296-.5336-1.2898.4785,1.0115.993.1752,1.114-.9996.4905-1.1695-.624-1.1331,1.2356-1.1331,1.2356l-1.0056-.1633c-4.3798-.7027-13.1756-11.8672-13.9213-10.2562-.751,1.6111-.0298,3.677.8667,4.1318.8965.4661,11.4006,5.9241,12.0729,6.9845.679,1.0603-6.5541-1.9628-6.5541-1.9628,0,0,6.7055,4.695,7.6873,5.1492.9811.4541,2.0355-1.5814,1.7506-2.2537-.2783-.6842.0244-.9573.9936-.6842.9752.2724,4.2403.4178,5.7429.6538,1.502.2486,1.1087-.4601,1.7447-1.775.6419-1.3142-2.7866-3.053-3.8469-3.6526-1.0538-.5937-.2783-.6849.6121-1.2058.8905-.521,2.1624.2003,3.5494.4184,1.3936.2116,2.2114-1.3632,2.6477-2.5624.4297-1.1939-.7576-1.0544-2.4837-.2241-1.7268.8297-5.5611.357-5.5611.357,0,0-1.3811-1.3447-1.8841-2.0897-.5024-.7272.0608.9752-.2485,1.9079-.3028.9328-1.3262-.5996-1.9198-1.0055-.2367-.1574.8415-2.8956.4118-2.8956-.1335,0-.4118.2605-.9209.9513" fill="#b11116" stroke-width="0"/><path d="M262.8975,107.2653c-.6116.3762-.6056,2.1387.0244,2.926.7755.9394,2.4348,1.5813,2.4348,1.5813,0,0-5.0098,2.8348-5.4276,3.2044-.4178.3755-1.2963-2.7138-1.7869-2.8533-.4905-.1328-1.3751,3.9018-1.1999,4.9073.1884,1.0055,1.5331.866,2.5082.5387.9937-.3206,7.2026-4.9793,7.2026-4.9793l1.8418,1.2481s-2.4658-.1818-1.8841.4238c.5818.5996,6.1369,3.8469,7.1966,3.2228,1.0664-.63-.5024-2.3746-1.9264-3.3319-4.9674-3.3438-8.0686-6.9118-8.8805-6.9118-.0363,0-.0726.006-.1031.0238" fill="#b11116" stroke-width="0"/><path d="M253.7559,58.0212c-.7933.1031-1.4901.5275-2.2107.9698-.3815.2241-.7696.4786-1.1933.6657-1.2601.5943-2.5141,1.3692-3.726,2.1208-1.9139,1.1814-3.7074,2.296-5.5003,2.7257-.679.1639-1.6719-.4423-2.6232-1.03-.8786-.5387-1.7142-1.0419-2.4956-1.1205l-.164-.0179-.4178.3087-.0423.164c-.1455.6902-.0483,1.3023.3087,1.8233.3821.5692.9936.9328,1.6117,1.266-.3755.1633-.751.2056-1.145.2545-.3087.0363-.6181.0786-.9514.1692l-.4422.1276c-2.1683.636-4.4161,1.2964-6.1726.2903l-.1091-.0662-.9387.0483.2056.5877c.0608.1514.1335.3028.23.4363.5818.8476,1.6904.9936,2.4964,1.0961.1996.0244.3933.049.5573.0853,2.7806.5996,5.2458.236,8.0084-.5514-.0363.1634-.0912.3332-.1454.5024-.0608.2063-.1276.4244-.164.6241-.0905.4482-.1573.9209-.2181,1.3751-.1514.9877-.2902,2.0111-.6419,2.8837-.121.3213-.285.6723-.4602,1.0537-.5275,1.1576-1.1331,2.4659-1.0968,3.5865.012.279.1336.5692.3696.915.7511,1.0961,3.0047,2.8955,3.7616,2.8473l.1276-.0066.9024-.6604-.0298-.2723c-.043-.3332-.2062-.5937-.4303-.8482-.0787-.0846-.1574-.1752-.2301-.3027-.4912-.8964-.7755-2.181-.8303-3.0107-.1091-1.4299.0185-2.8896.1217-4.307.0601-.7332.121-1.5027.1454-2.2477.006-.121,0-.3213-.0125-.5514-.0423-1.254.0125-1.9628.1514-2.1082.1514-.0846.4905.1454.7636.3272.2241.1515.4482.3087.6842.3881.1514.0482.3458.1151.5573.1877,2.4778.8601,5.2465,1.6957,6.6097.7146l.1269-.1573.0973-.3392c.2115-1.024,0-.7576.2241-1.3751l.1388-.1699-.7266-1.0544-.1514.1818c-.2849.2968-.1699.1824-.4548.4786-.0543.0608-.2057.1395-.5574.2003-.7933.1328-2.2894-.4423-3.1798-1.1451.5269-.3451,1.3261-.5936,1.9561-.7814.2545-.0786.4846-.1455.679-.2122l4.6343-2.3628c1.1451-.5936,2.4837-1.6653,2.7925-2.889.1336-.5639.0423-1.0968-.2664-1.5694l-.0667-.0972-.3332-.1693-.1336.0179Z" fill="#b11116" stroke-width="0"/><path d="M38.0304,98.1184s.1395.6723.0542,1.2904c-.0965.6175-.0602,1.4597-.0602,1.4597l-.4422,3.8952s-.2605,1.2481-.0364,1.3447c.2241.1032.4059-.242.4059-.242,0,0,.7392-3.1501.9996-3.8647.2605-.7154.757-2.575.521-3.7743,0,0,.006-.745-.4482-.8607-.043-.012-.0913-.0179-.1395-.0179-.4423,0-1.024.4786-.8541.7695" fill="#b11116" stroke-width="0"/><path d="M33.7234,100.0508c-.0304-.0119-.049-.0667-.0608-.1335.1269-.7874.3999-2.4956.4482-2.7316.0549-.3094.1032-.521.2122-.4.1091.1329-.121,3.053-.2062,3.2467-.0304.0853-.0906.1216-.1515.1216-.0786,0-.1693-.0489-.2419-.1032M29.0891,92.9448c-.2671.4244-.4304.7814-.4304.7814,0,0-.7331-.3569-1.0901-.2301-.3696.121-.5091.0668-.4549.679l.7392,2.3807s.9876,3.2591,1.1146,4.1067c.1151.7457.1032,1.9628.0972,2.2959-.1454-.121-.3874-.3146-.6055-.4905-.0245-.0786-.0549-.1514-.0913-.23-.4726-1.0663-1.9569-2.0111-1.9569-2.0111,0,0-1.1873-.1514-2.0474.3087-.8481.4422-.9995.6723-.3999,1.2415.6062.5639,1.8114,1.545,2.1994,1.8663.3875.3265.872.6538.9143,1.0174.0304.3636-.1091,1.5027-.1091,1.5027,0,0-.3511.8779-.1693,1.03.5024.4178,1.2964-.5454,1.7328-1.0121.5024-.5574.2968-2.138.2968-2.138,0,0-.0125-.1157-.043-.2909.1032-.006.2248.0059.3458.0661.0542.5579.1633,1.2422.3206,1.4663.3034.3999,2.6536,3.2472,2.6536,3.2472,0,0,.0119.0179.0363.0358-.0482.5275-.0905.9275-.0905.9275,0,0-.1944,1.6957-.2182,2.0289-.0304.3332-.1335,2.1023.0965,2.2656.2301.1639.8786.2122,1.2904-.1938.4119-.4059.8-.4845.9091-.6538.1151-.1699.2241-1.4418-.1217-2.0904-.357-.636-.3206-.9143-.3206-.9143l.0423-.0912c.0364.0184.0787.0244.1151.0244h.2968c.3636,0,.7993,0,1.0234-.1937.2122-.1759-.0906-.7636-.0906-.7636,0,0-1.6659-2.1446-2.2477-2.7687.0668-.1818.2241-.5996.3398-.86,1.0115.757,2.0415,1.5205,2.0415,1.5205,0,0,.751.5091,1.5992,1.1205.0542.3028-.0363.8542-.1395,1.7513-.0787.6723-.0906,1.5443-.1514,2.4289-.0727.9023-.1997,1.8114-.1818,1.9687.0244.3214-.0846,3.1316-.0846,3.1316l-.006,4.2713s.0298.7629-.1032,1.1814c-.121.4119,0,.7451.2182.8416.2181.1091.8601-.0423,1.3751-.3332.5328-.2784.8904-.3147,1.0782-.7392.1693-.4238.4363-1.1807.0786-2.1869-.3576-.9989-.5328-1.1629-.6968-1.5807-.1633-.4059-.872-2.7019-.9209-3.0774-.0423-.3755-.1269-1.4901-.1388-1.6963-.0126-.2122.1573-.5328-.0668-1.387-.1699-.7154.3206-2.8896.4-4.0347,1.496,1.0538,3.3193,2.3019,4.1556,2.647-.1336.7815-.3577,2.4599-.1759,3.5442.3087,1.8596-.1395,2.5498.1938,2.9684.3332.4178,1.4173.1692,2.2781-.6724.8601-.8541.5084-1.3453.5084-1.9813-.0179-.6419-.4423-1.1873-.5633-1.6534-.0846-.2968.0119-.7087.0913-.9632.9083.5573,1.6415,1.0538,1.6415,1.0538,0,0,2.4837,1.6296,2.5988,1.7995.115.1752-.3756.9269-.521,1.781-.1395.8541-.0846.757.1328.5752.2122-.1818,1.4782-1.266,2.1631-1.1747.6783.0905,1.8233.8356,2.6167-.4549.7516-1.2237-.1634-1.781-.6902-2.1016-.5395-.3213-2.181-1.3573-3.6228-1.8418,0,0-1.8781-.9328-2.417-1.3083-.5394-.3821-1.6296-1.0485-1.7995-1.3572,0,0-.0059-.0119-.0119-.0119.0245-.2182.0667-.5455.1633-.794.1336-.4059.2426-.6479.3577-1.1992.1151-.5514-.0304-.7087-.0667-.9328-.0423-.2122-1.0359-.279-1.5992.0238-.4727.2486-.8238,1.4359-.9269,1.8055-.0906-.0423-.1455-.0727-.1455-.0727,0,0-4.7857-3.0107-5.2034-3.4952-.4304-.4846.285-.3636-.7636-1.7268-.5936-.7511-.8845-1.157-1.0359-1.3625.0363-.7576.388-2.29.4549-2.7018.0846-.4972.0363-2.0296.0363-2.3205,0-.3028-.0667-.7934-.0793-.9996-.006-.2056-.248-.2724-.248-.2724,0,0-.7576-.0303-.903.1151-.1388.1455-.2783.6485-.2968,1.1814-.006.4-.2664,1.6659-.4059,2.2894-.2116-.2539-.4357-.6479-.5447-.9143-.1092-.2723-.5937-.5573-.8363-.63-.242-.0727-1.1814.1759-1.1569.4423.0184.2604,1.89,3.2103,2.1505,3.6347.2486.4237.1818.472.1818.472,0,0-.9691.9031-1.7446,1.0299-.7755.1276-.4905.7577-.2122.9573.1032.0668.6121.4482,1.2356.9091.0125.3087.0244.7933-.0119,1.1264-.6479-.2908-2.3807-.9446-2.653-1.7565-.3094-.9269.1151-1.5754-.0245-3.1991-.1395-1.623-.5394-4.9066-.1699-5.8937.2486-.7093,1.0664-1.0485.6731-2.0659-.1336-.3576-.3213-.4785-.5032-.4785-.2909,0-.5758.2842-.6782.4601" fill="#b11116" stroke-width="0"/><path d="M37.9272,98.0821c-.0363.0846-.3392.8118-.3392.8118,0,0-.0727.3755.285.2056,0,0,.478-.5877.4601-1.151,0,0,.0119-.1633-.121-.2122-.0066-.0059-.0185-.0059-.0244-.0059-.121,0-.2241.273-.2605.3517" fill="#b11116" stroke-width="0"/><path d="M154.7497,258.7928c-53.9143,0-97.777-45.2392-97.777-100.8448s43.8627-100.8439,97.777-100.8439,97.7765,45.2383,97.7765,100.8439-43.8627,100.8448-97.7765,100.8448ZM154.7497,59.1596c-52.7809,0-95.7213,44.316-95.7213,98.7883s42.9404,98.7892,95.7213,98.7892,95.7208-44.3169,95.7208-98.7892-42.9404-98.7883-95.7208-98.7883Z" fill="#b11116" stroke-width="0"/><path d="M154.7168,309.305C69.4057,309.305,0,239.928,0,154.6525S69.4057,0,154.7168,0s154.7161,69.3769,154.7161,154.6525-69.4051,154.6525-154.7161,154.6525ZM154.7168,8.8385C74.2792,8.8385,8.8385,74.2504,8.8385,154.6525s65.4407,145.8128,145.8783,145.8128,145.8764-65.4113,145.8764-145.8128S235.1537,8.8385,154.7168,8.8385Z" fill="#b11116" stroke-width="0"/><path d="M221.548,147.3999c-5.7151-1.2472-9.7083-4.9891-9.7083-9.0846,0-3.7139,3.3602-7.223,8.3679-8.7308l5.4405-1.6438c.634-.1915,1.0151-.8372.8766-1.4848l-1.1884-5.5558c-2.2246-10.4342-5.9385-20.5056-11.0486-29.9438l-2.3988-4.4506c-.2883-.5348-.9143-.7914-1.495-.6127l-4.8371,1.4889c-4.8953,1.5094-10.0478,2.2031-15.2614,2.0565-11.5705-.3253-22.5796-5.0741-31.1287-12.8777l-3.5929-3.2797c-.4858-.4434-1.2293-.4438-1.7155-.0008l-4.1682,3.7977c-8.7402,7.9862-20.0774,12.3796-31.9172,12.3796-4.7564,0-9.429-.6981-13.8969-2.0757l-4.8384-1.4893c-.5801-.1786-1.2055.0773-1.4942.6112l-2.4076,4.4525c-5.1008,9.4382-8.824,19.5189-11.0486,29.9438l-1.1809,5.5571c-.1375.6472.2436,1.2918.877,1.4831l5.4419,1.6443c5.0077,1.5078,8.3679,5.0169,8.3679,8.7308,0,4.0955-3.9931,7.8374-9.7082,9.0846l-5.3344,1.1734c-.6269.1379-1.0531.721-.9941,1.3603l.5017,5.434c1.9268,20.7662,9.5687,40.5829,22.1065,57.2909,12.3052,16.4192,28.8176,29.1991,47.7222,36.9434l1.7236.703c.7089.2892,1.503.2887,2.2116-.0013l1.7148-.7018c18.9139-7.7443,35.417-20.5242,47.7315-36.9434,12.5285-16.7079,20.1704-36.5246,22.0972-57.2909l.5092-5.4326c.06-.6398-.3663-1.224-.9939-1.362l-5.3328-1.1731ZM223.661,155.0232c-1.8616,20.0866-9.2522,39.2426-21.3713,55.4012-11.9049,15.8795-27.8682,28.2406-46.1677,35.7336l-.9237.3792c-.3088.1268-.655.1272-.9641.0011l-.9326-.3803c-18.2902-7.493-34.2535-19.8541-46.1584-35.7336-12.119-16.1586-19.5096-35.3145-21.3712-55.4012l-.3071-3.2764,3.2112-.7074c7.4464-1.6289,12.6403-6.86,12.6403-12.7241,0-5.3707-4.4306-10.3132-11.0207-12.2958l-3.2764-.996.7167-3.3507c2.1501-10.0806,5.743-19.8168,10.6763-28.9387l1.452-2.6899,2.9134.9028c4.8309,1.4799,9.8665,2.2338,14.9952,2.2338,12.7706,0,25.0013-4.7471,34.4303-13.357l2.5132-2.2897,2.5132,2.2897c9.429,8.6099,21.6504,13.357,34.4303,13.357,5.1194,0,10.1643-.7539,14.9859-2.2338l2.9226-.9028,1.4521,2.6899c4.9333,9.1219,8.5262,18.858,10.6763,28.9387l.7167,3.3507-3.2858.996c-6.5807,1.9826-11.0113,6.9251-11.0113,12.2958,0,5.8641,5.1938,11.0952,12.6402,12.7241l3.2113.7074-.3071,3.2764Z" fill="#b11116" stroke-width="0"/><path d="M220.7568,151.0393c-7.4464-1.6289-12.6402-6.86-12.6402-12.7241,0-5.3707,4.4306-10.3132,11.0113-12.2958l3.2858-.996-.7167-3.3507c-2.1501-10.0806-5.743-19.8168-10.6763-28.9387l-1.4521-2.6899-2.9226.9028c-4.8216,1.4799-9.8665,2.2338-14.9859,2.2338-12.7799,0-25.0013-4.7471-34.4303-13.357l-2.5132-2.2897-2.5132,2.2897c-9.429,8.6099-21.6597,13.357-34.4303,13.357-5.1287,0-10.1643-.7539-14.9952-2.2338l-2.9134-.9028-1.452,2.6899c-4.9332,9.1219-8.5261,18.858-10.6763,28.9387l-.7167,3.3507,3.2764.996c6.59,1.9826,11.0207,6.9251,11.0207,12.2958,0,5.8641-5.1939,11.0952-12.6403,12.7241l-3.2112.7074.3071,3.2764c1.8616,20.0866,9.2522,39.2426,21.3712,55.4012,11.9049,15.8795,27.8682,28.2406,46.1584,35.7336l1.4148.577,1.4055-.577c18.2995-7.493,34.2628-19.8541,46.1677-35.7336,12.119-16.1586,19.5097-35.3145,21.3713-55.4012l.3071-3.2764-3.2113-.7074ZM197.4496,206.031c-11.0579,14.7533-25.8205,26.2858-42.7331,33.3973-16.9126-7.1114-31.6751-18.644-42.7331-33.3973-11.0579-14.7345-17.9459-32.1126-19.9936-50.3655,9.1498-2.7552,15.3769-9.969,15.3769-18.1135,0-7.4371-5.2497-14.204-13.2732-17.3781,1.9268-8.2003,4.8681-16.1494,8.7682-23.6795,4.8308,1.3123,9.8385,1.9733,14.9114,1.9733,13.5897,0,26.6302-4.803,36.9435-13.5524,10.3133,8.7494,23.3538,13.5524,36.9435,13.5524,5.0729,0,10.0806-.6609,14.9114-1.9733,3.9001,7.5301,6.8415,15.4792,8.7589,23.6795-8.0142,3.1741-13.2639,9.941-13.2639,17.3781,0,8.1445,6.2178,15.3582,15.3675,18.1135-2.0478,18.2529-8.9357,35.631-19.9843,50.3655Z" fill="#fff" stroke-width="0"/><path d="M217.4338,155.6655c-2.0478,18.2529-8.9357,35.631-19.9843,50.3655-11.0579,14.7533-25.8205,26.2858-42.7331,33.3973-16.9126-7.1114-31.6751-18.644-42.7331-33.3973-11.0579-14.7345-17.9459-32.1126-19.9936-50.3655,9.1498-2.7552,15.3769-9.969,15.3769-18.1135,0-7.4371-5.2497-14.204-13.2732-17.3781,1.9268-8.2003,4.8681-16.1494,8.7682-23.6795,4.8308,1.3123,9.8385,1.9733,14.9114,1.9733,13.5897,0,26.6302-4.803,36.9435-13.5524,10.3133,8.7494,23.3538,13.5524,36.9435,13.5524,5.0729,0,10.0806-.6609,14.9114-1.9733,3.9001,7.5301,6.8415,15.4792,8.7589,23.6795-8.0142,3.1741-13.2639,9.941-13.2639,17.3781,0,8.1445,6.2178,15.3582,15.3675,18.1135Z" fill="#b11116" stroke-width="0"/><path d="M141.2809,211.2527l-.0776-.0287h-.2954c-.3849,0-.638-.0371-.7604-.1122-.3005-.1739-.4507-.4574-.4507-.8516,0-.3806.0633-.6389.1899-.7748.0802-.0886.2583-.1544.5351-.1966.2583-.0473.4929-.1646.7039-.3519.1409-.1274.2659-.3849.3739-.7748.07-.2675.1705-.4245.3021-.4718.2017-.0751.5309-.1122.9858-.1122.3376,0,.5562.0886.6549.2675.07.1266.1055.368.1055.725v8.476c0,.4363-.0422.7317-.1266.887-.1131.211-.3638.319-.7537.3232-.0937,0-.1924.0025-.2954.0076-.1173.0042-.195.0068-.2321.0068-.3663,0-.6102-.1106-.7326-.3308-.0844-.1553-.1266-.4532-.1266-.8938v-5.7939Z" fill="#fff" stroke-width="0"/><path d="M150.0203,207.5426c.9807,0,1.7858.2836,2.4146.8516.8263.7419,1.239,2.0627,1.239,3.9633,0,2.023-.2768,3.527-.8305,4.5127-.2346.422-.5866.7672-1.0558,1.0347-.5823.3334-1.228.4996-1.9361.4996-.995,0-1.7673-.2903-2.3159-.8727-.4929-.5207-.7393-1.0938-.7393-1.7175,0-.2768.1173-.5114.3519-.7039.2532-.2118.5258-.3173.8161-.3173.2161,0,.4482.0751.6971.2253.0895.0565.2321.2515.4296.5849.1874.3283.4642.492.8305.492.2633,0,.514-.1122.7537-.3376.1924-.1739.3325-.6524.422-1.4356l.0211-.1831c-.0236.0042-.0608.0346-.1122.0911-.0658.0751-.2583.1595-.5773.2532-.1975.0565-.373.0844-.5283.0844-.2768,0-.6735-.065-1.1892-.1966-.4979-.1317-.9199-.3967-1.2676-.7959-.1874-.2152-.3452-.476-.4718-.7815-.2161-.5114-.3232-1.0322-.3232-1.5622,0-1.2153.3705-2.1775,1.1115-2.8864.568-.5351,1.3217-.8026,2.2602-.8026ZM150.0768,209.8517c-.3384,0-.6178.1198-.8381.3587-.2017.2253-.303.514-.303.8659,0,.4085.1317.7351.395.979.2017.1874.4482.281.7385.281.3427,0,.6288-.1215.8592-.3654.2017-.2211.303-.5005.303-.8381,0-.4228-.1342-.7537-.4017-.9925-.2161-.1924-.4667-.2886-.7528-.2886Z" fill="#fff" stroke-width="0"/><path d="M158.2385,211.1328c.2726-.1224.5351-.1831.7891-.1831,1.0271,0,1.8323.2794,2.4146.8381.6895.6566,1.0347,1.5411,1.0347,2.6535,0,.9765-.1975,1.812-.5916,2.5066-.53.9334-1.5554,1.401-3.0763,1.401-1.1782,0-2.0627-.3241-2.6543-.9714-.46-.5022-.6899-1.0752-.6899-1.7183,0-.6237.4089-.936,1.225-.936.319,0,.5536.0751.7039.2253.0751.0751.1789.2625.3097.5629.1696.3899.5216.584,1.0567.584.4127,0,.741-.1333.9849-.4009.2346-.2583.3519-.5933.3519-1.0069,0-.4507-.1452-.8043-.4363-1.0626-.2912-.254-.6406-.3806-1.0491-.3806-.3097,0-.638.1173-.9849.3519-.3621.2448-.6364.3663-.8237.3663-.249,0-.5022-.1384-.7604-.4152-.2161-.2296-.3241-.5089-.3241-.8381,0-.0608.0076-.1426.0211-.2464l.4718-3.646c.0515-.4085.1595-.6735.3241-.7959.1831-.1359.4152-.2042.6971-.2042h3.8857c.3798,0,.6524.0869.8161.2608.1367.1502.2042.4363.2042.8592,0,.4076-.0793.6921-.2388.8516s-.4929.2388-1.0001.2388h-2.4214c-.038,0-.0684.0211-.0911.0633-.0329.0616-.0827.4085-.1485,1.0423Z" fill="#fff" stroke-width="0"/><path d="M170.0119,212.5338c.9157.6195,1.3731,1.4432,1.3731,2.4712,0,.9056-.2794,1.6753-.8381,2.3083-.5916.6667-1.4407,1.0001-2.548,1.0001-1.244,0-2.185-.3612-2.8231-1.0845-.5629-.6423-.8448-1.3892-.8448-2.2382,0-.995.46-1.8162,1.3799-2.4636-.714-.5351-1.0702-1.2044-1.0702-2.007,0-.8676.319-1.5951.9571-2.1817.568-.5216,1.3141-.7815,2.2391-.7815,1.0415,0,1.8584.3308,2.4492.9925.4979.5629.7469,1.2204.7469,1.9707,0,.7233-.2726,1.3402-.817,1.8517-.0751.07-.1435.1241-.2042.162ZM167.9146,213.6597c-.4608,0-.8195.1409-1.0778.4228-.2059.2253-.3097.5182-.3097.8803,0,.422.1342.7503.4017.9849.2532.2211.5722.3308.9571.3308.4836,0,.8516-.1384,1.1056-.4152.2059-.2296.3097-.5233.3097-.8794,0-.4271-.1342-.7579-.4017-.9934-.249-.2203-.5773-.3308-.9849-.3308ZM167.8294,209.4854c-.3891,0-.6777.108-.8659.3241-.1637.1831-.2456.4178-.2456.7039,0,.3334.1004.5916.3021.7739.1924.1696.46.254.8026.254.3798,0,.6642-.1055.8516-.3173.1595-.1823.2397-.4127.2397-.6895,0-.3427-.103-.6077-.3097-.7959-.1882-.1688-.4456-.2532-.7748-.2532Z" fill="#fff" stroke-width="0"/><path d="M160.4654,129.5213c.129.0257.2618.0385.3946.0385.3588,0,.7043-.0923.9994-.2665.3976-.2349.665-.5919.7535-1.0047,1.0938-5.102.829-12.9683.765-14.4931-.0171-.4187-.2174-.8063-.5638-1.0917-.3562-.2938-.8282-.4331-1.3176-.4221-.9713.0428-1.7315.7722-1.6943,1.6265.0594,1.4743.304,9.0709-.7004,13.7774-.0803.3768-.0056.7654.2109,1.0941.2461.3743.6595.6433,1.1528.7416Z" fill="#fff" stroke-width="0"/><path d="M167.7691,128.5418c.0069-.3821-.0008-.6115-.0016-.6229v-17.4888c0-1.0372-.753-1.7904-1.7909-1.7904-1.0357,0-1.787.7532-1.787,1.7904v17.5084l.0051.1213c-.0082,1.6819-.3742,9.0614-5.7471,17.9861-.2208.3648-.2674.785-.1307,1.1838.1379.4059.4514.7398.8837.9424.2601.1196.5394.1809.8303.1809.6654,0,1.2719-.3229,1.5832-.8423,2.1132-3.5077,3.4969-6.7758,4.4112-9.6059.9355,3.4511,2.3085,7.034,4.3144,9.647l.0129.0171c.2707.3494.6957.5894,1.1664.6568.0957.0137.1913.0206.2836.0206.3792,0,.7415-.1093,1.0472-.316.3545-.2401.5852-.5887.6492-.9824.0606-.3785-.0393-.7612-.2836-1.078-3.614-4.6835-4.9979-13.4843-5.4465-17.3281Z" fill="#fff" stroke-width="0"/><path d="M169.9658,128.9157c.2977.1759.6462.27,1.0075.27.1316,0,.2623-.0129.3904-.0369.4835-.0948.9038-.3636,1.1532-.7387.2161-.3246.2921-.7098.2152-1.0833-.9533-4.6014-.5475-10.9003-.3289-13.3955.0325-.3751-.0905-.7499-.3476-1.0547-.3032-.3606-.7662-.5921-1.271-.634-.4703-.0444-.9713.1-1.3309.3716-.3609.2707-.58.65-.6171,1.0684-.1828,2.0307-.6961,9.0572.3789,14.2199.0862.4152.3528.7749.7504,1.0132Z" fill="#fff" stroke-width="0"/><path d="M194.0812,127.5276c.369-.2888.5876-.7031.5988-1.137.012-.4381-.1879-.8661-.5475-1.1737-.6628-.5679-1.7289-.5875-2.4276-.0461-1.9928,1.545-4.0922,2.4663-6.2579,2.7724v-.7555c0-.2376-.0696-.4573-.1772-.6595,1.0908-.1329,2.4596-.4885,3.6111-1.395,1.3778-1.0858,2.0671-2.6285,2.0484-4.5837v-5.2491h1.6999c.9849,0,1.7861-.708,1.7861-1.5785,0-.868-.8012-1.5743-1.7861-1.5743h-1.6999v-2.1285c0-.867-.8038-1.5735-1.7912-1.5735-.9857,0-1.7878.7065-1.7878,1.5735v2.1285h-7.1075l.0116-2.0868c0-.868-.8047-1.5743-1.793-1.5743-.985,0-1.7862.7063-1.7862,1.5743l-.001,2.0868h-1.6988c-.9857,0-1.7878.7082-1.7878,1.5787,0,.8678.8021,1.5741,1.7878,1.5741h1.6973l-.0026,5.1714c-.1273.674-.2793,2.4046,1.049,3.9183.962,1.0951,2.4518,1.7687,4.3943,2.0485-.1425.226-.2455.4725-.2455.749v.6972c-2.7497-.4554-4.971-1.7272-6.1648-2.5569-.6953-.4861-1.7049-.439-2.3473.1127l-.1538.134.0069.0078c-.2742.2989-.4177.6806-.3963,1.066.0248.4545.2707.8773.6756,1.161,1.5582,1.0886,4.5517,2.8002,8.3797,3.2754v.3981c-6.822,2.0305-7.8887,12.405-8.0491,15.7519-.0188.4253.1512.8301.4809,1.1402.3357.3153.8115.4963,1.3044.4963.9652,0,1.7485-.6663,1.7844-1.517.1699-3.9099,1.3316-10.1213,4.4794-12.2943v12.5266c0,.8678.8021,1.5743,1.7879,1.5743h.005c.985,0,1.7862-.7065,1.7862-1.5743v-12.8746c.1678.0937.3358.1851.5185.3256,1.6375,1.2607,3.6312,4.4316,3.825,12.3739.0197.8202.7637,1.4915,1.6794,1.5393v.0034h.2349v-.0044c.4442-.0263.8542-.1953,1.1652-.4824.3314-.3058.5074-.7065.4954-1.1267-.1811-7.406-1.9237-12.3783-5.1807-14.7777-.9952-.7341-1.9488-1.0974-2.7377-1.2771v-.1559c3.048-.3115,5.9468-1.5138,8.6343-3.6025ZM180.1902,121.0082l.0102-.0691-.0068-.0086.003-.5277h7.1535v.1605c.011,1.0148-.2734,1.7588-.844,2.2132-.99.7874-2.6608.6698-2.6873.6654-1.6333-.0512-2.7309-.3783-3.2614-.9719-.4732-.5306-.4014-1.2531-.3673-1.4618ZM180.2142,117.2508l.0109-1.9503h7.1251v1.9503h-7.1359Z" fill="#fff" stroke-width="0"/><path d="M121.5851,112.6644h11.8473c1.1126,0,2.0181-.8183,2.0181-1.8245,0-1.002-.9055-1.8176-2.0181-1.8176h-11.8473c-1.5119,0-2.9449.603-3.9311,1.6545-1.0237,1.0917-1.4546,2.5337-1.1817,3.9558.1089.562.2216,1.0738.3374,1.5922.9067,4.0676,1.6896,7.581-2.0355,30.1525-.0726.4425.0384.8918.3121,1.2651.3037.415.7876.7021,1.3335.7943l.0525.0086c.102.0147.2054.0213.3075.0213.428,0,.8397-.123,1.1903-.3543.4352-.2888.7189-.7134.7991-1.196,3.8196-23.148,2.9436-27.1193,2.0155-31.3236l-.0269-.1239c-.1017-.4655-.2067-.9474-.3045-1.458-.0696-.3572.0342-.7158.2853-.9832.2234-.2376.5159-.3633.8465-.3633Z" fill="#fff" stroke-width="0"/><path d="M132.6269,137.3083c1.3505-1.0483,1.9937-2.6753,1.9118-4.8339l-.0424-15.5046c-.0012-.4878-.2135-.9449-.5974-1.2874-.3797-.34-.8862-.527-1.4308-.527-1.1113.0025-2.0142.82-2.0129,1.822l.016,5.7649h-3.1762l.0044-5.7264c0-1.003-.9079-1.8195-2.0236-1.8195-1.1126,0-2.018.8158-2.018,1.8188l-.0022,15.2328c-.0636.645-.1482,2.8737,1.4312,4.4958.6881.7073,1.951,1.5562,4.051,1.5912.1324.0147.3455.0326.6116.0326.873,0,2.15-.1837,3.2776-1.0591ZM127.2873,132.4778l.0047-6.0939h3.1891l.0171,6.1578c.0375.9866-.1439,1.7152-.498,1.9987-.2029.1649-.5189.1847-.7351.1847h-.0068l-.2469-.0299-.0363.0051-.0009.0008-.0431-.0034c-.58-.0025-.9742-.1178-1.2049-.3526-.4335-.4392-.4998-1.3738-.439-1.8673Z" fill="#fff" stroke-width="0"/><path d="M153.3293,110.5442h-4.8579v-2.0116c0-1.0037-.9067-1.821-2.0206-1.821s-2.0207.8173-2.0207,1.821v2.0116h-5.5535c-1.1139,0-2.0207.8175-2.0207,1.8212l.0017,21.3449.012.1656c.0316.2673.6817,6.5971-7.0493,11.6059-.4249.2753-.7081.6852-.7973,1.1534-.0846.4451.0158.9003.2827,1.283l.0115.0169c.302.423.7858.7185,1.3274.8116.1226.0213.2495.0326.3763.0326.4156,0,.8158-.1173,1.1571-.3393,3.8264-2.4771,6.4505-5.5275,7.7989-9.0665,1.0485-2.7522.993-4.9833.9208-5.8102v-18.6422c0-.4048.3694-.7345.8234-.7345h11.6082c1.1139,0,2.0207-.8175,2.0207-1.8212s-.9068-1.8212-2.0207-1.8212Z" fill="#fff" stroke-width="0"/><path d="M122.0284,157.2847c-.5548-.2368-1.1894-.2597-1.7857-.0642-.5556.1828-.993.5475-1.2313,1.026-.2037.4089-.2362.867-.0919,1.2906,1.1583,3.3809.9965,6.5415-.495,9.6634-.2032.4255-.2281.8979-.0704,1.331.1772.4878.5646.8874,1.0903,1.1267.3101.1409.6612.2153,1.0149.2153.2571,0,.5099-.0385.7513-.1154.577-.182,1.0443-.5689,1.2813-1.0627,1.8942-3.9387,2.1193-8.0594.6693-12.2458-.1747-.5047-.5873-.9293-1.1327-1.165Z" fill="#fff" stroke-width="0"/><path d="M122.2518,175.3903c.1217-.4417.0598-.9089-.1743-1.3163-.2717-.4733-.7594-.8329-1.3373-.9858-.5749-.1531-1.2066-.0914-1.7327.1698-.5317.2641-.9046.6962-1.0499,1.2173-1.7344,6.2117-1.4572,13.078.8021,19.8559.1674.5066.5544.9226,1.0896,1.172.3195.1468.6757.2247,1.0302.2247.2281,0,.4553-.0316.6761-.0931.5903-.1666,1.0759-.5407,1.333-1.0267.2221-.4202.2619-.8986.1119-1.347-2.0198-6.0666-2.279-12.246-.7487-17.8707Z" fill="#fff" stroke-width="0"/><path d="M149.2441,177.2498c-1.1733,0-2.1282.8729-2.1282,1.9459l-.0002,1.6503h-17.1216l.001-1.699c0-1.073-.9541-1.9459-2.1269-1.9459-1.1737,0-2.1287.8722-2.1287,1.9442l.0034,9.4022c-.0389.5535-.0457,2.4822,1.4824,4.0396,1.2177,1.2402,3.0191,1.8688,5.3555,1.8688.0397,0,.0799,0,.1199-.0008h11.6937l.0328.0015c.067.0027.1585.0061.2703.0061.8201,0,2.906-.1416,4.5594-1.4565,1.2364-.9832,1.9433-2.3463,2.1021-4.06l.012-9.7506c0-.511-.2153-.9934-.6061-1.3601-.4031-.3783-.9435-.5858-1.5209-.5858ZM147.1151,188.6697c-.1436,1.3529-1.0089,1.9903-2.5904,1.8955l-11.8653.0015c-1.1634-.011-1.8814-.1911-2.2598-.5689-.4382-.439-.4186-1.113-.41-1.248l.0023-4.0131h17.1236l-.0004,3.933Z" fill="#fff" stroke-width="0"/><path d="M130.8669,176.6263h15.4854c1.8971,0,3.8084-.8023,4.9876-2.0946,1.3915-1.5265,1.7515-3.3946,1.0135-5.2592-.6983-1.7656-2.3435-3.3691-4.4004-4.2898-.5954-.2641-1.2788-.2719-1.8737-.0206-.5941.2486-1.0166.7218-1.1592,1.2984-.2071.843.2405,1.6946,1.0895,2.0706,1.0772.4741,2.0232,1.3546,2.3537,2.191.2447.6184.1465,1.1395-.3083,1.6383-.3818.4202-1.0661.7021-1.7028.7021h-15.4854c-.6958,0-1.3057-.3305-1.6325-.8832-.1806-.3033-.4066-.9116.1145-1.5787.844-1.0532,2.5297-1.5231,4.3171-2.0209,2.7249-.7585,6.1165-1.7015,7.286-5.1859.7726-2.3021.2443-4.6058-1.4496-6.32-1.4-1.4172-3.492-2.3006-5.7385-2.4244-.6188-.0392-1.2497.1923-1.6777.6056-.4395.4289-.6326,1.0028-.5287,1.5743.1567.8678.9742,1.5162,1.9881,1.576,1.1097.0674,2.1231.4885,2.7804,1.1541.7432.7509.9358,1.6784.5719,2.7581-.4745,1.417-1.7349,1.9023-4.502,2.6728-2.2606.6294-4.8232,1.3437-6.5509,3.5004-1.2702,1.6324-1.4022,3.6672-.3536,5.4422,1.0563,1.7845,3.1161,2.8933,5.3755,2.8933Z" fill="#fff" stroke-width="0"/><path d="M191.3298,191.8062h-22.035c-1.9082-.0152-3.2968-.4295-4.1275-1.2318-1.2352-1.1899-1.0383-2.9879-1.0293-3.0614l.0179-.122-.0012-24.2706c-.0218-.76.167-1.3026.5783-1.6571.58-.4996,1.5927-.6397,2.0992-.6439h12.2958c-.8026.1436-1.4554.6584-1.6268,1.3632-.387,1.5787-2.1159,4.3547-9.3381,5.209-1.1015.1298-1.8878.9839-1.7895,1.9416l.003.0411c.05.4859.316.9241.7495,1.2333.3779.2707.8567.4196,1.3483.4196.094,0,.1918-.0061.2904-.0181,3.3652-.4015,5.8492-1.2019,7.7045-2.1752v2.6926c-5.8379,1.0365-10.03,5.7445-11.659,7.8818-.325.4255-.4306.9542-.2896,1.4515.1456.5099.5381.9439,1.0771,1.1899.9692.4415,2.1535.1793,2.754-.6039,1.2145-1.5825,4.1434-4.9218,7.8859-6.0596-.7355,2.7054-2.6234,8.0746-6.7895,12.1405-.3652.3553-.557.8114-.5398,1.2855.017.4775.2439.9236.6402,1.2575l.0683.0546c.4109.3179.958.4912,1.5008.4682.5783-.0188,1.1079-.234,1.4906-.6083,2.3798-2.3139,4.3744-5.196,5.9298-8.5675,1.7101,4.242,4.1831,7.4325,7.353,9.4833.3665.2376.8208.369,1.2804.369.1418,0,.2853-.0128.4263-.0366.5809-.1036,1.0882-.4135,1.3914-.8518.2648-.3792.3639-.8268.2785-1.26-.0914-.4655-.3835-.8781-.8227-1.1617-4.9209-3.1745-6.733-9.6288-7.3275-12.6127,2.6789.7707,5.3852,2.8326,8.0749,6.1883.399.498,1.0524.7952,1.7486.7952.3937,0,.779-.0958,1.1147-.2759.498-.2692.849-.7082.9627-1.2044.1144-.4963-.006-.9986-.3392-1.4146-3.7729-4.6999-7.7877-7.3748-11.9639-7.9874v-1.7675c1.7555.8337,4.1148,1.4572,7.3239,1.4572.246,0,.4656-.0034.6697-.0103.5937-.0145,1.1557-.2494,1.5427-.6465.375-.3836.5493-.8746.4903-1.383-.1102-.9302-1.0157-1.6512-2.0441-1.6512-.0367,0-.0743.001-.1119.0025-.1836.0053-.3631.0078-.539.0078-4.3163,0-6.3417-1.4292-7.1762-2.3046-.0463-.0482-.1079-.0775-.1584-.1207.4482-.7509.7188-1.4656.876-2.0703.1393-.5382-.0103-1.0936-.4083-1.5231-.296-.3191-.6881-.5247-1.1138-.6184h10.3622c1.1711,0,2.1235-.8253,2.1235-1.8401s-.9524-1.8401-2.1235-1.8401h-23.5405c-.3093-.0118-3.0807-.0426-5.1184,1.6889-1.2877,1.0941-1.9134,2.5548-1.8591,4.3393l-.0026,24.0425c-.079.8088-.1636,3.6175,2.0752,5.7999,1.6564,1.6145,4.1092,2.4482,7.2911,2.4773h22.0555c1.1702,0,2.1218-.8261,2.1218-1.8408s-.9515-1.8401-2.1218-1.8401Z" fill="#fff" stroke-width="0"/></g></svg>