<svg width="84" height="88" viewBox="0 0 84 88" fill="none" xmlns="http://www.w3.org/2000/svg">
<path fill-rule="evenodd" clip-rule="evenodd" d="M57.4039 0H26.6175C12.0223 0 0.191406 11.8206 0.191406 26.4096V61.5945C0.191406 76.1783 12.0223 88 26.6175 88H57.4039C71.9939 88 83.8084 76.1783 83.8084 61.5945V26.4096C83.8084 11.8206 71.9939 0 57.4039 0ZM71.0198 54.4719C71.0198 66.1488 61.558 75.6045 49.9016 75.6045H34.1198C22.4532 75.6045 12.9862 66.1488 12.9862 54.4719V33.6431C12.9862 21.962 22.4532 12.5012 34.1198 12.5012H49.9016C61.558 12.5012 71.0198 21.962 71.0198 33.6431V54.4719Z" fill="#006A44"/>
<path fill-rule="evenodd" clip-rule="evenodd" d="M8.85584 18.6239L9.95004 17.0134L10.7055 18.0316L10.0979 18.9205L8.85584 18.6239ZM5.88939 19.5826C5.83909 19.6606 5.82267 19.7396 5.82678 19.8238C5.82678 19.9018 5.86373 19.9665 5.91916 20.0086C5.99409 20.0866 6.07518 20.1102 6.16448 20.0958C6.27328 20.0866 6.35643 20.026 6.39954 19.9388L8.13219 17.3932L8.72754 17.7914L7.49887 19.6144C7.26484 19.9531 7.21352 20.2077 7.3449 20.3925C7.47937 20.568 7.62512 20.7076 7.79038 20.8277L11.3399 23.2152C11.4189 23.2665 11.4959 23.2902 11.6006 23.2799C11.6776 23.2665 11.7422 23.2204 11.7812 23.1598C11.8192 23.0818 11.8254 23.0079 11.8059 22.9288C11.7812 22.8457 11.7299 22.7851 11.6652 22.7297L8.2061 20.4017C8.10756 20.3278 8.03365 20.2621 7.97925 20.1749C7.92382 20.0958 7.94846 19.9798 8.05931 19.8187L8.49453 19.1648L9.75399 19.4255L9.35367 20.0363C9.31775 20.0958 9.28695 20.1749 9.29619 20.2447C9.31775 20.3186 9.33622 20.3832 9.40397 20.4335C9.46864 20.4982 9.54254 20.5085 9.63082 20.4982C9.71704 20.4715 9.7817 20.4335 9.84432 20.3555L10.7189 19.0406L11.305 19.4255L10.2241 21.0638C10.1728 21.1469 10.1471 21.226 10.1605 21.304C10.183 21.383 10.2159 21.4569 10.2826 21.4939C10.3627 21.5637 10.4356 21.5729 10.531 21.5637C10.6193 21.5442 10.6952 21.4898 10.7435 21.3963L11.8274 19.7951L12.9863 20.568C13.0592 20.6286 13.1341 20.647 13.2326 20.6286C13.3117 20.6142 13.3866 20.568 13.4379 20.4982C13.4852 20.4202 13.4913 20.3411 13.4698 20.2539C13.4605 20.1564 13.4112 20.0958 13.3343 20.0445L12.1816 19.2634L13.2881 17.6477C13.3343 17.5779 13.3497 17.4948 13.3302 17.4065C13.3086 17.3285 13.2542 17.2495 13.1711 17.2125C13.0982 17.1663 13.0232 17.1663 12.9432 17.1704C12.8703 17.1848 12.8108 17.2259 12.7718 17.2823L11.6724 18.9062L11.0812 18.5223L11.9075 17.2823C11.9609 17.2125 11.9752 17.1335 11.9506 17.0555C11.929 16.9538 11.8808 16.9118 11.8059 16.8656C11.7299 16.8286 11.6724 16.8235 11.6006 16.8286C11.5277 16.8656 11.463 16.9118 11.4312 16.958L11.0514 17.5133L10.3196 16.4673L10.7055 15.8843C10.7928 15.755 10.8728 15.6718 10.9211 15.6441C10.9837 15.6061 11.0442 15.5835 11.1243 15.5969C11.1941 15.6061 11.2783 15.6441 11.3799 15.7129L14.2047 17.5964C14.3402 17.7124 14.412 17.8007 14.4377 17.8879C14.448 17.9762 14.4182 18.0593 14.3679 18.161C14.2704 18.319 14.1657 18.4525 14.0374 18.55C13.9019 18.6567 13.8352 18.7214 13.8136 18.7399C13.7818 18.8087 13.7797 18.8784 13.7849 18.9441C13.8034 19.0222 13.8352 19.0776 13.8947 19.1197C14.0928 19.2582 14.3515 19.1381 14.6707 18.7491C15.0012 18.3704 15.1501 18.0737 15.1152 17.8879C15.0905 17.698 15.0269 17.5554 14.9407 17.4619C14.8544 17.3839 14.7446 17.2823 14.6245 17.1981L11.6006 15.1483C11.4497 15.0559 11.3152 14.9861 11.1828 14.9584C11.0637 14.9215 10.9211 14.9399 10.7804 14.9913C10.6193 15.0559 10.4551 15.2458 10.2518 15.5281L9.09603 17.2259L8.51301 16.8235L10.2641 14.2183C10.3257 14.1527 10.3319 14.0654 10.3196 13.9864C10.3196 13.9032 10.2518 13.8293 10.183 13.778C10.1102 13.7369 10.0373 13.7277 9.94491 13.741C9.87101 13.7544 9.79094 13.8016 9.75399 13.8755L7.99054 16.4673L7.7329 16.2959C7.659 16.2497 7.58817 16.2405 7.49887 16.263C7.3952 16.2774 7.32437 16.3236 7.27716 16.4026C7.21352 16.4909 7.20428 16.5741 7.22789 16.6664C7.24636 16.7496 7.2905 16.8194 7.35414 16.8604L7.60973 17.0236L5.88939 19.5826Z" fill="white"/>
<path fill-rule="evenodd" clip-rule="evenodd" d="M19.5451 10.0164C19.3922 10.0944 19.2937 10.1313 19.2382 10.1406C19.1654 10.1498 19.1099 10.1406 19.0545 10.0944C19.0104 10.0667 18.9508 9.99688 18.8995 9.88602L18.6234 9.31736C18.5834 9.24243 18.5587 9.15005 18.5587 9.07615C18.5618 8.96119 18.6367 8.88112 18.802 8.79798L22.2745 7.10022C22.4572 7.00271 22.5814 6.9791 22.6615 7.03966C22.7323 7.10433 22.7857 7.17823 22.839 7.25727L23.0659 7.73868C23.1562 7.90496 23.1962 8.00248 23.1891 8.05791C23.185 8.1041 23.1696 8.15952 23.1285 8.20161C23.0977 8.24267 23.03 8.28886 22.9191 8.34018L19.5451 10.0164ZM20.0512 11.0387C20.0276 11.089 19.9917 11.1732 19.9629 11.3118C19.9321 11.437 19.8654 11.6361 19.773 11.9092C19.6745 12.1914 19.5831 12.4173 19.5031 12.5938L19.1274 13.2877C19.0545 13.417 19.0247 13.5104 19.0247 13.5884C19.035 13.6449 19.0545 13.7188 19.0904 13.765C19.1346 13.8297 19.192 13.8758 19.2618 13.881C19.3481 13.881 19.4281 13.8758 19.5031 13.8297C19.5831 13.765 19.7186 13.5659 19.8952 13.2045C20.0902 12.8535 20.2493 12.4778 20.3755 12.135C20.4977 11.7932 20.5716 11.552 20.6147 11.3949C20.6435 11.2522 20.6435 11.1588 20.6209 11.0808C20.5901 10.9966 20.5223 10.932 20.4402 10.9186C20.356 10.8858 20.277 10.8909 20.1959 10.9186C20.1384 10.932 20.0922 10.9925 20.0512 11.0387ZM16.7306 7.85364C16.6505 7.90496 16.5807 7.96039 16.5561 8.04867C16.5181 8.14105 16.5099 8.21085 16.5438 8.28475C16.5653 8.36789 16.6454 8.41922 16.7306 8.45104C16.8168 8.47362 16.9092 8.46541 17.018 8.41922L23.1562 5.38707C23.2455 5.34088 23.3153 5.25774 23.3399 5.17459C23.3656 5.06784 23.3656 4.99394 23.3317 4.92414C23.2886 4.86358 23.2209 4.80918 23.1285 4.78146C23.0412 4.76709 22.9437 4.77633 22.8637 4.80918L20.2493 6.11893L20.0676 5.96086C20.0491 5.94238 19.9629 5.90543 19.8336 5.81818C19.7084 5.75352 19.6098 5.70219 19.5523 5.66935C19.4476 5.66011 19.3624 5.66935 19.2752 5.71143C19.192 5.76173 19.1438 5.82229 19.1274 5.90954C19.1099 5.99781 19.1099 6.07685 19.1438 6.11893C19.1654 6.16923 19.192 6.21542 19.2146 6.22055C19.2444 6.23903 19.2834 6.26674 19.3481 6.31704C19.4097 6.36323 19.4836 6.41455 19.5523 6.45253L16.7306 7.85364ZM23.2886 8.86778C23.6222 8.69225 23.8029 8.55779 23.8378 8.40074C23.885 8.26114 23.8973 8.15542 23.8901 8.04867C23.885 7.95115 23.8532 7.8403 23.7988 7.73868L23.3564 6.85901C23.2886 6.7153 23.1696 6.57673 22.9745 6.44227C22.7857 6.29446 22.4993 6.31704 22.139 6.5213L18.4017 8.36789C18.0393 8.53007 17.8679 8.72921 17.8679 8.96118C17.8864 9.18701 17.9203 9.36355 17.9839 9.47441L18.3657 10.2566C18.453 10.4044 18.532 10.5388 18.5998 10.622C18.6788 10.7051 18.7835 10.7749 18.9303 10.8304C19.075 10.8858 19.3481 10.817 19.7607 10.6076L21.2172 9.88602L22.0949 11.6361C22.1585 11.7655 22.1944 11.8578 22.1996 11.9092C22.1996 11.9646 22.1585 12.02 22.0774 12.0847C22.0158 12.1309 21.9173 12.1771 21.7736 12.2284C21.635 12.2787 21.5088 12.3115 21.4071 12.3208C21.2983 12.3351 21.2337 12.3629 21.1988 12.3762C21.132 12.4173 21.0776 12.4727 21.051 12.5527C21.0222 12.6308 21.0222 12.719 21.0612 12.8022C21.0971 12.8576 21.1557 12.9223 21.2172 12.9408C21.2983 12.9869 21.4379 12.9736 21.635 12.9223C21.8557 12.8576 22.0774 12.797 22.3145 12.6954C22.6645 12.5291 22.8544 12.3762 22.8945 12.2233C22.9191 12.0754 22.9376 11.9502 22.9191 11.8722C22.9129 11.7788 22.8883 11.7141 22.8544 11.6361L21.8372 9.58527L23.2886 8.86778ZM25.6936 10.196L25.1927 9.98867C24.9474 9.88602 24.7267 9.81212 24.5122 9.75258L23.9271 9.55345C23.6746 9.47441 23.5093 9.41898 23.4108 9.41898C23.3153 9.39538 23.2322 9.39538 23.1767 9.41898C23.0854 9.4508 23.0361 9.52471 22.9981 9.61709C22.9745 9.73308 22.994 9.80288 23.03 9.85831C23.0659 9.92297 23.1285 9.96916 23.2137 9.99688C23.3153 10.0379 23.5206 10.118 23.8655 10.2011C24.2217 10.3028 24.4742 10.391 24.6466 10.4506C24.8119 10.5296 25.0028 10.6076 25.2266 10.7195C25.4514 10.817 25.6105 10.8673 25.6936 10.8673C25.7552 10.8673 25.8332 10.8488 25.8814 10.8211C25.9615 10.7883 26.0159 10.7195 26.0539 10.6353C26.0662 10.5481 26.0539 10.4649 25.9903 10.391C25.9369 10.3069 25.8332 10.2473 25.6936 10.196Z" fill="white"/>
<path fill-rule="evenodd" clip-rule="evenodd" d="M32.9986 6.85888V3.07332C32.9986 2.9717 33.0068 2.88753 33.0817 2.82286C33.1423 2.74485 33.21 2.72021 33.2911 2.72021C33.3547 2.72021 33.4163 2.74485 33.48 2.82286C33.5313 2.87829 33.5734 2.9717 33.5734 3.07332V6.94202C33.5734 7.2243 33.5477 7.53429 33.4995 7.87712C33.4379 8.21072 33.3363 8.52481 33.1802 8.79785C33.0263 9.09039 32.7502 9.41886 32.3447 9.77914C31.9485 10.1497 31.6765 10.2605 31.5687 10.122C31.465 9.96904 31.4034 9.86742 31.4096 9.79351C31.4209 9.73295 31.4578 9.67342 31.5051 9.61286C31.5564 9.55332 31.7473 9.41886 32.0706 9.20535C32.394 8.97851 32.6147 8.69213 32.7378 8.3534C32.8692 7.98798 32.9359 7.72007 32.9554 7.53429C32.9739 7.368 32.9873 7.14629 32.9986 6.85888ZM31.4897 8.00235V3.63786C31.4897 3.53111 31.5235 3.45208 31.5882 3.40178C31.6457 3.32274 31.7165 3.29503 31.7791 3.29503C31.8643 3.29503 31.9228 3.32274 31.9813 3.40178C32.0429 3.45208 32.0706 3.53111 32.0706 3.63786V8.00235C32.0706 8.09986 32.0429 8.17377 31.9813 8.23741C31.9228 8.3031 31.8541 8.33081 31.7719 8.33081C31.7052 8.33081 31.6364 8.299 31.5882 8.2292C31.5235 8.1594 31.4897 8.0896 31.4897 8.00235ZM36.4669 3.63786V4.60992H37.4821C37.7469 4.60992 37.9266 4.65098 38.0046 4.73412C38.0928 4.82239 38.1565 4.91991 38.1955 5.02153C38.2201 5.13238 38.2437 5.25761 38.2437 5.38694V8.69213C38.2437 8.92308 38.175 9.08526 38.06 9.21049C37.9461 9.34495 37.6905 9.39525 37.3086 9.38601C37.0664 9.37164 36.9022 9.34495 36.8447 9.28439C36.7626 9.21049 36.7338 9.13248 36.7338 9.04317C36.741 8.96106 36.7687 8.9046 36.8088 8.86765C36.8447 8.84917 36.9022 8.82659 36.9966 8.82659L37.3466 8.86765C37.4688 8.86765 37.557 8.84917 37.6043 8.79375C37.6535 8.74756 37.6782 8.6408 37.6782 8.49299V5.64253C37.671 5.53578 37.6628 5.46085 37.6535 5.38694C37.6463 5.33562 37.6043 5.27609 37.5622 5.2299C37.5098 5.19294 37.4133 5.18371 37.2676 5.18371H36.4669V9.91874C36.4669 9.99675 36.4587 10.0758 36.4156 10.1405C36.3448 10.201 36.2822 10.2472 36.2114 10.2472C36.1303 10.2564 36.0594 10.238 35.9999 10.1733C35.9311 10.1179 35.9024 10.0245 35.9024 9.92285V5.18371H35.3707C35.2475 5.18371 35.1705 5.19294 35.1038 5.22476C35.0545 5.25248 35.0114 5.28943 34.994 5.34075C34.9776 5.38694 34.9776 5.49369 34.9776 5.64253V8.96106C34.9776 9.04317 34.9529 9.13248 34.8954 9.19201C34.8482 9.26078 34.7774 9.29363 34.6881 9.29363C34.6173 9.29363 34.5577 9.28439 34.5033 9.19201C34.4459 9.10373 34.4171 9.03394 34.4171 8.96106V5.41466C34.4171 5.27609 34.4294 5.14675 34.4705 5.02153C34.5033 4.90143 34.5618 4.80905 34.6614 4.72591C34.7589 4.65098 34.9303 4.60992 35.2188 4.60992H35.9024V3.63786H34.3278C34.218 3.63786 34.1297 3.61528 34.065 3.54959C33.9973 3.49929 33.9696 3.41512 33.9655 3.35046C33.9532 3.25397 33.9973 3.1893 34.0733 3.13285C34.1564 3.08255 34.2262 3.04971 34.3278 3.04971H38.3905C38.4644 3.04971 38.5383 3.08255 38.6009 3.13285C38.6512 3.1893 38.6861 3.25397 38.6861 3.35046C38.6923 3.41512 38.6615 3.49416 38.6009 3.54959C38.5445 3.61528 38.4644 3.63786 38.3905 3.63786H36.4669Z" fill="white"/>
<path fill-rule="evenodd" clip-rule="evenodd" d="M47.7137 3.49436V2.87849C47.7137 2.82306 47.7516 2.74505 47.7958 2.70297C47.8533 2.64241 47.9169 2.60545 48.0042 2.59622C48.0801 2.58287 48.1571 2.61982 48.2218 2.68449C48.2782 2.73068 48.3172 2.80972 48.3172 2.87849L48.31 3.49436H50.3198V2.88773C50.3198 2.83743 50.3445 2.782 50.4019 2.72042C50.4615 2.66088 50.5231 2.62906 50.6093 2.61982C50.6935 2.61982 50.7489 2.64241 50.8146 2.70297C50.8731 2.7584 50.8916 2.82306 50.8916 2.88773V3.49436H52.7228C52.7997 3.49436 52.8613 3.50771 52.9188 3.55903C52.9753 3.61549 52.9989 3.67502 53.0112 3.76329C53.0245 3.84131 52.9989 3.91521 52.9434 3.97577C52.8757 4.0312 52.808 4.06815 52.7228 4.06815H50.8916V4.56804C50.8916 4.6327 50.8731 4.71174 50.829 4.77641C50.7622 4.83183 50.7068 4.86879 50.6247 4.87392C50.5446 4.87905 50.4666 4.8462 50.4112 4.78154C50.3537 4.72611 50.3198 4.65118 50.3198 4.56804V4.06815H48.31V4.6327C48.31 4.71174 48.2782 4.77641 48.23 4.83183C48.1797 4.87905 48.113 4.91087 48.0278 4.92011C47.9426 4.92422 47.8748 4.89239 47.8204 4.83697C47.7516 4.77641 47.7137 4.71174 47.7137 4.6327V4.06815H45.9225C45.827 4.06815 45.7418 4.02709 45.6915 3.9614C45.632 3.89263 45.6074 3.8177 45.6207 3.73045C45.632 3.65654 45.672 3.59188 45.7172 3.55903C45.7726 3.50771 45.8496 3.49436 45.9225 3.49436H47.7137ZM45.7973 5.9753C45.8322 5.84494 45.9328 5.79875 46.0806 5.81826C46.1535 5.83673 46.3721 5.96093 46.7426 6.21549C47.1152 6.44234 47.3226 6.57681 47.3821 6.63737C47.4447 6.6969 47.4745 6.76157 47.4786 6.84061C47.4786 6.90014 47.4622 6.97096 47.4006 7.02537C47.3472 7.1044 47.26 7.12699 47.1645 7.11364C47.1019 7.10954 46.8997 7.00279 46.5743 6.78518C46.2304 6.57167 46.018 6.4331 45.9492 6.37767C45.8743 6.33559 45.8322 6.29043 45.8096 6.2391C45.7767 6.21549 45.7726 6.16109 45.7726 6.10977C45.7726 6.06358 45.7726 6.01226 45.7973 5.9753ZM47.5104 7.37744C47.5977 7.33638 47.6859 7.35486 47.7691 7.42363C47.8461 7.4883 47.8748 7.57657 47.8748 7.65972C47.8799 7.75723 47.8553 7.87732 47.7958 8.01692C47.6777 8.27148 47.5607 8.4932 47.4745 8.67385C47.3801 8.84938 47.223 9.11728 46.9982 9.47449C46.7899 9.8399 46.6133 10.0247 46.4912 10.0165C46.3721 9.99695 46.2828 9.95076 46.2181 9.87275C46.1535 9.79372 46.136 9.71057 46.1647 9.61306C46.1719 9.56174 46.2274 9.47449 46.3126 9.36363C46.3926 9.26098 46.5538 9.00232 46.7642 8.61329C46.9951 8.21092 47.1563 7.91017 47.2312 7.72028C47.3154 7.52114 47.4006 7.40105 47.5104 7.37744ZM47.8553 5.75359C47.8799 5.86342 47.8533 5.9753 47.7332 6.07692C47.6264 6.16109 47.4786 6.13748 47.3154 6.00815C47.2045 5.92911 46.9951 5.7618 46.7129 5.51237C46.4224 5.27629 46.2643 5.11514 46.2304 5.06792C46.1781 5.02173 46.1719 4.96117 46.1719 4.90163C46.1719 4.86365 46.1904 4.80925 46.2304 4.76717C46.2643 4.71174 46.3228 4.67479 46.3926 4.66042C46.4645 4.6327 46.5343 4.6327 46.6133 4.66042C46.6687 4.67479 46.7467 4.72611 46.8484 4.8226C46.9551 4.92011 47.0906 5.02173 47.2764 5.17467C47.4745 5.2999 47.6162 5.41999 47.7055 5.53598C47.8009 5.64273 47.8533 5.71151 47.8553 5.75359ZM48.5102 5.86342C48.5287 5.69713 48.5687 5.51237 48.6262 5.34096C48.7032 5.18391 48.9064 5.09153 49.2492 5.09153H51.1892C51.451 5.09153 51.644 5.13259 51.7548 5.19315C51.8677 5.27629 51.9519 5.3738 52.0053 5.4939C52.0463 5.61399 52.0689 5.81826 52.0463 6.06358C52.0463 6.26169 52.0227 6.5029 51.9868 6.79955C51.9427 7.10954 51.9047 7.33638 51.8677 7.51191C51.8133 7.66895 51.7271 7.83113 51.5926 8.00255C51.451 8.15549 51.1892 8.2294 50.8053 8.20168C50.6493 8.19655 50.4912 8.16884 50.3198 8.14112C50.1535 8.0898 50.0232 8.05798 49.9205 8.00666C49.8169 7.9656 49.7563 7.91017 49.7111 7.85372C49.667 7.80342 49.6629 7.69256 49.7111 7.57657C49.7491 7.438 49.8713 7.38668 50.0848 7.42363C50.1115 7.42363 50.2182 7.44313 50.3311 7.4883C50.4666 7.52114 50.5867 7.53449 50.7068 7.56734C50.9532 7.58171 51.1225 7.53449 51.1892 7.40516C51.2724 7.27172 51.3093 7.16496 51.334 7.02537C51.3535 6.91451 51.3658 6.76157 51.3925 6.54499C51.414 6.33148 51.4448 6.18367 51.4448 6.07692C51.451 5.96093 51.4448 5.87882 51.4263 5.81826C51.3925 5.7618 51.3535 5.71151 51.3093 5.70227C51.2857 5.69713 51.218 5.66942 51.0979 5.66942H49.4402C49.2811 5.66942 49.1897 5.71151 49.1456 5.79875C49.1096 5.86342 49.1035 5.96093 49.1035 6.0954V8.70157C49.1035 8.79395 49.1096 8.86785 49.1435 8.96126C49.1784 9.05775 49.2256 9.13268 49.2811 9.19221C49.3396 9.26098 49.5428 9.29383 49.9021 9.31744C50.2398 9.34515 50.4912 9.35337 50.6452 9.34515C50.7489 9.34515 51.0137 9.34515 51.3925 9.31231C51.7671 9.29383 52.0053 9.24251 52.0781 9.15526C52.1572 9.08546 52.2218 8.96126 52.2496 8.80729L52.3235 8.40082C52.3707 8.21092 52.4856 8.13189 52.6704 8.14626C52.8459 8.15549 52.9188 8.28893 52.9075 8.55786C52.8942 8.69233 52.8706 8.86785 52.8336 9.07622C52.7997 9.28459 52.7279 9.41906 52.6643 9.53505C52.578 9.63667 52.4087 9.73315 52.1397 9.83067C51.8677 9.91894 51.3535 9.95076 50.5867 9.93742C49.743 9.93742 49.2256 9.8861 49.0347 9.81732C48.8366 9.75266 48.7104 9.65514 48.6262 9.53505C48.5461 9.41906 48.5102 9.18708 48.5102 8.82679V5.86342Z" fill="white"/>
<path fill-rule="evenodd" clip-rule="evenodd" d="M60.9142 6.78474C60.8023 6.73444 60.7233 6.64617 60.6987 6.57124C60.6617 6.47475 60.6453 6.39161 60.6987 6.31667C60.7141 6.23456 60.7972 6.16887 60.9009 6.13705C61.0158 6.10933 61.1164 6.11857 61.2406 6.18324L63.8242 7.57613L64.3682 6.57124C64.4072 6.47475 64.4719 6.41419 64.5684 6.37724C64.6505 6.33104 64.7367 6.31667 64.8188 6.36287C64.9133 6.39161 64.9697 6.45217 64.9985 6.57124C65.0252 6.68312 65.0128 6.76626 64.9564 6.88636L64.4165 7.9046L67.0555 9.29339C67.1304 9.34472 67.1848 9.40425 67.2064 9.49663C67.2392 9.57054 67.2382 9.65881 67.2002 9.76043C67.1458 9.8446 67.0873 9.9185 67.0001 9.93698C66.9087 9.96469 66.8225 9.95032 66.7311 9.9185L64.1701 8.52971C64.128 8.66418 64.088 8.78017 64.0511 8.9095C64.0264 9.0337 63.9925 9.29339 63.9669 9.68242C63.934 10.0663 63.9525 10.4502 63.9771 10.8167C64.01 11.1903 64.0901 11.5937 64.2204 12.0197C64.3251 12.459 64.4719 12.8388 64.631 13.1672C64.788 13.5101 64.8712 13.7369 64.8969 13.8426C64.9215 13.9545 64.9215 14.052 64.8897 14.1208C64.8712 14.1998 64.8096 14.2553 64.7059 14.3107C64.6012 14.3569 64.4965 14.3477 64.3918 14.2686C64.2789 14.2183 64.0747 13.8016 63.7914 13.042C63.4916 12.2783 63.3325 11.566 63.31 10.9316C63.273 10.3024 63.2935 9.71013 63.39 9.15482C63.2299 9.29339 63.0862 9.41862 62.9507 9.54795C62.807 9.65881 62.5801 9.83023 62.2835 10.0294C61.9776 10.2377 61.6143 10.4317 61.177 10.5939C60.7418 10.7602 60.3271 10.8669 59.9432 10.9275C59.5439 10.9922 59.2154 11.0199 58.9537 11.0384C58.6889 11.0476 58.5051 11.0384 58.4179 10.9922C58.3214 10.9316 58.2588 10.8669 58.2352 10.7879C58.2064 10.7007 58.2064 10.6216 58.2465 10.5477C58.2875 10.4646 58.3265 10.404 58.385 10.3855C58.4466 10.3486 58.7197 10.3065 59.197 10.3024C59.6907 10.2932 60.2686 10.1772 60.9255 9.93698C61.5824 9.71013 62.109 9.41862 62.5175 9.04294C62.9199 8.68265 63.1745 8.41885 63.2833 8.28439L63.3972 8.11708L60.9142 6.78474Z" fill="white"/>
<path fill-rule="evenodd" clip-rule="evenodd" d="M74.5903 22.5492C74.6241 22.6283 74.6508 22.697 74.6241 22.772C74.6149 22.8551 74.5687 22.929 74.5071 22.9701C74.426 23.0081 74.3603 23.0122 74.2864 23.0081C74.2023 22.9793 74.1417 22.9475 74.0955 22.8551L72.6359 20.5641C72.5651 20.7078 72.486 20.87 72.3916 21.0219C72.3043 21.1748 72.1832 21.3134 72.0344 21.4335C71.8927 21.5638 71.7316 21.6377 71.5971 21.688C71.2132 21.8092 70.8899 21.7537 70.6117 21.5402C70.3438 21.3134 70.1283 21.064 69.964 20.7488C69.8706 20.5959 69.7926 20.4204 69.7259 20.2448C69.6551 20.0591 69.614 19.902 69.5873 19.7583C69.5658 19.6341 69.5658 19.5181 69.5688 19.4257C69.5904 19.3559 69.6551 19.282 69.7464 19.2358C69.847 19.1886 69.9158 19.1886 69.9866 19.2266C70.0461 19.2769 70.1047 19.3323 70.1283 19.4062C70.1437 19.4576 70.1714 19.5828 70.2155 19.8189C70.2514 20.0447 70.3438 20.2623 70.506 20.5271C70.7955 21.026 71.09 21.2118 71.3497 21.0824C71.5971 20.9428 71.7932 20.8279 71.8825 20.6883C71.9933 20.5497 72.0631 20.4204 72.1134 20.3187L72.2397 19.9482L70.3438 16.9725C70.3069 16.8883 70.2884 16.8196 70.313 16.7364C70.313 16.6574 70.3685 16.5968 70.4259 16.5599C70.506 16.5096 70.5778 16.4952 70.6507 16.5188C70.7298 16.5363 70.7862 16.5876 70.8345 16.6481L72.447 19.1979C72.5322 19.165 72.5866 19.1476 72.6379 19.1476C72.6965 19.1476 72.7981 19.1979 72.9767 19.3559C73.1245 19.4853 73.2538 19.6013 73.3698 19.67C73.4807 19.7439 73.6182 19.8414 73.7516 19.9297C73.8892 20.0088 73.9888 20.0591 74.037 20.0683C74.0678 20.0683 74.0955 20.0683 74.1284 20.0591C74.1417 20.0447 74.1417 20.0221 74.1284 19.9903C74.1284 19.9574 74.0493 19.8414 73.9385 19.6474L72.3916 17.2363C72.3433 17.1665 72.3341 17.0731 72.3526 17.0043C72.368 16.9171 72.4183 16.8606 72.486 16.8196C72.5435 16.7682 72.6164 16.759 72.716 16.7826C72.7765 16.8103 72.8412 16.8473 72.8874 16.9171L74.8294 19.9903C74.9208 20.1237 74.9793 20.2448 75.008 20.3465C75.0203 20.4471 75.008 20.5364 74.9434 20.6236C74.8787 20.7026 74.7596 20.7488 74.5995 20.7714C74.4763 20.7714 74.2864 20.7345 74.0493 20.6472C73.8091 20.5682 73.6623 20.5086 73.5977 20.4717L73.107 20.2161L74.5903 22.5492ZM76.6001 20.6144C76.7181 20.8186 76.79 20.9983 76.8125 21.1471C76.8372 21.3134 76.7899 21.4335 76.6678 21.5402C76.5251 21.6285 76.3876 21.7116 76.2418 21.7537C76.1125 21.7856 75.9565 21.8133 75.7697 21.841C75.588 21.8646 75.4648 21.8646 75.3837 21.8184C75.3057 21.7856 75.2441 21.726 75.2031 21.6511C75.164 21.5905 75.1548 21.5125 75.1764 21.4335C75.2031 21.3555 75.2441 21.3041 75.3129 21.2764C75.3272 21.2672 75.3673 21.2621 75.4022 21.2621C75.4114 21.2436 75.5243 21.2436 75.6875 21.2395C75.8559 21.2261 75.9698 21.1933 76.0273 21.1471C76.0807 21.106 76.1012 21.0547 76.1125 20.9983C76.1125 20.9521 76.1012 20.9295 76.0899 20.8874C76.0612 20.8648 76.0057 20.7807 75.9257 20.6339L73.107 16.2222C73.0547 16.1205 73.0054 16.0466 72.9767 16.0271C72.949 15.9912 72.9202 15.9912 72.8874 15.9912C72.8443 15.9912 72.7981 16.0138 72.758 16.0323L72.486 16.2037C72.4183 16.2499 72.3392 16.2735 72.2633 16.2499C72.1832 16.2314 72.1165 16.1986 72.0796 16.1339C72.0344 16.0692 72.0293 15.9912 72.0457 15.9029C72.059 15.8239 72.1073 15.7551 72.1719 15.713L72.5712 15.4585C72.7252 15.3661 72.8443 15.3055 72.9202 15.2922C73.0167 15.2727 73.0968 15.2881 73.1604 15.3292C73.221 15.3476 73.2538 15.3702 73.2877 15.4174C73.3175 15.4585 73.3821 15.5416 73.4694 15.6761L76.6001 20.6144ZM74.5995 16.4952C74.5502 16.5465 74.4866 16.5599 74.385 16.5465C74.307 16.5363 74.2495 16.4767 74.2023 16.3802C74.1663 16.3053 74.1663 16.1852 74.2023 16.0323C74.2464 15.8804 74.2751 15.672 74.307 15.4441C74.346 15.2132 74.3716 15.0469 74.424 14.9401C74.4763 14.8293 74.5256 14.7646 74.5995 14.7276C74.6755 14.6948 74.7463 14.704 74.8079 14.7451C74.8787 14.7964 74.9208 14.8519 74.9505 14.9216C74.9711 14.9914 74.9711 15.1167 74.9434 15.2501L74.8294 15.7551C74.7843 16.0138 74.7463 16.1852 74.7104 16.2827C74.6755 16.3936 74.6385 16.4675 74.5995 16.4952ZM75.8682 17.1203C75.9544 16.9725 76.0252 16.8658 76.0899 16.8288C76.1648 16.7826 76.2377 16.796 76.3291 16.8288C76.4235 16.875 76.4676 16.954 76.4913 17.0372C76.4913 17.0731 76.482 17.1203 76.4676 17.1798C76.4451 17.2363 76.365 17.3934 76.2305 17.6294C76.0899 17.8748 75.977 18.0462 75.899 18.1345C75.8436 18.2309 75.7789 18.2956 75.7235 18.3377C75.6557 18.3705 75.5736 18.3551 75.4525 18.2956C75.3242 18.2402 75.2923 18.1345 75.3272 17.963C75.3457 17.9025 75.3837 17.8327 75.4648 17.7311C75.5366 17.6479 75.6218 17.5371 75.7081 17.3934C75.7922 17.2404 75.8559 17.1665 75.8682 17.1203ZM76.3003 19.9297C76.2541 19.902 76.2162 19.8702 76.1874 19.7953C76.132 19.7398 76.1258 19.67 76.132 19.5828C76.1648 19.5078 76.2028 19.4257 76.2675 19.4206C76.3003 19.3785 76.365 19.3785 76.4676 19.4062L76.8864 19.4206L77.2139 19.4257C77.3894 19.4257 77.5608 19.4257 77.6943 19.4206C77.8226 19.4062 77.9262 19.4114 77.9817 19.4257C78.0391 19.4576 78.0935 19.4853 78.1356 19.5458C78.1726 19.6146 78.188 19.6844 78.1818 19.7439C78.1818 19.8373 78.1356 19.8928 78.035 19.9533C77.9693 19.9985 77.841 20.0088 77.6655 20.0088C77.4961 19.9985 77.257 20.0088 76.9378 20.0088C76.6339 20.0221 76.4235 19.9903 76.3003 19.9297Z" fill="white"/>
<path fill-rule="evenodd" clip-rule="evenodd" d="M4.78711 41.7112H8.79028V42.5806L6.08557 44.4457H8.79028V45.2884H4.78711V44.3635L7.41997 42.558H4.78711V41.7112Z" fill="white"/>
<path fill-rule="evenodd" clip-rule="evenodd" d="M6.3658 48.681L7.85929 49.2927L6.3658 49.9271V48.681ZM8.79028 49.7731V48.797L4.78711 47.0571V48.0333L5.68834 48.4131V50.2186L4.78711 50.6117V51.5838L8.79028 49.7731Z" fill="white"/>
<path fill-rule="evenodd" clip-rule="evenodd" d="M4.78711 53.333H8.79028V54.2219L6.08557 56.0644H8.79028V56.9153H4.78711V55.9946L7.41997 54.1706H4.78711V53.333Z" fill="white"/>
<path fill-rule="evenodd" clip-rule="evenodd" d="M9.14539 60.4884L9.31989 61.3865L6.82458 61.8772C6.49919 61.9418 6.24668 61.9521 6.05371 61.9233C5.81044 61.8823 5.59489 61.7622 5.41834 61.562C5.24076 61.3547 5.09808 61.0806 5.03034 60.7111C4.94514 60.2718 4.98107 59.9053 5.1607 59.6415C5.32903 59.3644 5.62055 59.1745 6.04447 59.0955L6.29287 59.9105C6.07732 59.9844 5.9213 60.0347 5.82892 60.1178C5.70882 60.2574 5.66982 60.4103 5.70677 60.6002C5.74885 60.7942 5.82892 60.9236 5.93772 60.9882C6.05371 61.058 6.27542 61.0539 6.59773 60.9882L9.14539 60.4884Z" fill="white"/>
<path fill-rule="evenodd" clip-rule="evenodd" d="M7.4043 67.8607L10.9271 65.9504L11.3418 66.7316L9.8565 69.6426L12.2266 68.379L12.6279 69.1017L9.09487 71.0088L8.67094 70.2123L10.1203 67.3433L7.80256 68.611L7.4043 67.8607Z" fill="white"/>
<path fill-rule="evenodd" clip-rule="evenodd" d="M13.146 73.9477L13.6685 73.5125L14.9526 74.9885L13.7239 76.0448C13.4694 76.0027 13.1891 75.897 12.8576 75.6968C12.5281 75.512 12.2448 75.2811 12.0026 74.9885C11.6967 74.6375 11.4924 74.268 11.4041 73.8831C11.2964 73.5125 11.32 73.1471 11.4493 72.796C11.5858 72.4429 11.8003 72.1473 12.0847 71.8928C12.409 71.6238 12.7426 71.4575 13.1265 71.3929C13.4909 71.3282 13.8779 71.3836 14.2525 71.5684C14.5441 71.6844 14.8294 71.9205 15.1096 72.2448C15.4699 72.6606 15.6721 73.0732 15.7358 73.4345C15.7737 73.804 15.6947 74.1427 15.4699 74.4527L14.7617 73.8779C14.8653 73.6983 14.9126 73.4992 14.8756 73.2857C14.854 73.0773 14.7493 72.8782 14.5831 72.6842C14.3264 72.3916 14.0278 72.2171 13.7065 72.1935C13.3862 72.1658 13.0588 72.2951 12.7231 72.5867C12.3659 72.8925 12.1781 73.221 12.1442 73.5546C12.1073 73.9015 12.2273 74.2023 12.4891 74.5082C12.6112 74.6467 12.7714 74.7627 12.9428 74.8736C13.1142 74.9711 13.2846 75.0491 13.4468 75.0727L13.8348 74.735L13.146 73.9477Z" fill="white"/>
<path fill-rule="evenodd" clip-rule="evenodd" d="M18.1426 80.1921L19.9686 76.6426L20.759 77.0398L21.1727 80.2844L22.4147 77.8866L23.1548 78.2849L21.3164 81.821L20.5209 81.4187L20.0959 78.2346L18.8929 80.576L18.1426 80.1921Z" fill="white"/>
<path fill-rule="evenodd" clip-rule="evenodd" d="M25.7542 79.7657C26.015 79.5574 26.326 79.4742 26.7027 79.5112C27.0763 79.5389 27.3668 79.6734 27.5824 79.9279C27.7825 80.164 27.8749 80.5192 27.8215 80.9646C27.7917 81.4368 27.6501 81.7797 27.3986 81.9962C27.141 82.2056 26.8289 82.2929 26.4666 82.26C26.095 82.2323 25.8127 82.0886 25.5921 81.8351C25.3827 81.5856 25.2903 81.2233 25.3272 80.7706C25.3693 80.317 25.512 79.9782 25.7542 79.7657ZM24.8592 82.26C25.2256 82.6675 25.7368 82.8903 26.4091 82.9498C27.0702 83.0052 27.6111 82.8718 28.0309 82.5382C28.462 82.2138 28.7012 81.7047 28.7628 81.0663C28.812 80.4227 28.6427 79.9136 28.2947 79.5112C27.9201 79.0944 27.4161 78.8768 26.7468 78.8163C26.3876 78.7886 26.0529 78.8163 25.7727 78.8861C25.5674 78.9507 25.3478 79.0524 25.162 79.2012C24.9711 79.3449 24.8109 79.5204 24.6877 79.7011C24.5348 79.9782 24.4301 80.317 24.3993 80.7142C24.35 81.3629 24.5112 81.8669 24.8592 82.26Z" fill="white"/>
<path fill-rule="evenodd" clip-rule="evenodd" d="M31.7379 79.9279L32.4472 79.9782C32.8085 79.9926 33.0271 80.0018 33.1072 80.0018C33.2519 80.0388 33.3648 80.0942 33.4387 80.1917C33.5095 80.2748 33.5485 80.3908 33.5321 80.5191C33.5249 80.6444 33.5003 80.7511 33.4254 80.8158C33.3648 80.9041 33.2724 80.9451 33.1564 80.978C33.0569 81.0159 32.7879 81.0159 32.3476 80.978L31.6886 80.9451L31.7379 79.9279ZM31.5572 83.2546L31.6465 81.5856L31.8282 81.599C32.0438 81.6216 32.2039 81.6359 32.2922 81.6677C32.3835 81.7006 32.4739 81.7652 32.5539 81.8484C32.6381 81.9315 32.7879 82.1399 33.0045 82.4602L33.6122 83.3614L34.6797 83.4261L34.1767 82.6213C33.9735 82.2928 33.8195 82.0752 33.7035 81.9459C33.5742 81.8114 33.4172 81.6913 33.2324 81.5754C33.642 81.5476 33.9294 81.4368 34.1305 81.2561C34.3379 81.0662 34.4518 80.8302 34.4713 80.5191C34.4826 80.2841 34.418 80.0808 34.304 79.8766C34.1788 79.6867 34.0217 79.5574 33.8103 79.4742C33.5988 79.3911 33.2519 79.3356 32.7746 79.2977L30.8695 79.2012L30.6611 83.19L31.5572 83.2546Z" fill="white"/>
<path fill-rule="evenodd" clip-rule="evenodd" d="M36.5361 83.5015L36.6203 79.4932L37.9834 79.5209L38.7286 82.2749L39.6011 79.5578L40.9653 79.5989L40.8555 83.6072L40.0292 83.5846L40.0969 80.4231L39.1464 83.561L38.2554 83.5292L37.4569 80.3769L37.3717 83.5199L36.5361 83.5015Z" fill="white"/>
<path fill-rule="evenodd" clip-rule="evenodd" d="M44.2718 82.0202L44.8713 80.535L45.5292 82.0069L44.2718 82.0202ZM45.3516 79.5947L44.3724 79.5988L42.6777 83.6266L43.6498 83.6215L44.0121 82.71L45.8238 82.6823L46.2272 83.5938L47.2075 83.5753L45.3516 79.5947Z" fill="white"/>
<path fill-rule="evenodd" clip-rule="evenodd" d="M49.0724 83.5015L48.8477 79.5394L49.7561 79.4932L49.9357 82.7655L52.2083 82.6351L52.2524 83.3167L49.0724 83.5015Z" fill="white"/>
<path fill-rule="evenodd" clip-rule="evenodd" d="M56.7012 78.8769L57.5993 78.7527L57.8867 80.9134C57.938 81.2562 57.974 81.4923 58.0171 81.5755C58.0725 81.7325 58.1772 81.8485 58.3466 81.9316C58.4923 82.0107 58.6935 82.0425 58.944 82.0066C59.1944 81.9594 59.3823 81.8906 59.5003 81.7879C59.6214 81.6863 59.6789 81.5477 59.6882 81.4092C59.6943 81.2696 59.6789 81.0427 59.6358 80.7286L59.3392 78.5166L60.2342 78.4006L60.5175 80.4782C60.5914 80.9647 60.6048 81.3024 60.576 81.4964C60.5514 81.7007 60.496 81.8813 60.3831 82.0425C60.2722 82.1913 60.1121 82.3248 59.9017 82.4274C59.6943 82.5383 59.4182 82.6214 59.0682 82.6676C58.6309 82.723 58.3189 82.723 58.0848 82.6676C57.8508 82.6122 57.6599 82.5147 57.5193 82.4038C57.3725 82.2652 57.2647 82.14 57.2052 81.9922C57.1251 81.7654 57.043 81.4369 56.9804 80.9965L56.7012 78.8769Z" fill="white"/>
<path fill-rule="evenodd" clip-rule="evenodd" d="M63.8549 81.8209L62.1191 78.2067L62.9095 77.8352L65.761 79.4426L64.596 77.0212L65.3391 76.6506L67.0851 80.2607L66.265 80.66L63.471 79.0905L64.6175 81.4647L63.8549 81.8209Z" fill="white"/>
<path fill-rule="evenodd" clip-rule="evenodd" d="M69.3636 78.6132L66.8447 75.5164L67.5479 74.9478L70.0647 78.0579L69.3636 78.6132Z" fill="white"/>
<path fill-rule="evenodd" clip-rule="evenodd" d="M72.7607 75.3871L68.6631 74.0733L69.2738 73.3045L72.2978 74.3145L70.6934 71.5923L71.3042 70.8328L73.3879 74.6142L72.7607 75.3871Z" fill="white"/>
<path fill-rule="evenodd" clip-rule="evenodd" d="M75.6103 71.3142L71.9941 69.6113L73.4147 66.5977L74.0234 66.8902L72.9919 69.0745L73.7894 69.444L74.7532 67.4075L75.3681 67.7093L74.4073 69.7458L75.403 70.2128L76.4654 67.9403L77.0761 68.241L75.6103 71.3142Z" fill="white"/>
<path fill-rule="evenodd" clip-rule="evenodd" d="M74.8805 64.1212L75.0365 63.4314C75.1237 63.0794 75.1782 62.8576 75.2048 62.8022C75.2562 62.6585 75.329 62.5477 75.4307 62.5015C75.5384 62.4368 75.6472 62.4276 75.7807 62.4594C75.8936 62.4963 75.9921 62.5384 76.0486 62.6123C76.1163 62.6955 76.1666 62.7837 76.1666 62.909C76.1718 63.0198 76.1276 63.2836 76.0291 63.7096L75.872 64.3614L74.8805 64.1212ZM78.122 64.889L76.493 64.5154L76.5361 64.3255C76.5844 64.1212 76.6357 63.9734 76.6911 63.8851C76.7394 63.802 76.8143 63.7373 76.9108 63.6583C77.0093 63.5844 77.2341 63.4776 77.5842 63.3206L78.587 62.8813L78.8323 61.8394L77.9506 62.2048C77.6016 62.3393 77.3573 62.4594 77.2044 62.5477C77.0576 62.6493 76.9108 62.7786 76.7712 62.9367C76.8092 62.5477 76.7609 62.2325 76.6059 62.0016C76.4663 61.7614 76.2395 61.6126 75.9562 61.5387C75.7252 61.4791 75.4922 61.4966 75.2849 61.5756C75.0704 61.6639 74.9102 61.8024 74.7953 62.0149C74.6721 62.2048 74.5633 62.5292 74.4473 62.9972L74.0244 64.8479L77.9147 65.7687L78.122 64.889Z" fill="white"/>
<path fill-rule="evenodd" clip-rule="evenodd" d="M77.8574 59.697L77.7835 58.8317C78.0452 58.7722 78.2392 58.6562 78.3603 58.494C78.4876 58.3369 78.543 58.1286 78.543 57.8412C78.543 57.5497 78.4876 57.3228 78.3788 57.175C78.2741 57.0364 78.1366 56.9523 77.999 56.9523C77.9036 56.9523 77.8132 56.9933 77.7506 57.0549C77.6952 57.1144 77.6274 57.2263 77.5833 57.3875C77.5505 57.4942 77.4878 57.7211 77.4119 58.106C77.3072 58.5915 77.1655 58.9292 77.0085 59.1232C76.7909 59.3921 76.5261 59.54 76.2038 59.54C75.9913 59.54 75.8157 59.4702 75.6289 59.3316C75.4534 59.2207 75.3251 59.0072 75.2235 58.7722C75.1229 58.5443 75.0859 58.2394 75.0859 57.9058C75.0859 57.3362 75.1876 56.9153 75.4082 56.6197C75.633 56.3415 75.9266 56.1937 76.2931 56.1804L76.33 57.0826C76.1155 57.1237 75.9779 57.2079 75.8763 57.3362C75.7932 57.4624 75.748 57.6523 75.748 57.9058C75.748 58.1604 75.7932 58.3831 75.8907 58.5217C75.9574 58.6192 76.0447 58.6562 76.1329 58.6562C76.2387 58.6562 76.3177 58.6192 76.3885 58.5268C76.4686 58.4242 76.5661 58.1419 76.6615 57.7067C76.7601 57.2623 76.8463 56.9389 76.9387 56.7264C77.0495 56.5222 77.1789 56.3415 77.3565 56.2255C77.5258 56.1157 77.7414 56.0408 77.9826 56.0408C78.2187 56.0408 78.4342 56.1383 78.6436 56.2676C78.8315 56.4011 78.9844 56.6105 79.0799 56.865C79.1784 57.138 79.2267 57.4624 79.2267 57.8463C79.2267 58.4293 79.1137 58.8645 78.8828 59.1653C78.6436 59.4702 78.3059 59.6467 77.8574 59.697Z" fill="white"/>
<path fill-rule="evenodd" clip-rule="evenodd" d="M75.1553 54.0419H79.1595V53.1243H75.1553V54.0419Z" fill="white"/>
<path fill-rule="evenodd" clip-rule="evenodd" d="M79.1595 49.9822H75.8286V51.3156H75.1553V47.7517H75.8286V49.0748H79.1595V49.9822Z" fill="white"/>
<path fill-rule="evenodd" clip-rule="evenodd" d="M79.1595 44.7328H77.4761L75.1553 46.3761V45.3066L76.7412 44.2514L75.1553 43.2054V42.1738L77.4761 43.8305H79.1595V44.7328Z" fill="white"/>
<path fill-rule="evenodd" clip-rule="evenodd" d="M6.15332 64.6496L9.92246 63.2844L10.2283 64.1549L6.46023 65.5108L6.15332 64.6496Z" fill="white"/>
<path fill-rule="evenodd" clip-rule="evenodd" d="M44.9274 29.487L45.7393 29.3207C45.7393 29.3207 45.7393 29.0056 45.3021 28.284C44.872 27.5624 43.7552 26.3029 43.7552 26.3029H42.4403C41.6499 25.4561 40.7682 24.715 39.7664 24.0899L39.6945 24.0396C39.6792 24.0211 39.6792 24.0119 39.6792 24.0119H39.6545C39.6494 24.0027 39.6196 24.0027 39.6063 23.9698C39.5775 23.9565 39.5508 23.9472 39.5231 23.9144L39.4369 23.8877V23.8918C39.4133 23.8682 39.3938 23.8589 39.3743 23.8589C39.5396 23.1374 39.4523 22.1283 38.6414 20.758C37.7381 19.1568 36.0999 18.0831 35.0796 18.0963C35.3013 18.9905 35.8392 20.3372 36.8431 21.6233C37.5082 22.4845 38.0697 23.0029 38.5737 23.4381C37.5226 22.9659 36.3791 22.6837 35.2038 22.5677C35.3845 22.0165 35.095 20.8278 33.8725 19.9574C32.6059 19.0367 31.0313 18.934 30.1424 19.3323C30.1157 19.9985 31.022 20.8001 32.2189 21.5638C33.0051 22.0452 33.7493 22.387 34.358 22.5441C33.1714 22.5256 31.9684 22.6929 30.7993 23.0583L30.7069 23.0768V23.1045C30.7069 23.1045 30.7008 23.1086 30.6895 23.1086C30.633 22.4886 29.9248 21.5443 28.4343 21.2025C26.9347 20.8596 25.4648 21.3647 24.9269 21.9015C25.1589 22.5122 26.1782 23.0819 27.568 23.3221C28.5144 23.4843 29.3561 23.4987 29.9709 23.3868C28.772 23.8877 27.6932 24.5539 26.7048 25.3032C26.4245 24.7386 25.471 24.1505 24.0894 24.1227C22.64 24.1043 21.4031 24.7756 21.009 25.3586C21.3354 25.9047 22.4173 26.3358 23.7989 26.3173C24.618 26.2886 25.3498 26.1592 25.8939 25.9334C25.0809 26.5996 24.3408 27.3078 23.6521 28.0017C23.61 28.0479 23.5669 28.089 23.5166 28.1403C23.1245 27.664 22.0734 27.2883 20.7092 27.5573C19.302 27.8488 18.2334 28.751 17.9686 29.4275C18.3977 29.8719 19.5545 30.07 20.9125 29.76C21.5694 29.5979 22.1545 29.3761 22.6082 29.1175C22.289 29.4542 21.9718 29.8206 21.6567 30.2045C20.9248 30.4088 20.001 31.2689 19.1614 32.4493C18.1493 33.8659 17.7992 35.5739 17.8578 36.3047C18.8596 36.2031 20.0862 35.2177 21.047 33.8659C21.9933 32.551 22.3249 31.1817 22.135 30.4683C22.4368 30.0926 22.7283 29.7416 23.0372 29.4223C22.8289 29.8534 22.6852 30.38 22.6605 30.9589C22.6123 32.3015 23.1656 33.3054 23.6829 33.6482C24.1633 33.3475 24.6283 32.399 24.697 31.1119C24.7843 29.8945 24.4917 28.7695 24.0432 28.3538C24.2177 28.1875 24.4076 27.9781 24.6283 27.8067L24.6847 27.7472L24.6734 27.7184C25.0717 27.3633 25.5243 26.9414 26.0294 26.5205C25.742 26.9876 25.5449 27.6178 25.5089 28.3251C25.4648 29.6769 26.0119 30.6869 26.5097 31.0287C27.0024 30.7003 27.4684 29.76 27.5485 28.4872C27.6276 27.3078 27.3494 26.2383 26.9439 25.7702C27.6717 25.2159 28.4949 24.6781 29.3746 24.2295C29.0605 24.6042 28.772 25.1184 28.6304 25.7148C28.3553 27.002 28.7597 28.0756 29.1908 28.4965C29.6907 28.3025 30.1855 27.5337 30.4996 26.3635C30.7572 25.3124 30.8455 24.2521 30.6156 23.6783C30.787 23.6188 30.9666 23.5582 31.1524 23.4987L31.2027 23.4843C32.1522 23.2113 33.1406 23.0768 34.1065 23.0624C33.5225 23.2256 32.8676 23.6413 32.4129 24.3219C31.6482 25.4007 31.8524 26.5575 32.069 27.0943C32.3677 27.122 33.1283 26.576 33.8458 25.6409C34.5582 24.6976 35.0796 23.706 35.0098 23.0819C36.063 23.164 37.0874 23.3868 38.0389 23.7758C37.4425 23.7666 36.7538 23.9144 36.1286 24.4194C34.9236 25.4007 34.5602 26.8254 34.5602 27.6404C34.9852 27.9093 35.7776 27.5059 36.9324 26.7936C38.0296 26.0802 39.051 25.1923 39.3045 24.4153C39.3261 24.4327 39.3743 24.4512 39.3907 24.4615C41.7136 25.8862 43.4442 28.168 44.8289 30.302C44.9715 30.1901 45.1183 30.0926 45.2579 29.9971C45.1502 29.8298 45.0393 29.6543 44.9274 29.487Z" fill="#006A44"/>
<path fill-rule="evenodd" clip-rule="evenodd" d="M39.0822 29.487L38.2754 29.3207C38.2754 29.3207 38.2754 29.0056 38.7024 28.284C39.1407 27.5624 40.2544 26.3029 40.2544 26.3029H41.5754C42.3627 25.4561 43.2393 24.715 44.2422 24.0899L44.3171 24.0396C44.3294 24.0211 44.3315 24.0119 44.3315 24.0119H44.3407C44.3653 24.0027 44.392 24.0027 44.4085 23.9698C44.4331 23.9565 44.4639 23.9472 44.4865 23.9144L44.5614 23.8877L44.5706 23.8918C44.5942 23.8682 44.6117 23.8589 44.6353 23.8589C44.47 23.1374 44.5552 22.1283 45.3672 20.758C46.2735 19.1568 47.9169 18.0831 48.9372 18.0963C48.7165 18.9905 48.1796 20.3372 47.1645 21.6233C46.5096 22.4845 45.9327 23.0029 45.437 23.4381C46.4819 22.9659 47.6264 22.6837 48.8078 22.5677C48.6262 22.0165 48.9187 20.8278 50.1412 19.9574C51.3945 19.0367 52.9691 18.934 53.8652 19.3323C53.897 19.9985 52.9835 20.8001 51.7794 21.5638C50.9932 22.0452 50.2644 22.387 49.6629 22.5441C50.8361 22.5256 52.0463 22.6929 53.2011 23.0583L53.3006 23.0768L53.2934 23.1045C53.3006 23.1045 53.3129 23.1086 53.3129 23.1086C53.3776 22.4886 54.0807 21.5443 55.5691 21.2025C57.08 20.8596 58.554 21.3647 59.0806 21.9015C58.8558 22.5122 57.8293 23.0819 56.4467 23.3221C55.5003 23.4843 54.6525 23.4987 54.0489 23.3868C55.2314 23.8877 56.3205 24.5539 57.3079 25.3032C57.5902 24.7386 58.5366 24.1505 59.9161 24.1227C61.3686 24.1043 62.6095 24.7756 63.0006 25.3586C62.6783 25.9047 61.6036 26.3358 60.2087 26.3173C59.3855 26.2886 58.6587 26.1592 58.1116 25.9334C58.9287 26.5996 59.6677 27.3078 60.3616 28.0017C60.4037 28.0479 60.4478 28.089 60.4909 28.1403C60.883 27.664 61.9465 27.2883 63.2942 27.5573C64.7066 27.8488 65.7813 28.751 66.0369 29.4275C65.6006 29.8719 64.4541 30.07 63.1033 29.76C62.4474 29.5979 61.8705 29.3761 61.3994 29.1175C61.7186 29.4542 62.0275 29.8206 62.3427 30.2045C63.0868 30.4088 63.9932 31.2689 64.8472 32.4493C65.8593 33.8659 66.2268 35.5739 66.1395 36.3047C65.1613 36.2031 63.9193 35.2177 62.9606 33.8659C62.0214 32.551 61.6796 31.1817 61.8797 30.4683C61.5749 30.0926 61.2762 29.7416 60.9765 29.4223C61.1776 29.8534 61.3193 30.38 61.3511 30.9589C61.3994 32.3015 60.8348 33.3054 60.3277 33.6482C59.8586 33.3475 59.3855 32.399 59.3126 31.1119C59.2181 29.8945 59.5199 28.7695 59.9623 28.3538C59.8022 28.1875 59.5928 27.9781 59.3855 27.8067L59.329 27.7472L59.3352 27.7184C58.9389 27.3633 58.4811 26.9414 57.9895 26.5205C58.2717 26.9876 58.474 27.6178 58.4955 28.3251C58.554 29.6769 57.9895 30.6869 57.4988 31.0287C57.0061 30.7003 56.5422 29.76 56.4683 28.4872C56.3851 27.3078 56.653 26.2383 57.0677 25.7702C56.3328 25.2159 55.5219 24.6781 54.6319 24.2295C54.9604 24.6042 55.2478 25.1184 55.3648 25.7148C55.6656 27.002 55.2478 28.0756 54.8146 28.4965C54.3199 28.3025 53.8128 27.5337 53.5182 26.3635C53.2452 25.3124 53.159 24.2521 53.3858 23.6783C53.2144 23.6188 53.0368 23.5582 52.8613 23.4987L52.8079 23.4843C51.8554 23.2113 50.8731 23.0768 49.9082 23.0624C50.4738 23.2256 51.143 23.6413 51.5977 24.3219C52.3512 25.4007 52.1664 26.5575 51.9426 27.0943C51.6439 27.122 50.8844 26.576 50.1679 25.6409C49.4658 24.6976 48.9259 23.706 49.0059 23.0819C47.9425 23.164 46.9161 23.3868 45.9717 23.7758C46.5743 23.7666 47.2466 23.9144 47.8748 24.4194C49.085 25.4007 49.4401 26.8254 49.4278 27.6404C49.0172 27.9093 48.2371 27.5059 47.0783 26.7936C45.9882 26.0802 44.9545 25.1923 44.6969 24.4153C44.6743 24.4327 44.6404 24.4512 44.6117 24.4615C42.2878 25.8862 40.5613 28.168 39.1838 30.302C39.037 30.1901 38.8964 30.0926 38.7486 29.9971C38.8584 29.8298 38.9754 29.6543 39.0822 29.487Z" fill="#006A44"/>
<path fill-rule="evenodd" clip-rule="evenodd" d="M45.2054 18.2168C45.2054 17.5507 44.6521 16.9861 43.9633 16.9861C43.6677 16.9861 43.3762 17.098 43.174 17.2828C43.2294 17.1391 43.2541 16.982 43.2541 16.8147C43.2541 16.1342 42.7008 15.5789 42.0305 15.5789C41.3428 15.5789 40.7895 16.1342 40.7895 16.8147C40.7895 17.0046 40.8275 17.1801 40.9004 17.329C40.6787 17.1114 40.3718 16.9861 40.0402 16.9861C39.3587 16.9861 38.8105 17.5507 38.8105 18.2168C38.8105 18.8933 39.3587 19.4578 40.0402 19.4578C40.0987 19.4578 40.1562 19.4578 40.2117 19.4486C39.8442 19.6375 39.5814 20.0501 39.5814 20.5182C39.5814 21.1977 40.1234 21.754 40.8019 21.754C41.4003 21.754 41.8961 21.3414 42.0254 20.7809C42.1486 21.3414 42.6372 21.754 43.2294 21.754C43.9048 21.754 44.4653 21.1977 44.4653 20.5182C44.4653 20.0593 44.2097 19.6611 43.834 19.4486C43.874 19.4578 43.9295 19.4578 43.9633 19.4578C44.6521 19.4578 45.2054 18.8933 45.2054 18.2168ZM42.009 19.4065C41.7113 19.4065 41.4537 19.1704 41.4537 18.8512C41.4537 18.5453 41.7113 18.301 42.009 18.301C42.3087 18.301 42.5663 18.5453 42.5663 18.8512C42.5663 19.1704 42.3087 19.4065 42.009 19.4065Z" fill="#006A44"/>
<path fill-rule="evenodd" clip-rule="evenodd" d="M32.4932 45.9924V46.8854H51.5257V45.9924L42.1223 46.0243H41.8904L32.4932 45.9924Z" fill="#006A44"/>
<path fill-rule="evenodd" clip-rule="evenodd" d="M18.2666 54.1654H22.1086V52.3743H18.2666V54.1654Z" fill="#006A44"/>
<path fill-rule="evenodd" clip-rule="evenodd" d="M27.7402 57.355H31.7465V50.1523H27.7402V57.355Z" fill="#006A44"/>
<path fill-rule="evenodd" clip-rule="evenodd" d="M18.2666 49.4126H31.7501V48.3574H18.2666V49.4126Z" fill="#006A44"/>
<path fill-rule="evenodd" clip-rule="evenodd" d="M22.8535 57.355H27.0024V50.1523H22.8535V57.355Z" fill="#006A44"/>
<path fill-rule="evenodd" clip-rule="evenodd" d="M18.2666 51.6335H22.1086V50.1523H18.2666V51.6335Z" fill="#006A44"/>
<path fill-rule="evenodd" clip-rule="evenodd" d="M33.7814 45.2419C33.9036 45.2419 34.0391 45.2327 34.2064 45.2142V45.247L42.0064 45.2706L49.7972 45.247L49.8085 45.2142C49.9686 45.2327 50.1031 45.2419 50.2386 45.2419C52.7185 45.2419 54.9151 43.8818 56.036 41.7807H51.2342V38.8789H32.7662V41.7807H27.9717C29.0864 43.8818 31.2923 45.2419 33.7814 45.2419Z" fill="#006A44"/>
<path fill-rule="evenodd" clip-rule="evenodd" d="M61.8975 51.6335H65.7323V50.1523H61.8975V51.6335Z" fill="#006A44"/>
<path fill-rule="evenodd" clip-rule="evenodd" d="M52.2627 49.4126H65.7318V48.3574H52.2627V49.4126Z" fill="#006A44"/>
<path fill-rule="evenodd" clip-rule="evenodd" d="M57.0156 57.355H61.1656V50.1523H57.0156V57.355Z" fill="#006A44"/>
<path fill-rule="evenodd" clip-rule="evenodd" d="M61.8975 54.1654H65.7323V52.3743H61.8975V54.1654Z" fill="#006A44"/>
<path fill-rule="evenodd" clip-rule="evenodd" d="M44.418 57.3551H45.8499V52.7124H44.418V57.3551Z" fill="#006A44"/>
<path fill-rule="evenodd" clip-rule="evenodd" d="M17.6845 47.6077H31.7448V45.7005C29.7166 45.1165 28.0404 43.6918 27.1371 41.7805H18.2613V43.5891C17.356 44.2984 16.2177 44.7141 14.9726 44.7141C14.6924 44.7141 14.4091 44.6915 14.1504 44.6495C14.987 45.9777 16.2228 47.0247 17.6845 47.6169V47.6077Z" fill="#006A44"/>
<path fill-rule="evenodd" clip-rule="evenodd" d="M52.2627 57.355H56.2587V50.1523H52.2627V57.355Z" fill="#006A44"/>
<path fill-rule="evenodd" clip-rule="evenodd" d="M18.2666 57.3553H22.1086V54.8928H18.2666V57.3553Z" fill="#006A44"/>
<path fill-rule="evenodd" clip-rule="evenodd" d="M61.8975 57.3553H65.7323V54.8928H61.8975V57.3553Z" fill="#006A44"/>
<path fill-rule="evenodd" clip-rule="evenodd" d="M69.0411 44.7141C67.796 44.7141 66.6577 44.2984 65.7318 43.5891V41.7805H56.8766C55.9661 43.6918 54.292 45.1165 52.2627 45.7005V47.6077H66.3313V47.6169C67.7878 47.0247 69.0298 45.9777 69.8602 44.6495C69.5872 44.6915 69.3265 44.7141 69.0411 44.7141Z" fill="#006A44"/>
<path fill-rule="evenodd" clip-rule="evenodd" d="M38.1553 49.3997H45.8475V47.6353H38.1553V49.3997Z" fill="#006A44"/>
<path fill-rule="evenodd" clip-rule="evenodd" d="M36.4619 51.4077C36.8191 51.7536 37.3098 51.9671 37.8076 51.9671L37.823 51.9579H37.8723V51.9671H46.1404L46.1537 51.9579H46.1906L46.1989 51.9671C46.7131 51.9671 47.2048 51.7536 47.5487 51.4077C46.9164 51.185 46.3929 50.7456 46.0695 50.1523H37.9369C37.6269 50.7456 37.0901 51.185 36.4619 51.4077Z" fill="#006A44"/>
<path fill-rule="evenodd" clip-rule="evenodd" d="M32.4932 57.3558H37.4212V52.6854C36.6134 52.5509 35.8969 52.0706 35.4894 51.3428L35.2205 50.8388L35.784 50.7885C36.4933 50.7321 37.0907 50.2743 37.3565 49.6307L37.4212 49.487V47.6353H32.4932V57.3558Z" fill="#006A44"/>
<path fill-rule="evenodd" clip-rule="evenodd" d="M43.671 52.7124H40.334V57.3551H43.671V52.7124Z" fill="#006A44"/>
<path fill-rule="evenodd" clip-rule="evenodd" d="M51.5247 47.6353H46.5957V49.487L46.6583 49.6307C46.9211 50.2743 47.5246 50.7321 48.2216 50.7885L48.7831 50.8388L48.51 51.3428C48.1128 52.0706 47.4004 52.5509 46.5957 52.6854V57.3558H51.5247V47.6353Z" fill="#006A44"/>
<path fill-rule="evenodd" clip-rule="evenodd" d="M38.1553 57.3551H39.5851V52.7124H38.1553V57.3551Z" fill="#006A44"/>
<path fill-rule="evenodd" clip-rule="evenodd" d="M36.5167 32.2512V36.315H35.2459V33.6431C35.0303 33.8001 34.8405 33.8935 34.6423 33.9859C34.4576 34.0691 34.2215 34.1573 33.9238 34.2271V33.3239C34.3601 33.2038 34.6885 33.056 34.9215 32.8845C35.1638 32.7183 35.3434 32.5006 35.4789 32.2512H36.5167Z" fill="#006A44"/>
<path fill-rule="evenodd" clip-rule="evenodd" d="M40.0428 34.1255C39.936 34.2456 39.7985 34.301 39.6137 34.301C39.4474 34.301 39.3006 34.2456 39.1898 34.1255C39.0912 34.0095 39.0173 33.8289 39.0173 33.6205C39.0173 33.3885 39.0861 33.2315 39.1898 33.1258C39.3006 32.9954 39.4361 32.9543 39.5952 32.9543C39.7677 32.9543 39.9175 33.019 40.0428 33.134C40.1608 33.251 40.2162 33.4306 40.2162 33.6431C40.2162 33.8474 40.1608 34.0229 40.0428 34.1255ZM38.2506 35.9485C38.385 36.0922 38.5503 36.2031 38.7659 36.277C38.9629 36.3468 39.2493 36.3837 39.6004 36.3837C40.2091 36.3837 40.6864 36.2174 41.0241 35.8787C41.373 35.5451 41.5373 35.0175 41.5373 34.301C41.5373 33.8053 41.4603 33.4029 41.3043 33.1258C41.1349 32.8199 40.9194 32.5971 40.6463 32.4534C40.3692 32.3108 40.0068 32.2512 39.5573 32.2512C39.1898 32.2512 38.8706 32.3108 38.6273 32.4216C38.385 32.5284 38.1839 32.6998 38.0525 32.9123C37.8995 33.1258 37.8369 33.3752 37.8369 33.6431C37.8369 34.027 37.9745 34.3513 38.2506 34.5967C38.5349 34.8564 38.8706 34.9949 39.2688 34.9949C39.4782 34.9949 39.6537 34.958 39.8098 34.8933C39.9699 34.8245 40.1228 34.7168 40.2717 34.5926C40.2275 35.0175 40.1731 35.2864 40.0941 35.4394C39.975 35.6098 39.8159 35.6991 39.625 35.6991C39.5162 35.6991 39.4166 35.657 39.3366 35.6098C39.2565 35.5451 39.2144 35.4394 39.1734 35.2823L37.9303 35.4158C37.997 35.6293 38.1079 35.8048 38.2506 35.9485Z" fill="#006A44"/>
<path fill-rule="evenodd" clip-rule="evenodd" d="M43.453 33.2818C43.5403 33.0878 43.6932 32.9913 43.8903 32.9913C44.0997 32.9913 44.2598 33.0878 44.3512 33.2643C44.4549 33.4491 44.5011 33.8053 44.5011 34.3329C44.5011 34.6993 44.4733 34.9672 44.4436 35.1294C44.3943 35.309 44.3296 35.4209 44.2332 35.5133C44.1367 35.5831 44.032 35.6293 43.8965 35.6293C43.7097 35.6293 43.5711 35.5369 43.4664 35.3429C43.3617 35.1664 43.3114 34.8102 43.3114 34.3052C43.3114 33.8053 43.3617 33.4583 43.453 33.2818ZM42.1566 35.1612C42.2182 35.3973 42.3075 35.6098 42.4143 35.7545C42.559 35.9629 42.753 36.1199 42.9809 36.2174C43.2231 36.318 43.5311 36.3837 43.9088 36.3837C44.5811 36.3837 45.0636 36.2174 45.3345 35.8787C45.6168 35.5451 45.7503 35.0042 45.7503 34.2867C45.7503 33.9582 45.7092 33.6431 45.623 33.3475C45.5747 33.2038 45.5131 33.0611 45.4495 32.9543C45.39 32.825 45.2863 32.7183 45.1621 32.5971C45.0379 32.5006 44.888 32.4216 44.6889 32.3528C44.4928 32.282 44.2527 32.2512 43.9396 32.2512C43.3114 32.2512 42.8454 32.4031 42.5344 32.708C42.2254 33.019 42.0684 33.5466 42.0684 34.301C42.0684 34.611 42.1053 34.8933 42.1566 35.1612Z" fill="#006A44"/>
<path fill-rule="evenodd" clip-rule="evenodd" d="M49.9367 36.315H46.1758C46.2127 35.9947 46.3513 35.6796 46.5689 35.3788C46.7804 35.0924 47.2022 34.7506 47.7935 34.3513C48.1671 34.1071 48.3991 33.9356 48.5017 33.8053C48.5992 33.6852 48.6403 33.56 48.6403 33.4491C48.6403 33.3331 48.6033 33.2089 48.5017 33.134C48.4042 33.0416 48.2759 33.019 48.1168 33.019C47.9577 33.019 47.8212 33.0416 47.7309 33.1391C47.6272 33.2315 47.5636 33.3885 47.5174 33.6205L46.2682 33.5333C46.3226 33.2089 46.4119 32.9677 46.5443 32.787C46.6664 32.6248 46.8512 32.4719 47.0904 32.3939C47.3305 32.3015 47.66 32.2512 48.0809 32.2512C48.5233 32.2512 48.8682 32.2923 49.1073 32.3847C49.366 32.4586 49.5518 32.5971 49.6842 32.787C49.83 32.9718 49.8895 33.1904 49.8895 33.4029C49.8895 33.6534 49.8197 33.8792 49.6534 34.1071C49.4964 34.3236 49.2079 34.569 48.7809 34.8328C48.5233 34.9949 48.358 35.1017 48.2759 35.1663C48.1846 35.231 48.0932 35.309 47.97 35.4117H49.9367V36.315Z" fill="#006A44"/>
<path fill-rule="evenodd" clip-rule="evenodd" d="M31.2979 62.988H33.2286L35.7424 66.6771V62.988H37.6845V69.6723H35.7424L33.2389 65.9966V69.6723H31.2979V62.988Z" fill="#006A44"/>
<path fill-rule="evenodd" clip-rule="evenodd" d="M39.0781 62.988H41.0089L43.5165 66.6771V62.988H45.4606V69.6723H43.5165L41.0212 65.9966V69.6723H39.0781V62.988Z" fill="#006A44"/>
<path fill-rule="evenodd" clip-rule="evenodd" d="M51.1936 62.988H53.2537V66.9686C53.2537 67.3628 53.188 67.7323 53.0668 68.0844C52.9416 68.4354 52.7486 68.7413 52.4869 69.0051C52.2262 69.2648 51.9501 69.4496 51.6616 69.5563C51.2613 69.7041 50.7748 69.778 50.2143 69.778C49.891 69.778 49.5338 69.7596 49.154 69.7134C48.766 69.6672 48.4468 69.5748 48.1881 69.4444C47.9294 69.311 47.6903 69.116 47.4799 68.8665C47.2633 68.6212 47.1196 68.3574 47.0395 68.0977C46.9102 67.6718 46.8496 67.2981 46.8496 66.9686V62.988H48.9005V67.0569C48.9005 67.4223 49.0072 67.7097 49.2094 67.913C49.4116 68.1121 49.6908 68.2137 50.0501 68.2137C50.4073 68.2137 50.6906 68.1162 50.8897 67.9181C51.095 67.7138 51.1936 67.4275 51.1936 67.0569V62.988Z" fill="#006A44"/>
</svg>
