<svg width="88" height="62" viewBox="0 0 88 62" fill="none" xmlns="http://www.w3.org/2000/svg">
<path fill-rule="evenodd" clip-rule="evenodd" d="M83.9946 20.8804C84.0477 20.8721 84.0776 20.8904 84.0876 20.9269C84.3491 21.5031 84.6737 22.0162 84.9253 22.6023C84.6563 22.7377 84.4761 22.9602 84.1806 23.0681C84.0286 22.7891 84.4579 22.7368 84.506 22.4637C84.5675 22.1175 84.3175 21.8144 84.0876 21.5786C83.6783 21.7123 83.3794 21.9572 82.9699 22.0909C82.9965 22.2968 83.0738 22.4521 83.2025 22.5567C83.4367 22.6322 83.5579 22.3557 83.7156 22.5102C83.7588 22.692 83.3976 22.7858 83.2025 22.8813C82.9807 22.9917 82.764 23.1569 82.5971 23.1146C82.4659 22.8996 82.8902 22.8962 82.9234 22.6953C82.9209 22.4811 82.7906 22.3931 82.7366 22.2296C82.3314 22.4753 81.81 22.6065 81.4796 22.9286C81.5751 23.2682 81.7046 23.5737 81.9462 23.7663C82.2393 23.8402 82.5548 23.6061 82.6909 23.8128C82.4942 24.0196 82.1089 24.0378 81.8059 24.1391C81.5859 23.5347 81.0479 23.0067 81.0146 22.3699C81.2122 22.2462 81.1043 22.5102 81.3401 22.4637C82.2252 22.0751 83.0423 21.6201 83.9008 21.2059C83.8858 21.0514 83.8933 20.9194 83.9946 20.8804Z" fill="#336D80"/>
<path fill-rule="evenodd" clip-rule="evenodd" d="M44.423 55.6553C44.3051 56.0647 44.4421 56.7289 44.33 57.1456C44.8091 57.1249 44.731 56.7604 45.1677 56.7729C46.208 56.8019 45.724 58.9307 44.6098 58.122C44.6057 57.9485 44.8091 57.9817 44.7493 57.7501C44.6646 57.6795 44.3682 57.6795 44.2835 57.7501C44.076 58.7663 45.9606 58.5886 46.1449 57.843C46.4422 56.6491 45.24 56.3943 44.5625 56.8185V55.9343C44.971 55.8264 45.9307 56.1784 45.959 55.7018C45.5397 55.5939 44.9195 55.6861 44.423 55.6553ZM48.1002 55.608C47.8777 56.0057 47.6103 56.3254 47.3554 56.6799C47.1329 56.9879 46.8274 57.3125 46.7502 57.7501H47.9607C47.9449 57.9211 48.0005 58.1627 47.915 58.2615C47.7731 58.3063 47.4426 58.1627 47.4493 58.3553C47.5887 58.4367 47.8652 58.4035 48.1002 58.4018C48.3476 58.4001 48.6747 58.4782 48.7528 58.3088C48.7312 58.1743 48.4007 58.3503 48.38 58.2158C48.2969 58.1278 48.3459 57.9086 48.3326 57.7501C48.4879 57.7036 48.8399 57.853 48.8457 57.6571C48.7802 57.5209 48.3991 57.7002 48.3326 57.5641V55.608H48.1002ZM43.166 58.3088C43.6019 58.0049 43.7455 56.7147 43.445 56.0738C43.2075 55.5648 42.2121 55.3664 41.816 55.9343C41.5329 56.3411 41.6168 57.2669 42.1415 57.3773C42.5715 57.4188 42.8771 57.3366 43.166 57.2378C43.2349 57.9169 42.7011 58.6501 42.1415 58.122C42.1855 57.9958 42.3947 58.034 42.3283 57.7966C42.1705 57.6446 41.8384 57.6978 41.7695 57.8895C41.8144 58.6152 42.8763 58.5106 43.166 58.3088ZM40.0468 55.608C39.9314 55.8496 39.4631 55.74 39.302 55.9343C39.3676 56.0713 39.7495 55.8911 39.8135 56.0273V58.2158C39.703 58.3371 39.2821 58.1486 39.2555 58.3553C39.4274 58.4383 39.7321 58.4018 40.0003 58.4018C40.2817 58.4018 40.6288 58.4774 40.7458 58.3088C40.6387 58.1818 40.2361 58.3528 40.1862 58.1693C40.1796 57.54 40.1962 56.8019 40.1862 56.2133C40.1829 56.0082 40.2684 55.7301 40.0933 55.608H40.0468ZM52.5702 51.7914C52.7139 52.0512 52.8882 52.2787 53.2676 52.3036C53.4877 51.8403 53.4918 51.162 53.6413 50.6273C52.9862 50.7178 52.8708 51.348 52.5702 51.7914ZM56.2947 50.1151C56.665 50.6913 57.1449 51.1579 57.7834 51.4659C57.986 51.1969 58.0989 50.5759 57.9237 50.2089C57.5094 50.0595 56.7041 49.9806 56.2947 50.1151ZM25.0566 47.5554C23.7299 48.0444 24.8881 49.7365 25.7557 49.6501C26.0537 48.7834 25.2127 48.2753 25.0566 47.5554ZM20.5409 46.8107C20.1789 46.9485 19.7057 46.9859 19.5629 47.3221C19.7472 47.6501 20.0535 47.8568 20.4014 48.0204C20.6704 47.8668 20.8763 47.621 21.0996 47.4151C21.3172 47.2142 21.6692 47.0249 21.6584 46.6239C21.2981 46.3615 20.8663 46.6862 20.5409 46.8107ZM44.6563 45.4599C44.8539 46.3599 44.3599 46.7949 43.4915 46.7634C43.606 46.5135 44.1764 46.4952 44.0037 46.1116C43.7414 45.914 43.4309 46.3134 43.2125 46.1589C43.4001 45.7712 44.2428 46.0402 44.2835 45.5064C44.1216 45.2349 43.7837 45.4209 43.5388 45.4599C43.0921 45.5304 42.6446 45.5786 42.2345 45.6467C42.1963 46.0261 42.672 45.8924 42.7467 46.1589C42.7451 46.3117 42.6039 46.4412 42.5143 46.5766C42.4454 46.6828 42.2137 46.8555 42.374 46.9029C42.6355 46.9444 42.8704 46.5766 43.0265 46.8107C42.9136 47.1005 42.5375 47.1278 42.1888 47.1818C42.1581 46.7841 42.5923 46.188 42.002 46.1589C41.7903 46.8954 41.9431 48.0403 42.0493 48.7659C42.5815 48.6705 43.1253 48.6671 43.631 48.5326C43.9398 48.4504 44.2204 48.2603 44.516 48.2063C44.741 48.1657 45.0307 48.2279 45.2607 48.1598C45.4683 48.0984 45.5563 47.929 45.7265 47.9274C46.0163 47.9241 46.3284 48.1823 46.4712 48.4396C45.4135 48.6323 44.4463 48.604 43.5388 48.8116C43.0788 48.917 42.6479 49.1371 42.1888 49.2309C41.6051 49.3496 41.0173 49.2973 40.4195 49.4633C40.4029 49.6975 40.4478 49.8702 40.5125 50.0221C40.8264 49.9441 41.1527 49.7382 41.5827 49.6966C41.7729 49.6775 41.9572 49.729 42.1415 49.6966C42.3897 49.6526 42.7484 49.3787 43.0265 49.3704C43.2316 49.3645 43.4973 49.2915 43.5388 49.6501C43.1071 49.7 42.8057 49.8793 42.374 49.9291C42.1747 50.7444 42.2843 51.945 42.4678 52.6756C42.7891 52.5784 43.0971 52.473 43.445 52.3966C43.7837 52.3227 44.2503 52.1409 44.5625 52.2098C44.7634 52.2555 44.839 52.4846 45.0283 52.6283C45.4426 52.9462 45.9947 53.2011 46.4712 53.3273C46.5841 52.1683 46.267 50.5468 46.7037 49.6501C46.443 49.5098 46.0686 49.4177 45.68 49.3704C45.5123 49.3504 45.2732 49.4534 45.1677 49.2774C45.1885 48.9677 45.5048 49.02 45.7265 48.9984C46.6638 48.9054 47.5605 49.1761 48.287 49.1844C48.238 48.7983 48.1135 48.4886 47.915 48.2537C47.5829 48.3018 47.0947 48.4172 46.844 48.3923C46.8673 48.0743 46.761 47.8859 46.7967 47.5554C46.6389 47.4334 46.301 47.4915 46.1923 47.3221C46.2794 47.1461 46.3118 46.9145 46.4712 46.8107C46.8183 46.7534 47.2882 46.8198 47.4958 46.6239C47.4916 46.2237 47.2832 46.0294 46.9827 45.9257C46.9013 46.3424 46.2736 46.5467 46.1449 46.1116C46.052 45.7961 46.3766 45.6068 46.5634 45.4134C46.1341 44.8546 45.2109 45.3221 44.6563 45.4599ZM22.3101 44.3897C21.8651 45.0971 22.3832 46.0419 22.6821 46.5766C22.7294 46.6862 22.9362 46.6339 23.0092 46.7169C22.8913 47.2557 22.8764 48.0967 22.4505 48.2063C22.0818 48.3018 21.8236 47.8884 21.3786 47.8809C21.4816 48.6181 22.2803 49.0582 22.8689 49.4633C23.4152 48.7219 23.5381 47.5571 24.0794 46.8107C24.3658 46.8647 24.5983 46.9743 24.8706 47.0432C25.1504 46.7327 25.275 46.3491 25.6154 46.1116C25.8229 45.968 26.131 45.9829 26.2206 45.6932C25.7125 44.4935 23.7988 44.4536 22.3101 44.3897ZM34.8793 44.9011C34.9241 44.8139 35.2612 44.5723 35.2521 44.4818C35.2404 44.3789 34.2998 43.8193 34.0872 43.9239C33.7834 44.4254 33.9278 45.3769 33.6231 45.8792C32.7987 46.0012 31.8804 46.0635 31.0626 46.0651C30.6691 46.9626 31.2943 47.8111 31.6214 48.5326C31.7144 48.7385 31.7011 48.9453 31.8539 49.0906C32.2848 49.069 32.8493 48.8008 33.2503 49.0449C33.1291 50.404 33.1441 51.6593 32.5986 52.6283C32.7314 52.83 33.2412 52.8748 33.5293 52.7694C33.5733 51.8545 33.6788 51.1205 33.8556 50.3949C33.976 49.9009 34.0142 49.3811 34.274 48.9984C34.9798 48.9602 35.5095 49.0972 36.1363 49.1379C36.1936 48.9469 36.309 48.8133 36.3223 48.58C36.6344 48.2238 37.008 47.9299 37.2995 47.5554C37.5303 47.5222 37.7129 47.44 37.7661 47.2291C37.3078 46.4595 36.5423 46.0178 35.3916 45.9257C35.1757 45.9082 34.8436 46.0303 34.6933 45.7862C34.7738 45.4881 34.7382 45.1776 34.8793 44.9011ZM55.1307 43.5985C54.9572 44.0617 54.9929 44.7326 54.8509 45.2266C54.3968 45.3262 53.8729 45.5711 53.4536 45.5529C53.3283 45.1726 53.6047 45.0174 53.6413 44.6687C53.2112 44.6022 52.9945 44.3208 52.4764 44.3424C52.3461 44.9119 52.6051 45.4831 52.6624 46.0186C52.3486 46.325 51.8737 46.4711 51.4062 46.6239C51.5407 46.8464 51.5914 47.1528 51.8255 47.2756C52.2871 47.1013 52.4399 46.6181 52.9887 46.5301C53.2544 46.6538 53.3706 46.9244 53.6869 46.9967C53.4428 47.078 53.4279 47.3894 53.4536 47.7406C53.2602 47.7514 53.2344 47.6659 53.0817 47.7406C52.9106 47.8958 52.8799 48.1906 52.6624 48.3002C52.5777 47.944 52.9156 47.6277 53.0352 47.3221C52.9671 47.1735 52.7512 47.1727 52.5702 47.1362C52.3785 47.4018 52.2547 47.9423 52.0571 48.3002C51.9758 48.4479 51.8346 48.4621 51.8255 48.6256C51.8164 48.7867 51.9542 48.9328 52.0115 49.0906C52.244 49.1047 52.3975 48.8498 52.5702 48.9511C52.5188 49.274 52.239 49.3645 52.151 49.6501C52.2838 49.7797 52.2988 50.0287 52.5229 50.0686C52.9048 49.9042 53.1008 49.514 53.4536 49.3247C53.6056 49.2425 53.7841 49.2699 53.9202 49.1379C54.0531 49.3413 54.4076 49.0457 54.4308 49.3704C53.5225 50.013 52.3627 50.4048 51.3124 50.9063C51.2917 51.1454 51.4926 51.1612 51.4984 51.3721C52.4216 50.8366 53.3947 50.3517 54.5711 50.0686C54.8186 50.3874 54.9929 51.2019 54.6641 51.5589C54.4632 51.6992 54.063 51.6403 53.7334 51.651C53.8679 52.0803 54.42 52.1558 54.8036 52.3036C55.0925 52.414 55.3939 52.659 55.7351 52.6756C55.9444 51.7615 55.3972 50.9005 55.4097 49.8826C55.7733 49.4783 56.6559 49.5472 57.4114 49.4633C57.8365 49.4168 58.4534 49.4484 58.7614 49.4168C58.8893 49.0482 58.6709 48.6447 58.4351 48.4861C57.5858 48.6912 56.6941 48.8556 55.7816 48.9984C55.7684 48.8332 55.692 48.7302 55.7816 48.58C55.9759 48.5559 55.9875 48.7153 56.2009 48.6721C56.4616 48.5609 56.6285 48.355 56.9 48.2537C56.9299 47.9266 57.0087 47.6493 57.3184 47.6019C57.5061 47.7979 57.2935 48.0063 57.2246 48.2063C57.443 48.3458 57.6705 48.4762 58.0632 48.4396C58.0291 47.8369 57.6738 47.5563 57.179 47.4151C56.9531 47.4699 56.8145 47.8568 56.6202 47.7879C56.7879 47.3196 57.0835 46.9801 57.4114 46.6712C57.3035 46.5301 57.1848 46.4014 56.9457 46.3906C56.6858 46.55 56.6683 46.9518 56.3404 47.0432C56.181 46.6413 56.6567 46.496 56.5737 46.0186C56.4417 46.0112 56.3794 45.9331 56.2474 45.9257C55.9527 46.286 55.9402 47.1669 55.5027 47.2291C55.467 47.0066 55.5757 46.9294 55.5492 46.7169C55.3798 46.6231 55.1091 46.6289 54.9904 46.4844C55.2627 46.149 55.2561 45.8542 55.7351 45.5064C56.3105 45.0871 57.7385 45.0805 57.0851 44.3424C56.6642 44.4536 56.1386 44.8887 55.7351 44.7151C55.7875 44.3482 55.9585 44.1008 56.0606 43.7844C55.8721 43.6242 55.452 43.4739 55.1307 43.5985ZM20.7742 42.7599C20.5334 42.926 20.6247 43.5478 20.7742 43.7379C21.6659 43.5096 22.4795 43.8683 23.1952 44.0169C23.6618 44.114 24.0952 44.1066 24.5917 44.1564C25.9168 44.2892 27.021 45.1261 27.9434 45.4599C28.3378 45.1585 28.1534 44.6413 28.0355 44.1564C25.9707 43.3353 23.0715 43.3486 20.7742 42.7599ZM71.7498 42.8994C71.6294 42.7699 71.5497 42.4544 71.3305 42.5739C71.1969 42.8737 71.1902 43.3021 71.1911 43.7379C71.6311 43.7429 71.8287 43.5071 72.1218 43.3652C72.1326 43.1476 71.8769 43.0356 71.7498 42.8994ZM62.9982 41.7354C63.3701 42.6354 63.6092 43.6682 63.8351 44.7151C63.6449 44.9958 63.3535 45.1527 63.0447 45.3204C62.7408 45.4856 62.3854 45.5852 62.1596 45.8327C62.3464 46.2511 62.5822 46.6206 62.9982 46.8107C63.1767 46.5193 63.5519 46.1913 63.9754 46.2976C63.9637 48.1017 63.2348 49.0324 62.0193 49.5563C62.4975 49.7896 63.1634 49.5613 63.6034 49.4633C64.1339 48.7062 64.4353 47.7206 64.8131 46.8107C65.5412 46.7816 65.8335 47.1868 66.5359 47.1818C66.9302 47.4699 67.1826 47.9016 67.5604 48.2063C68.3317 48.1208 69.059 47.9539 69.6078 47.7406C69.9166 47.6218 70.3027 47.5089 70.306 47.1362C69.5646 46.9253 68.7908 47.0481 68.0718 46.9502C67.4632 46.8672 66.9078 46.6048 66.3955 46.3906C65.8658 46.1706 65.283 45.9904 64.9999 45.5529C65.1568 45.3619 65.2805 45.0904 65.5113 44.809C65.7189 44.5549 66.0825 44.3407 66.1166 44.1099C66.1573 43.8376 65.9215 43.5951 65.7911 43.3187C65.3112 43.5536 65.0065 43.9629 64.5341 44.2029C64.285 43.3353 63.9928 42.51 63.8351 41.5494C63.5528 41.434 63.131 41.5494 62.9982 41.7354ZM24.3584 42.2476C24.3833 42.4137 24.6946 42.6345 24.8241 42.7599C25.006 42.9359 25.1919 43.1966 25.4294 43.1327C25.94 42.6594 25.5133 41.5486 25.2426 41.131C24.7967 41.1251 24.3235 42.0094 24.3584 42.2476ZM73.4718 40.1538C73.1297 40.7125 72.7561 41.3784 72.4946 41.8757C72.6025 42.011 72.8981 42.0633 73.0998 41.9687C73.3696 41.4016 73.4261 40.6195 73.891 40.2459C74.3385 40.6693 73.8429 41.0919 73.7051 41.4099C73.8221 41.4639 74.0247 41.4323 74.0313 41.5959C73.6411 42.4942 73.0716 43.2124 72.4481 43.8774C72.4887 44.085 72.6764 44.1448 72.8673 44.2029C73.5066 43.5246 74.004 42.7018 74.6831 42.0617C74.9712 42.4245 75.5789 42.7682 75.4735 43.2722C75.3863 43.6873 74.537 43.8675 74.3103 44.1564C74.7802 44.3116 75.2535 44.1581 75.7068 44.0169C76.0372 43.9148 76.4225 43.8376 76.5445 43.5985C76.3112 42.6835 75.6927 42.1538 75.1945 41.5029C75.4038 41.1534 75.7441 40.935 76.0787 40.7117C76.4233 40.4825 76.8658 40.3422 77.0568 39.9669C76.8243 39.7768 76.4241 39.5535 76.1726 39.5942C75.9376 39.6324 75.6379 40.0583 75.3813 40.2924C75.0758 40.5714 74.8027 40.8387 74.5428 40.9442C74.4282 40.4062 74.8367 40.0018 74.8682 39.4547C74.0604 39.4605 73.7756 39.6581 73.4718 40.1538ZM17.7014 36.7547C17.1095 37.2022 16.5897 37.722 15.9795 38.1512C15.5885 37.8589 15.1791 37.5858 14.6287 37.453C14.4668 37.6946 14.3672 37.9984 14.3032 38.338C14.5374 38.4908 14.8445 38.5721 15.0015 38.8038C14.6843 39.4049 14.1994 39.2837 13.5585 39.0354C13.0761 38.8494 12.6867 38.4459 12.3007 38.524C11.9146 38.6012 11.6647 39.2654 11.5094 39.5942C11.2886 40.0599 11.052 40.5041 11.184 41.038C11.707 41.0712 11.7843 40.3696 12.0682 40.0134C12.4194 39.5742 12.9151 39.2064 13.3717 39.688C13.37 39.9495 13.2995 40.1421 13.1857 40.2924C12.9989 40.2999 12.8013 40.1521 12.6734 40.2459C12.49 40.8155 13.3543 40.7042 13.4647 41.131C12.9441 41.0778 12.6178 40.8296 12.162 40.7117C12.0375 40.8196 11.9719 41.0753 12.0682 41.2704C12.4634 41.3394 12.8237 41.4448 12.9989 41.7354C12.7714 42.1522 11.7627 42.8612 12.6734 43.1792C13.062 42.9002 13.2538 42.4245 13.6507 42.1547C14.0774 42.3024 14.3074 42.647 14.7225 42.8064C14.852 42.642 14.8944 42.3888 14.9076 42.1082C14.7458 41.8674 14.3821 41.8275 14.2559 41.5494C14.7034 41.5834 14.8487 41.9197 15.2804 41.9687C15.5162 41.8749 15.3518 41.4589 15.3742 41.3634C15.7429 41.2945 15.8948 41.0147 16.2585 41.038C16.7143 41.067 17.0754 41.6316 17.0032 42.0152C16.8388 42.8828 15.317 43.6151 14.8147 43.9239C14.2949 43.7612 14.1571 43.2157 13.7901 42.8994C13.561 43.5603 13.8673 44.0169 14.0699 44.5292C14.1588 44.7525 14.1131 45.0165 14.3497 45.0871C15.6499 44.5101 16.7774 43.7595 17.8409 42.9459C17.9032 42.8687 18.1049 42.9309 18.1664 42.8529C18.3739 42.3058 17.9447 41.9205 17.6541 41.5959C16.9633 40.8263 16.2502 40.0932 15.3278 39.6407C15.5021 39.1965 15.9837 39.2405 16.3979 39.4082C16.8795 39.6033 17.2888 40.1729 17.7014 40.2459C17.9397 40.0508 17.9804 39.6564 17.9804 39.2222C17.5611 38.9599 17.1136 38.7224 16.7242 38.4302C17.1228 38.0383 17.6657 37.7892 18.1664 37.4995C18.1232 37.1399 17.997 36.8626 17.7014 36.7547ZM57.2719 36.5687C56.988 36.812 56.5845 36.9996 56.1544 37.174C55.8041 37.3151 55.4263 37.4679 55.0834 37.5924C54.3578 37.8565 53.5126 37.9918 53.0817 38.5696C54.2772 38.6684 55.4612 38.3745 56.5737 38.1512C57.6979 37.9254 58.8735 37.7585 59.6929 37.2197C58.9955 36.8934 58.1063 36.758 57.2719 36.5687ZM72.4016 36.196C72.2911 36.5364 71.7556 36.895 71.9823 37.267C72.341 37.2994 72.2073 36.8394 72.4946 36.8012C72.9122 36.9515 72.429 37.6414 72.0753 37.7319C71.9026 37.7768 71.6826 37.7411 71.5174 37.6854C71.3654 37.3948 71.5705 37.0976 71.563 36.8012C71.4285 36.6999 71.1462 36.763 71.0516 36.8477C71.0541 37.1715 71.0931 37.4588 71.1446 37.7319C70.7743 38.1064 70.3633 38.4418 69.7016 38.524C69.5173 38.9283 69.5837 39.585 69.3753 39.9669C70.0304 40.6154 71.0009 40.9475 71.563 41.6889C71.5987 41.9039 71.3405 41.9911 71.4709 42.1547C71.9084 42.1879 71.9715 41.6623 72.1218 41.4099C72.7154 40.4145 73.5498 39.4148 74.4963 38.8494C74.5544 38.4767 74.8965 38.1512 75.1945 38.1977C75.8097 38.2948 75.3764 39.0744 75.241 39.3617C75.9501 39.1707 76.3311 38.6518 76.8243 38.2442C76.3527 37.6373 75.0692 37.922 74.4041 38.1512C73.9043 37.5327 73.5008 36.8186 73.2393 35.9635C72.8499 35.9311 72.6805 36.1179 72.4016 36.196ZM51.2203 35.6837C50.9156 36.2333 50.3817 36.553 50.0562 37.0802C50.2705 37.2329 50.4224 37.4372 50.6142 37.6389C50.7885 37.8224 50.9969 38.1487 51.2203 38.1977C51.5366 38.2674 52.1833 38.0375 52.6167 37.9187C53.075 37.7925 53.5034 37.6265 53.8729 37.4995C54.8152 37.1765 55.6945 36.91 56.1544 36.4284C54.7953 35.8946 52.958 35.839 51.2203 35.6837ZM38.3713 36.7547C38.5133 36.4318 38.7233 36.1769 38.6968 35.6837H37.4398C37.5452 36.2458 37.9238 36.5339 38.3713 36.7547ZM49.4045 35.6372C49.4394 35.9278 49.7499 35.9436 49.6826 36.3354C50.1227 36.2948 50.3111 36.0017 50.4747 35.6837C50.0496 35.7335 49.6129 35.2403 49.4045 35.6372ZM64.3017 30.3767C63.8566 30.8118 63.3344 31.554 62.8579 32.0987C61.463 33.6936 59.8399 35.0486 57.9702 36.1495C58.4741 36.2674 58.9499 36.4135 59.4596 36.5687C59.942 36.7149 60.5091 36.9897 60.9956 36.988C61.4423 36.9855 62.0334 36.7099 62.5789 36.5214C65.1992 35.6206 67.4309 34.4757 69.5613 33.2635C70.4621 32.7513 71.3621 32.2979 72.0296 31.6337C69.6302 31.0385 66.9825 30.6914 64.3017 30.3767ZM26.4996 33.6355C25.4103 32.6234 24.3559 31.5441 23.5207 30.2829C21.181 30.5976 18.3756 30.8492 16.2111 31.4943C16.2444 31.7201 16.5117 31.882 16.6777 32.0057C18.178 33.129 19.8061 33.9144 21.5654 34.7995C22.9511 35.4961 24.5568 36.2366 26.175 36.7547C26.781 36.949 27.4527 37.1923 27.9434 37.174C28.3187 37.1599 28.7786 36.9714 29.1531 36.8477C29.5258 36.7248 29.9958 36.6053 30.1776 36.2889C28.7222 35.6729 27.5831 34.6417 26.4996 33.6355ZM45.0748 31.2145C45.2242 29.5374 42.9086 29.3829 42.5608 30.6565C42.1822 32.689 44.9427 32.6923 45.0748 31.2145ZM54.4781 29.3987C54.4242 29.407 54.4275 29.4726 54.4308 29.5382C53.7517 31.4162 52.9223 33.4545 51.872 34.8925C51.8205 34.9622 51.6163 35.2046 51.7782 35.1714C53.1456 35.3798 54.5022 35.5318 55.8281 35.7302C56.2723 35.7974 56.817 36.0083 57.179 35.9635C57.3973 35.9361 57.8432 35.6463 58.1562 35.4512C59.1201 34.8493 59.9918 34.0855 60.7166 33.4495C61.8508 32.4532 62.9442 31.4503 63.6034 30.2373C60.6618 29.8578 57.5318 29.6669 54.4781 29.3987ZM71.0051 23.0216V23.161C71.1836 24.6406 71.1927 26.4414 71.1446 28.0031C71.128 28.5427 71.1595 29.0923 70.9578 29.5382C70.36 29.3771 70.301 28.6747 70.306 27.9092C69.8394 27.7083 69.9158 27.1313 69.7481 26.6996C69.6842 26.5352 69.5472 26.3932 69.4691 26.233C69.3695 26.0312 69.3139 25.8635 69.2358 25.675C68.1681 25.6576 67.2972 25.4409 66.2552 25.3952C65.8575 27.0607 65.2639 28.5303 64.5806 29.9118C66.8979 30.2065 69.1918 30.6482 71.4709 30.982C71.8237 31.0335 72.2355 31.1597 72.4946 31.1215C72.8981 31.0625 73.505 30.5187 73.798 30.2373C74.6781 29.3929 75.3573 28.2721 75.9866 27.118C76.6242 25.949 77.2461 24.6098 77.2428 23.0216H71.0051ZM55.2229 23.0216C55.1531 25.1711 54.8435 27.0798 54.4781 28.9338C57.7028 29.1704 60.9284 29.4045 63.9289 29.8645C64.4528 28.8433 65.1709 27.5854 65.5587 26.3268C65.6956 25.8793 65.8966 25.2549 65.8376 24.8373C65.8019 24.5849 65.5039 24.4147 65.4648 24.1391C65.4067 23.7356 65.7313 23.5106 65.5113 23.1146C65.2158 22.8489 64.7791 22.9286 64.3946 22.9286C61.3402 22.9286 58.2433 22.8987 55.3167 22.8813C55.2511 22.8945 55.2627 22.9834 55.2229 23.0216ZM44.33 22.8348C44.2204 23.6268 44.3142 24.6198 44.2835 25.4891C46.3832 25.631 47.9366 26.7726 48.9387 28.1417C49.2883 28.6199 49.6951 29.1928 49.8238 29.725C50.2406 31.4602 49.5872 33.1423 49.4967 34.8925C50.0122 34.89 50.4199 34.9946 50.9405 34.9855C51.5623 34.2042 52.0995 33.3399 52.5702 32.425C53.0335 31.5233 53.5466 30.5395 53.6869 29.3522C52.6084 29.231 51.1306 29.2775 50.1484 29.2127C50.2372 29.0367 50.2688 28.8051 50.4282 28.7005C51.5922 28.732 52.7521 28.7669 53.8729 28.8408C54.342 27.089 54.8069 25.0905 54.6641 22.8813C51.1953 22.8904 47.8245 22.8007 44.33 22.8348ZM10.8577 22.7418C10.7987 22.7609 10.763 22.8024 10.7647 22.8813C10.729 24.1582 11.0329 25.0133 11.4165 25.9075C12.0458 27.3746 12.8511 28.4622 13.884 29.5855C14.1654 29.891 15.1335 30.9671 15.5137 31.0285C15.7063 31.0592 16.0999 30.9023 16.4444 30.8425C18.7426 30.4415 21.0067 30.1642 23.1952 29.7715C22.1723 27.9856 21.2914 25.6535 21.1926 22.7891C19.9049 22.819 18.4935 22.7268 17.283 22.8348C17.1867 23.0689 17.2498 23.4259 17.3287 23.6268C17.992 23.8211 19.1735 24.5044 18.9584 25.3023C18.7974 25.9017 17.6201 25.7008 17.0032 25.954C17.0381 26.2687 16.9276 26.4389 16.9559 26.7452C16.7309 26.8009 16.4876 26.8855 16.3979 27.118C16.2958 27.3829 16.4652 27.671 16.4444 28.0031C16.4245 28.3144 16.2568 28.6681 16.1646 28.9338C16.0509 29.2684 15.9662 29.6046 15.7462 29.7715C15.3452 29.7765 15.0646 29.4925 14.8612 29.1662C14.4427 28.4912 14.1629 27.9831 13.7445 27.3048C13.5394 26.9702 13.2355 26.5991 13.1857 26.3268C13.0686 25.6941 13.3509 24.9967 13.5585 24.4645C13.7727 23.9124 14.099 23.4118 14.1637 22.7891C13.0496 22.7858 11.9063 22.8115 10.8577 22.7418ZM22.4031 19.1111C22.0337 20.0293 21.7697 21.053 21.7514 22.3233C22.0818 22.4271 22.6007 22.3416 23.0092 22.3698C22.8689 21.7148 23.3745 21.4856 23.4742 21.1593C23.5804 20.8081 23.4351 20.4436 23.2874 20.0418C23.1039 19.977 22.9162 19.9181 22.8689 19.7155V19.1111H22.4031ZM19.6094 19.5304C20.1797 19.64 20.8854 20.0518 20.4944 20.6935C20.5625 20.828 20.677 20.9144 20.8207 20.9733C20.3682 21.234 19.7472 21.3279 19.4234 21.7172C19.2208 21.6716 19.2872 21.3577 19.0979 21.2988C18.7401 21.4142 18.3059 21.4898 17.9339 21.6251C17.591 21.7496 17.1302 21.8957 17.0962 22.3233H21.0996C21.1021 21.1137 21.4185 19.9737 21.6127 19.1111C21.152 19.0173 21.1586 19.3793 20.8207 19.2971C20.3275 19.1775 20.7401 18.4046 20.2154 18.226C19.7937 18.4411 19.7422 19.0247 19.6094 19.5304ZM54.1992 17.5278C54.0971 17.0521 53.941 16.3289 53.6413 16.2708C53.4644 16.2376 53.4129 16.309 53.3141 16.3173C51.9027 16.4443 50.3751 16.4095 48.8457 16.4576C47.3613 16.5041 45.8336 16.4925 44.33 16.5506C44.2536 18.4768 44.2362 20.4594 44.1897 22.4163H54.7579C54.7696 20.8197 54.5139 19.0015 54.1992 17.5278ZM58.6684 16.8296C58.4766 16.5315 58.1072 15.9038 57.7369 15.9454C56.7804 16.0541 55.7351 16.1421 54.5246 16.1778C54.7546 18.0592 55.1548 20.1713 55.1764 22.4163H65.2315C65.1535 22.1083 65.0456 21.8268 64.9069 21.5786C64.7774 21.4748 64.4204 21.5985 64.3482 21.4383C64.1381 20.8754 64.3199 20.2369 63.8351 19.9023C63.5129 19.679 62.911 19.6341 62.4386 19.6234C62.2352 19.6184 61.9637 19.7006 61.7403 19.6699C61.2688 19.6043 60.8785 19.2107 60.6237 18.8778C60.299 18.4544 60.1778 17.9014 59.7851 17.4813C59.5701 17.4987 59.7104 17.8724 59.4132 17.8076C59.0586 17.5951 58.9092 17.204 58.6684 16.8296ZM63.5561 15.3866C62.5581 15.6606 61.2762 15.6506 60.2044 15.8524C60.2077 16.3895 60.6212 16.8429 61.0429 16.5506C61.1874 16.7374 61.5203 16.8703 61.6009 17.1559C61.6598 17.3634 61.5718 17.5984 61.6009 17.8076C61.7013 18.5249 62.138 18.9583 62.8579 19.1111C63.0281 19.0787 63.0181 18.8678 63.0903 18.7383H64.7674C65.3984 17.6083 63.9911 16.1388 63.5561 15.3866ZM75.334 17.5743C74.4274 16.2633 73.314 15.0777 71.9823 14.1761C69.6626 14.6485 66.7841 14.9665 64.3017 15.4323C64.427 15.9711 64.8812 16.3322 65.1394 16.8761C65.4217 17.4714 65.4499 18.4344 66.3034 18.505C66.765 18.6071 66.8588 17.9288 67.3736 18.0401C67.7497 18.1223 67.6667 18.6711 67.8402 19.0181C68.0718 19.4855 68.7368 19.8675 69.2823 20.2751C69.8735 20.716 70.3973 21.0987 70.8656 21.3918V22.5101H77.1498C77.0543 20.4461 76.2406 18.8853 75.334 17.5743ZM54.2457 15.7121C54.7488 15.722 55.2627 15.7062 55.7351 15.6656C56.2117 15.6265 56.6783 15.6124 57.0395 15.4323C56.4965 15.0495 55.9751 14.8569 55.4097 14.4559C54.7754 14.0059 54.3237 13.1524 53.4071 13.1051C53.6604 14.0001 53.8895 14.9208 54.2457 15.7121ZM61.0886 14.0366C60.9998 14.568 60.1728 14.3621 60.3439 15.1533C61.2405 15.1765 62.4851 15.199 63.1376 14.8278C62.5606 13.9453 61.8408 13.2089 61.0886 12.5006C60.9815 12.9623 60.7988 13.7128 61.0886 14.0366ZM56.3404 8.96213C56.2341 8.94469 55.9934 8.99368 55.8755 9.00862C55.5027 9.05678 54.8352 9.08749 54.7579 9.47439C55.1457 9.69026 55.6538 9.55326 56.0149 9.75418C56.2341 9.8754 56.2358 10.1203 56.4799 10.1726C56.9075 10.0871 57.3956 10.063 57.5509 9.70769C57.1532 9.64459 56.7099 9.0219 56.3404 8.96213ZM70.6796 13.1524C70.0669 12.6526 69.4691 12.2532 68.7701 11.8489C66.5242 10.5479 63.899 9.46858 61.1824 8.63667C60.7316 8.49885 59.6614 8.09452 59.3193 8.21739C58.7614 8.41748 57.9951 8.52043 57.5044 8.86997C57.6937 9.34902 58.7556 9.88038 59.2272 9.56738C59.4696 9.40631 59.3617 9.10327 59.5526 8.91563C60.05 8.88408 60.3704 9.02855 60.5772 9.28841C60.5639 9.44616 60.6129 9.66535 60.5298 9.75418C61.0238 10.0987 61.1799 10.7804 61.1351 11.6629C61.9628 12.3852 62.5241 13.2122 63.2771 14.0831C63.5179 14.3621 63.8367 14.7739 64.0684 14.8278C64.2568 14.8718 64.6612 14.7672 64.9999 14.7348C67.1718 14.5223 69.3653 14.1802 71.1446 13.6638C71.1429 13.4015 70.8515 13.2927 70.6796 13.1524ZM54.6176 7.70596C55.6895 8.07957 56.2283 8.44488 57.4114 8.21739C57.697 8.16177 58.0765 8.0912 58.2026 7.84544C56.5388 7.44526 54.6857 6.98613 52.8484 6.9139C53.2369 7.26012 53.8804 7.44775 54.6176 7.70596ZM34.367 7.70596C34.1869 7.74332 33.8091 7.96749 33.7153 7.61214C33.8265 7.21113 34.4251 7.29748 34.6468 7.00689C32.978 6.98447 31.5259 7.5781 29.9451 7.79812C30.2789 8.22404 31.2719 8.06712 31.3881 8.59018C31.5384 9.26766 30.5097 9.14561 30.2706 9.66037C30.2639 9.9933 30.6517 9.93186 30.7363 10.1726C30.1112 11.208 30.2465 13.0038 30.0381 14.4559C29.2427 14.421 28.7902 14.729 28.5486 15.2471C26.8159 14.323 24.6481 13.2562 21.9374 13.4787C21.3064 13.5293 20.5841 13.5742 20.0759 13.5708C20.0867 13.1316 20.193 12.7879 20.4487 12.5928C21.0282 12.5156 22.1267 12.665 22.0768 12.1744C21.5978 12.0805 20.5841 12.367 20.4944 11.8946C20.3914 11.3516 21.4907 11.3931 21.8444 11.1033H22.3101C22.4455 10.9755 22.4637 10.7306 22.5899 10.5919C23.2135 10.4026 23.788 10.6218 24.3584 10.4981C24.5776 10.4508 24.8839 10.2465 25.1031 10.1261C25.3613 9.98499 25.5847 9.77577 25.8013 9.66037C25.8204 9.84302 25.8196 10.0456 25.9882 10.0788C26.4182 10.0273 26.6034 9.7326 26.7794 9.4279C27.5897 9.30585 28.1468 8.9339 28.8733 8.72966C29.1722 8.85004 29.1672 9.2743 29.432 9.4279C29.8629 9.26849 30.156 8.97209 30.5495 8.77615C29.9011 8.63916 29.2925 8.23483 28.5951 8.21739C28.1244 8.20494 27.4154 8.42745 26.8259 8.59018C25.1695 9.04515 23.5215 9.71599 22.1233 10.3586C20.3948 11.1548 18.6529 12.0349 17.283 13.0586C17.0987 13.1956 16.7641 13.2886 16.7699 13.5708C17.4391 13.7884 18.2228 13.8789 19.0049 13.9901C19.7771 14.1005 20.5633 14.1935 21.1926 14.4559C21.1636 14.5821 21.2524 14.8245 21.1453 14.8743C19.3287 14.6601 17.5894 14.3662 15.8857 14.0366C14.73 14.8137 13.7661 15.9329 12.8594 17.1559C11.8988 18.451 10.768 20.168 10.8577 22.276H14.3032C14.691 21.7455 15.1509 21.0506 15.0015 20.1348C14.7416 19.8674 14.0658 20.0161 13.6507 19.9023C13.6423 19.552 13.7328 19.3004 13.698 18.9243C14.7084 18.647 15.3875 18.0392 15.1874 16.5506C15.8832 16.1836 16.8305 16.1247 17.4681 15.7121C17.6965 15.5651 17.8036 15.3351 18.0277 15.2006C18.6064 15.0387 19.4757 14.8503 19.6094 15.5269C20.3657 15.6091 21.3139 15.4987 21.8909 15.7594C22.5949 17.1442 23.7158 18.2169 24.9645 19.0646C26.2248 19.9206 27.7159 20.5914 29.432 20.9733C29.4412 21.2133 29.4038 21.4981 29.4794 21.6716C30.1975 21.6683 30.249 22.3059 29.9451 22.8348C30.1377 23.0448 30.2108 23.3761 30.1776 23.812C30.1079 24.022 29.8339 24.0278 29.7127 24.1856C29.5931 24.8431 28.6043 25.1628 28.0355 24.697C28.6059 24.4263 28.8168 23.0722 27.8961 23.0216C27.7566 23.5654 26.8292 23.5679 26.2206 23.4873C26.155 23.2067 26.5718 22.8663 26.4066 22.8348C25.3597 22.8273 24.2986 22.8065 23.5663 23.1146C23.3704 23.0789 23.421 22.7949 23.1952 22.7891H21.7979C21.8651 24.9577 22.3259 26.6987 23.0549 28.282C23.2267 28.6556 23.7058 29.5482 23.9864 29.6328C24.1857 29.6918 24.536 29.5764 24.8706 29.5382C27.0459 29.2924 29.0418 29.1173 31.2013 29.0268C31.2669 29.1654 31.501 29.3771 31.4346 29.4925C29.0252 29.6901 26.5569 29.8288 24.3584 30.2373C25.1803 31.6138 26.3211 32.7263 27.5241 33.7285C28.7354 34.738 30.0946 35.6538 31.7144 36.2425C31.7418 36.4633 31.8871 36.812 31.8065 36.988C30.8468 36.631 29.9277 37.1557 29.1531 37.4065C30.1278 37.7361 31.1515 38.015 32.3188 38.1512C32.1619 33.1257 31.9344 28.1699 31.8065 23.1146C31.6845 22.9892 31.2752 23.1503 31.1556 23.0216C31.198 22.4437 31.0577 21.6832 31.2486 21.2523H34.0424V23.0216H33.4363C33.423 28.1608 33.2943 33.1838 33.2968 38.338C33.5526 38.3936 33.8573 38.4642 34.1819 38.524C34.4675 38.5755 34.9067 38.7465 35.0653 38.4775C34.9084 38.152 33.5027 38.1196 33.7153 37.4995C33.8614 37.0752 34.8129 37.6506 35.1591 37.7784C35.7594 38.0009 36.3463 38.1628 36.8345 38.2442C37.1816 38.0673 37.9587 37.7178 37.9056 37.2197C37.8748 36.939 37.4871 36.7688 37.2538 36.5214C37.1035 36.3628 36.8702 35.8962 36.6029 35.824C36.4825 35.7916 36.1529 35.8464 35.9503 35.8697C35.2728 35.9485 34.5887 36.1719 33.9951 36.0565C33.9727 35.8896 33.9195 35.7875 33.9951 35.6372C34.6975 35.501 35.5385 35.5052 36.1828 35.3117C35.7876 34.7289 35.1483 33.8098 34.8328 32.9837C34.7431 32.7479 34.4783 32.2689 34.8328 32.0987C35.1209 32.2365 35.2438 32.586 35.3916 32.8434C35.8756 33.6861 36.2999 34.557 36.9275 35.2188C37.605 35.2445 38.1455 35.1332 38.6503 34.9855C38.6179 33.3856 37.5685 32.3112 36.2758 32.0057C36.1844 31.833 35.9769 31.7782 35.7635 31.7267C36.0699 30.6208 36.8511 29.9898 38.1853 29.9118C39.1501 27.6012 40.6271 25.8046 43.631 25.5347V22.8348H37.9985V23.6268C37.6341 23.7796 37.3011 23.9481 37.0205 24.1856C36.8121 24.3624 36.6917 24.6339 36.4617 24.7908C35.9154 24.7626 35.4214 24.6829 35.1591 24.3716C35.0329 23.8585 35.2537 23.3271 35.5775 23.1146C35.6033 22.985 35.9536 23.1793 35.8573 22.9286C35.8274 22.6936 35.3085 22.9493 35.2056 22.7891V22.3698H36.2758C36.1554 21.5338 36.6959 21.2988 37.0678 20.9268C37.3493 20.6454 37.6258 20.1713 38.045 20.4146C38.021 21.0265 37.6523 21.2938 37.6722 21.9505C37.7627 22.0319 37.9155 22.0493 38.045 22.0909C38.2875 22.4512 38.9699 22.3233 39.6283 22.3233H43.5388C43.5081 20.4138 43.6002 18.3813 43.4915 16.5506C43.2067 16.544 43.1345 16.7524 42.8406 16.7374C42.7525 16.637 42.7642 16.4402 42.6537 16.3646C42.8854 16.1147 43.1585 15.9072 43.445 15.7121C43.611 15.2745 43.8526 14.7166 44.144 14.3621C44.3234 14.1437 44.6248 13.8241 45.0283 13.9901C45.1212 14.7722 44.5052 15.2313 44.33 15.8989H53.4071C53.8115 15.2322 53.2826 14.7764 53.0817 14.3621C52.8069 13.7942 52.7172 13.1175 52.3834 12.6866C51.1132 12.5762 50.3991 11.6953 49.8694 10.9174C49.7233 10.7023 49.6104 10.435 49.4045 10.2664C48.7428 10.151 48.1434 10.4923 47.4958 10.5454C47.4019 10.4209 47.2741 10.4267 47.123 10.3586C46.9893 10.298 46.8257 10.2382 46.7037 10.1726H44.1897V13.7103C43.9871 13.6804 43.6642 13.7709 43.5388 13.6638V10.2191C43.2482 10.1909 42.9227 10.0572 42.7011 10.2191C42.5516 10.3196 42.5782 10.5479 42.4678 10.6841C42.3283 10.8576 42.0394 10.9182 41.8625 11.0568C41.4914 11.3474 41.1759 11.9419 40.6055 11.8489C40.5017 11.5484 40.5864 11.061 40.559 10.6841C40.3573 10.6783 40.2992 10.8161 40.1406 10.7314C39.9563 10.2307 39.1435 9.96341 38.7898 10.4981C38.7184 10.8177 38.9533 10.8327 38.9292 11.1033C38.3472 11.6073 37.2903 11.6372 36.4617 11.8946C36.2459 12.3446 36.1205 12.8875 36.1363 13.5708C35.8532 13.707 35.6655 13.937 35.2521 13.9436C35.1068 13.8714 35.0279 13.7336 35.0188 13.5243C34.8951 13.5235 34.7448 13.5501 34.739 13.4314C34.7929 12.083 34.7382 10.4591 34.3214 9.4279C34.0374 9.30751 33.5575 9.38389 33.5758 8.96213C33.7003 8.69894 34.2616 8.87163 34.5995 8.82265C34.8071 8.63003 34.9656 8.21988 35.3442 8.1709C35.595 8.13852 35.81 8.34525 36.1363 8.26389C36.4144 8.19415 36.5938 7.78483 36.8819 7.70596C37.0446 7.6603 37.2123 7.72257 37.3933 7.70596C38.1912 7.63124 38.7267 7.36307 39.1625 7.05338C39.4075 6.8782 39.6233 6.69472 39.8135 6.49546C37.7627 6.58678 36.0923 7.3448 34.367 7.70596ZM53.6869 7.84544C52.0248 7.25015 50.0729 6.8425 48.2405 6.44813C48.2297 6.39251 48.1882 6.4199 48.1475 6.44813C48.1292 6.51455 48.091 6.52701 48.1475 6.58844C48.1982 6.91473 48.6465 6.97451 48.9861 7.1937C49.192 7.32737 49.3231 7.59056 49.544 7.65864C49.8645 7.75744 50.3892 7.7043 50.801 7.75245C51.6437 7.84876 52.2772 8.04138 52.8957 8.35687C53.2311 8.52874 53.5748 8.83095 53.7807 8.86997C54.2282 8.95299 54.8318 8.70641 55.1307 8.63667C54.8111 8.18584 54.2125 8.03308 53.6869 7.84544ZM44.1897 8.86997C44.5666 8.89571 45.054 8.81351 45.3545 8.91563C45.2043 8.98371 45.0806 9.16305 44.8888 9.24109C44.687 9.32412 44.3035 9.22615 44.2835 9.52088C44.6281 9.68859 45.1569 9.61387 45.6335 9.61387C46.1225 9.61387 46.6315 9.6338 47.0765 9.61387C47.4053 9.59893 47.7955 9.60474 47.9607 9.4279C47.8993 8.63335 46.4214 9.14229 46.4712 8.26389C47.3098 8.23317 48.2347 8.28963 48.7054 7.89111C48.4049 7.52414 47.9507 7.2103 47.4958 6.9604C47.0449 6.71298 46.5169 6.46225 46.0055 6.30948C45.553 6.17166 44.7402 6.31446 44.1897 6.26216V8.86997ZM41.5362 6.35598C41.3644 6.4199 41.2307 6.57599 41.0705 6.63494C40.7027 6.77027 40.3174 6.78604 40.0003 7.00689C39.7363 7.19121 39.5636 7.45356 39.395 7.75245C39.5827 7.78151 39.8898 7.69102 40.0003 7.79812C40.0501 8.06546 39.9197 8.1518 39.9073 8.35687C40.52 8.278 40.8953 8.47892 41.2573 8.59018C41.9746 8.80936 42.6313 8.94469 43.5388 8.96213V6.26216C42.7966 6.21732 42.129 6.13264 41.5362 6.35598ZM87.2526 27.583C86.7793 24.7252 85.695 22.2029 84.5053 20.1813C81.9768 15.8889 78.5238 12.5015 74.5893 9.79985C70.5285 7.01187 65.9995 4.9047 60.7631 3.37621C55.0685 1.71322 47.8171 0.61065 40.3731 1.14201C38.06 1.3064 35.9171 1.54053 33.8091 1.88674C25.5108 3.24503 18.4495 6.06124 12.7673 10.1726C9.06851 12.8485 5.75083 16.167 3.40953 20.3681C1.12136 24.472 -0.493473 30.2497 1.12883 36.3354H6.94722C5.90941 34.3154 5.08995 32.0954 5.17796 29.2601C5.25932 26.6846 6.0464 24.1615 7.04104 22.1838C8.00828 20.2577 9.37155 18.6013 10.812 17.0164C11.1558 16.637 11.5875 16.319 11.9752 15.9454C17.679 10.4508 25.5589 7.26593 35.531 5.98236C40.8671 5.29658 47.0923 5.42776 52.3369 6.02969C60.4692 6.96289 66.9493 9.23611 72.0753 13.1051C73.7067 14.3372 75.2535 15.8183 76.7778 17.3418C78.2905 18.8545 79.609 20.5806 80.5945 22.4628C81.6182 24.4172 82.4102 26.7602 82.4102 29.5855C82.4102 31.0044 82.162 32.3004 81.805 33.4495C81.4953 34.4483 80.9897 35.3582 80.6418 36.196C80.6119 36.2665 80.4475 36.4749 80.5945 36.5687H86.6938C87.5805 33.6604 87.7366 30.5112 87.2526 27.583ZM73.7051 48.3923C73.818 48.7634 74.253 48.849 74.5428 48.9984C75.471 49.475 76.5138 49.9399 77.4296 50.4414C75.1771 52.5652 72.3509 54.4664 68.8166 55.4694C65.2689 56.4748 60.2675 56.2465 57.0851 54.9106C57.0146 55.4054 57.4803 55.7384 57.7369 56.0738C58.3978 56.9364 59.0545 57.8447 59.6929 58.7738C59.8092 58.944 60.0375 59.0967 59.9719 59.3325C55.33 60.5605 49.7623 61.4281 43.9572 61.4281C41.1078 61.4281 38.2833 61.037 35.624 60.6833C32.9324 60.3255 30.3378 59.9818 28.1759 59.1C28.6499 57.9618 29.5781 57.144 30.2706 56.1676C30.4956 55.8505 30.743 55.4918 30.7828 55.0966C29.1381 55.5532 27.1439 55.9576 25.0566 56.0738C22.9229 56.1933 20.829 55.9293 19.0979 55.3291C15.7545 54.17 12.9624 52.2131 10.4857 50.3484C10.9856 49.783 11.7585 49.5281 12.441 49.1844C13.1301 48.8373 13.7951 48.4529 14.4892 48.1598C14.3921 47.9232 14.0666 47.9523 13.884 47.9274C10.2948 47.4301 7.74509 46.0294 5.55074 44.1099C4.37179 43.0787 3.36636 41.928 2.52531 40.6187C0.899685 38.0873 -0.119861 34.3511 0.0113185 30.1434C0.0727569 28.1816 0.487051 26.2795 0.989352 24.6505C1.99561 21.3827 3.64366 18.6262 5.55074 16.2708C7.43125 13.9503 9.74018 11.8389 12.2542 9.98665C17.234 6.31944 23.2184 3.67095 30.2706 2.07189C33.8589 1.25824 37.6382 0.821534 41.7695 0.629746C48.5693 0.313421 55.1847 1.32882 60.3904 2.77096C65.821 4.27454 70.5435 6.37341 74.6358 9.1946C78.7281 12.0158 82.1819 15.3658 84.7851 19.7155C85.9997 21.7463 87.128 24.2952 87.671 27.1645C88.2215 30.072 88.1011 33.6122 87.1587 36.4284C87.1479 37.1873 86.6863 38.343 86.321 39.1757C84.135 44.1622 79.7609 47.4143 73.7051 48.3923Z" fill="#336D80"/>
<path fill-rule="evenodd" clip-rule="evenodd" d="M44.7477 4.86558C45.607 4.84233 45.6195 1.41922 44.5609 1.83932C43.8361 2.12825 43.9515 4.888 44.7477 4.86558ZM44.5609 1.60685C46.0952 1.25732 46.1567 5.07314 44.7477 5.09888C43.4268 5.12296 43.3546 1.88167 44.5609 1.60685Z" fill="#336D80"/>
<path fill-rule="evenodd" clip-rule="evenodd" d="M48.2381 1.70011C48.1783 2.00813 48.3801 2.30121 48.2381 2.53783C47.9533 2.4656 48.0596 2.00315 47.8196 1.88691C47.5141 1.93009 47.2277 1.75075 46.9811 1.88691C46.8167 2.18663 46.8914 2.72712 46.8416 3.14308C46.9196 3.23275 47.27 3.20286 47.353 3.14308C47.5116 3.09908 47.3456 2.73128 47.5398 2.72463C47.7009 2.80351 47.6436 3.1547 47.6328 3.37638C47.6229 3.5856 47.6179 3.9177 47.4933 3.9808C47.2908 3.93597 47.4809 3.49677 47.3065 3.42204H46.8416C46.7594 3.7915 46.7984 4.27969 46.7486 4.67987C46.7378 4.90819 47.0575 4.80524 46.9811 5.09832C46.6689 5.0842 46.2804 5.1473 46.0969 5.00533C46.0753 4.78199 46.3601 4.86585 46.3767 4.67987C46.3958 3.75248 46.4705 2.88072 46.5161 1.97907C46.551 1.74245 46.2023 1.88857 46.2828 1.60712C46.8109 1.57889 47.6395 1.64448 48.2381 1.70011Z" fill="#336D80"/>
<path fill-rule="evenodd" clip-rule="evenodd" d="M40.6976 1.65332C40.7475 1.87334 40.6179 1.91568 40.5108 1.97961C40.3157 2.95017 39.8607 3.70321 40.0924 4.86555C40.0783 5.03493 40.4071 4.8614 40.3249 5.09885C40.3722 5.31638 39.9762 5.09055 39.9537 5.23834C39.8109 5.20928 39.5519 5.29811 39.4871 5.19184C39.4265 4.99175 39.5843 5.00836 39.6731 4.95854C39.747 3.50395 39.126 2.74344 38.6494 1.84013C38.886 1.78616 39.2904 1.68819 39.5336 1.7928C39.5826 2.02859 39.3261 1.95802 39.2547 2.0726C39.4431 2.56659 39.6831 3.00995 39.8599 3.5164C40.0932 3.1129 40.1439 2.52757 40.3249 2.0726C40.3797 1.86337 40.065 2.02278 40.1397 1.7928C40.2045 1.62592 40.5117 1.70064 40.6976 1.65332Z" fill="#336D80"/>
<path fill-rule="evenodd" clip-rule="evenodd" d="M38.1857 2.6783C37.9698 2.48983 37.8179 1.84805 37.348 2.21253C37.431 3.16814 37.5356 4.10384 37.6269 5.05281C37.6618 5.26037 37.8478 5.04949 37.8129 5.28528C37.749 5.49699 37.2002 5.43306 37.0682 5.42559C37.0051 5.19146 37.2276 5.24294 37.2542 5.0993C37.113 4.16859 37.0823 3.12912 36.9279 2.21253C36.7278 2.2009 36.6456 2.21336 36.5559 2.25902C36.3102 2.38522 36.4397 2.71317 36.2305 2.8651V2.02655C36.7909 1.96594 37.3887 1.94353 37.9059 1.84058C38.1068 2.01161 38.1218 2.36944 38.1857 2.6783Z" fill="#336D80"/>
<path fill-rule="evenodd" clip-rule="evenodd" d="M53.0341 2.21251C53.2334 2.38603 53.1529 2.83935 53.1736 3.19054C52.8847 3.11582 52.9602 2.797 52.8482 2.63178C51.9075 1.24527 50.7534 5.25869 52.1034 5.37825C52.6348 5.42557 52.4936 4.92493 53.0341 4.82032C52.8614 5.33923 52.267 5.9835 51.592 5.51773C50.5019 4.76718 51.3628 1.22285 52.8947 2.35199C53.0067 2.37026 52.8689 2.14028 53.0341 2.21251Z" fill="#336D80"/>
<path fill-rule="evenodd" clip-rule="evenodd" d="M35.0673 2.25848C35.1129 2.44362 34.932 2.40294 34.834 2.44528C34.922 3.4449 35.0897 4.36233 35.2076 5.33123C35.1794 5.51388 35.5297 5.3196 35.4857 5.5172C35.5007 5.75466 34.7941 5.74801 34.6015 5.70318C34.5226 5.46988 34.7493 5.54128 34.834 5.47071C34.7186 4.51675 34.5633 3.60182 34.462 2.63126C34.4031 2.40211 34.1615 2.61216 34.1357 2.39879C34.2644 2.21115 34.951 2.15469 35.0673 2.25848Z" fill="#336D80"/>
<path fill-rule="evenodd" clip-rule="evenodd" d="M53.9187 2.35132C54.2035 2.39283 54.4534 2.46921 54.7564 2.49163C54.739 2.64523 54.7017 2.7789 54.4767 2.72493C54.4119 3.155 54.3405 3.58092 54.2442 3.9811C54.5057 4.02925 54.7548 4.09152 55.0354 4.12058C55.1666 3.78682 55.2023 3.35675 55.2687 2.95657C55.3252 2.78803 54.9574 2.80713 55.1292 2.67761C55.2463 2.49744 55.7685 2.6801 55.9205 2.77142C55.9719 2.9931 55.6838 2.87521 55.6407 3.00389C55.5253 3.97363 55.2994 4.83459 55.1749 5.79602C55.1259 5.99113 55.4912 5.89482 55.3152 6.07582C55.2289 6.22526 54.7158 6.0343 54.524 5.98283C54.4684 5.78772 54.5946 5.77444 54.7564 5.79602C54.8702 5.35184 54.9092 4.83293 55.0354 4.40037C54.8627 4.24761 54.4949 4.28912 54.2442 4.2144C54.1014 4.61375 54.0723 5.1285 53.9652 5.56438C53.9528 5.76281 54.2525 5.64907 54.1504 5.93633C53.8648 5.88154 53.5277 5.87739 53.3135 5.75036C53.3176 5.488 53.4762 5.66816 53.5924 5.51706C53.7601 4.58303 53.9104 3.63156 54.1055 2.72493C54.0574 2.58545 53.849 2.6087 53.9187 2.35132Z" fill="#336D80"/>
<path fill-rule="evenodd" clip-rule="evenodd" d="M32.5971 2.53804C32.7963 2.69662 32.9483 3.14661 32.969 3.32927C32.6344 3.29689 32.6568 2.92411 32.3638 2.86433C31.9038 2.76802 31.5983 3.10925 31.7129 3.60823C31.8831 4.35048 33.5469 4.04162 33.4348 5.331C33.3891 5.85489 32.925 6.32896 32.1778 6.03007C32.0225 6.04418 32.3181 6.25009 32.0848 6.21522C31.8631 6.25673 31.7062 5.60913 31.6655 5.47048C32.001 5.44723 32.0308 5.97444 32.5506 5.93625C32.8843 5.91217 33.1284 5.52528 33.062 5.14502C32.9449 4.4692 31.6813 4.64438 31.3866 3.8872C31.0528 3.03121 31.7751 2.43675 32.5041 2.67752C32.4883 2.58371 32.5132 2.53223 32.5971 2.53804Z" fill="#336D80"/>
<path fill-rule="evenodd" clip-rule="evenodd" d="M56.9927 2.91089C57.2492 3.0429 57.7059 2.97316 57.8769 3.18985C57.8088 3.34096 57.7881 3.32186 57.5979 3.28284C57.3422 4.17453 57.123 5.10524 56.9462 6.07663C56.9553 6.2377 57.221 6.14305 57.1322 6.40209C56.8383 6.30827 56.3833 6.37552 56.248 6.12312C56.2031 5.95458 56.4314 6.05836 56.5269 6.03013C56.7602 5.14426 56.9371 4.20608 57.1795 3.32933C57.2193 3.11845 56.9462 3.2214 56.9462 3.05037C57.001 3.0429 56.986 2.96569 56.9927 2.91089Z" fill="#336D80"/>
<path fill-rule="evenodd" clip-rule="evenodd" d="M29.1975 3.46893C29.215 3.93387 29.352 4.27759 29.43 4.67943C29.6965 4.6346 29.963 4.59142 30.1756 4.49345C30.3881 4.08829 30.2437 3.45979 29.8966 3.32944C29.6093 3.32197 29.3769 3.36847 29.1975 3.46893ZM30.408 4.63294C30.7651 4.98911 30.7327 5.73634 30.966 6.21539C31.2109 6.24279 31.0083 5.82268 31.2923 5.89076C31.3371 6.18301 31.2225 6.31585 31.1071 6.44869C30.1233 6.54749 30.5899 5.19667 30.0826 4.81891C29.958 4.76495 29.6484 4.86458 29.4773 4.9119C29.5952 5.36937 29.6583 5.87914 29.8028 6.30921C29.7754 6.47609 30.0809 6.31004 30.0361 6.49518C29.9348 6.7509 29.4856 6.65791 29.2449 6.77498C29.166 6.5259 29.3835 6.5724 29.3835 6.4022C29.2407 5.45903 28.9925 4.62214 28.8256 3.70223C28.8356 3.50463 28.4935 3.66154 28.5466 3.42243C28.6521 3.23147 28.9451 3.28959 29.1975 3.23646C29.5936 3.15343 30.0411 2.911 30.408 3.23646C30.7252 3.51708 30.8198 4.26846 30.408 4.63294Z" fill="#336D80"/>
<path fill-rule="evenodd" clip-rule="evenodd" d="M58.8998 3.37654C59.158 3.36575 59.3066 3.46538 59.505 3.51603C59.5872 4.39526 59.7624 5.18317 59.8313 6.07568C60.0173 5.8922 60.1103 5.48289 60.2033 5.14497C60.2979 4.80706 60.327 4.44507 60.4822 4.16777C60.5296 3.94942 60.2963 4.01334 60.3428 3.79499C60.4922 3.70283 60.7554 3.8282 60.9015 3.88798C60.9513 4.12377 60.694 4.05237 60.6226 4.16777C60.4059 5.1923 60.0738 6.10225 59.8313 7.10104C59.5308 7.03462 59.5889 6.6552 59.5515 6.40197C59.4469 5.69045 59.3108 4.7257 59.1788 3.98096C58.8915 4.7174 58.718 5.5684 58.4805 6.35548C58.405 6.56802 58.7072 6.50326 58.5735 6.63444C58.5087 6.84449 58.1426 6.6195 58.0156 6.58878C57.9865 6.38952 58.1841 6.41609 58.2945 6.35548C58.527 5.47043 58.7595 4.58539 59.0393 3.74849C59.0426 3.57414 58.8384 3.60735 58.8998 3.37654Z" fill="#336D80"/>
<path fill-rule="evenodd" clip-rule="evenodd" d="M27.8973 3.5166C28.0767 3.70175 28.2535 4.11189 28.2236 4.35432C27.9297 4.30617 27.9546 3.94003 27.7114 3.84206C27.3527 3.857 27.0712 3.9475 26.8271 4.07453C26.8421 4.57185 27.0206 4.90478 27.1061 5.33153C27.3427 5.33568 27.498 5.25846 27.6175 5.14555C27.684 4.95293 27.4847 4.78605 27.6175 4.68061C27.8401 4.69556 27.8434 5.07332 27.8973 5.28503C27.9546 5.50588 28.1165 5.81722 27.9447 5.93761C27.7828 5.86621 27.8168 5.59887 27.7114 5.47101C27.4947 5.45606 27.3436 5.50754 27.1991 5.56483C27.2821 6.07211 27.3959 6.54701 27.5719 6.96047C27.889 6.95217 28.1024 6.84009 28.3631 6.77533C28.6803 6.7031 28.3988 6.03475 28.6894 5.93761C28.8405 6.14351 28.7932 6.54618 28.8289 6.86832C28.2535 7.02357 27.532 7.27846 27.0131 7.33409C26.8521 7.16721 27.1186 7.16555 27.1061 7.0078C26.9459 6.0198 26.6686 5.14887 26.4079 4.26133C26.3265 4.10359 26.1588 4.30285 26.1289 4.07453C26.3199 3.85866 26.6727 3.87693 26.9666 3.79557C27.2838 3.70756 27.5578 3.58966 27.8973 3.5166Z" fill="#336D80"/>
<path fill-rule="evenodd" clip-rule="evenodd" d="M61.4138 3.98145C62.0722 4.13089 62.6434 4.36668 63.276 4.5402C63.1748 4.78014 63.1922 5.13881 63.0901 5.37792C62.8269 5.29988 63.0295 4.7569 62.8111 4.63402C62.5504 4.55183 62.337 4.42397 62.019 4.40072C61.7559 4.68052 61.706 5.17368 61.5533 5.56473C61.6919 5.66353 61.8497 5.72829 61.9726 5.70421C62.2416 5.65108 62.1585 5.29988 62.3453 5.33143C62.4881 5.42525 62.3204 5.73327 62.2523 5.93668C62.1834 6.14092 62.1328 6.43566 61.9726 6.49544C61.7617 6.47468 62.019 6.23059 61.9726 6.07616C61.9352 5.86611 61.6612 5.89185 61.5076 5.7972C61.2926 6.1567 61.2179 6.65651 61.0418 7.0542C61.144 7.3398 61.6014 7.27006 61.8331 7.42615C62.2142 7.38962 62.1818 6.93796 62.5778 6.91472C62.5305 7.27089 62.2963 7.43943 62.2058 7.75244C61.7326 7.61545 61.2262 7.43943 60.762 7.28667C60.6101 7.23602 60.4059 7.27753 60.3428 7.10152C60.4316 6.98695 60.6325 6.98612 60.7156 6.86822C60.9862 6.02054 61.2644 5.18199 61.5533 4.35423C61.5292 4.17489 61.2876 4.18652 61.4138 3.98145Z" fill="#336D80"/>
<path fill-rule="evenodd" clip-rule="evenodd" d="M25.6162 4.30745C25.7598 4.4569 25.5066 4.47184 25.5223 4.63374C25.5456 5.69895 25.7772 6.7982 25.7091 7.79948C24.942 6.95263 24.5833 5.69646 23.7539 4.9127C23.9415 4.79564 24.3093 4.6437 24.4986 4.68023C24.5617 4.88282 24.3882 4.84878 24.3592 4.9592C24.7195 5.68567 25.1562 6.33492 25.5223 7.05475C25.578 6.34654 25.4053 5.46565 25.3837 4.68023C25.3629 4.4569 25.0798 4.76658 25.1504 4.49426C25.0532 4.37387 25.5448 4.25349 25.6162 4.30745Z" fill="#336D80"/>
<path fill-rule="evenodd" clip-rule="evenodd" d="M65.3708 5.23798C65.3915 5.4115 65.3973 5.93788 65.2313 6.0757C65.0387 5.91463 65.1649 5.55264 64.9988 5.37746C64.6742 5.03539 64.1038 5.34757 64.0673 5.7959C64.0208 6.38372 64.9241 6.70918 64.8585 7.5195C64.7987 8.26174 63.7468 8.76986 63.2295 7.98444C63.1664 7.97697 63.1698 8.25427 63.0892 8.07743C62.8858 8.06663 63.0303 7.8159 63.0436 7.65898C63.0535 7.53361 62.9688 7.22725 63.1366 7.23971C63.3474 7.64653 63.3342 8.18785 63.9278 8.12475C64.2292 8.09237 64.4865 7.75944 64.44 7.33269C64.3994 6.96572 63.7808 6.59543 63.6953 6.0757C63.5367 5.11261 64.5837 4.56381 65.1383 5.33096C65.2695 5.28198 65.1964 5.14665 65.3708 5.23798Z" fill="#336D80"/>
<path fill-rule="evenodd" clip-rule="evenodd" d="M22.588 5.19189C22.6386 5.20352 22.6195 5.28405 22.6801 5.28488C22.7266 5.4858 22.5058 5.42021 22.495 5.56468C22.8379 6.46301 23.1625 7.3796 23.5187 8.26465C23.6523 8.32941 23.7553 8.13762 23.7985 8.26465C23.8657 8.58844 23.2538 8.57184 23.0072 8.73042C22.8744 8.52036 23.0761 8.49047 23.1467 8.35763C22.7831 7.46346 22.5033 6.48708 22.0757 5.65766C21.9179 5.7382 21.8739 5.67178 21.7959 5.56468C21.996 5.37621 22.3812 5.37289 22.588 5.19189Z" fill="#336D80"/>
<path fill-rule="evenodd" clip-rule="evenodd" d="M68.0731 6.35581C67.9751 6.64557 67.9859 7.04408 67.7468 7.19353C67.565 7.1296 67.8141 6.67545 67.6547 6.49529C67.5052 6.25618 67.1333 6.2404 66.9099 6.07601C66.5455 6.31762 66.4931 6.8689 66.2565 7.23919C66.4284 7.34463 66.5073 7.44925 66.6766 7.426C66.9274 7.39279 66.8942 7.03246 67.0959 7.10054C67.2478 7.19685 67.0079 7.49076 66.9099 7.70579C66.8169 7.90837 66.7613 8.27368 66.5837 8.21806C66.3919 8.2056 66.6534 7.94158 66.6301 7.79878C66.6144 7.56631 66.3387 7.59288 66.2117 7.47249C65.9444 7.84195 65.7833 8.31769 65.6056 8.77598C65.8721 8.96196 66.1619 9.20605 66.4907 9.14877C66.8111 9.09314 66.8369 8.62571 67.1424 8.72949C67.0685 9.08982 66.7812 9.23843 66.6766 9.56804C66.3819 9.42524 66.0548 9.28742 65.7459 9.14877C65.4479 9.01593 65.0917 8.93622 64.9082 8.68383C64.953 8.60412 65.0361 8.56344 65.188 8.59001C65.6554 7.7855 65.99 6.84815 66.3968 5.98303C66.4143 5.81033 66.2084 5.86098 66.2565 5.65674C66.8842 5.68497 67.4554 6.16485 68.0731 6.35581Z" fill="#336D80"/>
<path fill-rule="evenodd" clip-rule="evenodd" d="M20.8212 5.98335C20.9076 6.14691 20.7864 6.13695 20.7282 6.26315C20.9508 6.73805 21.1608 7.25944 21.3792 7.75261C21.5942 8.23416 21.8906 8.69412 21.9379 9.19559C21.6199 9.18977 21.478 8.85933 21.287 8.68415C20.7299 8.1694 20.1147 7.63555 19.5177 7.1017C19.8274 7.92281 20.2201 8.66423 20.5414 9.47538C20.6485 9.57335 20.7556 9.40564 20.8212 9.56837C20.8046 9.83073 20.4833 9.78921 20.309 9.89383C20.201 9.71117 20.3663 9.7203 20.3555 9.52104C20.0026 8.64928 19.6024 7.82401 19.2379 6.96056C19.1275 6.87006 18.9856 7.0386 18.959 6.82107C19.0121 6.62596 19.301 6.66748 19.4239 6.54211C20.1437 7.09506 20.7332 7.77835 21.4265 8.35786C21.1824 7.67125 20.8578 7.06434 20.5888 6.40263C20.5041 6.24322 20.3629 6.41093 20.309 6.26315C20.3355 6.04313 20.6676 5.92772 20.8212 5.98335Z" fill="#336D80"/>
<path fill-rule="evenodd" clip-rule="evenodd" d="M18.4925 7.10091C18.583 7.26779 18.4302 7.22628 18.3987 7.37988C18.5506 8.14869 19.9895 9.4829 19.3767 10.4053C19.2422 10.6095 18.9732 10.6859 18.7715 10.6843C17.6797 10.6785 17.4306 8.3961 16.6768 8.03162C16.837 7.8498 17.0753 7.74768 17.3285 7.65884C17.4713 7.80663 17.2496 7.85395 17.2828 8.03162C17.5792 8.56464 17.8773 9.3044 18.2135 9.84655C18.3871 10.1272 19.0538 10.8188 19.2837 10.1263C19.3211 10.0151 19.2954 9.80587 19.2837 9.7079C19.2049 8.97894 18.4485 8.17028 18.3065 7.56585C18.2401 7.4463 17.9852 7.51355 17.9338 7.37988C18.0035 7.18892 18.3215 7.03948 18.4925 7.10091Z" fill="#336D80"/>
<path fill-rule="evenodd" clip-rule="evenodd" d="M71.7971 9.14892C71.2815 9.61801 70.7983 10.2274 70.3068 10.7779C70.164 10.9381 70.0204 11.1905 69.7945 11.1971C70.0586 10.4358 70.3458 9.70021 70.5858 8.91562C70.1789 9.42373 69.9066 10.0672 69.5164 10.5919C69.4832 10.7696 69.7049 10.8161 69.5621 10.9638C69.4076 11.0352 69.2316 10.7829 69.0498 10.7314C69.0955 10.621 69.132 10.5031 69.3296 10.5454C69.8327 9.74504 70.3085 8.91645 70.8191 8.12522C70.8033 7.916 70.6796 7.91683 70.8191 7.75244C71.0466 7.7732 71.1121 7.95585 71.3313 7.98491C71.0366 8.79191 70.7153 9.57235 70.4006 10.3586C71.0192 9.79818 71.5198 9.11986 72.0761 8.49634C72.3019 8.61258 72.5568 8.69893 72.6813 8.91562C72.6091 8.97208 72.5003 9.06424 72.4024 8.96212C71.861 9.75666 71.3969 10.6251 70.8656 11.4296C70.834 11.6073 71.0549 11.6538 70.9129 11.8024C70.614 11.697 70.3408 11.5674 70.1673 11.3366C70.2396 11.2802 70.3491 11.1872 70.4463 11.2901C70.9644 10.6425 71.3463 9.86044 71.7971 9.14892Z" fill="#336D80"/>
<path fill-rule="evenodd" clip-rule="evenodd" d="M32.6461 7.79858C33.1634 8.32081 33.5129 9.12781 33.8101 9.98629C34.6437 12.3948 34.8305 16.1575 33.6698 18.5055C36.0842 16.4357 38.7194 13.6593 43.5855 14.2695C42.8839 16.0438 41.5564 17.4353 39.9556 18.5055C38.3923 19.5499 36.4454 20.4109 34.1356 20.5545C33.4731 20.5952 32.7607 20.508 32.0874 20.508C30.0026 20.508 28.6418 20.2889 27.1524 19.5765C24.6641 18.3859 22.5619 16.4066 21.334 14.0836C22.5486 13.8204 23.7085 14.0279 24.7322 14.2695C27.8 14.9919 29.9976 16.8118 31.5751 19.0186C30.9765 17.6254 30.4294 15.3729 30.6444 13.059C30.7872 11.5198 31.2065 10.2628 31.8076 9.00909C32.0691 8.46527 32.1887 7.91814 32.6461 7.79858Z" fill="#336D80"/>
<path fill-rule="evenodd" clip-rule="evenodd" d="M73.2396 9.28857C73.8041 9.60905 74.2666 10.0316 74.8228 10.3588C74.6925 10.6477 74.6186 10.9931 74.3571 11.1508C74.2483 10.876 74.4692 10.7066 74.4044 10.4526C74.3255 10.1471 73.9237 10.0757 73.7053 9.89383C73.4687 9.99346 73.257 10.3471 73.0536 10.6386C73.0262 10.6776 72.8718 10.9159 72.8676 10.871C72.8776 10.9831 73.1316 11.1533 73.2869 11.1508C73.5335 11.1467 73.5119 10.881 73.7053 10.9175C73.8888 11.0122 73.5277 11.331 73.4264 11.4763C73.2902 11.6697 73.1781 12.0309 72.9598 11.9421C72.8867 11.8109 73.1117 11.6465 73.1466 11.4763C73.1092 11.2654 72.8626 11.2629 72.7746 11.1043C72.4575 11.4547 72.1993 11.8632 71.9361 12.2675C72.1544 12.4634 72.3703 12.8122 72.6808 12.8271C73.0137 12.8412 73.1109 12.4485 73.4264 12.5008C73.4206 12.7515 73.0112 12.979 72.8676 13.2455C72.5687 13.0978 72.2956 12.8761 72.0299 12.6868C71.7625 12.4975 71.4172 12.3547 71.2852 12.035C71.4122 11.9354 71.4786 12.0616 71.6106 11.9885C72.1843 11.2588 72.7007 10.4725 73.2396 9.70785C73.2545 9.4621 73.0835 9.46127 73.2396 9.28857Z" fill="#336D80"/>
<path fill-rule="evenodd" clip-rule="evenodd" d="M14.3517 10.6848C13.9905 10.7653 13.5646 10.0455 13.1877 10.5453C13.1312 11.2801 13.7473 12.2739 14.2122 12.6874C14.3807 12.8376 14.7021 13.0128 14.8631 12.9663C15.3663 12.8219 14.8664 11.9767 14.6307 11.7558C14.4281 11.6836 14.3724 11.9617 14.3044 11.7558C14.2006 11.5948 14.4937 11.4852 14.6307 11.3839C14.7635 11.2834 14.9204 11.0784 15.0491 11.1506C15.1587 11.3341 14.9619 11.2926 14.9569 11.476C15.0973 11.9435 15.5996 12.288 15.6543 12.6874C15.4742 12.8219 15.4169 12.5122 15.2351 12.5014V12.9198C14.3567 14.2956 11.7165 10.5345 13.5131 10.1725C13.6435 10.1933 13.3969 9.99986 13.5596 9.98657C13.8328 10.0306 14.1209 10.4449 14.3517 10.6848Z" fill="#336D80"/>
<path fill-rule="evenodd" clip-rule="evenodd" d="M73.7992 13.8508C74.2367 14.4427 74.8769 13.9911 75.2887 13.5245C75.8126 12.9317 76.6461 11.903 75.6615 11.5236C75.0313 12.2899 74.3355 12.9906 73.7992 13.8508ZM73.1475 13.5245C73.2504 13.4182 73.3027 13.4489 73.4273 13.5245C74.1247 12.8412 74.6826 12.0176 75.336 11.2903C75.3343 11.0902 75.1127 11.1085 75.2887 10.964C75.331 10.9358 75.3734 10.9075 75.3825 10.964C75.7893 11.3916 76.5664 11.5053 76.4527 12.3613C76.3514 13.1301 75.2355 14.4735 74.451 14.456C73.8349 14.4411 73.59 13.957 73.1475 13.5245Z" fill="#336D80"/>
<path fill-rule="evenodd" clip-rule="evenodd" d="M13.1396 13.3392C12.7145 12.7555 12.2272 12.2333 11.7905 11.6629C11.5879 11.6612 11.5763 11.7326 11.4642 11.6156C11.5306 11.4221 11.7689 11.1938 11.9299 11.2445C12.0321 11.3416 11.9059 11.3773 11.9299 11.5234C12.414 12.1162 12.9038 12.7671 13.4194 13.3857C13.5722 13.57 13.8428 13.7269 13.8379 13.9909C13.5722 14.0499 13.3688 13.8257 13.1396 13.7111C12.4455 13.3616 11.6858 13.0096 10.9984 12.6409C11.4708 13.3616 12.0844 13.9453 12.5817 14.6427C12.7569 14.6186 12.8 14.5771 12.9071 14.6883C12.8233 14.8668 12.5858 15.0952 12.4422 15.0611C12.35 14.9739 12.4281 14.8909 12.4422 14.7821C11.8859 14.0183 11.2533 13.3325 10.6729 12.5936C10.531 12.5762 10.4363 12.7165 10.394 12.5479C10.3442 12.4018 10.6588 12.2682 10.7659 12.1287C11.5713 12.5181 12.3318 12.9523 13.1396 13.3392Z" fill="#336D80"/>
<path fill-rule="evenodd" clip-rule="evenodd" d="M77.6167 12.9194C77.874 13.0871 78.2418 13.3728 78.2676 13.6177C78.1256 13.792 78.1215 13.5936 77.943 13.5712C77.2389 14.2495 76.5789 14.9693 75.8939 15.6659C75.8607 15.8452 76.1272 15.8469 75.9877 15.9922C75.8009 16.1068 75.6822 15.8178 75.5684 15.7124C75.4157 15.6601 75.1849 15.5015 75.2887 15.3404C75.4099 15.2151 75.4298 15.3969 75.5684 15.3869C76.2908 14.7285 76.9707 14.0262 77.6167 13.2914C77.6125 13.0946 77.449 13.0556 77.6167 12.9194Z" fill="#336D80"/>
<path fill-rule="evenodd" clip-rule="evenodd" d="M9.55458 13.3855C9.66666 13.4926 9.48151 13.5101 9.46076 13.618C10.0751 14.3702 10.7999 15.0095 11.4625 15.7127C11.5879 15.7019 11.6393 15.5168 11.7415 15.6197C11.7597 15.8672 11.3379 16.2898 11.0905 16.2715C10.9876 16.1694 11.1719 16.1171 11.1835 15.9925C10.5285 15.2959 9.84267 14.6326 9.18096 13.9435C9.00163 13.9659 8.99831 14.1643 8.85634 13.9908C8.82313 13.7459 9.24821 13.5831 9.36777 13.339C9.46574 13.3191 9.49148 13.3698 9.55458 13.3855Z" fill="#336D80"/>
<path fill-rule="evenodd" clip-rule="evenodd" d="M7.97222 15.1075C8.22379 15.3823 8.97434 16.0715 9.4152 16.4575C9.70578 16.7132 10.047 16.8502 10.0669 17.2487C10.0802 17.5302 9.8461 17.9096 9.55468 17.947C9.23503 17.9885 8.91788 17.8158 9.08808 17.4356C9.39029 17.3824 9.44924 17.5717 9.55468 17.7153C10.2944 17.3907 9.26326 16.7298 8.85644 16.3645C8.41475 15.9685 8.05193 15.6547 7.78459 15.433C7.60525 15.3898 7.59363 15.6148 7.45996 15.4795C7.49649 15.2038 8.19224 14.523 7.97222 15.1075Z" fill="#336D80"/>
<path fill-rule="evenodd" clip-rule="evenodd" d="M80.364 15.6667C80.3258 15.8261 80.1922 15.9955 80.0842 16.1325C79.9921 16.2487 79.8808 16.4529 79.7588 16.4114C79.6542 16.086 79.9763 15.9963 79.9448 15.6667C79.8617 14.8057 78.6736 15.3728 78.129 15.8535C77.6923 16.2379 77.3652 16.8066 77.4316 17.1561C77.5179 17.612 78.0036 17.5812 78.5483 17.5289C78.6271 17.6908 77.9422 17.8851 77.6176 17.8079C77.4216 17.7606 77.1609 17.4949 77.1053 17.2491C76.789 15.8626 79.6641 13.8385 80.1316 15.6202C80.1888 15.6891 80.2661 15.5073 80.364 15.6667Z" fill="#336D80"/>
<path fill-rule="evenodd" clip-rule="evenodd" d="M28.8733 15.4329H30.1311C30.0796 15.5209 30.0713 15.6537 30.0373 15.76H28.7803C28.7886 15.6271 28.8658 15.5657 28.8733 15.4329Z" fill="#336D80"/>
<path fill-rule="evenodd" clip-rule="evenodd" d="M34.6924 15.8062H35.5766C35.6605 15.9564 35.7169 16.1324 35.8564 16.2254C35.5915 16.3334 35.1274 16.2404 34.7854 16.2719C34.7048 16.1673 34.763 15.9224 34.6924 15.8062Z" fill="#336D80"/>
<path fill-rule="evenodd" clip-rule="evenodd" d="M6.05537 16.8306C6.19402 16.8273 6.29199 16.9676 6.19402 17.0631C6.95868 17.7738 7.95664 18.2504 8.70801 18.9727C8.49464 19.1445 8.20405 18.9776 7.96328 18.9253C7.20858 18.7601 6.36173 18.5982 5.63692 18.4131C6.08111 18.9303 6.98608 19.3928 7.59133 19.9034C7.78561 19.9133 7.81134 19.827 7.96328 19.9034C7.89105 20.1093 7.80968 20.3069 7.59133 20.3691C7.52325 20.2587 7.49336 20.282 7.54566 20.1358C6.84743 19.5148 6.00555 19.0374 5.26414 18.4596C5.12466 18.4496 5.10556 18.6323 4.98435 18.5061C4.88472 18.3085 5.14209 18.1192 5.26414 17.9946C6.1085 18.174 6.94705 18.3591 7.77813 18.5526C7.43441 18.12 6.64069 17.7356 6.14836 17.2964C5.94494 17.2765 5.99559 17.4384 5.82207 17.3429C5.705 17.1403 6.01884 17.0266 6.05537 16.8306Z" fill="#336D80"/>
<path fill-rule="evenodd" clip-rule="evenodd" d="M81.2466 16.8306C81.5447 16.9676 81.6153 17.3304 81.8519 17.5288C81.7099 17.7256 81.6651 17.601 81.4791 17.5288C80.6439 18.0585 79.8875 18.6671 79.1054 19.2516C79.1818 19.4425 79.22 19.509 79.0589 19.6235C78.9228 19.3562 78.4304 19.054 78.5932 18.7858C78.7501 18.7534 78.7459 18.8813 78.8256 18.9253C79.67 18.3723 80.4546 17.7613 81.2466 17.1569C81.1993 17.0033 81.1055 16.951 81.2466 16.8306Z" fill="#336D80"/>
<path fill-rule="evenodd" clip-rule="evenodd" d="M41.4894 18.3198C41.4844 17.9114 41.6305 17.654 42.0016 17.6208C42.1038 17.3991 42.2258 17.1932 42.4201 17.062C42.8253 17.2214 42.8111 18.1305 42.5139 18.4128C42.2233 18.6885 41.7808 18.5365 41.4894 18.3198Z" fill="#336D80"/>
<path fill-rule="evenodd" clip-rule="evenodd" d="M82.5974 18.5989C82.7692 18.6919 82.8348 18.8895 82.9237 19.0646C82.4562 19.8542 81.8684 20.5234 81.3869 21.2988C82.0627 20.9983 82.5758 20.5334 83.249 20.2287C83.3336 20.0767 83.1875 19.9837 83.3419 19.9024C83.4847 19.8467 83.7496 20.2444 83.6682 20.4155C83.4947 20.5109 83.5462 20.3482 83.3419 20.3681C82.6762 20.7999 81.949 21.1967 81.2474 21.626C81.0465 21.7472 80.8613 22.0012 80.5956 21.9506C80.5732 21.6808 80.8173 21.4641 80.9676 21.2532C81.4143 20.6255 81.9207 19.919 82.3649 19.2506C81.6683 19.5487 80.8929 20.1689 80.1299 20.5541C80.0817 20.7069 80.1598 20.7592 80.0369 20.8804C79.8559 20.8007 79.6865 20.5043 79.7114 20.3681C79.8094 20.266 79.9173 20.359 79.9904 20.4155C80.8472 19.9206 81.6758 19.4001 82.5044 18.8778C82.4612 18.6836 82.4737 18.6935 82.5974 18.5989Z" fill="#336D80"/>
<path fill-rule="evenodd" clip-rule="evenodd" d="M5.5887 21.1124C5.66176 20.9048 5.82449 20.7894 5.86849 20.5545C5.37366 20.5047 4.8971 20.1925 4.51767 20.1809C4.88797 20.4789 5.16112 20.8733 5.5887 21.1124ZM7.45094 20.5545C7.51653 20.7728 7.29818 21.0742 7.12549 21.2054C7.00842 20.9198 6.58915 20.7811 6.14745 20.694C5.90751 20.7953 5.87513 21.1041 5.72818 21.2992C6.04284 21.5333 6.29524 22.0415 6.70621 21.9045C6.76018 22.0539 6.58084 22.3229 6.42725 22.4159C6.30022 22.3877 6.36083 22.1726 6.28777 22.0904C5.55798 21.3756 4.79332 20.6981 4.05273 19.9957C4.09591 19.8679 4.19554 19.7973 4.23954 19.6694C4.51933 19.8014 5.17523 19.9525 5.72818 20.1352C6.39985 20.3569 6.94366 20.6749 7.45094 20.5545Z" fill="#336D80"/>
<path fill-rule="evenodd" clip-rule="evenodd" d="M3.59689 21.2527C3.75796 21.2469 3.81359 21.3473 3.78287 21.5316C4.45205 21.7998 5.17187 22.2241 5.83109 22.5562C6.03284 22.6575 6.37491 22.6799 6.38985 22.929C6.26365 23.1473 6.02122 22.9804 5.83109 22.9746C5.10213 22.953 4.17558 22.9547 3.45741 22.8808C3.56285 23.0635 3.79366 23.1207 3.96967 23.2071C4.44956 23.4445 5.01579 23.7326 5.5513 23.9991C5.74475 24.0074 5.69327 23.8447 5.87842 23.9527C5.85351 24.1918 5.79788 24.4002 5.59862 24.4649C5.49318 24.3927 5.51062 24.3678 5.5513 24.2316C4.81155 23.7932 3.96386 23.4611 3.22494 23.0219C2.99164 22.9846 2.99579 23.1847 2.80566 23.0684C2.8231 22.821 2.96922 22.7048 3.03813 22.5097C3.83434 22.5977 4.73599 22.5811 5.5513 22.6492C5.02492 22.2764 4.36238 22.0389 3.78287 21.7176C3.6027 21.6205 3.58195 21.9127 3.5039 21.7649C3.28389 21.6894 3.58029 21.3938 3.59689 21.2527Z" fill="#336D80"/>
<path fill-rule="evenodd" clip-rule="evenodd" d="M48.9873 24.4646H50.5233C50.6171 24.6033 50.7167 24.737 50.7092 24.9761C50.9342 25.1861 51.2298 25.3248 51.175 25.8138C51.5046 26.0803 52.5059 26.512 52.1531 27.1181C51.8251 27.6794 50.549 27.0799 50.0575 26.9786C50.0575 26.8549 50.0749 26.713 50.011 26.6523C49.6831 26.2605 49.341 25.6411 48.9873 25.1629C48.6096 24.6556 47.9312 24.2205 48.4286 23.5796C48.7573 23.7324 48.9458 24.0246 48.9873 24.4646Z" fill="#336D80"/>
<path fill-rule="evenodd" clip-rule="evenodd" d="M37.9999 28.7949V29.2133C36.6998 29.1859 35.5366 29.2955 34.2289 29.2607C33.8645 29.8493 34.5245 30.2794 34.3219 30.8431C33.7515 30.6762 33.3804 29.8925 33.6237 29.2133C33.6146 29.034 33.9159 29.1635 33.9965 29.0739C34.17 29.0456 34.1858 28.8597 34.3684 28.8414C35.5955 28.8422 36.7404 28.7617 37.9999 28.7949Z" fill="#336D80"/>
<path fill-rule="evenodd" clip-rule="evenodd" d="M57.459 30.7961C57.9322 30.9124 58.5001 30.9348 58.9485 31.0751C58.8937 31.951 58.2718 32.2624 57.5511 32.4724C57.5802 31.8539 57.4831 31.3615 57.459 30.7961Z" fill="#336D80"/>
<path fill-rule="evenodd" clip-rule="evenodd" d="M56.8073 32.4714C56.9858 33.1788 56.7724 33.8937 56.5748 34.3802C56.0683 34.4209 55.5951 34.6774 55.0853 34.5662C54.9267 34.4449 54.9342 34.1585 54.9458 33.8679C55.7064 33.5433 56.2709 33.0202 56.8073 32.4714Z" fill="#336D80"/>
<path fill-rule="evenodd" clip-rule="evenodd" d="M50.4753 35.6846C50.3118 36.0018 50.1233 36.2949 49.6833 36.3364C49.7505 35.9437 49.44 35.9279 49.4043 35.6373C49.6135 35.2413 50.0502 35.7344 50.4753 35.6846Z" fill="white"/>
<path fill-rule="evenodd" clip-rule="evenodd" d="M73.2401 37.6855C73.2003 38.0807 72.9255 38.2393 72.7752 38.5241C73.0326 39.0845 73.3447 38.4078 73.6129 38.2908C73.7134 38.3929 73.7732 38.534 73.8454 38.6636C73.2169 39.5079 72.6125 40.3789 71.9366 41.1776C71.1238 41.0804 72.121 40.1157 71.5182 39.9197C71.2965 39.9936 71.2699 40.2626 71.1454 40.4337C70.5377 40.0094 71.4343 39.2065 72.0761 39.4548C72.248 39.8832 71.8868 40.1588 71.7972 40.4793C72.3327 40.9401 72.3908 39.8724 72.5419 39.5021C73.5922 39.7271 73.2534 38.7989 72.4954 38.8039C72.4871 38.5166 72.3675 38.3414 72.4024 38.0118C72.8864 38.1322 72.8972 37.4099 73.2401 37.6855Z" fill="#336D80"/>
<path fill-rule="evenodd" clip-rule="evenodd" d="M71.6587 38.2903C71.9351 38.3094 72.0323 38.507 72.0314 38.8034C71.9227 38.8507 71.8812 38.9636 71.7043 38.9429C71.5781 38.7776 71.5374 38.4621 71.6587 38.2903Z" fill="#336D80"/>
<path fill-rule="evenodd" clip-rule="evenodd" d="M71.1911 38.4313C71.3605 38.6604 71.2326 38.9933 71.1911 39.2698C71.0384 39.2665 71.0126 39.137 70.8183 39.176C70.6232 39.3379 70.6324 39.704 70.3534 39.7813C69.9723 39.3844 70.4746 38.8721 70.5394 38.4778C70.8042 38.5101 70.9263 38.3989 71.1911 38.4313Z" fill="#336D80"/>
<path fill-rule="evenodd" clip-rule="evenodd" d="M15.2339 40.4794C14.8479 40.8488 14.1944 40.7758 13.8848 40.3855C14.0035 39.6923 15.0521 40.0485 15.2339 40.4794Z" fill="#336D80"/>
<path fill-rule="evenodd" clip-rule="evenodd" d="M24.5434 45.2738C24.741 46.031 23.6468 45.8974 23.0531 45.7861C23.0448 45.5138 23.171 45.3768 23.2856 45.2273C23.8028 45.2805 24.203 45.0165 24.5434 45.2738Z" fill="#336D80"/>
<path fill-rule="evenodd" clip-rule="evenodd" d="M45.7265 45.5067C45.8004 45.8048 45.7697 46.2091 45.8195 46.5304C45.2939 46.611 45.0424 46.9647 44.4695 46.9962C44.4512 47.4495 44.9336 47.4005 45.1677 47.6015C45.0283 47.9726 44.4446 48.0681 44.1441 47.7883C44.1847 47.6737 44.2528 47.5857 44.237 47.4147C44.1698 47.281 43.9182 47.3308 43.8643 47.1822C43.8692 47.0004 44.1457 47.0917 44.237 46.9962C44.33 46.7114 44.6596 46.8517 44.8423 46.7637C45.2408 46.572 45.191 46.3046 45.1677 45.7392C45.318 45.6255 45.4284 45.4719 45.7265 45.5067Z" fill="#336D80"/>
<path fill-rule="evenodd" clip-rule="evenodd" d="M54.6648 46.252C54.4937 46.2678 54.253 46.213 54.1525 46.2985C54.0155 46.3782 54.0861 46.6663 53.9665 46.7643C53.783 46.6223 53.6187 46.4612 53.5938 46.159C53.9416 45.9938 54.2804 45.8203 54.6648 45.6941C54.8607 45.7315 54.6722 46.1142 54.6648 46.252Z" fill="#336D80"/>
<path fill-rule="evenodd" clip-rule="evenodd" d="M36.0896 46.9033C36.141 47.3334 35.8887 47.8465 35.6238 48.1138C35.1655 48.1993 34.8284 48.1238 34.3203 48.1603C34.4374 47.6563 34.439 47.0386 34.6466 46.6235C35.1373 46.5264 35.8463 46.5994 36.0896 46.9033Z" fill="#336D80"/>
<path fill-rule="evenodd" clip-rule="evenodd" d="M33.5744 46.7173C33.5188 47.2038 33.4673 47.6961 33.3885 48.1602C33.0207 48.1968 32.6736 48.2524 32.2718 48.2541C32.0875 47.9452 32.085 47.2694 32.2245 46.9041C32.5931 46.787 33.1577 46.6318 33.5744 46.7173Z" fill="#336D80"/>
<path fill-rule="evenodd" clip-rule="evenodd" d="M45.6355 46.8569C45.6886 46.9872 45.6886 47.0993 45.6355 47.2297C45.4354 47.2587 45.3358 47.1873 45.2627 47.0902C45.2876 46.9117 45.4287 46.8527 45.6355 46.8569Z" fill="#336D80"/>
<path fill-rule="evenodd" clip-rule="evenodd" d="M54.943 48.3002C54.7089 48.3857 54.3369 48.5509 54.0588 48.4397C54.0256 48.0179 54.4797 48.0852 54.6167 47.8344C54.64 47.6576 54.6034 47.5372 54.5237 47.4617C54.2381 47.4085 54.1236 47.6152 53.9193 47.509C53.8421 47.0706 54.3303 47.0175 54.5702 47.0432C54.8035 47.3529 54.8708 47.8278 54.943 48.3002Z" fill="#336D80"/>
<path fill-rule="evenodd" clip-rule="evenodd" d="M43.2579 47.4155C43.4937 47.521 43.6647 47.692 43.7694 47.9286C43.4937 47.9934 43.233 48.0731 42.9316 48.1146C42.9673 47.8091 43.1865 47.6854 43.2579 47.4155Z" fill="#336D80"/>
<path fill-rule="evenodd" clip-rule="evenodd" d="M42.8391 47.4617C42.8241 47.8054 42.7004 48.037 42.4198 48.1142C42.2919 48.0105 42.1757 47.8926 42.1873 47.6485C42.3882 47.5704 42.6016 47.504 42.8391 47.4617Z" fill="#336D80"/>
<path fill-rule="evenodd" clip-rule="evenodd" d="M56.2483 47.5555C56.128 47.8694 56.0864 48.2621 55.6904 48.3003C55.4646 47.8453 55.9685 47.5049 56.2483 47.5555Z" fill="#336D80"/>
<path fill-rule="evenodd" clip-rule="evenodd" d="M53.4541 48.0212C53.6293 48.0943 53.6534 48.3185 53.6866 48.5335C53.4965 48.6348 53.3645 48.4729 53.2217 48.3932C53.2358 48.2064 53.3329 48.1018 53.4541 48.0212Z" fill="#336D80"/>
<path fill-rule="evenodd" clip-rule="evenodd" d="M53.2678 48.8125C53.2262 49.0026 53.0444 49.2509 52.895 49.1853C52.8402 48.8756 53.0685 48.5867 53.2678 48.8125Z" fill="#336D80"/>
<path fill-rule="evenodd" clip-rule="evenodd" d="M55.3162 49.0456C55.2241 49.3138 54.618 49.1635 54.4785 49.0456C54.6047 48.6762 55.1336 48.8514 55.3162 49.0456Z" fill="#336D80"/>
<path fill-rule="evenodd" clip-rule="evenodd" d="M44.1906 49.1848H44.3309C44.3982 49.2471 44.3982 49.4488 44.3309 49.5103H44.1449C44.0511 49.4181 44.159 49.2886 44.1906 49.1848Z" fill="#336D80"/>
<path fill-rule="evenodd" clip-rule="evenodd" d="M43.0734 51.1867C43.0592 51.3569 43.0808 51.4897 43.1207 51.606C43.7641 51.6666 44.518 51.4582 45.1224 51.3262C45.1423 51.1668 45.1033 51.0663 45.0759 50.9542C44.3221 50.7674 43.7342 51.1278 43.0734 51.1867ZM45.4479 49.6972C45.775 50.3017 45.6048 51.4026 45.7268 52.2104C45.5633 52.2926 45.3441 52.2478 45.1681 52.2104C45.2179 52.0269 45.4753 52.0527 45.4014 51.7455C44.5471 51.4358 43.4951 51.9372 42.7471 51.8849V51.0481C43.1572 50.8662 43.8007 50.921 44.0049 50.5358C44.0132 50.295 43.9758 50.0094 44.0506 49.8367H44.4233C44.3959 50.2062 44.5321 50.4113 44.6102 50.6753C45.0651 50.6645 45.423 50.5574 45.5409 50.2095C45.4595 50.0111 44.9896 50.202 44.8891 50.0235C44.8875 49.7263 45.1075 49.6507 45.4479 49.6972Z" fill="#336D80"/>
<path fill-rule="evenodd" clip-rule="evenodd" d="M43.491 50.023C43.4869 50.4223 43.1432 50.4821 42.9323 50.6747C42.777 50.3011 43.0427 49.9474 43.491 50.023Z" fill="#336D80"/>
<path fill-rule="evenodd" clip-rule="evenodd" d="M42.9337 55.888C43.1088 56.1637 43.1263 56.5971 43.1661 57.0055C42.9611 57.1483 42.624 57.3335 42.2819 57.1923C41.807 56.7125 42.1981 55.3068 42.9337 55.888Z" fill="#336D80"/>
<path fill-rule="evenodd" clip-rule="evenodd" d="M47.913 56.2141C48.0209 56.5877 47.9288 57.1614 47.9595 57.6114H46.9814C47.2455 57.0992 47.6199 56.6981 47.913 56.2141Z" fill="#336D80"/>
</svg>
