<svg width="88" height="88" viewBox="0 0 88 88" fill="none" xmlns="http://www.w3.org/2000/svg">
<path fill-rule="evenodd" clip-rule="evenodd" d="M49.1203 79.3088C49.2748 79.4456 49.4017 79.6157 49.4992 79.8199C49.5974 80.023 49.6565 80.2528 49.6778 80.5078C49.699 80.7643 49.6778 81.0008 49.6131 81.2168C49.5489 81.4336 49.4495 81.6211 49.3165 81.7809C49.1871 81.9378 49.0324 82.0643 48.8524 82.1583C48.6724 82.253 48.4767 82.3093 48.2653 82.3268C48.0406 82.3454 47.8294 82.32 47.6321 82.2518C47.4347 82.1839 47.2616 82.0801 47.1122 81.9407C46.9632 81.8051 46.8411 81.6353 46.745 81.4312C46.6499 81.2278 46.5915 81.0056 46.5716 80.7662C46.5498 80.5034 46.5714 80.266 46.6367 80.0531C46.7011 79.8404 46.7999 79.6529 46.9312 79.491C47.0617 79.3306 47.218 79.2027 47.4003 79.1076C47.5826 79.0134 47.7775 78.9572 47.9835 78.9401C48.1981 78.9222 48.4035 78.9459 48.5999 79.0102C48.7962 79.0753 48.9696 79.1743 49.1203 79.3088ZM76.7812 57.1216C76.7716 57.1464 76.7643 57.1873 76.7582 57.2466C76.7528 57.3054 76.7532 57.35 76.7603 57.3792C76.7694 57.4479 76.7783 57.4962 76.7881 57.5236C76.7972 57.5506 76.827 57.6092 76.8785 57.6987C76.9819 57.8755 77.0907 58.0436 77.2059 58.2053C77.3211 58.3667 77.468 58.5701 77.6467 58.8155C77.7121 58.9062 77.7676 58.9721 77.8149 59.0129C77.8608 59.054 77.9352 59.0968 78.0378 59.1431L78.5993 59.3959C78.6489 59.4183 78.6965 59.4278 78.7422 59.4246C78.7871 59.4211 78.8324 59.3999 78.876 59.3616C78.9005 59.3376 78.9373 59.2921 78.9865 59.224C79.0363 59.1571 79.0717 59.1009 79.094 59.0555L79.2411 59.1217L78.621 60.4983L78.474 60.432C78.4885 60.3918 78.5098 60.3316 78.5372 60.2503C78.564 60.1696 78.5784 60.1115 78.5801 60.0756C78.5801 60.0165 78.5686 59.9692 78.5407 59.9345C78.5136 59.9003 78.4735 59.8702 78.4211 59.8466L77.7058 59.5245C77.6841 59.5147 77.6377 59.51 77.5668 59.5104C77.4957 59.5115 77.4155 59.5138 77.3272 59.519C77.1293 59.5295 76.9146 59.5435 76.6836 59.5601C76.4512 59.5771 76.2517 59.5929 76.086 59.6076C75.9861 59.6178 75.9093 59.6316 75.8529 59.6489C75.7968 59.6663 75.7432 59.6906 75.6923 59.7221C75.6569 59.7462 75.6235 59.7787 75.5912 59.8204C75.5591 59.8612 75.534 59.9001 75.5143 59.9362L75.3671 59.8698L75.9318 58.6159L76.0792 58.6821C76.0182 58.8248 75.9828 58.9281 75.9737 58.9937C75.964 59.0591 75.9737 59.0985 76.0043 59.1122C76.013 59.1162 76.0297 59.1186 76.0538 59.12C76.0782 59.1207 76.1097 59.1204 76.1481 59.1199C76.1922 59.1186 76.2431 59.115 76.301 59.1113C76.3581 59.1072 76.4133 59.1041 76.4661 59.1015C76.6179 59.0915 76.771 59.0806 76.9239 59.0676C77.0758 59.0551 77.2749 59.0385 77.5208 59.0174C77.2689 58.6437 77.0704 58.3551 76.9264 58.1533C76.7825 57.9516 76.6908 57.8414 76.652 57.8238C76.6208 57.8098 76.5893 57.81 76.5596 57.8249C76.53 57.8395 76.5004 57.8638 76.4724 57.8978C76.4431 57.9323 76.4164 57.973 76.3918 58.0181C76.3669 58.0638 76.3439 58.1054 76.3215 58.144L76.1743 58.0776L76.6347 57.0554L76.7812 57.1216ZM77.1192 60.6866C77.106 60.7212 77.0891 60.7677 77.0686 60.8266C77.0478 60.8854 77.0365 60.9359 77.0351 60.9783C77.0329 61.0295 77.047 61.0731 77.0741 61.1098C77.1022 61.1462 77.141 61.1776 77.1906 61.2042L77.4122 61.3233C77.5727 61.4094 77.6814 61.467 77.7389 61.4954C77.7962 61.5234 77.8439 61.5465 77.8813 61.5629C77.8663 61.7848 77.8323 61.9945 77.7803 62.1948C77.7278 62.3949 77.6565 62.5802 77.5651 62.7504C77.4671 62.9329 77.3387 63.0894 77.1796 63.2214C77.0204 63.3544 76.8442 63.4488 76.6501 63.5073C76.4545 63.5668 76.2452 63.5844 76.0233 63.5615C75.8002 63.5389 75.5764 63.4666 75.3514 63.3457C75.1343 63.229 74.9518 63.085 74.805 62.9142C74.6577 62.7422 74.551 62.554 74.4848 62.3496C74.4195 62.15 74.3969 61.9425 74.4173 61.7261C74.4374 61.5096 74.5012 61.3017 74.6092 61.1007C74.6958 60.9395 74.7903 60.8097 74.8936 60.7113C74.9969 60.6129 75.0998 60.533 75.2038 60.4713L75.1114 60.3155L75.1978 60.1549L76.2048 60.6719L76.116 60.8375C75.9911 60.8065 75.8637 60.7833 75.7354 60.7674C75.6058 60.7518 75.4817 60.7541 75.3622 60.7738C75.2425 60.7945 75.132 60.8385 75.0312 60.9063C74.9306 60.9734 74.8443 61.0731 74.7738 61.2042C74.6969 61.3476 74.6566 61.4913 74.6545 61.6351C74.6524 61.779 74.6873 61.9234 74.7579 62.0683C74.8249 62.2103 74.93 62.3473 75.072 62.481C75.2146 62.6142 75.3883 62.7367 75.5935 62.8471C75.7739 62.9439 75.9567 63.0138 76.1402 63.0557C76.324 63.0988 76.4958 63.1097 76.6575 63.0887C76.8215 63.0697 76.9711 63.0167 77.1069 62.9287C77.2414 62.841 77.3517 62.7181 77.4369 62.5595C77.5003 62.4414 77.54 62.3248 77.5558 62.2078C77.5718 62.0908 77.5703 62.0016 77.5519 61.9404C77.4877 61.8918 77.4207 61.8488 77.3497 61.8095C77.2793 61.7712 77.2193 61.738 77.1699 61.7114L77.0128 61.627C76.9565 61.5967 76.9021 61.5781 76.8508 61.5699C76.7983 61.5622 76.7498 61.5767 76.7041 61.6142C76.6596 61.6476 76.6123 61.6992 76.5622 61.7695C76.5109 61.8402 76.4731 61.8959 76.4471 61.9376L76.3003 61.8587L76.9723 60.6077L77.1192 60.6866ZM73.8284 63.3039C74.0318 63.2699 74.2439 63.2783 74.464 63.3311C74.6837 63.3826 74.8994 63.4813 75.1111 63.6252C75.3237 63.77 75.4944 63.9352 75.6213 64.1217C75.7494 64.3079 75.8325 64.5032 75.873 64.7072C75.9136 64.9064 75.9145 65.1062 75.8752 65.3053C75.8355 65.5048 75.7561 65.6923 75.6367 65.8676C75.5097 66.0539 75.3571 66.2021 75.1799 66.3125C75.0029 66.4231 74.8133 66.4924 74.611 66.5207C74.4118 66.5513 74.2029 66.5393 73.9839 66.4855C73.766 66.4314 73.5565 66.3369 73.358 66.2018C73.14 66.0533 72.9692 65.8871 72.8448 65.7023C72.72 65.5185 72.6364 65.3237 72.5932 65.1198C72.5508 64.9174 72.5496 64.7155 72.5906 64.5138C72.6321 64.3129 72.7111 64.1261 72.8274 63.9553C72.9486 63.7772 73.0963 63.6325 73.2699 63.5204C73.4439 63.4088 73.63 63.3363 73.8294 63.3039H73.8284ZM75.5367 64.8794C75.4699 64.731 75.3753 64.5912 75.2529 64.4606C75.1298 64.3296 74.9785 64.204 74.7999 64.0823C74.616 63.9574 74.4353 63.8596 74.2573 63.7914C74.0785 63.7224 73.912 63.6855 73.7564 63.6816C73.6024 63.6777 73.4599 63.7081 73.3289 63.7718C73.1977 63.8355 73.0864 63.9351 72.9947 64.0697C72.892 64.2208 72.8395 64.3728 72.8365 64.5254C72.8335 64.6783 72.8677 64.8279 72.9381 64.974C73.0062 65.112 73.1038 65.2471 73.2312 65.3791C73.359 65.5115 73.5045 65.6333 73.6683 65.7446C73.8494 65.8679 74.0246 65.9627 74.1927 66.0289C74.3611 66.0963 74.5258 66.133 74.6876 66.1394C74.8444 66.1473 74.9893 66.1203 75.1221 66.0594C75.2547 65.999 75.3701 65.8961 75.4675 65.753C75.5591 65.6183 75.6106 65.475 75.6211 65.3236C75.6323 65.1727 75.6042 65.0242 75.5367 64.8794ZM73.7292 66.8049L74.4167 67.4762L72.789 69.3995L72.6658 69.2953C72.687 69.2655 72.7168 69.2217 72.7555 69.164C72.7949 69.1068 72.8182 69.0636 72.8263 69.0348C72.8406 68.988 72.8401 68.944 72.8241 68.904C72.8086 68.8636 72.7785 68.8248 72.7335 68.7867L70.9712 67.2951C70.9322 67.2619 70.8917 67.239 70.85 67.2271C70.8088 67.2145 70.7619 67.2205 70.7105 67.2441C70.6743 67.2593 70.6291 67.2851 70.5751 67.3216C70.5215 67.3585 70.4801 67.3915 70.4512 67.4209L70.328 67.3166L71.2073 66.2776L71.3305 66.382C71.3041 66.4156 71.2744 66.4615 71.2414 66.5221C71.2085 66.5826 71.1859 66.6274 71.1747 66.6573C71.1546 66.7085 71.1557 66.7553 71.1769 66.7987C71.1986 66.8415 71.2282 66.8786 71.2667 66.9112L72.9194 68.3101C72.9957 68.3747 73.0579 68.4212 73.1064 68.4491C73.1549 68.4772 73.2021 68.4875 73.2493 68.4797C73.2925 68.4705 73.3397 68.4424 73.3902 68.3947C73.4414 68.3475 73.5064 68.2766 73.5867 68.182C73.6232 68.1387 73.6602 68.0938 73.6969 68.0457C73.7337 67.9975 73.7659 67.9498 73.7945 67.9016C73.8214 67.8554 73.8435 67.81 73.8607 67.7657C73.8769 67.7215 73.883 67.6829 73.8782 67.6514C73.865 67.5589 73.831 67.4356 73.7769 67.2813C73.7217 67.1268 73.6711 67.0088 73.6248 66.928L73.7292 66.8049ZM70.1139 68.1695C70.3201 68.1749 70.5267 68.2237 70.7327 68.3175C70.9384 68.4099 71.1314 68.548 71.3117 68.7296C71.4928 68.9124 71.6288 69.1071 71.7179 69.3143C71.808 69.5217 71.8523 69.7292 71.8533 69.9371C71.8554 70.1405 71.8177 70.3369 71.7403 70.5246C71.6633 70.7128 71.5495 70.8817 71.3989 71.031C71.2387 71.1897 71.0606 71.306 70.8656 71.3805C70.6707 71.4554 70.4714 71.4872 70.2674 71.4765C70.0661 71.4683 69.8633 71.4167 69.6586 71.3222C69.4549 71.2275 69.2674 71.0948 69.0983 70.9242C68.9127 70.7369 68.7767 70.5411 68.6898 70.336C68.6024 70.1317 68.5575 69.9246 68.5541 69.7162C68.551 69.5094 68.5884 69.311 68.667 69.1209C68.746 68.9316 68.8592 68.7632 69.0061 68.6177C69.159 68.4661 69.3316 68.3522 69.5234 68.2752C69.7155 68.1989 69.912 68.1633 70.1139 68.1695ZM71.4903 70.042C71.453 69.8836 71.3868 69.7284 71.2915 69.5768C71.1957 69.4247 71.0712 69.2725 70.919 69.119C70.7624 68.9613 70.6036 68.8308 70.442 68.7299C70.2796 68.6282 70.1232 68.5601 69.9711 68.5265C69.8208 68.4934 69.6751 68.496 69.5343 68.5335C69.3934 68.571 69.2651 68.6476 69.1495 68.7622C69.0197 68.8909 68.9392 69.03 68.9072 69.1794C68.8751 69.3289 68.88 69.4822 68.9213 69.639C68.9619 69.7875 69.0318 69.9389 69.1317 70.0926C69.2319 70.247 69.3515 70.3943 69.4911 70.5349C69.6453 70.6905 69.7992 70.8169 69.9516 70.914C70.104 71.0123 70.2587 71.0797 70.4163 71.1169C70.5687 71.1545 70.7161 71.1557 70.8581 71.1213C70.9998 71.0873 71.1327 71.0083 71.2556 70.8864C71.3712 70.7717 71.4491 70.6408 71.4884 70.4942C71.5281 70.3483 71.5286 70.1971 71.4903 70.042ZM67.9791 70.0054C67.9479 70.0337 67.9064 70.0839 67.8555 70.1574C67.8039 70.23 67.771 70.288 67.7582 70.3298C67.7409 70.3935 67.7604 70.4715 67.8149 70.5644C67.8685 70.6572 67.9484 70.7656 68.0537 70.8898L69.558 72.6639L69.4094 72.7898L66.2605 72.0526L67.3201 73.3023C67.4386 73.4422 67.5389 73.5424 67.6202 73.6028C67.7014 73.6632 67.7742 73.6935 67.837 73.6943C67.8845 73.6972 67.9586 73.6746 68.0584 73.6269C68.1594 73.5795 68.2229 73.5446 68.2502 73.5235L68.3529 73.6446L67.3592 74.4873L67.2565 74.366C67.2848 74.3381 67.3272 74.283 67.3833 74.2014C67.4392 74.1198 67.4696 74.063 67.4747 74.0317C67.4872 73.9659 67.4725 73.8938 67.4323 73.8162C67.3921 73.7381 67.3041 73.6203 67.1698 73.4617L66.1582 72.2686C66.1136 72.2162 66.0606 72.1712 65.9974 72.1345C65.9349 72.0973 65.8763 72.0779 65.8212 72.0755C65.7487 72.073 65.6657 72.0873 65.5729 72.1196C65.4808 72.1529 65.412 72.1861 65.3662 72.2208L65.2635 72.0995L65.9553 71.513L68.8844 72.2052L67.907 71.0523C67.7873 70.9112 67.6861 70.8108 67.6038 70.7504C67.5216 70.6899 67.4529 70.6619 67.3973 70.6661C67.3468 70.6716 67.2771 70.6948 67.1871 70.7351C67.0974 70.7759 67.0334 70.8113 66.9935 70.8411L66.8906 70.7197L67.8763 69.884L67.9791 70.0054ZM66.9492 74.9001L65.8351 75.6732L65.7419 75.5388C65.7704 75.5153 65.8117 75.4809 65.8656 75.436C65.9199 75.3914 65.9538 75.3565 65.9679 75.3314C65.9958 75.2901 66.0074 75.2476 66.0034 75.2044C65.9993 75.1615 65.9806 75.1151 65.9465 75.066L65.2841 74.1113L64.0228 74.9866L64.6707 75.9206C64.7013 75.9646 64.7342 75.9972 64.7696 76.0176C64.8055 76.0375 64.8522 76.0443 64.9113 76.037C64.9405 76.0338 64.9863 76.0183 65.0493 75.9919C65.1117 75.9647 65.1595 75.9411 65.1919 75.9205L65.2852 76.0548L64.1709 76.8277L64.0778 76.6936C64.1063 76.67 64.1475 76.6357 64.2014 76.5905C64.2557 76.5463 64.2898 76.5111 64.3039 76.486C64.3309 76.4453 64.3427 76.4027 64.3391 76.3591C64.3352 76.3161 64.3164 76.2698 64.2824 76.2208L62.9386 74.2842C62.9107 74.2441 62.8769 74.2132 62.8376 74.1907C62.7974 74.1689 62.751 74.1627 62.6976 74.1712C62.6522 74.1788 62.6007 74.1926 62.5437 74.2139C62.4863 74.2346 62.4394 74.2567 62.4021 74.2786L62.3089 74.1444L63.4231 73.3711L63.5164 73.5056C63.4818 73.5314 63.4425 73.5672 63.3983 73.6123C63.3545 73.6581 63.3226 73.6935 63.3036 73.72C63.2711 73.7656 63.2603 73.8104 63.2695 73.8556C63.2799 73.9011 63.2998 73.9447 63.3284 73.986L63.9057 74.8181L65.1672 73.9428L64.6028 73.1294C64.575 73.0894 64.541 73.0585 64.5015 73.036C64.4615 73.0142 64.4153 73.008 64.3618 73.0167C64.3165 73.0241 64.2647 73.0379 64.2078 73.0591C64.1504 73.08 64.1036 73.1018 64.0664 73.124L63.9732 72.9895L65.0873 72.2166L65.1804 72.351C65.1459 72.3768 65.1066 72.4127 65.0624 72.4578C65.0186 72.5034 64.9866 72.5387 64.9678 72.5653C64.9353 72.6107 64.9244 72.6558 64.9344 72.7005C64.9443 72.7463 64.9639 72.7901 64.9926 72.8313L66.335 74.7661C66.3654 74.8098 66.3985 74.8423 66.4346 74.8624C66.4697 74.8829 66.5163 74.8897 66.5753 74.8822C66.6047 74.8791 66.6503 74.8636 66.7134 74.8372C66.7759 74.8101 66.8237 74.7865 66.8561 74.7659L66.9492 74.9001ZM60.5411 77.646L60.8829 78.5333L58.4552 79.6528L58.3877 79.5066C58.4281 79.4845 58.4803 79.4536 58.5443 79.413C58.6091 79.3722 58.6491 79.3425 58.666 79.3236C58.7 79.2825 58.7185 79.2414 58.7202 79.2004C58.7228 79.1594 58.712 79.114 58.6886 79.0633L57.7189 76.9608C57.6983 76.9157 57.6718 76.8792 57.6409 76.8507C57.6094 76.8227 57.5647 76.8093 57.5065 76.8089C57.4609 76.8082 57.4035 76.8153 57.3348 76.8307C57.2658 76.8454 57.2129 76.8606 57.1742 76.875L57.1069 76.7285L59.3698 75.685L59.6949 76.39L59.54 76.4612C59.4642 76.369 59.3535 76.2862 59.2086 76.2106C59.063 76.1354 58.946 76.1108 58.8589 76.1384C58.8134 76.1524 58.7607 76.1715 58.7005 76.196C58.6401 76.2204 58.5726 76.2498 58.4965 76.2848L58.0371 76.4966L58.5734 77.6594L58.9033 77.5073C59.0087 77.4587 59.0814 77.4125 59.1209 77.3702C59.1602 77.3282 59.1875 77.2746 59.2034 77.2111C59.2153 77.1571 59.2168 77.0922 59.2071 77.0158C59.1973 76.9392 59.1826 76.8699 59.1623 76.8078L59.3171 76.7363L59.8444 77.8802L59.6897 77.9515C59.6537 77.8881 59.6068 77.8254 59.5487 77.7623C59.4912 77.7003 59.4412 77.6585 59.3999 77.6375C59.333 77.6033 59.2683 77.5905 59.2066 77.5994C59.1449 77.6083 59.0686 77.6333 58.98 77.6741L58.6502 77.8262L59.055 78.7041C59.0955 78.792 59.1341 78.8588 59.1693 78.9038C59.2053 78.9488 59.2471 78.9764 59.2949 78.9858C59.3419 78.9956 59.399 78.9899 59.4647 78.9689C59.5297 78.9475 59.6196 78.911 59.7335 78.8586C59.7786 78.8378 59.8383 78.8102 59.9128 78.7759C59.9867 78.7417 60.048 78.7101 60.0962 78.6811C60.1455 78.6515 60.1952 78.6167 60.2443 78.5769C60.2932 78.5365 60.3234 78.4987 60.336 78.463C60.368 78.3681 60.3887 78.2374 60.3962 78.0721C60.4037 77.9054 60.4029 77.7867 60.3925 77.7144L60.5411 77.646ZM57.2843 77.5976L57.1355 77.6511C57.1036 77.6037 57.0588 77.5507 56.9992 77.4915C56.94 77.433 56.8781 77.3786 56.8134 77.3305C56.7462 77.2798 56.6785 77.2393 56.6097 77.2075C56.5412 77.1764 56.4816 77.1654 56.4312 77.176C56.385 77.1859 56.3275 77.2017 56.2586 77.223C56.1899 77.2445 56.1267 77.2654 56.0693 77.286L55.9441 77.3309L56.8234 79.7791C56.8405 79.8269 56.8664 79.8665 56.9007 79.8994C56.9346 79.9313 56.981 79.9495 57.0395 79.9526C57.0689 79.9537 57.1273 79.9475 57.217 79.9354C57.3055 79.9227 57.3731 79.9091 57.42 79.8941L57.475 80.0472L56.0297 80.5663L55.9747 80.4132C56.0141 80.3957 56.073 80.3678 56.1534 80.3297C56.2326 80.2914 56.2854 80.26 56.3125 80.2361C56.3535 80.1998 56.3785 80.1607 56.3887 80.1174C56.398 80.0739 56.3921 80.023 56.3709 79.964L55.4845 77.496L55.3595 77.5409C55.3145 77.557 55.2598 77.5785 55.1943 77.6045C55.1294 77.6301 55.068 77.6573 55.01 77.6864C54.9645 77.7095 54.9251 77.7551 54.8925 77.8242C54.8603 77.8939 54.8338 77.9683 54.8135 78.0487C54.7934 78.1291 54.7804 78.2111 54.7734 78.2958C54.7665 78.3805 54.7652 78.4485 54.7691 78.5011L54.6182 78.5552L54.3197 77.7247L56.986 76.7672L57.2843 77.5976ZM52.3733 79.1322L52.206 79.1623C52.1536 79.0509 52.0663 78.9363 51.9434 78.8209C51.8204 78.705 51.7119 78.6485 51.6191 78.6518C51.5723 78.654 51.5167 78.6593 51.4529 78.6677C51.3893 78.6759 51.3174 78.6873 51.237 78.7018L50.7067 78.7975L50.9361 80.0679L51.2988 80.0025C51.4092 79.9827 51.4924 79.9559 51.549 79.9221C51.6056 79.8874 51.6518 79.8429 51.6858 79.7881C51.7097 79.75 51.7278 79.6942 51.7395 79.6206C51.7516 79.5468 51.7542 79.4702 51.7475 79.3898L51.9171 79.3593L52.1412 80.6006L51.9714 80.6311C51.9552 80.5667 51.9268 80.4955 51.8858 80.4165C51.8449 80.3383 51.806 80.2833 51.7695 80.2514C51.7155 80.2046 51.6523 80.1767 51.581 80.1692C51.5097 80.1616 51.4265 80.1657 51.3315 80.1828L50.9685 80.2483L51.1653 81.3384C51.1741 81.3877 51.1911 81.4296 51.2178 81.4649C51.244 81.5002 51.2837 81.5251 51.3375 81.5398C51.3616 81.5465 51.4116 81.5499 51.4889 81.5517C51.5661 81.5528 51.6239 81.5511 51.6629 81.5455L51.6914 81.7037L50.3206 81.9512L50.2921 81.793C50.3365 81.7818 50.3949 81.7665 50.4675 81.7464C50.5408 81.726 50.5873 81.709 50.6081 81.6942C50.6488 81.6672 50.6762 81.6324 50.6893 81.5908C50.7029 81.5498 50.7046 81.5023 50.6949 81.4484L50.2831 79.1664C50.2742 79.1176 50.258 79.0756 50.2352 79.0407C50.2116 79.0055 50.1719 78.9812 50.1158 78.9664C50.0719 78.9544 50.0148 78.9468 49.9445 78.9445C49.8741 78.9415 49.8192 78.943 49.7784 78.947L49.7498 78.7888L52.2305 78.341L52.3733 79.1322ZM38.7336 82.1607L37.2923 81.9773L37.3126 81.8173C37.3538 81.8194 37.4127 81.8222 37.4905 81.8258C37.5682 81.8302 37.6234 81.8277 37.6563 81.8195C37.7081 81.8064 37.7476 81.7842 37.7751 81.7533C37.8016 81.7223 37.8183 81.6766 37.8261 81.6168L38.1209 79.2988C38.1276 79.2465 38.1255 79.2017 38.1132 79.1642C38.1015 79.1267 38.066 79.0925 38.0075 79.0601C37.9643 79.0365 37.9102 79.0125 37.8439 78.9875C37.7773 78.9635 37.7224 78.9471 37.6788 78.9385L37.6992 78.7783L39.1405 78.9617L39.12 79.1218C39.0729 79.1173 39.017 79.1158 38.951 79.1175C38.8852 79.1186 38.8272 79.1246 38.777 79.1329C38.7176 79.144 38.6754 79.1684 38.651 79.206C38.626 79.2443 38.611 79.2885 38.6047 79.3377L38.3101 81.6531C38.3038 81.7025 38.3101 81.7478 38.3256 81.7891C38.3423 81.8302 38.3761 81.8658 38.4255 81.8947C38.4557 81.9109 38.5055 81.9307 38.5752 81.9535C38.6443 81.9771 38.704 81.9927 38.7539 82.0006L38.7336 82.1607ZM31.2663 79.3336L30.8641 80.1952L28.374 79.2225L28.4326 79.0725C28.4764 79.0862 28.5349 79.1024 28.6085 79.1204C28.6829 79.1387 28.732 79.147 28.7574 79.1461C28.8105 79.142 28.8529 79.1269 28.8836 79.0996C28.915 79.0731 28.9402 79.0337 28.9605 78.9818L29.8029 76.825C29.821 76.779 29.829 76.7346 29.828 76.6926C29.8259 76.6504 29.805 76.6089 29.765 76.5667C29.7338 76.5335 29.689 76.4969 29.6302 76.4581C29.5718 76.4186 29.5241 76.391 29.487 76.3731L29.5458 76.2231L31.8669 77.1297L31.5845 77.8528L31.4257 77.7907C31.4395 77.6722 31.4224 77.5349 31.3764 77.3781C31.3296 77.2211 31.2662 77.1197 31.186 77.0761C31.1443 77.0531 31.094 77.0283 31.0346 77.0019C30.9751 76.9753 30.9071 76.947 30.8292 76.9165L30.358 76.7325L29.8922 77.9252L30.2305 78.0574C30.3386 78.0996 30.4223 78.1199 30.4801 78.1191C30.5377 78.1182 30.5952 78.1008 30.652 78.0682C30.6991 78.0393 30.747 77.9955 30.7953 77.9355C30.8438 77.8754 30.8834 77.8167 30.9142 77.759L31.073 77.821L30.6146 78.9941L30.4558 78.9321C30.4766 78.8621 30.4893 78.7849 30.4944 78.6993C30.4994 78.6149 30.4944 78.5498 30.4812 78.5056C30.4594 78.4337 30.4238 78.3782 30.3746 78.3399C30.3255 78.3016 30.2545 78.264 30.1637 78.2284L29.8253 78.0963L29.4736 78.9968C29.4383 79.0869 29.417 79.161 29.4089 79.2176C29.4016 79.2747 29.4111 79.324 29.4369 79.3649C29.4625 79.4056 29.5062 79.4428 29.5669 79.4755C29.6274 79.5076 29.716 79.547 29.8328 79.5927C29.879 79.6108 29.9404 79.6347 30.0168 79.6646C30.0926 79.6941 30.1579 79.7164 30.2122 79.7309C30.2677 79.746 30.3273 79.7577 30.3899 79.7654C30.4529 79.7726 30.5012 79.7682 30.5356 79.7525C30.6262 79.7097 30.7348 79.634 30.8591 79.5247C30.9843 79.4146 31.0693 79.3316 31.1142 79.2741L31.2663 79.3336ZM24.9298 77.5249L23.6713 76.7987L23.752 76.659C23.7891 76.6769 23.8424 76.7022 23.9127 76.7355C23.9827 76.7697 24.0346 76.7888 24.0682 76.7939C24.1209 76.8018 24.166 76.7966 24.2033 76.7787C24.2397 76.7605 24.2728 76.7247 24.3031 76.6725L25.4709 74.6486C25.4972 74.6029 25.5125 74.5608 25.5157 74.5215C25.5194 74.4824 25.4999 74.4371 25.4584 74.3846C25.4277 74.3462 25.3871 74.3032 25.3356 74.2544C25.2835 74.2065 25.2392 74.1702 25.2024 74.1454L25.2831 74.0055L26.5415 74.7317L26.4607 74.8716C26.4191 74.8492 26.3681 74.8262 26.3066 74.8022C26.2454 74.7778 26.1897 74.7609 26.1401 74.7491C26.0811 74.7365 26.0327 74.7427 25.9957 74.768C25.9578 74.7936 25.927 74.8285 25.9021 74.8715L24.7355 76.8932C24.7106 76.9362 24.698 76.98 24.6972 77.0245C24.6972 77.0689 24.7141 77.1148 24.7486 77.1606C24.7702 77.1872 24.8084 77.2247 24.8639 77.2727C24.9185 77.3211 24.9675 77.3586 25.0105 77.3851L24.9298 77.5249ZM15.7401 68.8293L14.9683 69.3847L13.2705 67.3197L13.3949 67.2175C13.4264 67.2509 13.4695 67.2936 13.525 67.3452C13.5809 67.3975 13.6198 67.4288 13.6423 67.4403C13.6907 67.4627 13.7351 67.4702 13.7752 67.4615C13.8155 67.4536 13.8567 67.4316 13.8998 67.3961L15.6882 65.9255C15.7265 65.8942 15.7552 65.8593 15.7748 65.8222C15.7939 65.7846 15.7956 65.7379 15.7813 65.6816C15.7703 65.6374 15.7491 65.5835 15.7167 65.521C15.685 65.458 15.6569 65.4106 15.6332 65.3769L15.7578 65.2747L17.3406 67.1994L16.7409 67.6925L16.6327 67.5607C16.7027 67.4641 16.7548 67.336 16.7912 67.1767C16.8271 67.0167 16.8212 66.8973 16.7726 66.8201C16.7475 66.7796 16.7157 66.7334 16.6768 66.6813C16.6378 66.6291 16.5923 66.5713 16.5392 66.5065L16.2179 66.1158L15.2289 66.9291L15.4596 67.2098C15.5333 67.2994 15.5964 67.358 15.6473 67.3855C15.6979 67.4129 15.7566 67.4257 15.8221 67.425C15.8773 67.4228 15.9405 67.408 16.012 67.3792C16.0837 67.3505 16.1469 67.3186 16.2019 67.2832L16.3103 67.4149L15.3373 68.2147L15.2291 68.0831C15.2813 68.0322 15.3301 67.971 15.3764 67.8988C15.4219 67.8275 15.4496 67.7685 15.4594 67.7233C15.4754 67.6498 15.4715 67.584 15.4473 67.5266C15.4231 67.4692 15.3796 67.4017 15.3177 67.3263L15.087 67.0458L14.3403 67.6598C14.2655 67.7212 14.2107 67.7755 14.176 67.8209C14.1417 67.8671 14.1255 67.9145 14.1285 67.9631C14.1309 68.0112 14.1509 68.065 14.1879 68.1231C14.2251 68.1806 14.2831 68.2583 14.3627 68.3553C14.3943 68.3936 14.4361 68.4444 14.4881 68.5078C14.5399 68.5706 14.586 68.622 14.6263 68.6612C14.6674 68.7014 14.7137 68.7407 14.7646 68.7781C14.816 68.8151 14.8603 68.8348 14.8979 68.8379C14.9979 68.8448 15.1296 68.8318 15.2915 68.7971C15.4546 68.7622 15.5692 68.7312 15.6365 68.703L15.7401 68.8293ZM62.5952 77.6984C62.4257 77.7875 62.2456 77.8396 62.0552 77.8543C61.8647 77.8701 61.6766 77.8459 61.4904 77.7836C61.3057 77.721 61.1303 77.618 60.9647 77.474C60.7984 77.3304 60.6564 77.1452 60.537 76.9185C60.4178 76.6916 60.3436 76.4681 60.316 76.2463C60.2879 76.0255 60.3004 75.8157 60.353 75.6172C60.4044 75.4218 60.4943 75.2444 60.6222 75.0846C60.7497 74.926 60.9076 74.7966 61.0955 74.6977C61.2354 74.624 61.3715 74.5743 61.5032 74.5495C61.6352 74.5246 61.7685 74.5163 61.9039 74.5253L61.9145 74.3462L62.0751 74.2617L62.6253 75.2647L62.4615 75.351C62.3886 75.2637 62.3 75.1734 62.1962 75.0807C62.0931 74.9874 61.9913 74.9164 61.8925 74.8663C61.7804 74.8092 61.6666 74.7785 61.5522 74.7733C61.4371 74.7684 61.3223 74.7958 61.2089 74.8553C61.0799 74.9233 60.974 75.0155 60.8929 75.1316C60.8119 75.2475 60.76 75.3829 60.7377 75.5378C60.7174 75.6862 60.7288 75.8554 60.7725 76.0462C60.8165 76.2358 60.8923 76.4332 61.0006 76.6387C61.0961 76.8205 61.2061 76.9746 61.3323 77.1018C61.4579 77.2294 61.5931 77.3274 61.739 77.3971C61.884 77.4657 62.0318 77.5012 62.1823 77.5039C62.333 77.5067 62.4803 77.4702 62.6245 77.3943C62.7323 77.3376 62.8232 77.2679 62.8953 77.1864C62.9682 77.1044 63.0238 77.0175 63.0605 76.9267C63.0964 76.8328 63.1204 76.7355 63.1314 76.6338C63.1429 76.5329 63.1416 76.4296 63.1275 76.3245L63.3148 76.3177C63.3482 76.6594 63.3025 76.9407 63.1762 77.1615C63.0503 77.3813 62.8569 77.5606 62.5952 77.6984ZM9.58926 61.5927L9.03404 60.3555L9.1832 60.2886C9.20115 60.321 9.22739 60.3678 9.2616 60.4291C9.29539 60.4907 9.32352 60.5304 9.34562 60.5488C9.38107 60.5839 9.42077 60.6031 9.46388 60.6071C9.50684 60.611 9.55592 60.6011 9.61045 60.5766L10.6706 60.101L10.042 58.7003L9.00485 59.1656C8.95601 59.1875 8.91789 59.2139 8.89134 59.2448C8.86512 59.2765 8.84985 59.3212 8.84631 59.3806C8.84393 59.4099 8.85085 59.4578 8.86533 59.5246C8.88068 59.5908 8.89495 59.6422 8.90927 59.6778L8.76006 59.7448L8.20508 58.5075L8.35411 58.4406C8.37206 58.4729 8.39819 58.5198 8.43268 58.581C8.46619 58.6425 8.49452 58.6825 8.51655 58.701C8.55168 58.7351 8.59131 58.7544 8.63481 58.759C8.67788 58.7629 8.72679 58.7531 8.78123 58.7286L10.9318 57.7636C10.9764 57.7436 11.013 57.716 11.0422 57.6814C11.0711 57.6461 11.0857 57.6016 11.0872 57.5475C11.0872 57.5015 11.0839 57.4482 11.0735 57.3884C11.0638 57.3281 11.0506 57.278 11.0359 57.2373L11.185 57.1704L11.7403 58.4076L11.5911 58.4746C11.572 58.4358 11.544 58.3907 11.5078 58.3389C11.4708 58.2875 11.4419 58.2496 11.4193 58.2261C11.3805 58.1857 11.3384 58.1669 11.2923 58.1677C11.2458 58.1696 11.1992 58.181 11.1533 58.2016L10.2293 58.6162L10.8579 60.017L11.7611 59.6117C11.8056 59.5917 11.8422 59.5641 11.8715 59.5293C11.9003 59.494 11.9149 59.4497 11.9162 59.3955C11.9162 59.3496 11.9132 59.2962 11.9028 59.2364C11.8927 59.1761 11.8799 59.1261 11.865 59.0855L12.0143 59.0185L12.5693 60.2557L12.4201 60.3226C12.4011 60.2839 12.373 60.2386 12.3369 60.1869C12.3 60.1355 12.2711 60.0975 12.2485 60.0742C12.2098 60.0338 12.1676 60.0149 12.1218 60.0164C12.0749 60.0177 12.0283 60.029 11.9825 60.0496L9.83401 61.0137C9.78534 61.0354 9.74737 61.062 9.72097 61.0938C9.6944 61.1246 9.67912 61.1692 9.67559 61.2285C9.67321 61.2579 9.68013 61.3056 9.69462 61.3725C9.70975 61.4389 9.72413 61.4902 9.73842 61.5259L9.58926 61.5927ZM12.1476 64.0315L11.2981 64.4588L9.94587 62.1527L10.0847 62.0712C10.1106 62.1091 10.1465 62.1581 10.1932 62.2178C10.2402 62.2782 10.2737 62.3152 10.2941 62.3302C10.3384 62.3598 10.3811 62.3743 10.422 62.3719C10.4631 62.3704 10.5072 62.3552 10.5553 62.327L12.5526 61.1557C12.5954 61.1307 12.6292 61.1008 12.6544 61.0673C12.6792 61.0331 12.6881 60.9873 12.6829 60.9294C12.679 60.884 12.6665 60.8275 12.6443 60.7606C12.6229 60.6935 12.6026 60.6422 12.5845 60.6052L12.7236 60.5238L13.9843 62.6734L13.3146 63.0661L13.2285 62.9189C13.3127 62.8345 13.3843 62.7162 13.4453 62.5646C13.5059 62.4122 13.5189 62.2934 13.4829 62.2095C13.4643 62.1655 13.4403 62.115 13.41 62.0574C13.3798 61.9998 13.3439 61.9354 13.3016 61.8631L13.0457 61.4268L11.9412 62.0746L12.1249 62.388C12.1836 62.4881 12.2368 62.5559 12.2827 62.5911C12.3284 62.6261 12.3844 62.648 12.4491 62.6576C12.504 62.6641 12.5687 62.6593 12.6439 62.6422C12.7192 62.6251 12.7866 62.6035 12.8465 62.5772L12.9329 62.7243L11.8463 63.3613L11.76 63.2143C11.8197 63.1722 11.8775 63.1194 11.9345 63.0554C11.9906 62.9922 12.0274 62.9382 12.0441 62.8951C12.0715 62.8252 12.078 62.7595 12.0629 62.699C12.048 62.6385 12.0157 62.565 11.9664 62.4808L11.7826 62.1675L10.9487 62.6566C10.8652 62.7055 10.8025 62.7504 10.7612 62.7899C10.72 62.8301 10.6966 62.8744 10.6919 62.9228C10.6867 62.9707 10.698 63.027 10.7254 63.0902C10.7531 63.1528 10.7982 63.2387 10.8616 63.3469C10.8867 63.3897 10.92 63.4465 10.9614 63.5173C11.0027 63.5874 11.0401 63.6454 11.0738 63.6905C11.1081 63.7366 11.1476 63.7827 11.192 63.8276C11.2369 63.8722 11.2776 63.8987 11.3143 63.9077C11.4119 63.9302 11.5441 63.9381 11.7094 63.9292C11.8759 63.9204 11.994 63.9078 12.0649 63.8905L12.1476 64.0315ZM14.9955 65.5751L14.8991 65.435C14.9791 65.3414 15.0476 65.2147 15.1022 65.0551C15.1573 64.8953 15.1641 64.7732 15.123 64.6899C15.1018 64.6482 15.074 64.5997 15.0401 64.545C15.0064 64.4904 14.9665 64.4296 14.9201 64.3623L14.6147 63.9184L13.5512 64.6502L13.7601 64.9539C13.8236 65.0464 13.8822 65.1111 13.9364 65.1488C13.9913 65.1861 14.0508 65.2099 14.1148 65.2184C14.1593 65.2245 14.2177 65.218 14.2896 65.1983C14.3617 65.1789 14.4326 65.1499 14.5032 65.1107L14.6008 65.2528L13.5617 65.9678L13.464 65.8256C13.516 65.7843 13.5692 65.7291 13.6243 65.6593C13.6789 65.5898 13.713 65.5317 13.7269 65.4853C13.7474 65.4169 13.7468 65.3478 13.7243 65.2798C13.702 65.2116 13.664 65.1375 13.6092 65.0579L13.4003 64.754L12.4876 65.382C12.4463 65.4104 12.4152 65.443 12.394 65.4819C12.3726 65.5203 12.3662 65.5668 12.375 65.6219C12.3789 65.6466 12.3962 65.6935 12.4264 65.7647C12.4572 65.8355 12.4826 65.8875 12.5037 65.9207L12.3712 66.0118L11.5816 64.8643L11.714 64.7732C11.7425 64.8091 11.7805 64.856 11.8286 64.9139C11.8774 64.9723 11.912 65.0077 11.9341 65.0205C11.9754 65.0466 12.0185 65.0572 12.0617 65.052C12.1047 65.0477 12.1487 65.0295 12.1938 64.9986L14.1042 63.6842C14.1451 63.656 14.1766 63.624 14.1991 63.5888C14.2214 63.5528 14.2271 63.5066 14.2177 63.4494C14.2106 63.4045 14.1939 63.3493 14.1671 63.2842C14.1408 63.2189 14.117 63.1694 14.0964 63.1339L14.2289 63.0427L15.6578 65.1194L14.9955 65.5751ZM16.2738 70.8078L15.2833 69.7449L15.4013 69.6349C15.4315 69.6629 15.4751 69.7027 15.5325 69.7552C15.5895 69.8083 15.6335 69.8417 15.664 69.8565C15.7122 69.8796 15.7568 69.8878 15.7977 69.8815C15.8379 69.8747 15.88 69.8503 15.9242 69.8092L17.6336 68.2161C17.6722 68.1801 17.6991 68.1443 17.7137 68.1076C17.7286 68.0714 17.7232 68.0223 17.699 67.96C17.6808 67.9143 17.6547 67.8613 17.6197 67.7996C17.5839 67.7385 17.5521 67.6908 17.5242 67.6563L17.6423 67.5462L18.6329 68.6091L18.5147 68.7192C18.4814 68.6856 18.4394 68.6486 18.3876 68.6077C18.3363 68.5664 18.288 68.534 18.244 68.5082C18.1912 68.4788 18.1431 68.4706 18.1004 68.4839C18.0567 68.4973 18.0169 68.5217 17.9805 68.5555L16.273 70.1468C16.2366 70.1807 16.2118 70.2189 16.198 70.2613C16.1846 70.3035 16.1878 70.3526 16.2073 70.4064C16.2201 70.4382 16.2457 70.4852 16.2847 70.5473C16.3227 70.6096 16.3586 70.6598 16.392 70.6978L16.2738 70.8078ZM22.2874 72.1153C22.2546 72.0892 22.2011 72.0548 22.1281 72.0149C22.0554 71.9742 21.9878 71.9505 21.9266 71.9419C21.8648 71.9352 21.7912 71.9662 21.7047 72.0364C21.6188 72.107 21.5247 72.2015 21.4218 72.322L20.5092 73.3895C20.3925 73.5259 20.2638 73.6203 20.1211 73.6723C19.9786 73.7243 19.834 73.7427 19.6863 73.7289C19.5424 73.7133 19.4077 73.6758 19.2833 73.6165C19.1591 73.5574 19.0513 73.4886 18.9584 73.4093C18.8109 73.2831 18.6963 73.1515 18.614 73.0136C18.5316 72.8766 18.479 72.7418 18.4572 72.6085C18.4358 72.4767 18.442 72.3523 18.4751 72.2334C18.5087 72.115 18.5645 72.0104 18.6438 71.9175L19.8851 70.4656C19.9195 70.4254 19.9411 70.3856 19.9515 70.3473C19.9616 70.3091 19.9558 70.2611 19.9359 70.2031C19.9205 70.1623 19.8945 70.1177 19.8576 70.0699C19.8214 70.0214 19.7897 69.9841 19.7628 69.9571L19.8679 69.8341L20.8904 70.7082L20.7853 70.8312C20.7525 70.805 20.7071 70.7755 20.6505 70.7426C20.5934 70.71 20.5503 70.6875 20.5203 70.6761C20.4685 70.6564 20.4228 70.6573 20.3819 70.6776C20.3412 70.6988 20.3043 70.7289 20.2721 70.7668L19.112 72.1236C19.0561 72.1891 19.0041 72.2642 18.9567 72.3485C18.9097 72.4331 18.8806 72.5248 18.87 72.6232C18.8605 72.7254 18.8774 72.8298 18.9204 72.9361C18.9635 73.0425 19.0521 73.1529 19.1873 73.2686C19.3143 73.3773 19.4378 73.448 19.5578 73.481C19.6784 73.5147 19.7917 73.5195 19.898 73.4957C19.9982 73.4741 20.0869 73.4375 20.1655 73.3861C20.243 73.3348 20.3113 73.2745 20.3701 73.2052L21.2313 72.198C21.3407 72.07 21.4213 71.9578 21.4721 71.8602C21.5235 71.7629 21.5418 71.6865 21.5281 71.631C21.5121 71.567 21.4763 71.4976 21.4201 71.4221C21.3647 71.346 21.3191 71.2917 21.2839 71.2574L21.3889 71.1346L22.3926 71.9926V71.9936L23.1201 72.5066L23.1842 75.5157L24.0553 74.2806C24.1618 74.1293 24.2337 74.0061 24.2715 73.9114C24.3095 73.8166 24.3193 73.7431 24.3014 73.6902C24.2834 73.6428 24.2435 73.5811 24.1819 73.5041C24.1199 73.4275 24.0696 73.3745 24.0307 73.3433L24.1224 73.2133L25.1785 73.958L25.0868 74.0879C25.0516 74.0648 24.9926 74.0372 24.9087 74.0064C24.8254 73.9746 24.761 73.9573 24.7174 73.9554C24.6514 73.9548 24.5806 73.9927 24.5045 74.069C24.4281 74.1443 24.3432 74.2488 24.2494 74.3818L22.909 76.2828L22.7498 76.1705L22.6742 72.9373L21.73 74.2764C21.6243 74.4261 21.5523 74.5484 21.5143 74.6422C21.4762 74.736 21.4651 74.814 21.48 74.8751C21.4891 74.9219 21.5296 74.9879 21.6007 75.0725C21.672 75.1584 21.7217 75.2111 21.749 75.2323L21.6575 75.3621L20.5926 74.6113L20.6843 74.4815C20.7184 74.5018 20.7824 74.5292 20.8754 74.5629C20.9684 74.5967 21.031 74.6118 21.0627 74.609C21.1295 74.6045 21.1957 74.5727 21.2606 74.5138C21.3261 74.4554 21.4181 74.3407 21.538 74.1709L22.4394 72.8925C22.4789 72.8362 22.5092 72.7736 22.5289 72.7032C22.5492 72.6333 22.5533 72.5718 22.5419 72.5179C22.5263 72.4471 22.4915 72.3703 22.437 72.2886C22.3823 72.2087 22.3334 72.1507 22.2887 72.1151L22.2874 72.1153ZM29.4139 76.3363C29.3781 76.3202 29.3323 76.3071 29.2759 76.2962C29.2185 76.2858 29.1693 76.2828 29.1269 76.2867C29.0669 76.2921 29.0123 76.3106 28.9629 76.3411C28.913 76.3721 28.8603 76.4111 28.8027 76.4581C28.6073 76.6273 28.3065 76.8934 27.9021 77.2575C27.4974 77.6207 27.0776 78.0003 26.6434 78.3968L26.4761 78.3138C26.5405 77.6973 26.602 77.1023 26.6608 76.5302C26.7204 75.9581 26.7595 75.5709 26.7788 75.3695C26.7833 75.3201 26.7809 75.2731 26.7682 75.2278C26.7569 75.1828 26.7371 75.1351 26.7062 75.0847C26.681 75.0439 26.6496 75.0068 26.6103 74.9735C26.572 74.9399 26.5341 74.9128 26.4981 74.8915L26.5692 74.748L27.7532 75.3349L27.6822 75.4782C27.5789 75.4339 27.4889 75.4012 27.4124 75.3822C27.3356 75.3623 27.2883 75.3713 27.2695 75.4092C27.2624 75.4236 27.2563 75.443 27.2518 75.4657C27.2466 75.488 27.2433 75.5068 27.2416 75.5206C27.2258 75.6776 27.2006 75.9327 27.1646 76.2855C27.1285 76.6391 27.0766 77.1419 27.0098 77.7943C27.236 77.5958 27.4984 77.3604 27.8004 77.0871C28.1013 76.8141 28.3062 76.6256 28.4142 76.522C28.5196 76.4217 28.5879 76.3499 28.6179 76.3065C28.6491 76.2627 28.6712 76.2266 28.686 76.1968C28.7013 76.1659 28.7005 76.133 28.6832 76.0986C28.6659 76.0642 28.6381 76.0284 28.6003 75.9906C28.562 75.9553 28.5223 75.9228 28.4796 75.8931C28.4374 75.8638 28.3938 75.8359 28.3483 75.8083L28.4193 75.665L29.4849 76.193L29.4139 76.3363ZM34.3985 81.3435L33.5533 81.104C33.4492 80.7572 33.3518 80.4555 33.2605 80.1985C33.1701 79.942 33.0687 79.675 32.9564 79.3976L32.6353 79.3065L32.353 80.303C32.3385 80.3544 32.334 80.4019 32.3387 80.4458C32.3437 80.4888 32.3698 80.5289 32.4176 80.5644C32.4411 80.5825 32.4844 80.6053 32.5485 80.6326C32.6123 80.6605 32.6668 80.6816 32.7124 80.6961L32.6679 80.8533L31.3401 80.477L31.3847 80.32C31.4209 80.327 31.4738 80.3362 31.5432 80.3477C31.6123 80.36 31.662 80.3635 31.6918 80.3588C31.741 80.3524 31.7813 80.3335 31.8115 80.3021C31.8423 80.2709 31.8655 80.2269 31.8818 80.1695L32.5249 77.8988C32.5398 77.8466 32.545 77.7992 32.5411 77.755C32.5381 77.7108 32.5118 77.6708 32.4634 77.6351C32.4303 77.6109 32.3852 77.585 32.3293 77.5578C32.2736 77.5298 32.2258 77.5089 32.1851 77.4942L32.2296 77.337L33.6792 77.7476C33.8121 77.7852 33.9329 77.8342 34.0414 77.8943C34.1501 77.9545 34.2435 78.0282 34.3206 78.1154C34.3953 78.2003 34.4469 78.298 34.4743 78.4087C34.5018 78.5192 34.4971 78.6419 34.4591 78.7763C34.4248 78.8974 34.3756 78.9992 34.3121 79.0816C34.2489 79.164 34.1717 79.2287 34.0808 79.2763C33.9963 79.321 33.9007 79.3534 33.7946 79.3731C33.6885 79.3936 33.5744 79.4039 33.4537 79.4047C33.5503 79.654 33.6299 79.8626 33.6929 80.0321C33.756 80.2011 33.833 80.4073 33.9258 80.6498C33.9655 80.7573 34.0054 80.8388 34.0462 80.8962C34.0866 80.9523 34.1288 81.002 34.1727 81.0428C34.206 81.0727 34.2493 81.1013 34.3042 81.1283C34.359 81.1544 34.4049 81.1739 34.443 81.1863L34.3985 81.3435ZM33.8978 78.6719C33.9517 78.4816 33.94 78.3161 33.862 78.1732C33.7848 78.0313 33.6458 77.9315 33.4471 77.8754L33.0709 77.7688L32.6892 79.1162L32.9792 79.1984C33.1825 79.2559 33.3708 79.2393 33.5431 79.1468C33.716 79.0547 33.8342 78.8965 33.8978 78.6719ZM36.9036 80.3085C36.9567 80.3945 36.9909 80.4851 37.0063 80.5797C37.0216 80.6739 37.0186 80.7793 36.9967 80.8963C36.9446 81.1757 36.7986 81.3859 36.5589 81.5289C36.3188 81.671 36.046 81.7137 35.7406 81.6566C35.5994 81.6303 35.4632 81.5822 35.33 81.5126C35.1977 81.4422 35.0862 81.3665 34.9953 81.2849L34.8693 81.4296L34.6907 81.3962L34.8613 80.3093L35.042 80.3429C35.0543 80.4837 35.075 80.6123 35.1045 80.7286C35.1346 80.8459 35.1811 80.9583 35.245 81.0668C35.3062 81.1686 35.3833 81.2553 35.4762 81.3268C35.5696 81.3978 35.6849 81.446 35.8208 81.4714C35.9232 81.4904 36.0155 81.4935 36.0963 81.481C36.178 81.4689 36.2475 81.4423 36.3036 81.4026C36.3606 81.3622 36.4063 81.3118 36.4415 81.25C36.4771 81.1883 36.5028 81.1145 36.5189 81.0286C36.5423 80.9026 36.5286 80.7783 36.4775 80.6556C36.4264 80.5335 36.3363 80.4312 36.2055 80.3487C36.1162 80.2919 36.0141 80.229 35.8984 80.1585C35.7825 80.0891 35.683 80.024 35.6003 79.9662C35.4369 79.8525 35.3182 79.7219 35.2438 79.5735C35.17 79.4255 35.1522 79.247 35.1912 79.0382C35.2136 78.9181 35.2589 78.8103 35.3269 78.7153C35.3957 78.6213 35.4826 78.5418 35.5883 78.4765C35.6885 78.4158 35.8015 78.3742 35.9268 78.3518C36.0517 78.3305 36.1781 78.331 36.3057 78.3551C36.4514 78.3822 36.5772 78.4284 36.6843 78.4948C36.7907 78.5604 36.8856 78.6323 36.9695 78.7091L37.0889 78.575L37.2673 78.6082L37.0893 79.6595L36.9094 79.6257C36.8992 79.499 36.8833 79.3774 36.8636 79.2607C36.843 79.1428 36.8086 79.0333 36.7598 78.9324C36.712 78.8346 36.6475 78.7511 36.565 78.6831C36.4826 78.6151 36.3744 78.5682 36.2407 78.5433C36.1002 78.5171 35.9719 78.5395 35.8554 78.612C35.7391 78.6839 35.6685 78.7846 35.6441 78.9152C35.6185 79.0518 35.6292 79.1709 35.6764 79.2724C35.7234 79.3741 35.8024 79.4649 35.9137 79.5454C36.0118 79.6179 36.1098 79.6826 36.2075 79.7401C36.3054 79.7968 36.3987 79.8566 36.4887 79.9175C36.5704 79.9729 36.648 80.0328 36.7209 80.0969C36.7944 80.1615 36.8552 80.2317 36.9036 80.3085ZM42.056 80.1258L41.8983 80.1147C41.8881 80.0583 41.8686 79.9918 41.838 79.9135C41.8075 79.8362 41.7727 79.7615 41.733 79.6914C41.692 79.6178 41.6463 79.5533 41.5962 79.4965C41.5461 79.4405 41.496 79.4063 41.4457 79.3957C41.3994 79.3861 41.3404 79.3773 41.2687 79.369C41.1972 79.3609 41.131 79.3546 41.0701 79.3502L40.9374 79.3408L40.7538 81.9356C40.7502 81.9863 40.758 82.033 40.776 82.0769C40.7941 82.1197 40.8292 82.1551 40.8815 82.1815C40.908 82.1945 40.964 82.2124 41.0509 82.2375C41.137 82.2616 41.2043 82.2764 41.2533 82.2817L41.2418 82.4439L39.71 82.3355L39.7214 82.1732C39.7645 82.1731 39.8297 82.1713 39.9186 82.169C40.0066 82.1659 40.0676 82.1584 40.102 82.1476C40.1541 82.1308 40.1928 82.1052 40.2196 82.0697C40.2457 82.0337 40.2609 81.9847 40.2654 81.9222L40.4505 79.3064L40.3179 79.297C40.2703 79.2936 40.2116 79.2913 40.1411 79.2885C40.0715 79.2858 40.0042 79.2858 39.9395 79.2891C39.8885 79.2919 39.834 79.3178 39.7764 79.3678C39.7188 79.4186 39.6644 79.476 39.6135 79.5414C39.5626 79.6069 39.5177 79.6766 39.4771 79.7513C39.4366 79.826 39.4079 79.8876 39.3902 79.9374L39.2303 79.9259L39.2925 79.0456L42.0202 79.2388V79.2386L43.3952 79.2647L43.3922 79.4262C43.237 79.4263 43.1282 79.4344 43.0643 79.4518C43.0003 79.4685 42.9681 79.4933 42.9673 79.5266C42.9671 79.5361 42.9714 79.5524 42.9797 79.5751C42.9885 79.5977 43.0013 79.6267 43.0168 79.6617C43.0354 79.7017 43.0587 79.7472 43.0849 79.799C43.1111 79.8499 43.1357 79.8993 43.1588 79.9469C43.2277 80.0825 43.298 80.219 43.37 80.3544C43.4412 80.4892 43.5348 80.6658 43.651 80.8835C43.8955 80.5049 44.0827 80.2089 44.2116 79.9972C44.3405 79.7855 44.4057 79.6579 44.4066 79.6153C44.4066 79.5811 44.3948 79.5522 44.3694 79.5308C44.3443 79.5093 44.3103 79.4916 44.268 79.4793C44.2248 79.4659 44.1768 79.4573 44.1257 79.4524C44.0739 79.4475 44.0266 79.4427 43.9823 79.4374L43.9856 79.2759L45.1064 79.2972L45.1034 79.4586C45.0769 79.4597 45.0364 79.4688 44.9795 79.4865C44.9233 79.5048 44.8825 79.5227 44.8581 79.54C44.7985 79.5753 44.7576 79.6026 44.7363 79.6223C44.7149 79.6413 44.6729 79.6918 44.6108 79.7743C44.489 79.9389 44.3772 80.1051 44.2738 80.2747C44.1707 80.444 44.0415 80.6591 43.8861 80.9199C43.8285 81.0157 43.7897 81.0926 43.7708 81.1521C43.7512 81.2105 43.7409 81.2958 43.7387 81.4083L43.7273 82.024C43.7251 82.0784 43.7361 82.1259 43.757 82.1666C43.7779 82.2065 43.8152 82.2399 43.8676 82.2649C43.8992 82.2779 43.9556 82.2939 44.0376 82.3124C44.1186 82.3319 44.1842 82.3423 44.2348 82.3449L44.2318 82.5062L42.7223 82.4775L42.7253 82.3163C42.768 82.3139 42.8317 82.3096 42.9172 82.3029C43.0019 82.2958 43.061 82.2862 43.0947 82.2736C43.1494 82.2513 43.188 82.2211 43.2089 82.1819C43.2297 82.1435 43.2417 82.0948 43.2427 82.0373L43.2577 81.2531C43.2577 81.2292 43.2443 81.1847 43.2159 81.1197C43.187 81.0547 43.1533 80.9819 43.1137 80.9028C43.0263 80.725 42.9291 80.5331 42.8229 80.3272C42.7159 80.1202 42.6229 79.943 42.5442 79.7965C42.4955 79.7086 42.4526 79.6434 42.4145 79.5984C42.3765 79.5536 42.3331 79.514 42.2841 79.4795C42.248 79.4565 42.205 79.4386 42.154 79.4252C42.1378 79.4208 42.1219 79.4171 42.1066 79.4138L42.056 80.1258ZM48.971 81.6279C49.0443 81.4826 49.0933 81.3211 49.1178 81.1438C49.1422 80.9657 49.1446 80.7691 49.1267 80.5537C49.1081 80.3322 49.0703 80.1301 49.0113 79.9489C48.9524 79.7667 48.8763 79.614 48.7814 79.4905C48.6875 79.3684 48.5742 79.2768 48.4423 79.2151C48.3102 79.1533 48.1628 79.1295 48.0005 79.1429C47.8184 79.1581 47.6672 79.2129 47.5467 79.3067C47.4261 79.4006 47.3313 79.5213 47.262 79.6679C47.1977 79.8078 47.154 79.9687 47.1317 80.1507C47.1092 80.3333 47.1062 80.523 47.1226 80.7204C47.1408 80.9388 47.1775 81.1346 47.2317 81.3069C47.2853 81.4802 47.3605 81.6313 47.4573 81.761C47.5499 81.8878 47.6621 81.9834 47.7929 82.0484C47.9233 82.1134 48.0759 82.1382 48.2484 82.124C48.4107 82.1104 48.5545 82.0601 48.6788 81.9731C48.8031 81.8869 48.9009 81.7716 48.971 81.6279Z" fill="#1B1918"/>
<path fill-rule="evenodd" clip-rule="evenodd" d="M11.0895 31.3673C11.0307 30.8152 11.0102 30.2677 10.7074 29.7557C10.6663 29.6862 10.6419 29.6482 10.6254 29.5709L10.5063 29.0104C10.3823 28.3043 10.1592 27.6765 9.94952 27.038C9.75002 26.366 9.37719 26.158 9.05786 25.8172C8.7106 25.1585 8.29144 24.5763 8.14453 23.7299C8.14821 23.537 8.44404 23.2432 8.59485 23.1762C9.30105 23.3645 9.77638 23.7092 10.211 24.1269C10.2994 24.2119 10.6697 24.2861 10.7731 24.3527C11.2669 24.1157 11.8601 23.9134 12.5774 23.7491C12.8164 23.6943 13.0567 23.5962 13.3243 23.5499C14.0131 22.8534 15.019 21.6272 15.4096 21.7109C15.7437 21.7641 15.8833 22.0282 15.8288 22.5028C15.6086 23.0718 15.3096 23.7193 14.9113 24.2592C14.7806 24.4363 14.7426 24.4445 14.5241 24.5086C13.9594 24.6746 13.4002 24.8612 12.8557 25.1019L12.6862 25.1718L12.5421 25.1254L12.3631 25.16L12.2258 25.2794L11.9121 25.3028C11.0795 25.2858 10.6664 25.5859 10.7595 26.2685L10.7658 26.717C10.7679 26.8439 10.9056 26.944 10.9725 27.0632L11.1079 27.3334L11.1002 27.54L11.2606 27.7876L11.3694 28.1938L11.332 28.4054C11.4069 28.5733 11.4664 28.7318 11.4717 28.856L11.5039 29.468C11.5719 29.6663 11.6194 29.8793 11.6874 30.0827L11.7401 30.1642C11.7721 30.2068 11.7856 30.2495 11.7811 30.2919L11.7759 30.4193C11.7729 30.4925 11.8296 30.5156 11.8882 30.5542C11.9372 30.5866 11.9371 30.5953 11.9435 30.649L11.9672 30.8459L11.9966 31.0259L11.8518 31.2582L11.7225 31.4075L11.6129 31.4901L11.4697 31.5178L11.3708 31.4998C11.2147 31.4823 11.107 31.5311 11.0895 31.3673ZM12.6069 27.1044L12.4199 27.236L12.0809 27.1104L11.9515 26.835L11.8993 26.6403L11.8479 26.5L11.893 26.4094L11.9138 26.2279L11.959 26.1372C12.0857 25.8672 12.2262 25.649 12.3631 25.4175L12.5918 25.4415L12.8155 25.6031L12.9629 25.7384L12.9977 25.8682L13.0922 26.0138L13.0979 26.1903L13.1361 26.333L13.1112 26.4471L13.066 26.5378L12.998 26.6465L12.9369 26.7812L12.989 26.9759L13.0238 27.1057L13.0656 27.2616L12.9801 27.3053L12.8362 27.183L12.6069 27.1044ZM12.9059 27.9614L13.0741 27.9152L13.5748 27.2451L13.6519 27.0663L13.6754 26.8433L13.7171 26.7396L13.7913 26.6024L14.0268 26.3931L14.2284 26.3678L14.4709 26.4438L14.7099 26.5068L14.9337 26.6684L15.2409 26.8821L15.3056 27.0198L15.4932 27.2021L15.6045 27.358L15.6789 27.4802L15.7074 27.6385C15.6215 27.8411 15.501 28.0345 15.3046 28.2079L15.2309 28.1402L15.1344 28.35L15.2122 28.4851L15.2207 28.62L15.1596 28.7548L15.0415 28.8322C14.6625 28.9554 14.197 28.9452 13.6921 28.8745L13.4391 28.7595L13.1813 28.5226L13.0916 28.499L13.0019 28.2159L12.9059 27.9614ZM13.955 27.7314L13.9702 27.6328L14.0153 27.5422L14.0869 27.4464L14.1522 27.3792L14.2543 27.3458L14.444 27.4321L14.5378 27.5231L14.5199 27.6631L14.5547 27.7929L14.5659 27.8864L14.4978 27.9951L14.4506 27.9223L14.3888 28.0026L14.2964 28.0204L14.1532 27.9526L14.0364 27.8795L13.955 27.7314Z" fill="#1B1918"/>
<path fill-rule="evenodd" clip-rule="evenodd" d="M22.6355 18.6516L22.4672 18.4724L22.2939 18.2489L22.1155 17.981L21.9357 17.7757L21.654 17.4415L21.5139 17.1272L21.3802 16.7948L21.3945 16.4641L21.4092 16.3652L21.3208 16.2L21.3869 16.0184L21.3167 15.8613L21.3681 15.7784L21.2812 15.5508L21.2676 15.3552L21.1491 15.1557L21.049 14.9644L20.9789 14.8072L20.8488 14.5817L20.6822 14.34L20.5155 14.0984L20.4072 13.9876L20.4402 13.8969L20.2303 13.6573L20.0885 13.4055L19.9951 13.196L19.9081 12.9683C19.9081 12.9683 19.8198 12.0449 19.8911 11.9077C19.9623 11.7704 20.4005 11.4994 20.4005 11.4994L20.4182 11.2755C20.6065 11.0106 20.7992 10.8306 21.0024 10.8368L21.17 10.784L21.383 10.8986L21.5863 11.1563L21.6732 11.384L21.6452 11.5192L21.6523 11.7329L21.8423 12.0269L22.0339 12.2585L22.1158 12.4418L22.1193 12.5487L22.316 12.8245L22.5126 13.1004L22.5396 13.2597L23.1677 14.0408L23.1815 14.2364L23.3466 14.5406L23.5515 14.7358L23.806 14.8478C23.9736 14.884 24.1156 15.0254 24.206 15.1524C24.4414 15.4836 24.4933 16.0432 24.206 15.9707L23.9681 15.8663L23.7303 15.7619L23.4243 15.6697L23.3028 15.5953L23.3156 15.3271L23.1672 15.0935L23.0422 14.9122L22.8242 14.7533L22.6082 14.7639L22.4038 14.8005L22.2909 14.8774L22.2249 15.0589L22.1938 15.3191L22.2543 15.6195L22.2614 15.8332L22.3666 16.069L22.6797 16.3748L22.7067 16.5341L22.7503 16.7639L22.7956 16.9312L22.8173 17.0461L23.039 17.3118L23.0293 17.455L23.1009 17.5496L22.9601 17.7617L22.9271 17.8524L22.8808 17.9796L22.8646 18.1409L22.8884 18.4251L22.8107 18.5806L22.6355 18.6516ZM23.3962 13.1977L23.121 13.1849L23.0272 13.1437L22.8589 13.0082L22.7294 12.7662C22.717 12.3625 22.7682 12.012 22.9038 11.7319L23.0587 11.3063L23.2807 10.9099C23.4443 10.7001 23.6284 10.5769 23.8154 10.4658L24.1657 10.3573L24.4929 10.2208C24.8844 10.1266 24.9314 10.4463 24.9275 10.7842L25.0038 11.1725L25.0569 11.5816L25.1038 11.8798L25.1383 12.1265L25.0076 12.4856L25.0046 12.7928L24.92 13.1106L24.8135 13.4032L24.8384 13.6765C25.0656 14.1055 25.3654 14.2781 25.7379 14.1947L26.1099 13.9413L26.6117 13.5445C26.8187 13.3886 27.006 13.1883 27.2131 13.0323L27.539 12.7481L27.6872 12.5972C27.7056 12.4899 27.6986 12.3964 27.6374 12.3333L27.5864 12.1055L27.2751 11.7221L27.169 11.6292L27.0339 11.6162L26.9717 11.5735L26.8277 11.3714L26.8638 11.1866L27.0086 11.1731L27.245 11.2922L27.3474 11.3526L27.5243 11.5074L27.6717 11.5721L27.8448 11.6944L28.0324 11.7768L28.2432 11.8383C28.5613 11.8229 28.7634 12.0801 28.7263 12.3899L28.7535 12.5715L28.5606 12.888L28.4381 13.0964L28.2963 13.3581L28.17 13.5342L27.8516 13.811L27.6741 13.8719L27.505 13.952L27.2446 14.0692L27.1148 14.2127L26.9517 14.2337L26.7607 14.2887L26.5723 14.4221L26.4021 14.5479L26.1407 14.7108L25.9255 14.8323L25.737 14.9657L25.5718 15.0783L25.3282 15.0639L25.1127 15.0156L24.925 14.9333L24.7825 14.8553L24.6104 14.6872L24.3945 14.469L24.2772 14.2787L24.1772 14.1268L24.0003 13.9719L23.9002 13.82L23.8425 13.5941L23.7837 13.4141L23.6545 13.342L23.535 13.2432L23.3962 13.1977ZM23.3636 11.5789L23.4712 11.7958L23.5676 11.9153L23.6979 11.9416L23.8721 12.0181L23.9682 11.9677L24.1071 12.0132L24.2723 11.9006L24.3867 11.8428L24.4388 11.7422L24.3569 11.5829L24.252 11.4443L24.1508 11.3381L23.9851 11.2808L23.8306 11.321L23.7029 11.3729L23.5617 11.419L23.4291 11.4843L23.3636 11.5789ZM23.5728 12.6272L23.7757 12.454L23.9096 12.5128L24.0957 12.5659L24.1736 12.642L24.3751 12.6863L24.4848 12.8116L24.5095 12.9149L24.4707 13.0213L24.4282 13.0953L24.3028 13.0556L24.2004 12.9952L24.1092 13.0324L23.9885 12.9794L23.9313 12.9234L23.8326 12.8955L23.7399 12.8085L23.5728 12.6272ZM21.8756 13.969L21.7566 13.9803L21.7247 14.0681L21.7698 14.1896L21.8868 14.2537L21.9778 14.1792L22.0349 14.2678L22.1449 14.3161L22.2279 14.2635L22.3519 14.2035L22.4068 14.0877L22.4577 13.9829L22.4525 13.8916L22.3364 13.7898L22.2424 13.8376L22.1213 13.7844L22.0194 13.8541L21.8756 13.969ZM21.0769 12.3228L20.8959 12.4119L20.8313 12.531L20.7784 12.6762L20.7988 12.8537L20.8755 12.9926L20.8974 13.1076L21.0971 13.2584L21.2303 13.359L21.4447 13.411L21.5627 13.3784L21.6857 13.3903L21.7884 13.2249L21.828 13.1158L21.8011 12.9567L21.761 12.8336L21.611 12.6626L21.5394 12.568L21.4495 12.4652L21.328 12.3908L21.2116 12.3608L21.0769 12.3228Z" fill="#1B1918"/>
<path fill-rule="evenodd" clip-rule="evenodd" d="M36.3994 6.76797L36.6846 6.57113L36.8644 6.48279L37.0949 6.33348L37.2747 6.24513L37.5002 6.17162L37.7387 6.04931L37.906 5.96515L38.1941 5.87125L38.2657 5.78848C38.8338 5.61982 39.3383 5.4741 39.8995 5.43403C40.1109 5.41896 40.2773 5.65508 40.2059 5.9872L40.1778 6.26358L40.1241 6.59275L40.019 6.70131L39.8095 6.82894L39.7123 6.9645L39.5484 7.10696L39.4797 7.29266L39.3986 7.48242L39.3465 7.67751L39.2603 7.9431L39.0828 8.17911L38.9451 8.22404L38.8313 8.35015L38.5934 8.4277L38.4716 8.52673L38.3408 8.68813L38.2937 8.80736L38.176 8.92003L38.207 9.11771L38.2091 9.31L38.3674 9.2881L38.6801 9.23074L38.9511 9.17211L39.1475 9.09321L39.3479 9.02787L39.5533 8.88665L39.6831 8.81474L39.9587 8.7249L40.159 8.65959L40.3343 8.60242L40.4721 8.55749L40.6304 8.53553C41.1812 8.52498 41.8707 8.54368 41.8658 9.27582L41.7058 9.43184L41.5721 9.4903L41.3216 9.57196L41.1217 9.59254L40.9259 9.62668L40.7721 9.61749L40.5391 9.61922L40.3978 9.60597L40.1283 9.53051L39.9454 9.51594L39.7666 9.51486L39.5211 9.52074L39.4585 9.54115L39.2922 9.53605L39.0086 9.59877L38.8378 9.62474L38.7011 9.58028L38.65 9.68597L38.4204 9.74594L38.3248 9.74746L38.0287 9.81437L37.7867 9.87839L37.6114 9.93556L37.5112 9.96823L37.4726 10.0698L37.2521 10.0675L37.1349 10.1354L36.9836 10.2738L36.7832 10.3392C36.7745 10.5177 36.6824 10.686 36.4074 10.8328L36.2401 10.9169L36.0898 10.9659L35.9229 11.0055L35.7316 11.0085L35.5157 10.975L35.3743 10.9617L35.2251 10.9213L35.0758 10.8809L34.9691 10.7524L34.9336 10.5859L34.8945 10.3611L35.0048 10.1767L35.1186 10.0506L35.4026 9.94312L35.5654 9.89005L35.7909 9.81653L35.9161 9.77571L36.1246 9.73749L36.2999 9.68032L36.4126 9.64357L36.6922 9.5672L36.884 9.51951L37.0143 9.40286L37.1486 9.29965L37.2423 9.10588L37.2564 8.9677L37.2915 8.8078L37.3637 8.68039L37.4483 8.54889L37.5456 8.41328L37.5516 8.24801L37.6193 8.15176L37.6539 8.03663L37.5257 7.97451L37.4344 7.94483L37.3519 7.89759L37.2521 7.88552L37.1479 7.90463L36.9611 7.87651L36.7742 7.8484L36.6254 7.76328L36.5223 7.69303L36.4196 7.57805L36.3875 7.46973L36.3726 7.32617L36.3365 7.20432L36.3502 7.11085L36.3562 6.94569L36.3448 6.86029L36.3994 6.76797Z" fill="#1B1918"/>
<path fill-rule="evenodd" clip-rule="evenodd" d="M50.855 7.07909L50.9035 6.93866L50.9803 6.76905L51.1042 6.67582L51.2068 6.49881L51.0981 6.4197L51.1156 6.32427L51.1256 6.18955L51.2187 6.02586L51.2509 5.87951L51.4986 5.693C51.6726 5.63128 51.8442 5.64767 52.0133 5.74204L52.2266 5.60228L52.2948 5.1924L52.3103 4.88188C52.6129 4.41237 52.8781 4.19283 53.1061 4.22305C53.3825 4.16567 53.6482 4.20984 53.9037 4.35529L53.9957 4.56663L53.9843 4.91816L54.0354 5.03556L54.0501 5.2583L54.2171 5.35862L54.3247 5.25944L54.5845 5.03785L54.8788 4.76954C55.1982 4.41699 55.5867 4.40255 55.6856 4.46812C55.8128 4.55247 55.878 4.89001 55.7672 5.42357L55.867 5.5168L56.1067 5.62021L56.3697 5.67852C56.4418 5.82333 56.4899 5.9646 56.4628 6.06008C56.4179 6.21921 56.2383 6.42848 55.9158 6.33255L55.2973 6.26552C55.0047 6.42264 54.9671 6.61978 55.1848 6.85689L55.5185 6.89929L55.7018 7.00554L55.8972 7.07667L56.1169 7.07753L56.3286 7.15459C56.4728 7.31194 56.248 7.85434 55.9942 7.85052L55.7912 7.80864L55.6529 7.83737L54.7496 7.7457C54.6875 8.05795 54.7864 8.41397 54.474 8.39521C53.8556 8.35821 53.3556 8.82455 53.6307 9.3935C53.5875 9.84613 53.3943 10.0436 53.0365 10.2197C52.9592 10.2577 52.9098 10.3734 52.8214 10.4111C52.75 10.4414 52.62 10.715 52.5539 10.7602C52.2849 11.8955 52.7532 12.7187 51.8227 12.5284C51.6844 12.4999 51.6407 12.4788 51.5423 12.3772L51.1737 11.9967L51.0185 11.7031L50.8393 11.6379L50.5299 11.5253C50.4484 11.4716 50.3726 11.343 50.3091 11.0497L50.4345 10.7397L50.6882 10.5356C50.9984 10.5242 51.2538 10.5864 51.2847 10.7725L51.19 10.8189L51.1408 10.977L51.0988 11.2581L51.2639 11.417L51.5226 11.5704L51.7248 11.6045L51.8396 11.4487L51.9714 11.2793C52.0564 11.0862 51.9746 10.9511 51.9764 10.7871L51.7199 10.7333L51.5916 10.6273C51.4771 10.4942 51.4787 10.3771 51.597 10.2763L51.9299 10.0193C52.0292 9.89069 52.0877 9.66815 52.1053 9.35199L51.9909 9.15228L51.9477 8.95873L51.8254 8.83517L51.6887 8.64709L51.7125 8.41865L51.7792 8.22555L51.9314 8.10313L52.0572 7.95131L52.2625 7.8877L52.5147 7.90048C52.5535 7.96513 52.6564 7.96154 52.6762 8.02322C52.8062 8.42738 52.7986 8.64819 53.3415 8.31997L53.5184 8.28555L53.8903 8.16404L54.1259 8.01265L54.3577 7.97847L54.5304 7.90301L54.5404 7.76827L54.3612 7.70306L54.2086 7.66728L54.0866 7.70194L53.8912 7.63081L53.7283 7.57152L53.5026 7.58817L53.3723 7.54074L53.234 7.56947L53.106 7.62166L52.28 7.51862L51.4112 7.38022L51.1877 7.49648L50.901 7.53044L50.7807 7.5766C50.7269 7.57967 50.6717 7.6243 50.6193 7.58601L50.4616 7.52861L50.2154 7.49829L49.9371 7.61433C49.8827 7.66652 49.8335 7.67874 49.7802 7.67578L49.5913 7.60702L49.4856 7.64761C48.2886 7.87843 47.9493 7.87315 48.1426 7.50967C48.2221 7.36012 48.6223 7.22669 49.0132 7.19102C49.2475 7.16959 49.3794 7.14668 49.625 7.24386L49.8344 7.22129L50.0765 7.21059L50.3348 7.20581L50.587 7.21856L50.7476 7.17822L50.855 7.07909ZM53.7072 11.0809L53.582 11.0592L53.5011 11.1015L53.4386 11.1864L53.3502 11.1542L53.1662 11.1111L53.0679 11.0754L52.9772 11.1141L52.9368 11.2309L52.91 11.3408L52.8794 11.4612L52.8589 11.5852L52.8492 11.6774L52.8235 11.7517L52.7499 11.7727L52.8102 11.9502L52.9466 12.1314L53.0952 12.2452L53.2437 12.2634L53.3209 12.2317L53.4313 12.2001L53.4791 12.1578L53.5637 12.1049L53.6435 12.098L53.7071 11.9777L53.81 11.8716L53.8517 11.815L53.8957 11.6875L53.8931 11.567L53.9261 11.4714L53.8573 11.3507L53.7713 11.2476L53.7613 11.1484L53.7072 11.0809ZM51.2618 7.00138L51.3974 6.93527L51.5746 6.9063L51.6845 6.85348L51.9918 6.87797L51.949 7.14086L51.7704 7.13565L51.5507 7.13478L51.4185 7.14594L51.2952 7.11217L51.2618 7.00138ZM53.3108 6.55022L53.282 6.42119L53.3305 6.28076L53.4134 6.09359L53.521 5.99442L53.6551 5.92467L53.7975 5.93697L53.9278 5.98441L53.985 6.08425L53.9486 6.18959L53.9001 6.33002L53.8066 6.33549L53.76 6.41732L53.7115 6.55775L53.5733 6.6619L53.4331 6.67379L53.3108 6.55022Z" fill="#1B1918"/>
<path fill-rule="evenodd" clip-rule="evenodd" d="M63.6869 11.8692L64.3347 12.1051L64.6135 12.1347L64.7813 12.2605L65.1095 12.2108L65.4368 12.1595L65.6919 11.9007C66.0279 11.6135 66.3963 11.3819 66.7965 11.206C67.0901 11.0769 67.3197 11.0651 67.3989 11.469C67.4558 11.7589 67.312 12.1324 67.0146 12.708C67.0109 12.8517 67.0701 12.9543 67.1923 13.0157C67.3581 13.1421 67.5422 13.2347 67.4846 13.4462C67.4236 13.6698 67.1858 13.9935 66.4661 13.9722L66.0425 13.8799C65.898 13.7942 65.7836 13.8082 65.673 13.8756C65.5027 13.9795 65.48 14.1372 65.4325 14.3139C65.5833 15.2905 65.8414 16.1439 66.1312 17.03C66.2096 17.2303 66.3258 17.4018 66.4571 17.5601C66.515 17.6298 66.5733 17.6547 66.6531 17.6948C66.8325 17.7845 66.9436 17.8554 66.9627 18.0068C66.9848 18.182 66.8683 18.271 66.751 18.28C66.6131 18.2906 66.5737 18.2787 66.4476 18.2333C66.1607 18.1059 65.8756 17.9466 65.5908 17.7837L65.4279 17.584L65.2107 17.2079L65.154 16.986L64.9862 16.3656L64.9739 15.9733L64.9047 15.6888L64.8751 15.4727L64.8455 15.2565L64.8332 14.8643L64.7567 14.6081L64.6383 14.403L64.3175 14.2594L64.2187 14.4182L64.0707 14.4914L62.8517 14.9351L62.4223 15.0981L62.0793 15.2046L61.6499 15.2027L61.4673 15.1337L61.1662 14.8595L61.0996 14.4556C61.2996 14.2007 61.3003 14.1838 61.5586 14.3439L61.7091 14.3162L61.8917 14.3852L62.0669 14.3177L62.2224 14.3809L62.3902 14.3419L62.4766 14.2854L62.6024 14.2973L62.8171 14.2982L62.9676 14.2704L63.1404 14.1575L63.36 14.0846L63.5352 14.0171C63.7764 13.875 63.855 13.6744 63.6389 13.4548L63.1947 13.18L63.012 12.9461L63.0466 12.7587L63.0861 12.4974L63.1379 12.2987L63.2786 12.0889L63.3896 11.9928L63.6869 11.8692Z" fill="#1B1918"/>
<path fill-rule="evenodd" clip-rule="evenodd" d="M76.2972 23.9056C76.3809 23.8067 76.3936 23.7011 76.6383 23.6193L77.1393 23.2493L77.2685 23.2227L77.3774 23.194L77.5886 23.0552L77.7515 23.0726L77.8738 23.0856L77.996 23.0986L78.0839 23.1886L78.2812 23.129L78.3993 23.2827L78.4872 23.3727L78.5204 23.5376L78.489 23.7157L78.4064 23.9488L78.2871 24.037L78.1102 24.0988L77.96 24.2441L77.9083 24.42C78.0714 24.6333 78.231 24.6301 78.3872 24.4106L78.5368 24.3862L78.659 24.3992L78.8121 24.355L79.0158 24.3767L79.1037 24.4668L79.3539 24.695L79.4139 24.9434L79.4198 25.1456L79.3918 25.304L79.3674 25.4425L79.4687 25.5743L79.6282 25.6114C79.8728 25.8308 80.463 25.6586 80.7778 25.623C81.262 25.7032 81.277 26.1221 80.9319 26.4561L80.7585 26.4981L80.7003 26.5927L80.5705 26.7402L80.5321 26.9579L80.1166 27.1959C79.5744 27.2651 79.6547 26.9899 79.0515 26.8807L78.7792 27.013L78.7513 27.1714L78.6116 27.2573L78.4784 27.4246L78.3689 27.5742L78.3713 27.7963L78.5163 28.0335L78.4709 28.2908L78.4867 28.5546C78.0544 29.1034 77.5982 29.2967 77.0899 28.7082L77.0625 28.5284L76.9083 28.3259L76.7936 28.1524L76.6685 28.0382L76.5881 27.7877C76.6445 27.2766 77.0818 27.7808 77.1346 27.8661L77.3244 27.967L77.4745 27.8217L77.4721 27.5996C77.3724 26.9874 77.0678 26.518 76.4314 26.4402L76.1282 26.6297L75.9294 26.9335L75.5339 27.1891L75.3298 27.3915L75.2641 27.6466L75.2222 27.8841L75.1978 28.0226L75.2583 28.1501L75.1617 28.4624L75.1879 28.6668L75.2625 28.9257C75.1795 29.2645 75.005 29.3821 74.8216 29.4739C74.38 29.6951 74.3352 29.5025 74.1796 29.2583C73.9361 29.0808 73.5853 28.8987 73.2315 28.9324C72.9658 28.8706 72.7149 28.7261 72.4677 28.5584L72.2332 28.2433C72.128 28.051 71.9407 27.8855 71.9019 27.6184C71.8777 27.4522 71.9853 27.292 72.0939 27.1475C72.3587 26.7837 72.571 26.7182 72.6672 27.3094C72.6547 27.4785 72.6437 27.6386 72.819 27.7984L72.8983 27.9994C73.1881 28.2229 73.419 28.2881 73.5199 28.0052C73.5951 27.5269 73.3921 27.1458 73.1112 26.7921C72.9595 26.6683 72.8896 26.5736 73.0105 26.4791C73.1138 26.3616 73.3257 26.3974 73.5366 26.6157L73.7898 26.9451C73.9409 27.0693 74.1154 27.0609 74.313 26.9202L74.7797 26.6272L74.9904 26.6093L75.1708 26.5277L75.1918 26.409L75.1417 26.2222L75.1731 26.044L75.2825 25.8944L75.442 25.9316C75.6078 25.9361 75.6514 25.8062 75.6131 25.6675L75.3558 25.4788L75.1929 25.4614L75.02 25.3825L74.8884 25.187L74.7563 25.1125L74.5293 24.9874L74.3937 24.9327L74.2075 24.812L73.9904 24.7486L73.9095 24.6189L73.7058 24.5972L73.608 24.4457C73.3869 24.4613 73.3629 24.4311 73.2419 24.2999C72.9914 24.0284 72.7396 23.7102 72.7867 23.5718C72.7084 23.3682 72.9039 23.2937 73.3737 23.3476C73.6371 23.3778 73.7428 23.6701 73.8977 23.8617L74.0957 24.0339L74.2103 24.2074L74.3867 24.2665L74.5491 24.4048L74.7353 24.5255L74.9489 24.6087L75.1043 24.7866L75.3179 24.8698L75.5699 24.7354L75.7742 24.6362L75.9243 24.4909L76.0814 24.306L76.1873 24.1761L76.2972 23.9056ZM77.1994 25.2292L77.0054 24.9091L76.8744 24.942L76.7861 24.9512L76.6032 24.9504L76.4858 25.125L76.5185 25.2127L76.4739 25.3016L76.4496 25.4393L76.3831 25.4884L76.4191 25.5578L76.4029 25.6496L76.5188 25.8117L76.5941 25.8759L76.7222 25.8053L76.8391 25.7429L76.912 25.6571L76.9796 25.7111L77.0506 25.6905L77.1424 25.6068L77.1681 25.5159L77.2504 25.4311L77.2306 25.326L77.1994 25.2292ZM77.906 25.4823L77.9771 25.4618L78.0781 25.4352L78.1632 25.4442L78.2293 25.4513L78.3174 25.4981L78.3974 25.5908L78.4363 25.6979V25.8102L78.4168 25.9204L78.3263 26.0511L78.2993 26.095L78.187 26.186L78.1284 26.2453L78.0527 26.2372L77.9644 26.2465L77.9031 26.2119L77.8423 26.065L77.7434 25.9703L77.7043 25.9193L77.725 25.856L77.7427 25.755L77.7654 25.6264L77.8146 25.5661L77.906 25.4823Z" fill="#1B1918"/>
<path fill-rule="evenodd" clip-rule="evenodd" d="M44 12.4539C59.4231 12.4539 72.2624 23.5285 75.0032 38.1571H74.7C71.9631 23.694 59.2581 12.7516 44 12.7516C28.7422 12.7516 16.0371 23.694 13.3003 38.1571H12.9971C15.7378 23.5285 28.5772 12.4539 44 12.4539ZM73.3911 55.4757C68.7997 67.2219 57.3704 75.545 44 75.545C30.6298 75.545 19.2006 67.2219 14.6092 55.4757H14.9286C19.5043 67.054 30.7971 75.2473 44 75.2473C57.2032 75.2473 68.496 67.054 73.0717 55.4757H73.3911Z" fill="#AE1623"/>
<path fill-rule="evenodd" clip-rule="evenodd" d="M72.6854 39.5134H71.1561V40.574H72.6854V39.5134ZM70.8282 41.0889H86.7423V51.822H70.8282V54.0958H85.5389V54.427H2.77011V54.0958H17.1407V51.822H1.23242V41.0889H17.1407V38.5781H1.96459V37.8596H17.1407L17.1027 33.9928H16.6268V33.0523H32.7234V32.3641V32.0435H33.0441H37.5827H37.8047H37.9033V33.0523H50.0854V32.3641V32.0435H50.4061H54.9447H55.1667H55.2654V33.0523H71.3421V33.9928H70.8282V37.8596H86.2162V38.5781H70.8282V41.0889ZM15.2285 49.8779H16.7579V50.9386H15.2285V49.8779ZM12.5501 49.8779H14.0795V50.9386H12.5501V49.8779ZM9.87168 49.8779H11.401V50.9386H9.87168V49.8779ZM7.19319 49.8779H8.72252V50.9386H7.19319V49.8779ZM4.51473 49.8779H6.04405V50.9386H4.51473V49.8779ZM1.83627 49.8779H3.36557V50.9386H1.83627V49.8779ZM15.2285 47.2867H16.7579V48.3474H15.2285V47.2867ZM12.5501 47.2867H14.0795V48.3474H12.5501V47.2867ZM9.87168 47.2867H11.401V48.3474H9.87168V47.2867ZM7.19319 47.2867H8.72252V48.3474H7.19319V47.2867ZM4.51473 47.2867H6.04405V48.3474H4.51473V47.2867ZM1.83627 47.2867H3.36557V48.3474H1.83627V47.2867ZM15.2285 44.6957H16.7579V45.7563H15.2285V44.6957ZM12.5501 44.6957H14.0795V45.7563H12.5501V44.6957ZM9.87168 44.6957H11.401V45.7563H9.87168V44.6957ZM7.19319 44.6957H8.72252V45.7563H7.19319V44.6957ZM4.51473 44.6957H6.04405V45.7563H4.51473V44.6957ZM1.83627 44.6957H3.36557V45.7563H1.83627V44.6957ZM15.2285 42.1045H16.7579V43.1652H15.2285V42.1045ZM12.5501 42.1045H14.0795V43.1652H12.5501V42.1045ZM9.87168 42.1045H11.401V43.1652H9.87168V42.1045ZM7.19319 42.1045H8.72252V43.1652H7.19319V42.1045ZM4.51473 42.1045H6.04405V43.1652H4.51473V42.1045ZM1.83627 42.1045H3.36557V43.1652H1.83627V42.1045ZM17.4718 36.6095H33.098V33.9928H17.4339L17.4718 36.6095ZM33.4292 36.6095H37.1976V33.9928H33.4292V36.6095ZM37.5288 36.6095H50.4601V33.9928H37.5288V36.6095ZM50.7912 36.6095H54.5596V33.9928H50.7912V36.6095ZM54.8908 36.6095H70.497V33.9928H54.8908V36.6095ZM70.497 48.8135H54.8908V54.0958H70.497V48.8135ZM54.5596 48.8135H50.7878V54.0958H54.5596V48.8135ZM50.2556 48.8135H46.4351V54.0958H46.9312V52.1057H49.6445V54.0958H50.2556V48.8135ZM45.9029 48.8135H42.0824V54.0958H42.6639V52.1057H45.3772V54.0958H45.9029V48.8135ZM41.5502 48.8135H37.7298V54.0958H38.3967V52.1057H41.11V54.0958H41.5502V48.8135ZM37.1976 48.8135H33.4292V54.0958H37.1976V48.8135ZM33.098 48.8135H17.4718V54.0958H33.098V48.8135ZM56.7215 49.6311H55.1922V50.9386H56.7215V49.6311ZM2.77011 55.8462V55.2992H85.5389V55.8462H2.77011ZM15.2285 52.469H16.7579V53.5296H15.2285V52.469ZM12.5501 52.469H14.0795V53.5296H12.5501V52.469ZM9.87168 52.469H11.401V53.5296H9.87168V52.469ZM7.19319 52.469H8.72252V53.5296H7.19319V52.469ZM4.51473 52.469H6.04405V53.5296H4.51473V52.469ZM1.83627 52.469H3.36557V53.5296H1.83627V52.469ZM53.44 52.1057H51.9107V53.4132H53.44V52.1057ZM36.078 52.1057H34.5487V53.4132H36.078V52.1057ZM32.8483 52.1057H31.319V53.4132H32.8483V52.1057ZM30.1699 52.1057H28.6406V53.4132H30.1699V52.1057ZM27.4914 52.1057H25.9621V53.4132H27.4914V52.1057ZM24.8129 52.1057H23.2836V53.4132H24.8129V52.1057ZM22.1345 52.1057H20.6051V53.4132H22.1345V52.1057ZM19.4561 52.1057H17.9267V53.4132H19.4561V52.1057ZM56.7215 52.1057H55.1922V53.4132H56.7215V52.1057ZM59.3999 52.1057H57.8706V53.4132H59.3999V52.1057ZM62.0784 52.1057H60.549V53.4132H62.0784V52.1057ZM64.7568 52.1057H63.2275V53.4132H64.7568V52.1057ZM67.4353 52.1057H65.906V53.4132H67.4353V52.1057ZM70.1138 52.1057H68.5844V53.4132H70.1138V52.1057ZM72.6854 52.469H71.1561V53.5296H72.6854V52.469ZM75.3638 52.469H73.8345V53.5296H75.3638V52.469ZM78.0423 52.469H76.513V53.5296H78.0423V52.469ZM80.7207 52.469H79.1914V53.5296H80.7207V52.469ZM83.3992 52.469H81.8699V53.5296H83.3992V52.469ZM86.0777 52.469H84.5484V53.5296H86.0777V52.469ZM19.4561 49.6311H17.9267V50.9386H19.4561V49.6311ZM22.1345 49.6311H20.6051V50.9386H22.1345V49.6311ZM24.8129 49.6311H23.2836V50.9386H24.8129V49.6311ZM27.4914 49.6311H25.9621V50.9386H27.4914V49.6311ZM30.1699 49.6311H28.6406V50.9386H30.1699V49.6311ZM32.8483 49.6311H31.319V50.9386H32.8483V49.6311ZM36.078 49.6311H34.5487V50.9386H36.078V49.6311ZM38.3967 49.6311H41.11V50.8691H38.3967V49.6311ZM42.6639 49.6311H45.3772V50.8691H42.6639V49.6311ZM46.9312 49.6311H49.6445V50.8691H46.9312V49.6311ZM59.3999 49.6311H57.8706V50.9386H59.3999V49.6311ZM62.0784 49.6311H60.549V50.9386H62.0784V49.6311ZM64.7568 49.6311H63.2275V50.9386H64.7568V49.6311ZM67.4353 49.6311H65.906V50.9386H67.4353V49.6311ZM70.1138 49.6311H68.5844V50.9386H70.1138V49.6311ZM53.44 49.6311H51.9107V50.9386H53.44V49.6311ZM15.2285 39.5134H16.7579V40.574H15.2285V39.5134ZM12.5501 39.5134H14.0795V40.574H12.5501V39.5134ZM9.87168 39.5134H11.401V40.574H9.87168V39.5134ZM7.19319 39.5134H8.72252V40.574H7.19319V39.5134ZM4.51473 39.5134H6.04405V40.574H4.51473V39.5134ZM1.83627 39.5134H3.36557V40.574H1.83627V39.5134ZM54.9447 33.0523V32.3641H50.4061V33.0523H54.9447ZM37.5827 33.0523V32.3641H33.0441V33.0523H37.5827ZM53.44 34.8554H51.9107V35.9161H53.44V34.8554ZM56.7453 34.8554H55.216V35.9161H56.7453V34.8554ZM59.4093 34.8554H57.88V35.9161H59.4093V34.8554ZM62.0733 34.8554H60.5439V35.9161H62.0733V34.8554ZM64.7372 34.8554H63.2079V35.9161H64.7372V34.8554ZM67.4012 34.8554H65.8719V35.9161H67.4012V34.8554ZM70.0652 34.8554H68.5359V35.9161H70.0652V34.8554ZM46.9312 34.8554H49.6445V35.9161H46.9312V34.8554ZM42.6639 34.8554H45.3772V35.9161H42.6639V34.8554ZM38.3967 34.8554H41.11V35.9161H38.3967V34.8554ZM34.5487 34.8554H36.078V35.9161H34.5487V34.8554ZM31.2434 34.8554H32.7727V35.9161H31.2434V34.8554ZM28.5795 34.8554H30.1088V35.9161H28.5795V34.8554ZM25.9155 34.8554H27.4448V35.9161H25.9155V34.8554ZM23.2515 34.8554H24.7808V35.9161H23.2515V34.8554ZM20.5875 34.8554H22.1169V35.9161H20.5875V34.8554ZM17.9236 34.8554H19.4529V35.9161H17.9236V34.8554ZM75.3638 39.5134H73.8345V40.574H75.3638V39.5134ZM78.0423 39.5134H76.513V40.574H78.0423V39.5134ZM80.7207 39.5134H79.1914V40.574H80.7207V39.5134ZM83.3992 39.5134H81.8699V40.574H83.3992V39.5134ZM86.0777 39.5134H84.5484V40.574H86.0777V39.5134ZM17.9236 46.5006H19.4529V47.5612H17.9236V46.5006ZM20.5875 46.5006H22.1169V47.5612H20.5875V46.5006ZM23.2515 46.5006H24.7808V47.5612H23.2515V46.5006ZM25.9155 46.5006H27.4448V47.5612H25.9155V46.5006ZM28.5795 46.5006H30.1088V47.5612H28.5795V46.5006ZM31.2434 46.5006H32.7727V47.5612H31.2434V46.5006ZM34.5487 46.5006H36.078V47.5612H34.5487V46.5006ZM38.3967 46.5006H41.11V47.5612H38.3967V46.5006ZM42.6639 46.5006H45.3772V47.5612H42.6639V46.5006ZM46.9312 46.5006H49.6445V47.5612H46.9312V46.5006ZM70.0652 46.5006H68.5359V47.5612H70.0652V46.5006ZM67.4012 46.5006H65.8719V47.5612H67.4012V46.5006ZM64.7372 46.5006H63.2079V47.5612H64.7372V46.5006ZM62.0733 46.5006H60.5439V47.5612H62.0733V46.5006ZM59.4093 46.5006H57.88V47.5612H59.4093V46.5006ZM56.7453 46.5006H55.216V47.5612H56.7453V46.5006ZM53.44 46.5006H51.9107V47.5612H53.44V46.5006ZM53.44 43.6378H51.9107V44.6985H53.44V43.6378ZM56.7453 43.6378H55.216V44.6985H56.7453V43.6378ZM59.4093 43.6378H57.88V44.6985H59.4093V43.6378ZM62.0733 43.6378H60.5439V44.6985H62.0733V43.6378ZM64.7372 43.6378H63.2079V44.6985H64.7372V43.6378ZM67.4012 43.6378H65.8719V44.6985H67.4012V43.6378ZM70.0652 43.6378H68.5359V44.6985H70.0652V43.6378ZM46.9312 43.6378H49.6445V44.6985H46.9312V43.6378ZM42.6639 43.6378H45.3772V44.6985H42.6639V43.6378ZM38.3967 43.6378H41.11V44.6985H38.3967V43.6378ZM34.5487 43.6378H36.078V44.6985H34.5487V43.6378ZM31.2434 43.6378H32.7727V44.6985H31.2434V43.6378ZM28.5795 43.6378H30.1088V44.6985H28.5795V43.6378ZM25.9155 43.6378H27.4448V44.6985H25.9155V43.6378ZM23.2515 43.6378H24.7808V44.6985H23.2515V43.6378ZM20.5875 43.6378H22.1169V44.6985H20.5875V43.6378ZM17.9236 43.6378H19.4529V44.6985H17.9236V43.6378ZM17.9236 40.7751H19.4529V41.8357H17.9236V40.7751ZM20.5875 40.7751H22.1169V41.8357H20.5875V40.7751ZM23.2515 40.7751H24.7808V41.8357H23.2515V40.7751ZM25.9155 40.7751H27.4448V41.8357H25.9155V40.7751ZM28.5795 40.7751H30.1088V41.8357H28.5795V40.7751ZM31.2434 40.7751H32.7727V41.8357H31.2434V40.7751ZM34.5487 40.7751H36.078V41.8357H34.5487V40.7751ZM38.3967 40.7751H41.11V41.8357H38.3967V40.7751ZM42.6639 40.7751H45.3772V41.8357H42.6639V40.7751ZM46.9312 40.7751H49.6445V41.8357H46.9312V40.7751ZM70.0652 40.7751H68.5359V41.8357H70.0652V40.7751ZM67.4012 40.7751H65.8719V41.8357H67.4012V40.7751ZM64.7372 40.7751H63.2079V41.8357H64.7372V40.7751ZM62.0733 40.7751H60.5439V41.8357H62.0733V40.7751ZM59.4093 40.7751H57.88V41.8357H59.4093V40.7751ZM56.7453 40.7751H55.216V41.8357H56.7453V40.7751ZM53.44 40.7751H51.9107V41.8357H53.44V40.7751ZM17.9236 37.9123H19.4529V38.9729H17.9236V37.9123ZM20.5875 37.9123H22.1169V38.9729H20.5875V37.9123ZM23.2515 37.9123H24.7808V38.9729H23.2515V37.9123ZM25.9155 37.9123H27.4448V38.9729H25.9155V37.9123ZM28.5795 37.9123H30.1088V38.9729H28.5795V37.9123ZM31.2434 37.9123H32.7727V38.9729H31.2434V37.9123ZM34.5487 37.9123H36.078V38.9729H34.5487V37.9123ZM38.3967 37.9123H41.11V38.9729H38.3967V37.9123ZM42.6639 37.9123H45.3772V38.9729H42.6639V37.9123ZM46.9312 37.9123H49.6445V38.9729H46.9312V37.9123ZM70.0652 37.9123H68.5359V38.9729H70.0652V37.9123ZM67.4012 37.9123H65.8719V38.9729H67.4012V37.9123ZM64.7372 37.9123H63.2079V38.9729H64.7372V37.9123ZM62.0733 37.9123H60.5439V38.9729H62.0733V37.9123ZM59.4093 37.9123H57.88V38.9729H59.4093V37.9123ZM56.7453 37.9123H55.216V38.9729H56.7453V37.9123ZM53.44 37.9123H51.9107V38.9729H53.44V37.9123ZM72.6854 49.8779H71.1561V50.9386H72.6854V49.8779ZM75.3638 49.8779H73.8345V50.9386H75.3638V49.8779ZM78.0423 49.8779H76.513V50.9386H78.0423V49.8779ZM80.7207 49.8779H79.1914V50.9386H80.7207V49.8779ZM83.3992 49.8779H81.8699V50.9386H83.3992V49.8779ZM86.0777 49.8779H84.5484V50.9386H86.0777V49.8779ZM72.6854 47.2867H71.1561V48.3474H72.6854V47.2867ZM75.3638 47.2867H73.8345V48.3474H75.3638V47.2867ZM78.0423 47.2867H76.513V48.3474H78.0423V47.2867ZM80.7207 47.2867H79.1914V48.3474H80.7207V47.2867ZM83.3992 47.2867H81.8699V48.3474H83.3992V47.2867ZM86.0777 47.2867H84.5484V48.3474H86.0777V47.2867ZM72.6854 44.6957H71.1561V45.7563H72.6854V44.6957ZM75.3638 44.6957H73.8345V45.7563H75.3638V44.6957ZM78.0423 44.6957H76.513V45.7563H78.0423V44.6957ZM80.7207 44.6957H79.1914V45.7563H80.7207V44.6957ZM83.3992 44.6957H81.8699V45.7563H83.3992V44.6957ZM86.0777 44.6957H84.5484V45.7563H86.0777V44.6957ZM72.6854 42.1045H71.1561V43.1652H72.6854V42.1045ZM75.3638 42.1045H73.8345V43.1652H75.3638V42.1045ZM78.0423 42.1045H76.513V43.1652H78.0423V42.1045ZM80.7207 42.1045H79.1914V43.1652H80.7207V42.1045ZM83.3992 42.1045H81.8699V43.1652H83.3992V42.1045ZM86.0777 42.1045H84.5484V43.1652H86.0777V42.1045Z" fill="#AE1623"/>
<path fill-rule="evenodd" clip-rule="evenodd" d="M43.9999 0C68.2965 0 88 19.7035 88 44C88 68.2965 68.2965 88 43.9999 88C19.7035 88 0 68.2965 0 44C0 19.7035 19.7035 0 43.9999 0ZM43.9999 1.96219C67.2128 1.96219 86.0378 20.7872 86.0378 44C86.0378 67.2129 67.2128 86.0379 43.9999 86.0379C20.787 86.0379 1.96208 67.2129 1.96208 44C1.96208 20.7872 20.787 1.96219 43.9999 1.96219Z" fill="#AE1623"/>
<path fill-rule="evenodd" clip-rule="evenodd" d="M37.8473 60.9138H34.6699V60.5821H37.8473V60.9138ZM39.5168 62.5723H38.8758V59.8143H38.0398V59.5658C38.3739 59.5658 38.6342 59.5168 38.8198 59.4207C39.0064 59.3241 39.1268 59.1792 39.1825 58.9856H39.5168V62.5723ZM42.8575 60.7476C42.8575 61.3145 42.7226 61.7673 42.4531 62.1061C42.1841 62.4445 41.798 62.6139 41.2961 62.6139C40.9441 62.6139 40.6601 62.5172 40.447 62.3238C40.2334 62.13 40.126 61.916 40.126 61.6816H40.7669C40.7669 61.8195 40.8183 61.9444 40.9203 62.0549C41.0225 62.1654 41.157 62.2202 41.3248 62.2202C41.603 62.2202 41.8124 62.1026 41.9514 61.8674C42.0904 61.6321 42.1796 61.2871 42.2164 60.8306C42.1237 60.9828 41.9928 61.1004 41.8265 61.1827C41.659 61.2656 41.4734 61.3074 41.2688 61.3074C40.9155 61.3074 40.6273 61.2112 40.4042 61.0173C40.1817 60.8241 40.0701 60.5476 40.0701 60.1876C40.0701 59.8287 40.1817 59.538 40.4042 59.3173C40.6273 59.0959 40.9619 58.9856 41.4079 58.9856C41.8538 58.9856 42.207 59.1238 42.4675 59.4004C42.7276 59.6764 42.8575 60.1257 42.8575 60.7476ZM42.1607 60.2707C42.1607 59.9665 42.0903 59.739 41.9514 59.5871C41.8124 59.4351 41.622 59.3588 41.3805 59.3588C41.2129 59.3588 41.0641 59.4173 40.9347 59.5348C40.8051 59.6524 40.7396 59.87 40.7396 60.1876C40.7396 60.4229 40.791 60.606 40.8929 60.7369C40.9952 60.8685 41.157 60.9341 41.3805 60.9341C41.622 60.9341 41.8124 60.8722 41.9514 60.7476C42.0904 60.6229 42.1607 60.4645 42.1607 60.2707ZM46.2909 61.6595H45.7058V62.5723H45.0649V61.6595H43.1978V61.2659L45.0649 58.9856H45.7058V61.2659H46.2909V61.6595ZM45.0649 61.2659V59.7321L43.8103 61.2659H45.0649ZM49.3913 61.2871C49.3913 61.7019 49.2568 62.0266 48.9868 62.261C48.7183 62.4962 48.3602 62.6139 47.9143 62.6139C47.5232 62.6139 47.2032 62.5175 46.9524 62.3238C46.7014 62.1301 46.567 61.8674 46.548 61.5357H47.189C47.189 61.7435 47.2545 61.909 47.3839 62.0336C47.5136 62.1583 47.7002 62.2202 47.9418 62.2202C48.1831 62.2202 48.3734 62.1442 48.5125 61.992C48.6517 61.8399 48.7218 61.6046 48.7218 61.2871C48.7218 61.0103 48.6611 60.806 48.5411 60.6751C48.4198 60.5432 48.258 60.4778 48.0534 60.4778C47.8859 60.4778 47.742 60.5052 47.6218 60.5608C47.5006 60.6157 47.3853 60.713 47.2734 60.8511H46.7158L46.8833 59.0272H49.2794V59.4207H47.4136L47.3008 60.3743C47.4125 60.2912 47.5327 60.2292 47.6635 60.1876C47.7931 60.1461 47.9701 60.1257 48.1926 60.1257C48.5458 60.1257 48.8334 60.2256 49.0572 60.4264C49.2794 60.6272 49.3913 60.9138 49.3913 61.2871ZM53.2793 60.9138H50.1018V60.5821H53.2793V60.9138Z" fill="#AE1623"/>
</svg>
