<svg width="785" height="785" viewBox="0 0 785 785" fill="none" xmlns="http://www.w3.org/2000/svg">
<path fill-rule="evenodd" clip-rule="evenodd" d="M392.505 0C609.211 0 784.825 175.77 784.825 392.498C784.825 609.228 609.211 784.998 392.505 784.998C175.801 784.998 0.1875 609.303 0.1875 392.498C0.1875 175.695 175.861 0 392.505 0ZM392.505 23.3391C188.73 23.3391 23.5159 188.63 23.5159 392.498C23.5159 596.368 188.73 761.658 392.505 761.658C596.281 761.658 761.495 596.338 761.495 392.498C761.495 188.66 596.251 23.3391 392.505 23.3391Z" fill="#00A0E9"/>
<path fill-rule="evenodd" clip-rule="evenodd" d="M392.505 37.3365C588.53 37.3365 747.489 196.384 747.489 392.498C747.489 588.613 588.53 747.646 392.505 747.646C196.481 747.646 37.5062 588.613 37.5062 392.498C37.5062 196.384 196.481 37.3365 392.505 37.3365ZM392.505 33.9531C194.61 33.9531 34.1094 194.512 34.1094 392.498C34.1094 590.484 194.61 751.044 392.505 751.044C590.4 751.044 750.886 590.484 750.886 392.498C750.886 194.512 590.4 33.9531 392.505 33.9531Z" fill="#00A0E9"/>
<path fill-rule="evenodd" clip-rule="evenodd" d="M392.506 170.573C515.016 170.573 614.328 269.932 614.328 392.497C614.328 515.064 515.016 614.421 392.506 614.421C269.997 614.421 170.684 515.064 170.684 392.497C170.701 269.939 270.004 170.59 392.506 170.573ZM392.506 167.176C268.122 167.167 167.282 268.041 167.273 392.482C167.264 516.925 268.092 617.811 392.476 617.82C516.861 617.827 617.701 516.955 617.71 392.512C617.71 392.508 617.71 392.502 617.71 392.497C617.694 268.068 516.879 167.201 392.506 167.176Z" fill="#00A0E9"/>
<path fill-rule="evenodd" clip-rule="evenodd" d="M393.955 185.426C508.265 185.443 600.919 278.166 600.903 392.529C600.885 506.893 508.204 599.589 393.893 599.572C304.131 599.559 224.608 541.662 196.988 456.214H384.034C386.796 456.221 389.555 456.046 392.294 455.69L393.551 455.511C428.335 450.24 452.262 417.757 446.994 382.956C441.726 348.157 409.257 324.217 374.472 329.488C350.499 333.122 330.664 350.056 323.311 373.172H289.598C299.309 326.764 340.983 291.882 390.932 291.882C422.531 291.807 452.443 306.134 472.2 330.806C478.48 338.56 483.821 347.034 488.106 356.046C486.326 347.438 481.208 339.144 476.42 331.749C457.176 302.032 422.371 282.166 382.642 282.166C326.394 282.166 280.021 321.958 273.692 373.202H238.617C249.301 296.852 314.123 238.123 392.488 238.123C438.84 238.138 482.731 258.991 512.033 294.921C514.846 298.335 517.521 301.878 520.054 305.55L521.46 307.646C521.865 308.26 523.57 310.49 523.525 310.131C523.479 309.869 523.404 309.613 523.301 309.368C522.966 308.527 522.545 307.725 522.044 306.973C521.056 305.356 520.024 303.768 518.977 302.196L516.792 299.008C487.523 257.54 438.247 230.323 382.403 230.323C297.589 230.323 227.947 293.109 220.511 373.187H187.875C197.858 266.779 287.129 185.446 393.955 185.426Z" fill="#00A0E9"/>
<path d="M203.975 443.52H195.834V397.425H185.195V393.263C188.67 393.464 192.125 392.62 195.116 390.838C197.561 389.125 199.221 386.506 199.725 383.562H203.975V443.52Z" fill="#00A0E9"/>
<path d="M250.617 413.323C250.617 422.664 249.012 430.116 245.799 435.674C242.582 441.258 237.973 444.027 231.988 444.027C228.04 444.153 224.274 442.376 221.857 439.252C219.384 436.291 218.028 432.556 218.027 428.698H225.673C225.652 430.88 226.288 433.02 227.499 434.836C228.515 436.535 230.352 437.571 232.332 437.56C235.654 437.56 238.153 435.629 239.814 431.751C241.475 427.875 242.597 422.17 242.971 414.686C241.998 417.018 240.384 419.027 238.317 420.478C236.36 421.829 234.036 422.544 231.658 422.529C227.666 422.631 223.855 420.865 221.348 417.754C218.7 414.566 217.353 410.029 217.353 404.101C217.121 399.025 218.522 394.009 221.348 389.789C224.012 386.155 228.003 384.34 233.319 384.34C238.439 384.225 243.242 386.813 245.964 391.152C249.076 395.703 250.628 403.087 250.617 413.308V413.323ZM242.298 405.493C242.298 400.478 241.46 396.75 239.799 394.235C238.365 391.855 235.766 390.426 232.99 390.492C230.862 390.558 228.892 391.63 227.678 393.382C226.122 395.318 225.344 398.895 225.344 404.116C225.19 407.218 225.823 410.308 227.184 413.098C228.317 415.226 230.586 416.495 232.99 416.346C235.621 416.463 238.15 415.318 239.799 413.263C241.515 411.046 242.399 408.296 242.298 405.493Z" fill="#00A0E9"/>
<path d="M286.263 422.038C286.263 428.864 284.702 434.204 281.579 438.056C278.594 441.86 273.976 444.017 269.145 443.865C264.907 443.993 260.828 442.246 257.997 439.089C254.923 435.474 253.255 430.87 253.298 426.125H260.78C260.638 429.026 261.431 431.895 263.039 434.313C265.755 437.794 270.777 438.412 274.255 435.695C274.992 435.119 275.622 434.419 276.118 433.625C277.734 431.129 278.542 427.267 278.542 422.038C278.542 417.547 277.853 414.118 276.447 411.962C275.295 409.935 273.135 408.692 270.806 408.714C269.035 408.669 267.291 409.148 265.793 410.091C264.09 411.344 262.706 412.981 261.752 414.867H255.288L257.233 384.926H285.021V391.393H263.339L262.052 407.022C263.235 405.73 264.664 404.687 266.257 403.954C268.209 403.191 270.298 402.844 272.392 402.935C276.336 402.86 280.073 404.702 282.417 407.875C284.991 411.188 286.273 415.91 286.263 422.038Z" fill="#00A0E9"/>
<path d="M324.151 413.292C324.337 420.569 322.896 427.796 319.931 434.446C317.129 440.363 312.61 443.319 306.374 443.308C300.139 443.298 295.555 440.343 292.623 434.446C289.57 427.82 288.08 420.584 288.268 413.292C288.068 406.06 289.558 398.884 292.623 392.333C294.988 386.887 300.441 383.437 306.374 383.635C312.267 383.412 317.676 386.882 319.931 392.333C322.906 398.909 324.349 406.075 324.151 413.292ZM316.385 413.292C316.385 406.016 315.562 400.327 313.961 396.24C312.36 392.153 309.816 390.102 306.374 390.102C302.933 390.102 300.389 392.153 298.608 396.24C296.827 400.327 296.034 406.016 296.034 413.292C296.034 420.567 296.887 426.316 298.608 430.523C300.329 434.73 302.918 436.826 306.374 436.826C309.831 436.826 312.36 434.715 313.961 430.523C315.774 424.966 316.594 419.133 316.385 413.292Z" fill="#00A0E9"/>
<path d="M88.1442 420.522L87.845 416.301L102.54 415.267L101.806 404.803L87.1117 405.821L86.8125 401.599L118.222 399.414L118.506 403.635L105.278 404.548L106.011 415.028L119.239 414.1L119.538 418.322L88.1442 420.522Z" fill="#00A0E9"/>
<path d="M121.179 427.501L88.4688 422.246L89.0075 426.633L98.9883 427.861L100.006 436.199L90.6236 439.807L91.1623 444.178L121.628 431.154L121.179 427.501ZM103.343 434.762L102.565 428.444L114.087 430.106V430.36L103.343 434.762Z" fill="#00A0E9"/>
<path d="M124.231 448.099L122.166 439.117L91.4609 446.213L92.4186 450.345L105.691 447.276L106.783 452.052L94.9773 461.468L95.9799 465.765L108.205 455.765C108.962 457.282 110.177 458.522 111.677 459.312C113.535 460.234 115.674 460.416 117.662 459.822C120.774 459.103 122.81 457.696 123.767 455.57C124.756 453.204 124.919 450.571 124.231 448.099ZM120.326 453.265C119.533 454.552 118.224 455.436 116.734 455.69C115.22 456.239 113.531 455.986 112.245 455.016C111.214 454.095 110.506 452.866 110.225 451.513L109.058 446.483L119.637 444.042L120.55 447.995C121.138 449.718 121.058 451.599 120.326 453.265Z" fill="#00A0E9"/>
<path d="M129.038 468.355L126.405 459.148L96.1484 467.831L98.6922 476.679C99.3137 479.27 100.719 481.607 102.717 483.371C104.543 484.897 107.172 485.167 110.603 484.179C112.3 483.778 113.756 482.695 114.628 481.185C115.409 479.82 115.797 478.265 115.751 476.693C116.538 477.755 117.563 478.616 118.743 479.209C120.36 479.944 122.204 479.998 123.861 479.359C125.923 478.804 127.672 477.438 128.709 475.571C129.807 473.313 129.926 470.703 129.038 468.355ZM112.833 476.934C112.313 478.487 110.988 479.636 109.376 479.927C107.77 480.601 105.937 480.444 104.468 479.508C103.142 478.324 102.221 476.753 101.834 475.017L100.667 470.945L111.471 467.846L112.788 472.457C113.218 473.916 113.234 475.466 112.833 476.934ZM125.597 473.071C125.024 474.27 123.911 475.122 122.604 475.361C121.229 475.908 119.678 475.792 118.399 475.047C117.363 474.331 116.615 473.27 116.289 472.052L114.793 466.918L124.175 464.223L125.672 469.538C126.06 470.688 126.034 471.937 125.597 473.071Z" fill="#00A0E9"/>
<path d="M106.641 500.122L135.82 488.325L134.234 484.402L105.055 496.185L106.641 500.122Z" fill="#00A0E9"/>
<path d="M118.367 527.832L116.497 523.625L133.211 505.091L133.136 504.942L112.307 514.224L110.586 510.347L139.331 497.547L141.202 501.753L124.487 520.286L124.562 520.436L145.392 511.17L147.113 515.032L118.367 527.832Z" fill="#00A0E9"/>
<path d="M147.027 558.403C144.945 559.862 142.395 560.491 139.874 560.17C137.615 559.781 135.595 558.179 133.889 555.364C132.183 552.549 131.569 550.034 132.228 547.879C133.033 545.464 134.715 543.438 136.941 542.205L155.81 530.363L158.055 533.956L139.171 545.753C137.67 546.503 136.533 547.825 136.014 549.421C135.508 552.332 137.275 555.159 140.114 555.978C141.772 556.219 143.458 555.788 144.797 554.781L163.681 542.983L165.911 546.577L147.027 558.403Z" fill="#00A0E9"/>
<path d="M152.108 581.337L177.876 563.268L175.452 559.81L156.777 572.894L156.672 572.744L169.541 551.366L166.908 547.594L141.125 565.648L143.549 569.122L162.239 556.038L162.344 556.187L149.46 577.566L152.108 581.337Z" fill="#00A0E9"/>
<path d="M161.825 592.896L159.102 589.662L183.208 569.422L185.931 572.67L161.825 592.896Z" fill="#00A0E9"/>
<path d="M203.919 591.997L174.365 606.981L171.852 604.287L188.865 575.828L191.873 579.062L178.72 600.334L178.78 600.394L200.911 588.762L203.919 591.997Z" fill="#00A0E9"/>
<path d="M199.398 629.365L201.687 626.73L190.719 617.193L198.081 608.705L207.523 616.924L209.812 614.289L200.37 606.07L206.775 598.705L217.055 607.643L219.344 605.008L205.877 593.285L185.227 617.044L199.398 629.365Z" fill="#00A0E9"/>
<path d="M233.294 618.704C232.605 616.235 231.115 614.065 229.059 612.536L221.906 606.742L202.094 631.219L205.386 633.884L213.96 623.285L217.761 626.368L214.26 641.07L217.686 643.839L221.173 628.419C224.674 630.149 228.914 629.03 231.109 625.8C233.114 623.334 233.843 620.969 233.294 618.704ZM227.817 623.195C226.959 624.519 225.503 625.339 223.926 625.381C222.547 625.295 221.231 624.771 220.17 623.883L216.16 620.635L222.984 612.192L226.141 614.736C227.648 615.757 228.715 617.307 229.134 619.078C229.288 620.556 228.809 622.03 227.817 623.135V623.195Z" fill="#00A0E9"/>
<path d="M240.905 647.762C239.641 649.948 237.489 651.478 235.009 651.954C232.365 652.324 229.681 651.647 227.527 650.068C225.229 648.76 223.565 646.57 222.919 644.005C222.405 641.646 222.893 639.178 224.265 637.194L224.969 636.116L228.515 638.421L227.917 639.35C226.947 640.631 226.612 642.282 227.004 643.841C227.36 645.228 228.232 646.429 229.443 647.194C231.62 648.996 234.846 648.693 236.648 646.514C236.829 646.296 236.992 646.062 237.134 645.816C237.812 644.686 237.981 643.321 237.598 642.059C237.08 640.261 236.25 638.568 235.144 637.058C233.571 635.149 232.437 632.915 231.822 630.516C231.449 628.764 231.8 626.933 232.795 625.442C234.023 623.399 236.096 622.012 238.451 621.654C240.77 621.29 243.142 621.826 245.08 623.151C247.743 624.888 249.165 626.939 249.3 629.304C249.485 631.53 248.933 633.755 247.728 635.637L244.212 633.257C245.04 632.211 245.421 630.884 245.274 629.558C245.15 628.139 244.341 626.87 243.105 626.16C242.068 625.409 240.781 625.087 239.513 625.262C237.257 625.778 235.743 627.9 235.982 630.202C236.561 632.13 237.528 633.918 238.825 635.457C240.308 637.462 241.363 639.749 241.923 642.179C242.348 644.106 241.981 646.124 240.905 647.777V647.762Z" fill="#00A0E9"/>
<path d="M248.85 662.147L263.619 634.362L259.893 632.371L245.109 660.171L248.85 662.147Z" fill="#00A0E9"/>
<path d="M283.474 647.717L276.8 644.604L264.979 669.979L261.148 668.183L272.969 642.822L266.295 639.709L267.762 636.535L284.955 644.559L283.474 647.717Z" fill="#00A0E9"/>
<path d="M308.197 653.435L294.385 666.984L289.776 680.382L285.766 679.005L290.39 665.606L287.831 646.414L291.842 647.806L293.562 662.582L293.742 662.642L304.202 652.058L308.197 653.435Z" fill="#00A0E9"/>
<path d="M341.136 665.472C340.018 662.745 337.597 660.767 334.702 660.218C331.83 659.437 328.756 660.145 326.516 662.105C324.163 664.1 322.342 667.899 321.055 673.497C319.768 679.096 319.733 683.338 320.95 686.222C322.063 689.008 324.516 691.038 327.459 691.612C330.323 692.387 333.383 691.629 335.554 689.606C337.859 687.55 339.659 683.712 340.956 678.093C342.254 672.475 342.314 668.268 341.136 665.472ZM336.647 677.105C335.499 682.095 334.197 685.29 332.741 686.686C331.61 687.936 329.907 688.504 328.252 688.183C326.599 687.731 325.291 686.466 324.781 684.83C324.022 682.963 324.222 679.511 325.379 674.471C326.536 669.429 327.863 666.277 329.359 665.009C330.548 663.804 332.262 663.275 333.923 663.602C335.545 664.016 336.834 665.248 337.32 666.85C338.019 668.657 337.795 672.075 336.647 677.105Z" fill="#00A0E9"/>
<path d="M363.357 668.602L363.836 665.143L344.712 662.449L340.328 693.633L344.518 694.217L346.493 680.174L357.791 681.761L358.269 678.303L346.972 676.716L348.408 666.506L363.357 668.602Z" fill="#00A0E9"/>
<path d="M400.507 689.455C400.55 691.979 399.489 694.395 397.604 696.072C395.539 697.746 392.902 698.547 390.257 698.303C387.613 698.37 385.055 697.354 383.179 695.489C381.527 693.725 380.677 691.358 380.83 688.947V687.659L385.049 687.808V688.917C384.879 690.495 385.429 692.067 386.546 693.198C387.565 694.195 388.922 694.772 390.347 694.814C391.943 695.004 393.541 694.49 394.731 693.408C395.669 692.391 396.202 691.065 396.227 689.68C396.259 688.363 395.713 687.099 394.731 686.221C393.362 684.951 391.776 683.935 390.047 683.227C387.722 682.392 385.603 681.064 383.837 679.335C382.627 678.012 381.992 676.262 382.072 674.47C382.067 672.089 383.127 669.833 384.96 668.317C386.748 666.796 389.051 666.019 391.394 666.146C394.566 666.251 396.841 667.284 398.173 669.23C399.482 671.041 400.151 673.237 400.073 675.473L395.853 675.323C396.037 674.006 395.687 672.668 394.881 671.611C394.037 670.46 392.685 669.796 391.259 669.829C389.984 669.708 388.713 670.089 387.713 670.891C386.815 671.7 386.308 672.857 386.321 674.066C386.261 675.107 386.586 676.136 387.234 676.955C388.727 678.286 390.472 679.303 392.367 679.949C394.67 680.901 396.754 682.319 398.487 684.111C399.847 685.545 400.574 687.464 400.507 689.44V689.455Z" fill="#00A0E9"/>
<path d="M421.934 684.157C422.214 688.818 421.525 692.207 419.869 694.322C418.359 696.353 416.046 697.63 413.524 697.826C410.606 698.1 407.724 697.024 405.698 694.906C403.409 692.705 402.047 688.919 401.583 683.723C401.075 677.974 401.718 673.604 403.484 670.609C404.977 667.805 407.799 665.959 410.966 665.714C413.535 665.436 416.091 666.332 417.924 668.154C420.028 670.41 421.18 673.392 421.141 676.478L417.116 676.822C417.072 674.696 416.439 672.623 415.29 670.833C414.364 669.579 412.823 668.934 411.28 669.157C409.273 669.361 407.56 670.691 406.865 672.585C405.867 674.711 405.583 678.159 406.013 682.93C406.402 687.331 407.255 690.366 408.571 692.032C409.62 693.583 411.419 694.451 413.285 694.308C414.732 694.128 416.019 693.302 416.786 692.062C417.784 690.684 418.118 688.159 417.789 684.486L421.994 684.112L421.934 684.157Z" fill="#00A0E9"/>
<path d="M437.113 694.665L432.923 695.264L428.539 664.08L432.729 663.496L437.113 694.665Z" fill="#00A0E9"/>
<path d="M465.766 689.038L447.54 693.589L439.938 663.034L457.251 658.723L458.104 662.106L444.876 665.4L447.241 674.876L459.391 671.852L460.229 675.25L448.092 678.274L450.802 689.173L464.913 685.655L465.766 689.038Z" fill="#00A0E9"/>
<path d="M487.496 682.883L478.308 652.777L474.253 654.02L480.927 675.832L480.747 675.892L464.407 657.029L460.008 658.377L469.21 688.483L473.25 687.255L466.577 665.428L466.756 665.368L483.097 684.231L487.496 682.883Z" fill="#00A0E9"/>
<path d="M504.596 662.821C506.302 667.162 506.691 670.606 505.764 673.121C504.956 675.519 503.157 677.455 500.826 678.435C498.131 679.581 495.063 679.449 492.476 678.076C489.613 676.679 487.153 673.555 485.099 668.705C482.839 663.389 482.106 659.048 482.869 655.65C483.414 652.539 485.498 649.918 488.406 648.688C490.767 647.638 493.475 647.704 495.783 648.869C498.487 650.334 500.522 652.783 501.469 655.71L497.743 657.296C497.041 655.307 495.81 653.548 494.182 652.207C492.907 651.295 491.234 651.158 489.827 651.847C487.99 652.675 486.778 654.473 486.7 656.488C486.415 658.809 487.209 662.162 489.079 666.579C490.815 670.651 492.551 673.271 494.331 674.453C495.81 675.606 497.795 675.869 499.524 675.142C500.836 674.524 501.8 673.347 502.142 671.938C502.666 670.321 502.142 667.806 500.766 664.453L504.656 662.791L504.596 662.821Z" fill="#00A0E9"/>
<path d="M529.691 665.874L528.21 662.701L515.027 668.854L510.284 658.674L521.626 653.375L520.145 650.215L508.802 655.501L504.687 646.653L517.032 640.889L515.551 637.73L499.375 645.275L512.663 673.809L529.691 665.874Z" fill="#00A0E9"/>
<path d="M541.215 622.043L538.117 624.049L547.739 655.711L551.435 653.301L548.173 643.795L555.206 639.229L562.568 646.085L566.264 643.735L541.215 622.043ZM547.11 640.381L543.564 629.288L543.773 629.154L552.452 636.909L547.11 640.381Z" fill="#00A0E9"/>
<path d="M582.647 631.115L562.835 606.652L559.543 609.303L573.893 627.043L573.759 627.147L551.537 615.8L547.961 618.689L567.773 643.165L571.065 640.501L556.7 622.761L556.85 622.656L579.071 634.004L582.647 631.115Z" fill="#00A0E9"/>
<path d="M589.557 604.633C585.786 600.441 582.27 598.151 579.083 597.762C575.895 597.373 572.544 598.689 569.162 601.729L564.523 605.921L585.577 629.319L590.231 625.127C593.006 622.867 594.732 619.566 595.004 615.995C595.139 612.613 593.328 608.825 589.557 604.633ZM587.851 622.597L586.355 623.945L569.895 605.741L571.391 604.394C573.138 602.567 575.65 601.684 578.155 602.013C580.474 602.402 583.153 604.274 586.205 607.657C589.258 611.04 590.799 613.87 590.904 616.175C590.906 618.65 589.782 620.992 587.851 622.538V622.597Z" fill="#00A0E9"/>
<path d="M607.053 568.704L602.22 574.274L623.333 592.627L620.565 595.831L599.451 577.462L594.618 583.031L591.984 580.741L604.419 566.414L607.053 568.704Z" fill="#00A0E9"/>
<path d="M641.948 569.137L639.195 566.981L630.247 578.449L621.388 571.532L629.094 561.667L626.341 559.511L618.635 569.376L610.943 563.359L619.338 552.625L616.585 550.469L605.586 564.556L630.381 583.928L641.948 569.137Z" fill="#00A0E9"/>
<path d="M643.628 542.893C647.519 545.488 649.808 548.078 650.496 550.663C651.221 553.089 650.854 555.712 649.494 557.848C647.941 560.332 645.352 561.982 642.446 562.339C639.319 562.834 635.503 561.681 631.044 558.882C626.155 555.827 623.049 552.694 621.721 549.481C620.379 546.621 620.587 543.274 622.275 540.602C623.602 538.384 625.854 536.88 628.41 536.501C631.496 536.163 634.592 537.038 637.044 538.941L634.904 542.384C633.189 541.154 631.172 540.414 629.068 540.243C627.5 540.236 626.055 541.085 625.298 542.459C624.255 544.184 624.289 546.353 625.387 548.043C626.48 550.109 629.068 552.4 633.124 554.944C636.875 557.28 639.812 558.428 641.937 558.388C643.808 558.475 645.582 557.555 646.591 555.977C647.315 554.713 647.43 553.19 646.905 551.831C646.396 550.214 644.571 548.432 641.458 546.471L643.688 542.878L643.628 542.893Z" fill="#00A0E9"/>
<path d="M664.915 530.934L637.397 515.664L635.347 519.377L646.929 525.799L641.841 534.976L630.26 528.553L628.195 532.251L655.728 547.521L657.778 543.808L644.909 536.668L649.982 527.49L662.865 534.632L664.915 530.934Z" fill="#00A0E9"/>
<path d="M674.378 510.362L672.507 514.568L647.548 514.538L647.473 514.703L668.317 523.986L666.596 527.862L637.836 515.047L639.707 510.841L664.666 510.871L664.741 510.707L643.911 501.424L645.617 497.562L674.378 510.362Z" fill="#00A0E9"/>
<path d="M678.232 490.285C676.526 487.73 672.98 485.416 667.593 483.339C662.206 481.263 658.051 480.619 655.128 481.408C652.264 482.123 649.961 484.25 649.023 487.052C647.851 489.788 648.127 492.929 649.756 495.42C651.383 498.025 654.874 500.361 660.231 502.427C665.588 504.493 669.782 505.117 672.815 504.298C675.721 503.582 678.065 501.44 679.04 498.609C680.233 495.882 679.926 492.731 678.232 490.285ZM675.838 497.351C675.16 498.935 673.722 500.066 672.022 500.346C670.028 500.855 666.64 500.181 661.862 498.325C657.044 496.483 654.111 494.731 653.033 493.054C652.014 491.706 651.733 489.938 652.285 488.339C652.915 486.789 654.313 485.68 655.966 485.42C657.852 484.956 661.203 485.659 666.007 487.501C670.81 489.342 673.803 491.078 674.985 492.71C676.061 494.001 676.384 495.762 675.838 497.351Z" fill="#00A0E9"/>
<path d="M688.758 467.621L683.475 486.02L653.234 477.352L654.386 473.28L681.291 480.99L685.391 466.648L688.758 467.621Z" fill="#00A0E9"/>
<path d="M689.411 447.621C687.327 445.365 683.466 443.634 677.829 442.425C672.192 441.218 667.988 441.218 665.215 442.425C662.497 443.583 660.554 446.041 660.052 448.952C659.337 451.842 660.1 454.898 662.087 457.112C664.107 459.417 667.938 461.184 673.579 462.366C679.221 463.549 683.456 463.534 686.299 462.246C689.055 461.084 691.036 458.606 691.566 455.659C692.28 452.787 691.466 449.751 689.411 447.621ZM688.139 454.971C687.72 456.636 686.478 457.969 684.847 458.504C682.992 459.302 679.54 459.167 674.492 458.099C669.445 457.032 666.267 455.753 664.96 454.268C663.747 453.111 663.186 451.428 663.464 449.776C663.846 448.143 665.056 446.831 666.651 446.318C668.427 445.559 671.839 445.719 676.886 446.797C681.934 447.875 685.151 449.121 686.538 450.54C687.813 451.638 688.42 453.325 688.139 454.986V454.971Z" fill="#00A0E9"/>
<path d="M696.698 424.116L680.626 422.169L679.534 431.451L683.006 431.885L683.709 426.227L685.714 426.466C687.626 426.554 689.457 427.27 690.922 428.502C691.971 429.528 692.452 431.005 692.209 432.453C691.912 434.187 690.755 435.652 689.141 436.346C687.285 437.345 684.102 437.57 679.594 437.02C674.855 436.431 671.54 435.533 669.644 434.325C667.905 433.411 666.915 431.514 667.159 429.564C667.28 428.085 668.182 426.785 669.524 426.152C671.423 425.388 673.502 425.19 675.51 425.582L676.003 421.555C673.152 421.073 670.222 421.564 667.683 422.947C665.443 424.243 663.98 426.551 663.763 429.13C663.334 432.199 664.592 435.261 667.055 437.14C669.629 439.326 673.774 440.767 679.49 441.467C684.727 442.106 688.658 441.567 691.282 439.849C693.656 438.499 695.277 436.13 695.68 433.427C695.834 432.265 695.727 431.084 695.367 429.968C695.108 429.009 694.59 428.139 693.87 427.454L696.489 427.214L696.878 424.116H696.698Z" fill="#00A0E9"/>
<path d="M666.581 398.367L683.236 408.203L697.362 409.191L697.077 413.413L682.937 412.425L665.07 419.85L665.369 415.628L679.196 410.135L679.211 409.94L666.282 402.589L666.581 398.367Z" fill="#00A0E9"/>
<path fill-rule="evenodd" clip-rule="evenodd" d="M499.027 124.557C499.027 124.557 516.669 137.522 498.159 146.114C494.089 147.985 489.031 146.758 484.931 145.246C484.333 145.021 483.689 144.782 482.911 144.528C479.769 143.689 476.207 142.312 472.93 143.15C469.653 143.988 471.075 147.192 472.406 149.288C473.017 150.279 473.9 151.074 474.95 151.578C482.522 153.076 490.857 153.899 498.024 156.803C503.247 158.812 508.105 161.665 512.404 165.246C514.08 166.744 516.43 170.427 519.048 168.87C520.545 168.017 520.245 163.016 519.991 161.474C519.303 157.357 517.402 155.636 514.11 153.315C512.614 152.297 511.207 151.399 509.741 150.545C514.041 147.265 517.865 143.4 521.098 139.063C523.059 139.275 525.043 139.096 526.934 138.539C534.042 136.114 532.216 126.668 525.543 124.737L499.027 124.557ZM584.664 201.341C580.754 204.215 576.416 206.457 571.81 207.988C568.818 208.511 560.408 211.446 558.119 208.975C556.233 206.939 560.603 206.805 561.306 206.805C562.548 206.805 563.685 206.655 563.401 205.593C563.311 205.248 562.907 205.039 562.144 204.949C556.652 204.949 551.774 205.174 546.671 202.943C545.534 202.448 544.427 202.074 543.529 202.943C542.272 204.185 546.522 208.571 547.449 209.35C549.26 210.998 551.315 212.356 553.54 213.377C555.769 214.397 558.15 215.048 560.588 215.308C570.479 216.416 580.474 211.85 589.662 208.661L595.648 206.58C601.259 204.311 607.354 203.497 613.365 204.215C616.686 203.931 620.293 204.679 621.31 200.667C621.575 199.492 621.382 198.261 620.772 197.224L617.225 189.349C617.135 185.577 618.392 186.355 620.607 183.586C622.823 181.239 624.302 178.292 624.857 175.112C625.132 173.419 625.282 171.708 625.306 169.992C625.306 168.495 624.976 166.504 623.6 166.16C621.714 165.68 614.876 174.529 613.335 176.115L605.329 184.424L603.459 186.176C601.394 188.092 600.316 189.169 597.368 189.454C594.944 189.708 594.735 188.945 592.879 188.167C591.711 187.649 590.416 187.477 589.153 187.673C586.041 186.34 583.168 181.236 580.175 181.55C576.494 181.939 579.023 191.011 579.981 193.017C580.842 194.697 581.986 196.217 583.362 197.508C585.188 199.365 587.238 199.679 584.754 201.386L584.664 201.341ZM586.026 245.219C591.592 249.067 594.884 243.438 595.483 238.677C596.53 230.458 589.378 222.824 583.228 217.928C582.869 222.884 582.554 227.839 582.599 232.794C582.599 236.731 582.345 242.675 586.026 245.219ZM623.226 280.37L615.1 289.967C613.266 292.075 611.683 294.392 610.387 296.868C608.89 299.682 606.077 306.284 608.651 308.949C611.225 311.614 617.046 312.587 620.622 312.393C624.635 312.012 628.565 311.001 632.264 309.399C635.616 307.752 639.222 306.105 642.574 304.458C644.22 308.38 646.629 321.016 651.283 321.599C654.799 322.048 654.679 317.108 654.649 314.743C654.649 310.461 649.651 297.033 651.657 296.464C652.607 296.34 653.572 296.506 654.425 296.943L666.067 301.06C667.982 301.853 669.808 300.925 671.528 297.467C672.443 299.226 673.562 300.868 674.865 302.362C677.424 305.192 681.06 306.928 683.844 309.698C684.367 310.222 684.816 310.805 685.34 311.299C688.123 313.77 689.26 317.153 690.951 319.324C693.076 322.078 695.276 321.21 696.518 319.324C699.106 315.461 697.835 309.294 696.518 305.207C694.468 298.77 690.532 293.23 686.612 287.557C683.839 283.775 680.809 280.188 677.544 276.823C677.274 276.133 677.17 275.236 677.888 274.817C679.714 273.753 682.063 275.939 683.499 276.853L692.642 282.706C697.474 285.983 701.984 289.712 706.11 293.844C707.194 295.179 708.607 296.21 710.21 296.838C714.878 298.56 720.22 292.242 719.188 287.856C718.455 284.861 715.432 284.397 713.023 283.215C711.47 282.515 710.055 281.541 708.848 280.34C706.454 277.78 706.977 275.849 707.666 272.855C707.845 272.046 707.771 271.358 706.798 270.969C704.134 269.935 700.887 276.193 699.54 277.96C699.135 278.794 698.387 279.413 697.49 279.652C695.684 279.769 693.916 279.097 692.642 277.81C691.729 276.778 690.951 274.727 691.999 273.529C693.405 271.942 697.835 270.999 699.81 270.445C702.803 269.621 703.177 267.869 701.037 266.508C698.897 265.145 699.136 265.594 700.169 262.75C700.738 261.253 700.887 259.756 698.418 258.842C694.438 257.346 689.365 260.13 686.926 263.199C685.175 265.414 683.933 267.899 682.138 270.52L667.473 263.363L644.818 253.663C643.401 252.952 641.89 252.447 640.329 252.166C637.007 251.657 634.867 253.199 632.683 255.684C631.62 256.911 630.004 259.621 632.189 260.699C633.476 261.327 636.199 261.208 638.923 261.118C644.115 260.953 646.629 262.391 651.283 264.591L656.191 266.912C667.204 272.106 672.471 277.511 680.133 287.331C682.183 289.967 684.113 292.691 685.894 295.52C687.27 298.62 691.595 308.201 683.29 303.006C674.301 296.275 666.682 287.886 660.844 278.289C659.647 276.313 659.423 277.017 657.478 278.289C655.532 279.562 653.767 281.06 653.407 282.915C653.34 284.418 653.983 285.865 655.143 286.823C656.056 287.376 662.999 290.625 661.024 292.078C660.807 292.212 660.56 292.29 660.306 292.302C658.734 292.437 657.747 291.478 656.415 290.805C654.865 290.015 653.092 289.777 651.387 290.132C649.068 290.476 646.33 292.751 644.13 291.448C643.247 290.94 642.753 289.637 642.11 288.799L632.548 276.418C632.035 275.738 631.339 275.221 630.543 274.921C627.76 273.993 624.752 278.559 623.196 280.385L623.226 280.37ZM639.297 297.182C638.893 298.755 637.89 299.398 635.077 300.895C630.348 303.41 627.595 303.5 622.433 303.425C620.547 303.425 619.036 303.53 617.509 302.167C614.891 299.817 617.27 296.389 618.303 293.858C619.964 289.771 622.133 285.235 625.515 284.637C628.897 284.038 631.366 286 633.835 288.11C636.977 290.79 640.419 292.736 639.297 297.182ZM192.241 196.655L208.327 210.577C211.454 212.928 214.417 215.069 217.216 217.329C221.061 220.548 224.278 223.467 218.876 227.644C216.018 229.86 211.664 230.728 208.402 231.342C204.836 231.971 201.231 232.351 197.613 232.479C197.034 234.435 196.055 236.251 194.74 237.809C192.151 241.285 187.955 243.182 183.637 242.824C182.347 242.88 181.062 242.616 179.896 242.061C176.29 239.771 181.018 233.947 182.889 232.3C184.83 231.003 186.075 228.893 186.271 226.566C186.435 225.189 186.615 223.796 186.794 222.42C187.468 217.075 187.857 216.431 190.894 212.015C190.49 217.778 190.61 221.341 193.648 225.907C196.685 230.473 195.668 230.398 202.132 228.902C204.101 228.596 205.963 227.804 207.549 226.596C208.026 226.172 208.421 225.665 208.716 225.099C210.482 221.431 204.137 216.117 201.623 214.006C198.631 211.415 195.219 209.26 192.271 207.029C187.782 203.646 183.742 200.083 178.609 197.792C176.305 196.775 176.843 196.79 177.592 194.395L178.085 192.897C178.623 191.521 178.832 190.041 178.699 188.571C178.31 186.505 178.235 174.214 175.706 174.094C174.21 174.094 173.911 175.591 174.015 177.433C174.225 180.935 174.255 184.349 174.419 187.912C174.509 189.648 174.599 191.385 174.704 193.122C174.898 196.88 176.439 201.984 172.399 204.2C169.227 205.922 167.356 204.589 165.157 202.298C161.91 198.931 160.668 194.814 158.962 190.502C157.256 186.191 155.969 181.61 153.291 178.106C151.45 175.666 146.123 173.435 150.807 171.863C152.795 171.215 154.883 170.925 156.972 171.01C160.488 171.295 162.329 171.594 163.271 172.418C165.067 174.004 164.409 183.242 164.528 185.682C164.654 188.336 165.299 190.941 166.429 193.346C166.674 193.85 167.147 194.208 167.701 194.305C170.304 194.544 169.556 185.876 169.601 184.005L169.781 178.181C169.836 175.953 170.288 173.753 171.112 171.684C172.274 168.192 175.735 166 179.387 166.444C181.454 166.361 183.264 167.82 183.622 169.857C184.421 172.172 184.33 174.702 183.368 176.954C182.631 179.74 182.374 182.63 182.604 185.502C182.769 188.047 181.826 190.472 184.43 190.382C187.034 190.293 188.021 191.594 189.682 194.035C190.377 195.065 191.213 195.993 192.166 196.79L192.241 196.655ZM225.55 193.271C230.039 187.598 225.82 182.582 220.328 181.415C216.511 180.299 212.402 180.79 208.956 182.777C205.454 184.618 203.165 187.118 200.696 191.91C205.454 191.388 210.266 191.774 214.881 193.047C218.607 193.96 222.363 197.284 225.55 193.271ZM119.532 318.725L117.497 318.576C116.014 318.323 114.513 318.182 113.008 318.157C112.128 318.236 111.259 318.417 110.42 318.695C108.295 319.354 107.187 320.193 105.242 318.695C103.742 317.774 103.271 315.81 104.192 314.31C104.352 314.049 104.55 313.811 104.778 313.605C105.446 313.073 106.207 312.672 107.023 312.422C109.058 311.599 107.966 309.788 107.517 308.231C107.068 306.673 106.739 305.357 106.349 303.74C105.227 299.069 102.758 291.224 106.469 287.047C108.739 284.643 112.527 284.534 114.93 286.805C115.053 286.92 115.17 287.041 115.283 287.167C116.493 288.779 117.545 290.504 118.425 292.317C118.635 292.736 118.859 293.14 119.099 293.544C119.607 294.473 119.966 295.386 120.954 295.835C121.672 296.149 122.45 296.285 122.346 295.371C122.196 293.739 118.904 289.382 116.495 286.134C116.061 285.566 112.844 282.062 114.28 281.209C115.717 280.355 117.931 282.96 118.769 283.724C119.607 284.487 120.595 285.446 121.433 286.299C124.161 289.005 126.567 292.019 128.6 295.281C130.516 298.5 132.97 303.335 132.715 307.258C132.742 308.87 131.902 310.373 130.516 311.194C125.279 314.04 122.286 308.53 119.682 305.012C117.288 301.808 116.689 297.931 114.46 294.862C113.323 293.245 111.826 292.317 111.377 294.862C110.824 298.065 113.053 300.416 114.879 302.887C116.704 305.357 118.889 307.378 120.864 309.788C121.545 310.635 122.17 311.525 122.735 312.452C123.273 313.575 123.438 316.644 122.585 317.632C121.743 318.389 120.631 318.772 119.503 318.695L119.532 318.725ZM114.43 269.112L120.415 274.802C124.59 279.293 125.817 283.515 128.032 288.904C129.049 291.388 130.232 294.578 132.955 295.64C135.632 296.573 138.558 295.157 139.49 292.479C139.491 292.476 139.493 292.471 139.494 292.467C140.826 289.367 137.998 285.82 136.621 283.02C134.899 279.489 133.589 275.773 132.715 271.942C132.341 270.281 131.937 268.574 131.578 266.837C131.279 265.34 129.184 249.965 132.775 251.268C134.122 251.762 133.883 256.327 133.838 257.974C133.628 264.666 135.334 270.745 136.831 277.212C137.081 278.71 137.843 280.074 138.985 281.074C140.008 281.818 141.253 282.194 142.517 282.137C147.006 282.137 146.332 281.688 147.006 285.94C147.999 291.556 149.963 296.956 152.812 301.898C155.026 305.761 156.388 308.006 161.117 308.425C164.584 308.629 168.021 307.677 170.888 305.716C172.848 304.383 173.551 303.321 173.671 302.048C174.015 298.335 172.743 296.988 169.317 296.149C168.203 295.772 167.035 295.585 165.86 295.595C160.638 295.969 162.059 292.706 161.865 286.613C161.865 283.993 162.104 281.688 163.481 280.924C166.219 279.427 166.923 283.814 167.476 285.521C167.868 286.885 168.368 288.217 168.973 289.502C171.202 294.967 177.951 297.317 181.183 291.359C182.679 288.47 183.547 282.272 182.081 279.158C180.285 275.295 175.437 275.819 173.477 279.158C172.444 280.041 171.486 280.475 170.963 277.855C170.155 274.517 169.84 269.337 167.431 266.732C165.321 264.442 161.999 264.517 159.755 267.436C154.203 274.697 157.286 286.404 158.588 294.488C158.812 297.048 158.259 298.365 156.957 298.425C156.066 298.342 155.243 297.913 154.667 297.227C153.952 296.325 153.442 295.278 153.171 294.159C151.884 288.664 150.597 284.113 151.016 278.454C151.39 273.648 153.844 263.753 144.597 268.604C142.158 269.876 139.988 269.861 138.985 266.972C137.893 263.843 138.058 260.22 137.983 256.971C137.878 251.911 137.983 246.822 138.177 241.716L138.357 238.722C138.536 236.103 139.853 231.746 136.546 230.503C133.553 229.366 131.174 231.776 129.409 233.842C126.85 236.571 125.271 240.073 124.919 243.797C124.022 250.983 124.515 258.453 124.575 265.669C123.043 264.823 121.604 263.821 120.281 262.675C114.041 257.451 108.444 250.699 102.668 244.905C100.768 243.004 98.8677 240.279 96.683 238.917C94.1242 237.419 92.3136 237.914 89.9045 239.515C87.2804 240.926 85.672 243.692 85.7445 246.672C85.795 249.193 86.4574 251.664 87.6749 253.872C88.2661 255.141 89.0997 256.28 90.1289 257.226C91.2661 258.139 94.618 258.558 93.8998 256.298C93.6153 255.591 93.2539 254.919 92.8224 254.291C92.3434 253.664 92.3434 252.794 92.8224 252.166C93.1727 251.982 93.5816 251.944 93.9596 252.061C95.5724 252.945 97.0787 254.009 98.4487 255.235C103.94 259.726 109.372 264.128 114.55 269.038L114.43 269.112ZM248.998 177.403C250.824 181.221 258.141 191.475 263.139 187.043C265.503 184.963 264.067 180.935 263.618 178.331C263.094 175.337 262.556 172.252 262.032 169.229C260.875 162.36 260.374 155.398 260.535 148.435C260.655 135.17 258.411 150.291 258.081 154.198C257.662 159.379 258.081 165.635 256.735 170.666C256.226 172.687 255.328 173.66 254.385 173.66C251.078 173.899 250.345 165.441 250.061 163.27C249.373 157.896 248.729 150.95 250.42 145.71C250.959 144.033 252.545 142.596 252.545 140.83C252.545 137.117 248.355 137.985 245.766 138.24C243.896 138.419 242.22 138.823 240.469 139.048C235.277 139.722 239.99 132.461 241.307 129.587C242.576 126.588 244.647 123.998 247.293 122.101C250.285 119.825 251.004 117.49 248.52 114.347C246.604 111.922 243.192 111.996 240.379 111.981C238.852 111.901 237.321 111.946 235.8 112.116C234.912 112.196 234.105 112.668 233.601 113.403C232.104 115.814 234.588 115.559 236.279 116.637C238.838 118.284 238.943 120.02 238.763 122.91C238.424 126.548 237.701 130.141 236.608 133.629C235.636 137.176 233.9 141.114 235.965 144.707C237.098 146.166 238.88 146.968 240.723 146.848C244.943 146.309 245.317 152.716 245.213 159.153C245.153 165.439 246.45 171.664 249.013 177.403H248.998ZM273.479 165.231C272.568 166.141 271.529 166.913 270.397 167.522C268.378 168.127 266.196 167.833 264.411 166.714C261.254 164.543 264.606 162.821 266.386 161.744C268.616 160.309 270.76 158.743 272.806 157.057C275.514 154.063 275.918 153.674 274.661 149.572C273.614 146.144 271.16 143.584 269.02 140.815C268.64 140.365 268.4 139.813 268.332 139.227C267.658 135.456 270.411 131.234 271.818 127.865C272.761 125.589 273.703 123.374 274.661 121.053C275.754 115.799 274.661 115.664 279.435 114.287C280.931 113.838 281.41 112.939 283.041 110.23C284.141 108.683 284.919 106.932 285.33 105.08C285.068 103.806 283.952 102.888 282.652 102.88C281.574 102.989 280.543 103.375 279.659 104.002L271.848 111.697C270.59 113.045 269.467 114.515 268.496 116.084C266.653 118.972 265.453 122.224 264.98 125.619C264.202 130.365 260.191 134.123 257.498 127.281C256.898 125.571 256.497 123.798 256.301 121.996C255.862 116.127 257.119 110.255 259.922 105.08C261.014 102.969 262.735 101.277 263.753 99.391C264.507 98.3977 264.908 97.1803 264.89 95.9328C264.68 92.5644 262.436 92.759 259.967 91.8009C258.47 91.232 257.258 90.3936 257.558 89.0313C257.917 87.3845 259.877 87.205 261.284 87.0851C264.035 86.8748 266.799 87.2524 269.394 88.193C272.806 89.5403 274.796 92.4147 273.06 96.3969C272.56 97.5014 271.938 98.5459 271.205 99.5107L261.747 111.697C260.863 113.159 260.645 114.929 261.149 116.562C261.837 117.655 262.645 116.802 263.753 115.454C266.745 107.131 276.292 97.9089 284.627 94.5705C287.784 93.298 291.75 92.265 294.039 95.7082C297.032 100.199 292.034 105.02 289.146 108.194C285.181 112.535 283.161 111.802 283.161 117.685C283.161 120.216 282.622 121.547 280.078 124.722L278.941 126.818C278.058 128.434 274.033 133.584 275.798 135.29C276.216 135.637 276.756 135.799 277.295 135.74C279.704 135.74 282.607 129.647 283.939 127.685C284.742 126.755 285.656 125.925 286.662 125.215C288.301 123.915 290.482 123.527 292.468 124.182C296.523 125.56 297.571 129.273 295.311 133.014C294.847 133.659 291.525 137.641 293.456 138.225C293.943 138.276 294.433 138.148 294.832 137.866C298.259 135.695 304.693 130.38 309.182 132.491C312.265 133.913 313.402 135.381 310.978 138.105C310.089 139.073 308.973 139.804 307.731 140.231C300.306 143.884 293.251 148.246 286.662 153.255L273.539 165.231H273.479ZM294.832 159.243C299.755 161.864 301.716 164.543 305.441 169.797C307.352 172.233 310.855 172.705 313.342 170.861C317.547 167.866 317.128 162.432 314.031 158.884C310.933 155.336 306.414 155.606 302.149 155.187C299.92 154.912 297.671 154.858 295.431 155.022C289.954 155.546 291.435 157.402 294.832 159.213V159.243ZM291.316 168.735C285.405 160.217 287.261 166.789 282.727 169.887L279.869 168.974C277.16 168.6 275.858 167.896 273.883 169.992C271.279 172.762 276.307 175.98 280.707 177.627C283.624 178.765 286.991 179.424 289.909 177.762C294.279 175.262 293.396 171.773 291.286 168.78L291.316 168.735ZM282.098 142.043C282.502 142.432 283.116 142.491 284.013 142.043C284.929 141.257 285.586 140.214 285.899 139.048C286.716 137.357 287.338 135.58 287.754 133.749C287.934 132.416 287.65 131.294 286.258 130.963C282.996 131.144 279.465 139.602 282.023 142.043H282.098ZM364.398 79.6298C366.853 76.8303 369.037 73.6415 371.372 70.7971C373.107 68.6563 374.694 67.0096 377.746 68.3719C382.759 70.6325 379.377 73.9709 377.462 77.0848L376.115 79.3753C374.364 82.3694 373.541 83.5521 373.422 86.9654C373.227 91.8608 373.047 96.7562 372.853 101.652C373.746 101.677 374.632 101.823 375.487 102.085C378.36 103.149 378.375 106.158 377.342 108.598C375.427 112.909 376.534 119.272 374.604 123.359C373.945 125.215 367.361 135.8 370.698 136.294C375.187 136.967 377.028 126.728 378.509 123.553C378.94 122.551 379.531 121.625 380.26 120.814C382.43 130.365 378.36 139.512 370.848 148.63C369.182 150.76 366.107 151.136 363.979 149.469C363.758 149.297 363.553 149.106 363.366 148.899C360.239 146.099 361.615 139.183 362.214 135.62C363.276 129.153 366.284 126.758 361.57 121.368C359.431 118.928 358.278 118.09 355.181 117.789C353.254 117.811 351.402 117.037 350.063 115.649C347.4 112.475 353.056 111.877 355.271 111.008C357.122 110.283 358.926 109.443 360.673 108.493C361.702 107.928 362.702 107.309 363.665 106.636C367.361 104.002 365.611 92.8489 365.7 88.3427L362.708 88.5074C360.418 88.6421 359.79 88.7619 358.084 87.0103C354.822 83.8365 355.72 82.6838 358.159 82.3395C360.882 81.9503 362.348 81.9503 364.369 79.6448L364.398 79.6298ZM362.708 115.799C363.384 115.831 364.06 115.729 364.698 115.499C365.434 115.123 365.726 114.222 365.349 113.485C365.153 113.101 364.801 112.82 364.384 112.715C363.487 112.464 362.54 112.893 362.139 113.733C361.705 114.481 361.481 115.11 361.72 115.469C361.959 115.829 362.184 115.799 362.708 115.799ZM411.22 153.495C416.263 153.495 420.961 155.217 422.278 149.004C422.625 147.421 422.369 145.766 421.56 144.363C419.629 141.024 416.517 142.028 413.345 142.058C410.636 142.058 407.928 141.668 407.15 139.467C406.836 137.992 407.121 136.451 407.943 135.185C409.798 133 415.425 128.314 415.604 125.545C415.667 124.113 415.251 122.702 414.422 121.532C414.133 121.101 413.813 120.691 413.464 120.305C411.564 118.179 411.579 118.404 411.684 115.409L411.818 111.952C411.953 108.209 413.315 109.497 415.709 106.936C418.103 104.376 417.983 101.487 418.462 98.1933C419.016 94.271 421.365 91.786 423.565 88.5074C424.912 86.5313 426.243 84.5401 427.575 82.5191L430.867 77.3243C431.527 76.4666 431.88 75.4124 431.87 74.3302C431.69 71.8301 428.473 69.3451 426.333 68.6114C422.682 67.3689 419.121 68.6114 415.859 70.1085C406.491 74.3752 398.62 82.085 390.615 88.4325C389.946 88.2114 389.315 87.8883 388.744 87.4744C386.784 85.9773 386.156 83.118 383.028 83.7018C381.382 84.0162 381.278 86.0671 382.13 88.0733C382.445 88.8217 383.163 89.5703 383.866 90.7679C385.961 95.1393 387.966 102.25 391.707 105.439C393.817 107.221 395.852 107.625 397.408 106.936C399.533 106.098 400.73 103.314 399.877 99.4509L399.563 97.7292C399.01 94.81 398.172 93.3279 398.92 91.7411C399.833 89.8248 401.149 89.1362 402.795 90.7829C403.259 91.2591 403.518 91.8992 403.514 92.5644C403.514 92.9536 403.514 93.283 403.514 93.5525C403.379 95.8579 400.266 96.2172 400.296 97.9239C400.296 98.5975 401.793 99.9299 402.272 100.453C404.326 102.662 405.685 105.427 406.177 108.403C406.596 112.326 405.264 114.96 401.404 115.409C398.037 115.814 394.85 115.499 394.865 120.859C394.865 122.056 395.538 123.03 397.648 123.299L405.13 123.898C406.97 124.617 406.432 125.395 405.564 126.068C403.095 129.207 401.274 132.804 400.207 136.653C399.01 140.949 397.648 146.354 400.85 150.126C403.573 153.33 407.569 153.121 411.325 153.39L411.22 153.495ZM420.303 77.2495C419.231 79.1018 418.497 81.1291 418.133 83.2377C418.133 84.5551 416.637 84.9144 415.14 84.8994C413.925 84.8614 412.719 84.6755 411.549 84.3456C410.853 84.1448 410.18 83.8686 409.544 83.5222C405.384 81.0669 410.157 78.8513 412.222 77.3992C414.287 75.9471 418.283 72.2044 421.021 72.1595C421.859 72.1595 422.278 72.4739 422.428 72.9529C422.966 74.6296 421.141 75.9471 420.363 77.2345L420.303 77.2495ZM403.573 87.9086C402.212 89.1811 401.299 87.8187 402.077 86.4115C402.441 85.8432 402.96 85.3912 403.573 85.109C404.127 84.7947 404.636 84.6899 404.845 85.3037C405.175 86.2917 404.172 87.2498 403.603 87.8936L403.573 87.9086ZM413.36 90.0643C414.093 89.1061 415.051 87.0702 416.352 88.3577C416.786 88.7918 416.352 89.8547 415.739 90.7679C415.125 91.6811 414.602 92.4147 414.392 92.7291C413.749 93.792 413.689 94.81 412.357 94.2261C411.025 93.6422 412.746 90.8278 413.33 90.0643H413.36Z" fill="#00A0E9"/>
</svg>
