<svg width="889" height="889" viewBox="0 0 889 889" fill="none" xmlns="http://www.w3.org/2000/svg">
<path d="M869.676 444.773C869.676 679.958 679.201 870.612 444.238 870.612C209.275 870.612 18.8008 679.958 18.8008 444.773C18.8008 209.59 209.275 18.9365 444.238 18.9365C679.201 18.9365 869.676 209.59 869.676 444.773Z" stroke="#231815" stroke-width="0.352143" stroke-miterlimit="22.93"/>
<path fill-rule="evenodd" clip-rule="evenodd" d="M444.392 0.105469C689.779 0.105469 888.783 199.111 888.783 444.502C888.783 689.891 689.779 888.897 444.392 888.897C199.004 888.897 0 689.891 0 444.502C0 199.111 199.004 0.105469 444.392 0.105469ZM444.392 18.7878C209.315 18.7878 18.6821 209.423 18.6821 444.502C18.6821 679.58 209.315 870.215 444.392 870.215C679.468 870.215 870.101 679.574 870.101 444.502C870.101 209.429 679.462 18.7878 444.392 18.7878Z" fill="#5F0E13"/>
<path d="M72.3502 361.84C69.1018 362.372 65.9677 363.454 63.0833 365.04C59.0455 367.246 56.249 371.188 55.5029 375.728C55.0405 378.112 55.4809 380.582 56.7385 382.659C58.0112 384.772 60.0705 386.08 62.9164 386.582C65.4315 387.047 68.0275 386.474 70.1137 384.995C71.5304 384.002 73.7958 381.784 76.9095 378.341L82.2843 372.349C83.678 370.763 85.2707 369.363 87.0228 368.185C89.615 366.447 92.7732 365.766 95.8511 366.282C99.5961 366.822 102.95 368.888 105.118 371.99C107.3 375.096 108.007 378.831 107.237 383.197C106.763 385.405 105.928 387.519 104.766 389.455C103.435 391.828 102.739 393.193 102.677 393.551C102.459 394.28 102.582 395.067 103.011 395.695C103.518 396.235 104.138 396.657 104.827 396.931L104.543 398.549L87.4491 397.314L87.7827 395.423C93.0667 395.011 96.9569 393.57 99.4528 391.099C101.948 388.627 103.442 385.997 103.931 383.209C104.331 381.172 104.007 379.06 103.017 377.235C102.024 375.403 100.21 374.161 98.1431 373.899C96.252 373.516 94.2862 373.848 92.6262 374.832C90.5269 376.181 88.6513 377.848 87.066 379.774L81.5738 385.952C78.1469 389.815 75.1593 392.441 72.6096 393.829C70.0112 395.198 67.0211 395.634 64.1397 395.065C60.1503 394.437 56.6522 392.054 54.6071 388.572C52.3254 384.951 51.6108 380.712 52.4634 375.851C52.9474 373.244 53.8706 370.737 55.194 368.438C56.5861 365.942 57.3151 364.501 57.381 364.113C57.5824 363.405 57.3729 362.642 56.8374 362.136C56.3356 361.717 55.7621 361.393 55.1446 361.179L55.4473 359.449L72.6467 360.067L72.3502 361.84ZM51.098 402.484C51.098 405.754 51.4234 407.896 52.0742 408.91C52.7249 409.923 54.5948 410.54 57.6837 410.763L93.1945 413.457C96.1352 413.679 98.0628 413.341 98.9771 412.443C99.8914 411.546 100.552 409.486 100.96 406.265L102.436 406.377L100.651 430.001L99.1686 429.89C99.2613 426.628 98.9153 424.484 98.1492 423.459C97.3832 422.433 95.5174 421.809 92.5891 421.605L57.0721 418.918C53.9955 418.683 52.0536 419.018 51.2463 419.925C50.4391 420.831 49.7945 422.89 49.3126 426.103L47.8299 425.992L49.6215 402.367L51.098 402.484ZM100.88 469.337C100.409 471.035 100.042 472.76 99.7802 474.502C99.813 475.262 100.056 475.998 100.484 476.627C100.961 477.31 101.678 477.787 102.492 477.961L102.554 479.642L84.6381 481.057L84.5701 479.203C87.6498 478.239 90.5238 476.712 93.0463 474.699C97.0372 471.265 98.9295 466.773 98.7238 461.225C98.6311 455.844 95.9697 450.83 91.5636 447.739C87.0042 444.344 80.8448 442.796 73.0853 443.092C65.9436 443.356 60.3155 445.438 56.201 449.339C52.1685 453.02 50.0159 458.327 50.3443 463.777C50.4607 467.796 51.6349 471.712 53.7484 475.132C55.2561 477.478 57.0444 479.631 59.0738 481.545L57.6467 483.089C55.2498 481.317 53.1623 479.161 51.4687 476.707C48.4844 472.477 46.8009 467.468 46.6252 462.294C46.304 453.702 48.7957 446.775 54.1005 441.511C59.0058 436.663 65.2597 434.093 72.8629 433.8C80.6552 433.508 87.2866 435.724 92.7559 440.448C98.4971 445.423 101.524 452.065 101.837 460.373C101.932 463.391 101.609 466.407 100.88 469.337ZM51.9444 499.757C52.9205 502.747 53.8967 504.539 54.8542 505.132C55.8118 505.725 57.9865 505.669 61.3596 504.947L95.2765 497.725C98.0813 497.123 99.813 496.299 100.472 495.253C101.131 494.208 101.256 492.228 100.849 489.316L102.301 489.008L106.928 510.729L105.476 511.038C104.652 508.217 103.732 506.465 102.714 505.781C101.697 505.097 99.7845 505.054 96.9754 505.651L81.7159 508.9L86.7818 532.686L102.041 529.436C104.838 528.835 106.569 528.026 107.237 527.008C107.904 525.991 108.027 524.006 107.607 521.053L109.059 520.744L113.674 542.49L112.222 542.799C111.399 539.965 110.478 538.209 109.461 537.529C108.443 536.85 106.531 536.811 103.721 537.412L68.8843 544.826C66.0505 545.427 64.3232 546.24 63.701 547.267C63.0789 548.292 62.9517 550.271 63.318 553.204L61.86 553.512L57.2389 531.796L58.6907 531.487C59.6483 534.502 60.6183 536.306 61.5882 536.88C62.5581 537.455 64.7328 537.393 68.1121 536.677L83.3284 533.433L78.2625 509.648L62.1257 513.083C59.2838 513.688 57.5499 514.512 56.9238 515.554C56.3061 516.592 56.1763 518.563 56.5532 521.479L55.1014 521.788L50.4741 500.066L51.9444 499.757ZM124.436 570.434L123.065 571.002C121.701 568.234 120.466 566.587 119.358 566.06C118.25 565.533 116.335 565.829 113.612 566.949L89.9388 576.723C86.067 578.321 83.2709 580.104 81.5491 582.073C78.415 585.681 77.9863 590.245 80.2641 595.763C82.76 601.805 86.4668 605.028 91.3844 605.432C94.1231 605.654 97.8546 604.791 102.579 602.843L121.841 594.892C125.861 593.245 128.186 591.721 128.816 590.321C129.446 588.92 129.333 586.822 128.476 584.025L129.854 583.463L136.922 600.588L135.55 601.157C134.055 598.418 132.589 596.83 131.152 596.394C129.714 595.957 127.043 596.537 123.139 598.136L103.876 606.087C98.7689 608.2 94.4592 609.05 90.9458 608.638C84.4756 607.93 79.5703 603.527 76.2299 595.43C72.9352 587.431 73.2892 580.912 77.2925 575.87C79.4424 573.152 82.8051 570.848 87.3811 568.957L110.511 559.412C113.205 558.292 114.761 557.162 115.182 556.021C115.602 554.88 115.34 552.866 114.397 549.979L115.768 549.41L124.436 570.434ZM95.4433 635.203L96.6789 634.4C97.7359 635.858 99.3509 636.816 101.139 637.044C102.807 637.193 106.792 636.729 113.093 635.648L155.165 628.42L156.03 629.761L128.643 671.098C126.831 673.841 125.843 675.738 125.678 676.794C125.505 677.844 125.82 679.265 126.617 680.952L125.381 681.755L114.366 664.63L115.602 663.827C117.041 665.68 118.073 666.817 118.691 667.225C119.308 667.632 120.105 667.521 121.088 666.885C121.646 666.465 122.156 665.983 122.607 665.445C123.347 664.63 124.025 663.759 124.634 662.838L129.378 655.975L117.999 638.243C112.463 639.324 109.102 640.01 107.916 640.294C106.992 640.473 106.104 640.807 105.284 641.27C104.234 641.826 103.647 642.981 103.814 644.161C104.122 645.428 104.62 646.639 105.291 647.758L104.055 648.56L95.4433 635.203ZM131.392 653.12L144.984 633.48L121.452 637.65L131.392 653.12ZM136.038 693.147C138.542 695.34 140.538 696.385 142.025 696.279C143.512 696.174 145.799 694.686 148.888 691.813L174.706 667.781L174.904 666.1C175.12 664.302 175.064 663.011 174.743 662.165C174.212 661.028 173.501 659.984 172.636 659.076L173.724 658.063L183.034 668.065L176.071 716.753L195.544 698.621C198.744 695.637 200.392 693.215 200.487 691.368C200.524 690.157 199.634 688.384 197.818 686.049L198.905 685.042L211.687 698.837L210.6 699.85C208.297 697.83 206.368 696.854 204.811 696.91C203.254 696.965 200.944 698.423 197.879 701.277L167.033 729.999L166.1 728.998L174.101 673.155L151.285 694.389C148.085 697.373 146.438 699.782 146.343 701.623C146.281 702.822 147.121 704.583 148.864 706.912L147.776 707.925L134.963 694.16L136.038 693.147ZM207.795 761.723C210.604 763.194 212.556 763.812 213.652 763.577C214.747 763.342 216.251 761.779 218.162 758.894L237.412 730.048C238.986 727.682 239.659 725.897 239.432 724.698C239.206 723.5 237.911 721.986 235.546 720.157L236.374 718.922L271.829 742.528L265.701 752.209L263.848 750.974C265.425 747.625 265.853 745.128 265.133 743.479C264.412 741.829 262.2 739.772 258.497 737.301L249.36 731.21C248.471 730.592 247.797 730.382 247.346 730.524C246.675 730.857 246.127 731.395 245.777 732.062L235.861 746.889L245.524 753.334C248.361 755.23 250.452 756.021 251.794 755.7C253.137 755.379 254.902 754.094 257.089 751.845L258.652 752.883L248.39 768.266L246.827 767.228C248.063 764.312 248.563 762.181 248.329 760.828C248.094 759.475 246.572 757.856 243.763 755.972L234.144 749.553L224.42 764.12C222.797 766.561 222.132 768.365 222.424 769.545C222.717 770.725 224.057 772.244 226.446 774.116L225.618 775.352L206.961 762.922L207.795 761.723ZM248.013 787.708C250.996 789.042 253.086 789.611 254.284 789.407C255.483 789.203 256.811 787.745 258.269 785.033L275.06 753.624C276.452 751.029 276.922 749.133 276.469 747.928C276.016 746.722 274.391 745.283 271.595 743.602L272.293 742.293L293.187 753.464L292.482 754.773C289.537 753.371 287.439 752.821 286.187 753.111C284.935 753.402 283.617 754.847 282.233 757.436L265.435 788.845C263.985 791.563 263.51 793.478 264.008 794.584C264.507 795.69 266.14 797.117 268.907 798.859L268.209 800.169L247.315 788.993L248.013 787.708ZM276.432 803.443C279.636 804.314 281.887 804.382 283.184 803.641C284.482 802.899 285.886 800.558 287.398 796.623L300.1 763.707L299.544 762.113C298.926 760.401 298.308 759.246 297.69 758.647C296.716 757.856 295.621 757.232 294.447 756.793L294.978 755.41L307.723 760.352L322.767 807.224L332.373 782.327C333.947 778.249 334.358 775.364 333.609 773.678C333.108 772.572 331.539 771.367 328.883 770.064L329.42 768.68L346.959 775.475L346.428 776.859C343.471 776.056 341.307 776.019 339.935 776.742C338.564 777.465 337.122 779.788 335.61 783.711L320.437 823.027L319.159 822.533L301.922 768.822L290.703 797.901C289.129 801.985 288.7 804.87 289.412 806.551C289.875 807.656 291.407 808.873 293.99 810.202L293.458 811.592L275.913 804.796L276.432 803.443ZM341.64 826.981C344.585 827.271 346.56 827.142 347.565 826.598C348.57 826.054 349.375 824.306 349.98 821.359L357.171 786.472C357.744 783.692 357.697 781.789 357.029 780.758C356.362 779.726 354.595 778.812 351.729 778.008L352.031 776.55L393.689 785.138L391.644 796.412L389.655 795.999C389.704 792.409 389.169 789.969 388.049 788.678C386.929 787.386 384.062 786.268 379.449 785.329L368.774 783.13C367.625 782.889 366.877 782.932 366.531 783.247C366.068 783.822 365.779 784.514 365.697 785.249L362.089 802.745L374.192 805.216C377.536 805.908 379.769 805.852 380.889 805.049C382.009 804.246 383.164 802.393 384.354 799.489L386.208 799.866L382.501 817.98L380.648 817.597C380.685 814.44 380.345 812.277 379.628 811.104C378.912 809.93 376.893 809.003 373.574 808.317L361.478 805.846L357.474 825.257C357.153 826.814 357.456 827.834 358.382 828.315C359.309 828.797 362.227 829.545 367.137 830.564C372.454 831.658 376.498 831.88 379.27 831.244C382.042 830.607 384.894 828.26 387.826 824.207L390.013 824.658L383.718 837.168L341.331 828.439L341.64 826.981ZM426.278 841.876L426.241 840.387C428.038 840.245 429.696 839.362 430.819 837.953C431.811 836.612 433.489 832.967 435.854 827.018L451.589 787.337L453.183 787.3L474.188 832.201C475.588 835.179 476.694 837.014 477.505 837.706C478.315 838.398 479.661 838.855 481.546 839.065L481.583 840.554L461.196 841.036L461.159 839.553C463.494 839.287 464.995 839.003 465.668 838.688C466.342 838.373 466.657 837.632 466.632 836.464C466.557 835.766 466.408 835.08 466.187 834.413C465.874 833.357 465.484 832.325 465.02 831.324L461.634 823.7L440.537 824.207C438.584 829.495 437.419 832.72 437.04 833.882C436.714 834.765 436.533 835.698 436.502 836.637C436.43 837.823 437.113 838.929 438.208 839.399C439.451 839.794 440.745 840.004 442.05 840.016L442.081 841.499L426.278 841.876ZM460.257 820.494L450.551 798.667L441.865 820.908L460.257 820.494ZM496.089 837.323C499.046 836.446 500.809 835.488 501.377 834.45C501.945 833.412 501.904 831.262 501.253 828.006L494.433 793.978C493.881 791.217 493.107 789.493 492.11 788.801C491.114 788.109 489.169 787.93 486.278 788.264L485.994 786.806L507.734 782.481C512.264 781.585 516.15 781.412 519.392 781.962C525.545 782.994 529.201 786.423 530.358 792.242C531.136 796.147 530.461 799.397 528.331 801.997C526.202 804.598 523.018 806.656 518.78 808.175L538.92 824.893C539.953 825.795 541.146 826.499 542.436 826.962C543.75 827.339 545.127 827.444 546.482 827.265L546.772 828.723L534.126 831.231L509.68 810.974L506.276 811.851L509.365 827.296C509.938 830.2 510.745 831.954 511.787 832.56C512.829 833.165 514.855 833.301 517.866 832.961L518.15 834.419L496.336 838.744L496.089 837.323ZM517.526 804.765C521.348 802.232 522.79 798.606 521.851 793.88C520.949 789.351 518.465 786.62 514.4 785.688C512.233 785.193 509.499 785.274 506.196 785.929C503.972 786.367 502.643 786.8 502.211 787.214C501.779 787.627 501.673 788.449 501.908 789.604L505.745 808.935C511.317 807.613 515.222 806.223 517.458 804.765H517.526ZM535.442 776.89L578.2 762.008L583.08 774.716L581.27 775.333C578.98 771.627 576.939 769.39 575.148 768.63C573.356 767.87 570.267 768.26 565.881 769.804L561.674 771.268L575.148 809.967C576.161 812.877 577.244 814.52 578.397 814.909C579.551 815.298 581.704 815.064 584.859 814.205L585.348 815.607L563.305 823.28L562.817 821.878C565.93 820.519 567.74 819.296 568.247 818.214C568.754 817.133 568.439 814.965 567.302 811.709L554.143 773.9L549.892 775.377C545.712 776.835 543.074 778.428 541.978 780.158C540.883 781.888 540.661 784.922 541.311 789.252L539.458 789.87L535.442 776.89ZM602.578 791.167C604.966 793.447 607.729 795.301 610.745 796.641C614.937 798.519 619.759 798.359 623.818 796.209C625.998 795.134 627.703 793.286 628.599 791.025C629.514 788.74 629.31 786.312 627.982 783.735C626.832 781.456 624.812 779.738 622.378 778.966C620.729 778.441 617.596 777.978 612.982 777.595L604.95 776.927C602.845 776.773 600.769 776.347 598.772 775.661C595.824 774.641 593.376 772.541 591.927 769.779C590.106 766.468 589.732 762.557 590.895 758.962C592.057 755.348 594.608 752.531 598.55 750.504C600.594 749.547 602.781 748.935 605.024 748.694C607.718 748.317 609.232 748.075 609.553 747.884C610.265 747.618 610.819 747.044 611.06 746.321C611.174 745.592 611.13 744.85 610.93 744.14L612.388 743.392L621.748 757.751L620.043 758.628C616.534 754.656 613.033 752.419 609.54 751.931C606.048 751.443 603.033 751.839 600.496 753.124C598.633 754.032 597.143 755.564 596.283 757.448C595.423 759.345 595.528 761.544 596.567 763.348C597.407 765.084 598.859 766.449 600.644 767.185C602.986 768.056 605.45 768.556 607.946 768.667L616.182 769.285C621.34 769.699 625.239 770.496 627.877 771.676C630.533 772.924 632.683 775.049 633.968 777.687C635.883 781.246 636.093 785.478 634.549 789.215C633.023 793.163 630.063 796.264 625.683 798.513C623.311 799.699 620.76 800.471 618.134 800.811C615.309 801.225 613.721 801.509 613.371 801.676C612.666 801.929 612.166 802.56 612.08 803.307C612.05 803.962 612.139 804.611 612.345 805.235L610.782 806.038L600.897 791.971L602.578 791.167ZM674.013 766.283C676.485 764.12 677.868 762.452 678.171 761.279C678.474 760.105 677.695 758.295 675.842 755.842L654.219 727.521C652.434 725.174 650.902 723.963 649.623 723.87C648.344 723.777 646.355 724.667 643.674 726.514L642.772 725.334L661.614 710.971L662.51 712.151C660.014 714.251 658.643 715.932 658.389 717.186C658.136 718.44 658.902 720.244 660.688 722.585L682.31 750.912C684.176 753.383 685.721 754.619 686.938 754.619C688.155 754.619 690.132 753.723 692.856 751.938L693.758 753.118L674.915 767.487L674.013 766.283ZM699.961 747.099C702.092 744.548 703.093 742.534 702.957 741.045C702.821 739.556 701.283 737.295 698.336 734.249L673.723 708.981L672.036 708.821C670.239 708.654 668.935 708.74 668.113 709.08C666.989 709.63 665.957 710.365 665.068 711.249L664.03 710.186L673.822 700.653L722.689 706.529L704.156 687.47C701.104 684.331 698.651 682.744 696.791 682.713C695.581 682.713 693.832 683.639 691.54 685.499L690.502 684.43L703.97 671.308L705.008 672.377C703.044 674.725 702.104 676.677 702.191 678.228C702.277 679.778 703.785 682.058 706.719 685.06L736.126 715.252L735.15 716.203L679.141 709.469L700.887 731.796C703.939 734.935 706.386 736.535 708.233 736.591C709.425 736.591 711.174 735.744 713.459 733.946L714.497 735.009L701.029 748.131L699.961 747.099ZM738.431 686.555C741.575 687.562 744.868 688.026 748.167 687.921C752.757 687.779 757.026 685.53 759.745 681.829C761.24 679.914 761.969 677.505 761.789 675.083C761.617 672.612 760.381 670.511 758.083 668.788C756.056 667.231 753.486 666.564 750.96 666.934C749.248 667.175 746.234 668.127 741.909 669.795L734.397 672.692C732.438 673.47 730.381 673.996 728.287 674.249C725.191 674.613 722.065 673.792 719.557 671.938C716.481 669.758 714.436 666.409 713.917 662.671C713.385 658.915 714.454 655.264 717.117 651.724C718.538 649.97 720.243 648.468 722.152 647.27C724.413 645.756 725.655 644.86 725.859 644.563C726.384 644.013 726.625 643.253 726.526 642.499C726.316 641.795 725.951 641.147 725.463 640.603L726.452 639.287L741.13 648.129L739.981 649.661C735.095 647.603 730.98 647.122 727.626 648.215C724.271 649.309 721.75 650.977 720.058 653.207C718.773 654.838 718.105 656.87 718.155 658.946C718.21 661.028 719.261 662.956 720.984 664.129C722.498 665.328 724.401 665.927 726.328 665.804C728.818 665.569 731.252 664.939 733.544 663.95L741.236 660.935C746.048 659.051 749.903 658.069 752.801 657.989C755.735 657.958 758.596 658.928 760.906 660.744C764.18 663.11 766.225 666.829 766.466 670.863C766.812 675.083 765.502 679.16 762.543 683.102C760.925 685.196 758.966 687.006 756.755 688.458C754.382 690.046 753.079 690.997 752.844 691.312C752.319 691.85 752.146 692.634 752.387 693.345C752.646 693.944 753.017 694.494 753.468 694.964L752.411 696.372L737.356 688.026L738.431 686.555ZM734.106 630.805L756.087 591.223L768.19 597.456L767.263 599.13C763.068 597.895 760.054 597.586 758.225 598.204C756.396 598.821 754.357 601.169 752.103 605.246L749.94 609.139L785.772 629.038C788.466 630.533 790.369 631.039 791.487 630.558C792.605 630.076 794.045 628.463 795.811 625.726L797.109 626.449L785.779 646.836L784.481 646.114C785.896 643.025 786.433 640.906 786.094 639.763C785.754 638.62 784.073 637.205 781.052 635.531L746.054 616.095L743.873 620.024C741.717 623.898 740.809 626.845 741.149 628.865C741.489 630.885 743.342 633.294 746.709 636.093L745.758 637.798L734.106 630.805ZM803.867 609.312C804.924 606.223 805.301 604.089 804.998 602.911C804.695 601.733 803.126 600.543 800.284 599.34L767.492 585.44C764.78 584.291 762.846 583.994 761.691 584.55C760.535 585.106 759.244 586.855 757.83 589.795L756.464 589.215L765.731 567.4L767.096 567.981C765.972 571.037 765.608 573.177 766.009 574.4C766.411 575.623 767.967 576.808 770.686 577.952L803.478 591.853C806.314 593.056 808.26 593.358 809.323 592.761C810.385 592.163 811.658 590.409 813.134 587.497L814.506 588.078L805.239 609.892L803.867 609.312ZM766.93 565.8L780.064 522.473L793.211 526.007L792.655 527.861C788.287 527.515 785.278 527.848 783.629 528.861C781.979 529.875 780.478 532.599 779.125 537.035L777.803 541.298L817.014 553.185C819.967 554.079 821.938 554.172 822.92 553.463C823.903 552.754 824.984 550.876 826.158 547.829L827.578 548.254L820.783 570.594L819.362 570.162C820.097 566.843 820.177 564.662 819.597 563.62C819.016 562.569 817.082 561.55 813.777 560.531L775.474 548.916L774.164 553.241C772.879 557.487 772.613 560.56 773.373 562.458C774.133 564.357 776.45 566.319 780.33 568.346L779.767 570.199L766.93 565.8ZM784.728 493.981L786.205 494.172C786.013 497.249 786.267 499.292 786.965 500.301C787.663 501.31 789.467 502.006 792.389 502.389L817.78 505.688C821.944 506.232 825.262 506.085 827.733 505.249C832.261 503.68 834.906 499.936 835.659 494.018C836.506 487.531 834.906 482.893 830.847 480.105C828.579 478.548 824.916 477.441 819.844 476.781L799.185 474.094C794.866 473.538 792.086 473.703 790.857 474.588C789.627 475.474 788.676 477.35 788.015 480.216L786.545 480.025L788.935 461.645L790.406 461.837C790.344 464.959 790.826 467.065 791.851 468.157C792.877 469.249 795.472 470.072 799.636 470.628L820.301 473.309C825.781 474.026 829.951 475.422 832.805 477.498C838.062 481.341 840.12 487.603 838.983 496.285C837.871 504.864 834.319 510.342 828.332 512.718C825.113 514.008 821.048 514.333 816.143 513.695L791.326 510.47C788.441 510.091 786.532 510.297 785.593 511.087C784.654 511.878 783.876 513.755 783.264 516.716L781.788 516.524L784.728 493.981ZM788.824 455.826L787.317 410.578L800.908 409.694L800.97 411.609C796.732 412.692 793.989 413.975 792.747 415.458C791.505 416.941 790.962 420.005 791.116 424.651L791.265 429.105L832.218 427.74C835.301 427.633 837.198 427.087 837.902 426.103C838.606 425.119 839.02 422.993 839.137 419.727L840.62 419.678L841.398 442.999L839.91 443.049C839.539 439.676 838.921 437.586 838.056 436.778C837.191 435.971 835.023 435.629 831.551 435.753L791.536 437.087L791.691 441.579C791.833 446.006 792.574 449.001 793.903 450.562C795.231 452.123 798.06 453.235 802.385 453.898L802.453 455.851L788.824 455.826ZM837.568 396.671C836.747 393.829 835.888 392.046 834.992 391.321C834.109 390.598 832.187 390.499 829.228 391.043L794.187 397.437C791.394 397.952 789.646 398.71 788.942 399.711C788.237 400.711 788.052 402.693 788.379 405.654L786.915 405.919L779.273 364.076L790.498 361.747L790.863 363.749C787.514 365.046 785.457 366.457 784.685 367.981C783.913 369.505 783.944 372.571 784.778 377.18L786.736 387.905C786.952 389.06 787.267 389.758 787.688 389.943C788.398 390.15 789.145 390.15 789.856 389.943L807.432 386.731L805.214 374.579C804.603 371.218 803.719 369.159 802.552 368.401C801.384 367.643 799.234 367.268 796.096 367.276L795.762 365.423L813.95 362.105L814.29 363.959C811.343 365.108 809.465 366.234 808.643 367.338C807.821 368.442 807.716 370.66 808.328 373.992L810.546 386.23L830.05 382.672C831.613 382.388 832.447 381.72 832.521 380.683C832.595 379.645 832.224 376.661 831.322 371.725C830.346 366.37 829.043 362.536 827.418 360.221C825.793 357.906 822.543 356.139 817.681 354.921L817.286 352.727L831.242 353.876L839.014 396.449L837.568 396.671Z" fill="#5F0E13"/>
<path d="M743.694 222.81C742.076 220.852 741.668 218.486 741.68 216.014C741.68 213.993 743.212 212.838 744.325 211.566C744.924 210.75 745.609 209.997 746.357 209.317C747.135 208.699 747.939 208.155 748.909 207.463C752.566 209.317 756.551 210.806 759.615 213.604C759.572 215.569 758.738 217.249 759.25 219.246L765.163 219.635C765.459 217.28 765.089 214.809 766.744 212.22C766.954 211.967 768.19 211.85 768.221 210.62C769.129 210.212 770.062 209.851 771.007 209.539C771.989 209.28 773.021 209.144 773.935 209.848C774.201 209.993 774.485 210.105 774.776 210.182C776.666 212.035 776.549 214.259 775.27 216.409C774.077 218.519 773.577 220.951 773.843 223.36C774.837 225.041 776.413 226.208 777.914 227.456C779.415 228.704 780.082 230.428 780.113 232.553C778.05 233.202 775.993 233.826 773.935 234.487C770.896 235.539 767.646 235.821 764.471 235.308C762.852 235.03 761.172 235.135 759.528 234.851C757.885 234.567 756.347 234.017 754.864 233.616C753.326 234.461 752.065 235.73 751.225 237.273C750.354 238.663 748.977 239.744 747.722 241.054C745.986 240.622 744.467 239.572 743.453 238.101C742.873 237.211 741.884 236.593 740.982 235.766L739.32 236.97C740.191 237.736 740.34 239.046 741.662 239.355C741.866 239.398 742.02 239.707 742.175 239.911C742.947 241.053 743.88 242.073 744.955 242.938C745.949 243.655 746.4 245.026 747.636 245.663C748.112 245.91 748.359 246.595 748.909 247.349C748.025 247.596 747.395 247.726 746.796 247.936C745.152 248.517 743.583 249.252 741.897 249.74C740.216 250.218 738.468 250.438 736.719 250.389C734.743 250.339 732.827 249.681 731.233 248.504C731.147 248.449 731.054 248.412 730.955 248.399L729.677 248.677C729.677 248.64 729.565 248.739 729.559 248.85C729.411 250.494 729.059 252.156 729.226 253.793C729.417 254.782 728.948 255.781 728.064 256.264C727.1 256.896 726.489 257.939 726.402 259.087C727.36 260.793 728.738 262.228 730.399 263.257C732.049 264.203 733.76 265.012 735.743 266.013C736.411 265.673 737.294 265.21 738.215 264.777C738.968 264.419 739.747 264.11 740.507 263.764C741.266 263.418 741.649 262.868 742.564 262.763C743.682 262.627 744.374 261.157 745.752 261.274C746.987 259.866 748.964 259.631 750.453 258.568C751.509 257.711 752.733 257.08 754.049 256.715C754.883 256.515 755.655 256.122 756.31 255.566C758.565 253.916 761.196 252.903 763.439 251.198C764.582 250.294 766.151 250.168 767.424 250.877C767.535 252.047 766.991 253.182 766.009 253.83C765.441 254.262 764.866 254.682 764.279 255.065C762.426 256.332 761.017 258.006 759.528 259.662C758.565 260.863 757.465 261.947 756.248 262.893C755.365 263.511 754.543 264.196 753.641 264.746C750.768 266.556 748.624 269.021 746.53 271.678C744.979 273.636 743.287 275.428 742.125 277.689C741.761 278.393 740.747 278.758 740.062 279.252L736.794 278.733C736.077 278.084 735.428 277.232 734.57 276.775C733.612 276.194 732.815 275.38 732.259 274.409C731.672 273.544 730.48 273.389 730.041 272.32C729.602 271.252 728.497 271.085 727.743 270.424C725.797 268.75 723.276 267.872 721.491 265.976C720.595 266.031 720.342 265.278 719.934 264.74C719.032 263.505 718.155 262.3 717.389 261.243C718.34 256.919 719.242 252.749 720.181 248.554C717.988 246.262 715.029 245.144 712.446 242.957C714.757 241.585 716.635 240.041 718.785 239.33C720.854 238.664 723.042 238.421 725.21 238.614C726.124 238.688 727.063 238.614 727.934 238.614C728.503 237.434 728.935 236.346 729.528 235.358C730.597 233.597 732.302 232.442 734.032 231.497C735.132 230.879 736.571 230.836 737.875 230.675C740.297 230.459 742.632 229.656 744.67 228.334C745.288 227.883 746.215 227.777 747.086 227.487L747.963 227.833C748.686 228.241 749.465 228.548 750.274 228.747C751.102 228.868 751.942 228.728 752.683 228.346C753.993 227.549 755.284 227.66 756.656 227.889C758.027 228.117 759.294 228.315 760.727 228.537L761.901 227.456C759.609 226.585 757.576 225.745 755.537 225.072C754.697 224.869 753.832 224.815 752.974 224.911C749.885 225.047 746.845 224.849 744.226 222.872C744.158 222.823 743.935 222.854 743.694 222.81ZM733.093 197.356C734.576 199.043 736.466 198.444 738.035 198.456C739.308 198.361 740.513 199.047 741.081 200.192C740.278 202.107 738.61 202.972 737.195 204.053C736.812 204.284 736.454 204.55 736.126 204.85C735.274 205.808 734.044 206.129 732.939 206.407C731.567 206.826 730.109 206.881 728.713 206.568C726.915 206.005 725.08 205.141 724.221 203.256C723.239 203.219 722.671 202.428 721.503 202.743C719.335 203.33 717.098 203.868 715.208 204.937C712.477 206.442 709.944 208.287 707.677 210.429C705.811 212.114 704.1 213.955 702.549 215.933C701.314 217.677 699.88 219.308 698.972 221.266C697.922 223.546 696.921 225.887 699.151 227.87L701.901 229.254L704.946 228.778C705.749 228.283 706.417 227.6 706.898 226.789C708.184 224.655 709.981 222.874 712.125 221.606C715.029 219.901 718.303 219.215 721.577 217.819C721.627 216.767 721.682 215.396 721.744 213.901C722.195 213.654 722.714 213.11 723.239 213.11C724.876 213.11 726.637 212.999 728.126 213.536C730.362 214.376 732.679 214.968 735.045 215.303L736.769 214.685C737.77 213.409 738.486 211.935 738.876 210.361C739.055 209.281 739.537 208.275 740.272 207.463C741.273 206.512 741.853 205.097 743.138 204.325C743.509 204.11 743.824 203.807 744.047 203.442C744.658 202.409 745.671 201.677 746.845 201.421C748.18 200.927 749.471 200.325 750.706 199.624C751.707 197.325 752.56 195.342 753.412 193.446L752.381 192.031C746.505 189.455 739.073 188.034 734.6 190.029C733.093 192.402 732.197 194.786 733.093 197.356Z" fill="#5F0E13"/>
<path d="M648.296 150.231C645.207 154.605 642.05 158.176 637.497 160.227C637.404 160.923 637.805 161.59 638.46 161.839C640.227 162.747 641.642 164.261 643.742 164.613C644.552 164.755 645.256 165.515 646.01 165.991C646.393 168.913 645.2 171.699 645.281 174.597C644.515 175.554 643.366 175.215 642.377 175.375C641.389 175.536 640.412 176.184 639.288 175.709C639.01 175.585 638.596 175.777 638.306 175.666C637.2 175.245 636.125 174.757 634.889 174.226C634.222 175.647 632.832 176.401 631.906 177.662C631.059 178.805 629.521 179.361 628.359 180.312C627.291 181.041 626.055 181.484 624.77 181.597C623.615 181.701 622.453 181.62 621.323 181.356C618.11 180.77 616.288 178.756 615.651 175.591C615.441 174.554 615.182 173.528 614.916 172.373C616.789 171.671 618.79 171.378 620.785 171.514C621.99 171.661 623.195 171.278 624.09 170.464C621.792 169.006 619.655 167.597 617.455 166.294C616.848 166.035 616.194 165.903 615.534 165.904C614.057 165.744 612.575 165.626 611.166 165.497L609.461 163.47C609.282 162.649 609.029 161.524 608.781 160.437C609.319 159.146 609.838 157.885 610.141 157.163C612.247 155.007 614.23 155.847 615.911 156.489C618.827 157.62 621.854 157.923 624.887 158.268C626.605 158.466 627.89 157.385 629.15 156.31C630.985 154.852 633.011 153.654 635.174 152.752L636.446 150.744L635.211 147.266C636.854 146.24 638.374 145.264 639.924 144.325C641.475 143.386 642.902 142.558 644.403 141.668L649.445 143.917C651.298 143.472 653.695 144.757 655.555 142.644L652.756 136.782C650.909 135.351 648.71 134.44 646.387 134.144C644.231 133.768 642.025 133.741 639.863 134.063C638.009 134.341 636.205 134.496 634.408 135.256C632.61 136.016 630.831 136.355 629.162 137.257C628.699 137.541 628.149 137.658 627.612 137.591C626.142 137.226 624.9 138.079 623.905 138.079C621.767 139.475 620.946 141.452 619.735 143.133C618.994 144.164 618.079 145.072 617.122 146.172C615.849 146.172 614.508 147.408 612.915 146.314C613.427 143.151 613.946 139.988 614.564 136.189C615.274 135.348 616.473 134.119 617.455 132.735C618.438 131.351 619.815 130.35 620.977 129.152C622.453 127.638 624.418 127.342 626.222 126.749C629.688 125.606 633.308 125.365 636.959 125.396C638.504 125.396 639.962 124.691 641.58 124.778C643.526 124.786 645.472 124.681 647.406 124.463C648.092 124.443 648.777 124.36 649.451 124.216C653.207 123.277 656.994 122.424 660.689 121.293C664.383 120.163 668.189 118.754 671.494 116.499C671.611 116.419 671.63 116.197 671.772 115.882C670.252 114.842 668.411 114.392 666.582 114.615C664.908 114.705 663.438 115.755 662.808 117.309C660.336 118.248 658.051 118.279 656.105 116.691C654.869 114.838 654.609 113.169 655.74 111.291C656.16 110.587 656.092 109.518 656.074 108.623C656.006 106.594 656.661 104.606 657.927 103.019L659.478 102.618L661.584 103.186C662.604 104.94 664.828 105.441 666.304 106.763C668.294 106.825 670.098 107.097 671.685 108.209C672.958 109.104 674.496 109.284 675.954 109.636C677.443 109.888 678.883 110.376 680.217 111.081C681.23 111.699 682.107 112.508 683.467 112.576C684.826 112.644 685.036 114.343 686.154 114.862C686.203 117.84 684.227 119.125 681.829 120.101C679.049 121.238 676.09 121.707 673.18 122.424C669.511 123.332 665.829 124.222 662.208 125.297C660.719 125.742 659.119 126.217 657.946 127.768C658.18 128.207 658.446 128.695 658.724 129.183C660.25 131.833 661.658 134.558 663.333 137.109C665.637 140.612 664.908 143.973 663.487 147.272C662.147 148.149 660.559 148.581 658.959 148.507C657.346 148.421 655.703 148.927 654.072 149.125C653.318 149.218 652.534 149.125 651.798 149.273C650.581 149.514 649.352 149.91 648.296 150.231ZM649.408 103.557C651.156 104.008 652.423 103.618 653.368 102.16C654.813 99.9175 656.833 98.3545 658.996 96.8594C660.12 96.081 661.467 95.2964 661.696 93.8137L658.792 89.106C656.821 88.8033 654.82 88.7576 652.836 88.9701C650.983 93.6716 649.216 98.2 647.276 103.093C648.123 103.242 648.771 103.359 649.408 103.526V103.557Z" fill="#5F0E13"/>
<path d="M522.653 77.1941C522.721 81.4385 524.642 85.1638 524.136 89.2412L521.887 90.6498C520.874 90.7315 519.857 90.7586 518.841 90.7301C517.897 90.6121 516.96 90.4411 516.036 90.2174L514.004 91.5395C512.533 93.6586 512.694 95.9691 511.946 97.9708C510.655 101.461 510.346 105.15 509.339 108.671C508.905 110.448 508.135 112.125 507.072 113.613C506.842 114.003 506.655 114.418 506.516 114.849C505.818 115.263 505.206 116.233 503.847 115.603C503.069 111.803 502.259 107.868 501.432 103.865C499.374 104.482 497.725 105.372 497.002 107.744C496.57 109.202 495.501 110.475 494.661 111.791C493.326 113.904 491.516 114.824 489.718 114.145C487.655 112.989 486.957 111.717 486.821 110.092C486.697 108.584 486.302 107.04 487.618 105.767C487.778 105.619 487.741 105.261 487.797 105.001C487.945 104.217 487.846 103.216 488.297 102.691C489.187 101.659 489.496 100.318 490.379 99.2187C489.928 96.5189 489.304 93.7451 488.612 90.9711C488.092 88.8644 488.236 86.6477 489.026 84.6263C489.459 83.5328 490.262 82.3528 491.788 82.3219C492.016 82.3219 492.239 82.0748 492.616 81.8524C493.851 82.3034 495.34 82.5938 496.563 83.3166C498.874 84.6819 501.395 84.7375 504.897 83.99C506.028 83.2857 506.374 82.1366 506.547 80.9381C506.646 80.2337 506.825 79.5418 506.936 78.8375C507.226 76.7203 507.97 74.6908 509.117 72.8881C509.188 72.7312 509.236 72.5644 509.259 72.3939C509.902 69.964 510.546 67.5336 511.193 65.1038C511.538 63.5365 512.41 62.1341 513.664 61.1314C515.449 59.7969 517.179 60.0502 518.544 61.7986C519.094 62.4967 519.558 63.2628 520.095 64.0597C519.853 65.7976 519.511 67.52 519.07 69.2183C518.483 71.2312 517.67 73.1705 516.648 75.001C516.03 76.0018 516.345 77.0644 515.777 77.8181L517.012 79.7271L522.653 77.1941ZM501.549 92.3365C498.102 92.3983 495.711 93.7574 494.179 96.5869C496.397 98.7183 499.022 98.1499 501.549 98.1932C502.167 97.1429 502.785 96.0865 503.402 95.1042C503.248 94.4308 503.118 93.8686 502.995 93.3188L501.549 92.3365ZM524.284 113.026L521.769 112.545C520.96 111.741 520.095 111.192 519.687 110.407C518.65 108.418 517.297 106.472 517.945 103.994C518.184 103.139 518.349 102.264 518.439 101.381C518.625 99.3793 519.743 97.9522 521.195 96.6549C524.284 97.0194 526.001 98.9592 527.113 101.597C527.626 102.833 528.071 104.068 528.559 105.347C528.312 108.615 526.156 110.771 524.271 113.026H524.284ZM542.478 60.4085L540.241 61.2673L539.914 63.0033C539.441 63.8577 538.917 64.6831 538.345 65.4745C536.942 67.1611 537.375 68.7179 538.512 70.2995C539.185 71.2324 539.784 72.2147 540.365 73.092L544.035 74.5006L547.538 71.6031L548.254 67.8406C546.555 64.2698 547.476 63.3864 542.465 60.4085H542.478Z" fill="#5F0E13"/>
<path d="M393.596 97.3351C393.744 94.9875 393.88 92.6522 393.979 90.3169C394.071 88.1732 393.509 86.19 393.281 84.139C393.151 82.959 393.497 81.7851 393.163 80.568C392.83 79.351 392.372 78.2327 392.99 77.0219C392.329 75.6133 392.99 74.1182 392.737 72.6973C392.716 72.0355 392.788 71.3745 392.947 70.7326L394.59 69.497L395.288 70.5411L395.511 70.2507L397.315 79.6907C397.679 81.6183 397.933 83.5644 398.439 85.461C398.884 87.2094 399.533 88.896 400.15 90.7802L402.714 94.067C403.073 95.9204 404.302 97.7058 404.475 99.8372C404.524 100.387 405.179 100.95 405.667 101.382C406.27 101.91 406.934 102.364 407.644 102.735C409.59 103.754 410.536 105.515 411.438 107.554C408.349 109.537 404.951 110.884 401.51 112.416C401.812 114.986 400.36 117.055 399.248 119.212C398.34 121.009 397.111 122.625 395.622 123.981C392.125 127.07 389.444 127.125 385.694 125.34C385.366 125.194 385.069 124.984 384.823 124.722C384.452 124.284 384.162 123.777 383.767 123.196C383.884 122.628 384.014 121.961 384.131 121.386C384.551 121.046 384.885 120.589 385.323 120.441C387.56 119.687 389.03 117.896 390.643 116.401C391.732 115.287 392.723 114.08 393.602 112.793C394.992 110.989 395.233 108.931 394.837 106.751C394.745 106.238 394.646 105.731 394.553 105.249L387.288 105.299C386.365 105.807 385.468 106.362 384.601 106.961C383.501 107.807 382.284 108.382 382.339 110.315C382.35 111.962 382.142 113.603 381.722 115.196C380.98 118.143 379.973 121.059 378.07 123.505C377.367 124.245 376.588 124.909 375.748 125.488C372.628 126.588 369.607 125.303 366.796 124.253C364.418 123.401 361.907 122.983 359.382 123.017C360.42 119.99 361.371 116.932 362.533 113.954C362.987 112.752 363.725 111.678 364.683 110.822C365.461 110.161 365.245 109.228 365.832 108.623C365.214 107.387 365.881 106.071 365.665 104.798C365.425 102.952 365.437 101.081 365.702 99.2379C365.832 98.0024 366.098 96.7668 367.389 96.0069C367.939 95.6918 368.235 94.9443 368.624 94.3821L365.838 88.5191C366.129 87.5986 366.505 86.4989 366.814 85.3869C367.358 83.4532 367.018 82.4955 365.282 81.2846C363.904 80.3147 362.471 79.4313 361.161 78.5602L360.84 76.8674C362.607 74.6742 363.799 71.925 366.036 69.843C367.166 68.7687 368.149 67.5491 368.958 66.2165C369.761 64.8209 370.449 63.3623 371.015 61.8548C371.151 61.5274 370.886 61.0393 370.756 60.3536L360.939 66.7849L359.259 67.1062C355.984 65.1169 354.965 63.3623 354.52 57.3017C354.841 56.2947 355.756 56.3812 356.565 56.1896L358.857 57.9936C358.857 57.9936 358.981 58.4075 359.129 58.8771C359.821 59.1365 360.599 59.7358 361.217 59.5937C362.965 59.1921 364.738 59.1056 366.474 58.216C369.508 56.6715 371.843 54.3672 374.395 52.2666C376.946 50.1661 379.164 47.6207 382.197 46.1504C384.373 45.078 386.86 44.8194 389.209 45.4214C389.438 45.477 389.617 45.7241 389.87 45.9156C389.716 47.4416 388.276 48.0408 387.35 48.4918C386.122 49.1878 384.996 50.0483 384.001 51.0495C382.763 52.2738 381.661 53.6285 380.715 55.09C378.157 58.5682 375.667 62.0958 373.103 65.5926C372.476 66.3531 371.801 67.0728 371.083 67.7487L371.423 69.5403L375.13 72.0115C375.204 72.3945 375.445 72.9259 375.309 73.0618C374.012 74.3468 374.073 76.2496 373.153 77.6953C372.306 78.9865 373.017 80.3579 373.153 81.6677C375.854 81.8802 378.573 81.6189 381.184 80.8954L383.038 81.4329C382.92 81.8159 382.809 82.2052 382.648 82.7613C383.217 85.2009 383.33 87.7246 382.982 90.2057C382.968 90.4522 382.929 90.6962 382.865 90.9347C382.085 93.0143 382.085 95.3051 382.865 97.3846L384.841 98.2124C385.459 98.095 386.225 97.6935 386.818 97.8788C388.635 98.4595 390.525 97.3413 392.379 98.3174L393.596 97.3351ZM377.125 108.221L371.998 109.901L369.86 112.546C371.262 113.553 371.355 113.546 375.741 112.379L377.508 110.198L377.125 108.221Z" fill="#5F0E13"/>
<path d="M301.05 146.561C303.262 149.032 302.792 151.621 302.212 154.135C301.798 155.933 299.364 157.453 297.22 157.354C293.754 157.206 290.362 156.644 287.335 154.729C286.749 154.263 286.203 153.749 285.704 153.19C283.919 151.559 282.319 149.737 279.749 149.175C277.759 148.736 276.202 147.562 274.72 146.024C272.545 143.769 271.217 141.013 269.438 138.536C268.282 136.93 267.108 135.336 265.867 133.625L263.599 133.526L262.982 133.934C262.988 134.097 263.012 134.258 263.056 134.415C263.377 135.188 264.106 135.707 263.989 136.782C263.902 137.523 264.792 138.153 265.014 139.08C265.597 141.096 266.334 143.065 267.22 144.967C268.023 146.92 268.684 148.921 269.567 150.849C270.108 152.267 270.201 153.818 269.833 155.291C269.666 156.075 269.481 156.854 269.345 157.472C267.603 159.801 265.502 161.24 262.549 161.178L259.182 159.615C257.607 161.524 257.273 163.792 257.193 165.991C257.098 168.56 257.257 171.132 257.669 173.67C258.019 176.312 257.787 178.998 256.989 181.541C256.774 182.462 256.182 183.251 255.358 183.715C254.271 184.333 253.251 185.031 252.207 185.569C248.636 186.613 245.344 185.21 241.791 184.543C238.974 182.356 237.664 178.897 235.65 175.974C235.324 175.397 235.146 174.748 235.131 174.084C235.02 171.057 233.76 168.308 233.278 165.379C233.025 163.884 232.704 162.457 232.938 160.913C233.15 159.846 233.112 158.744 232.827 157.694C232.024 155.315 231.919 152.832 231.493 150.398C231.393 149.464 231.466 148.519 231.709 147.612C232.327 144.646 233.012 141.693 233.673 138.746C235.131 137.066 236.559 135.348 239.277 135.497C241.099 136.572 243.157 137.572 244.275 139.722C246.128 140.754 246.524 143.139 248.377 144.201C248.948 144.566 249.499 144.962 250.026 145.387C253.115 142.749 256.822 142.058 260.424 141.983C261.814 140.464 261.233 138.993 260.751 137.881C259.837 135.781 259.689 133.359 258.095 131.555C257.755 129.189 256.062 127.539 254.926 125.6C253.789 123.66 252.498 121.652 251.219 119.737C250.657 118.903 249.631 118.501 249.162 117.5C248.828 116.601 248.166 115.861 247.308 115.431C246.907 115.258 246.69 114.578 246.431 114.127C244.281 110.742 242.211 107.3 239.95 103.995C238.999 102.605 238.746 100.955 237.862 99.5652C237.726 99.3428 237.967 98.8856 238.035 98.5273L241.408 96.3896C242.499 96.9896 243.553 97.6537 244.565 98.379C245.467 98.9974 246.453 99.4824 247.493 99.8185C249.443 100.541 251.296 101.501 253.01 102.679C254.57 103.775 256.224 104.73 257.953 105.534C260.263 106.714 262.277 108.005 263.68 110.303C265.793 113.812 268.091 117.21 270.235 120.7C271.794 123.133 273.756 125.282 276.036 127.058C276.826 127.675 276.913 129.028 278.167 129.183C278.686 130.523 280.113 131.178 280.743 132.346C281.837 134.378 283.505 135.836 285.21 137.202C287.618 139.069 290.126 140.803 292.722 142.397C294.403 143.454 296.237 144.251 298.023 145.159C299.011 145.653 300.062 146.11 301.05 146.561Z" fill="#5F0E13"/>
<path d="M181.819 233.949C180.447 234.752 179.422 236.136 177.803 236.735C177.261 236.947 176.783 237.293 176.413 237.742C175.672 238.626 175.035 239.596 174.374 240.504C174.282 241.876 174.22 243.21 174.078 244.538C173.905 246.169 173.547 247.745 172.058 248.906C170.532 249.079 169.815 250.426 168.709 251.946C168.814 252.335 169.037 253.002 169.179 253.694C169.483 254.882 169.153 256.142 168.308 257.03C167.128 258.266 166.701 260.199 164.873 260.867C163.341 262.986 160.851 263.505 158.639 264.382C156.835 265.005 154.972 265.441 153.079 265.685C149.712 266.254 146.413 265.469 143.102 264.987C141.6 263.838 139.691 263.597 138.048 262.738C136.837 261.985 135.524 261.409 134.15 261.027C133.821 260.922 133.518 260.75 133.26 260.521C131.462 259.229 129.671 257.92 127.805 256.567L128.997 254.917C130.672 255.467 132.581 255.838 134.236 256.703C135.6 257.344 137.091 257.674 138.598 257.666C139.179 257.697 139.759 257.771 140.352 257.827L142.088 256.536C142.055 255.929 141.906 255.333 141.65 254.781C141.093 253.935 140.387 253.197 139.568 252.6C138.187 251.587 137.26 250.072 136.985 248.381C135.98 244.161 135.689 239.803 136.127 235.488C136.627 231.237 136.924 226.956 138.165 222.78C138.783 220.691 139.043 218.424 139.518 216.256C140.488 211.832 141.254 207.31 142.898 203.114C144.337 199.407 145.369 195.416 148.649 192.5C151.25 191.376 153.796 189.615 156.65 189.319C159.201 189.788 160.857 191.388 162.686 192.692C164.514 193.996 166.139 195.206 167.875 196.454C169.611 197.702 170.779 199.451 171.977 201.174C173.46 203.293 174.288 205.741 175.511 207.971C175.997 208.952 176.36 209.99 176.592 211.06C177.389 214.254 178.112 217.46 178.897 220.654C179.122 221.652 179.423 222.631 179.799 223.583C180.497 225.263 181.411 226.863 182.023 228.574C182.634 230.286 182.313 232.121 181.819 233.949ZM156.032 199.383C153.919 202.157 151.658 204.838 150.861 208.317C150.397 209.901 149.85 211.46 149.224 212.987C148.649 214.649 148.798 216.441 147.902 218.035C147.414 218.912 147.581 220.142 147.414 221.204C147.139 222.661 147.725 224.146 148.921 225.022L150.836 224.682C151.794 223.366 152.733 221.952 153.796 220.648C154.858 219.345 156.094 218.097 157.28 216.799L158.818 216.552L160.709 217.219C160.74 218.263 162.018 218.35 162.346 218.807C162.785 219.728 162.92 220.506 163.384 220.901C164.978 222.254 164.836 224.151 165.132 225.906C165.15 226.491 165.094 227.076 164.965 227.648L167.616 227.889C169.21 226.252 169.426 224.355 169.197 222.329C168.685 217.769 167.041 213.519 165.46 209.268C164.724 207.425 163.842 205.645 162.822 203.942C161.71 201.984 160.641 199.939 158.497 199L156.032 199.383ZM157.428 236.989C154.84 235.784 152.214 234.845 149.162 234.814C147.877 239.361 149.212 243.556 150.064 247.633L152.307 249.258L159.208 248.523L160.585 246.626C159.801 245.199 158.775 243.834 158.275 242.302C157.737 240.634 157.7 238.811 157.428 236.989Z" fill="#5F0E13"/>
<path fill-rule="evenodd" clip-rule="evenodd" d="M428.791 625.19C432.795 629.663 432.795 636.428 428.791 640.9C426.948 642.97 424.298 644.138 421.526 644.107C418.706 644.15 416.005 642.97 414.113 640.882C410.051 636.44 410.051 629.632 414.113 625.19C416.005 623.096 418.706 621.922 421.526 621.965C424.301 621.934 426.953 623.108 428.791 625.19ZM472.395 651.718L472.939 624.214L455.851 651.718H472.395ZM512.904 622.064C509.827 622.064 507.399 623.917 505.62 627.624C503.841 631.331 502.956 636.428 502.964 642.908C502.964 649.352 503.858 654.436 505.645 658.174C507.432 661.912 509.852 663.766 512.904 663.735C516.01 663.735 518.458 661.893 520.25 658.217C522.041 654.541 522.933 649.426 522.925 642.877C522.925 636.323 522.033 631.207 520.25 627.531C518.466 623.855 516.018 622.027 512.904 622.039V622.064ZM756.648 444.526C756.648 616.51 616.409 756.782 444.391 756.782C272.372 756.782 132.133 616.541 132.133 444.526C132.133 272.513 272.403 132.241 444.391 132.241C616.378 132.241 756.648 272.513 756.648 444.502V444.526ZM301.483 377.36H376.804C377.4 376.664 378.053 376.02 378.756 375.432C379.485 374.901 379.473 373.684 380.573 373.579C382.006 370.947 384.279 368.964 386.046 366.592C387.813 364.219 389.753 362.088 391.674 359.931C394.652 356.607 397.339 353.055 400.274 349.713C403.208 346.37 405.933 343.065 408.688 339.68C411.017 336.813 413.538 334.119 415.966 331.296C417.035 330.06 418.184 328.893 419.129 327.589C420.711 325.334 422.482 323.217 424.424 321.263C424.832 320.926 425.205 320.546 425.536 320.133C426.835 318.122 428.347 316.258 430.045 314.572C430.396 314.306 430.706 313.989 430.966 313.633C431.973 311.718 433.672 310.371 434.945 308.691C436.217 307.011 437.984 305.571 439.152 303.786C440.023 302.457 441.388 301.599 442.105 300.252C442.674 299.291 443.439 298.46 444.347 297.812C444.847 298.239 445.31 298.709 445.731 299.214C447.585 301.963 449.858 304.403 452.002 306.906C454.405 309.71 456.679 312.645 459.218 315.345C460.647 316.719 461.943 318.225 463.091 319.842C463.857 321.078 465.087 321.801 465.729 322.974C466.372 324.148 467.521 324.865 468.2 325.94C468.967 327.079 469.86 328.127 470.863 329.066C471.209 329.338 471.517 329.656 471.777 330.011C472.784 331.926 474.496 333.267 475.762 334.953C477.029 336.64 478.771 338.086 479.976 339.852C480.822 341.088 482.095 341.947 482.774 343.189C483.299 344.146 484.09 344.752 484.714 345.555C485.338 346.358 485.95 347.186 486.567 347.952C488.044 349.645 489.724 351.189 490.997 353.018C492.01 354.463 493.431 355.489 494.389 356.904C496.471 359.944 499.158 362.465 501.376 365.381C502.612 367.024 504.224 368.408 505.441 370.07C507.348 372.7 509.476 375.162 511.804 377.428H586.903C585.124 375.235 583.561 373.239 581.918 371.312C580.027 369.106 578.112 366.925 576.283 364.658C573.856 361.643 571.199 358.806 568.635 355.897C567.252 354.476 565.95 352.979 564.737 351.411C562.649 348.378 559.974 345.851 557.75 342.935C556.391 341.156 554.661 339.661 553.326 337.857C552.4 336.591 551.139 335.608 550.355 334.323C549.706 333.248 548.785 332.519 548.038 331.586C547.29 330.654 546.568 329.733 545.789 328.813C544.368 327.188 542.781 325.686 541.514 323.95C539.197 320.769 536.331 318.057 533.971 314.912C532.735 313.263 531.08 311.91 529.924 310.211C528.936 308.747 527.521 307.74 526.533 306.325C524.395 303.335 521.776 300.765 519.551 297.842C518.186 296.063 516.413 294.593 515.134 292.764C514.121 291.325 512.737 290.293 511.736 288.878C509.593 285.894 506.961 283.318 504.755 280.402C503.409 278.617 501.666 277.14 500.332 275.324C499.313 273.897 497.916 272.853 496.953 271.432C495.062 268.695 492.696 266.36 490.694 263.722C489.082 261.584 487.117 259.711 485.301 257.728C485.035 257.499 484.788 257.247 484.566 256.974C483.438 255.174 482.121 253.498 480.637 251.976C479.088 250.469 477.656 248.846 476.355 247.121C474.1 243.877 471.172 241.227 468.806 238.088C467.57 236.439 465.908 235.086 464.759 233.387C463.771 231.917 462.35 230.916 461.361 229.501C459.236 226.505 456.604 223.941 454.38 221.019C453.021 219.24 451.248 217.769 449.963 215.941C448.956 214.501 447.492 213.469 446.609 212.036C445.879 211.051 445.093 210.108 444.255 209.213C443.947 209.477 443.66 209.764 443.396 210.071C441.981 212.104 440.221 213.865 438.639 215.749C436.551 218.251 434.382 220.691 432.325 223.224C430.552 225.411 428.692 227.549 426.864 229.686C424.856 232.028 422.854 234.369 420.89 236.754C418.375 239.843 415.577 242.648 413.099 245.737C411.956 247.158 410.548 248.35 409.547 249.827C408.194 251.822 406.372 253.379 404.969 255.319C403.814 256.919 402.257 258.229 401.096 259.822C398.989 262.727 396.37 265.18 394.3 268.108C392.848 270.134 390.846 271.759 389.358 273.755C388.252 275.213 386.825 276.374 385.799 277.838C383.89 280.563 381.61 282.972 379.522 285.536C377.521 288.007 375.432 290.386 373.344 292.783C371.256 295.18 369.39 297.527 367.358 299.838C365.437 302.031 363.62 304.305 361.73 306.51C359.716 308.852 357.739 311.218 355.743 313.572C353.748 315.925 351.919 318.186 349.942 320.435C347.965 322.684 346.106 325.044 344.129 327.293C341.973 329.764 339.909 332.272 337.766 334.706C335.789 336.961 333.954 339.334 331.964 341.576C329.975 343.819 328.072 346.129 326.17 348.446C323.649 351.535 320.943 354.414 318.33 357.392C317.211 358.571 316.155 359.809 315.167 361.099C313.06 364.108 310.447 366.69 308.186 369.576C306.122 372.238 303.843 374.654 301.483 377.36ZM339.885 639.887H284.351V645.484H339.885V639.887ZM381.895 614.737H365.77L364.411 622.626H372.14V671.037H381.895V614.737ZM441.438 634.08C441.438 628.001 439.553 622.953 435.785 618.932C432.204 615.002 427.101 612.808 421.786 612.914C415.954 612.914 411.104 614.805 407.237 618.586C403.402 622.274 401.295 627.402 401.429 632.721C401.429 638.547 403.184 643.304 406.693 646.998C410.202 650.692 414.732 652.546 420.284 652.558C420.889 652.558 421.493 652.521 422.094 652.459C422.756 652.398 423.497 652.299 424.325 652.169C421.92 655.276 419.275 658.378 416.392 661.486C413.509 664.594 410.296 667.782 406.755 671.062H420.037C427.212 663.913 432.566 657.284 436.1 651.174C439.634 645.064 441.413 639.368 441.438 634.08ZM487.439 651.718H481.211V614.737H471.265L447.109 651.718V659.681H472.08V671.037H481.211V659.658H487.439V651.718ZM532.803 642.902C532.803 633.474 531.036 626.123 527.502 620.841C523.969 615.56 519.107 612.919 512.916 612.914C506.738 612.914 501.878 615.557 498.336 620.841C494.795 626.123 493.015 633.481 492.999 642.902C492.999 652.323 494.767 659.682 498.306 664.965C501.844 670.247 506.703 672.891 512.885 672.885C519.063 672.885 523.925 670.247 527.472 664.965C531.018 659.682 532.791 652.33 532.791 642.902H532.803ZM607.618 639.887H552.072V645.484H607.606L607.618 639.887ZM689.457 557.979V408.311H199.021V558.017C207.701 558.413 279.335 558.251 281.583 557.831V518.626C281.583 515.889 281.54 513.152 281.583 510.415C281.573 507.733 281.705 505.052 281.979 502.384C282.313 499.476 282.873 496.599 283.653 493.778C285.269 488.385 287.973 483.381 291.598 479.074C294.224 475.845 297.353 473.061 300.865 470.827C304.129 468.786 307.618 467.128 311.262 465.884C315.21 464.507 319.337 464.445 323.377 463.79C324.792 463.562 326.052 464.21 327.399 464.334C328.754 464.383 330.104 464.525 331.439 464.76C333.867 465.316 336.178 466.088 338.532 466.861C343.035 468.337 346.921 470.839 350.492 473.749C353.51 476.221 356.135 479.137 358.276 482.398C359.967 484.933 361.415 487.622 362.601 490.429C363.799 493.302 364.294 496.428 365.288 499.381C364.911 501.822 365.82 504.169 365.82 506.579C365.82 523.004 365.82 539.427 365.82 555.848V558.059H402.374V555.366C402.374 539.031 402.374 522.697 402.374 506.362C402.38 503.209 402.722 500.065 403.394 496.984C403.96 494.335 404.788 491.748 405.865 489.262C407.817 484.696 410.758 480.749 413.896 476.98C414.65 476.084 415.805 475.541 416.633 474.7C420.34 470.926 424.93 468.584 429.681 466.527C431.297 465.909 432.971 465.458 434.679 465.18C436.409 464.834 438.108 464.216 439.912 464.371C441.716 464.525 443.415 463.438 445.256 463.84C446.135 464.095 447.037 464.264 447.949 464.346C450.081 464.346 452.088 464.964 454.127 465.372C458.318 466.248 462.317 467.876 465.927 470.178C469.072 472.056 471.955 474.341 474.502 476.974C475.305 477.845 475.941 478.877 476.769 479.729C478.35 481.36 479.652 483.238 480.624 485.289C482.478 489.194 484.763 493.006 484.998 497.509C485.943 499.567 486.055 501.747 486.048 503.965C486.048 521.099 486.048 538.228 486.048 555.353V558.059H523.116V555.341C523.116 538.302 523.116 521.262 523.116 504.219C523.084 502.336 523.221 500.455 523.524 498.597C524.236 495.13 525.317 491.75 526.749 488.514C528.318 484.684 530.789 481.428 533.371 478.302C535.728 475.542 538.458 473.123 541.483 471.117C545.74 468.189 550.552 466.57 555.365 464.939C556.86 464.439 558.553 464.538 560.159 464.359C561.765 464.179 563.384 464.087 564.965 463.803C566.152 463.592 567.085 464.365 568.197 464.377C569.647 464.391 571.094 464.53 572.521 464.791C575.92 465.435 579.219 466.52 582.338 468.016C586.816 469.993 590.858 472.838 594.23 476.387C595.015 477.227 595.892 477.981 596.652 478.858C597.674 479.886 598.587 481.016 599.377 482.231C600.946 485.005 602.466 487.841 603.744 490.751C604.782 493.074 605.715 495.495 605.771 498.121C606.858 499.672 606.172 501.55 606.71 503.28C607.247 505.009 606.827 507.128 606.827 509.068V557.979H689.457Z" fill="#5F0E13"/>
</svg>
