<?xml version="1.0" encoding="utf-8"?>
<!-- Generator: Adobe Illustrator 25.4.1, SVG Export Plug-In . SVG Version: 6.00 Build 0)  -->
<svg version="1.1" id="图层_1" xmlns="http://www.w3.org/2000/svg" xmlns:xlink="http://www.w3.org/1999/xlink" x="0px" y="0px"
	 viewBox="0 0 1017.34 1018.78" style="enable-background:new 0 0 1017.34 1018.78;" xml:space="preserve">
<style type="text/css">
	.st0{fill-rule:evenodd;clip-rule:evenodd;fill:#F5DB4D;}
	.st1{fill-rule:evenodd;clip-rule:evenodd;fill:#0075C9;}
	.st2{fill:#F5DB4D;}
	.st3{fill:#EA0029;}
	.st4{fill-rule:evenodd;clip-rule:evenodd;fill:url(#SVGID_1_);}
	.st5{fill-rule:evenodd;clip-rule:evenodd;fill:url(#SVGID_00000000930687817591301340000001370290321595340935_);}
	.st6{fill-rule:evenodd;clip-rule:evenodd;fill:url(#SVGID_00000150100839758494191710000017002132236929294217_);}
	.st7{fill-rule:evenodd;clip-rule:evenodd;fill:url(#SVGID_00000145059389334698675970000001393649942678772615_);}
	.st8{fill-rule:evenodd;clip-rule:evenodd;fill:url(#SVGID_00000145038280212791855270000003761464892756788404_);}
	.st9{fill-rule:evenodd;clip-rule:evenodd;fill:url(#SVGID_00000129897541514202490580000016847476185814039446_);}
	.st10{fill:url(#SVGID_00000119106253885591393700000007145754206752675250_);}
	.st11{fill:url(#SVGID_00000164486218877798967390000003778799151691352200_);}
	.st12{fill:url(#SVGID_00000120549199436725953780000007955439170943066757_);}
	.st13{fill-rule:evenodd;clip-rule:evenodd;fill:url(#SVGID_00000045611994080408751200000015712950403820753828_);}
</style>
<g>
	<path class="st0" d="M508.32,1018.78c280.64,0,509.03-229.1,509.03-509.75C1017.34,228.39,788.96,0,508.32,0
		C227.66,0,0,228.39,0,509.03C0,789.68,227.66,1018.78,508.32,1018.78"/>
	<path class="st1" d="M508.67,852.94c187.55,0,341.15-153.6,341.15-341.15c0-187.56-153.61-341.15-341.15-341.15
		c-187.56,0-341.15,153.6-341.15,341.15C167.52,699.34,321.11,852.94,508.67,852.94"/>
	<g>
		<path class="st2" d="M462.72,815.79c-0.34,0-2.4-0.15-3.03-0.27c-0.77-0.17-0.83-0.18-0.96-1.53c-0.19-2.15-0.19-6.33-0.19-11.17
			v-9.28c0-6.22,0.16-10.65,0.23-12.31l0.02-0.74c0-2.33-1.69-2.39-1.89-2.39c-0.81,0-1.51,0.48-2.09,0.91
			c-1.67,1.21-10.92,7.32-11.5,7.67c-0.73,0.44-1.15,1.11-1.15,1.85c0,1.02,0.78,1.89,1.69,1.89c0.47,0,0.9-0.17,1.21-0.3
			c0.33-0.14,0.88-0.4,1.53-0.7c0.81-0.38,2.31-1.09,3.2-1.43v0.29l0.02,2.56c0.02,1.19,0.03,2.52,0.03,4.02v7.98
			c0,4.85,0,9.03-0.19,11.17c-0.12,1.29-0.2,1.3-0.96,1.47c-0.81,0.17-3.23,0.33-3.74,0.33c-0.99,0-1.74,0.79-1.74,1.84
			c0,0.3,0.1,1.79,2.14,1.79c2.02,0,4.44-0.06,6.24-0.1c1.07-0.02,1.92-0.05,2.34-0.05c0.5,0,1.25,0.02,2.19,0.05
			c1.62,0.05,3.78,0.1,6.19,0.1c2.04,0,2.14-1.49,2.14-1.79C464.46,816.58,463.71,815.79,462.72,815.79"/>
		<path class="st2" d="M488.03,778.09c-8.36,0-14.19,5.36-14.19,13.03c0,4.43,3.08,11.03,11.58,11.03c2.87,0,5.48-0.84,7.1-2.25
			c-1.91,8.54-7.99,14.37-11.95,16.78c-0.3,0.24-1.1,0.88-1.1,1.9c0,0.98,0.84,1.84,1.79,1.84c0.46,0,1.01-0.05,1.47-0.32
			c7.17-3.35,19.29-12.81,19.29-27.02C502.02,784.12,496.4,778.09,488.03,778.09 M490.69,796.61c-0.12,0.08-0.26,0.17-0.36,0.23
			c-0.7,0.32-1.63,0.48-2.85,0.48c-1.13,0-5.34-1.38-5.34-8.15c0-3.61,1.93-6.14,4.68-6.14c3.13,0,6.29,3.54,6.29,11.46
			c0,0.71-0.03,1.41-0.09,2.1C492.35,796,491.25,796.24,490.69,796.61"/>
		<path class="st2" d="M521.04,789.53l0.43-3.69h7.94c3.07,0,3.07,0.64,3.07,1.37c0,1.62,1.1,2.05,1.74,2.05
			c0.95,0,1.71-0.7,1.88-1.73c0.62-3.92,0.63-6.07,0.67-6.64c0.14-1.98-0.94-1.99-1.82-1.97c-0.23,0.01-1.93,0.03-3.83,0.03h-12.3
			c-1.95,0-2.24,1.42-2.29,1.87l-1.16,13.27c-0.03,0.48,0,2.09,2.05,2.43c3,0.42,11.54,3.25,11.54,10.57c0,5.79-3.74,7.85-6.94,7.85
			c-3.8,0-5.49-1.66-5.49-5.39c0-2.09-1.49-2.19-1.79-2.19c-0.67,0-1.54,0.35-1.88,2.04c-0.24,1.54-0.22,4.01-0.22,5.81l0,0.71
			c0,1.19,0.12,2.33,1.67,3.15l0.05,0.02c1.35,0.65,3.33,1.03,5.29,1.03c12.27,0,17.85-8.01,17.85-15.44
			C537.52,795.9,529.23,791.16,521.04,789.53"/>
		<path class="st2" d="M568.13,795.68c2.58-1.78,5.44-4.87,5.44-8.82c0-0.9-0.36-8.77-12.73-8.77c-3.37,0-6.54,0.65-9.45,1.93
			c-1.05,0.49-1.48,1.12-1.48,2.17c0,1.26,0.16,3.59,0.36,5.14c0.16,1.79,1.37,1.92,1.74,1.92c0.67,0,1.79-0.44,1.79-2.1
			c0-2.23,2.48-3.98,5.64-3.98c4.38,0,5.34,3.49,5.34,4.84c0,5.91-6.64,7.3-6.68,7.31c-1.48,0.26-2.01,1.22-2.01,2.02
			c0,1.65,1.69,1.97,2.7,2.17c0.3,0.05,7.38,1.43,7.38,8.22c0,6.54-5.41,7.24-7.74,7.24c-4.25,0-6.19-2.77-6.19-5.34
			c0-1.34-0.91-2.04-1.79-2.04c-0.7,0-1.59,0.36-1.87,2.05c-0.24,1.32-0.37,4.34-0.37,6.52c0,1.17,0.43,1.91,1.5,2.55l0.07,0.04
			c1.58,0.82,4.8,1.36,8.2,1.36c9.97,0,17.2-5.99,17.2-14.24C575.18,800.68,571.81,797.37,568.13,795.68"/>
	</g>
	<path class="st2" d="M726.76,758.03c0-0.02-20.82-62.21-20.98-62.67c-0.58-0.14-1.19-0.28-1.78-0.41
		c-26.38-8.9-58.46-15.64-84.61-15.64c-13.51-0.56-30.25,0.99-47.63,3.86c-2.27,4.88-5.02,9.47-8.16,13.69
		c19.61-3.71,39.74-6.14,55.78-6.14c23.6,0.57,51.29,5.1,77.35,13.25c2.43,7.62,11.98,35.55,11.98,35.56
		c-26.66-9.16-59.51-16.15-86.16-16.15c-34.8-1.44-76.32,6.47-113.89,20.93c-37.57-14.46-79.09-22.37-113.89-20.93
		c-26.66,0-59.51,6.99-86.16,16.15c0-0.01,9.55-27.94,11.98-35.56c26.06-8.15,53.74-12.68,77.35-13.25
		c16.04,0,36.18,2.43,55.78,6.14c-3.14-4.22-5.89-8.81-8.16-13.69c-17.38-2.86-34.12-4.42-47.63-3.86
		c-26.15,0-58.24,6.73-84.61,15.64c-0.59,0.14-1.19,0.28-1.78,0.41c-0.15,0.46-20.97,62.65-20.97,62.67
		c32.75-14.47,72.23-22.47,104.2-23.25c31.23,0,67.81,6.42,95.98,16.32c-0.78,3.8-2.29,6.87-3.07,10.67h41.94
		c-0.77-3.8-2.29-6.87-3.06-10.67c28.17-9.89,64.75-16.32,95.99-16.32C654.53,735.56,694.01,743.55,726.76,758.03"/>
	<g>
		<path class="st2" d="M508.67,701.49c-12.82,0-30.49-10.16-37.98-28.97l-11.6,4.62c9.63,24.19,32.24,36.85,49.59,36.85
			c16.84,0,39.19-12.62,49.34-36.74l-11.51-4.84C538.55,691.3,521.08,701.49,508.67,701.49"/>
		<path class="st2" d="M508.67,210.76c15.23,0,30.96,15.06,44.3,42.41l11.22-5.47c-15.77-32.34-34.97-49.43-55.52-49.43
			c-20.51,0-39.67,17.02-55.43,49.22l11.22,5.49C477.78,225.75,493.48,210.76,508.67,210.76"/>
		<path class="st2" d="M458.21,267.09l-11.58-4.67c-9.44,23.42-16.92,51.66-22.25,83.89h12.68
			C442.15,316.21,449.43,288.86,458.21,267.09"/>
		<path class="st2" d="M317.33,634.84c-8.38-14.85,0.75-35.88,9.89-50.92l-10.67-6.49c-15.59,25.65-19.08,47.62-10.09,63.54
			c8.95,15.86,29.38,24.2,59.19,24.2c0.97,0,1.96-0.01,2.95-0.03l-0.22-12.48C349.9,653,325.99,650.18,317.33,634.84"/>
		<path class="st2" d="M657.55,525.35c-33.15-32.21-78.06-65.18-127.97-93.35c-2.51-1.42-5.02-2.81-7.53-4.19
			c21.84-11.09,43.66-20.77,64.75-28.78c1.5,18.59,2.27,37.67,2.27,57.1c0,2.8-0.02,5.59-0.05,8.36l12.48,0.14
			c0.03-2.82,0.05-5.66,0.05-8.5c0-20.96-0.87-41.56-2.59-61.57c31.84-11.27,61.6-18.51,86.6-20.72l-1.1-12.44
			c-25.59,2.27-55.16,9.25-86.75,20.23c-0.78-7.35-1.66-14.63-2.68-21.8c-0.05-0.34-0.1-0.67-0.15-1.02h-12.63
			c0.14,0.93,0.29,1.84,0.42,2.77c1.13,8.01,2.1,16.16,2.94,24.41c-24.89,9.3-50.84,20.96-76.95,34.64
			c-26.12-13.69-52.07-25.34-76.95-34.64c0.82-8.18,1.79-16.26,2.9-24.19c0.14-1.01,0.31-1.99,0.45-2.99h-12.63
			c-0.06,0.42-0.13,0.83-0.19,1.24c-1,7.09-1.87,14.3-2.64,21.57c-31.59-10.98-61.16-17.96-86.75-20.23l-1.1,12.44
			c25,2.22,54.76,9.45,86.6,20.72c-1.72,20.01-2.59,40.61-2.59,61.57h12.49c0-19.43,0.78-38.51,2.27-57.1
			c21.09,8.01,42.92,17.69,64.76,28.78c-2.51,1.38-5.02,2.77-7.53,4.19c-50.43,28.46-95.75,61.82-129,94.35
			c-31.68-24.97-58.07-51.34-74.35-74.31l-10.19,7.22c16.76,23.65,43.6,50.59,75.7,76.02c-10.06,10.5-18.8,20.87-25.93,30.89
			l10.17,7.24c30.1-42.27,89.81-91.07,159.74-130.53c4.91-2.77,9.83-5.46,14.77-8.1c4.93,2.64,9.86,5.33,14.77,8.1
			c69.92,39.46,129.64,88.25,159.73,130.53l10.17-7.24c-7.37-10.35-16.44-21.06-26.92-31.91c35.45-27.98,61.26-53.21,76.69-74.99
			l-10.19-7.22C718.01,473.07,692.66,497.74,657.55,525.35"/>
		<path class="st2" d="M580.29,346.32h12.67c-5.31-32.15-12.77-60.32-22.18-83.72l-11.58,4.66
			C567.95,289,575.21,316.29,580.29,346.32"/>
		<path class="st2" d="M760.38,384.82c-9.18-16.27-30.48-24.69-61.54-24.19l0.18,12.49c18.35-0.24,41.9,2.62,50.49,17.84
			c8.35,14.8-0.71,35.77-9.79,50.75l10.68,6.47C765.89,422.61,769.35,400.7,760.38,384.82"/>
		<path class="st2" d="M592.93,586.14c19.84-10.84,40.31-22.04,55.34-35.56c-2.78-2.96-5.7-5.95-8.72-8.95
			c-12.74,11.34-30.25,21.29-47.7,30.86c1.41-7.92,2.68-16.05,3.8-24.42l-12.38-1.66c-1.57,11.76-3.44,23.06-5.57,33.85
			c-1.6,0.88-3.21,1.77-4.77,2.65c-21.36,12.05-43.01,22.85-64.26,32.15c-21.25-9.3-42.91-20.1-64.26-32.15
			c-1.54-0.87-3.13-1.75-4.71-2.62c-2.89-14.4-5.27-29.69-7.1-45.74l-12.41,1.41c1.44,12.65,3.23,24.85,5.33,36.54
			c-17.25-9.46-34.56-19.29-47.27-30.46c-3.02,3.01-5.94,5.99-8.71,8.96c14.99,13.32,35.24,24.4,54.87,35.13
			c1.43,0.79,2.84,1.56,4.25,2.33c3.96,18.53,8.76,35.61,14.34,50.87c-22.5,6.67-43.49,11.02-61.89,12.64l1.1,12.44
			c19.73-1.73,41.85-6.28,65.43-13.31c2.17,5.18,4.44,10.14,6.8,14.82l11.14-5.64c-2.07-4.09-4.06-8.4-5.98-12.91
			c15.87-5.18,32.3-11.41,49.06-18.6c16.91,7.26,33.5,13.54,49.5,18.74c-1.87,4.48-3.8,8.78-5.81,12.82l11.18,5.56
			c2.29-4.6,4.48-9.51,6.59-14.65c23.42,6.95,45.39,11.45,65,13.18l1.09-12.44c-18.31-1.61-39.19-5.92-61.57-12.54
			c5.46-15.24,10.19-32.35,14.11-51.01C590.15,587.66,591.53,586.91,592.93,586.14 M454.95,635.63
			c-4.39-11.89-8.29-24.95-11.67-39.04c16.59,9.2,33.19,17.61,49.56,25.15C479.94,626.98,467.26,631.62,454.95,635.63 M524.5,621.73
			c16.42-7.55,33.06-15.99,49.7-25.22c-3.34,14.2-7.17,27.33-11.46,39.22C550.32,631.71,537.52,627.02,524.5,621.73"/>
		<path class="st2" d="M690.12,583.92c9.13,15.04,18.26,36.07,9.89,50.91c-8.66,15.34-32.54,18.17-51.05,17.83l-0.22,12.49
			c0.99,0.02,1.97,0.03,2.94,0.03c29.81,0,50.25-8.34,59.2-24.2c8.99-15.92,5.5-37.89-10.09-63.54L690.12,583.92z"/>
		<path class="st2" d="M267.83,390.96c8.59-15.22,32.09-18.09,50.49-17.84l0.18-12.49c-31.06-0.49-52.36,7.92-61.54,24.19
			c-8.96,15.88-5.51,37.8,9.98,63.36l10.68-6.47C268.54,426.73,259.48,405.77,267.83,390.96"/>
	</g>
	<g>
		<path class="st3" d="M70.43,464.82l30.35,5.58c2.51,0.46,2.55,0.81,2.58,1.1c0.03,0.41,0,0.65-0.08,1.11
			c-0.13,0.8-0.03,1.44,0.32,1.92c0.43,0.6,1.09,0.73,1.21,0.75c0.1,0.02,0.21,0.03,0.32,0.03c0.72,0,1.35-0.41,1.7-1.11
			c0.19-0.38,0.27-0.8,0.33-1.2c0.27-1.58,0.43-2.94,0.53-3.84l0.11-0.93c0.06-0.36,0.17-0.9,0.32-1.62
			c0.24-1.17,0.54-2.63,0.8-4.19c0.13-0.79,0.22-1.62-0.28-2.32c-0.29-0.4-0.71-0.66-1.19-0.74l-0.88-0.06h-0.02l-0.51,0.36
			c-0.63,0.45-0.81,1.16-0.9,1.65l0,0.03c-0.08,0.49-0.26,1.51-0.5,1.9c-0.17,0.27-0.39,0.64-3.12,0.23l-18.18-2.6
			c0.4-0.27,0.82-0.56,1.26-0.86c3.05-2.07,6.48-4.41,8.65-5.96c8.03-5.79,16.91-11.69,17.9-12.34l0.55-0.36
			c0.89-0.57,1.73-1.11,1.91-2.21c0.13-0.79-0.06-2.18-2.75-2.62l-28.5-5.18c-1.02-0.18-4.11-0.73-4.49-1.19
			c-0.05-0.43-0.01-1.07,0.11-1.78c0.36-2.17-1.31-2.53-1.5-2.57l-0.91-0.04h-0.02l-0.51,0.36c-0.74,0.53-0.88,1.43-0.96,1.91
			c-0.29,1.73-0.49,3.38-0.61,4.37l-0.01,0.06c-0.05,0.39-0.08,0.67-0.1,0.81c-0.05,0.32-0.14,0.76-0.26,1.36l-0.04,0.2
			c-0.21,1.06-0.51,2.51-0.82,4.39c-0.4,2.34,0.94,2.83,1.53,2.93l0.83,0.05h0.02l0.51-0.36c0.64-0.45,0.82-1.18,0.9-1.69
			c0.11-0.65,0.27-1.39,0.59-1.97c0.01,0,0.48-0.55,4.11-0.04l16.5,2.3c-4.33,2.82-7.9,5.25-10.91,7.42
			c-2.32,1.67-4.87,3.49-7.35,5.25l-0.55,0.39c-3.46,2.46-6.73,4.79-8.66,6.24c-0.88,0.64-1.75,1.35-1.93,2.42
			c-0.09,0.54,0.02,1.07,0.33,1.5C68.68,464.44,69.6,464.68,70.43,464.82"/>
		<path class="st3" d="M66.37,514.83l0.01,0.01l0.62,0.04c0.03,0,0.07,0,0.11,0c0.42,0,1.79-0.14,1.93-2.03
			c0.03-0.54,0.12-1.16,0.26-1.68c0.13-0.41,0.46-1.51,4.66-2.97c4.14-1.44,11.97-3.99,19.64-6.48l1.13-0.37
			c4.99-1.62,8.93-2.91,10.05-3.31c1.07-0.39,2.54-0.91,2.64-2.44c0.1-1.57-1.33-2.27-2.72-2.96l-29.86-14.24
			c-2.45-1.17-3.18-1.88-3.26-3.16c-0.02-0.33-0.03-0.93,0-1.34c0.01-0.24,0.06-0.99-0.47-1.6c-0.32-0.36-0.78-0.58-1.29-0.61
			l-0.92,0.05h-0.02l-0.47,0.41c-0.66,0.57-0.72,1.43-0.75,1.85c-0.12,1.82-0.17,3.72-0.19,4.74v0.04
			c-0.02,0.48-0.02,0.83-0.04,0.99c-0.04,0.74-0.14,1.65-0.23,2.53l0,0.03c-0.09,0.82-0.19,1.77-0.25,2.61
			c-0.13,2.22,1.51,2.44,1.84,2.46l0.86-0.02h0.02l0.47-0.41c0.62-0.54,0.67-1.31,0.69-1.68l0.05-0.73
			c0.01-0.24,0.04-0.37,0.06-0.44c0.38,0.04,1.34,0.3,2.37,0.79l4.14,1.88l-0.3,10.94l-7.52,2.31c-0.4-0.93-1.23-1.07-1.58-1.09
			c-0.07,0-0.13-0.01-0.19-0.01c-1.58,0-1.77,1.62-1.89,2.7l-0.01,0.12c-0.36,4.03-0.6,7.69-0.7,9.25c-0.11,1.72-0.1,2.6,0.5,3.28
			L66.37,514.83z M82.57,496.08l0.19-6.86l9.16,4.12L82.57,496.08z"/>
		<path class="st3" d="M67.68,539.76c0.7-0.01,1.89-0.51,1.88-2.33c-0.02-0.68,0.06-1.67,0.14-2.29c0.03-0.32,0.05-0.47,1.31-0.62
			c2-0.26,5.83-0.32,10.29-0.39l18.5-0.27l-0.04,4.62c-0.02,2.89-0.69,4.27-1.3,4.32l-0.5,0.06c-1.99,0.16-2.38,1.22-2.36,2.09
			c0.01,0.52,0.26,1.73,2.33,1.91c0.51-0.02,1.37,0,2.29,0.02l0.75,0.01c1.06,0.02,1.84,0.03,2.32,0.03h0.31
			c0.63-0.01,1.41-0.02,2.01-0.64l0.51-0.69l-0.01-0.62c0-0.26-0.06-0.5-0.13-0.81c-0.13-0.61-0.39-1.73-0.42-3.87l-0.29-19.36
			c-0.03-1.5,0.04-3.33,0.17-4.77c0.03-0.5,0.16-0.81,0.28-1.1c0.12-0.28,0.29-0.67,0.29-1.14c-0.02-1.05-0.73-1.73-2.11-2.02
			c-0.22-0.05-4.93-0.86-6-0.98c-0.77,0.01-1.36,0.22-1.75,0.63c-0.5,0.51-0.52,1.18-0.51,1.37c0,0.37,0.15,1.6,1.75,1.96
			c0.15,0.04,0.59,0.17,1.24,0.6c0.45,0.3,0.69,0.9,0.82,3.53l0.24,5.74l-18.5,0.27l-0.24,0c-4.32,0.07-8.06,0.12-10.02-0.09
			c-0.9-0.08-1.26-0.2-1.39-0.26c-0.11-0.47-0.17-0.91-0.17-1.39c0-0.29-0.02-1.15-0.64-1.76l-0.68-0.52l-0.62,0.01
			c-0.2,0-2,0.11-1.96,2.52c0.02,1.11,0.08,2.58,0.14,3.87l0.02,0.37c0.04,0.81,0.07,1.51,0.07,1.92c0.01,0.45,0,1.13-0.01,1.91
			l-0.01,0.52c-0.02,1.49-0.05,3.35-0.02,5.25c0.03,1.91,1.28,2.42,2.02,2.42H67.68z"/>
		<path class="st3" d="M73.67,566.25c2.06-0.38,5.98-0.72,10.52-1.12l8.57-0.76c7.32-0.65,8.74-0.77,10.26-0.81c0.1,0,0.18,0,0.27,0
			c1.03,0,1.08,0.17,1.15,0.45c0.12,0.45,0.19,0.77,0.23,1.18c0.05,0.48,0.17,1.19,0.77,1.68l0.78,0.47l0.02,0.01l0.61-0.05
			c0.45-0.04,1.88-0.34,1.68-2.7c-0.09-1.07-0.27-2.48-0.41-3.61c-0.12-1-0.22-1.8-0.27-2.31c-0.04-0.55-0.09-1.37-0.14-2.24
			l-0.03-0.64c-0.07-1.24-0.15-2.52-0.24-3.48c-0.14-1.69-0.81-2.51-2.04-2.51h-0.1c-0.08,0.01-0.83,0.09-1.33,0.68
			c-0.36,0.43-0.52,1.03-0.45,1.79c0.05,0.56,0.04,1.04-0.03,1.43c-0.02,0.16-0.05,0.43-1.31,0.61c-1.5,0.22-2.8,0.34-10.02,0.98
			l-8.96,0.79l-1.25,0.11c-3.9,0.35-7.28,0.65-9.06,0.57c-0.98-0.02-1.14-0.15-1.15-0.15c-0.1-0.3-0.23-0.77-0.29-1.42
			c-0.13-1.35-0.86-2.1-2.06-2.11h-0.04c-0.08,0.01-0.78,0.08-1.28,0.67c-0.4,0.48-0.56,1.14-0.49,1.99
			c0.1,1.08,0.27,2.49,0.42,3.74l0.03,0.21c0.14,1.1,0.22,1.77,0.25,2.17c0.04,0.46,0.08,1.13,0.13,1.98l0.03,0.46
			c0.09,1.47,0.2,3.29,0.36,5.18c0.15,1.67,1.2,2.26,2.05,2.26c0.05,0,0.11,0,0.17-0.01l0.81-0.16l0.02,0l0.4-0.48
			c0.38-0.45,0.53-1.05,0.46-1.81c-0.06-0.69-0.05-1.7-0.02-2.32C72.71,566.52,72.72,566.44,73.67,566.25"/>
		<path class="st3" d="M94.71,616.95c1.4,0,2.82-0.12,4.2-0.38c5.81-1.02,10.38-3.85,13.2-8.19c2.82-4.34,3.73-9.94,2.63-16.19
			c-1.12-6.37-4.09-11.4-8.6-14.56c-4.34-3.04-10.01-4.22-15.54-3.25c-5.02,0.88-9.67,3.53-12.75,7.27
			c-2.63,3.18-5.44,8.75-3.95,17.22c1.1,6.29,4.19,11.32,8.93,14.54C86.24,615.73,90.35,616.95,94.71,616.95 M79.65,599.95
			c-0.69-3.96,0.33-7.59,2.96-10.51c2.56-2.85,6.54-4.87,11.2-5.69c1.62-0.29,3.14-0.43,4.51-0.43c7.79,0,10.23,4.57,10.91,8.41
			c0.61,3.47-0.32,6.89-2.61,9.62c-2.48,2.96-6.35,4.98-11.18,5.83c-5.58,0.98-9.81,0.4-12.58-1.75
			C80.59,603.67,79.88,601.24,79.65,599.95"/>
		<path class="st3" d="M124.92,655.47c2.45-0.69,2.65-0.39,2.79-0.14c0.21,0.35,0.29,0.61,0.42,1.03c0.09,0.29,0.35,1.16,1.15,1.6
			l0.79,0.31l0.02,0.01l0.6-0.18c0.69-0.21,1.77-0.89,1.11-3.08c-0.45-1.5-0.88-2.75-1.24-3.78c-0.13-0.36-0.22-0.62-0.26-0.77
			c-0.1-0.35-0.24-0.86-0.4-1.51l-0.03-0.1c-0.26-1.01-0.65-2.54-1.13-4.11c-0.14-0.48-0.28-0.87-0.49-1.21
			c-0.6-0.97-1.51-1.1-2.17-0.89l-0.81,0.34l-0.02,0.01l-0.3,0.55c-0.42,0.76-0.17,1.6-0.09,1.87c0.3,0.97,0.44,1.64,0.41,1.98
			c-0.03,0.31-0.08,0.74-2.71,1.57l-17.5,5.65c0.23-0.4,0.47-0.83,0.73-1.27l0.06-0.1c1.71-3,3.84-6.73,5.13-9.11
			c4.1-7.64,8.78-15.73,10.61-18.85l0.41-0.7c0.55-0.9,1.07-1.75,0.75-2.81l-0.39-0.86l-0.54-0.3c-0.85-0.45-1.89-0.24-2.7,0
			l-27.9,7.86l-0.06,0.02c-1.1,0.31-3.99,1.13-4.51,0.9c-0.23-0.38-0.49-0.99-0.68-1.66c-0.59-1.96-2.04-1.75-2.49-1.64
			c-0.71,0.21-1.81,0.89-1.17,3.05c0.52,1.73,1.07,3.32,1.4,4.28l0.26,0.74c0.07,0.24,0.16,0.58,0.27,1l0.07,0.27
			c0.28,1.09,0.66,2.59,1.26,4.59c0.2,0.67,0.5,1.42,1.23,1.81c0.44,0.23,0.94,0.29,1.43,0.14l0.77-0.31l0.02-0.01l0.3-0.55
			c0.36-0.68,0.23-1.38,0.07-1.92c-0.16-0.54-0.38-1.34-0.34-2.03c0,0,0.21-0.7,3.68-1.84l15.85-5.18
			c-2.66,4.45-4.81,8.21-6.56,11.48c-1.41,2.64-2.99,5.55-4.39,8.12c-2.22,4.08-4.15,7.64-5.27,9.83c-0.4,0.76-1.01,1.9-0.67,3.05
			c0.16,0.53,0.65,1.43,2.06,1.43c0.42,0,0.9-0.08,1.43-0.24L124.92,655.47z"/>
		<path class="st3" d="M133.51,716.57l7.77-4c6.8-3.5,7.82-4.02,9.19-4.62c1.19-0.52,1.28-0.4,1.49-0.14c0.3,0.41,0.66,1,0.87,1.41
			c0.96,1.86,2.29,1.49,2.82,1.24l0.74-0.48l0.19-0.6c0.24-0.76-0.04-1.47-0.35-2.08c-0.45-0.86-1.11-2.06-1.75-3.22l-0.19-0.34
			c-0.54-0.98-1-1.82-1.24-2.28c-0.25-0.5-0.63-1.29-1.06-2.18c-0.56-1.18-1.26-2.65-1.88-3.84c-1.02-2-2.26-1.75-2.92-1.42
			l-0.75,0.5l-0.19,0.6c-0.26,0.82,0.13,1.58,0.28,1.88c0.34,0.66,0.45,1.04,0.5,1.21c0.19,0.73,0.22,0.82-0.84,1.45
			c-1.27,0.76-2.44,1.36-8.92,4.7l-7.83,4.03c-3.77,1.94-7.34,3.78-9.18,4.47c-0.87,0.3-1.3,0.41-1.39,0.41
			c-0.31-0.36-0.57-0.75-0.79-1.19c-0.95-1.83-2.34-1.36-2.75-1.16c-0.12,0.06-0.71,0.4-0.94,1.12c-0.18,0.58-0.08,1.26,0.31,2
			c0.47,0.94,1.15,2.15,1.74,3.21l0.29,0.53c0.39,0.7,0.73,1.31,0.92,1.67c0.72,1.4,1.33,2.7,2.04,4.19l0.14,0.3
			c1.04,2.2,2.22,4.7,4.07,8.3c0.94,1.83,1.68,3.03,3.34,3.03c0.28,0,0.59-0.03,0.9-0.1c1.62-0.34,5.14-1.76,5.71-2.06
			c1.87-0.95,1.48-2.25,1.22-2.76c-0.19-0.38-0.96-1.55-2.79-0.87c-0.64,0.25-1.78,0.3-2.23,0.17c-1.05-0.29-1.72-1.4-2.91-3.69
			c-1.65-3.23-1.76-4.16-1.64-4.66C125.88,720.51,129.58,718.6,133.51,716.57"/>
		<path class="st3" d="M179.31,770.26l0.27-0.19c5.58-3.86,6.58-4.55,7.84-5.31c1.1-0.67,1.23-0.55,1.48-0.31l0.05,0.05
			c0.29,0.31,0.46,0.48,0.69,0.82c0.33,0.47,0.8,1.03,1.58,1.17l0.86,0.04h0.02l0.52-0.36c0.48-0.34,1.46-1.33,0.15-3.2
			c-0.54-0.78-1.34-1.88-2.43-3.34l-0.3-0.4c-0.27-0.36-0.47-0.62-0.54-0.73l-0.07-0.1c-1.47-2.33-2.46-3.81-3.03-4.63
			c-0.38-0.56-0.88-1.15-1.67-1.3l-0.85-0.05h-0.02l-0.51,0.35c-0.62,0.43-0.92,1.12-0.8,1.85c0.07,0.48,0.31,0.87,0.53,1.19
			c0.33,0.47,0.65,1.03,0.73,1.24c0.29,0.7,0.33,0.79-0.64,1.55c-1.1,0.87-2.14,1.59-7.13,5.05l-6.3,4.36
			c-4.18,2.9-7.37,4.9-10.47,4.33c-2.76-0.5-4.45-2.56-5.05-3.43c-0.88-1.26-1.76-2.87-1.56-5.19c0.2-2.52,1.48-4.99,7.08-8.87
			l6.54-4.52c5.27-3.65,6.37-4.41,7.62-5.15c1.11-0.68,1.22-0.56,1.45-0.34l0.05,0.06c0.31,0.31,0.47,0.49,0.72,0.84
			c0.28,0.4,0.74,0.96,1.5,1.09c0.5,0.09,0.98-0.02,1.4-0.31l0.65-0.55l0.02-0.01l0.12-0.62c0.15-0.78-0.22-1.46-0.64-2.07
			c-0.61-0.88-1.52-2.1-2.15-2.95l-0.38-0.53c-0.42-0.57-0.79-1.07-1.01-1.39c-0.27-0.39-0.63-0.94-1.05-1.58l-0.34-0.51
			c-0.79-1.21-1.7-2.62-2.57-3.87c-0.43-0.61-0.92-1.19-1.71-1.32l-0.83-0.04h-0.02l-0.51,0.34c-0.26,0.19-1.52,1.21-0.27,3.04
			c0.43,0.62,0.74,1.18,0.81,1.38c0.29,0.68,0.33,0.79-0.64,1.55c-1.21,0.95-2.38,1.77-8.4,5.93l-5.88,4.07
			c-5.45,3.77-8.26,7.59-8.82,12.01c-0.64,4.94,1.62,8.96,3.67,11.91c1.76,2.54,4.43,5.63,9.54,6.97c1.02,0.26,2.08,0.4,3.14,0.4
			c4.75,0,9.17-2.62,12.87-5.18L179.31,770.26z"/>
		<path class="st3" d="M219.59,798.58c0.34,0.24,0.5,0.41,0.8,0.76c1.46,1.69,2.8,0.74,3.05,0.53c0.54-0.48,1.24-1.55-0.27-3.27
			c-1.06-1.22-2.01-2.22-2.64-2.87l-0.26-0.28c-0.16-0.16-0.28-0.29-0.35-0.38c-0.24-0.28-0.6-0.73-1.02-1.24
			c-0.76-0.94-1.71-2.12-2.76-3.33c-0.53-0.6-1.12-1.2-1.96-1.26c-0.5-0.04-0.93,0.1-1.33,0.45l-0.6,0.65l-0.02,0.02l-0.05,0.62
			c-0.05,0.75,0.34,1.32,0.74,1.78c0.29,0.35,0.98,1.15,1.14,1.58c0.11,0.33,0.23,0.72-1.82,2.55l-13.6,12.37
			c0.02-0.2,0.04-0.41,0.06-0.62c0.03-0.31,0.06-0.63,0.1-0.96l0.03-0.32c0.31-3.32,0.7-7.47,0.88-10.08
			c0.63-9.53,1.72-20.16,1.9-21.72l0.07-0.66c0.12-1.03,0.24-2.01-0.49-2.85c-0.64-0.73-1.83-1.24-3.78,0.46l-22.15,18.68
			l-0.11,0.09c-0.93,0.79-3.08,2.61-3.67,2.61h0c-0.36-0.23-0.82-0.66-1.29-1.21c-0.33-0.38-0.86-0.88-1.63-0.94l-0.83,0.04l-0.02,0
			l-0.47,0.4c-0.57,0.49-1.29,1.56,0.19,3.27c1.23,1.42,2.45,2.69,3.03,3.3l0.24,0.25c0.15,0.16,0.26,0.27,0.31,0.34
			c0.21,0.24,0.5,0.59,0.86,1.05c0.6,0.76,1.62,2.02,3.01,3.63c0.47,0.53,1.06,1.09,1.88,1.14c0.53,0,1.01-0.16,1.35-0.46l0.57-0.61
			l0.02-0.02l0.05-0.62c0.05-0.76-0.36-1.35-0.73-1.77c-0.41-0.47-0.9-1.08-1.15-1.7c-0.01-0.02-0.09-0.74,2.59-3.19l12.3-11.28
			c-0.59,5.13-1,9.44-1.24,13.17c-0.16,2.47-0.36,5.17-0.54,7.78l-0.14,1.97c-0.31,4.22-0.6,8.19-0.7,10.58
			c-0.08,1.04-0.1,2.21,0.65,3.06c0.35,0.41,0.83,0.66,1.36,0.7c0.05,0,0.1,0,0.15,0c0.85,0,1.58-0.52,2.17-1.04l23.65-19.86
			C219.05,798.22,219.35,798.42,219.59,798.58"/>
		<path class="st3" d="M233.36,814.53c0.95-0.89,1.1-0.79,1.36-0.62c0.38,0.28,0.66,0.48,0.97,0.77c0.52,0.51,1.07,0.76,1.62,0.76
			h0.03c0.77-0.01,1.31-0.53,1.4-0.63c0.39-0.41,1.1-1.53-0.52-3.11c-0.73-0.71-1.71-1.6-2.65-2.45l-0.14-0.13
			c-0.67-0.6-1.24-1.12-1.6-1.48c-0.45-0.44-1.14-1.14-1.85-1.88l-0.1-0.1c-0.88-0.91-1.8-1.86-2.53-2.55
			c-0.52-0.5-1.16-1-2.01-1.03c-0.47,0.01-0.91,0.21-1.23,0.54l-0.56,0.74l-0.01,0.02l0.01,0.63c0.02,0.78,0.48,1.31,0.83,1.64
			c0.41,0.4,0.71,0.76,0.91,1.11c0.08,0.12,0.23,0.35-0.6,1.32c-0.95,1.12-1.91,2.11-6.53,6.9l-6.6,6.82c-3,3.1-5.83,6.03-7.4,7.31
			c-0.76,0.65-0.96,0.63-0.96,0.63c-0.41-0.25-0.78-0.54-1.13-0.88c-0.34-0.33-1.04-0.79-1.64-0.79c-0.02,0-0.05,0-0.07,0
			c-0.48,0.02-0.94,0.22-1.26,0.56l-0.54,0.71l-0.01,0.02l0.01,0.62c0,0.63,0.32,1.24,0.94,1.83c0.78,0.76,1.83,1.71,2.85,2.63
			l0.25,0.23c0.6,0.55,1.12,1.02,1.43,1.32c0.38,0.36,0.94,0.93,1.59,1.6c1.17,1.2,2.44,2.49,3.8,3.81
			c0.57,0.55,1.17,0.83,1.77,0.83c0.51,0,1.03-0.22,1.39-0.59c0.48-0.5,0.93-1.69-0.34-2.94c-0.49-0.48-1.14-1.22-1.52-1.72
			c-0.29-0.37-0.34-0.43,0.26-1.21c1.31-1.63,4.13-4.55,7.12-7.64l6.07-6.27l0.2-0.2C231.34,816.48,232.24,815.55,233.36,814.53"/>
		<path class="st3" d="M265.77,844.18c1.93-1.02,3.25-1.53,3.92-1.53c0.03,0,0.06,0,0.09,0c0.6,0.06,1.14,0.5,1.42,0.74
			c0.52,0.43,1.04,0.64,1.55,0.64c0.07,0,0.13,0,0.19-0.01c0.76-0.08,1.22-0.63,1.27-0.7c0.29-0.35,1.08-1.62-0.74-3.12
			c-0.64-0.51-1.49-1.16-2.31-1.77l-0.24-0.18c-0.46-0.35-0.86-0.65-1.09-0.83c-0.12-0.1-0.3-0.26-0.53-0.47l-0.18-0.16
			c-0.68-0.62-1.83-1.65-3.15-2.74c-0.62-0.52-1.25-0.99-2.08-0.99c-0.05,0-0.11,0-0.17,0l-0.85,0.2l-0.02,0l-0.4,0.49
			c-0.5,0.61-0.55,1.43-0.14,2.13c0.21,0.36,0.51,0.62,0.74,0.81c0.3,0.24,0.55,0.48,0.75,0.7c-0.21,0.16-0.48,0.34-0.79,0.51
			c-1.74,1.03-7.61,4.26-13.29,7.39l-1.64,0.91c-1.71,0.94-3.34,1.84-4.76,2.62l6.42-19.06c0.4-1.23,0.7-2,0.88-2.46
			c0.12-0.3,0.18-0.46,0.2-0.57c0.13,0.07,0.37,0.23,0.76,0.56c0.18,0.15,0.8,0.62,1.59,0.62c0.04,0,0.07,0,0.11,0
			c0.5-0.05,0.95-0.29,1.27-0.69l0.45-0.68l0.01-0.02l-0.06-0.62c-0.08-0.85-0.73-1.47-1.21-1.87c-1.02-0.83-2.04-1.61-2.93-2.29
			l-0.11-0.08c-0.65-0.5-1.27-0.97-1.69-1.32c-0.52-0.43-1.17-0.99-1.86-1.58l-0.25-0.22c-1-0.88-2.16-1.89-3.26-2.79
			c-0.51-0.43-1.14-0.97-1.92-0.97c-0.08,0-0.16,0.01-0.24,0.02c-0.49,0.04-0.93,0.28-1.26,0.67l-0.5,0.77l-0.01,0.02l0.07,0.62
			c0.05,0.54,0.34,1.02,0.84,1.43c0.24,0.19,0.74,0.6,1.06,1.05c0.71,1.01,1.03,1.48,0.31,3.92l-9.44,30.9l-0.01,0.03
			c-0.83,2.68-1.25,4.01,0.04,5.08c0.44,0.36,0.87,0.52,1.36,0.52c0.9,0,2.02-0.57,3.72-1.42l4.99-2.54l1.31-0.67
			c2.4-1.23,5.39-2.76,8.78-4.49c2.41-1.22,4.27-2.14,5.91-2.94C261.1,846.59,263.16,845.57,265.77,844.18"/>
		<path class="st3" d="M287.14,873.61c1-1.33,1.6-1.96,1.93-2.31c0.22-0.23,0.35-0.39,0.45-0.52c0.6-0.91,0.39-2.01-0.5-2.6
			c-0.76-0.5-1.52-0.3-2.2-0.12h-0.01c-0.05,0-0.32-0.03-1.25-0.56c-0.64-0.35-3.24-2.06-5.47-3.56l5.78-8.6
			c1.67,1.17,4.16,2.93,4.55,3.26c1.39,1.2,1.32,1.5,1.24,1.85c-0.05,0.29-0.31,0.79-0.52,1.1c-0.88,1.35-0.33,2.41,0.41,2.89
			c0.66,0.46,1.69,0.59,2.64-0.38c0.22-0.24,0.72-0.86,1.48-1.85c0.24-0.33,0.48-0.63,0.62-0.81c0.86-1.1,1.35-1.61,1.65-1.92
			l0.02-0.02c0.24-0.25,0.39-0.41,0.48-0.55c0.34-0.5,0.46-1,0.36-1.5l-0.24-0.74l-0.01-0.02l-0.5-0.34
			c-0.32-0.22-0.65-0.32-1.03-0.43l-0.07-0.02c-0.29-0.11-0.82-0.37-1.66-0.81c-0.56-0.33-5.17-3.42-7.93-5.26l-2.17-1.46
			c-0.42-0.28-1.02-0.71-1.72-1.21l-0.24-0.17c-1.26-0.9-2.59-1.85-3.81-2.68c-1.85-1.23-2.82-0.42-3.24,0.19l-0.4,0.78l-0.01,0.02
			l0.12,0.61c0.17,0.85,0.89,1.34,1.16,1.52c0.63,0.42,1.12,0.82,1.26,0.98c0.53,0.55,0.6,0.61-0.02,1.67
			c-0.75,1.29-1.47,2.36-5.45,8.29l-5.08,7.57l-0.07,0.1c-2.4,3.58-4.48,6.67-5.72,8.12c-0.61,0.68-0.92,0.94-1.02,1.02
			c0,0,0,0-0.01,0c-0.33-0.13-0.76-0.33-1.25-0.66c-0.41-0.27-1.04-0.62-1.81-0.47c-0.47,0.09-0.88,0.38-1.15,0.78l-0.4,0.79
			l-0.01,0.02l0.12,0.61c0.18,0.91,0.98,1.44,1.24,1.63c0.93,0.62,2.18,1.41,3.37,2.15c0.78,0.48,1.45,0.9,1.83,1.16
			c0.92,0.62,1.88,1.31,2.99,2.12c1.8,1.31,4.27,3.1,8.1,5.67c0.95,0.64,1.77,1.2,2.7,1.2c0.67,0,1.34-0.3,2.05-0.92
			c0.84-0.76,3.1-3.41,3.79-4.43c0.52-0.77,0.69-1.47,0.51-2.07c-0.16-0.52-0.54-0.83-0.76-0.98c-0.62-0.43-1.61-0.69-2.79,0.52
			c-1.32,1.38-1.92,1.41-2.51,1.33c-1.07-0.18-2.68-1.26-3.54-1.84c-3.56-2.39-3.42-2.6-2.15-4.62c0.4-0.64,1.38-2.1,2.91-4.35
			l2.87-4.26c1.57,1.08,4.05,2.79,4.54,3.2c0.98,0.83,0.85,1.2,0.77,1.41c-0.13,0.34-0.31,0.65-0.5,0.96l-0.17,0.31
			c-0.62,0.94-0.4,2.07,0.54,2.7l0.78,0.4l0.02,0.01l0.61-0.12c0.87-0.17,1.34-0.88,1.56-1.22
			C285.39,875.87,286.5,874.38,287.14,873.61z"/>
		<path class="st3" d="M320.73,910.64c-0.26-0.14-0.55-0.35-0.93-0.66c-0.49-0.41-1.78-1.49-2.66-4.75
			c-0.89-3.38-1.62-7.74-2.54-13.27l-0.26-1.55c5.29-1.18,8.55-3.32,10.54-6.94c1.74-3.16,1.41-6.82,0.35-8.88
			c-1.66-3.3-4.72-5.31-7.5-6.84c-0.6-0.33-1.56-0.82-2.59-1.34l-0.46-0.24c-1.15-0.6-2.34-1.2-3.06-1.6
			c-0.33-0.18-0.89-0.51-1.6-0.94l-0.22-0.13c-1.17-0.69-2.63-1.56-3.94-2.28c-0.64-0.37-1.33-0.69-2.13-0.48l-0.79,0.33l-0.02,0.01
			l-0.3,0.56c-0.09,0.17-0.37,0.74-0.17,1.43c0.16,0.55,0.59,1.02,1.28,1.4c0.67,0.37,1.19,0.73,1.35,0.88
			c0.56,0.49,0.64,0.56,0.12,1.67c-0.63,1.33-1.29,2.53-4.5,8.33l-4.6,8.35c-2.12,3.84-3.94,7.15-5.08,8.73
			c-0.52,0.7-0.84,1.04-0.94,1.11c-0.44-0.13-0.86-0.3-1.3-0.54c-0.26-0.14-1.04-0.56-1.85-0.32c-0.46,0.14-0.86,0.46-1.08,0.88
			l-0.34,0.84l0.18,0.6c0.23,0.8,0.9,1.25,1.38,1.51c1.07,0.59,2.57,1.35,3.6,1.88c0.7,0.36,1.37,0.7,1.7,0.88
			c0.15,0.09,0.45,0.26,0.86,0.5l0.43,0.26c1.12,0.66,3.2,1.89,4.93,2.85l0.01,0.01c0.28,0.15,1.13,0.61,2.02,0.35l0.81-0.36
			l0.02-0.01l0.3-0.55c0.43-0.8,0.32-1.97-0.92-2.67c-0.49-0.27-1.31-0.83-1.84-1.22c-0.25-0.19-0.38-0.28,0.14-1.49
			c0.68-1.68,2.24-4.55,4.54-8.72l2.61,1.52c0.1,0.61,0.23,1.82,0.38,3.21l0.03,0.25c0.14,1.24,0.32,2.94,0.51,4.44
			c0.65,5.15,1.2,7.98,2.62,10.17c0.96,1.48,2.13,2.44,4.68,3.85l4.06,2.24c0.35,0.19,0.78,0.4,1.27,0.43c0.05,0,0.1,0.01,0.15,0.01
			c0.71,0,1.33-0.36,1.69-1.01l0.33-0.78l0.01-0.02l-0.17-0.6C321.7,911.55,321.43,911.03,320.73,910.64 M315.99,881.37
			c-1.87,3.39-3.89,4.13-4.93,4.26c-0.67,0.08-0.98,0.08-2.53-0.77c-0.82-0.46-1.65-1.02-2.2-1.5l6.67-12.09
			c0.37,0.17,0.83,0.4,1.36,0.7c0.45,0.24,1.96,1.19,2.62,3.13C317.61,876.93,317.28,879.04,315.99,881.37"/>
		<path class="st3" d="M344.89,886.66c0.99-0.3,2.16-0.17,3.41,0.38c2.19,0.98,2.78,2.32,3.05,3.37c0.31,1.17,0,2.29-0.07,2.46
			c-0.93,2.05,0.55,2.87,0.86,3.01c1.24,0.52,2.28-0.11,3.08-1.89c1.1-2.46,1.8-3.79,2.18-4.51l0.06-0.1
			c0.15-0.29,0.26-0.5,0.33-0.67c0.2-0.45,0.53-1.61-0.81-2.6c-1.23-1-3.01-2.31-5.94-3.62c-3.35-1.5-6.66-1.86-9.57-1.04
			c-2.94,0.82-5.25,2.83-6.51,5.64c-1.91,4.28-1.33,8.72,1.93,14.87l1.34,2.53c2.32,4.32,1.84,6.2,1.14,7.78
			c-0.39,0.86-1.18,1.6-2.14,1.96c-1.2,0.47-2.64,0.36-4.13-0.3c-1.83-0.82-3.93-2.49-3.5-5.79c0.11-0.76,0.31-1.63,0.5-2.05
			c0.13-0.29,0.48-1.07,0.16-1.89l-0.45-0.79l-0.01-0.02l-0.56-0.25c-0.64-0.31-1.9-0.5-3.09,1.74l-0.04,0.07
			c-0.48,0.91-1.74,3.34-2.77,5.63c-0.58,1.3-0.7,2.29,0.43,3.53c1.61,1.78,3.62,3.14,6.51,4.44c2.42,1.08,4.64,1.6,6.82,1.6
			c0.66,0,1.32-0.05,1.96-0.15c5.42-0.86,7.85-4.61,8.81-6.77c2.08-4.66,1.46-9-2.3-16.01l-0.83-1.49
			c-2.34-4.27-2.44-5.77-1.81-7.21C343.33,887.58,344.01,886.94,344.89,886.66"/>
		<path class="st3" d="M379.65,896.27l-0.26-0.57c-0.34-0.73-1.07-1.08-1.66-1.3c-0.97-0.36-2.25-0.79-3.39-1.17l-0.2-0.07
			c-0.82-0.27-1.6-0.53-2.08-0.71c-0.64-0.23-1.65-0.65-2.56-1.02c-1.12-0.45-2.4-0.97-3.38-1.33c-2.08-0.74-2.87,0.08-3.17,0.89
			c-0.03,0.08-0.65,1.87,1.46,2.65c0.53,0.2,0.95,0.41,1.29,0.65c0.13,0.08,0.36,0.23-0.01,1.45c-0.44,1.49-0.96,2.9-3.46,9.67
			l-2.98,8.08c-1.5,4.09-2.93,7.95-3.86,9.77c-0.45,0.93-0.63,0.97-0.62,0.97c-0.31-0.04-0.8-0.12-1.39-0.34
			c-1.92-0.72-2.64,0.57-2.82,0.99l-0.2,0.86l0,0.02l0.26,0.57c0.39,0.85,1.29,1.18,1.59,1.29c1.03,0.38,2.34,0.81,3.72,1.27
			l0.12,0.04c0.85,0.29,1.58,0.53,2,0.68c0.45,0.17,1.11,0.43,1.95,0.77l0.11,0.04c1.49,0.6,3.24,1.3,5.05,1.96
			c0.38,0.14,0.76,0.22,1.11,0.22c0.33,0,0.63-0.06,0.9-0.19l0.74-0.47l0.02-0.01l0.21-0.58c0.24-0.66,0.2-1.95-1.49-2.58
			c-0.62-0.23-1.5-0.65-2.09-0.97c-0.4-0.22-0.48-0.26-0.25-1.19c0.52-1.93,1.82-5.47,3.46-9.94l3.32-8.98l0.05-0.15
			c2.22-6.02,2.68-7.27,3.27-8.6c0.41-0.96,0.59-1.13,0.81-1.13c0.06,0,0.12,0.01,0.19,0.03c0.51,0.1,0.82,0.17,1.18,0.31
			c0.49,0.18,0.92,0.25,1.32,0.18c0.71-0.11,1.27-0.57,1.53-1.27l0.2-0.77L379.65,896.27z"/>
		<path class="st3" d="M414.69,905.11L414.69,905.11c-0.24-0.07-0.47-0.09-0.76-0.11h-0.04c-0.62-0.05-1.78-0.12-3.84-0.72
			l-18.62-5.35c-1.44-0.41-3.17-1-4.51-1.55c-0.46-0.17-0.71-0.37-0.95-0.57l-0.02-0.01c-0.28-0.24-0.58-0.48-1.01-0.6
			c-1.01-0.29-1.86,0.19-2.56,1.44c-0.02,0.04-2.39,4.44-2.68,5.46c-0.1,0.33-0.31,1.11,0.1,1.85l0.53,0.69l0.01,0.02l0.58,0.17
			c0.45,0.14,1.6,0.31,2.44-1.12c0.02-0.04,0.22-0.4,0.92-1c0.41-0.34,1.08-0.39,3.61,0.25l5.56,1.43l-5.14,17.89
			c-1.16,4.03-2.25,7.84-3.03,9.71c-0.23,0.56-0.44,0.98-0.63,1.24c0,0,0,0,0,0.01c-0.36-0.03-0.84-0.08-1.4-0.24
			c-1.99-0.55-2.59,0.77-2.73,1.2l-0.14,0.88l0,0.02l0.3,0.55c0.4,0.73,1.15,1.02,1.69,1.17c0.96,0.28,2.24,0.6,3.36,0.89l0.43,0.11
			c0.84,0.21,1.7,0.43,2.17,0.57c0.5,0.14,1.23,0.37,2.15,0.67l0.07,0.03c1.44,0.46,3.24,1.03,5.12,1.57
			c0.34,0.1,0.65,0.15,0.93,0.15c0.39,0,0.74-0.09,1.07-0.26l0.71-0.52l0.02-0.02l0.31-1.77l0.01-0.04l-1.46-1.14l-0.37-0.11
			c-0.62-0.18-1.53-0.53-2.15-0.81c-0.29-0.13-0.43-0.19-0.22-1.44c0.33-1.98,1.39-5.67,2.62-9.95l5.12-17.8l4.41,1.38
			c3.18,0.99,3.84,2.08,3.75,2.51l-0.09,0.49c-0.42,1.93,0.48,2.62,1.3,2.86c0.28,0.09,1.71,0.43,2.5-1.66
			c0.19-0.64,0.58-1.85,0.93-2.93l0.04-0.13c0.32-0.98,0.62-1.9,0.75-2.37C416.28,906.47,415.9,905.47,414.69,905.11"/>
		<path class="st3" d="M456.96,913.36c-0.47-0.09-1.5-0.24-2.58-0.41l-0.24-0.03c-0.84-0.12-1.87-0.27-2.39-0.36
			c-0.64-0.12-1.31-0.27-2.01-0.43l-0.04-0.01c-0.76-0.18-1.59-0.36-2.49-0.53c-0.21-0.03-0.4-0.05-0.58-0.05
			c-1.66,0-1.99,1.3-2.04,1.59c-0.09,0.53,0.02,0.99,0.34,1.37c0.36,0.44,0.9,0.67,1.23,0.71c-0.07,0.32-0.29,0.87-0.87,1.72
			c-0.43,0.62-2.7,3.39-4.71,5.84l-0.76,0.93c-0.94,1.15-1.75,2.14-2.4,2.94c-1.22-3.38-4.32-11.99-4.64-13.2
			c-0.07-0.23-0.11-0.43-0.16-0.61c0.48-0.05,1.67-0.24,1.91-1.52l0.05-0.88v-0.02l-0.36-0.51c-0.32-0.48-0.84-0.78-1.55-0.91
			c-1.29-0.24-2.51-0.41-3.65-0.57l-0.36-0.05c-0.47-0.07-0.87-0.12-1.18-0.18c-0.88-0.16-2.38-0.48-3.7-0.76l-0.44-0.09
			c-0.84-0.18-1.57-0.33-1.93-0.39c-0.23-0.04-0.43-0.05-0.62-0.05c-1.73,0-2.04,1.26-2.1,1.55l-0.06,0.87v0.02l0.36,0.52
			c0.33,0.48,0.86,0.78,1.58,0.91c0.19,0.04,0.71,0.27,1.19,0.65c0.26,0.23,1.21,1.17,2.29,3.57c1.28,2.92,5.66,14.29,5.9,15.15
			c0.35,1.41,0.58,2.34,0.18,4.62l-0.71,3.96c-0.39,2.17-0.75,3.75-0.99,4.68c-0.23,0.91-0.5,1.2-0.58,1.24
			c-0.5,0.03-0.94-0.01-1.37-0.08c-0.76-0.14-1.37-0.04-1.86,0.3l-0.64,0.55l-0.1,0.62c-0.1,0.59-0.09,2.01,2.19,2.41
			c0.92,0.17,2.16,0.35,3.35,0.53l0.61,0.09c0.86,0.13,1.61,0.24,2.08,0.33c0.53,0.1,1.36,0.27,2.19,0.45l0.16,0.03
			c1.43,0.3,3.21,0.67,4.99,0.99c0.26,0.05,0.5,0.07,0.74,0.07c1.73,0,2.06-1.33,2.12-1.6c0.12-0.68-0.14-1.94-1.93-2.27
			c-0.62-0.11-1.56-0.37-2.18-0.58c-0.33-0.1-0.59-0.19-0.45-1.4c0.22-2.06,0.58-4.08,0.7-4.74l0.71-3.94
			c0.27-1.49,0.5-2.78,1.37-4.13c1.11-1.72,9.79-11.74,11.67-13.33c1.24-1.07,1.67-1.37,2.51-1.6c0.55-0.18,1.24-0.19,1.48-0.14
			c0.79,0.15,1.46,0.04,1.98-0.32c0.41-0.29,0.69-0.72,0.78-1.22l0.06-0.81l0-0.02l-0.36-0.51
			C458.16,913.58,457.26,913.42,456.96,913.36"/>
		<path class="st3" d="M493.37,914.57c-0.43-0.02-0.86-0.03-1.29-0.03c-5.9,0-10.98,1.81-14.75,5.28c-3.91,3.58-6.28,8.87-6.52,14.5
			c-0.21,5.09,1.38,10.19,4.37,14c2.54,3.24,7.37,7.18,15.95,7.54c0.39,0.02,0.77,0.03,1.15,0.03c6,0,11.23-1.98,15.13-5.71
			c3.91-3.75,6.11-8.91,6.37-14.93C514.29,923.23,506.28,915.11,493.37,914.57 M480.64,933.21c0.21-5.09,1.54-8.79,3.93-10.99
			c2.11-1.94,4.75-2.35,6.59-2.35c0.16,0,0.36,0,0.56,0.01c3.52,0.15,6.65,1.78,8.83,4.61c2.36,3.06,3.5,7.27,3.29,12.16
			c-0.51,11.96-6.45,13.85-10.15,13.85c-0.09,0-0.19,0-0.28,0c-4-0.17-7.33-1.94-9.62-5.13
			C481.55,942.24,480.44,937.93,480.64,933.21"/>
		<path class="st3" d="M542.09,914.48L542.09,914.48c-0.52,0.03-0.91,0.26-1.18,0.42c-0.22,0.08-0.63,0.12-1.15,0.17l-0.49,0.05
			c-1,0.1-9.59,0.56-12.83,0.74c-0.6,0.03-1.52,0.05-2.57,0.08c-1.41,0.03-3.03,0.07-4.47,0.15c-2.37,0.14-2.55,1.55-2.52,2.15
			c0,0.02,0.03,0.53,0.4,1c0.3,0.39,0.89,0.83,2.04,0.76c0.7-0.04,1.37-0.01,1.59,0.03c0.73,0.12,0.85,0.13,0.98,1.35
			c0.17,1.49,0.24,2.78,0.65,10.26l0.49,9c0.23,4.42,0.42,7.91,0.3,9.8c-0.08,1-0.18,1.35-0.21,1.44c-0.45,0.13-0.91,0.2-1.39,0.23
			c-2.09,0.12-2.14,1.7-2.13,2.02l0.15,0.88v0.03l0.46,0.42c0.41,0.37,0.95,0.55,1.69,0.55c0.12,0,0.22,0,0.34-0.01
			c1-0.05,2.36-0.17,3.57-0.27l0.12-0.01c0.95-0.08,1.93-0.17,2.51-0.2c0.44-0.03,1.08-0.04,1.9-0.06l0.59-0.01
			c1.42-0.04,3.18-0.09,4.93-0.18c0.65-0.03,1.46-0.15,2.01-0.78l0.49-0.72l0.01-0.02l-0.03-0.62c-0.02-0.31-0.21-1.77-2.2-1.77
			c-0.08,0-0.16,0-0.24,0c-0.6,0.02-1.57,0-2.25-0.06c-0.32-0.03-0.48-0.04-0.69-1.34c-0.33-1.88-0.52-5.35-0.75-9.74l-0.18-3.36
			c2.27-0.11,5.14-0.24,5.88-0.18c0.98,0.07,1.25,0.57,1.29,0.67c0.19,0.48,0.27,0.9,0.27,1.02c0.04,0.68,0.28,1.25,0.71,1.63
			c0.34,0.3,0.74,0.46,1.2,0.46c0.04,0,0.08,0,0.12,0l0.94-0.17l0.41-0.46c0.57-0.64,0.54-1.43,0.51-1.91v-0.02
			c-0.02-0.32-0.04-2.48,0-3.42c0.04-0.88,0.12-1.69,0.16-2.12c0.05-0.55,0.08-0.92,0.07-1.06c-0.03-0.75-0.36-1.19-0.64-1.43
			l-0.62-0.44l-0.02-0.01l-0.6,0.02c-0.99,0.03-1.46,0.69-1.8,1.17c-0.08,0.11-0.18,0.27-1,0.36c-0.6,0.08-1.22,0.11-2.1,0.15
			l-5.07,0.32l-0.55-10.29l6.41-0.22h0.04c1.33,0,1.83,0.38,1.87,0.46c0.19,0.38,0.22,0.93,0.25,1.34l0,0.05
			c0.27,1.86,1.46,2.05,1.93,2.05c0.09,0,0.14-0.01,0.18-0.01c0.29-0.01,1.76-0.18,1.87-2.04c0.05-0.41,0.05-1.8,0.04-2.9l0-0.35
			c0-0.39,0-0.7,0-0.81c0.04-0.64,0.11-1.08,0.18-1.45l0.01-0.04c0.05-0.32,0.11-0.59,0.09-0.91
			C543.98,915.2,543.25,914.51,542.09,914.48"/>
		<path class="st3" d="M600.78,911.68c-6.81-4.84-15.28-3.21-21.48-2.01c-1.6,0.31-3.2,0.68-4.61,0.99l-0.07,0.02
			c-0.93,0.21-1.98,0.44-2.68,0.58c-0.48,0.09-1.18,0.2-2,0.34l-0.41,0.07c-1.27,0.2-3.02,0.49-4.51,0.77
			c-0.72,0.12-1.45,0.34-1.9,0.98c-0.28,0.41-0.38,0.9-0.29,1.4l0.26,0.86l0.51,0.36c0.72,0.5,1.6,0.32,1.89,0.26
			c0.84-0.16,1.42-0.21,1.6-0.19c0.75,0.01,0.85,0.01,1.15,1.21c0.36,1.39,0.63,2.75,1.82,8.95l1.87,9.72
			c0.83,4.29,1.54,8,1.68,9.92c0.05,0.81,0.02,1.32,0,1.45c-0.3,0.13-0.75,0.3-1.34,0.42c-0.48,0.09-1.19,0.29-1.63,0.94l-0.38,0.73
			l-0.01,0.02l0.12,0.62c0.08,0.36,0.45,1.56,2.08,1.56c0.24,0,0.5-0.02,0.76-0.07c1-0.19,2.31-0.49,3.47-0.75l0.36-0.08
			c0.86-0.2,1.71-0.39,2.2-0.48c0.98-0.19,2.36-0.35,3.81-0.51l0.31-0.03c1.77-0.19,4.18-0.46,6.22-0.85
			c9.71-1.87,14.18-6.71,15.97-9.42c1.36-2.06,4.37-7.7,2.87-15.53C607.14,917.36,603.56,913.64,600.78,911.68 M597.84,938.65
			c-2.11,2.69-4.86,4.15-9.48,5.04c-3.41,0.65-4.98,0.03-5.27-0.24c-0.08-0.12-0.36-0.65-0.87-2.9c-0.22-0.87-0.98-4.53-1.95-9.6
			l-1.17-6.06c-0.58-3.01-1.4-7.23-1.75-9.26c0.51-0.18,1.47-0.45,2.2-0.59c5.4-1.04,9.81-0.4,13.46,1.96
			c1.48,0.95,5.04,3.82,6.26,10.13C600.28,932.39,599.82,936.15,597.84,938.65"/>
		<path class="st3" d="M641.28,925.4c-0.54-0.29-1.09-0.19-1.36-0.11c-0.73,0.21-1.56,0.81-1.39,2.49c0.23,1.89-0.13,2.38-0.59,2.78
			c-0.79,0.69-2.66,1.24-3.67,1.55c-4.11,1.21-4.18,0.96-4.93-1.31c-0.28-0.85-0.87-2.9-1.4-4.7l-1.53-5.24
			c1.85-0.52,4.76-1.33,5.37-1.45c1.28-0.23,1.48,0.12,1.58,0.31c0.18,0.31,0.3,0.65,0.41,0.96l0.14,0.38
			c0.33,1.08,1.33,1.62,2.44,1.3c0.44-0.13,1.81-0.74,1.17-2.88c-0.1-0.33-0.54-2.15-0.72-3.12c-0.38-1.63-0.48-2.5-0.54-2.96
			c-0.04-0.31-0.08-0.52-0.11-0.65c-0.19-0.67-0.6-1.01-0.92-1.18l-0.79-0.3l-0.02,0l-0.6,0.18c-0.86,0.26-1.2,0.99-1.49,1.62
			c-0.02,0.03-0.17,0.21-1.24,0.62c-0.8,0.31-4.58,1.44-6.23,1.93l-2.93-9.95c1.94-0.54,4.89-1.33,5.42-1.42
			c1.81-0.31,2-0.06,2.22,0.24c0.19,0.22,0.4,0.72,0.51,1.08c0.46,1.54,1.63,1.8,2.49,1.55c0.76-0.22,1.52-0.94,1.39-2.29
			c-0.05-0.4-0.29-1.49-0.47-2.29l-0.02-0.11c-0.09-0.38-0.17-0.71-0.2-0.92c-0.32-1.42-0.39-2.13-0.43-2.52
			c-0.04-0.37-0.07-0.58-0.12-0.72c-0.17-0.57-0.48-0.99-0.93-1.24l-0.74-0.31l-0.02-0.01l-0.61,0.18
			c-0.36,0.11-0.64,0.29-0.99,0.53l-0.03,0.02c-0.31,0.18-0.91,0.43-1.67,0.76c-0.73,0.26-8.16,2.45-11.65,3.48
			c-0.53,0.16-1.34,0.37-2.34,0.63l-0.06,0.02c-1.38,0.36-2.96,0.78-4.4,1.2c-0.7,0.2-1.41,0.49-1.79,1.19
			c-0.23,0.42-0.28,0.93-0.14,1.41l0.34,0.81l0.01,0.02l0.54,0.29c0.76,0.41,1.58,0.17,1.89,0.09l0.02,0
			c0.69-0.2,1.32-0.33,1.56-0.34c0.72-0.05,0.86-0.07,1.26,1.09c0.52,1.41,0.89,2.65,2.99,9.83l2.43,8.26l0.04,0.14
			c1.18,4,2.29,7.78,2.62,9.73c0.14,0.9,0.14,1.31,0.13,1.45c-0.42,0.23-0.83,0.4-1.3,0.54c-0.48,0.14-1.16,0.4-1.53,1.08
			c-0.23,0.42-0.28,0.92-0.14,1.4l0.35,0.81l0.01,0.02l0.55,0.3c0.31,0.17,0.65,0.25,1.03,0.25c0.4,0,0.77-0.1,1.02-0.17
			c1.12-0.33,2.58-0.81,3.76-1.21c0.85-0.28,1.66-0.55,2.11-0.68c1.03-0.3,2.11-0.58,3.53-0.94l0.04-0.01
			c2.3-0.58,5.15-1.31,9.53-2.6c1.85-0.55,3.31-0.98,3.25-3.47c-0.05-1.11-0.63-4.55-0.98-5.75
			C642.17,926.23,641.79,925.67,641.28,925.4"/>
		<path class="st3" d="M664.7,908.71c0.33,0.4,0.53,0.77,0.57,0.88c0.53,1.41,1.7,1.7,2.56,1.38c0.23-0.09,0.8-0.36,1.08-0.99
			c0.24-0.55,0.21-1.22-0.09-2c-0.1-0.28-0.79-2.33-1.04-3.27c-0.2-0.7-0.34-1.33-0.45-1.84l-0.05-0.23
			c-0.12-0.53-0.21-0.9-0.26-1.03c-0.26-0.69-0.7-1.01-1.03-1.16l-0.75-0.25l-0.02-0.01l-0.59,0.23c-0.9,0.35-1.15,1.1-1.33,1.67
			c-0.03,0.12-0.09,0.3-0.83,0.63c-0.57,0.26-1.15,0.48-1.96,0.79l-4.72,1.85l-3.69-9.62l6.04-2.18c1.21-0.42,1.88-0.21,1.95-0.16
			c0.29,0.3,0.49,0.8,0.64,1.17l0.03,0.08c0.87,1.75,2.14,1.49,2.64,1.3c0.38-0.15,1.59-0.77,1.15-2.53
			c-0.07-0.31-0.35-1.22-0.84-2.72l-0.12-0.38c-0.12-0.36-0.22-0.65-0.24-0.76c-0.17-0.68-0.24-1.17-0.27-1.44l0-0.02
			c-0.05-0.33-0.09-0.61-0.2-0.91c-0.39-1.02-1.47-1.53-2.45-1.15c-0.45,0.18-0.73,0.48-0.99,0.76c-0.18,0.14-0.52,0.29-0.98,0.49
			l-0.49,0.21c-0.86,0.37-8.35,3.26-11.98,4.65c-0.52,0.2-1.31,0.48-2.21,0.79l-0.19,0.07c-1.41,0.5-2.9,1.02-4.24,1.53
			c-2.11,0.82-2,2.12-1.74,2.82c0.12,0.29,0.82,1.71,2.86,0.92c0.69-0.26,1.31-0.43,1.53-0.46c0.73-0.12,0.84-0.14,1.35,0.99
			c0.62,1.36,1.09,2.56,3.77,9.56l3.15,8.24c1.62,4.22,2.89,7.55,3.36,9.41c0.1,0.43,0.23,1.03,0.25,1.43
			c-0.26,0.17-0.67,0.42-1.26,0.65c-2.02,0.8-1.48,2.39-1.41,2.57c0.29,0.75,0.93,1.22,1.74,1.25h0.08c0.45,0,0.87-0.14,1.27-0.28
			c0.92-0.36,2.13-0.86,3.39-1.39c0.9-0.38,1.81-0.76,2.36-0.98c0.48-0.18,1.27-0.46,2.05-0.73c1.56-0.55,3.25-1.15,4.93-1.79
			c0.6-0.23,1.33-0.59,1.68-1.36l0.24-0.84l0-0.02l-0.22-0.58c-0.06-0.16-0.31-0.72-0.93-1c-0.53-0.24-1.18-0.22-1.94,0.06
			c-0.62,0.24-1.58,0.5-2.17,0.64c-0.31,0.07-0.46,0.11-1.05-1.07c-0.9-1.72-2.18-5.04-3.8-9.25l-1.12-2.92
			c2.26-0.86,4.83-1.81,5.53-1.98C664.28,908.24,664.67,908.69,664.7,908.71"/>
		<path class="st3" d="M704.24,901.61c-0.91-1.92-2.23-1.57-2.75-1.34c-0.69,0.33-1.41,1.07-0.96,2.66
			c0.52,1.85,0.24,2.38-0.14,2.84c-0.68,0.82-2.44,1.66-3.39,2.11c-3.87,1.84-3.98,1.61-5.08-0.52c-0.45-0.87-1.5-3.1-2.33-4.89
			l-2.11-4.46c2.01-0.93,4.52-2.07,5.07-2.27c1.24-0.44,1.47-0.12,1.62,0.06c0.23,0.28,0.4,0.59,0.55,0.87l0.65,1.07l0.01,0.02
			l1.48,0.47l0.03,0.01l1.37-0.75l0.02-0.01l0.21-0.59c0.29-0.81-0.05-1.55-0.26-1.99c-0.14-0.28-0.85-1.99-1.19-2.95
			c-0.63-1.54-0.87-2.39-1-2.84l-0.01-0.02c-0.09-0.31-0.15-0.48-0.22-0.64c-0.49-0.98-1.53-1.36-2.48-0.9
			c-0.83,0.38-1.04,1.16-1.24,1.84c0,0-0.07,0.19-1.12,0.81c-0.63,0.37-3.53,1.78-5.85,2.89l-4.45-9.35
			c1.85-0.84,4.63-2.08,5.13-2.25c1.74-0.58,1.96-0.37,2.22-0.13c0.21,0.19,0.51,0.65,0.67,0.99c0.7,1.46,1.89,1.53,2.7,1.14
			c0.72-0.34,1.37-1.17,1.03-2.46c-0.13-0.45-0.61-1.66-0.89-2.34l-0.33-0.84c-0.53-1.32-0.71-2.03-0.81-2.41
			c-0.09-0.35-0.17-0.57-0.24-0.71l-0.35-0.62l-1.3-0.76l-0.03-0.02l-0.81,0.4c-0.32,0.16-0.55,0.38-0.86,0.65l-0.06,0.06
			c-0.26,0.22-0.83,0.57-1.43,0.95l-0.09,0.05c-0.59,0.32-6.26,3.03-10.94,5.27c-0.49,0.24-1.25,0.57-2.2,0.98
			c-1.4,0.62-2.88,1.27-4.22,1.91c-0.67,0.31-1.32,0.71-1.58,1.46c-0.17,0.46-0.14,0.96,0.08,1.41l0.46,0.74l0.01,0.02l0.58,0.21
			c0.83,0.29,1.6-0.08,1.89-0.22c0.67-0.32,1.26-0.54,1.49-0.59c0.72-0.18,0.81-0.2,1.41,0.88c0.74,1.33,1.29,2.48,4.51,9.23
			l3.7,7.77c1.83,3.83,3.55,7.45,4.18,9.31c0.24,0.76,0.35,1.26,0.37,1.41c-0.26,0.2-0.65,0.48-1.21,0.74
			c-1.99,0.95-1.33,2.54-1.25,2.72c0.12,0.25,0.62,1.08,1.72,1.08c0.42,0,0.88-0.12,1.38-0.36c1-0.48,2.31-1.15,3.46-1.75l0.54-0.27
			c0.62-0.32,1.16-0.6,1.5-0.76c0.98-0.47,2-0.91,3.3-1.47l0.05-0.02c2.03-0.87,4.81-2.07,9.02-4.07c1.74-0.83,3.11-1.48,2.65-3.93
			C705.9,906.05,704.78,902.74,704.24,901.61"/>
		<path class="st3" d="M730.56,857c-1.27-2.21-1.04-2.46-0.83-2.67c0.3-0.3,0.5-0.43,0.88-0.66c1.92-1.14,1.21-2.63,1.04-2.92
			c-0.38-0.62-1.32-1.47-3.26-0.29c-1.37,0.83-2.52,1.59-3.36,2.16l-0.21,0.14c-0.21,0.13-0.36,0.24-0.46,0.3
			c-0.31,0.19-0.78,0.45-1.41,0.79c-1.17,0.65-2.42,1.34-3.74,2.13c-0.55,0.33-1.37,0.83-1.59,1.73l-0.09,0.83l0,0.02l0.32,0.53
			c0.29,0.47,0.79,0.94,1.39,0.94c0.07,0,0.14,0,0.22-0.02c0.43,0,0.87-0.14,1.35-0.44c0.33-0.2,1.33-0.81,1.82-0.88
			c0.33-0.05,0.74-0.1,2.19,2.22l9.83,15.52l-0.35-0.1c-0.38-0.1-0.78-0.21-1.19-0.33l-0.49-0.13c-3.16-0.86-7.1-1.94-9.59-2.56
			c-10.24-2.51-20.95-5.59-21.03-5.61l-0.63-0.18c-1-0.3-1.95-0.59-2.9-0.02c-0.68,0.42-1.61,1.47-0.21,3.8l14.57,25.04
			c0.58,0.99,2.11,3.6,2.01,4.19c-0.29,0.31-0.81,0.7-1.41,1.07c-0.43,0.26-1.02,0.68-1.21,1.43l-0.1,0.82v0.03l0.33,0.53
			c0.26,0.43,0.74,0.93,1.57,0.93c0.49,0,1.05-0.19,1.68-0.56c1.46-0.88,2.77-1.75,3.65-2.32l0.3-0.2c0.24-0.16,0.41-0.28,0.5-0.33
			c0.24-0.14,0.57-0.33,0.98-0.55l0.31-0.17c0.96-0.53,2.28-1.26,3.97-2.27c0.61-0.37,1.26-0.85,1.45-1.66
			c0.12-0.48,0.04-0.99-0.22-1.4l-0.5-0.67l-0.02-0.02l-0.6-0.15c-0.77-0.19-1.44,0.14-1.88,0.41c-0.48,0.29-1.2,0.69-1.88,0.83
			c-0.07-0.01-0.83-0.18-2.69-3.1l-8.96-14.04c4.96,1.46,9.12,2.6,12.73,3.48c2.67,0.65,5.6,1.38,8.43,2.1l0.52,0.13
			c4.69,1.18,8.47,2.12,10.82,2.65c0.84,0.21,2.1,0.52,3.12-0.12c0.68-0.41,1.62-1.44,0.28-3.68L730.56,857z"/>
		<path class="st3" d="M755.05,849.84l-1.71-0.01c-4.87-0.07-6.23-0.72-7.16-1.98c-0.6-0.82-0.83-1.73-0.64-2.62
			c0.21-1,0.91-1.95,2.01-2.77c1.9-1.41,3.31-1.29,4.44-0.99c1.15,0.3,1.96,1.1,2.1,1.28c0.17,0.24,0.71,0.97,1.61,1.1
			c0.49,0.08,0.99-0.04,1.42-0.36l0.65-0.61l0.02-0.01l0.09-0.62c0.12-0.81-0.26-1.53-0.88-2.36c-1.61-2.18-2.42-3.45-2.85-4.13
			c-0.23-0.36-0.37-0.56-0.48-0.72c-0.29-0.4-1.14-1.27-2.66-0.57c-1.47,0.58-3.49,1.48-6.07,3.38c-2.96,2.18-4.9,4.88-5.62,7.82
			c-0.73,2.96-0.13,5.96,1.7,8.43c2.77,3.77,6.92,5.45,13.88,5.65l2.86,0.08c4.9,0.1,6.3,1.46,7.32,2.83
			c0.97,1.31,1.33,4.07-1.64,6.26c-1.62,1.19-4.1,2.2-6.75,0.2c-0.63-0.48-1.28-1.09-1.53-1.44c-0.19-0.26-0.69-0.94-1.57-1.07
			l-0.93,0l-0.5,0.36c-0.59,0.42-1.36,1.44,0,3.58c0.5,0.78,2.03,3.14,3.56,5.21c0.65,0.89,1.31,1.48,2.4,1.48
			c0.27,0,0.56-0.03,0.89-0.11c2.37-0.53,4.48-1.57,7.06-3.48c2.75-2.03,4.58-4.29,5.58-6.92c1.91-5.14-0.15-9.09-1.55-11
			C767.08,851.62,763,850.02,755.05,849.84"/>
		<path class="st3" d="M798.61,836.94c-1.34-1.56-2.46-1.03-3.01-0.57c-0.57,0.5-1.08,1.39-0.23,2.83c0.99,1.65,0.86,2.23,0.62,2.77
			c-0.44,0.97-1.92,2.24-2.71,2.93c-3.24,2.79-3.41,2.6-5.02,0.84c-0.6-0.65-1.97-2.25-3.17-3.66l-3.6-4.19
			c0.93-0.78,3.72-3.13,4.3-3.53c1.05-0.73,1.37-0.5,1.57-0.36c0.29,0.2,0.52,0.45,0.74,0.67l0.99,0.93l0.02,0.02l0.63,0.05
			c0.04,0.01,0.08,0.01,0.11,0.01c0.47,0,0.94-0.17,1.31-0.5l0.6-0.64l0.01-0.02l0.05-0.62c0.07-0.86-0.48-1.5-0.77-1.85
			c-0.21-0.23-1.36-1.71-1.94-2.53c-1.03-1.34-1.49-2.1-1.71-2.47c-0.16-0.26-0.28-0.44-0.37-0.54c-0.35-0.41-0.82-0.66-1.32-0.7
			l-0.84,0.05l-0.02,0.01l-0.47,0.41c-0.68,0.59-0.7,1.36-0.7,2.09c-0.02,0.07-0.12,0.31-0.87,1.07c-0.59,0.6-3.57,3.2-4.88,4.33
			l-6.77-7.84c1.51-1.26,3.89-3.22,4.35-3.52c1.52-1.03,1.78-0.89,2.11-0.71c0.25,0.12,0.66,0.49,0.9,0.77
			c1.05,1.22,2.22,0.97,2.91,0.38c0.6-0.51,0.99-1.48,0.32-2.65c-0.21-0.35-0.84-1.19-1.37-1.89l-0.08-0.11
			c-0.23-0.3-0.43-0.56-0.55-0.73c-0.88-1.16-1.24-1.79-1.43-2.12c-0.18-0.31-0.29-0.48-0.42-0.63c-0.86-0.98-1.97-0.83-2.63-0.29
			c-0.29,0.25-0.47,0.54-0.69,0.9l-0.02,0.03c-0.21,0.28-0.65,0.77-1.21,1.38c-0.43,0.41-4.2,3.68-9.17,7.97
			c-0.38,0.33-0.95,0.79-1.62,1.33l-0.31,0.25c-1.11,0.91-2.37,1.93-3.5,2.91c-1.77,1.52-1.07,2.72-0.69,3.17
			c0.12,0.14,0.57,0.61,1.27,0.66c0.58,0.05,1.17-0.19,1.77-0.71c0.55-0.47,1.07-0.84,1.29-0.95c0.64-0.36,0.74-0.42,1.6,0.47
			c1.05,1.08,1.89,2.05,6.78,7.71l5.72,6.64c2.73,3.17,5.31,6.16,6.39,7.76c0.48,0.74,0.66,1.12,0.72,1.27
			c-0.21,0.27-0.51,0.63-0.96,1.03c-1.68,1.44-0.6,2.81-0.48,2.96c0.14,0.15,0.63,0.64,1.41,0.64c0.57,0,1.17-0.26,1.76-0.77
			c0.75-0.65,1.7-1.52,2.55-2.3l0.54-0.5c0.62-0.57,1.15-1.06,1.48-1.34c0.86-0.74,1.8-1.5,2.85-2.33c1.74-1.39,4.12-3.3,7.59-6.3
			c1.46-1.26,2.62-2.25,1.53-4.51C801.37,840.75,799.41,837.86,798.61,836.94"/>
		<path class="st3" d="M837.91,806.4c-0.33-0.29-0.77-0.47-1.22-0.47c-0.02,0-0.05,0-0.08,0.01c-0.58,0.02-1.14,0.32-1.65,0.89
			c-0.46,0.5-1.19,1.16-1.68,1.57c-0.25,0.21-0.37,0.29-1.39-0.44c-1.65-1.19-4.6-3.86-7.72-6.69l-13.77-12.5l3.19-3.35
			c1.56-1.64,2.85-2.38,3.54-2.38c0.15,0,0.27,0.03,0.36,0.1l0.4,0.31c1.63,1.3,2.67,0.62,3.15,0.1c0.35-0.39,1.01-1.44-0.38-2.98
			c-0.41-0.37-1.07-1.01-1.79-1.7l-0.45-0.43c-0.66-0.64-1.48-1.43-1.88-1.8c-0.67-0.6-1.3-0.9-1.88-0.9c-0.02,0-0.04,0-0.06,0
			c-0.46,0.02-0.87,0.22-1.22,0.62c-0.17,0.19-0.29,0.4-0.45,0.67l-0.01,0.02c-0.31,0.54-0.9,1.53-2.32,3.11l-13.03,14.35
			c-1.02,1.13-2.31,2.42-3.38,3.38c-0.37,0.34-0.66,0.48-0.96,0.61c-0.29,0.14-0.66,0.3-0.96,0.63c-0.71,0.78-0.67,1.76,0.15,2.93
			l0.01,0.02c0.49,0.68,2.97,4.14,3.71,4.8c0.43,0.38,0.91,0.73,1.6,0.73c0.04,0,0.09,0,0.13,0l0.85-0.18l0.02,0l0.41-0.45
			c0.31-0.35,0.95-1.31,0.06-2.65c-0.07-0.1-0.3-0.49-0.5-1.28c-0.12-0.52,0.12-1.12,1.82-3.13l3.74-4.36l13.84,12.56
			c3.23,2.93,6.02,5.46,7.31,6.95c0.43,0.48,0.73,0.88,0.84,1.13c-0.24,0.41-0.5,0.78-0.83,1.14c-0.51,0.57-0.76,1.14-0.73,1.7
			c0.04,0.73,0.52,1.19,0.61,1.28c0.05,0.05,0.55,0.48,1.28,0.48c0.65,0,1.27-0.34,1.87-0.99c0.72-0.8,1.64-1.87,2.44-2.82
			l0.11-0.12c0.66-0.79,1.17-1.39,1.48-1.72c0.37-0.41,0.96-1.03,1.55-1.63c0.93-0.98,2.34-2.45,3.73-3.97
			c0.55-0.6,0.81-1.22,0.77-1.85l-0.16-0.88L837.91,806.4z"/>
		<path class="st3" d="M858.26,771.66c-0.24-0.19-0.54-0.42-0.92-0.56c-0.79-0.29-1.62-0.06-2.13,0.6c-0.47,0.6-0.79,1.58,0.34,2.84
			c1.31,1.4,1.3,2,1.17,2.58c-0.23,1.04-1.42,2.59-2.05,3.42c-2.6,3.4-2.8,3.26-4.77,1.85c-0.76-0.55-2.62-1.98-4.34-3.32
			l-3.89-2.98c1.17-1.5,3.06-3.88,3.49-4.34c0.88-0.92,1.24-0.77,1.46-0.69c0.3,0.14,0.57,0.33,0.82,0.48l1.22,0.75l0.02,0.01
			l0.62-0.09c0.5-0.07,0.96-0.35,1.27-0.77l0.45-0.74l0.01-0.02l-0.07-0.62c-0.11-0.86-0.77-1.37-1.13-1.65
			c-0.26-0.2-1.7-1.42-2.42-2.09c-1.2-1.04-1.81-1.67-2.13-2.01l-0.05-0.06c-0.23-0.24-0.37-0.38-0.49-0.47
			c-0.87-0.65-1.98-0.51-2.65,0.35c-0.54,0.73-0.37,1.53-0.23,2.17c0,0.02,0.01,0.24-0.64,1.24c-0.19,0.29-0.94,1.36-3.89,5.24
			l-8.24-6.3c1.23-1.55,3.17-3.96,3.54-4.35c1.28-1.32,1.57-1.23,1.92-1.12c0.28,0.07,0.75,0.35,1.05,0.57
			c0.25,0.2,0.65,0.47,1.19,0.54c0.67,0.08,1.32-0.19,1.75-0.76c0.47-0.63,0.66-1.65-0.24-2.66c-0.28-0.3-1.1-1.02-1.79-1.62
			l-0.73-0.65c-1.05-0.92-1.53-1.45-1.82-1.76l-0.01-0.02c-0.24-0.26-0.39-0.42-0.53-0.52c-1.05-0.79-2.09-0.44-2.66,0.26
			c-0.22,0.29-0.33,0.58-0.46,0.96l-0.03,0.08c-0.15,0.34-0.55,1.01-0.91,1.6c-0.48,0.69-6.01,7.93-7.36,9.69
			c-0.28,0.37-0.7,0.89-1.19,1.5l-0.46,0.57c-0.87,1.08-1.86,2.29-2.74,3.44c-1.36,1.78-0.6,2.8-0.02,3.24
			c0.26,0.2,1.62,1.08,2.97-0.68c0.43-0.57,0.87-1.05,1.05-1.19c0.57-0.49,0.65-0.57,1.67,0.13c1.24,0.83,2.29,1.63,8.09,6.07
			l7.05,5.39c3.49,2.67,6.51,4.98,7.9,6.33c0.44,0.45,0.76,0.81,0.97,1.1c-0.2,0.43-0.45,0.83-0.74,1.21
			c-1.34,1.77-0.03,2.86,0.13,2.98l0.76,0.45l0.02,0.01l0.62-0.08c0.82-0.11,1.36-0.7,1.7-1.14c0.66-0.87,1.5-2.03,2.23-3.06
			l0.05-0.08c0.52-0.73,1.04-1.45,1.34-1.85c0.67-0.87,1.39-1.75,2.31-2.85l0.04-0.05c1.5-1.82,3.37-4.08,6.13-7.69
			c1.17-1.53,2.1-2.75,0.58-4.73C861.72,774.82,859.22,772.39,858.26,771.66"/>
		<path class="st3" d="M880.33,734.88c-0.61-0.38-1.21-0.5-1.79-0.38l-0.79,0.31l-0.02,0.01l-0.33,0.5
			c-0.93,1.45,0.25,2.54,0.69,2.95c0.5,0.5,1.2,1.6,1.46,2.49c0.63,2.1,0.05,4.07-2.3,7.8c-1.67,2.65-4.73,4.75-8.19,5.61
			c-2.94,0.73-7.51,0.91-12.69-2.35c-4.55-2.87-6.97-5.91-7.63-9.56c-0.47-2.67,0.19-5.24,2.14-8.33c2.35-3.72,5.22-5.77,6.89-6.11
			c1.28-0.26,2.66-0.03,3.72,0.59c1.94,1.23,2.93,0.19,3.26-0.32c0.66-1.06,0.31-2.12-1-3.08c-0.41-0.32-1.21-0.85-2.14-1.45
			l-0.24-0.16c-0.73-0.48-1.48-0.97-2.05-1.38c-0.76-0.55-1.21-0.91-1.57-1.2c-0.31-0.25-0.49-0.39-0.64-0.49
			c-0.76-0.5-2-0.51-2.89,0.65c-0.44,0.56-0.95,1.1-1.49,1.67l-0.15,0.16c-0.53,0.57-1.09,1.16-1.64,1.82
			c-1.39,1.68-2.6,3.18-4.32,5.9c-3.78,5.99-5.08,11.37-4.08,16.91c1.35,7.48,6.72,11.59,8.96,13.01c3.72,2.34,7.52,3.53,11.31,3.53
			c1.79,0,3.6-0.26,5.37-0.79l0.02,0c5.6-1.69,10.28-5.61,14.3-11.98c0.79-1.26,3.41-5.58,3.97-8.6c0.23-1.32,0.01-2.07-0.88-3.09
			C884.36,738.15,880.94,735.26,880.33,734.88"/>
		<path class="st3" d="M910.98,693.07l-0.8-0.29l-0.59,0.2c-0.56,0.19-1,0.62-1.33,1.31c-0.3,0.62-0.81,1.46-1.17,1.99
			c-0.18,0.26-0.26,0.4-1.46-0.03c-1.89-0.66-5.25-2.3-9.16-4.2l-8.25-4.02c-6.42-3.12-7.57-3.68-8.89-4.44
			c-1.14-0.63-1.09-0.79-1-1.09c0.12-0.43,0.24-0.79,0.41-1.12c0.36-0.74,0.44-1.41,0.24-1.96c-0.22-0.63-0.74-0.93-0.96-1.03
			l-0.83-0.31l-0.59,0.21c-0.75,0.26-1.15,0.91-1.45,1.52c-0.46,0.94-1.04,2.24-1.6,3.49l-0.16,0.34c-0.33,0.74-0.62,1.38-0.81,1.77
			c-0.22,0.46-0.59,1.15-1.06,2.06c-0.72,1.38-1.49,2.85-2.16,4.22c-0.99,2.06,0.12,2.88,0.65,3.13c0.17,0.08,0.77,0.34,1.44,0.1
			c0.55-0.19,1-0.64,1.34-1.35c0.34-0.7,0.67-1.23,0.81-1.4c0.46-0.58,0.52-0.66,1.65-0.19c1.37,0.56,2.5,1.11,8.78,4.17l0.38,0.18
			l-7.11,14.61c-6.56-3.19-7.75-3.77-9.08-4.53c-1.13-0.62-1.08-0.78-1-1.1c0.13-0.44,0.24-0.79,0.4-1.11
			c0.16-0.33,0.35-0.78,0.35-1.26c0.02-0.76-0.38-1.41-1.07-1.74l-0.82-0.31l-0.59,0.21c-0.74,0.25-1.14,0.88-1.46,1.53
			c-0.43,0.88-0.96,2.07-1.44,3.13l-0.23,0.52c-0.37,0.82-0.69,1.53-0.9,1.95c-0.22,0.45-0.57,1.13-0.99,1.93l-0.07,0.12
			c-0.65,1.25-1.47,2.8-2.16,4.22c-0.25,0.51-0.37,0.9-0.4,1.27c-0.06,0.8,0.34,1.52,1.05,1.86l0.83,0.29l0.02,0.01l0.59-0.21
			c0.74-0.26,1.12-0.89,1.33-1.34c0.34-0.68,0.67-1.22,0.8-1.39l0.02-0.02c0.45-0.58,0.53-0.66,1.65-0.18
			c1.36,0.56,2.47,1.09,8.86,4.2l8.16,3.97l0.03,0.02c3.8,1.84,7.38,3.59,9.05,4.67c0.76,0.51,1.06,0.78,1.16,0.87
			c-0.08,0.31-0.21,0.76-0.48,1.34c-0.22,0.45-0.47,1.12-0.21,1.86l0.36,0.74l0.01,0.02l0.56,0.27c0.12,0.06,0.44,0.19,0.85,0.19
			c0.57,0,1.4-0.27,2.02-1.55c0.49-0.99,1.08-2.3,1.64-3.56c0.34-0.76,0.71-1.6,0.93-2.05c0.2-0.42,0.52-1.02,0.88-1.72l0.16-0.29
			c0.62-1.19,1.56-2.98,2.43-4.78c0.38-0.76,0.47-1.43,0.26-2.04l-0.39-0.79l-0.01-0.02l-0.57-0.27c-0.63-0.3-1.91-0.4-2.71,1.23
			c-0.3,0.62-0.82,1.47-1.17,1.99c-0.17,0.26-0.27,0.39-1.45-0.03c-1.85-0.65-5.19-2.27-9.07-4.15l-3.07-1.49l7.11-14.61l2.89,1.4
			c3.94,1.92,7.35,3.58,8.98,4.62c0.66,0.45,1.07,0.77,1.17,0.88c-0.07,0.3-0.21,0.76-0.48,1.34c-0.41,0.84-0.43,1.57-0.07,2.17
			c0.28,0.47,0.71,0.69,0.79,0.73c0.29,0.14,1.85,0.75,2.89-1.42c0.47-0.97,1.07-2.29,1.58-3.45l0.19-0.43
			c0.32-0.71,0.6-1.32,0.77-1.69c0.22-0.45,0.57-1.12,0.96-1.88l0.09-0.16c0.7-1.34,1.57-3.01,2.41-4.75
			c0.37-0.75,0.46-1.43,0.26-2.02C911.78,693.69,911.44,693.3,910.98,693.07"/>
		<path class="st3" d="M926.97,650.05l-28.99-10.62c-2.39-0.88-2.37-1.24-2.36-1.52c0.04-0.41,0.12-0.65,0.26-1.05l0.02-0.04
			c0.74-2.19-0.88-2.82-1.07-2.89c-0.69-0.24-1.96-0.31-2.7,1.85c-0.54,1.55-0.93,2.88-1.19,3.76l-0.08,0.29
			c-0.07,0.24-0.12,0.42-0.16,0.53c-0.12,0.36-0.34,0.91-0.59,1.55c-0.41,1.04-0.96,2.47-1.49,4c-0.21,0.6-0.53,1.51-0.13,2.34
			c0.22,0.43,0.59,0.77,1.05,0.93l0.86,0.2l0.03,0l0.56-0.27c0.7-0.34,1-0.99,1.16-1.46l0.02-0.04c0.16-0.47,0.5-1.46,0.81-1.8
			c0.21-0.23,0.5-0.55,3.12,0.31l17.49,5.63c-0.21,0.1-0.43,0.19-0.65,0.29l-0.73,0.33c-3.54,1.62-7.2,3.29-9.55,4.42
			c-9.54,4.67-19.69,9.13-19.77,9.17l-0.6,0.26c-0.92,0.39-1.87,0.79-2.23,1.83c-0.26,0.76-0.31,2.16,2.27,3.06l27.23,9.9l0.06,0.02
			c1.17,0.42,3.89,1.41,4.18,1.91c-0.03,0.42-0.17,1.06-0.4,1.72c-0.17,0.47-0.35,1.17-0.01,1.88l0.44,0.69l0.01,0.02l0.59,0.21
			c0.21,0.07,0.43,0.12,0.66,0.12c0.57,0,1.12-0.27,1.5-0.74c0.26-0.32,0.42-0.69,0.58-1.16c0.54-1.54,0.98-3.02,1.28-3.99
			l0.07-0.24c0.12-0.42,0.2-0.68,0.24-0.81c0.1-0.29,0.25-0.67,0.47-1.23c0.35-0.9,0.95-2.42,1.65-4.46
			c0.78-2.24-0.46-2.95-1.03-3.14c-0.12-0.05-0.74-0.24-1.38,0.07c-0.52,0.25-0.91,0.76-1.17,1.51c-0.19,0.54-0.48,1.31-0.91,1.85
			c-0.04,0.02-0.66,0.42-4.06-0.66l-15.89-5.05c4.75-2.05,8.68-3.84,12.02-5.48c2.4-1.18,5.04-2.45,7.59-3.69l0.99-0.47
			c3.89-1.88,7.57-3.65,9.73-4.77l0.02-0.01c0.72-0.35,1.93-0.93,2.32-2.08C929.37,652.3,929.43,650.9,926.97,650.05"/>
		<path class="st3" d="M923.23,593.87c-5.79-1.29-11.11-0.41-15.37,2.53c-4.24,2.92-7.21,7.74-8.59,13.94
			c-1.93,8.69,0.67,14.52,3.18,17.88c2.9,3.88,7.39,6.73,12.31,7.82c1.55,0.35,3.16,0.52,4.78,0.52c3.5,0,6.88-0.81,9.79-2.36
			c3.64-1.93,8.38-6.01,10.24-14.39C942.35,607.3,935.63,596.63,923.23,593.87 M934.68,616.61c-2.02,9.1-11.13,11.36-19.27,9.56
			c-4.98-1.11-8.4-3.06-10.14-5.8c-1.66-2.61-1.49-5.5-1.05-7.47c0.76-3.44,2.92-6.24,6.08-7.89c2.17-1.12,4.68-1.7,7.46-1.7
			c1.61,0,3.32,0.2,5.1,0.59c5.45,1.21,9.12,3.34,10.88,6.33C935.23,612.75,934.97,615.31,934.68,616.61"/>
		<path class="st3" d="M947,563.1c-1.51-0.62-5.23-1.44-5.88-1.52c-0.19-0.02-0.35-0.03-0.51-0.03c-1.65,0-1.98,1.12-2.05,1.64
			c-0.05,0.42-0.05,1.83,1.82,2.27c0.6,0.14,1.61,0.72,1.95,1.12c0.73,0.86,0.6,2.35,0.31,4.69c-0.44,3.59-0.87,4.42-1.25,4.77
			c-0.77,0.45-5.16-0.09-9.41-0.61l-8.67-1.07l-0.49-0.06c-6.88-0.85-8.11-1-9.57-1.27c-1.27-0.23-1.29-0.4-1.3-0.71
			c-0.03-0.53,0.02-1.22,0.08-1.66c0.26-2.2-1.19-2.55-1.65-2.61c-0.07,0-0.14-0.01-0.23-0.01c-0.65,0-1.76,0.31-2.02,2.3
			c-0.12,1.01-0.27,2.52-0.39,3.85l-0.02,0.2c-0.11,1.15-0.2,2.07-0.26,2.56c-0.07,0.53-0.19,1.32-0.36,2.43l-0.04,0.26
			c-0.19,1.27-0.42,2.71-0.57,3.94c-0.09,0.76,0.03,1.33,0.27,1.8c0.01,0.03,0.02,0.05,0.03,0.07c0.07,0.12,0.09,0.27,0.18,0.36
			c0.38,0.42,0.87,0.53,1.13,0.56c0.18,0.03,0.82,0.08,1.39-0.36c0.46-0.35,0.74-0.94,0.85-1.73c0.08-0.71,0.2-1.1,0.26-1.27
			c0.24-0.7,0.28-0.81,1.5-0.72c1.48,0.09,2.66,0.23,10.21,1.16l8.54,1.05c4.19,0.51,8.15,0.99,10.1,1.48
			c0.77,0.2,1.25,0.38,1.38,0.45c0.05,0.47,0.04,0.94-0.02,1.41c-0.06,0.5-0.08,1.22,0.4,1.83l0.57,0.58l0.02,0.01l0.61,0.07
			c0.07,0.01,0.16,0.02,0.25,0.02c0.65,0,1.24-0.33,1.61-0.91c0.22-0.35,0.36-0.78,0.43-1.34c0.14-1.13,0.27-2.64,0.38-3.86
			c0.08-0.93,0.16-1.8,0.22-2.28c0.21-1.67,0.44-3.18,0.72-4.93l0.03-0.16c0.38-2.37,0.8-5.06,1.29-9
			C949.18,565.28,949.1,563.95,947,563.1"/>
		<path class="st3" d="M931.32,514.23c-0.26-0.01-0.53-0.02-0.79-0.02c-11.59,0-19.31,8.01-19.74,20.6
			c-0.31,8.89,3.31,14.15,6.4,16.99c3.57,3.28,8.5,5.26,13.54,5.43c0.26,0.01,0.53,0.01,0.77,0.01c5.21,0,10.11-1.75,13.79-4.94
			c4.25-3.68,6.62-9.07,6.85-15.59c0.22-6.39-1.76-11.95-5.73-16.08C942.62,516.7,937.27,514.43,931.32,514.23 M931.92,524.13
			c0.27,0,0.56,0,0.88,0.02c12.89,0.44,14.04,7.37,13.94,10.33c-0.14,4.01-1.89,7.35-5.06,9.68c-2.91,2.12-6.86,3.27-11.23,3.27
			c-0.3,0-0.6,0-0.9-0.02c-11.4-0.39-13.6-6.2-13.44-11C916.37,529.07,922.72,524.13,931.92,524.13 M921.7,526.75
			c0.03-0.02,0.06-0.04,0.09-0.06C921.77,526.71,921.74,526.73,921.7,526.75"/>
		<path class="st3" d="M945.49,469.62l-5.37,0.42l-0.15,0.01c-2.36,0.18-4.23,0.33-5.66,0.4c-0.14,0-0.26,0.01-0.37,0.01
			c-0.88,0-0.94-0.19-1.02-0.5l-0.02-0.07c-0.11-0.43-0.17-0.69-0.19-1c-0.07-0.84-0.44-1.31-0.74-1.57l-0.69-0.45l-0.02-0.01
			l-0.6,0.04c-0.47,0.04-1.98,0.32-1.82,2.63c0.07,0.85,0.19,1.96,0.31,3.02l0,0.03c0.12,1,0.22,1.94,0.28,2.65
			c0.04,0.51,0.07,1.22,0.11,2.03l0.03,0.6c0.07,1.41,0.14,3.01,0.26,4.46c0.17,2.07,1.36,2.36,2.03,2.36c0.06,0,0.12,0,0.17,0
			l0.84-0.16l0.4-0.47c0.38-0.43,0.53-1.03,0.48-1.75c-0.06-0.74-0.05-1.38-0.01-1.61c0.1-0.75,0.11-0.88,1.29-1.01
			c1.38-0.16,3.18-0.3,5.26-0.46l5.02-0.39c0.34-0.03,0.43,0.01,0.44,0.02c0.47,0.84,0.58,2.37,0.67,3.48
			c0.36,4.54-0.98,8.55-3.86,11.6c-2.81,2.96-6.99,4.8-11.76,5.18c-0.71,0.06-1.39,0.09-2.05,0.09c-3.98,0-6.95-1.05-9.05-3.18
			c-2.69-2.79-3.15-5.84-3.35-8.49c-0.41-5.26,1.5-8.86,2.56-10.03c0.91-1,2.03-1.3,3.1-1.52c1.85-0.37,1.83-1.83,1.81-2.13
			l-0.19-0.95l-0.47-0.41c-0.61-0.53-1.41-0.54-2.02-0.49c-4.58,0.36-6.49,0.31-7.29,0.28h-0.02c-0.33-0.01-0.55-0.01-0.7,0
			c-0.45,0.04-1.93,0.3-1.93,2.29c0.04,1.21-0.19,3.26-0.23,3.66c-0.14,1.18-0.38,5.58-0.11,8.99c0.31,4.02,0.94,8.71,4.47,13.64
			c3.61,5.04,9.51,7.94,16.17,7.94c0.6,0,1.19-0.02,1.79-0.07c15.2-1.19,19.65-14.03,18.75-25.65c-0.19-2.39-0.89-8.36-3.38-12.33
			C947.78,469.51,946.93,469.51,945.49,469.62"/>
		<path class="st3" d="M904.87,430.77l0.08,0.37c0.21,0.96,0.43,1.95,0.52,2.43c0.12,0.63,0.21,1.3,0.3,1.99
			c0.12,0.83,0.24,1.7,0.41,2.57c0.39,2.03,1.77,2.02,2.36,1.93c0.54-0.11,0.95-0.41,1.2-0.86c0.27-0.52,0.26-1.08,0.19-1.34
			c0.46-0.06,1.12,0,1.91,0.2c0.76,0.19,4.34,1.38,7.22,2.35c2,0.67,3.49,1.16,4.65,1.55c-2.97,2.55-9.7,8.33-10.69,9.04
			c-0.18,0.13-0.34,0.26-0.51,0.37c-0.21-0.39-0.71-1.27-1.73-1.27c-0.12,0-0.24,0.01-0.37,0.04c-0.49,0.09-0.93,0.37-1.21,0.78
			c-0.32,0.47-0.42,1.09-0.3,1.78c0.25,1.33,0.54,2.59,0.75,3.5l0.03,0.14c0.14,0.6,0.25,1.11,0.33,1.48
			c0.18,0.94,0.43,2.58,0.64,3.9l0.03,0.19c0.14,0.89,0.26,1.65,0.33,1.99c0.35,1.86,1.56,2.07,2.06,2.07
			c0.11,0,0.21-0.01,0.32-0.03l0.84-0.26l0.02-0.01l0.35-0.52c0.33-0.47,0.42-1.07,0.29-1.77c-0.04-0.23,0.02-0.84,0.18-1.36
			c0.11-0.33,0.63-1.54,2.53-3.41c2.24-2.22,11.33-10.37,12.07-10.91c1.19-0.83,1.98-1.37,4.25-1.8l3.94-0.74
			c0.67-0.12,2.68-0.5,4.74-0.74c0.93-0.12,1.29,0.04,1.36,0.09c0.19,0.47,0.33,0.9,0.41,1.32c0.33,1.78,1.61,2.04,2.3,1.91
			c0.59-0.11,1.91-0.62,1.48-2.92c-0.18-0.95-0.48-2.29-0.74-3.46l-0.01-0.07c-0.27-1.2-0.44-1.97-0.53-2.44
			c-0.09-0.47-0.2-1.17-0.35-2.14c-0.22-1.41-0.53-3.34-0.88-5.24c-0.16-0.88-0.5-1.48-1.03-1.85c-0.41-0.28-0.92-0.38-1.42-0.29
			l-0.81,0.24l-0.35,0.52c-0.34,0.49-0.43,1.09-0.28,1.83c0.11,0.58,0.21,1.55,0.23,2.25c0.03,0.34,0.04,0.61-1.14,0.92
			c-1.95,0.51-3.93,0.88-4.68,1.02l-3.95,0.74l-0.02,0c-1.47,0.28-2.75,0.53-4.33,0.19c-2-0.43-14.46-4.98-16.61-6.16
			c-1.45-0.79-1.88-1.08-2.39-1.78c-0.39-0.48-0.63-1.13-0.67-1.33c-0.14-0.8-0.48-1.38-0.99-1.74c-0.41-0.29-0.91-0.39-1.43-0.3
			l-0.78,0.23l-0.02,0.01l-0.35,0.52c-0.45,0.65-0.37,1.42-0.27,1.93C904.45,428.88,904.65,429.79,904.87,430.77"/>
		<path class="st3" d="M112.96,703.44c-0.07-0.43-0.26-1.56,2.84-4.74c3.06-3.14,8.92-8.92,14.66-14.57l0.14-0.13
			c3.94-3.89,7.35-7.24,8.22-8.16c0.79-0.82,1.86-1.95,1.27-3.36c-0.56-1.32-1.95-1.43-3.37-1.43c-0.13,0-0.26,0-0.39,0l-33.07,0.61
			c-0.17,0.01-0.35,0.01-0.51,0.01c-2.33,0-3.22-0.34-3.83-1.38c-0.18-0.31-0.45-0.85-0.59-1.19c-0.1-0.23-0.39-0.91-1.14-1.22
			c-0.45-0.18-0.95-0.17-1.43,0.03l-0.82,0.46l-0.24,0.57c-0.34,0.81-0.01,1.6,0.15,1.99c0.68,1.61,1.44,3.24,1.94,4.32l0.01,0.02
			c0.22,0.47,0.36,0.78,0.43,0.93c0.29,0.69,0.6,1.53,0.93,2.39c0.31,0.83,0.63,1.69,0.95,2.45c0.87,2.05,2.44,1.51,2.74,1.38
			l0.76-0.4l0.02-0.01l0.23-0.58c0.31-0.76,0.01-1.47-0.13-1.82l-0.28-0.68c-0.09-0.21-0.13-0.35-0.15-0.42
			c0.36-0.14,1.34-0.34,2.48-0.35l4.54-0.17l4.62,9.92l-5.7,5.43c-0.77-0.65-1.58-0.41-1.9-0.28c-1.64,0.67-1.05,2.28-0.66,3.35
			l0.04,0.1c1.48,3.8,2.96,7.28,3.51,8.59c0.66,1.58,1.07,2.37,1.91,2.71l0.81,0.22l0.02,0l0.58-0.25c0.03-0.01,0.05-0.02,0.09-0.04
			c0.38-0.19,1.54-0.93,0.82-2.68C113.27,704.55,113.08,703.96,112.96,703.44 M125.22,677.36l-7.14,6.63l-2.89-6.23L125.22,677.36z"
			/>
	</g>
	<g>
		<path class="st3" d="M132,271.11l17.22,9.67l13.08,7.09l2.94,1.05l6.33,3.77l3.17,1.65c0.73,0.39,2.06,1.71,4.01,3.95
			c0.76,0.87,1.92,3.3,3.49,7.29c0.26,0.65,0.34,1.08,0.23,1.29c-0.15,0.29-2.24,0.95-6.26,2.01l-3.67,0.06l-2.31,0.86
			c-1.42,0.42-2.43,0.89-3.05,1.43c-2.4,2.08-4,3.85-4.8,5.33c-0.08,0.14-0.69,1.8-1.83,4.96c-0.29,0.76-0.93,2.21-1.93,4.36
			l-5.28,11.09l-2.79,6.97l-1.66,2.38l-0.81,1.62c-0.46,0.84-2.08,2.13-4.87,3.86c-1.03,0.62-2.22,1.03-3.55,1.22
			c-2.62,0.45-4.19,0.7-4.72,0.76c-0.52,0.06-1.06-0.02-1.6-0.22c-0.48-0.17-0.9-0.35-1.25-0.54l-5.4-3.2l-13.14-6.98
			c-2.38-1.29-4.53-2.66-6.45-4.11l-8.75-5.09L94,331l-1.76-0.61L89.1,328l-2.22-0.66c-0.32-0.17-0.4-0.44-0.24-0.81
			c0.1-0.26,0.66-0.76,1.67-1.49c0.21-0.16,0.99-0.39,2.35-0.71c0.76-0.18,1.61-0.54,2.56-1.07c-0.49-1.68-1.08-3.12-1.78-4.32
			c-2.78-4.56-4.51-7.77-5.18-9.64c-1.05-2.98-1.53-5.13-1.43-6.45c0.1-1,0.69-3.91,1.79-8.74c1.69-7.97,3.01-13.34,3.94-16.12
			c1.42-4.29,2.53-7.17,3.34-8.65c0.78-1.44,2.39-2.9,4.82-4.36c3.15-1.94,5.47-3.08,6.95-3.41l4.75-1.05
			c3.32-1.21,5.33-1.81,6.02-1.8c1.07-0.01,2,0.2,2.79,0.63c0.73,0.39,2,1.65,3.81,3.77C125.09,265.45,128.08,268.12,132,271.11
			 M149.32,324.67c1.14-2.71,1.98-4.74,2.5-6.1c0.9-2.34,1.65-4,2.27-4.99c1.14-1.8,1.64-3.1,1.5-3.9
			c-0.02-0.11-0.03-0.18-0.01-0.21l0.15-0.05c0.52-0.26,0.85-0.59,1.01-0.95l1.48-3.3c0.07-0.14,1.15-0.88,3.23-2.21
			c1.46-0.94,3.32-1.67,5.6-2.16l-12.36-6.7l-2.36-1.34l-12.81-7.69l-13.43-6.46l-8.85-4.79l-5.21-3.1
			c-3.49-1.89-6.29-2.31-8.41-1.28c-0.9,0.47-1.56,1.07-1.96,1.81c-0.48,0.88-0.83,2.03-1.07,3.45l-1.74,9.79
			c-0.53,2.95-1.34,5.43-2.43,7.44c-0.21,0.39-2.23,3.14-6.08,8.26c-0.45,0.62-0.8,1.14-1.03,1.56c-0.97,1.8-1.16,4.15-0.57,7.07
			c0.45,2.43,1.6,5.03,3.44,7.78c1.85,2.76,3.66,4.62,5.44,5.58c0.7,0.38,2.1,1,4.21,1.87c1.46,0.57,2.98,1.27,4.57,2.13
			c2.09,1.14,4.5,2.65,7.21,4.53c2.81,1.93,4.61,3.11,5.4,3.54c0.79,0.43,2.78,1.41,5.96,2.96c0.83,0.36,1.55,0.7,2.15,1.03
			c0.57,0.31,1.88,1.11,3.92,2.4c2.3,1.43,5.04,3.05,8.2,4.86L149.32,324.67z M111.4,304.8c-0.7,1.67-1.35,3.05-1.94,4.15
			c-0.93,1.72-1.75,2.74-2.45,3.05c-3.11,1.42-4.73,2.13-4.86,2.15c-2.46,0.08-3.74,0.09-3.84,0.04c-0.38-0.2-0.5-0.45-0.34-0.73
			l1.38-2.33c0.13-0.25,0.23-0.7,0.3-1.34c0.19-1.86,0.74-4.02,1.67-6.48c0.44-2.32,0.66-3.56,0.67-3.74
			c0.05-0.24-0.14-1.22-0.57-2.91l0.09-1.87c-0.42-0.59-0.64-1.03-0.65-1.31c-0.04-0.53,0.25-1.37,0.88-2.53
			c0.29-0.53,0.49-0.94,0.61-1.24c0.17-0.32,0.29-0.53,0.34-0.64c0.25-0.45,0.97-1.07,2.17-1.83l2.65-1.71
			c0.17-0.09,0.96-0.07,2.37,0.05c0.7,0.06,1.6,0.05,2.68-0.05c0.34-0.04,0.6-0.02,0.76,0.07c0.6,0.33,1.01,2.87,1.22,7.64
			c0.1,2.38,0.52,4.11,1.25,5.19c0.78,1.06,1.86,1.97,3.26,2.72c1.04,0.57,2.13,0.22,3.27-1.03c0.21-0.25,1.08-0.76,2.61-1.53
			c0.17-0.09,0.8-0.07,1.88,0.06c0.34,0.05,0.6-0.09,0.77-0.4l0.06-0.1c0.19-0.35-0.05-1.85-0.71-4.49c-0.11-0.33,0-1.24,0.3-2.71
			c0.2-0.89,0.37-1.47,0.5-1.71c0.15-0.28,0.8-0.75,1.93-1.41c3.12-2.05,5.87-2.43,8.25-1.14c1.17,0.64,1.76,1.64,1.76,3.01
			c0,1.05-0.22,2-0.68,2.84c-0.12,0.21-1.83,1.91-5.15,5.07l3.01,1.29l12.6,4.78c1.39,0.25,2.55,0.63,3.51,1.14
			c1.33,0.72,1.11,3.18-0.67,7.36l-4.39,10.27c-0.48,1.11-0.72,1.94-0.72,2.48c0,1.05,0,1.59-0.03,1.63l-0.56,0.93l-0.32,1.95
			l-1.26,3.01l-0.21,0.5c-0.57,1.05-1.59,1.91-3.06,2.58c-1.02,0.45-2.17,0.33-3.44-0.36c-1.68-0.91-2.67-2.31-2.96-4.2
			c-0.13-0.67,0.04-2.31,0.51-4.92c0.09-0.46-0.08-0.8-0.49-1.02c-0.12-0.07-0.83,0.28-2.1,1.05l-2.28,0.68
			c-1.38,0.8-2.26,1.21-2.64,1.23c-0.86,0.08-2.07,0.03-3.63-0.16c-1.56-0.18-2.53-0.38-2.92-0.59c-0.19-0.1-0.47-0.41-0.85-0.93
			c-0.5-0.73-0.78-1.13-0.82-1.2c-0.07-0.04-0.68-0.37-1.86-1.01c-0.73-0.39-1.18-0.73-1.36-1.01c-0.17-0.28-0.41-1.05-0.71-2.3
			c-0.43-1.79-0.66-2.73-0.68-2.83c-0.05-0.21-0.02-1.7,0.08-4.47c-0.58-2.1-0.79-3.83-0.63-5.2c0.05-0.39-0.01-0.67-0.16-0.84
			c-0.38-0.43-1-0.93-1.85-1.48C112.56,305.73,112.06,305.34,111.4,304.8 M129.55,317.99h-0.12l-0.14-0.07
			c-0.11-0.02-0.2-0.04-0.26-0.07c-0.26-0.05-0.4-0.58-0.43-1.6c0-0.23-0.88-0.82-2.66-1.79c-1.39-0.76-2.36-0.64-2.89,0.35
			c-0.04,0.07-0.07,0.69-0.09,1.86c-0.05,2.75,0.38,4.38,1.3,4.87c0.57,0.31,1.34,0.21,2.32-0.31
			C126.87,321.03,127.87,319.95,129.55,317.99 M142,316.94c1.48-3.34,2.03-5.6,1.64-6.77c-0.3-0.89-1.6-2.42-3.92-4.59
			c-2.45-2.29-5.07-4.19-7.86-5.7c-0.57-0.31-1.39-0.34-2.46-0.1c0.63,0.43,0.97,0.71,1.03,0.83l1.66,3.29
			c1.6,2.87,2.47,4.42,2.6,4.63c0.13,0.21,0.76,0.68,1.87,1.43c0.76,1.32,1.37,2.2,1.83,2.63c0.21,0.21,1,0.93,2.34,2.15
			c0.36,0.33,0.62,0.93,0.81,1.81C141.56,316.66,141.71,316.78,142,316.94"/>
		<path class="st3" d="M194.41,171.73c1.58-1.36,2.7-2.81,3.36-4.34c0.12-0.36,1.06-2.64,2.79-6.81c1.81-5.13,2.99-8.15,3.52-9.05
			c1.02-1.84,2.21-3.27,3.56-4.28c2.41-1.8,5.05-2.55,7.92-2.26c1.84,0.2,3.08,0.71,3.7,1.55c0.61,0.81,0.66,2.75,0.16,5.83
			c-0.19,1.09-0.28,2.28-0.26,3.57c-0.17,4.27-0.19,6.87-0.08,7.83c0.23,1.72,0.56,2.85,0.96,3.4c0.65,0.87,2.49,1.99,5.52,3.37
			l0.14-2.13c-0.03-0.03,0.34-0.07,1.09-0.14c0.28-0.03,0.5-0.1,0.66-0.22c0.29-0.21,3.22-3.85,8.81-10.91l1.28-2.1l6.91-7.72
			c1.46-1.59,2.27-2.89,2.41-3.9c0.1-0.61-0.53-1.81-1.87-3.6c-0.8-1.07-1.44-1.63-1.92-1.68c-0.24-0.04-0.87,0.11-1.9,0.48
			c-3.77-0.96-6.83-1.07-9.16-0.32l-2-0.06c-3.06,0.85-4.7,1.24-4.9,1.17c-0.22-0.16-0.34-0.26-0.39-0.32
			c-0.3-0.4,0.21-1.53,1.53-3.37c2.73-3.85,4.82-6.3,6.27-7.39c0.48-0.36,2.27-0.88,5.35-1.57c2.01-0.92,3.62-1.42,4.81-1.5
			c1.74-0.14,3.6-0.16,5.58-0.05c0.21,0.02,1.33,0.54,3.34,1.56c0.95,0.33,1.51,0.6,1.68,0.84c0.33,0.43,0.6,1.27,0.82,2.5
			c0.1,0.74,0,1.35-0.29,1.83l0.85,1.53c1.05-1.06,2.56-2.93,4.51-5.61l4.38-5.49l2.92-2.12l1.46-1.15
			c0.51-0.38,1.11-0.63,1.78-0.73c0.12-0.04,1.74-0.02,4.87,0.08c1.43-0.03,2.26,0.02,2.51,0.15c0.76,0.34,1.3,0.74,1.65,1.2
			c0.37,0.49,0.45,1.11,0.25,1.84c-0.17,0.58-1.09,1.72-2.77,3.42c-2.78,4.46-4.93,7.26-6.47,8.41l-5.63,4.21
			c-0.55,0.41-1.1,0.98-1.65,1.71c-1.49,1.89-2.34,2.92-2.55,3.12c-0.88,0.83-1.24,1.35-1.09,1.55l2.1,2.62l0.88,3.19l1.04,2.6
			l0.65,2.28c0.25,0.26,0.68,0.17,1.29-0.29c1.22-0.91,2.58-2.2,4.09-3.86c0.27-0.3,0.46-0.49,0.56-0.56
			c0.7-0.52,2.49-1.32,5.35-2.38c1.24-0.48,2.38-0.63,3.41-0.46c3.37,0.55,5.55,1.51,6.57,2.86c0.8,1.07,1.43,2.58,1.89,4.54
			l1.8,7.64l2.31,8l0.53,4.33l0.31,1.32l0.29,2.09l0.59,1.99l0.72,7.29l0.14,0.98l0.14,2.6l0.13,0.98c0.16,1.15-0.39,3.19-1.63,6.15
			c-0.37,0.91-0.58,1.64-0.6,2.21c0.02,1.02-0.04,1.59-0.17,1.68c-0.19,0.14-0.67,0.25-1.42,0.31c-1.02,0.04-2.17-0.3-3.45-1.01
			c-2.87-1.64-4.37-2.47-4.5-2.51l-4.47-1.46l-1.1-0.87l-1.1-0.46l-0.98-0.81l-1.5-0.91c-0.02-0.03,0.01-0.19,0.09-0.47
			c0.11-0.26,0.18-0.4,0.21-0.43l0.22-0.02l0.48-0.16c7.3-0.28,11.14-0.56,11.53-0.84c0.45-0.34,0.56-1.79,0.34-4.37
			c-0.16-1.68-0.43-3.25-0.82-4.72l-0.07-1.91l-5.01-15.64c-1.72-5.25-2.88-8.27-3.48-9.08c-0.6-0.81-1.52-1.07-2.76-0.78
			c-1.66,0.39-3.18,1.1-4.56,2.13c-0.09,0.07-0.66,0.58-1.7,1.54c-1.19,0.89-1.83,1.5-1.93,1.84c-0.1,0.4,0.65,3.95,2.27,10.67
			l0.04,10.5c0.03,10.83-0.38,17.3-1.24,19.43l-0.54,1.28c-1.1,3.88-1.76,6.02-1.97,6.4c-0.38,0.69-0.8,1.21-1.25,1.54
			c-1.19,0.88-2.06,0.95-2.63,0.2c-0.17-0.23,0.23-1.5,1.21-3.81c0.89-2.02,1.15-4.96,0.77-8.81l-1.21-12.06l-2.74-15.72
			l-3.01-10.65l-1.14-4.14c-0.21-0.62-0.76-1.69-1.65-3.23l-8.46,10.37c-3.29,4.04-5.58,6.53-6.87,7.49
			c-0.64,0.48-1.33,0.7-2.06,0.66c-3.29-0.19-5.49-0.16-6.58,0.12c4.12,1.43,7.02,3.27,8.7,5.52c1.42,1.91,2.15,4.36,2.19,7.35
			c0.21,3.44,0.23,5.43,0.04,5.98c-0.7,2.01-1.46,3.34-2.27,3.99c-0.19,0.15-0.95,0.06-2.28-0.25c-1.79-0.19-2.94-0.41-3.43-0.68
			c-1.1-0.53-3.24-0.96-6.43-1.27l7.95,12.15l4.52,6.35c0.42-0.45,0.57-1.01,0.46-1.69c-0.04-0.25-0.58-2.38-1.64-6.41
			c-0.33-1.24-0.3-2.08,0.08-2.5c0.46,0.87,0.9,1.6,1.34,2.18c0.14,0.21,0.38,0.45,0.71,0.76c0.54,0.45,0.82,0.69,0.84,0.72
			l1.31,3.47l0.99,2.23c0.57,1.91,1.22,3.41,1.93,4.5c1.05,1.6,1.76,2.78,2.13,3.55c0.26,0.48,0.42,0.76,0.48,0.85
			c0.43,0.57,1.13,1.14,2.08,1.68c1.08,0.64,1.83,1.24,2.26,1.82c0.52,0.7,0.56,1.79,0.13,3.28c-0.33,1.1-0.59,1.72-0.79,1.87
			l-3.89,0.61l-2.96,0.05l-2.43,0.26l-1.37-1.33l-2.29-1.87l-16.35-22.29l-0.7-1.44l-7.68-11.69l-0.73-1.48
			c-0.03-0.03-0.83-0.44-2.42-1.23c-0.49-0.26-0.87-0.56-1.13-0.91c-0.75-1.01-1.07-2.13-0.93-3.35c0.12-1.18,0.5-2,1.15-2.48
			c1.31-0.98,3.52-0.61,6.62,1.13c2.62,1.5,4.9,2.67,6.81,3.49c1.97,0.96,3.14,1.46,3.52,1.5c3.04,0.39,4.75,0.43,5.14,0.15
			c0.32-0.24,0.44-0.67,0.38-1.3c-0.03-0.38-0.79-1.96-2.25-4.73c-6.42-2.9-9.98-4.61-10.67-5.13c-2.89-2.12-4.77-3.77-5.66-4.96
			c-0.15-0.2-0.43-0.74-0.83-1.61c-2.65,1.67-5.62,2.91-8.91,3.75c-3.85,0.94-6,1.24-6.45,0.91c-0.11-0.14-0.2-0.19-0.26-0.14
			l-0.16-0.01l-0.05-0.17L194.41,171.73z"/>
		<path class="st3" d="M365.35,82.92c0.52-0.66,0.86-1.04,1.04-1.16c0.07-0.09,1.69-0.91,4.88-2.48c1.23-0.59,4.07-2.93,8.53-7.01
			c0.17-0.15,1.81-1.51,4.91-4.09c1.29-1.09,2.22-1.99,2.81-2.7c0.75-0.9,1.72-1.81,2.92-2.73c2.24-1.8,3.19-3.5,2.85-5.09
			c-0.03-0.14-0.09-0.33-0.18-0.57c-0.48-1.3-0.74-2.03-0.78-2.21c-0.08-0.39,0.05-0.62,0.4-0.7c0.16-0.03,1.14,0.25,2.95,0.87
			c4.77,1.6,7.55,4.25,8.33,7.96c0.23,1.06,0.21,2.19-0.05,3.38c-0.26,1.2-0.66,2.06-1.2,2.58c-0.27,0.28-2.31,0.9-6.12,1.86
			c-0.88,0.44-1.6,0.76-2.13,0.95c-2.45,1-4.28,1.76-5.48,2.27c0.65,0.34,1.48,0.53,2.52,0.57l1.34,0.82
			c1.5-0.06,2.45,0.05,2.84,0.33c0.43,0.28,1.01,1.59,1.76,3.94c2.58,0.41,3.98,0.7,4.18,0.89c0.47,0.3,0.79,0.81,0.93,1.51
			c0.14,0.64,0.12,1.17-0.05,1.62c-0.17,0.44-0.81,1.63-1.91,3.56l-0.88,1.96l-0.85,0.9l-0.36,4.11l-0.33,0.74l0.09,0.98
			c-0.24,3.11-0.3,5.15-0.17,6.12c2.48-2.04,4.39-4.05,5.73-6.03c2.13-3.11,3.55-5.77,4.26-7.99c0.44-1.42,0.86-2.4,1.28-2.93
			c-0.13,1.32-0.12,3.58,0.03,6.8c0.01,0.44-0.11,1.02-0.37,1.74c-1.24,3.62-3.31,7.27-6.22,10.95c-2.13,2.7-3.2,4.78-3.23,6.22
			c-0.01,0.33,0.08,1.05,0.27,2.15l1.25,10.52c0.45,4.63,0.87,8.61,1.25,11.96c0.22,1.98,0.22,3.99-0.01,6.03
			c-0.18,1.88-0.41,2.85-0.73,2.92l-0.06,0.01l-0.12,0.03c-0.08,0.02-0.67-0.45-1.77-1.39l-1.06-1.82l-1.89-3.14l-1.89-6.85
			l-0.91-3.12c-1.03-5.79-1.54-8.71-1.55-8.74c0.01-0.34,0-0.55-0.02-0.66c-0.06-0.28-0.19-0.4-0.38-0.36
			c-0.35,0.08-2.33,2.14-5.94,6.19c-2.84,3.19-4.54,4.84-5.09,4.96c-1.13,0.24-2.37-0.19-3.72-1.31c-0.94-0.76-1.51-1.4-1.7-1.91
			l-0.86-2.31c-0.33-0.6-0.51-0.96-0.54-1.1c-0.16-0.74,0.06-1.86,0.64-3.34c0.26-0.53,1.73-1.89,4.42-4.09
			c1.92-1.55,4.07-4.28,6.44-8.17c1.51-2.54,2.17-5.57,2-9.11c-2.03,1.24-3.53,2.45-4.52,3.62c-1.65,1.86-2.66,3.11-3.01,3.74
			c-0.71,1.29-1.11,2-1.21,2.14c-0.57,0.6-1.68,1.07-3.32,1.43c-1.14,0.24-2.32,0.16-3.56-0.24c-3.06-0.93-4.63-1.43-4.68-1.5
			c-0.74-0.39-2.01-1.56-3.82-3.5c-0.7-0.77-1.33-1.32-1.89-1.64c-0.56-0.32-1.26-1.1-2.09-2.32c-1.19-1.33-1.79-2.08-1.83-2.26
			c-0.07-0.32,0.12-0.52,0.55-0.61c0.08-0.02,1.63,0.13,4.65,0.45c0.12,0.01,0.44-0.04,0.95-0.15c1.8-0.38,3.11-0.79,3.92-1.22
			l4.3-2.3l13.44-6.73c0.85-0.44,1.2-0.81,1.06-1.11l-0.87-1.75l-0.67-2.29c-0.02-0.1-0.24-0.28-0.67-0.52
			c-0.86-0.55-1.71-1.7-2.58-3.44l-3.89,1.38c-1.3,0.8-2.45,1.3-3.43,1.5c-0.15,0.04-0.55,0.08-1.2,0.15
			c-1.29,0.13-2.38,0.29-3.28,0.48C367.98,81.92,366.42,82.4,365.35,82.92 M451.04,141.98l-5.41-8.97l-4.2-16.31l-4.54-19.06
			l-14.86,9.02c-0.18,0.11-0.75,0.62-1.7,1.52c-0.92,0.89-2.26,1.79-4.04,2.68c-2.1,1.08-3.71,1.73-4.8,1.97
			c-1.26,0.26-2.55,0-3.86-0.79c-0.33-0.19-1.11-1.16-2.34-2.93l-0.1-0.14l0.03-0.17l0.02-0.78l0.38-0.8l0.95-2.75
			c0.01-0.15,0.34-0.53,0.98-1.15c1.41-1.48,3.8-4.55,7.2-9.22c1.81-2.45,3.23-4.73,4.26-6.82c0.49-0.95,0.72-1.5,0.69-1.64
			c-0.18-0.88-1.18-1.33-2.99-1.36c-2.18-0.05-3.58-0.29-4.2-0.71c-0.39-0.29-0.69-0.93-0.9-1.91c-0.2-0.95-0.1-1.95,0.29-2.99
			c0.08-0.2,1.78-2.61,5.1-7.23c0.45-1.57,0.65-2.42,0.62-2.57c-0.05-0.21-0.98-0.84-2.8-1.89l-1.7-1.07l-2.04-0.62
			c-1-0.26-2.02-0.73-3.06-1.39c-0.23-0.14-0.52-0.3-0.84-0.48l-0.07-0.04l0.05-0.07c0.13-0.55,0.59-0.9,1.37-1.07
			c0.31-0.07,0.81-0.14,1.49-0.21c0.48-0.07,1.29-0.2,2.43-0.41c4.74-1.01,8.48-1.05,11.22-0.12c1.72,0.55,3.27,1.48,4.65,2.77
			c0.78,0.76,1.21,1.38,1.32,1.88c0.21,0.98-0.32,2.15-1.6,3.49c-0.7,0.74-1.37,1.25-2.01,1.53l-6.32,2.67
			c-1.35,0.58-2.09,1.63-2.22,3.13l-0.03,0.17c0.13,0.41,1.22,0.44,3.27,0.08c1.77-0.34,4.18,0.29,7.23,1.89
			c1.53,0.82,2.39,1.72,2.6,2.71c0.19,0.89,0.01,1.77-0.54,2.66c-0.26,0.5-1.68,1.67-4.23,3.5l-2.01,1.82l-2,1.03l-1.44,1.3
			l-1.91,1.13l-3,3.79l-4.63,5.13c-0.29,0.76-0.43,1.16-0.42,1.2c0.13,0.6,0.52,0.81,1.18,0.63c2.7-0.76,6.97-3.37,12.78-7.81
			c5.17-3.42,8.21-5.45,9.12-6.09c0.91-0.64,1.5-1.19,1.77-1.65c0.24-0.42,0.34-0.81,0.31-1.17l-2.79-14.84l-0.3-1.71l-3.58-16.83
			c-0.07-0.36-0.79-1.29-2.13-2.81c-0.64-0.67-1.44-1.17-2.41-1.48c-1.45-0.43-2.2-0.79-2.26-1.07c-0.08-0.38,0.45-1.05,1.6-2
			c1.95-1.82,3.81-2.91,5.57-3.29c3.06-0.65,5.21-0.76,6.45-0.32c1.06,0.36,2.46,1.52,4.18,3.48c1.18,1.34,1.84,2.41,1.98,3.23
			l1.94,13.14l-0.3,1.78l1.6,11.89c0.17,1.33,0.35,2.51,0.57,3.53c0.27,1.27,0.76,1.83,1.47,1.68l0.84-0.4l3.93-2
			c3.6-2.16,5.63-3.3,6.1-3.39c2.7-0.57,5.5-0.14,8.39,1.31c0.83,0.41,1.31,0.96,1.45,1.63c0.41,1.9-1.19,3.46-4.79,4.67
			c-3.28,1.14-4.94,1.72-4.98,1.72l-2.84,1.71c-2.76,1.44-4.39,2.31-4.88,2.64c-0.48,0.32-0.85,0.68-1.1,1.06
			c-0.91,1.67-1.17,3.73-0.77,6.19l1.91,12.15L452,117l0.21,5.87l0.82,3.59l-0.02,2.22c0.25,3.3,0.19,5.84-0.16,7.61
			c-0.13,0.76-0.17,1.31-0.15,1.63c0.08,2.31,0.04,3.55-0.12,3.73c-0.21,0.19-0.39,0.31-0.54,0.34
			C451.8,142.04,451.47,142.04,451.04,141.98"/>
		<path class="st3" d="M585.43,88.17c3.16-2.12,5.51-3.76,7.04-4.89c0.6-0.49,0.95-0.74,1.04-0.76l7.52-2.17l2.24-0.93l1.12-0.02
			l3.05-1.2c2.75-0.52,4.27-0.88,4.56-1.07c0.38-0.24,1.1-1.51,2.16-3.78l1.87-2.79c1.31-3.21,2.1-5.1,2.4-5.67
			c0.38-0.76,0.62-1.34,0.7-1.72c0.09-0.39,0.14-0.98,0.16-1.79c0-0.92,0.03-1.74,0.06-2.43c0.09-1.13-0.07-1.98-0.47-2.55
			c-0.74-1.06-1.93-2.42-3.57-4.09c-0.34-0.34-0.5-0.69-0.5-1.06l0.02-0.1c0.02-0.11,0.12-0.17,0.29-0.21
			c1.81-0.36,3.17-0.46,4.08-0.29c0.67,0.12,1.4,0.19,2.17,0.21c0.48,0.04,0.74,0.06,0.78,0.07c2.42,0.55,4.7,2.2,6.83,4.94
			c1.5,1.9,1.97,4.09,1.39,6.59c-0.2,0.91-0.98,2.86-2.32,5.85c-0.62,1.46-1.21,3.06-1.77,4.82c-0.33,1.07-0.72,1.79-1.17,2.17
			c-0.1,0.09-0.16,0.15-0.16,0.19c-0.01,0.04,0.03,0.21,0.12,0.53c0.13,0.32,0.24,0.5,0.31,0.52l0.12,0.02l0.11,0.03l1.29-0.53
			l1.03,0.34c0.08,0.02,0.42-0.05,1.03-0.21c0.62-0.19,1.2-0.22,1.75-0.1c0.23,0.06,0.53,0.2,0.89,0.43
			c0.81,0.59,1.43,0.94,1.86,1.04c0.16,0.03,0.67-0.14,1.54-0.54l1.09,0.64c1.54,0.65,2.45,1.06,2.74,1.24
			c0.29,0.17,0.54,0.42,0.76,0.73c1.3,2.04,1.89,3.35,1.75,3.95c-0.25,1.13-1.75,1.9-4.47,2.31l-5.39,1.21l-3.08-0.03l-1.53,0.48
			l-1.34,0.19l-0.71,0.4l-1.34,0.19l-2.13,1.23l-2.14,1.01l-0.59,0.98l-2.43,2c-0.32,0.86-0.68,1.43-1.08,1.75
			c1.73,0.17,3.24,0.41,4.53,0.7c1.29,0.29,2.74,1.07,4.34,2.32c1.85,1.46,2.84,2.33,2.98,2.62c0.47,1.18,0.58,2.31,0.33,3.41
			c-0.12,0.52-1.62,3.14-4.5,7.85l-1.18,2.73c-1.59,2.3-2.41,3.56-2.46,3.77c-0.05,0.21,0.91,1.51,2.88,3.88
			c0.13,0.14,0.15,0.4,0.06,0.79c0.34-0.03,0.6-0.03,0.8,0.02c0.39,0.09,0.82,0.5,1.26,1.23c0.12,0.21,0.74,0.89,1.88,2.03
			c0.6,0.62,1.1,0.97,1.48,1.06l1.8,1.3l1.27,0.68l1.05,1.35l5,3.75l1.48,1.89l4.13,4.32c3.17,4.31,4.73,6.55,4.69,6.73l-0.03,0.11
			l-0.03,0.1c-0.04,0.18-0.26,0.33-0.66,0.46c-0.81,0.29-1.64,0.34-2.5,0.15c-1.17-0.27-2.76-0.89-4.76-1.86
			c-1.33-0.67-2.56-1.14-3.69-1.4c-0.9-0.21-2.69-0.11-5.37,0.27c-0.89,0.13-3.1-0.11-6.61-0.73l-1.48-0.28l-1.77-1.45
			c-2.23-1.22-3.46-1.88-3.67-2c-0.1-0.1-0.4-0.76-0.9-1.98l-1.53-2.24c-0.4-2.05-1.04-3.75-1.92-5.1c-1.06-1.65-1.6-2.55-1.6-2.7
			l0.15-1.19c-0.01-0.33-0.14-0.67-0.39-1.03c-0.35-0.45-0.64-0.7-0.87-0.75c-0.12-0.03-0.35,0.01-0.7,0.12
			c-0.4,0.1-0.76,0.18-1.11,0.24c-1.55,0.28-2.87,0.69-3.98,1.26c-0.52,0.29-1.44,0.56-2.77,0.81c-3.72,0.78-7.41,1.12-11.09,1.02
			l-13.57-0.26c-0.19,0.1-1.19,1.34-3,3.7l-2.54,0.87l-1.62,0.85c-0.94,0.53-1.68,0.72-2.23,0.6c-0.35-0.08-0.61-0.21-0.77-0.4
			l-1.75-3.67l-1.77-2.79l-3.07-4.92l-3.23-3.18c-1.01-1.15-1.73-1.78-2.16-1.88l-1.07-0.19l-1.43-1.05l-1.18-0.77l-0.7-0.71
			c-1.75-1.18-2.86-2.13-3.35-2.87c-0.09-0.17-0.49-0.74-1.21-1.72c-0.95-1.44-1.35-2.47-1.2-3.1l0.04-0.16
			c0.25-1.09,1.21-1.74,2.91-1.95c0.72-0.09,1.58-0.34,2.57-0.74c1.91-0.08,3.29-0.29,4.15-0.61c2.07-0.79,3.47-1.35,4.21-1.7
			c0.37-0.17,1-0.51,1.9-1.01c0.66-0.37,1.12-0.61,1.4-0.74l9.02-3.6c2.63-1.07,4.14-2.28,4.53-3.63c1.46-5.14,2.43-8.4,2.91-9.77
			c-1.94,0.04-3.37,0.18-4.29,0.41c-0.79,0.19-1.59,0.3-2.42,0.34l-2.17,0.62l-3.95,0.82c-2.54,1.42-4.08,2.2-4.6,2.33
			c-1.27,0.34-2.67,0.34-4.19-0.01c-0.78-0.18-1.44-0.44-1.98-0.78c-0.08-0.02-0.99-0.97-2.74-2.84l-1.36-1.37
			c-2.36-3.68-3.53-5.58-3.51-5.68c0.06-0.28,0.35-0.52,0.85-0.75c0.26-0.09,2.04,0.06,5.32,0.44c1.44,0.18,6.43-0.79,14.97-2.91
			c5.13-1.76,8.09-2.73,8.87-2.92c1.79-0.44,2.92-0.91,3.4-1.39c0.1-0.05,0.51-0.81,1.26-2.27l0.67-1.29L582,64.3l0.56-0.6
			l0.32-1.93l0.62-2.69l-0.5-1.89l-0.19-1.31c-2.7-3.69-4.01-5.67-3.94-5.95c0.24-1.06,1.75-1.27,4.52-0.64
			c5.04,1.15,8.57,3.15,10.59,6.02c0.39,0.61,0.61,2.19,0.65,4.75l0.02,0.17l-0.12,0.25l-2.92,9.82c-0.05,0.21,0.87,1.4,2.77,3.58
			c0.81,0.93,1.15,1.7,1,2.34c-0.03,0.14-0.72,0.89-2.05,2.25l-1.54,1.87c-2.22,0.72-3.45,1.25-3.7,1.6
			c-0.46,0.6-0.96,1.7-1.49,3.32C586.35,85.96,585.96,86.92,585.43,88.17 M572.56,103.49c-1.64,1.07-2.81,1.95-3.5,2.64
			c-2.47,2.51-3.77,3.8-3.91,3.88l-2.64,1.28c-0.29,0.16-0.74,0.63-1.37,1.41c-0.73,0.87-1.13,1.34-1.18,1.4
			c-0.8,0.96-1.24,1.63-1.32,1.98c-0.1,0.45,0.81,1.33,2.73,2.62c0.25,0.17,0.81,0.68,1.68,1.55c1.39,1.31,2.61,2.09,3.66,2.34
			c0.98,0.22,1.48,0.09,1.5-0.38l0.16-2.29l2.9-12.71L572.56,103.49z M602.49,105.55c-1.13-2.07-1.59-3.49-1.37-4.25l0.55-1.87
			c0.45-1.79,0.78-2.86,0.98-3.22c0.09-0.2,0.58-1.03,1.49-2.49l0.91-3.18l0.15-0.36c0.1-0.46-0.24-0.78-1.02-0.96
			c-0.07-0.02-0.24-0.02-0.49,0c-0.37-0.01-0.86-0.09-1.49-0.23c-2.07-0.47-3.69-1.29-4.87-2.44c-0.1-0.1-0.19-0.16-0.27-0.17
			l-0.2,0.06c-0.04-0.01-0.1,0-0.19,0.01c-0.3,0.04-0.51,0.16-0.63,0.36c0.01-0.22-0.1-0.36-0.34-0.41
			c-0.74-0.17-1.35-0.22-1.82-0.14c-0.51,0.07-1.74,0.95-3.69,2.65c-1.7,1.17-2.79,2.05-3.25,2.65c-0.17,0.22-0.99,1.25-2.44,3.1
			l-0.74,1.89l-1.13,2.79l-3.37,11c-0.48,1.56-0.79,2.67-0.94,3.34c-0.38,1.65-0.6,3.51-0.66,5.57c-0.02,0.81-0.07,1.41-0.16,1.79
			c-0.05,0.25-0.2,0.59-0.41,1.02c-0.57,1.2-0.92,2.14-1.07,2.81c-0.1,0.43,0.05,0.68,0.44,0.77l3.78-0.08
			c3.73-1.03,6.2-1.67,7.4-1.92c3.36-0.64,6.11-1.53,8.26-2.67c0.7-0.36,1.14-0.57,1.32-0.64c1.09-0.45,2-0.95,2.74-1.48
			c1.95-0.45,3.04-1.19,3.28-2.25c0.36-1.58-0.69-3.43-3.17-5.55c-2.4-2.1-4.75-3.41-7.06-3.94l-9.08-2.35
			c-0.89-0.61-1.29-1.22-1.19-1.82c0.01-0.03,0.24-0.31,0.69-0.84c0.26-0.27,0.87-0.3,1.81-0.09c0.08,0.02,0.95,0.31,2.64,0.88
			c0.19,0.08,2.82,0.33,7.91,0.75c0.69,0.05,1.23,0.12,1.62,0.2C598.8,104.15,600.5,104.73,602.49,105.55 M602.28,105.94
			c1.56,0.54,2.86,1.34,3.89,2.39c1.65,1.6,2.91,2.49,3.77,2.69c0.31,0.07,1.16-0.5,2.54-1.7c0.47-0.41,0.99-1.08,1.57-2.03
			c0.65-1.08,1.48-2.23,2.46-3.49c-0.29,0.19-0.47,0.26-0.54,0.21l-1.85-0.81c-0.27,0.46-1.13,0.71-2.57,0.75
			c-1.25,0.04-2.38,0.27-3.42,0.66c-1.81,0.73-2.97,1.15-3.46,1.26C604.17,105.99,603.38,106.01,602.28,105.94"/>
		<path class="st3" d="M706.88,176.02c-0.6,0.58-1.04,1.05-1.3,1.39c-0.65,0.83-0.68,1.46-0.11,1.91c3.1,2.4,9.58,2.97,19.43,1.71
			c5.37-0.72,9.65-1.93,12.83-3.61c1.57-0.84,3.67-2.29,6.32-4.34c-2.65-0.78-4.49-1.57-5.54-2.38c-1.08-0.84-2.44-2.52-4.06-5.06
			c-0.53-0.82-1.31-3.68-2.33-8.58c-0.6-2.89-0.8-5.02-0.58-6.41c0.09-0.7,0.06-1.23-0.08-1.56l-0.01-0.08l0.12-0.05
			c0.39-0.06,0.83,0.1,1.31,0.46c0.19,0.15,0.46,0.41,0.84,0.79c0.51,0.58,1.02,1.07,1.53,1.46c1.96,1.52,5.04,3.12,9.21,4.8
			c2.99,1.18,4.83,1.78,5.52,1.81c2.6,1.88,4.39,2.9,5.38,3.07c0.17,0.04,0.51-0.24,1.03-0.84l0.47,0.77
			c0.03,0.03,0.16-0.01,0.39-0.11c0.12-0.04,0.58,0.07,1.36,0.3c0.8,0.21,1.58,0.12,2.33-0.25c1.5-0.76,2.89-1.84,4.19-3.26
			c1.2-1.35,2-2.19,2.4-2.51l8.2-6.66l0.19-0.06l-0.04-0.03c-0.08-0.1,0.38-0.86,1.38-2.28l1.7-1.41c3.52-3.57,5.37-5.47,5.55-5.69
			c0.95-1.23,0.73-2.38-0.67-3.46c-0.82-0.64-1.74-1.02-2.75-1.16c-0.16,0.01-0.92,0.11-2.28,0.29l-1.01-0.37
			c-0.43-0.16-0.67-0.25-0.7-0.27c-0.29-0.22-0.34-0.44-0.16-0.67c0.03-0.03,0.09-0.05,0.19-0.05c0.62-0.07,2.1-0.77,4.44-2.1
			c0.45-0.25,1.52-0.56,3.23-0.93c2.26-0.71,4.1-0.52,5.5,0.56c0.12,0.1,0.31,0.31,0.56,0.64c1.1,1.4,1.67,2.13,1.71,2.22
			c0.74,0.8,1.45,1.92,2.12,3.35c1.49,2.07,2.34,3.62,2.55,4.65c0.79,3.44,0.53,5.99-0.77,7.68c-0.4,0.51-1.05,1.2-1.96,2.04
			l-9.66,8.74c1.65,1.73,3.04,3.04,4.18,3.92c0.6,0.47,2.33,1.51,5.18,3.12c0.6,0.33,1.18,0.71,1.72,1.12
			c2.47,1.92,4.89,4.95,7.25,9.11c0.85,1.52,1.05,2.57,0.61,3.14c-0.04,0.06-0.16,0.11-0.34,0.15c-2.3,0.68-3.6,1.14-3.88,1.37
			l-2.07,1.69c-0.1,0.06-1.72,0.02-4.84-0.12c-2.7-0.32-4.63-0.53-5.8-0.66c-0.56-0.07-1.84-0.44-3.84-1.13l-6.1-0.96l-9.41-2.97
			l-1.98,0.11c-2.08,0.08-3.32,0.19-3.7,0.36c-0.15,0.06-2.64,1.22-7.46,3.46l-6.67,3.8c-7.87,4.21-12.07,6.46-12.59,6.74
			c-0.3,0.19-2.1,0.78-5.4,1.77c-1.18,0.41-1.98,0.63-2.41,0.66c-0.22,0.02-1.42,0-3.61-0.06l-4.31-1.69
			c-3.46-1.22-5.32-1.91-5.57-2.05c-0.11-0.05-2.11-1.18-5.96-3.39c-0.22-0.17-1.17-1.3-2.86-3.38c-3.79-3.75-5.74-5.84-5.87-6.26
			c-0.16-0.39-0.18-0.66-0.07-0.8c0.13-0.17,1.16-0.15,3.08,0.06c0.33,0.03,0.9-0.28,1.71-0.93
			C704.85,175.75,705.87,175.55,706.88,176.02 M759.21,195.33l1.58,1.3c1.95,1.55,3.14,2.59,3.59,3.12c0.3,0.33,1.19,1.61,2.65,3.84
			l0.57,0.65l1.03,1.41c2.18,2.29,3.56,4.03,4.14,5.26c0.44,0.93,1.4,2.31,2.87,4.14c0.62,1.17,0.99,1.86,1.12,2.1
			c0.28,0.49,0.51,1.56,0.7,3.22c0.08,0.74,0.37,1.74,0.87,3c0.44,1.07,0.17,3.42-0.81,7.04c-0.52,1.92-1.21,3.44-2.07,4.55
			c-2.32,3-3.87,4.35-4.66,4.06c-0.15-0.07-0.29-0.09-0.42-0.05c0.49-1.67-0.17-3.51-1.98-5.5c-0.94-1.01-1.49-1.7-1.65-2.1
			l-2.04-4.93l-1.2-1.89l-2.19-6.01l-0.98-1.38l-0.98-2.27l-1.19-2.09l-1.32-4.58l-1.86-5.75l-1.46-4.89
			c-0.68-1.8-1.05-2.73-1.11-2.78l-1.49-1.02l-1.39-2.03l-2.36-1.76c-0.53-0.5-0.64-0.95-0.33-1.34c0.26-0.34,0.74-0.37,1.42-0.07
			l3.6,2.03l2.04,1.1l3.56,2.76L759.21,195.33z M777.85,164.39c1.33,0.71,2.43,1.38,3.31,2.01c0.28,0.04,0.47,0.05,0.58,0.04
			c0.13-0.04,0.21-0.05,0.24-0.02l0.9,0.9l-0.02-0.57c-0.01-0.05,0-0.09,0.02-0.12l0.08-0.01c0.24-0.12,0.4-0.17,0.47-0.11
			l1.66,1.49l0.28-0.26c0.05-0.19-0.26-0.62-0.92-1.27c-0.46-0.45-0.86-0.96-1.17-1.53c-0.4-0.67-0.72-1.1-0.98-1.3
			C781.6,163.12,780.11,163.36,777.85,164.39"/>
		<path class="st3" d="M886,292.03c0.08-0.77,0.26-2.42,0.52-4.95c0.16-1.4,0.46-2.35,0.89-2.84l1.2-1.44l1.6-2.2
			c0.92-1.2,2.96-2.79,6.12-4.76c1.1-0.71,1.91-1.29,2.44-1.75c0.31-0.26,0.55-0.43,0.71-0.51c0.93-0.49,1.62-0.4,2.09,0.26
			c0.06,0.28-0.19,1-0.76,2.16c-0.05,0.07-0.42,1.53-1.12,4.39c-0.33,1.39-0.49,2.52-0.49,3.38c1.24-0.33,2.16-0.43,2.72-0.27
			l2.28,0.5c0.81-0.15,1.38-0.09,1.69,0.2l0.1,0.09l-0.08,0.78c-0.02,0.19-0.14,0.35-0.37,0.47c-0.19,0.1-0.67,0.26-1.46,0.49
			c-0.17,0.05-0.31,0.1-0.4,0.15c-0.22,0.12-1.83,1.29-4.81,3.53c-1.06,1.01-2.43,2.29-4.1,3.84c-0.48,0.48-0.81,1.01-0.99,1.6
			c-0.15,0.48-0.38,0.81-0.66,0.96l-0.14,0.07c-0.86,0.45-1.61,0.66-2.24,0.63l-0.07-0.03c-0.19,0.19-0.22,0.39-0.11,0.6
			c0.15,0.29,0.65,0.79,1.53,1.51c0.12,0.07,0.61,0.63,1.48,1.67c1.7,2,5.06,3.41,10.09,4.22c-1.06-2.02-1.53-3.52-1.43-4.48
			c0.38-3.32,1.93-5.85,4.64-7.59c2.43-1.58,3.77-3.1,4.03-4.55c0.03-0.19,0.12-1.21,0.29-3.07c0.04-0.16,0.09-0.25,0.16-0.28
			c0.51-0.27,1.14,0.31,1.88,1.73c0.56,1.07,0.89,2.23,0.98,3.49c-0.02,0.28-0.07,1.85-0.17,4.7c0,0.09,0.03,0.16,0.06,0.24
			c0.15,0.29,2.01,0.37,5.58,0.27c1.59-0.07,3.69,0.83,6.29,2.68c2.2,1.56,3.76,3.21,4.67,4.95c1.77,3.37,2.29,7.07,1.6,11.11
			c-0.58,3.33-2.08,5.63-4.51,6.9c-1.18,0.62-2.49,0.81-3.92,0.56c-0.31-0.06-2.48-0.78-6.5-2.16c-2.88-0.84-4.82-1.66-5.8-2.46
			c-1.77-1.43-2.91-2.29-3.43-2.58c-0.52-0.29-1.46-0.61-2.81-0.94c2.01,2.61,3.54,4.55,4.57,5.82c3.46,4.11,5.85,7.45,7.19,10.01
			c0.82,1.56,1.4,3.63,1.73,6.22c0.28,2.16,0.41,3.43,0.4,3.8c-0.05,0.76-0.44,1.84-1.17,3.26c-0.23,0.48-0.39,0.77-0.47,0.86
			c-0.6,1.26-1.03,1.93-1.27,2.02c-2.8,0.88-4.43,1.3-4.89,1.27c-0.62-0.08-2.55-1.24-5.8-3.48c-3.84-5.18-6.13-8.22-6.84-9.11
			c-0.71-0.89-1.27-1.41-1.67-1.56c-0.4-0.15-1.53,0.26-3.39,1.23l-11.27-5.43l-1.91-0.15c-1.28-0.19-1.98-0.25-2.11-0.19
			c-0.29,0.15-0.51,0.43-0.67,0.83c-0.27,0.73-0.2,1.49,0.21,2.26c0.58,1.1,2.11,2.93,4.58,5.47c1.05,1.08,1.89,2.2,2.5,3.38
			c1.32,2.52,1.57,5.1,0.76,7.75c-0.48,1.57-1.06,2.52-1.73,2.87c-0.57,0.3-1.11,0.13-1.61-0.51l-8.34-11.51
			c-1.89,0.76-3.27,1.38-4.17,1.84c-0.54,0.28-1.22,0.69-2.05,1.21c-0.87,0.5-1.48,0.85-1.84,1.03c-0.57,0.3-1.34,0.66-2.3,1.07
			c-0.36,0.18-2.49,0.58-6.41,1.18c-2.03,0.47-3.47,0.68-4.31,0.62c-2.56-0.15-4.7-0.8-6.4-1.94c-3.5-2.33-5.7-4.37-6.61-6.11
			c-0.4-0.78-0.59-3.31-0.55-7.58c0.02-3.63,0.28-6.59,0.78-8.89l0.6-4.93l4.86-9.73l0.45-2.07c1.12-1.12,1.85-1.78,2.2-1.96
			c0.48-0.25,1.07-0.18,1.77,0.22c0.12,0.07,0.95,0.73,2.49,1.96l1.97,1.2c0.14,0.11,0.52,0.57,1.15,1.37
			c0.14,0.19,0.54,0.69,1.2,1.48c0.85,1,1.67,2.06,2.46,3.19c2.25,3.21,3.76,5.15,4.53,5.84c1.33,1.15,2.05,1.78,2.13,1.87
			c1.37,1.68,2.21,2.5,2.52,2.48l0.12,0l0.09-0.18c0.4-1.56,0.71-2.36,0.95-2.39l2.42-0.38c1.1-0.31,1.82-0.41,2.15-0.32
			c0.18,0.05,1.5,0.55,3.97,1.52c0.45,0.17,1.32,0.06,2.58-0.33c-2.2-2.02-3.79-3.58-4.78-4.69c-1.21-1.31-2.97-2.92-5.28-4.84
			c-0.28-0.22-0.48-0.45-0.61-0.7c-0.5-0.96-0.56-2.2-0.17-3.71c0.4-1.57,1.39-2.76,2.95-3.58c0.96-0.5,1.77-0.66,2.45-0.47
			c0.1,0.04,0.47,0.33,1.14,0.9l2.61,0.33l0.33,0.17l0.18,0.11l0.7,2.27l1.25,1.46l2.25,3.02l1.99,1.94l0.64,1.23l1.73,1.67
			l1.15,1.5l1.59,1.41l3.16,3.36l0.58,0.51l3.05,3.97l5.82,3.06c3.67,2.1,6.03,2.88,7.08,2.33c0.71-0.37,0.79-1.3,0.26-2.78
			l-0.07-0.24l-0.1-0.08c-0.27-0.27-0.91-1.08-1.95-2.44c-0.63-0.81-2.34-2.3-5.16-4.49l-0.88-1.1l-7.52-7.6l-6.07-7.75l-3.07-3.89
			c-3.83-5.92-5.97-9.11-6.43-9.6c-1.31-1.4-3.17-2.28-5.59-2.64c-0.98-0.16-3.43,0.26-7.34,1.26l-7.45,0.92
			c-5.84,1.61-8.97,2.32-9.39,2.13c-0.69-0.31-1.22-0.81-1.57-1.48c-0.45-0.86-0.4-2.32,0.13-4.41c0.31-1.2,1.24-2.6,2.82-4.19
			c0.48-0.48,1.07-1.37,1.77-2.69c0.07-0.17,0.15-0.29,0.25-0.33l0.42-0.02l1.23-0.1l5.11,0.31c1.64,0.09,3.27-0.29,4.9-1.14
			c1.14-0.55,2.2-0.93,3.2-1.13l3.61-1.28c3.7-0.72,5.58-0.93,5.64-0.65l-0.02,0.08c0.11,0.44-0.01,0.75-0.36,0.93l-2.57,2.91
			c-2.34,1.99-3.38,3.31-3.13,3.94c0.05,0.1,0.07,0.17,0.04,0.19l-0.02,0.08l0.07,0.03c0.23,0.2,1.04,0.36,2.45,0.48
			c0.88,0.13,2.51,0.63,4.89,1.51C881.01,286.58,883.44,288.7,886,292.03 M865.96,330.75l0.05-0.03c0.36-0.32,0.4-0.75,0.12-1.29
			c-0.09-0.18-1.41-1.84-3.95-4.99l-3.89-3.93l-1.6-2.01l-1.75-1.6c-1.02-0.87-1.54-1.31-1.56-1.35l-1.82-0.67l-3.58-3.22l-0.2-0.03
			c-0.13-0.02-0.22-0.03-0.25,0c-0.03,0.02-0.06,0.07-0.09,0.18c-0.02,0.1-0.22,0.31-0.57,0.64c-0.36,0.41-0.58,1.3-0.68,2.66
			c-0.02,0.74-0.1,1.64-0.23,2.7c-0.15,1.43,0.07,3.79,0.64,7.06v2.1l0.64,1.1l0.28,2.29c1.33,2.38,2.14,3.77,2.42,4.16
			c1.04,1.44,2.73,2.1,5.06,1.97c3-0.17,5.1-0.64,6.29-1.4c3.06-2.01,4.65-3.13,4.77-3.38
			C866.11,331.54,866.09,331.22,865.96,330.75 M906.06,305.61l1.12,0.63l10.96,1.8c3.67,1.11,5.74,1.7,6.19,1.79
			c0.84,0.05,1.46-0.02,1.84-0.22c0.64-0.33,1.04-0.98,1.19-1.92c0.13-0.84,0.07-1.48-0.17-1.95c-0.13-0.25-1.42-1.74-3.87-4.49
			c-0.71-0.81-2.53-1.07-5.49-0.79c-2.03,0.16-3.23,0.33-3.58,0.52l-2.65,1.46l-1.51,0.38l-0.81,0.56L906.06,305.61z"/>
	</g>
	<g>
		<g>
			<linearGradient id="SVGID_1_" gradientUnits="userSpaceOnUse" x1="484.6051" y1="429.501" x2="490.1035" y2="279.2146">
				<stop  offset="0" style="stop-color:#7C2222"/>
				<stop  offset="0.0344" style="stop-color:#8B2122"/>
				<stop  offset="0.0934" style="stop-color:#9D2023"/>
				<stop  offset="0.1639" style="stop-color:#A92023"/>
				<stop  offset="0.2568" style="stop-color:#B11F23"/>
				<stop  offset="0.4585" style="stop-color:#B31F23"/>
				<stop  offset="0.5905" style="stop-color:#AB1F23"/>
				<stop  offset="0.7899" style="stop-color:#972122"/>
				<stop  offset="0.9837" style="stop-color:#7C2222"/>
				<stop  offset="1" style="stop-color:#7C2222"/>
			</linearGradient>
			<polygon class="st4" points="508.71,245.06 508.71,461.02 460.61,394.81 			"/>
			
				<linearGradient id="SVGID_00000081628789120824025500000004732652223427434645_" gradientUnits="userSpaceOnUse" x1="532.2275" y1="422.015" x2="519.3983" y2="280.8924">
				<stop  offset="0.2518" style="stop-color:#8D2722"/>
				<stop  offset="0.4307" style="stop-color:#A32223"/>
				<stop  offset="0.5963" style="stop-color:#B31F23"/>
				<stop  offset="1" style="stop-color:#8D2722"/>
			</linearGradient>
			
				<polygon style="fill-rule:evenodd;clip-rule:evenodd;fill:url(#SVGID_00000081628789120824025500000004732652223427434645_);" points="
				556.81,394.81 508.71,461.02 508.71,245.06 			"/>
			
				<linearGradient id="SVGID_00000076568605354590899500000014719756382162155136_" gradientUnits="userSpaceOnUse" x1="538.2119" y1="477.7635" x2="642.6791" y2="433.7773">
				<stop  offset="0.1211" style="stop-color:#8D2722"/>
				<stop  offset="0.4071" style="stop-color:#A32223"/>
				<stop  offset="0.6717" style="stop-color:#B31F23"/>
				<stop  offset="1" style="stop-color:#8D2722"/>
			</linearGradient>
			
				<polygon style="fill-rule:evenodd;clip-rule:evenodd;fill:url(#SVGID_00000076568605354590899500000014719756382162155136_);" points="
				586.48,486.32 586.56,486.57 508.71,461.02 714.02,394.31 			"/>
			
				<linearGradient id="SVGID_00000051343433738472378340000017420538687760372155_" gradientUnits="userSpaceOnUse" x1="479.751" y1="463.1087" x2="408.2122" y2="558.4937">
				<stop  offset="0" style="stop-color:#8D2722"/>
				<stop  offset="0.2203" style="stop-color:#8D2722"/>
				<stop  offset="0.3392" style="stop-color:#A32223"/>
				<stop  offset="0.4492" style="stop-color:#B31F23"/>
				<stop  offset="1" style="stop-color:#8D2722"/>
			</linearGradient>
			
				<polygon style="fill-rule:evenodd;clip-rule:evenodd;fill:url(#SVGID_00000051343433738472378340000017420538687760372155_);" points="
				381.76,635.74 430.86,486.32 508.71,461.02 			"/>
			
				<linearGradient id="SVGID_00000035525218311219795610000008991830675053805229_" gradientUnits="userSpaceOnUse" x1="303.3202" y1="440.3162" x2="508.7137" y2="440.3162">
				<stop  offset="0" style="stop-color:#7C2222"/>
				<stop  offset="0.0344" style="stop-color:#8B2122"/>
				<stop  offset="0.0934" style="stop-color:#9D2023"/>
				<stop  offset="0.1639" style="stop-color:#A92023"/>
				<stop  offset="0.2568" style="stop-color:#B11F23"/>
				<stop  offset="0.4585" style="stop-color:#B31F23"/>
				<stop  offset="0.5679" style="stop-color:#AB1F23"/>
				<stop  offset="0.7333" style="stop-color:#972122"/>
				<stop  offset="0.894" style="stop-color:#7C2222"/>
			</linearGradient>
			
				<polygon style="fill-rule:evenodd;clip-rule:evenodd;fill:url(#SVGID_00000035525218311219795610000008991830675053805229_);" points="
				508.71,461.02 430.86,486.32 303.32,394.31 			"/>
			
				<linearGradient id="SVGID_00000134243463170313976640000007930140301148418186_" gradientUnits="userSpaceOnUse" x1="484.5517" y1="427.939" x2="371.065" y2="391.015">
				<stop  offset="8.486050e-03" style="stop-color:#8D2722"/>
				<stop  offset="0.2374" style="stop-color:#A32223"/>
				<stop  offset="0.4492" style="stop-color:#B31F23"/>
				<stop  offset="0.8763" style="stop-color:#8D2722"/>
			</linearGradient>
			
				<polygon style="fill-rule:evenodd;clip-rule:evenodd;fill:url(#SVGID_00000134243463170313976640000007930140301148418186_);" points="
				508.71,461.02 303.32,394.31 460.61,394.81 			"/>
			
				<linearGradient id="SVGID_00000062152859557242580590000005634289665994503565_" gradientUnits="userSpaceOnUse" x1="381.7568" y1="548.3762" x2="508.7137" y2="548.3762">
				<stop  offset="0" style="stop-color:#7C2222"/>
				<stop  offset="0.0344" style="stop-color:#8B2122"/>
				<stop  offset="0.0934" style="stop-color:#9D2023"/>
				<stop  offset="0.1639" style="stop-color:#A92023"/>
				<stop  offset="0.2568" style="stop-color:#B11F23"/>
				<stop  offset="0.4585" style="stop-color:#B31F23"/>
				<stop  offset="0.5905" style="stop-color:#AB1F23"/>
				<stop  offset="0.7899" style="stop-color:#972122"/>
				<stop  offset="0.9837" style="stop-color:#7C2222"/>
				<stop  offset="1" style="stop-color:#7C2222"/>
			</linearGradient>
			<polygon style="fill:url(#SVGID_00000062152859557242580590000005634289665994503565_);" points="508.71,461.02 508.71,542.8 
				381.76,635.74 			"/>
			
				<linearGradient id="SVGID_00000121268779031153214860000005361397369191714967_" gradientUnits="userSpaceOnUse" x1="508.7137" y1="548.3762" x2="635.5864" y2="548.3762">
				<stop  offset="0" style="stop-color:#7C2222"/>
				<stop  offset="0.0344" style="stop-color:#8B2122"/>
				<stop  offset="0.0934" style="stop-color:#9D2023"/>
				<stop  offset="0.1639" style="stop-color:#A92023"/>
				<stop  offset="0.2568" style="stop-color:#B11F23"/>
				<stop  offset="0.4585" style="stop-color:#B31F23"/>
				<stop  offset="0.5905" style="stop-color:#AB1F23"/>
				<stop  offset="0.7899" style="stop-color:#972122"/>
				<stop  offset="0.9837" style="stop-color:#7C2222"/>
				<stop  offset="1" style="stop-color:#7C2222"/>
			</linearGradient>
			<polygon style="fill:url(#SVGID_00000121268779031153214860000005361397369191714967_);" points="635.59,635.74 508.71,461.02 
				586.56,486.57 			"/>
			
				<linearGradient id="SVGID_00000075845885303864716510000002999955438948395455_" gradientUnits="userSpaceOnUse" x1="508.7137" y1="427.6629" x2="714.0225" y2="427.6629">
				<stop  offset="0" style="stop-color:#7C2222"/>
				<stop  offset="0.0344" style="stop-color:#8B2122"/>
				<stop  offset="0.0934" style="stop-color:#9D2023"/>
				<stop  offset="0.1639" style="stop-color:#A92023"/>
				<stop  offset="0.2568" style="stop-color:#B11F23"/>
				<stop  offset="0.4585" style="stop-color:#B31F23"/>
				<stop  offset="0.5905" style="stop-color:#AB1F23"/>
				<stop  offset="0.7899" style="stop-color:#972122"/>
				<stop  offset="0.9837" style="stop-color:#7C2222"/>
				<stop  offset="1" style="stop-color:#7C2222"/>
			</linearGradient>
			<polygon style="fill:url(#SVGID_00000075845885303864716510000002999955438948395455_);" points="714.02,394.31 508.71,461.02 
				556.81,394.81 			"/>
			
				<linearGradient id="SVGID_00000133525852320720436020000008391974603940531619_" gradientUnits="userSpaceOnUse" x1="512.6374" y1="506.5753" x2="580.4899" y2="587.2648">
				<stop  offset="0" style="stop-color:#8D2722"/>
				<stop  offset="0.2333" style="stop-color:#A32223"/>
				<stop  offset="0.4492" style="stop-color:#B31F23"/>
				<stop  offset="1" style="stop-color:#8D2722"/>
			</linearGradient>
			
				<polygon style="fill-rule:evenodd;clip-rule:evenodd;fill:url(#SVGID_00000133525852320720436020000008391974603940531619_);" points="
				635.59,635.74 508.71,542.8 508.71,461.02 			"/>
		</g>
		<g>
			<path class="st2" d="M643.64,646.83l-134.93-98.84L373.7,646.83l52.23-158.9l-135.63-97.85l167.26,0.53l51.16-159.25
				l51.15,159.25l167.18-0.53l-135.63,97.85L643.64,646.83z M316.35,398.54l119.46,86.18l-45.99,139.93l118.9-87.04l118.82,87.03
				l-45.9-139.67l2.4-2.04L701,398.54l-147.24,0.47l-45.05-140.25l-45.05,140.25L316.35,398.54z"/>
		</g>
	</g>
	<g>
		<path class="st2" d="M474.91,408.24l5.06,10.55h42.65c0,0-0.88,33.42,15.17,48.15l13.19-8.14c0,0-22.42-28.58-8.57-47.05
			l-10.72-9.17l-4.67,6.31L474.91,408.24z"/>
		<path class="st2" d="M479.42,430.17H495c0,0-0.37,21.89-21.27,35.86l-0.74-1.61C472.99,464.42,482.02,452.92,479.42,430.17"/>
		<polygon class="st2" points="466.14,486.41 472.34,499.55 541.35,499.55 551.2,485.87 539.88,479.11 535.14,486.41 		"/>
	</g>
</g>
</svg>
