<svg xmlns="http://www.w3.org/2000/svg" xmlns:xlink="http://www.w3.org/1999/xlink" fill="none" version="1.1" width="6499.990234375" height="6499.970703125" viewBox="0 0 6499.990234375 6499.970703125"><g><g><ellipse cx="3250.00146484375" cy="3249.989990234375" rx="3200.739990234375" ry="3200.739990234375" fill="#FFFFFF" fill-opacity="1"/></g><g><g><path d="M3250.06,0C4147.31,0,4959.87,363.86,5548.01,952.01C6136.13,1540.16,6499.99,2352.68,6499.99,3250C6499.99,4147.31,6136.13,4959.81,5548.01,5547.95C4959.87,6136.1,4147.31,6499.97,3250.06,6499.97C2352.74,6499.97,1540.16,6136.1,952.01,5547.98C363.86,4959.84,0,4147.31,0,3250C0,2352.68,363.86,1540.16,952.01,952.01C1540.16,363.89,2352.71,0,3250.06,0L3250.06,0ZM5480.05,1019.97C4909.34,449.25,4120.82,96.1299,3250.06,96.1299C2379.27,96.1299,1590.75,449.22,1019.97,1019.97C449.251,1590.69,96.1208,2379.21,96.1208,3250C96.1208,4120.79,449.251,4909.31,1019.97,5480.02C1590.75,6050.77,2379.24,6403.84,3250.06,6403.84C4120.82,6403.84,4909.34,6050.71,5480.05,5479.99C6050.77,4909.25,6403.87,4120.75,6403.87,3250C6403.87,2379.24,6050.77,1590.72,5480.05,1019.97Z" fill="#005641" fill-opacity="1"/></g><g><path d="M3250.472138671875,164.2802734375C4102.312138671875,164.2802734375,4873.752138671875,509.7302734375,5432.082138671875,1068.1002734375002C5990.452138671875,1626.4702734375,6335.902138671875,2397.8702734375,6335.902138671875,3249.7802734375C6335.902138671875,4101.6802734375,5990.482138671875,4873.0502734375,5432.112138671875,5431.4202734375C4873.752138671875,5989.7902734375,4102.372138671875,6335.2402734375,3250.472138671875,6335.2402734375C2398.632138671875,6335.2402734375,1627.192138671875,5989.8202734375,1068.7621386718752,5431.4202734375C510.422138671875,4873.0502734375,164.942138671875,4101.6802734375,164.942138671875,3249.7802734375C164.942138671875,2397.9002734375,510.422138671875,1626.5002734375,1068.792138671875,1068.1312734375C1627.162138671875,509.7602734375,2398.632138671875,164.2807617185,3250.472138671875,164.2802734375L3250.472138671875,164.2802734375ZM5407.832138671875,1092.3502734375002C4855.682138671875,540.1702734375,4092.872138671875,198.5702734375,3250.472138671875,198.5702734375C2408.072138671875,198.5702734375,1645.222138671875,540.2102734375001,1093.0411386718752,1092.3802734375C540.871138671875,1644.5602734375,199.231238671875,2407.4102734375,199.231238671875,3249.7802734375C199.231238671875,4092.1702734375,540.871138671875,4854.9902734375,1093.011138671875,5407.1702734375C1645.222138671875,5959.3502734375,2408.072138671875,6300.9502734375,3250.472138671875,6300.9502734375C4092.872138671875,6300.9502734375,4855.682138671875,5959.3502734375,5407.862138671875,5407.1702734375C5960.012138671875,4855.0202734375,6301.612138671875,4092.2102734375,6301.612138671875,3249.7802734375C6301.612138671875,2407.3502734375,5960.012138671875,1644.5302734375,5407.832138671875,1092.3502734375002L5407.832138671875,1092.3502734375002Z" fill="#005641" fill-opacity="1"/></g><g><path d="M3250.061103515625,1074.650390625C4451.261103515625,1074.650390625,5425.341103515625,2048.690390625,5425.341103515625,3249.790390625C5425.341103515625,4451.080390625,4451.261103515625,5425.070390625,3250.061103515625,5425.070390625C2049.011103515625,5425.070390625,1074.881103515625,4451.080390625,1074.881103515625,3249.790390625C1074.881103515625,2048.690390625,2049.011103515625,1074.650390625,3250.061103515625,1074.650390625L3250.061103515625,1074.650390625ZM3084.981103515625,4971.690390625C3124.991103515625,4969.070390625,3145.541103515625,4942.610390625,3146.781103515625,4892.630390625C3145.541103515625,4844.950390625,3123.801103515625,4820.490390625,3081.211103515625,4819.3403906250005C3041.211103515625,4821.870390624999,3019.8511035156253,4847.570390625,3017.461103515625,4896.450390625C3017.461103515625,4947.990390625,3039.921103515625,4973.030390625,3084.981103515625,4971.690390625L3084.981103515625,4971.690390625ZM2818.191103515625,4778.720390625L2818.191103515625,5126.000390625L2776.181103515625,5126.000390625L2776.181103515625,4881.000390625L2697.841103515625,4881.000390625L2697.841103515625,4846.380390625C2752.631103515625,4848.910390625,2782.291103515625,4826.350390625,2787.2411035156247,4778.720390625L2818.191103515625,4778.720390625L2818.191103515625,4778.720390625ZM3340.661103515625,4828.930390625001L3327.981103515625,4923.390390625C3346.101103515625,4909.270390625,3366.791103515625,4902.120390624999,3389.821103515625,4902.120390624999C3457.871103515625,4908.650390625,3494.301103515625,4945.850390625,3499.211103515625,5014.230390625C3494.301103515625,5091.330390625,3454.291103515625,5130.480390625,3378.861103515625,5131.770390625C3314.391103515625,5130.480390625,3279.241103515625,5099.630390625,3273.191103515625,5039.120390624999L3315.101103515625,5039.120390624999C3319.871103515625,5079.120390624999,3343.661103515625,5099.060390625,3386.151103515625,5099.060390625C3427.491103515625,5095.100390625,3449.901103515625,5068.730390625,3453.581103515625,5019.850390625C3451.241103515625,4971.020390625,3427.491103515625,4945.320390625,3382.571103515625,4942.610390625C3357.021103515625,4942.610390625,3336.371103515625,4953.570390625,3320.541103515625,4975.510390625001L3285.971103515625,4973.550390625L3309.621103515625,4786.440390625L3479.091103515625,4786.440390625L3479.091103515625,4828.930390625001L3340.661103515625,4828.930390625001L3340.661103515625,4828.930390625001ZM3690.991103515625,4925.300390625C3727.571103515625,4922.770390625,3746.971103515625,4904.220390625,3749.311103515625,4869.4603906249995C3746.971103515625,4837.320390625,3726.281103515625,4820.490390625,3687.421103515625,4819.3403906250005C3653.471103515625,4820.490390625,3635.201103515625,4837.940390625,3632.681103515625,4871.370390624999C3635.201103515625,4904.790390624999,3654.561103515625,4922.770390625,3690.991103515625,4925.300390625L3690.991103515625,4925.300390625ZM2979.2711035156253,5043.070390625L3019.321103515625,5043.070390625C3024.041103515625,5080.320390625,3042.881103515625,5099.060390625,3075.781103515625,5099.060390625C3118.3111035156253,5100.250390625,3144.401103515625,5057.190390625,3154.031103515625,4969.740390625L3152.221103515625,4969.740390625C3139.011103515625,4995.490390625,3114.071103515625,5008.930390625001,3077.4911035156247,5010.320390625C3011.981103515625,5006.500390625,2977.931103515625,4969.070390625,2975.6011035156253,4898.260390625001C2979.2711035156253,4821.200390625,3014.4111035156247,4781.290390624999,3081.211103515625,4778.720390625C3155.311103515625,4779.9603906249995,3193.601103515625,4833.410390625,3196.041103515625,4938.930390625001C3191.221103515625,5064.820390625,3151.211103515625,5129.140390625,3075.781103515625,5131.770390625C3016.221103515625,5130.480390625,2984.041103515625,5100.870390624999,2979.2711035156253,5043.070390625ZM3789.601103515625,4867.4603906249995C3789.601103515625,4902.120390624999,3776.061103515625,4927.250390625,3749.311103515625,4942.610390625C3784.551103515625,4958.250390625,3802.191103515625,4985.900390625,3802.191103515625,5025.770390625C3798.611103515625,5093.810390625,3761.521103515625,5129.140390625,3690.991103515625,5131.770390625C3660.711103515625,5130.480390625,3634.631103515625,5122.750390625,3612.651103515625,5108.690390625C3589.621103515625,5090.620390624999,3578.701103515625,5063.630390625,3579.891103515625,5027.670390625C3579.891103515625,4986.520390625,3598.201103515625,4958.250390625,3634.631103515625,4942.610390625C3605.501103515625,4931.2103906249995,3590.901103515625,4908.080390625,3590.901103515625,4873.230390625C3595.671103515625,4811.570390625,3628.481103515625,4779.9603906249995,3689.281103515625,4778.720390625C3751.311103515625,4781.290390624999,3784.551103515625,4810.860390625,3789.601103515625,4867.4603906249995L3789.601103515625,4867.4603906249995ZM3690.991103515625,4964.020390625C3648.511103515625,4965.2103906249995,3626.001103515625,4986.520390625,3623.661103515625,5027.670390625C3626.001103515625,5072.5903906250005,3649.171103515625,5095.810390625,3692.901103515625,5096.910390625C3736.671103515625,5095.810390625,3758.511103515625,5073.930390625001,3758.511103515625,5031.540390624999C3757.371103515625,4987.760390625001,3734.861103515625,4965.2103906249995,3690.991103515625,4964.020390625L3690.991103515625,4964.020390625ZM4985.9411035156245,2092.790390625L4800.111103515625,2685.500390625Q1977.152103515625,2805.570390625,1844.251103515625,3525.780390625Q1790.9911035156251,3815.220390625,2003.711103515625,3900.910390625Q1555.911103515625,3938.290390625,1525.631103515625,3387.020390625C1518.051103515625,3247.640390625,1599.681103515625,2699.520390625,3521.431103515625,2314.140390625C3728.661103515625,2272.560390625,4057.201103515625,2214.240390625,4352.9411035156245,2171.6203906250003Q4691.4411035156245,2122.980390625,4985.9411035156245,2092.790390625L4985.9411035156245,2092.790390625ZM4014.481103515625,2884.250390625L3900.701103515625,3210.550390625Q2747.291103515625,3251.890390625,2257.961103515625,3585.770390625C2138.371103515625,3667.260390625,2071.942103515625,3765.730390625,2201.071103515625,3844.590390625Q1927.842103515625,3837.010390625,1973.332103515625,3544.520390625C1992.312103515625,3423.070390625,2326.291103515625,3026.820390625,4014.481103515625,2884.250390625L4014.481103515625,2884.250390625ZM3556.761103515625,1771.4993906250002L3508.791103515625,2251.630390625L3617.461103515625,2231.650390625L3668.011103515625,1744.0783906249999L3556.761103515625,1771.4993906250002L3556.761103515625,1771.4993906250002ZM3270.901103515625,1851.518390625L3232.991103515625,2311.660390625L3341.811103515625,2286.7203906249997L3387.391103515625,1821.517390625L3270.901103515625,1851.518390625L3270.901103515625,1851.518390625ZM2992.761103515625,1931.6183906249998L2949.751103515625,2384.140390625L3058.421103515625,2349.140390625L3104.051103515625,1899.007390625L2992.761103515625,1931.6183906249998ZM2709.471103515625,3484.440390625Q2356.6611035156247,4302.170390625,1514.192103515625,4110.910390625L1559.821103515625,4230.880390625Q2102.371103515625,4396.060390625,2614.531103515625,3852.130390625C2696.791103515625,3764.720390625,2811.801103515625,3536.990390625,2834.691103515625,3454.500390625L2709.471103515625,3484.440390625ZM3012.981103515625,3409.430390625Q2717.011103515625,4485.990390625,1612.892103515625,4373.410390625L1658.482103515625,4493.430390625001Q2265.401103515625,4594.750390625,2758.731103515625,4069.610390625C2846.751103515625,3976.060390625,3031.961103515625,3762.010390625,3130.571103515625,3390.740390625L3012.981103515625,3409.430390625L3012.981103515625,3409.430390625ZM3296.321103515625,3364.420390625Q3025.621103515625,4652.360390625,1715.411103515625,4639.720390625L1760.861103515625,4754.830390625Q2476.591103515625,4804.850390625,3017.9911035156247,4169.750390625Q3501.161103515625,4529.7103906249995,4227.101103515624,4552.220390625L4265.011103515625,4439.690390625Q3645.361103515625,4469.770390625,3091.371103515625,4067.090390625L3172.291103515625,3944.630390625Q3630.101103515625,4307.220390625,4310.501103515625,4297.160390625L4345.971103515625,4177.190390625Q3782.021103515625,4252.100390625,3232.991103515625,3844.590390625L3296.321103515625,3704.500390625Q3630.101103515625,4049.630390625,4391.661103515626,4029.610390625L4424.411103515626,3906.960390625Q3835.001103515625,4022.120390625,3341.811103515625,3586.960390625Q3417.721103515625,3396.990390625,3417.721103515625,3349.350390625L3296.321103515625,3364.420390625L3296.321103515625,3364.420390625Z" fill-rule="evenodd" fill="#005641" fill-opacity="1"/></g><g><path d="M5486.812568359375,4336.700215625L5494.202568359375,4340.680615625C5481.792568359375,4360.730515625,5488.642568359375,4392.030315625,5514.662568359375,4434.411015625L5581.902568359375,4560.102015625L5673.482568359375,4609.332015625C5702.662568359375,4631.312015625,5725.272568359375,4623.002015625,5741.282568359375,4584.322015625L5750.412568359375,4589.212015625L5673.702568359375,4732.271015625L5664.582568359375,4727.382015625C5688.512568359375,4691.472015625,5681.222568359375,4666.932015625,5642.372568359375,4654.052015625L5561.752568359375,4610.752015625L5438.492568359375,4624.902015625C5361.252568359375,4630.652015625,5322.852568359375,4642.303015625,5322.942568359375,4659.702015625L5315.552568359375,4655.752015625L5385.502568359375,4525.582015625L5392.802568359375,4529.502015625C5392.132568359375,4530.732015625,5391.162568359375,4532.532015625,5389.862568359375,4535.082015625C5380.512568359375,4555.202015625,5380.512568359375,4567.012015625,5389.772568359375,4570.332015625C5395.862568359375,4573.582015625,5403.882568359375,4574.842015625,5413.892568359375,4573.872015625L5555.782568359375,4560.322015625L5485.832568359375,4435.422015625C5482.332568359375,4427.212015625,5478.102568359375,4421.842015625,5473.302568359375,4419.282015625C5462.212568359375,4413.282015625,5450.902568359375,4421.272015625,5439.032568359375,4443.312015625L5431.742568359375,4439.402015625L5486.812568359375,4336.702115625L5486.812568359375,4336.700215625ZM5542.272568359375,4914.520015625L5550.672568359375,4920.841015625L5456.242568359375,5045.1010156249995L5447.842568359375,5038.820015625C5473.522568359375,5009.540015625,5469.282568359375,4985.380015625,5435.022568359375,4966.340015625L5222.872568359375,4805.160015625L5205.242568359375,4828.400015625C5169.782568359375,4865.920015625,5170.852568359375,4902.420015625,5208.402568359375,4937.891015625L5200.892568359375,4947.801015625L5132.142568359375,4890.3600156249995L5313.372568359375,4651.710015625L5387.142568359375,4702.520015625L5379.632568359375,4712.470015625C5335.352568359375,4685.939015625,5299.892568359375,4694.689015625,5273.242568359375,4738.870015625L5255.612568359375,4762.080015625L5472.762568359375,4927.030015625C5496.922568359375,4952.420015625,5520.192568359375,4948.250015625,5542.272568359375,4914.520015625L5542.272568359375,4914.520015625ZM5267.992568359375,5261.841015625L5260.382568359375,5254.831015625C5288.582568359375,5229.911015625,5288.012568359375,5206.861015625,5258.552568359375,5185.701015625L5082.842568359375,5026.251015625C5060.762568359375,4998.841015625,5037.812568359375,5000.4810156250005,5013.742568359375,5031.081015625L5007.552568359375,5025.491015625L5113.852568359375,4908.361015625L5120.042568359375,4913.9810156250005C5091.972568359375,4940.831015625,5092.092568359375,4964.321015625,5120.582568359375,4984.562015625L5296.292568359375,5144.071015625C5320.132568359375,5171.361015625,5343.632568359375,5169.241015625,5366.592568359375,5137.701015625L5374.292568359375,5144.741015625L5267.992568359375,5261.841015625ZM4950.772568359375,5065.791015625L5036.262568359375,5139.811015625L5027.132568359375,5148.311015625C4974.362568359375,5115.841015625,4929.112568359375,5116.061015625,4891.682568359375,5148.971015625C4867.972568359375,5174.581015625,4866.112568359375,5198.961015625,4885.812568359375,5222.301015625C4902.772568359375,5240.621015625,4940.982568359375,5243.201015625,5000.382568359375,5229.751015625C5075.642568359375,5213.051015625,5126.452568359375,5218.921015625,5152.792568359375,5247.441015625C5188.252568359375,5295.882015625,5182.062568359375,5344.321015625,5133.972568359375,5392.451015625C5121.682568359375,5403.821015625,5105.042568359375,5415.511015625,5084.042568359375,5427.381015625C5073.052568359375,5431.831015625,5066.072568359375,5435.531015625,5062.912568359375,5438.311015625C5056.722568359375,5445.921015625,5055.522568359375,5452.771015625,5059.222568359375,5458.771015625L5050.092568359375,5467.271015625L4965.872568359375,5397.791015625L4975.022568359375,5389.291015625C5034.742568359375,5419.111015625,5082.402568359375,5417.531015625,5117.992568359375,5384.561015625C5146.692568359375,5356.171015625,5149.322568359375,5327.271015625,5125.912568359375,5297.899015625C5114.072568359375,5272.890015625,5071.412568359375,5269.8290156250005,4997.982568359375,5288.550015625C4934.672568359375,5305.729015625,4890.172568359375,5298.560015625,4864.912568359375,5267.170015625C4829.222568359375,5224.570015625,4832.912568359375,5180.520015625,4875.892568359375,5135.070015625C4885.052568359375,5126.6100156249995,4900.622568359375,5117.931015625,4922.572568359375,5108.931015625C4933.562568359375,5104.471015625,4940.102568359375,5101.190015625,4942.152568359375,5099.291015625C4950.202568359375,5091.811015625,4950.642568359375,5083.001015625,4943.132568359375,5072.861015625L4950.772568359375,5065.791015625L4950.772568359375,5065.791015625ZM4616.882568359375,5387.271015625L4689.642568359375,5496.221015625C4760.472568359375,5452.361015625,4780.812568359375,5407.861015625,4750.682568359375,5362.801015625C4723.712568359375,5322.441015625,4684.742568359376,5319.281015625,4634.052568359375,5353.171015625C4612.522568359374,5365.891015625,4606.832568359375,5377.291015625,4616.882568359375,5387.271015625ZM4988.192568359375,5504.531015625L4993.942568359375,5513.121015625L4921.282568359375,5561.691015625L4725.982568359375,5494.491015625L4701.292568359375,5513.531015625L4759.172568359375,5600.091015625C4774.182568359375,5630.061015625,4796.252568359375,5634.361015625,4825.522568359374,5613.201015625L4831.302568359375,5621.8510156249995L4708.492568359376,5703.991015625L4702.712568359375,5695.341015625C4734.132568359375,5677.621015625,4736.852568359374,5654.161015625,4710.642568359375,5624.941015625L4582.262568359375,5432.971015625C4567.142568359375,5402.941015625,4545.602568359374,5398.171015625,4517.652568359375,5418.631015625L4512.982568359375,5411.721015625L4635.792568359375,5329.581015625C4710.422568359375,5281.3510156249995,4764.832568359375,5281.611015625,4799.092568359375,5330.431015625C4826.852568359374,5371.991015625,4817.062568359375,5414.531015625,4769.282568359375,5458.081015625L4934.542568359375,5510.341015625C4955.222568359375,5516.471015625,4973.162568359375,5514.511015625,4988.192568359375,5504.531015625L4988.192568359375,5504.531015625ZM4619.912568359376,5646.451015625L4641.002568359375,5736.831015625L4389.252568359375,5875.121015625L4384.262568359375,5866.061015625C4414.832568359375,5852.381015625,4420.482568359375,5831.071015625,4401.4425683593745,5802.081015625L4287.212568359375,5594.121015625C4274.802568359375,5562.831015625,4253.802568359375,5556.191015625,4223.992568359376,5574.131015625L4219.982568359375,5566.841015625L4468.132568359375,5430.6010156249995L4506.002568359375,5495.311015625L4493.272568359374,5502.291015625C4472.492568359376,5464.521015625,4439.842568359375,5461.171015625,4395.032568359375,5492.121015625L4333.002568359375,5526.161015625C4321.382568359375,5530.901015625,4318.982568359375,5539.491015625,4325.612568359375,5551.621015625L4382.742568359376,5655.641015625L4455.722568359375,5615.531015625C4491.752568359375,5600.471015625,4500.342568359375,5575.901015625,4481.742568359376,5541.831015625L4492.732568359375,5535.861015625L4552.772568359374,5645.251015625L4541.812568359375,5651.281015625C4523.182568359375,5617.271015625,4498.0725683593755,5612.001015625,4466.712568359375,5635.621015625L4392.752568359375,5673.801015625L4456.832568359375,5790.521015625C4461.062568359375,5800.941015625,4467.062568359375,5804.791015625,4474.992568359376,5801.951015625C4479.342568359375,5801.191015625,4500.342568359375,5790.421015625,4537.992568359376,5769.771015625C4592.272568359374,5744.631015625,4615.332568359375,5705.881015625,4607.092568359375,5653.401015625L4619.912568359376,5646.451015625L4619.912568359376,5646.451015625ZM4220.832568359375,5554.991015625L4223.802568359375,5562.831015625C4204.532568359375,5566.841015625,4195.062568359375,5587.901015625,4195.602568359374,5626.051015625L4183.9425683593745,5944.251015625L4176.112568359375,5947.091015625L3954.962568359375,5719.271015625C3926.882568359375,5686.491015625,3902.942568359375,5675.281015625,3883.052568359375,5685.331015625L3880.212568359375,5677.491015625L4013.382568359375,5629.621015625L4016.192568359375,5637.451015625C3988.682568359375,5647.371015625,3978.672568359375,5658.361015625,3985.942568359375,5670.421015625C3987.362568359375,5674.341015625,3994.122568359375,5682.991015625,4006.312568359375,5696.381015625C4014.012568359375,5705.3510156249995,4020.012568359375,5711.9810156250005,4024.592568359375,5716.271015625L4162.1925683593745,5859.211015625L4170.362568359375,5648.411015625C4169.922568359375,5647.051015625,4170.142568359375,5643.291015625,4170.812568359375,5637.201015625C4170.462568359375,5623.971015625,4169.392568359375,5614.841015625,4167.522568359374,5609.6010156249995C4163.732568359375,5594.751015625,4148.482568359375,5591.341015625,4121.832568359375,5599.491015625L4119.112568359375,5591.661015625L4220.832568359375,5554.991015625L4220.832568359375,5554.991015625ZM3792.512568359375,6049.4810156250005L3790.552568359375,6039.311015625C3828.102568359375,6036.431015625,3841.582568359375,6017.581015625,3830.692568359375,5982.941015625L3786.322568359375,5749.841015625C3785.212568359375,5714.701015625,3765.982568359375,5702.191015625,3728.312568359375,5712.201015625L3726.792568359375,5703.991015625L3882.042568359375,5674.461015625L3883.682568359375,5682.611015625C3845.062568359375,5687.191015625,3831.042568359375,5706.041015625,3841.582568359375,5739.361015625L3885.952568359375,5972.451015625C3888.582568359375,6008.611015625,3908.602568359375,6021.091015625,3945.922568359375,6009.721015625L3947.882568359375,6019.891015625L3792.512568359375,6049.4810156250005L3792.512568359375,6049.4810156250005ZM3712.012568359375,5711.761015625L3712.772568359375,5720.031015625C3676.642568359375,5720.951015625,3662.402568359375,5745.331015625,3670.012568359375,5793.361015625L3697.862568359375,6068.771015625L3687.542568359375,6069.811015625L3426.752568359375,5807.571015625L3424.662568359375,5807.7310156250005L3445.352568359375,6012.751015625C3447.532568359375,6061.321015625,3466.352568359375,6082.451015625,3502.042568359375,6076.071015625L3503.112568359375,6086.421015625L3378.752568359375,6098.961015625L3377.772568359375,6088.631015625C3416.832568359375,6088.861015625,3431.742568359375,6064.321015625,3422.612568359375,6015.051015625L3398.992568359375,5781.141015625C3378.752568359375,5760.831015625,3360.592568359375,5752.941015625,3344.262568359375,5757.301015625L3343.412568359375,5749.021015625L3434.582568359375,5739.801015625L3663.162568359375,5973.971015625L3645.092568359375,5795.861015625C3643.042568359375,5747.291015625,3624.192568359375,5726.251015625,3588.632568359375,5732.6010156249995L3587.742568359375,5724.331015625L3712.012568359375,5711.761015625L3712.012568359375,5711.761015625ZM3356.142568359375,5755.471015625L3355.602568359375,5763.711015625C3318.272568359375,5759.541015625,3299.892568359375,5781.171015625,3300.652568359375,5828.511015625L3290.322568359375,5967.651015625C3286.282568359375,6060.531015625,3237.212568359375,6103.4810156250005,3143.102568359375,6096.531015625C3054.552568359375,6089.991015625,3014.282568359375,6042.531015625,3022.242568359375,5954.1010156249995L3034.522568359375,5788.021015625C3041.062568359375,5755.121015625,3026.382568359375,5738.001015625,2990.252568359375,5736.801015625L2990.912568359375,5728.401015625L3140.292568359375,5739.451015625L3139.752568359375,5747.821015625C3103.842568359375,5743.691015625,3086.762568359375,5758.431015625,3088.402568359375,5792.001015625L3075.772568359375,5962.221015625C3067.812568359375,6033.911015625,3095.572568359375,6072.121015625,3159.202568359375,6076.791015625C3200.762568359375,6078.591015625,3230.922568359375,6066.881015625,3249.392568359375,6041.801015625C3258.652568359375,6031.3510156249995,3264.402568359375,6007.411015625,3267.242568359375,5969.991015625L3277.822568359375,5826.871015625C3284.232568359375,5778.611015625,3269.202568359375,5754.581015625,3233.072568359375,5754.711015625L3233.642568359375,5746.371015625L3356.142568359375,5755.471015625L3356.142568359375,5755.471015625ZM2343.7725683593753,5791.781015625L2460.402568359375,5830.181015625L2448.652568359375,5672.881015625L2343.7725683593753,5791.781015625L2343.7725683593753,5791.781015625ZM2553.122568359375,5994.431015625L2549.832568359375,6004.281015625L2419.4125683593747,5961.301015625L2422.6625683593747,5951.391015625C2447.262568359375,5960.961015625,2461.382568359375,5958.241015625,2464.762568359375,5943.271015625C2466.052568359375,5939.421015625,2466.4925683593747,5931.561015625,2465.962568359375,5919.681015625C2466.402568359375,5913.971015625,2466.842568359375,5910.431015625,2467.282568359375,5909.071015625L2461.192568359375,5854.561015625L2328.652568359375,5810.891015625L2285.482568359375,5862.401015625C2280.232568359375,5869.531015625,2276.982568359375,5874.901015625,2275.5625683593753,5878.881015625C2270.442568359375,5894.671015625,2279.922568359375,5905.821015625,2304.082568359375,5912.391015625L2300.792568359375,5922.241015625L2200.052568359375,5889.051015625L2203.3125683593753,5879.201015625C2211.142568359375,5881.821015625,2220.832568359375,5881.341015625,2232.142568359375,5877.811015625C2241.392568359375,5872.031015625,2259.582568359375,5854.631015625,2286.682568359375,5825.571015625C2289.2725683593753,5822.1010156249995,2291.672568359375,5819.2310156250005,2293.8525683593753,5816.9810156250005L2480.642568359375,5602.431015625L2490.532568359375,5605.651015625L2521.982568359375,5935.881015625C2522.112568359375,5971.031015625,2532.532568359375,5990.521015625,2553.122568359375,5994.431015625L2553.122568359375,5994.431015625ZM2017.052568359375,5792.511015625L2021.852568359375,5783.261015625C2053.172568359375,5804.041015625,2075.372568359375,5797.501015625,2088.232568359375,5763.551015625L2196.7025683593747,5552.591015625C2217.482568359375,5524.201015625,2209.972568359375,5502.451015625,2174.1625683593747,5487.1010156249995L2177.982568359375,5479.771015625L2318.642568359375,5552.121015625L2314.8525683593753,5559.451015625C2281.5625683593753,5539.331015625,2258.922568359375,5545.461015625,2246.732568359375,5578.331015625L2138.1625683593747,5789.291015625C2117.9125683593747,5819.411015625,2126.092568359375,5841.581015625,2162.542568359375,5855.611015625L2157.7425683593747,5864.861015625L2017.052568359375,5792.511015625ZM2148.922568359375,5479.461015625L2144.472568359375,5486.501015625C2124.7725683593753,5470.961015625,2093.6625683593747,5470.901015625,2050.902568359375,5486.561015625L1933.612568359375,5528.281015625L1942.202568359375,5705.881015625C1941.572568359375,5738.251015625,1950.922568359375,5759.701015625,1970.402568359375,5770.401015625L1964.842568359375,5779.211015625L1831.132568359375,5694.931015625L1836.692568359375,5686.151015625C1837.772568359375,5686.811015625,1838.972568359375,5687.631015625,1840.172568359375,5688.261015625C1863.662568359375,5703.141015625,1877.592568359375,5704.491015625,1881.822568359375,5692.401015625C1885.552568359375,5686.531015625,1886.842568359375,5667.641015625,1885.642568359375,5635.711015625L1883.242568359375,5545.741015625L1786.642568359375,5578.271015625C1784.682568359375,5578.651015625,1781.742568359375,5579.251015625,1777.832568359375,5580.201015625C1755.092568359375,5590.431015625,1742.2425683593751,5597.881015625,1739.2025683593752,5602.521015625C1732.671568359375,5613.041015625,1740.282568359375,5625.391015625,1762.702568359375,5639.471015625L1757.142568359375,5648.221015625L1653.241568359375,5582.791015625L1658.8015683593749,5573.971015625C1670.011568359375,5587.521015625,1702.411568359375,5584.271015625,1756.162568359375,5564.031015625L1880.972568359375,5522.151015625L1877.152568359375,5418.881015625C1877.592568359375,5345.331015625,1865.842568359375,5304.220015625,1841.682568359375,5295.630015625L1846.132568359375,5288.550015625L1981.612568359375,5374.071015625L1977.262568359375,5381.081015625C1976.052568359375,5380.391015625,1974.852568359375,5379.631015625,1973.652568359375,5378.841015625C1950.162568359375,5364.121015625,1936.332568359375,5362.641015625,1932.002568359375,5374.771015625C1926.662568359375,5377.931015625,1925.912568359375,5407.741015625,1929.702568359375,5464.271015625L1931.342568359375,5504.621015625L2022.292568359375,5473.491015625C2041.432568359375,5469.1010156249995,2053.622568359375,5462.841015625,2058.732568359375,5454.701015625C2063.942568359375,5446.361015625,2058.512568359375,5435.591015625,2042.402568359375,5422.201015625C2040.002568359375,5420.681015625,2038.272568359375,5419.611015625,2037.072568359375,5418.791015625L2041.552568359375,5411.751015625L2148.922568359375,5479.461015625L2148.922568359375,5479.461015625ZM1741.482568359375,5412.031015625L1734.752568359375,5419.991015625C1714.381568359375,5401.041015625,1695.911568359375,5403.541015625,1679.2315683593752,5427.6010156249995L1610.711568359375,5508.6010156249995C1573.951568359375,5504.781015625,1532.921568359375,5485.581015625,1487.671568359375,5450.941015625C1439.891568359375,5408.651015625,1413.461568359375,5362.641015625,1408.3415683593748,5312.871015625C1405.621568359375,5268.822015625,1422.711568359375,5225.992015625,1459.5915683593748,5184.592015625C1539.781568359375,5106.9720156250005,1624.851568359375,5100.872015625,1715.0515683593749,5166.151015625C1731.911568359375,5180.461015625,1747.7925683593749,5199.281015625,1762.482568359375,5222.741015625C1769.242568359375,5231.991015625,1774.132568359375,5237.961015625,1777.292568359375,5240.682015625C1788.822568359375,5248.571015625,1798.702568359375,5249.771015625,1807.102568359375,5244.062015625L1815.122568359375,5250.781015625L1745.622568359375,5339.271015625L1736.142568359375,5331.251015625C1758.662568359375,5270.271015625,1748.682568359375,5221.922015625,1706.2315683593752,5186.082015625C1637.141568359375,5136.7220156250005,1568.0715683593749,5151.912015625,1498.881568359375,5231.432015625C1438.5015683593751,5309.331015625,1440.461568359375,5379.061015625,1504.631568359375,5440.711015625C1540.311568359375,5467.301015625,1565.5515683593749,5474.911015625,1580.361568359375,5463.821015625L1635.5015683593751,5398.701015625C1661.961568359375,5373.911015625,1660.101568359375,5351.401015625,1629.871568359375,5331.251015625L1636.601568359375,5323.3510156249995L1741.482568359375,5412.031015625L1741.482568359375,5412.031015625ZM1561.851568359375,5053.412015625L1555.661568359375,5059.002015625C1533.811568359375,5030.262015625,1505.611568359375,5032.982015625,1471.221568359375,5067.462015625L1264.8415683593748,5251.892015625L1257.891568359375,5244.122015625L1316.851568359375,4878.992015625L1315.431568359375,4877.412015625L1161.831568359375,5014.662015625C1123.741568359375,5044.982015625,1117.651568359375,5072.582015625,1143.861568359375,5097.7220156250005L1136.151568359375,5104.632015625L1052.811568359375,5011.441015625L1060.641568359375,5004.552015625C1083.382568359375,5036.262015625,1111.991568359375,5033.962015625,1146.481568359375,4997.512015625L1321.8415683593748,4840.912015625C1326.421568359375,4812.672015625,1322.061568359375,4793.312015625,1308.891568359375,4782.702015625L1315.121568359375,4777.152015625L1376.131568359375,4845.492015625L1321.081568359375,5168.042015625L1454.5715683593749,5048.772015625C1492.661568359375,5018.582015625,1498.661568359375,4990.883015625,1472.541568359375,4965.872015625L1478.7315683593752,4960.312015625L1561.851568359375,5053.412015625ZM938.781568359375,4841.032015625L947.141568359375,4834.942015625C965.651568359375,4867.723015625,988.391568359375,4871.982015625,1015.171568359375,4847.542015625L1207.741568359375,4708.782015625C1239.171568359375,4693.022015625,1242.321568359375,4670.152015625,1217.311568359375,4640.282015625L1224.171568359375,4635.382015625L1316.541568359375,4763.722015625L1309.781568359375,4768.562015625C1289.311568359375,4735.491015625,1266.391568359375,4730.691015625,1240.591568359375,4754.411015625L1048.141568359375,4893.142015625C1016.3415683593751,4910.821015625,1013.531568359375,4934.191015625,1039.641568359375,4963.252015625L1031.151568359375,4969.282015625L938.781568359375,4841.032015625L938.781568359375,4841.032015625ZM1217.192568359375,4637.032015625L1209.892568359375,4640.882015625C1195.552568359375,4607.752015625,1167.572568359375,4603.612015625,1125.922568359375,4628.752015625L881.022568359375,4757.722015625L876.122568359375,4748.531015625L1021.582568359375,4408.511715625L1020.602568359375,4406.591815625L838.382568359375,4502.622015625C794.082268359375,4522.802015625,781.572068359375,4548.132015625,800.832268359375,4578.892015625L791.682368359375,4583.651015625L733.382568359375,4473.121015625L742.632568359375,4468.291015625C757.102768359375,4504.611015625,785.392368359375,4509.321015625,827.712668359375,4482.311015625L1035.732568359375,4372.760715625C1046.942568359375,4346.491215625,1047.472568359375,4326.621115625,1037.2425683593751,4313.140625625L1044.632568359375,4309.291015625L1087.302568359375,4390.321315625L955.862568359375,4690.021015625L1114.172568359375,4606.552015625C1158.542568359375,4586.502015625,1170.952568359375,4561.042015625,1151.692568359375,4530.472015625L1159.112568359375,4526.531015625L1217.192568359375,4637.032015625L1217.192568359375,4637.032015625Z" fill="#005641" fill-opacity="1"/></g><g><path d="M973.621295703125,1937.2301015624998Q1071.881595703125,1620.3101015625,1090.601595703125,1573.2111015625C1109.311595703125,1526.1111015625,1146.4715957031249,1438.1111015625,1148.341595703125,1430.6711015625C1150.201595703125,1423.2301015625,1146.461595703125,1391.1211015625,1168.831595703125,1365.0908015625C1191.201595703125,1339.0508015625,1212.071595703125,1325.3008015625,1225.311595703125,1334.6006015625C1238.561595703125,1343.8906015625,1243.771595703125,1395.3603015625,1227.021595703125,1426.4001015625C1226.601595703125,1427.1701015625,1202.421595703125,1478.1411015625,1193.921595703125,1506.5201015625C1195.341595703125,1506.9401015624999,1197.351595703125,1506.6811015625,1200.061595703125,1505.5801015625Q1216.841595703125,1489.8901015625,1226.9915957031249,1508.8701015625Q1237.131595703125,1527.8601015625,1204.111595703125,1607.0001015625Q1208.341595703125,1606.3301015625,1213.752595703125,1607.2301015625C1219.152595703125,1608.1311015625001,1228.511595703125,1598.2501015625,1235.9625957031249,1590.2901015625C1243.4125957031251,1582.3301015625,1239.2125957031249,1577.5001015625,1244.7415957031249,1571.4601015624999C1250.271595703125,1565.4301015625,1266.021595703125,1558.2501015625,1273.311595703125,1559.3801015625C1280.611595703125,1560.5101015625,1292.131595703125,1566.8091015625,1292.061595703125,1573.2691015625C1291.9915957031249,1579.7391015625,1292.291595703125,1580.8991015625,1289.841595703125,1594.7291015625C1297.341595703125,1587.9891015625,1309.501595703125,1587.5291015625,1317.131595703125,1591.3001015625C1322.001595703125,1602.2901015625,1321.371595703125,1613.0591015625,1324.601595703125,1619.9501015625C1327.321595703125,1625.7501015625,1356.051595703125,1663.8701015625,1365.781595703125,1676.6501015625Q1367.611595703125,1679.0701015625,1370.161595703125,1676.9001015625Q1373.801595703125,1671.5111015625,1375.911595703125,1666.0111015625C1378.021595703125,1660.5201015625,1383.801595703125,1654.2511015625,1393.152595703125,1650.3601015625C1402.502595703125,1646.4711015625,1418.672595703125,1640.1901015624999,1425.142595703125,1644.1001015625C1431.612595703125,1648.0111015625,1430.612595703125,1660.7801015625,1427.362595703125,1669.1501015625C1424.112595703125,1677.5301015625,1420.862595703125,1680.7901015625,1411.582595703125,1688.0401015625C1405.352595703125,1692.9101015625001,1398.322595703125,1698.3091015625,1394.472595703125,1701.8801015625Q1392.592595703125,1703.6201015625,1393.822595703125,1706.8201015625Q1452.193595703125,1780.5201015625,1457.092595703125,1789.5111015625C1461.983595703125,1798.5011015625,1468.952595703125,1823.8101015625,1455.1425957031252,1836.7511015625C1441.332595703125,1849.6811015624999,1437.592595703125,1854.7411015625,1424.422595703125,1852.6411015625C1411.252595703125,1850.5511015625,1380.992595703125,1835.3411015625,1374.372595703125,1834.5301015625C1367.762595703125,1833.7211015625,1365.082595703125,1824.2801015625,1367.582595703125,1821.4711015625Q1370.082595703125,1818.6611015624999,1377.032595703125,1812.7911015625Q1386.892595703125,1810.6411015625,1382.242595703125,1803.6001015625Q1377.582595703125,1796.5601015625,1359.502595703125,1766.0201015625C1344.312595703125,1798.2611015625,1332.472595703125,1831.4401015624999,1322.202595703125,1865.0601015625Q1353.832595703125,1894.5911015625,1351.822595703125,1914.9611015625C1349.802595703125,1935.3311015625,1345.052595703125,1936.9111015624999,1341.782595703125,1938.1911015625C1338.512595703125,1939.4611015625,1316.392595703125,1928.6611015624999,1313.4125957031251,1927.5711015625C1310.4325957031251,1926.4911015625,1305.552595703125,1925.1711015625,1304.052595703125,1927.6311015625001C1302.552595703125,1930.0811015625,1279.293595703125,2101.9711015625,1274.952595703125,2113.9001015625C1270.612595703125,2125.8301015625,1272.042595703125,2129.8411015624997,1260.122595703125,2133.1811015625C1248.2125957031249,2136.5201015625,1224.882595703125,2135.1001015624997,1214.822595703125,2123.3201015625Q1204.753595703125,2111.5401015625002,1202.063595703125,2098.2611015625Q1215.152595703125,2093.1501015625,1226.993595703125,2078.7801015625C1238.813595703125,2064.4001015625,1249.9135957031249,2040.3401015625,1251.553595703125,2034.7901015625Q1253.193595703125,2029.2401015625,1285.303595703125,1892.1601015625001Q1237.013595703125,1828.4901015625,1232.233595703125,1814.7201015625C1227.443595703125,1800.9501015625,1224.893595703125,1794.3991015625,1227.803595703125,1792.1201015625C1230.723595703125,1789.8401015625,1245.713595703125,1798.6301015625,1254.6635957031249,1801.8801015625C1263.613595703125,1805.1401015625,1267.853595703125,1811.6491015625,1271.283595703125,1801.2801015625C1274.713595703125,1790.9101015625001,1277.733595703125,1774.0201015625,1273.753595703125,1763.4601015624999Q1269.773595703125,1752.9001015625,1260.9335957031249,1742.5001015625C1255.1335957031251,1760.9301015625,1259.223595703125,1769.3091015625,1252.983595703125,1777.3701015625C1248.813595703125,1782.7501015625,1228.893595703125,1779.3101015625,1225.203595703125,1776.2201015625C1221.503595703125,1773.1301015625,1227.853595703125,1764.3091015625,1229.793595703125,1760.2391015625C1231.733595703125,1756.1591015625,1237.273595703125,1734.5591015625,1242.753595703125,1717.1691015625C1237.773595703125,1696.7091015625,1234.743595703125,1698.2591015625,1239.033595703125,1690.6391015625C1243.323595703125,1683.0091015625,1252.713595703125,1683.7781015625,1257.023595703125,1679.9881015625C1260.3835957031251,1675.1791015625,1261.223595703125,1666.0181015625,1261.4135957031249,1658.6081015625Q1261.603595703125,1651.2081015625,1256.103595703125,1645.2591015625C1240.9335957031249,1656.3581015625,1228.103595703125,1683.5281015625,1211.123595703125,1692.7391015625C1205.1335957031251,1695.9891015625,1184.453595703125,1691.8691015625,1181.873595703125,1687.4791015625C1179.303595703125,1683.0791015625,1184.193595703125,1671.3991015625,1173.833595703125,1675.7101015624999C1163.473595703125,1680.0101015625,1146.823595703125,1676.4501015625,1147.733595703125,1675.4301015625C1148.643595703125,1674.4101015625001,1148.673595703125,1690.3591015625,1161.983595703125,1699.1801015625C1175.283595703125,1708.0101015625,1191.173595703125,1711.3901015625,1196.463595703125,1723.0691015625C1201.743595703125,1734.7391015625,1210.6635957031249,1759.8091015625,1200.9035957031251,1776.8391015625C1191.143595703125,1793.8691015625,1177.763595703125,1801.3391015625,1167.6535957031251,1793.8691015625C1157.533595703125,1786.3891015625,1137.853595703125,1765.0391015625,1135.713595703125,1749.1991015625C1133.583595703125,1733.3501015625,1132.9135957031249,1681.1991015625,1135.823595703125,1675.0791015625C1132.103595703125,1669.6991015625,1132.263595703125,1669.3791015625,1130.193595703125,1666.7191015624999C1128.123595703125,1664.0681015625,1123.423595703125,1651.5091015625,1126.1535957031251,1646.8081015625C1128.893595703125,1642.1081015625,1137.943595703125,1635.0991015625,1142.973595703125,1627.3281015625C1149.053595703125,1617.9181015625,1167.673595703125,1591.7081015625,1168.553595703125,1581.9081015625C1168.883595703125,1578.2281015625,1175.343595703125,1546.0991015625,1174.753595703125,1549.9881015625C1174.1635957031249,1553.8781015625,1154.223595703125,1583.0881015625,1147.223595703125,1580.8491015625C1145.113595703125,1572.8181015625,1148.793595703125,1563.4481015625001,1154.513595703125,1550.0091015625C1161.4135957031249,1533.8081015625,1170.823595703125,1477.3391015625,1165.843595703125,1452.9991015625C1165.623595703125,1451.9291015625,1163.243595703125,1452.6191015625,1162.593595703125,1451.8791015625Q1153.814595703125,1468.2491015625,1148.133595703125,1487.2191015624999C1142.453595703125,1506.1791015625,1099.064595703125,1705.8691015625,1089.8745957031251,1737.8291015625Q1080.684595703125,1769.7891015625,1060.034595703125,1914.9491015625Q1047.424595703125,1970.9491015625,1041.074595703125,1983.6001015625C1034.734595703125,1996.2501015625,1029.384495703125,2004.7101015624999,1014.4445957031251,2005.2791015625C999.514395703125,2005.8391015625,986.004595703125,2010.4191015625001,967.044695703125,1985.0891015625Q948.094485703125,1959.7491015625,959.394795703125,1945.7891015625L973.624795703125,1937.2291015625L973.621295703125,1937.2301015624998ZM1272.411595703125,1692.7801015625Q1276.331595703125,1672.7501015625,1277.7215957031249,1667.2001015625C1279.561595703125,1659.9101015625001,1281.421595703125,1658.5301015625,1285.4715957031249,1650.8911015625Q1338.761595703125,1731.7701015625,1343.531595703125,1743.1711015625C1339.081595703125,1758.6811015624999,1326.041595703125,1784.8011015625,1314.341595703125,1819.2911015625C1309.931595703125,1814.2011015625,1304.041595703125,1804.6911015625,1308.571595703125,1795.1711015625C1313.091595703125,1785.6611015624999,1317.771595703125,1770.8911015625,1313.171595703125,1759.5311015625C1308.561595703125,1748.1821015625,1300.9415957031251,1735.7811015625,1295.511595703125,1729.3411015625C1290.081595703125,1722.9001015625,1278.141595703125,1704.8911015625,1275.7415957031249,1699.0811015625Q1273.331595703125,1693.2811015625,1272.411595703125,1692.7801015625L1272.411595703125,1692.7801015625ZM1187.9715957031249,1588.7211015625Q1176.491595703125,1627.6001015625,1178.901595703125,1638.3201015625C1181.301595703125,1649.0511015625,1180.651595703125,1655.3201015625,1186.2215957031249,1657.8011015625C1202.131595703125,1664.8811015625001,1223.641595703125,1627.5201015625,1221.831595703125,1618.6001015625Q1221.391595703125,1616.3911015625,1211.751595703125,1614.7701015625Q1203.881595703125,1609.9001015625,1202.201595703125,1611.8501015625C1200.531595703125,1613.8011015625,1198.9715957031249,1620.3811015625001,1193.961595703125,1626.7001015625C1188.9705957031251,1614.2401015625,1189.291595703125,1612.5101015625,1189.431595703125,1591.9001015625Q1189.441595703125,1590.2501015625,1188.961595703125,1583.1501015625L1187.9715957031249,1588.7211015625L1187.9715957031249,1588.7211015625ZM1026.731195703125,1530.8601015625Q1019.260995703125,1503.8101015625,1019.941195703125,1480.6411015625C1020.621295703125,1457.4711015625,1026.251195703125,1419.3101015625,1018.731195703125,1400.4102015625C1011.221395703125,1381.5098015625,993.191195703125,1372.1103015625,980.721395703125,1368.1904015625C968.251195703125,1364.2607015625,946.471435703125,1352.2402015625,939.541255703125,1342.2803015625C932.601315703125,1332.3203015625,961.281495703125,1315.4502015625,984.591095703125,1309.2001915625C1007.890895703125,1302.9404315625,1066.800595703125,1299.6005815625,1081.010595703125,1326.5205015625C1095.211595703125,1353.4404015625,1079.300595703125,1375.7002015625,1071.4705957031251,1384.8105015625C1063.640595703125,1393.9209015625,1057.790595703125,1390.8105015625,1058.500595703125,1402.6406015625C1059.210595703125,1414.4801015625,1051.650595703125,1474.2111015625,1044.410595703125,1492.2701015625Q1037.1608957031249,1510.3201015625,1026.731195703125,1530.8601015625L1026.731195703125,1530.8601015625Z" fill-rule="evenodd" fill="#005641" fill-opacity="1"/></g><g><path d="M2141.681396640625,702.35042578125Q2172.861581640625,695.44042578125,2198.491481640625,673.59042578125C2224.111581640625,651.74042578125,2375.681681640625,489.82032578125,2402.671681640625,469.40042578124996C2429.661681640625,448.98042578125,2465.701681640625,410.00052578125,2494.351681640625,403.88037578125C2523.011681640625,397.75048578125,2541.911681640625,390.03027578125,2547.011681640625,400.48046578125C2552.111681640625,410.94042578125,2546.5516816406252,422.85062578125,2537.291681640625,437.76022578125Q2528.041681640625,452.68022578125,2496.601681640625,485.59032578125L2465.321681640625,510.13042578125Q2516.752681640625,511.74042578125,2522.002681640625,528.63042578125C2527.252681640625,545.52042578125,2545.3016816406252,701.97042578125,2542.171681640625,745.54042578125C2539.031681640625,789.11042578125,2523.111681640625,815.35042578125,2500.372681640625,819.64042578125C2477.622681640625,823.93042578125,2449.342681640625,798.45042578125,2453.582681640625,782.3204257812499C2457.832681640625,766.18042578125,2461.421681640625,700.25142578125,2457.861681640625,682.83042578125C2454.3016816406252,665.4104257812501,2450.921681640625,639.61042578125,2448.2926816406252,631.1704257812501Q2445.671681640625,622.72042578125,2439.341681640625,590.43042578125L2424.841681640625,588.45042578125L2415.8126816406248,605.61042578125L2401.841681640625,632.1704257812501L2390.461681640625,641.73042578125L2402.031681640625,664.0604257812499Q2399.351681640625,685.27042578125,2396.711681640625,691.64042578125C2394.0626816406248,698.02042578125,2393.602681640625,720.39042578125,2382.151681640625,719.3204257812499C2370.711681640625,718.24042578125,2367.352681640625,691.0414257812499,2363.981681640625,684.68042578125Q2360.622681640625,678.3204257812499,2358.912681640625,672.83042578125Q2345.8126816406248,684.3104257812499,2339.421681640625,675.6504257812501C2333.022681640625,666.98042578125,2337.241681640625,652.24042578125,2345.772681640625,645.43042578125C2368.861681640625,626.98042578125,2410.582681640625,563.74042578125,2432.441681640625,536.79042578125C2432.691681640625,536.49042578125,2432.182681640625,535.53042578125,2431.5516816406252,535.91942578125Q2427.111681640625,538.75942578125,2403.631681640625,557.37942578125C2392.171681640625,564.46942578125,2395.221681640625,565.12042578125,2383.711681640625,571.91942578125C2383.182681640625,572.27942578125,2382.481681640625,571.92942578125,2382.892681640625,571.10942578125C2390.532681640625,555.94042578125,2424.722681640625,518.29042578125,2438.151681640625,495.00972578125Q2268.301681640625,679.21942578125,2261.671681640625,702.5794257812499C2255.031681640625,725.9294257812501,2223.562281640625,760.25942578125,2212.562281640625,757.64942578125C2201.571981640625,755.04942578125,2178.102281640625,767.4294257812501,2157.892381640625,736.6694257812501Q2137.692141640625,705.90942578125,2141.681396640625,702.35042578125L2141.681396640625,702.35042578125ZM2393.231681640625,723.74042578125Q2414.240681640625,715.36042578125,2422.971681640625,733.02042578125C2431.701681640625,750.69042578125,2421.691681640625,775.10042578125,2419.3016816406252,782.31942578125Q2416.921681640625,789.54042578125,2408.601681640625,813.4194257812501L2405.101681640625,806.64042578125Q2392.911681640625,773.38042578125,2395.701681640625,760.02042578125Q2398.501681640625,746.64942578125,2398.351681640625,740.21042578125L2393.231681640625,723.74042578125L2393.231681640625,723.74042578125ZM2351.211681640625,724.0704257812499Q2361.110681640625,732.10042578125,2366.470681640625,743.4004257812501C2371.830681640625,754.70042578125,2392.300681640625,820.5704257812499,2394.550681640625,833.76042578125Q2396.791681640625,846.95042578125,2395.280681640625,865.94042578125Q2401.640681640625,883.4104257812501,2407.170681640625,879.61042578125C2412.700681640625,875.8104257812499,2419.771681640625,855.3204257812499,2413.720681640625,843.3104257812499C2407.670681640625,831.3004257812499,2406.300681640625,816.45042578125,2408.601681640625,813.4194257812501Q2410.900681640625,810.39042578125,2418.690681640625,805.6604257812501Q2440.540681640625,810.44042578125,2449.400681640625,815.10042578125C2458.260681640625,819.75042578125,2469.790681640625,830.0604257812499,2470.580681640625,832.59042578125Q2471.3706816406248,835.13042578125,2472.170681640625,857.10042578125Q2457.450681640625,872.3204257812499,2452.070681640625,875.85042578125C2446.680681640625,879.37042578125,2439.600681640625,890.84042578125,2440.510681640625,893.79042578125C2441.430681640625,896.75042578125,2441.910681640625,911.66042578125,2442.760681640625,906.4004257812501C2444.290681640625,896.87042578125,2554.140681640625,817.70042578125,2570.690681640625,826.96042578125C2581.330681640625,832.9104257812501,2570.130681640625,847.50042578125,2572.240681640625,860.27042578125C2574.360681640625,873.04042578125,2566.500681640625,891.0704257812499,2564.340681640625,898.85042578125C2573.310681640625,900.00042578125,2619.180681640625,912.16042578125,2615.880681640625,943.28042578125C2612.590681640625,974.40042578125,2596.500681640625,973.87942578125,2580.040681640625,978.99042578125C2563.570681640625,984.11042578125,2555.260681640625,979.74042578125,2548.100681640625,974.56042578125Q2540.930681640625,969.38042578125,2527.530681640625,960.75142578125L2524.481681640625,959.15142578125Q2509.130681640625,984.98142578125,2495.280681640625,985.12142578125C2481.430681640625,985.25142578125,2464.790681640625,970.78142578125,2462.690681640625,964.21142578125C2465.280681640625,959.54142578125,2470.690681640625,956.65142578125,2475.760681640625,955.07142578125C2480.820681640625,953.50142578125,2481.910681640625,951.89142578125,2488.430681640625,947.55142578125C2494.950681640625,943.21142578125,2498.790681640625,941.39142578125,2504.940681640625,934.60142578125C2501.580681640625,928.24142578125,2491.450681640625,916.39142578125,2487.740681640625,913.38142578125Q2484.030681640625,910.37142578125,2477.200681640625,909.25142578125Q2470.650681640625,915.22142578125,2458.320681640625,925.76142578125C2445.990681640625,936.30142578125,2433.110681640625,947.11142578125,2427.8706816406248,955.95142578125C2422.6296816406248,964.78142578125,2374.730681640625,1066.56142578125,2371.1296816406248,1078.79142578125C2367.520681640625,1091.02142578125,2350.960681640625,1121.1704257812498,2345.460681640625,1130.29142578125Q2339.960681640625,1139.41142578125,2332.299681640625,1144.5604257812502L2313.480681640625,1134.6704257812498Q2322.770681640625,1070.6704257812498,2330.3796816406248,1060.89042578125C2337.989681640625,1051.1214257812499,2358.399681640625,1010.98042578125,2365.960681640625,996.59042578125Q2373.529681640625,982.21142578125,2386.960681640625,947.94042578125Q2394.600681640625,923.34042578125,2395.080681640625,920.41042578125Q2395.560681640625,917.49042578125,2398.020681640625,913.48042578125L2395.390681640625,905.03042578125Q2365.660681640625,922.61042578125,2349.880681640625,880.75042578125C2334.100681640625,838.89042578125,2338.110681640625,807.08042578125,2340.460681640625,801.26042578125C2342.820681640625,795.43042578125,2349.860681640625,765.93042578125,2349.960681640625,754.3204257812499Q2350.050681640625,742.72042578125,2351.211681640625,724.0704257812499L2351.211681640625,724.0704257812499ZM2502.541681640625,888.85042578125C2509.050681640625,882.5604257812499,2535.731681640625,868.37942578125,2544.481681640625,865.26042578125C2550.440681640625,873.58042578125,2542.161681640625,886.60042578125,2539.481681640625,895.1704257812501C2521.411681640625,890.39042578125,2513.590681640625,890.12042578125,2502.541681640625,888.85042578125L2502.541681640625,888.85042578125Z" fill-rule="evenodd" fill="#005641" fill-opacity="1"/></g><g><path d="M3851.851319140625,748.5396015625Q3863.151119140625,737.4106015625,3864.441119140625,751.6096015625C3865.841019140625,767.0496015625,3863.751219140625,772.2696015624999,3878.791219140625,777.9896015625Q3885.931419140625,780.6996015625,3896.771219140625,781.4196015625C3909.531019140625,783.3596015625,3923.6911191406252,790.7496015625,3929.621119140625,791.3996015625C3947.171119140625,793.3496015625,4123.941119140625,808.6096015625001,4124.381119140625,808.5496015625C4127.981119140625,808.1096015625001,4161.661119140625,815.3296015625,4172.201119140625,805.4196015625C4182.751119140625,795.4996015625,4209.561119140625,752.2096015625,4216.110119140625,741.2996015625C4222.651119140625,730.3996015625,4262.990119140625,676.4096015625,4266.721119140625,653.4896015625C4270.461119140625,630.5596015625,4267.081119140625,591.6499015625,4278.131119140625,566.2895015625C4289.171119140625,540.9296915625,4296.571119140625,536.9394515625,4303.321119140625,538.2294925625C4310.062119140625,539.5195315625,4329.791119140625,559.4497015625,4334.522119140625,566.4395015625C4343.571119140625,579.8096015625,4344.411119140625,590.7593015625,4352.642119140625,600.7793015625C4359.892119140625,609.5894015625,4366.951119140625,623.3491015625,4368.382119140625,649.7096015625Q4356.462119140625,671.5096015624999,4338.762119140625,680.9696015625Q4266.232119140625,799.0496015625,4265.312119140625,801.9696015625C4264.392119140625,804.8896015625,4263.531119140625,809.4596015625,4264.201119140625,810.4296015625C4264.871119140625,811.3996015625,4315.651119140625,806.4586015625,4332.182119140625,804.6596015625C4348.712119140625,802.8696015625001,4385.392119140625,793.9186015625,4404.162119140625,784.9096015625C4421.282119140625,792.9696015625,4436.472119140625,814.5496015625,4439.052119140625,826.3696015625001C4433.692119140625,836.2886015624999,4413.672119140625,833.2396015625,4383.832119140625,840.5696015625C4323.402119140625,855.4296015625,4286.072119140625,858.2496015625,4226.972119140625,861.6796015625C4149.942119140625,952.0886015625,4066.612119140625,1009.9586015625,3933.182119140625,975.4496015625Q3899.931919140625,966.8496015625001,3861.691619140625,941.3396015625C3861.841519140625,938.6396015625,3861.511519140625,937.5396015625,3865.141819140625,935.3696015625001C3899.511919140625,934.1196015625001,3964.782119140625,942.8786015625001,3994.232119140625,935.6596015625C4036.821119140625,925.2196015625,4079.212119140625,905.3996015625,4090.122119140625,894.8696015625001Q4101.032119140625,884.3496015625001,4129.782119140625,857.8786015625001C4099.932119140625,858.3186015625,4066.702119140625,856.9386015625,4039.732119140625,852.2586015625C3983.272119140625,842.4486015625,3934.492119140625,876.1486015625001,3874.252219140625,854.4486015625C3831.672119140625,839.1086015625,3821.382079140625,827.0186015625,3823.902099140625,813.0886015625C3826.411869140625,799.1686015625,3835.161819140625,771.3486015625,3841.982219140625,761.3886015625001Q3848.792219140625,751.4286015625,3851.852319140625,748.5386015624999L3851.851319140625,748.5396015625ZM4273.091119140625,1005.1296015625C4292.581119140625,1025.4906015625,4328.331119140625,1117.9696015625,4297.641119140625,1140.2806015625001C4288.171119140625,1143.5396015625001,4255.891119140625,1145.1406015625,4248.831119140625,1143.6806015625C4241.772119140625,1142.2206015625,4230.982119140625,1140.7206015625,4224.851119140625,1134.9406015625C4218.711119140625,1129.1506015625,4209.831119140625,1115.4106015625,4210.891119140625,1111.5606015624999C4211.951119140625,1107.7106015625,4224.700119140625,1106.6506015625,4227.011119140625,1095.8406015625C4231.610119140625,1074.3406015625,4227.901119140625,1019.3906015625,4248.831119140625,998.2506015624999C4258.831119140625,988.1406015625,4262.451119140625,994.0206015625,4273.091119140625,1005.1296015625L4273.091119140625,1005.1296015625Z" fill-rule="evenodd" fill="#005641" fill-opacity="1"/></g><g><path d="M5228.0910546875,1822.7099140625C5253.2610546875,1839.4899140625,5329.0200546875,1892.1999140625,5347.8810546875,1915.2599140625C5349.3310546875,1924.3699140625,5360.2700546875,1938.2899140625,5350.1310546875,1946.1599140624999C5339.9910546875,1954.0399140625,5287.2910546875,1953.6009140625001,5283.2210546875,1951.8799140625001C5279.1500546875,1950.1699140625,5236.3510546875,1911.2099140625,5228.9310546875,1909.1099140625001C5210.7800546875,1929.1299140625001,5196.6210546875,1964.0609140625002,5181.7000546875,1987.9409140625C5159.5200546875,2023.4409140625,5091.8600546875,2008.9809140625,5069.5300546875,1981.1099140625001C5061.4501546875,1969.6699140625,5057.6406546875,1959.7399140625,5052.9306546875,1948.1809140625C5048.2206546875,1936.6099140625001,5043.1503546875,1927.3509140625001,5039.0009546875,1921.2399140625C5034.8408546875,1915.1299140625001,5031.9306546875,1910.3599140625001,5035.5009546875,1905.0699140625C5039.0810546875,1899.7799140625,5034.9414546875,1887.6409140625,5037.7314546875,1889.0399140625C5040.5214546875,1890.4409140625,5051.1210546875,1902.5799140625,5059.5517546875,1911.7099140625C5067.9810546875,1920.8399140625002,5070.6420546875,1925.3399140625002,5090.8920546875,1936.4899140625C5111.1420546875,1947.6409140625,5112.1110546875,1949.2309140625,5123.3520546875,1952.7799140625C5134.5920546875,1956.3299140625,5137.7310546875,1955.4199140625,5145.7410546875,1949.0209140625C5153.7610546875,1942.6099140625001,5155.7810546875,1939.1709140624998,5162.2110546875,1934.5209140625C5177.9510546875,1923.1409140625,5190.7210546875,1910.3299140625,5200.4510546875,1891.6409140625C5195.3310546875,1867.0299140625,5026.0410546875,1820.1209140625,4997.1415546875,1808.9709140625C4974.7314446875,1800.3199140625,4969.1318346875,1796.2909140625,4968.0117186875,1785.3909140625C4966.8916016875,1774.4809140625,4967.4814452875,1774.8599140625001,4975.6318346875,1758.3709140625C4983.7919546875,1741.8909140625,4992.2119546875,1725.1509140625,4997.8115546875,1720.9819140625C5003.4013546875,1716.8019140625,5005.0019546875,1713.9719140625,5017.2216546875,1720.4619140625C5082.6320546875,1755.1819140625,5171.8420546875,1785.2219140625,5228.0920546875,1822.7119140625L5228.0910546875,1822.7099140625ZM5508.2510546875,1787.2199140625C5525.6010546875,1789.2199140625,5562.0200546875,1844.1399140624999,5555.1610546875,1853.1699140625C5548.3110546875,1862.1999140625,5531.4310546875,1881.9499140625,5498.5610546875,1885.3299140625C5462.8710546875,1888.9999140625,5351.2220546875,1849.3799140625001,5326.8710546875,1825.2099140625C5321.2510546875,1819.6199140625,5315.7710546875,1812.4199140625,5317.1710546875,1808.8099140625C5318.5710546875,1805.1989140625,5349.3610546875,1812.8689140625,5379.5810546875,1818.0499140625C5381.6910546875,1818.4199140625,5446.0810546875,1823.0799140625,5447.1910546875,1822.9399140625C5452.9810546875,1822.2489140625,5486.9220546875,1822.4399140625,5481.2010546875,1813.8799140625001C5477.2210546875,1807.9099140624999,5471.9710546875,1805.0099140625,5464.3010546875,1803.6299140625001C5454.8600546875,1804.6299140625001,5410.0700546875,1788.2999140625,5389.0510546875,1784.7599140625C5368.0310546875,1781.2299140625,5308.9800546875,1773.1199140625,5255.6410546875,1743.6489140625C5202.3100546875,1714.1899140625,5199.3200546875,1717.6489140625,5176.8710546875,1694.7599140625Q5154.4310546875,1671.8799140625001,5152.1810546875,1655.6599140624999L5162.8710546875,1649.6999140625C5251.0910546875,1682.7709140625,5307.7110546875,1707.4409140625,5392.8710546875,1744.8109140625C5399.9510546875,1747.9209140625,5504.7010546875,1790.5509140625,5508.2510546875,1787.2199140625L5508.2510546875,1787.2199140625ZM5488.3310546875,1750.0799140625C5473.4810546875,1751.3799140625001,5450.1010546875,1742.0799140625,5443.6010546875,1738.6799140625C5437.1100546875,1735.2699140625,5426.9000546875,1731.2899140625,5429.5110546875,1724.7299140625C5437.3410546875,1725.0199140625,5471.6610546875,1723.7599140625,5480.5910546875,1718.6399140624999C5476.8410546875,1700.2389140625,5475.1310546875,1681.3499140625,5473.7010546875,1671.6489140625Q5441.2010546875,1667.7999140625,5427.7210546875,1665.9589140625C5423.1410546875,1664.3289140625,5384.6310546875,1653.8389140625,5391.8010546875,1640.2289140625C5396.5310546875,1640.2189140625,5470.5510546875,1641.8089140625,5470.2910546875,1640.2589140625C5469.2710546875,1634.0279140625,5465.1610546875,1589.0489140625,5469.7810546875,1589.6079140625C5481.3010546875,1607.5679140625,5484.4010546875,1625.9979140625,5489.3520546875,1639.6279140625C5504.6610546875,1638.9479140624999,5606.0420546875,1634.9979140625,5608.2410546875,1634.2679140625C5609.2910546875,1633.6879140625,5609.8810546875,1629.6279140625,5609.0710546875,1628.5079140625C5571.8210546875,1620.4179140625,5548.0310546875,1621.8079140625,5518.9810546875,1596.8169140625C5524.8310546875,1591.3479140625,5585.7010546875,1604.5269140625,5592.4810546875,1604.8579140625C5587.7310546875,1591.5179140625,5560.3110546875,1572.6379140625,5551.7710546875005,1545.2679140625C5548.6110546875,1535.1169140625,5559.7010546875,1525.5669140625,5562.9720546875,1526.2679140625Q5566.2410546875,1526.9779140625,5571.9010546875,1530.8269140625C5581.4210546875,1547.5579140625,5615.0310546875,1585.5369140625,5634.4720546875,1597.0769140625C5656.1020546875,1596.4869140625,5713.8020546875,1580.9869140625,5722.9120546875,1571.9469140625001C5732.0120546875005,1562.9169140625,5744.7320546875,1553.8079140625,5748.5420546875,1553.0979140625C5752.3420546875,1552.3779140625,5754.7420546875,1553.7979140625,5756.5520546875,1555.9679140625C5758.3520546875,1558.1379140625,5767.2420546875,1589.1179140625,5741.8520546875,1608.2579140625C5716.4720546875,1627.4079140625,5686.8610546875,1624.4079140625,5672.0520546875,1627.1879140625C5665.2120546875,1628.6879140625,5663.5020546875,1635.9469140625001,5655.6220546875,1638.8269140625C5650.3820546875,1640.7369140625,5638.2920546875,1637.6079140625,5635.0920546875,1640.8669140625C5633.1720546875,1642.8269140625,5631.8020546875,1645.0869140625,5631.2020546875,1647.7169140625C5627.4920546875,1663.8769140625,5750.3020546875,1711.1969140625001,5756.3220546875,1771.4669140625C5735.4920546875,1856.5569140625,5546.4820546875,1787.7969140625,5512.7920546875,1769.8869140625C5512.4120546875,1779.6559140625,5503.0220546875,1782.6959140625,5499.8110546875,1782.7669140625C5493.6110546875,1777.4769140624999,5489.3210546875,1756.5569140625,5488.3310546875,1750.0759140625L5488.3310546875,1750.0799140625ZM5607.7410546875,1656.8599140625001C5613.1420546875,1649.5909140625,5640.1910546875,1721.7099140625,5643.4810546875,1731.8509140625001C5645.9720546875,1739.5509140625,5649.3420546875,1737.7309140625,5644.5210546875005,1743.6909140625C5632.1320546875,1759.0299140625,5558.3420546875,1746.5109140625,5518.7620546875005,1759.2399140625C5513.8320546875,1759.4309140625,5513.0210546875005,1761.5099140625,5510.8110546875,1756.3399140625C5509.5610546875,1753.4499140625,5510.5020546875,1750.1799140625,5508.9010546875,1745.5799140625C5526.3310546875,1742.9099140624999,5551.5520546875,1716.2199140625,5554.8610546875,1699.9409140625C5555.3520546875,1691.7099140625,5555.4110546875,1691.1809140625,5552.2810546875,1687.4209140625C5549.1610546875,1683.6609140625,5540.4720546875,1692.1909140625,5531.7010546875,1697.5309140625C5522.9410546875,1702.8609140625,5510.4110546875,1713.9509140625,5502.1710546875,1714.6209140625C5501.2810546875,1705.4209140625,5497.0710546875,1680.5409140625,5496.2110546875,1670.3309140625001C5515.5110546875,1675.7209140625,5604.1310546875,1661.7109140625,5607.7410546875,1656.8599140625001L5607.7410546875,1656.8599140625001ZM5271.1910546875,1506.7799140625C5275.1820546875,1508.1499140625,5276.9510546875,1516.9899140625,5278.4010546875,1529.8799140625001C5280.8820546875,1551.9599140625,5268.1710546875,1592.0599140625,5253.4410546875,1604.6699140625C5238.7220546875,1617.2699140625,5206.1210546875,1617.5299140625,5203.1420546875,1614.3099140625C5200.1720546875,1611.0899140625,5194.9010546875,1606.9999140625,5197.3420546875,1597.7899140625C5199.7710546875,1588.5699140625,5202.6820546875,1567.4809140625,5213.7120546875,1556.7899140625C5224.7310546875,1546.1099140625,5246.3110546875,1530.1599140625,5248.5210546875,1526.6299140625001C5251.8420546875,1521.3199140625,5264.8710546875,1504.6099140625,5271.1910546875,1506.7799140625ZM5402.2710546875,1394.6298840625C5413.8210546875,1442.8496140625,5451.2620546875,1551.8199140625,5389.5410546875,1612.0999140625C5380.1210546875,1621.2999140625,5364.2810546875,1622.9999140625,5351.0810546875,1623.2499140625C5337.8810546875,1623.4999140625,5320.0310546875,1617.0999140625,5315.8110546875,1612.5399140625C5311.6020546875,1607.9699140625,5322.1610546875,1596.2599140625,5329.1320546875,1589.7899140625C5389.2820546875,1533.9899140625,5379.8020546875,1465.6103140625,5397.7420546875,1394.5703120625C5398.1430546875,1392.9599610625,5401.3720546875,1393.5800781225,5402.2710546875,1394.6298840625L5402.2710546875,1394.6298840625Z" fill-rule="evenodd" fill="#005641" fill-opacity="1"/></g></g></g></svg>