<svg width="88" height="82" viewBox="0 0 88 82" fill="none" xmlns="http://www.w3.org/2000/svg">
<path fill-rule="evenodd" clip-rule="evenodd" d="M18.5193 67.0253C23.4027 74.373 31.1897 79.6185 40.1403 81.1362C30.1446 80.2029 21.4269 74.9574 15.7314 67.3767C15.9631 67.3767 16.895 67.2596 18.0573 67.1411C18.1731 67.0253 18.4048 67.0253 18.5193 67.0253Z" fill="#009FE8"/>
<path fill-rule="evenodd" clip-rule="evenodd" d="M57.4599 49.7711L58.6208 49.8883V52.4538H57.2256C57.4599 51.6377 57.4599 50.7044 57.4599 49.7711Z" fill="#009FE8"/>
<path fill-rule="evenodd" clip-rule="evenodd" d="M53.6249 17.1239C52.5798 21.6731 51.4149 25.8695 50.3685 29.7184C54.5542 31.3506 58.7399 32.5182 63.156 33.3303C63.2705 29.134 63.0362 24.9389 62.3426 20.7425C59.6692 19.1089 56.7602 17.8255 53.6249 17.1239ZM42.0009 16.3118C40.1411 18.177 38.397 20.158 36.7701 22.3734C40.4912 24.9389 44.3241 27.0358 48.2796 28.7878C49.788 24.8204 51.532 20.7425 53.3919 17.0107C50.9516 16.4289 48.2796 16.0775 45.6036 16.0775C44.44 16.0775 43.279 16.1933 42.0009 16.3118ZM32.2382 18.9931C33.1661 19.8092 34.0968 20.5055 35.0274 21.2058C37.0044 19.2274 39.5579 17.474 41.535 16.3118C38.397 16.7764 35.0274 17.7097 32.2382 18.9931ZM25.3791 35.3141C27.8195 30.5345 30.61 26.1038 33.7466 22.6037C32.8173 21.5559 32.0039 20.5055 31.3076 19.4577C26.4256 21.7903 22.2398 25.4049 19.1045 29.7184C21.1934 31.7008 23.2862 33.5647 25.3791 35.3141ZM37.4691 46.3922C33.6321 44.4071 30.0295 42.1931 26.8889 39.7448C26.1939 41.377 25.4963 43.0092 24.9158 44.5243H22.2398L21.3119 45.2246C22.2398 42.6577 23.1678 40.0936 24.3327 37.5294C22.0082 35.4285 20.0338 33.0987 18.52 30.6504C15.848 34.7309 13.9881 39.3946 13.2905 44.5243H9.10742C10.3868 26.8014 25.1475 12.8143 43.1632 12.8143C57.346 12.8143 69.5505 21.5559 74.6642 33.9161C71.9895 28.6706 67.6879 24.0043 62.6914 20.857C64.0853 24.7046 65.2476 29.134 65.4805 33.6818C67.9182 34.032 70.2441 34.265 72.6871 34.265C70.5929 34.9626 68.1525 35.3141 65.595 35.4285C65.595 38.4614 65.3647 41.6087 64.9001 44.5243H62.4571L61.5278 45.3404C62.3426 41.9615 62.8072 38.697 63.0362 35.3141C58.6215 35.0811 53.9724 34.032 49.5537 32.3997C48.2796 36.8305 47.0001 40.7952 45.7207 44.5243H42.6972C44.0925 40.5609 45.6036 36.0157 47.2345 31.5823C42.6972 29.5999 38.5128 27.1529 35.3762 24.2373C32.587 28.2007 30.1453 32.6314 28.0525 37.1806C32.1224 40.0936 36.4239 42.5433 40.9558 44.5243H39.7949L37.4691 46.3922Z" fill="#009FE8"/>
<path fill-rule="evenodd" clip-rule="evenodd" d="M5.04125 47.9098V59.0985C4.92276 62.2471 6.54966 64.111 8.52404 65.3957C12.8269 68.1915 19.8005 67.8427 23.519 64.6954C18.0565 66.2092 12.2452 65.2772 10.0391 62.1299C9.34016 61.0795 8.99268 59.9159 8.99268 58.5167V44.644L5.04125 47.9098ZM18.4053 47.9098L22.4739 44.644V57.6992C22.4739 59.7961 20.9601 61.3125 19.2201 61.7798C17.7077 62.2471 15.9636 61.7798 14.9198 60.4977C15.3845 60.6162 16.3137 60.8478 17.2417 60.266C17.476 60.0344 17.7077 59.7961 17.9406 59.5671C18.2855 59.0985 18.4053 58.5167 18.4053 57.4689V47.9098ZM27.4717 47.9098L31.4232 44.644V64.9297H35.6076L32.8171 67.2583H27.4717V47.9098ZM36.0736 47.9098V67.2583H51.0672C54.2051 66.7923 55.9479 65.5115 57.226 63.645C56.065 64.3453 54.0893 64.9297 52.4611 64.9297H40.1408V44.644L36.0736 47.9098ZM44.4397 47.9098H50.9513C52.9257 47.9098 54.0893 49.6539 53.2745 51.4033C52.8099 52.3366 51.7621 52.8052 50.0221 52.8052C50.8342 52.1036 50.717 51.1716 50.0221 50.5898C49.6719 50.2384 49.2073 50.1185 48.5096 50.1185H44.4397V47.9098ZM44.4397 56.3013H51.2988C52.4611 56.3013 53.0415 56.533 53.5075 57.0003C54.2051 57.6992 54.6724 59.2156 53.5075 60.4977C52.8099 61.3125 51.8793 61.4296 50.6025 61.4296C51.4146 60.8478 51.4146 59.7961 51.0672 59.2156C50.717 58.747 50.1379 58.5167 49.7877 58.5167H44.4397V56.3013ZM58.7397 47.9098V67.2583H76.7515L79.4301 64.9297H62.6911V44.644L58.7397 47.9098ZM66.9927 48.2546H78.8443L76.7515 50.4687H66.9927V48.2546ZM66.9927 56.1855H78.148L76.0552 58.5167H66.9927V56.1855Z" fill="#004F97"/>
<path fill-rule="evenodd" clip-rule="evenodd" d="M51.9134 74.2691C52.6124 74.2691 53.1928 74.7351 53.1928 75.4381C53.1928 76.133 52.6124 76.7175 51.9134 76.7175C51.2184 76.7175 50.7525 76.133 50.7525 75.4381C50.7525 74.7351 51.2184 74.2691 51.9134 74.2691ZM54.9382 74.8523C54.7052 74.1506 54.4709 73.5702 53.8918 73.2214C53.4258 72.7527 52.6124 72.4026 51.7976 72.4026C51.2184 72.4026 50.634 72.6329 50.1707 72.9884C49.3599 73.5702 49.1256 74.1506 48.8953 74.7351C48.7768 75.5539 48.8953 76.3673 49.2401 76.832C49.939 78.1141 50.9868 78.4682 51.6831 78.5854L50.0588 80.9152H52.3807L54.1248 78.0009C54.2406 77.7679 55.1699 76.133 54.9382 74.8523ZM68.7682 72.8726H66.0962L65.1656 74.7351H67.0255V80.9152H68.7682V72.8726ZM62.2593 72.8726H58.0735L57.4931 77.1821C58.1947 76.832 58.7712 76.6003 59.2358 76.6003C60.2849 76.6003 60.7469 77.5363 60.6311 78.351C60.6311 79.1658 59.5859 79.9819 58.5408 79.3988C58.1947 79.2816 57.7274 78.9355 57.3786 78.5854L57.0311 80.3307C57.9577 81.1482 59.5859 81.3825 60.7469 80.9152C61.6788 80.5664 62.2593 79.8634 62.4936 78.9355C62.6081 78.5854 62.7239 77.3006 61.9091 76.3673C61.4472 75.904 60.6311 75.3196 59.1213 75.4381L59.2358 74.6193H62.2593V72.8726ZM45.1741 72.8726H42.385L41.457 74.7351H43.3129V80.9152H45.1741V72.8726Z" fill="#004F97"/>
<path fill-rule="evenodd" clip-rule="evenodd" d="M2.71254 30.7674L2.47955 29.8355L2.01624 29.5998L2.12941 30.5344L2.71254 30.7674ZM2.12941 28.9009C2.01624 28.7877 1.89908 28.7877 2.01624 28.9009V29.1339C2.12941 29.1339 2.12941 29.018 2.12941 28.9009ZM3.17851 26.3367C3.52732 26.5684 3.87613 26.8013 4.3421 26.9185L4.22494 26.1037L3.17851 26.3367ZM10.6167 29.251C10.847 29.4853 11.1959 29.5998 11.4302 29.95C11.3157 30.0685 11.1959 30.1856 10.9655 30.1856C10.847 30.1856 10.7339 30.0685 10.5022 30.1856L9.22281 30.4159L10.3864 29.95C10.6167 29.8355 10.6167 29.7183 10.3864 29.5998L7.24443 28.3191L4.92124 27.6188C4.92124 27.8531 5.04106 28.4362 5.27138 28.7877C5.85051 29.3695 5.62019 29.5998 5.85051 29.8355C6.0835 29.95 6.0835 29.251 6.43364 29.5998C6.43364 29.95 6.54947 30.0685 6.43364 30.5344C6.54947 30.8832 6.78245 31.2347 6.89562 31.5822C7.12994 32.2798 7.47475 32.2798 7.59458 32.6313L7.82889 32.8683C7.82889 32.9814 7.82889 33.2171 7.94472 33.4487C7.94472 33.6817 8.05921 33.916 8.29353 34.149L8.52385 34.7308C8.64101 34.8493 8.17637 35.081 7.94472 34.8493L6.66663 31.9337L5.73602 31.7007C5.73602 32.3996 6.54947 33.4487 6.31515 33.5646C5.96634 33.6817 5.96634 32.9814 5.73602 32.8683C5.62019 32.9814 5.62019 33.2171 5.5017 33.2171C5.15555 33.0986 5.04106 32.7498 5.04106 32.2798C4.57375 31.5822 4.3421 30.7674 3.99196 30.6503C4.3421 33.6817 5.04106 36.0156 6.0835 38.1138C6.20066 38.3441 5.73602 38.5771 5.73602 38.4613C4.80674 36.0156 4.10912 33.916 3.87613 31.5822C3.7603 31.1176 3.64314 30.6503 3.52732 30.3001C3.40883 30.1856 3.40883 30.4159 3.29566 30.4159C3.17851 30.4159 3.29566 30.1856 3.29566 30.0685L2.59804 29.8355L2.82836 30.7674C3.40883 31.0004 3.64314 31.2347 3.64314 31.469C3.52732 31.5822 3.29566 31.5822 3.06268 31.3505C3.29566 31.9337 3.64314 32.9814 3.99196 34.0319C3.52732 33.0986 3.17851 32.1667 2.82836 31.3505L2.24923 31.1176C2.47955 31.9337 2.59804 32.5181 2.94818 33.2171C2.94818 33.3303 3.17851 33.4487 3.06268 33.5646C2.82836 33.7976 2.59804 33.6817 2.59804 33.2171L1.89908 30.8832L0.738151 30.4159H0.505166C0.0391955 30.3001 0.274843 29.7183 0.738151 29.8355L0.969805 30.0685C1.08563 30.1856 1.43578 30.1856 1.78326 30.4159L1.66876 29.3695L0.274843 28.7877C-0.424112 28.5534 0.389339 27.9689 0.738151 28.0874C0.969805 28.4362 1.31595 28.5534 1.66876 28.6706C1.78326 28.3191 1.89908 28.0874 2.12941 28.2006L2.47955 29.4853L3.52732 29.8355L3.29566 28.5534C3.29566 28.2006 3.52732 27.9689 3.64314 28.0874C3.64314 28.4362 3.7603 28.5534 3.7603 28.7877C3.87613 29.8355 4.3421 30.7674 4.80674 31.8165C5.04106 31.1176 4.57375 30.6503 4.80674 30.1856C4.92124 29.8355 5.04106 30.1856 5.04106 30.1856L5.15555 30.7674C5.27138 30.8832 5.5017 30.6503 5.38854 30.4159C5.27138 30.3001 5.15555 30.0685 5.5017 30.0685C5.85051 30.1856 5.27138 31.1176 5.62019 31.3505L6.54947 31.7007C6.31515 31.2347 6.20066 30.7674 6.20066 30.3001C5.85051 30.1856 5.62019 30.0685 5.62019 29.8355C5.04106 29.3695 4.68825 28.4362 4.4566 27.3871L1.20279 26.1037C0.623656 25.8694 0.85531 25.4048 1.43578 25.5219L2.01624 25.7549L2.94818 26.2195C3.40883 26.2195 3.87613 26.2195 4.10912 25.9879L4.22494 25.7549C4.3421 25.6364 4.4566 25.7549 4.3421 25.9879L4.80674 27.1528L10.6167 29.251ZM6.78245 29.4853C6.66663 29.8355 6.78245 30.1856 6.89562 30.3001C7.12994 29.8355 7.24443 30.0685 7.36026 29.7183C7.47475 29.3695 6.89562 29.251 6.78245 29.4853Z" fill="#009FE8"/>
<path fill-rule="evenodd" clip-rule="evenodd" d="M15.6143 19.8092L15.8473 20.391H15.384C14.6837 19.692 13.8729 19.4577 13.2898 19.1089C13.8729 19.2274 14.3389 19.4577 14.4534 19.4577L11.8945 17.241C11.78 17.3595 11.8945 17.5925 11.8945 17.7096C11.78 17.5925 11.6629 17.3595 11.78 17.1238C11.0851 16.4289 10.3861 15.7273 9.92147 14.9098L9.68715 14.2095L9.33967 13.9792C9.22251 14.2095 9.45283 14.6782 9.45283 14.9098V15.8444C9.33967 16.0774 9.10668 15.26 8.99219 14.9098C8.99219 14.5597 9.22251 14.2095 9.22251 13.862C9.22251 13.5106 9.10668 13.3974 9.10668 13.2776C9.10668 13.1644 9.33967 13.3974 9.45283 13.2776V13.6304C9.68715 13.9792 9.92147 14.4438 10.1531 14.794C10.2663 15.0283 10.3861 15.3771 10.5019 15.6101L11.8945 16.8909C12.2447 15.9616 12.5948 15.4943 13.2898 15.7273C13.5214 15.9616 13.4069 16.3117 12.8265 16.7764C12.8265 16.0774 12.2447 16.4289 12.013 17.0093C12.9396 17.9413 14.1059 18.7587 15.384 19.692C15.384 19.8092 15.4998 19.692 15.6143 19.8092ZM11.6629 21.7902C11.3154 21.7902 10.6164 20.8569 10.9652 20.2738C11.0851 20.0408 11.4299 20.158 11.5497 20.391C11.6629 20.6226 11.8945 21.673 11.6629 21.7902ZM12.013 20.0408C11.78 19.8092 11.5497 19.8092 11.3154 19.4577C11.1969 19.1089 10.8468 18.5244 10.5019 17.9413C10.5019 17.8255 10.0386 17.8255 10.0386 17.9413C10.0386 18.1769 10.0386 18.2914 9.80298 18.5244C9.56866 18.2914 9.56866 17.7096 9.45283 17.3595C9.56866 17.241 9.22251 17.0093 9.22251 17.241C9.22251 17.474 9.33967 17.9413 9.45283 18.4086C9.45283 18.5244 9.56866 18.6416 9.56866 18.7587C9.56866 18.993 9.45283 19.2274 9.45283 19.3419C9.56866 19.8092 9.56866 19.9223 9.80298 20.158C9.92147 20.2738 9.92147 20.0408 10.0386 19.8092C10.1531 19.3419 9.92147 19.3419 9.92147 19.1089C9.92147 18.993 10.0386 18.7587 10.0386 18.6416L10.2663 18.2914C10.6164 18.1769 10.9652 19.1089 11.1969 19.5748C11.0851 19.9223 10.7336 19.692 10.5019 20.0408C10.3861 20.391 10.5019 20.7424 10.5019 21.0899C10.7336 21.9074 11.5497 22.8366 11.78 22.6037C12.013 22.3733 12.1275 22.1403 12.1275 21.9074C12.3592 21.3229 12.2447 20.8569 11.8945 20.5055C11.78 20.391 12.1275 20.158 12.013 20.0408Z" fill="#009FE8"/>
<path fill-rule="evenodd" clip-rule="evenodd" d="M23.2803 7.82436C23.2856 7.81371 23.2909 7.80173 23.2962 7.78975C23.2922 7.79374 23.2909 7.79507 23.2856 7.7964C23.2856 7.80839 23.2856 7.81638 23.2803 7.82436ZM27.3568 10.5949C27.4713 10.716 27.4713 10.9464 27.237 11.2978L26.4249 12.8129C26.4249 12.3469 27.1212 11.2978 26.5421 11.5282C25.9603 11.9955 25.6128 12.4628 25.26 12.9301C25.031 13.1644 24.798 13.0446 24.9152 12.5786C25.1455 11.8783 25.3785 11.0649 25.4956 10.2487C25.6128 9.66561 25.7259 8.96533 25.4956 8.73101C25.031 8.49802 24.798 8.73101 24.6795 9.54845L24.9152 10.0158C25.1455 10.3646 25.1455 10.716 24.9152 10.5949L24.1004 10.2487C23.9845 10.1316 23.8674 10.0158 23.8674 9.89727L24.2149 8.96533L23.6371 7.56608C23.5239 7.68058 23.4107 7.68191 23.2962 7.78975C23.3761 7.62999 23.448 7.47688 23.5186 7.33177C23.1671 6.39982 23.2856 6.04968 23.0526 6.04968C22.8223 6.16684 22.5906 6.74997 22.2392 7.56608C22.2392 7.68191 21.66 7.56608 21.8917 7.33177C22.5906 6.63414 22.9381 5.35072 23.7516 4.29896C23.9845 4.06864 24.2149 4.06864 24.2149 4.29896C24.2149 4.53594 23.8674 5.11641 23.8674 5.23224C23.8674 5.00058 23.9845 4.65044 23.7516 4.65044C23.6371 4.88475 23.2856 5.23224 23.1671 5.7022C23.0526 6.16684 23.6371 5.46788 23.6371 5.8167C23.2856 6.16684 23.4027 6.39982 23.6371 7.09878C24.1004 6.98562 24.332 6.51698 25.031 6.16684C25.3785 6.04968 25.7259 5.93252 25.9603 6.16684C26.1919 6.39982 25.6128 6.74997 24.9152 6.74997C25.4956 6.51698 25.3785 6.16684 25.031 6.28267C24.6795 6.39982 24.2149 6.74997 23.7516 7.33177L24.332 8.49802C24.6795 8.61518 24.798 8.26371 25.6128 8.49802C25.9603 8.61518 26.0774 8.61518 26.0774 8.84684C26.1919 9.4313 25.9603 9.89727 25.8431 10.3646C25.6128 10.8292 25.4956 11.2978 25.3785 11.8783C25.3785 12.114 25.9603 11.5282 26.5421 11.0649C27.004 10.8292 27.237 10.4831 27.3568 10.5949ZM22.5906 9.4313C22.5906 9.31414 22.4735 8.96533 22.5906 8.84684C22.9008 8.53663 23.1085 8.17051 23.2803 7.82436C23.1631 8.289 22.9381 8.96932 22.9381 9.19831C22.9381 9.31414 23.1671 9.4313 23.1671 9.54845C23.1671 9.78144 22.7038 9.78144 22.5906 9.4313ZM22.0075 12.4628C21.427 9.89727 21.0769 11.7625 20.9597 10.9464C20.8452 10.3646 20.9597 9.66561 20.9597 9.08382C20.6136 8.14788 20.6136 8.73101 20.3806 8.49802V7.7964C20.0331 8.49802 19.6816 8.96533 19.6816 9.66561C19.6816 9.89727 20.3806 10.2487 20.2661 9.78144C20.2661 9.31414 20.2661 8.96533 20.4978 8.84684C20.8452 8.84684 20.7294 9.54845 20.6136 11.2978C20.6136 11.6467 21.0769 11.8783 21.0769 11.6467C21.1927 10.716 21.7758 11.7625 22.0075 14.2095C22.2392 14.9098 22.0075 14.9098 22.5906 14.6781C22.2392 13.7449 22.2392 12.4628 22.1233 11.4137L22.0075 12.4628Z" fill="#009FE8"/>
<path fill-rule="evenodd" clip-rule="evenodd" d="M40.1411 5.35077C40.4912 7.21598 40.3714 9.43134 40.1411 10.2488C40.6057 9.31418 40.9558 7.56613 40.6057 4.4175C40.6057 4.06868 40.0239 4.8848 40.1411 5.35077ZM38.63 5.58375C38.63 5.35077 37.9337 5.23228 38.0482 5.46793L38.397 7.68195C38.5128 7.91627 38.7471 7.56613 38.7471 7.21598C38.7471 7.09882 39.0959 6.63418 39.0959 6.39987C38.9775 6.51703 38.863 6.75001 38.7471 6.86717C38.5128 6.28271 38.63 6.04973 38.63 5.58375ZM38.164 4.53599C38.5128 4.18584 38.63 3.95153 38.63 3.8357C38.0482 3.95153 37.9337 4.06868 37.7007 4.4175C37.469 4.53599 37.3506 4.53599 37.2374 4.76631C37.1216 5.00062 37.0031 5.23228 37.0031 5.35077C37.1216 5.46793 37.8165 4.76631 38.164 4.53599ZM41.1862 2.08498C41.535 2.55228 42.1154 2.20081 42.0009 2.55228C41.6508 2.67077 41.535 3.13541 40.9558 3.13541C41.1862 2.7866 40.836 2.90109 40.2569 3.01825C40.0239 3.13541 39.6764 3.25124 39.4421 3.48555C39.0959 3.60271 39.0959 3.95153 38.863 4.18584C38.7471 4.4175 38.5128 4.65048 38.2798 4.8848C37.8165 5.46793 37.1216 5.81674 36.5384 6.04972C36.3041 6.04972 36.4239 5.81674 36.3041 5.70224C36.1896 5.58375 36.1896 5.58375 36.1896 5.46793C36.0738 5.11645 36.4239 4.8848 36.5384 4.4175C37.469 3.13541 38.63 3.01825 39.4421 2.55228C39.6764 1.96782 39.9107 1.27153 39.4421 1.15437C39.5579 1.03854 39.6764 1.03854 39.7949 1.03854C40.1411 1.15437 40.0239 1.62034 39.7949 2.43512C40.1411 2.3193 40.6057 2.20081 41.1862 2.08498ZM36.8886 3.3684C36.8886 3.48555 36.6543 3.48555 36.6543 3.48555C36.5384 3.3684 36.6543 3.25124 36.7701 3.13541C37.1216 2.55228 37.3506 2.08498 37.5835 1.62034L37.3506 1.50318C37.5835 1.38469 37.5835 1.27153 37.7007 1.15437C37.9337 0.804227 38.63 0.6884 38.397 1.15437C38.397 1.50318 38.164 1.50318 37.8165 1.50318C37.5835 1.96782 36.8886 3.01825 37.2374 2.67077L38.2798 1.62034L36.8886 3.3684ZM38.2798 1.62034C38.397 1.50318 38.5128 1.38469 38.63 1.38469C38.5128 1.38469 38.2798 1.50318 38.2798 1.62034ZM35.6078 8.49807C35.6078 8.38224 35.4907 8.14792 35.3762 7.91627C35.4907 8.38224 35.3762 8.38224 35.3762 8.26375C35.2577 8.03077 35.0274 7.68195 35.0274 7.33181C34.9102 6.28271 34.7957 4.29901 34.9102 3.13541C35.0274 2.90109 35.0274 2.90109 35.0274 2.7866C35.1445 2.55228 34.7957 2.43512 34.7957 2.67077V5.11645C34.6772 6.98566 35.0274 8.84688 35.4907 9.5485C35.6078 9.66566 35.9566 9.43134 35.8408 9.31418C35.6078 8.96537 35.6078 8.73105 35.6078 8.49807Z" fill="#009FE8"/>
<path fill-rule="evenodd" clip-rule="evenodd" d="M51.6467 9.78144C51.8796 9.89727 51.9955 9.66561 51.9955 9.66561C52.1153 9.54845 52.1153 9.43129 51.9955 9.19831C51.8796 8.96532 51.415 8.73234 50.4871 8.61518C51.7625 8.96532 51.186 9.78144 51.6467 9.78144ZM52.5799 4.1858C53.1604 4.1858 53.625 4.65044 53.392 5.35206C53.1604 5.7022 53.0419 6.39982 52.9261 6.74997C52.6931 7.44626 52.6931 7.68191 52.5799 8.14788C52.4614 8.26371 51.7625 8.96532 51.6467 8.61518C51.6467 8.49802 51.5322 8.26371 51.5322 8.14788C51.4629 8.14788 51.435 7.98013 51.423 7.7964C51.395 7.83768 51.3564 7.87895 51.2992 7.91622C51.186 7.91622 51.0675 8.03072 50.9517 8.14788C50.8345 8.26371 50.7187 8.26371 50.4871 8.61518C50.2527 8.73234 50.0224 9.08381 49.7881 9.31414H49.3235C49.0891 9.19831 48.8588 9.08381 49.2076 9.08381C49.6723 8.84683 50.0224 8.61518 50.2527 8.3822C50.4871 8.14788 50.9517 7.91622 50.8345 7.68191C50.6029 7.44626 50.3686 7.7964 50.1382 7.7964C50.0224 7.68191 49.7881 7.56741 50.0224 7.44626C50.487 7.21594 50.8345 7.21594 51.186 7.33176C51.2712 7.33176 51.3591 7.37969 51.415 7.45957V7.44626C51.4177 7.45425 51.4177 7.45957 51.4203 7.46623C51.4576 7.51682 51.4816 7.57806 51.4776 7.64729C51.6866 8.30098 51.9009 8.4674 52.1153 8.14788C52.2311 7.56741 52.4614 7.09878 52.6931 6.51698C52.8102 6.04968 53.0419 5.58371 53.1604 5.11641C53.1604 4.65044 52.8102 4.41745 52.4614 4.41745C51.6467 4.41745 50.7187 5.23223 50.0224 6.16684L49.6723 7.7964C49.6723 7.91622 49.4406 7.91622 49.3235 7.91622C49.3235 7.91622 49.0891 7.56741 49.2076 7.44626C49.6723 6.86713 49.5538 5.81669 50.1382 4.76626C50.3686 4.53594 50.7187 4.65044 50.3686 4.88475C50.1382 5.00058 50.2527 5.23223 50.1382 5.58371C50.1382 5.58371 50.2527 5.58371 50.3686 5.46788C51.0675 4.76626 51.8796 4.29896 52.5799 4.1858ZM54.553 1.6203C53.625 1.6203 52.1153 2.32058 51.186 3.25119C50.8345 3.25119 51.0675 2.55224 50.7187 2.55224C50.6029 2.43508 50.3686 2.67073 50.2527 2.78655C49.9039 3.1367 49.6723 3.60267 49.4406 3.60267C49.2076 3.48551 49.5538 2.78655 49.3235 2.20076C49.7881 2.08494 50.2527 1.96778 50.4871 1.85062C50.8345 1.73479 51.0675 1.73479 51.186 1.73479C51.2992 1.6203 51.2992 1.27148 51.186 1.27148C50.9517 1.50314 50.6029 1.50314 50.4871 1.6203C49.6723 2.08494 49.4406 2.08494 48.9746 2.08494C48.8588 2.08494 48.8588 2.32058 48.9746 2.43508C49.2076 2.43508 49.0891 2.67073 48.9746 3.01821C48.9746 3.60267 48.7417 4.29896 48.9746 4.41745C49.2076 4.41745 49.4406 4.06864 49.7881 3.7185C50.0224 3.36835 50.2527 2.90105 50.4871 3.01821V3.1367C50.4871 3.48551 50.7187 3.7185 50.9517 3.60267C51.2992 3.36835 51.5322 3.1367 51.7625 3.01821C52.9261 2.20076 53.8554 1.6203 54.6728 1.85062C55.1348 1.96778 55.2533 2.43508 55.0189 2.67073C54.786 3.01821 54.32 3.1367 53.8554 3.01821H53.2749C53.392 2.55224 53.2749 2.32058 53.0419 2.43508C52.8102 2.43508 52.9261 2.67073 52.8102 2.90105C52.6931 3.1367 52.3456 3.36835 52.1153 3.60267C52.5799 3.36835 52.9261 3.25119 53.0419 3.36835C53.1604 3.25119 53.2749 3.25119 53.2749 3.1367C54.2055 3.36835 54.32 3.1367 54.553 3.1367C55.0189 3.1367 55.2533 3.01821 55.3678 2.67073C55.4836 2.08494 55.2533 1.6203 54.553 1.6203ZM51.186 6.74997C51.5322 6.63414 50.8345 6.04968 50.6029 6.39982C50.487 6.51698 50.7187 6.51698 50.7187 6.51698C50.6029 6.74997 50.487 6.86713 50.3686 7.09878C50.6029 6.86713 50.8345 6.86713 51.186 6.74997ZM51.415 5.58371C51.2992 5.58371 51.0675 5.46788 50.9517 5.58371C50.8345 5.7022 50.9517 5.93252 51.2992 5.93252C51.5322 5.93252 51.415 5.7022 51.415 5.58371Z" fill="#009FE8"/>
<path fill-rule="evenodd" clip-rule="evenodd" d="M66.0589 7.56742C66.4077 7.33177 67.2225 6.63415 67.2225 6.51699C67.1067 6.39983 66.642 6.39983 66.0589 6.63415C65.8286 6.63415 65.5943 6.86713 65.2468 6.86713C64.8993 7.33177 64.6663 7.79641 64.5491 8.26371C64.6663 8.3822 64.8993 8.3822 65.1296 8.3822C65.2468 8.14789 65.4798 8.03073 65.5943 7.79641C65.7127 7.79641 65.5943 7.68191 65.5943 7.68191C65.3639 7.79641 65.2468 7.79641 65.0138 7.79641C65.8286 7.44627 65.2468 7.33177 65.5943 7.09879C65.7127 6.98562 65.8286 7.09879 66.0589 7.33177C66.0589 7.44627 65.9431 7.44627 65.9431 7.56742H66.0589ZM67.8016 5.93253C68.0359 6.04969 67.9174 6.39983 67.8016 6.63415C67.2225 6.86713 66.7578 7.56742 66.2932 7.79641C65.8286 8.03073 65.5943 8.14789 65.4798 8.3822C65.7127 8.73235 66.0589 8.49803 66.2932 8.84684C65.4798 9.78145 63.5027 9.54846 63.2697 10.0158C63.3856 10.1316 63.6199 10.1316 63.7357 10.1316C65.1296 10.0158 66.0589 10.716 66.1787 11.0649C66.2932 11.6467 65.1296 12.5786 63.8502 13.0459C63.6199 13.0459 63.3856 13.0459 63.0354 13.1644C62.3418 13.3974 61.7573 13.5105 61.1782 13.6304C60.9465 13.6304 60.832 13.5105 60.832 12.9301C60.9465 12.5786 60.832 12.4614 60.832 12.3456L61.0624 11.7625C60.9465 12.3456 61.0624 12.5786 61.4125 12.5786C61.4005 12.5999 61.3939 12.6159 61.3845 12.6345C62.1687 12.114 62.9462 12.1006 63.6199 11.7625C63.8502 11.4137 63.7357 11.2978 63.7357 11.2978C64.2003 11.2978 64.2003 11.5282 64.0845 11.8783C63.7437 12.3336 62.3098 12.2364 61.3726 12.6611C61.3007 12.8395 61.3353 12.9434 61.6428 13.0459C63.2697 13.0459 65.1296 12.3456 65.7127 11.2978C66.0589 10.5949 63.6199 10.0158 62.1101 10.2487C61.7573 10.2487 61.6428 10.1316 61.993 9.78145C62.2246 9.78145 62.4563 9.78145 62.6906 9.66562C63.6199 9.31414 64.8993 9.19832 64.8993 8.84684C64.6663 8.73235 63.5027 8.84684 62.1101 9.08382C61.6428 9.19832 61.993 8.61519 62.3418 8.61519C62.9209 8.61519 63.3856 8.49803 63.966 8.3822C64.3188 7.21594 65.3639 5.93253 65.5943 5.93253C66.0589 5.8167 65.8286 6.28267 65.8286 6.39983C66.0589 6.51699 66.9922 5.93253 67.8016 5.93253ZM61.527 11.8783C62.1101 11.5282 63.3856 11.0649 63.5027 10.8305C62.9209 10.716 62.5734 11.1834 61.4125 11.2978C61.1782 11.6467 61.1782 11.7625 61.527 11.8783Z" fill="#009FE8"/>
<path fill-rule="evenodd" clip-rule="evenodd" d="M77.1039 17.241C77.3342 17.1239 77.4527 17.241 77.7975 17.3595C77.7975 17.5925 77.7975 17.7096 77.6844 17.8255C77.3342 17.7096 76.8709 17.8255 76.405 18.0585C76.6353 18.2914 76.9881 18.4086 77.3342 18.4086C77.6844 18.8759 77.5686 18.9917 77.1039 18.9917C76.8709 18.6416 76.5221 18.2914 76.0561 18.1769C75.2414 18.4086 74.5464 18.5244 73.7316 18.5244C73.4973 18.5244 73.3828 18.6416 73.4973 18.7587C73.6158 18.8759 73.9619 18.9917 74.0778 19.1076C74.4306 19.5749 74.7781 20.0408 75.011 20.7424C75.3599 21.3229 75.1255 21.9074 74.6636 21.7902C74.3147 21.6731 74.5464 21.3229 73.7316 20.8569C73.9619 20.6226 74.6636 21.4401 74.4306 20.0408C74.1976 19.5749 73.9619 19.1076 73.6158 18.8759C73.4973 18.8759 73.267 18.6416 73.267 18.6416C73.1512 18.5244 73.0353 18.5244 72.9168 18.5244H72.5694C72.3377 18.6416 71.8731 18.4086 71.5242 18.5244C70.9424 18.5244 70.2435 18.4086 69.8947 18.2914C69.4314 18.1769 69.1957 17.7096 69.5499 17.7096C71.6387 18.0585 73.4973 18.0585 75.3599 17.8255C75.011 17.5925 74.6636 17.474 74.1976 17.474C73.9619 17.3595 74.1976 16.7764 74.3147 17.0107C74.6636 17.3595 74.7781 17.241 75.011 17.3595C75.2414 17.5925 75.3599 17.7096 75.5902 17.8255C76.1706 17.7096 76.6353 17.474 77.1039 17.241Z" fill="#009FE8"/>
<path fill-rule="evenodd" clip-rule="evenodd" d="M82.1021 30.1857C84.5424 32.0509 85.3559 33.6818 85.1229 33.9161C84.8886 34.2649 83.7276 33.0987 82.5654 31.9337C83.9593 33.2171 85.1229 33.7976 84.6596 33.0987C83.1485 31.0005 80.591 29.2511 78.6153 28.3191C78.2678 28.2006 78.148 28.5534 78.0335 28.0875C77.9137 27.8532 78.148 27.6188 78.4981 27.8532C79.1957 28.2006 80.2422 28.5534 80.7055 28.9009H80.4752C81.0556 29.3696 81.6348 29.7184 82.1021 30.1857ZM77.7978 32.8697C77.5688 32.3997 77.6847 31.1176 77.9137 31.3506C78.7284 31.7007 79.7762 32.5182 79.7762 32.7498C79.7762 32.8697 78.148 33.3303 77.7978 32.8697ZM81.1701 30.5345C81.0556 30.5345 80.9398 30.7675 81.4018 31.0005C81.8691 31.2348 82.1021 31.4691 81.9849 31.5823C81.5203 31.8166 81.1701 31.2348 80.7055 31.4691C80.4752 31.5823 80.8213 31.8166 80.2422 32.3997C80.1237 32.5182 79.3142 31.7007 78.9628 31.3506C78.2678 30.7675 77.7978 30.5345 77.6847 30.6503C77.453 30.7675 77.3345 32.7498 77.5688 33.0987C78.3823 33.3303 79.1957 33.3303 80.1237 32.8697C80.4752 33.2171 80.591 33.7976 80.7055 33.6818C81.0556 33.5646 80.9398 33.2171 80.4752 32.6314C80.7055 32.3997 80.9398 32.1667 81.0556 31.7007C81.5203 31.9337 81.9849 32.0509 82.5654 31.9337C82.3337 31.1176 81.7533 30.7675 81.1701 30.5345ZM87.4474 30.7675C87.5619 30.7675 87.6791 30.3002 87.4474 30.416L87.0999 30.5345C87.2158 30.6503 87.3329 30.7675 87.4474 30.7675ZM84.8886 30.416C85.0071 30.3002 85.1229 30.5345 85.3559 30.416C84.8886 30.1857 84.6596 30.416 84.3081 30.0685L83.6131 30.3002C83.8435 30.6503 84.3081 30.5345 84.5424 30.7675C85.0071 30.6503 84.6596 30.5345 84.8886 30.416ZM87.6791 30.0685C88.145 30.0685 88.0305 30.5345 87.7949 30.7675C87.4474 31.4691 87.0999 30.5345 86.6353 30.6503C86.2865 30.7675 85.9363 30.7675 85.5862 30.7675C85.1229 30.7675 85.706 31.7007 84.8886 31.3506C84.3081 31.1176 83.8435 30.5345 83.3815 30.5345C83.263 30.416 83.0327 30.6503 82.9142 30.5345C82.7984 30.416 82.6825 30.1857 82.7984 30.1857C83.1485 29.95 84.1949 29.5999 85.0071 29.2511C85.473 29.1352 85.8205 29.0181 85.8205 29.0181C86.168 28.9009 85.9363 29.3696 85.5862 29.4854C85.5862 29.4854 84.6596 29.8355 84.7754 29.95C84.8886 30.1857 85.0071 29.95 85.3559 30.0685C85.706 30.1857 86.168 30.416 86.5195 30.416C86.8683 30.416 87.3329 30.1857 87.6791 30.0685ZM82.6825 29.4854L84.1949 28.9009C84.4266 28.7878 84.6596 28.2006 83.9593 28.4363L82.5654 29.0181C82.4496 29.1352 82.4496 29.5999 82.6825 29.4854Z" fill="#009FE8"/>
</svg>
