<?xml version="1.0" encoding="UTF-8"?><svg id="b" xmlns="http://www.w3.org/2000/svg" viewBox="0 0 182.7194 182.7636"><g id="c"><path d="M112.8325,165.7273c-.4935-.3338-1.0179-.4473-1.5763-.3396-.0157.0039-.0349.0079-.0541.0113-.0212.002-.0383.0059-.0556.0118-.0172.0039-.0344.0093-.0536.0152-.0197.0059-.0389.0113-.0541.0152-.5893.1632-1.0273.5205-1.3134,1.0715-.2861.551-.3514,1.129-.1956,1.7317.1632.5898.5146,1.0543,1.0539,1.394.5397.3421,1.1138.4227,1.7243.2477.6105-.1745,1.0543-.5471,1.3325-1.1172.2767-.5682.3303-1.1482.1612-1.7356-.1534-.5377-.4778-.9737-.9693-1.306Z" fill="#009035" fill-rule="evenodd" stroke-width="0"/><polygon points="63.1362 161.8624 63.2027 162.4639 63.4006 161.9554 63.1362 161.8624" fill="#009035" fill-rule="evenodd" stroke-width="0"/><polygon points="123.4598 163.9533 121.7203 162.1829 121.8737 164.6695 123.4598 163.9533" fill="#009035" fill-rule="evenodd" stroke-width="0"/><path d="M53.5843,159.595c.0113-.0118.0192-.0231.0245-.0329.0059-.0094.0118-.0212.0192-.0325.0059-.0133.0138-.027.0231-.0423.0079-.0152.0172-.029.0231-.0403.0079-.0133.0152-.027.0251-.0423.0728-.1519.117-.3131.1322-.4876.0177-.173-.0152-.3362-.0939-.4876-.0693-.146-.1671-.2748-.292-.3859-.1268-.1115-.2649-.2153-.4163-.3092-.0211-.0118-.0423-.0231-.0654-.0369-.0212-.0133-.0462-.0265-.0713-.0403-.0536-.0325-.1111-.0614-.1671-.09-.0556-.031-.1131-.0595-.1666-.0924-.0502-.0285-.1018-.0555-.1578-.0845-.0536-.0266-.1018-.0536-.1475-.0786l-1.1733,2.0507c.0192.0118.0403.0231.0634.0364.0231.0138.0443.0251.0634.0369.0845.0477.1706.0978.259.1475.0885.0501.1784.0998.2708.146.3146.1593.6335.2595.956.2979.3244.0383.6125-.0924.8641-.3937.0094-.0152.0172-.029.0271-.0383Z" fill="#009035" fill-rule="evenodd" stroke-width="0"/><polygon points="92.4533 170.6887 94.1928 170.6543 93.2924 168.3427 92.4533 170.6887" fill="#009035" fill-rule="evenodd" stroke-width="0"/><path d="M99.7206,168.2331c-.463-.3515-1.0543-.5014-1.7744-.4473l-.9329.0708.3396,4.464,1.0794-.0826c.6277-.0477,1.131-.2669,1.5129-.6567.38-.3913.5682-.902.5603-1.5321.002-.0403.002-.0787,0-.1131-.0015-.0349-.0054-.0693-.0074-.1037-.0536-.7142-.3131-1.246-.7776-1.5994Z" fill="#009035" fill-rule="evenodd" stroke-width="0"/><path d="M89.2545,168.235c-.1307-.0944-.2787-.1612-.4419-.1996-.1632-.0368-.3337-.0614-.5126-.0693-.0226-.002-.0477-.002-.0747-.002-.0251,0-.0536-.002-.0826-.002-.0634-.002-.1268-.002-.1902,0-.0629.002-.1263.002-.1897.002-.0575-.002-.1175-.002-.1789,0-.0595.002-.115.002-.1666.002l-.0462,2.3618c.0231,0,.0462.002.0728.002.027,0,.0501.002.0732.002.0978.0015.1976.0035.2993.0054.0998.002.2035,0,.3072-.0039.3515-.0094.6798-.0747.9831-.1956.3013-.1209.4915-.3746.5682-.7604,0-.0172.002-.0325.0059-.0482.002-.0133.0039-.0266.0039-.0384,0-.0113,0-.0246.002-.0383v-.0959c.002-.0133.002-.031.002-.0482-.0078-.1671-.0462-.3303-.1155-.4915-.0689-.1593-.1745-.2861-.3185-.3819Z" fill="#009035" fill-rule="evenodd" stroke-width="0"/><path d="M73.2759,165.8561c-.0152-.0039-.0344-.0098-.0536-.0152-.0192-.0079-.0369-.0137-.0541-.0172-.0152-.0039-.0344-.0079-.0536-.0137-.0192-.0039-.0383-.0074-.0556-.0113-.5952-.1421-1.1502-.0423-1.6668.3013-.5166.3436-.8543.8179-1.0101,1.423-.1421.5933-.0595,1.1708.2477,1.7297.3092.5588.7722.9083,1.39,1.0504.6184.1421,1.1885.0305,1.7071-.3342.5186-.3628.8449-.843.9811-1.4397.1249-.5456.0521-1.0833-.2168-1.6132-.2708-.5299-.6739-.8833-1.2155-1.0597Z" fill="#009035" fill-rule="evenodd" stroke-width="0"/><path d="M24.6014,130.4853c.2074-.5569.1937-1.0941-.0383-1.6108-.0098-.0157-.0177-.0329-.0251-.0521-.0079-.0192-.0152-.0364-.0231-.0497-.0098-.0157-.0192-.0329-.029-.0501-.0094-.0172-.0192-.0344-.0266-.0477-.2979-.5358-.7471-.8779-1.3498-1.0273-.6031-.148-1.1791-.0772-1.7302.2148-.5338.2978-.9044.7491-1.1079,1.3517-.2055.605-.1514,1.1826.1632,1.7336.3131.5535.7796.897,1.3979,1.0332.6183.1382,1.1924.0556,1.7243-.2477.4876-.2762.8351-.693,1.0445-1.248Z" fill="#009035" fill-rule="evenodd" stroke-width="0"/><path d="M157.6593,93.1213c-.9236,35.824-30.252,64.5823-66.2987,64.5823S25.9836,128.9453,25.06,93.1213H0c.9275,49.6654,41.4726,89.6423,91.3607,89.6423s90.4317-39.9769,91.3587-89.6423h-25.06ZM10.6214,105.6862c-.0516-.1037-.0958-.2074-.1322-.3151-.0364-.1091-.0673-.2129-.0904-.3146-.0846-.4955.0172-.9388.3072-1.3306.29-.3937.7088-.6434,1.2598-.7491l.1381.8026c-.3436.0826-.5854.2345-.726.4591-.1401.2227-.1937.4473-.1592.6759,0,.0054.002.0113.002.0133,0,.0039.002.0078.002.0133.0251.1421.0786.2748.1612.3976.0826.1229.1941.2207.3362.29.0826.0442.1745.0747.2743.0919.0998.0192.1981.0251.2979.0192.0231.002.0477,0,.0727-.0035.027-.0039.0501-.0079.0733-.0118.0634-.0113.1209-.027.1764-.0443.0556-.0191.1116-.0383.1671-.0595.2074-.1111.3455-.2689.409-.4704.0653-.2015.1096-.4089.1307-.6237,0-.029.0034-.058.0074-.0845.0039-.027.0059-.0541.0079-.0772.0074-.0595.0152-.1209.0212-.1843.0074-.0614.0152-.1209.0231-.1745.0556-.3608.2128-.6547.4758-.8813.263-.2266.5588-.3686.8892-.4262.2266-.0383.4571-.0344.6852.0094.2305.0462.4439.1366.6355.2728.173.117.3131.2649.4208.4453.1076.1808.1843.3725.2305.5761.0035.0172.0054.031.0074.0422.002.0118.0039.0231.0059.0344.0192.1135.029.2285.029.346,0,.117-.0138.23-.0423.3416-.0865.3436-.2536.6065-.5013.7889-.2458.1824-.5259.3131-.841.3917l-.1421-.8199c.2591-.0668.4434-.1956.5589-.3858.113-.1902.1534-.3839.119-.5819-.002-.0113-.0039-.0226-.0059-.0344-.002-.0113-.0034-.0231-.0054-.0344-.029-.0944-.0752-.1843-.1386-.2669-.0649-.0826-.1475-.1499-.2512-.2015-.0772-.0462-.1652-.0772-.2615-.0963-.0978-.0172-.1956-.0246-.2934-.0192-.0118.002-.0251.0039-.0383.0059-.0157.0039-.027.0059-.0388.0079-.09.0152-.1745.0443-.2531.0865-.0767.0438-.146.0998-.2035.1667-.0787.0904-.1307.2-.1578.3303-.0285.1307-.0516.2708-.0728.4227-.0079.088-.0172.1784-.029.2669-.0113.0899-.0246.1804-.0457.2723-.0212.1155-.0482.2306-.0845.3475-.0349.1175-.0846.2325-.148.3421-.1249.2266-.2959.405-.5126.5372-.2168.1307-.4512.2212-.7009.2689-.0172.0039-.0344.0059-.0497.0098-.0172.002-.0349.0054-.0521.0074-.3799.0422-.7525-.0113-1.1211-.1613-.3686-.1494-.6434-.3937-.8258-.7314ZM11.7332,111.0218l2.6075-.6006-.5667-2.4537-2.607.6006-.1961-.8523,5.9961-1.3846.1981.8528-2.5574.5894.5682,2.4557,2.5555-.5913.2015.8774-5.9961,1.3846-.2035-.8779ZM13.3155,116.6822l1.54-1.1271-.6606-2.2964-1.9145-.1706-.2551-.8892,6.5722.5854.2458.8469-5.2534,4.0069-.2743-.9561ZM15.1336,121.6667l3.3045-4.6675-4.4395,1.8393-.3264-.8125,5.712-2.2925.3382.843-3.1836,4.5447,4.2935-1.7818.3263.8125-5.712,2.2925-.3131-.7776ZM17.257,126.1672c-.115-.1268-.2148-.261-.3013-.4011-.0845-.1425-.1652-.288-.2399-.4379-.027-.0462-.0521-.0924-.0733-.1421-.0231-.0501-.0457-.1018-.0688-.1538l-.7181-1.5857,5.6103-2.5343.812,1.799c.2114.4665.319.9462.3205,1.4363.0039.4895-.1401.9599-.4281,1.4146-.1553.2595-.3495.49-.5795.6936-.2325.2035-.4841.374-.7545.5161-.0158.0079-.0329.0157-.0521.0231-.0172.0079-.0383.0172-.0595.027-.0364.0172-.0727.0325-.1096.0501-.0364.0172-.0747.0305-.115.0418-.0747.029-.1519.0541-.2305.0772-.0786.0211-.1573.0423-.2399.0595-.4915.1018-.9929.0767-1.5016-.0767-.5087-.1519-.9329-.4227-1.2711-.8066ZM19.665,131.3646c-.438-.7717-.5299-1.5783-.2768-2.4154.2537-.8371.7643-1.4707,1.5306-1.8988.8002-.436,1.6166-.5298,2.4458-.2841.8297.2458,1.4574.7427,1.8816,1.4899.0482.0865.0944.1745.1367.2669.0418.0919.0826.1863.117.2861.2497.7412.2207,1.4593-.0845,2.1544-.3072.695-.7835,1.2249-1.4303,1.5935-.0403.0231-.0787.0443-.117.0654-.0369.0211-.0772.0422-.1214.0595-.7506.3475-1.5183.3937-2.2979.1401-.7815-.2536-1.3768-.7392-1.7837-1.4574ZM23.9256,138.0656l2.3559-5.2092-4.0094,2.6498-.4738-.7353,5.1704-3.339.4935.7643-2.262,5.0667,3.8767-2.5653.4743.7358-5.1704,3.337-.4552-.7048ZM31.4558,140.3984c.0654-.3092.0728-.5992.0211-.8695-.0516-.2708-.1421-.5127-.2728-.726-.0211-.029-.0423-.0575-.0634-.0885-.0212-.0305-.0423-.0614-.0634-.088-.3455-.4399-.8253-.7107-1.4436-.8105-.6164-.0978-1.2057.0595-1.7646.4782-.4783.3746-.7678.8661-.8695,1.4785-.1037.6125.0325,1.1709.407,1.6781.3126.407.6852.6586,1.1211.7545.434.0959.8892.0959,1.365.002l-1.7258-2.2006.6739-.5279,2.3519,2.9973c-.8911.6237-1.7395.8484-2.5461.6758-.8061-.175-1.4416-.5569-1.9047-1.1462-.4394-.551-.6719-1.2062-.697-1.9627-.0266-.7584.2595-1.4608.8562-2.1136.0693-.0693.1386-.1347.2035-.1961.0634-.0634.1327-.1229.2054-.1784.7009-.5569,1.4844-.7815,2.3505-.6719.8656.1091,1.5877.524,2.1617,1.248.0098.0133.0212.0266.0329.0403.0093.0133.0212.0266.0305.0403.0059.0172.0152.0324.0251.0482.0113.0133.0212.0266.0325.0403.2998.4394.4724.9231.5146,1.4549.0423.5318-.0654,1.0352-.3244,1.5095l-.6778-.8661ZM33.6696,149.6126c-.2497-.115-.4783-.2841-.6891-.5048-.2423-.2556-.4129-.5299-.5126-.8199-.1018-.29-.1175-.607-.0521-.9467.0614-.2802.1784-.522.3534-.724.1745-.1996.3608-.3952.5569-.5815l2.8337-2.6862.6125.6469-2.8317,2.6862c-.29.2747-.5053.5549-.6454.843-.1401.288-.0324.6144.321.9791.3298.3475.641.4571.9369.3283.2954-.1283.5834-.3264.8641-.5913l2.8337-2.6862.6183.6527-2.8322,2.6862c-.2227.2114-.4547.4035-.695.5761-.2418.173-.5201.2689-.8351.29-.3111.0152-.5893-.0325-.837-.148ZM38.1489,153.7252l.7948-5.6619-3.1005,3.6693-.6626-.5702,4.0246-4.6582.6872.5933-.7452,5.4987,2.9993-3.5518.6626.5702-4.0246,4.6602-.6356-.5495ZM39.6564,154.9982l3.8339-4.8155.6837.5436-3.8324,4.8155-.6852-.5436ZM42.5304,157.2656l1.6245-6.3914.7624.5392-1.2711,4.7118,4.032-2.7531.7697.5451-5.4948,3.6501-.4227-.3018ZM47.9008,160.8946l-2.6975-1.7105,3.2986-5.1974,2.6955,1.7125-.4453.7009-1.9587-1.2426-.9791,1.5419,1.9607,1.2421-.4321.6798-1.9587-1.2421-.9885,1.5571,1.9582,1.2421-.4532.7162ZM52.3668,163.51l-.985-.5628-.3534-3.4943-1.4185,2.4788-.7604-.434,3.0583-5.3414,1.54.8813c.2497.1421.4822.3072.6911.4896.2114.1843.3686.4183.4709.7024.088.2438.1209.4955.1032.753-.0192.259-.0826.5028-.1937.7314-.0039.0059-.0079.0113-.0118.0192-.0035.0079-.0074.0133-.0093.0192-.0059.0098-.0113.0172-.0133.0231-.0039.0039-.0079.0113-.0137.0211-.117.2054-.2591.3917-.4262.5549-.1671.1632-.3627.2802-.5893.3495-.2689.0998-.5146.1322-.7353.0998-.2207-.0344-.4552-.1057-.7049-.2153l.3515,2.9246ZM56.0803,164.6675c-.3421.2015-.7029.2748-1.0814.2153-.1131-.0211-.2246-.0482-.3318-.0845-.1077-.0368-.2094-.0771-.3033-.119-.4458-.2325-.7373-.5819-.8759-1.0484-.1361-.4684-.0826-.9545.1652-1.4554l.722.3741c-.1401.3229-.1651.607-.0732.8547.0944.2458.2423.4262.4439.5377.0059.0015.0093.0035.0113.0054.0039,0,.0079.002.0118.0059.1283.0654.2669.1037.4144.1116.1479.0094.2939-.0211.434-.0924.0845-.0383.1652-.0939.2404-.1612.0747-.0693.1401-.144.1956-.2266.0152-.0172.029-.0383.0403-.0614s.0231-.0442.0344-.0654c.029-.0555.0541-.1111.0713-.1671.0191-.0556.0364-.1111.0536-.1671.0364-.234-.0054-.4394-.1268-.6124-.121-.1725-.261-.3338-.4183-.4797-.0231-.0192-.0442-.0383-.0634-.0575s-.0364-.0369-.0555-.0541c-.0423-.0403-.0865-.0845-.1327-.1268-.0462-.0438-.0885-.0841-.1268-.1249-.2531-.261-.3917-.5643-.4144-.9118-.0211-.3455.0437-.668.1996-.9639.1057-.2055.2458-.3858.4222-.5412.175-.1578.3745-.2708.6011-.3421.1956-.0674.3991-.088.6085-.0654.2094.0231.407.0791.5972.1632.0152.0098.029.0157.0383.0211.0098.0059.0212.0098.031.0157.1037.0536.2015.115.2934.1863.0944.0708.175.1514.2458.2399.2212.2762.3303.5682.3264.8754-.0035.3072-.0688.6105-.1976.9083l-.7373-.3839c.1017-.2458.1116-.4709.029-.6763-.0826-.205-.2133-.3549-.3917-.4473-.0098-.0054-.0211-.0113-.031-.0172-.0094-.0039-.0211-.0093-.0305-.0152-.0924-.0344-.1902-.0521-.2959-.0501-.1037,0-.2094.0251-.3131.0772-.0826.0344-.1613.0841-.234.1494-.0732.0674-.1381.1401-.1941.2227-.0035.0098-.0094.0211-.0172.0349-.0059.0133-.0113.0251-.0172.0344-.0423.0826-.0713.1671-.0845.2537-.0113.088-.0093.1764.0098.2649.0246.115.0806.2246.1686.3244.0865.1017.1843.2054.292.3131.0653.0595.1307.1209.1961.1843.0649.0634.1283.1303.1877.1996.0791.0865.1558.1804.2266.2782.0732.0998.1327.2074.1824.3244.1057.2364.144.4822.1175.7338-.0271.2531-.0963.4935-.2074.7216-.0079.0157-.0172.031-.0251.0462s-.0152.031-.0231.0462c-.1956.3264-.4645.5913-.8081.7948ZM56.8559,165.7715l2.5554-5.5985.7968.3627-2.5555,5.5985-.7968-.3627ZM64.4417,166.4975l-.7353,2.0909-.8504-.2998.7545-2.1386-.4078-3.6861-.0798.2051-1.0735-.4148-1.9238,4.9634-.8312-.3229,1.9238-4.9629-1.0735-.4168.3013-.7756,2.9782,1.1556-.0236.0606.6744.2373.2747,3.2352,2.2561-2.3446.9481.3323-3.1123,3.0819ZM75.6028,168.7688c-.0093.0462-.0192.0885-.0285.1303-.0098.0423-.0231.0865-.0383.1288-.2516.7894-.7353,1.3861-1.45,1.7916-.7142.405-1.4726.5161-2.2767.3318-.8661-.1976-1.5228-.6739-1.9701-1.4264-.4453-.7545-.5682-1.5571-.3667-2.4114.2187-.8852.7009-1.5513,1.4416-1.9971.7413-.4453,1.5306-.5741,2.3697-.3819.0958.0231.1917.0482.288.0787.0959.0329.1937.0673.2915.1076.7142.3165,1.2254.8238,1.5306,1.5168.3052.6951.376,1.4053.2089,2.1313ZM79.6235,167.1522l-2.1161-.3647-.3087,1.799,2.1136.3647-.1362.7928-2.116-.3647-.4566,2.6533-.8621-.1475,1.0464-6.0655,2.9777.5127-.1421.8199ZM86.1883,167.8742l-1.1482-.0865-.4035,5.307-.8887-.0674.4031-5.309-1.1482-.0865.0634-.8292,3.1851.2418-.0629.8297ZM90.556,169.0087v.0482c0,.0054,0,.0152-.002.0266-.0035.2364-.0403.467-.1071.6896-.0674.2246-.1843.4202-.3495.5913-.1883.2148-.3878.3608-.5972.4379-.2094.0767-.4493.1263-.7221.1514l1.711,2.3962-1.133-.0211-1.9872-2.8971-.0556,2.8568-.8759-.0172.1214-6.1539,1.7739.0349c.288.0054.5682.0383.843.0978.2723.0614.522.1922.7486.3917.1942.1706.3436.3745.4512.6105.1076.2364.1691.4822.1804.7353v.0212ZM95.2314,173.2924l-.6931-1.7779-2.3888.0462-.6562,1.8044-.9275.0177,2.2615-6.2001.8833-.0172,2.5151,6.1077-.9944.0192ZM101.4006,170.2759c-.0059.0826-.0153.1632-.0251.2458-.0728.4974-.2669.958-.5854,1.3866-.319.4262-.7161.7314-1.1944.9196-.1553.0634-.317.1111-.4782.144-.1632.0324-.3283.0575-.4935.0767-.0516.0093-.1052.0172-.1592.0211-.0556.0039-.1111.0074-.1691.0113l-1.7336.1327-.4664-6.1367,1.9681-.1494c.5127-.0403.9983.0231,1.4589.1883.461.1647.8567.4606,1.1831.8867.1917.2345.3436.4955.4552.7815.1111.2861.1878.582.2281.8853.002.0172.002.0364.0039.0555.002.0212.004.0423.0059.0654.002.0403.0059.0806.0079.1209.0035.0403.0035.0806.0015.1209,0,.0826-.0035.1632-.0074.2438ZM102.4756,172.6086l-.8199-6.1018.868-.115.8179,6.0999-.8661.117ZM106.0047,172.0522l-.8774.1514-.9044-5.2456-1.1349.1941-.1421-.8179,3.1492-.5436.1401.8199-1.1349.1961.9044,5.2456ZM107.7885,171.7505l-1.3846-5.9981.8528-.1956,1.3842,5.9961-.8523.1976ZM114.3666,169.339c-.4281.7009-1.0406,1.1634-1.8339,1.392-.8523.2458-1.6589.148-2.4134-.2959-.7545-.4434-1.2519-1.0863-1.4879-1.9312-.2364-.8813-.1366-1.6972.2954-2.4463.434-.7486,1.0636-1.2421,1.8894-1.4805.0939-.0266.1922-.0497.29-.0688.0998-.0212.2015-.0364.3072-.0482.7796-.0689,1.4707.1268,2.0738.5878.6046.4586,1.0096,1.046,1.215,1.7621.0118.0443.0251.0865.0369.1288.0113.0423.0206.0865.0285.1307.1613.812.029,1.5685-.4011,2.2694ZM120.0845,168.2734l-4.4375-3.6058,1.54,4.5506-.8312.2728-1.9086-5.8526.8641-.2821,4.322,3.481-1.4923-4.4045.8316-.2708,1.9086,5.8526-.7968.259ZM125.4525,165.9691l-1.336-1.363-2.1775.985.1057,1.9179-.843.3804-.3647-6.5899.8042-.3627,4.7196,4.6218-.9083.4104ZM126.7201,165.4107l-2.8572-5.451.7756-.407,2.4635,4.7,1.7931-.9408.3937.753-2.5687,1.3458ZM136.5487,159.4259c-.2615.4876-.6164.8793-1.0637,1.1772-.0192.0113-.0388.0246-.058.0364-.0192.0133-.0383.0251-.0575.0383-.6355.3686-1.3517.5107-2.1465.4262-.7968-.0845-1.4726-.4915-2.0276-1.2249-.027-.031-.0501-.0634-.0713-.0944-.0212-.0305-.0418-.0629-.0629-.0978-.4724-.7314-.6281-1.5301-.4689-2.3923.1617-.8641.6144-1.536,1.3615-2.0177.4895-.317,1.0273-.4841,1.6127-.5053.5839-.0192,1.1231.1347,1.6147.461l-.8793.5682c-.3303-.1076-.6468-.146-.9462-.1096-.2998.0368-.5707.1209-.8125.2576-.0153.0093-.0305.0192-.0443.0266-.0152.0098-.0285.0197-.0443.029-.4704.3033-.785.7565-.9462,1.3596-.1612.6007-.0595,1.1939.3033,1.7759.0059.0113.0133.0211.0212.0344.0074.0118.0133.0231.0211.0329.3588.5569.8523.8867,1.4765.9865.6257.1022,1.1748,0,1.651-.3067.2458-.1519.4512-.3573.6184-.6164.1651-.2576.2649-.5589.2974-.9024l.9236-.5972c.0806.6144-.0093,1.1654-.2723,1.655ZM141.2045,156.5401l-1.5415-2.1868-2.0585,1.4515,1.54,2.1868-.7142.5028-3.5444-5.0323.7142-.5028,1.5109,2.1445,2.0585-1.4515-1.5095-2.1446.7353-.5186,3.5444,5.0323-.7353.5186ZM142.7562,155.2631l-3.8-4.844.6891-.5397,3.798,4.8445-.6872.5392ZM147.2527,151.4002l-5.4972-1.5763,3.2028,3.5827-.6586.5741-4.0512-4.6331.6837-.5972,5.3414,1.5036-3.0991-3.4638.6586-.5761,4.0512,4.6331-.6316.553ZM148.6909,150.0466l-4.466-4.2355,2.1981-2.3175.6031.5702-1.5955,1.684,1.3247,1.2573,1.5955-1.6835.5859.5549-1.5975,1.6815,1.338,1.2696,1.5955-1.682.6164.5835-2.1981,2.3175ZM153.0586,145.35c-.0457.1057-.0978.2074-.1592.3033-.0595.0963-.1209.1863-.1863.2689-.3264.3804-.7353.582-1.221.609-.4876.0246-.9467-.1421-1.3787-.4994l.5318-.6144c.2826.2114.553.3013.8145.2689.261-.0344.4704-.1362.6257-.3072.0039-.0039.0059-.0078.0078-.0098.002-.002.0054-.0054.0094-.0094.0944-.1096.1632-.2364.2054-.3785.0423-.1421.0462-.29.0098-.4414-.0192-.0924-.0521-.1843-.1017-.2728-.0502-.0885-.1076-.1691-.175-.2418-.0133-.0192-.0305-.0364-.0497-.0536-.0192-.0177-.0388-.0329-.056-.0482-.0477-.0423-.0959-.0787-.146-.1096-.0497-.0305-.0998-.0614-.1514-.09-.2187-.0904-.4262-.0963-.6242-.0192-.1956.0787-.3839.1765-.5642.2954-.0231.0192-.0462.0349-.0693.0482-.0251.0152-.0457.0285-.0653.0423-.0497.0325-.1018.0654-.1553.0998-.0516.0344-.1017.0673-.1499.0939-.3126.1863-.641.2516-.9831.1922-.3416-.0595-.639-.1976-.8926-.4168-.175-.1514-.317-.3303-.4281-.5357-.1116-.2069-.1769-.4281-.1942-.6641-.0192-.2074.0079-.4109.0787-.607.0713-.1976.1711-.38.2978-.5451.0113-.0113.0212-.0231.029-.0325.0074-.0079.0152-.0172.0226-.0251.0752-.0885.1578-.1691.2497-.2419.0904-.0752.1863-.1366.29-.1843.3205-.1499.6296-.1883.9275-.1135.2974.0732.5761.2074.8371.4016l-.5436.6296c-.2168-.1573-.4335-.2187-.6527-.1863-.2188.0325-.3932.1249-.526.2782-.0079.0078-.0152.0177-.0231.0251-.0059.0098-.0133.0172-.0212.027-.0555.0826-.0959.1725-.119.2748-.0231.1032-.0212.2089.002.3224.0152.09.0462.1765.0939.263.0462.0865.1037.1671.171.2399.0079.0079.0172.0152.029.0251.0113.0098.0206.0172.0305.0251.0693.0615.144.1076.2266.1401.0826.0324.1691.0497.259.0516.119.0039.2384-.0246.3554-.086.119-.0634.2418-.1327.3726-.2114.0728-.0521.1479-.0998.2246-.1499.0767-.0477.1553-.0939.2379-.1362.1018-.0575.2114-.1096.3244-.1558.1116-.0477.2325-.0821.3573-.1032.2536-.0462.5009-.029.7412.0575.2379.0845.4566.2074.6527.3686.0133.0113.0251.0231.0383.0344.0133.0113.027.0231.0403.0325.2728.2669.4684.5918.5854.9717.1175.3785.1037.7471-.0423,1.1001ZM154.4103,143.7948l-4.815-3.8324,1.9887-2.4999.6493.5186-1.4441,1.8142,1.4289,1.1389,1.4456-1.8162.6296.5009-1.4456,1.8162,1.4436,1.1482,1.4441-1.8162.6641.5299-1.9892,2.498ZM162.204,132.7453l-4.4832-2.9049,3.4387,4.5501-.3342.5264-5.5813-1.1752,4.5368,2.8184-.4493.7107-5.1954-3.2986.7044-1.1118,4.9865,1.0425-3.076-4.0532.697-1.0961,5.1954,3.2986-.4394.693ZM163.1526,131.0132l-5.4628-2.8337,1.4711-2.8361.7373.3824-1.0676,2.06,1.6206.841,1.0671-2.0605.7161.3706-1.0691,2.0605,1.6378.8484,1.0676-2.058.7525.3898-1.4707,2.8356ZM166.2611,124.3893c-.0192.1671-.0541.3303-.1037.4895-.0501.1573-.1076.3131-.173.4684-.0152.0501-.0344.0998-.0575.1499-.0231.0497-.0462.0998-.0708.1534l-.7221,1.5822-5.599-2.5554.8199-1.7956c.2133-.4665.5033-.8622.87-1.1865.3667-.3244.816-.5279,1.3478-.6085.2974-.0536.5992-.0615.9044-.0192.3033.0403.5992.115.8852.2266.0153.0079.0325.0152.0497.0251.0192.0074.0384.0172.0595.0266.0364.0157.0732.0329.1116.0501.0364.0172.0708.0364.1057.0575.0708.0383.1421.0806.2089.1248.0693.0443.1367.0905.2035.1401.4016.3033.7107.697.9315,1.1811.2187.4837.2959.9811.2285,1.4899ZM167.5169,121.7877l-5.7391-2.2271.3166-.8145,5.7391,2.2256-.3165.816ZM169.3351,117.187c-.0078.0231-.0157.0442-.0231.0654-.0079.0231-.0152.0443-.0231.0673-.2762.6798-.7545,1.2288-1.4343,1.651-.6818.4208-1.4648.5127-2.3539.2728-.0403-.0079-.0787-.0192-.1136-.0305-.0364-.0118-.0728-.0251-.1111-.0388-.8218-.2895-1.4323-.8253-1.8339-1.6048-.4011-.7815-.4547-1.5901-.1593-2.4291.1922-.549.5147-1.0116.9639-1.3861.4492-.3726.9698-.582,1.5611-.6242l-.3475.987c-.3303.1175-.6011.2826-.816.4935-.2153.2114-.3785.4453-.4861.7009-.0054.0172-.0113.0325-.0172.0502-.0054.0152-.0113.0324-.0172.0477-.1863.5279-.1573,1.0794.0826,1.653.2418.5761.6857.9816,1.3286,1.2214.0118.0039.0231.0074.0368.0113.0133.0059.0266.0098.0364.0137.6257.2207,1.217.1784,1.7739-.1229.5569-.3038.9275-.7221,1.1157-1.2558.1018-.2689.1381-.5588.1111-.8641-.027-.3053-.1322-.6046-.3165-.8965l.3647-1.0367c.4394.4355.7063.927.7987,1.4746.0919.5451.0516,1.073-.1209,1.5798ZM170.2911,113.6947l-5.9288-1.651.234-.843,5.9293,1.651-.2345.843ZM171.6983,107.9364l-5.3739,1.9489,4.6946,1.0214-.1941.8523-6.0001-1.3728.2015-.8848,5.2072-1.9184-4.5427-.985.1956-.8523,6.0001,1.3708-.1883.8199ZM165.971,104.945l.5417-3.1467.8199.142-.3937,2.2846,1.799.3111.3937-2.2866.7948.1361-.3957,2.2866,1.8182.3131.3937-2.2846.8351.144-.5412,3.1467-6.0655-1.0464Z" fill="#009035" fill-rule="evenodd" stroke-width="0"/><path d="M164.2679,122.2502c-.0344-.0212-.0674-.0384-.0998-.0536-.0305-.0138-.0614-.029-.0939-.0423-.6512-.2978-1.2426-.3283-1.7764-.0924-.5318.2364-.9482.6817-1.248,1.3384l-.3878.8508,4.0723,1.8565.4493-.9831c.2615-.5721.3131-1.1192.1538-1.6437-.1573-.522-.5146-.9309-1.0695-1.2308Z" fill="#009035" fill-rule="evenodd" stroke-width="0"/><path d="M20.1777,126.0714c.0383-.0098.0747-.0231.1057-.0388.0324-.0133.0629-.0266.0959-.0418.6508-.2939,1.0636-.7201,1.2362-1.277.173-.5549.1116-1.1615-.1858-1.8201l-.3844-.8528-4.0782,1.8432.4458.987c.259.5721.6375.9717,1.1344,1.1964.4974.2266,1.0411.2266,1.6304.0039Z" fill="#009035" fill-rule="evenodd" stroke-width="0"/><polygon points="15.5962 114.9982 17.5972 113.5315 15.1145 113.3261 15.5962 114.9982" fill="#009035" fill-rule="evenodd" stroke-width="0"/><path d="M88.8494,9.5351l-1.7434.0212.0251,1.9853c.8774-.2939,1.4495-.96,1.7184-2.0064Z" fill="#009ee0" fill-rule="evenodd" stroke-width="0"/><path d="M87.1345,11.8409l3.6039-.0462.1769-.3013c-.2404-.0383-.4419-.2359-.609-.5952-.1612-.3185-.3263-.5549-.4876-.7142-.551.8105-1.4475,1.3001-2.6862,1.4785l.002.1784Z" fill="#009ee0" fill-rule="evenodd" stroke-width="0"/><path d="M88.8937,8.3329l-.3632.0059c-.4704.605-.7294.9083-.7678.9103l1.0828-.0138c.0728-.4433.0899-.7427.0482-.9024Z" fill="#009ee0" fill-rule="evenodd" stroke-width="0"/><path d="M91.3931,11.2457c.1229.0786.2635.1981.4267.3573.1592.119.2821.2168.3647.2954.6759-.2492,1.3134-.5987,1.9105-1.0479-.3652-.2748-.868-.5476-1.5134-.8218-.2015-.0369-.3033-.0963-.3052-.175,0-.0806.1017-.1018.3018-.0634.9639.1057,1.7258.2384,2.2886.3918.119-.1229.2954-.3456.5318-.668-.117.2015-.0767.1592.119-.1229l-2.7648.0344c-.2399.0039-.378-.0344-.4203-.115-.3593.2054-.6586.3303-.899.374-.1996.0408-.1804-.0192.06-.1843l-1.4441.0197c-.0364.1612-.0767.2822-.115.3628.639-.0079,1.1443.1479,1.507.4625.2861.2767.2689.5761-.0482.9005Z" fill="#009ee0" fill-rule="evenodd" stroke-width="0"/><path d="M91.7927,14.1875l-.0152-1.2023-.3613.004c-.4011-.0344-.5815.0885-.5372.3667.0015.1209.0034.261.0054.4208.002.1612-.0172.3033-.0536.4242l.9619-.0133Z" fill="#009ee0" fill-rule="evenodd" stroke-width="0"/><path d="M87.079,7.394l.0231,1.8624.2993-.0035c.2728-.4842.5053-1.3271.6896-2.5328l-.5417.0079c-.3588-.0364-.5186.1863-.4704.666Z" fill="#009ee0" fill-rule="evenodd" stroke-width="0"/><rect x="55.8946" y="17.1148" width="2.8847" height="3.9085" transform="translate(-2.1945 29.4208) rotate(-28.2605)" fill="#009ee0" stroke-width="0"/><path d="M51.4373,20.0263c-.4433.1937-.5721.4203-.3839.6832l1.653,3.0701,2.5402-1.3669-1.8506-3.4407-1.9588,1.0543Z" fill="#009ee0" fill-rule="evenodd" stroke-width="0"/><path d="M128.8204,18.9892l-1.0656-.5603c-.1421-.0752-.2689-.0059-.38.2089l-.4763.9024,1.2785.6719.6434-1.2229Z" fill="#009ee0" fill-rule="evenodd" stroke-width="0"/><rect x="25.8393" y="45.6398" width="2.4611" height="1.6826" transform="translate(-26.5114 41.757) rotate(-54.7455)" fill="#009ee0" stroke-width="0"/><path d="M25.523,43.8806l-1.1099,1.5704c-.2979.2802-.2207.553.2266.8199l.785.5549,1.421-2.0104-1.3227-.9349Z" fill="#009ee0" fill-rule="evenodd" stroke-width="0"/><rect x="26.7211" y="41.144" width="2.343" height="1.6819" transform="translate(-22.4928 40.555) rotate(-54.7765)" fill="#009ee0" stroke-width="0"/><path d="M123.5345,18.448c-.1076.0364-.3706.0998-.7854.1976-.4144.1018-.7005.1765-.8636.2266l1.68.6798c.117-.4822.1072-.8489-.031-1.104Z" fill="#009ee0" fill-rule="evenodd" stroke-width="0"/><rect x="28.2781" y="42.2283" width="2.4059" height="1.683" transform="translate(-22.7068 42.3128) rotate(-54.7776)" fill="#009ee0" stroke-width="0"/><rect x="126.251" y="20.1116" width="1.5647" height="1.4436" transform="translate(49.4925 123.59) rotate(-62.2751)" fill="#009ee0" stroke-width="0"/><path d="M89.5116,14.5178l-.9025.0113c-.4011-.0364-.5775.0865-.5353.3647l.0266,2.2251c.8351-.7717,1.304-1.6392,1.4112-2.6012Z" fill="#009ee0" fill-rule="evenodd" stroke-width="0"/><path d="M91.3607,0C41.4726,0,.9275,39.9769,0,89.6423h25.06c.9236-35.8235,30.2521-64.5818,66.3007-64.5818s65.3751,28.7583,66.2987,64.5818h25.06C181.7923,39.9769,141.2467,0,91.3607,0ZM17.5721,59.523l.0251-.0536c.4586-.8066,1.1232-1.0504,1.9927-.7353l.1096.0497c.7663.4419.9949,1.0966.6798,1.9681l-.0251.0536c-.4394.8568-1.0848,1.1099-1.9371.7604l-.056-.0251c-.841-.4758-1.102-1.1497-.7889-2.0177ZM20.8496,74.7755c-.0364.4802-.2153.6931-.5318.6414l-1.0062-.1652-1.1271,6.818c.0462.2133.1691.4571.3647.7294.2114.2.3111.3382.2978.4168-.2747.6857-.6512,1.2327-1.1231,1.6417-.0791-.0133-.1499-.0845-.2094-.2168-.2055-.2364-.4247-.3746-.6606-.4129l-6.8199-1.1271c-.7122-.1175-.9698-.405-.7717-.8602.4856-1.4613.8602-1.8874,1.1251-1.275.0654.0905.117.1421.1573.148l7.2943,1.2057.4011-2.4326-10.6155-1.7533c-.5338.0349-.695-.2168-.4841-.7506.3342-1.5282.6739-1.9814,1.0179-1.3557.0649.0924.115.1421.1573.148l10.2587,1.6953.4414-2.669-7.5322-1.244c-.3549-.0595-.5663-.1322-.6336-.2266-.0654-.0919-.0285-.3092.1076-.6527.3554-1.4033.7103-1.8314,1.0656-1.2843.0271.0845.0615.1322.0998.1381l8.3599,1.3807c.3647.0192.4856.5068.3667,1.4628ZM35.7876,44.1416c-1.83,1.0617-3.7617,1.1192-5.7912.1745l-.2782.3937,3.8787,2.7417c.4163.2443.4837.6355.2015,1.1713-.1902.407-.3229.6296-.4035.6739-.0767.0423-.2802-.0516-.6085-.2841l-2.4537-1.7317c.1784,2.0369-.0422,4.0168-.6606,5.9347-.3033.9118-.4586,1.0981-.4665.553.1922-2.5653-.1116-4.9113-.9084-7.0446l-1.0062,1.421.2458.1725c.317.1784.3573.5014.1229.9737-.3072.7142-.6296.927-.9673.641l-3.9764-2.8091c-.317-.1784-.2708-.4143.1362-.7161.6242-.3932.9909-.6739,1.1059-.8371l1.3173-1.8644-1.275-.9005-3.1222,4.4164c-.115.1632-.2551.261-.4222.288-.1131.0212-.1096-.0521.0059-.2153l3.2927-4.6616-1.4225-1.0081c-.2635-.1843-.3977-.3053-.4075-.3608-.0074-.056.0845-.1863.2767-.3918.8774-1.0986,1.3094-1.3325,1.3035-.699-.0113.088-.0039.144.029.1671l1.2765.9024,1.6648-2.3559c.0231-.0349-.0443-.2517-.1996-.6567-.1956-.4842-.288-.7683-.2767-.8582.2748-.2477.8528-.4763,1.738-.6857.2227-.0383.3549-.0172.3972.0595.0423.0786-.0059.2173-.144.4129l-2.9836,4.2222,1.3266.9369,1.248-1.7685c.0231-.0324-.0231-.1381-.1421-.3185-.1361-.2959-.1956-.4856-.1843-.5741.8508-.5761,1.5188-.8641,2.0084-.8602.1307.0924.1883.2556.1711.4876.0265.1671.0595.263.0899.2841l2.7496,1.943c.1976.1406.1996.4109.0098.8184-.2615.6488-.5549.8562-.8813.6257l-.2959-.2094-.8661,1.2269c1.7361.2497,3.4795-.4817,5.2284-2.1907.171-.1706.2266-.1111.1612.1882-.0556.3534-.0668.6164-.0383.7835.031.1671.1076.3686.2345.6046.2669.3878.2531.6473-.0383.7835ZM41.5955,32.2702l-.0443.0383c-.7466.6065-1.4402.578-2.0792-.0845l-.0403-.0462c-.578-.7737-.5476-1.4957.09-2.1656l.0442-.0383c.7452-.553,1.4515-.5087,2.1214.1302l.0806.0905c.5225.7122.467,1.4038-.1725,2.0757ZM120.7678,18.2848s.0462,0,.1347.0015c.4473.0983,1.2229-.1263,2.3269-.6774-.2669-.0944-.5894-.1288-.9678-.1003-.1765-.0034-.3033-.0226-.3726-.0614-.1494-.5756-.1514-1.0077-.002-1.2918.0732-.0521.1809-.0403.3249.0344.1592.0403.2669.0497.3205.0344.5417-.259,1.0907-.695,1.6398-1.3094.2015-.2133.3224-.3092.3554-.292.6355.5186,1.0022.9831,1.1,1.3959-.0364.0713-.173.1136-.405.1268-.6473.0211-1.3212.1883-2.0256.4955l.956.5028c.29-.119.5874-.2551.8966-.4109.144-.1037.2345-.1474.2708-.1283.4684.7427.6277,1.3016.4763,1.6781-.0177.0324-.144.0595-.3765.0708-.5741-.0285-1.1772-.0074-1.8049.0693.8641.6818,1.2175,1.4323,1.0563,2.2542l1.8757-3.5616c.1116-.2133.2477-.2133.4011.0054.1249.1115.292.3131.4994.605.1401.1632.2286.2531.263.2708.2035-.2979.3898-.6527.5588-1.0622.1322-.2492.2148-.3628.2517-.3436.5987.407.958.8449,1.073,1.3114-.0364.0732-.1534.1229-.3534.1558-.376.0265-.7181.117-1.0248.2743l.6891.3632c.0364.0191.1534-.0329.3534-.1538.1824-.0865.2895-.1209.3264-.1018.4704.5643.7122,1.0101.7235,1.3325-.0364.0708-.1263.115-.2703.1307-.1248-.0231-.1981-.0157-.2173.0212l-1.3999,2.6591c-.0767.3224-.3647.3509-.8617.088-.4266-.1342-.5761-.2802-.4478-.4375l.058-.1057-1.2789-.6739-.0826.1593c-.113.2133-.407.2187-.8872.0098-.4089-.1691-.5662-.3421-.4724-.5225l.1406-.2649c-.4247.4591-.8813.5569-1.3787.2959-.2133-.202-.1863-.5072.0708-.9142.058-.1057.0944-.1765.1136-.2128-.8391-.1249-1.5916-.1598-2.2561-.1003-.2516.0462-.4129.056-.4856.0177-.148-.4881-.1116-1.0332.115-1.6378ZM85.7391,6.0886c.0787-.0806.261-.0614.5412.0521.4856.236.8258.3298,1.0273.2895l2.6439-.0325s.0364-.0634.117-.1843c.2345-.4031.4129-.6257.5338-.666.2801.0767.6626.3509,1.1521.8272.0806.119.1017.1976.0614.2379-.0786.0423-.2384.0634-.4802.0674l-3.2446.0403c1.4859.3824,1.9312.6375,1.3325.7663-.0791.0383-.1406.0614-.1789.0614,0,.0403-.0806.1209-.2379.2438-.0786.0806-.1592.1612-.2379.2418l1.3227-.0172c.2325-.4419.4129-.6857.5318-.7279.2399.0388.6031.2748,1.0907.7068.0806.0826.1037.1612.0634.2399-.0403.0422-.1209.0634-.2404.0654l-1.1423.0152c-.1995.002-.2974.1037-.2954.3038.002.1209-.0177.3205-.0541.6006l.3613-.0059s.0403-.0595.119-.1804c.1553-.2438.2954-.3859.4148-.4262.1209-.0423.3819.1553.7889.5913.6719-.7294.96-1.653.8661-2.7761-.0423-.1578-.0251-.2787.0575-.3632.0364-.0383.1381-.0192.2993.058,0,0,.1018.0192.3018.0555.3628.117.5643.1745.6026.1745l1.0214-.0133s.0211-.0403.0575-.1209c.1597-.2841.2959-.4242.4168-.4261.6414.0727,1.0848.288,1.3306.6449.002.0806-.0595.1804-.1745.3033-.0826.0811-.119.1406-.119.1809l.0054.4817c.0039.2384.1248.3573.3632.3554.2015-.0039.3416-.0634.4183-.1863.0806-.1209.1593-.1804.2399-.1824.4822.0325.8046.2094.9678.5279-.0767.2821-.3726.5068-.8907.6719-.0826,0-.2035.002-.3632.004-.3205.0059-.6198.0079-.9025.0113-.9196.0118-1.3458-.3416-1.2745-1.0656l-.0118-.9005-.7201.0098c-.2015-.0383-.3185.1037-.3569.4242-.027.8833-.4994,1.5901-1.4131,2.1219l3.0622-.0383c.0423,0,.0998-.0614.1789-.1828.119-.1632.2168-.263.2974-.3033.5225.0732.985.3878,1.396.9447-.0403.0786-.1401.1401-.3013.1823-.1578.0442-.2576.0826-.2979.1249-.236.2821-.4743.5471-.7103.7914.0786-.002.1401.0364.1804.115.407.3569.5299.7756.3765,1.2593-.1558.4035-.4763.4861-.9585.2516-.1209-.0383-.2821-.1976-.4876-.4743-.0826-.1593-.1632-.2762-.2438-.3588-.8351.4148-1.8142.664-2.9359.7604-.3205.0035-.4797-.0138-.4817-.056-.0403-.0403.0595-.0998.2993-.1824l-4.6887.0595c.002.1578-.2782.2615-.8371.3092-.52.0482-.7432-.1303-.668-.5318l-.0654-5.1684c-.0039-.321.0536-.5225.173-.6031ZM60.9646,21.2453c-.3647.3342-.6817.2536-.9481-.2399l-.3421-.6355-2.5402,1.3669,2.3942,4.4468c.321.5087.1632.9811-.4704,1.4112-.5028.4994-.8926.4148-1.1634-.261l-2.5343-4.7118-2.5402,1.3689.3131.5819c.3205.5127.2168.9521-.3092,1.3286-.5589.4817-.9929.3971-1.2981-.2576l-2.5343-4.7098c-.1519-.2821-.1863-.4704-.0978-.5623.0668-.1288.234-.1961.5028-.2035.7009.0344,1.1654.0113,1.3979-.0673l2.4881-1.3404-1.3669-2.5402c-.2285-.3338-.2959-.5471-.2074-.639-.0059-.0905.2153-.2305.6567-.4227,1.2406-.5761,1.6953-.5721,1.3729.0118-.0325.1072-.0403.1804-.0212.2148l1.2824,2.3829,2.118-1.1409c.0325-.0172.0536-.1897.0634-.5122.0231-.467.0767-.7452.1632-.8395,1.0867-.2649,1.9681-.1475,2.6478.3514.002.0905-.0383.2266-.1249.409-.0865.0904-.1189.1538-.0998.1902l1.7931,3.333c.4109.5972.2133,1.16-.5953,1.686ZM73.587,16.157l-.0575.0137c-.9467.1765-1.5419-.1784-1.7896-1.0656l-.0133-.0595c-.1386-.9565.234-1.5763,1.1133-1.8604l.058-.0138c.9177-.1303,1.5164.2458,1.801,1.1271l.0285.117c.1189.8759-.2591,1.4574-1.1403,1.7415ZM98.6854,12.7777c.002.0791-.0978.1214-.2974.1249l-4.9285.0614c-.2423-.0383-.3401.1037-.2939.4247l.0093.781,1.8029-.0206s.0368-.0423.1194-.1229c.1553-.2846.2935-.4458.4144-.4881.7221.1116,1.2465.4262,1.5729.9428.0422.119-.0389.2418-.2364.3647-.119.1214-.1765.202-.1765.2423l.0477,3.7862c.0039.2782-.0344.4606-.113.5412-.0786.0806-.3396.1652-.7796.2517-.4783.0845-.7201-.0113-.724-.292l-.0094-.7215-7.0313.088.0079.6031c.002.1996-.3362.3627-1.014.4915-.4414.0845-.6621-.031-.666-.3515l-.0654-5.1689c-.0039-.3205.0305-.52.113-.6006.0791-.0423.2384-.0039.4802.1111.0806.0403.2227.0998.4222.1769.4439.1534.7068.232.7855.23l1.3827-.0172-.0157-1.2018-4.8076.0614c-.3628-.0747-.4625-.1573-.3033-.2379l12.1402-.1538c.5913-.6891.9275-1.0312,1.0101-1.0332.117.0388.4625.3151,1.0307.8297.1209.1573.1617.2551.1229.2974ZM111.0429,14.9783l-.027.1189c-.2703.8391-.8656,1.2003-1.7837,1.0735l-.0575-.0137c-.929-.2512-1.3094-.8292-1.1463-1.7376l.0138-.0595c.2895-.9196.8946-1.3168,1.8083-1.1905l.0575.0118c.8833.2821,1.2618.8793,1.1349,1.797ZM131.5931,26.4928l-4.7329-2.4905c.8715,2.0452,2.1637,3.6289,3.8801,4.758.1941.1479.0482.2536-.4375.3131-.3421.0477-.5648.088-.6724.1229-.0747.0497-.1765.1553-.3033.3146-.1671.2285-.2935.2978-.3819.2074-1.7606-1.5606-2.5883-3.5115-2.4846-5.86l-1.6245,3.0878c-.2281.6026-.6527.7658-1.2745.4817-.551-.1533-.726-.4261-.5205-.8159l1.4284-2.7147c-1.4436.4203-2.8243.5087-4.1451.2649-.5893-.0845-1.2672-.2595-2.0315-.5244-.6242-.1917-.7294-.2935-.317-.3033,2.433.1941,4.3662-.1249,5.8005-.9541l-3.6693-1.9317c-.1804-.0944-.2935-.2207-.3436-.3839-.0324-.1096.0384-.1155.2153-.0231l5.105,2.6882.4478-.8508c.0595-.1956.3166-.1288.7776.2015.7756.5014,1.0135.7835.7063.8508-.0516.0152-.0905.0423-.1076.0767l-.2802.5338,3.1374,1.651c.0344.0172.234-.0133.5933-.0959.434-.1342.6837-.1823.7564-.144.1937.144.4798.6356.8562,1.4667.031.2-.0939.2227-.378.0732ZM133.7799,22.2111c-.1612-.0383-.2959-.0423-.4031-.0098-.3229.0137-.8798.1248-1.6746.3421.895.8793,1.2214,1.6397.9737,2.2787-.3303.4591-.728.5687-1.1885.3264-.1577-.1303-.1883-.4183-.0904-.8636.0192-.0349.0383-.0713.0555-.1057-.5874-.0826-1.2421-.1347-1.9582-.1499-.3765.029-.6183.0133-.726-.0423-.2571-.5412-.3107-1.0003-.1573-1.3729.0713-.0516.1804-.0845.3225-.1017.576-.0595,1.3251-.3205,2.2487-.7855-.3038-.115-.6798-.1303-1.1271-.0516-.2.0324-.3151.0383-.3494.0192-.1175-.4665-.0443-.9506.2168-1.4476.0732-.0502.1538-.031.2399.0614.0885.0919.1691.1111.2423.0595.4144-.0998.9236-.5107,1.5301-1.2347.259-.3166.4148-.4837.4684-.4994.4379.4571.7412.9565.9103,1.4977-.0368.0693-.175.1116-.4075.1248-.5741.0595-1.1959.2074-1.8639.4473l1.0637.5589c.3972-.1534.7506-.3515,1.0597-.5972.1804-.0845.292-.1189.3264-.1017.3839.5648.6026,1.0887.666,1.5744-.0364.0693-.1632.0963-.378.0732ZM135.4197,19.6114c-.0521.0152-.1347-.0039-.2404-.0595l-3.1929-1.6801-.3072.5854c-.0575.2841-.4625.2787-1.2096-.0251-.4104-.0806-.5584-.2281-.4473-.4394l.4473-.8508-2.3942-1.2593-.3072.5834c-.1652.2305-.5412.2133-1.1271-.0497-.3898-.2054-.5392-.3957-.4453-.5721l.3917-.7452-2.7668-1.4554c-.2114-.1111-.3534-.232-.4222-.3588-.0329-.1096.0403-.1155.2168-.0212l3.0838,1.6225.6449-1.2234c.0959-.2689.3205-.263.6719.0152,1.0253.6282,1.2789,1.0121.7545,1.1428-.1248.0688-.1996.119-.2187.1553l-.3342.6375,2.3942,1.2613.5303-1.0096c.1494-.3746.3318-.4611.5432-.2576,1.1693.7048,1.4898,1.1231.9698,1.2558-.1096.0344-.173.0674-.1922.1037l-.3628.6911,1.2229.6434c.0732.0383.2689-.0383.5952-.2285.3628-.1711.582-.2399.6508-.2015.2477.1283.5436.6469.8833,1.5493-.002.0924-.0133.1538-.0324.1902ZM163.0755,58.8702l.056-.0251c.9098-.3244,1.5916-.0806,2.0428.726l.0231.0536c.3092.8754.0575,1.536-.7511,1.9892l-.1091.0482c-.8351.2895-1.4805.0324-1.9317-.7761l-.0251-.0536c-.3569-.8926-.1263-1.5454.695-1.9622ZM143.3072,32.1375l-.0791.0905c-.6336.6164-1.3266.6547-2.0792.113l-.0442-.0383c-.7029-.6586-.7678-1.3478-.1976-2.0738l.0384-.0457c.6891-.6778,1.4092-.7432,2.1583-.2035l.0457.0383c.6473.6621.6989,1.3689.1577,2.1195ZM160.549,41.8993c-.0653.0457-.1823.0556-.3475.0246-.2477-.0728-.4802-.0575-.7029.0462-.3284.2305-.3937.2748-.1976.1382-1.2691.839-2.1372,1.419-2.5963,1.7375l1.7533,2.5136c1.0637-.1538,1.6628-.1327,1.801.0654.1745.3185.1671,1.0789-.0192,2.2846-.029.1671-.0905.2556-.1784.2708-.0885.0113-.177-.0482-.2708-.1804l-3.2622-4.6833c-1.1232,1.1232-1.8585,2.4154-2.206,3.8806-.3401,1.2613-.2133,2.8838.3819,4.8597.0152.0899.0443.1666.0905.232.1494.2861.0845.3303-.1981.1367-.0231-.031-.0634-.0541-.117-.0654-.3284-.2595-.7432-.4321-1.246-.5225-.1347-.0536-.3185-.0708-.553-.0555-.2094.0482-.3647.0364-.4645-.0423-.292-1.7494-.031-3.4427.7795-5.0844.5471-.8218,1.3517-1.7719,2.4075-2.8494-2.638,1.3979-5.0441,1.4903-7.2137.2649-.6621-.3185-1.3768-.7486-2.1446-1.2883-.812-.6066-.9157-.7545-.3092-.4453,1.8108.985,3.4043,1.4131,4.7791,1.2883,1.3095-.0845,2.9241-.7447,4.844-1.9872l-2.5766-3.6978c-.115-.1632-.173-.317-.1765-.461.0516-.1362.1362-.1209.2512.0442l2.7821,3.9917c.2286-.1592.5436-.378.9373-.6508,1.1079-.724,1.8526-1.2672,2.233-1.6299.4989-.5436.8233-.5721.9659-.0865.695,1.275.9521,1.9278.7737,1.9509ZM167.5204,82.0639c-.0787-.4738-.1745-.8022-.2861-.9865-.7215-1.1811-1.129-1.7838-1.2131-1.8127l-.2384.0403.578,3.4982c.0079.0403.1421.1209.407.2384.3475.144.5721.2703.6699.378.1519.177-.0668.699-.6527,1.569-.1057.0978-.1823.1303-.2285.0998-.0841-.029-.1421-.1209-.1667-.2807l-.9024-5.4545-2.0738.3436c-1.0081.288-1.6378-.1976-1.8874-1.4554-.0728-.1922.0403-.3706.3382-.5417.6277-.3878.96-.9521.9983-1.6894.0364-.288.0708-.4379.1111-.4433.0383-.0079.0845.146.1366.4625.1111.9177.2015,1.4726.2743,1.6628.119.2227.3726.2841.7604.1784l1.0676-.1765-.8523-5.1591c.0192-.3686.0845-.4822.1897-.3342l.9005,5.453,1.3635-.2246c.2762-.0462.29.522.0364,1.6992-.0305.0457-.0443.088-.0384.1283.2782.1981.6434.4419,1.0961.7339l-.8907-5.3975c-.027-.1592-.0118-.3013.0497-.434.0654-.0939.1116-.0595.1386.0998l.9501,5.7508c.0059.0403.1209.1229.3455.2477.3072.1514.4704.2669.4822.3455-.0865.4606-.3898,1.0809-.9123,1.8585-.2492.4473-.4335.3131-.551-.3977ZM175.2545,82.7958c-.119.0192-.2787-.0944-.4841-.3475-.1037-.144-.1784-.2114-.2148-.2055l-4.5677.7545c.0059.0383.1189.1018.3357.1863.2634.1209.4227.2168.4724.288-.0246.3303-.1976.7638-.5141,1.3035-.2635.3686-.465.5028-.6031.405-.0443-.0344-.0826-.1303-.1076-.2861-.2497-.7737-.7044-1.4284-1.363-1.97-.1347-.0998-.2094-.1666-.2153-.2069.0349-.0462.1347-.0443.3053.0113.3421.1037.8336.2457,1.4726.4261l-1.7258-10.4351c-.5933.3396-1.131.407-1.6093.2035-.4414-.2114-.6586-.5417-.6508-.989.0806-.4994.3436-.7471.7928-.7392.1195-.0192.319.0904.6011.3264.5107.4016.989.5874,1.4303.5569.1593-.027.261-.0251.3072.0093.0059.0408-.0634.1116-.2074.2153-.146.1076-.2743.1883-.3839.2477l.029.1784,5.4545-.9024c.3878-.1057.4802.2035.2748.9295-.0482.2114-.0787.38-.0998.5029.3608.2266.7393.4261,1.1364.605.2173.0865.3323.1691.3436.2477.0674.1514-.0192.3686-.2571.6528-.1307.1823-.2305.3205-.2954.4129.0133.5662-.0389,1.246-.1519,2.0369.2689.1573.5741.29.9177.3957.2576.0806.3917.1593.405.2379-.1057.5859-.4144,1.0637-.9196,1.4304-.0403.0059-.1111-.0614-.2187-.2069-.1691-.2979-.3534-.5515-.553-.7624-.5205.7776-1.0735.8695-1.6589.2743-.0787.5013-.2477.8336-.5068.9988-.0772.0133-.1691-.0521-.2748-.2-.2035-.2492-.4242-.4778-.6606-.6832-.232.5663-.5279.8602-.8907.8813-.317.0516-.5952-.0442-.841-.288-.2035-.2516-.2227-.4935-.0575-.724.0344-.0443.1229-.1209.2669-.2246.2571-.1652.4704-.3436.6429-.5338-.5392-.5608-1.0518-1.2057-1.538-1.939l.9408,5.6929,1.4824-.2458-.2728-1.6589c-.0266-.1592-.0054-.2649.0674-.3151.1057-.1018.1691-.0899.1883.029l.3151,1.8968,1.363-.2246-.2364-1.4225c-.0246-.1598-.0074-.2846.0614-.3765.1057-.0978.1671-.0884.1863.029l.2841,1.7203,1.6014-.2649-.2458-1.4824c-.0246-.1573-.0074-.2821.0615-.3746.0713-.0536.1209-.002.1479.1578l.2458,1.4819s.0634.029.1961.0905c.38.0978.6026.2055.6601.3165-.0074.6916-.2285,1.3173-.6641,1.8762Z" fill="#009ee0" fill-rule="evenodd" stroke-width="0"/><path d="M172.6662,74.5126c.3111.1519.4915.2649.5451.3362.0654.1514-.0438.4758-.3284.9693-.0246.0845-.0555.1499-.088.1961.0919.0654.1863.1514.2841.2571.3686.2649.6395.4227.812.4743.263-.3686.4439-.7412.5436-1.1231-.0403.0059-.0772-.0905-.1096-.2861-.1632-.5013-.38-.9545-.6488-1.3556-.0443-.0324-.0752-.0904-.0885-.1691-.1711-.2954-.3131-.4144-.4242-.3549l-.9506.1573.119.7103c.0059.0403.1175.1017.3342.1883Z" fill="#009ee0" fill-rule="evenodd" stroke-width="0"/><path d="M91.804,15.0879l-.0074-.5992-.9619.0113c.0152,1.2003-.9162,2.1563-2.7899,2.8592l.0152,1.1423,7.0293-.0885-.031-2.463c-.1573.1229-.4375.2438-.8351.3701-.3608.0865-.699.1076-1.0214.0732-.96.0516-1.4264-.3839-1.3979-1.3055ZM92.7256,16.879c.1598-.2801.2576-.4242.2959-.4242.1996-.0403.6046.1922,1.2116.7063.1632.1175.2227.2173.1843.2998-.0383.0383-.1804.0614-.4207.0634l-5.1665.0654c-.1214.0015-.202-.0388-.2423-.1175-.0806-.0787-.0629-.119.056-.1209l3.7882-.0482c.0787,0,.1784-.1401.2934-.4242Z" fill="#009ee0" fill-rule="evenodd" stroke-width="0"/><path d="M93.6089,15.3066c.1593-.002.321-.0442.4783-.1268.1209-.0806.1996-.1229.2399-.1229.1995-.0039.4418.0944.724.29l-.0118-.9005-1.8604.0251.0059.4202c.002.2787.1421.4188.4242.4148Z" fill="#009ee0" fill-rule="evenodd" stroke-width="0"/><path d="M130.268,22.9445c-.1421.0152-.2418.029-.2954.0482l1.653.7334c.0978-.4473.0713-.8238-.0865-1.133-.3224.1037-.7467.2188-1.2711.3515Z" fill="#009ee0" fill-rule="evenodd" stroke-width="0"/><path d="M171.5509,75.855c.092-.177.1573-.2708.1976-.2787.0383-.0059.0536.0959.0497.2998.0442.52.0039,1.0135-.1229,1.48.1843.1347.3898.261.6129.3878.1885.0836.2986.1598.3387.2273.0047-.0879.0922-.177.2639-.2676.1843-.1111.3264-.236.4262-.374-.4355-.4168-.843-.9162-1.2229-1.5036-.1592-.2168-.2227-.3495-.1883-.3937.0349-.0477.1632.0118.3957.175l-.3224-1.9548-1.6014.2649.0787.4724c.0059.0403.1209.1229.3436.2497.3628.2227.5682.3706.6223.4453.027.1573-.1249.4645-.4571.9295-.0654.0899-.1131.1573-.148.2054-.0649.0919-.1401.1249-.2281.0978-.0791.0133-.1288-.0595-.1558-.2168l-.3515-2.1352-1.4839.2458.2075,1.244c.4856.4896,1.1978,1.0003,2.1406,1.536.2978-.4168.4974-.7948.605-1.1364Z" fill="#009ee0" fill-rule="evenodd" stroke-width="0"/><path d="M88.6725,118.8557c41.6496-11.6836,50.5546-43.1143,40.1327-56.1359-5.1556-6.44-17.261-10.4813-33.7984-6.3382v-12.7718h-6.0482v14.5959c-4.3544,1.5286-8.9645,3.6004-13.7913,6.3112-27.7905,15.604-28.2515,36.258-21.9093,48.9836,5.919,11.8792,19.5534,17.607,35.4165,16.4087l3.3085,9.2471,3.6481-10.1972c7.4668-1.4593,15.2334-4.38,22.7789-8.8362-12.5762,6.2055-24.2038,8.7035-33.9385,7.8816,14.8422-1.073,27.2552-6.2149,37.8687-12.7011-12.7256,6.3879-25.3903,10.6372-37.9474,10.4317,12.2405-1.2691,25.5383-5.7813,40.7373-15.2487-72.9608,38.0703-97.8656-17.7854-36.1715-42.5692l-.2861,50.9385Z" fill="#e30016" fill-rule="evenodd" stroke-width="0"/></g></svg>