<svg xmlns="http://www.w3.org/2000/svg" xmlns:xlink="http://www.w3.org/1999/xlink" fill="none" version="1.1" width="888.5849609375" height="888.2919921875" viewBox="0 0 888.5849609375 888.2919921875"><g><g transform="matrix(1.0003299713134766,0,0,1,0,0)"><path d="M444.118,0C689.413,-0.0152514,888.275,198.823,888.292,444.118C888.308,689.413,689.469,888.275,444.173,888.292C198.878,888.308,0.015243,689.469,-0.00000839624,444.173C-0.00000954089,444.154,-0.00000954089,444.138,-0.00000839624,444.118C0.0304879,198.851,198.851,0.0304744,444.118,0ZM444.118,22.8935C211.467,22.8935,22.866,211.495,22.866,444.146C22.866,676.798,211.467,865.398,444.118,865.398C676.771,865.398,865.37,676.798,865.37,444.146C865.37,444.138,865.37,444.126,865.37,444.118C865.354,211.478,676.76,22.8936,444.118,22.8935Z" fill-rule="evenodd" fill="#B32A2A" fill-opacity="1"/></g><g transform="matrix(1.0003299713134766,0,0,1,-0.02783842943608761,0)"><path d="M86.9345109375,230.70300748046876C85.9956109375,232.55299748046875,84.3938140375,233.65800748046874,84.3662109375,235.72900748046874C84.6059109375,238.15101748046874,85.7263109375,240.40201748046874,87.5144109375,242.05301748046875C88.2877109375,242.90901748046875,90.2760109375,239.76101748046875,91.0769109375,241.28001748046876C94.0318109375,247.96301748046875,94.5289109375,248.46001748046876,96.4344109375,247.49301748046875C98.3398109375,246.52701748046874,98.7541109375,239.59501748046875,99.7483109375,238.29701748046875C100.9904109375,236.90301748046875,101.9304109375,235.26699748046875,102.50941093750001,233.49200748046874C102.7574109375,232.41999748046874,102.7574109375,231.30499748046876,102.50941093750001,230.23299748046875C102.2334109375,229.04600748046875,100.6044109375,229.95699748046874,99.7483109375,229.40499748046875C98.1766109375,228.51800748046875,96.6638109375,227.53100748046876,95.2193109375,226.44999648046874C94.2251109375,225.70399448046874,93.6452109375,226.69900548046874,92.4577109375,226.97500648046875C91.2702109375,227.25100748046876,90.2208109375,226.22900388046875,89.4199109375,226.97500648046875C88.3943109375,228.14700748046874,87.5390109375,229.45799748046875,86.8793109375,230.86900748046875L86.9345109375,230.70300748046876ZM98.5884109375,269.17201748046875C98.2399109375,265.9160174804688,98.1291109375,262.64001748046877,98.2570109375,259.3680174804688C98.2570109375,257.3800174804687,100.8524109375,255.58501748046876,101.0184109375,253.84501748046875C101.5434109375,250.61401748046876,103.3104109375,248.15601748046876,103.9184109375,245.42201748046875C104.2474109375,242.32801748046876,104.8484109375,239.27001748046874,105.7134109375,236.28101748046876C106.8184109375,233.71299748046874,107.8954109375,232.85699748046875,108.3094109375,233.16099748046875C109.6904109375,234.23800748046875,111.59541093749999,235.01099748046875,111.20841093749999,237.22001748046875C110.1594109375,243.07501748046874,109.4414109375,247.60401748046874,108.2544109375,254.17601748046874C109.4414109375,258.54001748046875,106.9564109375,262.95801748046875,106.65241093750001,264.42201748046875C106.3484109375,265.8850174804687,104.3044109375,272.23701748046875,102.7304109375,273.03801748046874C101.1564109375,273.8390174804687,99.4997109375,271.43601748046876,98.4503109375,269.31001748046873L98.5884109375,269.17201748046875ZM140.0124109375,327.49591748046873C142.7734109375,331.69391748046877,146.2254109375,324.90101748046874,146.9164109375,323.49201748046875C147.9914109375,321.26901748046873,147.9914109375,318.67301748046873,146.9164109375,316.4500174804688C143.9334109375,310.92701748046875,140.2604109375,304.65801748046874,136.0904109375,298.4450174804688C133.3294109375,294.27501748046876,129.1314109375,286.12801748046877,126.2314109375,282.17901748046876C121.9794109375,276.40701748046877,118.2234109375,269.19901748046874,118.6374109375,265.30601748046877C121.3994109375,262.15701748046877,129.0764109375,263.9520174804687,127.7784109375,272.3750174804687C127.5854109375,273.6180174804688,131.6994109375,278.47801748046874,134.4614109375,278.39501748046877C135.5934109375,278.09201748046877,135.73141093750002,275.02601748046874,136.6434109375,273.81101748046876C141.5314109375,271.98901748046876,138.3824109375,284.16701748046876,139.8184109375,287.61901748046876C140.9684109375,289.91101748046873,142.65441093750002,291.89101748046875,144.7344109375,293.39101748046875C145.8394109375,293.94301748046877,146.9714109375,293.22501748046875,146.5844109375,291.5410174804688C146.21941093750002,289.95301748046876,146.5734109375,288.28701748046876,147.5514109375,286.98401748046876C151.14141093749998,286.98401748046876,150.3124109375,294.68901748046875,151.4724109375,295.26901748046873C154.4824109375,296.8150174804688,156.9964109375,296.5940174804688,157.2724109375,293.4740174804688C157.2724109375,291.26401748046874,154.5104109375,288.7790174804687,153.4614109375,285.18901748046875C152.5224109375,282.17901748046876,152.6874109375,279.6660174804688,152.1354109375,278.45101748046875C150.9484109375,276.7380174804687,148.1314109375,275.68901748046875,147.5794109375,273.2310174804687C146.7224109375,269.42001748046874,146.1984109375,262.90301748046875,147.5794109375,260.25201748046874C148.5374109375,258.3200174804688,150.3474109375,256.9500174804688,152.4674109375,256.5510174804688C155.4494109375,255.91601748046875,156.3604109375,261.93601748046876,156.3334109375,266.7140174804687C155.65341093749998,268.27701748046877,155.4334109375,270.00101748046876,155.6984109375,271.68501748046873C156.4714109375,275.41301748046874,161.4424109375,272.7070174804687,163.9824109375,267.37701748046874C164.7004109375,265.85801748046873,163.15441093750002,261.24601748046877,159.48141093750002,257.18601748046876C158.1004109375,255.64001748046874,156.5544109375,249.48201748046876,153.29541093749998,249.64701748046875C149.70241093750002,250.13201748046876,146.2294109375,251.27401748046876,143.0504109375,253.01601748046875C140.6754109375,254.12101748046877,141.8344109375,259.1470174804688,140.5094109375,260.4450174804688C139.6254109375,261.32901748046874,138.88041093750002,257.68401748046875,137.3884109375,255.99901748046875C136.5374109375,254.71901748046875,136.0594109375,253.22701748046876,136.0074109375,251.69101748046876C135.6764109375,250.28301748046874,133.2464109375,251.11101748046875,132.14141093749998,252.82301748046876C129.38041093750002,253.67901748046876,127.94441093750001,250.58601748046874,126.8944109375,247.05101748046874C126.17641093750001,244.64901748046876,126.17641093750001,241.30701748046874,125.0724109375,240.34101748046874C123.1324109375,239.20501748046874,121.07741093749999,238.27901748046875,118.9414109375,237.57901748046874C117.9194109375,236.97201748046876,116.7874109375,239.45701748046875,116.0414109375,240.14701748046875C114.9924109375,244.09701748046876,116.1794109375,246.72001748046875,116.0414109375,249.78501748046875C116.0414109375,251.49801748046875,112.3414109375,254.20401748046874,112.1204109375,256.57901748046874C111.8994109375,258.95401748046874,112.8384109375,263.64901748046873,112.1204109375,265.83001748046877C111.1814109375,268.59201748046877,114.2744109375,273.31401748046875,116.9804109375,277.89801748046875C118.4904109375,280.71501748046876,120.2174109375,283.41301748046874,122.1444109375,285.9620174804688C127.3084109375,292.3970174804688,126.92241093749999,294.52301748046875,131.5344109375,301.31701748046873C136.1024109375,307.8150174804688,139.5564109375,315.03101748046873,141.7524109375,322.6640174804687C142.33241093750001,324.32101748046875,140.3434109375,326.06001748046873,140.2334109375,327.3859174804687L140.0124109375,327.49591748046873ZM121.9234109375,254.06601748046876C122.4484109375,253.76201748046876,123.2494109375,254.06601748046876,123.7464109375,255.00501748046875C124.2434109375,255.94401748046874,124.2164109375,256.71701748046877,123.7464109375,257.04801748046873C123.27741093750001,257.3800174804687,122.42041093750001,257.04801748046873,121.9234109375,256.10901748046876C121.42641093750001,255.17101748046875,121.4544109375,254.37001748046876,121.9234109375,254.06601748046876ZM162.5744109375,278.45101748046875C163.4024109375,277.65001748046876,165.3364109375,277.9810174804687,167.15841093749998,277.73301748046873C169.5614109375,277.42901748046876,171.6874109375,276.51801748046876,172.8474109375,277.40101748046874C173.9984109375,278.95901748046873,174.92841093750002,280.66801748046873,175.6094109375,282.48301748046873C176.4864109375,283.8610174804688,177.27941093750002,285.28801748046874,177.9844109375,286.76301748046876C177.81441093749999,288.02501748046876,177.25441093749998,289.20401748046874,176.3824109375,290.13201748046873C175.1734109375,290.8560174804687,173.64641093749998,290.78101748046873,172.51641093749998,289.93901748046875L169.5064109375,288.31001748046873C167.1004109375,286.9620174804688,164.41641093750002,286.18901748046875,161.6634109375,286.04501748046874C159.9234109375,286.70801748046875,158.2934109375,287.0940174804688,157.13441093749998,286.2380174804687C156.61841093750002,285.7500174804687,156.1974109375,285.16701748046876,155.89141093749998,284.52601748046874C155.2284109375,283.6420174804688,159.56441093749999,281.40601748046873,162.5744109375,278.45101748046875Z" fill-rule="evenodd" fill="#B32A2A" fill-opacity="1"/></g><g transform="matrix(1.0003299713134766,0,0,1,-0.05912254564464092,0)"><path d="M179.3688046875,132.5559767578125C178.6228026875,134.1849767578125,180.2518046875,135.3179767578125,180.8598046875,138.0789767578125C182.1028146875,143.6019767578125,187.9568046875,149.1259767578125,191.0228046875,152.5499767578125C195.8828046875,158.0729767578125,200.4398046875,161.1389767578125,202.5108046875,166.3579767578125C202.8418046875,167.1309767578125,202.1238046875,175.5259767578125,202.5108046875,177.4039767578125C203.1058046875,182.6509767578125,205.8568046875,187.4129767578125,210.1048046875,190.5489767578125C211.8998046875,191.9029767578125,212.8668046875,194.6369767578125,215.0478046875,196.29397675781252C218.7488046875,199.3039767578125,225.0728046875,197.3149767578125,227.7238046875,195.4369767578125C230.3748046875,193.5599767578125,230.9548046875,185.32997675781252,229.1048046875,182.26497675781252C225.9288046875,176.9349767578125,221.5658046875,170.0029767578125,218.2518046875,167.8489767578125C215.0538046875,166.2189767578125,212.4538046875,163.6179767578125,210.8228046875,160.4209767578125C210.8958046875,155.4649767578125,212.4758046875,150.6489767578125,215.3518046875,146.6129767578125C216.1528046875,145.3699767578125,217.7818046875,146.1979767578125,218.96980468750002,147.3029767578125C221.2618046875,149.3739767578125,220.8198046875,156.9409767578125,220.65380468749998,157.8799767578125C220.4888046875,158.8189767578125,222.7528046875,160.6409767578125,224.2718046875,162.7129767578125C226.4438046875,166.0139767578125,229.0548046875,169.0059767578125,232.0318046875,171.6049767578125C237.2518046875,175.1119767578125,239.1288046875,168.6219767578125,239.4058046875,162.5749767578125C239.5988046875,158.4319767578125,240.1238046875,155.09097675781248,239.4058046875,153.79297675781248C237.3898046875,150.4509767578125,234.37980468749998,148.0209767578125,232.3078046875,144.4859767578125C230.6508046875,141.7249767578125,237.0858046875,139.8189767578125,249.3748046875,152.7709767578125C253.9318046875,157.5479767578125,262.6578046875,168.0979767578125,262.9898046875,171.07997675781252C263.5138046875,175.69197675781248,265.0878046875,184.5289767578125,271.7988046875,184.41897675781252C278.5098046875,184.3079767578125,270.3078046875,172.6539767578125,268.8718046875,170.6109767578125C262.0778046875,161.5529767578125,255.2568046875,150.5059767578125,246.77880468749998,143.1609767578125C241.9188046875,138.9079767578125,241.0898046875,137.1679767578125,235.8978046875,134.62697675781249C232.7098046875,133.3639767578125,229.1888046875,133.2079767578125,225.9008046875,134.1849767578125C224.3718046875,135.0849767578125,222.9128046875,136.1009767578125,221.5378046875,137.2229767578125C218.7768046875,138.85297675781248,217.9478046875,138.9349767578125,212.1758046875,139.0179767578125C211.3478046875,139.0179767578125,208.9448046875,142.4979767578125,207.7848046875,143.5749767578125C206.6258046875,144.6519767578125,205.0238046875,151.2239767578125,203.7808046875,154.4829767578125C203.0078046875,154.7589767578125,201.0198046875,152.2739767578125,198.2578046875,150.4509767578125C192.7068046875,147.93097675781252,187.9368146875,143.9629767578125,184.4498146875,138.9629767578125C184.1268046875,137.6529767578125,183.7308046875,136.3619767578125,183.2628046875,135.0969767578125C182.3238046875,134.10297675781248,180.5008046875,131.3129767578125,179.1748046875,132.5009767578125L179.3688046875,132.5559767578125ZM212.0658046875,174.2839767578125C213.1978046875,174.2839767578125,215.2968046875,177.0449767578125,215.8218046875,177.7079767578125C217.4228046875,179.4199767578125,218.8038046875,183.3689767578125,217.0368046875,185.0539767578125C216.0428046875,185.9929767578125,211.5138046875,183.9769767578125,211.5138046875,181.9889767578125C211.3948046875,180.55597675781252,211.0308046875,179.1549767578125,210.4368046875,177.84597675781248C210.7658046875,176.5819767578125,211.2978046875,175.3789767578125,212.0108046875,174.2839767578125L212.0658046875,174.2839767578125ZM229.76780468750002,153.7649767578125C230.5128046875,152.8539767578125,231.61780468749998,155.8639767578125,231.7008046875,156.5269767578125C231.7838046875,157.1889767578125,231.7008046875,161.0279767578125,230.3198046875,159.2879767578125C228.9388046875,157.5479767578125,227.0338046875,156.2229767578125,229.76780468750002,153.7649767578125ZM232.0318046875,112.6729967578125C232.0318046875,112.1200067578125,231.5898046875,110.6569967578125,232.44580468750002,110.1039967578125C236.3398046875,107.7020037578125,247.46880468749998,106.7350007578125,248.60180468750002,107.7020037578125C254.5388046875,113.4739967578125,253.7378046875,115.9869967578125,250.3418046875,120.5709767578125C250.1478046875,120.8469767578125,248.2698046875,133.3569767578125,247.3588046875,133.3289767578125C243.8238046875,131.4789767578125,244.5968046875,128.8559767578125,245.5358046875,121.8409767578125C245.5318046875,118.9569767578125,243.7208046875,116.3840067578125,241.0068046875,115.4069967578125C238.1078046875,114.4680067578125,234.2138046875,114.9100067578125,232.0318046875,112.6729967578125Z" fill-rule="evenodd" fill="#B32A2A" fill-opacity="1"/></g><g transform="matrix(1.0003299713134766,0,0,1,-0.10996068455278873,0)"><path d="M342.1315640625,62.411802734375C339.7845440625,63.129902734375,334.1505430625,56.888702734375,334.4825440625,61.638602734375C334.4825440625,62.881302734375,334.8135640625,70.889902734375,336.4985640625,72.04980273437499C337.4645740625,72.684902734375,342.0215440625,77.57290273437499,344.1205640625,74.507602734375C346.2195640625,71.442202734375,353.0125640625,61.666202734375,355.1665640625,62.577502734375C356.6575640625,63.185102734375,354.3935640625,64.455402734375,353.67556406250003,66.499002734375C352.8965640625,69.099302734375,351.8025640625,71.594102734375,350.4165640625,73.927702734375C349.2845640625,75.557002734375,348.3455640625,76.689202734375,347.6555640625,77.545302734375C347.1055640625,78.750502734375,347.0085640625,80.11280273437501,347.3785640625,81.383902734375C347.6555640625,84.145502734375,353.5095640625,81.383902734375,352.9025640625,83.84170273437499C352.2945640625,86.299602734375,345.7495640625,86.603302734375,347.0475640625,90.994302734375C347.5725640625,92.761702734375,353.4265640625,93.175902734375,354.9455640625,93.976802734375C357.5135640625,95.357602734375,353.7855640625,99.279002734375,350.1405640625,99.058102734375C348.2625640625,99.058102734375,340.5025640625,108.613002734375,343.6505640625,109.359002734375C351.2455640625,111.12600273437499,353.2055640625,108.44700273437499,356.5195640625,107.067002734375C358.5085640625,106.26600273437501,358.6185640625,111.071002734375,357.5695640625,111.458002734375C351.0515640625,113.805002734375,341.4135440625,116.732002734375,337.9345740625,120.985002734375C336.1145640625,123.565002734375,334.5955540625,126.345002734375,333.4055480625,129.270002734375C332.3285520625,131.479002734375,336.8025540625,138.93500273437502,341.1105640625,142.166002734375C346.6335640625,143.741002734375,351.3555640625,143.16100273437502,356.05056406250003,136.864002734375C360.5355640625,131.494002734375,364.0805640625,125.407002734375,366.5445640625,118.859002734375C371.6255640625,116.705002734375,392.3375640625,117.478002734375,392.7515640625,120.516002734375C392.7515640625,121.316002734375,392.7515640625,122.338002734375,393.0275640625,122.808002734375C394.0195640625,124.220002734375,395.6125640625,125.088002734375,397.3355640625,125.155002734375C402.1965640625,125.155002734375,408.1615640625,120.378002734375,407.6915640625,118.444002734375C406.5045640625,116.125002734375,404.01956406249997,115.904002734375,397.0045640625,115.324002734375C391.1945640625,113.786002734375,385.2895640625,112.623002734375,379.3305640625,111.844002734375C375.3265640625,111.623002734375,381.1805640625,104.940002734375,383.9695640625,102.841002734375C384.6875640625,102.289002734375,384.4395640625,100.908002734375,383.3345640625,99.941802734375C382.7825640625,99.444702734375,381.9815640625,99.168502734375,381.5395640625,98.781902734375C377.7835640625,95.495602734375,373.7245640625,96.572702734375,374.1665640625,100.52200273437501C374.2735640625,102.444002734375,374.2735640625,104.371002734375,374.1665640625,106.293002734375C374.2245640625,107.39100273437501,374.0665640625,108.48900273437499,373.6965640625,109.524002734375C372.6365640625,111.62000273437499,370.0765640625,112.458002734375,367.9805640625,111.39700273437501C367.4865640625,111.146002734375,367.0445640625,110.801002734375,366.6825640625,110.381002734375C365.4395640625,108.862002734375,365.7715640625,105.907002734375,365.7715640625,102.317002734375C365.7715640625,98.72670273437501,378.3915640625,90.635202734375,366.8205640625,78.070002734375C365.9645640625,76.634002734375,365.7985640625,75.695102734375,365.1915640625,75.529402734375C363.2855640625,74.894202734375,362.7605640625,78.843302734375,365.4675640625,82.70950273437501C366.8755640625,84.725402734375,366.9035640625,90.44190273437499,364.1965640625,88.757402734375C361.49056406249997,87.072802734375,364.6945640625,85.167302734375,364.1965640625,83.234202734375C363.8935640625,82.29520273437501,361.4355640625,80.748802734375,360.9385640625,79.257502734375C360.4415640625,77.766302734375,362.1255640625,74.341902734375,361.6565640625,71.718402734375C361.0765640625,68.514902734375,357.8175640625,71.000402734375,356.1335640625,71.138502734375C356.6105640625,69.532902734375,357.4975640625,68.077502734375,358.7015640625,66.913202734375C361.3085640625,64.123202734375,364.0755640625,61.486202734375,366.9865640625,59.015102734375C375.0225640625,56.667702734375,370.1895640625,48.769602734375,367.7315640625,47.747802734375C364.4955640625,48.338203734375,361.3115640625,49.178302734375,358.2045640625,50.260902734375C356.6385640625,51.877802734375,354.9295640625,53.347502734375,353.0955640625,54.651802734374996C348.8705640625,58.324702734375,343.7335640625,62.052802734375,341.8285540625,62.384202734375L342.1315640625,62.411802734375ZM355.9395640625,121.344002734375C356.7875640625,124.878002734375,355.3845640625,128.570002734375,352.4055640625,130.651002734375C349.5605640625,133.07100273437499,346.2935640625,134.944002734375,342.7675440625,136.174002734375C341.8285540625,136.450002734375,341.1375740625,134.931002734375,340.4745440625,132.805002734375C339.4255640625,129.29700273437498,346.3015640625,123.857002734375,349.0355640625,122.891002734375C351.1595640625,121.825002734375,353.5095640625,121.294002734375,355.8845640625,121.344002734375L355.9395640625,121.344002734375Z" fill-rule="evenodd" fill="#B32A2A" fill-opacity="1"/></g><g transform="matrix(1.0003299713134766,0,0,1,-0.15687686949968338,0)"><path d="M499.81078125,65.86383056640625C497.21478125,66.11242656640626,495.06078125,71.38703056640625,494.06678125,73.87243056640625C493.07178125,76.35783056640625,490.72478125,76.99303056640625,488.68178125,80.16883056640626C486.31978125,84.66113056640626,484.75976125,89.52953056640625,484.06976125,94.55673056640626C483.39877125,96.55333056640625,482.52878125,98.47763056640625,481.47375125,100.30103056640624C479.66177125,102.59503056640625,477.63776125,104.71303056640625,475.42578125,106.62503056640625C475.83978225,112.14803056640625,477.10977125,114.60603056640625,479.26477125,115.24103056640625C480.23077125,115.51703056640625,482.02576125,114.46803056640624,484.42877125,111.92703056640624C486.33378125,109.96603056640626,488.79178125,108.66803056640626,489.95178125,106.07303056640626C491.03378125,103.25503056640625,491.95678125,100.37803056640625,492.71278125,97.45643056640625C494.12178125,93.81113056640625,502.79278125,89.91723056640625,507.87478125,91.93323056640625C509.31078125,92.51313056640625,508.61978125,96.02033056640624,506.24478125,98.56103056640626C502.07478125,103.00703056640626,496.35878125,103.53203056640625,495.39178125,105.99003056640625C494.42578125,108.44703056640626,491.93978125,111.20903056640626,491.74678125,113.17003056640624C491.27678125,117.67103056640624,499.56178125,113.17003056640624,501.10878125,113.17003056640624C502.73778125,114.88203056640626,501.79878125,117.47803056640625,505.80278125,118.27903056640625C506.13478125,118.27903056640625,506.99078125,116.26303056640626,509.00678125,114.66103056640625C511.10278125,113.70303056640626,512.67678125,111.87803056640625,513.31478125,109.66303056640625C513.64578125,106.40403056640625,511.87878125,103.58703056640624,512.67978125,102.59303056640624C516.74978125,98.48453056640625,521.65778125,95.30073056640626,527.06778125,93.25883056640625C529.82878125,92.09893056640625,532.09378125,91.15993056640625,534.55078125,89.94483056640625C536.59478125,88.95073056640625,539.63278125,89.69633056640625,543.30578125,89.72393056640625C546.97878125,89.75153056640625,547.41978125,91.10473056640625,550.59578125,93.42443056640624C553.08178125,95.21953056640625,554.10278125,93.86633056640625,555.45678125,91.85033056640626C556.21278125,90.94373056640624,557.15478125,90.20943056640625,558.21778125,89.69633056640625C560.48278125,88.37073056640625,563.35478125,89.19923056640624,565.23278125,88.64693056640625C566.22678125,88.37073056640625,566.64078125,86.93473056640624,566.6687812499999,85.41583056640624C566.62678125,83.09003056640626,565.49178125,80.92003056640625,563.60278125,79.56133056640626C562.96778125,79.31273056640624,561.36578125,80.00313056640626,559.29478125,80.03083056640625C551.01078125,80.03083056640625,535.04878125,81.90863056640625,531.2647812499999,85.55393056640625C527.80778125,87.39293056640625,524.07978125,88.67013056640624,520.21878125,89.33733056640625C519.47278125,89.14403056640626,520.79878125,87.01763056640625,522.51078125,86.29963056640625C523.53278125,85.88533056640625,524.83078125,85.77483056640625,525.02378125,85.60923056640625C525.93478125,84.94643056640625,532.61778125,82.46103056640625,529.93978125,79.53373056640625C527.26078125,76.60643056640625,527.81278125,74.56283056640625,526.07278125,71.41463056640625C524.33378125,68.26643056640626,520.54978125,75.91603056640625,518.11978125,78.12533056640625C516.68378125,79.45083056640625,507.07378125,81.16303056640625,505.38878125,81.27353056640625C504.14578125,81.27353056640625,498.37478125,85.19493056640624,497.32478125,84.80833056640626C496.68978125,84.58743056640625,496.10978125,83.12373056640625,496.99378125,79.72703056640626C497.95178125,77.70273056640625,499.21978125,75.83953056640625,500.74978125,74.20383056640625C501.90978125,69.92333056640625,502.26878125,66.91323056640626,499.86578125,66.08473156640625L499.81078125,65.86383056640625ZM566.08878125,93.09303056640624C566.48578125,95.69283056640626,565.62478125,98.32683056640624,563.76878125,100.19003056640625C561.2307812500001,101.57303056640626,558.81178125,103.16103056640625,556.53378125,104.94003056640625C553.77178125,109.30403056640625,551.01078125,120.35003056640625,549.54678125,124.52003056640625C547.75178125,129.27003056640626,547.19878125,132.30803056640625,546.42578125,134.29603056640624C545.65278125,136.28403056640624,535.51778125,139.29403056640626,533.6397812499999,138.68703056640624C529.02778125,137.22303056640624,529.11078125,134.51703056640625,531.04378125,134.32403056640624C534.59578125,133.81003056640625,537.63278125,131.50403056640624,539.07978125,128.22003056640625L544.18878125,113.66703056640625C545.76378125,109.16503056640624,550.45778125,108.14403056640626,545.87378125,106.21103056640625C541.28978125,104.27703056640625,535.84878125,107.92303056640625,532.06578125,108.97203056640625C529.30378125,108.97203056640625,527.89578125,105.49303056640625,527.01178125,103.72503056640625C525.29978125,100.35603056640625,529.55278125,92.29223056640625,533.66778125,93.89393056640625C537.42078125,95.35453056640625,541.38378125,96.20293056640625,545.40378125,96.40703056640625C551.75578125,96.76603056640624,557.25178125,92.59603056640626,563.29978125,92.51313056640625C564.20778125,92.62083056640626,565.1057812500001,92.81503056640625,565.97778125,93.09303056640624L566.08878125,93.09303056640624Z" fill-rule="evenodd" fill="#B32A2A" fill-opacity="1"/></g><g transform="matrix(1.0003299713134766,0,0,1,-0.2085135132074356,0)"><path d="M682.4584625,130.78897108203125C684.4463625,132.99797408203125,681.2984625,140.12297408203125,679.0334625,143.38198408203124C677.2384625,146.00498408203126,677.5154625,147.49598408203124,674.8634625,150.14698408203125C673.8444625,151.02798408203125,672.4364625,151.30098408203125,671.1634625,150.86498408203124C670.5474625,150.20298408203126,670.1944625,149.33898408203126,670.1694625,148.43498408203124C670.7214625,147.02698408203125,673.4004625,143.60198408203124,672.2953625,142.46998408203126C670.7494625,140.92398408203124,674.3664625,135.92497408203124,675.0574625,134.76496408203124C675.7474625,133.60597408203125,677.4874625,132.74896408203125,678.5094625,131.39596508203124C679.5144625,130.34696958203125,681.0964625,130.09896808203126,682.3754625,130.78897108203125L682.4584625,130.78897108203125ZM693.5044625,132.05897408203126C691.6544625,132.05897408203126,689.8314625,133.13597408203125,687.1523625,135.81497408203126C686.5734625,136.36697408203125,686.9044625,137.91397408203125,686.2964625,139.21197408203125C684.9434625,142.11098408203125,684.4744625,146.05998408203124,686.1584625,146.63998408203125C690.9364625,148.26998408203124,693.3664625,145.28698408203124,699.0834625,150.72698408203127C700.5744625,152.10798408203124,693.3943624999999,155.09098408203124,691.4333625,155.09098408203124C687.4844625,155.09098408203124,689.8594625,158.81898408203125,692.6204625,158.26598408203125C695.3654625,157.90298408203125,698.1443624999999,157.81898408203125,700.9054625,158.01798408203126C703.2524625,158.01798408203126,704.2194625,156.05698408203125,706.5944625,157.27198408203125C712.8083625,160.50298408203125,725.0973625,157.27198408203125,723.7994625,152.96398408203126L722.5284625,148.87698408203124C722.2804625,148.02098408203125,716.7014625,145.59098408203124,714.6304625,144.54098408203126C712.5594625,143.49198408203125,709.8534625,145.31498408203126,707.5054625,144.54098408203126C705.1584625,143.76798408203126,703.6944625,142.00098408203124,701.4574625,141.77998408203126C697.0394625,141.11698408203125,693.1734625,138.49397408203126,693.1734625,136.64297408203126C693.1734625,134.79296408203126,693.8914625,132.22497408203125,693.4214625,132.03097408203126L693.5044625,132.05897408203126ZM652.4954625,144.89998408203124C651.5564625,143.27098408203125,650.6174625,141.30998408203124,649.9543625,140.48198408203126C649.2914625,139.65297408203125,647.8004625,140.48198408203126,645.4254625,140.23297408203126C642.1664625,139.81897408203125,640.7304125,146.72298408203125,642.4153625,148.51798408203126C644.0994625,150.31298408203125,645.0114625,152.54998408203124,646.5854625,154.04098408203126C648.1594625,155.53298408203125,650.3964625,152.88098408203126,651.6944625,153.70998408203124L659.0124625,158.32198408203124C661.7734625,160.06198408203124,675.0574625,163.18198408203125,672.8204625,163.84498408203126C670.3014625,164.41098408203123,667.8354625,165.18698408203124,665.4463625,166.16498408203125C663.3124625,166.79598408203125,661.1004625,167.12098408203124,658.8744625,167.13098408203126C654.5934625,167.73898408203127,653.1304625,175.41598408203126,651.5834625,176.65898408203125C648.1594625,179.41998408203125,643.8234625,175.24998408203123,640.3994125,175.49898408203126C639.0464525,176.93498408203124,639.6264625,178.56398408203125,640.3994125,180.33198408203125C641.8934325,182.20998408203124,643.5084625,183.98998408203124,645.2324625,185.66098408203123C647.7173625,188.14698408203125,646.1714625,189.63798408203127,642.6364625,189.63798408203127C640.8684125,189.63798408203127,637.5544425,186.43498408203124,636.1744425,185.05398408203126C633.6334225,182.51298408203127,630.9544065,192.97998408203125,632.2524415,194.24998408203123C635.6774325,197.70198408203123,639.6534425,196.76298408203127,643.4644625,197.01198408203123C651.9153625,197.81198408203124,651.9424625,196.76298408203127,654.2074625,194.47098408203124C655.1044625,193.52598408203124,655.7844625,192.39398408203124,656.1954625,191.15698408203124C656.9413625,189.52798408203125,660.6694625,192.09598408203124,662.4364625,191.81998408203125C664.6734625,191.46098408203125,668.4844625,189.52798408203125,666.8824625,187.95398408203124C665.2814625,186.37898408203125,662.0774625,185.19198408203124,660.2554625,182.09898408203125C659.4264625,180.60798408203124,659.0954625,174.39398408203124,661.8564625,171.74298408203126C667.8774625,165.99898408203126,677.9014625,170.72098408203124,684.4184625,168.98098408203126C685.9434625,168.69298408203124,687.4454625,168.30498408203124,688.9203625,167.82198408203124C689.6664625,167.48998408203124,697.5914625,169.00898408203125,693.8914625,164.34198408203125C691.8224625,162.66998408203125,689.6244625,161.16498408203125,687.3184625,159.84098408203124C685.3024625,158.29398408203124,682.9554625,159.17798408203126,681.9614625,158.29398408203124C680.9784625,157.41798408203124,679.9034625,156.64998408203124,678.7574625,156.00198408203124C676.8524625,155.42198408203126,674.1183625,155.17298408203123,672.0744625,154.37298408203125C664.5904625000001,151.44498408203125,657.9354625,150.83798408203126,652.4954625,144.89998408203124Z" fill-rule="evenodd" fill="#B32A2A" fill-opacity="1"/></g><g transform="matrix(1.0003299713134766,0,0,1,-0.23426352068781853,0)"><path d="M747.574571875,239.95396379296875C749.259471875,239.06997679296876,751.109471875,240.67196679296876,753.429471875,240.94796279296875C757.958471875,241.50097279296875,760.084471875,245.11796279296874,758.952471875,247.87997279296874C757.936571875,249.68297279296874,756.618471875,251.29801279296876,755.058471875,252.65701279296874C752.103471875,255.41901279296874,755.279471875,259.31291279296875,751.827471875,262.65391279296875C750.930471875,263.65601279296874,749.803471875,264.42301279296873,748.541471875,264.8909127929687C746.315471875,265.46391279296876,743.959471875,265.26991279296874,741.858471875,264.33891279296876C739.237471875,263.28101279296874,737.732471875,260.51401279296874,738.268471875,257.73901279296877C738.461471875,256.3859127929687,740.146471875,257.54591279296875,742.134471875,257.51801279296876C744.614471875,257.7170127929688,746.818471875,255.94901279296874,747.160571875,253.48591279296875C747.588471875,251.78001279296876,747.511471875,249.98501279296875,746.939471875,248.32197279296875C745.945471875,244.97996279296876,744.951471875,243.29597279296874,747.574571875,240.03697179296876L747.574571875,239.95396379296875ZM733.573471875,252.60201279296876C735.313471875,254.50801279296874,735.230471875,256.63401279296875,734.043471875,260.88701279296873C733.391471875,263.47501279296876,732.319471875,265.93901279296875,730.867471875,268.17801279296873C726.448471875,274.55701279296875,722.913471875,273.1760127929688,719.655521875,276.04801279296873C715.899471875,279.36201279296876,711.619501875,281.57101279296876,710.376525875,280.4670127929688C709.133483875,279.36201279296876,710.680480875,276.0759127929688,714.159481875,272.34791279296877C715.360471875,270.77501279296877,716.661501875,269.28001279296876,718.053461875,267.8739127929687C720.815471875,265.3060127929688,725.703471875,261.41191279296874,727.967471875,259.03691279296874C730.729471875,256.05391279296873,731.391471875,253.34801279296875,733.490471875,252.71301279296875L733.573471875,252.60201279296876ZM804.132471875,245.44996279296876C802.392471875,250.06201279296874,804.850571875,257.7940127929688,803.745471875,259.0920127929688C800.983471875,262.40601279296874,798.222471875,260.4450127929687,794.466471875,259.0920127929688C792.671471875,258.3739127929687,786.596471875,257.7940127929688,789.688471875,255.22601279296876C791.263471875,253.92801279296876,792.947471875,252.76801279296876,794.411471875,251.33201279296875C795.874471875,249.89601279296875,795.101471875,248.56997279296874,795.598471875,247.27197279296874C796.482471875,245.11796279296874,798.498471875,245.53297279296876,799.382471875,244.51097279296874C800.265471875,243.48897279296875,803.966471875,243.98596279296876,804.132471875,245.36697279296874L804.132471875,245.44996279296876ZM772.843471875,254.06601279296876C768.093471875,256.3859127929687,767.513471875,258.51201279296873,768.424471875,260.11401279296877C769.336471875,261.71501279296876,773.367471875,262.29501279296875,777.013471875,263.6760127929688C778.280471875,264.27801279296875,779.501571875,264.98001279296875,780.658471875,265.77501279296877C783.282471875,267.21101279296875,786.789471875,266.8800127929687,788.225571875,268.2600127929687C794.935471875,274.50201279296874,790.296471875,272.34791279296877,786.734471875,274.83301279296876C784.331471875,276.51801279296876,788.059471875,278.78201279296877,789.992471875,279.03101279296874C795.515471875,279.77601279296874,799.050471875,283.33891279296876,804.159471875,282.70401279296874C807.3354718749999,282.34501279296876,804.297471875,271.35301279296874,801.812471875,266.93501279296873C798.719471875,265.5820127929687,796.454471875,265.11201279296876,794.052471875,264.17301279296873C791.478471875,262.79301279296874,788.741471875,261.74391279296873,785.905471875,261.05301279296873C781.763471875,260.5560127929688,776.626571875,254.06601279296876,772.843471875,254.06601279296876ZM766.988571875,270.6350127929687C770.109471875,270.6350127929687,774.583471875,273.06601279296876,773.865471875,275.3850127929687C773.616471875,276.13101279296876,772.594471875,276.65601279296874,770.965471875,277.29091279296875C769.065471875,278.1520127929688,767.220471875,279.1300127929687,765.442471875,280.2179127929687C762.984471875,281.62701279296874,769.971471875,284.94001279296873,771.324571875,287.4260127929688C773.423571875,291.3200127929687,766.905471875,294.3850127929687,764.006471875,294.24701279296875C761.244471875,293.33601279296875,759.698471875,291.48491279296877,757.737471875,291.0440127929688C756.058471875,290.90501279296876,754.371471875,290.98001279296875,752.711471875,291.26401279296874C750.419471875,291.26401279296874,747.823471875,289.10991279296877,746.138471875,290.04901279296877C745.917471875,293.1420127929687,747.712571875,297.34001279296876,748.127471875,302.75291279296874C748.541471875,308.16501279296875,748.127471875,313.52301279296876,752.076471875,317.83101279296875C754.147571875,320.20301279296876,757.582471875,320.83301279296876,760.360471875,319.35001279296876C762.487471875,317.9690127929688,765.884471875,315.26301279296877,767.541471875,316.94691279296876C765.801471875,319.2670127929688,766.187471875,320.48201279296876,764.531471875,322.6640127929687C763.481471875,323.9620127929687,762.073471875,325.42491279296877,761.603471875,326.1160127929687C759.974471875,328.87701279296874,760.305471875,333.46101279296875,755.611471875,333.70991279296874C751.106471875,334.13301279296877,746.691471875,332.2550127929687,743.874471875,328.7120127929687C741.250471875,324.51401279296874,740.670471875,317.9690127929688,740.201471875,311.34101279296874C740.284471875,306.1520127929688,739.969471875,300.96301279296875,739.262471875,295.82101279296876C738.572471875,292.42401279296877,737.218471875,289.60801279296874,737.577471875,287.53601279296873C737.936571875,285.46501279296876,739.234471875,282.86891279296873,741.278471875,283.50401279296875C743.321471875,284.1400127929687,748.624471875,285.60301279296874,752.324571875,284.05701279296875C753.843471875,283.39401279296874,750.005471875,282.8970127929688,747.823471875,280.43901279296875C747.574571875,280.16301279296874,746.635471875,272.67891279296873,750.861471875,275.3850127929687C754.122471875,277.10591279296875,757.582471875,278.42301279296873,761.161471875,279.30701279296875C762.625471875,279.83101279296875,761.161471875,277.78801279296874,760.499471875,275.7170127929688C760.289471875,274.60301279296874,760.289471875,273.46101279296875,760.499471875,272.34791279296877C760.402571875,271.6420127929687,760.402571875,270.92701279296875,760.499471875,270.22101279296874C761.548571875,267.23901279296877,764.531471875,270.6350127929687,766.988571875,270.6350127929687Z" fill-rule="evenodd" fill="#B32A2A" fill-opacity="1"/></g><g transform="matrix(1.0003299713134766,0,0,1,-0.020434698089957237,0)"><path d="M84.7738109375,387.1189450195312L91.3740109375,388.03004501953126L87.0107109375,419.23594501953124C73.0238109375,417.06794501953124,63.4419109375,403.97294501953127,65.6089109375,389.9880450195312C67.7759109375,376.00100501953125,80.87111093749999,366.41799501953125,94.8580109375,368.58599501953125C108.4587109375,370.6929950195312,117.9667109375,383.1669450195312,116.3937109375,396.84004501953126C115.24571093750001,406.33404501953123,108.8307109375,414.36204501953125,99.8244109375,417.57904501953124L101.0117109375,409.15704501953127C105.78771093750001,406.46704501953127,109.0057109375,401.67304501953123,109.6837109375,396.2319450195312C111.0367109375,386.62204501953124,103.1107109375,377.09500501953124,93.3623109375,375.7409950195312C83.1936109375,374.23400501953125,73.6625109375,381.06604501953126,71.82191093750001,391.1789450195312C70.6320009375,398.96604501953124,74.61941093749999,406.6300450195313,81.6808109375,410.12294501953124L84.7738109375,387.1189450195312ZM112.3897109375,458.92004501953124L112.3897109375,466.21104501953124L78.3393109375,466.70804501953126C69.0985009375,466.52804501953125,61.7526059375,458.89304501953126,61.9319076575,449.6520450195312C62.1020049375,440.88694501953125,69.0062009375,433.73994501953126,77.7593109375,433.26504501953127L111.8647109375,432.65794501953127L111.8647109375,439.92094501953125L78.2840109375,440.52804501953125C72.0981109375,440.52804501953125,67.7624009375,444.22904501953127,67.8729109375,450.16594501953125C67.9833109375,456.10404501953127,72.4847109375,459.52804501953125,78.6154109375,459.4169450195312L112.3897109375,458.92004501953124ZM67.9557009375,512.3846450195313L81.7636109375,504.87264501953126L79.2782109375,487.1436450195313L63.9790109375,483.6916450195313L62.9020079375,476.09664501953125L114.8747109375,487.91664501953124L115.7867109375,494.40664501953125L69.0603009375,520.0336450195313L67.9557009375,512.3846450195313ZM105.9827109375,492.5836450195312L105.9827109375,492.44564501953124L86.2098109375,488.80064501953126L87.9772109375,501.53164501953125L105.9827109375,492.5836450195312ZM81.8741109375,566.1246450195313L111.6997109375,531.4116450195313L74.7768109375,542.4576450195312L72.7056109375,535.4706450195313L120.48071093749999,521.1656450195312L122.74571093750001,528.7606450195312L93.3347109375,562.7836450195313L129.8157109375,552.0126450195312L131.9137109375,558.9726450195312L84.1386109375,573.3046450195312L81.8741109375,566.1246450195313ZM116.00771093750001,601.2516450195312L121.94471093749999,598.2696450195313L136.0567109375,626.4656450195312C123.0717109375,633.2976450195313,107.00771093750001,628.3096450195312,100.1757109375,615.3246450195313C93.3438109375,602.3406450195313,98.3318109375,586.2756450195312,111.3157109375,579.4436450195312C124.3007109375,572.6116450195312,140.3657109375,577.5986450195312,147.1967109375,590.5836450195312C151.7487109375,599.2366450195312,151.1817109375,609.6856450195312,145.7217109375,617.7936450195313L141.8277109375,610.3096450195312C144.2217109375,605.3776450195312,144.1497109375,599.6066450195312,141.63471093750002,594.7346450195313C137.2987109375,586.0636450195312,125.3687109375,582.6946450195312,116.5597109375,587.0856450195313C107.2057109375,591.5566450195313,103.1437109375,602.6876450195313,107.41871093750001,612.1326450195313C110.8527109375,619.2216450195313,118.4857109375,623.2676450195313,126.2807109375,622.1296450195313L116.00771093750001,601.2516450195312ZM119.65271093749999,646.0446450195312L125.1757109375,642.3166450195313L167.5107109375,639.7206450195313L156.0227109375,622.7926450195313L161.54571093750002,619.0366450195313L177.5907109375,642.7306450195313L172.0677109375,646.4596450195313L129.8427109375,649.2206450195313L142.3807109375,667.7236450195312L136.8577109375,671.4516450195313L119.65271093749999,646.0446450195312ZM161.0767109375,700.6696450195312L177.64571093749998,686.5026450195312L164.2247109375,670.8996450195312L147.6547109375,685.0666450195313L142.9047109375,679.5426450195313L180.7667109375,646.9836450195312L185.5167109375,652.5066450195313L169.1957109375,666.5356450195313L182.53371093750002,682.1116450195312L198.8547109375,668.1096450195312L203.6047109375,673.6336450195313L165.7157109375,706.1926450195313L161.0767109375,700.6696450195312ZM197.1147109375,736.7906450195312C186.39671093750002,727.3596450195312,185.3517109375,711.0276450195313,194.7817109375,700.3096450195312C204.2107109375,689.5926450195312,220.5437109375,688.5456450195313,231.2617109375,697.9766450195312C241.7317109375,707.1866450195312,243.0087109375,723.0406450195312,234.1477109375,733.8086450195312C224.9897109375,744.8376450195312,208.6237109375,746.3566450195312,197.5937109375,737.1966450195313C197.4327109375,737.0636450195312,197.2727109375,736.9286450195312,197.1147109375,736.7906450195312ZM228.2657109375,729.4446450195312C234.7587109375,721.4366450195312,233.5297109375,709.6806450195313,225.5207109375,703.1876450195313C217.5117109375,696.6956450195312,205.7557109375,697.9236450195312,199.2627109375,705.9326450195313C192.8597109375,713.8306450195312,193.9547109375,725.4016450195313,201.7267109375,731.9576450195312C209.6937109375,738.5966450195313,221.5357109375,737.5226450195312,228.1747109375,729.5556450195313C228.2057109375,729.5196450195313,228.2357109375,729.4806450195313,228.2657109375,729.4446450195312ZM281.1497109375,733.8356450195313L287.39171093749997,737.5636450195312L269.8557109375,766.7266450195312C265.1037109375,774.6186450195312,254.8547109375,777.1646450195312,246.9617109375,772.4156450195312C239.0687109375,767.6656450195312,236.5217109375,757.4146450195312,241.2727109375,749.5216450195312L258.8087109375,720.3866450195312L265.1327109375,724.1146450195313L247.7627109375,752.8076450195313C244.5867109375,758.1096450195312,245.3327109375,763.6606450195313,250.5237109375,766.6156450195313C255.7157109375,769.5706450195312,260.8797109375,767.6926450195313,264.0287109375,762.4186450195313L281.1497109375,733.8356450195313ZM320.8617109375,806.0236450195313L320.8617109375,790.3656450195313L304.1267109375,783.9306450195313L293.71571093750003,795.6676450195313L286.53571093749997,792.9056450195312L322.0767109375,753.1666450195312L328.1797109375,755.4866450195312L327.9867109375,808.8126450195313L320.8617109375,806.0236450195313ZM321.9667109375,763.1636450195313L309.0147109375,778.7666450195313L321.0277109375,783.3786450195312L321.9667109375,763.1636450195313ZM386.3117109375,810.1106450195313C379.9927109375,817.2996450195312,370.1837109375,820.3476450195312,360.9047109375,818.0086450195313C347.4507109375,814.4796450195313,339.1237109375,801.0276450195313,341.9607109375,787.4106450195313C344.9067109375,773.4726450195312,358.5957109375,764.5666450195313,372.5337109375,767.5136450195312C381.9947109375,769.5156450195312,389.5427109375,776.6426450195313,392.0827109375,785.9746450195312L383.5497109375,784.0686450195312C381.2547109375,779.0596450195312,376.7677109375,775.4006450195312,371.3987109375,774.1546450195312C361.3967109375,772.0786450195312,351.5757109375,778.3916450195313,349.3057109375,788.3496450195312C347.0137109375,798.5396450195312,352.6747109375,809.2826450195312,362.6717109375,811.5196450195313C367.9217109375,812.7176450195312,373.4337109375,811.4776450195312,377.6677109375,808.1506450195312L386.3117109375,810.1106450195313ZM429.3087109375,826.1006450195313L424.8907109375,811.0216450195312L407.0237109375,809.6966450195313L400.4507109375,823.8906450195312L392.7737109375,823.3116450195312L415.3627109375,775.0106450195312L421.8807109375,775.4806450195313L437.0697109375,826.6246450195313L429.3087109375,826.1006450195313ZM418.0147109375,784.6766450195312L417.8767109375,784.6766450195312L410.0607109375,803.2066450195313L422.9027109375,804.1736450195312L418.0147109375,784.6766450195312ZM451.4017109375,826.5696450195312L447.8667109375,776.8616450195312L465.1267109375,775.6466450195312C478.3497109375,774.5416450195312,489.9647109375,784.3616450195312,491.0717109375,797.5866450195313C491.1057109375,797.9766450195312,491.1277109375,798.3686450195312,491.1407109375,798.7606450195312C492.2457109375,813.9496450195313,483.3257109375,824.3056450195313,467.5847109375,825.4376450195313L451.4017109375,826.5696450195312ZM466.8387109375,818.8096450195312C478.3547109375,817.9816450195312,484.7067109375,810.7736450195313,483.9057109375,799.4786450195313C483.7147109375,789.8106450195312,475.7227109375,782.1276450195312,466.0547109375,782.3206450195312C465.5607109375,782.3296450195312,465.0667109375,782.3596450195312,464.5747109375,782.4116450195313L455.5717109375,783.0746450195313L458.1677109375,819.4726450195312L466.8387109375,818.8096450195312ZM506.9927109375,821.1846450195312L497.1057109375,772.3326450195312L523.4237109375,767.0026450195312L524.7497109375,773.5196450195313L505.5567109375,777.4136450195313L508.4837109375,791.8016450195312L527.6767109375,787.9076450195312L529.0027109375001,794.4526450195312L509.8097109375,798.3466450195313L512.8197109375001,813.1766450195312L532.0127109375001,809.2826450195312L533.3377109375,815.8276450195312L506.9927109375,821.1846450195312ZM595.0867109375,795.6396450195313L580.4507109375,756.2046450195312L580.2577109375,756.2046450195312L579.2077109375,801.4946450195313L575.0937109375,803.0136450195312L544.7157109375,769.4326450195313L559.3527109375,808.8956450195312L552.5307109375,811.4086450195313L535.1887109375,764.7106450195313L545.9307109375,760.7336450195312L573.2157109375,791.3316450195313L574.0167109375,750.3226450195313L584.7587109375,746.3186450195312L602.0467109375,793.0716450195313L595.0867109375,795.6396450195313ZM630.7397109375,777.5516450195312L621.8197109375,761.8936450195313L592.5187109375,741.8996450195312L599.5887109375,737.8396450195312L620.7697109375,752.7246450195312L618.6437109375,726.9596450195313L625.6577109375,722.9556450195312L628.1437109375,758.2756450195312L637.0637109375,773.9336450195312L630.7397109375,777.5516450195312ZM694.4767109375,733.8906450195312C683.6407109375,743.2336450195312,667.2837109375,742.0206450195312,657.9407109375,731.1846450195312C648.5987109375,720.3486450195312,649.8107109375,703.9916450195312,660.6477109375,694.6486450195313C671.4837109375,685.3066450195313,687.8407109375,686.5186450195313,697.1827109375,697.3556450195313C706.5257109375,708.1916450195313,705.3127109375,724.5486450195312,694.4767109375,733.8906450195312ZM691.9637109375,701.9116450195313C685.0237109375,694.2676450195313,673.1987109375,693.6986450195312,665.5547109375,700.6386450195312C657.9107109375,707.5816450195313,657.3387109375,719.4036450195313,664.2817109375,727.0476450195313C671.1167109375,734.5756450195313,682.7147109375,735.2606450195312,690.3897109375,728.5886450195312C698.1937109375,721.7126450195312,698.9477109375,709.8126450195313,692.0717109375,702.0056450195312C692.0357109375,701.9666450195313,691.9997109375,701.9256450195312,691.9637109375,701.8846450195313L691.9637109375,701.9116450195313ZM723.6387109375,704.6736450195312L686.1367109375,671.7826450195312L702.7057109375,652.8386450195312L707.7327109375,657.2296450195313L695.9407109375,670.7886450195313L707.2077109375,680.6756450195312L719.0267109375,667.1716450195313L724.0537109375,671.5896450195312L712.2057109375,685.0666450195313L728.4437109375,699.2886450195313L723.6387109375,704.6736450195312ZM755.5357109375,665.6246450195313L714.1117109375,638.0086450195313L728.0577109375,617.0756450195313L733.5807109375,620.7766450195313L723.6667109375,635.6616450195313L736.0937109375,643.9466450195313L746.0077109375,629.0886450195312L751.5307109375,632.7616450195312L741.5897109375,647.6466450195312L759.4847109375,659.5766450195313L755.5357109375,665.6246450195313ZM772.7947109375,638.8376450195312L729.6317109375,613.7066450195313L733.3047109375,607.4106450195312L776.4677109375,632.5406450195312L772.7947109375,638.8376450195312ZM796.5447109375,592.2496450195313L751.1717109375,598.6006450195313L751.1717109375,598.7386450195313L786.1887109375,614.8666450195312L783.1507109375,621.4666450195313L737.8607109375,600.5896450195312L741.1747109375,593.3816450195312L785.8027109375,587.2236450195312L751.3377109375,571.3166450195313L754.3757109375,564.7166450195313L799.6657109375,585.5936450195312L796.5447109375,592.2496450195313ZM805.0227109375,570.1566450195312L757.4407109375,555.2716450195312L765.4497109375,529.6166450195312L771.8287109375,531.6046450195313L765.9737109375,550.3286450195312L780.0027109375,554.6916450195313L785.8297109375,535.9956450195313L792.2087109375,537.9836450195312L786.3547109375,556.6796450195312L800.8257109375,561.2086450195312L806.6797109375,542.5126450195312L813.0317109375,544.5016450195312L805.0227109375,570.1566450195312ZM824.3537109375,484.18864501953124L809.0277109375,487.5856450195313L806.4037109375,505.3696450195313L820.2117109375,512.9366450195313L819.1347109375,520.5306450195312L772.4637109375,494.70964501953125L773.3747109375,488.24764501953126L825.4307109375,476.5666450195313L824.3537109375,484.18864501953124ZM782.2947109375,492.66664501953124L800.2457109375,501.6966450195313L802.0677109375,488.9656450195313L782.2947109375,492.66664501953124ZM826.3147109375,440.58304501953126L802.8967109375,456.6010450195313L826.0107109375,457.01504501953127L826.0107109375,464.30494501953126L776.0267109375,463.64304501953126L776.3027109375,447.65304501953125C776.5237109375,435.66804501953123,782.9577109375,430.44804501953126,793.2037109375,430.6420450195312C801.0877109375,430.54804501953123,807.5557109375,436.86604501953127,807.6467109375,444.75104501953126C807.6487109375,444.88904501953124,807.6487109375,445.03004501953126,807.6467109375,445.16804501953123L826.5077109375,431.5530450195313L826.3147109375,440.58304501953126ZM801.9847109375,451.4090450195313C802.1237109375,442.90304501953125,798.9197109375,437.93204501953124,792.4297109375,437.82194501953126C786.7137109375,437.82194501953126,783.0687109375,442.23994501953126,782.9307109375,448.7020450195313L782.7917109375,456.3800450195313L801.8747109375,456.73904501953126L801.9847109375,451.4090450195313ZM825.0717109375,414.79004501953125L782.0187109375,418.46304501953125L782.8197109375,427.99104501953127L776.1917109375,428.5700450195312L773.9277109375,402.22504501953125L780.5827109375,401.67304501953123L781.3837109375,411.2000450195313L824.4647109375,407.5270450195313L825.0717109375,414.79004501953125ZM783.2067109375,379.6350450195313C779.5447109375,379.93904501953125,776.8187109375,383.15304501953125,777.1227109375,386.81794501953124C777.1507109375,387.13304501953127,777.1977109375,387.4450450195312,777.2687109375,387.75404501953125C777.9957109375,391.37704501953124,781.4247109375,393.80494501953126,785.0847109375,393.2770450195313C788.5637109375,392.69694501953126,790.1657109375,390.01904501953123,790.8837109375,384.9930450195312C792.4577109375,373.7810050195312,795.7997109375,369.16900501953126,804.3047109375,367.7330020195312C812.1727109375,366.09201501953123,819.8827109375,371.14300501953124,821.5207109375,379.0109450195313C821.6117109375,379.43604501953126,821.6807109375,379.86704501953125,821.7307109375,380.29804501953123C823.3567109375,388.38694501953125,818.1157109375,396.26304501953126,810.0267109375,397.88904501953124C809.6237109375,397.96894501953125,809.2147109375,398.03604501953123,808.8067109375,398.08304501953126L807.5907109375,390.9020450195313C812.8937109375,389.93604501953126,815.8757109375,386.20804501953126,815.1577109375,381.42994501953126C814.5507109375,377.14099501953126,810.5817109375,374.1560050195312,806.2937109375,374.7640050195312C806.0337109375,374.7999850195313,805.7737109375,374.84899501953123,805.5197109375,374.91299501953125C801.9297109375,375.51998501953125,799.9967109375,377.50904501953124,799.0307109375,383.19804501953126C796.9587109375,396.06694501953126,793.5067109375,399.38104501953126,786.4377109375,400.56794501953124C778.9237109375,401.72504501953125,771.8837109375,396.59104501953124,770.6967109375,389.07994501953124C768.9617109375,381.90504501953126,773.3697109375,374.6809950195312,780.5437109375,372.94699501953124C781.0307109375,372.82800501953125,781.5217109375,372.73999501953125,782.0187109375,372.67599501953123L783.2067109375,379.6350450195313Z" fill="#B32A2A" fill-opacity="1"/></g><g transform="matrix(1.0003299713134766,0,0,1,-0.05077304691076279,0)"><path d="M444.16909375,153.82000732421875C604.49609375,153.82000732421875,734.46709375,283.79200732421873,734.46709375,444.11800732421875C734.46709375,604.4450073242188,604.49609375,734.4160073242188,444.16909375,734.4160073242188C283.84309375,734.4160073242188,153.87109375,604.4450073242188,153.87109375,444.11800732421875C153.88708495,283.7970073242187,283.84809375,153.83599852421875,444.16909375,153.82000732421875ZM168.01109375,417.66200732421873L280.02109375,417.66200732421873L280.02109375,377.06700732421876L274.49709375,377.06700732421876L274.49709375,371.54400732421874L268.28409375,371.54400732421874L268.28409375,356.10600732421875L441.96009375,356.10600732421875L441.96009375,295.4900073242187C440.31709375,294.2990073242188,439.95009375,292.00500732421875,441.14009375,290.36100732421875C442.33009375,288.7180073242188,444.62509375,288.35100732421876,446.26809375,289.5380073242187C447.22909375,290.23400732421874,447.79209375,291.3500073242187,447.78709375,292.5350073242188C447.78409375,293.69500732421875,447.24309375,294.7850073242188,446.32309375,295.4900073242187L446.32309375,356.24500732421876L621.40809375,356.24500732421876L621.40809375,371.43300732421875L615.58109375,371.43300732421875L615.58109375,376.9560073242187L610.05809375,376.9560073242187L610.05809375,417.57900732421876L720.52109375,417.57900732421876C705.55909375,265.06100732421874,569.7910937500001,153.55000332421875,417.27109375,168.51100732421875C285.44409375,181.44300732421874,181.13609375,285.75000732421876,168.20409375,417.57900732421876L168.01109375,417.66200732421873ZM720.82509375,424.37300732421875L610.36109375,424.37300732421875L610.36109375,437.62800732421874L721.46009375,437.62800732421874C721.46009375,433.1820073242188,721.15609375,428.76400732421877,720.82509375,424.37300732421875ZM720.82509375,463.75300732421874L709.17109375,463.75300732421874L709.17109375,483.9680073242188L718.64309375,483.9680073242188C719.61009375,477.31200732421877,720.35509375,470.5470073242187,720.82509375,463.75300732421874ZM713.89309375,508.93300732421875L709.17109375,508.93300732421875L709.17109375,526.2200073242187C710.90309375,520.5310073242188,712.47709375,514.7680073242187,713.89309375,508.93300732421875ZM697.79309375,556.4600073242187L697.79309375,550.3840073242188L660.34609375,550.3840073242188L660.34609375,570.8750073242188L691.05509375,570.8750073242188C693.48509375,566.1440073242188,695.77709375,561.3390073242188,697.93109375,556.4600073242187L697.79309375,556.4600073242187ZM683.29509375,584.6550073242188L531.40809375,584.6550073242188L531.40809375,588.7420073242188L355.49509375,588.7420073242188L355.49509375,584.5720073242187L204.90509375,584.5720073242187C282.52009375,716.7140073242188,452.56409375,760.9160073242188,584.70609375,683.2990073242188C625.49209375,659.3450073242187,659.47609375,625.3580073242188,683.43309375,584.5720073242187L683.29509375,584.6550073242188ZM197.25609375,571.1510073242188L229.62209375,571.1510073242188L229.62209375,550.7150073242187L192.00909375,550.7150073242187L192.00909375,560.0500073242188C193.74909375,563.7780073242188,195.54409375,567.5060073242187,197.53209375,571.0960073242188L197.25609375,571.1510073242188ZM179.88509375,529.3410073242187L179.88509375,509.12600732421873L174.36209374999999,509.12600732421873C176.01909375,515.9750073242187,177.89709375,522.7130073242188,180.05109375,529.3410073242187L179.88509375,529.3410073242187ZM169.58509375,484.10600732421875L180.13409375,484.10600732421875L180.13409375,463.9460073242187L167.40309375,463.9460073242187C167.90009375,470.74000732421877,168.59109375,477.50600732421873,169.58509375,484.16100732421876L169.58509375,484.10600732421875ZM166.82309375,437.87700732421877L280.04809375,437.87700732421877L280.04809375,424.62100732421874L167.40309375,424.62100732421874C167.07209375,429.01200732421876,166.87809375,433.43100732421874,166.76809375,437.87700732421877L166.82309375,437.87700732421877ZM537.40009375,589.1840073242188L537.40009375,592.8850073242188L351.46309375,592.8850073242188L351.46309375,589.1840073242188L349.36409375,589.1840073242188L349.36409375,599.2640073242187L539.44409375,599.2640073242187L539.44409375,589.1290073242187L537.40009375,589.1840073242188ZM377.39409375,390.3500073242187L377.39409375,513.3240073242188L418.59709375,513.3240073242188L418.59709375,390.2400073242187L377.39409375,390.3500073242187ZM377.39409375,514.3730073242187L422.57409375,514.3730073242187L422.57409375,389.3840073242187L422.57409375,390.2400073242187L465.98609375,390.2400073242187L465.98609375,389.3840073242187L465.98609375,514.2630073242187L515.08709375,514.2630073242187L515.08709375,389.3840073242187L515.25209375,389.3840073242187L515.25209375,390.2400073242187L553.14109375,390.2400073242187L553.14109375,389.19000732421875L335.39009375,389.19000732421875L335.39009375,390.2400073242187L373.39009375,390.2400073242187L373.39009375,513.2130073242188L335.39009375,513.2130073242188L335.39009375,514.2630073242187L377.33909374999996,514.2630073242187L377.39409375,514.3730073242187ZM469.99009375,390.3500073242187L469.99009375,513.3240073242188L511.19309375,513.3240073242188L511.19309375,390.2400073242187L469.99009375,390.3500073242187ZM422.57409375,513.2130073242188L422.57409375,514.2630073242187L465.98609375,514.2630073242187L465.98609375,513.2130073242188L422.57409375,513.2130073242188ZM515.28009375,513.2130073242188L515.28009375,514.2630073242187L553.16909375,514.2630073242187L553.16909375,513.2130073242188L515.28009375,513.2130073242188ZM298.74409375,386.18000732421876L298.74409375,413.05000732421877L295.81709375,413.05000732421877L295.81709375,417.71700732421874L318.71009375,417.71700732421874L318.71009375,413.05000732421877L315.94909375,413.05000732421877L315.94909375,386.18000732421876L298.74409375,386.18000732421876ZM301.06409375,412.4150073242188L301.06409375,412.8020073242188L313.46309375,412.8020073242188L313.46309375,412.4150073242188L301.67109375,412.4150073242188L301.67109375,389.1630073242187L313.46309375,389.1630073242187L313.46309375,388.74800732421875L301.06409375,388.74800732421875L301.06409375,389.1630073242187L301.25709374999997,389.1630073242187L301.25709374999997,412.4150073242188L301.06409375,412.4150073242188ZM307.99509375,396.50800732421874L307.99509375,409.95700732421875L311.28209375,409.95700732421875L311.28209375,396.5640073242188L307.99509375,396.50800732421874ZM298.74409375,436.82800732421873L298.74409375,463.69800732421874L295.81709375,463.69800732421874L295.81709375,468.36500732421877L318.71009375,468.36500732421877L318.71009375,463.69800732421874L315.94909375,463.69800732421874L315.94909375,436.88300732421874L298.74409375,436.82800732421873ZM301.06409375,463.06300732421874L301.06409375,463.44900732421877L313.46309375,463.44900732421877L313.46309375,463.06300732421874L301.67109375,463.06300732421874L301.67109375,439.81000732421876L313.46309375,439.81000732421876L313.46309375,439.3960073242188L301.06409375,439.3960073242188L301.06409375,439.81000732421876L301.25709374999997,439.81000732421876L301.25709374999997,463.06300732421874L301.06409375,463.06300732421874ZM307.99509375,447.15600732421876L307.99509375,460.63300732421874L311.28209375,460.63300732421874L311.28209375,447.15600732421876L307.99509375,447.15600732421876ZM298.74409375,488.0830073242187L298.74409375,514.9800073242188L295.81709375,514.9800073242188L295.81709375,519.6480073242187L318.71009375,519.6480073242187L318.71009375,515.0360073242188L315.94909375,515.0360073242188L315.94909375,488.13800732421873L298.74409375,488.0830073242187ZM301.06409375,514.3180073242188L301.06409375,514.7320073242188L313.46309375,514.7320073242188L313.46309375,514.3180073242188L301.67109375,514.3180073242188L301.67109375,491.06500732421875L313.46309375,491.06500732421875L313.46309375,490.65100732421877L301.06409375,490.65100732421877L301.06409375,491.06500732421875L301.25709374999997,491.06500732421875L301.25709374999997,514.3180073242188L301.06409375,514.3180073242188ZM307.99509375,498.41100732421876L307.99509375,511.88800732421873L311.28209375,511.88800732421873L311.28209375,498.46600732421877L307.99509375,498.41100732421876ZM298.74409375,538.6750073242188L298.74409375,565.5450073242188L295.81709375,565.5450073242188L295.81709375,570.1850073242188L318.71009375,570.1850073242188L318.71009375,565.5450073242188L315.94909375,565.5450073242188L315.94909375,538.6750073242188L298.74409375,538.6750073242188ZM301.06409375,564.8820073242188L301.06409375,565.2970073242187L313.46309375,565.2970073242187L313.46309375,564.8820073242188L301.67109375,564.8820073242188L301.67109375,541.6570073242187L313.46309375,541.6570073242187L313.46309375,541.2710073242188L301.06409375,541.2710073242188L301.06409375,541.6850073242188L301.25709374999997,541.6850073242188L301.25709374999997,564.9100073242187L301.06409375,564.8820073242188ZM307.99509375,549.0030073242187L307.99509375,562.4520073242188L311.28209375,562.4520073242188L311.28209375,549.0030073242187L307.99509375,549.0030073242187ZM590.1470937500001,538.6750073242188L573.0800937500001,538.6750073242188L573.0800937500001,565.5450073242188L570.1530937499999,565.5450073242188L570.1530937499999,570.1850073242188L593.04609375,570.1850073242188L593.04609375,565.5450073242188L590.11909375,565.5450073242188L590.11909375,538.6750073242188L590.1470937500001,538.6750073242188ZM587.82709375,564.8820073242188L587.6340937499999,564.8820073242188L587.6340937499999,541.6570073242187L587.82709375,541.6570073242187L587.82709375,541.2710073242188L575.4550937500001,541.2710073242188L575.4550937500001,541.6850073242188L587.24709375,541.6850073242188L587.24709375,564.9100073242187L575.4550937500001,564.9100073242187L575.4550937500001,565.3240073242188L587.82709375,565.3240073242188L587.82709375,564.9100073242187L587.82709375,564.8820073242188ZM580.92309375,549.0030073242187L577.6370937500001,549.0030073242187L577.6370937500001,562.4520073242188L580.92309375,562.4520073242188L580.92309375,549.0030073242187ZM590.1470937500001,488.0830073242187L590.1470937500001,514.9800073242188L593.07409375,514.9800073242188L593.07409375,519.6480073242187L570.18009375,519.6480073242187L570.18009375,515.0360073242188L573.1080937500001,515.0360073242188L573.1080937500001,488.13800732421873L580.92309375,488.13800732421873L580.92309375,468.4200073242188L570.18009375,468.4200073242188L570.18009375,463.75300732421874L573.1080937500001,463.75300732421874L573.1080937500001,436.88300732421874L580.92309375,436.88300732421874L580.92309375,417.7730073242187L570.18009375,417.7730073242187L570.18009375,413.10600732421875L573.1080937500001,413.10600732421875L573.1080937500001,386.2350073242187L580.92309375,386.2350073242187L580.92309375,383.08700732421875L560.81909375,383.08700732421875L560.81909375,389.3840073242187L556.8970937500001,389.3840073242187L556.8970937500001,514.5660073242187L568.66109375,514.5660073242187L568.66109375,522.5200073242188L564.71209375,522.5200073242188L564.71209375,527.7110073242188L561.4260937500001,527.7110073242188L561.4260937500001,578.0830073242187L601.11009375,578.0830073242187L601.11009375,377.1770073242187L581.00609375,377.1770073242187L581.00609375,386.2350073242187L590.1470937500001,386.2350073242187L590.1470937500001,413.10600732421875L593.07409375,413.10600732421875L593.07409375,417.7730073242187L581.00609375,417.7730073242187L581.00609375,436.88300732421874L590.1470937500001,436.88300732421874L590.1470937500001,463.75300732421874L593.07409375,463.75300732421874L593.07409375,468.4200073242188L581.00609375,468.4200073242188L581.00609375,488.13800732421873L590.1470937500001,488.0830073242187ZM587.82709375,514.3180073242188L587.6340937499999,514.3180073242188L587.6340937499999,491.06500732421875L587.82709375,491.06500732421875L587.82709375,490.65100732421877L581.00609375,490.65100732421877L581.00609375,490.78900732421874L581.00609375,490.65100732421877L575.4830937500001,490.65100732421877L575.4830937500001,491.06500732421875L587.27509375,491.06500732421875L587.27509375,514.3180073242188L575.4830937500001,514.3180073242188L575.4830937500001,514.7320073242188L587.8550937499999,514.7320073242188L587.8550937499999,514.3180073242188L587.82709375,514.3180073242188ZM580.92309375,498.41100732421876L577.6370937500001,498.41100732421876L577.6370937500001,511.88800732421873L580.92309375,511.88800732421873L580.92309375,498.46600732421877L580.92309375,498.41100732421876ZM587.82709375,463.06300732421874L587.6340937499999,463.06300732421874L587.6340937499999,439.81000732421876L587.82709375,439.81000732421876L587.82709375,439.3960073242188L581.00609375,439.3960073242188L581.00609375,439.81000732421876L587.24709375,439.81000732421876L587.24709375,463.06300732421874L581.00609375,463.06300732421874L581.00609375,463.44900732421877L587.82709375,463.44900732421877L587.82709375,463.06300732421874ZM580.92309375,439.3960073242188L575.40009375,439.3960073242188L575.40009375,439.81000732421876L580.92309375,439.81000732421876L580.92309375,439.3960073242188ZM580.92309375,463.06300732421874L575.40009375,463.06300732421874L575.40009375,463.44900732421877L580.92309375,463.44900732421877L580.92309375,463.06300732421874ZM580.92309375,447.15600732421876L577.6370937500001,447.15600732421876L577.6370937500001,460.63300732421874L580.92309375,460.63300732421874L580.92309375,447.15600732421876ZM587.82709375,412.4150073242188L587.6340937499999,412.4150073242188L587.6340937499999,389.1630073242187L587.82709375,389.1630073242187L587.82709375,388.74800732421875L581.00609375,388.74800732421875L581.00609375,389.1630073242187L587.24709375,389.1630073242187L587.24709375,412.4150073242188L581.00609375,412.4150073242188L581.00609375,412.8020073242188L587.82709375,412.8020073242188L587.82709375,412.4150073242188ZM580.92309375,388.74800732421875L575.40009375,388.74800732421875L575.40009375,389.1630073242187L580.92309375,389.1630073242187L580.92309375,388.74800732421875ZM580.92309375,412.4150073242188L575.40009375,412.4150073242188L575.40009375,412.8020073242188L580.92309375,412.8020073242188L580.92309375,412.4150073242188ZM580.92309375,396.50800732421874L577.6370937500001,396.50800732421874L577.6370937500001,409.95700732421875L580.92309375,409.95700732421875L580.92309375,396.5640073242188L580.92309375,396.50800732421874ZM553.6660937500001,536.9350073242188L553.6660937500001,569.6880073242187L556.64909375,569.6880073242187L556.64909375,527.7940073242187L331.77309375,527.7940073242187L331.77309375,569.7430073242188L334.92109375,569.7430073242188L334.92109375,536.9900073242188L336.74409375,536.7690073242188C337.46709375,534.5570073242188,339.40609374999997,532.9640073242188,341.71409374999996,532.6820073242188L341.71409374999996,530.2520073242188L366.56909375,530.2520073242188L366.56909375,532.6820073242188C368.86409375,532.9860073242187,370.78309375000003,534.5740073242188,371.51209374999996,536.7690073242188L373.25209375,536.9900073242188L373.25209375,569.7430073242188L378.44309375,569.7430073242188L378.44309375,536.9900073242188L380.23909375,536.7690073242188C380.97009375,534.5520073242187,382.92009375,532.9610073242188,385.23709375,532.6820073242188L385.23709375,530.2520073242188L410.09109375,530.2520073242188L410.09109375,532.6820073242188C412.39209375,532.9750073242187,414.31609375,534.5660073242187,415.03409375,536.7690073242188L416.80209375,536.9900073242188L416.80209375,569.7430073242188L422.02109375,569.7430073242188L422.02109375,536.9900073242188L424.06509375,536.7690073242188C424.99009375,534.4770073242187,427.12509375,532.8980073242187,429.58809375,532.6820073242188L429.58809375,530.2520073242188L457.59009375,530.2520073242188L457.59009375,532.6820073242188C460.04609375,532.9140073242188,462.17209375,534.4880073242188,463.11409375,536.7690073242188L465.10209375,536.9900073242188L465.10209375,569.7430073242188L469.10609375,569.7430073242188L469.10609375,536.9900073242188L471.09509375,536.7690073242188C471.97609375,534.4440073242188,474.13509375,532.8450073242187,476.61809375,532.6820073242188L476.61809375,530.2520073242188L503.54309375,530.2520073242188L503.54309375,532.6820073242188C505.95709375,532.9250073242188,508.02809375,534.5050073242187,508.90109375,536.7690073242188L510.80609375,536.9900073242188L510.80609375,569.7430073242188L514.20309375,569.7430073242188L514.20309375,536.9900073242188L516.05309375,536.7690073242188C516.78009375,534.5380073242188,518.74609375,532.9360073242187,521.0790937500001,532.6820073242188L521.0790937500001,530.2520073242188L546.8450937499999,530.2520073242188L546.8450937499999,532.6820073242188C549.14809375,532.9780073242188,551.08109375,534.5660073242187,551.8160937499999,536.7690073242188L553.61109375,536.9900073242188L553.6660937500001,536.9350073242188ZM520.52709375,569.6880073242187L547.86709375,569.6880073242187L547.86709375,542.9280073242187L546.3200937500001,542.5960073242188C546.3200937500001,541.7400073242188,546.3200937500001,540.0830073242187,544.08309375,540.0830073242187L524.33809375,540.0830073242187C522.1560937500001,540.0830073242187,522.10109375,541.5470073242187,522.1560937500001,542.5960073242188L520.52709375,542.9280073242187L520.52709375,569.7430073242188L520.52709375,569.6880073242187ZM475.78909375,569.6880073242187L505.42109375,569.6880073242187L505.42109375,542.9280073242187L503.73709375,542.5960073242188C503.73709375,541.7400073242188,503.87509375,540.0830073242187,501.38909375,540.0830073242187L480.07009375,540.0830073242187C477.72209375,540.0830073242187,477.66709375,541.5470073242187,477.72209375,542.5960073242188L475.95509375,542.9280073242187L475.95509375,569.7430073242188L475.78909375,569.6880073242187ZM428.64909375,569.6880073242187L459.27509375,569.6880073242187L459.27509375,542.9280073242187L457.50809375,542.5960073242188C457.50809375,541.7400073242188,457.50809375,540.0830073242187,455.05009375,540.0830073242187L432.95709375,540.0830073242187C430.49909375,540.0830073242187,430.44409375,541.5470073242187,430.49909375,542.5960073242188L428.67709375,542.9280073242187L428.67709375,569.7430073242188L428.64909375,569.6880073242187ZM384.21509375,569.6880073242187L411.52709375,569.6880073242187L411.52709375,542.9280073242187L409.95309375,542.5960073242188C409.95309375,541.7400073242188,409.95309375,540.0830073242187,407.77209375,540.0830073242187L388.05409375,540.0830073242187C385.87209375,540.0830073242187,385.84509375,541.5470073242187,385.87209375,542.5960073242188L384.27009375,542.9280073242187L384.27009375,569.7430073242188L384.21509375,569.6880073242187ZM340.52709375,569.6880073242187L367.70109375000004,569.6880073242187L367.70109375000004,542.9280073242187L366.15409375,542.5960073242188C366.15409375,541.7400073242188,366.15409375,540.0830073242187,363.97309375,540.0830073242187L344.33809375,540.0830073242187C342.15609374999997,540.0830073242187,342.10109375,541.5470073242187,342.15609374999997,542.5960073242188L340.52709375,542.9280073242187L340.52709375,569.7430073242188L340.52709375,569.6880073242187ZM327.79609375,389.3840073242187L327.79609375,383.08700732421875L307.85709375,383.08700732421875L307.85709375,377.1770073242187L288.88509375,377.1770073242187L288.88509375,578.0830073242187L326.77409375,578.0830073242187L326.77409375,527.7110073242188L324.01309375,527.7110073242188L324.01309375,522.5750073242187L321.25109375,522.5750073242187L321.25109375,514.5660073242187L331.85609375,514.5660073242187L331.85609375,389.3840073242187L327.79609375,389.3840073242187ZM361.81909375,576.4810073242188L361.81909375,580.7340073242187L522.57109375,580.7340073242187L522.57109375,576.4810073242188L361.81909375,576.4810073242188ZM331.69009374999996,578.0000073242188L357.12409375,578.0000073242188L357.12409375,583.5230073242187L529.61309375,583.5230073242187L529.61309375,578.0000073242188L556.5380937499999,578.0000073242188L556.5380937499999,573.5810073242187L331.77309375,573.5810073242187L331.77309375,578.0000073242188L331.69009374999996,578.0000073242188ZM329.31509374999996,522.5470073242187L329.31509374999996,525.1430073242187L560.18309375,525.1430073242187L560.18309375,522.5470073242187L329.31509374999996,522.5470073242187ZM326.25009375,517.6590073242187L326.25009375,519.4820073242188L563.41409375,519.4820073242188L563.41409375,517.6590073242187L326.25009375,517.6590073242187ZM310.95009375,374.9680073242188L577.38809375,374.9680073242188L577.38809375,373.91900732421874L609.75409375,373.91900732421874L609.75409375,371.79200732421873L280.15909375,371.79200732421873L280.15909375,373.91900732421874L311.03309375000003,373.91900732421874L311.03309375000003,374.9680073242188L310.95009375,374.9680073242188ZM577.38809375,376.01800732421873L311.03309375000003,376.01800732421873L311.03309375000003,380.1050073242187L331.44109375,380.1050073242187L331.44109375,385.62800732421874L557.09009375,385.62800732421874L557.09009375,380.1050073242187L577.47109375,380.1050073242187L577.47109375,376.01800732421873L577.38809375,376.01800732421873ZM275.05009375,364.00500732421875L275.05009375,366.4900073242187L615.11109375,366.4900073242187L615.11109375,364.00500732421875L275.05009375,364.00500732421875ZM520.41709375,470.60200732421873L520.41709375,491.06500732421875L551.42909375,491.06500732421875L551.42909375,470.60200732421873L520.41709375,470.60200732421873ZM474.96109375,470.60200732421873L474.96109375,491.06500732421875L506.00109375,491.06500732421875L506.00109375,470.60200732421873L474.96109375,470.60200732421873ZM427.37909375,470.60200732421873L427.37909375,491.06500732421875L460.76609375,491.06500732421875L460.76609375,470.60200732421873L427.37909375,470.60200732421873ZM382.33709375,470.60200732421873L382.33709375,491.06500732421875L413.37809375,491.06500732421875L413.37809375,470.60200732421873L382.33709375,470.60200732421873ZM336.90909375,470.60200732421873L336.90909375,491.06500732421875L367.94909375,491.06500732421875L367.94909375,470.60200732421873L336.90909375,470.60200732421873ZM427.37909375,418.13200732421876L427.37909375,438.5950073242187L460.76609375,438.5950073242187L460.76609375,418.13200732421876L427.37909375,418.13200732421876ZM382.33709375,418.13200732421876L382.33709375,438.5950073242187L413.37809375,438.5950073242187L413.37809375,418.13200732421876L382.33709375,418.13200732421876ZM336.90909375,418.13200732421876L336.90909375,438.5950073242187L367.94909375,438.5950073242187L367.94909375,418.13200732421876L336.90909375,418.13200732421876ZM474.98909375,418.13200732421876L474.98909375,438.5950073242187L506.02909375,438.5950073242187L506.02909375,418.13200732421876L474.98909375,418.13200732421876ZM520.44409375,418.13200732421876L520.44409375,438.5950073242187L551.45709375,438.5950073242187L551.45709375,418.13200732421876L520.44409375,418.13200732421876ZM610.36109375,550.3840073242188L610.36109375,570.8750073242188L647.94709375,570.8750073242188L647.94709375,550.3840073242188L610.36109375,550.3840073242188ZM241.80009375,550.7150073242187L241.80009375,571.1510073242188L279.38509375,571.1510073242188L279.38509375,550.7150073242187L241.80009375,550.7150073242187ZM241.80009375,463.64300732421873L241.80009375,484.10600732421875L279.38509375,484.10600732421875L279.38509375,463.64300732421873L241.80009375,463.64300732421873ZM241.80009375,508.73900732421873L241.80009375,529.2030073242188L279.38509375,529.2030073242188L279.38509375,508.73900732421873L241.80009375,508.73900732421873ZM192.00909375,463.64300732421873L192.00909375,484.10600732421875L229.62209375,484.10600732421875L229.62209375,463.64300732421873L192.00909375,463.64300732421873ZM192.00909375,508.73900732421873L192.00909375,529.2030073242188L229.62209375,529.2030073242188L229.62209375,508.73900732421873L192.00909375,508.73900732421873ZM610.36109375,463.64300732421873L610.36109375,484.10600732421875L647.9740937500001,484.10600732421875L647.9740937500001,463.64300732421873L610.36109375,463.64300732421873ZM610.36109375,508.73900732421873L610.36109375,529.2030073242188L647.9740937500001,529.2030073242188L647.9740937500001,508.73900732421873L610.36109375,508.73900732421873ZM660.26309375,463.64300732421873L660.26309375,484.10600732421875L697.84809375,484.10600732421875L697.84809375,463.64300732421873L660.26309375,463.64300732421873ZM660.26309375,508.73900732421873L660.26309375,529.2030073242188L697.84809375,529.2030073242188L697.84809375,508.73900732421873L660.26309375,508.73900732421873Z" fill-rule="evenodd" fill="#B32A2A" fill-opacity="1"/></g><g transform="matrix(1.0003299713134766,0,0,1,-0.11825443617999554,0)"><path d="M376.0799296875,663.9679952148438L368.0159296875,663.9679952148438L368.0159296875,627.7359652148438L358.3779296875,627.7359652148438L358.3779296875,622.8759152148438L376.0799296875,622.8759152148438L376.0799296875,663.9679952148438ZM431.8369296875,636.9868952148438C431.8369296875,634.4268952148437,430.5879296875,632.0279552148437,428.4949296875,630.5529152148438C426.1999296875,628.7189352148438,423.3389296875,627.7419452148438,420.4039296875,627.7909552148437C417.4539296875,627.6639452148438,414.5439296875,628.5089152148438,412.1189296875,630.1939052148438C408.6339296875,632.8418952148437,407.9549296875,637.8158952148437,410.6059296875,641.3009952148437C411.0389296875,641.8698952148437,411.5469296875,642.3808952148438,412.1189296875,642.8139952148438C414.4749296875,644.5208952148438,417.3329296875,645.3849952148438,420.2379296875,645.2718952148438C423.1899296875,645.3598952148437,426.0949296875,644.4989952148437,428.5229296875,642.8139952148438C430.5829296875,641.5329952148437,431.8589296875,639.3018952148437,431.91992968750003,636.8769952148438L431.8369296875,636.9868952148438ZM419.0779296875,663.9679952148438L410.1029296875,663.9679952148438L422.64092968750003,650.1598952148438C421.9059296875,650.3808952148438,421.1599296875,650.5548952148438,420.4039296875,650.6848952148438C419.7459296875,650.7898952148438,419.0809296875,650.8448952148437,418.4149296875,650.8509952148438C413.9579296875,650.9688952148438,409.5979296875,649.5468952148437,406.0709296875,646.8188952148438C402.9089296875,644.5598952148438,401.0119296875,640.9278952148437,400.9619296875,637.0429952148437C400.9699296875,635.7198952148437,401.2249296875,634.4079952148437,401.7079296875,633.1759952148437C402.2269296875,631.7959552148437,402.9529296875,630.4999352148437,403.8619296875,629.3379552148438C405.6259296875,626.9989652148438,407.9789296875,625.1679652148438,410.6829296875,624.0359452148438C413.7119296875,622.7599492148438,416.9769296875,622.1299438148437,420.2659296875,622.1849365148438C422.7429296875,622.1709595148437,425.2089296875,622.5249632148438,427.5839296875,623.2349252148438C429.7929296875,623.8919652148437,431.8619296875,624.9499552148437,433.68692968749997,626.3549152148438C435.3739296875,627.6119352148437,436.8019296875,629.1889652148437,437.8849296875,630.9949352148437C438.84292968750003,632.5489952148438,439.3679296875,634.3329952148438,439.4029296875,636.1588952148437C439.4029296875,639.6938952148438,436.6419296875,644.4438952148438,431.4219296875,650.3258952148437L431.2289296875,650.5468952148437L419.0779296875,664.0778952148437L419.0779296875,663.9679952148438ZM449.8699296875,651.4298952148438L457.6569296875,651.4298952148438C458.0469296875,653.6919952148437,459.3559296875,655.6938952148438,461.2749296875,656.9538952148438C463.4709296875,658.3899952148438,466.0549296875,659.1098952148437,468.6759296875,659.0249952148438C471.6449296875,659.1269952148438,474.5609296875,658.2318952148438,476.96092968749997,656.4839952148437C479.0679296875,655.0229952148437,480.3079296875,652.6118952148438,480.2749296875,650.0498952148438C480.3079296875,647.5608952148438,479.0819296875,645.2248952148437,477.01592968750003,643.8358952148437C474.4779296875,642.1538952148437,471.4709296875,641.3228952148437,468.4279296875,641.4608952148437C466.5499296875,641.4248952148438,464.6769296875,641.7229952148438,462.9049296875,642.3448952148437C461.4519296875,642.8719952148438,460.16492968750003,643.7779952148437,459.1759296875,644.9679952148438L452.2999296875,643.8639952148437L457.4639296875,622.9029542148437L483.0359296875,622.9029542148437L483.0359296875,628.7029452148438L463.2359296875,628.7029452148438L460.4739296875,638.3678952148438C461.7579296875,637.4818952148438,463.18892968750004,636.8269952148438,464.6999296875,636.4348952148438C466.3949296875,635.9989952148437,468.1399296875,635.7859952148438,469.89092968750003,635.7998952148438C474.5889296875,635.6648952148438,479.19192968749996,637.1248952148437,482.9539296875,639.9419952148437C488.5759296875,643.8778952148438,489.9429296875,651.6269952148438,486.0079296875,657.2489952148437C485.0749296875,658.5858952148437,483.8839296875,659.7238952148438,482.5119296875,660.5988952148438C478.26392968749997,663.5429952148437,473.1779296875,665.0258952148438,468.0129296875,664.8238952148438C463.4289296875,665.0338952148437,458.8969296875,663.7658952148438,455.0889296875,661.2058952148437C451.8999296875,658.9558952148437,449.9329296875,655.3568952148438,449.7589296875,651.4579952148438L449.8699296875,651.4298952148438ZM499.7719296875,651.4298952148438L507.2279296875,651.4298952148438C507.3629296875,653.6258952148437,508.4649296875,655.6499952148438,510.2379296875,656.9538952148438C512.2599296875001,658.4588952148438,514.7339296875,659.2288952148438,517.2529296875,659.1349952148438C519.9779296875,659.2428952148438,522.6619296875,658.4369952148437,524.8749296875001,656.8429952148438C526.7359296875,655.6118952148438,527.8789296875,653.5509952148437,527.9399296875,651.3199952148437C528.0169296875,648.9228952148437,526.8189296875,646.6638952148437,524.7919296875,645.3828952148438C522.1129296875,643.8358952148437,519.0419296875,643.1068952148438,515.9549296875,643.2838952148437L514.0219296875,643.2838952148437L514.0219296875,637.7608952148438L515.6509296875,637.7608952148438C517.8599296875,637.8988952148437,520.0669296875,637.4599952148437,522.0579296875001,636.4898952148437C523.4469296875,635.7108952148437,524.2809296875,634.2149952148437,524.2119296875001,632.6239952148437C524.2259296875,631.2019652148438,523.5459296875,629.8619352148437,522.3889296875,629.0339352148437C521.0829296875,628.0399152148437,519.4729296875,627.5339352148437,517.8319296875,627.5979652148437C516.1199296875,627.5039652148438,514.4249296875,627.9679552148438,512.9999296875001,628.9239452148438C511.8179296875,629.7959552148437,511.0969296875,631.1579552148437,511.0389296875,632.6239952148437L503.7479296875,632.6239952148437C503.8479296875,629.5559652148437,505.3799296875,626.7139252148437,507.89092968750003,624.9469652148438C510.8929296875,622.9579472148438,514.4579296875,621.9889522148437,518.0529296875,622.1849365148438C521.5409296875,622.0779419148438,524.9679296875,623.1269532148438,527.8019296875,625.1679652148438C530.2539296875,626.7529252148438,531.7559296874999,629.4569052148438,531.8059296875,632.3758952148437C531.8499296875,633.9389952148438,531.3949296875,635.4768952148438,530.5079296875,636.7658952148438C529.4529296875,638.1798952148438,528.0559296875,639.3018952148437,526.4489296875,640.0249952148438C529.0889296875,640.7019952148437,531.4639296875,642.1538952148437,533.2699296875,644.1949952148437C534.8549296875,646.1089952148437,535.6969296875,648.5308952148438,535.6449296875,651.0158952148438C535.6419296875,654.9428952148437,533.7249296875,658.6239952148437,530.5079296875,660.8748952148437C526.8489296875,663.6308952148438,522.3559296875001,665.0528952148437,517.7769296875,664.9068952148438C513.1569296875,665.1668952148437,508.5779296875,663.9049952148438,504.7429296875,661.3169952148437C501.56392968750004,659.0108952148438,499.70792968750004,655.3018952148437,499.7719296875,651.3748952148437L499.7719296875,651.4298952148438Z" fill-rule="evenodd" fill="#B32A2A" fill-opacity="1"/></g></g></svg>