<svg xmlns="http://www.w3.org/2000/svg" version="1.1" viewBox="0.00 0.00 999.00 999.00" width="999.00" height="999.00">
<path fill="#41608b" d="&#10;  M 998.68 499.39&#10;  A 499.24 499.24 0.0 0 1 499.44 998.63&#10;  A 499.24 499.24 0.0 0 1 0.20 499.39&#10;  A 499.24 499.24 0.0 0 1 499.44 0.15&#10;  A 499.24 499.24 0.0 0 1 998.68 499.39&#10;  Z&#10;  M 975.88 499.38&#10;  A 476.44 476.44 0.0 0 0 499.44 22.94&#10;  A 476.44 476.44 0.0 0 0 23.00 499.38&#10;  A 476.44 476.44 0.0 0 0 499.44 975.82&#10;  A 476.44 476.44 0.0 0 0 975.88 499.38&#10;  Z"/>
<path fill="#41608b" d="&#10;  M 505.71 57.08&#10;  C 504.29 57.67 502.48 62.05 499.92 59.09&#10;  A 1.77 1.75 -68.7 0 1 499.51 58.14&#10;  L 498.87 52.46&#10;  A 2.14 2.13 -29.3 0 1 499.31 50.90&#10;  L 502.65 46.65&#10;  A 1.25 1.22 70.8 0 0 502.87 46.18&#10;  L 504.30 39.96&#10;  A 0.94 0.92 -2.4 0 1 504.93 39.29&#10;  Q 507.77 38.40 509.13 39.62&#10;  C 510.16 40.55 510.03 42.03 510.83 43.07&#10;  A 1.42 1.38 73.6 0 0 511.75 43.59&#10;  Q 515.17 44.03 517.05 42.05&#10;  A 3.00 2.96 -50.7 0 1 520.90 41.64&#10;  Q 521.53 42.08 522.70 42.66&#10;  A 1.36 1.32 -88.0 0 1 523.36 43.39&#10;  C 525.43 48.71 523.41 51.52 519.09 54.47&#10;  Q 517.26 55.73 515.76 58.27&#10;  A 1.94 1.94 0.0 0 0 515.50 59.24&#10;  L 515.50 61.26&#10;  A 0.65 0.65 0.0 0 0 516.15 61.91&#10;  C 520.87 61.91 521.64 66.56 519.23 69.60&#10;  Q 517.58 71.67 515.30 73.69&#10;  A 0.58 0.58 0.0 0 0 515.58 74.70&#10;  Q 519.03 75.35 519.97 78.98&#10;  A 0.75 0.73 -88.0 0 0 520.43 79.49&#10;  L 527.54 82.05&#10;  Q 527.56 82.06 527.58 82.07&#10;  Q 530.86 83.74 531.89 86.55&#10;  Q 532.71 88.81 531.49 90.24&#10;  A 3.19 2.73 27.5 0 1 528.25 90.99&#10;  Q 524.64 89.80 520.65 87.99&#10;  A 2.02 1.94 -31.3 0 0 519.80 87.80&#10;  L 507.48 87.80&#10;  A 1.39 1.37 -83.4 0 0 506.14 88.87&#10;  L 506.07 89.17&#10;  A 1.12 1.11 7.8 0 0 507.11 90.53&#10;  Q 512.99 90.78 517.65 93.40&#10;  A 4.49 4.47 15.0 0 1 519.93 97.33&#10;  Q 519.80 114.99 519.88 118.23&#10;  Q 520.07 125.71 518.56 129.09&#10;  Q 515.41 136.14 508.88 139.53&#10;  A 1.22 1.22 0.0 0 1 507.09 138.43&#10;  Q 507.16 133.89 503.36 132.50&#10;  A 2.08 2.06 -42.4 0 0 502.12 132.45&#10;  Q 497.95 133.62 493.82 134.98&#10;  C 490.96 135.92 489.37 133.78 488.05 131.61&#10;  A 0.53 0.52 -37.7 0 0 487.23 131.51&#10;  Q 486.18 132.53 485.66 133.71&#10;  A 1.77 1.77 0.0 0 1 482.67 134.11&#10;  L 478.18 128.62&#10;  A 0.90 0.88 24.7 0 1 478.00 128.15&#10;  C 477.75 124.81 476.80 121.52 477.81 118.05&#10;  Q 478.04 117.29 477.28 115.33&#10;  Q 476.64 113.68 477.70 111.90&#10;  A 1.93 1.88 -30.1 0 0 477.98 110.91&#10;  C 477.95 106.38 477.65 103.33 480.11 100.14&#10;  A 1.29 1.27 15.7 0 1 481.02 99.64&#10;  Q 485.41 99.27 487.09 104.01&#10;  Q 488.02 106.64 488.25 108.01&#10;  A 0.37 0.37 0.0 0 0 488.96 108.08&#10;  L 489.56 106.50&#10;  A 1.79 1.78 -0.5 0 1 490.56 105.49&#10;  Q 493.15 104.44 493.34 104.21&#10;  A 0.34 0.34 0.0 0 0 493.06 103.65&#10;  Q 489.00 104.04 487.74 99.63&#10;  A 1.25 1.22 -44.3 0 1 487.76 98.85&#10;  Q 488.34 97.24 489.93 96.75&#10;  A 0.41 0.41 0.0 0 0 490.05 96.02&#10;  L 487.72 94.33&#10;  A 0.82 0.79 59.3 0 0 487.17 94.18&#10;  Q 481.65 94.72 477.76 98.73&#10;  Q 477.33 99.17 472.96 100.69&#10;  Q 472.20 100.95 470.14 102.35&#10;  Q 468.47 103.48 465.16 103.41&#10;  A 2.06 2.04 -27.5 0 1 464.13 103.09&#10;  L 456.34 97.97&#10;  A 0.45 0.12 14.9 0 0 456.27 97.93&#10;  Q 454.50 97.18 454.23 96.66&#10;  A 2.44 1.81 -21.0 0 1 455.99 93.88&#10;  C 459.77 92.71 465.25 93.35 469.67 92.72&#10;  Q 476.04 91.80 479.39 90.76&#10;  A 0.44 0.43 45.1 0 0 479.39 89.93&#10;  C 477.59 89.34 475.47 86.85 474.92 84.90&#10;  Q 474.38 83.00 473.74 82.48&#10;  A 0.43 0.43 0.0 0 1 473.58 82.22&#10;  L 471.24 71.25&#10;  A 0.69 0.66 -43.4 0 1 471.26 70.89&#10;  C 471.71 69.39 471.16 68.28 471.18 66.99&#10;  Q 471.29 59.43 471.62 58.01&#10;  Q 472.18 55.57 472.50 51.82&#10;  Q 472.72 49.21 474.67 49.10&#10;  A 1.33 1.31 -26.1 0 1 475.60 49.41&#10;  Q 477.53 51.09 477.85 51.89&#10;  Q 479.07 54.92 480.79 58.18&#10;  C 481.71 59.93 480.65 62.68 480.24 64.86&#10;  Q 478.77 72.69 479.01 80.79&#10;  A 0.42 0.42 0.0 0 0 479.73 81.06&#10;  L 483.61 76.91&#10;  A 1.08 1.07 39.8 0 0 483.46 75.31&#10;  L 481.51 73.89&#10;  A 1.85 1.84 9.6 0 1 480.81 72.91&#10;  C 479.47 68.53 484.66 68.03 485.32 65.01&#10;  A 1.04 1.04 0.0 0 0 485.14 64.17&#10;  Q 483.28 61.72 482.88 58.48&#10;  A 1.66 1.65 63.5 0 1 483.32 57.15&#10;  L 486.89 53.34&#10;  A 0.50 0.50 0.0 0 0 486.63 52.51&#10;  L 483.27 51.73&#10;  A 0.64 0.63 81.0 0 1 482.86 51.43&#10;  L 481.03 48.51&#10;  A 0.94 0.93 63.3 0 1 481.48 47.14&#10;  L 486.54 45.15&#10;  A 2.31 2.31 0.0 0 0 487.40 44.55&#10;  L 488.69 43.10&#10;  A 3.22 3.22 0.0 0 1 492.42 42.30&#10;  Q 495.87 43.85 496.26 44.01&#10;  Q 497.59 44.55 497.97 45.77&#10;  Q 498.81 48.43 496.27 49.70&#10;  Q 493.09 51.28 489.56 53.01&#10;  A 0.91 0.90 -50.8 0 0 489.73 54.70&#10;  Q 491.49 55.15 494.22 54.41&#10;  A 1.75 1.75 0.0 0 1 496.38 56.49&#10;  L 495.84 58.85&#10;  A 0.54 0.53 1.6 0 1 495.41 59.25&#10;  Q 495.25 59.28 495.09 59.30&#10;  A 1.16 1.13 -64.1 0 0 494.59 59.48&#10;  Q 491.39 61.55 489.05 64.72&#10;  A 0.60 0.60 0.0 0 0 489.74 65.64&#10;  C 491.70 64.90 493.39 63.41 495.25 64.85&#10;  C 499.53 68.16 495.47 70.86 492.76 72.73&#10;  A 0.55 0.55 0.0 0 0 492.73 73.61&#10;  Q 495.02 75.49 498.36 75.14&#10;  A 2.35 2.30 -61.5 0 0 499.14 74.90&#10;  C 502.36 73.17 505.10 73.02 508.72 73.01&#10;  A 1.23 1.22 -79.7 0 0 509.85 72.22&#10;  L 510.71 70.00&#10;  A 0.62 0.62 0.0 0 0 510.11 69.16&#10;  Q 507.86 69.23 506.14 71.20&#10;  A 1.58 1.51 -74.6 0 1 505.34 71.68&#10;  Q 503.80 72.04 501.77 71.78&#10;  A 0.86 0.86 0.0 0 1 501.02 71.04&#10;  Q 500.16 65.03 505.78 63.65&#10;  A 1.46 1.46 0.0 0 0 506.75 61.58&#10;  Q 505.98 60.01 506.20 57.45&#10;  A 0.36 0.36 0.0 0 0 505.71 57.08&#10;  Z&#10;  M 507.37 56.15&#10;  Q 508.46 55.92 510.03 56.14&#10;  A 1.16 1.16 0.0 0 0 511.04 55.77&#10;  Q 512.18 54.51 512.12 53.34&#10;  A 0.97 0.95 -78.3 0 0 511.60 52.53&#10;  Q 509.83 51.63 508.23 52.50&#10;  A 2.21 2.21 0.0 0 0 507.27 53.52&#10;  L 506.53 55.11&#10;  A 0.75 0.74 6.2 0 0 507.37 56.15&#10;  Z&#10;  M 483.78 83.92&#10;  L 484.79 83.98&#10;  A 0.83 0.77 27.0 0 0 485.32 83.83&#10;  L 490.58 79.88&#10;  A 0.51 0.51 0.0 0 0 490.32 78.96&#10;  L 488.27 78.78&#10;  A 1.35 1.35 0.0 0 0 487.14 79.23&#10;  L 483.52 83.30&#10;  A 0.37 0.37 0.0 0 0 483.78 83.92&#10;  Z&#10;  M 489.06 87.89&#10;  Q 494.48 87.74 499.13 84.87&#10;  A 0.67 0.66 64.6 0 0 499.41 84.07&#10;  C 498.42 81.33 501.70 81.14 502.37 79.46&#10;  A 0.47 0.47 0.0 0 0 501.99 78.81&#10;  Q 498.44 78.43 496.27 79.70&#10;  A 1.16 1.06 -61.7 0 1 495.87 79.84&#10;  L 493.04 80.25&#10;  A 0.49 0.48 -15.7 0 0 492.66 80.92&#10;  Q 493.27 82.32 493.03 84.05&#10;  A 1.22 1.21 -12.8 0 1 492.50 84.88&#10;  L 488.86 87.24&#10;  A 0.35 0.35 0.0 0 0 489.06 87.89&#10;  Z&#10;  M 507.19 83.19&#10;  Q 510.92 83.41 513.99 81.10&#10;  A 0.41 0.40 31.3 0 0 513.81 80.38&#10;  L 510.92 79.89&#10;  A 0.96 0.95 -66.9 0 0 509.99 80.27&#10;  Q 508.94 81.72 507.11 82.89&#10;  A 0.16 0.16 0.0 0 0 507.19 83.19&#10;  Z&#10;  M 481.64 84.27&#10;  Q 480.11 83.54 479.53 83.44&#10;  A 0.35 0.35 0.0 0 0 479.31 84.09&#10;  Q 481.04 85.07 481.63 84.82&#10;  A 0.30 0.30 0.0 0 0 481.64 84.27&#10;  Z&#10;  M 500.30 89.58&#10;  L 493.38 91.71&#10;  A 0.68 0.68 0.0 0 0 492.93 92.56&#10;  L 493.03 92.89&#10;  A 2.10 1.95 72.9 0 0 495.51 94.32&#10;  L 500.00 92.94&#10;  A 2.10 1.95 72.9 0 0 501.25 90.36&#10;  L 501.15 90.03&#10;  A 0.68 0.68 0.0 0 0 500.30 89.58&#10;  Z&#10;  M 497.68 113.67&#10;  L 500.88 113.67&#10;  A 1.30 1.25 67.1 0 1 501.79 114.06&#10;  Q 505.04 117.42 502.01 121.04&#10;  A 2.11 2.07 13.0 0 1 500.90 121.72&#10;  Q 498.92 122.19 496.74 123.90&#10;  A 0.71 0.71 0.0 0 0 497.11 125.17&#10;  Q 497.39 125.20 499.00 125.01&#10;  Q 502.18 124.64 502.92 127.39&#10;  A 1.88 1.81 -74.9 0 0 503.36 128.19&#10;  Q 504.68 129.58 507.04 128.44&#10;  A 1.13 1.07 -5.2 0 0 507.61 127.79&#10;  L 509.04 123.39&#10;  A 6.13 5.82 56.3 0 0 509.32 121.78&#10;  L 509.86 106.01&#10;  A 1.25 1.19 57.5 0 1 509.92 105.70&#10;  Q 511.44 100.74 508.41 97.60&#10;  A 1.70 1.70 0.0 0 0 505.81 97.78&#10;  L 504.48 99.61&#10;  A 2.88 2.88 0.0 0 0 504.58 103.13&#10;  C 506.61 105.51 502.15 108.93 499.96 109.12&#10;  A 1.70 1.70 0.0 0 0 498.56 110.09&#10;  L 497.23 112.97&#10;  A 0.49 0.49 0.0 0 0 497.68 113.67&#10;  Z"/>
<path fill="#41608b" d="&#10;  M 322.16 128.69&#10;  A 0.77 0.77 0.0 0 0 323.33 128.77&#10;  L 325.60 126.41&#10;  A 1.51 1.50 -34.4 0 0 325.91 124.77&#10;  Q 323.32 118.55 320.11 114.27&#10;  A 1.84 1.83 -6.9 0 0 319.38 113.70&#10;  Q 316.20 112.33 312.31 112.72&#10;  Q 309.59 113.00 308.01 110.44&#10;  A 1.62 1.59 33.5 0 1 307.79 109.41&#10;  Q 308.17 106.26 311.96 104.07&#10;  A 1.03 1.02 -30.2 0 0 312.34 102.65&#10;  L 308.66 96.40&#10;  A 3.19 3.12 1.8 0 0 307.68 95.38&#10;  L 306.69 94.73&#10;  A 2.25 2.16 0.8 0 1 306.02 94.07&#10;  Q 305.10 92.66 304.56 92.46&#10;  A 3.93 3.88 16.0 0 1 302.03 87.95&#10;  Q 302.26 86.91 303.74 84.17&#10;  A 2.29 2.22 -4.6 0 1 304.39 83.43&#10;  Q 308.19 80.59 312.73 79.85&#10;  A 1.49 1.48 53.0 0 1 313.63 79.98&#10;  L 318.67 82.51&#10;  A 1.45 1.44 -66.4 0 1 319.37 84.31&#10;  Q 317.40 89.54 320.30 93.09&#10;  A 1.07 1.06 -47.6 0 0 322.00 93.01&#10;  Q 323.77 90.42 324.36 87.66&#10;  A 1.54 1.53 -12.3 0 1 324.96 86.73&#10;  Q 328.43 84.24 332.33 84.08&#10;  A 3.95 3.87 -58.7 0 0 333.82 83.70&#10;  Q 339.56 80.96 343.78 86.08&#10;  Q 346.37 89.23 348.35 95.73&#10;  A 1.36 1.33 -40.5 0 1 348.26 96.76&#10;  Q 346.65 99.88 346.74 102.57&#10;  A 2.29 2.21 57.5 0 1 346.53 103.61&#10;  Q 345.34 106.09 345.46 109.22&#10;  A 1.37 1.36 63.8 0 1 345.15 110.14&#10;  Q 344.59 110.82 344.08 113.33&#10;  C 343.70 115.21 346.44 116.11 347.50 117.40&#10;  A 0.58 0.58 0.0 0 1 347.47 118.17&#10;  L 339.42 126.52&#10;  A 1.29 1.28 -36.8 0 0 339.20 128.01&#10;  Q 342.18 133.80 350.79 149.96&#10;  Q 354.83 157.55 355.98 165.77&#10;  A 1.18 1.16 60.6 0 1 355.74 166.66&#10;  Q 354.26 168.52 352.25 167.94&#10;  A 1.36 1.36 0.0 0 1 351.47 167.36&#10;  L 335.13 142.05&#10;  A 1.55 1.45 -69.6 0 1 334.91 141.52&#10;  Q 334.27 138.76 332.41 136.24&#10;  A 0.69 0.69 0.0 0 0 331.45 136.10&#10;  L 327.72 138.89&#10;  A 1.45 1.45 0.0 0 1 325.69 138.60&#10;  L 323.33 135.45&#10;  A 1.04 1.03 49.7 0 0 321.79 135.32&#10;  C 320.86 136.21 320.07 136.42 318.71 135.94&#10;  Q 316.13 135.02 313.32 135.20&#10;  A 2.47 2.46 -30.2 0 1 311.83 134.81&#10;  Q 310.15 133.71 307.55 134.06&#10;  A 2.15 2.12 -35.6 0 1 306.28 133.86&#10;  L 302.00 131.71&#10;  A 0.58 0.53 84.7 0 1 301.76 131.49&#10;  L 299.08 126.90&#10;  A 8.04 7.76 20.8 0 1 298.42 125.50&#10;  L 296.09 118.88&#10;  A 1.24 1.10 41.7 0 1 296.03 118.36&#10;  Q 296.24 116.45 298.10 114.58&#10;  Q 301.13 111.54 303.76 114.40&#10;  A 1.43 1.42 -18.0 0 0 304.65 114.85&#10;  C 306.85 115.10 309.07 114.59 310.62 116.08&#10;  Q 312.28 117.69 314.37 118.85&#10;  A 3.77 3.76 -3.8 0 1 315.55 119.88&#10;  L 322.16 128.69&#10;  Z&#10;  M 334.69 111.70&#10;  A 7.05 7.00 -39.9 0 0 335.16 106.61&#10;  L 332.91 98.81&#10;  A 1.44 1.44 0.0 0 0 330.24 98.57&#10;  L 327.66 103.73&#10;  A 1.65 1.64 44.3 0 0 327.68 105.24&#10;  L 331.76 112.87&#10;  A 1.33 1.33 0.0 0 0 334.12 112.84&#10;  L 334.69 111.70&#10;  Z"/>
<path fill="#41608b" d="&#10;  M 666.46 100.72&#10;  C 664.37 98.37 661.82 99.37 659.96 98.98&#10;  A 1.29 1.27 79.4 0 1 659.15 98.42&#10;  C 657.12 95.33 658.25 93.53 660.12 90.53&#10;  A 0.90 0.89 24.2 0 1 661.13 90.15&#10;  Q 663.05 90.73 664.96 90.35&#10;  A 1.72 1.72 0.0 0 0 666.32 88.31&#10;  L 665.66 85.23&#10;  A 0.81 0.80 -10.4 0 1 666.33 84.27&#10;  Q 667.71 84.06 670.06 82.31&#10;  A 0.96 0.95 37.3 0 1 670.97 82.19&#10;  L 675.74 84.02&#10;  A 1.31 1.26 83.4 0 1 676.36 84.53&#10;  L 678.18 87.33&#10;  A 0.91 0.91 0.0 0 1 678.19 88.30&#10;  Q 677.07 90.17 676.90 92.68&#10;  A 0.36 0.34 8.8 0 0 677.18 93.04&#10;  L 686.22 95.13&#10;  A 0.99 0.91 42.6 0 0 686.69 95.13&#10;  Q 689.83 94.46 692.26 95.53&#10;  A 0.95 0.95 0.0 0 0 693.44 95.18&#10;  L 696.21 90.92&#10;  A 0.99 0.98 -29.4 0 0 696.37 90.35&#10;  L 696.28 87.13&#10;  A 1.34 1.34 0.0 0 1 696.75 86.09&#10;  Q 699.25 83.92 703.71 84.16&#10;  A 0.75 0.75 0.0 0 1 704.36 84.60&#10;  L 706.03 88.29&#10;  A 3.41 3.39 30.8 0 1 706.29 89.31&#10;  Q 706.61 92.63 705.82 95.18&#10;  A 1.33 1.30 -8.3 0 1 705.28 95.89&#10;  L 703.14 97.28&#10;  A 0.32 0.32 0.0 0 0 703.29 97.86&#10;  Q 707.00 98.15 708.52 101.82&#10;  A 1.69 1.67 44.8 0 1 708.53 103.08&#10;  L 707.34 106.19&#10;  A 1.16 1.16 0.0 0 1 706.41 106.92&#10;  Q 704.78 107.12 701.58 106.94&#10;  Q 700.31 106.87 698.76 105.08&#10;  Q 697.76 103.93 695.09 102.55&#10;  A 0.97 0.94 47.2 0 0 694.30 102.51&#10;  L 683.26 106.85&#10;  A 0.44 0.44 0.0 0 0 683.22 107.66&#10;  L 686.33 109.22&#10;  A 1.40 1.39 7.3 0 1 687.08 110.18&#10;  L 688.37 116.23&#10;  A 0.40 0.39 -30.1 0 0 689.05 116.41&#10;  Q 690.95 114.33 690.87 110.48&#10;  A 1.65 1.65 0.0 0 1 693.49 109.11&#10;  L 695.32 110.44&#10;  A 3.15 3.15 0.0 0 1 696.27 114.44&#10;  L 692.88 120.99&#10;  A 0.73 0.50 -34.4 0 0 692.81 121.17&#10;  Q 692.48 122.58 694.38 121.65&#10;  Q 698.50 119.62 698.84 113.81&#10;  Q 698.94 112.00 701.33 111.15&#10;  A 1.02 1.01 -32.3 0 1 702.38 111.38&#10;  Q 704.83 113.73 705.84 117.44&#10;  A 1.40 1.39 52.6 0 1 705.70 118.50&#10;  C 703.39 122.44 699.53 125.23 695.35 127.64&#10;  A 1.04 1.04 0.0 0 0 694.99 129.09&#10;  Q 696.77 131.92 697.27 136.32&#10;  A 2.20 2.19 52.0 0 1 697.15 137.33&#10;  Q 695.78 140.90 691.75 142.65&#10;  A 1.01 1.00 -32.4 0 1 690.60 142.40&#10;  Q 689.50 141.15 689.51 140.41&#10;  A 2.61 2.25 2.3 0 0 687.04 138.10&#10;  Q 683.79 137.93 679.56 137.59&#10;  A 1.78 1.70 -89.7 0 1 678.00 135.94&#10;  Q 677.95 135.17 677.69 134.64&#10;  A 0.60 0.59 60.2 0 0 676.83 134.40&#10;  C 673.00 136.85 670.93 134.50 668.22 131.32&#10;  A 1.99 1.95 80.8 0 0 667.50 130.79&#10;  Q 665.11 129.75 663.61 131.41&#10;  A 0.62 0.61 30.8 0 1 662.93 131.58&#10;  Q 661.05 130.88 661.19 129.22&#10;  A 0.35 0.35 0.0 0 0 660.61 128.93&#10;  Q 659.67 129.75 657.31 130.51&#10;  A 0.99 0.99 0.0 0 1 656.37 130.33&#10;  Q 653.67 128.07 649.04 129.73&#10;  Q 647.22 130.37 644.64 129.31&#10;  A 0.80 0.79 13.3 0 1 644.15 128.52&#10;  L 644.53 122.08&#10;  A 0.83 0.82 -18.2 0 1 644.83 121.49&#10;  L 649.17 117.95&#10;  A 0.55 0.55 0.0 0 0 648.71 116.99&#10;  L 645.40 117.70&#10;  A 1.06 1.06 0.0 0 1 644.12 116.60&#10;  Q 644.35 112.87 646.83 109.64&#10;  A 1.14 1.12 11.9 0 1 647.49 109.22&#10;  L 649.10 108.88&#10;  A 1.32 1.26 12.1 0 0 649.83 108.43&#10;  Q 652.56 105.04 653.27 102.17&#10;  A 2.20 2.20 0.0 0 1 656.86 101.05&#10;  L 660.09 103.92&#10;  A 0.54 0.54 0.0 0 0 660.95 103.73&#10;  Q 662.36 100.47 666.13 101.28&#10;  A 0.34 0.34 0.0 0 0 666.46 100.72&#10;  Z&#10;  M 685.18 100.06&#10;  Q 679.23 99.50 676.75 99.58&#10;  Q 675.84 99.62 674.99 100.62&#10;  A 0.71 0.71 0.0 0 0 675.28 101.74&#10;  L 680.19 103.62&#10;  A 2.38 2.38 0.0 0 0 682.47 103.30&#10;  L 685.46 101.06&#10;  A 0.56 0.56 0.0 0 0 685.18 100.06&#10;  Z&#10;  M 667.56 102.96&#10;  A 0.43 0.43 0.0 0 0 666.90 103.46&#10;  L 668.11 106.56&#10;  A 0.61 0.61 0.0 0 0 668.63 106.94&#10;  L 671.33 107.10&#10;  A 2.19 2.18 -76.5 0 0 673.46 105.79&#10;  L 673.70 105.24&#10;  A 0.80 0.80 0.0 0 0 672.71 104.22&#10;  Q 670.22 104.98 667.56 102.96&#10;  Z&#10;  M 654.34 111.93&#10;  Q 656.46 112.03 657.93 109.47&#10;  A 0.28 0.28 0.0 0 0 657.57 109.07&#10;  L 654.09 110.62&#10;  A 0.69 0.68 34.3 0 0 654.34 111.93&#10;  Z&#10;  M 673.58 113.06&#10;  A 0.49 0.49 0.0 0 0 673.36 113.97&#10;  Q 675.74 115.31 674.44 118.09&#10;  C 673.29 120.52 671.34 120.99 669.58 122.42&#10;  A 1.51 1.51 0.0 0 0 669.99 125.00&#10;  L 672.04 125.79&#10;  A 0.59 0.59 0.0 0 0 672.68 125.64&#10;  C 674.15 124.07 674.75 122.13 676.08 120.70&#10;  Q 677.33 119.36 677.95 116.71&#10;  A 2.95 1.95 -71.9 0 0 677.14 113.76&#10;  Q 675.73 112.97 673.58 113.06&#10;  Z&#10;  M 687.1479 119.4214&#10;  A 0.78 0.54 -57.6 0 0 686.2741 119.7907&#10;  A 0.78 0.54 -57.6 0 0 686.3121 120.7386&#10;  A 0.78 0.54 -57.6 0 0 687.1859 120.3693&#10;  A 0.78 0.54 -57.6 0 0 687.1479 119.4214&#10;  Z&#10;  M 652.4708 122.4357&#10;  A 1.21 0.79 -177.9 0 0 653.6511 123.2695&#10;  A 1.21 0.79 -177.9 0 0 654.8892 122.5243&#10;  A 1.21 0.79 -177.9 0 0 653.7089 121.6905&#10;  A 1.21 0.79 -177.9 0 0 652.4708 122.4357&#10;  Z&#10;  M 682.27 130.82&#10;  L 686.46 127.84&#10;  A 0.10 0.10 0.0 0 0 686.48 127.70&#10;  L 686.44 127.64&#10;  A 2.48 1.47 -35.4 0 0 683.57 127.88&#10;  L 683.26 128.10&#10;  A 2.48 1.47 -35.4 0 0 682.09 130.74&#10;  L 682.13 130.79&#10;  A 0.10 0.10 0.0 0 0 682.27 130.82&#10;  Z&#10;  M 688.9422 132.0420&#10;  A 1.46 0.98 -172.6 0 0 690.2638 133.2018&#10;  A 1.46 0.98 -172.6 0 0 691.8378 132.4180&#10;  A 1.46 0.98 -172.6 0 0 690.5162 131.2582&#10;  A 1.46 0.98 -172.6 0 0 688.9422 132.0420&#10;  Z"/>
<path fill="#41608b" d="&#10;  M 658.45 141.02&#10;  C 652.03 139.03 645.13 138.69 638.00 138.48&#10;  C 636.06 138.42 635.11 139.82 633.51 139.90&#10;  Q 630.42 140.06 628.25 138.83&#10;  A 1.39 1.37 -88.1 0 1 627.66 138.19&#10;  L 625.89 134.29&#10;  A 1.78 1.78 0.0 0 0 625.61 133.87&#10;  Q 623.89 132.02 623.68 129.09&#10;  Q 623.56 127.40 624.92 127.17&#10;  C 627.74 126.71 633.29 129.34 635.29 130.23&#10;  A 3.20 3.05 58.4 0 0 636.20 130.47&#10;  Q 639.46 130.84 643.19 132.69&#10;  A 2.81 2.80 -33.5 0 0 644.63 132.98&#10;  Q 647.20 132.80 648.84 133.77&#10;  A 1.45 1.42 54.6 0 0 649.84 133.95&#10;  Q 652.10 133.56 656.76 135.02&#10;  Q 657.19 135.15 660.53 135.22&#10;  A 1.04 1.03 -70.0 0 0 661.36 134.83&#10;  L 662.17 133.82&#10;  A 3.05 3.04 31.1 0 1 665.74 132.94&#10;  Q 669.02 134.36 670.36 136.94&#10;  C 671.81 139.73 672.99 138.06 675.22 139.02&#10;  Q 677.29 139.91 679.90 140.05&#10;  A 2.36 2.25 -30.0 0 1 680.77 140.26&#10;  Q 688.64 143.71 695.52 145.10&#10;  A 3.52 3.48 70.7 0 1 697.04 145.84&#10;  Q 701.13 149.26 701.65 155.16&#10;  A 1.74 1.72 -33.6 0 1 701.44 156.16&#10;  Q 700.58 157.71 699.74 158.22&#10;  A 1.30 1.26 35.9 0 1 698.77 158.36&#10;  Q 694.74 157.32 693.78 156.28&#10;  Q 690.40 152.59 687.73 150.56&#10;  Q 686.48 149.61 682.67 148.77&#10;  A 5.41 5.36 63.7 0 1 681.57 148.39&#10;  Q 675.12 145.31 669.77 145.19&#10;  A 2.24 2.24 0.0 0 0 667.59 146.73&#10;  Q 665.31 153.82 662.99 157.81&#10;  A 3.72 3.52 -25.0 0 0 662.60 158.80&#10;  Q 661.87 161.99 660.76 163.54&#10;  Q 660.40 164.04 655.93 169.46&#10;  A 1.78 1.77 13.5 0 1 654.94 170.06&#10;  Q 648.77 171.38 647.51 165.46&#10;  A 1.78 1.77 4.8 0 0 646.42 164.18&#10;  L 641.74 162.39&#10;  A 1.19 1.18 80.1 0 1 641.25 162.04&#10;  C 639.74 160.33 640.94 157.95 643.35 157.84&#10;  Q 644.81 157.77 646.02 158.37&#10;  C 647.50 159.10 649.00 159.01 650.19 158.96&#10;  A 1.64 1.63 12.7 0 0 651.59 158.08&#10;  L 656.30 149.16&#10;  A 1.93 1.65 70.3 0 0 656.49 148.66&#10;  Q 657.33 144.78 658.76 141.71&#10;  A 0.50 0.50 0.0 0 0 658.45 141.02&#10;  Z"/>
<path fill="#41608b" d="&#10;  M 647.88 143.69&#10;  A 0.98 0.98 0.0 0 1 648.85 145.13&#10;  Q 647.08 148.45 643.15 151.68&#10;  A 3.19 3.15 83.0 0 0 642.31 152.77&#10;  Q 640.97 155.75 640.54 156.76&#10;  Q 640.05 157.89 637.96 158.75&#10;  A 1.51 1.46 41.1 0 1 636.97 158.80&#10;  Q 634.05 157.95 632.48 155.74&#10;  A 2.43 2.33 22.6 0 1 632.10 154.87&#10;  Q 631.02 149.89 633.20 146.32&#10;  Q 634.83 143.66 635.35 143.30&#10;  C 637.11 142.10 638.77 142.91 640.46 143.87&#10;  A 3.36 3.35 -33.4 0 0 642.52 144.29&#10;  L 647.88 143.69&#10;  Z"/>
<path fill="#41608b" d="&#10;  M 850.42 499.38&#10;  A 350.98 350.98 0.0 0 1 499.44 850.36&#10;  A 350.98 350.98 0.0 0 1 148.46 499.38&#10;  A 350.98 350.98 0.0 0 1 499.44 148.40&#10;  A 350.98 350.98 0.0 0 1 850.42 499.38&#10;  Z&#10;  M 842.70 499.38&#10;  A 343.26 343.26 0.0 0 0 499.44 156.12&#10;  A 343.26 343.26 0.0 0 0 156.18 499.38&#10;  A 343.26 343.26 0.0 0 0 499.44 842.64&#10;  A 343.26 343.26 0.0 0 0 842.70 499.38&#10;  Z"/>
<path fill="#41608b" d="&#10;  M 674.07 152.96&#10;  C 677.76 153.19 678.49 155.62 681.12 157.00&#10;  Q 682.69 157.82 683.49 159.61&#10;  Q 685.86 164.89 683.90 169.58&#10;  A 2.49 2.44 81.3 0 1 683.26 170.47&#10;  Q 679.97 173.36 676.46 174.85&#10;  A 2.61 2.60 -32.9 0 1 673.54 174.23&#10;  Q 671.74 172.30 671.82 169.25&#10;  A 1.17 1.14 30.2 0 0 671.64 168.60&#10;  L 670.42 166.73&#10;  A 3.17 3.17 0.0 0 1 670.90 162.71&#10;  Q 672.59 161.11 673.72 158.68&#10;  A 1.37 1.36 42.9 0 0 673.67 157.46&#10;  Q 672.62 155.62 673.27 153.52&#10;  A 0.80 0.79 9.8 0 1 674.07 152.96&#10;  Z"/>
<path fill="#41608b" d="&#10;  M 186.53 234.53&#10;  Q 187.13 235.74 187.16 237.23&#10;  A 3.17 3.13 26.5 0 0 187.78 239.04&#10;  L 190.20 242.27&#10;  A 2.09 2.09 0.0 0 1 189.94 245.07&#10;  C 187.36 247.44 186.02 249.10 183.07 249.83&#10;  C 180.20 250.53 177.31 248.08 175.33 246.10&#10;  A 6.25 6.00 81.4 0 0 174.07 245.13&#10;  Q 171.91 243.86 171.55 242.92&#10;  Q 169.91 238.69 168.87 236.43&#10;  A 1.62 1.61 38.4 0 1 168.76 235.52&#10;  Q 169.23 232.92 170.85 231.86&#10;  A 2.11 2.09 24.5 0 1 171.75 231.53&#10;  C 174.15 231.24 178.35 230.99 178.21 228.23&#10;  Q 178.14 226.75 176.57 225.65&#10;  Q 172.41 222.74 169.40 220.58&#10;  Q 167.59 219.28 166.92 216.49&#10;  Q 166.52 214.82 167.88 212.87&#10;  A 1.88 1.84 -83.3 0 1 168.72 212.19&#10;  Q 175.31 209.51 176.36 209.37&#10;  Q 177.78 209.16 179.59 210.28&#10;  A 1.27 1.19 -1.8 0 1 179.93 210.58&#10;  L 184.71 216.97&#10;  A 1.26 1.26 0.0 0 0 186.92 215.85&#10;  Q 185.87 212.46 183.77 210.18&#10;  A 1.75 1.70 -6.8 0 1 185.91 207.54&#10;  Q 185.94 207.56 187.13 207.94&#10;  A 0.24 0.23 82.7 0 0 187.40 207.59&#10;  Q 186.70 206.48 185.66 206.02&#10;  A 1.07 1.07 0.0 0 0 184.72 206.06&#10;  L 181.99 207.52&#10;  A 1.68 1.68 0.0 0 1 179.57 206.47&#10;  Q 178.67 203.12 177.47 201.05&#10;  Q 176.55 199.47 177.38 197.94&#10;  Q 180.03 193.05 185.07 194.12&#10;  A 1.38 1.38 0.0 0 1 185.93 194.71&#10;  C 187.58 197.21 188.93 198.39 190.37 201.15&#10;  Q 192.18 204.59 196.42 206.78&#10;  A 0.68 0.68 0.0 0 0 197.35 205.91&#10;  Q 196.79 204.59 195.13 201.25&#10;  Q 194.05 199.07 195.74 197.31&#10;  A 0.95 0.95 0.0 0 0 195.84 196.11&#10;  Q 194.91 194.72 189.81 187.76&#10;  C 188.76 186.32 187.74 185.48 186.19 184.01&#10;  A 5.73 5.43 7.2 0 1 185.28 182.90&#10;  Q 183.22 179.60 179.40 176.76&#10;  A 1.00 0.99 19.7 0 1 178.99 175.90&#10;  L 179.15 173.20&#10;  A 0.71 0.70 69.4 0 1 179.34 172.77&#10;  L 185.75 166.13&#10;  A 1.16 1.15 35.1 0 1 187.11 165.90&#10;  Q 188.90 166.80 190.16 166.95&#10;  C 192.78 167.25 195.50 171.08 196.32 172.76&#10;  Q 199.82 179.86 205.58 183.89&#10;  Q 207.28 185.07 211.05 190.37&#10;  A 7.46 7.16 -88.8 0 0 212.24 191.66&#10;  Q 223.64 201.31 226.83 203.21&#10;  Q 233.07 206.91 235.45 209.51&#10;  Q 237.87 212.16 238.52 212.57&#10;  A 2.78 2.78 0.0 0 0 239.36 212.93&#10;  Q 243.44 213.94 245.87 216.16&#10;  Q 248.51 218.56 255.42 224.85&#10;  A 1.42 1.42 0.0 0 1 255.88 225.94&#10;  Q 255.80 227.91 257.11 229.72&#10;  A 1.56 1.56 0.0 0 1 257.38 230.87&#10;  C 256.53 236.39 250.75 235.38 247.28 233.47&#10;  Q 244.13 231.72 241.41 229.41&#10;  A 3.12 2.96 6.7 0 1 240.71 228.57&#10;  Q 237.13 222.31 232.69 218.55&#10;  Q 230.70 216.88 228.24 214.13&#10;  Q 226.04 211.67 223.28 209.98&#10;  A 2.54 2.44 87.3 0 1 222.54 209.28&#10;  Q 220.49 206.32 218.88 205.19&#10;  Q 207.97 197.56 197.90 187.45&#10;  Q 196.02 185.56 193.20 184.17&#10;  A 0.38 0.38 0.0 0 0 192.76 184.77&#10;  L 195.55 187.61&#10;  A 0.63 0.58 -87.8 0 1 195.67 187.75&#10;  L 199.39 193.17&#10;  A 1.90 1.90 0.0 0 0 200.33 193.90&#10;  L 204.73 195.50&#10;  A 1.96 1.83 -11.4 0 1 205.41 195.92&#10;  C 208.68 199.05 210.12 201.20 208.65 205.69&#10;  A 2.72 2.69 -14.5 0 1 208.03 206.73&#10;  Q 205.95 208.92 203.24 208.22&#10;  A 1.27 1.27 0.0 0 0 202.02 210.34&#10;  Q 207.25 215.65 208.35 216.86&#10;  Q 209.11 217.69 212.69 220.32&#10;  Q 213.49 220.92 215.77 224.04&#10;  A 2.61 2.17 87.2 0 0 216.10 224.40&#10;  L 222.17 229.61&#10;  A 1.22 1.19 -75.6 0 1 222.56 230.29&#10;  Q 223.29 234.35 220.87 236.76&#10;  A 1.14 1.14 0.0 0 1 219.84 237.07&#10;  Q 210.50 235.04 205.66 226.68&#10;  Q 204.76 225.13 201.39 223.48&#10;  A 0.84 0.84 0.0 0 0 200.40 223.68&#10;  L 198.14 226.22&#10;  A 1.41 1.40 42.7 0 1 196.11 226.30&#10;  L 192.05 222.39&#10;  A 0.79 0.79 0.0 0 0 190.81 223.34&#10;  Q 192.12 225.65 194.58 228.02&#10;  A 3.26 3.05 -83.3 0 1 195.19 228.85&#10;  Q 198.06 234.44 201.14 237.05&#10;  A 1.62 1.55 -84.9 0 1 201.50 237.50&#10;  L 203.75 241.65&#10;  A 6.04 5.45 25.4 0 1 204.17 242.66&#10;  Q 204.17 242.67 204.22 243.41&#10;  Q 204.24 243.82 204.45 244.11&#10;  Q 205.50 245.58 205.61 247.31&#10;  A 1.40 1.29 33.1 0 0 205.71 247.70&#10;  L 207.12 250.83&#10;  A 2.03 1.95 -58.8 0 1 207.29 251.59&#10;  Q 207.36 254.55 207.63 255.53&#10;  C 208.51 258.71 207.05 260.79 204.83 263.00&#10;  A 0.90 0.89 -41.4 0 1 203.49 262.92&#10;  Q 202.08 261.08 202.27 260.11&#10;  Q 202.99 256.37 201.82 253.80&#10;  A 3.27 2.80 -79.3 0 0 201.51 253.26&#10;  Q 200.21 251.43 199.59 249.57&#10;  A 2.30 2.24 -74.5 0 0 199.21 248.88&#10;  L 187.16 234.12&#10;  A 0.38 0.38 0.0 0 0 186.53 234.53&#10;  Z"/>
<path fill="#41608b" d="&#10;  M 796.03 218.01&#10;  C 793.04 216.19 790.20 214.47 787.05 215.87&#10;  A 0.89 0.89 0.0 0 1 785.97 215.57&#10;  C 783.88 212.60 786.21 207.61 785.95 204.46&#10;  A 1.87 1.80 -34.7 0 1 786.16 203.43&#10;  L 787.07 201.68&#10;  A 1.62 1.62 0.0 0 1 789.63 201.27&#10;  L 793.34 204.85&#10;  A 1.14 1.13 -13.2 0 0 793.73 205.09&#10;  Q 796.18 205.96 799.16 208.28&#10;  Q 800.14 209.05 805.53 211.17&#10;  A 3.92 2.97 64.2 0 1 806.06 211.44&#10;  Q 808.73 213.13 811.06 210.59&#10;  C 813.47 207.93 814.86 206.14 817.76 204.81&#10;  Q 818.63 204.41 820.26 202.92&#10;  A 0.69 0.68 -32.5 0 0 820.43 202.17&#10;  L 818.51 197.26&#10;  A 0.70 0.69 64.1 0 1 818.80 196.40&#10;  Q 820.74 195.24 822.20 195.72&#10;  A 1.96 1.95 -47.3 0 0 823.58 195.66&#10;  Q 827.27 194.09 830.29 193.89&#10;  A 1.75 1.70 -27.0 0 1 831.46 194.25&#10;  Q 833.41 195.80 834.66 198.26&#10;  A 1.27 1.26 45.7 0 1 834.65 199.43&#10;  Q 833.25 202.10 833.05 204.51&#10;  A 1.32 1.31 69.9 0 1 832.67 205.33&#10;  L 830.42 207.67&#10;  A 3.52 3.45 -79.2 0 1 829.34 208.42&#10;  Q 824.88 210.38 820.90 214.14&#10;  A 1.80 1.78 -70.3 0 1 819.94 214.60&#10;  Q 818.75 214.77 817.81 215.91&#10;  A 0.36 0.35 27.5 0 0 817.99 216.47&#10;  L 824.21 218.22&#10;  A 4.59 4.58 81.4 0 1 826.81 220.14&#10;  C 828.47 222.69 831.26 227.11 831.16 230.30&#10;  Q 831.07 233.01 827.65 233.78&#10;  A 1.75 1.71 45.7 0 1 826.83 233.76&#10;  L 822.66 232.58&#10;  A 1.57 1.50 -13.4 0 1 821.99 232.19&#10;  L 816.80 226.87&#10;  A 0.82 0.67 -5.7 0 0 816.56 226.71&#10;  L 808.96 223.80&#10;  A 1.03 1.03 0.0 0 0 807.60 224.46&#10;  Q 805.95 229.86 806.89 233.49&#10;  A 1.97 1.87 47.6 0 1 806.87 234.51&#10;  C 806.26 236.47 807.30 238.94 806.50 240.91&#10;  Q 806.13 241.84 806.62 242.73&#10;  A 1.60 1.55 33.7 0 1 806.81 243.62&#10;  Q 806.35 249.55 808.60 255.23&#10;  Q 808.78 255.69 808.66 256.42&#10;  Q 808.53 257.23 808.60 257.62&#10;  Q 809.87 264.16 811.78 276.25&#10;  Q 812.15 278.60 811.88 281.17&#10;  A 1.66 1.65 7.9 0 1 809.94 282.63&#10;  C 808.87 282.45 807.47 280.90 806.86 279.71&#10;  Q 804.88 275.80 800.25 274.34&#10;  A 2.77 2.75 74.3 0 1 799.33 273.82&#10;  Q 796.86 271.69 796.96 268.90&#10;  Q 797.10 264.82 797.00 259.08&#10;  A 7.93 7.78 52.3 0 1 797.25 256.96&#10;  Q 798.26 253.02 798.14 248.01&#10;  Q 798.11 246.91 798.75 244.96&#10;  A 5.64 5.45 55.3 0 0 799.02 243.31&#10;  Q 799.06 241.23 799.64 232.94&#10;  Q 799.73 231.56 799.25 230.39&#10;  A 1.18 1.17 68.4 0 0 797.77 229.74&#10;  L 787.12 233.65&#10;  A 3.46 3.45 36.3 0 1 785.80 233.85&#10;  Q 782.38 233.68 779.30 234.69&#10;  A 3.80 3.77 47.0 0 1 776.69 234.59&#10;  C 774.39 233.65 772.36 233.96 769.79 232.98&#10;  Q 767.26 232.01 764.00 232.09&#10;  A 2.05 2.00 55.6 0 1 763.06 231.90&#10;  Q 762.60 231.68 757.21 229.92&#10;  Q 756.07 229.55 754.25 226.92&#10;  A 0.93 0.91 42.5 0 1 754.20 225.96&#10;  C 755.07 224.37 756.42 224.51 758.05 225.13&#10;  Q 762.54 226.84 763.47 226.82&#10;  Q 770.54 226.65 772.90 226.84&#10;  C 775.21 227.01 776.83 225.75 779.20 225.82&#10;  C 781.77 225.90 783.97 224.74 786.81 224.65&#10;  A 1.58 1.52 -59.2 0 0 787.51 224.46&#10;  L 795.97 219.93&#10;  A 1.11 1.11 0.0 0 0 796.03 218.01&#10;  Z"/>
<path fill="#41608b" d="&#10;  M 658.67 400.97&#10;  Q 655.71 400.89 653.45 402.01&#10;  A 0.26 0.26 0.0 0 1 653.13 401.61&#10;  Q 658.82 394.66 664.65 389.16&#10;  Q 665.23 388.61 666.19 388.57&#10;  Q 666.81 388.55 667.02 389.83&#10;  A 0.55 0.55 0.0 0 0 667.91 390.17&#10;  L 673.82 385.35&#10;  A 1.32 1.32 0.0 0 0 672.98 383.01&#10;  L 670.56 383.01&#10;  A 0.78 0.78 0.0 0 1 669.89 381.82&#10;  Q 672.79 376.99 678.79 366.80&#10;  Q 681.19 362.71 682.43 357.48&#10;  Q 685.90 342.85 684.96 327.36&#10;  Q 684.83 325.29 684.46 323.34&#10;  Q 683.97 320.83 683.72 319.30&#10;  Q 678.67 289.18 652.54 273.47&#10;  Q 645.04 268.96 635.60 265.43&#10;  Q 619.45 259.39 601.96 257.62&#10;  Q 572.35 254.62 542.74 258.99&#10;  Q 521.73 262.09 501.76 269.26&#10;  C 492.25 272.67 481.69 277.57 472.84 283.04&#10;  C 441.54 302.42 413.72 326.95 390.25 355.24&#10;  C 369.92 379.75 353.10 407.45 342.35 437.32&#10;  Q 335.50 456.36 332.44 476.76&#10;  Q 332.02 479.63 331.94 482.29&#10;  C 331.89 484.15 330.99 487.06 330.95 489.61&#10;  Q 330.79 501.72 330.94 512.80&#10;  Q 330.99 516.08 331.47 518.16&#10;  C 332.06 520.69 331.97 522.83 332.33 525.28&#10;  Q 334.99 543.61 341.50 560.78&#10;  Q 358.23 604.95 402.34 621.65&#10;  C 425.34 630.36 451.47 631.77 475.73 627.98&#10;  Q 533.05 619.00 576.04 579.79&#10;  Q 582.70 573.71 586.98 566.75&#10;  C 590.51 561.00 592.56 554.92 591.14 548.33&#10;  C 588.53 536.17 572.68 527.25 561.80 522.57&#10;  A 0.68 0.68 0.0 0 1 561.64 521.42&#10;  L 569.53 514.99&#10;  A 0.69 0.68 24.7 0 1 569.97 514.83&#10;  L 705.74 514.83&#10;  A 0.45 0.45 0.0 0 1 706.18 515.38&#10;  C 692.27 579.23 652.18 634.55 598.15 670.88&#10;  Q 575.56 686.07 551.17 695.11&#10;  Q 541.22 698.80 525.59 702.64&#10;  Q 510.78 706.29 499.51 708.27&#10;  Q 490.07 709.94 489.38 709.96&#10;  Q 487.34 710.01 485.38 710.63&#10;  C 483.27 711.29 480.90 710.83 478.63 711.40&#10;  Q 478.12 711.53 475.93 711.75&#10;  Q 465.39 712.81 464.98 712.84&#10;  Q 437.48 714.93 412.74 711.99&#10;  C 410.11 711.68 407.83 710.97 405.38 711.02&#10;  A 3.84 3.83 55.4 0 1 403.82 710.73&#10;  Q 402.94 710.37 399.77 709.83&#10;  Q 378.66 706.18 359.55 697.47&#10;  Q 310.06 674.90 285.88 626.34&#10;  C 266.80 588.00 262.47 543.34 268.10 500.75&#10;  C 275.33 446.05 297.94 394.11 331.74 350.48&#10;  C 368.72 302.74 420.31 265.90 477.77 246.00&#10;  Q 491.46 241.26 509.37 237.57&#10;  Q 512.81 236.86 513.96 236.90&#10;  A 2.61 2.59 -52.4 0 0 514.86 236.78&#10;  Q 516.81 236.19 517.14 236.16&#10;  Q 546.09 232.88 550.05 232.52&#10;  Q 557.53 231.84 575.06 233.03&#10;  Q 592.70 234.23 605.86 236.45&#10;  Q 623.60 239.43 642.51 246.51&#10;  C 666.12 255.34 686.14 268.30 697.34 291.47&#10;  C 706.87 311.20 706.57 335.07 699.04 355.53&#10;  Q 690.73 378.12 675.83 395.57&#10;  Q 670.37 401.97 662.64 405.70&#10;  A 3.34 3.32 6.2 0 0 661.49 406.62&#10;  L 657.97 411.01&#10;  A 4.70 4.65 0.4 0 1 657.15 411.81&#10;  L 617.64 441.42&#10;  A 3.95 3.94 34.4 0 1 614.20 442.06&#10;  L 612.68 441.63&#10;  A 1.03 1.03 0.0 0 1 612.43 439.75&#10;  Q 627.43 430.64 638.33 418.45&#10;  A 1.00 1.00 0.0 0 1 639.06 418.11&#10;  L 640.10 418.08&#10;  A 1.22 1.22 0.0 0 0 640.95 417.71&#10;  Q 641.03 417.63 645.68 414.30&#10;  Q 647.47 413.01 646.54 410.65&#10;  A 0.86 0.85 -38.2 0 1 646.64 409.84&#10;  Q 649.22 406.14 652.35 403.83&#10;  Q 653.77 402.77 654.71 404.66&#10;  A 0.80 0.80 0.0 0 0 656.02 404.84&#10;  L 658.93 401.56&#10;  A 0.36 0.35 21.5 0 0 658.67 400.97&#10;  Z"/>
<path fill="#da422a" d="&#10;  M 470.64 579.94&#10;  Q 470.59 579.94 467.36 582.91&#10;  C 465.09 585.01 464.18 584.72 461.53 583.99&#10;  A 1.04 1.03 11.4 0 1 460.78 582.87&#10;  L 462.35 570.37&#10;  A 2.78 2.16 64.4 0 1 462.45 569.91&#10;  Q 464.80 562.16 470.07 546.06&#10;  C 471.09 542.94 471.75 539.43 472.13 536.93&#10;  A 7.89 7.68 -28.8 0 1 472.76 534.87&#10;  Q 474.32 531.59 475.38 528.43&#10;  A 1.47 1.12 -37.4 0 0 475.44 528.21&#10;  L 476.92 519.65&#10;  A 0.30 0.30 0.0 0 0 476.51 519.33&#10;  Q 475.60 519.72 464.12 525.11&#10;  C 456.68 528.62 449.54 528.78 442.38 524.70&#10;  A 2.92 2.76 84.0 0 1 441.55 523.99&#10;  Q 441.44 523.84 431.96 513.58&#10;  Q 429.39 510.80 428.13 507.90&#10;  C 426.88 505.00 427.68 502.44 429.54 499.81&#10;  Q 430.90 497.89 441.19 482.16&#10;  C 446.52 474.02 449.24 467.98 454.37 458.13&#10;  Q 460.60 446.15 466.65 440.45&#10;  A 1.67 1.65 73.3 0 0 467.16 439.49&#10;  L 467.26 438.89&#10;  A 2.26 2.19 74.1 0 1 467.92 437.66&#10;  Q 475.35 430.63 478.82 420.08&#10;  A 2.55 2.38 -16.5 0 1 479.32 419.23&#10;  C 482.17 416.08 485.92 412.21 489.02 407.82&#10;  Q 493.18 401.93 498.08 396.09&#10;  Q 499.43 394.48 501.13 393.44&#10;  A 0.42 0.42 0.0 0 1 501.75 393.93&#10;  L 500.74 396.98&#10;  A 2.47 2.46 -16.8 0 1 500.31 397.78&#10;  C 497.04 401.84 494.63 404.63 492.21 408.65&#10;  Q 486.33 418.41 481.13 425.71&#10;  Q 473.20 436.85 469.72 442.54&#10;  Q 460.02 458.41 452.68 473.89&#10;  Q 447.05 485.78 446.57 486.78&#10;  Q 443.64 492.84 443.24 495.58&#10;  C 442.50 500.69 442.08 507.55 447.29 510.36&#10;  Q 451.38 512.57 457.01 511.69&#10;  Q 467.94 509.98 479.36 507.06&#10;  A 1.61 1.59 14.8 0 0 480.13 506.62&#10;  Q 481.47 505.24 481.57 503.77&#10;  Q 481.82 500.28 483.01 497.14&#10;  Q 484.09 494.31 484.39 493.32&#10;  Q 496.29 453.68 502.08 436.28&#10;  Q 517.52 389.91 518.89 383.50&#10;  A 3.37 3.34 -23.5 0 1 519.31 382.45&#10;  Q 521.10 379.54 522.16 377.93&#10;  Q 522.66 377.17 522.68 376.91&#10;  A 1.51 1.51 0.0 0 0 520.71 375.35&#10;  L 517.43 376.42&#10;  A 1.69 1.56 20.8 0 0 517.18 376.52&#10;  C 488.61 391.99 460.62 411.51 437.80 435.02&#10;  Q 412.88 460.69 399.32 492.97&#10;  Q 397.60 497.07 397.40 499.75&#10;  C 397.13 503.41 396.20 509.33 401.66 509.58&#10;  Q 406.46 509.80 414.06 510.86&#10;  A 1.48 1.44 71.4 0 1 414.90 511.29&#10;  Q 416.33 512.76 415.36 514.59&#10;  A 1.19 1.16 -80.6 0 1 414.54 515.19&#10;  C 408.00 516.37 393.56 525.23 387.59 516.28&#10;  A 2.06 2.05 26.4 0 1 387.23 515.22&#10;  Q 386.32 500.40 390.90 487.16&#10;  C 398.12 466.28 411.66 445.54 424.71 428.70&#10;  Q 425.29 427.95 425.98 423.98&#10;  A 1.84 1.80 -19.6 0 1 426.42 423.08&#10;  C 434.42 414.31 442.11 407.62 450.88 400.27&#10;  Q 457.49 394.72 465.77 389.00&#10;  Q 474.31 383.10 488.57 372.91&#10;  C 493.08 369.69 499.25 366.17 503.54 363.79&#10;  Q 511.29 359.48 519.47 356.64&#10;  A 2.77 2.75 4.1 0 0 521.04 355.29&#10;  C 524.47 348.60 525.92 345.14 530.09 339.47&#10;  Q 550.74 311.43 565.61 291.38&#10;  Q 567.14 289.32 567.72 288.05&#10;  C 569.95 283.16 572.60 279.49 577.73 277.70&#10;  A 3.75 3.70 -76.7 0 0 579.04 276.88&#10;  Q 583.91 272.17 584.04 272.03&#10;  Q 587.53 268.28 591.97 270.59&#10;  A 2.33 2.29 56.8 0 0 593.20 270.86&#10;  Q 599.68 270.51 604.73 275.86&#10;  A 1.17 1.14 -67.1 0 1 605.04 276.65&#10;  L 604.91 293.96&#10;  A 4.16 3.72 -41.8 0 1 604.81 294.84&#10;  C 604.68 295.42 602.96 297.23 602.50 298.37&#10;  Q 599.89 305.03 598.87 306.56&#10;  Q 597.69 308.34 596.51 307.48&#10;  A 0.87 0.86 33.1 0 0 595.25 307.74&#10;  L 580.24 333.25&#10;  A 2.79 2.75 64.8 0 0 579.89 334.24&#10;  C 576.99 353.79 601.10 351.76 601.85 367.96&#10;  Q 602.02 371.64 602.21 373.03&#10;  Q 604.03 386.50 600.07 399.83&#10;  C 592.32 425.96 574.05 448.74 554.15 466.77&#10;  Q 538.45 480.99 519.21 490.94&#10;  Q 516.97 492.10 516.06 494.86&#10;  Q 514.55 499.41 511.26 509.63&#10;  A 6.90 6.65 71.6 0 1 510.49 511.24&#10;  C 506.65 517.24 505.15 524.38 502.41 531.94&#10;  C 499.11 541.01 499.03 551.66 496.30 561.29&#10;  A 5.83 5.76 55.0 0 0 496.11 562.41&#10;  C 495.95 565.14 495.43 568.10 493.29 569.33&#10;  A 0.40 0.40 0.0 0 1 492.69 568.98&#10;  Q 492.71 566.87 493.17 565.79&#10;  A 0.63 0.63 0.0 0 0 492.12 565.13&#10;  L 484.98 573.17&#10;  A 0.67 0.60 70.6 0 0 484.83 573.53&#10;  L 483.77 585.71&#10;  A 0.94 0.92 65.5 0 1 483.60 586.18&#10;  L 481.93 588.43&#10;  A 1.43 1.42 12.5 0 1 481.09 588.96&#10;  Q 478.16 589.59 475.02 588.44&#10;  A 0.49 0.49 0.0 0 0 474.37 588.85&#10;  L 473.98 593.33&#10;  A 0.79 0.79 0.0 0 1 473.26 594.06&#10;  Q 467.71 594.55 463.89 598.07&#10;  A 1.42 1.40 71.2 0 0 463.43 599.02&#10;  L 463.12 602.60&#10;  A 3.05 3.04 -87.0 0 1 460.03 605.39&#10;  L 459.84 605.38&#10;  A 2.48 2.47 2.8 0 1 457.36 602.65&#10;  C 457.79 598.60 458.92 592.34 461.79 589.41&#10;  A 2.07 2.06 48.7 0 1 464.91 589.62&#10;  Q 465.36 590.22 465.58 590.44&#10;  A 0.51 0.51 0.0 0 0 466.35 590.38&#10;  Q 469.63 586.03 469.82 584.52&#10;  Q 470.27 580.98 470.84 580.49&#10;  A 0.32 0.31 25.5 0 0 470.64 579.94&#10;  Z&#10;  M 523.19 474.40&#10;  Q 533.82 463.70 545.99 454.26&#10;  Q 550.16 451.02 553.75 446.95&#10;  Q 564.32 434.93 569.09 429.55&#10;  A 3.46 3.32 78.5 0 0 569.64 428.68&#10;  Q 578.40 408.06 579.83 404.07&#10;  C 582.54 396.49 584.48 389.28 583.02 382.47&#10;  C 581.28 374.35 574.05 370.48 566.84 367.07&#10;  A 0.30 0.30 0.0 0 0 566.44 367.21&#10;  C 556.32 387.88 545.87 415.80 539.10 431.11&#10;  C 532.66 445.67 528.29 461.88 522.85 474.17&#10;  A 0.21 0.21 0.0 0 0 523.19 474.40&#10;  Z"/>
<path fill="#41608b" d="&#10;  M 90.12 333.76&#10;  A 0.14 0.14 0.0 0 0 90.23 333.95&#10;  L 90.59 334.01&#10;  A 0.46 0.46 0.0 0 0 91.08 333.76&#10;  Q 93.59 328.36 98.75 328.06&#10;  A 1.40 1.39 -85.3 0 0 100.03 326.97&#10;  C 101.18 321.70 108.35 324.69 106.74 328.05&#10;  Q 105.88 329.85 105.33 332.06&#10;  A 1.51 1.49 -48.7 0 0 105.38 332.94&#10;  Q 105.84 334.16 107.01 338.09&#10;  Q 107.25 338.90 109.34 341.18&#10;  A 0.37 0.37 0.0 0 0 109.97 341.04&#10;  C 111.08 337.40 111.25 334.15 111.70 327.49&#10;  C 111.99 323.10 116.53 320.51 120.43 317.49&#10;  A 1.21 1.17 29.5 0 1 121.32 317.26&#10;  Q 124.16 317.70 124.41 320.83&#10;  Q 124.64 323.77 122.27 327.24&#10;  A 1.70 1.68 7.7 0 1 121.45 327.86&#10;  C 117.50 329.19 116.65 335.82 116.78 339.43&#10;  A 4.97 4.97 0.0 0 1 116.64 340.83&#10;  Q 115.83 344.26 115.98 347.78&#10;  A 1.16 1.16 0.0 0 0 117.68 348.76&#10;  L 117.75 348.72&#10;  A 3.02 3.02 0.0 0 0 119.34 346.35&#10;  Q 119.86 341.03 121.04 339.66&#10;  Q 122.66 337.77 125.43 335.01&#10;  A 2.55 2.49 17.2 0 1 126.84 334.29&#10;  Q 127.94 334.11 128.72 333.48&#10;  A 1.77 1.77 0.0 0 1 130.53 333.23&#10;  C 136.69 335.86 145.35 341.16 148.06 347.42&#10;  A 1.57 1.56 -20.5 0 0 149.98 348.29&#10;  C 152.50 347.48 153.29 344.42 155.28 343.42&#10;  Q 157.24 342.43 158.27 343.66&#10;  A 0.35 0.35 0.0 0 0 158.89 343.45&#10;  Q 159.01 341.43 161.01 342.12&#10;  Q 164.02 343.16 166.55 346.30&#10;  A 1.93 1.87 -71.9 0 1 166.94 347.10&#10;  Q 167.72 350.59 165.25 352.57&#10;  A 1.72 1.71 -63.6 0 1 164.16 352.94&#10;  Q 162.23 352.92 160.76 353.67&#10;  A 1.54 1.54 0.0 0 1 159.64 353.77&#10;  C 156.96 352.97 154.83 351.31 151.80 352.96&#10;  A 0.91 0.89 89.3 0 0 151.40 353.38&#10;  L 148.92 358.33&#10;  A 0.81 0.80 -3.1 0 1 148.63 358.65&#10;  L 144.87 361.14&#10;  A 1.49 1.46 -12.2 0 0 144.24 362.10&#10;  L 142.84 369.89&#10;  A 0.67 0.65 -25.7 0 1 142.77 370.08&#10;  L 139.51 376.42&#10;  A 2.35 2.21 81.9 0 1 139.20 376.86&#10;  Q 136.84 379.45 133.15 379.94&#10;  Q 129.20 380.45 125.27 380.00&#10;  A 2.20 2.16 -24.7 0 1 124.35 379.67&#10;  Q 121.70 377.91 118.21 375.58&#10;  Q 117.69 375.24 117.21 374.22&#10;  A 2.16 2.15 65.5 0 1 118.28 371.33&#10;  L 125.12 368.29&#10;  A 6.02 6.01 46.3 0 1 130.25 368.41&#10;  L 135.54 371.06&#10;  A 0.40 0.39 33.2 0 0 136.02 370.96&#10;  Q 137.59 369.15 136.58 367.61&#10;  A 1.53 1.52 37.2 0 1 136.40 366.33&#10;  Q 137.39 363.21 133.67 362.34&#10;  A 1.02 1.00 -62.2 0 0 132.70 362.65&#10;  L 131.21 364.33&#10;  A 1.71 1.71 0.0 0 1 129.34 364.81&#10;  Q 126.52 363.78 127.37 362.29&#10;  A 0.39 0.39 0.0 0 0 126.86 361.74&#10;  Q 125.31 362.49 123.20 364.74&#10;  A 2.65 2.65 0.0 0 1 120.07 365.31&#10;  L 117.77 364.16&#10;  A 1.20 1.18 -79.1 0 1 117.12 363.18&#10;  Q 116.94 360.62 117.92 358.26&#10;  Q 118.75 356.26 118.09 354.46&#10;  A 1.33 1.33 0.0 0 0 115.67 354.29&#10;  Q 115.06 355.42 114.93 357.00&#10;  Q 114.75 359.19 114.88 367.81&#10;  A 2.32 2.27 -34.1 0 1 114.68 368.79&#10;  Q 113.09 372.42 112.49 372.85&#10;  Q 110.07 374.62 111.04 377.48&#10;  A 1.65 1.61 -86.0 0 0 111.82 378.40&#10;  C 113.85 379.50 120.43 386.16 121.68 389.25&#10;  A 3.34 3.19 13.1 0 0 122.38 390.32&#10;  Q 126.57 394.56 129.11 399.53&#10;  A 5.91 5.77 11.6 0 0 129.89 400.68&#10;  Q 134.57 406.09 135.72 407.19&#10;  C 137.63 409.00 138.82 411.45 136.48 413.37&#10;  A 0.83 0.82 39.8 0 1 135.56 413.45&#10;  Q 132.16 411.51 131.35 410.66&#10;  C 126.17 405.18 122.39 400.77 116.59 396.96&#10;  Q 113.69 395.06 111.88 392.64&#10;  A 3.16 3.04 88.4 0 0 111.20 391.97&#10;  C 108.16 389.78 106.15 386.56 103.28 384.09&#10;  Q 102.16 383.13 99.99 380.61&#10;  Q 96.45 376.50 89.85 372.35&#10;  A 0.72 0.63 2.5 0 1 89.64 372.15&#10;  L 88.10 369.90&#10;  A 1.65 1.64 62.0 0 0 86.15 369.30&#10;  C 82.46 370.74 78.61 371.04 75.48 368.33&#10;  C 73.65 366.75 72.96 364.39 75.23 362.86&#10;  A 2.08 2.07 88.0 0 0 75.87 362.17&#10;  L 78.41 357.68&#10;  A 1.24 1.19 64.3 0 0 78.55 357.25&#10;  L 79.75 345.45&#10;  A 0.61 0.61 0.0 0 0 79.31 344.80&#10;  C 77.28 344.22 76.15 346.17 74.42 345.74&#10;  Q 69.10 344.43 69.79 338.90&#10;  A 0.97 0.96 66.3 0 1 69.95 338.48&#10;  L 73.23 333.43&#10;  A 1.13 1.10 -81.8 0 1 73.83 332.97&#10;  Q 76.37 332.11 76.79 332.00&#10;  C 78.78 331.50 79.88 328.55 80.74 326.68&#10;  A 2.08 2.03 54.9 0 0 80.92 325.56&#10;  Q 80.47 321.97 82.36 318.53&#10;  C 83.46 316.54 85.30 316.08 86.45 314.23&#10;  A 1.20 1.19 -71.5 0 1 87.58 313.66&#10;  L 90.39 313.90&#10;  A 3.17 3.17 0.0 0 1 93.29 317.06&#10;  L 93.29 324.00&#10;  A 2.56 2.45 55.8 0 1 93.15 324.83&#10;  L 90.12 333.76&#10;  Z&#10;  M 97.68 366.15&#10;  A 0.54 0.54 0.0 0 0 98.02 365.15&#10;  Q 95.38 363.44 95.77 360.39&#10;  A 1.00 1.00 0.0 0 0 95.26 359.38&#10;  Q 93.61 358.48 92.49 357.14&#10;  A 1.85 1.81 -70.1 0 1 92.08 356.24&#10;  Q 91.45 352.02 96.25 351.25&#10;  A 1.95 1.93 83.8 0 0 97.87 349.22&#10;  Q 97.74 346.84 98.34 344.44&#10;  A 2.80 2.76 -39.8 0 0 98.42 343.63&#10;  Q 98.25 340.34 97.64 339.37&#10;  Q 96.30 337.23 91.85 335.04&#10;  A 0.46 0.45 -68.2 0 0 91.21 335.32&#10;  Q 91.17 335.45 91.46 335.83&#10;  Q 91.72 336.17 91.59 336.74&#10;  Q 91.02 339.20 91.12 341.63&#10;  A 1.22 1.06 -40.9 0 1 91.06 342.05&#10;  L 89.15 347.73&#10;  A 1.23 1.10 -41.9 0 0 89.09 348.29&#10;  L 91.01 365.50&#10;  A 0.59 0.59 0.0 0 0 91.62 366.02&#10;  Q 92.35 366.00 92.96 365.75&#10;  A 0.23 0.11 18.4 0 1 93.03 365.74&#10;  L 97.68 366.15&#10;  Z&#10;  M 103.61 345.45&#10;  Q 102.65 348.31 103.57 351.58&#10;  A 1.38 1.35 -81.9 0 0 104.15 352.37&#10;  Q 105.67 353.33 107.40 353.67&#10;  A 0.72 0.72 0.0 0 0 108.23 353.16&#10;  L 108.76 351.28&#10;  A 1.35 1.33 -50.8 0 0 108.67 350.32&#10;  Q 107.33 347.56 104.34 345.23&#10;  A 0.47 0.47 0.0 0 0 103.61 345.45&#10;  Z&#10;  M 139.49 357.88&#10;  L 140.75 356.15&#10;  A 0.93 0.93 0.0 0 0 140.65 354.94&#10;  C 139.49 353.81 139.76 352.16 138.29 351.06&#10;  Q 134.92 348.54 130.78 347.77&#10;  A 1.23 1.19 29.2 0 0 129.78 348.04&#10;  Q 127.81 349.76 128.18 352.80&#10;  A 0.93 0.93 0.0 0 0 129.76 353.34&#10;  Q 132.19 350.89 135.14 353.80&#10;  A 0.48 0.45 12.3 0 1 135.27 353.99&#10;  L 136.78 357.57&#10;  A 1.57 1.57 0.0 0 0 139.49 357.88&#10;  Z&#10;  M 102.03 367.25&#10;  C 103.37 368.59 102.99 370.45 106.02 371.22&#10;  A 0.69 0.68 11.6 0 0 106.87 370.67&#10;  L 108.39 361.69&#10;  A 1.39 1.39 0.0 0 0 106.35 360.24&#10;  Q 104.72 361.15 104.83 363.55&#10;  A 1.15 1.12 -21.4 0 1 104.42 364.46&#10;  L 102.04 366.39&#10;  A 0.56 0.56 0.0 0 0 102.03 367.25&#10;  Z"/>
<path fill="#41608b" d="&#10;  M 914.10 368.25&#10;  A 0.48 0.48 0.0 0 0 914.21 369.20&#10;  L 922.35 369.20&#10;  A 0.61 0.61 0.0 0 0 922.89 368.87&#10;  Q 923.43 367.83 923.10 367.12&#10;  A 1.06 1.06 0.0 0 1 923.20 366.04&#10;  Q 924.50 364.26 926.36 364.87&#10;  A 1.82 1.73 -10.8 0 1 927.15 365.38&#10;  Q 929.54 368.07 929.27 371.48&#10;  A 0.53 0.53 0.0 0 0 929.81 372.05&#10;  Q 932.09 372.00 933.27 370.73&#10;  A 2.31 2.18 -15.3 0 0 933.72 369.99&#10;  Q 934.94 366.64 938.49 367.15&#10;  Q 940.29 367.40 942.48 370.10&#10;  A 2.14 2.07 -70.7 0 1 942.90 371.01&#10;  Q 943.49 374.06 941.83 376.56&#10;  A 1.30 1.28 -78.8 0 1 941.04 377.10&#10;  C 935.03 378.38 928.95 378.90 922.94 379.94&#10;  Q 918.30 380.74 914.21 382.47&#10;  A 0.81 0.81 0.0 0 0 913.91 383.74&#10;  Q 915.92 386.10 918.06 387.36&#10;  A 2.34 2.34 0.0 0 1 918.98 390.38&#10;  Q 917.92 392.60 918.10 394.39&#10;  A 1.78 1.75 -31.1 0 1 917.80 395.55&#10;  Q 917.00 396.72 916.84 398.14&#10;  A 1.19 1.19 0.0 0 1 916.29 399.00&#10;  Q 913.24 400.90 912.50 400.99&#10;  C 909.26 401.39 904.81 402.39 902.93 400.38&#10;  Q 899.50 396.74 901.91 391.90&#10;  A 2.19 2.19 0.0 0 0 901.82 389.77&#10;  Q 900.57 387.74 900.22 386.89&#10;  A 1.90 1.80 5.2 0 1 902.98 384.71&#10;  Q 904.04 385.34 905.41 385.01&#10;  A 1.57 1.29 63.4 0 0 905.94 382.69&#10;  Q 902.86 378.42 900.45 374.94&#10;  A 0.97 0.64 15.1 0 0 900.30 374.77&#10;  L 889.42 365.11&#10;  A 0.17 0.12 -9.2 0 0 889.34 365.07&#10;  Q 888.29 364.78 888.00 364.52&#10;  Q 881.94 359.22 874.77 355.48&#10;  Q 874.45 355.31 874.01 355.52&#10;  A 0.65 0.63 -42.3 0 1 873.41 355.50&#10;  Q 871.25 354.31 869.08 354.96&#10;  Q 865.36 356.08 864.02 352.79&#10;  A 1.36 1.23 -57.4 0 1 863.93 352.26&#10;  L 864.15 348.62&#10;  A 1.07 1.06 71.9 0 1 864.52 347.88&#10;  Q 865.94 346.70 866.11 345.26&#10;  A 1.62 1.59 -21.5 0 1 866.49 344.41&#10;  Q 869.21 341.29 873.66 341.09&#10;  Q 876.51 340.96 877.76 341.92&#10;  A 1.35 1.35 0.0 0 0 878.57 342.19&#10;  L 880.04 342.19&#10;  A 2.65 2.44 -31.9 0 1 880.99 342.37&#10;  Q 885.21 344.00 888.07 345.98&#10;  A 3.12 3.12 0.0 0 1 889.35 349.22&#10;  Q 889.01 350.78 886.49 351.42&#10;  A 0.62 0.62 0.0 0 0 886.06 352.24&#10;  Q 887.73 356.59 891.97 358.85&#10;  A 1.01 0.98 45.6 0 0 892.89 358.87&#10;  Q 895.07 357.78 896.70 355.61&#10;  A 0.72 0.72 0.0 0 0 896.61 354.64&#10;  L 894.37 352.65&#10;  A 1.01 1.00 -54.7 0 1 894.16 351.39&#10;  Q 898.23 344.23 906.35 342.34&#10;  A 4.70 4.56 21.7 0 0 907.66 341.80&#10;  C 909.72 340.53 913.47 338.46 915.18 340.87&#10;  A 1.52 1.50 34.8 0 1 915.41 342.11&#10;  C 914.99 343.82 913.28 347.15 914.26 349.07&#10;  A 2.03 1.91 -27.7 0 0 916.99 349.83&#10;  Q 922.95 346.60 930.04 342.16&#10;  A 1.46 1.46 0.0 0 1 931.94 342.48&#10;  Q 935.30 346.60 933.15 350.84&#10;  A 0.77 0.77 0.0 0 0 933.63 351.92&#10;  L 939.77 353.65&#10;  A 1.92 1.92 0.0 0 1 941.16 355.41&#10;  Q 941.28 358.32 938.36 360.05&#10;  A 3.70 3.68 6.5 0 0 937.60 360.65&#10;  Q 937.38 360.88 937.18 361.34&#10;  A 0.97 0.97 0.0 0 1 936.03 361.88&#10;  L 933.63 361.20&#10;  A 0.43 0.43 0.0 0 0 933.13 361.82&#10;  Q 933.45 362.40 934.36 362.65&#10;  A 0.64 0.63 -60.8 0 1 934.65 363.70&#10;  C 931.83 366.70 928.85 364.22 925.98 361.89&#10;  A 0.88 0.87 50.7 0 0 925.02 361.79&#10;  L 922.92 362.92&#10;  A 1.18 1.17 81.9 0 0 922.32 363.73&#10;  Q 921.38 368.34 916.48 368.17&#10;  Q 914.71 368.11 914.10 368.25&#10;  Z&#10;  M 931.5314 352.5418&#10;  A 4.37 1.14 -12.8 0 0 927.0174 352.3983&#10;  A 4.37 1.14 -12.8 0 0 923.0086 354.4782&#10;  A 4.37 1.14 -12.8 0 0 927.5226 354.6217&#10;  A 4.37 1.14 -12.8 0 0 931.5314 352.5418&#10;  Z&#10;  M 912.50 356.45&#10;  L 915.36 359.96&#10;  A 0.89 0.86 -15.0 0 0 915.90 360.26&#10;  Q 917.68 360.50 919.16 360.09&#10;  A 0.72 0.72 0.0 0 0 919.52 358.94&#10;  L 919.15 358.48&#10;  A 1.18 1.17 -19.8 0 0 918.25 358.06&#10;  L 916.20 358.06&#10;  A 0.88 0.87 65.4 0 1 915.62 357.84&#10;  L 913.25 355.73&#10;  A 0.52 0.52 0.0 0 0 912.50 356.45&#10;  Z&#10;  M 899.18 366.62&#10;  A 0.65 0.65 0.0 0 0 900.12 365.74&#10;  Q 898.98 364.26 898.96 364.09&#10;  A 1.78 1.48 2.9 0 1 901.03 362.53&#10;  Q 904.57 363.10 906.49 362.88&#10;  Q 907.16 362.80 907.46 362.51&#10;  Q 907.82 362.16 907.84 361.50&#10;  C 907.89 360.21 909.93 358.17 910.26 357.70&#10;  A 0.43 0.43 0.0 0 0 910.18 357.12&#10;  L 910.10 357.05&#10;  A 0.45 0.44 41.5 0 0 909.50 357.08&#10;  Q 906.81 359.85 904.26 360.07&#10;  Q 899.22 360.52 896.14 361.46&#10;  A 0.71 0.70 67.2 0 0 895.73 362.48&#10;  Q 896.92 364.60 899.18 366.62&#10;  Z&#10;  M 900.49 367.81&#10;  Q 902.30 370.06 904.29 371.23&#10;  A 3.65 3.57 87.1 0 1 905.44 372.29&#10;  Q 906.46 373.72 908.41 375.72&#10;  Q 910.04 377.38 911.82 376.39&#10;  A 0.68 0.67 69.8 0 0 912.16 375.65&#10;  L 911.50 372.54&#10;  A 0.62 0.62 0.0 0 0 910.82 372.05&#10;  Q 910.39 372.09 909.53 372.40&#10;  A 3.65 3.22 -18.2 0 1 904.93 370.43&#10;  Q 904.67 369.56 904.74 367.60&#10;  A 0.62 0.61 88.0 0 0 904.06 366.96&#10;  L 900.69 367.34&#10;  A 0.29 0.29 0.0 0 0 900.49 367.81&#10;  Z&#10;  M 919.43 375.05&#10;  Q 920.60 375.05 921.21 374.86&#10;  A 0.34 0.34 0.0 0 0 921.32 374.27&#10;  Q 920.28 373.44 919.43 373.44&#10;  Q 918.57 373.44 917.53 374.26&#10;  A 0.34 0.34 0.0 0 0 917.64 374.86&#10;  Q 918.25 375.05 919.43 375.05&#10;  Z"/>
<path fill="#41608b" d="&#10;  M 859.86 357.88&#10;  Q 862.15 364.02 862.67 364.92&#10;  C 864.62 368.30 868.87 370.46 870.63 373.77&#10;  A 2.23 2.23 0.0 0 0 871.55 374.69&#10;  Q 873.15 375.55 875.45 378.33&#10;  A 0.65 0.65 0.0 0 0 876.45 378.33&#10;  Q 876.74 377.99 876.67 377.32&#10;  A 1.31 1.27 -75.0 0 1 878.70 376.11&#10;  Q 881.52 378.26 884.69 378.36&#10;  A 0.52 0.52 0.0 0 0 885.16 377.59&#10;  L 884.05 375.51&#10;  A 0.92 0.92 0.0 0 0 883.51 375.07&#10;  Q 878.96 373.73 877.32 369.52&#10;  A 2.01 2.01 0.0 0 1 879.31 366.78&#10;  L 888.91 367.34&#10;  A 1.78 1.77 80.2 0 1 890.43 368.42&#10;  Q 892.03 372.20 893.53 375.23&#10;  Q 893.81 375.80 894.77 376.18&#10;  C 896.73 376.97 898.06 379.24 898.91 381.27&#10;  A 1.83 1.82 64.6 0 1 898.09 383.59&#10;  L 893.62 385.99&#10;  A 1.38 1.37 40.7 0 1 892.50 386.07&#10;  Q 888.30 384.61 884.97 384.10&#10;  Q 884.27 383.99 883.79 383.55&#10;  C 882.82 382.68 881.57 383.30 880.74 382.26&#10;  A 0.59 0.59 0.0 0 0 879.74 382.86&#10;  Q 880.64 384.93 883.24 387.23&#10;  A 3.56 3.46 -85.9 0 1 883.83 387.93&#10;  L 887.07 393.04&#10;  A 2.89 2.89 0.0 0 1 887.07 396.12&#10;  L 884.67 399.90&#10;  A 0.66 0.55 -12.9 0 1 884.57 400.03&#10;  L 882.69 401.85&#10;  A 0.71 0.71 0.0 0 1 881.78 401.91&#10;  C 879.32 400.13 878.81 397.31 877.90 394.05&#10;  A 3.13 2.97 21.1 0 0 877.45 393.10&#10;  L 875.08 389.70&#10;  A 0.74 0.73 -34.2 0 0 874.07 389.51&#10;  L 867.62 393.90&#10;  A 2.65 2.53 17.7 0 1 866.90 394.25&#10;  L 863.55 395.21&#10;  A 3.00 2.82 -50.9 0 1 862.66 395.33&#10;  Q 855.54 395.17 855.33 395.12&#10;  C 854.27 394.87 853.44 394.29 852.13 394.27&#10;  Q 848.30 394.21 845.67 391.60&#10;  A 3.00 2.98 -56.4 0 1 845.02 388.33&#10;  Q 845.72 386.63 845.90 384.62&#10;  A 1.87 1.82 32.1 0 0 845.63 383.50&#10;  C 844.32 381.36 841.97 378.32 845.58 376.71&#10;  A 1.37 1.32 -47.6 0 1 846.53 376.65&#10;  C 849.06 377.43 850.10 379.30 851.95 381.75&#10;  Q 852.72 382.77 855.16 384.21&#10;  A 2.42 2.29 85.3 0 1 855.86 384.84&#10;  Q 857.07 386.46 857.98 386.66&#10;  Q 863.57 387.92 869.43 385.00&#10;  A 0.96 0.96 0.0 0 0 869.95 384.07&#10;  Q 869.79 382.04 868.20 380.48&#10;  Q 863.93 376.33 859.44 371.71&#10;  A 2.73 2.65 77.7 0 0 858.49 371.08&#10;  Q 855.81 370.04 853.75 366.36&#10;  A 2.27 2.23 29.2 0 1 853.47 365.40&#10;  Q 853.10 359.17 859.21 357.54&#10;  A 0.55 0.55 0.0 0 1 859.86 357.88&#10;  Z"/>
<path fill="#41608b" d="&#10;  M 140.05 389.99&#10;  A 2.41 2.41 0.0 0 1 138.43 387.63&#10;  Q 138.62 381.91 141.15 377.58&#10;  A 1.17 1.16 -73.9 0 1 142.19 377.00&#10;  Q 143.92 377.03 144.90 378.70&#10;  Q 146.43 381.30 149.79 383.49&#10;  C 151.58 384.65 151.10 386.14 150.29 387.98&#10;  Q 149.47 389.83 148.46 390.33&#10;  C 146.06 391.52 142.60 390.89 140.05 389.99&#10;  Z"/>
<path fill="#41608b" d="&#10;  M 594.88 455.18&#10;  A 0.86 0.86 0.0 0 1 594.32 453.67&#10;  L 606.68 443.19&#10;  A 2.35 2.34 51.8 0 1 610.09 443.60&#10;  L 610.26 443.83&#10;  A 2.19 2.19 0.0 0 1 609.57 447.06&#10;  Q 606.31 448.85 603.13 450.61&#10;  Q 602.14 451.15 600.30 454.29&#10;  A 1.81 1.79 15.0 0 1 598.74 455.18&#10;  L 594.88 455.18&#10;  Z"/>
<circle fill="#41608b" cx="88.89" cy="466.09" r="9.63"/>
<circle fill="#41608b" cx="920.51" cy="466.09" r="9.64"/>
<path fill="#41608b" d="&#10;  M 897.80 534.51&#10;  L 899.10 509.66&#10;  A 0.43 0.42 2.6 0 1 899.55 509.26&#10;  L 903.70 509.50&#10;  A 0.45 0.44 -87.4 0 1 904.12 509.96&#10;  L 903.14 528.60&#10;  A 0.43 0.43 0.0 0 0 903.55 529.06&#10;  L 916.67 529.85&#10;  A 0.46 0.46 0.0 0 0 917.15 529.41&#10;  L 918.10 512.27&#10;  A 0.44 0.43 2.6 0 1 918.56 511.86&#10;  L 922.65 512.07&#10;  A 0.45 0.45 0.0 0 1 923.09 512.54&#10;  L 922.21 529.51&#10;  A 0.54 0.54 0.0 0 0 922.72 530.07&#10;  L 937.69 530.93&#10;  A 0.63 0.62 -87.0 0 0 938.35 530.33&#10;  L 939.39 510.36&#10;  A 0.37 0.37 0.0 0 1 939.78 510.00&#10;  L 944.07 510.24&#10;  A 0.37 0.37 0.0 0 1 944.41 510.63&#10;  L 943.06 536.67&#10;  A 0.59 0.59 0.0 0 1 942.44 537.24&#10;  L 898.17 534.93&#10;  A 0.40 0.39 -87.5 0 1 897.80 534.51&#10;  Z"/>
<path fill="#41608b" d="&#10;  M 61.41 536.46&#10;  A 0.35 0.35 0.0 0 0 61.56 535.89&#10;  C 53.81 527.57 59.17 517.36 68.68 514.12&#10;  C 78.62 510.76 102.49 508.85 104.07 524.76&#10;  C 104.96 533.70 97.18 538.58 89.35 539.11&#10;  A 0.23 0.23 0.0 0 1 89.10 538.90&#10;  L 88.65 533.63&#10;  A 0.33 0.33 0.0 0 1 88.95 533.28&#10;  C 93.79 532.97 99.67 530.96 99.01 524.97&#10;  C 97.98 515.57 80.02 518.14 73.54 519.26&#10;  C 69.03 520.04 63.79 522.50 63.00 527.14&#10;  Q 62.47 530.21 64.51 532.57&#10;  C 67.23 535.72 72.15 535.43 76.23 534.91&#10;  A 0.56 0.55 -6.1 0 0 76.72 534.31&#10;  L 76.11 527.20&#10;  A 0.47 0.46 85.0 0 1 76.53 526.70&#10;  L 80.53 526.36&#10;  A 0.56 0.56 0.0 0 1 81.14 526.87&#10;  L 82.20 539.19&#10;  A 0.57 0.57 0.0 0 1 81.67 539.81&#10;  L 59.76 541.69&#10;  A 0.71 0.70 84.8 0 1 58.99 541.05&#10;  L 58.71 537.86&#10;  A 0.67 0.67 0.0 0 1 59.17 537.18&#10;  L 61.41 536.46&#10;  Z"/>
<path fill="#41608b" d="&#10;  M 917.59 559.32&#10;  Q 912.82 560.49 905.91 562.20&#10;  A 0.20 0.20 0.0 0 0 905.93 562.60&#10;  L 937.54 568.15&#10;  A 0.34 0.34 0.0 0 1 937.82 568.54&#10;  L 936.88 573.92&#10;  A 0.31 0.31 0.0 0 1 936.52 574.16&#10;  L 892.76 566.48&#10;  A 0.63 0.63 0.0 0 1 892.26 565.76&#10;  L 893.17 560.55&#10;  A 1.09 1.07 -3.6 0 1 893.92 559.70&#10;  Q 895.41 559.26 916.20 554.12&#10;  Q 920.97 552.94 927.87 551.23&#10;  A 0.20 0.20 0.0 0 0 927.86 550.83&#10;  L 896.24 545.28&#10;  A 0.34 0.34 0.0 0 1 895.97 544.88&#10;  L 896.91 539.51&#10;  A 0.31 0.31 0.0 0 1 897.27 539.26&#10;  L 941.03 546.95&#10;  A 0.63 0.63 0.0 0 1 941.53 547.67&#10;  L 940.62 552.88&#10;  A 1.09 1.07 -3.6 0 1 939.86 553.72&#10;  Q 938.38 554.16 917.59 559.32&#10;  Z"/>
<path fill="#41608b" d="&#10;  M 60.88 564.21&#10;  C 59.95 556.64 62.94 550.70 71.01 549.23&#10;  Q 74.97 548.50 104.50 545.02&#10;  A 0.40 0.39 -5.0 0 1 104.95 545.38&#10;  L 105.32 550.76&#10;  A 0.30 0.30 0.0 0 1 105.05 551.08&#10;  Q 73.74 554.86 72.91 554.99&#10;  C 68.07 555.79 65.36 558.80 65.95 563.60&#10;  C 66.54 568.39 69.88 570.65 74.77 570.26&#10;  Q 75.62 570.19 106.91 566.31&#10;  A 0.30 0.30 0.0 0 1 107.25 566.56&#10;  L 108.19 571.87&#10;  A 0.40 0.39 -8.9 0 1 107.84 572.32&#10;  Q 78.34 576.06 74.32 576.32&#10;  C 66.14 576.83 61.81 571.79 60.88 564.21&#10;  Z"/>
<path fill="#da422a" d="&#10;  M 492.56 572.05&#10;  C 494.74 573.85 494.10 576.28 492.68 578.39&#10;  A 1.19 1.15 4.6 0 1 492.13 578.84&#10;  Q 491.69 579.00 491.27 578.99&#10;  A 1.76 1.51 -86.6 0 1 489.83 577.10&#10;  Q 490.05 574.60 491.79 572.16&#10;  A 0.53 0.53 0.0 0 1 492.56 572.05&#10;  Z"/>
<path fill="#41608b" d="&#10;  M 887.51 588.41&#10;  L 888.74 583.11&#10;  A 0.33 0.33 0.0 0 1 889.13 582.86&#10;  L 932.66 592.92&#10;  A 0.33 0.33 0.0 0 1 932.91 593.31&#10;  L 931.67 598.61&#10;  A 0.33 0.33 0.0 0 1 931.28 598.86&#10;  L 887.76 588.80&#10;  A 0.33 0.33 0.0 0 1 887.51 588.41&#10;  Z"/>
<path fill="#41608b" d="&#10;  M 112.20 590.24&#10;  Q 112.42 591.29 112.55 592.30&#10;  A 0.87 0.86 72.4 0 1 112.10 593.18&#10;  L 71.04 615.17&#10;  A 0.31 0.31 0.0 0 1 70.59 614.96&#10;  L 69.48 609.74&#10;  A 0.49 0.48 70.4 0 1 69.73 609.20&#10;  L 81.88 602.69&#10;  A 0.51 0.50 73.2 0 0 82.15 602.18&#10;  C 81.95 600.37 81.37 598.72 80.98 596.90&#10;  C 80.59 595.07 80.45 593.33 79.89 591.60&#10;  A 0.51 0.50 82.8 0 0 79.44 591.24&#10;  L 65.69 590.26&#10;  A 0.49 0.48 85.5 0 1 65.24 589.87&#10;  L 64.12 584.65&#10;  A 0.31 0.31 0.0 0 1 64.45 584.27&#10;  L 110.91 587.59&#10;  A 0.87 0.86 83.5 0 1 111.68 588.20&#10;  Q 111.97 589.19 112.20 590.24&#10;  Z&#10;  M 86.02 595.80&#10;  Q 86.85 599.75 86.91 599.98&#10;  A 0.33 0.32 69.0 0 0 87.37 600.19&#10;  L 101.51 592.89&#10;  A 0.44 0.32 -12.3 0 0 101.72 592.65&#10;  Q 101.74 592.58 101.72 592.50&#10;  Q 101.71 592.43 101.66 592.37&#10;  A 0.44 0.32 -11.5 0 0 101.37 592.23&#10;  L 85.49 591.24&#10;  A 0.33 0.32 87.3 0 0 85.15 591.62&#10;  Q 85.19 591.85 86.02 595.80&#10;  Z"/>
<ellipse fill="#da422a" cx="0.00" cy="0.00" transform="translate(481.36,595.48) rotate(-135.4)" rx="1.67" ry="1.49"/>
<path fill="#da422a" d="&#10;  M 468.75 606.04&#10;  Q 468.59 606.04 468.52 606.03&#10;  A 0.82 0.81 10.8 0 1 467.86 605.07&#10;  L 468.21 603.28&#10;  A 0.75 0.74 -70.5 0 0 467.83 602.47&#10;  C 466.52 601.76 467.26 600.24 467.58 599.05&#10;  Q 467.76 598.35 467.97 598.15&#10;  A 0.85 0.84 36.9 0 1 468.98 598.01&#10;  Q 471.21 599.24 472.44 596.72&#10;  A 0.65 0.64 22.9 0 1 473.25 596.40&#10;  L 476.39 597.61&#10;  A 0.93 0.93 0.0 0 1 476.98 598.36&#10;  Q 477.39 601.58 474.76 603.52&#10;  A 1.74 1.71 -16.9 0 0 474.07 604.79&#10;  L 473.91 607.50&#10;  A 0.68 0.67 -10.9 0 1 473.51 608.08&#10;  Q 472.71 608.45 471.74 609.65&#10;  A 0.96 0.96 0.0 0 0 471.60 610.61&#10;  L 472.07 611.81&#10;  A 1.21 1.20 -20.2 0 1 471.34 613.38&#10;  L 468.50 614.36&#10;  A 0.48 0.38 -51.3 0 1 468.32 614.40&#10;  Q 466.86 614.49 466.84 611.42&#10;  Q 466.83 610.74 468.15 609.44&#10;  Q 469.03 608.56 469.35 606.77&#10;  A 0.62 0.62 0.0 0 0 468.75 606.04&#10;  Z"/>
<path fill="#41608b" d="&#10;  M 908.29 616.47&#10;  L 909.58 612.57&#10;  A 0.98 0.98 0.0 0 1 910.90 611.98&#10;  C 915.58 614.07 920.15 616.19 922.34 620.45&#10;  C 927.54 630.60 918.77 641.32 907.99 640.43&#10;  Q 895.61 639.41 885.50 632.53&#10;  C 879.02 628.12 875.88 618.28 881.37 611.93&#10;  Q 888.05 604.22 898.95 608.54&#10;  A 0.23 0.22 20.6 0 1 899.08 608.82&#10;  L 897.48 613.77&#10;  A 0.35 0.35 0.0 0 1 897.04 613.99&#10;  C 890.90 611.98 883.78 612.14 883.73 619.91&#10;  C 883.70 626.47 892.66 629.78 897.59 631.65&#10;  C 902.55 633.53 911.01 635.94 915.56 632.71&#10;  C 921.50 628.49 918.45 621.92 912.79 619.44&#10;  Q 909.44 617.97 909.15 617.93&#10;  A 1.13 1.13 0.0 0 1 908.29 616.47&#10;  Z"/>
<path fill="#da422a" d="&#10;  M 456.17 617.97&#10;  Q 453.89 611.61 458.95 608.14&#10;  A 1.34 1.34 0.0 0 1 461.04 609.25&#10;  L 461.04 611.74&#10;  A 1.41 1.39 -20.9 0 1 460.56 612.79&#10;  Q 458.32 614.73 458.90 617.74&#10;  A 0.64 0.64 0.0 0 1 458.27 618.50&#10;  L 456.93 618.50&#10;  A 0.81 0.80 -9.7 0 1 456.17 617.97&#10;  Z"/>
<path fill="#41608b" d="&#10;  M 96.50 626.38&#10;  Q 100.22 623.18 105.60 618.54&#10;  A 0.20 0.20 0.0 0 0 105.41 618.19&#10;  L 74.75 627.54&#10;  A 0.34 0.34 0.0 0 1 74.32 627.31&#10;  L 72.73 622.10&#10;  A 0.31 0.31 0.0 0 1 72.94 621.72&#10;  L 115.37 608.77&#10;  A 0.62 0.62 0.0 0 1 116.15 609.19&#10;  L 117.69 614.24&#10;  A 1.08 1.07 -30.5 0 1 117.40 615.33&#10;  Q 116.27 616.39 100.09 630.37&#10;  Q 96.38 633.58 91.00 638.23&#10;  A 0.20 0.20 0.0 0 0 91.20 638.58&#10;  L 121.85 629.22&#10;  A 0.34 0.34 0.0 0 1 122.28 629.45&#10;  L 123.87 634.66&#10;  A 0.31 0.31 0.0 0 1 123.66 635.04&#10;  L 81.23 647.99&#10;  A 0.62 0.62 0.0 0 1 80.46 647.57&#10;  L 78.92 642.52&#10;  A 1.08 1.07 -30.5 0 1 79.20 641.43&#10;  Q 80.33 640.37 96.50 626.38&#10;  Z"/>
<path fill="#41608b" d="&#10;  M 93.95 675.23&#10;  C 83.90 669.89 85.64 658.48 93.58 652.32&#10;  C 101.89 645.89 123.85 636.29 130.53 650.83&#10;  C 134.29 659.00 128.53 666.15 121.29 669.21&#10;  A 0.23 0.23 0.0 0 1 120.99 669.09&#10;  L 118.84 664.25&#10;  A 0.33 0.33 0.0 0 1 119.01 663.82&#10;  C 123.49 661.95 128.39 658.13 125.82 652.68&#10;  C 121.77 644.12 105.62 652.42 99.86 655.59&#10;  C 95.84 657.80 91.69 661.84 92.46 666.48&#10;  Q 92.96 669.56 95.66 671.13&#10;  C 99.26 673.22 103.82 671.34 107.51 669.52&#10;  A 0.56 0.56 0.0 0 0 107.78 668.79&#10;  L 104.88 662.26&#10;  A 0.47 0.47 0.0 0 1 105.11 661.65&#10;  L 108.79 660.02&#10;  A 0.56 0.56 0.0 0 1 109.53 660.31&#10;  L 114.55 671.62&#10;  A 0.57 0.57 0.0 0 1 114.26 672.38&#10;  L 94.14 681.31&#10;  A 0.71 0.70 65.8 0 1 93.20 680.95&#10;  L 91.90 678.03&#10;  A 0.67 0.67 0.0 0 1 92.11 677.23&#10;  L 93.99 675.82&#10;  A 0.35 0.35 0.0 0 0 93.95 675.23&#10;  Z"/>
<path fill="#41608b" d="&#10;  M 911.54 663.30&#10;  L 909.70 668.10&#10;  A 0.47 0.47 0.0 0 1 909.09 668.37&#10;  L 867.65 652.47&#10;  A 0.47 0.47 0.0 0 1 867.38 651.86&#10;  L 869.22 647.06&#10;  A 0.47 0.47 0.0 0 1 869.83 646.79&#10;  L 911.27 662.69&#10;  A 0.47 0.47 0.0 0 1 911.54 663.30&#10;  Z"/>
<path fill="#41608b" d="&#10;  M 109.92 714.40&#10;  L 96.94 690.17&#10;  A 0.44 0.44 0.0 0 1 97.12 689.57&#10;  L 101.10 687.44&#10;  A 0.44 0.44 0.0 0 1 101.33 687.39&#10;  L 141.69 689.77&#10;  A 0.44 0.44 0.0 0 0 142.11 689.13&#10;  L 133.28 672.64&#10;  A 0.44 0.44 0.0 0 1 133.46 672.04&#10;  L 137.11 670.09&#10;  A 0.44 0.44 0.0 0 1 137.71 670.27&#10;  L 149.57 692.41&#10;  A 0.44 0.44 0.0 0 1 149.39 693.01&#10;  L 145.40 695.14&#10;  A 0.44 0.44 0.0 0 1 145.17 695.19&#10;  L 104.82 692.81&#10;  A 0.44 0.44 0.0 0 0 104.40 693.45&#10;  L 114.35 712.03&#10;  A 0.44 0.44 0.0 0 1 114.17 712.63&#10;  L 110.52 714.58&#10;  A 0.44 0.44 0.0 0 1 109.92 714.40&#10;  Z"/>
<path fill="#41608b" d="&#10;  M 849.17 690.54&#10;  A 0.36 0.36 0.0 0 1 849.02 690.06&#10;  L 853.50 681.29&#10;  A 18.03 17.77 27.1 0 1 877.65 673.68&#10;  L 886.02 677.97&#10;  A 18.03 17.77 27.1 0 1 893.97 702.00&#10;  L 889.49 710.77&#10;  A 0.36 0.36 0.0 0 1 889.00 710.92&#10;  L 849.17 690.54&#10;  Z&#10;  M 857.00 687.78&#10;  L 886.91 702.96&#10;  A 0.94 0.94 0.0 0 0 888.18 702.54&#10;  L 889.43 700.07&#10;  A 13.30 11.81 26.9 0 0 882.91 683.52&#10;  L 875.05 679.53&#10;  A 13.30 11.81 26.9 0 0 857.84 684.05&#10;  L 856.59 686.52&#10;  A 0.94 0.94 0.0 0 0 857.00 687.78&#10;  Z"/>
<path fill="#41608b" d="&#10;  M 833.49 718.61&#10;  L 845.95 697.05&#10;  A 0.43 0.42 29.6 0 1 846.53 696.89&#10;  L 850.12 699.00&#10;  A 0.45 0.44 -60.4 0 1 850.28 699.60&#10;  L 840.94 715.77&#10;  A 0.43 0.43 0.0 0 0 841.09 716.36&#10;  L 852.43 723.03&#10;  A 0.46 0.46 0.0 0 0 853.06 722.87&#10;  L 861.70 708.01&#10;  A 0.44 0.43 29.7 0 1 862.30 707.85&#10;  L 865.85 709.90&#10;  A 0.45 0.45 0.0 0 1 866.02 710.51&#10;  L 857.53 725.25&#10;  A 0.54 0.54 0.0 0 0 857.73 725.98&#10;  L 870.68 733.55&#10;  A 0.63 0.62 -59.9 0 0 871.54 733.32&#10;  L 881.55 715.98&#10;  A 0.38 0.38 0.0 0 1 882.06 715.84&#10;  L 885.77 718.00&#10;  A 0.38 0.37 -60.7 0 1 885.91 718.50&#10;  L 872.86 741.11&#10;  A 0.59 0.59 0.0 0 1 872.05 741.34&#10;  L 833.63 719.15&#10;  A 0.40 0.39 -60.5 0 1 833.49 718.61&#10;  Z"/>
<path fill="#41608b" d="&#10;  M 143.32 719.76&#10;  Q 145.24 722.70 147.27 725.71&#10;  A 0.41 0.41 0.0 0 0 147.84 725.83&#10;  L 163.24 715.83&#10;  A 0.32 0.32 0.0 0 1 163.67 715.92&#10;  L 166.69 720.58&#10;  A 0.24 0.24 0.0 0 1 166.62 720.91&#10;  L 129.26 745.16&#10;  A 0.58 0.57 -32.7 0 1 128.46 744.99&#10;  L 125.79 740.89&#10;  A 0.62 0.62 0.0 0 1 125.98 740.03&#10;  L 142.89 729.04&#10;  A 0.41 0.41 0.0 0 0 143.02 728.47&#10;  Q 142.88 728.26 139.13 722.48&#10;  Q 135.38 716.70 135.24 716.49&#10;  A 0.41 0.41 0.0 0 0 134.67 716.38&#10;  L 117.75 727.35&#10;  A 0.62 0.62 0.0 0 1 116.88 727.18&#10;  L 114.23 723.07&#10;  A 0.58 0.57 -33.3 0 1 114.40 722.27&#10;  L 151.74 698.00&#10;  A 0.24 0.24 0.0 0 1 152.07 698.07&#10;  L 155.10 702.73&#10;  A 0.32 0.32 0.0 0 1 155.01 703.16&#10;  L 139.61 713.16&#10;  A 0.41 0.41 0.0 0 0 139.49 713.73&#10;  Q 141.41 716.81 143.32 719.76&#10;  Z"/>
<path fill="#41608b" d="&#10;  M 859.14 761.12&#10;  Q 858.66 761.79 858.13 762.40&#10;  A 0.69 0.68 32.2 0 1 857.33 762.58&#10;  L 828.28 749.09&#10;  A 0.30 0.30 0.0 0 0 827.97 749.61&#10;  L 853.66 768.28&#10;  A 0.22 0.21 -55.6 0 1 853.71 768.58&#10;  L 850.89 772.45&#10;  A 0.31 0.29 35.5 0 1 850.47 772.51&#10;  L 814.71 746.53&#10;  A 0.84 0.84 0.0 0 1 814.53 745.35&#10;  L 818.51 739.88&#10;  A 0.73 0.73 0.0 0 1 819.41 739.64&#10;  Q 823.18 741.38 845.64 751.88&#10;  Q 846.37 752.23 846.56 751.98&#10;  Q 846.74 751.72 846.18 751.13&#10;  Q 829.26 733.02 826.44 729.97&#10;  A 0.73 0.73 0.0 0 1 826.39 729.04&#10;  L 830.36 723.56&#10;  A 0.84 0.84 0.0 0 1 831.54 723.37&#10;  L 867.29 749.36&#10;  A 0.31 0.29 36.5 0 1 867.37 749.77&#10;  L 864.56 753.65&#10;  A 0.22 0.21 -52.4 0 1 864.26 753.70&#10;  L 838.56 735.03&#10;  A 0.30 0.30 0.0 0 0 838.16 735.49&#10;  L 859.97 758.95&#10;  A 0.69 0.68 39.8 0 1 860.05 759.77&#10;  Q 859.62 760.46 859.14 761.12&#10;  Z"/>
<path fill="#41608b" d="&#10;  M 178.09 735.42&#10;  C 186.04 745.61 176.59 755.29 168.89 761.31&#10;  C 161.19 767.32 149.50 774.13 141.55 763.94&#10;  C 133.60 753.76 143.05 744.07 150.75 738.06&#10;  C 158.45 732.05 170.14 725.24 178.09 735.42&#10;  Z&#10;  M 154.70 743.10&#10;  C 149.34 747.29 140.62 754.57 145.51 760.84&#10;  C 150.41 767.11 159.59 760.41 164.95 756.23&#10;  C 170.31 752.04 179.03 744.76 174.14 738.49&#10;  C 169.24 732.22 160.06 738.92 154.70 743.10&#10;  Z"/>
<path fill="#41608b" d="&#10;  M 586.05 773.10&#10;  L 591.68 773.10&#10;  A 0.34 0.33 0.0 0 1 592.02 773.43&#10;  L 592.02 778.95&#10;  A 0.34 0.33 0.0 0 1 591.68 779.28&#10;  L 584.26 779.28&#10;  A 0.77 0.76 -81.9 0 0 583.53 779.84&#10;  L 579.41 794.43&#10;  A 0.54 0.54 0.0 0 1 578.89 794.83&#10;  L 572.31 794.83&#10;  A 0.23 0.23 0.0 0 1 572.09 794.54&#10;  L 576.25 779.79&#10;  A 0.40 0.40 0.0 0 0 575.86 779.28&#10;  L 557.73 779.28&#10;  A 0.54 0.54 0.0 0 1 557.20 778.63&#10;  L 558.28 773.39&#10;  A 1.78 1.73 72.9 0 1 558.70 772.57&#10;  Q 591.03 737.59 591.06 737.56&#10;  Q 592.64 735.71 595.26 736.38&#10;  A 0.49 0.49 0.0 0 1 595.62 736.99&#10;  L 585.59 772.50&#10;  A 0.48 0.47 7.8 0 0 586.05 773.10&#10;  Z&#10;  M 585.05 749.53&#10;  A 0.12 0.12 0.0 0 0 584.84 749.42&#10;  L 564.12 772.75&#10;  A 0.21 0.21 0.0 0 0 564.28 773.10&#10;  L 577.80 773.10&#10;  A 0.80 0.79 -81.6 0 0 578.56 772.53&#10;  L 585.05 749.53&#10;  Z"/>
<path fill="#41608b" d="&#10;  M 390.50 792.64&#10;  L 384.57 792.64&#10;  A 0.30 0.30 0.0 0 1 384.28 792.29&#10;  L 391.10 751.95&#10;  A 0.30 0.30 0.0 0 1 391.22 751.76&#10;  L 398.00 746.67&#10;  A 0.30 0.30 0.0 0 1 398.47 746.96&#10;  L 390.79 792.39&#10;  A 0.30 0.30 0.0 0 1 390.50 792.64&#10;  Z"/>
<path fill="#41608b" d="&#10;  M 496.90 793.35&#10;  L 496.90 790.93&#10;  A 1.51 1.48 -20.7 0 1 497.42 789.80&#10;  Q 504.20 784.09 518.45 771.47&#10;  C 521.59 768.68 523.78 764.34 523.46 760.09&#10;  C 522.87 752.20 513.92 755.60 510.05 758.05&#10;  Q 509.22 758.57 507.49 758.34&#10;  A 0.53 0.53 0.0 0 1 507.04 757.72&#10;  C 509.48 744.21 528.28 743.68 531.79 756.92&#10;  C 533.41 763.04 530.49 767.01 525.76 771.45&#10;  Q 516.35 780.29 510.20 786.08&#10;  A 0.44 0.44 0.0 0 0 510.50 786.84&#10;  L 520.18 786.84&#10;  A 2.28 2.26 -69.1 0 0 521.88 786.07&#10;  L 524.06 783.62&#10;  A 1.29 1.27 20.5 0 1 525.02 783.19&#10;  L 526.47 783.19&#10;  A 0.44 0.44 0.0 0 1 526.88 783.78&#10;  L 523.17 793.44&#10;  A 0.84 0.82 -79.0 0 1 522.40 793.97&#10;  L 497.52 793.97&#10;  A 0.62 0.62 0.0 0 1 496.90 793.35&#10;  Z"/>
<path fill="#41608b" d="&#10;  M 461.67 787.85&#10;  Q 458.75 789.44 458.08 789.78&#10;  C 446.27 795.93 433.03 790.87 432.32 776.47&#10;  Q 431.75 764.86 440.35 755.59&#10;  C 447.08 748.34 457.75 745.80 466.21 750.80&#10;  C 475.35 756.21 476.27 768.64 473.06 778.19&#10;  Q 465.21 801.59 440.29 808.03&#10;  A 0.24 0.24 0.0 0 1 440.00 807.89&#10;  L 438.69 804.55&#10;  A 0.28 0.28 0.0 0 1 438.92 804.18&#10;  Q 441.59 803.83 446.92 801.42&#10;  Q 456.90 796.91 461.91 788.09&#10;  A 0.18 0.18 0.0 0 0 461.67 787.85&#10;  Z&#10;  M 458.7792 753.1502&#10;  A 17.62 13.85 -71.3 0 0 440.0111 765.3995&#10;  A 17.62 13.85 -71.3 0 0 447.4808 786.5298&#10;  A 17.62 13.85 -71.3 0 0 466.2489 774.2805&#10;  A 17.62 13.85 -71.3 0 0 458.7792 753.1502&#10;  Z"/>
<path fill="#41608b" d="&#10;  M 167.88 789.48&#10;  C 171.17 793.00 175.21 792.87 178.93 789.67&#10;  Q 179.57 789.12 202.58 767.56&#10;  A 0.30 0.30 0.0 0 1 203.00 767.56&#10;  L 206.88 771.30&#10;  A 0.40 0.39 -45.0 0 1 206.87 771.87&#10;  Q 185.23 792.26 182.13 794.83&#10;  C 175.81 800.07 169.35 798.54 164.14 792.96&#10;  C 158.93 787.38 157.85 780.83 163.50 774.89&#10;  Q 166.28 771.97 188.10 751.77&#10;  A 0.40 0.39 -41.1 0 1 188.67 751.80&#10;  L 192.14 755.93&#10;  A 0.30 0.30 0.0 0 1 192.11 756.35&#10;  Q 169.03 777.83 168.43 778.43&#10;  C 164.99 781.93 164.58 785.95 167.88 789.48&#10;  Z"/>
<path fill="#41608b" d="&#10;  M 804.41 766.37&#10;  L 791.33 779.92&#10;  A 0.39 0.39 0.0 0 0 791.34 780.47&#10;  L 800.91 789.70&#10;  A 0.39 0.39 0.0 0 0 801.46 789.69&#10;  L 813.43 777.28&#10;  A 0.39 0.39 0.0 0 1 813.98 777.27&#10;  L 817.04 780.22&#10;  A 0.39 0.39 0.0 0 1 817.05 780.77&#10;  L 805.07 793.18&#10;  A 0.39 0.39 0.0 0 0 805.08 793.73&#10;  L 816.16 804.42&#10;  A 0.39 0.39 0.0 0 0 816.71 804.41&#10;  L 830.73 789.88&#10;  A 0.39 0.39 0.0 0 1 831.28 789.87&#10;  L 834.34 792.82&#10;  A 0.39 0.39 0.0 0 1 834.35 793.37&#10;  L 816.10 812.29&#10;  A 0.39 0.39 0.0 0 1 815.55 812.30&#10;  L 783.49 781.37&#10;  A 0.39 0.39 0.0 0 1 783.48 780.82&#10;  L 800.79 762.88&#10;  A 0.39 0.39 0.0 0 1 801.34 762.87&#10;  L 804.40 765.82&#10;  A 0.39 0.39 0.0 0 1 804.41 766.37&#10;  Z"/>
<path fill="#41608b" d="&#10;  M 201.99 831.19&#10;  C 196.32 826.08 194.68 819.64 199.81 813.24&#10;  Q 202.33 810.09 222.35 788.10&#10;  A 0.40 0.39 -46.0 0 1 222.92 788.08&#10;  L 226.73 791.90&#10;  A 0.30 0.30 0.0 0 1 226.73 792.32&#10;  Q 205.56 815.70 205.02 816.35&#10;  C 201.89 820.12 201.82 824.17 205.41 827.41&#10;  C 208.99 830.64 213.01 830.16 216.45 826.65&#10;  Q 217.04 826.05 238.13 802.60&#10;  A 0.30 0.30 0.0 0 1 238.55 802.56&#10;  L 242.73 805.96&#10;  A 0.40 0.39 -49.9 0 1 242.77 806.53&#10;  Q 222.94 828.70 220.07 831.52&#10;  C 214.23 837.28 207.65 836.31 201.99 831.19&#10;  Z"/>
<path fill="#41608b" d="&#10;  M 783.72 824.18&#10;  C 791.80 834.89 805.94 820.44 795.21 813.33&#10;  A 2.15 2.15 0.0 0 0 794.24 812.97&#10;  Q 789.42 812.42 787.26 813.19&#10;  C 780.24 815.68 771.67 819.79 766.21 812.83&#10;  C 760.61 805.69 764.19 796.77 771.47 792.93&#10;  Q 778.04 789.47 785.59 795.53&#10;  A 0.72 0.72 0.0 0 1 785.66 796.58&#10;  L 782.40 799.95&#10;  A 0.71 0.71 0.0 0 1 781.32 799.88&#10;  C 779.91 797.97 776.32 797.01 774.10 797.86&#10;  C 765.18 801.28 768.94 813.03 777.73 810.44&#10;  C 781.76 809.25 786.67 806.92 792.26 806.73&#10;  Q 799.26 806.49 802.98 812.83&#10;  Q 807.09 819.83 801.83 826.85&#10;  Q 798.90 830.76 795.19 832.53&#10;  C 789.49 835.27 783.11 833.58 779.40 828.45&#10;  A 0.26 0.26 0.0 0 1 779.42 828.11&#10;  L 783.24 824.15&#10;  A 0.32 0.31 -41.2 0 1 783.72 824.18&#10;  Z"/>
<path fill="#41608b" d="&#10;  M 733.57 824.41&#10;  L 753.20 809.09&#10;  A 0.43 0.42 51.6 0 1 753.80 809.16&#10;  L 756.34 812.46&#10;  A 0.45 0.44 -38.4 0 1 756.26 813.08&#10;  L 741.54 824.57&#10;  A 0.43 0.43 0.0 0 0 741.46 825.17&#10;  L 749.48 835.61&#10;  A 0.46 0.46 0.0 0 0 750.12 835.69&#10;  L 763.69 825.16&#10;  A 0.44 0.43 51.7 0 1 764.31 825.24&#10;  L 766.84 828.46&#10;  A 0.45 0.45 0.0 0 1 766.77 829.10&#10;  L 753.37 839.58&#10;  A 0.54 0.54 0.0 0 0 753.28 840.33&#10;  L 762.45 852.21&#10;  A 0.63 0.62 -37.9 0 0 763.34 852.31&#10;  L 779.11 839.99&#10;  A 0.38 0.38 0.0 0 1 779.64 840.05&#10;  L 782.27 843.44&#10;  A 0.38 0.37 -38.6 0 1 782.21 843.96&#10;  L 761.64 860.03&#10;  A 0.59 0.59 0.0 0 1 760.81 859.94&#10;  L 733.50 824.97&#10;  A 0.40 0.39 -38.5 0 1 733.57 824.41&#10;  Z"/>
<path fill="#41608b" d="&#10;  M 246.87 836.37&#10;  Q 245.74 841.15 244.13 848.08&#10;  A 0.20 0.20 0.0 0 0 244.49 848.25&#10;  L 263.79 822.62&#10;  A 0.34 0.34 0.0 0 1 264.27 822.56&#10;  L 268.63 825.84&#10;  A 0.31 0.31 0.0 0 1 268.68 826.27&#10;  L 241.97 861.74&#10;  A 0.62 0.62 0.0 0 1 241.09 861.86&#10;  L 236.87 858.68&#10;  A 1.08 1.07 -66.5 0 1 236.46 857.62&#10;  Q 236.75 856.10 241.61 835.26&#10;  Q 242.72 830.47 244.34 823.55&#10;  A 0.20 0.20 0.0 0 0 243.98 823.38&#10;  L 224.67 849.01&#10;  A 0.34 0.34 0.0 0 1 224.19 849.07&#10;  L 219.84 845.79&#10;  A 0.31 0.31 0.0 0 1 219.78 845.36&#10;  L 246.50 809.89&#10;  A 0.62 0.62 0.0 0 1 247.37 809.77&#10;  L 251.59 812.95&#10;  A 1.08 1.07 -66.5 0 1 252.00 814.01&#10;  Q 251.72 815.53 246.87 836.37&#10;  Z"/>
<path fill="#41608b" d="&#10;  M 727.87 856.65&#10;  Q 723.80 853.90 717.92 849.91&#10;  A 0.20 0.20 0.0 0 0 717.63 850.19&#10;  L 734.63 877.38&#10;  A 0.34 0.34 0.0 0 1 734.52 877.85&#10;  L 729.90 880.74&#10;  A 0.31 0.31 0.0 0 1 729.48 880.64&#10;  L 705.95 843.01&#10;  A 0.62 0.62 0.0 0 1 706.15 842.15&#10;  L 710.63 839.35&#10;  A 1.08 1.07 44.5 0 1 711.76 839.34&#10;  Q 713.08 840.15 730.79 852.15&#10;  Q 734.85 854.91 740.73 858.90&#10;  A 0.20 0.20 0.0 0 0 741.02 858.62&#10;  L 724.02 831.43&#10;  A 0.34 0.34 0.0 0 1 724.13 830.96&#10;  L 728.75 828.07&#10;  A 0.31 0.31 0.0 0 1 729.17 828.17&#10;  L 752.70 865.80&#10;  A 0.62 0.62 0.0 0 1 752.50 866.66&#10;  L 748.02 869.46&#10;  A 1.08 1.07 44.5 0 1 746.89 869.47&#10;  Q 745.57 868.66 727.87 856.65&#10;  Z"/>
<rect fill="#41608b" x="-3.05" y="-22.68" transform="translate(272.40,855.86) rotate(32.0)" width="6.10" height="45.36" rx="0.38"/>
<path fill="#41608b" d="&#10;  M 297.03 882.58&#10;  Q 297.27 882.70 297.44 882.51&#10;  Q 309.05 869.81 320.76 856.86&#10;  A 0.33 0.31 -54.1 0 1 321.14 856.79&#10;  L 326.43 859.43&#10;  A 0.17 0.16 -54.4 0 1 326.47 859.69&#10;  L 294.39 893.96&#10;  A 0.80 0.79 31.2 0 1 293.55 894.16&#10;  Q 293.45 894.12 291.62 893.19&#10;  Q 289.79 892.26 289.70 892.20&#10;  A 0.80 0.79 22.8 0 1 289.37 891.40&#10;  L 298.25 845.31&#10;  A 0.17 0.16 -71.6 0 1 298.48 845.19&#10;  L 303.73 847.91&#10;  A 0.33 0.31 -71.8 0 1 303.89 848.26&#10;  Q 300.30 865.35 296.84 882.21&#10;  Q 296.79 882.46 297.03 882.58&#10;  Z"/>
<rect fill="#41608b" x="-3.05" y="-22.68" transform="translate(700.33,871.58) rotate(-27.0)" width="6.10" height="45.36" rx="0.34"/>
<path fill="#41608b" d="&#10;  M 669.67 887.63&#10;  Q 663.28 890.20 663.05 890.30&#10;  A 0.41 0.41 0.0 0 0 662.83 890.84&#10;  L 670.35 909.53&#10;  A 0.62 0.62 0.0 0 1 670.02 910.34&#10;  L 665.48 912.16&#10;  A 0.58 0.57 67.8 0 1 664.73 911.84&#10;  L 648.08 870.58&#10;  A 0.24 0.24 0.0 0 1 648.22 870.27&#10;  L 653.36 868.19&#10;  A 0.32 0.32 0.0 0 1 653.76 868.36&#10;  L 660.62 885.37&#10;  A 0.41 0.41 0.0 0 0 661.15 885.61&#10;  Q 664.55 884.31 667.80 883.00&#10;  Q 671.05 881.68 674.40 880.27&#10;  A 0.41 0.41 0.0 0 0 674.62 879.73&#10;  L 667.76 862.72&#10;  A 0.32 0.32 0.0 0 1 667.93 862.31&#10;  L 673.08 860.24&#10;  A 0.24 0.24 0.0 0 1 673.39 860.38&#10;  L 690.01 901.65&#10;  A 0.58 0.57 68.3 0 1 689.69 902.40&#10;  L 685.16 904.23&#10;  A 0.62 0.62 0.0 0 1 684.36 903.88&#10;  L 676.82 885.20&#10;  A 0.41 0.41 0.0 0 0 676.28 884.96&#10;  Q 676.05 885.06 669.67 887.63&#10;  Z"/>
<path fill="#41608b" d="&#10;  M 329.58 861.28&#10;  L 352.81 870.25&#10;  A 0.43 0.42 -69.3 0 1 353.06 870.80&#10;  L 351.53 874.68&#10;  A 0.45 0.44 20.7 0 1 350.97 874.93&#10;  L 333.54 868.20&#10;  A 0.43 0.43 0.0 0 0 332.98 868.45&#10;  L 328.15 880.68&#10;  A 0.46 0.46 0.0 0 0 328.41 881.28&#10;  L 344.42 887.51&#10;  A 0.44 0.43 -69.3 0 1 344.67 888.08&#10;  L 343.20 891.90&#10;  A 0.45 0.45 0.0 0 1 342.62 892.17&#10;  L 326.75 886.06&#10;  A 0.54 0.54 0.0 0 0 326.05 886.37&#10;  L 320.58 900.34&#10;  A 0.63 0.62 21.2 0 0 320.94 901.15&#10;  L 339.62 908.35&#10;  A 0.37 0.37 0.0 0 1 339.83 908.84&#10;  L 338.28 912.84&#10;  A 0.38 0.37 20.4 0 1 337.80 913.05&#10;  L 313.45 903.66&#10;  A 0.59 0.59 0.0 0 1 313.10 902.90&#10;  L 329.07 861.51&#10;  A 0.40 0.39 20.6 0 1 329.58 861.28&#10;  Z"/>
<path fill="#41608b" d="&#10;  M 373.17 924.56&#10;  A 0.58 0.57 4.5 0 1 372.43 925.19&#10;  L 367.50 923.63&#10;  A 0.61 0.60 18.6 0 1 367.11 922.85&#10;  Q 367.13 922.80 367.05 920.92&#10;  Q 367.01 919.79 366.82 919.09&#10;  Q 365.88 915.65 365.94 912.56&#10;  A 5.73 5.61 38.0 0 0 365.71 910.83&#10;  Q 364.81 907.70 364.82 903.79&#10;  A 2.31 2.30 -80.9 0 0 363.23 901.58&#10;  L 358.53 900.06&#10;  A 0.86 0.86 0.0 0 0 357.44 900.61&#10;  L 351.73 918.20&#10;  A 0.31 0.31 0.0 0 1 351.34 918.39&#10;  L 346.01 916.66&#10;  A 0.18 0.17 -72.5 0 1 345.90 916.43&#10;  L 359.57 874.33&#10;  A 0.90 0.90 0.0 0 1 360.69 873.75&#10;  Q 366.56 875.62 373.35 877.90&#10;  Q 380.16 880.17 382.76 886.51&#10;  A 3.01 2.95 -58.5 0 1 382.98 887.47&#10;  Q 383.24 891.95 381.36 896.16&#10;  Q 378.35 902.87 370.53 903.12&#10;  A 0.40 0.39 84.9 0 0 370.15 903.58&#10;  L 373.17 924.56&#10;  Z&#10;  M 361.66 887.60&#10;  Q 360.04 892.46 359.41 894.55&#10;  A 0.54 0.54 0.0 0 0 359.75 895.22&#10;  C 366.35 897.42 373.44 900.79 376.21 892.44&#10;  C 378.99 884.09 371.30 882.54 364.69 880.36&#10;  A 0.54 0.54 0.0 0 0 364.02 880.68&#10;  Q 363.28 882.73 361.66 887.60&#10;  Z"/>
<path fill="#41608b" d="&#10;  M 648.08 900.69&#10;  L 652.02 899.51&#10;  A 0.98 0.98 0.0 0 1 653.26 900.26&#10;  C 654.22 905.29 655.10 910.26 652.87 914.49&#10;  C 647.52 924.57 633.71 923.52 628.26 914.17&#10;  Q 622.00 903.44 621.85 891.20&#10;  C 621.76 883.36 628.03 875.15 636.38 876.02&#10;  Q 646.53 877.08 649.23 888.49&#10;  A 0.23 0.22 75.6 0 1 649.08 888.76&#10;  L 644.10 890.28&#10;  A 0.35 0.35 0.0 0 1 643.67 890.05&#10;  C 641.80 883.86 637.59 878.11 631.19 882.52&#10;  C 625.79 886.26 628.21 895.50 629.50 900.61&#10;  C 630.80 905.76 633.67 914.08 638.93 915.96&#10;  C 645.79 918.41 649.43 912.14 648.22 906.08&#10;  Q 647.51 902.49 647.38 902.23&#10;  A 1.13 1.13 0.0 0 1 648.08 900.69&#10;  Z"/>
<path fill="#41608b" d="&#10;  M 383.17 913.97&#10;  L 388.59 914.93&#10;  A 0.32 0.31 14.9 0 1 388.83 915.34&#10;  C 384.46 928.02 404.33 931.68 404.24 918.82&#10;  A 2.15 2.15 0.0 0 0 403.99 917.81&#10;  Q 401.76 913.51 399.92 912.15&#10;  C 393.94 907.72 385.75 902.90 388.47 894.49&#10;  C 391.27 885.87 400.66 883.86 407.90 887.75&#10;  Q 414.44 891.27 413.63 900.91&#10;  A 0.72 0.72 0.0 0 1 412.80 901.55&#10;  L 408.18 900.73&#10;  A 0.71 0.71 0.0 0 1 407.64 899.80&#10;  C 408.44 897.56 407.23 894.05 405.28 892.68&#10;  C 397.47 887.20 389.83 896.87 396.88 902.71&#10;  C 400.12 905.39 404.79 908.16 408.06 912.69&#10;  Q 412.17 918.36 408.99 924.98&#10;  Q 405.48 932.29 396.72 931.85&#10;  Q 391.85 931.60 388.31 929.51&#10;  C 382.86 926.31 380.70 920.08 382.88 914.14&#10;  A 0.26 0.26 0.0 0 1 383.17 913.97&#10;  Z"/>
<path fill="#41608b" d="&#10;  M 595.66 913.31&#10;  L 580.09 916.62&#10;  A 0.34 0.34 0.0 0 0 579.83 917.02&#10;  L 583.94 936.36&#10;  A 0.34 0.34 0.0 0 1 583.68 936.76&#10;  L 578.38 937.89&#10;  A 0.34 0.34 0.0 0 1 577.98 937.63&#10;  L 568.68 893.92&#10;  A 0.34 0.34 0.0 0 1 568.94 893.52&#10;  L 595.36 887.90&#10;  A 0.34 0.34 0.0 0 1 595.76 888.13&#10;  L 596.98 892.34&#10;  A 0.34 0.34 0.0 0 1 596.72 892.77&#10;  L 575.96 897.18&#10;  A 0.34 0.34 0.0 0 0 575.70 897.58&#10;  L 578.65 911.46&#10;  A 0.34 0.34 0.0 0 0 579.05 911.72&#10;  L 594.32 908.48&#10;  A 0.34 0.34 0.0 0 1 594.72 908.71&#10;  L 595.92 912.88&#10;  A 0.34 0.34 0.0 0 1 595.66 913.31&#10;  Z"/>
<path fill="#41608b" d="&#10;  M 432.06 938.69&#10;  L 426.88 937.81&#10;  A 0.43 0.43 0.0 0 1 426.53 937.32&#10;  L 433.96 893.41&#10;  A 0.43 0.43 0.0 0 1 434.45 893.06&#10;  L 439.63 893.94&#10;  A 0.43 0.43 0.0 0 1 439.98 894.43&#10;  L 432.55 938.34&#10;  A 0.43 0.43 0.0 0 1 432.06 938.69&#10;  Z"/>
<path fill="#41608b" d="&#10;  M 538.39 919.92&#10;  C 537.19 910.23 537.36 896.71 550.17 895.12&#10;  C 562.99 893.54 566.45 906.61 567.64 916.30&#10;  C 568.84 926.00 568.68 939.52 555.86 941.10&#10;  C 543.04 942.69 539.59 929.62 538.39 919.92&#10;  Z&#10;  M 544.75 919.13&#10;  C 545.57 925.88 547.31 937.12 555.21 936.16&#10;  C 563.12 935.20 562.11 923.87 561.29 917.11&#10;  C 560.47 910.36 558.73 899.12 550.82 900.08&#10;  C 542.92 901.04 543.93 912.37 544.75 919.13&#10;  Z"/>
<path fill="#41608b" d="&#10;  M 469.08 897.73&#10;  C 473.57 898.12 477.95 898.33 482.36 898.94&#10;  A 0.34 0.34 0.0 0 1 482.65 899.31&#10;  L 482.30 903.46&#10;  A 0.41 0.41 0.0 0 1 481.86 903.83&#10;  L 472.08 902.98&#10;  A 0.42 0.42 0.0 0 0 471.63 903.36&#10;  L 468.25 942.42&#10;  A 0.75 0.75 0.0 0 1 467.48 943.11&#10;  Q 466.74 943.09 465.13 942.95&#10;  Q 463.52 942.81 462.79 942.70&#10;  A 0.75 0.75 0.0 0 1 462.15 941.89&#10;  L 465.58 902.83&#10;  A 0.42 0.42 0.0 0 0 465.21 902.38&#10;  L 455.43 901.52&#10;  A 0.41 0.41 0.0 0 1 455.06 901.08&#10;  L 455.43 896.94&#10;  A 0.34 0.34 0.0 0 1 455.78 896.62&#10;  C 460.23 896.79 464.58 897.33 469.08 897.73&#10;  Z"/>
<path fill="#41608b" d="&#10;  M 501.48 918.67&#10;  Q 501.64 918.67 501.70 918.54&#10;  Q 506.31 908.98 510.82 899.61&#10;  A 0.45 0.44 12.7 0 1 511.22 899.36&#10;  L 516.83 899.36&#10;  A 0.12 0.12 0.0 0 1 516.94 899.54&#10;  L 504.78 923.84&#10;  A 1.96 1.91 59.5 0 0 504.56 924.74&#10;  L 504.56 944.43&#10;  A 0.40 0.39 2.1 0 1 504.13 944.82&#10;  Q 504.02 944.81 501.47 944.81&#10;  Q 498.92 944.81 498.81 944.82&#10;  A 0.40 0.39 -2.0 0 1 498.38 944.43&#10;  L 498.40 924.74&#10;  A 1.96 1.91 -59.4 0 0 498.18 923.84&#10;  L 486.05 899.52&#10;  A 0.12 0.12 0.0 0 1 486.16 899.34&#10;  L 491.77 899.35&#10;  A 0.45 0.44 -12.6 0 1 492.17 899.60&#10;  Q 496.67 908.97 501.26 918.54&#10;  Q 501.33 918.67 501.48 918.67&#10;  Z"/>
</svg>