<?xml version="1.0" encoding="UTF-8"?>
<svg id="Layer_2" data-name="Layer 2" xmlns="http://www.w3.org/2000/svg" viewBox="0 0 283.46 283.47">
  <defs>
    <style>
      .cls-1 {
        fill: #162c53;
      }

      .cls-2 {
        fill: #fffeff;
      }

      .cls-3 {
        fill: #fff;
      }
    </style>
  </defs>
  <g id="_图层_1" data-name="图层 1">
    <path class="cls-1" d="M283.46,141.73c0,78.28-63.45,141.73-141.73,141.73S0,220.01,0,141.73,63.45,0,141.73,0s141.73,63.46,141.73,141.73"/>
    <path class="cls-2" d="M217.56,148.69c-2.84,39.07-35.44,69.89-75.23,69.89s-75.44-33.78-75.44-75.43c0-17.5,5.96-33.61,15.96-46.4,5.97,11.78,35.81,70.71,36.43,71.73,7.51-3.75,21.69-27.21,22.49-30.74l-21.92-43.04h-8.05l22.74,45.77-2.05,3.07-24.71-48.84h-4.1l26.42,52.6-2.05,2.74-27.67-55.34h-5.12l30.06,59.1-2.5,2.5-30.97-61.6h-7.32c13.84-16.5,34.6-26.99,57.82-26.99,37.93,0,69.32,27.99,74.64,64.45h11.56c-5.58-42.79-42.17-75.83-86.48-75.83-48.17,0-87.22,39.05-87.22,87.21s39.05,87.22,87.22,87.22c50.6,0,90.36-42.77,87.02-93.14-16.76,0-35.35,1.01-51.61,0,.23-.97,5.7-24.26,20.95-42.93-1.76-.01-30.86-.23-34.5,0-11.07,10.45-12.75,28.01-20.27,47.94-4.84,12.85-14.49,25.59-30.29,37,0,0,40.99.18,42.81,0,6.83-4.44,16.85-21.29,17.99-31.2,3.19.12,43.33.25,43.41.25"/>
    <path class="cls-3" d="M139.21,193.78h0c-.44,1.77-1.86,2.42-3.34,2.33-1.41-.08-1.96-.42-2.85-1.91-.38-.64-.39-1.48-.11-2.96.57-3.02,5.28-3.71,6.3,0,.1.38,0,2.52,0,2.52M141.39,192.08c-.44-4.04-3.2-5.42-5.86-5.13-2.32.26-4.27,1.34-4.64,3.59-.23,1.45-.4,2.52-.03,3.98.46,1.8,2.54,3.48,4.87,3.53,1.28.02,2.96-.51,3.91-2.27-.12,8.8-6.67,7.22-6.66,3.93-.55-.04-1.67-.04-1.92,0,.3,4.61,4.56,4.23,4.93,4.23,4.51,0,5.29-4.16,5.41-6.11.02-.39.04-5.42,0-5.76ZM145.57,187.06h8.2v2.17s-6.41.05-6.61,0c-.08.6-.65,3.98-.71,4.15,5.92-2.82,7.87,2.67,8,3.19.31,1.23.1,2.63,0,3.08-.71,3.1-3.51,4.24-3.9,4.31-.47.08-1.74.36-2.99,0-.31-.09-3.93-1.32-3.93-4.77,1,0,1.88-.03,2.16,0-.05,2.05,2.24,2.93,2.51,3.05.51.23,1.35.07,1.57,0,2.02-.65,2.55-2.48,2.65-3.07.04-.25.14-1.17-.2-2.22-.97-2.97-4.78-3.01-6.29-1.02-.48.06-1.82,0-2.08-.03.23-1.28,1.62-8.83,1.62-8.83ZM162.01,202.15h0c-1.12,0-3-.61-3.23-3.04-.26-2.76,1.93-3.42,3.13-3.39,2.45.06,3.3,1.91,3.37,3.05.05,1.14-.91,3.39-3.26,3.39ZM159.41,190.97h0c0-1.43,1.45-2.11,2.62-2.11,1.82,0,2.59,1.5,2.59,2.53,0,.6-.43,2.36-2.71,2.36-1.76,0-2.5-1.34-2.5-2.78ZM164.47,194.67c.37-.29,2.25-1.06,2.31-3.53.03-1.14-.6-4.33-5.04-4.33-2.19,0-4.84,1.37-4.72,4.39.1,2.64,2.28,3.32,2.56,3.53-.66.22-3.33,1.05-3.19,4.27.06,1.25,1,4.87,5.84,4.98,1.25.03,5.21-.91,5.21-5.21,0-2.62-2.25-3.89-2.96-4.09ZM125.42,186.95v16.74h-2.01v-13.02c-.68.51-2.18,1.75-4.01,2.39-.13-.51,0-2.05,0-2.05,2.73-1.01,4.82-3.84,4.82-4.05h1.2Z"/>
    <path class="cls-3" d="M34.67,174.26c-3.98,1.19-6.38-1-7.16-5.08-.75-3.94.55-6.99,4.65-7.65,2.73-.46,5.46-.93,8.19-1.4.12.88.25,1.75.39,2.62-2.76.54-5.53,1.09-8.29,1.63-2.74.52-3.66,2.33-3.24,4.5.46,2.36,1.97,3.48,4.65,2.76,2.73-.73,5.46-1.45,8.18-2.18.19.83.38,1.65.59,2.46-2.65.77-5.31,1.55-7.96,2.33M38.09,185.29h0c.98-.88,1.97-1.76,2.97-2.62.75-.62,1.59-1.25,2.32-1.78,0-.01,0-.03-.02-.04-.88.09-1.92.21-2.83.24-1.29.01-2.59,0-3.88-.01.46,1.43.94,2.83,1.44,4.22ZM34.53,192.05c-.36-.87-.72-1.75-1.06-2.64,1.07-1.05,2.16-2.08,3.25-3.09-.62-1.67-1.2-3.37-1.74-5.1-1.45-.02-2.9-.06-4.35-.12-.27-.92-.54-1.85-.8-2.78,4.96.43,9.9.62,14.8.55.31.95.63,1.89.96,2.82-3.8,3.28-7.49,6.74-11.06,10.36ZM41.18,205.39c-.44-.75-.88-1.51-1.31-2.28,1.17-2.43,2.4-4.82,3.69-7.15.91-1.61,1.96-3.25,3.06-4.63-.02-.02-.03-.04-.05-.07-1.54.92-3.15,1.79-5.35,2.91-1.56.8-3.13,1.59-4.7,2.39-.35-.75-.69-1.49-1.02-2.25,4.23-2.04,8.46-4.08,12.69-6.13.34.78.7,1.55,1.06,2.33-1.36,2.21-2.66,4.47-3.9,6.79-.88,1.67-1.83,3.3-2.77,4.69.01.02.03.03.04.05,1.56-1.15,3.08-2.13,5.02-3.28,1.5-.88,2.99-1.77,4.48-2.65.35.62.7,1.23,1.06,1.84-4.01,2.48-8.01,4.96-12.02,7.44ZM50.53,217.85c-.83-.52-2.29-1.7-3.47-3.3-4.27-5.95-.51-9.51,1.34-10.69,3.88-2.46,7.81-1.21,10.41,2.28.86,1.16,1.45,2.28,1.63,3.07-.56.24-1.12.47-1.69.71-.21-.74-.57-1.58-1.39-2.68-1.82-2.45-4.54-3.29-7.52-1.28-2.96,1.99-3.27,5-1.34,7.6.65.87,1.2,1.39,1.56,1.57,1.05-.83,2.1-1.65,3.15-2.47-.56-.72-1.11-1.45-1.65-2.19.46-.35.92-.69,1.38-1.03.98,1.35,2,2.66,3.04,3.95-1.82,1.49-3.64,2.97-5.46,4.47ZM67.9,218.64c-4.24.99-8.6,1.75-13.06,2.25-.02.02-.04.04-.05.05,1.75,1.95,3.57,3.83,5.45,5.63-.42.43-.84.86-1.27,1.29-2.69-2.57-5.25-5.3-7.68-8.18.31-.26.62-.53.93-.79,4.53-.35,8.97-.97,13.29-1.84.02-.02.04-.04.06-.05-1.53-1.55-3-3.16-4.42-4.83.45-.39.91-.78,1.36-1.17,2.01,2.35,4.12,4.58,6.32,6.69-.31.31-.61.63-.92.94ZM69.64,236.82c-.66-.48-1.32-.97-1.96-1.47,1.35-1.67,2.69-3.34,4.03-5.01-1.65-1.27-3.26-2.59-4.84-3.97-1.44,1.59-2.88,3.19-4.31,4.78-.62-.54-1.23-1.09-1.84-1.64,3.23-3.44,6.47-6.88,9.71-10.32.54.49,1.07.97,1.62,1.45-1.3,1.45-2.61,2.89-3.91,4.34,1.55,1.35,3.13,2.65,4.75,3.9,1.22-1.52,2.44-3.03,3.66-4.54.57.44,1.15.87,1.73,1.3-2.88,3.73-5.76,7.46-8.64,11.19ZM77.84,233.98h0c-1.66,2.32-1.97,5.29.39,6.74,2.4,1.46,4.98-.05,6.52-2.63,1.38-2.31,1.73-5.24-.45-6.58-2.25-1.38-4.84.2-6.45,2.46ZM86.9,239.19c-2.4,4.26-6.32,5.03-9.7,2.95-3.53-2.17-3.94-6.08-1.39-9.47,2.68-3.56,6.43-4.45,9.5-2.58,3.18,1.94,3.58,5.57,1.58,9.1ZM98.15,245.93c-1.61,3.83-4.55,4.6-7.7,3.19-3.04-1.36-4.22-3.88-2.19-7.55,1.34-2.45,2.68-4.9,4.02-7.35.64.32,1.28.64,1.93.95-1.31,2.51-2.62,5.03-3.93,7.54-1.3,2.49-.67,4.12,1.01,4.87,1.83.81,3.49.18,4.63-2.36,1.17-2.58,2.33-5.15,3.5-7.73.66.27,1.33.54,2,.8-1.09,2.54-2.18,5.09-3.27,7.63ZM123.18,258.37c-.78-.11-1.56-.24-2.34-.37.24-1.94.48-3.88.73-5.82.25-1.88.54-4.01.88-5.7-.02,0-.04,0-.05,0-.74,1.53-1.66,3.19-2.65,4.79-1.17,1.92-2.39,3.83-3.65,5.73-.6-.13-1.2-.25-1.8-.38-.23-2.17-.42-4.33-.57-6.49-.14-1.91-.16-3.79-.05-5.49-.02,0-.04-.01-.06-.01-.51,1.66-1.22,3.75-1.87,5.6-.63,1.82-1.28,3.64-1.92,5.46-.74-.19-1.47-.39-2.21-.59,1.73-4.36,3.41-8.73,5.05-13.11.86.23,1.73.45,2.59.67.12,2.13.28,4.27.47,6.41.12,1.79.21,3.39.25,4.96.02,0,.04,0,.05.01.73-1.38,1.56-2.82,2.52-4.4,1.16-1.85,2.28-3.71,3.36-5.59.89.16,1.78.31,2.67.45-.51,4.62-.99,9.25-1.43,13.88ZM134.9,259.56c-2.94-.17-5.87-.43-8.8-.8.64-4.59,1.28-9.19,1.92-13.79,2.47.31,4.95.53,7.43.68-.04.59-.08,1.18-.12,1.76-1.79-.11-3.59-.26-5.37-.44-.16,1.33-.32,2.66-.47,4,1.75.18,3.51.33,5.27.44-.04.58-.08,1.16-.12,1.74-1.79-.11-3.57-.25-5.35-.44-.18,1.53-.36,3.06-.54,4.59,2.08.21,4.17.38,6.26.5-.04.59-.07,1.17-.11,1.76ZM139.89,258.11h0c.42.06,1,.08,1.56.08,3.62.04,5.72-1.91,5.53-5.74-.16-3.39-2.06-5.03-5.17-5.04-.76,0-1.33.06-1.71.13-.07,3.52-.15,7.04-.22,10.56ZM137.97,245.96c1.04-.13,2.3-.22,3.64-.21,6.03-.02,7.56,3.42,7.78,6.54,0,0,0,0,0,.02.17,2.52-.58,4.41-1.94,5.65-1.38,1.28-3.68,1.96-6.55,1.93-1.44-.02-2.6-.1-3.51-.25.19-4.56.38-9.12.57-13.68ZM151.2,245.51c.72-.05,1.44-.11,2.15-.19.5,4.62.99,9.23,1.49,13.84-.81.08-1.63.15-2.44.21-.4-4.62-.8-9.24-1.2-13.86ZM168.44,256.73c-.59.42-1.88.98-3.62,1.28-4.48.77-7.84-1.47-8.37-5.87-.56-4.7,2.14-7.58,5.98-8.27,1.61-.29,2.66-.16,3.1-.04-.02.59-.05,1.19-.08,1.78-.65-.15-1.54-.22-2.6-.03-2.74.49-4.53,2.55-4.01,6.14.49,3.38,2.81,5.02,6.08,4.44,1.07-.19,2.11-.6,2.71-1.02.26.52.52,1.05.79,1.57ZM176.23,249.32h0c-.76-1.05-1.5-2.11-2.24-3.16-.53-.8-1.06-1.68-1.5-2.45-.01,0-.03,0-.04.01.05.88.12,1.91.11,2.8-.04,1.28-.09,2.55-.16,3.83,1.28-.32,2.56-.67,3.82-1.03ZM182.21,253.48c-.81.27-1.64.53-2.46.78-.9-1.16-1.78-2.33-2.65-3.5-1.53.44-3.07.86-4.61,1.24-.07,1.43-.16,2.86-.26,4.29-.81.2-1.63.38-2.45.56.52-4.87.84-9.73.97-14.56.85-.22,1.7-.45,2.54-.69,2.79,4.05,5.77,8.02,8.91,11.89ZM192.41,249.64c-2.65,1.14-5.35,2.18-8.08,3.13-1.67-4.36-3.33-8.72-5-13.08.68-.23,1.36-.48,2.03-.72,1.53,3.77,3.06,7.54,4.6,11.31,1.92-.7,3.81-1.46,5.69-2.27.25.54.51,1.09.76,1.63ZM209.06,233.92c2.49,3.36,1.59,6.18-1.36,8.01-2.84,1.75-5.67,1.35-7.8-2.26-1.43-2.41-2.86-4.81-4.29-7.21.63-.35,1.25-.7,1.87-1.06,1.5,2.41,3.01,4.82,4.51,7.24,1.48,2.39,3.25,2.75,4.81,1.79,1.71-1.06,2.04-2.75.43-5.04-1.63-2.33-3.27-4.66-4.9-6.99.6-.39,1.19-.8,1.79-1.21,1.65,2.25,3.29,4.5,4.94,6.74ZM224.14,229.21c-.61.57-1.23,1.12-1.85,1.67-2.56-.7-5.07-1.46-7.53-2.3-1.71-.6-3.46-1.33-4.99-2.16-.02.02-.04.04-.05.06,1.21,1.33,2.4,2.72,3.96,4.65,1.11,1.37,2.21,2.74,3.32,4.1-.6.47-1.2.92-1.81,1.37-2.89-3.72-5.78-7.44-8.67-11.16.63-.47,1.25-.94,1.87-1.42,2.36.92,4.76,1.79,7.21,2.58,1.75.55,3.5,1.19,5.02,1.83.01-.02.02-.03.04-.05-1.44-1.3-2.71-2.6-4.23-4.27-1.17-1.28-2.34-2.57-3.51-3.85.5-.44,1-.89,1.49-1.34,3.24,3.42,6.49,6.85,9.73,10.27ZM216.59,216.86c.52-.51,1.03-1.02,1.54-1.55,3.41,3.26,6.82,6.52,10.23,9.79-.57.59-1.16,1.18-1.75,1.76-3.34-3.33-6.68-6.67-10.03-10ZM226.64,205.16c2.86,4.1,5.56,8.34,8.1,12.72-.58.72-1.18,1.44-1.78,2.15-4.68-1.79-9.26-3.76-13.72-5.91.55-.59,1.09-1.18,1.62-1.78,2.08.99,4.19,1.95,6.32,2.88,1.73.73,3.4,1.45,4.97,2.23.01-.01.03-.03.04-.05-1.05-1.37-2.08-2.95-3.07-4.5-1.27-1.97-2.57-3.91-3.91-5.82.48-.63.96-1.27,1.43-1.92ZM244.02,204.27c-1.55,2.71-3.2,5.31-4.95,7.82-3.84-2.75-7.67-5.49-11.51-8.24,1.47-2.12,2.87-4.32,4.19-6.6.51.31,1.02.63,1.53.93-.95,1.65-1.94,3.25-2.97,4.81,1.12.77,2.25,1.54,3.38,2.31,1.01-1.53,1.99-3.1,2.93-4.72.5.31,1,.61,1.51.93-.95,1.63-1.94,3.23-2.97,4.79,1.29.89,2.59,1.77,3.88,2.65,1.21-1.82,2.36-3.69,3.46-5.62.51.31,1.02.62,1.53.92ZM240.61,194.53h0c.9-1.86.51-3.49-.85-4.15-1.64-.79-2.8.25-3.54,1.77-.35.72-.56,1.26-.62,1.55,1.42.77,2.84,1.55,4.26,2.33.25-.5.5-.99.74-1.49ZM242.62,192.28c.86-.96,2.03-1.17,3.54-.92,1.87.31,3.36.5,3.98.4-.35.86-.72,1.71-1.09,2.56-.47.06-1.75-.11-3.48-.48-1.88-.41-2.85,0-3.62,1.58-.22.46-.45.91-.68,1.36,1.75.95,3.5,1.91,5.25,2.86-.39.78-.8,1.54-1.2,2.3-4.03-2.31-8.06-4.63-12.09-6.94.32-.95.83-2.21,1.44-3.45.88-1.8,1.75-2.95,2.86-3.52.91-.47,1.97-.47,3,0,1.64.75,2.27,2.47,2.05,4.23.01,0,.02.01.03.02ZM242.62,177.59c-.4.44-1.05,1.3-1.48,2.58-.62,1.83,0,2.95.83,3.29,1.1.45,1.98-.18,3.39-1.96,1.78-2.25,3.31-3.2,5.14-2.59,2.22.72,3.29,3.52,1.94,7.41-.56,1.61-1.56,3.14-2.3,3.75-.47-.42-.94-.85-1.42-1.26.76-.7,1.61-1.91,2.1-3.3.7-2.02.24-3.48-.94-3.9-1.13-.41-2.08.22-3.4,1.9-1.63,2.12-3.43,3.16-5.17,2.4-2.04-.91-2.82-3.42-1.81-6.43.48-1.45,1.14-2.46,1.63-3.03.5.38,1,.76,1.49,1.15ZM241.61,173.13c.21-.81.42-1.62.61-2.44,4.49,1.25,8.99,2.51,13.48,3.77-.22.93-.45,1.86-.69,2.78-4.47-1.36-8.93-2.73-13.4-4.1ZM246.37,157.3c-.18,1.63-.39,3.23-.64,4.81,3.98.74,7.96,1.49,11.94,2.23-.15.99-.31,1.96-.48,2.94-3.97-.85-7.93-1.7-11.89-2.54-.27,1.55-.57,3.07-.9,4.57-.58-.15-1.17-.3-1.75-.46.83-3.79,1.49-7.73,1.94-11.8.6.08,1.19.17,1.79.25ZM245.36,142.77c2.68,1.97,5.31,4.06,7.9,6.27,1.96.11,3.91.22,5.87.33-.05,1.06-.1,2.12-.17,3.17-1.93-.16-3.87-.33-5.8-.49-2.81,1.7-5.66,3.24-8.53,4.61.11-1.01.21-2.03.29-3.06,1.27-.58,2.53-1.19,3.79-1.83,1.05-.53,1.96-1.01,2.96-1.46,0-.02,0-.04,0-.05-.9-.55-1.8-1.18-2.81-1.87-1.18-.82-2.36-1.62-3.54-2.4.03-1.07.04-2.14.04-3.22ZM26.72,158.79c-.44-1.07-1.06-3.25-1.23-5.7-.52-9.09,4.5-10.37,6.65-10.31,4.52.06,7.15,4.14,7.54,9.51.13,1.78.04,3.32-.2,4.25-.59-.12-1.19-.25-1.78-.38.2-.9.33-2.01.21-3.7-.27-3.75-2.11-6.53-5.64-6.45-3.5.07-5.33,3.03-5.05,7.05.09,1.33.3,2.23.51,2.66,1.3-.14,2.6-.29,3.91-.44-.1-1.11-.18-2.24-.26-3.37.56-.04,1.12-.09,1.69-.13.13,2.06.31,4.08.53,6.08-2.29.32-4.58.64-6.87.95Z"/>
    <path class="cls-3" d="M57.95,64h0c-.48-.12-1.9-1.84-1.48-2.2.97-.83,1.77,1.78,1.48,2.2M62.41,65.98h0c.21-.45.68-.63.89-.43,2.07,1.92,1.94,4.03,2,4.16.07.12-.54,1.68-.81-.73-.03-.27-.29-.51-.92-.49-.29,0-1.06-.27-1.32-.83-.07-.14-.1-1.08.17-1.67ZM57.77,67.03h0c.18,1.86-.4,4.23-.5,4.59-.07.29-.43.87-.78,1-.36.13-.71-.19-.82-.74-.08-.43.22-4.35.29-5.06.08-.7,1.26-1.63,1.42-1.57.59.2.34,1.3.38,1.77ZM62.23,70.31h0c.08.19.45,1.76.49,2.02.05.26-.57,1.21-1.19.22-.08-.13-.67-1.78-.66-2.02.04-.7,1-1.08,1.36-.23ZM59.55,57.77c-.62,1.04-1.15.39-1.27.1-.11-.29-.32-2.14-.67-2.52-1.56-1.87-2.61-1.69-3.02-1.83-.37-.14-2.07-.44-.93,1.6.4.71,1.09.92,1.23,1.11.14.19-.24,4-.21,4.76-.49,1.23-1.08.89-1.16.57-.33-1.41-.53-2.86-.74-4.6-.17-1.41-.59-2.91-1.55-3.01-.43-.04-1.27.36-1.87,1.83-.09.21-.25,1.21-.3,1.6-.1-.09-.94-.98-1.46-1.1-.29-.07-1.86-.2-3.38,1-.6.48-1.14,1.05-.65,1.78.3.47.71.66,1.01.81,1,.49,2.2.23,3.06.48.36.1,1.37.31.5,1.53,0,0-2.16,2.66-2.65,4.82-.02.12-.68.93-.95,1.22.85,1.32,2.62,1.58,3.12,1.58.93,0,1.49-.45,1.61-1.2.12-.76.35-2.79.95-4.04.28-.59.91-1.45,1.43-.45.54,1.05.52,5.39,2.08,11.29,1.47,5.55,3.41,11.56,3.68,12.76.06.25-.72,2.69,3.71,2.45.65-.03,1.64-.72.86-1.55-.36-.38-1.32-1.62-1.62-1.96-.28-.31-4-11.45-4.2-12.12-.21-.53-.65-.86,1.22-.7.58.05,1.32-.73,1.14-1.43-.06-.26.35-1.96.43-2.36.08-.4.14-.64.73.08.21.25,1.23,4,1.26,4.46.03.37-.32.53-.43.71.88.74,2.09,1.13,2.59,1.11.84-.05,1.47.66,1.66.97,1.42,2.25.86,3.07,2.53,4.2.59.4,2.21.02,1.09-2.57-.39-.9-2.12-2.29-2.51-2.88-2.07-3.23,2.75-6.38,4.15-3.78.52.96-.02,1.67.47,1.88.72.31,1.33-.72,1.5-1.22.34-1.01.38-4.7-2.34-3.69-1.09.41-2.34.19-2.57-.37-.27-.65-1.66-4.81-2.84-6.53-.33-.47-1.58-1.27-2.47,1.11-.58,1.57-1.91,1.16-1.94.37-.05-1.63.91-3.42,1.37-5.08.74-2.64-1.37-1.7-1.67-1.2Z"/>
    <path class="cls-3" d="M81.95,48.86c2.12-1.46,2.6-3.22,2.43-4.11-.02-.15-.93-2.26-.27-2.75.47-.35,1.37.49,1.6,1.45.79,3.46,2.67,7.02,4.71,9.74.32.43-.54,2.22-2.07.97-.38-.31-.91-1.16-2.06-4.58-.22-.66-.95-.58-.96.03-.01.61-.84,2.44-2.39.77-.31-.33-.68-.61-.88-.88-.22-.29-.26-.54-.12-.64M87.87,44.03c1.37-1.26,1.97-5.27,1.76-5.94-.17-.52-.83-1.93.07-2.35,2.07-.98,3.02,1.39,3.03,1.68.16,3.25,1.19,5.17,1.37,5.63.52,1.32,3.24,5.91,3.34,6.2.59,1.73-1.37,2.63-2.08,1.72-1.85-2.35-2.2-3.93-2.29-4.2-.09-.26-1.26-4.53-1.36-4.79-.45-1.11-1.22-.21-1.15.32.16,1.21.52,3.29-.31,3.73-.25.13-1.33.91-2.84-1.1-.28-.37.03-.49.47-.9ZM78.09,49.72c.65,1.38-.14,1.53-1.05,1.97-.77.37-1.28.45-.91,1.44.1.28,1.63,2.59,2.37,2.5.74-.07.95-1.25.89-2.77-.02-.69,1-.26,1.18.17.15.36.72,4.05.7,4.35-.01.21-.26,1.25-.16,1.85.07.44.43,1.04.9,1.52,1.56,1.6,2.71-.05,2.7-.88,0-.33-.15-.84-.43-1.47-.18-.43-.39-.86-.65-1.55-.28-.74-2.57-8.44-2.73-8.66-.16-.22-.95-1.94-2.41-1.11-1.42.81-.4,2.64-.4,2.64Z"/>
    <path class="cls-3" d="M113.63,30.72c-.56-2.63,1.41-2.16,1.55-1.18,0,0,.22,4.26.65,4.52.77.48,1.31.13,1.54-.09.24-.21,1.45-1.65,1.73-1.96.27-.31,2.05-1.35,1.65-.42-.39.93-2.62,3.26-2.88,4-.3.84-1.48,3.63-3.64,1.39-.71-.74-.24-1.04-.08-1.88.12-.62-.52-4.38-.52-4.38M122.34,21.51c.53-2.3,2.06-.87,2.17-.1.26,1.81.14,2.12.1,2.49-.25,2.02-1.49.76-1.71.25-.48-1.09-.67-2.19-.56-2.64ZM124.5,36.59h0c-.22,1.22-.82,2.13-1.01,2.48-.14.25-.59.72-.95.01-.11-.23-.41-.9-1.03-1.39-.36-.29-.09-.66-.09-.66.25-.34,2.07-2,2.2-2.2.13-.2.64-.23.72.2.08.42.23,1.23.16,1.56ZM128.59,17.43c.2-.81.04-1.79-1.88-1.55-.52.06-1.75.67-1.52,2.3.27-.07.41-.41.58-.4.37.03.42.3.45.38.33.76.18,2.89.01,3.44-.34,1.1.45,1.6.49,1.77.69,2.78-.11,3.1-.34,3.5-.23.41-.64.02-.78.26-.92,1.52.48,2.98.74,3.12.25.15.18.34.06.44-.96.87-9.68,10.01-16.44,13.27-.74.36-.83.62-.58.72.25.1,2.29.49,2.45.5,1.11.02,2.04-.29,2.16-.36.13-.07,4.49-5.05,4.91-5.35,1.25-.87,2.07,1.42,2.37,2.94.1.9-1.33.93-1.56,1.09-.88.58-.46,2.2.14,5.6.26,1.45,2.22.21,2.22-.29,0-.39-.51-3.36-.54-3.77-.03-.42.1-1.86,1.03-2.76.92-.89,1.22.13,1.18.31-.75,2.85.73,3.59,1.08,3.33.81-.62,1.14-2.35,1.23-2.66.09-.3.49-1.55-.33-1.94-.74-.35-1.38-.46-1.14-1.53.21-.92,1.54-1.93,1.73-2.17.18-.24,1.41-.79,1.76.51.12.46.18,8.29.02,9.37-.16-.21-3.12-.51-3.43-.38-1.67.66-.3,2.47-.04,2.48,1.41.07,2.73-1.58,3.32-.79.49.65,1.3.87,1.59,0,.37-1.11,1.46-6.57,1-11.96-.05-.59-.23-2.55-1.35-2.81-.29-.07-1.9.56-2.67,1.97-.45.8-.83.39-.75.11.41-1.37.08-2.33-.04-3.03.24-.48,2.58-1.9,2.89-2.28.32-.39,1.35-1.67-.18-2.83-.32-.24-.95-1.4-.23-2.47.14-.21.86-1.02.64-1.39-.21-.36-.69-.93-.72-1.14-.01-.09-.17-.84-.12-1.75.07-1.22.32-2.72.59-3.8ZM112.18,22.62c-1.04-2.28,1.26-2.03,1.42-1.91,1.11.76,3.03-.04,3.52-.13.28-.06,1.14.22.42,1.28-.37.56-2.91,1.59-1.48,2.77,1.83,1.51,2.91.98,3.17.92.25-.07.65.28.66,1.46,0,.28,1.05.44,1.24.9.58,1.48-.35,1.7-.66,1.82-.32.14-1.56.2-2.36-.26-3.56-1.99-5.92-6.86-5.92-6.86Z"/>
    <path class="cls-3" d="M153.29,27.23c1.89-2,3.46-1.47,3.6-1.37,1.27.91-.15,1.97-.54,2.29-.45.35-1.08.58-1.53,1.18-.55.72-1.2,2.14-1.86,4.65.36.14.36.16.5.11.43-.19,1.08-.85,1.73-1.41.51-.44,1-.61,1.08-.64,1.02-.4.5.52.32.73-.9,1.01-3.78,3.69-4.7,5.13-.44.69-1.32,1.88-2.01,5.93-.3,1.74-1.18,3.02-1.21,3.11-.06.22-.41.78-.57.75-.17-.03-.84-1.5-.59-2.68.11-.49.43-2.04.91-3.98.22-.86-.23-1.09-.88-.69-.43.26-1.12,1.22-1.9,1.74-.2.13-.69.18-.62-.24.24-1.47,1.07-3.19,1.34-3.67,1.92-3.36,2.25-3.75,3.61-4.86.12-.1.92-.78-.12-.94-.31-.05-1.88-.22-2.28-.53-1.79-1.39-.11-3.08.94-2.8.11.03,1.44.44,1.6.42,1.39-.26,3.19-2.22,3.19-2.22M160.86,26.52c.24-.2.63-1.86.73-4.3.06-1.44,1.48-.63,1.63-.49,1.49,1.4,1.47,3.45,1.44,3.56-.03.11-.39,1.64-.52,1.95-.13.3-1.31,1.22-2.35-.09-.26-.33-.59.07-.71.4-.11.33-.49,2.08-.49,2.25,0,1.36,1.29,2.51,1.33,2.61.27.77-.29.97-.41,1.1-.13.13-3.13,3.23-3.25,3.4-.11.17-.33,1.02.89.58.18-.07,4.76-.98,5.98-3.05.1-.16,1.05-4.4,1.35-5.05.3-.66.66-.7.82-1.02.16-.32.81-3.01.8-3.3,0-.42-.72-1.22-.67-1.63.46-3.07,3.25-4.34,3.36-4.37.69-.21.58.61.52.85-.07.24-.44,3.32-.47,3.69-.11,1.27-1.13,3.37-1.23,3.75-.6,2.2-1.49,6.13-1.54,7.37-.02.5-.16.69-.16.96,0,.23.18.16.23.14.11-.04,3.16-.76,3.45-.77,2.21-.09,1.7,2.21.59,2.17,0,0-4.8.67-5.87,1.43-.18.12-3.59,12.45-3.66,12.64-1.02,2.5-2.29,3.03-2.59,3.13-.31.11-.57-.35-.44-.86.13-.5,3.79-14.18,3.82-14.29.03-.12-.16-.5-.66-.37-.26.07-2.83.45-3.09.48-.26.02-2.1.47-2.41.68-.31.21-1.48,1.01-1.69,1.14-.21.13-1.44.57-1.35-1.18.01-.28.16-1.34.63-1.97.78-1.02,3.3-3,3.34-3.17.05-.16.16-.64.15-.82,0-.17-.48-1.82-.29-3.12.05-.33.71-2.41,1.04-2.9.65-.96,1.52-1.36,1.74-1.55ZM154.24,20.76c-.91-2.86.98-3.02,2.36-1.17.63.85,1.33,1.33,1.45,2.32.11.98-.37,1.26-.81,1.67-1.25,1.17-2.94,1.1-3.28,1.01.26-.19,1.19-1.09.96-1.7-.16-.41-.68-2.13-.68-2.13Z"/>
    <path class="cls-3" d="M199.16,46.67h0c0-.12,3.17-4.83,3.26-4.8,1.54.43,1.32,2.93.91,3.57-.13.2-1.13,1.39-4.17,1.23M197.23,56.8c.2.36,1.45,7.27,1.63,7.43.7.61,2.64,1.58,3.27.71.31-.42.23-1.47-1-6.52-.09-.37-.65-2.06-2.42-2.37-.85-.15-1.62.5-1.48.75ZM208.05,46.37c-.07-.15-2.03-1.33-2.3-1.53-.27-.21-1.38-1.86-1.41-2.52-.01-.24.09-4.41-.04-4.89-.08-.32-.38-1.02-1.16-.75-1.27.44-6.37,7.11-6.73,7.52-.36.42-1.74,1.82-2.81,1.43,0,0-1.5-.9-1.7-1.02-.86-.49-2.07.28-2.18.48-.6,1.14,1.58,4.36,1.66,4.46.4.52,0,.86-.21,1.07-1.84,1.83-3.7,3.13-5.6,2.73-.27-.06-2.52-1.31-3.34-1.18-.81.13-1.73,2.3-.76,2.82,3.33,1.78,7.42,1.53,7.77,1.52,1.71-.05,2.87-.59,3.4-1.11.89-.89.95-1.15,1.92-1.97.19-.16,5.51-3.01,5.94-3.26.43-.25,2.08-.89,2.52-.83,1.16.16,2.47-.18,4.43-1.69.88-.67.67-1.13.6-1.29Z"/>
    <path class="cls-3" d="M239.11,76.58c.45.68,1.36,1.07,1.98,1.01.28-.02.45-.22.64-.2.7.09.86.67.81.89-.36,1.48-.99,1.35-1.23,1.42-1.91.57-6.13-.25-6.34-.31-.21-.06-.74.21-.41,1.28.31,1-1.58,1.67-1.9,1.41-.17-.14-5.12-2.03-5.25-2.12-.13-.08-1.09.16-.28.84.12.1,2.76,1.02,2.94,1.18.84.79-.39,1.65-.85,1.7-.29.03-.8.09-1.35-1.23-.09-.22-2.04-1.95-5.92-2-.32,0-4.94,3.87-6.94,4.84-.23.11-1.57.42-1.96.07-.39-.34-1.24-1.82-.43-3.03.64-.96,1.63.42,1.71.51.17.21.99.57,5.16-2.3,0,0,1.11-.82-.2-1.84-.26-.2-6.5-2.81-7.3-2.82-.21,0-1.19-.18-1.27-2,0-.11-.02-2.02.7-2.57.35-.25.75-.61,1.09.86.07.3.94,2.12,1.5,2.38.55.25,5.06,2.33,5.48,2.46.42.13,6.6,1.8,6.34,1.79-.66-.03,3.23.79,4.34.62.23-.04.74-.22-.19-.64-.27-.12-3.84-1.23-4.09-1.36-.24-.14-5.87-1.55-6.21-1.66-.34-.11-1.35-.3-1.36-1.76,0-.35-.12-2.32.29-2.75.15-.15.85-.44,1.18.1.22.36,1.03,1.66,1.03,1.66.33-.11,2.2-1.56,2.47-1.85.27-.29,1.08-1.94,1.36-2.12.28-.17,1.95-.07,1.71,1.28-.03.17-.04.91-.66,1.33-1.02.69-2.83,1.6-3.04,1.75-.9.65-.12,1.27.2,1.39,0,0,.63.44,1.44.31.16-.02,1.21-.32,2.71-.46,1.12-.1,2.49-.14,3.86-.06,1.19.07,1.08,1.44.23,1.51-.5.04-1.28.33-1.15.95.13.62.66.94.91,1.01.24.06.49.52,3.28-1.35.07-.05.6.05,1.03.7.29.44,1.22.8,1.33.77.21-.05,1.95-1.19,2.63-1.6M229.23,68.97c2.19-1.6,2.71.55,1.69,2.16-1.23,1.95-2.83,2.68-3.19,2.66-.36-.02-1.77-.2-.66-2.43.41-.77,2.17-2.39,2.17-2.39ZM240.08,72.68c.3-.21.3-1.29,1.22-1.52,1.36-.36,1.37.69,1.42,1.05.25,1.96-.64,2.97-.97,3.18-.92.57-1.71.57-2.5.15-1.38-.73-3.04-.93-3.72-1.01,0,0-2.93-.01-3.95-.54-.23-.12-.82-.75-.1-1.04.18-.07,2.14-.93,2.3-1.22.16-.29.48-1.52,1.52-.66.19.15.59,1.18.77,1.2.35.05,2.79.61,2.96.61.17,0,.45.19,1.04-.21Z"/>
    <path class="cls-3" d="M276.12,141.73c0,74.21-60.16,134.38-134.38,134.38S7.35,215.95,7.35,141.73,67.51,7.35,141.73,7.35s134.38,60.17,134.38,134.39M278.01,141.73c0-75.26-61.01-136.28-136.28-136.28S5.45,66.47,5.45,141.73s61.02,136.28,136.28,136.28,136.28-61.02,136.28-136.28Z"/>
  </g>
</svg>