<svg xmlns="http://www.w3.org/2000/svg" viewBox="0 0 623.62 623.62"><defs><style>.cls-1,.cls-2{fill:#e62129;}.cls-1,.cls-3{fill-rule:evenodd;}.cls-3{fill:#fefefe;}</style></defs><g id="Layer_2" data-name="Layer 2"><g id="Layer_1-2" data-name="Layer 1"><g id="图层_1"><path class="cls-1" d="M311.81,0C484,0,623.62,139.6,623.62,311.81S484,623.62,311.81,623.62c-128,0-238-77.13-286-187.44l14.73-7.58a293,293,0,0,1-20.61-71.8L3.48,358.51A314,314,0,0,1,0,311.81a310.77,310.77,0,0,1,21.7-114.5l15.44,5.93A295.2,295.2,0,0,1,73.4,137.6L60.75,126.89a313.11,313.11,0,0,1,119-97.6l7.84,14.61a293.41,293.41,0,0,1,71.87-22.73L256.6,4.88A313.87,313.87,0,0,1,311.81,0ZM13.32,348.45l16.85-2.38a281.86,281.86,0,0,0,24.6,86.46l-15.12,7.3c48.09,102.06,151.87,172.7,272.16,172.7,166.08,0,300.72-134.64,300.72-300.72S477.89,11.09,311.81,11.09a303,303,0,0,0-45,3.35l2.29,15.31a283.34,283.34,0,0,0-83.7,26.3l-7.88-15c-40.91,20.31-77.44,49.67-105.17,85.44l13.53,11.1-.2.36a284.6,284.6,0,0,0-41.36,74.58l-.89,1.6-14.28-5.23a300.13,300.13,0,0,0-18.1,103,303.54,303.54,0,0,0,2.23,36.64Z"/><path class="cls-1" d="M311.81,2.27c171,0,309.54,138.58,309.54,309.54S482.77,621.35,311.81,621.35,2.27,482.77,2.27,311.81,140.85,2.27,311.81,2.27Zm0,3.33C480.93,5.6,618,142.7,618,311.81S480.93,618,311.81,618,5.6,480.93,5.6,311.81,142.7,5.6,311.81,5.6Z"/><path class="cls-1" d="M311,14.32c163.83,0,296.65,132.81,296.65,296.65S474.87,607.63,311,607.63c-115.88,0-216.23-66.45-265-163.31l14.78-7.5a277.86,277.86,0,0,1-28.31-97.45c-2.86.38-11.09,1.47-16.52,2.17A299.8,299.8,0,0,1,14.38,311a296.13,296.13,0,0,1,16.25-97l15.88,5.53A279.11,279.11,0,0,1,91.7,137.42l-13.08-10.8a298.05,298.05,0,0,1,96.15-79.21L183,62.06l2-.59a277.87,277.87,0,0,1,90.09-27.56l-2.87-17.07A299.91,299.91,0,0,1,311,14.32ZM18.68,337.74,36,335.64A274,274,0,0,0,65.58,437.82l-15.35,8.05C99.08,540.14,197.53,604.56,311,604.56c162.14,0,293.58-131.44,293.58-293.59S473.18,17.39,311,17.39a298.24,298.24,0,0,0-34.4,2l1.8,17.65-1.83.54c-30.51,3.77-68.06,16-94.64,28.93l-.6-.83-8.05-14a294.88,294.88,0,0,0-90.38,74.5l13.64,11.33a275.45,275.45,0,0,0-47.46,86.2L49,224l-16.45-6a293.06,293.06,0,0,0-15.07,93c0,9,.43,17.95,1.23,26.77Z"/><path class="cls-1" d="M312.67,110.91c113.88,0,206.2,91.06,206.2,203.38s-92.32,203.37-206.2,203.37-206.2-91-206.2-203.37,92.32-203.38,206.2-203.38Zm0,9.57c108.52,0,196.49,86.77,196.49,193.81s-88,193.8-196.49,193.8-196.5-86.77-196.5-193.8,88-193.81,196.5-193.81Z"/><path class="cls-1" d="M312.67,124.8c106.1,0,192.11,85.08,192.11,190s-86,190-192.11,190-192.12-85.08-192.12-190,86-190,192.12-190Zm0,6.58c102.43,0,185.46,82.13,185.46,183.43s-83,183.44-185.46,183.44S127.2,416.12,127.2,314.81s83-183.43,185.47-183.43Z"/><ellipse class="cls-2" cx="312.67" cy="314.85" rx="180.76" ry="178.84"/><g id="_1445490095072" data-name=" 1445490095072"><path class="cls-3" d="M273.49,155.35s23.29-3.78,36.88,5.92,24.62,20.33,24.41,39-6.54,33.91-18.59,48.83-30.44,27.78-44.74,46.79-28.2,36.57-29.63,59.65,10.52,39.33,23.5,51.08a86.25,86.25,0,0,0,55.26,22c23,.61,39.23-12.57,43.22-20.33s3-25.34-20.84-38.82c0,0,27.58,9.7,27.37,32.38s-31.05,37.49-61.9,37.49-51.29-14.91-66.81-31-25.75-39-26.56-68.65,13.48-52.51,29-77.84,36.77-55.78,38.2-75.19-9.5-31-9.5-31l.72-.3Z"/><path class="cls-3" d="M338.56,192.12s27.38,10.42,27.38,36.37-12.67,37.19-24.31,49.24-41.68,32.9-55.37,48.83-18.39,28.61-18.39,42.5,7.15,28.6,22.07,39.23,56.39,20,71.3-11.85c0,0,2.76,26.76-44.54,26.76s-67.83-45.15-67.83-45.15-9.6-26.46,9-56.49,48.22-56.39,52.51-59.66,25.54-28.81,28.19-50.47c0,0,1.54-12.77,0-19.31Z"/><path class="cls-3" d="M370.33,229.82s21.46,12.05,21.46,38-16.35,38.82-34.12,51.9-68.86,32.48-68.86,57.41,27.79,32.48,39.64,32.48,28-6.12,29.22-19.4c0,0,3.06,12.15-13.08,19.4s-35.14,7.26-50.77-3.88-29.32-30.44-16.65-58,49-47.4,65.17-62.83,28.3-32.38,28-55.06Z"/><path class="cls-3" d="M343.47,375.19s9.8,3.47,9.8,12.56-8.47,17.78-25.33,17.78-34.12-10.22-34.12-27.28,26.25-31.77,26.25-31.77,16.86-9.7,33.2-18.69,41.38-32.18,43.22-54.86-13.9-39.64-27.18-48.63c0,0-.61-26.4-31.87-37A63.48,63.48,0,0,0,317,160.4c-14.81-10.93-37.19-11.33-47.91-7.76,0,0-3.88,1.23-1.94,3.47s10.52,7.87,10.52,25-5.52,28.61-19.41,51.49-41.27,58.43-46,88.26-.82,53.33,20.84,84.18c0,0,18,24.92,56.8,36.16s72.73-14.3,72.73-14.3,10.83-8.79,11.44-26.15-18.59-37.19-51.28-35.35c0,0,23.09-7.76,46.38,14.92,0,0,18.18,17.77,1.23,41.27s-46.38,25.74-65,25.74-40.25-6.54-66.2-29.42-34.53-58.84-33.51-79.68,7.77-42.09,18.8-60.68,42.29-63.34,48-83.36-4.29-34.12-8.48-37.29-5.62-5.72-2.65-7.05,24.31-6.94,45.15,1.33,28,21,32.49,30.75c0,0,31.36,11.95,32.58,40.45,0,0,28.91,13.9,29.32,47.2s-31,51.79-37.39,55.78-41.27,21.14-53.42,31.66-14.92,19.62-12.88,27.48,20.44,17.06,32.59,17.06,21.15-7.76,20.74-14.09-7.15-12.31-7.15-12.31Z"/><path class="cls-3" d="M348.27,339.38s3.47,2.86,6.74,3,6.64-2.75,9-8.27,5-9.19,8-7.56.41,7.15-1.23,10.62-2.35,9.51-1.22,11,6.13,2,9.4,1.63,6.84.1,7.35,3.17-1.43,4.09-4,4.29-9.5-.61-11.55,1.94-.92,7.76-.4,9.71-1.23,3.16-2.46,3.67-3.06-.92-5.92-4.59-4.8-5.11-8-5.11c-2.59,0-4.57,3.08-5.2,4.2a47.35,47.35,0,0,0-6.38-1.87,12.62,12.62,0,0,1,2.44-4.43c1.53-1.43,2-2,2.24-4a35,35,0,0,0-.2-7.3c-.26-.77-3.63-4.86-4.34-6.29-.64-1.28-2.4-3.23-1.34-5.64l2.75-1.51c2,.65,4.31,3.32,4.31,3.32Zm19.64-4.8s-2.15,7.05-2.15,12.11,6.69,6.33,9.86,6.53c0,0-5.77,1.13-7.71,3.84s-1.64,8.17-1,10.82c0,0-6.18-8.37-11-8.27s-6.79,1.89-6.79,1.89a32.12,32.12,0,0,0,1.18-8.22,22.61,22.61,0,0,0-4.65-11.7s4.75,3.52,10.26,3.57,12.06-10.57,12.06-10.57Z"/></g><g id="_1445490092384" data-name=" 1445490092384"><path class="cls-3" d="M251.4,465.24l5-8.33s-4.55-.66-4.4-4,2.76-4.09,4.91-4.14,10.47.05,11.23.05a3,3,0,0,1,3.17,3.32c-.26,2.91-9.19,18.8-9.19,18.8l2.19,1.63s2.2,1.38.51,4.4-5.1,1.78-5.1,1.78l-13.28-7.51s-2.56-1.63-.72-4.9S251.4,465.24,251.4,465.24Zm17.21-13.59L258.19,472l4,3-.67,1-13.33-7.46.56-.76,4.12,2,8.22-15.35-5.52-.15,0-1.89,13-.72Z"/><path class="cls-3" d="M288.25,474.43A5.64,5.64,0,0,1,285,477c-2.24.61-1.78,4.44-.71,5.87s5.11,1.74,8.78.21,11.5-6,12.11-16-8.12-13.08-14-12.26-10.42,3.52-10.31,10.88,4.08,8.73,7.35,8.68ZM287,480.51s12.36-.56,15.22-11.19c0,0,2.3-11.18-10-11.64,0,0-7.87-.26-8.58,7.56s9.75,7.56,11.59,6.59c0,0-1.07,3.09-5.15,6.46a14.33,14.33,0,0,1-3.64,1.33Zm6.05-20.92h0a3.13,3.13,0,0,1,3.11,3.12V467a3.12,3.12,0,0,1-3.11,3.11h0A3.12,3.12,0,0,1,290,467v-4.32A3.13,3.13,0,0,1,293.08,459.59Z"/><path class="cls-3" d="M328.73,455.56s5.72-.46,8.07,2.91a12.84,12.84,0,0,1,1.53,11.29s3.63,1,3.63,3.78v7s-.21,2.45-4.6,2.65-15.83,2.2-15.83,2.2a3,3,0,0,1-3.22-2.56,6,6,0,0,1,1.84-5s5.05-5.72,6.46-7.43a4.77,4.77,0,0,0,1.25-3.73c0-.92-1.25-2.53-2.63-.38s-2.07,3.9-4.5,3.9-2.84-.58-3.39-2.63a10.11,10.11,0,0,1,.89-6.33,12,12,0,0,1,10.5-5.72ZM320.07,467h1.48s1.53-4.85,5.26-4.85,4.65,4.68,2.74,8.34-7.69,10.35-7.69,10.35v1.64l16.75-2.3v-7.46h-1.33l-2.45,4.14-7.3.51v-1l6.79-6.85a6.46,6.46,0,0,0,2.3-5.16c-.1-3.37-2.76-5.92-8.07-5.92s-8.43,3.83-8.48,8.58Z"/><path class="cls-3" d="M354.45,464.8a8.92,8.92,0,0,1-3.07-6.94c0-4.65,5.21-9.45,12.72-9.45s9.86,4.13,9.86,8.12-1.13,4-1.13,4,3.58,2,3.58,7.36-4.5,10.88-13.18,10.88-10.62-4.91-10.62-8.84,1.84-5.11,1.84-5.11Zm5.21.72v-1.59a5.31,5.31,0,0,1-5-5.56c0-5.32,5.06-7.51,9.3-7.51s7.15,2.71,7.15,5.21-3.48,4.65-3.48,4.65v1.07s6.08.56,6.08,6-5.92,7.66-9.29,7.66-8.48-.62-8.48-5a4.58,4.58,0,0,1,3.73-4.9Zm3-12.77s3.42-.1,3.42,3.88-2.5,3.73-2.5,3.73-4.91-.38-4.91-4.39c0,0,0-3.17,4-3.22Zm-.1,12.87s6.69-.42,6.69,4.14-4.65,3.88-4.65,3.88-3-.1-4-4.09S362.52,465.62,362.52,465.62Z"/></g><path class="cls-3" d="M208.74,178.63a3,3,0,0,1,1.15-1.62l9.6-6.84a3,3,0,0,1,4.4,1.06l.77,1.48a3,3,0,0,1-.78,3.71l-.17.14,9.59,13.08.42-.22a3,3,0,0,1,4,1.15l.56,1a3,3,0,0,1-.81,3.91L228.62,202,220,209.37a2.93,2.93,0,0,1-1.86.72,3,3,0,0,1-1,2l-6.49,5.87a3,3,0,0,1-1.72.76,8.67,8.67,0,0,1-1.34,3.12l-1,1.6c-3.52,5.32-7.18,8.45-14,8.56a15.16,15.16,0,0,1-2.44-.17l4.71,3.32a3,3,0,0,1-1.55,5.44l-16,1,4.87,3.2,1.09-1.24a3,3,0,0,1,3.95-.51l1,.67a3,3,0,0,1,.85,4.06l-3,4.76a3,3,0,0,1-.14,2.87L180,265.09a3,3,0,0,1-1.93,1.37,2.63,2.63,0,0,1-.39.06,3,3,0,0,1,.2,3.31l-3.52,6.08a3,3,0,0,1-1.36,1.23,8.61,8.61,0,0,1,1.57,6.66c-.79,4.57-3.81,9.6-8.45,11a11.09,11.09,0,0,1-4.77-.27l0,.28,1.35.09c4.42.34,7,2.55,7,7.28,0,.64,0,1.28,0,1.91,0,6.37-1.36,11-7,14.82A15.51,15.51,0,0,1,151,321.23a16.42,16.42,0,0,1-8.73-4.45c-5.21-5.58-6.15-12.31-2.52-18.66a2.76,2.76,0,0,1-.37-.46,2.89,2.89,0,0,1-.4-2.39l.33-1.3a3,3,0,0,1,3.23-2.24l1.07.12-.18-.06-1.43-.51a3,3,0,0,1-1.85-3.75l3.53-10.88a3,3,0,0,1,.85-1.32,3,3,0,0,1,.07-1.64l2.45-7.56a2.87,2.87,0,0,1,1.63-1.81,2.91,2.91,0,0,1,2.43,0l1.28.56a3,3,0,0,1,1.73,3.31l0,.13,13.76,4.91.12-.85-15.28-17.6a3,3,0,0,1,2.48-5l22.74,1.65.11-.3L164.58,242l-1.45,1.1a3,3,0,0,1-4.12-.48l-1-1.18a3,3,0,0,1,0-3.81l5.26-6.39a2.93,2.93,0,0,1,2.24-1.09l3-.08a3,3,0,0,1-.51-.36l-1-.92a3,3,0,0,1-.41-4l4.39-6A3,3,0,0,1,175,218l1.13.74a3.64,3.64,0,0,1,.65.58c0-.13-.06-.27-.08-.41-1.29-7.52,1.61-13.66,8.13-17a3,3,0,0,1,.92-2.8l1-.91a3,3,0,0,1,2.78-.69,2.82,2.82,0,0,1-.16-1,2.88,2.88,0,0,1,1-2.27l8.63-7.71a2.92,2.92,0,0,1,1.42-.72,2.88,2.88,0,0,1,.83-1.12l6.58-5.61a3,3,0,0,1,.9-.54Zm4.72,4.87a3,3,0,0,1-1.07,1.76l-.36.29.6,7.93,10.84,3.33,0,0-9.65-13.44-.38.15Zm-20,16.94,3.78,3.11a3,3,0,0,1,.42,4.2l-.83,1L199.4,206a2.87,2.87,0,0,1,2.3-1,2.91,2.91,0,0,1,2.23,1.11l.85,1a3,3,0,0,1-.1,3.88c.35.29.74.55,1.08.82l.19.15-.19-9-10.06-3.38-1,.48a3,3,0,0,1-1.26.31Zm-16,21.11a2.93,2.93,0,0,1-.28,1l0,.07,1.34.94a16.24,16.24,0,0,1-1-2Zm-23.09,71.1c-2.43-.74-4.86-1.52-7.27-2.34a3,3,0,0,1-2.48,1.65l6.33.69a3,3,0,0,1,2.66,3.28l-.14,1.32.63-3.75a3,3,0,0,1,.27-.85ZM161.88,306a4.46,4.46,0,0,0-.77-.06c-.36,0-1.21,0-1.76,0h0a3,3,0,0,1-4,2l-1.17-.46a3,3,0,0,1-1.87-3.28l1-6.17a3,3,0,0,1-2.88,2.15,7.57,7.57,0,0,0-2.72.64,3.58,3.58,0,0,0-2.2,3.67c0,4.17,7.45,5,10.4,5.07a12.4,12.4,0,0,0,3.73-.51c.61-.19,2.07-.71,2.17-1.49a6.62,6.62,0,0,0,0-1.55Zm-11-26.6,5,1.78c1.57.55,3.15,1.11,4.73,1.65.82.29,1.72.63,2.55.86a5.15,5.15,0,0,0,2.06.22c.59-.1.83-.43,1.05-1a1.61,1.61,0,0,0,.1-1.25c-.42-.79-2-1.5-2.79-1.81-2.13-.83-4.47-1.52-6.66-2.2-1.72-.53-3.46-1.07-5.19-1.59l-.16.32a2.88,2.88,0,0,1-.65.88,2.91,2.91,0,0,1,.05,1.63ZM174,264.68a3,3,0,0,1-.67-1.6l-1.5,2.29.28.27A3,3,0,0,1,174,264.68ZM171.64,230l1.66,0-.9-.59-.42.37A2.78,2.78,0,0,1,171.64,230Zm27.4-9.29a5.72,5.72,0,0,0-.61-.46c-.31-.21-1-.7-1.48-1h0a3,3,0,0,1-4.41-.53l-.73-1a3,3,0,0,1,.25-3.77l4.25-4.59a3,3,0,0,1-3.59.22,7.66,7.66,0,0,0-2.62-1,3.6,3.6,0,0,0-3.86,1.86c-2.28,3.49,3.49,8.28,5.91,9.95a13.11,13.11,0,0,0,3.4,1.62c.61.18,2.13.54,2.63-.06a6.73,6.73,0,0,0,.87-1.29ZM214,205.8l-.38-.14v.21A2.2,2.2,0,0,1,214,205.8ZM151.51,325.27a7.29,7.29,0,1,1-7.29,7.29A7.29,7.29,0,0,1,151.51,325.27Z"/><g id="_1445490089344" data-name=" 1445490089344"><path class="cls-1" d="M151.51,328.27a4.29,4.29,0,1,1-4.29,4.29A4.29,4.29,0,0,1,151.51,328.27Zm0,3.17a1.13,1.13,0,1,1-1.12,1.12A1.13,1.13,0,0,1,151.51,331.44Z"/><path class="cls-1" d="M142.22,294.71l8.42.92-.15,1.53s-7.92,0-7.92,7.31,10.83,8,13.33,8.07,8.48-.72,8.94-4.65-1.07-4.95-3.73-4.95-4-.16-4.64,2.19l-1.18-.46L157.08,294l1.28.41s-.72,2.86,1.83,3.32,6.49-.51,6.49,4.49.36,10.17-5.67,14.25-13.69,1.33-16.55-1.73-6.59-9.2-1-16.81l0-1.66-1.59-.25.34-1.31Z"/><path class="cls-1" d="M143,288.46l3.52-10.88,1.53.61-.76,3.11s13.58,4.86,15.07,5.27,5.21,1.22,6.69-2.56-1.38-5.77-4.4-6.94-14.5-4.6-14.5-4.6l-1.28,2.6-1.43-.46,2.45-7.56,1.28.57-.51,2.65L166.86,276s5.62,2.2,4.75,7.26-4.09,8-6.38,8.68-19.62-5.36-19.62-5.36L144.44,289l-1.43-.51Z"/><path class="cls-1" d="M171.76,274.41l3.53-6.08-1-.66-2,2.35L168,265.78l4.35-6.64,5.46,1.07-1.48,2.55,1.12.77,5.93-9.76-1.13-.81-1.17,1.73L155,252.8l16.19,18.65-.36,2.4,1,.56Zm-4.8-10,3.27-5.67-8.94-1.84Z"/><polygon class="cls-1" points="180.68 252.65 181.89 253.47 186.5 246.11 185.53 245.45 182.72 248.66 168.11 239.06 193.14 237.58 173.37 223.64 174.5 221.29 173.37 220.55 168.98 226.55 170 227.47 172.12 225.6 183.08 232.68 165.61 233.14 160.35 239.52 161.32 240.7 164.48 238.3 181.65 249.99 180.68 252.65"/><path class="cls-1" d="M188.78,200.47l6.54,5.4-1,1.19s-6.61-4.34-10.62,1.77,4.65,12.64,6.72,14.06,7.48,4.05,10,1,1.82-4.73-.4-6.19-3.25-2.32-5.09-.72l-.73-1L201.6,208l.84,1s-2.16,2-.28,3.79,5.7,3.13,3,7.32-5.28,8.69-12.56,8.8-12.18-6.4-12.89-10.53-.46-11.31,8.37-14.61l.93-1.38-1.18-1.08,1-.91Z"/><polygon class="cls-1" points="192.37 196.57 201 188.85 201.98 189.98 200.03 192.02 208.05 194.73 207.85 187.78 206.57 186.66 204.07 188.03 203.2 187.06 209.79 181.45 210.5 182.93 208.92 184.21 209.79 195.75 223.94 200.09 226.03 198.71 226.75 199.68 218.06 207.09 217.35 206.07 218.88 204.38 210.35 201.32 210.76 209.18 212.29 210.31 214.39 208.77 215.15 209.85 208.67 215.72 207.65 214.7 208.97 213.17 208.72 200.86 195.49 196.41 193.39 197.43 192.37 196.57"/><polygon class="cls-1" points="211.63 179.45 221.23 172.61 222 174.09 219.6 176.03 232.42 193.5 235.13 192.07 235.69 193.04 226.75 199.68 226.03 198.71 227.46 197.18 214.9 179.68 212.24 180.76 211.63 179.45"/></g><path class="cls-3" d="M481.83,294.93a2.91,2.91,0,0,1,1.3,2.44v9.45a3,3,0,0,1-2,2.8,2.94,2.94,0,0,1,2.28,2.87v6a2.94,2.94,0,0,1-2.94,2.94h-1a2.93,2.93,0,0,1-2.91-2.53l-9.15-4.54-5.29-.12-.05.54a2.9,2.9,0,0,1-2.51,2.63l-1.43.21a2.86,2.86,0,0,1-2.33-.68,2.82,2.82,0,0,1-1-2.2l-.1-11.44a2.81,2.81,0,0,1,.85-2.1,2.85,2.85,0,0,1,2.08-.86H459a2.92,2.92,0,0,1,2.92,2.67v.11l4-.11,9.57-5.21-1,.34a2.93,2.93,0,0,1-3.84-2.49l-.16-1.54a2.86,2.86,0,0,1,1.24-2.69l-11.06,2.46v.66a2.88,2.88,0,0,1-1.75,2.68l-.92.41a2.94,2.94,0,0,1-4-2l-2.66-10.88a2.85,2.85,0,0,1,.47-2.41l.2-.25a2.87,2.87,0,0,1-.71-1.19L448.47,272a2.94,2.94,0,0,1,.87-3.07,10.45,10.45,0,0,1-4.58-7.24,15.73,15.73,0,0,1-.19-1.88,2.87,2.87,0,0,1-.75-1.13l-.41-1.07a3,3,0,0,1-.17-1.44l-2.5-4.24a2.89,2.89,0,0,1-.33-2.21,2.93,2.93,0,0,1-1.7-1.38l-5.31-9.55a2.9,2.9,0,0,1-.38-1.41l-10.74-13.52a2.92,2.92,0,0,1,.52-4.16l1.48-1.13a2.91,2.91,0,0,1,3.77.19l.44.4,11.89-8.6-.11-.65a3,3,0,0,1-1.27-.58l-.09-.07-19.82,8.09a2.87,2.87,0,0,1-3.19-.65,2.91,2.91,0,0,1-.63-3.2L423.4,194a2.48,2.48,0,0,1-.7-.33l-8.18,10,0,0a2.93,2.93,0,0,1-.11,4.06l-.67.67a2.94,2.94,0,0,1-3.91.19l-7.3-5.89a2.81,2.81,0,0,1-1-1.56,3,3,0,0,1-2.13.06,2.89,2.89,0,0,1-2-2.77l0-12.84-2.22,3,.81.8a2.91,2.91,0,0,1,.27,3.89l-.62.8a2.92,2.92,0,0,1-4,.6l-6.13-4.34a2.86,2.86,0,0,1-1.21-2,2.81,2.81,0,0,1,.32-1.83,8.1,8.1,0,0,1-7.05.82c-3.92-1.39-7.87-4.83-8.43-9.16-.31-2.36,2.54-7.7,3.63-9.85q1.45-2.9,3-5.74a2.92,2.92,0,0,1-.59-3.63l.65-1.15a2.93,2.93,0,0,1,3.92-1.15l8.82,4.65a3,3,0,0,0,2.4,1.23l6.13,3.23a2.87,2.87,0,0,1,1.47,1.86h0a2.92,2.92,0,0,1,3.73.21l5.25,4.87a2.8,2.8,0,0,1,.94,2.24l0,1.64.58-.58a2.93,2.93,0,0,1,3.93-.18l5,4.1a2.86,2.86,0,0,1,.85,1.15,3.47,3.47,0,0,1,.8.48l7.61,6.39.27.26a2.92,2.92,0,0,1,1.4.82l6.53,6.79a2.86,2.86,0,0,1,.81,2.35,3.87,3.87,0,0,1-.13.61,2.92,2.92,0,0,1,3.26.67l4.5,4.7a2.79,2.79,0,0,1,.78,1.59,2.86,2.86,0,0,1,1.5,1.12l9.6,13.79a2.94,2.94,0,0,1,.27,2.89l.18,0a2.86,2.86,0,0,1,2.12,1.5l5.12,9.38c2.52,3.53,3.09,8.53-.21,11.82l-.44.43a9.8,9.8,0,0,1,7.42,2.53c1.82,1.74,2.6,4.53,2.77,7.22A2.82,2.82,0,0,1,474.1,258l.26.86a2.94,2.94,0,0,1-.57,2.72,3,3,0,0,1,1.61,1.87l2.7,9.48a3.19,3.19,0,0,1,.11,1.05,3,3,0,0,1,.79,1.52l3.22,17.32a3,3,0,0,1-.39,2.08Zm-14.7-18.47-9.25,2.88v.08a2.92,2.92,0,0,1-.67,2.3,3.16,3.16,0,0,1,.7.94l.33.7,10.21-2.1a3,3,0,0,1-.92-.73,2.85,2.85,0,0,1-.67-2.31l.2-1.48a2.3,2.3,0,0,1,.06-.28Zm1.25-11.91-.71.35.71-.22v-.13Zm-3.7,1.25A2.87,2.87,0,0,1,463,265a12.66,12.66,0,0,1-.8,1.56l2.44-.73Zm-8.1-16.06a6.89,6.89,0,0,1-3.4-.75l-.79,1.39a3,3,0,0,1,3,1A9.58,9.58,0,0,1,456.58,249.74Zm-4.76-22.43-2.32,1.86a2.94,2.94,0,0,1-4.36-.78l-.61-1-2.17,1.56a3,3,0,0,1,1.09.85l.67.82a2.84,2.84,0,0,1,.66,1.8l7.19-4.1a2.8,2.8,0,0,1-.15-1Zm-37.68-41.44-8.64,10.86a1.87,1.87,0,0,1,.34.08l8.65-10.38-.07-.09A3.24,3.24,0,0,1,414.14,185.87Zm-17.56-13.93a2.94,2.94,0,0,1-2.38.26l-6.14,10.85s0,0,0,.08c-.2.31-.41.62-.63.91a3,3,0,0,1,1.77.19l.15.06,8.27-10.76-.74-1.1a3.87,3.87,0,0,1-.26-.49Zm-11.42-4.16L383,171.57c-.71,1.27-1.42,2.54-2.12,3.81-.37.66-.79,1.37-1.11,2.05a4.11,4.11,0,0,0-.47,1.59c0,.4.19.56.53.77.19.11.55.32.79.24.64-.2,1.45-1.42,1.8-2,1-1.7,1.95-3.6,2.86-5.36l2-4,0,0a2.76,2.76,0,0,1-.62-.61,3,3,0,0,1-1.39-.24l-.13-.06Zm46.93,33.63-1.51,3,2.94-1.3a3,3,0,0,1,.08-2,2.93,2.93,0,0,1-1.51.25Zm22.07,38,.21,0A4.24,4.24,0,0,0,457,238a.48.48,0,0,0,0-.12l-1.51.79-1.32.69Zm11.46,15.66c-.19,0-.28.12-.41.34a2.85,2.85,0,0,0-.29,1c0,.7-.11,1.47-.22,2.28a3,3,0,0,0,.8-.76,5.49,5.49,0,0,0,.12-2.87Zm-11.86,2.75a14.19,14.19,0,0,0-1.84,2.26c-.51.76.25,2.11,1.13,1.74l.09-.05a9.87,9.87,0,0,0,.55-3.15C453.71,258.34,453.74,258.08,453.76,257.81ZM477.13,309l-1.95,1,2,.91a2.89,2.89,0,0,1,2-1.26l-.5-.06a2.94,2.94,0,0,1-1.48-.62Zm-8.37,17.85a6.82,6.82,0,1,1-6.82,6.82A6.82,6.82,0,0,1,468.76,326.81Z"/><g id="_1445490081760" data-name=" 1445490081760"><path class="cls-1" d="M378.41,159.28l8.82,4.65-.76,1.22L383.91,164s-6.19,10.93-6.76,12.14-1.83,4.29,1.19,6.13,5.16-.32,6.62-2.73,6.11-11.77,6.11-11.77L389,166.32l.61-1.16,6.12,3.23-.67,1-2.2-.83-7.37,13s-2.73,4.5-6.94,3-6.23-4.7-6.5-6.78,7.53-16,7.53-16l-1.84-1.36.65-1.15Z"/><polygon class="cls-1" points="388 186.93 387.23 187.93 393.36 192.28 393.98 191.47 391.34 188.89 400.36 176.74 400.4 198.44 413.42 182.05 415.4 183.14 416.09 182.2 411.13 178.11 410.28 178.95 411.79 180.87 405.13 189.99 405.6 174.87 400.34 170.01 399.28 170.79 401.2 173.65 390.24 187.9 388 186.93"/><polygon class="cls-1" points="417.72 183.82 425.33 190.21 424.28 191.15 422.19 189.6 410.64 203.75 412.38 205.65 411.71 206.32 404.4 200.42 405.05 199.63 406.6 200.48 418.22 186.54 416.79 184.6 417.72 183.82"/><polygon class="cls-1" points="426.77 191.07 433.31 197.87 432.39 198.48 430.86 197.31 424.32 210.43 438.06 204.35 436.32 202.26 437.24 201.49 441.74 206.19 440.82 207.01 439.39 205.89 417.99 214.62 426.82 193.37 426 192.04 426.77 191.07"/><polygon class="cls-1" points="447.05 225.86 447.66 226.88 453.33 222.33 443.73 208.54 443.12 209.1 443.57 211.86 428.25 222.95 426.06 220.9 424.57 222.03 435.45 235.72 441.84 232.45 441.17 231.63 435.91 233.16 431.21 226.73 438.21 221.98 439.95 224.33 436.32 228.56 436.83 229.28 446.74 222.18 446.18 221.21 441.63 223.25 439.9 220.5 446.84 216.21 450.42 221.67 448.32 224.68 447.05 225.86"/><path class="cls-1" d="M454.76,227.39l1-.92,5.21,9.55s3.58,4.8.21,8.18-6,3.42-8.89.46L447,254l-.93,1.23-2.8-4.75L449,240.36l-.77-1.53-6.94,4.34,1,3.22-1,.51L436,237.35l1-.31,2.09,2,16.65-9.5-1-2.15ZM450,238.32c.31-.2,8.33-4.39,8.33-4.39s2.86,3.73,1,5.92-7.14,5-9.35-1.53Z"/><path class="cls-1" d="M464.54,262.17l.56.72,6.44-3.17-.26-.87-1.32.62s.71-5.72-1.79-8.12-8-2.71-10.27,1.63-.15,10.06-3.73,11.54-6.79-2.91-4.7-6.07,3.84-3.89,3.84-3.89l-.21-1.32-7,3.32.41,1.07,1.13-.51s-1.59,7.46,4.54,10c0,0,4.91,1.48,7.15-1.58s2.61-9.3,2.61-9.3.2-4.09,3.78-4.14,3.22,5.47,2.35,7.15-3.58,2.91-3.58,2.91Z"/><polygon class="cls-1" points="472.57 264.29 475.27 273.76 473.82 273.99 472.95 271.56 454.63 277.28 454.98 279.82 454.01 280.01 451.27 271.13 452.29 270.81 453.12 272.35 471.38 266.85 471.31 264.44 472.57 264.29"/><polygon class="cls-1" points="454.1 284.04 456.75 294.92 457.67 294.51 457.67 291.49 476.72 287.25 476.98 291.95 473.35 293.79 473.51 295.32 479.33 293.38 476.11 276.07 469.98 277.14 469.78 278.62 474.53 278.72 475.24 282.86 456.6 286.69 455.27 283.93 454.1 284.04"/><polygon class="cls-1" points="480.2 306.82 480.2 297.37 478.77 297.26 478.77 299.31 466.66 305.9 459.2 306.1 458.95 303.24 457.62 303.24 457.72 314.68 459.15 314.48 459.46 311.21 468.14 311.41 479.38 316.98 479.48 318.46 480.45 318.46 480.45 312.49 479.58 312.54 479.18 315.09 468.55 310.14 478.61 304.88 478.97 306.66 480.2 306.82"/><path class="cls-1" d="M468.76,329.75a3.88,3.88,0,1,1-3.88,3.88A3.88,3.88,0,0,1,468.76,329.75Zm0,2.86a1,1,0,1,1-1,1A1,1,0,0,1,468.76,332.61Z"/></g><g id="_1445490140352" data-name=" 1445490140352"><path class="cls-1" d="M181,476.5c0,.82,6.54,10,2.76,11.45S180.7,485.8,181,476.5Z"/><path class="cls-1" d="M182,492.9s3.94,1.64,10.22,3.88,6.59,2,6.59,3.78-.51,2.25-1.53,2.1S191.47,498.47,182,492.9Z"/><path class="cls-1" d="M178,491.16c-.41-.1-1.74-1.48-9.09-4.13s-15.63-4.91-19.87-6.49-6.59-2-7.2-1.69,3,2.92,4.75,4.6,13.43,1.89,17.21,3.22,2.81,2.25.56,2.71-17.77,9.24-22.93,11.54-16.76,7.25-19.41,8.89a67.23,67.23,0,0,1-8,3.57c-.46.26,6.74-.2,8.53-.66s14.25-5.47,15.32-5.72,1.43,2.19,4.75,2.86,16.14.56,16.7,1-.05,1.74.11,2.14,3.27,0,3.27,0A3.28,3.28,0,0,1,161,516.8a5,5,0,0,1-5.13,0,10.36,10.36,0,0,1-1.69-2.7c-.13-.77-1.48-.82-3.52.94s-4.11,2.63-3.6,5.29a2.4,2.4,0,0,0,2.91,1.17c2.09-.56,2.6-3.93,4.29-3.67s1.89.46,1.68,1.63a5.23,5.23,0,0,1-2.6,3.42,12,12,0,0,1-4.09.36s1.64,1.48,2.76,2.4,2,2.2,2.61,1.07a13,13,0,0,1,2.29-3.62c1.18-1.13,4.55-1.74,6.9-2a19.94,19.94,0,0,1,3.12-.25l-3.07-2.61a2.51,2.51,0,0,1,2.35-.15c1.38.56,4.39,1,5.87,2.15s3.63,1.83,3.17,3.21-4.49,2.15-7.3,2.81a71.2,71.2,0,0,1-12.93,1.33s-.56,2.25,1.54,2.4A54.53,54.53,0,0,0,172,528.14c5.72-1.68,6.39-4.39,6.59-5.31s-4.14-4-11.29-5.72a2.21,2.21,0,0,1-1.68-2.09c-.05-1.74,1.07-2.71,2.86-2.91s7.71.2,8.63,1.12-1.64,1.43-1.07,2a32.39,32.39,0,0,0,8.12,5.06c3.47,1.38,5.11,1.23,5.41.36s0-3.83-2.71-5.67-8.58-2-9.6-3.58,1.79-1.58,3.37-1.68,8.38-1.33,8.64-2.46.91-5.87-.77-7.3-4.7,2.35-6.69,2.55-9.6-2.45-11.9-4-3.22-1.43-5.06-.26-3.22,1.49-4.39-.1,1.84-3.06,2.19-3.37,5.93-4.95,6.8-5.46,3.73.1,8.58,1.78Zm-14.87,8.89s.21,2.45-.51,3.58a2.36,2.36,0,0,0,.82,3.21c1.07.77,3.22-.61,3.58-2.7a9,9,0,0,1,.66-2.61,71.53,71.53,0,0,0,8.22,2.3c1.94.21,2.05,1.28,1.84,2.2s-6.59,1.43-10.52,2.91-24.93-1.84-26.05-1.94.1-2.61.1-2.61a55.42,55.42,0,0,0,6.9-2.76,17.08,17.08,0,0,1,4.29-1.53l10.67-.05Z"/><path class="cls-1" d="M139.91,524.75s-7.46.1-8.79-1.64-2.55-.94-3.32,0a4.87,4.87,0,0,0-.07,4.44c.66.87,4,.72,5,.49s4.93-1.31,7.15-3.27Z"/><path class="cls-1" d="M151.66,529.4s3.78,1.27,3.52,5.05-3.17,2.76-3.17,2.76-1.37-.31-1.58-2.45,1.38-1.94,1.23-5.36Z"/><path class="cls-1" d="M243.19,557.39s3.62,6.38,3.57,11.9-2.24,4.8-2.24,4.8-3.94-2.55-4-5,1.74-5.36,1.74-8a6.41,6.41,0,0,1,.92-3.78Z"/><path class="cls-1" d="M259.84,531.18A106,106,0,0,1,273.63,534c8.38,2.25,12.46,3.68,12.36,5.21s-12.92,1.48-12.92,1.48a7.57,7.57,0,0,1-.61,5,20.29,20.29,0,0,1-1.74,3.27,9.45,9.45,0,0,0,3.88-.21,31.45,31.45,0,0,1,8.68-1.32c3.48,0,3.32.25,3.32.25a9.91,9.91,0,0,1-1,4.65c-1.17,2.6-8.22,12.72-10.52,15.53s-3.32,3.22-4.19,3.32-2.14-1.13-2.91-2.51-.48-2.47-1.94-2.47-6.49-.21-6.92,0,1-2.35,4.44-2.76,5,.13,5.24,1.33.13,1.55,1,1.5,2.76-1.78,3.42-2.88,8.28-11.52,8.53-12.39.78-1.59-.71-1.62-7.57.75-10.41,2-4.29,3.22-2.81,4.16,5.08.69,5.14,2.12-2.07,2.2-3.61,2.3-3.9-2.32-4.13-3.6-.33-1.86-.33-1.86-5.67.33-6.65,3a17.71,17.71,0,0,0-1,5.69c-.05.82,0,1.15-.91,1.25s-2.53-1.14-2.61-3.34-.08-2.78-.08-2.78l-4.39-.11a2.88,2.88,0,0,1,1.66-2c1.38-.57,4.65-1.74,4.65-1.74l.25-8.17a35.74,35.74,0,0,1,2.63,4.57c.44,1.25.67,2.09.67,2.09s2.88.36,4.26-1,5.29-5.16,5.75-6.21,2.07-5.49,1.94-5.9,4-.33,4.6-.3-1.82-1.69-3.32-1.66a51.11,51.11,0,0,1-7.15-.85c-2.74-.46-5.44-4.44-5.43-5.9Z"/><path class="cls-1" d="M358.79,546.76s-.92-11.13-1.79-15.58-1.33-5.72-1-6.08,3.12.21,6,1.69,1.84,3.88,1.63,6.28-.56,9.55-.56,9.55,4-1.22,4.44-1.94,0-3.16,0-3.16,8.84-1.08,9.76-1.18-2.76,3.53-5.36,4.91-7.26,1-9.76,6-1.68,16.3-8.12,23.86-13.18,8.58-14.51,8.58,2.81-1.74,5.62-3.83,11.63-12.73,12.26-24.83c0,0-11.8,8.48-13.48,10.32a3.93,3.93,0,0,1-4.19.92c-.36,0-.56-1.64,1.07-2.2s12.46-6.89,18-13.33Z"/><path class="cls-1" d="M365,551.31s9.25,5.62,14.3,8.94,11.55,5.31,13.49,5.31a28.31,28.31,0,0,1-9,2.4c-5.26.51-11.9-7.61-11.9-7.61A49,49,0,0,1,365,551.31Z"/><path class="cls-1" d="M464.11,525s-13.58,12.26-17.36,15.43c0,0,4.49,1.32,5.82,1.22s7.05-9.19,7.66-9.7,4.29-4.5,5.31-5.72,8.28,10.52,8.28,12.15c0,0-6.13,2.56-12.67,4.91,0,0,17.06-.51,18.59-.72s-4-10.62-12.36-18.39c0,0,4.19-5.56,7.61-6.48s4.09-.77,4.5-.77.25-3.73-2.66-3.68-4,1.54-5.31,3.83a19,19,0,0,1-4.09,5,22.23,22.23,0,0,1-3.73,0s0-2.56.87-3.53,4.65-5.46,4.86-6-6.49-.26-8.94,0a2.88,2.88,0,0,0-2.61,2.7s3.83-1,4.09.11a6.89,6.89,0,0,1-.21,4.49,2.57,2.57,0,0,0,.31,3.22c.66.66,1.69,1,2,2Z"/><path class="cls-1" d="M439.6,524.49s8,3.42,8.32,7.15-2,3.63-3.27,3.53S441.08,530.26,439.6,524.49Z"/><path class="cls-1" d="M438.78,509.78s5.46.56,7.3,2.91,1.43,4.7.77,5-2.81-1.33-4.19-2.91S438.78,509.78,438.78,509.78Z"/><path class="cls-1" d="M453.13,486.9s3.47-5.57,6.28-5.83,4,10.94,4.29,19.11c0,0,6.49-6.54,7.61-7.46s2.66-1.94,2.71.82a16.18,16.18,0,0,1-3.37,9.7,38.74,38.74,0,0,1-9.35,7.26s1.84-1.33,1.43-2.76-1-2.15-3.62,1.07-4.14,6.84-6.9,9.6-4.75,2.91-5.06,2.76-.61-1.38,1.49-3.12,7.5-6.38,8.88-10c0,0,.44-1.58-1.78-1s-2.56,1.1-2.56,1.1,0-1.81-2.6-1.15a19.51,19.51,0,0,0,.28,4.16c.36,1.1-1.51,1.33-3.25-.63s-2.22-4.73-5.9-8.81-6-6.08-6.07-6.49,0-1.38,2.75-1.28,9.66,5.67,11.24,12.16a14.55,14.55,0,0,1,3.45-1.61S453,500.38,452,499s-3.17-.81-3.17-.81l-.1-2.51s-.92-.56-1-.28,0-1.35,1.09-1.58a15,15,0,0,0,0-7.77c-1.18-3.88.51-3.62.86-3.62s1.38.3,1.64,2.91a45.43,45.43,0,0,1-.16,6.79,2.53,2.53,0,0,0,1.64-1.43c.51-1.17,4.6-.81,5.26.92a10.55,10.55,0,0,1,.46,4,2.13,2.13,0,0,0,1.84.92c1.38.05.87-.92.71-3.78s-1.17-8.89-2.09-9.45S453.13,486.9,453.13,486.9Zm10.14,16.62s5.26-6.13,6.54-7.35a18.8,18.8,0,0,1,2.35-1.94s1,.87-.77,3.78a43.54,43.54,0,0,1-6.13,6.94c-.36.36-1.79.26-2-1.43Zm-4.85-1.63c.07.18,2,1.76,2.42,2.35s.85-.36,1.08-.84a10.38,10.38,0,0,0,0-3.43c-.16-.3-2.25-.1-2.66.08a1.71,1.71,0,0,0-.84,1.84Zm-2.2,1.28a23.88,23.88,0,0,0,1.56-3.5,4.65,4.65,0,0,0-.51-3.12,25.12,25.12,0,0,0-2.4-4.54c-.51-.49-2,.58-2.84,1.76s-1.78,1.81-1.78,2.91.66.71,1.12.64,2.35,0,2.53.94a40.2,40.2,0,0,1,.25,5.93c-.13.53,3.22.12,3.45.25s0,2.28.1,2.53,2.35-.87,2.58-1-.25-1.56-.25-1.56a14,14,0,0,0-2.53-1.05,9.79,9.79,0,0,1-1.28-.17Z"/></g><g id="_1445490134304" data-name=" 1445490134304"><path class="cls-1" d="M323.59,63.84s5.41-4.5,5.21-11-6.33-9.5-11.14-9.5a9.49,9.49,0,0,0-9.5,10c.11,6.33,4.81,11.23,4.81,11.23s-5.83.62-8.48,2c0,0-1.43-2.76-6.95-2.46s-8.79,4.09-8.79,9.91a11,11,0,0,0,9.4,10.73c4.91.82,10.42-4.9,10.42-4.9l1.84.51s-3.11,6.07-2.91,10.26,2.25,9,11.54,8.79,9.5-6.74,9.71-9.3a14,14,0,0,0-4.39-10.42l3.93-.25s5.31,4.29,10.72,4,8.59-5.62,8.48-10.67-4.18-10.32-9.19-10.37-5.93,2.3-7.71,2.7-7-1.27-7-1.27Zm-3.65-1.79s5-2.45,5.16-9.34-12.46-7.26-12.87-1.28,1.84,9.55,3.93,10.93V53.88s3.91-.45,3.78,0S319.94,62.05,319.94,62.05Zm.26,6.54v8.33s8.89-.61,9.45-5S324.54,67.11,320.2,68.59Zm-3.88,0v8.12s-10.58-.27-10.58-5.36a3,3,0,0,1,3.17-2.81C311.93,68.49,316.32,68.54,316.32,68.54Zm16.6,2.1c.56,0,5.36,0,5.36,0v4h-6.13s-2.35.82.1,3,10.22,5.21,11.5-4.13c0,0,.46-6.69-5.52-6.69,0,0-5.16,0-5.31,3.83Zm-12.21,12.2v5.42h-4V80.75H314a21.61,21.61,0,0,0-2.3,10c0,6,8.17,5.57,8.17,5.57S326,96,326,90.2a7.75,7.75,0,0,0-5.31-7.36ZM299,71.5v4.24h3.83s2.2,0,2.2,1.69S302,81.11,299,81.11s-6.38-1.33-6.38-6.59,3.62-6.8,5.77-6.8,3.88.11,3.88,3.63Z"/><path class="cls-1" d="M250,78.81l-6.13,3.27S229,79.42,229,90.25s7.16,12,10.42,12,9.81-4.59,10.22-8.88h1.43v10.52s.61,7.76,9.91,7.76,11.24-6.64,11.24-9.09.51-7.35-6.44-11.13l2-2.46s11.55,4.29,16.66-1.12-1-17.37-7.67-17.57-9.09,4.39-9.09,4.39l-6.79,1V74.06a14.12,14.12,0,0,0,.66-12.62c-3-7.1-14.5-5.26-17.67-.92s-2,12.16,5.52,17l.51,1.28Zm3.11-3.07-2.35-7.56,2.71-1,2.3,7.36s3.32-.82,3.47-7.77-8-8.27-10.83-5-5.3,8.32,4.7,14Zm5.11,5.93,2.66,7.41s7.5-2.51,7.25-7.21-5.93-3.93-9.91-.2Zm-2.71,1c0,.51,1.38,7.35,1.38,7.35H249.1s-3.88.26-4.24-3.26S249.86,82.33,255.48,82.64Zm15.89-3.07,5.16-1,.3,3.43-5.61,1.68s-.72,3.83,2.45,3.68,8.73.61,8.58-6.44-6.18-7.5-9.09-5.51S270.81,78.4,271.37,79.57Zm-16.45,14.2s-.87,6.8-.25,10,2.86,4.49,6.33,4.59,7.66-1.07,7.81-5.62-.92-6.48-4.39-8.12l-2.35.1,1.53,4.6-3.57,0-1-4.29s-1.84-2.14-4.09-1.33Zm-15.94-5-.1,3.27,5.72-.1s3.48.71.21,4.08-9.2,4.24-11.39-1.73,1.73-8.33,4.19-8.59a6.38,6.38,0,0,1,3.83.62l-.05,2.4-2.41,0Z"/><path class="cls-1" d="M198.58,95.31a23.06,23.06,0,0,1,6.54-.92,10,10,0,0,1,10.06-7.46c8.48-.1,9.71,8.33,9.45,11.95a9.48,9.48,0,0,1-7.92,8.58H208l-.77,2.51s9.66,1.94,9.25,10.72-6.79,10.73-11.8,10.63-10-3.17-10-15.12l-1.79.1s-3.88,11-11.13,11.49S171,118.09,171,115.48s2.86-9.29,12.11-7.76a43.44,43.44,0,0,1,5.56-5.88s-10.72-6-10.62-13.23,5.62-9.34,11.29-9.44,8.68,3.72,9,8,.25,8.18.25,8.18Zm-4.14.81-4.64-6.94-2.66,1.89L190,97.14s-4.19-.45-7.56-5.36,2.45-8.68,4.85-9,6.9.56,7.36,3.68a41.08,41.08,0,0,1-.21,9.7Zm3.43,5.67,3.93,6.69,4.55-3.16s1.17-1.28.86-4.19-1.48-3.58-3.93-3.37S197.87,101.79,197.87,101.79Zm16.34-6.89,1.53,2.76-5.26,4.08s2.34,3.34,8,1.48.87-10.93.87-10.93-3.83-4.65-7.92-.66-2.35,5.52-2.35,5.52Zm-9.35,19.71,2.41,3-2.35,2.3-4.86-6.44s-3.69.86-1.22,9,11.08,3.88,11.74,3.52a7.35,7.35,0,0,0,1.79-8.73c-2.19-4.65-7.35-4.44-7.51-2.71Zm-16.49,1.69a10.77,10.77,0,0,1-3.38,6.54c-3.16,3-8.17-.77-9.44-3.12s-1.28-5.36.71-7.2a7.37,7.37,0,0,1,7.05-1.07l-2.76,2.81,1.84,2.86s5.06-2.81,6-.82Zm9.7-5.62c0-.46-3.68-7.71-3.68-7.71s-9.55,4-8.63,8.07c0,0,2.25,2.6,12.31-.36Z"/><path class="cls-1" d="M142.29,134.33l6.54-3.47a11.56,11.56,0,0,1,10.22-7.92s10,1.84,10,10.06-4.7,11.19-14.71,10.78l-2.2,3a17.45,17.45,0,0,1,8.17,3.12c3.48,2.71,3.63,6.18,3.68,8.89s-3.06,7.2-9.14,9.5-8.94-.92-10.06-3.83-2.2-6.85-2.2-6.85l-2.71-3.27-1.58.92s3,4.09-2.71,9.4-12.1,1.79-13.84.2S116.4,155,120,151s9.35-3.68,9.35-3.68a16.8,16.8,0,0,1,4.49-5.77l-1.22-1.68s-9.66-.41-11.24-11.14a9,9,0,0,1,3.93-7.71,12.77,12.77,0,0,1,13.74-.31c3.53,2.35,2.66,10.17,2.66,10.17l-.1,3.42Zm16-2.71,1.48,2.25-4.8,4.75s.77,3,7.05.77,2.91-9.15.87-10.93a7.27,7.27,0,0,0-8.94,0c-2.71,2.29-.31,5.56-.31,5.56l4.65-2.45Zm-12.46,20.23,5.52,5.26,2.19-2.55-2.6-3.38a7.52,7.52,0,0,1,7.81,2.35c3.58,3.89,1.23,7.92-1.28,9.56s-6.12,4-8.73,1-4.6-10.27-4.6-11.44,1.69-.82,1.69-.82Zm-3.42-11.95,5.31,6.64s4.44-4.55,4.65-7.36a3.6,3.6,0,0,0-5.16-3.52c-2.61,1.12-4.8,4.24-4.8,4.24Zm-4.55-5.67-4.44-5.47-3.12,2.4,4.75,5.47s-5.57.56-8.38-3.63-2.19-6.69,1-9.45a6.13,6.13,0,0,1,9.65,1.84C139,129,138.77,133.72,137.9,134.23Zm1.74,8.22,4.7,6.33s-5.52,5.11-12.21,2.86A7.53,7.53,0,0,1,133,147c1.32-2.51,6.64-4.5,6.64-4.5Zm-10.17,10.17-2.7,2.09,2.29,2.86,5.67-2.86s2.05,3.57-1.73,6.89-6.64,2.61-8.69.57-2.91-7.51-1.12-9.25,5.11-3.42,6.28-.3Z"/><path class="cls-1" d="M100.77,184.64l4-4.8s-.77-5,1-8.12,4-4.29,9.4-4.45,9.65,5.83,10,9.66-2.5,7.25-4.6,9a14.84,14.84,0,0,1-5.41,2.45L115,192.2s6.74-2.09,11.9,1.07,4.24,10.88,1.58,14.61a13.49,13.49,0,0,1-9,5.77c-2.76.36-10.88-8.63-10.88-8.63l-3,.21s2,1.37,2.14,6.43-3.42,10.37-9.65,10.47-9.25-4.8-10.27-6.08a7.75,7.75,0,0,1,.77-8.78,21.2,21.2,0,0,1,4.49-4l2.1-6.53v-1.59s-10.83,1.38-15.12-2.91-3.27-9.35,0-13.28,6.64-3.73,9.7-3.58,5.16,2.25,6.44,3.89,4.55,5.41,4.55,5.41Zm8.53-4.24,3.52-4.39,2.76,1.94-2.35,5.11a3.67,3.67,0,0,0,5,.35c2.71-2,3.94-6.84,2.15-8.88s-6.59-5.16-10.37-2.61-.66,8.48-.66,8.48Zm-6.8,10s7,3.17,7.92,3.83.46-8.94.46-8.94-.46-1.63-3-2a3.28,3.28,0,0,0-3.48,2l-1.89,5.11Zm-.71,4,6.08,3.42s-4.55,7.51-8.18,7.51-2.4-4.29-1.78-6.54,3.88-4.39,3.88-4.39Zm13.48,2,4.19,2.7-2,3.43L112.05,199s-2.29,1.48-2.14,2.46,7,7,8.94,8,3.83-.15,5.31-2.45,3.22-2.6,2.76-6.69-8.43-6.64-11.65-3.93Zm-11.59,10.88c0,1.22,1.73,6.94-1.08,9.5s-5.72,2.5-8.78,1.12-3.53-6.59-2.86-8.22a4.11,4.11,0,0,1,4.9-2.45L95.2,211,98.11,212l2.45-3.93,3.12-.87Zm-10-16.14L87.59,187l2.19-2.6,6.64,3.47s-1.53-8.94-8.32-9.4-7.36,7.25-6.39,10.16,5.72,3,12,2.46Z"/><path class="cls-1" d="M72.52,244c.46-.61,3-4.85,3-4.85a20.7,20.7,0,0,1-1.89-9.24c.31-4.81,5.21-7.62,10.93-7.62s9.5,5.16,9.5,9.86S88.92,242,88.92,242l-.36,4.44s3.22-4,9.91-4,9.7,5.92,9.7,10.78-4,11-9.6,11a15,15,0,0,1-9.6-3.93l-2.61.61S90,264.07,90,271.27s-6.39,9.19-9.5,9.19-10.78-3-10.78-9c0,0,.26-3.83,2.45-6.18v-9.7s-10.93,6.33-17.57.81c0,0-5.11-4.54-1.89-12.31s12-6.13,14.15-4.8A48.2,48.2,0,0,1,72.52,244Zm9.6-12.26c-.1.41-1.79,4.86-1.79,4.86S75.38,234,78,229s8-3.58,10.31-1.43a6.35,6.35,0,0,1,1.43,7.91c-1.48,2.4-3.16,3.73-5.31,3.42l.92-6.43Zm-4.85,17.32,7.87.66s1-6.64-2.35-9.29-5.06,1.12-5.42,3.16a28.55,28.55,0,0,0-.1,5.47Zm.1,3.78,7.71.87S83.86,263,79,263.25,75.58,256.86,77.37,252.83Zm11.24,1.28,8.12,0v-3.83H91.42A7.82,7.82,0,0,1,98.21,246c4.8,0,5.82,3.73,5.82,7.36s-1.63,7-5.1,7-10.58-2.4-10.32-6.28Zm-11,16.6H81v-4s2.3-1.89,3.37-1.89,2.76,3.37,2.76,6.85-3.83,5.46-6.64,5.46-7.31-2-7.31-6.33,4.24-3.58,4.24-3.58l.21,3.53Zm-7.39-18.62-8.12-.72v-3.52l8.38.31s-2.55-6-8.68-6-6.49,7.81-6.49,7.81-1.12,4.86,5.06,4.86S69.17,253.72,70.19,252.09Z"/><path class="cls-1" d="M65.34,311.39a47.85,47.85,0,0,1,.77-7.2A15.15,15.15,0,0,1,63,295.25c0-5.26,5.62-8,11.09-8s9.55,3.78,9.55,9.14a16.74,16.74,0,0,1-3.63,9.66l-.1,3.37h1.74s2.19-4.24,9.45-4.24,9.5,5.16,9.5,10.47S97.78,326.3,93,326.3s-11.19-2.86-11.19-2.86l-1.12,2s5.61,4,5.61,10.82-5.92,9.45-10.21,9.45-10.27-2.7-10.27-9.34c0,0,.05-4.29,2.15-6.39,0,0-2.1-4-2-7.45,0,0-7.61,4.54-11.8,4.54s-9.5-2.35-9.5-8.94,3.16-11.39,9-11.39,11.64,4.65,11.64,4.65Zm5.77-9.65v-5.42h3.83v6s-.3,1.07,2.2,1.07,3-5.36,3-6.84S79.49,291,73.72,291s-7,3.78-7,6.79,2.61,4,4.34,3.94Zm-.56,13.07h6.9s.29-9.55-5.62-9.55S69,314.51,70.55,314.81Zm-.25,3.48h7s.76,10.57-4.4,10.57-2.65-10.57-2.65-10.57Zm13.63-5.37a37.47,37.47,0,0,0,4.91,0v4.45H81.69s-1.59,3.12,3.73,4.54,8,2,10.26-1.07,1.74-9.76-1.89-11.19-10.21.26-9.86,3.27Zm-7.35,18.19V336H72.7V332s-4.37.1-4.37,4.36,5,6.21,8.56,6.21,5.82-3.47,5.82-6.49.05-5.26-3.68-7.2l-2.45,2.2Zm-14-12H54.82v-3.57h7.66S59.77,310,53.7,310s-5.88,8.68-5.88,9a5.31,5.31,0,0,0,5.62,4.55c4.9,0,8.12-2.1,9.09-4.4Z"/><path class="cls-1" d="M73.05,374.11s.31-6.18.31-6.74-4.8-2.66-4.8-9.81S77.5,349,79.75,349s9.6,2.45,9.6,9-2.4,9-2.4,9l2.19,2.86s2.3-6.74,11.44-6.74,9.51,9.71,9.51,12.36-.77,8.18-6.85,8.18-10.57-.06-10.57-.06v1.79s7.25,3,7.25,10.52-6.18,10.58-10.57,10.58S81.2,403,79.85,398l.46-6.69a25.66,25.66,0,0,1-3.07-5.62h-2s-3.78,7.15-10.32,7.15S54.87,389.59,54.87,382s6.59-9.65,11.24-9.65,6.94,1.78,6.94,1.78Zm4.45-16v6.94a6.1,6.1,0,0,1-4.6-5.92,6.34,6.34,0,0,1,6.59-6.69,5.76,5.76,0,0,1,6,5.72,20.54,20.54,0,0,1-.82,6.07H82.81s-1.84-1.37-1.84-2v-4Zm2.4,18.64,6.48-1.84s-.51-8.43-6.12-8.27S78.47,376.36,79.9,376.77Zm11.85-.21c.41-.25,6.64-1.22,6.64-1.22l-.1-3.27-5,.31s.26-6.13,6.64-6.13,6.44,8.83,6.44,8.83.29,4.32-3.42,5.32-11.4-.26-11.6-1a8.79,8.79,0,0,1,.36-2.81ZM80.66,380,88,378.2s1.79,12.41-2.76,12.41S80.66,380,80.66,380Zm8,12L90.52,396l-3,.86-1.89-3.32-2.2.77s-1.38,8.48,5.67,8.48,7.15-7.92,7.15-7.92-1-5-4.7-6l-2.91,3.22ZM73,382.59l-7.35,1.89-.36-3.57,6.95-1.54s1-3.06-6.54-3.06-7.26,4.29-7.26,7.46,1.89,5.16,6.24,5.16S73,385.4,73,382.59Z"/></g><path class="cls-1" d="M573.51,406.14S563,404,555,407.26s-17.57,13.59-21.55,22.07a74.13,74.13,0,0,0-5.62,13.07c-2,6.75-3.58,8.58-5.92,8.89s-6.95-2.55-6.85-7.15,8.89-19,9.71-20.12,9.29-14.2,11.85-17.37v-19.1s-.21-3,4.75-3c0,0,.05-9.09-1.79-13.89A31.59,31.59,0,0,1,541,346.38s-4.09-3.17-4.09-11.75S541,321.35,541,318a41.42,41.42,0,0,1,4.59,2.55v-5a39.3,39.3,0,0,1-11.44-11.85c-4.9-7.87-5.82-14.2-1.43-21.35l-2.4-4.29,3.22-1.58,1.63,3.16,2.87-.1-.41-2s-14-11.44-6.85-27.58v-3.22s-15.37-5.57-8.63-25.18l-5-7,3.17-2.25,4.39,6.44,3.58,0-.15-1.89a35.65,35.65,0,0,0-4.49-5.29c-1.68-1.33-10.11-5.72-12.61-7A24.42,24.42,0,0,1,499,184.36l-4.64-3.89,2.09-2.4,4.6,3.58,2.35-.15s-15.94-10.63-16.14-20.44c0,0-8.28.82-16.25-6.64s-8.58-11.95-7.15-15.22l-4.7-3.27,2.66-2.75,4.7-.16,0-2s-31.93-4.44-33.87-18.13c0,0-13.48-1.43-16.85-15a20.17,20.17,0,0,1-13.28,5.42c-8,0-15.79-7.92-17.32-11.55H378.2V88.07h6.08s.31-5.21,7.2-5.21V81.23s-7.91-5.62-8.88-12.57l-7.1-1.73V64l8.07.3A12,12,0,0,1,393.73,59c7,0,15.53,4.7,19.72,7.05h1.68l.28-1.07,3.37,1.12s-.12-2,5.7-2S438,69.43,441.64,76.68c0,0,12.46-3.83,23.91,11.39,0,0,9.29-2.86,17.46,3.27s12,13.08,12.26,19.11c0,0,12.47-.72,21.25,17.26,0,0,16.14,6.64,18.19,20.84l-2.15.25v1.74a29.87,29.87,0,0,1,14.15,23.91,44.7,44.7,0,0,1-2.1,12.46l-3.93-2.15a25.65,25.65,0,0,0,2.4-10.52c0-5.82-6.48-19.2-15.83-23.55l1.63,7.36h-4.49s-.92,7.25,4.39,17.57a100.48,100.48,0,0,0,14.1,13.48l.3,4.19,6.24-4.49-.11-3.58h3.48v2.66s13.69,14.61,10.42,33.1a49.46,49.46,0,0,1,5.72,17.77s10.72,1,10.72,22.07h-3.78s1-16.55-7.66-19.31c0,0-8.37,3.27-8.37,20.64v.53h-3.53s-.92-11.11,1.74-15.7a36.75,36.75,0,0,1,6.23-7.87s.41-17.88-9.71-18.8v2.46h-4.69s-3.68,1.73-3.68,10.93,2.3,14.32,8,21.65l-3.07,3.48,3.27,7.76-3.06,1.94s-6.49-17.45-14.51-20.12a11.83,11.83,0,0,0-4.19,9.29c0,6.23.82,9.2,4.5,14.51s14,11.54,14,11.54L550,287.43l2.25,4.6L549,293.66s-3.37-11.24-11.6-9.86l.46,3.58h-3.47a25.61,25.61,0,0,0,2.65,14.3c3.78,7.76,8.13,6.9,8.13,6.9s1.94-12.93,8.22-14.61a16,16,0,0,1,11,9.29h1.43a17,17,0,0,1,2.09-5h-3.16s-5.06-8.58-5.06-21.86c0,0-1.33-8.23,6.34-15.58V254h3.72v6S583,268.33,583,280.23a29.06,29.06,0,0,1-.66,4.29h1.94v5.77s8.28,7.25,3,19.92l-3.78-.87v1.79s7.1,7.56,7.1,17.26-6.84,17.47-13,24.22l-.82,1.12,3.12,1.33-1.74,4.44s3.78,4.34,3.78,15-4.29,12.87-15.83,20.94v.53s9.24.52,13.43,3.27,3.45,3.69,6.59,4.75l-.2.74s-6.21,12.9-19,17.7-21.25,3.48-21.25,3.48v-3.43s4.7-2.6,14.92-5.77,12.93-10.54,12.93-10.54ZM517.87,132.29s11.65,6.67,12.74,16.07l-.89.14-6.81-5.38-2.45,2.18.48,12.46s-3.2.54-6.2-4.7c0,0-.82-1.22,0-5.52s3.13-15.25,3.13-15.25Zm-25.3,14.4s6.34,1,15.19,9.74,7,20.57,5.18,22.48-12.67-.68-16.62-7.49-6.13-12.4-6-18l2.58,2,2.52-3.06-2.65-3.89-.21-1.77ZM467.1,136s12.33-4.77,21.46,4.7a19,19,0,0,0-2.66,2.11c-.27.48,1.57,3.14,1.57,3.14l-1,11.64s-8.51-.88-13.21-5.38A20.19,20.19,0,0,1,467.58,142l3.4,2,1.5-2.73L467.1,136Zm19.48-13.55h2.25a32.2,32.2,0,0,0,6.57,18.9l-1.76,1s-4.23-6.39-6.75-8.44l-.31-11.47Zm5.69-4.8,3.74,6.67,2.93-1.56L495,114.45s9.81-.48,18.12,13.35l-1.37,20A18.81,18.81,0,0,1,497.17,139c-5.65-8.72-6-19.54-4.9-21.38ZM470.75,91.84l8.5,8.17L477,102.26l-5.58-4.7s-1,7.08,3.42,12.46,10.46,6.06,13.93,8.79L487.3,107s.4-1,2-1c0,0,.41-5-5.52-9.12s-7.63-5-13.07-5Zm-14.44,14.23,7.28,4.77L462,113.56l-3.68-1.36s.55,9.33,6.88,14.78,18,5.17,18,5.17l-.34-8.17s-12.46-14.16-14.58-17.3A44.55,44.55,0,0,1,456.31,106.07ZM453.17,109l2.59,1.5s-2.11,1.77.62,7.35,2.11,8.11,2.11,8.11-13.56-1.3-20.3-11.79c0,0,8.31-.2,10.42-1.09s4.56-4.08,4.56-4.08Zm-10-28.81a23.58,23.58,0,0,1,13.56,4.43c6.33,4.7,10.35,8.78,10.35,12.46v5.58a20.63,20.63,0,0,1-13.21-2.86c-6.41-4-11.51-9.46-10.7-19.61Zm8,22.54s-13.62-9.46-16.41-11.3-9-4-11.51-1.36-4.91,6.74-2.86,10.28,6.94,7.63,12.53,10,13.48-.75,14-1.09,5.11-3.27,4.22-6.54ZM440,88c.21-2.25-.13-8-.13-8.51s-8.31-8.85-9.61-10.08-5.65-2.45-7.15.07-1.9,5.17.82,9.26,9.26,7.63,11.58,8.58A9.88,9.88,0,0,0,440,88Zm-22.13,3.41c.68-.34,2.66-3.54,2.66-3.54l.2-2s-9.26,1.09-16.48-.2-7.63-2-7.63-2a3.67,3.67,0,0,1-2.93,2.39,53.23,53.23,0,0,1-5.45,1l-.2,2,3.34-.35s-1.71,2.52,1.49,6.68,9,4.43,12.13,4.43S415.38,94,415.38,94L410,90.47l2.93-2.58Zm2.38-9.13A15.29,15.29,0,0,0,412,69.5c-8.24-4.29-11.44-7.09-17.36-6.34s-6.81,1-6.75,3.34L393,67.73l-1.23,3.74-3.74-1.09s-1.36,2.73,4.49,7.36,13.08,6,27.65,4.56ZM580.29,292v5h3.88s1.5-.27,1.5,4.7-1.56,4.22-1.56,4.22h-4.7v3.41s-7.56,6.95-7.7,7.35-2.25-5.44-2.25-9.33,3.14-9,3.14-9,5.44-5,7.69-6.27Zm-13.35-26.08v6.47h3.41V266s8.92,5.65,8.92,13.82a18.22,18.22,0,0,1-5.86,13.08s-4.08,4.7-5.65,3.06-4.29-11.58-4.43-15.94S562.79,265.88,566.94,265.88ZM546,251.1l.68-1L543.31,243s-.07-8-2.79-12.19-8.38-8.92-12.53-8.65-3.54,3.75-3.61,8.65,3.47,9.33,4.7,10.35,3.81.62,3.81.62l.75,2.52a43.94,43.94,0,0,1,5.72,1c1.7.54,6.61,5.79,6.61,5.79Zm-6.54-26.7c.75.68,4,2.73,4,2.73l2.59-4.5a20.47,20.47,0,0,1-1.3-2.93c0-.41-1.9-.75-2,.82s-.31,3.4-.31,3.4l-2.38-.17-.51.65Zm8.1-5.65s2.39-.41,2.32-.82,0-6.67,0-6.67h3.2v5s5.31.13,6.88,1.22c0,0,.34-10.21-1.09-13.89s-3.13-5.45-4-6-4.22-.48-4.22-.48v-4.29s-6.47,1.43-6.47,9.06.27,8.78.95,10.76,2.38,6.06,2.38,6.06Zm-9.46,3.88c.34-.54,1.22-7.35,1.9-9.47a12.38,12.38,0,0,0,.28-4.83s-5.45-12.19-6.61-14.37-8.58-8-8.58-8l3.13,8.17-3,1.64-3.89-9.54a14.75,14.75,0,0,0-1.9,9.13c.61,5.31,6.53,13.42,7.49,14.85s11.17,12.46,11.17,12.46Zm-4.5-35.55,4.16,6.81.2,1.7,1.84-.2-.41-3.88-4.49-4.57Zm-14.91,17.16s-4.63-9.46-2.52-16.75c0,0-2.45-6.06-10.29-3.75l1.71,2.39-2.18,3.61L503.2,188s-.75,3.95,5.17,9.73,10.29,6.54,10.29,6.54Zm-4.43-46a18.34,18.34,0,0,0,6.74,4s.41,13.15,9.54,20.43l-1.57,1.78s-1.29-1.91-5.31-2.05L521.18,178l-2.73,1.57,1.71,3.81-.89.55-3.61-3.48s3.34-3.81,2.25-10.42-3.82-9.33-3.82-9.33Zm65.91,248.27a3,3,0,0,1-.72,2.65,52.7,52.7,0,0,1-6.94,6.18c-1,.56-1-.81-1-.81s4.34-4.14,5.21-6.13S578.3,406.62,580.14,406.47Zm-3.63-5.11s-4-2-13.13-2-18.54,3.16-23,8.88-10.93,14.1-14.3,20.23-8.18,16.14-7.15,18.49,4.59-3,4.59-3,3.78-13.9,12-24.42,14.2-15.32,22.73-16.65a54.68,54.68,0,0,1,16.4-.05c1.07.15,2.45.1,1.94-1.48Zm-36.83-7.25c0,1.58,0,8,0,8s-.51,1,1.44,1,1.48-8.22-1.44-9Zm6.19,5.41h1.58l1.33-20a22.75,22.75,0,0,0,8.48-10c3-6.85,1-21.61-.16-22.73s-1.53-3.07-4.39-4.3v10.73h-4.5V344.3s-4.69,2.35-6.64,12.26,4.09,21.05,4.09,21.05Zm6.74-20.18c0,.31-1.08,13.39-1.08,13.39h1a3.78,3.78,0,0,0,1.07-2.46,68.47,68.47,0,0,1,.71-8.58C554.7,380.42,555,378.48,552.61,379.34Zm20.68-17.06-2.29,6,3.16,1.48,2.66-5.16s2.3,2.1,1.68,9.55-3.16,12.77-9.39,14.61-10.58,7.41-10.58,7.41l-3.22-.16a16.7,16.7,0,0,1,1-4,20.23,20.23,0,0,0,.92-8.33c-.26-3.16,4.75-19.2,16-21.4ZM567,359.93a5.77,5.77,0,0,1,2.45-5.67s2-1.27,6.29-.66l-1.08,5H573a3,3,0,0,0-3.37.15c-1.84,1.22-1.84,1.48-1.84,1.48l-.77-.31Zm11.49-43.62c-.1,1.74-.81,7.26-.81,7.26l3.06-.11,1.33-6.74s4.39,1.64,4.39,10.52-2.76,12.47-6.94,17.47-6,5.21-6,5.21h-4.91a86.45,86.45,0,0,1,1.84-20C572.68,320.4,575.85,317.13,578.5,316.31Zm-16.14,48,2.76-2.76h-1.68s-.34-3.53.69-5.21a4.85,4.85,0,0,0,.4-4.7c-.61-1.64.41-16.91,2.3-23.19a41.32,41.32,0,0,1,3.68-9.14V318.2l-3.12.77s-1.17,6.43-2.29,10.32-2.1,6.43-2.1,6.43l-3.06-2.6s4-8.1,4-16.68-2.35-16.24-10.11-18.9c0,0-5.31,4.39-5.31,14.71s6.84,16.24,8.17,18.7,2.14,4,2.14,4v1l1.59.21,1.23,28.45.73-.23Zm-19-41s-2.11.81-2.11,8.17a58.85,58.85,0,0,0,.88,11.37h1.64s2.93-5.45,7-5.45a7.55,7.55,0,0,1,6.13,3.34v-4S550,330.3,543.38,323.36Z"/></g></g></g></svg>