<svg width="812" height="811" viewBox="0 0 812 811" fill="none" xmlns="http://www.w3.org/2000/svg">
<path d="M360.606 518.846C345.601 527.462 297.294 556.606 289.706 560.999C282.118 565.393 262.238 575.314 246.102 565.427C244.076 564.157 243.012 565.668 244.556 567.109C246.401 568.747 248.485 570.089 250.737 571.091C262.513 576.79 281.637 572.739 293.517 566.32C300.383 562.647 343.027 539.168 343.027 539.168L305.912 592.511H322.289C323.267 592.508 324.169 591.986 324.658 591.138C324.658 591.138 354.425 538.927 364.692 521.078C365.859 519.052 363.455 517.267 360.606 518.846Z" fill="#673328"/>
<path d="M566.618 551.319C554.463 557.876 543.682 570.13 532.111 575.863C521.811 581.046 512.061 582.145 496.678 579.982C498.052 575.828 499.391 571.812 500.524 568.654C502.502 563.104 505.403 557.927 509.108 553.345C509.451 552.933 509.108 552.28 508.284 552.589C498.821 556.884 491.467 564.782 487.854 574.524C487.511 575.451 486.996 576.721 486.413 578.231H485.795C480.425 577.05 474.88 576.889 469.451 577.751C473.87 571.26 478.708 565.067 483.941 559.214C491.161 550.815 497.373 541.598 502.447 531.753H490.808C490.131 531.746 489.503 532.1 489.16 532.68L455.649 586.985C455.45 587.372 455.605 587.85 455.992 588.045C456.154 588.128 456.333 588.152 456.508 588.117C465.252 586.058 474.262 585.361 483.219 586.058C480.027 594.125 476.353 602.946 476.353 602.946H489.057C489.057 602.946 491.391 595.532 494.138 587.053C500.696 587.891 507.316 588.111 513.914 587.705C533.038 586.126 543.717 572.842 557.656 561.205C560.677 558.624 563.877 556.262 567.235 554.134C569.329 552.658 568.162 550.392 566.618 551.319Z" fill="#673328"/>
<path d="M431.167 556.743L436.524 547.955C436.524 547.955 441.228 547.646 446.035 547.166C452.777 546.311 459.006 543.102 463.614 538.104C464.06 537.589 463.442 537.142 462.823 537.417C458.597 539.525 454.003 540.795 449.296 541.159C444.297 541.416 439.291 541.416 434.292 541.159C434.004 541.148 433.729 541.292 433.571 541.536L419.288 563.368C419.141 563.564 419.178 563.845 419.374 563.993C419.498 564.085 419.659 564.109 419.803 564.054C421.794 563.677 426.669 562.853 432.37 562.304C440.885 561.48 441.846 567.418 439.236 574.902C436.627 582.385 426.12 592.271 415.717 592.065C407.168 592.065 406.996 583.861 413.555 580.257C414.619 579.639 413.967 578.643 412.799 578.849C409.078 579.563 406.097 582.354 405.143 586.023C404.422 589.902 406.07 596.321 414.962 597.386C429.99 598.299 444.111 590.153 450.841 576.687C457.056 562.098 450.91 552.177 431.167 556.743Z" fill="#673328"/>
<path d="M370.564 554.065C360.092 559.111 345.499 571.984 345.259 589.182C345.053 603.976 366.066 599.479 377.5 586.916C378.873 585.406 377.74 584.135 376.126 585.268C372.04 588.014 362.838 593.472 358.958 591.035C352.882 587.225 362.735 569.478 374.238 562.304C382.753 556.983 392.504 555.061 388.727 568.826C384.95 582.591 374.032 598.381 364.384 608.198C354.736 618.016 344.916 621.002 338.942 619.046C334.15 617.535 331.49 612.424 333.002 607.635C333.606 605.72 334.825 604.062 336.471 602.912C338.092 601.645 340.025 600.839 342.067 600.578C343.2 600.372 343.062 599.068 341.346 599.102C339.908 599.16 338.482 599.366 337.088 599.72C328.162 602.775 325.243 614.617 330.221 620.522C336.298 627.593 354.736 629 373.174 613.656C389.55 600.2 399.61 581.424 400.229 567.762C401.053 551.422 383.92 547.578 370.564 554.065Z" fill="#673328"/>
<path d="M405.689 119.8C247.866 119.781 119.91 247.678 119.891 405.466C119.873 563.255 247.797 691.18 405.62 691.2C563.443 691.221 691.396 563.323 691.417 405.534C691.417 405.524 691.417 405.51 691.417 405.5C691.245 247.796 563.426 119.989 405.689 119.8ZM405.689 677.572C255.393 677.593 133.541 555.795 133.522 405.534C133.503 255.273 255.325 133.446 405.62 133.427C555.915 133.409 677.766 255.204 677.786 405.466C677.786 405.476 677.786 405.49 677.786 405.5C677.635 555.686 555.908 677.401 405.689 677.572Z" fill="#673328"/>
<path d="M811.249 405.5C811.249 181.548 629.659 -8.0242e-07 405.66 0C181.659 8.0241e-07 0.0703117 181.548 0.0703125 405.5C0.0703133 629.45 181.659 811 405.66 811C405.67 811 405.684 811 405.694 811C629.58 810.736 811.001 629.337 811.249 405.5ZM405.694 794.42C190.852 794.458 16.6573 620.364 16.6194 405.569C16.5815 190.774 190.715 16.6176 405.557 16.5797C620.399 16.5418 794.593 190.636 794.631 405.431C794.631 405.455 794.631 405.476 794.631 405.5C794.404 620.175 620.416 794.156 405.694 794.42Z" fill="#673328"/>
<path d="M100.118 236.853C100.117 234.553 99.9219 232.256 99.5344 229.988C99.1567 228.34 95.1739 212.31 93.2512 210.353C92.0306 208.743 89.7838 208.326 88.0667 209.392C85.32 210.285 85.011 211.314 84.6334 214.335C82.7206 221.613 80.4285 228.785 77.7665 235.824C76.9054 237.582 75.9067 239.269 74.7794 240.87L74.5391 241.213V241.625C74.7176 242.436 75.2453 243.127 75.9812 243.513C76.6647 243.763 77.429 243.646 78.0068 243.204L78.7622 242.792C81.7554 241.29 83.867 238.467 84.4616 235.171C84.8393 233.558 85.1484 231.739 85.4917 229.473C85.8564 225.448 86.8647 221.508 88.4787 217.802C88.7878 217.425 88.9937 217.425 89.0625 217.459C90.0582 217.459 91.6031 220.205 92.1869 221.853C93.4967 226.488 94.1552 231.282 94.1439 236.098C93.085 236.777 91.9266 237.287 90.7105 237.609L89.9552 237.78V238.57C89.9552 238.844 90.1611 240.252 92.6331 241.556C95.2676 243.798 97.1296 246.813 97.955 250.172C98.1267 251.648 98.1954 252.3 98.1954 252.609L96.9936 254.566L99.4313 253.708C99.4313 253.708 102.864 252.438 101.354 246.465C100.597 243.315 100.182 240.092 100.118 236.853Z" fill="#673328"/>
<path d="M90.5362 250.138L89.6435 249.589C86.0563 246.431 80.9937 245.568 76.5623 247.357L75.0859 248.078L76.4935 248.971C76.4935 248.971 80.957 251.785 83.1201 253.262C86.9298 256.412 90.5527 259.781 93.9697 263.354C94.5866 264.077 95.491 264.491 96.4417 264.486C96.6924 264.52 96.9464 264.52 97.1971 264.486C98.6065 264.105 99.6653 262.939 99.9095 261.5C100.905 257.621 92.8023 251.477 90.5362 250.138Z" fill="#673328"/>
<path d="M134.791 255.15C139.439 251.725 143.012 247.045 145.091 241.659C145.928 240.008 145.483 237.996 144.027 236.853C142.261 235.823 140.019 236.135 138.601 237.609C138.19 238.089 138.155 238.844 138.087 240.492C138.099 241.656 137.925 242.815 137.572 243.925C136.576 244.989 132.765 247.598 131.392 247.357C130.018 247.117 129.537 246.705 129.743 244.131C129.743 243.65 129.743 243.032 129.949 242.346C130.602 236.819 130.671 234.382 129.469 233.627L127.924 232.563L127.443 232.837C125.411 233.757 123.242 234.337 121.022 234.554L115.357 235.137L112.954 235.412C112.724 235.262 112.468 235.158 112.199 235.103C111.28 234.931 110.334 235.183 109.624 235.789H108.663H109.418V235.995C108.769 236.973 108.769 238.244 109.418 239.222C112.062 241.883 115.039 244.191 118.276 246.087C120.37 247.495 122.328 248.833 123.049 249.52C124.525 250.824 125.039 252.575 123.804 258.891C123.38 261.609 123.105 264.348 122.98 267.095C122.602 272.484 122.156 279.144 120.439 280.826C120.095 281.238 119.752 281.478 119.512 281.444C119.272 281.409 117.899 278.766 117.487 277.565C117.487 277.016 117.143 276.501 117.006 276.123L116.731 275.539C115.701 272.999 113.744 268.331 109.521 267.988C105.298 267.644 104.302 267.988 102.654 270.391L102.07 271.18L102.516 271.729C104.36 274.014 106.405 276.128 108.628 278.045C111.409 279.855 113.313 282.74 113.881 286.009C114.945 290.437 116.113 292.874 119.34 292.874H119.615C122.293 292.874 124.833 291.913 125.83 285.769C126.242 283.229 126.619 277.221 127.031 270.871C127.443 264.521 127.924 257.14 128.336 255.115H128.988C130.823 255.983 132.947 255.996 134.791 255.15ZM124.49 243.204C124.49 243.684 124.49 244.268 124.49 244.611C124.211 244.452 123.947 244.269 123.701 244.062C122.017 242.797 120.401 241.446 118.86 240.011L115.426 236.956C115.426 236.956 120.61 237.78 121.916 238.158C123.552 238.883 124.65 240.457 124.765 242.243L124.49 243.204Z" fill="#673328"/>
<path d="M113.403 264.315C116.197 264.271 118.621 262.379 119.342 259.681C119.806 256.96 120.024 254.202 119.994 251.442V250.756H119.342C117.844 250.298 116.222 250.498 114.879 251.305C114.054 252.326 113.693 253.645 113.883 254.944C113.977 255.638 113.977 256.343 113.883 257.037C113.883 257.346 113.643 257.655 113.506 257.999C112.577 259.794 112.275 261.848 112.648 263.834L112.854 264.521L113.403 264.315Z" fill="#673328"/>
<path d="M184.643 144.893C183.361 143.865 182.02 142.914 180.626 142.043L178.086 140.739L179.425 143.245C180.327 144.945 181.097 146.712 181.726 148.531C181.873 149.108 181.988 149.692 182.069 150.282C182.481 152.753 182.824 154.401 183.888 155.019C184.159 155.087 184.442 155.087 184.712 155.019C185.384 155.002 186.033 154.773 186.567 154.367C187.907 153.536 188.714 152.064 188.695 150.488C188.42 148.462 187.802 147.33 184.643 144.893Z" fill="#673328"/>
<path d="M173.796 139.126C175.478 139.126 178.637 139.126 180.491 133.839C181.109 132.123 181.521 130.407 181.898 128.999C182.178 127.728 182.545 126.478 182.998 125.258C186.702 127.855 189.622 131.416 191.444 135.556C193.229 140.087 192.92 140.361 191.89 141.22L188.937 143.588L190.791 144.034C192.043 144.312 193.32 144.462 194.602 144.481C195.797 144.573 196.991 144.31 198.036 143.725C198.809 143.268 199.356 142.509 199.546 141.631C199.855 140.224 199.203 138.542 197.315 135.693C196.354 134.32 194.739 131.78 193.057 129.137C189.624 123.576 187.118 119.834 186.19 118.839C185.263 117.843 184.096 117.088 181.349 119.113C181.04 119.388 180.903 119.731 180.216 121.791C179.665 123.62 178.988 125.409 178.191 127.146C177.778 127.824 177.398 128.523 177.057 129.24C176.199 130.887 174.792 133.702 173.968 133.977C172.182 134.629 171.77 135.418 171.667 135.727C171.456 136.535 171.593 137.394 172.045 138.096C172.396 138.733 173.068 139.128 173.796 139.126Z" fill="#673328"/>
<path d="M189.285 137.1C187.867 135.301 185.792 134.14 183.517 133.874C182.144 133.874 181.114 133.702 180.805 135.041V135.418L182.178 137.547C184.1 140.224 185.612 141.597 186.367 141.7H186.538C187.663 141.536 188.649 140.865 189.217 139.881C189.773 139.045 189.8 137.963 189.285 137.1Z" fill="#673328"/>
<path d="M216.025 185.364C216.27 185.659 216.637 185.824 217.02 185.81C217.259 185.853 217.503 185.853 217.742 185.81C219.905 185.055 222.927 173.418 221.964 169.642C221.003 165.866 214.137 148.154 210.36 138.439L208.609 133.874C206.583 128.759 198.892 115.44 194.876 113.69C190.859 111.939 190.171 111.664 189.313 112.385L188.867 112.934V113.278C188.867 114.548 191.167 115.99 192.094 116.71C195.461 120.224 198.273 124.229 200.438 128.587C201.467 130.819 204.318 138.576 206.823 145.407C208.368 149.595 209.811 153.543 210.703 155.911C214.652 165.797 218.051 177.262 216.849 179.94C215.27 183.51 215.373 184.746 216.025 185.364Z" fill="#673328"/>
<path d="M192.062 105.005C193.106 102.712 193.878 100.304 194.363 97.8307C194.641 95.6193 195.353 93.4849 196.457 91.5489C199.76 95.3619 202.112 99.9023 203.324 104.799V105.623C203.324 106.275 203.324 106.893 203.324 107.271L202.671 107.099H202.362C200.68 106.721 199.444 106.618 198.929 107.477C198.413 108.335 198.929 109.33 199.17 109.673C200.065 110.781 201.118 111.752 202.293 112.557C203.647 113.543 204.87 114.696 205.933 115.99C208.42 120.254 210.567 124.707 212.353 129.308C212.353 129.72 212.353 130.132 212.56 130.475C212.766 132.02 213.006 133.633 214.894 133.908C215.505 134.038 216.132 133.779 216.473 133.256C217.244 131.193 217.029 128.893 215.89 127.008C215.548 126.321 215.339 125.576 215.272 124.811C215.958 125.67 217.023 127.146 217.882 128.244C218.74 129.343 220.078 131.402 221.005 132.501C222.516 134.394 223.925 136.364 225.228 138.405C226.088 139.709 227.049 141.151 228.147 142.73C229.019 143.966 229.821 145.249 230.55 146.575C231.855 148.84 232.782 150.419 234.739 151.037C235.115 151.083 235.496 151.083 235.873 151.037C237.32 150.992 238.583 150.045 239.031 148.668V148.325C239.031 148.325 238.722 144.412 232.851 138.027L232.37 137.478C225.585 130.59 219.649 122.915 214.688 114.616C210.863 108.053 207.634 101.16 205.04 94.0204C204.834 93.2309 204.697 92.4757 204.56 91.8235C204.114 89.455 203.702 87.4297 200.474 86.6059L199.753 86.3999C196.972 85.7134 196.01 85.4731 194.363 87.4984C193.572 88.8666 192.906 90.3025 192.371 91.7892C190.53 96.4119 187.892 100.676 184.577 104.387L182.586 106.206L191.856 105.52L192.062 105.005Z" fill="#673328"/>
<path d="M318.312 70.3695C319.04 70.7155 319.884 70.7155 320.612 70.3695C322.562 69.7338 324.226 68.4338 325.315 66.6966C325.68 66.1199 326.315 65.7701 326.998 65.7697C327.25 65.7697 327.387 66.01 327.41 66.4906C327.651 68.7905 327.994 75.6215 327.891 79.0885C327.515 82.4655 325.668 85.5051 322.844 87.3955C320.68 88.3223 319.204 89.2148 318.998 90.4506C318.923 91.0822 319.184 91.7066 319.685 92.0982C320.428 92.6948 321.385 92.956 322.329 92.8191C324.237 92.6413 326.011 91.7605 327.307 90.3476C327.619 89.9525 327.951 89.5745 328.303 89.2148C329.252 90.3218 329.891 91.6599 330.156 93.0937C329.526 94.9734 328.769 96.8085 327.891 98.5859C326.828 100.562 326.008 102.66 325.453 104.833V107.236H326.345H327.033C328.722 107.558 330.471 107.317 332.011 106.55L332.972 105.692L333.247 105.348C335.18 100.359 336.731 95.2295 337.882 90.0043C339.015 83.7912 339.839 78.5049 339.839 78.4706V77.4064H337.367L337.127 78.1616C336.386 80.7639 335.492 83.3199 334.448 85.8165C334.043 85.0355 333.899 84.1454 334.036 83.2763C334.092 82.7689 334.219 82.2719 334.414 81.8002C335.014 80.5017 334.95 78.993 334.242 77.7497C333.584 74.0665 333.491 70.3046 333.968 66.5936C333.968 65.2892 334.139 64.1221 334.174 63.1609C334.174 58.9044 334.448 56.124 331.874 55.1971C330.122 54.5106 328.131 56.7075 325.624 59.488C324.566 60.7151 323.419 61.8627 322.192 62.9206C320.685 64.1447 318.977 65.0973 317.144 65.7354L316.32 65.9757V66.7995C316.47 68.2107 317.19 69.4997 318.312 70.3695Z" fill="#673328"/>
<path d="M339.423 60.449C339.423 61.0669 339.423 61.7191 339.423 62.3713C339.663 65.804 339.835 68.6188 341.448 69.4427C342.528 69.9819 343.8 69.9819 344.882 69.4427C345.75 69.0503 346.382 68.2759 346.598 67.3488C346.491 64.9977 346.004 62.6792 345.156 60.4833C344.744 59.1631 344.401 57.8228 344.126 56.4671C346.866 52.4445 350.097 48.778 353.74 45.5513C356.053 42.996 358.753 40.8183 361.74 39.0979C361.74 42.5305 357.105 60.0714 355.696 61.3758C355.01 61.8221 354.598 61.8564 354.564 61.9594C354.529 61.8241 354.529 61.6827 354.564 61.5475C354.718 61.1682 354.903 60.8009 355.113 60.449C355.847 59.4662 356.088 58.1999 355.765 57.0164C355.628 56.36 355.628 55.6817 355.765 55.0254C356.023 54.0464 356.023 53.018 355.765 52.039C355.343 50.727 354.399 49.6471 353.156 49.0526L352.058 48.6407V49.8421C351.556 52.7274 351.212 55.6381 351.027 58.561L346.392 61.9937V62.5773C346.512 63.5003 347.041 64.3201 347.835 64.8086C348.418 65.0688 349.094 65.0039 349.62 64.637L350.787 63.8818C351.257 64.6809 351.36 65.6458 351.061 66.5249C349.918 68.6137 348.597 70.6005 347.113 72.4634L346.804 72.841V73.2873C346.804 73.4589 347.353 75.1066 350.238 76.3423C351.473 76.8914 351.748 78.9854 352.024 81.0106C352.024 81.5255 352.024 82.0748 352.264 82.5553C352.607 84.5806 351.782 84.8209 351.061 85.027C350.337 85.159 349.675 85.5202 349.173 86.0567L348.83 86.4343V86.9149C349.029 87.679 349.524 88.3332 350.203 88.7341C350.862 89.0167 351.604 89.0167 352.264 88.7341C352.638 88.6572 353.026 88.7733 353.294 89.0431C353.788 89.4783 354.073 90.1017 354.083 90.7594C353.451 93.1423 353.036 95.5782 352.847 98.0366C352.847 98.3456 352.847 98.6545 352.847 98.9634C352.847 100.199 352.607 101.469 353.534 102.396C353.96 102.721 354.474 102.912 355.01 102.945C356.17 102.999 357.335 102.848 358.444 102.499C362.43 101.368 366.509 100.588 370.632 100.165C371.861 100.067 372.836 99.0925 372.932 97.865C373.228 95.8116 372.057 93.8282 370.117 93.0936C368.074 92.4919 365.867 92.8722 364.143 94.1234C363.442 94.5518 362.694 94.8971 361.912 95.1532C361.4 95.2702 360.894 95.4193 360.4 95.5995C359.508 95.9085 358.272 96.3204 357.929 96.0457C357.585 95.7711 357.585 95.7712 357.585 94.707C357.373 92.0217 358.114 89.3468 359.679 87.1551C360.949 85.4686 362.413 83.9366 364.04 82.5897L364.555 82.1778L364.314 81.5255C363.909 80.4782 363.089 79.6451 362.049 79.2257C360.96 78.7887 359.782 78.6237 358.615 78.7452H357.997L357.791 79.3286C357.791 79.8435 357.07 80.942 356.314 81.0106C355.559 81.0793 355.696 81.0106 355.628 81.0106C355.559 81.0106 354.976 79.9809 355.044 75.8618C355.044 69.5457 356.556 68.0695 357.173 67.4173C357.421 67.2999 357.688 67.2303 357.963 67.2114C359.099 67.2012 360.146 66.5867 360.709 65.598C361.088 64.9115 362.049 61.7191 363.731 56.1582C365.413 50.5973 367.782 42.7023 368.606 40.9859C370.255 37.5533 370.324 36.8668 367.645 34.6355L366.615 33.7086C365.173 32.4385 363.868 31.2028 361.465 33.7086C361.225 33.9832 360.4 34.6354 359.473 35.4249C356.727 37.5528 354.114 39.8456 351.645 42.2904C349.036 44.9678 346.529 47.8168 344.779 49.9108C343.783 51.0435 342.787 52.2106 342.169 52.8286C341.654 52.142 340.452 50.7003 337.877 52.3823L337.156 52.8972L337.568 53.6524C338.597 55.7857 339.225 58.0894 339.423 60.449Z" fill="#673328"/>
<path d="M477.589 104.902C478.599 105.232 479.653 105.394 480.714 105.383C483.718 105.18 486.68 104.544 489.503 103.495C491.46 102.911 493.692 102.259 496.37 101.641C500.833 100.543 505.641 99.7532 509.485 99.1353C511.985 98.8905 514.446 98.3725 516.833 97.5906L517.176 97.4189C518.206 96.904 519.168 96.3891 519.443 95.3937C519.587 94.7185 519.422 94.0148 518.997 93.4714C518.137 92.1327 515.563 92.0983 512.129 92.1327C511.306 92.2068 510.482 92.2068 509.657 92.1327H509.211C509.914 91.5254 510.674 90.9851 511.477 90.5193C518.405 85.1994 524.747 79.1582 530.395 72.4978C530.979 71.0905 531.013 66.0788 527.888 64.74C526.512 64.2069 525.012 64.0762 523.563 64.3624C521.726 64.5832 519.872 64.5832 518.035 64.3624C517.025 64.1963 516.002 64.1047 514.979 64.0878C511.855 64.0878 509.417 63.8475 501.589 58.6642L500.593 58.012L500.181 59.1448C499.388 62.0657 499.872 65.1866 501.52 67.7264C503.096 71.0204 506.873 72.6355 510.344 71.5024L512.026 70.9875C515.35 69.8111 518.81 69.0724 522.326 68.7906C522.841 69.4428 521.537 70.6785 519.065 72.6008L517.897 73.4933C510.42 78.9942 503.515 85.2392 497.297 92.1327C496.122 93.8641 494.035 94.7387 491.976 94.3639C490.227 94.3144 488.48 94.4411 486.756 94.7415C482.485 95.5746 478.121 95.8403 473.779 95.531H472.851C472.078 95.5107 471.43 96.1005 471.375 96.8697C471.663 100.544 474.105 103.698 477.589 104.902Z" fill="#673328"/>
<path d="M584.434 159.481C588.118 160.527 591.933 161.047 595.764 161.026C598.899 161.027 602.027 160.728 605.103 160.134C611.4 158.875 617.439 156.554 622.957 153.268L623.987 152.65C625.051 152.101 625.704 152.204 627.42 152.479L630.648 152.891L634.081 153.268C638.617 154.054 643.231 154.239 647.815 153.817H648.227C651.249 152.925 651.283 152.273 650.87 148.394C650.458 144.515 649.154 143.313 648.742 143.108L647.609 142.455L647.403 143.76C647.262 145.028 646.864 146.254 646.235 147.364C642.648 147.667 639.036 147.506 635.489 146.883C636.378 146.336 637.337 145.909 638.339 145.613C644.354 142.509 649.971 138.682 655.059 134.217C656.464 133.22 657.346 131.645 657.463 129.926C657.374 128.092 656.587 126.361 655.265 125.086L654.716 124.571L654.098 125.017C654.098 125.017 638.854 136.036 634.15 139.572L631.918 141.288C628.966 143.554 627.351 144.721 626.15 144.481C621.535 142.544 617.082 140.248 612.828 137.615C610.666 136.036 609.395 135.075 609.395 135.075L608.639 134.492L608.09 135.315C607.153 136.731 606.775 138.443 607.026 140.121C607.359 141.669 608.313 143.01 609.669 143.828C611.352 144.927 613.103 145.888 614.408 146.712C615.689 147.404 616.928 148.172 618.116 149.012C618.116 149.595 618.39 150.968 611.627 152.856L608.193 153.886C601.327 155.877 592.16 158.589 588.28 157.319C586.195 156.309 583.933 155.714 581.618 155.568H580.966V156.255C580.554 156.255 580.348 158.211 584.434 159.481Z" fill="#673328"/>
<path d="M622.576 160.648L622.164 159.001L620.997 160.236C617.783 164.211 615.868 169.075 615.504 174.173C614.542 182.926 614.953 185.364 619.829 187.114C622.524 187.97 625.344 188.375 628.172 188.316C629.443 188.316 630.336 188.316 630.439 188.316H632.842L630.954 186.84C627.956 184.633 625.327 181.969 623.16 178.944C622.593 176.155 622.476 173.292 622.816 170.466C623.139 167.196 623.057 163.899 622.576 160.648Z" fill="#673328"/>
<path d="M709.344 252.678H709.997H711.748L710.856 253.296L710.581 253.536C709.684 254.187 709.255 255.302 709.482 256.385C709.482 256.866 710.203 257.655 711.817 257.69C713.512 257.543 715.099 256.787 716.28 255.561C716.785 255.155 717.313 254.777 717.859 254.429C719.367 253.843 720.981 253.574 722.597 253.639V254.188C722.577 255.361 722.357 256.522 721.945 257.621C720.14 257.703 718.333 257.506 716.589 257.037C715.638 256.826 714.643 257.081 713.911 257.724C713.42 258.058 713.176 258.653 713.293 259.234C713.293 259.818 713.945 260.23 714.804 260.436C715.662 260.642 717.138 260.779 718.237 260.916C719.336 261.054 720.16 261.122 720.606 261.225C720.802 261.582 720.884 261.988 720.847 262.392C719.577 263.422 720.332 265.379 720.4 265.585L720.641 266.168H721.259C723.002 266.176 724.617 265.245 725.482 263.731L726.134 262.358C727.679 262.358 732.005 262.358 734.958 262.564C740.039 262.839 741.481 260.539 741.824 259.509C742.316 258.424 742.021 257.145 741.103 256.385H740.897H740.623C739.377 256.095 738.21 255.545 737.189 254.772C736.468 254.257 735.885 253.845 735.473 253.502L742.512 252.506C744.098 252.325 745.697 252.325 747.284 252.506H748.039L748.28 251.751C748.626 250.745 749.024 249.76 749.481 248.799C750.075 247.701 749.968 246.356 749.206 245.366C748.506 244.834 747.538 244.834 746.838 245.366C744.207 247.008 741.316 248.192 738.289 248.868H737.808C732.782 249.776 727.655 250.03 722.563 249.623C724.143 246.877 725.55 243.856 724.658 242.552C724.26 241.983 723.538 241.734 722.872 241.934C721.705 242.431 720.747 243.316 720.16 244.44C719.246 246.3 718.093 248.032 716.726 249.589C715.182 249.76 711.096 249.383 710.684 248.216C710.272 247.048 710.272 246.877 710.135 246.362C709.952 245.598 709.65 244.869 709.241 244.199C708.785 243.716 708.047 243.629 707.491 243.993C706.221 244.577 703.542 247.186 704.057 249.245C704.572 251.305 706.083 252.541 709.344 252.678ZM725.104 253.742C726.91 253.749 728.713 253.898 730.494 254.188C732.036 255.152 733.496 256.243 734.855 257.449C734.855 257.449 734.855 257.449 734.855 257.655C734.512 257.783 734.155 257.864 733.791 257.896C731.507 258.156 729.207 258.156 726.923 257.896C726.923 257.449 726.58 256.523 726.443 255.939V255.561C726.209 254.737 725.598 254.074 724.795 253.776L725.104 253.742Z" fill="#673328"/>
<path d="M757.719 264.315C757.342 263.765 756.621 263.662 755.693 263.525C755.147 263.457 754.615 263.307 754.114 263.079C751.212 260.718 747.55 259.498 743.814 259.646H743.437C742.75 259.99 741.925 260.607 742.062 261.466C742.162 262.058 742.637 262.517 743.231 262.598L744.329 262.804C746.22 263.031 748.058 263.589 749.754 264.452L750.131 264.795L749.754 265.036C749.136 265.413 744.672 266.58 741.685 267.37C739.316 267.988 737.29 268.503 736.535 268.777C734.163 269.694 731.68 270.294 729.154 270.562C725.174 269.006 721.339 267.112 717.686 264.898C710.238 260.358 702.418 256.465 694.304 253.262L690.459 251.82C681.497 248.387 679.472 247.872 678.476 248.662C677.789 249.398 677.542 250.442 677.823 251.408C678.136 253.326 679.441 254.934 681.257 255.63C683.392 256.268 685.559 256.795 687.746 257.209C690.905 257.861 694.613 258.651 697.05 259.475C703.918 261.775 721.085 269.464 724.896 272.519L726.132 273.549C722.527 272.69 711.472 269.361 711.369 269.326L710.819 269.12L710.441 269.67C709.71 270.759 708.858 271.761 707.901 272.656H706.356C704.875 272.48 703.375 272.573 701.927 272.931C701.112 273.366 700.364 273.909 699.694 274.544C699.042 275.17 698.318 275.712 697.532 276.157C693.405 274.589 689.467 272.562 685.789 270.116C684.996 269.448 684.251 268.725 683.558 267.953C682.908 267.079 682.029 266.402 681.017 265.997C680.471 265.915 679.915 265.915 679.369 265.997H678.613V266.786C678.613 267.782 678.613 272.965 680.605 274.544L681.566 275.128L680.021 277.668C678.156 280.817 676.986 284.328 676.588 287.966C676.416 292.497 676.588 292.565 677.103 292.874L677.652 293.149C681.487 293.482 685.292 292.243 688.193 289.716C690.798 287.166 693.731 284.973 696.913 283.194C697.532 282.988 699.42 283.984 700.347 284.602C700.034 285.018 699.691 285.408 699.317 285.769L698.356 286.661L699.557 287.245C701.455 288.299 703.602 288.82 705.771 288.755C706.156 288.683 706.555 288.683 706.939 288.755C707.75 288.838 708.553 288.533 709.102 287.931C710.571 286.733 710.792 284.57 709.589 283.102C709.589 283.098 709.586 283.095 709.583 283.091C709.171 282.542 708.278 282.13 706.15 281.169C704.776 280.675 703.465 280.031 702.236 279.247L701.548 278.045C702.733 277.175 704.134 276.652 705.6 276.535C708.038 276.535 712.158 276.775 713.428 274.269L714.08 272.999C717.514 274.269 731.248 279.315 733.72 280.86L733.96 281.032H734.235C734.407 281.032 735.883 281.032 736.329 278.663C736.518 277.284 735.852 275.928 734.647 275.231L733.96 274.613C733.559 274.201 733.081 273.875 732.552 273.652C733.528 273.291 734.568 273.127 735.608 273.171H735.848C739.148 272.852 742.426 272.336 745.668 271.626L749.616 270.905C750.485 270.837 751.357 270.837 752.226 270.905C753.603 271.16 755.024 270.824 756.139 269.979C757.376 268.537 758.612 265.447 757.719 264.315ZM688.296 283.538C685.549 285.529 682.87 286.49 682.459 286.078C681.418 284.334 681.075 282.262 681.497 280.277L682.115 275.368C683.042 275.848 684.21 276.363 685.549 276.947C687.485 277.761 689.357 278.725 691.145 279.83L692.106 280.585C690.733 281.65 688.914 283.16 688.296 283.538Z" fill="#673328"/>
<path d="M473.567 212.035L419.422 187.835V286.73L475.969 271.146L473.567 212.035Z" fill="#673328"/>
<path d="M487.546 378.828L419.427 368.256V286.73L354.604 269.292L352.234 374.846L419.255 368.599L418.294 494.44L370.569 491.66L418.294 497.633V497.77L488.507 492.449L487.546 378.828Z" fill="#673328"/>
<path d="M566.686 490.252L518.688 494.543L566.824 494.749L622.925 488.502L615.681 376.528L562.051 365.75L566.686 490.252Z" fill="#673328"/>
<path d="M544.741 286.146L484.656 268.571L487.541 378.828L547.179 368.015L544.741 286.146Z" fill="#673328"/>
<path d="M200.375 372.306L267.807 369.903L263.172 493.41L349.694 487.163L352.612 375.224L268.013 364.926L200.375 372.306Z" fill="#673328"/>
<path d="M354.873 269.052L287.234 285.529L285.93 340.314L292.522 289.201L354.873 269.052Z" fill="#673328"/>
<path d="M358.067 213.614L399.954 191.92L352.711 210.697L352.848 249.932L358.067 213.614Z" fill="#673328"/>
<path d="M194.468 439.106L188.391 489.051L254.243 491.351L194.948 484.897L194.468 439.106Z" fill="#673328"/>
<path d="M88.9563 366.883L88.4756 372.546L72.8193 371.173V371.448L87.3083 386.002L86.6216 393.657L70.8623 377.284L49.6094 391.323L50.3304 383.325L69.6606 371.105V370.796L51.6008 369.32L52.1158 363.656L88.9563 366.883Z" fill="#673328"/>
<path d="M63.2723 419.78C61.2175 419.814 59.1721 419.491 57.2295 418.819C55.5406 418.208 53.9805 417.288 52.6288 416.107C51.3759 414.967 50.3809 413.577 49.7103 412.022C49.0137 410.409 48.6628 408.665 48.6803 406.907C48.6518 403.43 50.0695 400.097 52.5944 397.708C53.9287 396.503 55.4939 395.58 57.1952 394.996C59.1378 394.323 61.1831 394.001 63.238 394.035H86.6882V399.733H63.4441C62.484 399.733 61.5271 399.85 60.5942 400.076C59.6175 400.32 58.6887 400.725 57.8475 401.278C57.0087 401.865 56.3063 402.627 55.7875 403.509C54.6754 405.661 54.6754 408.222 55.7875 410.374C56.3128 411.253 57.0286 412.005 57.8818 412.571C58.7182 413.11 59.6332 413.515 60.5942 413.773C61.5405 413.996 62.5067 414.123 63.4784 414.15H86.6882V419.848L63.2723 419.78Z" fill="#673328"/>
<path d="M86.7984 423.075L87.5194 430.593L61.6314 448.683L89.0988 446.005L89.6481 451.669L52.7733 455.102L52.0867 447.928L78.8329 429.426L50.5416 432.172L49.9922 426.508L86.7984 423.075Z" fill="#673328"/>
<path d="M89.9914 455.308L91.7768 463.786L68.1549 477.517L95.3132 480.606L97.0986 488.982L60.8417 496.671L59.743 491.351L89.8197 484.966L57.7173 481.842L56.8933 477.929L84.9786 462.07L55.0392 468.249L53.9062 462.963L89.9914 455.308Z" fill="#673328"/>
<path d="M98.5732 492.552L100.153 498.01L64.5824 508.308L62.9688 502.816L98.5732 492.552Z" fill="#673328"/>
<path d="M100.975 501.786L103.583 508.892L82.9831 532.92L108.836 523.446L110.794 528.801L76.0133 541.536L73.5412 534.671L94.7597 510.059L68.082 519.807L66.125 514.487L100.975 501.786Z" fill="#673328"/>
<path d="M93.7992 572.567C89.859 570.068 86.7144 566.495 84.735 562.269C83.674 560.131 83.0887 557.79 83.0183 555.404C82.9785 553.283 83.3878 551.179 84.2199 549.225C85.1329 547.035 86.4753 545.051 88.1684 543.39C90.0753 541.492 92.2933 539.937 94.7263 538.79C97.1832 537.565 99.83 536.765 102.555 536.422C104.929 536.095 107.346 536.246 109.661 536.868C111.829 537.444 113.844 538.488 115.567 539.923C117.344 541.444 118.772 543.328 119.756 545.449C120.798 547.533 121.504 549.771 121.85 552.074C122.175 554.392 121.916 556.75 121.095 558.94L114.812 557.292C115.408 555.871 115.678 554.333 115.602 552.795C115.512 551.196 115.103 549.634 114.399 548.196C113.732 546.785 112.744 545.552 111.516 544.591C110.305 543.699 108.927 543.057 107.464 542.703C105.897 542.429 104.293 542.429 102.726 542.703C100.98 542.926 99.2834 543.452 97.7133 544.248C96.0244 545.027 94.4711 546.067 93.1125 547.337C91.9056 548.456 90.9062 549.781 90.1597 551.251C89.4837 552.617 89.1201 554.12 89.0954 555.644C89.0714 557.203 89.4247 558.748 90.1254 560.141C90.7191 561.37 91.4565 562.52 92.3228 563.574C93.1163 564.532 94.0687 565.345 95.1382 565.977L103.104 561.789L100.117 556.091L105.508 553.482L110.864 564.501L93.7992 572.567Z" fill="#673328"/>
<path d="M126.007 603.805C124.294 604.937 122.402 605.775 120.409 606.276C118.668 606.702 116.858 606.77 115.088 606.482C113.429 606.238 111.846 605.631 110.453 604.697C107.503 602.727 105.482 599.641 104.856 596.15C104.496 594.499 104.496 592.789 104.856 591.138C105.302 589.405 106.096 587.781 107.192 586.367C108.449 584.74 109.983 583.346 111.724 582.247L131.328 569.409L134.453 574.146L115.191 586.985C114.394 587.523 113.658 588.145 112.994 588.838C112.313 589.58 111.757 590.424 111.345 591.344C110.964 592.292 110.788 593.311 110.83 594.331C110.923 595.559 111.337 596.744 112.033 597.763C112.632 598.789 113.514 599.624 114.573 600.166C115.487 600.633 116.499 600.88 117.526 600.887C118.531 600.914 119.533 600.753 120.478 600.406C121.396 600.087 122.272 599.661 123.088 599.136L142.521 586.435L145.645 591.172L126.007 603.805Z" fill="#673328"/>
<path d="M147.529 593.85L152.267 599.754L140.457 629.069L161.95 611.906L165.383 616.368L136.44 639.539L131.908 633.875L144.302 603.633L122.191 621.311L118.758 616.849L147.529 593.85Z" fill="#673328"/>
<path d="M168.334 618.771L172.18 622.959L144.713 647.983L140.867 643.795L168.334 618.771Z" fill="#673328"/>
<path d="M172.01 623.336L176.68 627.902L163.427 654.059L189.418 640.328L193.813 644.619L158.723 662.125L155.289 658.693L172.01 623.336Z" fill="#673328"/>
<path d="M193.953 644.413L210.296 657.903L206.485 662.503L194.536 652.651L188.734 659.517L200.064 668.854L196.287 673.453L184.957 664.116L178.64 671.977L191.24 682.275L187.429 686.875L170.469 672.87L193.953 644.413Z" fill="#673328"/>
<path d="M212.974 659.791L222.072 666.176C223.327 667.024 224.479 668.016 225.506 669.128C226.422 670.13 227.144 671.294 227.635 672.561C228.085 673.91 228.191 675.348 227.944 676.749C227.611 678.503 226.882 680.157 225.815 681.589C224.513 683.6 222.599 685.141 220.356 685.982C218.26 686.741 215.94 686.58 213.97 685.536L211.498 703.832L205.902 699.885L208.819 682.721L205.387 680.319L196.185 693.397L191.516 689.964L212.974 659.791ZM212.219 678.431C212.888 678.911 213.587 679.347 214.314 679.735C214.995 680.123 215.738 680.387 216.51 680.525C217.257 680.628 218.018 680.518 218.708 680.216C219.603 679.786 220.354 679.107 220.871 678.259C221.421 677.538 221.775 676.687 221.901 675.787C221.943 675.056 221.802 674.322 221.489 673.659C221.126 673.017 220.676 672.427 220.15 671.909C219.592 671.407 219.008 670.937 218.399 670.501L214.382 667.686L208.613 675.925L212.219 678.431Z" fill="#673328"/>
<path d="M242.909 688.9C242.918 687.774 242.582 686.672 241.947 685.742C240.965 684.28 239.491 683.223 237.793 682.756C237.181 682.636 236.551 682.636 235.939 682.756C235.289 682.821 234.663 683.044 234.119 683.408C233.51 683.841 233.005 684.403 232.643 685.056C231.996 685.934 231.804 687.067 232.128 688.111C232.494 689.147 233.002 690.129 233.638 691.028C234.359 692.024 235.184 693.019 236.077 694.083C236.966 695.12 237.706 696.274 238.274 697.516C238.83 698.841 239.087 700.269 239.029 701.704C238.921 703.53 238.329 705.298 237.312 706.819C236.455 708.37 235.286 709.723 233.879 710.801C231.493 712.644 228.407 713.324 225.467 712.654C223.98 712.335 222.555 711.779 221.244 711.007C219.541 710.025 218.057 708.703 216.884 707.128C215.654 705.456 214.928 703.465 214.789 701.395L220.935 699.438C220.888 700.777 221.195 702.102 221.828 703.283C222.41 704.402 223.288 705.343 224.368 705.995C224.957 706.338 225.593 706.592 226.257 706.75C226.925 706.887 227.614 706.887 228.282 706.75C228.978 706.671 229.647 706.438 230.239 706.064C230.887 705.655 231.419 705.089 231.785 704.416C232.501 703.424 232.74 702.167 232.437 700.983C232.114 699.902 231.615 698.882 230.961 697.962C230.273 696.967 229.45 695.903 228.557 694.839C227.658 693.809 226.918 692.652 226.36 691.406C225.8 690.095 225.519 688.681 225.535 687.253C225.675 685.444 226.266 683.696 227.253 682.172C228.101 680.672 229.274 679.381 230.686 678.396C231.906 677.576 233.287 677.027 234.737 676.783C236.155 676.508 237.612 676.508 239.029 676.783C240.469 677.116 241.847 677.672 243.115 678.431C244.563 679.278 245.842 680.384 246.891 681.692C247.982 683.061 248.726 684.675 249.055 686.394L242.909 688.9Z" fill="#673328"/>
<path d="M253.284 685.502L258.331 688.145L241.164 720.927L236.117 718.284L253.284 685.502Z" fill="#673328"/>
<path d="M265.329 698.271L256.436 694.152L258.943 688.729L281.913 699.37L279.406 704.759L270.479 700.64L257.603 728.856L252.453 726.453L265.329 698.271Z" fill="#673328"/>
<path d="M282.359 722.128L278.548 698.1L285.415 700.606L287.578 717.185L300.213 706.167L306.564 708.535L287.68 724.291L282.119 739.154L276.797 737.129L282.359 722.128Z" fill="#673328"/>
<path d="M310 729.2C310.577 726.519 311.623 723.965 313.09 721.648C314.344 719.605 315.989 717.834 317.931 716.43C319.744 715.133 321.817 714.244 324.008 713.821C326.285 713.403 328.626 713.475 330.874 714.027C333.189 714.525 335.374 715.493 337.295 716.876C339.086 718.215 340.554 719.938 341.587 721.922C342.718 724.051 343.407 726.385 343.613 728.788C343.846 731.517 343.623 734.266 342.96 736.923C342.364 739.549 341.332 742.055 339.904 744.338C338.63 746.335 336.987 748.069 335.063 749.452C333.224 750.784 331.115 751.701 328.883 752.13C326.608 752.549 324.269 752.49 322.017 751.958C319.726 751.447 317.573 750.451 315.699 749.04C313.934 747.685 312.481 745.961 311.441 743.994C310.323 741.859 309.635 739.529 309.416 737.129C309.169 734.472 309.366 731.791 310 729.2ZM315.871 730.195C315.429 732.001 315.267 733.865 315.39 735.722C315.477 737.359 315.873 738.969 316.557 740.459C317.206 741.773 318.118 742.941 319.236 743.891C320.42 744.904 321.834 745.611 323.356 745.951C324.892 746.308 326.488 746.308 328.025 745.951C329.499 745.577 330.879 744.897 332.077 743.96C333.346 742.927 334.416 741.67 335.235 740.253C336.167 738.633 336.861 736.889 337.295 735.069C337.71 733.363 337.861 731.603 337.742 729.852C337.613 728.256 337.194 726.697 336.506 725.252C335.858 723.927 334.932 722.757 333.793 721.819C331.32 719.852 328.099 719.084 325.003 719.725C323.55 720.11 322.185 720.772 320.986 721.682C319.735 722.695 318.666 723.913 317.828 725.286C316.962 726.817 316.336 728.472 315.974 730.195H315.871Z" fill="#673328"/>
<path d="M349.179 718.902L369.78 721.922L368.921 727.827L354.123 725.63L352.682 735.275L366.656 737.335L365.797 743.239L351.824 741.18L349.591 756.386L343.961 755.562L349.179 718.902Z" fill="#673328"/>
<path d="M397.689 731.603C397.184 730.604 396.381 729.79 395.389 729.268C393.824 728.468 392.024 728.238 390.308 728.616C389.693 728.76 389.113 729.018 388.59 729.371C388.072 729.759 387.639 730.25 387.32 730.813C386.994 731.489 386.819 732.227 386.805 732.976C386.658 734.05 387.025 735.131 387.801 735.893C388.621 736.642 389.546 737.266 390.548 737.747C391.612 738.262 392.848 738.811 393.982 739.326C395.221 739.824 396.381 740.507 397.414 741.351C398.551 742.281 399.465 743.455 400.093 744.784C400.841 746.452 401.147 748.285 400.985 750.105C400.954 751.883 400.556 753.637 399.818 755.254C399.193 756.64 398.267 757.873 397.105 758.858C395.993 759.795 394.696 760.485 393.295 760.883C391.839 761.326 390.318 761.511 388.797 761.432C386.826 761.357 384.886 760.89 383.097 760.059C381.226 759.146 379.643 757.732 378.531 755.974L383.028 751.34C383.608 752.555 384.512 753.589 385.638 754.327C386.658 755.017 387.842 755.418 389.072 755.494C389.896 755.545 390.723 755.439 391.509 755.185C392.178 755.027 392.81 754.735 393.364 754.327C393.916 753.904 394.383 753.379 394.737 752.782C395.114 752.099 395.317 751.33 395.32 750.551C395.451 749.404 395.087 748.258 394.325 747.393C393.532 746.596 392.618 745.937 391.612 745.436C390.514 744.887 389.312 744.338 388.178 743.823C386.949 743.322 385.793 742.649 384.746 741.832C383.595 740.915 382.675 739.738 382.067 738.399C381.295 736.752 380.976 734.925 381.14 733.113C381.175 731.393 381.597 729.704 382.376 728.17C383.076 726.848 384.034 725.681 385.192 724.737C386.342 723.862 387.646 723.21 389.038 722.815C390.459 722.434 391.928 722.273 393.398 722.334C395.077 722.41 396.724 722.781 398.273 723.433C399.876 724.133 401.298 725.187 402.428 726.522L397.689 731.603Z" fill="#673328"/>
<path d="M427.284 731.74C426.368 730.562 425.193 729.612 423.851 728.959C422.763 728.513 421.592 728.304 420.417 728.341C418.865 728.39 417.352 728.801 415.988 729.543C414.639 730.26 413.465 731.27 412.555 732.495C411.617 733.793 410.92 735.245 410.495 736.786C410.004 738.478 409.798 740.242 409.877 742.003C409.945 743.861 410.282 745.7 410.872 747.461C411.428 749.006 412.243 750.444 413.276 751.718C414.224 752.854 415.391 753.788 416.71 754.464C418.131 755.102 419.682 755.398 421.242 755.322C422.574 755.271 423.868 754.855 424.983 754.121C426.375 753.252 427.549 752.078 428.417 750.688L433.258 754.395C432.057 756.565 430.289 758.367 428.143 759.613C426.131 760.729 423.885 761.353 421.585 761.432C419.24 761.559 416.899 761.175 414.718 760.3C412.641 759.455 410.769 758.182 409.225 756.558C407.615 754.838 406.357 752.82 405.516 750.619C404.541 748.11 404.006 745.45 403.937 742.759C403.8 740.023 404.126 737.284 404.898 734.658C405.63 732.344 406.793 730.188 408.332 728.307C409.743 726.577 411.511 725.17 413.516 724.188C415.652 723.124 418 722.561 420.383 722.54C422.467 722.427 424.548 722.801 426.461 723.639C428.572 724.624 430.409 726.11 431.816 727.964L427.284 731.74Z" fill="#673328"/>
<path d="M432.711 722.472L438.376 721.957L441.809 758.823L436.145 759.373L432.711 722.472Z" fill="#673328"/>
<path d="M442.219 721.648L463.163 718.49L464.056 724.394L448.742 726.694L450.116 735.687L464.64 733.525L465.532 739.429L451.009 741.626L452.485 751.546L468.623 749.109L469.515 755.013L447.747 758.446L442.219 721.648Z" fill="#673328"/>
<path d="M466.156 718.043L473.47 716.259L495.066 739.326L488.542 712.62L494.07 711.247L502.859 747.221L495.993 748.972L473.847 724.943L480.714 752.404L475.186 753.743L466.156 718.043Z" fill="#673328"/>
<path d="M521.125 711.075C519.872 710.214 518.44 709.647 516.936 709.427C515.776 709.314 514.604 709.455 513.502 709.839C512.02 710.32 510.677 711.158 509.588 712.277C508.545 713.351 507.748 714.638 507.254 716.053C506.732 717.577 506.488 719.18 506.533 720.79C506.574 722.547 506.9 724.284 507.494 725.939C508.088 727.703 508.946 729.371 510.034 730.882C510.973 732.214 512.136 733.377 513.468 734.314C514.752 735.128 516.188 735.667 517.691 735.893C519.239 736.106 520.819 735.941 522.292 735.413C523.545 734.949 524.658 734.17 525.52 733.147C526.546 731.877 527.264 730.384 527.614 728.788L533.313 730.916C532.791 733.353 531.603 735.602 529.88 737.404C528.273 739.058 526.296 740.304 524.111 741.042C521.918 741.846 519.572 742.165 517.245 741.969C515.023 741.773 512.871 741.108 510.928 740.013C508.878 738.832 507.069 737.27 505.605 735.413C503.944 733.305 502.667 730.923 501.829 728.376C500.878 725.791 500.38 723.062 500.352 720.309C500.332 717.961 500.761 715.63 501.622 713.444C502.458 711.364 503.735 709.489 505.365 707.951C507.096 706.403 509.132 705.236 511.34 704.519C513.303 703.805 515.409 703.558 517.485 703.798C519.786 704.145 521.973 705.027 523.871 706.372L521.125 711.075Z" fill="#673328"/>
<path d="M523.352 700.88L542.751 692.299L545.154 697.756L530.974 704.038L534.648 712.345L548.107 706.407L550.51 711.899L537.086 717.803L541.136 727.003L556.072 720.378L558.475 725.87L538.356 734.761L523.352 700.88Z" fill="#673328"/>
<path d="M563.797 680.902L568.054 678.396L598.955 703.283L593.324 706.716L586.457 700.949L574.509 707.986L576.329 716.773L570.835 720.034L563.797 680.902ZM581.685 696.933L569.771 686.532L573.204 702.082L581.685 696.933Z" fill="#673328"/>
<path d="M579.938 671.256L586.015 666.828L614.753 679.941L598.547 657.697L603.148 654.265L624.95 684.232L619.113 688.488L589.586 674.758L606.306 697.756L601.705 701.189L579.938 671.256Z" fill="#673328"/>
<path d="M605.93 652.205L615.337 643.829C616.889 642.443 618.68 641.348 620.624 640.603C622.591 639.844 624.703 639.539 626.804 639.71C629.095 639.896 631.326 640.537 633.363 641.598C635.81 642.933 637.998 644.701 639.817 646.816C641.744 648.879 643.216 651.323 644.143 653.99C644.86 656.204 645.138 658.535 644.967 660.855C644.768 663.015 644.15 665.112 643.148 667.034C642.224 668.826 640.991 670.443 639.508 671.806L630.615 679.666L605.93 652.205ZM634.049 668.785C635.381 667.673 636.538 666.365 637.483 664.906C638.358 663.588 638.911 662.084 639.096 660.512C639.323 658.916 639.158 657.292 638.616 655.775C637.929 653.925 636.878 652.233 635.525 650.798C634.265 649.298 632.741 648.041 631.027 647.09C629.644 646.339 628.103 645.916 626.53 645.855C625.05 645.817 623.581 646.122 622.238 646.747C620.755 647.42 619.385 648.323 618.186 649.425L614.307 652.857L631.027 671.634L634.049 668.785Z" fill="#673328"/>
<path d="M645.034 622.616L638.716 629.961L634.219 626.014L650.973 607.066L655.471 611.013L648.948 618.325L672.261 638.921L668.518 643.177L645.034 622.616Z" fill="#673328"/>
<path d="M651.039 606.619L663.88 589.765L668.618 593.369L659.313 605.693L666.557 611.219L675.45 599.514L680.188 602.946L671.331 614.652L679.33 620.728L689.184 607.718L693.923 611.151L680.635 628.691L651.039 606.619Z" fill="#673328"/>
<path d="M684.757 573.46C683.237 573.546 681.757 573.982 680.431 574.73C679.491 575.379 678.677 576.192 678.028 577.133C677.17 578.441 676.638 579.937 676.484 581.492C676.346 582.989 676.521 584.496 676.999 585.92C677.538 587.434 678.341 588.838 679.367 590.074C680.472 591.426 681.795 592.587 683.281 593.507C684.843 594.533 686.561 595.309 688.363 595.807C689.943 596.27 691.601 596.424 693.238 596.253C694.749 596.129 696.215 595.669 697.53 594.914C698.928 594.128 700.109 593.009 700.964 591.653C701.653 590.524 702.035 589.233 702.062 587.911C702.069 586.271 701.705 584.654 700.998 583.174L706.8 581.286C707.926 583.5 708.414 585.986 708.208 588.461C707.971 590.761 707.195 592.971 705.942 594.914C704.717 596.898 703.075 598.597 701.135 599.891C699.264 601.113 697.159 601.934 694.955 602.294C692.606 602.62 690.221 602.504 687.916 601.951C685.308 601.319 682.821 600.252 680.569 598.793C678.248 597.334 676.182 595.501 674.457 593.369C672.92 591.516 671.752 589.384 671.024 587.088C670.385 584.939 670.221 582.68 670.543 580.463C670.914 578.149 671.766 575.938 673.05 573.975C674.155 572.21 675.645 570.721 677.411 569.615C679.422 568.455 681.682 567.782 684.002 567.659L684.757 573.46Z" fill="#673328"/>
<path d="M680.297 564.089L682.906 559.043L696.022 565.908L702.889 552.624L689.773 545.758L692.383 540.712L725.309 557.876L722.665 562.956L708.176 555.438L701.309 568.757L715.833 576.24L713.223 581.286L680.297 564.089Z" fill="#673328"/>
<path d="M693.859 537.589L696.64 530.723L727.953 526.535L702.408 516.237L704.503 510.951L738.837 524.682L736.159 531.376L703.954 535.495L730.356 546.033L728.228 551.319L693.859 537.589Z" fill="#673328"/>
<path d="M723.212 514.212C720.565 513.488 718.059 512.328 715.796 510.78C713.812 509.441 712.108 507.725 710.783 505.734C709.557 503.859 708.761 501.738 708.449 499.52C708.122 497.221 708.297 494.879 708.964 492.655C709.547 490.379 710.601 488.254 712.053 486.408C713.468 484.667 715.25 483.263 717.272 482.289C719.428 481.283 721.759 480.699 724.139 480.572C726.876 480.435 729.615 480.758 732.242 481.533C734.837 482.247 737.289 483.408 739.486 484.966C741.45 486.308 743.129 488.021 744.43 490.012C745.656 491.917 746.473 494.056 746.834 496.294C747.16 498.59 747.005 500.924 746.388 503.159C745.756 505.414 744.67 507.519 743.194 509.338C741.77 511.051 739.987 512.431 737.976 513.388C735.813 514.384 733.485 514.967 731.109 515.105C728.445 515.259 725.773 514.957 723.212 514.212ZM724.448 508.342C726.229 508.874 728.084 509.118 729.941 509.063C731.628 509.032 733.293 508.682 734.851 508.033C736.266 507.481 737.533 506.612 738.559 505.493C739.616 504.354 740.383 502.977 740.791 501.477C741.234 499.96 741.303 498.36 740.997 496.809C740.709 495.315 740.087 493.908 739.177 492.689C738.26 491.337 737.097 490.173 735.744 489.257C734.188 488.244 732.486 487.479 730.696 486.991C729.004 486.494 727.243 486.274 725.478 486.339C723.885 486.394 722.316 486.73 720.843 487.335C719.439 487.915 718.182 488.807 717.169 489.943C716.108 491.093 715.343 492.484 714.938 493.994C714.505 495.501 714.423 497.087 714.697 498.628C715.01 500.097 715.617 501.487 716.482 502.713C717.403 504.062 718.567 505.226 719.916 506.145C721.337 507.117 722.9 507.858 724.551 508.342H724.448Z" fill="#673328"/>
<path d="M714.594 474.462L715.658 468.867L746.182 474.771L748.791 461.418L754.628 462.551L750.954 481.499L714.594 474.462Z" fill="#673328"/>
<path d="M736.95 458.535C734.206 458.277 731.524 457.556 729.018 456.406C726.855 455.407 724.898 454.01 723.251 452.287C721.695 450.657 720.521 448.697 719.817 446.555C719.12 444.337 718.897 441.999 719.165 439.689C719.357 437.355 720.033 435.086 721.156 433.03C722.254 431.07 723.779 429.381 725.619 428.087C727.594 426.731 729.804 425.763 732.143 425.238C737.478 424.139 743.027 424.737 748.005 426.954C750.158 427.953 752.094 429.364 753.704 431.108C755.25 432.762 756.42 434.729 757.138 436.874C757.859 439.085 758.116 441.423 757.893 443.74C757.684 446.064 756.97 448.312 755.799 450.33C754.687 452.273 753.165 453.948 751.336 455.239C749.385 456.585 747.195 457.539 744.88 458.054C742.285 458.665 739.6 458.826 736.95 458.535ZM737.156 452.562C739.009 452.771 740.885 452.702 742.718 452.356C744.331 452.05 745.88 451.456 747.284 450.605C748.561 449.792 749.656 448.731 750.512 447.481C752.19 444.8 752.544 441.498 751.473 438.522C750.917 437.098 750.062 435.81 748.966 434.746C747.789 433.6 746.402 432.69 744.88 432.069C743.164 431.331 741.348 430.857 739.49 430.661C737.75 430.479 735.988 430.562 734.271 430.902C732.706 431.241 731.205 431.846 729.842 432.687C728.558 433.493 727.47 434.571 726.649 435.845C725.815 437.17 725.307 438.677 725.173 440.238C724.974 441.78 725.149 443.345 725.688 444.804C726.233 446.208 727.062 447.481 728.126 448.545C729.269 449.668 730.608 450.574 732.074 451.223C733.688 451.927 735.404 452.38 737.156 452.562Z" fill="#673328"/>
<path d="M756.412 392.696C758.818 396.695 760.065 401.281 760.017 405.946C760.045 408.311 759.554 410.656 758.575 412.812C757.668 414.854 756.319 416.673 754.626 418.132C752.848 419.684 750.768 420.854 748.515 421.565C745.978 422.447 743.303 422.866 740.618 422.801C737.879 422.825 735.152 422.395 732.55 421.53C730.283 420.803 728.183 419.636 726.369 418.098C724.68 416.618 723.335 414.792 722.421 412.743C721.49 410.577 721.02 408.236 721.048 405.878C721.058 403.55 721.418 401.237 722.112 399.012C722.836 396.822 724.1 394.852 725.786 393.28L730.661 397.502C729.521 398.539 728.612 399.802 727.984 401.209C727.354 402.675 727.028 404.25 727.021 405.843C727.011 407.398 727.351 408.936 728.018 410.34C728.701 411.672 729.662 412.842 730.833 413.773C732.097 414.768 733.525 415.537 735.056 416.038C736.735 416.563 738.483 416.841 740.24 416.862C742.102 416.893 743.955 416.625 745.733 416.073C747.31 415.616 748.79 414.871 750.094 413.876C751.272 412.932 752.251 411.765 752.978 410.443C753.703 409.056 754.07 407.512 754.042 405.946C754.056 404.559 753.905 403.176 753.596 401.827C753.318 400.608 752.831 399.448 752.154 398.394H743.399V405.054H737.425V392.799L756.412 392.696Z" fill="#673328"/>
<path d="M742.235 379.755L722.116 393.486L721.532 386.38L735.575 377.284L720.193 370.727L719.609 363.862L741.755 374.16L757.549 372.821L758.029 378.485L742.235 379.755Z" fill="#673328"/>
</svg>
