<svg width="137" height="137" viewBox="0 0 137 137" fill="none" xmlns="http://www.w3.org/2000/svg">
<path fill-rule="evenodd" clip-rule="evenodd" d="M68.0216 0.756104C105.588 0.756104 136.053 31.2217 136.053 68.7874C136.053 106.354 105.588 136.819 68.0216 136.819C30.4558 136.819 -0.00878906 106.354 -0.00878906 68.7874C-0.00878906 31.2217 30.4558 0.756104 68.0216 0.756104ZM68.0216 1.98491C104.91 1.98491 134.825 31.9004 134.825 68.7884C134.825 105.676 104.91 135.592 68.0216 135.592C31.1346 135.592 1.21905 105.677 1.21905 68.7884C1.21905 31.9004 31.1336 1.98491 68.0216 1.98491Z" fill="#009151"/>
<path fill-rule="evenodd" clip-rule="evenodd" d="M68.0216 0.756104C105.588 0.756104 136.053 31.2217 136.053 68.7874C136.053 106.354 105.588 136.819 68.0216 136.819C30.4558 136.819 -0.00878906 106.354 -0.00878906 68.7874C-0.00878906 31.2217 30.4558 0.756104 68.0216 0.756104ZM68.0216 1.98491C104.91 1.98491 134.825 31.9004 134.825 68.7884C134.825 105.676 104.91 135.592 68.0216 135.592C31.1346 135.592 1.21905 105.677 1.21905 68.7884C1.21905 31.9004 31.1336 1.98491 68.0216 1.98491Z" fill="#009151"/>
<path fill-rule="evenodd" clip-rule="evenodd" d="M68.0227 21.8252C93.9244 21.8252 114.931 42.8309 114.931 68.7327C114.931 94.6344 93.9254 115.641 68.0227 115.641C42.121 115.641 21.1152 94.6354 21.1152 68.7327C21.1152 42.8309 42.121 21.8252 68.0227 21.8252ZM74.1187 40.1237L34.9709 40.693C36.4551 41.2412 41.9578 42.7253 50.2119 46.0901C61.5619 50.7164 74.9597 60.2722 71.255 82.5998C71.255 83.0904 77.5766 62.5819 62.0582 49.2936C59.5814 47.172 56.4691 45.1138 52.776 43.4578L74.1187 40.1237ZM83.7561 41.9583L61.4131 44.9602C61.4131 44.9602 71.4672 49.7333 74.3856 62.0981C75.6653 67.5211 75.3677 74.4053 72.5914 82.9868C73.3181 80.9564 79.1165 71.4888 76.415 60.0255C75.4301 55.8466 73.1472 51.3144 69.601 46.2946L83.7552 41.9583H83.7561ZM76.0339 47.7663L91.535 43.1938C91.535 43.1938 92.3337 49.3349 91.5629 56.2815C90.7161 63.9116 87.7555 72.8012 74.5901 82.3349C87.7344 59.1874 76.0339 47.9593 76.0339 47.7663ZM105.52 63.4699L108.636 62.7979C108.636 62.7979 76.9939 102.49 53.6678 99.1877C40.6992 97.3512 51.5117 77.2555 70.4448 72.5515C69.0701 73.2159 52.0291 89.9976 63.7229 90.2741C69.3398 90.4066 79.9075 84.7502 88.6435 78.2923C98.0937 71.3054 105.521 63.4709 105.521 63.4709L105.52 63.4699Z" fill="#009151"/>
<path fill-rule="evenodd" clip-rule="evenodd" d="M14.7392 44.1903C13.9319 43.8985 15.3191 42.5141 13.9981 42.0351L13.952 42.0188C13.5517 41.8738 13.3981 42.0418 13.2724 42.4364C12.873 42.4921 12.6685 42.6668 12.488 43.165L12.3536 43.5356C12.2922 43.79 12.4333 45.2568 12.4074 45.6639C12.3863 45.9836 12.3364 47.7221 12.5888 47.8133L12.728 47.8633C12.8653 47.6655 13.1562 47.5128 13.4068 47.1749C13.7168 46.7554 13.6727 46.8226 13.9088 46.1928C14.434 45.1608 14.6308 45.0975 15.5092 45.4162C15.824 45.8655 16.1917 46.022 16.1936 46.0248C16.2474 46.0863 16.5527 46.7141 16.5824 46.814C16.7418 47.3554 16.9088 47.941 17.0768 48.4863C17.2583 49.0748 17.4205 49.5557 18.3248 49.7852C19.0362 49.9666 19.4787 49.6537 19.7552 48.8895L19.8224 48.7042C20.0807 47.9919 20.4109 46.0373 20.7315 45.5516C21.0445 45.0764 21.1165 44.484 21.3959 44.0117C21.6685 43.5509 21.6714 42.8741 21.2538 42.7225L21.0685 42.6553C20.3149 42.3817 19.0842 43.2773 18.7684 43.9973C18.6426 44.3429 18.6666 44.8047 18.3786 44.9727C18.2663 45.0869 18.1799 45.0505 18.0762 44.9785C18.0349 44.9641 17.5799 44.3276 17.0211 44.125L16.7427 44.0242C15.5802 43.6594 15.0378 44.342 14.7882 44.2076L14.7421 44.1903H14.7392ZM20.0605 56.2997C20.3821 55.4117 18.7098 54.7416 17.9351 54.2914C17.2084 53.87 17.2199 53.8325 16.7207 53.3583C16.6227 53.2652 16.1178 53.0645 15.9296 52.958C15.6896 52.8216 15.4573 52.4837 15.4141 52.4684L15.2749 52.4175C15.1856 52.3848 15.0599 52.4328 15.0387 52.4895C14.9821 52.645 15.6052 53.3765 16.0266 53.5282C16.2378 53.8162 16.2723 54.0245 16.5085 54.3423C16.7379 54.6495 16.8311 54.7839 16.7792 55.2159L16.5469 55.1323C15.7732 54.852 15.0695 54.7167 14.3456 54.5439C13.6343 54.374 12.8845 54.1791 12.4122 54.5256C13.0381 54.8127 13.6736 55.2188 14.3667 55.4981C15.1626 55.8187 15.7549 56.1912 16.3895 56.438C17.1882 56.749 17.4637 57.1704 18.3536 57.0965C18.7491 57.0639 19.8234 56.9497 19.9751 56.5311L20.0586 56.2997H20.0605ZM6.13188 51.3L7.49796 51.5852L8.05476 51.7868C8.61731 51.9903 8.76708 52.5048 9.20292 52.6738L9.25284 52.5346C9.41604 52.0815 9.66564 50.5877 9.36708 50.4793L9.08868 50.3785C8.49348 50.1634 8.03844 50.5743 7.5594 50.4015C7.34628 50.4543 6.11556 50.9112 6.06084 51.0639C6.0186 51.1791 6.07332 51.2328 6.13284 51.3H6.13188Z" fill="#009151"/>
<path fill-rule="evenodd" clip-rule="evenodd" d="M21.9775 28.5423C22.2924 28.7257 23.3426 28.4175 23.7237 28.0393C24.2815 27.9308 24.9228 27.4277 25.4719 26.8815L26.237 26.1202C26.7065 25.6537 27.7298 23.9036 27.3708 23.5426L27.3343 23.5061C27.1481 23.3189 26.3772 23.2488 26.1343 23.39C25.7791 23.5973 25.2713 23.8153 24.9324 24.1513C24.7509 24.1148 24.4937 24.0792 24.3141 24.2578L24.2047 24.3663C23.9685 24.6015 23.2082 26.0732 23.0258 26.4351C22.7023 27.0793 22.2981 27.9865 21.9756 28.5404L21.9775 28.5423ZM24.3295 35.5119C25.0908 36.348 26.1449 36.517 26.7737 36.9471C27.5839 37.2188 28.2069 37.166 29.0037 36.6744C29.2361 36.4517 29.2725 36.1666 29.0815 36.0053L28.7762 35.8028C28.5477 35.5503 28.3413 35.5877 27.9285 35.4581C27.5061 35.3977 27.1058 35.2373 26.7545 35.1336C26.5615 35.076 26.4079 35.0559 26.3426 35.0501C26.1842 35.0367 25.9173 34.9714 25.7244 34.9455C25.6159 34.9311 25.3557 35.0088 25.1426 35.0079C24.7519 35.006 24.2882 34.8821 23.9426 34.9493L24.3295 35.5128V35.5119ZM29.2524 31.1228C29.3186 30.7906 29.5692 29.9304 29.7285 29.6338L30.0233 29.34C30.366 29.9314 30.798 30.4085 31.277 30.8261C31.3413 31.1996 30.9333 31.6489 30.5541 32.0252C30.5541 32.0252 30.1433 32.0415 29.885 32.0953C29.6604 31.8937 29.6988 31.4645 29.2514 31.1218L29.2524 31.1228ZM31.3759 28.0863C30.9516 27.4757 31.1407 27.4268 31.5113 26.8047C31.6725 26.5464 32.5183 25.2668 32.8399 25.5903C33.006 25.6786 32.6671 27.9346 32.4213 28.4242C32.2677 28.8034 31.9327 28.6469 31.71 28.4405L31.3759 28.0863ZM32.7362 23.3448C32.2543 23.7548 31.5017 25.3714 31.1839 25.741C30.6607 26.4437 30.4716 26.3295 30.3209 26.2988C29.7746 25.7439 29.2754 25.6911 28.6831 25.9445C28.4249 26.0194 28.1234 25.9868 27.9055 26.1029C27.7212 26.2008 27.3823 26.6818 27.5004 26.8008C27.7154 27.0178 28.1244 26.8604 28.254 26.99L28.8482 27.5871C29.2629 28.0047 29.3637 28.1583 29.2034 28.5711C29.1391 28.7381 28.8914 29.3362 28.7609 29.4648L28.4546 29.7385C28.3509 29.8412 28.0677 29.7836 27.9333 29.7269C27.4159 29.2239 26.4905 29.1048 25.6178 29.7279C25.8866 29.9976 26.6249 30.2588 26.7429 30.4229C27.054 30.7157 27.3477 31.0892 27.4773 31.3532C27.3737 31.7266 26.7305 32.0463 26.6431 32.3698C27.5532 32.5887 27.5637 32.1711 27.8748 32.0837C28.0169 32.0444 28.0735 32.0914 28.1637 32.0588C28.4172 32.3535 29.0316 32.9429 29.309 33.2492C29.4703 33.4268 29.7468 33.4469 29.9292 33.3423L30.0933 33.3317C30.0953 33.5381 30.054 33.7513 29.9762 33.9682L30.2911 34.2879C30.2527 34.4108 30.1586 34.4636 30.2786 34.6354L30.4418 34.7909C30.5436 34.8936 30.7989 34.8274 30.9861 34.6498C31.0428 34.596 31.1561 34.814 31.2722 34.5433C31.566 33.7916 31.9865 33.2031 32.5999 32.5733C32.8908 32.7087 32.9589 32.8757 33.2834 32.605C33.485 32.437 33.3612 32.1173 33.3333 31.9167C33.1749 31.1506 33.1346 31.4492 33.6818 30.6754C34.0821 30.0716 35.0738 28.6834 35.6325 28.1333C35.7737 27.9817 35.7698 27.8521 35.621 27.7455C35.477 27.5199 35.2658 27.3125 34.998 27.1215C34.9673 27.0236 35.0057 26.9103 35.0921 26.7893C35.2485 26.3199 35.4319 25.7525 35.6018 25.3349C35.7477 24.9788 35.9186 24.1148 35.5001 23.6501C35.3733 23.5225 34.3269 23.4399 34.0332 23.3458C33.6117 23.2104 33.1317 23.0261 32.7343 23.3448H32.7362Z" fill="#009151"/>
<path fill-rule="evenodd" clip-rule="evenodd" d="M66.9115 6.61017C66.9691 5.82297 68.4033 5.76247 68.4033 5.00984V4.95607C68.4033 4.76887 67.954 4.41847 67.7735 4.35991C67.5921 4.30135 67.4596 4.34455 67.2398 4.30807C67.1121 4.28695 66.898 4.15641 66.8049 4.15641C66.634 4.15641 65.6308 4.78809 65.3659 4.90329C65.0193 5.10585 65.122 5.11735 64.6535 5.19799C64.4711 5.22967 63.8212 5.28824 63.8212 5.5436V5.70391C63.8212 5.97655 64.3473 6.01784 64.6209 6.0236C64.7879 6.13592 65.1451 6.17623 65.1479 6.44983C65.1479 6.69655 64.3665 7.07096 64.355 7.67768V7.83799C64.355 8.15575 64.475 8.39191 64.7927 8.39191L65.4206 8.37079C65.4811 8.40823 65.5041 8.47257 65.4379 8.52825C65.1287 8.78841 64.5057 9.08121 64.0996 9.08121C63.9201 9.08121 63.947 9.03223 63.947 8.84983C63.946 8.74135 63.9499 8.62808 63.9489 8.5244C63.7281 8.15768 63.4967 7.83033 63.1598 7.44825C62.9851 7.25625 62.7835 7.11415 62.4887 7.14487C62.3611 7.14487 62.1806 7.29081 62.2055 7.47129L62.2084 7.66617C62.2084 7.81209 62.5511 8.38519 62.5924 8.74903C62.651 9.26263 62.7863 9.70713 62.8094 10.1852C62.9803 11.4169 63.155 12.6102 63.8711 12.4662C64.0862 12.4662 65.242 12.159 65.9937 11.7874C66.203 11.7558 67.0756 11.8354 67.2446 11.1029C67.2446 10.9781 67.2321 10.8457 67.1937 10.861C66.9902 10.8236 66.7425 10.8188 66.4411 10.8553C65.5022 11.0031 64.9137 11.4678 64.4702 11.4678C64.3934 11.463 64.2782 11.4764 64.2283 11.4342C64.0881 11.4006 64.0343 11.006 64.0343 10.7737L63.9777 9.77144C64.2734 9.782 64.5201 9.85591 64.8657 9.80503C64.8091 10.0172 64.4865 10.2457 64.4836 10.3935C64.4836 10.573 64.6132 10.7746 64.786 10.7746C64.9214 10.7823 65.0721 10.7391 65.2247 10.6268C65.6615 10.3628 65.7364 10.1439 65.8459 10.1343H65.8987C66.0167 10.2409 66.7598 10.4732 67.1851 10.6671C67.3819 10.7007 67.5614 10.6297 67.6622 10.5356C67.8311 10.2687 67.8676 10.0911 67.7764 9.92313C67.6132 9.62457 66.6993 9.63801 66.3662 9.46617L66.3451 9.36825C66.7387 9.16185 67.7687 9.07353 67.7092 8.48217V8.4284C67.7092 8.24888 67.595 8.10583 67.4231 8.10583C67.2369 8.08471 67.0411 8.12215 66.85 8.12983L66.8039 8.05495C66.8529 7.46359 67.9223 7.75159 67.9223 7.09495C67.9223 6.79831 67.666 6.51993 67.3895 6.56121L66.9105 6.61495L66.9115 6.61017ZM71.5972 7.19672C71.459 6.84728 71.5655 6.74551 71.6126 6.66199C71.7537 6.45175 72.4459 5.76536 72.4833 5.64344C72.5476 5.60216 72.5956 5.52919 72.634 5.39383C72.634 5.17591 71.9083 4.77176 71.5991 4.79768C71.386 4.8332 71.1729 4.86873 70.9598 4.90425C70.8542 4.92537 70.762 4.89751 70.6948 4.86103C70.4635 4.69687 70.0094 4.05176 69.8414 4.05176H69.6283C69.4775 4.05176 69.4891 4.21687 69.4276 4.30807C69.323 5.21239 68.6327 5.83064 68.3668 6.0188L68.3476 6.33272C68.3476 6.56408 68.4513 6.90007 68.5089 7.14487L68.747 7.18617C69.7972 7.11129 70.0929 6.09368 70.4375 6.09368C70.5719 6.07736 70.6295 6.11096 70.6612 6.16856C70.7111 6.3068 70.6929 6.42681 70.5863 6.56121C70.4385 6.78297 69.5956 7.0748 69.5659 7.3484C69.5659 7.60088 69.8932 7.73623 69.8932 7.83703C69.9182 7.88215 69.9268 7.97337 69.7838 8.07321C69.5495 8.16921 68.9447 8.41879 68.6423 8.53303C68.5761 8.60503 68.5358 8.69049 68.5358 8.79417C68.5358 9.01209 68.8507 9.16568 69.083 9.16568L69.2875 9.16087C69.5716 9.07639 69.8164 9.0044 70.2513 9.0044L70.258 9.08695L69.8491 9.54295C68.9601 9.48151 68.1316 9.61207 67.9646 9.78487C68.027 10.2245 68.6375 10.0114 69.1022 10.2582C68.9102 10.5452 68.0692 10.598 68.0692 10.9561C68.0692 11.0914 68.5031 11.2508 68.6711 11.2508H68.7777C69.2289 11.2508 69.7963 10.6326 70.163 10.6326C70.5566 10.6239 70.8311 10.9868 71.3879 11.0079C71.6039 11.005 72.0551 11.0118 72.1377 10.7602C72.2567 10.262 71.7921 9.97112 71.3073 9.72536C71.242 9.68792 71.267 9.56215 71.267 9.54583C71.2881 9.31735 71.6903 9.1628 71.7662 8.28536C71.7786 7.81592 70.93 7.88216 70.5499 7.87448C70.5239 7.87448 70.5566 7.78232 70.5335 7.78232C70.8455 7.46073 71.6452 7.54903 71.5963 7.19576L71.5972 7.19672ZM66.4699 14.7126C66.5284 15.4153 66.4535 15.5708 65.9524 15.6226C65.7076 15.6265 65.6433 15.3596 65.6855 15.1292L66.4699 14.7126ZM68.0855 14.3727C68.1047 14.4562 67.9435 14.7318 67.8955 14.9074C67.8187 14.9833 67.7121 14.9794 67.6017 14.9324C67.6238 14.797 67.6334 14.5071 67.7121 14.4869C67.8187 14.4121 67.9598 14.4015 68.0855 14.3717V14.3727ZM69.274 14.3487C69.563 14.2614 69.5899 13.9446 69.7223 13.9446L69.7876 13.9436C69.9278 13.9436 70.2676 14.1289 70.1236 14.1855C70.1774 15.1753 69.9883 16.2351 70.0593 17.2777L70.0007 18.2492H69.8942C69.8692 17.9468 69.4641 17.7029 69.1483 17.7029H68.5089C67.619 17.7029 66.5745 18.3298 65.8583 18.3298C65.7355 18.3298 65.698 18.2924 65.698 18.1695L65.7172 17.8614L65.8046 16.237H66.2836C66.7262 16.237 67.043 16.1727 67.3934 16.0671C68.1335 15.8482 67.8187 16.0105 68.5617 16.0105C68.8507 16.0105 69.7339 15.5333 69.7339 15.3029C69.7339 15.1301 69.5083 15.0409 69.4305 14.9122C69.3719 14.8153 69.3412 14.4706 69.2731 14.3487H69.274ZM68.5233 12.7225L68.4935 13.1324C68.4935 13.3446 68.0068 13.3148 67.7812 13.3148H67.6747C67.5518 13.3148 67.5095 13.213 67.5095 13.0902L67.5134 12.9462L68.5233 12.7225ZM69.6503 12.8847C69.7348 12.4633 69.8299 12.446 70.2465 12.446H71.1527C72.1675 12.4354 74.1249 13.3791 74.5396 12.6198L74.5559 12.4441C74.5185 11.6809 73.8484 11.3276 72.9988 11.3276H71.6135C69.9777 11.3276 67.5921 11.7318 66.2135 12.1234C65.2007 12.3903 65.0116 12.4508 62.3764 12.9414C61.8235 13.0537 59.6289 13.3801 59.6289 13.8303C59.6289 14.1385 60.9566 14.4716 61.2657 14.4716H61.9051C63.1607 14.3862 65.5204 13.3052 66.5908 13.1727L66.6139 13.6172C66.6196 13.8524 65.9169 14.2316 65.7547 14.3401C65.5963 14.3305 65.4436 14.2738 65.2785 14.3113C65.0212 14.4841 64.4116 15.806 64.2475 16.2649L64.2427 17.6761C64.2427 17.9621 64.474 18.4431 64.7678 18.7254C64.8273 18.831 64.9271 19.1708 65.4628 19.2418C65.5924 19.2457 65.6481 18.9874 65.6759 18.8684C66.0407 18.8185 66.5611 18.9922 67.067 18.9135L69.0887 18.6754C69.5591 19.0873 69.8827 20.0799 70.9358 20.0799C71.7086 20.0799 71.794 19.0661 71.7614 18.1877C71.7662 17.7077 71.7537 16.1785 71.8238 15.7436C71.8823 15.3826 71.8651 14.9458 71.866 14.5062C71.8679 13.934 71.7969 14.0194 71.5003 13.7218C70.8734 13.2332 70.3675 13.1487 69.6446 13.1766L69.6513 12.8876L69.6503 12.8847ZM66.1108 17.0626C66.1108 17.1817 66.1531 17.1798 66.2203 17.2614L67.3367 17.4351C67.5143 17.4649 68.2718 17.3084 68.4532 17.2719C68.7796 17.2057 69.202 17.1289 69.202 16.741V16.6873C69.202 16.2534 68.6702 16.1535 68.243 16.1535C67.6766 16.1535 67.4942 16.3426 67.1073 16.5106C66.8308 16.6306 66.1118 16.7823 66.1118 17.0607L66.1108 17.0626Z" fill="#009151"/>
<path fill-rule="evenodd" clip-rule="evenodd" d="M92.7952 14.3679C92.3987 14.2047 92.0032 14.1932 91.6067 14.1059C91.3274 14.0483 91.1018 13.8745 90.9011 13.6489C90.7552 14.5571 90.4144 14.7414 89.9114 14.7279C89.8442 14.727 89.7952 14.8009 89.847 14.8595C90.1667 15.0831 90.1005 15.6495 89.6282 15.9145L88.7872 16.1631L88.7152 16.2524L89.9565 16.2169C90.1082 16.2255 90.2301 16.2102 90.3645 16.0844C91.1027 15.0227 92.1587 14.607 92.7952 14.366V14.3679ZM94.4954 10.0815C94.4954 10.0815 94.6998 10.1631 94.7104 10.2428C94.7209 10.3215 94.7651 10.6863 94.769 10.8313C94.7718 10.9763 94.8506 10.9119 94.8506 10.9119C94.9619 10.8831 95.0733 10.8543 95.1846 10.8246C95.2701 10.8131 95.3536 10.8121 95.4314 10.8495C95.6099 10.8159 95.7885 10.8044 95.968 10.8169C96.1907 10.8966 96.3165 11.0358 96.303 11.0857C96.256 11.2566 96.1274 11.3075 95.9565 11.3084L95.9027 11.3372L95.8547 11.365L95.8058 11.3881C95.8058 11.3881 95.7798 11.3987 95.7549 11.3862C95.7299 11.3737 95.7069 11.367 95.6886 11.3583C95.6704 11.3507 95.6253 11.3334 95.6253 11.3334C95.3267 11.3987 94.5962 11.7174 94.0672 12.4499C93.9904 12.5564 93.9232 12.6812 93.9165 12.6995C93.9107 12.7167 94.3206 12.71 94.3206 12.71L94.4944 12.7465C94.8937 12.6419 95.3594 12.542 95.7587 12.3865L95.9574 12.2012C96.2656 11.9766 96.64 11.7683 96.8435 11.7587L97.1152 11.3487C97.1056 11.2988 97.0806 11.2643 97.0317 11.2672C96.8973 11.2988 96.7984 11.2902 96.711 11.2652C96.2637 11.0991 96.4086 10.8774 96.5968 10.7334C96.8109 10.6479 97.0163 10.5971 97.1853 10.6892L97.8909 10.6979C98.4035 10.8207 98.5341 11.295 98.4986 11.6742C98.633 12.0726 98.4304 12.8934 97.9542 12.974C97.6384 13.2937 96.3165 13.2217 95.5408 13.5529C95.5514 13.5894 95.4976 13.6095 95.6493 13.671L96.4442 13.8505C96.8483 13.9551 96.9789 14.2969 96.9933 14.607C96.7715 14.99 96.4586 14.9699 96.1888 14.9007L96.016 14.8095C95.056 15.0169 93.9578 14.6953 92.9469 14.9727C92.7683 15.2607 92.537 15.423 92.3037 15.4585C91.7507 16.2111 91.1018 16.7046 90.6573 17.4553C90.5805 17.5801 90.5795 17.6511 90.6237 17.7778L90.8147 17.8969C90.9818 17.8834 91.1478 17.8815 91.313 17.9017L91.5194 17.6079C91.6797 17.2623 92.1549 17.942 92.1683 18.1475C92.1722 18.1983 92.1894 18.2396 92.2557 18.2665C92.4371 18.0764 92.4323 18.2511 93.0323 17.4169C92.9834 17.3506 92.8768 17.4591 92.799 17.4812C92.559 17.5023 92.3354 17.4899 92.1165 17.4255C91.9494 17.3775 91.7776 17.2796 91.7114 17.0742L91.5462 16.8524C91.3571 16.6604 91.4896 16.479 91.6912 16.4454L92.1952 16.5327C92.2998 16.5145 92.392 16.43 92.4909 16.3791C92.6262 16.3283 92.7722 16.311 92.921 16.3369C93.1542 16.3513 93.2579 16.4703 93.2944 16.598L93.472 16.7468L93.7773 16.2793C93.2762 16.3139 93.208 15.8636 92.9584 15.6803C92.8394 15.4825 92.9805 15.2099 93.207 15.2147C93.543 15.3798 94.0115 15.3414 94.3696 15.4479C94.9619 15.4998 95.1299 16.167 94.8851 16.5788C94.0355 17.9622 93.1206 18.8319 92.1885 19.5587C91.9715 19.8764 91.8045 19.9945 91.4762 19.9484L91.3312 19.8572C91.2342 19.5923 91.2621 19.3935 91.3821 19.1603L91.0125 18.926C90.6736 18.8281 90.4029 18.6755 90.2214 18.4566C90.159 18.4345 90.1283 18.3961 90.04 18.4268L89.607 18.9884C89.367 19.1103 89.1626 18.9798 89.0848 18.7609C88.9898 18.4306 88.9706 18.1618 89.1558 17.8268L89.7981 16.8063C89.8211 16.7507 89.8067 16.6767 89.5485 16.7871L88.6845 17.1193L88.2208 17.319C87.8733 17.4486 87.5824 17.5609 87.2589 17.5407C86.8163 17.3631 86.3238 16.7516 86.3786 16.357C86.5706 15.927 87.0563 15.9068 87.232 15.8262C87.089 15.7119 86.9469 15.5977 86.8038 15.4835C86.6848 15.2675 86.6637 15.037 86.679 14.799C86.7731 14.6031 86.919 14.4697 87.0208 14.3583L87.6035 14.2863L88.9274 13.7401C89.2144 13.5558 89.4822 13.3791 89.7462 13.2582L90.1773 12.734C90.3741 12.6217 90.5584 12.6745 90.6813 12.879C90.8339 12.6025 91.1382 12.349 91.5424 12.4681L92.7443 12.6284C92.2998 11.7606 92.4266 11.1491 93.4518 10.7295C93.5574 10.5894 93.7398 10.4521 93.8944 10.4262L94.1718 10.1891L94.4934 10.0844L94.4954 10.0815ZM97.8006 16.503C98.1981 16.8918 97.9043 17.2527 97.7709 17.3142L96.6275 17.583C97.1642 17.6847 97.409 17.941 97.455 18.302C97.3638 18.495 97.2362 18.6476 97.0307 18.709C96.6822 18.7983 96.2579 18.8396 95.8787 18.7561L95.9018 18.8838L96.279 19.1958C96.4653 19.4742 96.5603 19.9331 95.9843 20.2873C95.1645 20.7913 93.1706 20.1471 92.6243 19.9561L92.7597 19.8707L93.4912 19.7785C93.5747 19.7343 93.7053 19.7209 93.8042 19.6681C94.1526 19.6316 94.4195 19.5375 94.673 19.4338L94.0134 19.4243C93.3501 19.1363 93.3875 18.8857 93.6573 18.6073C93.9414 18.4691 94.2179 18.4019 94.5136 18.3903L94.8717 18.2387C94.4099 17.9987 94.2784 17.5225 94.6528 17.1903L95.8365 16.7929L96.4393 16.5778L97.1507 16.0854C97.4637 15.9289 97.8544 16.045 97.7997 16.503H97.8006ZM83.2931 16.8572C82.7181 16.4454 82.263 16.622 82.3274 17.2604C82.4541 18.2502 83.3699 18.7167 84.5363 19.0163L85.0298 19.0777C85.6586 19.2716 86.3565 19.3426 86.8019 19.5961C87.7254 19.8169 88.5914 20.1491 89.4102 20.5724C89.079 21.063 88.8506 21.71 88.4416 22.0844C88.3533 22.1823 88.2304 22.1746 88.1325 22.0479L87.5008 21.3164L87.9904 21.1177C88.2736 20.9497 88.3974 20.6895 87.9482 20.6319L87.2253 20.6646C87.0534 20.4668 87.0256 20.3247 86.8154 20.7068C86.6541 20.7778 86.3325 20.7356 86.3574 20.5378L86.6387 20.0435C86.6762 19.8159 86.5293 19.5894 86.127 19.6738C85.6643 19.7842 85.2208 20.0185 84.7946 20.3545L84.4624 20.7759C84.2675 21.1954 84.8541 21.8828 85.4195 21.9999C85.8813 22.0815 86.3958 21.7071 86.8845 21.5612C87.0765 21.4815 87.0899 21.5871 87.1206 21.663C87.089 21.855 87.137 22.1545 87.2118 22.3225L87.4538 23.3468C87.2387 24.1791 88.2304 24.8348 88.8112 24.1081C89.7232 23.151 90.495 21.4498 90.6458 20.9718L91.1114 21.0121C91.4176 21.1206 91.6374 21.2982 92.0301 21.3385C93.8003 22.1343 94.2899 22.55 95.4861 23.1692C95.9939 23.4678 96.3174 23.413 96.3731 22.8418C96.5296 22.1314 95.6387 21.4268 94.5357 21.0332C94.1286 20.9084 93.7216 20.7836 93.3146 20.6588C92.5926 20.3478 91.9062 20.1778 91.0346 20.029C91.0557 19.8121 91.0202 19.599 90.881 19.3935C90.6698 19.0921 90.4259 18.9519 90.1322 19.0479L89.8192 19.5951L88.336 19.0086C86.6694 18.1993 84.9818 17.5235 83.2922 16.8572H83.2931ZM91.8592 22.0498C91.8208 22.0018 91.7584 21.9654 91.6806 21.9644C91.5914 22.0124 91.5184 22.119 91.5078 22.2812L91.5856 22.5903C91.7008 22.8524 91.7488 23.1107 91.7411 23.3142C91.6778 23.5657 91.576 23.5878 91.3475 23.5426C91.2458 23.5225 91.3312 23.5964 91.3072 23.7366L91.289 23.8412L91.3024 23.918C91.3206 24.2626 91.7382 24.7052 91.7152 24.9318C91.7104 24.9759 91.6912 25.0028 91.6682 25.0393C91.6682 25.0393 91.6413 25.0498 91.6643 25.0777C91.6874 25.1065 91.7027 25.1363 91.7286 25.1593C91.9034 25.3148 92.2 25.4876 92.4554 25.4809C92.4554 25.4809 92.4832 25.4915 92.5446 25.4684C92.607 25.4454 92.5926 25.4348 92.6368 25.431C92.7664 25.4194 93.0678 25.1487 93.0678 25.1487C93.0678 25.1487 93.088 25.1276 93.1437 25.094C93.1994 25.0604 93.1274 25.0978 93.2186 25.0518C93.3088 25.0057 93.3088 25.0124 93.3357 24.975C93.4048 24.878 93.495 24.7878 93.4998 24.6601C93.4998 24.6601 93.4701 24.6207 93.471 24.5871C93.472 24.5535 93.4653 24.5084 93.4653 24.5084C93.4816 24.3462 93.4922 24.3039 93.4336 24.1465L93.401 24.0572L93.2838 23.8527C93.2291 23.7346 93.1418 23.606 93.0582 23.5052C92.9066 23.3219 92.7885 23.0598 92.5619 22.8294L92.4477 22.7506L92.3392 22.6614C92.3392 22.6614 92.2624 22.5779 92.2451 22.5404C92.2278 22.503 92.1731 22.4262 92.1731 22.4262L92.1194 22.359C92.0954 22.3321 92.0714 22.3052 92.0464 22.2793C91.9898 22.1977 91.9254 22.1228 91.8563 22.0498H91.8592Z" fill="#009151"/>
<path fill-rule="evenodd" clip-rule="evenodd" d="M108.945 24.8311C108.73 24.6804 108.456 24.6871 108.212 24.6151C107.982 24.4874 107.412 24.9079 107.579 25.3159C107.554 25.698 107.503 26.4592 107.947 26.7079C108.253 27.2148 108.575 27.6372 108.954 27.7591C109.645 28.3514 110.148 28.6221 110.618 28.9447C108.224 29.922 106.282 28.8036 104.498 27.8964C104.236 27.5853 104.017 27.544 103.859 27.4596L103.521 27.0237C103.079 26.9344 102.763 27.8916 103.346 28.4666C104.279 29.8068 105.663 31.5156 107.601 31.1786C108.502 31.0538 109.762 30.7101 110.666 30.2724L110.773 30.3031C110.723 30.8244 109.899 31.9082 109.583 32.4189C109.229 32.9575 108.897 33.4864 108.689 34.002L108.096 35.0666C107.752 35.4237 107.877 35.9604 107.966 36.3933C108.023 37.6951 108.763 38.9968 109.36 39.9223C109.603 40.2727 110.134 40.4052 110.162 39.8167C109.867 36.8589 110.514 34.8237 111.625 32.2308C111.963 31.5703 112.324 30.9981 112.736 30.6199C112.779 30.5642 112.824 30.5498 112.871 30.5959C113.343 30.9895 113.628 31.3082 113.88 31.5194C114.06 31.697 114.287 32.0944 114.396 32.3709C114.052 33.3386 115.224 34.05 115.69 33.5776C116.301 33.3376 116.384 32.826 116.393 32.4688C116.296 32.1664 116.229 31.5223 115.658 31.2583C114.93 30.5441 114.937 30.6756 113.91 29.6445C113.804 29.5543 113.693 29.4487 113.811 29.3431C114.2 29.0589 114.654 28.9149 115.057 28.698C115.898 28.6941 117.671 27.762 117.748 27.2685C118.061 27.1149 118.308 26.8999 118.243 26.3853L117.974 25.9428C117.718 25.888 117.431 26.0263 117.177 26.1367L114.914 27.2656C114.307 27.4221 113.352 27.6679 112.378 28.2669C112.036 28.1844 111.921 28.0269 111.645 27.7706C111.226 27.354 109.748 26.0109 108.942 24.833L108.945 24.8311Z" fill="#009151"/>
<path fill-rule="evenodd" clip-rule="evenodd" d="M43.7635 19.2533C43.3085 18.8779 42.8343 18.4555 42.3735 18.0802C41.6947 17.5262 40.1578 16.0094 39.3226 16.404C39.0893 16.525 39.6951 16.9954 39.7949 17.1211C40.0301 17.4178 40.1674 17.6702 40.3632 18.0542C40.6445 18.6072 40.7827 18.4027 40.9949 18.7867C41.2954 19.331 41.2647 19.2494 41.6007 19.6018C41.9827 20.003 42.5693 20.2968 43.0378 20.5224C43.3066 20.652 43.5658 20.7662 43.849 20.796C44.2858 20.6462 44.4029 20.7787 44.7418 20.604L44.8407 20.5531C45.2688 20.3506 44.1466 19.4952 43.7635 19.2523V19.2533ZM47.1773 13.6824C47.1312 13.3819 47.0141 13.02 47.0679 12.9106C47.2656 12.7147 47.7063 12.3672 47.9923 12.2194L48.1402 12.1426C48.2544 12.084 48.3063 12.1003 48.3658 12.2146L48.4464 12.3643C48.5011 12.4709 48.2304 12.6091 48.1651 12.8174C48.1133 12.9835 47.9443 13.6805 47.8406 13.8408C47.7446 13.9349 47.4499 14.0635 47.304 13.9992L47.1782 13.6814L47.1773 13.6824ZM49.704 15.7858C49.9584 15.1253 51.2947 15.0456 51.2064 14.3189L51.0422 13.9598C50.975 13.8302 50.447 13.4472 50.3222 13.3598C50.4845 13.0661 51.1987 11.293 51.1325 11.0463C50.9798 10.069 49.9507 10.0008 49.2672 10.1506L48.623 10.4318C48.1114 10.74 47.2282 11.5954 46.7702 11.8795C46.5533 11.459 46.2471 10.6459 46.1175 10.2168C45.937 9.61872 45.6058 9.18001 45.3533 8.69137C45.0048 8.49937 44.1437 8.31312 43.6589 8.56368L43.56 8.61457C43.2855 8.75665 42.913 9.54577 43.0282 9.76753C43.0349 9.78001 43.6253 10.2782 43.7338 10.4059C43.8941 10.3282 43.9728 10.2619 44.0573 10.4271L44.3136 10.9214C44.4835 11.2507 44.5642 11.915 44.7101 12.2885C45.0039 13.0402 45.3062 13.0814 44.7667 13.5058C44.4029 13.7918 44.0755 14.1106 43.7731 14.388C43.5802 14.5646 42.8525 15.1282 42.9542 15.325C43.0877 15.5832 44.5248 15.203 44.9165 15.0005C45.2026 14.8526 45.6231 14.4283 45.7594 14.6904L46.1942 15.5323L46.368 16.0056C46.1664 16.2907 44.3309 18.9442 44.4586 19.1899C44.7322 19.7179 45.1008 19.9234 45.6288 19.6507L46.1731 19.3694C46.7837 19.0536 46.9718 18.6427 47.4787 18.3806C47.5747 18.5659 47.7706 18.9547 48.0154 19.4242C48.4003 19.9579 48.7997 20.6597 49.0666 21.3278C49.5427 22.1208 49.9853 22.7304 50.1773 22.6306C50.5459 22.4395 50.3424 20.8584 50.2886 20.4341C50.2186 19.8802 49.6359 18.396 49.3104 17.7682C49.0503 17.267 49.2586 17.2056 49.177 16.7851C49.5053 16.4165 49.5984 16.0584 49.703 15.7848L49.704 15.7858Z" fill="#009151"/>
<path fill-rule="evenodd" clip-rule="evenodd" d="M125.749 44.7461C125.771 44.6271 125.83 44.5099 125.78 44.3515L125.748 44.2469C125.704 44.1067 125.556 44.1211 125.434 44.1595C125.187 44.2373 125.022 44.4187 124.455 44.5973C124.133 44.7077 123.513 44.9938 123.178 45.0523C122.631 45.3221 122.659 45.2107 122.417 45.6677C122.331 45.8299 122.091 46.4482 122.155 46.6507C122.342 47.243 123.053 46.6383 123.316 46.5567L124.237 46.2667C124.37 46.2245 124.354 46.2014 124.449 46.2149C124.522 46.1467 125.129 45.7992 125.226 45.7378C125.512 45.5573 125.552 45.2827 125.742 45.2213L126.079 45.1147L126.014 44.9064C125.975 44.7855 125.852 44.8258 125.75 44.7461H125.749ZM116.716 45.733C116.909 46.3464 118.555 46.2975 119.217 46.0891L119.373 46.0402C119.786 45.9106 120.793 44.9995 120.696 44.6943C120.65 44.5474 120.514 44.5311 120.406 44.4994L120.325 44.2392L120.112 44.1471C119.917 44.196 119.039 44.3026 118.871 44.2891C118.597 44.2671 117.87 44.2114 117.569 44.3064L117.257 44.4053C116.814 44.5445 116.581 45.3 116.717 45.733H116.716ZM123.324 49.6383C123.283 49.5538 123.39 49.5672 123.512 49.5048L123.679 49.4597C123.715 49.4203 123.787 49.4693 123.757 49.5096C123.7 49.5826 123.594 49.7976 123.582 49.9205C123.493 49.981 123.431 49.9109 123.402 49.8082L123.325 49.6383H123.324ZM126.943 47.1922L126.918 47.8229L126.77 47.8728C126.377 47.9966 126.075 47.8786 125.876 47.941L125.72 47.9899C125.514 48.0542 125.467 48.4603 125.536 48.6763C125.672 49.1093 126.192 49.1266 126.234 49.2571C126.257 49.3301 126.195 49.3838 126.111 49.4107L125.851 49.4923C125.28 49.6488 124.742 49.8552 124.141 49.9618C124.084 49.7832 123.976 49.6143 123.893 49.4405C124.253 49.3253 124.575 49.3867 124.845 49.1986C124.991 49.0968 125.248 48.8002 125.189 48.6149L125.156 48.5112C125.037 48.1339 124.339 48.5064 123.897 48.6293C123.203 48.7128 122.907 49.1947 122.635 48.3989L123.902 48.0264L126.944 47.1931L126.943 47.1922ZM130.186 47.2699C130.171 47.2238 130.096 47.1845 130.049 47.1989C129.857 47.2594 129.894 47.4187 129.733 47.4696C129.067 47.6799 128.596 47.4552 127.917 47.6683C127.675 47.5973 127.588 47.3486 127.443 47.1038C128.061 46.739 128.746 45.972 128.495 45.1723L128.479 45.1205C128.42 44.9352 128.323 44.7125 128.14 44.7701C127.977 44.8219 127.881 45.1877 127.787 45.3259C127.682 45.4805 127.317 45.6283 127.119 45.7167C126.674 45.9154 125.899 46.1611 125.42 46.3118C123.948 46.7755 123.372 46.9397 122.275 47.5887C122.101 47.3928 121.865 46.9704 121.736 46.5595C121.642 46.2591 121.506 45.4872 121.239 45.5717C120.923 45.6715 120.677 46.5134 120.801 46.9099L120.932 47.3256L121.151 47.8277C121.448 48.0696 123.437 51.0907 123.671 51.6648L123.024 51.8991C122.866 51.9931 122.823 51.5122 122.399 51.3941C122.385 51.4517 122.367 51.4498 122.396 51.5669L122.513 51.8011C122.486 51.8069 122.418 51.8453 122.371 51.8434C121.985 51.8319 121.017 51.5611 120.845 51.4958L120.753 51.0706C120.696 50.891 120.728 50.8575 120.691 50.6904C121.265 50.6463 122.093 51.3518 122.279 51.3758C122.352 51.3528 122.361 51.2722 122.334 51.1867C122.104 51.0245 121.245 50.0904 121.047 49.4616C120.934 49.1765 121.445 49.092 121.318 48.6898L121.302 48.6379C121.15 48.156 119.956 48.0322 119.484 48.181L119.379 48.2136C118.981 48.3384 118.803 49.1112 118.926 49.5L118.959 49.6037C119.114 50.0981 119.805 50.1307 120.119 50.3813C120.16 50.9122 120.113 51.7061 119.589 51.9202C119.276 51.3912 118.969 50.8709 118.676 50.3343C118.44 49.9023 117.949 49.2533 117.78 48.7166L117.6 48.1445C117.528 47.917 117.683 47.9112 117.612 47.6837L117.595 47.6318C117.551 47.4917 117.391 47.4677 117.27 47.5061C116.895 47.6242 116.48 48.4498 116.609 48.8578L116.69 49.1179C116.698 49.141 117.684 50.4216 117.824 50.6136C118.088 50.9726 118.617 51.9643 118.773 52.4635C117.644 52.7621 115.776 53.0395 115.432 52.1131L115.359 51.8808L114.914 49.765L114.76 49.2984C114.378 49.428 114.56 49.7899 114.471 50.1375C114.388 50.461 114.365 50.6712 114.255 50.9823C114.159 51.252 113.534 52.3599 113.582 52.5135L113.614 52.6171C113.792 53.1807 115.025 53.9534 115.471 54.084C116.119 54.2731 117.235 54.4219 118.134 54.0677L119.192 53.6626L119.589 55.6978C119.599 55.8878 119.982 56.1576 120.148 56.1048C120.833 55.8898 120.962 55.6785 120.743 54.9883C120.557 54.3989 120.356 53.7019 120.171 53.1115C120.595 52.8946 120.641 51.8846 120.783 51.804C121.04 51.8251 122.17 53.7662 122.863 53.5925C123.152 53.5022 123.308 53.0693 123.237 52.6882C123.234 52.669 123.256 52.6603 123.251 52.6431C123.403 52.7103 123.549 52.8158 123.775 52.8235C124.048 52.8629 124.11 52.7515 124.221 53.0318C124.384 53.4427 124.472 53.7931 124.609 54.229C124.733 54.6226 124.843 55.1343 124.552 55.3186C124.445 55.0575 123.694 54.1896 123.488 54.2539C123.303 54.3125 123.684 54.9874 123.735 55.3397C123.774 55.6546 123.83 56.0587 123.861 56.3515L123.959 56.6635C124.061 56.988 124.353 57.1262 124.673 57.0254C125.159 56.8613 125.307 56.3247 125.421 55.8907C125.579 55.2946 125.565 54.9029 125.319 54.1205L124.908 52.9503C125.156 52.9311 125.316 53.0165 125.619 53.0213C125.82 53.0251 126.016 53.0347 126.216 53.0443C126.528 53.0597 127.103 53.0837 127.434 53.1307C128.109 53.1797 128.497 53.2786 129.512 53.8123C130.047 53.4965 129.966 53.6472 130.327 53.1307C130.482 52.9262 131.058 52.5883 130.995 52.3915L130.881 52.0267C130.785 51.7205 130.447 50.7346 130.211 50.8085C130.12 50.8373 129.791 51.1311 129.754 51.2232C129.674 51.4171 129.784 51.6331 129.864 51.8895C129.779 51.9759 129.706 52.0536 129.547 52.1035C129.526 52.1102 126.791 51.7291 126.307 51.7656C126.239 51.5294 126.375 51.1733 126.585 51.1071L126.637 51.0907C126.785 51.0446 126.887 51.1848 126.975 51.2549C127.139 51.7762 127.273 51.805 127.784 51.6446C128.04 51.564 128.428 51.0984 128.326 50.773L128.31 50.7211C128.236 50.4869 128.086 50.22 127.872 50.2872C127.716 50.3371 127.677 50.5771 127.522 50.6271C127.217 50.7231 126.872 50.5128 126.588 50.4994C126.342 50.4879 125.796 50.7701 125.481 50.869C125.36 50.9438 125.307 51.0322 125.323 51.1349L125.437 51.7349L124.336 51.6763L123.912 50.7202C124.479 50.6443 125.455 50.4082 126.042 50.2949C126.389 50.2277 126.588 50.3266 126.865 50.1115C127.091 49.8927 127.182 49.7275 127.061 49.3435C126.895 48.8175 126.403 48.9077 126.243 48.5151C126.211 48.4632 126.35 48.4095 126.557 48.4296C127.129 48.4517 127.057 48.5342 127.162 48.6869C127.357 48.9518 127.574 49.2178 127.8 49.5115C127.921 49.668 128.321 50.1288 128.633 50.5042C128.814 50.7221 129.019 50.8431 129.124 50.8095L129.176 50.7931C129.441 50.7096 129.652 50.3055 129.569 50.0405L129.52 49.884C129.38 49.4424 128.971 49.1496 128.775 48.757C129.095 48.708 129.37 48.7877 129.713 48.6802C130.159 48.4469 130.351 47.8008 130.186 47.2738V47.2699Z" fill="#009151"/>
<path d="M14.2001 73.3177L14.083 73.3264C14.058 73.1449 14.0244 72.999 13.9822 72.8905C13.938 72.783 13.8737 72.6842 13.7873 72.5968C13.6673 72.4739 13.5166 72.3942 13.3361 72.3568C13.1547 72.3203 12.882 72.3155 12.5153 72.3443L7.87755 72.6966C7.40619 72.7321 7.0414 72.7264 6.78604 72.6755C6.52876 72.6256 6.30508 72.5162 6.1102 72.3472C5.91916 72.1782 5.75883 71.9402 5.62539 71.6387C5.49387 71.3344 5.4142 71.0214 5.38924 70.696C5.37484 70.5021 5.38156 70.311 5.40844 70.1257C5.43532 69.9385 5.47948 69.7869 5.53996 69.6717C5.6494 69.4586 5.80588 69.3424 6.01324 69.327C6.13804 69.3174 6.24171 69.351 6.32715 69.423C6.41067 69.497 6.4606 69.5987 6.46924 69.7254C6.47884 69.8502 6.44428 69.9597 6.36748 70.0528C6.33004 70.097 6.28108 70.1383 6.22348 70.1728C6.16588 70.2093 6.0574 70.264 5.899 70.3398C5.755 70.4099 5.65228 70.4867 5.59372 70.5712C5.53612 70.6557 5.51212 70.7613 5.52172 70.8909C5.5342 71.055 5.59851 71.1971 5.71563 71.3104C5.83083 71.4246 5.995 71.5091 6.20524 71.559C6.49228 71.6253 7.03372 71.6262 7.83148 71.5657L12.4318 71.2173C12.6497 71.201 12.8475 71.1693 13.0222 71.1261C13.244 71.0704 13.4139 70.9734 13.5329 70.8361C13.7287 70.6201 13.8267 70.3379 13.8295 69.9885L13.9467 69.9798L14.2001 73.3197V73.3177ZM11.4852 74.4621L11.8731 75.928L8.89996 76.3206L8.50924 76.3773C8.27692 76.408 8.10795 76.4445 8.00331 76.4857C7.89963 76.528 7.81707 76.5923 7.75563 76.6816C7.67499 76.7901 7.62795 76.9763 7.61355 77.2413L7.50796 77.2557L7.20555 74.9699L7.31115 74.9555C7.36683 75.16 7.42347 75.303 7.48683 75.3846C7.54731 75.4681 7.64235 75.5296 7.76907 75.568C7.85163 75.5968 7.97547 75.6073 8.13579 75.6025C8.29611 75.5968 8.52843 75.5737 8.82987 75.5344L10.0971 75.3674C10.4494 75.3213 10.6971 75.279 10.8353 75.2425C10.9755 75.208 11.0859 75.1542 11.1675 75.0841C11.2548 75.0141 11.3163 74.9325 11.347 74.8441C11.3787 74.7558 11.3892 74.6339 11.3787 74.4774L11.4843 74.463L11.4852 74.4621ZM13.6788 75.2694C13.6606 75.135 13.6894 75.0189 13.7633 74.919C13.8382 74.8192 13.9409 74.7606 14.0715 74.7434C14.1982 74.727 14.3115 74.7558 14.4113 74.8345C14.5111 74.9123 14.5707 75.0179 14.587 75.1484C14.6043 75.279 14.5745 75.3952 14.4987 75.497C14.4228 75.5987 14.3211 75.6563 14.1934 75.6736C14.0628 75.6909 13.9486 75.6611 13.8507 75.5843C13.7528 75.5075 13.6961 75.4019 13.6779 75.2675L13.6788 75.2694ZM8.97483 82.697L8.93931 82.792C8.55915 82.7315 8.32971 82.4809 8.25291 82.0393C8.21067 81.7955 8.23467 81.5843 8.32683 81.4019C8.38731 81.2809 8.50635 81.1485 8.68107 81.0016C8.43627 80.8077 8.27211 80.657 8.18475 80.5533C8.02348 80.3517 7.91691 80.103 7.86603 79.8093C7.80075 79.432 7.84012 79.1171 7.9822 78.8656C8.1262 78.6131 8.35084 78.4605 8.65899 78.4077C8.94315 78.3587 9.19659 78.4077 9.41835 78.5555C9.54315 78.639 9.64779 78.7417 9.73323 78.8637C9.81963 78.9865 9.91851 79.168 10.027 79.408C10.1537 79.6931 10.2545 79.9005 10.3294 80.032C10.4062 80.1654 10.4888 80.2739 10.5771 80.3574C10.675 80.4525 10.7796 80.512 10.8929 80.5331C11.0052 80.5552 11.156 80.5504 11.3451 80.5177C11.7444 80.4486 12.0219 80.3228 12.1803 80.1424C12.2542 80.0588 12.3079 79.96 12.3396 79.8438C12.3723 79.7286 12.379 79.6115 12.3588 79.4954C12.3348 79.3571 12.2763 79.239 12.186 79.143C12.0958 79.0451 11.9835 78.9817 11.8462 78.9501L11.5265 78.8733C11.3537 78.833 11.252 78.7245 11.2212 78.5478C11.2011 78.4307 11.2232 78.327 11.2865 78.2349C11.3499 78.1427 11.4411 78.087 11.5572 78.0669C11.732 78.0371 11.9019 78.1331 12.0641 78.3597C12.1495 78.4825 12.2292 78.6381 12.3022 78.8272C12.3771 79.0163 12.4289 79.2054 12.4616 79.3926C12.498 79.6048 12.5086 79.8304 12.4942 80.0694C12.4798 80.3085 12.4424 80.511 12.3838 80.681C12.2964 80.9238 12.1553 81.0899 11.9633 81.1811C11.8654 81.2253 11.6935 81.2694 11.4516 81.3107L9.55083 81.64C9.23019 81.6957 9.01419 81.7475 8.90091 81.7964C8.66763 81.8982 8.57163 82.0614 8.61003 82.2832C8.62827 82.3888 8.66187 82.4694 8.71179 82.5222C8.75883 82.576 8.84811 82.6345 8.97675 82.696L8.97483 82.697ZM10.7009 80.6406C10.5147 80.4832 10.3438 80.3056 10.1892 80.105C10.0116 79.8813 9.88203 79.7267 9.79755 79.6441C9.71115 79.5616 9.61323 79.4886 9.50571 79.4272C9.27819 79.3024 9.0334 79.2621 8.76844 79.3081C8.54284 79.3475 8.36524 79.4406 8.23948 79.5904C8.11372 79.7401 8.06764 79.9091 8.10124 80.1001C8.13004 80.2662 8.20971 80.4131 8.34027 80.5446C8.46891 80.6742 8.62828 80.7597 8.81644 80.8048C9.06412 80.871 9.40587 80.8652 9.84075 80.7904L10.7009 80.6416V80.6406ZM13.4513 83.7933C13.2689 83.895 13.0952 83.9709 12.9262 84.0198L12.8465 84.0429C13.3822 84.3366 13.7316 84.7686 13.8958 85.3389C14.0177 85.7642 14.0177 86.1366 13.8929 86.4553C13.7681 86.7683 13.5262 86.9766 13.1623 87.0813L11.0436 87.6899C10.8161 87.7552 10.6548 87.8166 10.5579 87.8723C10.46 87.9299 10.387 88.0057 10.339 88.1037C10.2747 88.2217 10.2555 88.4128 10.2814 88.6749L10.1787 88.7046L9.54603 86.5004L9.64875 86.4707C9.73323 86.6627 9.81195 86.7942 9.88491 86.8672C9.95787 86.9411 10.0606 86.9843 10.1931 87.0064C10.2804 87.0198 10.4033 87.0121 10.5617 86.9833C10.722 86.9545 10.9476 86.8969 11.2376 86.8134L12.2974 86.5091C12.6612 86.4045 12.9262 86.3161 13.0884 86.2413C13.2516 86.1664 13.3755 86.0809 13.458 85.982C13.5531 85.8716 13.6126 85.7363 13.6366 85.574C13.6606 85.4118 13.6472 85.2448 13.5972 85.071C13.5435 84.8848 13.458 84.7206 13.338 84.5814C13.218 84.4403 13.0807 84.3434 12.9271 84.2848C12.7649 84.2243 12.595 84.2012 12.4183 84.2185C12.2398 84.2348 11.9575 84.2992 11.5659 84.4115L10.5848 84.6937L10.2151 84.8051C9.98955 84.8694 9.82635 84.9318 9.72939 84.9875C9.63147 85.0451 9.55947 85.121 9.51147 85.2189C9.44715 85.3389 9.42891 85.5309 9.45483 85.7958L9.35211 85.8256L8.71563 83.6109L8.81835 83.5811C8.90283 83.7731 8.97963 83.9046 9.05451 83.9776C9.12747 84.0505 9.22923 84.0957 9.36075 84.1168C9.44619 84.1312 9.57004 84.1235 9.72844 84.0947C9.88684 84.0659 10.1124 84.0083 10.4043 83.9248L11.6331 83.5724C11.9748 83.4745 12.2129 83.3968 12.3444 83.3401C12.4788 83.2854 12.5787 83.2153 12.6497 83.1337C12.7265 83.0502 12.7745 82.961 12.7918 82.8688C12.81 82.7766 12.8024 82.6557 12.7688 82.5021L12.8715 82.4723L13.4513 83.7952V83.7933ZM10.6606 91.0604L10.6011 90.9808C10.6702 90.8906 10.7124 90.8118 10.7268 90.7427C10.7403 90.6746 10.7326 90.5996 10.7009 90.52C10.6481 90.3846 10.5531 90.2953 10.4158 90.2502C10.2785 90.206 10.1278 90.2166 9.96268 90.281C9.69964 90.3846 9.53548 90.5987 9.4702 90.929C9.40396 91.2563 9.45099 91.624 9.61035 92.0329C9.78027 92.4669 10.0126 92.7808 10.3035 92.9737C10.5953 93.1667 10.891 93.2051 11.1905 93.088C11.4305 92.9939 11.5812 92.8316 11.6388 92.6041C11.6974 92.3747 11.6619 92.0953 11.5332 91.7651L11.2299 90.9923C11.106 90.6764 11.0801 90.3904 11.1531 90.1379C11.2289 89.8777 11.3739 89.704 11.5908 89.6185C11.8193 89.5292 12.042 89.5657 12.258 89.728C12.3656 89.8115 12.5144 89.9862 12.7025 90.2493C12.7208 89.9152 12.8052 89.6281 12.956 89.39C13.1057 89.15 13.3073 88.9811 13.5636 88.8803C13.89 88.7526 14.227 88.7593 14.5774 88.9033C14.7857 88.9859 14.9691 89.1088 15.1303 89.271C15.2907 89.4313 15.4107 89.6137 15.4903 89.8192C15.6123 90.1302 15.6257 90.4902 15.5326 90.9011C15.7131 91.0057 15.8513 91.1104 15.9483 91.2112C16.0471 91.312 16.1239 91.4349 16.1796 91.5769C16.242 91.7363 16.2574 91.8774 16.2267 92.0003C16.1883 92.151 16.1086 92.2489 15.9857 92.2969C15.9118 92.3257 15.8398 92.3277 15.7716 92.3008C15.7025 92.2758 15.6555 92.2278 15.6276 92.1587C15.5863 92.0541 15.6046 91.9379 15.6814 91.8093L15.7831 91.6413C15.8379 91.551 15.8407 91.4492 15.7975 91.3379C15.7515 91.2188 15.643 91.1181 15.4721 91.0317C15.2561 91.4224 14.9787 91.6835 14.6417 91.816C14.2193 91.9811 13.8113 91.9254 13.4196 91.646C13.2228 91.5049 13.0615 91.336 12.9348 91.1353C12.8993 91.0749 12.8014 90.8742 12.6449 90.5373C12.4279 90.0717 12.2023 89.8854 11.9671 89.9776C11.7607 90.0582 11.7367 90.3011 11.8961 90.7062L12.21 91.5078C12.3204 91.7891 12.3896 92.0378 12.4136 92.2509C12.4395 92.464 12.4289 92.6646 12.378 92.8528C12.2792 93.2195 12.0391 93.4777 11.6561 93.6275C11.2347 93.7926 10.8401 93.7571 10.4744 93.52C10.0971 93.2742 9.78123 92.823 9.52395 92.1664C9.24652 91.4598 9.19371 90.904 9.36075 90.4989C9.47115 90.2397 9.66411 90.0553 9.93675 89.9478C10.1537 89.8624 10.363 89.8605 10.5684 89.9411C10.7739 90.0208 10.914 90.16 10.9928 90.3606C11.0494 90.5056 11.0532 90.6419 11.0024 90.7696C10.9515 90.8944 10.8555 90.9856 10.7134 91.0413L10.6606 91.0624V91.0604ZM13.8027 89.5878C13.4552 89.7241 13.2008 89.9075 13.0385 90.1417C12.8782 90.375 12.8417 90.6045 12.932 90.8349C13.0222 91.0662 13.2027 91.2045 13.4705 91.2477C13.7384 91.2918 14.0657 91.2371 14.4516 91.0864C14.85 90.9299 15.1361 90.7206 15.3099 90.4595C15.4385 90.2675 15.4644 90.0745 15.3876 89.8806C15.2974 89.6492 15.1083 89.5072 14.8203 89.4553C14.6763 89.4294 14.5121 89.4294 14.3287 89.4534C14.1454 89.4774 13.9697 89.5216 13.8027 89.5869V89.5878ZM16.4561 92.486L17.3998 94.2918L17.2961 94.3465C17.2251 94.2476 17.1473 94.1814 17.0657 94.1478C16.9841 94.1142 16.9035 94.118 16.8238 94.1603C16.7691 94.1891 16.7163 94.2342 16.6654 94.2985C16.6145 94.3609 16.5387 94.4771 16.4359 94.647L16.3063 94.8592L15.9943 95.3776L16.9841 95.56C17.1665 95.5974 17.2999 95.6156 17.3815 95.6185C17.4641 95.6195 17.5361 95.6041 17.5985 95.5715C17.7483 95.4937 17.7924 95.3584 17.7262 95.1683L17.8299 95.1136L18.4673 96.3328L18.3636 96.3875C18.2263 96.2205 18.0555 96.0908 17.8529 95.9939C17.6523 95.8979 17.3815 95.8182 17.0427 95.7529L15.9147 95.5398L14.9441 97.2342C14.7953 97.4944 14.6983 97.7152 14.6561 97.8947C14.6321 97.9993 14.6235 98.0905 14.6292 98.1635C14.634 98.2374 14.6532 98.3257 14.6868 98.4284L14.5927 98.4783L13.6251 96.6256L13.7191 96.5756C13.7969 96.6774 13.8574 96.7485 13.9035 96.783C14.0014 96.8502 14.0964 96.8608 14.1895 96.8118C14.2807 96.7638 14.3835 96.638 14.4958 96.4345L14.6004 96.2512L15.0939 95.3881L14.0215 95.1664C13.8324 95.127 13.6952 95.1059 13.6088 95.103C13.5233 95.1011 13.4503 95.1155 13.3899 95.1472C13.2199 95.2365 13.1787 95.4217 13.2641 95.7059L13.17 95.7549L12.4932 94.4598L12.5873 94.4099C12.6487 94.4886 12.7044 94.5491 12.7601 94.5933C12.8148 94.6365 12.8878 94.6806 12.9819 94.7257C13.147 94.7996 13.4004 94.8697 13.7441 94.9369L15.1937 95.2307L16.0452 93.686C16.2113 93.3788 16.3131 93.1552 16.3524 93.014C16.3899 92.8748 16.3908 92.7155 16.3524 92.5389L16.4561 92.4841V92.486ZM18.9579 97.2995L19.8679 98.512L17.2606 99.9942L16.9198 100.194C16.7163 100.31 16.5732 100.408 16.4916 100.485C16.4119 100.563 16.3591 100.654 16.3351 100.76C16.3015 100.892 16.3275 101.082 16.4148 101.332L16.3227 101.385L15.1822 99.3808L15.2753 99.328C15.4039 99.4969 15.5095 99.6083 15.5988 99.6592C15.6871 99.7139 15.7975 99.735 15.9291 99.7225C16.0164 99.7177 16.1355 99.6812 16.2823 99.616C16.4292 99.5507 16.6356 99.4422 16.8996 99.2915L18.0103 98.6598C18.3195 98.4841 18.5326 98.3526 18.6478 98.2672C18.7649 98.1817 18.8465 98.0915 18.8964 97.9955C18.9511 97.8976 18.9771 97.7987 18.9732 97.7046C18.9694 97.6105 18.9329 97.4944 18.8647 97.3533L18.9579 97.3004V97.2995ZM21.2945 97.2227C21.2273 97.1056 21.2091 96.9865 21.2407 96.8665C21.2724 96.7455 21.3463 96.6534 21.4606 96.5881C21.5719 96.5248 21.6881 96.5094 21.81 96.544C21.9319 96.5795 22.027 96.6543 22.0913 96.7686C22.1566 96.8828 22.1729 97.0019 22.1403 97.1248C22.1076 97.2477 22.0356 97.3398 21.9243 97.4032C21.81 97.4685 21.6919 97.4838 21.5729 97.4502C21.4529 97.4156 21.3607 97.3398 21.2935 97.2227H21.2945ZM25.6251 102.324L25.5329 102.396C25.4014 102.246 25.2795 102.137 25.1671 102.065C25.0548 101.995 24.93 101.953 24.7927 101.942C24.6295 101.924 24.4673 101.954 24.3079 102.033C24.1476 102.111 23.9019 102.282 23.5687 102.543L21.2484 104.363C20.8711 104.66 20.6091 104.887 20.4641 105.049C20.3182 105.208 20.2097 105.388 20.1367 105.587C20.0225 105.889 19.9937 106.174 20.0475 106.442C20.1022 106.71 20.2443 106.992 20.4747 107.285C20.6974 107.57 20.9537 107.807 21.2417 107.999C21.5316 108.19 21.8196 108.312 22.1095 108.364C22.2871 108.396 22.4532 108.393 22.6059 108.355C22.7585 108.318 22.9265 108.242 23.1099 108.122C23.2308 108.045 23.5006 107.842 23.9191 107.514L26.2097 105.717C26.491 105.496 26.6878 105.317 26.7963 105.18C26.9047 105.045 26.97 104.9 26.9911 104.745C27.0113 104.607 27.0007 104.476 26.9595 104.351C26.9182 104.227 26.8414 104.082 26.7281 103.921L26.8203 103.848L28.3025 105.738L28.2103 105.81C28.0798 105.661 27.9598 105.552 27.8475 105.482C27.7371 105.413 27.6113 105.372 27.4711 105.358C27.3185 105.341 27.1601 105.371 27.0007 105.446C26.8414 105.519 26.6225 105.667 26.3422 105.887L23.7559 107.915C23.3739 108.215 23.0686 108.407 22.8401 108.49C22.6126 108.575 22.3563 108.588 22.0673 108.531C21.4107 108.403 20.7915 107.969 20.2097 107.227C19.6039 106.455 19.3198 105.758 19.3582 105.136C19.3793 104.736 19.5425 104.379 19.8439 104.067C19.9515 103.956 20.1617 103.778 20.4766 103.531L22.963 101.58C23.2462 101.358 23.4411 101.18 23.5515 101.045C23.6599 100.91 23.7262 100.764 23.7444 100.609C23.7655 100.472 23.7569 100.342 23.7156 100.218C23.6743 100.091 23.5956 99.9481 23.4804 99.783L23.5726 99.71L25.6222 102.323L25.6251 102.324ZM27.667 108.636C27.5623 108.817 27.45 108.97 27.3291 109.098L27.2715 109.158C27.882 109.14 28.4023 109.335 28.8334 109.744C29.154 110.048 29.3422 110.37 29.3969 110.708C29.4487 111.041 29.3451 111.343 29.0849 111.618L27.5671 113.216C27.4039 113.388 27.2964 113.523 27.2407 113.619C27.1851 113.719 27.162 113.821 27.1697 113.93C27.1745 114.064 27.2542 114.238 27.4097 114.452L27.3367 114.529L25.6731 112.949L25.746 112.873C25.9169 112.995 26.0503 113.068 26.1511 113.094C26.251 113.121 26.3623 113.107 26.4871 113.058C26.5687 113.026 26.6724 112.956 26.7934 112.851C26.9163 112.745 27.0814 112.582 27.2897 112.363L28.0491 111.563C28.3102 111.289 28.4935 111.078 28.5953 110.932C28.698 110.785 28.7614 110.649 28.7825 110.522C28.8084 110.378 28.7911 110.232 28.7287 110.079C28.6673 109.927 28.5713 109.79 28.4398 109.665C28.2996 109.532 28.1422 109.434 27.9684 109.374C27.7927 109.313 27.6257 109.298 27.4635 109.326C27.2935 109.356 27.1342 109.423 26.9911 109.527C26.8452 109.632 26.634 109.83 26.3537 110.126L25.651 110.866L25.3889 111.149C25.2276 111.319 25.1182 111.456 25.0625 111.553C25.0068 111.652 24.9838 111.754 24.9915 111.863C24.9972 111.998 25.0788 112.174 25.2353 112.389L25.1623 112.466L23.491 110.88L23.5639 110.802C23.7348 110.925 23.8673 111 23.9691 111.024C24.0689 111.05 24.1793 111.037 24.3031 110.988C24.3847 110.957 24.4865 110.887 24.6084 110.783C24.7303 110.678 24.8955 110.514 25.1047 110.293L25.9851 109.366C26.2299 109.107 26.3959 108.919 26.4814 108.804C26.5687 108.689 26.6196 108.579 26.6398 108.472C26.6628 108.362 26.659 108.261 26.6283 108.171C26.5975 108.083 26.5284 107.981 26.4228 107.866L26.4967 107.788L27.667 108.634V108.636ZM31.0011 112.02L32.2644 112.858L30.3041 115.128L30.0497 115.43C29.8961 115.608 29.7943 115.748 29.7435 115.847C29.6945 115.947 29.6753 116.051 29.6887 116.158C29.7012 116.293 29.7895 116.463 29.9556 116.67L29.8855 116.751L28.1403 115.244L28.2103 115.163C28.3879 115.279 28.5252 115.348 28.626 115.368C28.7278 115.39 28.8382 115.372 28.9582 115.317C29.0388 115.283 29.1377 115.209 29.2548 115.099C29.371 114.988 29.5284 114.817 29.7281 114.587L30.5633 113.619C30.7956 113.351 30.9531 113.155 31.0318 113.036C31.1143 112.917 31.1604 112.803 31.1748 112.696C31.1931 112.586 31.1844 112.484 31.1489 112.396C31.1134 112.309 31.0404 112.211 30.9291 112.102L30.9991 112.02H31.0011ZM33.1774 111.166C33.0746 111.077 33.018 110.972 33.0084 110.848C32.9979 110.723 33.0363 110.612 33.1227 110.512C33.2062 110.415 33.3108 110.362 33.4375 110.354C33.5643 110.346 33.6785 110.385 33.7783 110.471C33.8782 110.557 33.9329 110.664 33.9435 110.79C33.954 110.917 33.9166 111.028 33.8331 111.124C33.7476 111.224 33.642 111.278 33.5172 111.287C33.3924 111.293 33.281 111.253 33.1783 111.165L33.1774 111.166ZM33.1774 113.742L34.8218 114.909L34.7547 115.005C34.6116 114.942 34.506 114.91 34.4398 114.908C34.3083 114.9 34.1979 114.96 34.1095 115.083C34.0558 115.159 34.0068 115.259 33.9627 115.38C33.9195 115.502 33.8667 115.687 33.8052 115.937L33.2561 118.168L35.2356 116.843C35.5274 116.647 35.7194 116.484 35.8116 116.354C35.9124 116.211 35.9412 116.078 35.8999 115.95C35.8788 115.885 35.8145 115.796 35.7118 115.683L35.7799 115.588L36.954 116.422L36.8868 116.518C36.7006 116.445 36.523 116.426 36.353 116.458C36.1409 116.499 35.8106 116.667 35.3643 116.961L32.6091 118.766L32.3796 118.604L33.1783 115.219C33.3012 114.698 33.3569 114.371 33.3463 114.235C33.3386 114.162 33.3195 114.098 33.2839 114.043C33.2513 113.987 33.1927 113.919 33.1102 113.838L33.1774 113.742ZM37.3102 118.631C37.2142 118.772 37.1479 118.876 37.1105 118.943C36.9617 119.206 36.8551 119.486 36.7908 119.781C36.7255 120.075 36.7131 120.343 36.7515 120.585C36.7908 120.83 36.8839 121.059 37.0318 121.27C37.1758 121.48 37.3601 121.647 37.5818 121.771C37.7441 121.863 37.915 121.922 38.0907 121.95C38.2682 121.979 38.4324 121.971 38.5851 121.928C38.7521 121.884 38.9402 121.768 39.1514 121.578L39.2263 121.663C38.9479 121.973 38.6273 122.146 38.2682 122.181C37.9073 122.216 37.5127 122.112 37.0827 121.87C36.7111 121.66 36.425 121.421 36.2254 121.154C36.0257 120.886 35.9028 120.576 35.8558 120.227C35.7905 119.741 35.899 119.248 36.1802 118.75C36.5633 118.07 37.1076 117.673 37.8142 117.56C38.3249 117.479 38.8087 117.566 39.2628 117.821C39.5047 117.958 39.7034 118.127 39.8609 118.328C40.0174 118.531 40.122 118.753 40.1729 118.995C40.2516 119.373 40.1834 119.751 39.9703 120.13L37.3121 118.633L37.3102 118.631ZM39.3886 119.57C39.5364 119.257 39.6103 118.995 39.6122 118.781C39.6151 118.589 39.57 118.411 39.4836 118.25C39.3953 118.087 39.2753 117.963 39.1226 117.877C38.8644 117.731 38.5735 117.715 38.2558 117.827C37.9351 117.939 37.6634 118.154 37.4378 118.47L39.3895 119.57H39.3886ZM42.8455 120.619C43.0548 120.482 43.2526 120.4 43.4426 120.373C43.793 120.324 44.131 120.386 44.4574 120.554C44.658 120.658 44.7886 120.782 44.8462 120.926C44.9018 121.055 44.898 121.178 44.8375 121.294C44.7924 121.381 44.729 121.436 44.6426 121.461C44.5572 121.487 44.4689 121.477 44.3796 121.431C44.274 121.376 44.2049 121.285 44.1732 121.16L44.1108 120.928C44.059 120.749 43.9562 120.62 43.8017 120.539C43.5914 120.431 43.3591 120.483 43.0999 120.692C42.8436 120.901 42.5902 121.249 42.3386 121.732L41.8913 122.596L41.7137 122.951C41.6052 123.161 41.538 123.32 41.5121 123.429C41.4862 123.54 41.4929 123.645 41.5303 123.746C41.5735 123.875 41.7002 124.021 41.9105 124.184L41.8615 124.278L39.8158 123.218L39.8647 123.123C40.0625 123.195 40.2103 123.229 40.315 123.224C40.4177 123.222 40.5214 123.179 40.627 123.098C40.6961 123.046 40.7748 122.95 40.8631 122.815C40.9505 122.68 41.0638 122.476 41.2039 122.207L41.7914 121.072C41.9546 120.756 42.0622 120.53 42.1121 120.395C42.1639 120.26 42.1831 120.139 42.1726 120.032C42.1649 119.92 42.1322 119.823 42.0785 119.747C42.0238 119.67 41.9306 119.593 41.7962 119.511L41.8452 119.416L43.1287 119.864C43.0404 120.169 42.9473 120.419 42.8455 120.616V120.619ZM44.2452 125.472L44.7828 124.089L44.8625 124.12C44.8222 124.493 44.8298 124.807 44.8855 125.062C44.9911 125.525 45.209 125.823 45.5422 125.953C45.7447 126.031 45.9454 126.039 46.1412 125.973C46.3543 125.9 46.5108 125.739 46.6068 125.491C46.6865 125.286 46.698 125.086 46.6404 124.89C46.6068 124.783 46.555 124.678 46.482 124.571C46.411 124.466 46.2823 124.304 46.098 124.092C45.7764 123.719 45.5738 123.433 45.4951 123.234C45.3809 122.954 45.378 122.677 45.4836 122.405C45.5969 122.114 45.7927 121.9 46.0682 121.765C46.385 121.611 46.7287 121.608 47.0964 121.751C47.2625 121.815 47.4046 121.905 47.5246 122.018L47.6609 122.154C47.706 122.194 47.7473 122.222 47.7857 122.236C47.849 122.261 47.922 122.243 48.0074 122.186L48.1073 122.224L47.7396 123.317L47.6398 123.279C47.6647 123.111 47.6753 122.973 47.6695 122.861C47.6657 122.753 47.6426 122.641 47.6042 122.525C47.5505 122.363 47.4727 122.222 47.3662 122.103C47.2606 121.982 47.1434 121.897 47.0158 121.847C46.8334 121.776 46.6548 121.78 46.4762 121.862C46.2977 121.944 46.1719 122.08 46.098 122.27C46.0375 122.427 46.0394 122.594 46.1038 122.766C46.1681 122.938 46.2996 123.123 46.4964 123.321L46.9178 123.754C47.1703 124.012 47.3316 124.275 47.4036 124.541C47.4737 124.807 47.4554 125.08 47.346 125.362C47.2135 125.702 46.9946 125.941 46.6874 126.079C46.3351 126.24 45.9617 126.243 45.5671 126.09C45.354 126.006 45.1534 125.88 44.9681 125.708C44.8471 125.596 44.7742 125.53 44.7473 125.51C44.7223 125.491 44.6858 125.473 44.6407 125.455C44.5284 125.411 44.4228 125.427 44.3258 125.504L44.2462 125.474L44.2452 125.472ZM49.6058 122.874L51.091 123.178L50.1214 126.016L49.9985 126.391C49.9226 126.613 49.8804 126.781 49.8708 126.892C49.8622 127.005 49.8833 127.107 49.9361 127.202C49.9985 127.323 50.1434 127.447 50.3748 127.577L50.3402 127.678L48.1582 126.932L48.1927 126.831C48.401 126.872 48.5537 126.885 48.6545 126.865C48.7562 126.846 48.8532 126.79 48.9444 126.693C49.0068 126.631 49.0711 126.526 49.1383 126.38C49.2055 126.234 49.2871 126.015 49.385 125.728L49.7978 124.518C49.913 124.182 49.985 123.942 50.0148 123.802C50.0465 123.661 50.0465 123.539 50.0206 123.434C49.9966 123.324 49.9505 123.233 49.8852 123.166C49.8199 123.099 49.7162 123.035 49.5713 122.974L49.6058 122.873V122.874ZM51.3041 121.267C51.1764 121.224 51.0842 121.147 51.0286 121.035C50.9719 120.924 50.9662 120.806 51.0084 120.681C51.0497 120.56 51.1265 120.471 51.2417 120.417C51.3569 120.363 51.4769 120.357 51.6017 120.399C51.7265 120.441 51.8177 120.52 51.8743 120.633C51.9319 120.747 51.9386 120.864 51.8974 120.985C51.8551 121.109 51.7774 121.199 51.665 121.252C51.5527 121.306 51.4327 121.31 51.305 121.267H51.3041ZM53.9566 124.11L55.2276 124.475L55.1748 124.659L53.9038 124.295L53.0657 127.213C52.9639 127.565 52.9524 127.831 53.0292 128.017C53.0686 128.118 53.1319 128.207 53.2222 128.284C53.3114 128.36 53.4161 128.416 53.5351 128.45C53.6839 128.493 53.8173 128.499 53.9345 128.465C54.0516 128.432 54.1927 128.351 54.3598 128.221L54.4174 128.305C54.2503 128.474 54.0535 128.579 53.8269 128.619C53.6013 128.661 53.3393 128.639 53.0436 128.553C52.651 128.441 52.387 128.282 52.2506 128.076C52.1777 127.969 52.1422 127.854 52.1441 127.733C52.147 127.614 52.1892 127.408 52.2727 127.117L53.1454 124.078L52.6106 123.924L52.6327 123.847C52.8679 123.841 53.1079 123.764 53.3479 123.616C53.4948 123.525 53.6186 123.428 53.7204 123.325C53.8222 123.223 53.9326 123.082 54.0478 122.906L54.1447 122.755L54.3309 122.809L53.9566 124.11ZM55.4109 124.552L57.3972 124.897L57.377 125.012C57.233 125.009 57.1274 125.018 57.0602 125.041C56.9124 125.092 56.826 125.196 56.7991 125.353C56.7761 125.488 56.803 125.743 56.8836 126.116L57.3674 128.448L58.4302 126.739C58.6932 126.314 58.8401 126.005 58.8727 125.816C58.8986 125.664 58.8785 125.535 58.8084 125.429C58.7373 125.326 58.6212 125.249 58.4599 125.2L58.4801 125.085L59.9517 125.34L59.9316 125.455C59.779 125.471 59.6628 125.496 59.585 125.527C59.5073 125.561 59.4285 125.618 59.3469 125.702C59.2212 125.835 59.0061 126.146 58.698 126.632L56.585 129.986C56.3316 130.387 56.1396 130.641 56.0081 130.753C55.7873 130.936 55.5338 131.004 55.2497 130.955C55.0673 130.923 54.9281 130.864 54.8282 130.774C54.7303 130.684 54.69 130.584 54.7092 130.469C54.7246 130.38 54.7706 130.316 54.8446 130.273C54.9185 130.231 55.0087 130.22 55.1143 130.238C55.2036 130.253 55.3025 130.296 55.41 130.363C55.5165 130.426 55.5837 130.466 55.6145 130.482C55.6442 130.498 55.6817 130.51 55.7278 130.517C55.9399 130.555 56.1396 130.421 56.3316 130.117L56.5591 129.744C56.657 129.586 56.7146 129.462 56.73 129.371C56.7511 129.245 56.7242 129.015 56.6474 128.68L56.0186 125.956L55.9284 125.562C55.8746 125.33 55.8305 125.163 55.7949 125.063C55.7604 124.963 55.721 124.887 55.6769 124.838C55.602 124.758 55.5079 124.703 55.3908 124.667L55.4109 124.552ZM62.3326 127.923C62.3748 127.364 62.6205 126.879 63.0689 126.471C63.6151 125.976 64.2372 125.756 64.9409 125.809C65.6426 125.862 66.2234 126.173 66.6852 126.746C67.0663 127.22 67.2362 127.737 67.193 128.298C67.1508 128.853 66.9165 129.331 66.4884 129.733C65.9642 130.229 65.3325 130.449 64.5933 130.394C63.8522 130.337 63.2589 130.025 62.8116 129.455C62.6359 129.233 62.5082 128.989 62.4247 128.726C62.3431 128.461 62.3124 128.195 62.3326 127.924V127.923ZM63.2839 127.937C63.2378 128.538 63.3348 129.057 63.5719 129.496C63.8397 129.985 64.194 130.246 64.6317 130.279C64.818 130.294 65.0023 130.255 65.1876 130.164C65.3709 130.075 65.5341 129.94 65.6762 129.764C65.826 129.581 65.9517 129.346 66.0573 129.06C66.1629 128.776 66.2244 128.497 66.2455 128.224C66.2666 127.941 66.2445 127.652 66.1793 127.356C66.1121 127.062 66.0122 126.805 65.8797 126.586C65.6273 126.174 65.2951 125.954 64.8833 125.922C64.4935 125.892 64.1402 126.073 63.8263 126.462C63.5095 126.85 63.3281 127.343 63.2829 127.936L63.2839 127.937ZM69.7802 126.141L69.8349 128.865L69.8484 129.262C69.8532 129.498 69.8705 129.67 69.9002 129.779C69.9309 129.887 69.9857 129.978 70.0673 130.049C70.1671 130.141 70.3476 130.209 70.6097 130.251L70.6116 130.358L68.3076 130.405L68.3057 130.298C68.513 130.266 68.6599 130.224 68.7501 130.172C68.8394 130.12 68.9085 130.032 68.9633 129.91C68.9988 129.829 69.0228 129.708 69.0362 129.546C69.0487 129.384 69.0516 129.151 69.0449 128.845L68.9901 126.156L68.2327 126.171L68.2289 125.979L68.9863 125.964L68.9604 124.695C68.9537 124.391 68.9882 124.149 69.0631 123.971C69.138 123.792 69.2753 123.627 69.4749 123.473C69.6535 123.338 69.8733 123.23 70.1335 123.15C70.3927 123.071 70.6692 123.027 70.961 123.022C71.2327 123.016 71.4506 123.059 71.6138 123.151C71.7789 123.242 71.8644 123.364 71.8673 123.523C71.8692 123.627 71.8375 123.716 71.7713 123.786C71.705 123.857 71.6244 123.894 71.5265 123.896C71.4324 123.898 71.3498 123.875 71.2797 123.825C71.2097 123.775 71.1386 123.693 71.0666 123.577C70.9649 123.417 70.8833 123.312 70.8199 123.262C70.7565 123.212 70.6711 123.189 70.5645 123.191C70.4311 123.194 70.3073 123.222 70.1911 123.278C70.073 123.336 69.9837 123.407 69.9185 123.495C69.8474 123.595 69.8004 123.723 69.7773 123.882C69.7524 124.041 69.7418 124.269 69.7485 124.567L69.7764 125.949L70.8113 125.928L70.8151 126.12L69.7802 126.141Z" fill="#009151"/>
<path d="M82.0053 121.834L82.4604 124.083L82.3452 124.104C82.2914 124.011 82.2482 123.939 82.2184 123.892C82.0427 123.583 81.9016 123.358 81.7989 123.209C81.6136 122.943 81.3756 122.714 81.0799 122.518C80.8562 122.371 80.6354 122.272 80.4156 122.225C80.1948 122.179 79.9567 122.179 79.6994 122.223C79.3116 122.29 78.99 122.432 78.7356 122.648C78.51 122.838 78.3141 123.091 78.1461 123.404C77.9772 123.717 77.8562 124.06 77.7784 124.437C77.67 124.968 77.67 125.548 77.7794 126.181C77.8725 126.718 78.0232 127.191 78.2306 127.597C78.4408 128.004 78.6972 128.331 79.0053 128.578C79.5717 129.037 80.2456 129.198 81.0271 129.064C81.4178 128.997 81.7567 128.867 82.0447 128.678C82.3327 128.49 82.542 128.257 82.6716 127.981C82.8204 127.663 82.8971 127.254 82.9029 126.757L83.022 126.758C83.0508 127.311 82.9788 127.765 82.804 128.124C82.638 128.467 82.3768 128.75 82.0188 128.978C81.6616 129.206 81.2287 129.364 80.7228 129.453C80.2514 129.534 79.7877 129.542 79.3308 129.477C78.605 129.37 77.9964 129.055 77.5068 128.532C77.0181 128.011 76.7032 127.34 76.5612 126.522C76.4527 125.896 76.4652 125.299 76.5996 124.732C76.734 124.164 76.9759 123.684 77.3244 123.293C77.5922 122.993 77.9311 122.732 78.3381 122.511C78.7452 122.291 79.1676 122.143 79.6024 122.068C80.0152 121.997 80.4674 122 80.957 122.079L81.4015 122.144C81.4888 122.162 81.5637 122.165 81.6252 122.155C81.7116 122.139 81.7749 122.091 81.8172 122.012C81.8354 121.972 81.8536 121.912 81.8757 121.826L82.0072 121.836L82.0053 121.834ZM84.102 120.999L85.0831 124.415C85.1589 124.239 85.2309 124.098 85.2991 123.993C85.3653 123.888 85.4536 123.786 85.564 123.692C85.7724 123.503 86.0316 123.362 86.3426 123.274C86.7352 123.161 87.0847 123.147 87.3861 123.23C87.6021 123.293 87.7691 123.399 87.8863 123.549C88.0024 123.697 88.1099 123.939 88.2069 124.276L88.6255 125.736L88.7397 126.113C88.805 126.34 88.8655 126.503 88.9221 126.599C88.9797 126.697 89.0556 126.77 89.1535 126.818C89.2735 126.882 89.4655 126.9 89.7304 126.874L89.7592 126.977L87.5445 127.613L87.5147 127.511C87.6837 127.436 87.8028 127.372 87.868 127.317C87.9324 127.263 87.9832 127.185 88.0207 127.089C88.0562 126.987 88.0648 126.862 88.0476 126.711C88.0284 126.561 87.9794 126.346 87.8987 126.066L87.4437 124.48C87.3746 124.239 87.3016 124.055 87.2258 123.925C87.148 123.796 87.053 123.691 86.9359 123.613C86.7103 123.465 86.4424 123.435 86.1333 123.524C85.3288 123.755 85.11 124.508 85.4757 125.782L85.7061 126.583L85.8175 126.953C85.8818 127.179 85.9442 127.342 85.9999 127.439C86.0575 127.537 86.1333 127.609 86.2312 127.657C86.3503 127.721 86.5403 127.74 86.8034 127.715L86.8322 127.818L84.6232 128.452L84.5935 128.35C84.7855 128.265 84.917 128.188 84.99 128.114C85.0629 128.041 85.108 127.939 85.1292 127.807C85.1426 127.72 85.1349 127.596 85.1061 127.438C85.0773 127.279 85.0197 127.054 84.9352 126.76L83.8111 122.845C83.7141 122.506 83.6364 122.27 83.5788 122.135C83.5231 121.999 83.4539 121.897 83.3723 121.826C83.2898 121.75 83.2005 121.704 83.1083 121.687C83.0162 121.669 82.8952 121.679 82.7416 121.711L82.709 121.599L84.102 121V120.999ZM89.166 122.38L90.4956 121.653L91.59 124.444L91.7397 124.81C91.8251 125.028 91.9019 125.184 91.9663 125.275C92.0325 125.365 92.1151 125.43 92.2159 125.469C92.3416 125.522 92.5327 125.523 92.7938 125.472L92.8331 125.571L90.6866 126.413L90.6472 126.314C90.8325 126.211 90.9583 126.122 91.0216 126.041C91.0879 125.961 91.1244 125.856 91.132 125.723C91.1397 125.636 91.1205 125.514 91.0773 125.359C91.0341 125.205 90.9554 124.985 90.844 124.702L90.3775 123.511C90.2479 123.18 90.148 122.951 90.0789 122.825C90.0117 122.696 89.933 122.603 89.8447 122.54C89.7554 122.473 89.6613 122.432 89.5682 122.423C89.4751 122.414 89.3541 122.432 89.2043 122.479L89.165 122.379L89.166 122.38ZM89.4242 120.057C89.2984 120.107 89.1784 120.108 89.0642 120.059C88.949 120.01 88.8683 119.924 88.8203 119.802C88.7733 119.683 88.7752 119.566 88.8271 119.45C88.8789 119.334 88.9672 119.252 89.0901 119.204C89.213 119.156 89.333 119.156 89.4501 119.206C89.5672 119.256 89.6479 119.34 89.6949 119.459C89.7429 119.582 89.742 119.7 89.6911 119.813C89.6402 119.928 89.5509 120.007 89.4261 120.057H89.4242ZM93.0875 120.548C93.2239 120.706 93.3333 120.861 93.4149 121.017L93.4533 121.091C93.6338 120.507 93.9871 120.078 94.5131 119.803C94.9058 119.598 95.2706 119.523 95.6075 119.582C95.9387 119.642 96.1922 119.836 96.3669 120.172L97.3874 122.126C97.4968 122.336 97.5899 122.482 97.6629 122.566C97.7387 122.651 97.828 122.706 97.9327 122.734C98.0613 122.773 98.2523 122.754 98.5039 122.676L98.5538 122.77L96.5215 123.832L96.4715 123.738C96.6434 123.617 96.7557 123.513 96.8133 123.427C96.8709 123.34 96.893 123.231 96.8882 123.097C96.8843 123.009 96.8517 122.889 96.7922 122.739C96.7317 122.589 96.6299 122.379 96.4898 122.112L95.9791 121.134C95.8034 120.798 95.6642 120.556 95.5586 120.413C95.453 120.268 95.3445 120.165 95.2303 120.103C95.1026 120.032 94.9586 120.002 94.7944 120.01C94.6312 120.019 94.4699 120.065 94.3087 120.149C94.1368 120.24 93.9938 120.356 93.8815 120.502C93.7672 120.648 93.6991 120.802 93.6731 120.963C93.6463 121.134 93.6578 121.306 93.7096 121.475C93.7615 121.647 93.8815 121.911 94.0696 122.272L94.5419 123.176L94.7253 123.516C94.8338 123.724 94.9279 123.871 95.0018 123.956C95.0776 124.04 95.1669 124.096 95.2715 124.123C95.4021 124.162 95.5941 124.141 95.8475 124.062L95.8965 124.156L93.8546 125.223L93.8056 125.129C93.9765 125.008 94.0898 124.906 94.1464 124.818C94.204 124.732 94.228 124.623 94.2213 124.49C94.2184 124.403 94.1858 124.283 94.1263 124.134C94.0667 123.985 93.965 123.775 93.8239 123.506L93.2315 122.373C93.0674 122.057 92.9426 121.839 92.862 121.722C92.7813 121.602 92.693 121.517 92.5989 121.464C92.5029 121.406 92.405 121.376 92.3109 121.377C92.2168 121.378 92.0997 121.41 91.9557 121.473L91.9058 121.378L93.0847 120.545L93.0875 120.548ZM98.8725 119.345C98.9522 119.497 99.0117 119.604 99.053 119.668C99.2152 119.924 99.412 120.15 99.6415 120.346C99.8699 120.542 100.1 120.68 100.333 120.76C100.567 120.841 100.814 120.867 101.068 120.836C101.321 120.807 101.555 120.724 101.77 120.588C101.927 120.488 102.06 120.365 102.168 120.223C102.278 120.08 102.348 119.932 102.382 119.777C102.423 119.608 102.409 119.387 102.341 119.113L102.451 119.087C102.593 119.479 102.594 119.842 102.455 120.176C102.316 120.511 102.039 120.81 101.621 121.075C101.261 121.304 100.915 121.443 100.585 121.493C100.255 121.543 99.9237 121.506 99.5935 121.382C99.1346 121.21 98.7506 120.881 98.4434 120.398C98.0248 119.739 97.9317 119.072 98.1659 118.396C98.3349 117.908 98.6402 117.522 99.0799 117.242C99.3141 117.094 99.557 116.999 99.8085 116.954C100.061 116.911 100.306 116.925 100.544 116.995C100.914 117.103 101.215 117.341 101.449 117.709L98.8744 119.345H98.8725ZM100.681 117.955C100.475 117.677 100.279 117.487 100.092 117.386C99.9237 117.292 99.7451 117.248 99.5618 117.248C99.3775 117.249 99.2114 117.296 99.0626 117.39C98.812 117.55 98.6603 117.797 98.6095 118.131C98.5576 118.467 98.6181 118.808 98.7909 119.156L100.681 117.954V117.955ZM104.505 119.129L103.637 117.927L103.706 117.877C103.998 118.114 104.266 118.277 104.51 118.37C104.957 118.534 105.325 118.512 105.615 118.302C105.79 118.176 105.906 118.011 105.957 117.811C106.012 117.592 105.961 117.374 105.806 117.158C105.678 116.98 105.515 116.861 105.319 116.803C105.212 116.773 105.094 116.759 104.965 116.762C104.837 116.764 104.632 116.786 104.353 116.824C103.864 116.891 103.515 116.905 103.305 116.863C103.007 116.807 102.774 116.659 102.603 116.423C102.42 116.168 102.347 115.888 102.383 115.584C102.427 115.234 102.61 114.944 102.93 114.713C103.074 114.608 103.227 114.538 103.388 114.499L103.576 114.458C103.634 114.441 103.679 114.422 103.713 114.398C103.768 114.359 103.792 114.288 103.791 114.184L103.877 114.122L104.594 115.025L104.508 115.087C104.381 114.975 104.27 114.891 104.175 114.835C104.081 114.779 103.975 114.737 103.857 114.707C103.692 114.664 103.53 114.653 103.373 114.677C103.214 114.7 103.078 114.752 102.967 114.832C102.808 114.946 102.714 115.099 102.686 115.294C102.657 115.488 102.703 115.667 102.823 115.832C102.922 115.97 103.063 116.058 103.242 116.097C103.422 116.137 103.648 116.127 103.922 116.069L104.514 115.951C104.869 115.88 105.177 115.887 105.439 115.972C105.7 116.058 105.92 116.222 106.096 116.467C106.31 116.763 106.391 117.076 106.34 117.409C106.284 117.792 106.084 118.107 105.74 118.355C105.554 118.49 105.338 118.588 105.094 118.65C104.935 118.69 104.839 118.716 104.808 118.728C104.778 118.738 104.743 118.759 104.704 118.787C104.607 118.858 104.562 118.955 104.575 119.078L104.506 119.128L104.505 119.129ZM106.892 113.69C106.994 113.828 107.069 113.925 107.12 113.982C107.319 114.21 107.547 114.405 107.803 114.563C108.059 114.723 108.307 114.824 108.549 114.868C108.793 114.913 109.041 114.902 109.288 114.833C109.533 114.767 109.752 114.65 109.943 114.482C110.083 114.359 110.197 114.218 110.281 114.061C110.368 113.903 110.415 113.746 110.425 113.588C110.44 113.415 110.392 113.199 110.284 112.937L110.389 112.895C110.588 113.26 110.645 113.62 110.557 113.971C110.469 114.323 110.24 114.66 109.867 114.986C109.546 115.267 109.226 115.456 108.906 115.556C108.587 115.656 108.254 115.668 107.91 115.595C107.43 115.494 107.002 115.227 106.624 114.796C106.111 114.209 105.918 113.564 106.048 112.86C106.141 112.351 106.384 111.924 106.776 111.581C106.985 111.399 107.211 111.268 107.454 111.186C107.697 111.105 107.941 111.081 108.186 111.115C108.568 111.166 108.903 111.357 109.189 111.684L106.891 113.69H106.892ZM108.471 112.043C108.225 111.799 108.002 111.642 107.802 111.569C107.622 111.503 107.44 111.485 107.258 111.513C107.076 111.542 106.918 111.614 106.786 111.73C106.562 111.925 106.45 112.193 106.45 112.531C106.449 112.871 106.56 113.199 106.784 113.516L108.471 112.042V112.043ZM114.177 99.9596C114.056 100.116 113.973 100.253 113.926 100.372C113.882 100.491 113.864 100.621 113.874 100.764C113.88 100.87 113.904 100.967 113.945 101.054C113.989 101.14 114.056 101.235 114.149 101.333C114.271 101.47 114.424 101.619 114.611 101.78L117.52 104.293C117.791 104.527 118.005 104.685 118.164 104.768C118.324 104.85 118.477 104.883 118.626 104.871C118.891 104.847 119.143 104.709 119.383 104.458L119.472 104.535L117.3 107.049L117.21 106.972C117.333 106.813 117.418 106.672 117.465 106.548C117.509 106.423 117.527 106.294 117.517 106.156C117.501 106.003 117.443 105.852 117.339 105.712C117.235 105.568 117.049 105.382 116.78 105.148L113.251 102.099L116.263 108.248L116.192 108.33L109.752 106.293L113.21 109.28C113.482 109.515 113.694 109.672 113.849 109.753C114.004 109.834 114.16 109.87 114.314 109.863C114.454 109.855 114.582 109.82 114.695 109.755C114.81 109.69 114.936 109.588 115.074 109.444L115.164 109.521L113.593 111.338L113.505 111.262C113.626 111.105 113.709 110.965 113.756 110.842C113.803 110.72 113.821 110.59 113.807 110.45C113.792 110.296 113.733 110.146 113.63 110.005C113.526 109.861 113.34 109.675 113.07 109.442L110.161 106.929C110.04 106.825 109.922 106.73 109.806 106.643C109.6 106.49 109.432 106.396 109.303 106.367C109.122 106.325 108.952 106.337 108.795 106.399C108.637 106.463 108.471 106.585 108.297 106.764L108.208 106.687L109.685 104.978L115.376 106.916L112.687 101.503L114.087 99.8838L114.175 99.9606L114.177 99.9596ZM118.196 100.941C118.332 101.045 118.432 101.117 118.495 101.159C118.749 101.323 119.023 101.447 119.313 101.527C119.603 101.61 119.87 101.639 120.113 101.615C120.36 101.59 120.595 101.511 120.813 101.377C121.031 101.245 121.209 101.071 121.347 100.857C121.449 100.701 121.518 100.534 121.556 100.359C121.596 100.183 121.598 100.019 121.564 99.8646C121.53 99.6947 121.426 99.4998 121.249 99.278L121.338 99.2089C121.631 99.5056 121.785 99.8358 121.797 100.197C121.811 100.56 121.683 100.947 121.415 101.362C121.184 101.721 120.928 101.992 120.649 102.176C120.37 102.36 120.053 102.464 119.702 102.489C119.213 102.525 118.727 102.387 118.245 102.076C117.59 101.653 117.226 101.087 117.156 100.375C117.105 99.8608 117.22 99.3827 117.502 98.9449C117.653 98.7117 117.833 98.5235 118.044 98.3776C118.255 98.2326 118.482 98.1424 118.728 98.1059C119.11 98.0492 119.483 98.1404 119.848 98.3766L118.195 100.94L118.196 100.941ZM119.258 98.9219C118.955 98.7558 118.697 98.6656 118.484 98.6512C118.292 98.6368 118.112 98.6713 117.946 98.7481C117.779 98.8259 117.647 98.9382 117.552 99.086C117.391 99.3356 117.357 99.6246 117.45 99.9491C117.544 100.276 117.741 100.561 118.044 100.803L119.258 98.9209V98.9219ZM124.804 95.3209C124.638 95.2749 124.47 95.2076 124.301 95.1203C124.329 95.4227 124.322 95.6943 124.283 95.9286C124.243 96.1638 124.163 96.3961 124.043 96.6275C123.8 97.0969 123.452 97.4233 122.999 97.6105C122.711 97.7295 122.402 97.7785 122.073 97.7516C121.745 97.7267 121.421 97.6307 121.1 97.4646C120.76 97.2889 120.478 97.0643 120.255 96.7926C120.03 96.5199 119.878 96.2233 119.803 95.9017C119.689 95.3987 119.757 94.9043 120.007 94.4224C120.128 94.1881 120.265 94.0048 120.418 93.8752C120.572 93.7427 120.796 93.6121 121.089 93.4844L119.369 92.5945C119.033 92.4208 118.763 92.3507 118.556 92.3853C118.351 92.4189 118.181 92.5657 118.048 92.823L117.943 92.7693L118.499 91.2544L123.86 94.0297C124.208 94.2092 124.485 94.2841 124.691 94.2477C124.896 94.2141 125.066 94.0672 125.2 93.8099L125.314 93.8684L124.802 95.3209H124.804ZM122.624 94.2764C122.197 94.0547 121.864 93.9068 121.63 93.832C121.397 93.7571 121.188 93.7331 121 93.7561C120.84 93.7792 120.688 93.8416 120.544 93.9453C120.402 94.047 120.292 94.1728 120.215 94.3216C120.045 94.6499 120.053 95.0147 120.237 95.4121C120.348 95.654 120.511 95.8806 120.725 96.0947C120.94 96.3088 121.183 96.4854 121.455 96.6265C121.72 96.7638 122 96.8608 122.294 96.9155C122.589 96.9702 122.861 96.9788 123.112 96.9424C123.545 96.8752 123.85 96.6736 124.023 96.3395C124.105 96.1801 124.144 96.0073 124.139 95.8211C124.133 95.6358 124.081 95.4601 123.986 95.2969C123.885 95.1289 123.737 94.9696 123.538 94.8208C123.339 94.672 123.034 94.4905 122.622 94.2764H122.624ZM121.772 91.2275L122.138 89.7558L124.933 90.8425L125.302 90.9808C125.521 91.0662 125.687 91.1152 125.798 91.1296C125.909 91.1421 126.013 91.1257 126.11 91.0777C126.233 91.0211 126.364 90.8809 126.503 90.6544L126.603 90.6928L125.768 92.8422L125.669 92.8038C125.719 92.5974 125.738 92.4448 125.722 92.343C125.708 92.2403 125.656 92.1414 125.562 92.0464C125.504 91.9811 125.4 91.9129 125.257 91.84C125.114 91.767 124.899 91.6768 124.616 91.5664L123.424 91.1037C123.093 90.975 122.856 90.8925 122.717 90.857C122.577 90.8195 122.455 90.8147 122.349 90.8358C122.239 90.855 122.146 90.8982 122.076 90.9606C122.006 91.023 121.937 91.1238 121.871 91.2669L121.771 91.2284L121.772 91.2275ZM120.238 89.463C120.189 89.5888 120.109 89.678 119.995 89.7299C119.881 89.7817 119.763 89.7827 119.64 89.7347C119.521 89.6886 119.436 89.608 119.386 89.4909C119.336 89.3747 119.335 89.2538 119.383 89.1309C119.431 89.008 119.512 88.9197 119.629 88.8678C119.744 88.815 119.862 88.8131 119.981 88.8601C120.104 88.9081 120.19 88.9888 120.239 89.103C120.288 89.2182 120.287 89.3373 120.238 89.463ZM127.205 85.7373L127.272 85.648C127.585 85.8793 127.779 86.1404 127.855 86.4284C127.931 86.7184 127.9 87.0697 127.762 87.4844C127.54 88.1488 127.169 88.6048 126.649 88.8505C126.136 89.0896 125.584 89.1098 124.992 88.913C124.702 88.817 124.432 88.6701 124.183 88.4733C123.933 88.2774 123.738 88.0576 123.596 87.8137C123.432 87.5363 123.339 87.231 123.313 86.8989C123.289 86.5667 123.334 86.2288 123.449 85.8832C123.609 85.4061 123.84 85.0672 124.144 84.8684C124.33 84.7484 124.501 84.7139 124.659 84.7667C124.764 84.8013 124.84 84.8646 124.888 84.9577C124.936 85.0499 124.943 85.1459 124.911 85.2457C124.84 85.4598 124.631 85.5654 124.286 85.5635C124.127 85.5616 124.017 85.5654 123.955 85.577C123.892 85.5856 123.832 85.6106 123.777 85.6509C123.666 85.7267 123.589 85.839 123.539 85.9869C123.474 86.1798 123.469 86.3766 123.523 86.5782C123.569 86.7529 123.649 86.9161 123.759 87.064C123.869 87.2108 124.02 87.3587 124.213 87.5075C124.506 87.7331 124.815 87.8992 125.133 88.0057C125.427 88.1037 125.73 88.1478 126.046 88.1353C126.361 88.1229 126.643 88.0595 126.891 87.9414C127.282 87.759 127.541 87.4758 127.668 87.0966C127.772 86.7817 127.758 86.486 127.624 86.2124C127.552 86.0723 127.413 85.9139 127.206 85.7392L127.205 85.7373ZM124.427 83.7117L124.576 82.2025L127.499 82.8726L127.885 82.9552C128.113 83.008 128.285 83.032 128.396 83.0301C128.509 83.0262 128.608 82.9946 128.697 82.9331C128.811 82.8592 128.92 82.7017 129.025 82.4579L129.129 82.4819L128.614 84.7293L128.511 84.7053C128.53 84.4941 128.527 84.3404 128.496 84.2425C128.468 84.1427 128.401 84.0525 128.296 83.9728C128.228 83.9171 128.116 83.8643 127.963 83.8124C127.811 83.7616 127.585 83.7021 127.289 83.6349L126.043 83.3497C125.697 83.2701 125.45 83.223 125.308 83.2086C125.164 83.1923 125.043 83.2038 124.941 83.2413C124.835 83.2768 124.749 83.3315 124.689 83.4035C124.628 83.4755 124.576 83.5859 124.53 83.7357L124.426 83.7117H124.427ZM122.653 82.1891C122.623 82.3206 122.556 82.4205 122.451 82.4877C122.346 82.5549 122.229 82.574 122.101 82.5443C121.976 82.5155 121.88 82.4483 121.814 82.3398C121.747 82.2313 121.729 82.1123 121.758 81.9846C121.788 81.856 121.856 81.7571 121.962 81.689C122.069 81.6198 122.184 81.6016 122.31 81.6304C122.438 81.6601 122.536 81.7274 122.601 81.833C122.666 81.9395 122.682 82.0576 122.653 82.1891ZM125.146 79.1872C125.354 79.1747 125.544 79.1814 125.717 79.2121L125.8 79.2265C125.445 78.7283 125.32 78.1869 125.42 77.6022C125.496 77.1664 125.658 76.8314 125.91 76.599C126.159 76.3715 126.467 76.2899 126.84 76.3542L129.012 76.7305C129.245 76.7708 129.417 76.7862 129.528 76.7785C129.642 76.7699 129.74 76.7325 129.826 76.6662C129.935 76.5875 130.036 76.4243 130.127 76.1776L130.232 76.1958L129.84 78.4557L129.736 78.4374C129.743 78.2272 129.73 78.0755 129.696 77.9776C129.663 77.8797 129.589 77.7952 129.479 77.7184C129.406 77.6684 129.292 77.6214 129.137 77.5782C128.981 77.535 128.752 77.488 128.455 77.4371L127.369 77.249C126.996 77.1846 126.719 77.1481 126.541 77.1443C126.361 77.1405 126.212 77.1635 126.095 77.2173C125.961 77.2758 125.848 77.3718 125.756 77.5072C125.664 77.6426 125.603 77.798 125.572 77.9766C125.539 78.1676 125.545 78.3529 125.591 78.5305C125.637 78.71 125.719 78.8579 125.831 78.977C125.95 79.1018 126.094 79.1977 126.26 79.2582C126.428 79.3216 126.711 79.3869 127.112 79.457L128.117 79.6307L128.498 79.6912C128.729 79.7315 128.903 79.7469 129.015 79.7392C129.129 79.7306 129.226 79.6931 129.312 79.6269C129.422 79.5472 129.522 79.382 129.615 79.1324L129.719 79.1507L129.327 81.4211L129.222 81.4029C129.23 81.1936 129.218 81.041 129.183 80.943C129.149 80.8461 129.077 80.7606 128.968 80.6838C128.896 80.6339 128.782 80.5869 128.628 80.5437C128.473 80.5014 128.244 80.4544 127.945 80.4016L126.686 80.1837C126.335 80.1232 126.087 80.0896 125.944 80.0819C125.799 80.0733 125.679 80.0915 125.579 80.1337C125.474 80.175 125.392 80.2355 125.335 80.3094C125.278 80.3843 125.232 80.4976 125.195 80.6493L125.089 80.631L125.144 79.1881L125.146 79.1872ZM127.591 73.8025C127.76 73.8294 127.882 73.8458 127.958 73.8515C128.259 73.8746 128.559 73.8534 128.852 73.7862C129.146 73.7209 129.395 73.6182 129.597 73.481C129.803 73.3418 129.971 73.1594 130.098 72.9376C130.227 72.7178 130.301 72.4806 130.32 72.2272C130.335 72.041 130.315 71.8614 130.266 71.6905C130.216 71.5177 130.141 71.3728 130.037 71.2528C129.926 71.1194 129.74 70.9984 129.48 70.888L129.525 70.7843C129.924 70.9053 130.216 71.1222 130.4 71.4333C130.585 71.7453 130.658 72.1466 130.621 72.639C130.589 73.0643 130.493 73.4253 130.336 73.719C130.177 74.0138 129.949 74.2566 129.653 74.4457C129.24 74.7107 128.748 74.8211 128.176 74.7779C127.398 74.7193 126.808 74.3939 126.407 73.8016C126.116 73.3734 125.991 72.8982 126.03 72.3789C126.051 72.1024 126.12 71.8509 126.235 71.6224C126.352 71.3939 126.509 71.2067 126.708 71.057C127.016 70.8256 127.387 70.7267 127.821 70.7603L127.59 73.8016L127.591 73.8025ZM127.561 71.5216C127.215 71.5206 126.946 71.5638 126.752 71.6531C126.577 71.7328 126.434 71.848 126.326 71.9949C126.216 72.1427 126.154 72.304 126.14 72.4806C126.118 72.7763 126.226 73.0461 126.462 73.288C126.7 73.5309 127.009 73.6864 127.391 73.7555L127.561 71.5225V71.5216Z" fill="#009151"/>
</svg>
