<?xml version="1.0" encoding="UTF-8"?><svg id="b" xmlns="http://www.w3.org/2000/svg" viewBox="0 0 48 48"><g id="c"><path d="M24,0C10.7452,0,0,10.7452,0,24s10.7452,24,24,24,24-10.7452,24-24S37.2548,0,24,0Z" fill="#137d3b" stroke-width="0"/><path d="M7.2685,23.4001c-.3324,9.2413,6.8897,17.0023,16.131,17.3348,9.2413.3324,17.0023-6.8897,17.3348-16.131S33.8446,7.6015,24.6032,7.2691c-9.2413-.3324-17.0023,6.8897-17.3348,16.131Z" fill="#fff" stroke-width="0"/><path d="M12.4346,14.999h7.9922v.2764s-.333.8259-2.2278,2.9771c-.686.7726-2.9405,3.087-4.0561,5.0651-1.5885,2.8805-1.4952,4.7121-1.332,6.2805,0,0-.333-1.0689-.333-3.6631l-.0433-10.936Z" fill="#137d3b" fill-rule="evenodd" stroke-width="0"/><path d="M20.4268,15.792s-.1199,1.2355-2.5375,3.7264c-2.6641,2.7307-4.7454,6.0708-4.7454,9.604s3.9295,7.9123,8.7981,8.7182c0,0-6.8467-2.9239-6.8467-8.6883,0-5.9309,5.3781-8.6815,5.3282-11.592l.0033-1.7683Z" fill="#539735" fill-rule="evenodd" stroke-width="0"/><path d="M20.4268,19.255s-.3597.8758-2.3311,3.4633c-2.0414,2.6974-2.6274,5.861-2.0547,8.0122.1576.6822.4122,1.3382.7559,1.9481,1.715,2.8539,5.7677,6.2406,11.5255,4.7354,0,0-6.3872.9491-9.8472-5.5812,0,0-1.6817-3.813.333-7.3928,1.382-2.4643,1.6118-2.2278,1.6118-3.2069l.0067-1.9781Z" fill="#82ab37" fill-rule="evenodd" stroke-width="0"/><path d="M20.4269,22.395c-.5514.9843-1.0386,2.0032-1.4586,3.0504-.736,2.0147-1.4786,6.8001,3.6065,10.1068,4.9119,3.1969,9.2843.2964,10.3999-1.5019,0,0-4.8353,2.9971-8.8048.3697-1.2193-.7899-2.2078-1.8883-2.8652-3.1838-.6574-1.2955-.9603-2.7419-.8778-4.1923v-4.6488Z" fill="#c2ca22" fill-rule="evenodd" stroke-width="0"/><path d="M22.0019,30.8732s4.4856,2.6075,5.791-2.8839c.1032-.4395,0-13.0173,0-13.0173h7.9523v10.9061s.2398,4.4223-1.8615,6.82c-1.8382,2.0647-8.8681,4.5023-11.8818-1.8249Z" fill="#137d3b" fill-rule="evenodd" stroke-width="0"/><path d="M20.7165,14.4591v-.2198h.5794v-1.6917l-.5794.1332v-.1798l.8692-.2731v2.0114h.5828v.2198h-1.4519Z" fill="#137d3b" fill-rule="evenodd" stroke-width="0"/><path d="M23.2008,12.4481c-.0514.0009-.1019.0137-.1476.0374-.0456.0237-.0852.0576-.1155.0992-.073.1028-.1093.2271-.1032.353-.0063.1362.0323.2708.1099.383.0315.0466.0743.0845.1243.1101.0501.0256.1058.0381.1621.0364.0545.002.1088-.0088.1585-.0313.0497-.0225.0935-.0563.1279-.0986.0729-.0953.1106-.213.1066-.333.0078-.1421-.0321-.2827-.1132-.3996-.0358-.048-.0826-.0867-.1365-.1128-.0539-.0261-.1133-.0388-.1732-.0371v-.0067ZM22.6713,14.4461v-.2464c.133.0585.2748.0945.4196.1066.0847.0018.1683-.0192.2422-.0608.0738-.0416.1351-.1022.1774-.1756.1112-.2036.1631-.4344.1499-.666-.0519.0859-.1252.1568-.2128.2059-.0876.049-.1864.0745-.2867.0739-.0817.0015-.1628-.0154-.2371-.0494-.0743-.034-.1401-.0843-.1924-.1471-.1195-.132-.1839-.3048-.1798-.4829-.0057-.2007.0631-.3965.1931-.5495.0615-.0695.1375-.1246.2227-.1614.0852-.0368.1774-.0545.2702-.0517.1066-.005.2126.0182.3073.0674.0947.0491.1748.1224.2321.2124.1405.2479.2054.5315.1865.8159.0156.3045-.0647.6062-.2298.8625-.0663.103-.1575.1875-.2652.2457-.1077.0582-.2284.0883-.3508.0873-.1525-.0115-.3026-.044-.4462-.0966v.01Z" fill="#137d3b" fill-rule="evenodd" stroke-width="0"/><path d="M25.1289,14.2967c.2897,0,.4362-.3097.4362-.9258s-.1465-.9224-.4362-.9224-.4329.3064-.4329.9224.1432.9258.4329.9258ZM25.1289,14.5165c-.1096.0006-.2174-.0282-.3123-.0832-.0948-.055-.1733-.1344-.2272-.2298-.1479-.2516-.2185-.5411-.2031-.8325-.015-.2914.0556-.5808.2031-.8325.0543-.0947.1329-.1731.2278-.227.0949-.0539.2025-.0813.3116-.0794.1095-.0018.2176.0256.313.0795.0954.0539.1747.1322.2298.2269.1459.2524.2164.5413.2031.8325.0138.2913-.0567.5803-.2031.8325-.0547.0955-.1338.1748-.2292.2298-.0954.055-.2036.0837-.3136.0833h0Z" fill="#137d3b" fill-rule="evenodd" stroke-width="0"/><path d="M26.3577,14.4591v-.2364c.1424-.2588.3232-.4946.5361-.6993l.1299-.1332c.0799-.0666.1453-.1487.1923-.2415.047-.0928.0745-.1942.0808-.298.004-.1032-.0331-.2039-.1032-.2797-.037-.0358-.0808-.0637-.1289-.082-.0481-.0183-.0994-.0267-.1508-.0245-.1764.01-.3478.0626-.4995.1532v-.2564c.1669-.0736.3471-.1121.5295-.1132.1742-.0087.3454.0483.4795.1598.0597.0542.1069.1206.1386.1948s.0468.1542.0446.2348c.0009.1163-.0277.2309-.0833.333-.0786.1244-.1751.2366-.2864.333l-.1232.1165c-.1924.1581-.3346.3687-.4096.6061h.8891v.2531l-1.2355-.02Z" fill="#137d3b" fill-rule="evenodd" stroke-width="0"/><path d="M16.9435,3.3235c.1132.2564.2698.2231.4363.333.2797-.1698.2397-.3597.3829-.5794.1033-.1565.2664-.0999.3663-.2464h.0367c-.001.1345.0423.2655.1232.373.0699-.0433.0632-.0333.0966-.0733.4129-.1965.3696-.6161.5527-.9258.06-.1032.2698-.2031.3564-.2797-.0877-.181-.1246-.3824-.1066-.5828-.1682-.0448-.3279-.1168-.4729-.2131-.0865.0366-.1032.0433-.1365.0866-.0319.0263-.0653.0507-.0999.0733.0666.1532.0899.1665.2198.1732,0,.4695-.666,1.1689-1.2621,1.3653-.1565-.2598-.373-.2331-.5994-.333-.1053.0276-.1994.0869-.2698.1698.1532.3064.6028.333.3763.666v-.0066ZM18.0824,4.7155h.0366v.0366h-.0366c0,.1598-.0899.1998-.1365.333l-.1099.0399c-.05-.2597.1065-.2464.2331-.4063l.0133-.0033ZM17.6961,6.1541c.6161-.2731.5661-.9424.7992-1.412-.1065-.373-.333-.3596-.666-.2264.0063-.0366.0238-.0703.05-.0966-.1232-.3763-.3064-.2165-.5228-.363l-.2565.0833c-.0245.1949-.0879.3829-.1865.5528.08.1498.1066.1132.2165.1765.065-.0409.1208-.0949.1638-.1585.043-.0636.0723-.1356.086-.2111h.0366c.0999.5428-.5362.666-.5928.9391-.0666.333.2798.5561.3997.7293.1998-.0733.1764-.0999.2564-.2098-.0521-.1199-.1422-.2194-.2564-.2831-.0127-.0412-.0127-.0853,0-.1265.0692-.105.1728-.1827.293-.2198-.1565.3763.0366.1732.0733.4695,0,.04-.04.1965-.04.2597.0567.0297.1093.0666.1565.1099l-.01-.0133ZM17.3298,6.6503l-.1831.0566c-.0949.1547-.2154.292-.3564.4063.0158.0783.0527.1508.1066.2098.0168.0215.0383.0388.0628.0507.0245.0119.0515.0181.0787.0181.0273,0,.0542-.0062.0787-.0181.0246-.0119.046-.0293.0629-.0507.2364-.1099.2131-.3064.333-.4795-.07-.1299-.0966-.1132-.1799-.1832l-.0033-.01ZM20.8164,4.7554c.1166.0832.4296.2531.3896.4462,0,.1066,0,.1532-.0899.2331-.0899.0799-.0699.0966-.1931.1465-.3243-.2131-.7142-.3029-1.0989-.2531v.0366h-.0367c.2298.4429.2631.8592.4696,1.332-.0966.1232-.0733.1732-.2831.2564-.2244-.1394-.4648-.2512-.716-.333,0-.0266-.0166-.05-.0266-.0733.0903-.0789.1941-.141.3064-.1832.0799.05.0499.04.1698.0266-.1199-.333-.2031-.716-.2864-.999l-.0733.0233v.0366c-.0591.1003-.077.2197-.0499.333-.1099.0699-.0666,0-.0899.1099.0433.03.0166,0,.0599.0599-.3063.1432-.8258.2065-1.049.3896.0533.0866.1233.0799.0833.1365-.1632.2564-.7126.3597-.8658.0799.0266-.0799-.02-.0633,0-.1199.0798-.069.1762-.116.2797-.1365.0899.0433.05.0566.1199,0,.0699-.0566.0333-.2031.1132-.2831.1698-.2231.4962-.0466.666-.2198.2564-.1865.3797-.8492.383-1.0756-.1312-.0404-.251-.1111-.3497-.2065l.0333-.0166c.0233-.2997.333-.1499.333-.4795.02-.0899,0-.0866-.0566-.1832.0588-.0597.1042-.1312.1332-.2098h.0833c.1172-.0132.2356.0122.3372.0722.1015.0601.1807.1516.2256.2608-.1033.1166-.1166.1432-.05.333-.0766.04-.0699.0333-.0999.0766-.0352.0974-.0473.2017-.0351.3047.0121.1029.0481.2016.105.2881.3634-.1421.7464-.2274,1.1356-.2531l.0233.0433ZM18.3089,3.7764c.338-.2723.6148-.6127.8125-.999.0865-.0265.176-.0421.2664-.0466v.0366h.0366c.0427.1222.0939.2413.1532.3563-.4529.2165-.6227.666-1.0423.9224-.1365-.0699-.1632-.0233-.2398-.2498l.0134-.02ZM10.5164,10.733c-.0999.0466-.1932.04-.2664.0733-.3497.1598-.5595.6294-.8825.666-.0765.025-.156.0396-.2364.0433-.2145-.3815-.3854-.7858-.5095-1.2055,0-.1632.1299-.2398.1965-.403.0443-.2111.0765-.4246.0966-.6394-.2598-.333-.3497-.2797-.6327-.1598-.05.2464-.2764.4129-.4163.666-.2391.394-.4473.8059-.6227,1.2321.4396.4562.7892-.1898,1.2155.1298.5861.2565.1632,1.785.0466,2.1779.0414.0609.0951.1125.1576.1515.0625.039.1325.0646.2054.075.5104-.5046.9577-1.0693,1.332-1.6817.1199-.1865.3896-.4662.5794-.4662.2131-.1965.1565-.2398.1698-.433-.1632-.1498-.2631-.1332-.4229-.2298l-.01.0033ZM6.5503,11.399c-.0533-.0633-.1099-.1232-.1632-.1831-.2627-.0006-.5248-.0263-.7826-.0766l-.3929.2997c-.0387.1569-.0865.3115-.1432.4629.2851.2549.64.4184,1.019.4695.2578-.2639.4206-.6059.4629-.9724h0ZM7.0731,12.9342c.0799,0,.0333,0,.0566.0599.046.0551.0801.1192.0999.1882.0198.0691.0251.1414.0154.2126-.0097.0711-.0342.1395-.0718.2006-.0376.0612-.0876.1138-.1467.1546-.4562,0-.5361.1998-1.0556-.383.0366-.0666.0233-.0333.0366-.0866.333-.333.7526-.6327,1.0656-.333v-.0133ZM8.1354,13.6435c-.1299.6294.7726,1.2954.1565,1.8615-.3963-.1065-.4296,0-.7626-.4262.0633-.333.05-.696.0899-1.0257.02-.1798.1698-.333.2031-.5162.1532-.0433.1665-.0499.313.1066h0ZM44.3735,12.6012c-.1931.1232-.2198.1831-.1332.363h-.0866c-.1465.0266-.2897-.0966-.3996-.1998-.0766.1132-.1232.1398-.0899.2863-.0423.0234-.0899.0356-.1382.0356s-.0959-.0122-.1382-.0356c-.2664.2431-.2164.1566-.5594.2698-.0566-.0433-.0267-.03-.0766-.0466.0699-.1899.1365-.2598.0532-.4929.2698-.1032.4796.02.736-.0599.0371-.1252.0473-.2569.03-.3863.0787-.0512.1698-.0801.2636-.0836s.1869.0185.2692.0636c.2131-.1432.2064-.2498.1265-.4529-.2464-.0366-.6427.1299-.8392-.0999-.1431.0566-.5661.4329-.5761.5994-.333.1399-.3163-.0333-.7492.2564-.0089-.064-.0089-.129,0-.1931.1898-.1232.969-.686.999-.736.1299-.1065.1066-.1332.1665-.2431l-.1432-.2297c-.0792.0415-.1549.0894-.2264.1432-.1248.0933-.2629.1674-.4096.2197-.0567-.0432-.0267-.0266-.0733-.0433.0539-.1492.1404-.2846.2531-.3962-.0333-.0733-.0333-.0666-.03-.1166-.0377-.0546-.0838-.1029-.1365-.1432-.3909.3175-.741.6822-1.0423,1.0856,0,.04.0333.0933.0699.1865.0466.0167.0166,0,.0732.0433.1765-.0766.3897-.3064.5928-.2864l.0333-.02c-.0666.1799-.4429.3331-.5028.5029-.2498,0-.7493-.4696-1.0523-.5162-.0567-.1432-.0367-.1398.0266-.2464-.0353-.0573-.0857-.1037-.1457-.1342-.0599-.0306-.1271-.044-.1942-.0388-.0671.0052-.1315.0287-.186.068-.0546.0393-.0973.0929-.1235.1549l-.0799.0966c.333.4729.8991.4962,1.2854.736.1832.1165.2098.3729.4163.5161.0982.0502.2007.0915.3064.1232.0532,0,.1498-.0599.1998-.0366.1831.0699.2364.393.333.4696.0466.0333.2098.0199.263.0599.0935.1223.176.2527.2465.3896l-.0333.0233c-.1015-.11-.213-.2103-.333-.2997l-.1166.03c-.0111.0463-.0303.0902-.0566.1299.1099.2864.5162.979.7859,1.1022l.0966.0766c.4562-.333.1298-.6194.0599-1.0523,0-.0999.0699-.2164.0733-.333.2925-.2277.6349-.3829.999-.4529.1732,0,.2897.1432.4795.1066.0167-.05,0-.02.0467-.0766-.1599-.3996-.403-.4363-.6294-.7027l.0166.0167ZM40.9269,12.6012c.4495.333.8991.5794,1.1222,1.2121-.0599.04-.1265.0833-.1931.1199-.0682-.061-.1523-.1013-.2426-.116-.0903-.0148-.1829-.0034-.2669.0328-.0433.2164-.1099.2664.0766.5528.066.0312.1175.0867.1436.155.0261.0683.0247.144-.0038.2113-.02.0466-.0166.0399-.0766.0965-.1481-.0501-.2928-.1102-.4329-.1798-.1165-.0832-.1731-.2664-.2897-.333-.0966.666-1.665.8858-1.9481.5195-.1211-.0775-.2192-.186-.2842-.3143-.065-.1282-.0945-.2715-.0854-.415,0-.0433,0-.0633.0266-.1065h.0832c.1466,0,.4563.3563.5662.4662.4462-.1133.8491-.0633,1.292-.333-.0121-.023-.0254-.0452-.0399-.0666,0-.1499-.2298-.423-.333-.5761.0499-.1366.0399-.1632.2297-.2864.1166.2197.3697.313.5495.5195.1529-.1425.3129-.277.4795-.403-.2764-.3829-.333-.1232-.5827-.636l.1931-.1266.0167.0067ZM33.4908,5.1384c-.3538-.1529-.7371-.2257-1.1223-.2131h-.0333c.2734-.3095.5072-.6518.696-1.019-.0276-.1463-.089-.2842-.1792-.4027-.0901-.1185-.2066-.2143-.3403-.28-.0833-.0031-.1641-.0296-.2331-.0766-.1632.2198-.0699.4662-.2597.6927-.2946.3889-.6846.6952-1.1323.8891-.1032.03-.1898,0-.2897.0333l-.8292-.333-.02.0366-.0366-.02c-.1332.353.3697.666.696.8658l-.0167.04h.0367c-.4629.7027-1.4386.7126-2.1779.5295-.0699.0932-.0966.0833-.0932.1865,0,.1765.4828.5328.7925.5928.5893.0718,1.1861-.0447,1.705-.333.1232-.0766.2032-.2997.333-.383.1299-.0833.1166-.0466.2331,0,.0766.2198.2764.333.3797.5128.0566.1199.0466.3031.1032.4263.1426.2644.2619.5407.3563.8259.0666.2598-.0732.696.1366.8092.3529.1432.8058-.5162.7326-.8192-.0733-.303-1.1256-1.665-1.4353-1.9348.3696-.4829,1.9048.3097,2.4143,0,.1965-.1032-.1598-.4762-.4162-.6061v-.02Z" fill="#fff" fill-rule="evenodd" stroke-width="0"/><path d="M2.3577,28.9558l.3763-.1032v.1632c-.0169.1726-.0068.3467.03.5162.0133.0839.0458.1636.0949.2329s.1135.1264.1882.1668c.2034.0552.419.0447.6161-.03l1.5485-.4163-.2697-.999.333-.0932.3896,1.4486-1.6451.4429c-.2167.0659-.4401.1072-.666.1232-.1491.0054-.2971-.0279-.4296-.0966-.1252-.0682-.2337-.1633-.3178-.2785-.0841-.1152-.1416-.2475-.1684-.3875-.0543-.2257-.0812-.4572-.0799-.6893Z" fill="#fff" fill-rule="evenodd" stroke-width="0"/><path d="M3.2768,32.1262l.3164-.1399.3264.736,2.1046-.9324-.3263-.7359.3197-.1399.8359,1.8915-.3164.1399-.3263-.7359-2.108.9324.3263.7359-.3164.1399-.8359-1.8915Z" fill="#fff" fill-rule="evenodd" stroke-width="0"/><path d="M5.8843,34.9393l.5894.9224.9091-1.2355-1.4985.313ZM4.5223,34.8394l3.1569-.6194.2464.3863-1.8848,2.6108-.2631-.4129.4795-.6427-.736-1.1489-.7859.1598-.2131-.333Z" fill="#fff" fill-rule="evenodd" stroke-width="0"/><path d="M6.5803,37.8867l2.2545-1.9847.2897.3297-.7293,2.4709v.0033l1.6384-1.4386.2498.2831-2.2578,1.9847-.2797-.323.7326-2.4809-.0033-.0067-1.6451,1.4453-.2498-.2831Z" fill="#fff" fill-rule="evenodd" stroke-width="0"/><path d="M12.4746,39.5518l-.2731.333c-.1208-.2744-.2991-.5197-.5228-.7193-.1087-.096-.2375-.1664-.3769-.2062-.1394-.0398-.286-.0478-.429-.0236-.3129.0536-.5944.2223-.7892.4729-.1077.1194-.1899.2596-.2414.4119-.0515.1523-.0714.3136-.0583.4739.0134.1592.0597.3139.1359.4544.0762.1404.1808.2635.307.3615.0786.0641.1621.122.2498.1732l.5095-.6094-.4296-.3596.2231-.2664.7826.666-.8958,1.069c-.2816-.1112-.5445-.265-.7792-.4562-.1637-.1285-.3002-.2883-.4014-.4701-.1012-.1818-.1651-.382-.1881-.5889-.0164-.2069.0097-.415.0767-.6114.067-.1964.1735-.3771.3129-.5308.1296-.1665.2913-.3053.4754-.4083.1842-.103.3871-.1679.5969-.1911.2087-.0171.4188.0089.617.0765.1982.0676.3804.1753.5352.3164.2162.1836.4056.3966.5628.6327Z" fill="#fff" fill-rule="evenodd" stroke-width="0"/><path d="M14.729,40.9869l-.2065.333c-.1818-.2504-.4075-.4659-.666-.6361-.3563-.2165-.6061-.2031-.7493.0333-.0285.0432-.0472.0922-.0546.1434-.0075.0512-.0036.1035.0114.153.0601.1498.147.2875.2564.4063l.1965.2398.1898.2298c.1357.1241.2248.2908.2527.4725.0279.1817-.0072.3675-.0995.5265-.0643.1127-.1553.2078-.2651.2769-.1098.0691-.2349.1101-.3643.1194-.3156.0155-.6277-.0722-.8891-.2498-.2824-.19-.5408-.4137-.7693-.666l.2364-.3896c.1873.3012.4344.5607.726.7626.1576.1062.3428.1641.5328.1665.0727.0016.1446-.016.2084-.0511.0638-.0351.1171-.0864.1546-.1487.0293-.0429.0482-.092.0551-.1435.0069-.0515.0017-.1038-.0152-.1529-.0791-.1676-.181-.3234-.303-.4629l-.2031-.2564c-.1633-.1824-.2869-.3967-.363-.6294-.0184-.0858-.0196-.1744-.0036-.2607.016-.0863.0489-.1686.0968-.2421.0568-.1045.1373-.1942.235-.2618.0978-.0677.21-.1114.3278-.1278.2742-.0229.5477.0514.7726.2098.2594.1695.4947.3734.6993.6061Z" fill="#fff" fill-rule="evenodd" stroke-width="0"/><path d="M15.5682,41.35l.4229.1732-.696,1.665c-.1094.2134-.1534.4544-.1265.6927.025.0898.0719.1721.1363.2395.0645.0674.1446.1178.2333.1468.085.0455.18.0693.2764.0693s.1914-.0238.2764-.0693c.1954-.1482.3407-.3528.4163-.5861l.6927-1.665.3696.1532-.666,1.6084c-.0903.2605-.2383.4973-.4329.6927-.146.1213-.3242.1976-.5128.2195-.1886.0219-.3795-.0116-.5495-.0963-.149-.0442-.2862-.1214-.4015-.2257-.1153-.1043-.2057-.2332-.2645-.3771-.0808-.3294-.0406-.6768.1132-.979l.7126-1.6617Z" fill="#fff" fill-rule="evenodd" stroke-width="0"/><path d="M21.0929,43.042l.4562.04-.1565,1.8149c-.0421.2368-.0107.4808.0899.6993.0501.0783.119.1428.2005.1876.0814.0448.1728.0685.2658.0688.0949.0166.1924.0098.2841-.0198.0917-.0296.1748-.0811.2421-.15.1409-.201.2164-.4405.2165-.686l.1599-1.7983.3996.0333-.1532,1.735c-.0045.2765-.074.548-.2031.7926-.102.1595-.2484.2857-.4211.3632-.1727.0775-.3643.1029-.5513.073-.1533-.0014-.3044-.0361-.443-.1017-.1386-.0655-.2612-.1604-.3596-.278-.1761-.2903-.2412-.6345-.1832-.9691l.1565-1.8049Z" fill="#fff" fill-rule="evenodd" stroke-width="0"/><path d="M24.1831,46.2323l-.1898-3.0004.4362-.0266,1.5052,2.088h.0067l-.1365-2.1746.3763-.0266.1898,3.0004-.4263.0266-1.5185-2.1046h-.0067l.1399,2.1945-.3763.0233Z" fill="#fff" fill-rule="evenodd" stroke-width="0"/><path d="M27.5866,45.9187l-.0766-.3363.7859-.1732-.4895-2.2478-.7859.1698-.0733-.3363,2.018-.4429.0733.3397-.7859.1698.4928,2.2511.7859-.1732.0733.3397-2.018.4396Z" fill="#fff" fill-rule="evenodd" stroke-width="0"/><path d="M31.5826,44.82l-2.1646-2.3743.4529-.1732,1.7516,1.8748.0566-2.5742.3663-.1432-.0333,3.2235-.4296.1665Z" fill="#fff" fill-rule="evenodd" stroke-width="0"/><path d="M34.0302,43.7545l-1.4952-2.5975,1.755-1.009.1732.2997-1.3587.7792.4529.7892,1.1522-.6594.1732.2964-1.1522.6627.5228.9091,1.4519-.8325.1698.2997-1.8449,1.0623Z" fill="#fff" fill-rule="evenodd" stroke-width="0"/><path d="M36.1885,40.501l.1898-.1499c.1717-.118.3003-.2886.3663-.4862.0229-.0831.0251-.1705.0066-.2546-.0186-.0841-.0574-.1625-.1131-.2282-.0371-.0591-.0895-.1069-.1517-.1386-.0622-.0317-.1317-.0459-.2013-.0412-.1976.0587-.3788.1624-.5295.303l-.2231.1765.666.8292-.01-.01ZM36.8212,42.0328l-1.8682-2.3311.666-.5228c.1836-.164.3943-.2947.6227-.3863.1307-.0468.273-.05.4056-.0092.1327.0408.2485.1235.3303.2356.1216.1407.1941.3173.2065.5028-.0027.2155-.0551.4275-.1532.6194l1.6651.4196-.4362.333-1.5185-.383-.333.2598.7759.9757-.363.2864Z" fill="#fff" fill-rule="evenodd" stroke-width="0"/><path d="M38.5457,36.455l.293.2697c-.282.1291-.5382.3086-.7559.5295-.2831.3064-.333.5561-.1132.7459.0357.0372.0796.0655.1281.0829.0485.0173.1004.0232.1516.017.1587-.0314.3108-.09.4496-.1732l.2764-.1465.2597-.1399c.1477-.1053.3264-.158.5076-.1495.1812.0085.3542.0775.4914.1961.0984.0849.174.193.22.3146.0459.1216.0608.2527.0431.3814-.0507.31-.1989.5957-.4229.8159-.2405.2402-.5101.4494-.8026.6227l-.333-.3097c.3324-.1224.6361-.3117.8925-.5561.1352-.1351.2288-.3061.2697-.4929.0152-.0708.0116-.1444-.0106-.2134-.0222-.069-.0622-.1309-.1159-.1795-.0364-.0371-.0809-.0651-.1301-.0819-.0491-.0168-.1015-.0218-.153-.0147-.1791.0415-.3509.11-.5095.2031l-.2931.1499c-.2114.1235-.4461.2017-.6893.2298-.0879.002-.1752-.0141-.2566-.0473-.0814-.0332-.155-.0829-.2163-.1458-.0919-.0752-.1645-.1712-.212-.2801-.0475-.1089-.0684-.2274-.061-.346.0353-.2725.1621-.525.3597-.716.2167-.2219.4632-.4124.7326-.5661h0Z" fill="#fff" fill-rule="evenodd" stroke-width="0"/><path d="M41.5729,37.3444l-.2864-.1965.4496-.666-1.9081-1.2887-.4496.666-.2864-.1931,1.1555-1.715.2897.1931-.4496.666,1.9081,1.2921.4496-.6694.2864.1965-1.1589,1.715Z" fill="#fff" fill-rule="evenodd" stroke-width="0"/><path d="M43.7176,33.7777l-2.3977-1.1356-.4895,1.0423-.3164-.1498,1.1822-2.4976.313.1499-.4929,1.0423,2.3977,1.1322-.1965.4163Z" fill="#fff" fill-rule="evenodd" stroke-width="0"/><path d="M44.9499,30.6503l-1.1755-.3463-2.0214.5861.1532-.5062,1.5718-.4462-1.0556-1.3021.1265-.4196,1.3554,1.6451,1.1755.3463-.1299.4429Z" fill="#fff" fill-rule="evenodd" stroke-width="0"/></g></svg>