<svg width="889" height="889" viewBox="0 0 889 889" fill="none" xmlns="http://www.w3.org/2000/svg">
<path d="M888.978 444.51C888.978 689.939 689.964 888.887 444.499 888.887C199.035 888.887 0 689.939 0 444.51C0 199.082 198.994 0.112976 444.499 0.112976C690.005 0.112976 888.978 199.082 888.978 444.51Z" fill="#00632D"/>
<path d="M870.882 444.49C870.882 679.952 679.974 870.795 444.499 870.795C209.024 870.795 18.0957 679.952 18.0957 444.49C18.0957 209.027 209.003 18.2048 444.499 18.2048C679.995 18.2048 870.882 209.068 870.882 444.49Z" fill="white"/>
<path d="M756.143 445.523C756.143 618.754 615.682 759.184 442.411 759.184C269.14 759.184 128.678 618.754 128.678 445.523C128.678 272.293 269.14 131.863 442.411 131.863C442.417 131.863 442.425 131.863 442.432 131.863C615.69 131.863 756.143 272.284 756.143 445.503C756.143 445.509 756.143 445.517 756.143 445.523Z" fill="#F1BB00"/>
<path d="M286.33 713.448C286.33 713.448 243.562 704.908 246.54 623.506C249.517 542.103 261.637 395.735 261.637 395.735C261.637 395.735 397.077 305.131 513.698 266.838C630.319 228.546 670.875 221.66 670.875 221.66L671.33 229.559L744.52 210.371L744.893 219.262L671.743 239.318L670.999 249.077L745.886 227.202L747.044 239.607L597.498 287.804L596.278 303.952L782.719 241.799L777.879 277.817L746.486 289.21L746.754 299.548L775.294 292.849L774.053 300.623L753 307.385L754.779 318.839L770.93 314.146L765.781 351.136C765.781 351.136 556.24 429.499 458.314 477.903C354.909 529.035 285.855 614.532 278.099 645.526C270.344 676.52 275.059 696.907 286.33 713.448Z" fill="white"/>
<path d="M440.218 698.974C457.053 685.039 455.377 674.163 455.377 674.163L453.909 359.096L436.206 363.045L437.86 649.206" fill="white"/>
<path d="M454.096 658.201C466.504 678.877 443.755 710.14 403.427 728.045C363.099 745.951 320.144 743.718 307.694 723.062C295.244 702.407 318.034 671.123 358.384 653.218C398.732 635.312 441.646 637.545 454.096 658.201Z" fill="white"/>
<path d="M531.505 708.299C548.422 690.993 546.747 677.616 546.747 677.616L545.258 286.439L527.472 291.319L529.127 646.642" fill="white"/>
<path d="M545.982 657.766C560.976 683.405 538.433 720.147 495.644 739.81C452.855 759.473 406.012 754.697 391.039 729.058C376.065 703.42 398.588 666.678 441.376 646.994C484.166 627.31 530.967 632.128 545.982 657.766Z" fill="white"/>
<path d="M521.64 700.587C538.413 683.612 536.758 670.482 536.758 670.482L535.269 286.688L517.628 291.484L519.282 640.088" fill="#00632D"/>
<path d="M535.931 651.005C550.78 676.168 528.444 712.228 486.069 731.519C443.693 750.81 397.284 746.116 382.435 720.953C367.586 695.79 389.922 659.689 432.235 640.44C474.549 621.19 521.165 625.863 535.931 651.005Z" fill="#00632D"/>
<path d="M281.263 711.608C281.263 711.608 240.79 699.202 244.533 609.342C247.967 526.637 253.736 379.979 253.736 379.979C253.736 379.979 341.073 286.688 507.763 236.527C622.626 201.935 671.536 201.067 671.536 201.067L672.177 212.108L746.589 197.117L746.465 205.636L672.55 222.177L672.923 231.812L748.181 214.858V228.297L596.981 271.49L595.927 285.509L782.719 231.13L780.65 261.318L748.657 272.876L748.946 283.4L778.189 274.488L776.307 284.641L755.316 291.381L757.115 303.022L773.66 298.266L767.455 337.365C767.455 337.365 554.13 413.764 455.357 464.835C356.584 515.906 288.894 577.294 267.696 645.009C261.079 669.407 264.243 693.412 281.263 711.608Z" fill="#E60012"/>
<path d="M429.754 684.501C447.209 667.96 445.471 655.016 445.471 655.016L443.941 282.387L425.597 287.08L427.313 625.263" fill="#040000"/>
<path d="M444.148 635.973C457.032 660.62 433.518 698.003 391.576 719.258C349.635 740.513 305.212 737.867 292.307 713.303C279.402 688.74 302.936 651.274 344.878 629.998C386.82 608.722 431.243 611.307 444.148 635.973Z" fill="#040000"/>
<path d="M554.254 467.978V458.177C558.926 456.31 563.345 453.866 567.407 450.899H577.955V500.523H566.539V461.548C562.688 464.126 558.568 466.282 554.254 467.978Z" fill="white"/>
<path d="M591.087 488.075H602.504C603.269 492.211 605.13 494.278 608.067 494.278C613.898 494.278 616.532 489.053 615.967 478.606C613.013 480.861 609.334 481.957 605.626 481.686C596.278 480.928 591.114 475.891 590.136 466.572C590.715 456.29 596.851 450.678 608.542 449.741C621.034 449.741 627.238 457.123 627.155 471.886C627.941 491.487 621.607 501.19 608.149 500.998C596.774 501.013 591.087 496.704 591.087 488.075ZM601.903 465.952C601.903 471.549 604.344 474.346 609.225 474.346C613.361 474.346 615.609 471.549 615.967 465.952C615.568 460.162 613.319 457.179 609.225 456.999C604.288 457.232 601.82 460.239 601.82 466.014L601.903 465.952Z" fill="white"/>
<path d="M632.037 486.752H643.452C643.638 491.404 645.769 493.927 649.884 494.299C654.021 494.119 656.26 491.605 656.605 486.752C656.413 481.155 652.221 478.446 644.031 478.626V471.534C652.401 471.534 656.591 468.923 656.605 463.698C656.413 459.397 654.269 457.158 650.174 456.978C646.67 457.259 643.969 460.183 643.969 463.698H632.553C632.946 454.724 638.757 450.072 650.112 449.679C661.031 450.823 666.878 455.028 667.649 462.292C667.277 469.012 663.947 473.126 657.701 474.698C663.916 476.135 668.245 481.765 668.042 488.137C666.857 495.968 660.714 500.26 649.616 501.019C637.703 501.019 631.829 496.346 632.037 486.752Z" fill="white"/>
<path d="M684.691 474.408V474.139C677.865 472.459 674.55 468.722 674.742 462.933C675.321 455.103 681.272 450.713 692.59 449.762C704.089 450.341 710.134 454.731 710.728 462.933C710.513 468.706 706.124 473.461 700.387 474.139C707.212 476 710.728 480.218 711.204 486.752C710.417 495.699 704.178 500.454 692.487 501.019C680.395 500.647 674.149 495.891 673.75 486.752C674.054 480.591 677.7 476.476 684.691 474.408ZM685.27 463.491C685.476 467.792 688.108 470.031 693.17 470.211C696.817 470.428 699.953 467.647 700.17 464C700.18 463.83 700.182 463.661 700.18 463.491C699.787 459.583 697.181 457.433 692.301 457.061C687.819 457.433 685.476 459.577 685.27 463.491ZM685.27 486.463C685.476 491.508 687.999 494.113 692.88 494.299C697.367 493.927 699.787 491.322 700.18 486.463C699.781 481.597 697.249 478.984 692.59 478.626C687.916 478.998 685.476 481.61 685.27 486.463Z" fill="white"/>
<path fill-rule="evenodd" clip-rule="evenodd" d="M717.201 667.96C717.201 667.96 720.302 664.135 718.731 662.749C716.624 660.862 714.692 658.786 712.961 656.546C712.155 655.223 709.652 654.293 712.796 652.204C715.939 650.116 716.767 649.144 718.235 650.447C720.554 652.539 722.975 654.514 725.494 656.36C727.748 657.87 727.128 658.077 727.686 660.02C728.244 661.964 726.094 665.809 726.776 668.001C727.458 670.193 730.023 674.762 732.566 668.973C735.111 663.184 736.082 664.031 738.13 663.101C739.46 662.51 740.363 661.242 740.488 659.793C741.528 660.864 742.738 661.757 744.066 662.439C747.706 664.507 752.586 660.744 752.524 656.96C752.462 653.176 750.6 650.757 749.504 648.028C748.409 645.299 748.078 645.96 749.318 645.547C750.559 645.133 752.049 647.263 752.752 652.246C753.455 657.229 758.315 658.077 759.949 658.242C761.582 658.407 762.699 657.642 760.466 660.951C758.232 664.259 759.887 664.776 764.003 669.221C768.118 673.667 768.594 674.225 770.744 671.289C772.895 668.353 770.93 662.501 770.248 659.565C769.565 656.629 769.71 655.761 774.177 660.496C778.644 665.23 781.27 664.631 783.98 663.122C786.69 661.612 791.674 653.197 793.348 647.78C795.024 642.362 797.092 634.257 796.554 632.004C796.017 629.75 792.004 627.186 789.026 627.186C783.577 627.604 778.175 628.524 772.895 629.936C769.462 631.052 770.827 632.458 770.827 632.458C770.827 632.458 779.968 637.441 782.987 641.535C786.007 645.629 778.355 652.907 776.431 653.011C774.508 653.114 769.648 648.235 769.648 648.235C769.648 638.269 764.892 637.896 764.892 637.896C757.736 635.519 759.245 646.394 757.839 650.302C756.433 654.21 756.288 647.986 756.867 641.846C757.446 635.705 759.472 632.52 754.385 632.148C749.298 631.776 749.422 637.834 748.574 639.282C747.726 640.729 747.519 639.675 747.582 636.594C747.644 633.513 750.58 633.802 751.056 632.872C752.535 627.502 753.45 621.994 753.785 616.434C754.178 609.673 751.511 611.307 746.216 611.906C740.922 612.506 740.674 615.483 739.598 618.647C738.523 621.81 741.273 621.5 741.666 625.697C742.059 629.895 741.769 639.364 740.736 641.329C739.702 643.293 739.35 640.378 736.909 638.889C734.707 637.698 732.083 637.57 729.775 638.537C728.244 639.199 727.872 642.673 727.872 642.673L730.168 644.368C732.442 646.064 735.049 647.532 736.661 648.627C738.275 649.723 739.102 651.708 739.144 655.327C739.15 655.852 739.191 656.377 739.268 656.898C738.647 656.284 737.953 655.748 737.199 655.306C732.029 652.08 725.535 647.366 723.818 646.188C722.102 645.009 718.214 641.287 716.539 641.225C714.863 641.163 707.895 637.379 706.198 645.009C704.503 652.639 704.379 656.898 707.915 661.819C710.157 664.8 713.354 666.924 716.973 667.836L717.201 667.96Z" fill="#231815"/>
<path fill-rule="evenodd" clip-rule="evenodd" d="M728.39 636.304C727.813 634.185 727.345 632.039 726.983 629.874C726.466 626.71 726.466 627.165 723.509 625.304C721.953 624.368 720.473 623.309 719.083 622.141C719.083 622.141 719.952 620.859 721.337 618.357C722.722 615.855 724.936 615.173 727.77 614.449C730.968 613.523 734.41 613.997 737.241 615.752C740.219 617.82 737.241 624.312 735.069 624.912C732.898 625.511 731.512 624.912 731.45 628.385C731.053 631.226 730.007 633.935 728.39 636.304Z" fill="#231815"/>
<path fill-rule="evenodd" clip-rule="evenodd" d="M729.692 673.729C731.512 674.183 732.692 674.39 735.111 671.516C737.531 668.642 737.924 666.699 739.247 667.112C740.57 667.526 741.729 669.717 742.701 672.902C743.673 676.086 746.01 680.448 752.772 685.7C759.535 690.952 755.937 694.405 752.524 698.106C749.112 701.807 744.975 698.602 739.598 695.232C734.222 691.862 734.139 687.602 730.809 684.894C727.479 682.185 726.673 683.343 724.853 679.601C723.033 675.858 723.239 676.003 723.26 673.667C723.281 671.33 727.872 673.398 729.734 673.832L729.692 673.729Z" fill="#231815"/>
<path fill-rule="evenodd" clip-rule="evenodd" d="M656.709 782.052L656.026 782.734C649.056 789.309 644.527 784.554 642.79 777.193C641.054 769.832 652.076 774.092 652.696 771.941C653.64 769.52 655.263 767.424 657.37 765.904C659.439 764.229 664.278 764.27 660.328 760.735C656.378 757.199 658.674 757.199 659.17 752.299C659.666 747.398 655.385 748.474 654.889 752.485C654.393 756.496 652.986 765.614 644.548 762.327C636.11 759.039 640.661 751.182 642.976 749.569C645.293 747.957 650.401 745.682 653.006 742.498C655.873 739.603 659.36 737.397 663.203 736.047C664.712 735.634 668.662 736.357 668.414 732.822C668.166 729.286 663.141 730.278 657.308 733.876C651.476 737.474 642.687 743.429 639.336 747.068C635.986 750.707 636.545 753.891 637.951 757.592C639.357 761.293 639.398 767.062 638.737 772.768C638.075 778.475 629.947 777.834 623.785 769.874C617.621 761.913 619.545 757.344 619.917 753.084C620.289 748.825 626.121 750.665 626.121 750.665C626.961 748.821 627.652 746.913 628.19 744.959C628.851 742.478 632.016 740.327 635.82 738.487C634.313 737.627 632.986 736.481 631.913 735.117C629.881 732.962 627.442 731.232 624.736 730.03C623 728.62 621.53 726.91 620.393 724.985C619.752 723.104 621.695 721.718 624.529 721.077C627.362 720.436 631.663 724.386 634.001 725.068C636.338 725.75 638.902 731.54 638.365 736.088C638.323 736.562 638.22 737.027 638.054 737.474C642.79 735.406 642.397 734.641 649.533 728.645C656.667 722.649 656.998 722.814 664.795 720.126C670.523 718.04 676.945 719.682 680.968 724.262C683.656 727.177 680.761 734.414 674.039 739.438C667.319 744.462 668.394 745.041 666.263 748.991C664.133 752.94 666.449 754.656 668.724 754.677C671 754.697 675.218 752.402 682.994 747.977C690.771 743.553 692.073 744.483 696.458 748.453C700.842 752.423 694.493 758.626 688.351 758.915C682.208 759.205 677.39 760.755 678.382 762.596C679.375 764.436 683.904 773.265 683.594 779.281C683.284 785.298 674.949 786.89 672.716 788.09C670.482 789.289 665.395 786.435 659.418 784.14C658.266 783.814 657.273 783.078 656.626 782.073L656.709 782.052ZM660.369 777.751C661.016 777.629 661.676 777.58 662.335 777.607C667.381 777.834 675.756 770.37 671.061 768.178C667.463 766.483 664.65 772.086 660.369 777.751Z" fill="#231815"/>
<path fill-rule="evenodd" clip-rule="evenodd" d="M633.691 708.258C633.691 708.258 630.092 709.23 634.022 714.192C637.951 719.155 638.654 720.829 640.804 721.45C642.956 722.07 646.74 721.119 647.009 717.728C647.278 714.337 652.51 715.66 656.667 716.342C660.824 717.025 665.622 712.931 661.879 707.142C658.135 701.352 653.606 701.58 647.898 704.702C642.191 707.824 641.943 708.382 638.84 707.638C637.081 707.187 635.215 707.408 633.608 708.258H633.691Z" fill="#231815"/>
<path fill-rule="evenodd" clip-rule="evenodd" d="M371.495 782.714C373.563 782.404 374.39 781.556 376.747 783.685C379.937 785.885 383.73 787.049 387.606 787.014C390.77 787.014 392.92 792.721 388.681 795.037C384.441 797.353 379.767 797.725 380.532 799.524C381.297 801.322 388.95 802.398 385.578 806.574C383.868 808.964 380.807 809.975 378.01 809.076C383.041 810.224 388.149 811.005 393.293 811.412C403.427 812.384 408.287 806.926 413.54 809.903C418.793 812.881 422.288 815.61 417.262 819.58C413.263 819.824 409.253 819.325 405.433 818.112C401.118 816.801 396.66 816.023 392.155 815.796C390.46 815.796 392.962 817.863 392.9 821.999C392.838 826.134 389.59 850.78 379.312 852.765C379.312 852.765 371.639 852.228 374.825 845.735C373.882 844.637 372.526 843.978 371.081 843.916C368.559 843.75 368.103 842.903 368.517 841.021C368.931 839.139 367.172 837.341 366.035 840.732C364.898 844.123 361.527 847.844 359.561 842.406C357.597 836.968 355.592 835.955 356.935 831.923C358.279 827.892 360.948 819.228 363.966 818.112C366.986 816.995 368.993 815.568 370.047 818.753C371.102 821.937 372.012 820.82 375.424 818.897C378.837 816.974 383.697 815.465 381.132 815.424C378.026 815.401 374.928 815.068 371.888 814.431C368.039 813.304 363.894 813.852 360.472 815.941C355.239 818.691 351.559 822.495 348.394 818.691C345.23 814.886 348.394 813.005 351.124 808.497C353.854 803.99 354.763 803.266 359.541 803.514C364.319 803.762 368.082 806.016 369.489 802.149C370.895 798.283 370.027 793.59 369.882 790.116C369.737 786.642 369.489 783.024 371.495 782.714ZM381.504 825.39C381.235 826.63 380.574 829.525 378.072 830.249C375.569 830.972 377.865 832.461 380.615 833.288C383.366 834.115 382.539 834.984 383.531 830.125C384.524 825.266 386.758 824.501 385.764 823.508C384.772 822.516 384.007 822.702 382.684 823.322C381.359 823.942 381.774 824.149 381.504 825.39Z" fill="#231815"/>
<path fill-rule="evenodd" clip-rule="evenodd" d="M396.498 764.043C395.58 764.864 394.524 765.515 393.376 765.966C392.321 766.09 391.432 766.689 391.928 768.86C392.424 771.032 391.742 771.941 390.067 773.306C388.391 774.671 384.711 776.015 382.001 777.937C379.292 779.86 378.713 781.39 381.815 782.073C384.918 782.755 387.75 779.84 392.714 780.853C397.678 781.866 402.579 779.736 403.778 775.663C404.978 771.59 405.847 767.992 403.944 766.855C401.28 766.539 398.728 765.596 396.498 764.105V764.043Z" fill="#231815"/>
<path fill-rule="evenodd" clip-rule="evenodd" d="M529.065 759.763C528.259 759.887 524.122 760.363 523.895 762.079C523.709 764.157 523.856 766.249 524.329 768.282C524.73 771.629 524.081 775.018 522.467 777.979C520.896 780.77 518.124 784.554 521.351 785.918C525.791 787.519 530.756 785.995 533.532 782.176C537.007 777.607 542.446 770.37 538.744 764.891C536.734 761.508 532.992 759.542 529.065 759.804V759.763Z" fill="#231815"/>
<path fill-rule="evenodd" clip-rule="evenodd" d="M511.713 784.326C514.36 783.086 516.966 783.685 517.917 789.764C518.869 795.843 518.538 799.11 517.442 801.963C516.346 804.817 509.852 811.392 515.994 809.944C522.136 808.497 522.695 805.54 523.48 801.881C524.267 798.221 522.984 792.183 525.962 790.715C528.941 789.247 531.732 785.815 535.641 787.883C539.55 789.95 538.082 790.715 543.045 792.473C548.009 794.23 554.627 797.911 555.227 801.695C555.826 805.478 553.758 808.497 549.022 808.373C544.286 808.249 538.681 806.099 535.951 810.73C533.222 815.362 536.137 811.888 536.654 819.538C536.654 819.538 538.185 824.025 540.087 817.988C541.991 811.95 544.327 808.414 552.393 810.709C560.459 813.005 574.542 822.454 566.601 828.719C566.601 828.719 562.464 830.207 561.472 828.16C560.479 826.113 553.882 827.83 552.248 830.228C550.615 832.626 548.381 833.516 548.112 828.512C547.843 823.508 539.695 823.922 538.764 827.602C537.834 831.282 541.08 832.957 541.701 836.906C542.322 840.856 543.19 847.617 540.563 848.03C537.937 848.444 534.07 846.169 529.148 841.538C524.226 836.906 523.666 835.335 519.551 839.16C515.436 842.985 509.045 848.34 504.206 843.047C499.367 837.754 501.31 830.869 503.296 829.525C505.281 828.181 503.751 827.127 497.505 827.912C491.26 828.698 493.1 814.617 498.188 809.614C503.276 804.61 505.364 800.599 505.612 797.869C505.86 795.14 509.087 785.464 511.817 784.285L511.713 784.326ZM525.446 820.365C526.004 819.125 526.211 814.721 524.267 817.367C522.322 820.014 515.146 822.309 515.146 822.309C518.414 823.467 524.908 821.627 525.446 820.365Z" fill="#231815"/>
<path d="M65.9936 513.363L67.2757 519.255C61.4162 521.075 59.1206 525.686 60.389 533.088C62.1124 540.062 65.6075 542.965 70.8743 541.793C74.3213 541.214 75.8723 538.904 75.5275 534.866L75.693 520.889C76.0239 513.487 79.5122 509.056 86.1577 507.594C94.9539 506.049 100.82 511.198 103.757 523.039C105.26 529.862 104.929 534.852 102.765 538.009C100.944 541.979 97.3875 544.439 92.0725 545.432L90.7075 539.229C97.8839 537.637 100.614 532.592 98.9799 524.011C97.0153 515.864 93.4374 512.267 88.2878 513.239C83.9309 513.652 81.8628 517.678 82.0835 525.314V535.486C81.8353 542.516 78.8159 546.652 73.0045 547.892C63.6979 549.408 57.728 544.997 55.0946 534.659C52.7508 523.122 56.3836 516.024 65.9936 513.363Z" fill="black" stroke="#020202" stroke-width="1.03394"/>
<path d="M67.3793 474.698L47.8356 476.765L47.1738 470.252L94.8438 465.331L95.5056 471.844L73.3562 474.098L75.9206 499.096L98.0701 496.842L98.7319 503.355L51.0412 508.235L50.3794 501.722L69.9231 499.654L67.3793 474.698Z" fill="black" stroke="#020202" stroke-width="1.03394"/>
<path d="M89.2803 425.902H95.1331L94.9469 461.196H47.0288L47.1322 426.377H52.6334V454.662H67.5651V428.486H73.3145V454.662H89.301L89.2803 425.902Z" fill="black" stroke="#020202" stroke-width="1.03394"/>
<path d="M90.1698 391.393L51.7028 386.596L52.4681 380.393L100.035 386.306L99.1453 393.584L57.659 412.958V413.227L96.1259 418.024L95.3401 424.227L47.7734 418.313L48.7455 410.498L90.1698 391.393Z" fill="black" stroke="#020202" stroke-width="1.03394"/>
<path d="M86.8607 358.373L105.722 362.942L104.15 369.31L85.3303 364.72L53.3159 375.534L55.1151 368.173L80.6563 360.378L61.547 341.439L63.3462 334.078L86.8607 358.373Z" fill="black" stroke="#020202" stroke-width="1.03394"/>
<path d="M106.011 316.213L99.3934 334.429L110.747 343.837L108.514 350.04L69.6333 316.689L72.1358 309.804L123.073 309.907L120.675 316.461L106.011 316.213ZM94.6989 330.48L99.8071 316.461L77.4508 315.862L77.3474 316.11L94.6989 330.48Z" fill="black" stroke="#020202" stroke-width="1.03394"/>
<path d="M128.906 278.128L94.2233 260.821L97.0152 255.197L139.908 276.597L136.619 283.152L91.1211 287.639L90.997 287.866L125.679 305.193L122.866 310.796L79.9326 289.396L83.4484 282.387L128.906 278.128Z" fill="black" stroke="#020202" stroke-width="1.03394"/>
<path d="M136.495 244.859L131.925 241.799L143.527 224.39L164.891 238.615L162.533 242.027L156.639 239.959C158.103 245.755 156.987 251.9 153.578 256.81C149.897 262.325 145.761 265.542 141.17 266.466C134.276 268.354 127.278 266.729 120.178 261.586C107.687 252.007 104.998 241.09 112.113 228.835C119.434 219.448 127.568 216.692 136.516 220.564L133.042 225.775C126.451 223.68 120.937 225.789 116.497 232.102C111.616 240.993 114.16 248.98 124.129 256.066C135.158 263.427 143.63 262.676 149.545 253.812C151.754 250.961 152.79 247.373 152.441 243.784C151.958 239.483 149.324 235.735 144.54 232.536L136.495 244.859Z" fill="black" stroke="#020202" stroke-width="1.03394"/>
<path d="M186.42 165.524L181.994 169.907C176.479 166.599 170.964 167.426 165.449 172.389C158.804 180.08 159.707 188.351 168.159 197.2C177.575 206.546 186.034 207.435 193.534 199.867C198.553 194.56 198.553 188.206 193.534 180.804L197.981 176.338C204.874 186.18 204.288 195.567 196.222 204.499C186.034 214.025 175.107 213.266 163.443 202.225C152.413 190.549 151.724 179.322 161.375 168.543C169.875 160.955 178.106 159.921 186.42 165.524Z" fill="black" stroke="#020202" stroke-width="1.03394"/>
<path d="M231.773 142.056C240.61 155.303 239.564 166.558 228.629 175.821C216.608 184.56 205.357 182.954 194.878 171.003C185.447 157.564 186.399 146.088 197.732 136.577C209.464 127.976 220.813 129.802 231.773 142.056ZM226.603 146.192C218.33 136.722 209.845 134.95 201.144 140.878C192.872 147.963 192.569 156.633 200.235 166.889C208.286 176.538 216.676 178.164 225.404 171.768C233.303 164.848 233.703 156.295 226.603 146.109V146.192Z" fill="black" stroke="#020202" stroke-width="1.03394"/>
<path d="M270.116 136.164L250.242 102.937L255.64 99.7111L280.209 140.712L274.004 144.475L233.159 123.799L232.932 123.923L252.827 157.253L247.429 160.479L222.777 119.395L229.499 115.26L270.116 136.164Z" fill="black" stroke="#020202" stroke-width="1.03394"/>
<path d="M301.034 93.8597L295.554 96.3408C292.561 91.0063 287.571 89.7244 280.581 92.495C274.128 95.6378 272.061 99.6629 274.376 104.57C275.659 107.816 278.223 108.871 282.111 107.671L295.74 104.901C303.047 103.702 308.108 106.197 310.921 112.386C314.27 120.656 310.46 127.466 299.484 132.814C293.135 135.709 288.191 136.412 284.635 134.882C280.375 133.93 277.21 130.96 275.141 125.97L280.85 123.365C283.896 130.05 289.412 131.663 297.395 128.203C304.964 124.585 307.735 120.346 305.667 115.508C304.343 111.373 299.98 110.153 292.555 111.972L282.649 114.185C275.757 115.398 271.061 113.33 268.565 107.982C265.159 99.201 268.228 92.4469 277.768 87.7188C288.688 82.9632 296.443 85.0102 301.034 93.8597Z" fill="black" stroke="#020202" stroke-width="1.03394"/>
<path d="M350.276 107.134L352.076 112.592L318.489 123.613L303.558 78.1249L336.647 67.2699L338.364 72.501L311.478 81.3091L316.131 95.4931L340.949 87.2226L342.748 92.7018L317.931 100.848L322.894 116.025L350.276 107.134Z" fill="black" stroke="#020202" stroke-width="1.03394"/>
<path d="M356.77 90.4274L360.906 110.69L354.496 111.993L344.899 65.0368L366.697 60.5914C377.038 58.6685 383.056 61.7699 384.918 69.9578C386.191 74.6755 384.452 79.6924 380.533 82.6117C384.379 83.0666 386.861 85.6925 388.019 90.4274L390.253 98.6979C390.439 101.324 391.514 102.709 393.521 102.833L393.728 103.867L385.765 105.48C384.992 104.086 384.42 102.589 384.069 101.034C383.407 98.6566 382.808 96.2995 382.332 93.901C381.34 88.215 377.948 85.982 372.137 87.1605L356.77 90.4274ZM352.344 68.8619L355.654 85.0309L370.523 81.9914C376.893 80.8749 379.505 77.4908 378.361 71.8393C377.121 66.7323 373.77 64.6646 368.248 65.6364L352.344 68.8619Z" fill="black" stroke="#020202" stroke-width="1.03394"/>
<path d="M410.996 95.5758L421.337 53.6855L428.636 53.0445L415.277 102.296L408.225 102.916L386.551 56.7249L393.851 56.0839L410.996 95.5758Z" fill="black" stroke="#020202" stroke-width="1.03394"/>
<path d="M459.535 87.8222L440.177 87.1398L434.717 100.828L428.1 100.6L447.871 53.3547L455.192 53.6028L470.764 102.11L463.692 101.861L459.535 87.8222ZM442.576 81.4539L457.508 81.9914L451.18 60.55H450.849L442.576 81.4539Z" fill="black" stroke="#020202" stroke-width="1.03394"/>
<path d="M471.178 59.4335L471.86 53.9956L510.306 58.6892L509.645 64.2098L493.513 62.1421L488.364 104.239L482.16 103.495L487.33 61.3771L471.178 59.4335Z" fill="black" stroke="#020202" stroke-width="1.03394"/>
<path d="M552.517 93.2807C547.609 108.443 538.138 114.598 524.102 111.745C509.734 107.775 504.02 97.9604 506.957 82.3016C511.658 66.5737 521.309 60.1847 535.91 63.1346C549.793 67.0492 555.33 77.098 552.517 93.2807ZM546.168 91.7507C548.428 79.3449 544.548 71.5912 534.524 68.4898C523.895 66.4635 516.91 71.598 513.574 83.8937C510.969 96.1893 514.883 103.77 525.322 106.638C535.647 108.595 542.596 103.633 546.168 91.7507Z" fill="black" stroke="#020202" stroke-width="1.03394"/>
<path d="M561.947 100.249L554.626 119.581L548.422 117.265L565.484 72.4803L586.31 80.3787C596.045 84.2658 599.49 90.1518 596.65 98.0363C595.205 102.638 591.118 105.907 586.31 106.307C589.288 108.747 590.011 112.303 588.378 116.935L585.792 125.205C584.552 127.541 584.717 129.34 586.331 130.457L585.958 131.429L578.368 128.555C578.478 126.957 578.79 125.38 579.299 123.861C580.016 121.531 580.802 119.216 581.657 116.914C583.89 111.6 582.195 107.878 576.651 105.769L561.947 100.249ZM569.765 79.5723L563.912 94.9969L578.12 100.393C584.076 102.833 588.082 101.365 590.135 95.9893C591.832 91.027 590.1 87.4775 584.944 85.341L569.765 79.5723Z" fill="black" stroke="#020202" stroke-width="1.03394"/>
<path d="M613.774 124.275L604.861 141.498L599.07 138.479L608.025 121.277L605.088 87.6154L611.769 91.089L613.278 117.824L636.193 103.722L642.935 107.217L613.774 124.275Z" fill="black" stroke="#020202" stroke-width="1.03394"/>
<path d="M680.244 162.65C669.889 174.739 658.777 176.806 646.906 168.853C635.241 159.673 633.738 148.411 642.397 135.068C652.793 122.29 664.14 120.036 676.439 128.307C687.813 137.335 689.081 148.783 680.244 162.65ZM674.97 158.783C681.863 148.211 681.264 139.554 673.171 132.814C664.127 126.859 655.702 128.927 647.898 139.017C640.77 149.383 641.461 157.894 649.967 164.552C658.75 170.286 667.085 168.363 674.97 158.783Z" fill="black" stroke="#020202" stroke-width="1.03394"/>
<path d="M686.738 171.727L672.012 187.71L667.193 183.285L699.684 148.135L724.129 170.672L720.407 174.808L700.759 156.695L690.75 167.592L708.081 183.554L704.172 187.689L686.738 171.727Z" fill="black" stroke="#020202" stroke-width="1.03394"/>
<path d="M787.951 404.605L786.752 398.402L814.423 392.964L826.273 390.648L784.063 385.004L782.822 378.594L819.842 357.814V357.566L811.093 359.262C809.418 359.758 808.405 360.068 808.053 360.109L780.299 365.547L779.037 359.117L826.087 349.937L827.886 359.179L790.66 380.579L833.119 386.162L834.918 395.425L787.951 404.605Z" fill="black" stroke="#020202" stroke-width="1.03394"/>
<path d="M837.792 435.971L838.185 442.505L807.349 444.448C795.795 444.587 789.46 438.452 788.344 426.046C787.951 414.178 793.121 407.727 803.917 406.693L835.807 404.626L836.22 411.159L806.15 413.062C797.437 413.599 793.245 417.879 793.576 425.902C794.113 434.282 798.829 438.272 807.722 437.873L837.792 435.971Z" fill="black" stroke="#020202" stroke-width="1.03394"/>
<path d="M822.53 485.553L822.84 479.536C829.045 479.329 832.394 475.401 833.181 467.999C833.367 460.845 830.74 457.123 825.343 456.854C821.868 456.523 819.758 458.322 819.034 462.292L815.167 475.67C812.872 482.72 808.343 486.008 801.538 485.739C792.66 484.953 788.35 478.446 788.612 466.22C788.97 459.232 790.605 454.511 793.514 452.057C796.306 448.687 800.401 447.24 805.798 447.674L805.488 453.877C798.167 453.504 794.203 457.675 793.596 466.386C793.348 474.754 795.837 479.158 801.063 479.598C805.385 480.342 808.446 477.014 810.204 469.57L812.789 459.749C814.871 453.035 818.883 449.824 824.826 450.114C834.215 451.106 838.82 456.931 838.641 467.585C837.855 479.598 832.518 485.532 822.53 485.553Z" fill="black" stroke="#020202" stroke-width="1.03394"/>
<path d="M834.504 499.778L786.938 494.03L787.723 487.538L835.29 493.286L834.504 499.778Z" fill="black" stroke="#020202" stroke-width="1.03394"/>
<path d="M812.127 544.315L813.347 538.112C819.827 537.796 823.963 534.08 825.756 526.968C827.053 516.892 821.744 510.489 809.831 507.759C796.817 505.154 789.269 509.076 787.186 519.524C785.918 526.746 789.399 532.069 797.629 535.486L796.368 541.689C785.133 537.306 780.444 529.159 782.305 517.25C785.559 503.645 795.101 498.248 810.928 501.06C826.563 504.726 833.305 513.735 831.154 528.084C828.424 538.919 822.081 544.33 812.127 544.315Z" fill="black" stroke="#020202" stroke-width="1.03394"/>
<path fill-rule="evenodd" clip-rule="evenodd" d="M146.505 614.077C142.886 611.162 143.155 610.562 144.437 610.583C145.719 610.604 149.793 609.983 152.709 613.188C155.626 616.393 155.398 614.78 157.487 618.088C159.576 621.397 161.954 624.581 163.132 626.566C164.312 628.551 161.292 634.981 156.411 633.72C153.733 633.201 151.445 631.476 150.206 629.047C148.131 627.273 145.414 626.435 142.7 626.731C140.176 627.269 136.082 621.831 141.873 621.128C151.159 620.694 150.144 616.993 146.485 614.077H146.505Z" fill="#231815"/>
<path fill-rule="evenodd" clip-rule="evenodd" d="M161.954 648.11C161.954 648.11 160.982 649.93 159.886 651.46C159.273 652.823 158.343 654.02 157.176 654.954C155.419 656.298 152.751 656.898 157.321 657.373C161.892 657.849 162.781 661.261 166.131 662.129C168.974 662.729 171.827 661.153 172.832 658.428C173.556 656.36 176.969 652.659 182.159 656.774C187.35 660.888 181.663 664.259 180.091 665.148C178.519 666.037 175.955 664.941 174.445 665.272C172.936 665.603 175.727 666.885 179.905 670.255C184.082 673.625 186.378 676.665 183.173 679.766C179.967 682.867 176.452 682.888 169.792 683.426C163.132 683.963 157.094 677.967 156.163 675.858C155.233 673.749 151.365 670.358 153.04 674.163C154.716 677.967 155.832 679.125 154.363 680.366C152.895 681.606 148.035 682.764 145.947 683.508C143.858 684.253 142.142 683.819 139.267 685.349C136.392 686.879 139.267 689.484 140.714 690.745C142.162 692.006 143.051 693.929 145.016 694.88C146.981 695.832 150.332 691.82 152.73 690.27C155.129 688.719 156.618 689.587 156.556 694.612C156.494 699.636 153.226 702.655 152.523 706.025C151.82 709.395 152.523 708.093 148.594 715.474C144.664 722.856 138.254 712.91 138.254 709.271C138.323 706.153 136.753 703.225 134.117 701.559C132.497 700.649 131.02 699.508 129.733 698.168C127.954 696.224 126.01 691.572 124.377 688.76C122.742 685.948 126.01 681.896 128.326 679.911C130.643 677.926 134.345 674.866 128.823 676.189C123.301 677.512 118.875 671.144 122.101 667.236C125.328 663.328 134.179 665.417 138.15 667.05C142.121 668.683 151.303 667.856 152.792 665.603C154.281 663.349 150.394 661.467 146.009 663.742C141.625 666.016 139.804 664.093 138.233 658.862C136.909 654.293 142.369 650.778 147.084 649.31C146.257 649.496 145.285 649.641 144.147 649.806C135.875 650.964 134.407 648.876 123.342 653.941C112.278 659.007 112.361 659.214 109.879 658.469C107.397 657.725 101.606 659.193 98.9385 660.888C96.2706 662.584 92.548 656.753 95.0918 652.494C97.6356 648.235 97.408 649.413 93.6028 643.5C89.7974 637.586 92.8789 636.097 97.4701 635.022C102.061 633.947 103.675 635.643 106.569 635.994C109.465 636.346 111.348 634.175 114.842 632.769C118.229 631.613 121.683 630.662 125.183 629.915C126.431 629.001 127.557 627.93 128.534 626.731C130.312 624.663 131.077 621.645 134.076 624.291C136.04 626.136 138.181 627.784 140.466 629.212C144.602 632.024 146.671 633.348 146.836 637.09C147.002 640.832 143.113 645.03 139.267 643.293C135.42 641.556 135.358 641.494 133.662 638.868C131.966 636.242 128.181 634.733 122.536 636.118C116.89 637.504 110.954 638.744 112.443 640.254C113.932 641.763 119.619 640.254 123.941 642.838C127.087 644.98 130.892 645.933 134.676 645.526C138.109 645.092 147.395 643.955 149.566 645.526C151.159 646.663 151.903 647.78 149.007 648.751C152.303 648.235 155.453 647.031 158.252 645.216C162.222 643.148 161.954 648.069 161.954 648.069V648.11ZM166.648 666.719C166.648 666.719 164.911 666.616 165.118 667.608C166.058 670.222 167.459 672.643 169.254 674.762C170.683 676.237 172.761 676.89 174.776 676.499C176.845 675.858 178.354 675.197 176.7 672.364C175.771 670.635 174.324 669.24 172.564 668.373L169.234 667.712L166.648 666.719Z" fill="#231815"/>
<path fill-rule="evenodd" clip-rule="evenodd" d="M228.381 723.021C229.792 719.5 232.379 716.578 235.703 714.75C241.494 711.38 250.904 713.469 255.35 714.75C259.168 716.014 262.385 718.644 264.388 722.132C265.318 724.2 263.146 726.701 260.706 729.948C256.816 734.358 252.554 738.425 247.967 742.105C242.176 747.192 243.975 746.385 246.519 746.447C249.063 746.509 253.095 747.088 252.723 749.073C252.351 751.058 247.367 753.891 243.768 755.028C239.746 756.047 235.864 757.555 232.207 759.515C230.177 761.061 228.026 762.445 225.776 763.65C222.891 764.738 220.54 766.9 219.22 769.688C218.144 772.624 212.044 776.552 209.252 779.716C206.459 782.879 206.087 780.832 202.779 777.028C199.47 773.223 201.186 765.614 201.186 765.614C201.186 765.614 206.273 757.943 208.052 755.276C209.83 752.609 220.461 740.803 223.004 739.872C225.549 738.942 226.376 734.6 230.781 735.261C235.186 735.923 238.33 740.431 239.343 740.244C240.356 740.058 242.156 737.308 243.934 736.109C247.847 732.747 251.321 728.906 254.274 724.675C255.826 721.698 253.943 722.835 251.545 721.16C249.145 719.485 242.776 720.312 240.046 720.705C237.316 721.098 234.814 725.399 233.718 726.619C232.621 727.839 228.361 723.145 228.361 723.145L228.381 723.021ZM231.959 749.259C231.959 749.259 230.533 750.603 231.277 751.327C232.021 752.051 233.346 752.588 233.552 750.955C233.759 749.321 231.959 749.259 231.959 749.259Z" fill="#040000"/>
<path fill-rule="evenodd" clip-rule="evenodd" d="M257.935 755.814C265.587 753.506 273.541 752.363 281.532 752.423C293.031 752.857 292.638 764.022 291.438 768.964C290.239 773.906 280.477 777.937 273.984 780.832C268.048 783.834 263.341 788.805 260.665 794.892C258.596 799.606 256.777 802.935 252.641 804.899C248.504 806.864 246.147 801.984 246.437 795.057C246.726 788.131 239.901 786.022 235.765 783.748C231.628 781.473 233.304 781.142 233.449 777.545C233.594 773.947 239.467 762.472 242.486 759.287C245.505 756.103 250.759 753.271 253.695 750.541C256.632 747.812 258.059 748.577 258.493 750.024C258.584 751.974 258.381 753.924 257.893 755.814H257.935ZM257.935 778.123C258.861 779.296 259.082 780.878 258.514 782.259C257.583 784.037 259.548 784.492 261.223 781.39C262.898 778.289 257.356 777.255 257.935 778.041V778.123ZM282.422 763.071C281.636 761.334 279.836 757.675 272.97 761.996C266.104 766.317 268.689 763.65 269.847 765.532C271.005 767.413 273.673 771.962 273.384 772.996C273.094 774.03 283.187 764.725 282.422 763.071ZM248.649 773.409C248.649 773.409 247.533 774.174 248.649 775.973C249.766 777.772 251.276 777.669 250.862 776.18C250.422 775.094 249.71 774.141 248.794 773.409H248.649Z" fill="#040000"/>
</svg>
