<svg xmlns="http://www.w3.org/2000/svg" xmlns:xlink="http://www.w3.org/1999/xlink" width="111.73570251464844" height="111.73490142822266" viewBox="0 0 111.73570251464844 111.73490142822266" fill="none">
<g  clip-path="url(#clip-path-srEph2Q4KmrzgJY2UDefH)">
<path d="M99.7489 85.4521C97.8559 88.255 95.6809 90.8901 93.2859 93.2859C90.8898 95.6809 88.255 97.8559 85.4518 99.7489C82.6228 101.66 79.5988 103.301 76.464 104.627C69.9429 107.386 63.0127 108.785 55.8677 108.785C48.7227 108.785 41.7928 107.386 35.2709 104.627C32.1358 103.301 29.1118 101.66 26.2839 99.7489C23.4808 97.8559 20.8448 95.6809 18.4498 93.2859C16.0548 90.8901 13.8798 88.255 11.9868 85.4521C10.0749 82.6231 8.43391 79.5991 7.10781 76.464C4.34971 69.9429 2.95081 63.013 2.95081 55.868C2.95081 48.723 4.34971 41.7929 7.10781 35.2709C8.43391 32.1361 10.0749 29.1121 11.9868 26.284C13.8798 23.4811 16.0548 20.8451 18.4498 18.4501C20.8448 16.0551 23.4808 13.8801 26.2839 11.9871C29.1118 10.0749 32.1358 8.4339 35.2709 7.1079C41.7928 4.35 48.7227 2.9511 55.8677 2.9511C63.0127 2.9511 69.9429 4.35 76.464 7.1079C79.5988 8.4339 82.6228 10.0749 85.4518 11.9871C88.255 13.8801 90.8898 16.0551 93.2859 18.4501C95.6809 20.8451 97.8559 23.4811 99.7489 26.284C101.66 29.1121 103.301 32.1361 104.627 35.2709C107.386 41.7929 108.785 48.723 108.785 55.868C108.785 63.013 107.386 69.9429 104.627 76.464C103.301 79.5991 101.66 82.6231 99.7489 85.4521ZM55.8677 0C25.0129 0 0 25.0129 0 55.868C0 86.7231 25.0129 111.735 55.8677 111.735C86.7225 111.735 111.736 86.7231 111.736 55.868C111.736 25.0129 86.7228 0 55.8677 0Z" fill-rule="evenodd"  fill="#BE2C21" >
</path>
<path d="M8.98981 50.2356L12.4906 54.1545L13.4776 54.2477L13.9376 49.4067L13.0546 49.3225L12.7148 52.9095L9.21651 48.9586L8.22951 48.8645L7.76971 53.7066L8.65271 53.7897L8.98981 50.2356Z" fill-rule="evenodd"  fill="#BE2C21" >
</path>
<path d="M13.5839 58.6094L11.2099 58.6865L11.122 55.9715L13.496 55.8944L13.4608 54.8056L7.73001 54.9915L7.76491 56.0806L10.2359 56.0004L10.324 58.7154L7.85311 58.7954L7.88991 59.9176L13.6199 59.7314L13.5839 58.6094Z" fill-rule="evenodd"  fill="#BE2C21" >
</path>
<path d="M9.32571 63.7622C9.27071 63.4192 9.27271 63.142 9.32881 62.93C9.38581 62.7171 9.51471 62.5351 9.71571 62.382C9.99071 62.1462 10.2909 62.013 10.6157 61.984L11.1367 65.2612L12.0126 65.1212L11.4928 61.8531C11.7898 61.8222 12.0478 61.831 12.2666 61.882C12.4869 61.9322 12.6776 62.0232 12.8418 62.157C12.9359 62.2621 13.0147 62.386 13.0776 62.5272C13.1417 62.6672 13.1967 62.8832 13.2429 63.172L13.5147 64.8822L14.3898 64.743L14.1278 63.0972C14.0227 62.4331 13.8379 61.9271 13.5737 61.579C13.3098 61.2312 12.9248 60.9712 12.4197 60.7992C11.9707 60.6671 11.4088 60.6552 10.7348 60.7632C10.2367 60.842 9.82171 60.976 9.48871 61.1671C8.88571 61.5152 8.52571 61.9761 8.40781 62.549C8.34181 62.856 8.34691 63.2531 8.42481 63.741L8.72781 65.6441L9.60261 65.505L9.32571 63.7622Z" fill-rule="evenodd"  fill="#BE2C21" >
</path>
<path d="M12.1702 69.3623L15.3972 68.4904L15.1041 67.4073L11.8771 68.2792C11.4851 68.3852 11.1991 68.4462 11.0222 68.4632C10.8442 68.4802 10.7002 68.4643 10.5922 68.4153C10.5012 68.3504 10.413 68.2393 10.3291 68.0822C10.2441 67.9252 10.1551 67.6743 10.0621 67.3282L9.75511 66.1904L8.89911 66.4214L9.20601 67.5604C9.33421 68.0312 9.45211 68.3824 9.56321 68.6134C9.67321 68.8453 9.83111 69.0392 10.036 69.1974C10.3181 69.4522 10.629 69.5823 10.9672 69.5863C11.2192 69.5854 11.62 69.5103 12.1702 69.3623Z" fill-rule="evenodd"  fill="#BE2C21" >
</path>
<rect x="10.30224609375" y="71.27595520019531" width="5.733999861943128" height="1.0893999737706241" transform="rotate(-19.351700512682665 10.30224609375 71.27595520019531)"   fill="#BE2C21" >
</rect>
<path d="M14.6814 75.7939L13.9436 74.1909L16.4225 74.0338L14.6814 75.7939ZM17.1286 73.0199L10.9236 73.2529L11.4137 74.317L12.9886 74.2368L14.0255 76.4898L12.9415 77.6338L13.4274 78.69L17.6836 74.2238L17.1286 73.0199Z" fill-rule="evenodd"  fill="#BE2C21" >
</path>
<path d="M20.8871 79.7882L17.3559 82.0412L19.4561 77.5463L18.8042 76.5252L13.9711 79.6093L14.54 80.5002L18.0501 78.2603L15.9879 82.7702L16.6399 83.7913L21.473 80.7072L20.8871 79.7882Z" fill-rule="evenodd"  fill="#BE2C21" >
</path>
<path d="M20.7051 84.924L21.8163 86.2421L20.603 87.264L19.9803 86.5241C19.6971 86.188 19.521 85.9201 19.4541 85.718C19.3872 85.5161 19.3921 85.2891 19.4723 85.0382C19.5202 84.8341 19.614 84.6451 19.754 84.471C19.8941 84.2961 20.1033 84.0912 20.3811 83.857C21.0563 83.2881 21.649 83.0832 22.1592 83.2422C22.2942 83.2841 22.4141 83.351 22.5201 83.4432C22.6253 83.5342 22.7883 83.711 23.0082 83.9721L24.3343 85.5462L25.012 84.9742L23.644 83.351C23.3611 83.0151 23.1111 82.762 22.8931 82.5911C22.674 82.421 22.4402 82.292 22.1901 82.205C21.4041 81.9462 20.5361 82.216 19.5871 83.016C18.911 83.586 18.5111 84.1422 18.388 84.6862C18.3191 85.134 18.3563 85.549 18.5011 85.9311C18.6222 86.218 18.8682 86.5811 19.2393 87.0211L20.6283 88.6691L23.1962 86.5052L21.3831 84.3531L20.7051 84.924Z" fill-rule="evenodd"  fill="#BE2C21" >
</path>
<path d="M29.7436 90.4L30.3157 89.723L28.8935 88.5212C28.4006 88.1042 27.9595 87.8431 27.5694 87.7371C27.1794 87.6311 26.7585 87.671 26.3046 87.855C25.7726 88.0721 25.2927 88.4341 24.8655 88.939C24.5086 89.3611 24.2657 89.805 24.1344 90.2701C23.9485 90.9431 24.0315 91.5352 24.3816 92.044C24.5656 92.3131 24.8445 92.6062 25.2164 92.9211L26.6145 94.102L27.1865 93.4251L25.8636 92.306C25.5775 92.065 25.3817 91.8601 25.2757 91.692C25.1685 91.5242 25.1135 91.3501 25.1107 91.169C25.1016 90.6931 25.3136 90.1981 25.7476 89.6851C25.9684 89.424 26.2014 89.204 26.4486 89.026C26.6955 88.8471 26.9285 88.7411 27.1485 88.7071C27.3415 88.664 27.5204 88.681 27.6865 88.757C27.8526 88.8341 28.0726 88.988 28.3456 89.219L29.7436 90.4Z" fill-rule="evenodd"  fill="#BE2C21" >
</path>
<path d="M32.6398 94.7662C32.3387 95.2302 32.057 95.5511 31.7928 95.7291C31.3137 96.0191 30.7757 95.9723 30.1799 95.5851C29.6529 95.2432 29.3828 94.8421 29.3709 94.3821C29.376 93.9852 29.5628 93.5022 29.9318 92.9333C30.2317 92.4692 30.5308 92.1433 30.8279 91.9542C31.3069 91.6631 31.8449 91.7113 32.4408 92.0982C32.957 92.4582 33.2169 92.8791 33.2217 93.3602C33.2169 93.7063 33.0227 94.1751 32.6398 94.7662ZM34.3037 93.4702C34.2989 92.6793 33.842 91.9882 32.9317 91.3992C32.4997 91.1191 32.0998 90.9411 31.7307 90.8671C31.3619 90.7931 30.9937 90.8113 30.6249 90.9212C30.331 90.9961 30.0347 91.1622 29.7348 91.4201C29.4349 91.6781 29.1719 91.9823 28.9448 92.3323C28.73 92.6651 28.5587 93.0212 28.4317 93.4013C28.3048 93.7803 28.2628 94.1071 28.3059 94.3801C28.3768 95.0981 28.8289 95.7271 29.6608 96.2663C30.3797 96.7323 31.0807 96.9182 31.7619 96.8233C32.4507 96.7082 33.0718 96.2223 33.6268 95.3671C34.0837 94.6621 34.3088 94.0292 34.3037 93.4702Z" fill-rule="evenodd"  fill="#BE2C21" >
</path>
<path d="M39.2162 94.845L37.442 98.6391L36.807 93.719L35.7091 93.206L33.281 98.3999L34.2391 98.8469L36.002 95.0751L36.6772 99.9879L37.775 100.501L40.2032 95.307L39.2162 94.845Z" fill-rule="evenodd"  fill="#BE2C21" >
</path>
<path d="M41.8011 96.9423C41.917 96.9162 42.0298 96.9092 42.1398 96.9211C42.2501 96.9332 42.4238 96.9772 42.662 97.0523L44.9339 97.7692L45.2009 96.9242L42.929 96.2062C42.417 96.0452 42.0009 95.9751 41.682 95.9961C41.362 96.0171 41.0728 96.1322 40.814 96.3402C40.5289 96.5582 40.3319 96.8391 40.223 97.1861C40.0518 97.7292 40.134 98.1981 40.4691 98.5941C40.682 98.8551 41.11 99.0862 41.7509 99.2891L42.1849 99.4263C42.588 99.5533 42.84 99.6551 42.9409 99.7333C43.177 99.9042 43.2348 100.178 43.1161 100.556C43.0259 100.84 42.8641 101.013 42.6279 101.075C42.4598 101.102 42.209 101.062 41.8731 100.956L39.507 100.209L39.24 101.054L41.5131 101.772C41.8901 101.891 42.1869 101.968 42.404 102.002C42.62 102.036 42.8198 102.034 43.003 101.995C43.613 101.898 44.022 101.524 44.227 100.872C44.316 100.593 44.348 100.319 44.325 100.05C44.3021 99.7812 44.2131 99.5491 44.0589 99.3523C43.946 99.1692 43.7819 99.0193 43.5659 98.9022C43.3499 98.7863 43.0089 98.6542 42.544 98.5073L42.2331 98.4092C41.8459 98.2871 41.5839 98.1502 41.4499 98.0002C41.3149 97.8491 41.2829 97.6632 41.354 97.4401C41.4431 97.1563 41.593 96.9902 41.8011 96.9423Z" fill-rule="evenodd"  fill="#BE2C21" >
</path>
<path d="M46.9026 97.598C46.4865 97.7298 46.1114 98.0039 45.7795 98.422C45.5045 98.7999 45.3044 99.326 45.1786 99.9969C45.0856 100.493 45.0725 100.929 45.1394 101.305C45.2644 101.991 45.5777 102.485 46.0774 102.789C46.3444 102.955 46.7206 103.083 47.2056 103.174L49.0994 103.529L49.2636 102.658L47.5285 102.333C47.1875 102.269 46.9267 102.174 46.7467 102.049C46.5655 101.925 46.4366 101.742 46.3606 101.501C46.2316 101.163 46.2075 100.835 46.2886 100.52L49.5496 101.131L49.7134 100.26L46.4595 99.65C46.5307 99.36 46.6265 99.1199 46.7475 98.93C46.8686 98.7409 47.0197 98.5909 47.2005 98.481C47.3315 98.4288 47.4746 98.3959 47.6285 98.384C47.7825 98.371 48.0036 98.392 48.2904 98.4458L49.9935 98.765L50.1565 97.8939L48.5186 97.5869C47.8576 97.4628 47.3184 97.4659 46.9026 97.598Z" fill-rule="evenodd"  fill="#BE2C21" >
</path>
<path d="M54.4493 99.8994C54.4311 100.197 54.3191 100.418 54.1153 100.563C53.9793 100.647 53.6972 100.675 53.2703 100.649L51.7841 100.557L51.8853 98.9422L53.3701 99.0343C53.8032 99.0604 54.0742 99.1154 54.1834 99.1984C54.3812 99.3243 54.4702 99.5584 54.4493 99.8994ZM55.0372 98.5663C54.7472 98.3372 54.2202 98.1983 53.4571 98.1513L50.8524 97.9903L50.4972 103.712L51.5851 103.78L51.7323 101.409L52.5033 101.457C53.1473 101.497 53.5884 101.63 53.8273 101.857C54.0652 102.083 54.1862 102.482 54.1893 103.053C54.2092 103.418 54.2182 103.63 54.2143 103.69C54.2111 103.749 54.2432 103.836 54.3123 103.948L55.4652 104.02C55.3563 103.85 55.2982 103.731 55.2923 103.663C55.2852 103.594 55.2812 103.397 55.2792 103.071C55.2911 102.54 55.2294 102.149 55.0953 101.899C54.9612 101.649 54.7682 101.456 54.5162 101.321C54.6763 101.282 54.8523 101.198 55.0451 101.068C55.3872 100.813 55.5743 100.425 55.6064 99.9054C55.6211 99.6573 55.5791 99.4082 55.4814 99.1604C55.3821 98.9124 55.2342 98.7143 55.0372 98.5663Z" fill-rule="evenodd"  fill="#BE2C21" >
</path>
<path d="M59.2361 102.629L57.1141 98.2375L55.849 98.3276L58.6973 103.874L59.9221 103.787L61.9171 97.8965L60.7572 97.9795L59.2361 102.629Z" fill-rule="evenodd"  fill="#BE2C21" >
</path>
<path d="M64.4808 100.8L64.8796 98.348L66.2077 100.437L64.4808 100.8ZM64.0477 97.4338L62.8948 103.535L64.0408 103.294L64.3127 101.741L66.7408 101.231L67.6148 102.543L68.7529 102.304L65.3448 97.1609L64.0477 97.4338Z" fill-rule="evenodd"  fill="#BE2C21" >
</path>
<path d="M71.9617 95.1301L67.3018 96.7351L67.591 97.573L69.4048 96.948L70.9829 101.531L72.0139 101.176L70.4358 96.5931L72.2508 95.968L71.9617 95.1301Z" fill-rule="evenodd"  fill="#BE2C21" >
</path>
<path d="M76.714 98.3324C76.1499 98.6105 75.6669 98.6363 75.266 98.4104C74.9279 98.2023 74.609 97.7933 74.3099 97.1855C74.0659 96.6895 73.9389 96.2654 73.9289 95.9133C73.9258 95.3535 74.2419 94.9164 74.88 94.6035C75.454 94.3455 75.9481 94.3373 76.3639 94.5805C76.6579 94.7613 76.9609 95.1684 77.2718 95.8014C77.517 96.2974 77.6469 96.7045 77.665 97.0223C77.6678 97.5824 77.3509 98.0183 76.714 98.3324ZM77.013 93.7074C76.3319 93.3055 75.505 93.3443 74.5319 93.8225C74.0698 94.0493 73.7118 94.3024 73.4598 94.5813C73.207 94.8594 73.0329 95.1854 72.938 95.5584C72.8521 95.8484 72.8419 96.1883 72.9099 96.5783C72.9779 96.9673 73.1041 97.3494 73.288 97.7244C73.4629 98.0793 73.6809 98.4095 73.942 98.7123C74.2031 99.0164 74.4619 99.2194 74.7178 99.3234C75.3709 99.6304 76.142 99.5655 77.0329 99.1273C77.8011 98.7494 78.3198 98.2434 78.588 97.6104C78.842 96.9593 78.7439 96.1764 78.294 95.2625C77.9238 94.5085 77.4969 93.9895 77.013 93.7074Z" fill-rule="evenodd"  fill="#BE2C21" >
</path>
<path d="M81.6621 92.4148C81.6052 92.5636 81.3994 92.7578 81.0442 92.9968L79.8091 93.8276L78.9063 92.4837L80.1414 91.6537C80.5014 91.4116 80.7491 91.2906 80.8863 91.2897C81.1213 91.2696 81.3333 91.4006 81.5244 91.6846C81.6902 91.9318 81.7361 92.1756 81.6621 92.4148ZM84.1121 93.6978C83.7983 93.2686 83.5112 92.9956 83.2532 92.8786C82.9953 92.7618 82.7243 92.7266 82.4422 92.7728C82.5451 92.6447 82.6341 92.4707 82.7081 92.2507C82.8243 91.8397 82.7362 91.4176 82.4462 90.9856C82.3073 90.7787 82.1233 90.6077 81.8932 90.4708C81.6641 90.3336 81.4263 90.2667 81.1803 90.2687C80.8103 90.2628 80.3083 90.4737 79.6734 90.8997L77.5071 92.3567L80.7063 97.1147L81.6111 96.5066L80.2854 94.5357L80.9271 94.1048C81.4623 93.7448 81.8932 93.5827 82.2211 93.6167C82.5483 93.6516 82.8861 93.8948 83.2354 94.3458C83.4743 94.6236 83.6101 94.7866 83.6433 94.8367C83.6762 94.8858 83.7552 94.9348 83.8783 94.9816L84.8372 94.3376C84.6473 94.2687 84.5291 94.2097 84.4823 94.1598C84.4353 94.1097 84.3123 93.9557 84.1121 93.6978Z" fill-rule="evenodd"  fill="#BE2C21" >
</path>
<path d="M85.9467 85.8126L84.9818 86.6616L85.5048 89.5705L82.6367 88.7235L81.6777 89.5677L85.6496 90.6347L87.1747 92.3686L87.9936 91.6486L86.4677 89.9147L85.9467 85.8126Z" fill-rule="evenodd"  fill="#BE2C21" >
</path>
<path d="M92.9503 85.225C92.5594 85.718 92.1345 85.9481 91.6752 85.9161C91.2804 85.873 90.8183 85.6412 90.2863 85.2202C89.8534 84.8772 89.5575 84.5481 89.3973 84.2352C89.1533 83.73 89.2525 83.2 89.6933 82.6432C90.1014 82.1642 90.5454 81.9451 91.0244 81.9862C91.3683 82.023 91.8164 82.2611 92.3683 82.6991C92.8023 83.0421 93.0954 83.3542 93.2473 83.6331C93.4903 84.1382 93.3913 84.668 92.9503 85.225ZM93.0603 81.773C92.4023 81.2511 91.7943 80.9671 91.2364 80.9192C90.4493 80.848 89.7182 81.2381 89.0444 82.0871C88.7244 82.491 88.5104 82.8731 88.4012 83.2331C88.2924 83.5931 88.2754 83.9611 88.3494 84.3381C88.3964 84.638 88.5333 84.9492 88.7612 85.2721C88.9903 85.5952 89.2672 85.8861 89.5943 86.146C89.9053 86.3912 90.2435 86.5961 90.6094 86.758C90.9754 86.9201 91.2963 86.993 91.5723 86.976C92.2935 86.974 92.9625 86.584 93.5793 85.8061C94.1113 85.1352 94.3622 84.456 94.3333 83.768C94.2834 83.0721 93.8593 82.4071 93.0603 81.773Z" fill-rule="evenodd"  fill="#BE2C21" >
</path>
<path d="M96.148 77.4779L95.3889 77.019L93.706 79.8029L93.5042 79.681C93.2351 79.5189 93.0469 79.3511 92.9389 79.1779C92.8309 79.005 92.785 78.8119 92.8 78.599C92.8139 78.4179 92.9282 78.1509 93.141 77.798L94.0881 76.2321L93.329 75.774L92.4159 77.284C92.071 77.8549 91.868 78.3351 91.8059 78.726C91.7441 79.1161 91.8331 79.4911 92.071 79.8511C92.1611 80.0059 92.2731 80.1459 92.408 80.2681C92.5429 80.3911 92.7521 80.5379 93.035 80.7089L95.972 82.4851L96.5531 81.5241L94.4651 80.2621L96.148 77.4779Z" fill-rule="evenodd"  fill="#BE2C21" >
</path>
<path d="M96.1976 68.9425L99.6967 71.9586L95.0357 72.0935L94.5207 73.4907L99.8997 75.4747L100.266 74.4826L96.2977 73.0185L100.823 72.9717L101.181 72.0025L97.7598 69.1027L101.713 70.5606L102.09 69.5375L96.7099 67.5536L96.1976 68.9425Z" fill-rule="evenodd"  fill="#BE2C21" >
</path>
<path d="M102.153 62.911C101.948 62.803 101.599 62.6981 101.105 62.598L97.861 61.9359L97.6371 63.036L100.88 63.697C101.236 63.7699 101.488 63.8311 101.636 63.8799C101.783 63.93 101.891 63.9921 101.959 64.0669C102.244 64.3521 102.328 64.781 102.211 65.355C102.106 65.8701 101.894 66.217 101.575 66.395C101.443 66.4461 101.293 66.471 101.124 66.4699C100.956 66.4679 100.725 66.4381 100.433 66.378L97.094 65.6969L96.87 66.797L100.209 67.4779C100.639 67.566 100.983 67.589 101.241 67.547C101.756 67.5139 102.172 67.3089 102.487 66.9299C102.731 66.6309 102.909 66.206 103.021 65.6529C103.146 65.0421 103.162 64.5171 103.069 64.0769C102.924 63.5111 102.619 63.1219 102.153 62.911Z" fill-rule="evenodd"  fill="#BE2C21" >
</path>
<path d="M103.706 57.7576C103.47 57.1856 103.012 56.8755 102.33 56.8256C102.038 56.8046 101.764 56.8366 101.508 56.9205C101.252 57.0056 101.046 57.1456 100.89 57.3406C100.739 57.4926 100.631 57.6876 100.567 57.9246C100.504 58.1624 100.454 58.5244 100.418 59.0105L100.396 59.3354C100.365 59.7404 100.293 60.0264 100.178 60.1914C100.062 60.3575 99.8883 60.4315 99.6565 60.4145C99.3583 60.3935 99.1624 60.2864 99.0674 60.0945C99.0164 59.9876 98.9832 59.8796 98.9694 59.7696C98.9555 59.6594 98.9574 59.4805 98.9753 59.2316L99.1482 56.8556L98.2644 56.7904L98.0915 59.1675C98.0523 59.7036 98.0804 60.1234 98.1754 60.4295C98.2695 60.7354 98.4483 60.9905 98.7103 61.1946C98.9872 61.4205 99.3072 61.5475 99.6692 61.5736C100.237 61.6155 100.675 61.4265 100.982 61.0084C101.188 60.7416 101.313 60.2714 101.362 59.6015L101.395 59.1466C101.426 58.7256 101.467 58.4566 101.519 58.3404C101.631 58.0714 101.884 57.9515 102.279 57.9795C102.577 58.0014 102.783 58.1196 102.899 58.3344C102.962 58.4915 102.982 58.7455 102.956 59.0975L102.776 61.5716L103.66 61.6354L103.833 59.2594C103.862 58.8645 103.869 58.5575 103.852 58.3384C103.835 58.1204 103.786 57.9265 103.706 57.7576Z" fill-rule="evenodd"  fill="#BE2C21" >
</path>
<rect x="98.20513916015625" y="54.761016845703125" width="5.733799918724107" height="1.090099984547969" transform="rotate(-0.9566999740394383 98.20513916015625 54.761016845703125)"   fill="#BE2C21" >
</rect>
<path d="M98.6757 49.3262L97.7935 49.4121L97.9735 51.2651C98.0356 51.908 98.1697 52.4032 98.3746 52.7502C98.5807 53.098 98.9095 53.3642 99.3637 53.549C99.8966 53.7641 100.492 53.8401 101.151 53.776C101.7 53.723 102.185 53.5751 102.602 53.333C103.206 52.9801 103.56 52.499 103.663 51.8902C103.72 51.5681 103.725 51.1651 103.677 50.6792L103.5 48.8582L102.617 48.943L102.786 50.6681C102.822 51.04 102.818 51.3232 102.778 51.518C102.737 51.713 102.655 51.876 102.532 52.0081C102.206 52.355 101.708 52.562 101.039 52.6272C100.699 52.66 100.379 52.6541 100.077 52.6102C99.7755 52.5651 99.5346 52.4781 99.3526 52.3491C99.1856 52.2451 99.0686 52.1081 99.0025 51.9381C98.9376 51.7671 98.8866 51.5041 98.8526 51.1472L98.6757 49.3262Z" fill-rule="evenodd"  fill="#BE2C21" >
</path>
<path d="M36.6097 25.8463C36.6298 25.8953 36.6488 25.9444 36.6687 25.9934C36.6698 25.9855 36.6619 25.9843 36.6536 25.9863C36.6777 26.0294 36.6916 26.0804 36.7106 26.1263C37.2228 27.3444 37.6086 28.6033 37.9108 29.8893C38.2016 31.1295 38.4037 32.3844 38.5268 33.6503C38.6728 35.1643 38.7207 36.6823 38.6608 38.2034C38.5968 39.8055 38.4397 41.3994 38.1807 42.9814C37.9496 44.3874 37.6877 45.7875 37.3819 47.1793C37.1148 48.3973 36.8498 49.6173 36.6057 50.8405C36.3968 51.8924 36.2469 52.9543 36.2766 54.0323C36.2809 54.1624 36.2857 54.2914 36.2928 54.4204C36.2936 54.4413 36.3098 54.4615 36.3197 54.4824C36.4036 54.5085 36.4158 54.4314 36.4408 54.3875C36.8288 53.7264 37.1627 53.0373 37.4496 52.3273C37.8198 51.4114 38.1588 50.4833 38.4718 49.5445C38.8247 48.4843 39.2298 47.4415 39.6139 46.3915C40.0827 45.1094 40.5416 43.8233 40.8866 42.5015C41.1726 41.4065 41.3977 40.2993 41.5417 39.1785C41.6426 38.3845 41.6917 37.5843 41.7098 36.7835C41.7379 35.5694 41.7268 34.3565 41.6837 33.1444C41.6548 32.3203 41.6097 31.4963 41.5448 30.6754C41.4808 29.8774 41.3736 29.0835 41.3027 28.2863C41.2378 27.5474 41.1959 26.8064 41.1429 26.0674C41.1318 25.9143 41.1338 25.7593 41.1037 25.6104C41.0238 25.2065 40.8308 25.0475 40.4209 25.0404C40.2448 25.0364 40.0657 25.0393 39.8928 25.0673C39.2278 25.1745 38.5568 25.1994 37.8867 25.2383C37.8416 25.2414 37.7957 25.2343 37.7538 25.2315L37.7538 25.2283C37.7059 25.2334 37.6588 25.2334 37.6117 25.2275C39.0126 24.3924 40.4716 23.6503 41.9879 23.0094C46.3827 21.1504 51.0528 20.2073 55.8677 20.2073C60.6826 20.2073 65.3527 21.1504 69.7478 23.0094C73.9939 24.8054 77.8079 27.3764 81.0827 30.6524C84.3587 33.9273 86.9306 37.7413 88.7258 41.9873C90.5856 46.3833 91.5278 51.0534 91.5278 55.8675C91.5278 60.6816 90.5856 65.3525 88.7258 69.7473C86.9306 73.9944 84.3587 77.8073 81.0827 81.0833C79.5889 82.5783 77.9808 83.9245 76.2726 85.1184C76.2967 85.0884 76.3217 85.0595 76.3458 85.0294C76.6117 84.6995 76.8897 84.3783 77.1698 84.0603C77.5017 83.6833 77.7656 83.2694 77.8926 82.7804C78.0318 82.2424 77.9927 81.7075 77.8566 81.1743C77.7157 80.6244 77.4907 80.1054 77.2849 79.5804C76.0989 76.5553 74.8278 73.5664 73.5517 70.5784C72.3758 67.8254 71.3877 65.0083 70.6527 62.1034C70.2808 60.6314 69.9757 59.1443 69.7507 57.6414C69.6098 56.6983 69.4958 55.7515 69.4338 54.7994C69.3737 53.8713 69.3207 52.9424 69.3669 52.0103C69.4219 50.8813 69.5109 49.7554 69.7668 48.6493C69.8967 48.0915 70.1407 47.5843 70.4809 47.1254C70.6938 46.8374 70.9707 46.6143 71.2856 46.4485C72.1678 45.9833 73.0907 45.6395 74.0848 45.5173C74.7048 45.4413 75.3259 45.3835 75.9447 45.3073C76.2599 45.2684 76.5728 45.2103 76.8858 45.1573C77.0128 45.1355 77.1128 45.0714 77.1777 44.9674C77.1896 44.9495 77.1998 44.9303 77.2086 44.9104C77.2528 44.8135 77.2968 44.7165 77.3277 44.6165C77.5267 43.9835 77.6457 43.3383 77.6137 42.6705C77.6038 42.4584 77.6109 42.2464 77.6089 42.0344C77.6089 41.9635 77.6137 41.8915 77.6026 41.8223C77.5706 41.6205 77.4717 41.4794 77.2577 41.4255C77.0238 41.3654 76.7917 41.3725 76.5567 41.4023C75.9928 41.4734 75.4509 41.6333 74.9157 41.8175C74.4599 41.9754 74.0197 42.1724 73.5769 42.3655C72.5958 42.7943 71.6068 43.2074 70.6237 43.6323C70.0256 43.8905 69.4777 44.2335 68.9836 44.6604C68.4246 45.1423 68.0456 45.7384 67.8197 46.4403C67.6567 46.9485 67.5586 47.4664 67.5416 47.9993C67.5158 48.7763 67.4608 49.5513 67.4736 50.3294C67.4827 50.8833 67.5238 51.4355 67.5728 51.9863C67.6247 52.5725 67.6817 53.1584 67.7426 53.7443C67.7968 54.2713 67.8568 54.7985 67.9167 55.3243C67.9977 56.0265 68.0788 56.7283 68.1638 57.4293C68.2466 58.1184 68.3348 58.8073 68.4226 59.4964C68.4986 60.0925 68.5757 60.6875 68.6548 61.2825C68.7568 62.0535 68.8586 62.8234 68.9666 63.5924C69.0698 64.3275 69.1786 65.0613 69.2906 65.7944C69.4607 66.9115 69.6268 68.0295 69.8116 69.1444C70.0066 70.3165 70.2139 71.4875 70.4318 72.6565C70.7836 74.5424 71.1748 76.4203 71.7006 78.2674C71.8656 78.8445 72.0558 79.4143 72.2157 79.9923C72.4717 80.9124 72.6267 81.8535 72.7616 82.7983C72.9088 83.8244 73.0128 84.8554 73.1148 85.8863C73.1406 86.1503 73.2407 86.5114 73.4448 86.6985C73.4978 86.7464 73.5848 86.7654 73.6727 86.7733C72.4107 87.5015 71.1017 88.1535 69.7478 88.7264C65.3527 90.5853 60.6826 91.5284 55.8677 91.5284C51.0528 91.5284 46.3827 90.5853 41.9879 88.7264C40.6377 88.1555 39.3327 87.5055 38.0738 86.7804C38.2056 86.8014 38.3578 86.8215 38.5339 86.8385C39.1408 86.9145 39.7468 86.8963 40.3458 86.7895C40.8957 86.6914 41.3977 86.4524 41.8597 86.1355C41.9266 86.0893 41.9867 86.0303 42.0397 85.9674C42.1027 85.8923 42.1288 85.8053 42.0808 85.7055C42.0157 85.5675 41.9607 85.4243 41.8926 85.2874C41.5987 84.6975 41.2976 84.1113 41.0496 83.4993C40.6717 82.5684 40.3758 81.6143 40.2599 80.6145C40.2057 80.1473 40.1856 79.6754 40.1728 79.2054C40.1578 78.6983 40.1488 78.1903 40.1737 77.6854C40.2117 76.9323 40.1958 76.1783 40.2647 75.4274C40.3078 74.9585 40.3197 74.4863 40.3537 74.0163C40.3908 73.5004 40.4328 72.9833 40.4787 72.4683C40.5266 71.9405 40.5796 71.4135 40.6346 70.8863C40.6868 70.3944 40.7358 69.9023 40.8019 69.4134C40.9087 68.6205 41.0187 67.8274 41.1457 67.0374C41.4226 65.3173 41.7798 63.6134 42.2178 61.9265C42.5157 60.7765 42.7898 59.6205 43.0767 58.4674C43.4378 57.0175 43.8789 55.5894 44.3358 54.1664C45.1647 51.5903 45.9918 49.0144 46.7577 46.4184C47.1157 45.2095 47.3808 43.9804 47.5806 42.7354C47.7626 41.5964 47.9077 40.4524 48.0447 39.3075C48.1416 38.5013 48.2068 37.6914 48.2836 36.8824C48.3477 36.2024 48.4137 35.5235 48.4699 34.8423C48.5067 34.3964 48.5268 33.9494 48.5557 33.5035C48.5957 32.8924 48.6388 32.2815 48.6776 31.6703C48.7057 31.2355 48.7326 30.8004 48.7559 30.3653C48.7856 29.8134 48.8089 29.2603 48.8398 28.7073C48.8778 28.0253 48.9228 27.3444 48.9617 26.6624C48.9937 26.0983 49.0198 25.5333 49.0498 24.9684C49.0629 24.7204 49.0388 24.4743 48.9758 24.2345C48.9517 24.1435 48.9296 24.0503 48.8917 23.9655C48.8137 23.7915 48.6839 23.6863 48.4826 23.6783C48.1167 23.6645 47.7527 23.6985 47.3887 23.7243C47.1189 23.7433 46.8487 23.7665 46.5789 23.7744C46.2928 23.7824 46.0148 23.8334 45.7489 23.9303C45.2367 24.1183 44.9447 24.6234 45.0266 25.1643C45.0816 25.5254 45.1607 25.8823 45.2038 26.2443C45.3637 27.5763 45.6088 28.8975 45.7367 30.2335C45.8008 30.9013 45.8487 31.5714 45.9008 32.2404C45.9578 32.9805 45.9669 33.7223 45.9918 34.4645C46.0088 34.9583 46.0258 35.4535 46.0117 35.9473C45.9808 37.1245 45.9507 38.3014 45.8526 39.4753C45.7568 40.6264 45.6338 41.7744 45.4629 42.9154C45.2398 44.3954 44.9478 45.8614 44.5918 47.3145C44.0277 49.6185 43.2436 51.8454 42.3277 54.0323C40.8937 57.4554 39.6708 60.9545 38.6277 64.5165C37.8708 67.1043 37.2217 69.7204 36.7319 72.3744C36.4427 73.9375 36.2077 75.5093 36.0578 77.0933C35.9229 78.5024 35.8458 79.9123 35.8636 81.3274C35.8687 81.7863 35.8557 82.2464 35.8798 82.7053C35.9178 83.4454 35.9506 84.1873 36.1176 84.9143C36.1477 85.0413 36.1817 85.1635 36.2267 85.2795L36.2267 85.2814C36.2287 85.2874 36.2318 85.2933 36.2347 85.2993C36.2367 85.3055 36.2398 85.3115 36.2418 85.3174C36.3237 85.5173 36.4368 85.6984 36.5607 85.8563C34.4386 84.4883 32.4626 82.8944 30.6518 81.0833C27.3767 77.8073 24.8048 73.9944 23.0088 69.7473C21.1498 65.3525 20.2079 60.6824 20.2079 55.8675C20.2079 51.0526 21.1498 46.3833 23.0088 41.9873C24.8048 37.7413 27.3767 33.9273 30.6518 30.6524C32.4768 28.8275 34.4687 27.2214 36.6097 25.8463ZM18.4858 55.8675C18.4858 76.5133 35.2227 93.2493 55.8677 93.2493C76.5127 93.2493 93.2488 76.5133 93.2488 55.8675C93.2488 35.2217 76.5127 18.4864 55.8677 18.4864C35.2227 18.4864 18.4858 35.2224 18.4858 55.8675Z" fill-rule="evenodd"  fill="#BE2C21" >
</path>
<path d="M49.3735 40.2732C49.4206 40.2763 49.4677 40.2752 49.5147 40.2752C49.9467 40.2743 50.3538 40.3804 50.7407 40.5663C50.8467 40.6173 50.9547 40.6672 51.0655 40.7052C51.5667 40.8764 52.0687 41.0423 52.5707 41.2112C52.7717 41.2792 52.9747 41.3422 53.1686 41.4232C53.5546 41.5854 53.7896 41.8782 53.8866 42.2844C53.9277 42.4562 53.9566 42.6302 53.9586 42.8074C53.9637 43.3264 53.9728 43.8443 53.9206 44.3613C53.9016 44.5504 53.9067 44.7364 53.9237 44.9254C53.9626 45.3603 53.9665 45.7943 53.8917 46.2282C53.7576 46.9953 53.3316 47.4522 52.5727 47.6062C52.0466 47.7142 51.5216 47.7224 51.0066 47.5302C50.8306 47.4644 50.6506 47.4072 50.4737 47.3454C49.8957 47.1413 49.3166 46.9403 48.7156 46.8212C48.4197 46.7634 48.1515 46.6602 47.9165 46.4712C47.8437 46.4122 47.7626 46.3632 47.6787 46.3212C47.5996 46.2832 47.5066 46.3093 47.4587 46.3813C47.4145 46.4493 47.3726 46.5233 47.3488 46.6004C47.2396 46.9502 47.1586 47.3054 47.1736 47.6753C47.1838 47.9253 47.2408 48.1654 47.3247 48.3982C47.4125 48.6462 47.5806 48.8154 47.8306 48.9044C48.0656 48.9883 48.3066 49.0343 48.5557 49.0402C48.8497 49.0473 49.1425 49.0632 49.4356 49.1074C49.7837 49.1593 50.1378 49.1814 50.4895 49.2012C50.7957 49.2194 51.1027 49.2103 51.4077 49.2253C51.9018 49.2503 52.3927 49.2854 52.8777 49.4013C53.2967 49.5023 53.5918 49.7452 53.8288 50.0822C53.9518 50.2563 54.0397 50.4482 54.1066 50.6514C54.2185 50.9893 54.2846 51.3354 54.3047 51.6892C54.3498 52.4783 54.3226 53.2672 54.2885 54.0553C54.2457 55.0434 54.1686 56.0282 54.2066 57.0203C54.2477 58.0793 54.2786 59.1383 54.3308 60.1974C54.3756 61.1022 54.4586 62.0062 54.5037 62.9113C54.5456 63.7583 54.5626 64.6064 54.5856 65.4534C54.5998 66.0073 54.6046 66.5603 54.6117 66.9793C54.6636 67.8784 54.6746 68.6443 54.6517 69.4094C54.6125 70.7162 54.5425 72.0212 54.3906 73.3212C54.2588 74.4573 54.0827 75.5844 53.8486 76.7032C53.5986 77.9034 53.2576 79.0784 52.9066 80.2514C52.7476 80.7823 52.5696 81.3064 52.3318 81.8062C52.2456 81.9873 52.1455 82.1613 52.0426 82.3323C51.9706 82.4542 51.8737 82.5593 51.7578 82.6424C51.6308 82.7322 51.4987 82.7453 51.3598 82.6673C51.2237 82.5922 51.1117 82.4893 51.0125 82.3714C50.8376 82.1633 50.6826 81.9414 50.5437 81.7084C49.9476 80.7032 49.4436 79.6544 49.0246 78.5642C48.9526 78.3774 48.8956 78.1852 48.8355 77.9944C48.5027 76.9192 48.3687 75.8092 48.2867 74.6923C48.2235 73.8354 48.1768 72.9774 48.1467 72.1182C48.1076 71.0113 48.1206 69.9063 48.2607 68.8022C48.4047 67.6553 48.6365 66.5283 48.9526 65.4174C49.4696 63.5992 50.1928 61.8622 51.0576 60.1843C51.2538 59.8022 51.3757 59.4014 51.4587 58.9844C51.4876 58.8342 51.5236 58.6854 51.5137 58.5292C51.5058 58.3863 51.5026 58.2344 51.3555 58.1612C51.2206 58.0932 51.1055 58.1842 50.9975 58.2522C50.7977 58.3784 50.6256 58.5414 50.4646 58.7134C49.8285 59.3952 49.2397 60.1143 48.7295 60.8964C47.9418 62.1074 47.3377 63.4102 46.8895 64.7793C46.4947 65.9874 46.1497 67.2114 45.8277 68.4414C45.5507 69.5024 45.3466 70.5773 45.2375 71.6692C45.1956 72.0924 45.1786 72.5153 45.1556 72.9383C45.1366 73.3034 45.1236 73.6693 45.1437 74.0333C45.1845 74.7853 45.2197 75.5382 45.3285 76.2854C45.4365 77.0193 45.5468 77.7532 45.7367 78.4712C46.0868 79.7933 46.5607 81.0734 47.0608 82.3442C47.5307 83.5364 48.1855 84.6224 48.9245 85.6613C49.3648 86.2784 49.8815 86.8263 50.4717 87.3023C51.0227 87.7462 51.6435 87.9202 52.3536 87.8173C52.6997 87.7663 52.9755 87.6263 53.2196 87.3884C53.5257 87.0914 53.7826 86.7552 54.0187 86.4023C55.4286 84.2944 56.3998 81.9972 56.9676 79.5282C57.1997 78.5183 57.3667 77.4972 57.4818 76.4663C57.5827 75.5654 57.6357 74.6603 57.6666 73.7543C57.6867 73.1302 57.6816 72.5054 57.6677 71.8812C57.6567 71.3523 57.6385 70.8202 57.5847 70.2944C57.4988 69.4514 57.3517 68.6163 57.2085 67.7803C57.0498 66.8523 56.8967 65.9234 56.7496 64.9933C56.6368 64.2722 56.5276 63.5502 56.4315 62.8274C56.3417 62.1502 56.2626 61.4724 56.1957 60.7924C56.1308 60.1364 56.0806 59.4794 56.0355 58.8214C55.9896 58.1522 55.9426 57.4823 55.9207 56.8114C55.8776 55.5392 55.8907 54.2673 55.9085 52.9954C55.9176 52.3343 55.9717 51.6773 56.0608 51.0242C56.1047 50.6982 56.1637 50.3722 56.2697 50.0593C56.3227 49.9034 56.3848 49.7503 56.4548 49.6012C56.6047 49.2863 56.8406 49.0782 57.1918 48.9983C57.5356 48.9203 57.8735 48.8174 58.2165 48.7343C58.3996 48.6893 58.5856 48.6604 58.7715 48.6283C59.2656 48.5433 59.7586 48.6122 60.2506 48.6572C60.5296 48.6833 60.8065 48.7502 61.0727 48.8514C61.4905 49.0102 61.7306 49.2863 61.7235 49.7543C61.7207 50.0122 61.7386 50.2724 61.7595 50.5304C61.8176 51.2223 61.8797 51.9143 61.9458 52.6062C61.9965 53.1334 62.0518 53.6604 62.1136 54.1874C62.1927 54.8654 62.2777 55.5423 62.3627 56.2204C62.4707 57.0722 62.5796 57.9254 62.6896 58.7772C62.7916 59.5712 62.8996 60.3643 62.9986 61.1592C63.0895 61.8953 63.1817 62.6312 63.2576 63.3693C63.3118 63.8952 63.3656 64.4233 63.3656 64.9542C63.3656 65.7794 63.3427 66.6034 63.2976 67.4263C63.2636 68.0383 63.2426 68.6503 63.1927 69.2603C63.1187 70.1762 63.0286 71.0903 62.9356 72.0042C62.8395 72.9533 62.7046 73.8983 62.5535 74.8392C62.3565 76.0603 62.1147 77.2724 61.8018 78.4692C61.5157 79.5623 61.2757 80.6672 60.9616 81.7543C60.7067 82.6384 60.3935 83.4993 59.9527 84.3114C59.8297 84.5382 59.7118 84.7692 59.5916 84.9983C59.5085 85.1564 59.4467 85.3223 59.4136 85.4952C59.3348 85.8983 59.4895 86.1284 59.8906 86.2132C59.9476 86.2262 60.0077 86.2322 60.0655 86.2333C60.2546 86.2373 60.4417 86.2353 60.6296 86.2064C60.9786 86.1514 61.3287 86.1123 61.6827 86.1012C62.7077 86.0672 63.7288 85.9884 64.7467 85.8733C64.8757 85.8583 65.0038 85.8353 65.1296 85.8033C65.5027 85.7092 65.7867 85.4994 65.9636 85.1502C66.0767 84.9274 66.1535 84.6932 66.1748 84.4444C66.2196 83.8933 66.2607 83.3414 66.2967 82.7892C66.3346 82.2132 66.3627 81.6372 66.3987 81.0612C66.4307 80.5323 66.4735 80.0042 66.5027 79.4752C66.5387 78.8173 66.5645 78.1583 66.5957 77.4992C66.6005 77.3932 66.6096 77.2872 66.6147 77.1814C66.6476 76.4524 66.6927 75.7233 66.7085 74.9942C66.7326 73.8524 66.7417 72.7092 66.6808 71.5674C66.6575 71.1323 66.6575 70.6963 66.6326 70.2612C66.6017 69.7323 66.5586 69.2042 66.5146 68.6752C66.4648 68.0774 66.4205 67.4782 66.3505 66.8823C66.2377 65.9234 66.1107 64.9672 65.9608 64.0134C65.7666 62.7803 65.5415 61.5532 65.2768 60.3343C65.0077 59.0924 64.7135 57.8562 64.4405 56.6152C64.0326 54.7634 63.6885 52.9013 63.5247 51.0094C63.4257 49.8662 63.4337 48.7264 63.5595 47.5883C63.6366 46.8862 63.7497 46.1894 63.8966 45.4972C64.1307 44.4013 64.4337 43.3273 64.8907 42.3014C65.2725 41.4453 65.7397 40.6454 66.4316 39.9963C66.6207 39.8194 66.8185 39.6524 67.0167 39.4852C68.1346 38.5444 69.2546 37.6064 70.3275 36.6143C70.8636 36.1182 71.3897 35.6114 71.8687 35.0583C72.1956 34.6793 72.4396 34.2544 72.6208 33.7884C72.8305 33.2464 72.9555 32.6823 73.0057 32.1072C73.1086 30.9342 72.9816 29.7813 72.6466 28.6503C72.2996 27.4762 71.7287 26.4373 70.8596 25.5662C70.3766 25.0812 69.8646 24.6294 69.3147 24.2232C68.5457 23.6554 67.7406 23.1443 66.8627 22.7594C66.5597 22.6264 66.2488 22.5153 65.9228 22.4592C65.6917 22.4192 65.4568 22.3903 65.2226 22.3784C64.9805 22.3653 64.7946 22.4623 64.6755 22.6913C64.5627 22.9102 64.4445 23.1284 64.3646 23.3634C64.2478 23.7092 64.1117 24.0463 63.9428 24.3723C63.8506 24.5503 63.7818 24.7394 63.7395 24.9352C63.6837 25.2014 63.7667 25.3644 64.0216 25.4693C64.1517 25.5223 64.2906 25.5583 64.4286 25.5844C64.7166 25.6394 65.0086 25.6813 65.2977 25.7323C65.6807 25.7992 66.0625 25.8664 66.4245 26.0164C67.5337 26.4733 68.5496 27.0822 69.4477 27.8793C69.9267 28.3034 70.3477 28.7782 70.6717 29.3332C71.3026 30.4132 71.3846 31.5323 70.8967 32.6874C70.7128 33.1242 70.4636 33.5222 70.1776 33.8992C69.6546 34.5903 69.0267 35.1754 68.3518 35.7114C67.4566 36.4223 66.5305 37.0913 65.6036 37.7592C65.2685 38.0004 64.9318 38.2374 64.6225 38.5123C63.6295 39.3933 62.8656 40.4484 62.3126 41.6483C61.7706 42.8252 61.2745 44.0223 61.0458 45.3092C61.0268 45.4172 60.9877 45.5133 60.9165 45.5953C60.5126 46.0593 60.0746 46.4862 59.5406 46.8014C59.0227 47.1073 58.4685 47.2754 57.8588 47.2484C57.3627 47.2263 56.8777 47.1382 56.3947 47.0333C56.3147 47.0154 56.2388 46.9814 56.1605 46.9553C56.0335 46.9122 55.9786 46.8263 55.9717 46.6903C55.9187 45.7503 55.8286 44.8123 55.8997 43.8692C55.9295 43.4673 56.0007 43.0764 56.0936 42.6872C56.2677 41.9632 56.7088 41.4833 57.3996 41.2254C57.5427 41.1724 57.6867 41.1213 57.8335 41.0783C58.0257 41.0213 58.2208 40.9754 58.4135 40.9232C58.8566 40.8033 59.3008 40.6893 59.7285 40.5184C60.0037 40.4093 60.2677 40.2823 60.5126 40.1162C60.9386 39.8282 61.2068 39.4194 61.4058 38.9574C61.4426 38.8723 61.4228 38.7972 61.3556 38.7334C61.2187 38.6033 61.0546 38.5492 60.8697 38.5702C60.7535 38.5832 60.6356 38.6042 60.5236 38.6393C60.2756 38.7173 60.0208 38.7632 59.7645 38.8003C59.4147 38.8514 59.0706 38.9324 58.7307 39.0274C58.4356 39.1093 58.1386 39.1853 57.8335 39.2224C57.5526 39.2564 57.2706 39.2663 56.9905 39.2043C56.8255 39.1683 56.7175 39.0713 56.6708 38.9103C56.6506 38.8434 56.6285 38.7743 56.6226 38.7042C56.5945 38.3882 56.5577 38.0713 56.5506 37.7543C56.5356 37.0122 56.5296 36.2704 56.5667 35.5283C56.6008 34.8463 56.6416 34.1654 56.6835 33.4834C56.7127 33.0134 56.7405 32.5434 56.7827 32.0743C56.8386 31.4294 56.8995 30.7842 56.9735 30.1413C57.0486 29.4863 57.1416 28.8363 57.3568 28.2064C57.6496 27.3484 57.9118 26.4812 58.3027 25.6603C58.7228 24.7782 59.2497 23.9783 60.0406 23.3773C60.1897 23.2634 60.3297 23.1364 60.4706 23.0114C60.5588 22.9334 60.6407 22.8484 60.6937 22.7404C60.7416 22.6443 60.7048 22.5453 60.5987 22.5173C60.4168 22.4694 60.2317 22.4354 60.0426 22.4254C59.5465 22.3982 59.0547 22.4203 58.5626 22.4912C57.8026 22.6012 57.0557 22.7494 56.3607 23.0984C56.0557 23.2523 55.7305 23.3543 55.3966 23.4383C54.8708 23.5703 54.3696 23.7753 53.8747 23.9972C53.6346 24.1052 53.5436 24.2714 53.5345 24.5183C53.5246 24.8162 53.5657 25.1073 53.6317 25.3942C53.9407 26.7372 54.1907 28.0913 54.4306 29.4474C54.4918 29.7944 54.5638 30.1422 54.5916 30.4934C54.6916 31.7262 54.6738 32.9644 54.7086 34.2003C54.7356 35.1774 54.6885 36.1553 54.6505 37.1313C54.6276 37.7543 54.5856 38.3794 54.4546 38.9922C54.4237 39.1413 54.3747 39.2862 54.3296 39.4322C54.2766 39.6054 54.1536 39.7012 53.9815 39.7494C53.5997 39.8562 53.2136 39.8653 52.8276 39.7854C52.4656 39.7103 52.1368 39.5563 51.8286 39.3534C51.5216 39.1513 51.1846 39.0662 50.8186 39.1184C50.4226 39.1742 50.0286 39.2403 49.6326 39.3012C49.5487 39.3143 49.4747 39.3432 49.4158 39.4072C49.2956 39.5382 49.1887 39.6802 49.1136 39.8404C48.9977 40.0864 49.1057 40.2582 49.3735 40.2732Z" fill-rule="evenodd"  fill="#BE2C21" >
</path>
<path d="M43.38 14.5899C43.3681 14.671 43.4089 14.7339 43.4729 14.7821C43.554 14.843 43.645 14.8739 43.7428 14.8881C43.933 14.9131 44.1178 14.8921 44.2998 14.836C44.386 14.809 44.475 14.7909 44.5569 14.7549C44.7278 14.68 44.9059 14.6171 45.0249 14.457C45.0969 14.36 45.195 14.288 45.288 14.212C45.369 14.1449 45.4518 14.08 45.5289 14.008C45.972 13.591 46.4249 13.1859 46.9108 12.818C47.6529 12.2559 48.4528 11.806 49.339 11.5089C49.7939 11.3559 50.2429 11.1829 50.6848 10.993C50.754 10.963 50.8249 10.9349 50.8969 10.9171C51.3051 10.815 51.713 10.7101 52.139 10.7161C52.266 10.7181 52.3939 10.7039 52.5208 10.703C52.6288 10.7019 52.7289 10.6719 52.827 10.633C52.9038 10.6021 52.9801 10.569 53.0529 10.5301C53.2258 10.4369 53.382 10.3201 53.511 10.1701C53.5949 10.0729 53.6669 9.968 53.687 9.8359C53.71 9.6911 53.6728 9.606 53.545 9.5349C53.4129 9.4629 53.2749 9.4039 53.1309 9.3591C53.0949 9.3481 53.056 9.335 53.0209 9.3399C52.8919 9.36 52.7669 9.339 52.6399 9.326C52.5739 9.32 52.5038 9.3271 52.4389 9.3421C52.2119 9.3951 51.9879 9.4561 51.7739 9.5519C51.4661 9.6911 51.1588 9.8339 50.845 9.9561C50.436 10.114 50.0519 10.3141 49.689 10.5579C49.6029 10.6169 49.5051 10.6591 49.409 10.703C49.185 10.8071 48.958 10.908 48.7321 11.01C48.6779 11.035 48.6241 11.0619 48.5608 11.0611C48.5308 11.0599 48.5248 11.037 48.528 11.0151C48.5351 10.9599 48.5739 10.921 48.6071 10.8811C48.7828 10.6659 48.952 10.444 49.1388 10.239C49.337 10.021 49.5059 9.7821 49.672 9.5411C49.7231 9.468 49.7678 9.3869 49.797 9.3019C49.8699 9.0901 49.805 8.9149 49.6289 8.7891C49.502 8.697 49.358 8.6629 49.204 8.661C48.9489 8.6581 48.7159 8.7321 48.4959 8.8571C48.378 8.9229 48.2629 8.994 48.1308 9.0309C48.0889 9.0431 48.0418 9.0629 48.005 9.0221C47.9698 8.983 47.9908 8.9371 48.0019 8.894C48.007 8.8719 48.0149 8.8509 48.0228 8.8299C48.1209 8.602 48.215 8.3721 48.338 8.1561C48.5161 7.8429 48.7511 7.5861 49.0759 7.4171C49.2148 7.3451 49.3489 7.2601 49.4719 7.16C49.549 7.0979 49.619 7.0299 49.6649 6.942C49.7579 6.766 49.6729 6.607 49.4739 6.5849C49.3679 6.573 49.2638 6.599 49.1598 6.601C48.9291 6.6039 48.736 6.6971 48.5608 6.8329C48.4421 6.925 48.3329 7.0291 48.2198 7.1271C48.0999 7.23 47.9809 7.3329 47.8598 7.4341C47.8199 7.467 47.781 7.507 47.719 7.486C47.709 7.395 47.7649 7.329 47.806 7.2601C47.9338 7.0469 48.0469 6.8261 48.1541 6.6019C48.196 6.514 48.2329 6.423 48.2471 6.3261C48.2879 6.044 48.2198 5.8051 47.9718 5.637C47.9409 5.6171 47.91 5.595 47.882 5.5701C47.7518 5.4561 47.5979 5.3991 47.4298 5.3861C47.114 5.362 46.7968 5.3711 46.491 5.4541C46.2809 5.5111 46.0808 5.6021 45.8881 5.7039C45.8078 5.7469 45.737 5.8019 45.68 5.8731C45.5788 5.9981 45.6389 6.1951 45.758 6.239C45.8779 6.283 45.9941 6.3411 46.1168 6.3711C46.273 6.4091 46.4179 6.465 46.5519 6.55C46.675 6.6271 46.8059 6.6781 46.9479 6.7079C47.014 6.7209 47.08 6.7391 47.1418 6.764C47.3099 6.832 47.34 6.9131 47.2668 7.084C47.2518 7.1181 47.2348 7.1521 47.215 7.1841C47.1449 7.2989 47.069 7.412 47.0021 7.5291C46.8518 7.7941 46.6469 8.011 46.434 8.225C46.294 8.3639 46.1429 8.4841 45.9759 8.587C45.65 8.788 45.3268 8.9929 45.0028 9.1981C44.9521 9.2299 44.9019 9.263 44.856 9.3019C44.816 9.337 44.784 9.381 44.8018 9.4399C44.82 9.4969 44.8679 9.519 44.9209 9.5309C44.9501 9.5369 44.981 9.5349 45.011 9.5369C45.1009 9.542 45.191 9.5451 45.2809 9.553C45.5281 9.576 45.7568 9.5241 45.9728 9.4C46.2608 9.2361 46.5361 9.0541 46.7909 8.8429C46.8949 8.7571 46.997 8.6669 47.0999 8.5799C47.2668 8.439 47.438 8.3049 47.628 8.1961C47.645 8.1859 47.673 8.1811 47.69 8.1879C47.7 8.1921 47.7079 8.229 47.7008 8.244C47.5888 8.4829 47.4701 8.7199 47.2549 8.8849C47.101 9.002 47.0401 9.1661 47.0488 9.3379C47.0591 9.519 47.0429 9.6979 47.048 9.877C47.0508 9.9689 47.0659 10.0559 47.0919 10.1429C47.1189 10.2331 47.186 10.275 47.2731 10.29C47.3788 10.3099 47.467 10.2659 47.537 10.1939C47.6149 10.1129 47.6861 10.0239 47.7581 9.938C47.87 9.8059 47.9761 9.6701 48.107 9.555C48.198 9.4751 48.2958 9.407 48.412 9.3691C48.522 9.3319 48.6328 9.3271 48.7448 9.3611C48.8188 9.3829 48.85 9.4439 48.8259 9.5199C48.8188 9.5411 48.81 9.5621 48.799 9.5819C48.6348 9.8861 48.4679 10.188 48.251 10.4601C48.0928 10.66 47.946 10.8669 47.8 11.0761C47.7079 11.2059 47.605 11.3269 47.482 11.425C47.1639 11.6759 46.8439 11.9251 46.491 12.128C46.3799 12.1909 46.271 12.2581 46.1659 12.331C45.4949 12.799 44.814 13.2559 44.206 13.8081C44.2009 13.8129 44.1949 13.818 44.189 13.8231C44.0161 13.97 43.827 14.0899 43.605 14.152C43.5481 14.1681 43.4931 14.1939 43.4401 14.222C43.372 14.2571 43.3428 14.313 43.3681 14.3901C43.3879 14.4561 43.3899 14.521 43.38 14.5899Z" fill-rule="evenodd"  fill="#BE2C21" >
</path>
<path d="M48.5283 13.8441C48.5912 13.803 48.6561 13.7659 48.7233 13.731C48.8282 13.674 48.9393 13.6261 49.0422 13.5629C49.2123 13.46 49.4042 13.4181 49.5901 13.3631C49.7432 13.3169 49.8872 13.3659 50.0091 13.4691C50.1162 13.557 50.1871 13.672 50.246 13.7939C50.3152 13.9371 50.3722 14.0839 50.4122 14.237C50.4842 14.5131 50.5482 14.792 50.6661 15.0539C50.7101 15.15 50.7322 15.2541 50.7381 15.3601C50.7571 15.652 50.7761 15.944 50.79 16.2371C50.7982 16.4061 50.7401 16.4939 50.5961 16.5569C50.485 16.6051 50.4411 16.594 50.3861 16.4809C50.3132 16.3321 50.1871 16.2601 50.0351 16.2261C49.9082 16.198 49.7812 16.198 49.655 16.234C49.5541 16.2621 49.4552 16.2981 49.3551 16.3281C49.2551 16.3559 49.2131 16.34 49.1743 16.249C49.1332 16.1521 49.1011 16.052 49.0833 16.001C49.058 15.8851 49.0422 15.8199 49.0311 15.753C49.0082 15.6169 49.0362 15.5829 49.1811 15.5659C49.2032 15.563 49.2261 15.563 49.2483 15.5611C49.4832 15.5449 49.6391 15.425 49.7171 15.2039C49.7812 15.0219 49.801 14.8391 49.7392 14.652C49.7021 14.54 49.6312 14.4751 49.5153 14.4581C49.295 14.4241 49.0802 14.4289 48.878 14.5369C48.8182 14.5689 48.7601 14.6049 48.6881 14.601C48.6402 14.5981 48.6022 14.5791 48.5861 14.529C48.5832 14.5219 48.5793 14.5139 48.5793 14.5071C48.577 14.3249 48.522 14.1531 48.4733 13.979C48.4563 13.9209 48.4801 13.875 48.5283 13.8441ZM47.9891 14.775C48.0021 15.0449 48.0231 15.315 48.0603 15.5829C48.0872 15.7839 48.1141 15.984 48.1133 16.1869C48.1121 16.4049 48.1731 16.6039 48.306 16.7751C48.4072 16.905 48.52 17.0271 48.6292 17.1499C48.7071 17.238 48.8052 17.257 48.9172 17.227C49.0212 17.2 49.1111 17.149 49.1811 17.066C49.2191 17.0209 49.2661 17.007 49.3222 17.0189C49.3523 17.0249 49.3812 17.03 49.4112 17.0359C49.5952 17.075 49.7761 17.104 49.9671 17.0509C50.1012 17.013 50.3603 17.1181 50.449 17.2389C50.5063 17.3151 50.5672 17.348 50.6562 17.3449C50.881 17.3381 51.1061 17.333 51.3311 17.3231C51.3912 17.3211 51.4542 17.312 51.5021 17.2729C51.7181 17.0949 51.9242 16.914 51.9332 16.5971C51.94 16.3791 51.9361 16.1609 51.9491 15.944C51.9633 15.7269 51.921 15.529 51.8411 15.3309C51.6911 14.9621 51.5551 14.5879 51.4791 14.195C51.4522 14.055 51.4083 13.9189 51.3711 13.7809C51.2872 13.4461 51.184 13.117 51.1151 12.7769C51.0843 12.6249 51.0032 12.4999 50.8722 12.4109C50.8351 12.386 50.7991 12.3571 50.7662 12.327C50.7021 12.268 50.625 12.2451 50.5423 12.2329C50.445 12.2199 50.3481 12.206 50.2543 12.183C50.0332 12.1289 49.8231 12.1501 49.619 12.2539C49.5192 12.3049 49.4172 12.3551 49.31 12.3899C49.1981 12.4271 49.1091 12.4911 49.0331 12.575C48.9081 12.7151 48.7882 12.8591 48.666 13.0019C48.469 13.2321 48.2621 13.4481 47.946 13.511C47.8791 13.5241 47.8471 13.5791 47.8411 13.6431C47.8352 13.7089 47.8321 13.7781 47.8411 13.8441C47.8522 13.9331 47.8692 14.023 47.8953 14.1089C47.961 14.3271 47.9792 14.5491 47.9891 14.775Z" fill-rule="evenodd"  fill="#BE2C21" >
</path>
<path d="M95.0128 29.2175C94.8586 29.2215 94.7058 29.2136 94.5516 29.2167C94.3426 29.2215 94.1366 29.2036 93.9376 29.1365C93.6107 29.0265 93.3057 29.0917 92.9987 29.2255C92.7876 29.3176 92.6986 29.4766 92.6665 29.6855C92.6487 29.8066 92.6348 29.9296 92.6297 30.0515C92.6226 30.2235 92.6807 30.3735 92.8357 30.4617C93.1076 30.6147 93.4407 30.5787 93.6757 30.3775C93.7156 30.3426 93.7536 30.3026 93.7837 30.2595C93.8327 30.1867 93.9016 30.1586 93.9807 30.1637C94.0875 30.1697 94.1947 30.1847 94.3007 30.2026C94.4447 30.2267 94.5867 30.2695 94.7307 30.2817C95.1137 30.3157 95.4677 30.4336 95.8016 30.6156C96.3147 30.8945 96.8215 31.1845 97.3445 31.4427C97.3868 31.4637 97.4236 31.4906 97.4466 31.5326C97.4676 31.5717 97.4497 31.6375 97.4106 31.6505C97.3888 31.6576 97.3655 31.6655 97.3437 31.6667C97.0976 31.6706 96.8527 31.6825 96.6067 31.6757C96.2056 31.6647 95.8147 31.5845 95.4258 31.4886C95.2846 31.4535 95.1627 31.4036 95.0876 31.2585C95.0527 31.2216 95.0167 31.1695 94.9685 31.1326C94.6386 30.8755 94.1556 30.9917 93.9688 31.3676C93.9257 31.4546 93.9055 31.5397 93.9466 31.6326C93.9645 31.6746 93.9787 31.7197 93.9858 31.7645C93.9906 31.7937 93.9787 31.8257 93.9427 31.8356C93.9197 31.8407 93.8976 31.8486 93.8746 31.8486C93.5586 31.8535 93.2425 31.8586 92.9398 31.7526C92.7266 31.6777 92.5327 31.7146 92.3405 31.8146C92.1707 31.9045 92.1138 32.0607 92.1055 32.2356C92.0987 32.4017 92.2005 32.5046 92.3417 32.5726C92.4525 32.6256 92.5656 32.6755 92.6767 32.7265C92.7045 32.7396 92.7346 32.7566 92.7306 32.7926C92.7266 32.8297 92.6926 32.8396 92.6626 32.8385C92.5628 32.8357 92.4627 32.8337 92.3638 32.8226C92.2408 32.8085 92.1197 32.8136 91.9967 32.8297C91.6747 32.8705 91.3535 32.8566 91.0318 32.8155C90.6956 32.7736 90.3696 32.6837 90.0385 32.6166C89.8186 32.5715 89.6057 32.5156 89.4047 32.4147C89.2196 32.3215 89.0158 32.3365 88.8165 32.3277C88.7805 32.3257 88.7425 32.3456 88.7065 32.3586C88.5435 32.4176 88.4137 32.5256 88.2927 32.6446C88.2195 32.7166 88.2056 32.8017 88.2496 32.8975C88.3485 33.1115 88.5007 33.2447 88.7456 33.2467C88.8616 33.2475 88.9775 33.2507 89.0886 33.2855C89.4668 33.4046 89.8577 33.4326 90.2486 33.4576C90.5785 33.4797 90.9088 33.4596 91.2376 33.4307C91.4057 33.4156 91.5738 33.3986 91.7427 33.4037C91.9196 33.4097 92.0956 33.4196 92.2717 33.3856C92.3227 33.3757 92.3785 33.3825 92.4315 33.3896C92.5387 33.4026 92.6447 33.4205 92.7507 33.4355C93.0285 33.4735 93.2907 33.5537 93.5206 33.7206C93.5835 33.7666 93.6567 33.7915 93.7357 33.7926C93.8826 33.7955 94.0266 33.8156 94.1717 33.8346C94.4016 33.8635 94.5757 33.7045 94.5346 33.4806C94.4926 33.2487 94.4277 33.0177 94.2117 32.8666C94.0926 32.7835 93.9807 32.6877 93.8885 32.5726C93.8656 32.5437 93.8347 32.5125 93.8636 32.4717C93.8885 32.4366 93.9277 32.4337 93.9668 32.4377C93.9897 32.4397 94.0135 32.4405 94.0357 32.4476C94.2346 32.5117 94.4455 32.5086 94.6485 32.5497C94.7157 32.5635 94.7866 32.5627 94.8557 32.5576C95.1037 32.5426 95.2327 32.4317 95.2716 32.1826C95.2917 32.0496 95.3475 32.0247 95.4527 32.0275C95.4915 32.0286 95.5295 32.0326 95.5678 32.0386C95.8186 32.0726 96.0695 32.1086 96.3207 32.1426C96.3887 32.1517 96.4587 32.1537 96.5276 32.1585C96.6656 32.1687 96.8037 32.1755 96.9417 32.1877C97.0636 32.1987 97.1855 32.2075 97.3097 32.2035C97.5095 32.1987 97.7077 32.2126 97.9015 32.2716C98.0197 32.3067 98.1416 32.3266 98.2635 32.3436C98.3695 32.3586 98.4775 32.3586 98.5827 32.3237C98.6986 32.2855 98.7587 32.2035 98.7568 32.0836C98.7556 32.0046 98.7335 31.9297 98.6947 31.8637C98.5175 31.5686 98.3007 31.3126 97.9716 31.1805C97.7136 31.0785 97.4667 30.9535 97.2238 30.8225C96.8998 30.6465 96.5786 30.4645 96.2526 30.2927C95.9536 30.1337 95.6437 30.0016 95.3076 29.9336C95.1655 29.9046 95.0255 29.8596 94.8877 29.8137C94.7925 29.7816 94.7038 29.7357 94.6136 29.6935C94.5836 29.6796 94.5666 29.6555 94.5706 29.6195C94.5757 29.5855 94.5966 29.5645 94.6275 29.5546C94.6786 29.5387 94.7296 29.5206 94.7826 29.5115C95.0326 29.4687 95.2857 29.4466 95.5397 29.4525C95.9547 29.4616 96.3677 29.5075 96.7807 29.5435C97.0628 29.5676 97.3017 29.6447 97.4837 29.8766C97.6306 30.0637 97.8386 30.1666 98.0657 30.2286C98.2888 30.2896 98.4906 30.2165 98.6366 30.0325C98.7267 29.9197 98.7746 29.7927 98.7865 29.6526C98.7947 29.5597 98.8098 29.4695 98.8367 29.3805C98.8497 29.3377 98.8628 29.2895 98.8597 29.2456C98.8426 29.0007 98.8407 28.7535 98.7437 28.5205C98.6638 28.3297 98.5836 28.1375 98.5198 27.9417C98.4637 27.7696 98.3506 27.6505 98.2125 27.5496C98.1068 27.4725 98.0427 27.4737 97.9407 27.5505C97.7587 27.6877 97.6206 27.8617 97.5447 28.0766C97.4885 28.2365 97.4267 28.3997 97.4126 28.5656C97.3967 28.7637 97.2876 28.8485 97.1246 28.9037C97.0585 28.9256 96.9936 28.9485 96.9276 28.9695C96.6625 29.0537 96.3887 29.0897 96.1126 29.1107C95.8748 29.1285 95.6375 29.1427 95.4025 29.1895C95.2755 29.2147 95.1426 29.2147 95.0128 29.2175Z" fill-rule="evenodd"  fill="#BE2C21" >
</path>
<path d="M87.3499 29.3641C87.0517 29.522 86.7398 29.6521 86.4547 29.836C86.3138 29.927 86.2018 30.0311 86.1216 30.1762C86.0816 30.2491 86.0468 30.329 85.9748 30.38C85.8379 30.477 85.8138 30.617 85.8336 30.7692C85.8517 30.899 85.8767 31.0272 85.8997 31.155C85.9158 31.244 85.9688 31.305 86.0448 31.3532C86.2038 31.4532 86.3779 31.4691 86.5559 31.441C86.7568 31.411 86.9377 31.3282 87.0987 31.2032C87.2016 31.123 87.3017 31.0382 87.4088 30.964C87.4749 30.92 87.5279 30.869 87.5746 30.8072C87.7688 30.547 88.0027 30.325 88.2547 30.1232C88.6447 29.81 89.0657 29.5401 89.4696 29.2462C89.7006 29.0781 89.7259 29.0852 89.9526 29.2541C90.0448 29.323 90.1326 29.406 90.2358 29.45C90.6769 29.641 91.1287 29.774 91.6228 29.7071C91.8397 29.677 92.0477 29.6532 92.2178 29.501C92.2518 29.4701 92.2969 29.452 92.3349 29.4262C92.5477 29.2742 92.7669 29.1212 92.9007 28.8921C93.0668 28.6081 93.2709 28.3442 93.3607 28.019C93.4007 27.875 93.5059 27.786 93.6408 27.733C93.7048 27.7081 93.7737 27.6931 93.8406 27.6792C93.9688 27.652 94.0926 27.612 94.2157 27.568C94.5788 27.436 94.4677 27.4371 94.9107 27.4841C94.9566 27.489 95.0017 27.498 95.0476 27.5C95.0777 27.502 95.1148 27.506 95.1386 27.4932C95.2747 27.4161 95.4317 27.4022 95.5729 27.3421C95.7696 27.2571 95.8427 27.1 95.7787 26.8931C95.7466 26.7902 95.6999 26.6902 95.6256 26.6122C95.4167 26.3951 95.1936 26.1952 94.8997 26.0991C94.6219 26.0081 94.3438 25.918 94.0657 25.831C93.7579 25.734 93.4477 25.6411 93.1878 25.4361C93.1578 25.4132 93.1218 25.397 93.0866 25.3811C93.0517 25.365 93.0157 25.3511 92.9786 25.342C92.8757 25.3162 92.8187 25.342 92.7728 25.4361C92.7499 25.484 92.7277 25.535 92.7167 25.5872C92.6787 25.772 92.6929 25.954 92.7618 26.13C92.7898 26.2012 92.8298 26.2701 92.8457 26.344C92.8749 26.4761 92.9588 26.5371 93.0807 26.5671C93.1546 26.585 93.2317 26.598 93.2967 26.6411C93.3488 26.676 93.3576 26.7381 93.3128 26.7772C93.2848 26.8021 93.2527 26.8262 93.2198 26.8441C93.1467 26.886 93.0707 26.9232 92.9976 26.966C92.7499 27.11 92.5157 27.2681 92.3986 27.5482C92.3788 27.5961 92.3408 27.6381 92.3048 27.678C92.2249 27.767 92.1826 27.8711 92.1668 27.9881C92.1537 28.0871 92.1359 28.186 92.1177 28.2841C92.0817 28.4822 91.9729 28.637 91.7977 28.7952C91.7688 28.8221 91.6996 28.8561 91.6256 28.8791C91.3558 28.9621 91.0817 28.9732 90.8067 28.9111C90.7628 28.902 90.7197 28.8811 90.6797 28.8581C90.5867 28.804 90.5607 28.7212 90.6037 28.6231C90.6227 28.5812 90.6488 28.542 90.6769 28.506C90.9127 28.201 91.1588 27.9071 91.4986 27.7112C91.5128 27.7041 91.5247 27.6931 91.5366 27.684C91.8008 27.47 91.8198 27.2571 91.7127 27.0351C91.6968 27.0011 91.6857 26.964 91.6687 26.9291C91.6117 26.8092 91.5638 26.7851 91.4286 26.82C91.2296 26.8721 91.0496 26.966 90.9317 27.1352C90.8328 27.2761 90.6998 27.356 90.5488 27.415C90.4118 27.468 90.2809 27.5292 90.1587 27.6111C90.0827 27.6622 89.9968 27.699 89.9166 27.7452C89.8367 27.79 89.7536 27.8331 89.6808 27.8881C89.5756 27.968 89.4608 28.0281 89.3437 28.0871C89.2547 28.131 89.1598 28.167 89.0767 28.2212C88.6558 28.4902 88.2238 28.741 87.8368 29.0602C87.6877 29.1832 87.5197 29.2731 87.3499 29.3641Z" fill-rule="evenodd"  fill="#BE2C21" >
</path>
<path d="M91.3484 35.0294C91.6815 34.7343 91.9794 34.4012 92.3286 34.1232C92.3646 34.0943 92.3995 34.0622 92.4276 34.0262C92.4497 33.9973 92.4687 33.9593 92.4746 33.9233C92.5095 33.6954 92.3026 33.4893 92.0786 33.5523C91.7764 33.6362 91.4655 33.7093 91.1936 33.8734C90.9187 34.0404 90.6497 34.2164 90.4084 34.4364C90.2367 34.5934 90.1255 34.7754 90.0555 34.9914C89.9855 35.2032 89.9127 35.4143 90.0037 35.6414C90.0195 35.6834 90.0195 35.7313 90.0275 35.7772C90.0737 36.0374 90.1655 36.2812 90.3095 36.5023C90.5556 36.8824 90.7775 37.2793 91.0516 37.5792C91.1897 37.7492 91.2894 37.8862 91.4034 38.0103C91.7107 38.3414 92.0826 38.5852 92.4834 38.7842C92.7246 38.9044 92.9707 39.0132 93.2394 39.0563C93.4826 39.0963 93.7125 39.0674 93.9356 38.9602C94.0436 38.9083 94.1306 38.8443 94.1797 38.7303C94.2006 38.6824 94.2327 38.6362 94.2687 38.5974C94.4566 38.3944 94.6355 38.1824 94.8396 37.9964C95.1236 37.7373 95.3866 37.4644 95.5987 37.1404C95.6936 36.9932 95.8096 36.8543 95.9386 36.7364C96.0885 36.6004 96.2107 36.4453 96.3306 36.2863C96.3586 36.2503 96.3785 36.2083 96.3986 36.1664C96.4034 36.1573 96.3986 36.1352 96.3907 36.1284C96.3816 36.1202 96.3615 36.1162 96.3496 36.1202C96.2665 36.1494 96.2107 36.2143 96.1526 36.2752C96.0505 36.3812 95.9425 36.4773 95.8206 36.5593C95.5786 36.7223 95.3356 36.8844 95.1006 37.0562C94.8515 37.2373 94.5975 37.4094 94.3305 37.5613C94.1437 37.6673 93.9515 37.7643 93.7666 37.8734C93.5614 37.9942 93.3474 38.0123 93.1215 37.9582C92.9395 37.9142 92.7725 37.8354 92.6246 37.7243C92.2425 37.4394 91.8706 37.1412 91.5845 36.7534C91.5114 36.6542 91.4354 36.5584 91.3606 36.4603C91.2214 36.2792 91.1355 36.0782 91.1284 35.8463C91.1256 35.7613 91.1165 35.6774 91.1026 35.5943C91.0774 35.4484 91.1126 35.3183 91.1985 35.2023C91.2435 35.1414 91.2914 35.0793 91.3484 35.0294Z" fill-rule="evenodd"  fill="#BE2C21" >
</path>
<path d="M18.5737 31.106C18.5748 31.0561 18.6307 31.036 18.6738 31.0649C18.6797 31.07 18.6857 31.0739 18.6916 31.079C18.9147 31.2789 19.1358 31.4821 19.3858 31.6491C19.4737 31.7239 19.5429 31.8121 19.5828 31.9189C19.6237 32.0269 19.6996 32.1111 19.7589 32.2061C19.8408 32.3379 19.8198 32.4249 19.6857 32.5029C19.6477 32.5261 19.6047 32.546 19.5619 32.555C19.3186 32.6069 19.0729 32.6259 18.8257 32.584C18.7157 32.565 18.6967 32.5431 18.7086 32.434C18.7217 32.3181 18.7106 32.2109 18.6548 32.108C18.6247 32.055 18.6069 31.996 18.6097 31.9351C18.6176 31.7769 18.5836 31.6219 18.5748 31.4651C18.5677 31.3461 18.5697 31.2259 18.5737 31.106ZM13.2488 31.5479C13.3597 31.754 13.4968 31.9399 13.7128 32.0539C13.9308 32.1701 14.1457 32.292 14.3617 32.413C14.5258 32.5049 14.6829 32.61 14.8127 32.745C15.0137 32.9559 15.2158 33.1679 15.3768 33.4139C15.5197 33.6339 15.6719 33.8479 15.8159 34.0679C15.9517 34.2771 16.1178 34.4599 16.3148 34.6119C16.4917 34.7499 16.6748 34.8809 16.8587 35.0101C17.0138 35.1181 17.1567 35.2369 17.2907 35.369C17.3437 35.4209 17.3968 35.475 17.4557 35.5209C17.5756 35.615 17.7108 35.68 17.8656 35.6899C18.0238 35.7009 18.1808 35.6831 18.3328 35.6391C18.5179 35.5861 18.6327 35.4331 18.6417 35.242C18.6497 35.0731 18.5879 34.935 18.4629 34.823C18.3787 34.7479 18.2956 34.6731 18.2358 34.575C18.1108 34.3701 17.9977 34.1589 17.9166 33.9321C17.8616 33.7771 17.8007 33.624 17.7448 33.4681C17.6967 33.334 17.6468 33.2011 17.6238 33.0599C17.5566 32.6531 17.4866 32.2461 17.4177 31.8399C17.4027 31.7511 17.3888 31.6621 17.3639 31.576C17.2207 31.0861 17.1226 30.585 17.0008 30.09C16.9667 29.952 16.9358 29.8131 16.8797 29.681C16.8528 29.6189 16.8327 29.5551 16.8338 29.4851C16.8338 29.4449 16.8757 29.4131 16.9098 29.4341C17.0067 29.4911 17.1017 29.55 17.1938 29.613C17.4568 29.7961 17.6428 30.052 17.8347 30.3009C17.9657 30.4699 18.0289 30.6669 18.0297 30.8871C18.0317 31.1791 18.0479 31.4711 18.0586 31.763C18.0649 31.9229 18.0448 32.0771 17.9807 32.2251C17.9518 32.2931 17.9317 32.366 17.9288 32.4419C17.9268 32.5199 17.9447 32.5919 17.9937 32.6531C18.0946 32.779 18.3767 32.853 18.5077 32.76C18.6287 32.6749 18.7248 32.69 18.8376 32.7549C18.9017 32.792 18.9737 32.8161 19.0417 32.8479C19.1109 32.881 19.1837 32.9 19.2588 32.8949C19.4258 32.8839 19.5877 32.9179 19.7506 32.9391C19.9666 32.968 20.1826 32.991 20.4006 32.9771C20.4987 32.9709 20.5948 32.9559 20.6847 32.9159C20.7479 32.887 20.8057 32.851 20.8306 32.7841C20.8888 32.627 20.9766 32.4921 21.0846 32.364C21.1776 32.2551 21.2048 32.1089 21.1138 31.9881C20.9358 31.75 20.7986 31.4739 20.5248 31.3191C20.4808 31.2931 20.4448 31.252 20.4049 31.2179C20.2158 31.0581 20.0327 30.8911 19.8368 30.74C19.7237 30.653 19.6129 30.566 19.5128 30.4639C19.2438 30.1921 18.9827 29.912 18.7018 29.6549C18.5227 29.4919 18.4337 29.3009 18.4036 29.0701C18.3957 29.0029 18.3866 28.9341 18.3628 28.8731C18.3118 28.7379 18.2877 28.599 18.2616 28.459C18.2117 28.186 18.1547 27.9139 18.1017 27.642C18.0958 27.6131 18.0927 27.5831 18.0918 27.5539C18.0898 27.5281 18.1338 27.4989 18.1567 27.5119C18.1888 27.5301 18.2197 27.551 18.2508 27.572C18.4799 27.7279 18.6817 27.921 18.9068 28.0811C19.2118 28.298 19.4527 28.5701 19.6806 28.8581C19.7949 29.0021 19.8697 29.1631 19.9168 29.3391C19.9397 29.4259 19.9638 29.5129 19.9888 29.5991C20.0358 29.7649 20.1316 29.8919 20.2787 29.9849C20.4057 30.0651 20.5367 30.136 20.6728 30.2009C20.7717 30.2479 20.8686 30.2621 20.9766 30.244C21.0948 30.2241 21.2159 30.2179 21.3338 30.204C21.4086 30.1949 21.4826 30.185 21.5569 30.1711C21.6839 30.147 21.7698 30.064 21.8338 29.9591C21.9427 29.7799 21.9177 29.4891 21.7817 29.3241C21.6808 29.2011 21.5506 29.1109 21.4248 29.001C21.2227 28.8459 21.0316 28.669 20.9216 28.4199C20.9038 28.379 20.8788 28.3391 20.8477 28.307C20.7246 28.1789 20.6886 28.023 20.6898 27.8529C20.6917 27.553 20.7226 27.254 20.7578 26.9569C20.7637 26.9059 20.7827 26.8551 20.8017 26.8069C20.8207 26.759 20.8638 26.7471 20.9128 26.7701C21.0087 26.814 21.0897 26.8801 21.1708 26.9481C21.3247 27.0799 21.4517 27.2409 21.6048 27.371C21.7927 27.532 21.9739 27.699 22.1527 27.8699C22.4736 28.1741 22.8058 28.4661 23.1287 28.768C23.3648 28.9879 23.5939 29.2141 23.8237 29.4409C24.0627 29.6779 24.2917 29.9259 24.5386 30.1561C24.9018 30.496 25.2147 30.8749 25.4746 31.299C25.4976 31.337 25.5268 31.373 25.5588 31.4039C25.8667 31.699 26.2346 31.733 26.6266 31.636C26.7477 31.606 26.8208 31.5119 26.8137 31.386C26.8018 31.142 26.7528 30.907 26.5427 30.7451C26.3038 30.56 26.1258 30.316 25.9137 30.1051C25.8239 30.0149 25.7337 29.9231 25.6609 29.819C25.5758 29.7 25.4718 29.6101 25.3477 29.535C25.2397 29.469 25.1248 29.412 25.0387 29.3139C24.8448 29.0931 24.6169 28.91 24.3946 28.72C24.0928 28.4621 23.7988 28.1971 23.5457 27.8881C23.4567 27.7781 23.3487 27.684 23.2418 27.5899C22.9368 27.3231 22.6287 27.0601 22.3548 26.761C22.2077 26.6009 22.0609 26.441 21.9098 26.2851C21.6907 26.058 21.4718 25.833 21.2468 25.6119C21.1376 25.5061 21.1008 25.391 21.1527 25.247C21.2088 25.0911 21.2329 24.9279 21.2658 24.766C21.2879 24.656 21.3137 24.546 21.3477 24.4389C21.4058 24.26 21.4888 24.095 21.6226 23.955C21.7686 23.8031 21.8766 23.6219 21.9889 23.4439C22.0328 23.3759 22.0597 23.2951 22.0838 23.2169C22.1527 22.9929 21.9529 22.7171 21.6878 22.748C21.5039 22.769 21.3386 22.8331 21.1946 22.947C21.1226 23.0031 21.0668 23.0751 21.0427 23.1661C20.9948 23.3541 20.9188 23.5349 20.8868 23.728C20.8768 23.7869 20.8638 23.847 20.8389 23.9C20.7037 24.2019 20.6059 24.516 20.5038 24.8301C20.4916 24.8649 20.4797 24.9009 20.4627 24.9341C20.4468 24.965 20.4157 24.9729 20.3887 24.9531C20.3108 24.8941 20.2317 24.8349 20.1778 24.753C20.0786 24.6019 19.9326 24.5129 19.7827 24.4261C19.7039 24.3799 19.6177 24.3581 19.5247 24.364C19.3226 24.3751 19.1208 24.3839 18.9187 24.3961C18.8818 24.3981 18.8419 24.4 18.8078 24.4131C18.7038 24.4531 18.6327 24.5279 18.6108 24.6399C18.5907 24.7411 18.6468 24.8099 18.7197 24.87C18.7849 24.9239 18.8597 24.9579 18.9377 24.984C19.1228 25.0441 19.2688 25.1609 19.3906 25.3049C19.5556 25.4999 19.7217 25.6921 19.9176 25.8571C20.0848 25.9971 20.1336 26.1751 20.0766 26.3829C20.0279 26.5649 20.0077 26.7511 19.9919 26.9379C19.9698 27.1851 19.9448 27.4311 19.9199 27.6769C19.9156 27.7211 19.9068 27.7659 19.8958 27.8079C19.8859 27.843 19.8297 27.862 19.8028 27.839C19.7336 27.7809 19.6628 27.7251 19.6027 27.659C19.3708 27.4039 19.1216 27.165 18.8747 26.924C18.7106 26.763 18.5329 26.636 18.2968 26.606C18.2449 26.6 18.1947 26.5819 18.1437 26.568C18.0499 26.5411 17.9557 26.5229 17.8568 26.5459C17.7568 26.5691 17.6638 26.5351 17.5756 26.4889C17.4597 26.428 17.3956 26.3361 17.4027 26.1989C17.4067 26.1099 17.4038 26.02 17.4047 25.9299C17.4067 25.6079 17.3968 25.285 17.4549 24.965C17.5056 24.6849 17.5467 24.4029 17.5708 24.1191C17.5768 24.0369 17.5918 23.955 17.6116 23.8751C17.6527 23.707 17.7069 23.5451 17.8407 23.421C17.9138 23.3541 17.9608 23.2639 17.9847 23.1701C18.0328 22.9819 18.0697 22.79 18.1048 22.5989C18.1238 22.4969 18.0907 22.4059 18.0127 22.3339C17.9297 22.2579 17.8458 22.1839 17.7627 22.108C17.6848 22.0351 17.5938 22.0181 17.4917 22.0419C17.3976 22.0649 17.3018 22.0839 17.2077 22.106C17.1708 22.115 17.1328 22.1241 17.1017 22.142C16.9256 22.242 16.7496 22.3421 16.5767 22.4461C16.4848 22.5 16.4168 22.5811 16.3488 22.661C16.3097 22.708 16.2816 22.7611 16.2649 22.8189C16.2246 22.9541 16.2456 23.0729 16.3627 23.161C16.4279 23.2109 16.4948 23.2611 16.5656 23.3011C16.7057 23.379 16.7887 23.493 16.8278 23.648C16.8936 23.9179 16.9557 24.188 16.9636 24.4669C16.9687 24.6101 16.9679 24.7541 16.9937 24.893C17.0308 25.0931 17.0526 25.293 17.0728 25.4951C17.1088 25.8559 17.0898 26.2131 17.0067 26.566C16.9917 26.6329 16.9806 26.7009 17.0087 26.765C17.1127 27.0071 17.2528 27.214 17.5388 27.2639C17.5756 27.2701 17.6116 27.28 17.6468 27.2931C17.7817 27.339 17.8597 27.428 17.8597 27.5751C17.8588 27.7631 17.8877 27.949 17.9118 28.135C17.9368 28.3289 17.9348 28.5239 17.9146 28.7181C17.9059 28.804 17.8466 28.8289 17.7746 28.7799C17.7556 28.7671 17.7397 28.7521 17.7227 28.7371C17.4719 28.512 17.2199 28.2869 16.9707 28.059C16.8638 27.9609 16.7728 27.8379 16.7689 27.6939C16.7638 27.4739 16.6898 27.269 16.6736 27.051C16.6578 26.8259 16.5458 26.6391 16.3278 26.5331C16.2337 26.488 16.1419 26.4359 16.0477 26.3911C15.9137 26.3259 15.8349 26.3389 15.7237 26.4441C15.6957 26.4691 15.6707 26.4971 15.6478 26.5269C15.5347 26.6689 15.4536 26.6459 15.3178 26.56C15.2988 26.5479 15.2818 26.5331 15.2648 26.5189C15.0108 26.2959 14.7608 26.0699 14.5579 25.797C14.4958 25.7131 14.4218 25.6379 14.3487 25.5631C14.2509 25.4619 14.1267 25.4109 13.9867 25.4021C13.8818 25.395 13.7766 25.393 13.6737 25.4171C13.4016 25.4809 13.3699 25.5509 13.4818 25.7879C13.4949 25.8151 13.5076 25.842 13.5238 25.867C13.7137 26.174 13.9226 26.4651 14.1947 26.706C14.3798 26.8699 14.5579 27.0439 14.7478 27.2021C14.9867 27.4019 15.1718 27.642 15.3309 27.9091C15.4168 28.0539 15.4397 28.201 15.4128 28.3609C15.3918 28.487 15.3518 28.6089 15.3008 28.726C15.2419 28.8629 15.1758 28.9981 15.1149 29.1339C15.0868 29.196 15.0619 29.2581 15.0417 29.3221C15.0247 29.374 15.0267 29.4321 15.0607 29.4741C15.1319 29.56 15.2078 29.643 15.2878 29.7221C15.3198 29.7541 15.3697 29.757 15.4156 29.7479C15.5707 29.715 15.7288 29.715 15.8856 29.7099C16.0007 29.7059 16.1067 29.683 16.2088 29.6271C16.2878 29.584 16.3729 29.554 16.4639 29.5441C16.6067 29.5271 16.6677 29.5619 16.6858 29.7C16.7278 30.028 16.8188 30.346 16.8757 30.6711C16.9667 31.1879 17.0657 31.7029 17.1586 32.22C17.1796 32.3371 17.2009 32.4561 17.2077 32.576C17.2238 32.83 17.2598 33.082 17.3026 33.3329C17.3497 33.6061 17.3746 33.8831 17.4038 34.1589C17.4138 34.2649 17.3698 34.2981 17.2698 34.274C17.0858 34.232 16.9489 34.1189 16.8318 33.978C16.7646 33.897 16.7017 33.8119 16.6269 33.7399C16.4956 33.6149 16.3837 33.4749 16.2748 33.3309C16.0398 33.0219 15.8187 32.701 15.5228 32.44C15.3008 32.2421 15.2277 31.9751 15.2597 31.6831C15.2728 31.564 15.2487 31.462 15.1928 31.3611C15.0848 31.1689 14.9728 30.9849 14.7478 30.907C14.7138 30.8951 14.6848 30.867 14.6537 30.846C14.5749 30.791 14.4887 30.774 14.3977 30.8021C14.1726 30.873 13.9416 30.8871 13.7089 30.8871C13.5467 30.8871 13.4158 30.971 13.3208 31.087C13.2128 31.2191 13.1607 31.3829 13.2488 31.5479Z" fill-rule="evenodd"  fill="#BE2C21" >
</path>
<path d="M11.3125 29.2742C11.4193 29.3233 11.5293 29.3303 11.6413 29.3133C11.9222 29.2722 12.1753 29.3454 12.4095 29.4962C12.4534 29.5242 12.4982 29.5523 12.5385 29.5852C12.6073 29.6413 12.6805 29.6334 12.7474 29.5923C12.7973 29.5614 12.8463 29.5223 12.8823 29.4763C12.9432 29.3984 13.0172 29.3403 13.1023 29.2892C13.2913 29.1742 13.3514 29.0052 13.2894 28.7892C13.2644 28.7033 13.2293 28.6174 13.2213 28.5293C13.2035 28.3212 13.0955 28.1653 12.9413 28.0142C12.6805 27.7812 12.5373 27.7832 12.2833 27.8912C12.1254 27.9584 11.9633 28.0154 11.8023 28.0774C11.6903 28.1202 11.5803 28.1662 11.4823 28.2382C11.4332 28.2742 11.3845 28.3093 11.3584 28.3643C11.3184 28.4474 11.2563 28.5123 11.2002 28.5823C11.1444 28.6543 11.1024 28.7322 11.0814 28.8212C11.0352 29.0282 11.1194 29.1863 11.3125 29.2742Z" fill-rule="evenodd"  fill="#BE2C21" >
</path>
<path d="M83.3981 18.2945C83.5211 18.0445 83.643 17.7925 83.734 17.5275C83.7601 17.4515 83.8202 17.3866 83.8902 17.2766C83.9211 17.2066 84.0089 17.1266 84.1062 17.0515C84.255 16.9376 84.401 16.8174 84.5481 16.6995C84.6209 16.6416 84.7071 16.6124 84.7961 16.5926C85.1771 16.5056 85.5601 16.5124 85.9442 16.5645C85.966 16.5674 85.987 16.5776 86.0071 16.5875C86.0351 16.6005 86.0479 16.6674 86.0249 16.6875C85.7982 16.8806 85.5569 17.0444 85.2471 17.0705C85.119 17.0816 84.9911 17.0946 84.8642 17.0606C84.7241 17.0235 84.613 17.0714 84.518 17.1726C84.4239 17.2706 84.331 17.3696 84.278 17.4985C84.23 17.6145 84.2459 17.6746 84.3519 17.7505C84.4069 17.7894 84.4682 17.8206 84.5231 17.8605C84.5711 17.8954 84.5781 17.9566 84.5359 17.9986C84.494 18.0414 84.4472 18.0794 84.3981 18.1125C84.348 18.1465 84.293 18.1726 84.2391 18.2004C84.09 18.2775 83.9919 18.3895 83.963 18.5624C83.9219 18.8104 83.81 18.8325 83.6149 18.7296C83.5809 18.7126 83.5441 18.7004 83.514 18.6786C83.3609 18.5604 83.313 18.4666 83.3981 18.2945ZM77.121 18.7106C77.2171 18.7764 77.3169 18.7826 77.4221 18.7336C77.5119 18.6905 77.5902 18.6315 77.6579 18.5595C77.7421 18.4725 77.8291 18.3875 77.906 18.2945C78.0171 18.1635 78.154 18.0774 78.3141 18.0184C78.669 17.8846 79.035 17.8554 79.4092 17.8866C79.9701 17.9325 80.5169 18.0504 81.0501 18.2234C81.6471 18.4164 82.237 18.6335 82.8292 18.8416C82.9139 18.8714 82.999 18.9065 83.0769 18.9524C83.3751 19.1316 83.6699 19.3164 83.9681 19.4964C84.2269 19.6526 84.456 19.8536 84.7281 19.9916C84.8769 20.0676 85.007 20.1716 85.136 20.2765C85.225 20.3474 85.3171 20.4145 85.401 20.4894C85.547 20.6215 85.7072 20.7385 85.8279 20.8964C85.8651 20.9455 85.9031 21.0064 85.871 21.0625C85.8401 21.1184 85.769 21.1204 85.7072 21.1175C85.67 21.1164 85.6321 21.1096 85.5949 21.1025C85.483 21.0835 85.371 21.0665 85.2602 21.0424C84.9991 20.9866 84.7321 21.0146 84.469 20.9806C84.4409 20.9775 84.41 20.9866 84.3811 20.9954C84.338 21.0075 84.3199 21.0716 84.3451 21.1076C84.378 21.1535 84.4239 21.1796 84.4761 21.1915C84.5271 21.2034 84.5801 21.2094 84.6331 21.2136C84.6961 21.2184 84.7499 21.2295 84.7851 21.2924C84.829 21.3704 84.9061 21.4016 84.99 21.4194C85.079 21.4395 85.166 21.4676 85.2559 21.4815C85.638 21.5396 85.9759 21.7035 86.2971 21.9095C86.373 21.9586 86.447 22.0116 86.523 22.0606C86.688 22.1655 86.8671 22.2194 87.063 22.1955C87.381 22.1564 87.5531 21.8506 87.425 21.5566C87.3161 21.3046 87.1781 21.0716 86.974 20.8825C86.813 20.7334 86.652 20.5855 86.4901 20.4375C86.3382 20.2986 86.157 20.2034 85.9802 20.1005C85.5431 19.8456 85.134 19.5426 84.662 19.3476C84.5339 19.2946 84.5121 19.2084 84.581 19.0925C84.632 19.0086 84.6941 18.9306 84.7431 18.8456C84.8749 18.6114 85.062 18.4255 85.2551 18.2446C85.3631 18.1434 85.4801 18.1304 85.6091 18.1925C85.7389 18.2545 85.8671 18.3195 85.998 18.3795C86.066 18.4116 86.1361 18.4394 86.2081 18.4615C86.269 18.4796 86.328 18.4694 86.3762 18.4215C86.4079 18.3886 86.4419 18.3586 86.472 18.3246C86.546 18.2426 86.555 18.1494 86.5119 18.0504C86.4822 17.9804 86.436 17.9206 86.3849 17.8645C86.303 17.7746 86.2211 17.6856 86.146 17.5904C86.0831 17.5104 86.085 17.4725 86.1491 17.3886C86.269 17.2295 86.4209 17.1045 86.5811 16.9894C86.6491 16.9404 86.7319 16.9234 86.8169 16.9174C86.9981 16.9035 87.1801 16.9004 87.3609 16.9155C87.4851 16.9254 87.5982 16.9594 87.6931 17.0444C87.732 17.0784 87.7759 17.1125 87.823 17.1334C87.9851 17.2086 88.154 17.1116 88.1679 16.9356C88.181 16.7734 88.145 16.6195 88.069 16.4755C87.997 16.3414 87.895 16.2496 87.7371 16.2286C87.662 16.2184 87.588 16.2014 87.5151 16.1824C87.3791 16.1475 87.3671 16.1135 87.459 15.9984C87.5151 15.9284 87.58 15.8635 87.6441 15.8006C87.749 15.6966 87.821 15.5735 87.8471 15.4275C87.874 15.2796 87.851 15.1415 87.747 15.0245C87.677 14.9445 87.601 14.9434 87.5409 15.0256C87.5231 15.0505 87.5092 15.0775 87.495 15.1035C87.453 15.1855 87.3949 15.2555 87.33 15.3195C87.131 15.5166 86.9269 15.7076 86.7342 15.9106C86.618 16.0336 86.4861 16.0724 86.3251 16.0424C86.303 16.0384 86.2801 16.0384 86.258 16.0344C86.0332 15.9965 85.8081 15.9834 85.5799 16.0095C85.513 16.0174 85.4441 16.0095 85.3761 16.0016C85.3069 15.9925 85.2701 15.9446 85.278 15.8734C85.2871 15.8065 85.3049 15.7405 85.3211 15.6744C85.3769 15.4474 85.437 15.2206 85.4889 14.9924C85.5201 14.8595 85.532 14.7234 85.5141 14.5865C85.5051 14.5185 85.4932 14.4516 85.458 14.3915C85.4192 14.3235 85.3631 14.3135 85.316 14.3745C85.2369 14.4774 85.1459 14.5664 85.0331 14.6316C84.8571 14.7336 84.7281 14.8824 84.6311 15.0554C84.4449 15.3845 84.2479 15.7065 84.0401 16.0234C83.9761 16.1215 83.9021 16.2014 83.8091 16.2686C83.7051 16.3434 83.5959 16.4126 83.4919 16.4886C83.302 16.6294 83.1299 16.7955 83.0239 17.0056C82.887 17.2755 82.7869 17.5615 82.7869 17.8736C82.7869 17.9634 82.775 18.0544 82.76 18.1434C82.741 18.2565 82.6971 18.2815 82.584 18.2565C82.5551 18.2494 82.525 18.2404 82.4969 18.2296C81.722 17.9215 80.9212 17.7015 80.1122 17.5034C79.6612 17.3925 79.2071 17.3285 78.7422 17.3435C78.69 17.3446 78.6251 17.3704 78.5939 17.3185C78.5531 17.2494 78.605 17.1904 78.6469 17.1366C78.6571 17.1244 78.6659 17.1125 78.677 17.1025C78.8201 16.9724 78.885 16.7876 79.0021 16.6394C79.0302 16.6045 78.995 16.5526 78.946 16.5416C78.8901 16.5285 78.8411 16.5484 78.796 16.5756C78.7371 16.6096 78.686 16.6666 78.624 16.6836C78.4202 16.7386 78.2951 16.8874 78.1662 17.0354C78.1511 17.0524 78.1341 17.0685 78.1211 17.0864C78.0451 17.1904 77.94 17.2434 77.8161 17.2655C77.7489 17.2774 77.6831 17.2964 77.6171 17.3146C77.4671 17.3545 77.3691 17.4515 77.3129 17.5946C77.2492 17.7565 77.1811 17.9164 77.121 18.0794C77.087 18.1715 77.0581 18.2656 77.0351 18.3614C77.0221 18.4195 77.0221 18.4816 77.0221 18.5414C77.023 18.6145 77.0609 18.6695 77.121 18.7106Z" fill-rule="evenodd"  fill="#BE2C21" >
</path>
<path d="M80.6967 22.8583C80.6057 22.9283 80.5637 23.0201 80.5266 23.1191C80.5028 23.1831 80.4826 23.2483 80.4376 23.3011C80.1827 23.6021 79.9086 23.8833 79.5846 24.1123C79.5668 24.1251 79.5486 24.1393 79.5285 24.1492C79.4375 24.1971 79.3556 24.1911 79.2725 24.1302C79.1217 24.0052 79.0268 23.8422 78.9916 23.6511C78.9497 23.4283 78.9137 23.2033 78.8927 22.9771C78.8785 22.8393 78.8516 22.7092 78.7946 22.5842C78.7546 22.4943 78.7206 22.4011 78.7317 22.2993C78.7365 22.2571 78.7558 22.2273 78.7997 22.2233C78.8527 22.2182 78.9057 22.2151 78.9576 22.2191C79.1847 22.2372 79.4117 22.2483 79.6357 22.2812C79.7986 22.3052 79.9628 22.3483 80.1025 22.4453C80.1598 22.4852 80.2255 22.5011 80.2896 22.5221C80.4126 22.5612 80.5365 22.5961 80.6567 22.6412C80.7556 22.6791 80.7806 22.7931 80.6967 22.8583ZM82.2815 21.0163C82.3717 21.0203 82.4638 21.0353 82.5525 21.0152C82.8476 20.9483 83.1427 20.8803 83.4366 20.8103C83.5818 20.7751 83.6708 20.6762 83.7175 20.5393C83.7365 20.4823 83.7507 20.4222 83.7586 20.3621C83.7745 20.2343 83.7377 20.1203 83.6376 20.0361C83.4996 19.9193 83.3638 19.7991 83.2096 19.7002C83.1245 19.6452 83.0386 19.6101 82.9338 19.6183C82.7277 19.6322 82.5287 19.5882 82.3277 19.5503C82.0156 19.4902 81.7356 19.3722 81.5057 19.1472C81.4578 19.1001 81.3985 19.0613 81.3396 19.0292C81.1868 18.9473 81.0836 19.0043 81.0808 19.1732C81.0788 19.2642 81.0847 19.3552 81.0958 19.4451C81.1207 19.6472 81.1987 19.8232 81.3645 19.9522C81.3997 19.9803 81.4376 20.0083 81.4657 20.0432C81.5527 20.1543 81.6738 20.1872 81.8056 20.1971C81.8807 20.2022 81.9567 20.2062 82.0318 20.2141C82.0528 20.2172 82.0746 20.2331 82.0717 20.2603C82.0698 20.2731 82.0627 20.2912 82.0528 20.2983C81.9626 20.3573 81.8617 20.3933 81.7565 20.4092C81.5646 20.4381 81.3937 20.5072 81.2437 20.6322C81.2267 20.6473 81.2046 20.6541 81.1856 20.6671C80.8775 20.8681 80.7786 21.2023 80.9266 21.5371C80.9387 21.5651 80.9538 21.5912 80.9637 21.6201C80.9827 21.6692 81.0045 21.7261 80.9586 21.7672C80.9146 21.8052 80.8565 21.7871 80.8066 21.7692C80.7718 21.7562 80.7386 21.7363 80.7057 21.7182C80.6176 21.6711 80.5246 21.6473 80.4237 21.6442C80.1958 21.6371 79.9696 21.5963 79.7536 21.5303C79.2476 21.3752 78.7345 21.4381 78.2217 21.4483C78.2146 21.4483 78.2067 21.4512 78.1996 21.4512C78.0786 21.4563 77.9998 21.5203 77.9646 21.6323C77.8887 21.8713 77.8317 22.1131 77.9187 22.3651C77.9587 22.4801 77.9757 22.6003 77.9346 22.7211C77.9057 22.8053 77.9207 22.8852 77.9638 22.9612C78.0517 23.1131 78.0936 23.2832 78.1577 23.4451C78.2336 23.6372 78.2657 23.8362 78.2566 24.0443C78.2467 24.2793 78.2586 24.5132 78.2966 24.7453C78.3147 24.8561 78.3626 24.9452 78.4516 25.0123C78.5545 25.0903 78.6577 25.1663 78.7617 25.2411C78.9145 25.3522 79.0886 25.3973 79.2757 25.3902C79.6436 25.3772 79.9786 25.2533 80.2516 25.0123C80.5116 24.7833 80.7485 24.5262 80.9325 24.2263C81.0867 23.9743 81.2466 23.7271 81.4257 23.4921C81.4807 23.4193 81.5397 23.3512 81.6165 23.3011C81.7288 23.2291 81.7727 23.2282 81.8835 23.3062C82.1117 23.4683 82.3376 23.6333 82.5667 23.7943C82.6415 23.8473 82.7127 23.9012 82.7597 23.9831C82.7855 24.0293 82.8246 24.0661 82.8765 24.0851C83.0007 24.1302 83.2416 24.0712 83.3147 23.9652C83.3867 23.8592 83.4517 23.7452 83.4797 23.6191C83.5137 23.4643 83.4936 23.3203 83.3856 23.1931C83.3156 23.1111 83.2388 23.0403 83.1537 22.9762C83.0335 22.8852 82.9105 22.7971 82.7878 22.7083C82.7878 22.7083 82.7878 22.7092 82.7866 22.7103C82.6407 22.6032 82.4927 22.4972 82.3476 22.3883C82.2807 22.3381 82.2277 22.2732 82.1897 22.1981C82.0445 21.9183 81.9598 21.6232 81.9657 21.3052C81.9706 21.0552 82.0227 21.0033 82.2815 21.0163Z" fill-rule="evenodd"  fill="#BE2C21" >
</path>
<path d="M82.3419 17.2882C82.3578 17.3211 82.3768 17.3551 82.4008 17.3832C82.4278 17.4152 82.4677 17.4251 82.4998 17.3942C82.6857 17.219 82.8808 17.0541 82.9587 16.7921C82.9998 16.6561 83.071 16.5291 83.1359 16.401C83.2237 16.2312 83.34 16.0911 83.5268 16.0101C83.6708 15.948 83.8017 15.8542 83.9378 15.7731C83.9837 15.745 84.0019 15.694 83.9639 15.662C83.8788 15.5891 83.8927 15.5072 83.9097 15.4151C83.9559 15.1622 83.9979 14.9091 84.0387 14.656C84.0608 14.521 84.0659 14.385 84.0197 14.2532C84.0007 14.1962 83.9769 14.14 83.9248 14.1032C83.8559 14.051 83.7629 14.0502 83.6937 14.106C83.6597 14.1341 83.6288 14.169 83.6019 14.205C83.4868 14.3541 83.376 14.5071 83.2609 14.656C83.1758 14.7651 83.1129 14.8822 83.0797 15.0171C83.0307 15.2172 82.9349 15.3972 82.8269 15.571C82.783 15.641 82.7419 15.7141 82.6979 15.783C82.5397 16.031 82.4198 16.3032 82.2299 16.5311C82.2109 16.554 82.1939 16.5801 82.1809 16.607C82.0839 16.8131 82.061 16.992 82.2367 17.1422C82.2849 17.1822 82.315 17.2332 82.3419 17.2882Z" fill-rule="evenodd"  fill="#BE2C21" >
</path>
<path d="M32.6477 16.628C32.8929 16.7559 33.1477 16.804 33.4179 16.689C33.5797 16.6209 33.7498 16.575 33.9267 16.56C34.0347 16.5501 34.0798 16.581 34.1149 16.6839C34.145 16.7709 34.1489 16.863 34.1529 16.9551C34.1569 17.0609 34.1557 17.17 34.1787 17.2729C34.2147 17.4379 34.1957 17.5909 34.1308 17.7429C33.9789 18.0941 33.7918 18.4249 33.5868 18.748C33.4927 18.8969 33.3827 19.0321 33.2518 19.1511C33.1667 19.228 33.0888 19.3119 33.0128 19.398C32.9689 19.4491 32.9298 19.5069 32.8977 19.567C32.851 19.656 32.8838 19.7101 32.9887 19.7229C33.0338 19.7291 33.0797 19.7311 33.1259 19.7291C33.3317 19.7189 33.535 19.688 33.732 19.622C33.893 19.5681 34.0548 19.5009 34.1699 19.381C34.2997 19.2461 34.4437 19.1421 34.6039 19.0539C34.6368 19.0349 34.6648 19.0091 34.6957 18.985C35.0577 18.7069 35.4027 18.4031 35.803 18.1749C35.8288 18.1599 35.8528 18.14 35.8758 18.1199C36.3699 17.712 36.881 17.327 37.4317 16.996C37.6327 16.8741 37.7878 16.6941 37.8408 16.4639C37.889 16.255 37.8609 16.037 37.7889 15.832C37.7328 15.6719 37.6188 15.5829 37.4408 15.5931C37.1018 15.6129 36.775 15.6739 36.485 15.8661C36.396 15.9259 36.3058 15.9831 36.1998 16.0101C36.1048 16.0339 36.0808 16.0271 36.0309 15.9449C36.0147 15.9191 35.9968 15.893 35.9869 15.8641C35.8959 15.6121 35.8109 15.3589 35.8789 15.084C35.945 14.8189 35.9229 14.5539 35.8778 14.2889C35.8517 14.1321 35.7879 13.9989 35.6629 13.8971C35.6099 13.8529 35.5597 13.8061 35.5107 13.7591C35.2919 13.551 35.3627 13.553 35.0419 13.5221C34.9959 13.5181 34.9528 13.498 34.9078 13.4909C34.8018 13.475 34.6969 13.4589 34.5909 13.4501C34.5138 13.443 34.4338 13.4481 34.3669 13.485C34.1917 13.5791 34.0058 13.6661 33.8808 13.8231C33.7237 14.019 33.5568 14.2069 33.4227 14.4221C33.245 14.709 33.1129 15.0171 32.9728 15.3221C32.9119 15.457 32.8359 15.5749 32.7339 15.681C32.6599 15.7569 32.5848 15.808 32.472 15.7751C32.3597 15.743 32.2829 15.798 32.222 15.889C32.1448 16.003 32.1397 16.113 32.2129 16.2309C32.3217 16.4029 32.4708 16.535 32.6477 16.628Z" fill-rule="evenodd"  fill="#BE2C21" >
</path>
<path d="M28.0408 18.5465C27.9039 18.6386 27.8949 18.7676 27.9918 18.9045C28.0139 18.9357 28.0357 18.9686 28.0658 18.9915C28.2027 19.0947 28.3008 19.2297 28.3909 19.3717C28.4159 19.4105 28.4468 19.4457 28.4788 19.4777C28.6078 19.6035 28.6888 19.7555 28.7478 19.9247C28.7929 20.0537 28.8249 20.1895 28.9037 20.3046C29.0029 20.4517 29.0619 20.6166 29.1228 20.7816C29.2028 20.9956 29.2688 21.2156 29.3867 21.4146C29.6288 21.8217 29.88 22.2236 30.0999 22.6426C30.1597 22.7585 30.2309 22.8665 30.3168 22.9646C30.4078 23.0686 30.4959 23.1735 30.581 23.2815C30.6657 23.3915 30.7408 23.5066 30.7009 23.6596C30.6799 23.7365 30.7238 23.7906 30.782 23.8345C30.8058 23.8527 30.8318 23.8705 30.8599 23.8805C31.0637 23.9547 31.2389 24.0775 31.4189 24.1937C31.4898 24.2396 31.5637 24.2787 31.6499 24.2895C31.7627 24.3057 31.8758 24.3215 31.9889 24.3405C32.1088 24.3615 32.1998 24.3246 32.2528 24.2127C32.2829 24.1506 32.3129 24.0885 32.3348 24.0236C32.402 23.8195 32.4258 23.6066 32.4589 23.3957C32.4649 23.3586 32.4629 23.3155 32.4479 23.2826C32.3889 23.1426 32.3937 23.0006 32.4139 22.8546C32.4229 22.7956 32.4139 22.7327 32.4088 22.6726C32.4028 22.5887 32.3858 22.5045 32.3878 22.4215C32.3949 22.1145 32.3557 21.8117 32.3217 21.5087C32.2948 21.2666 32.2149 21.0506 32.0317 20.8806C31.9918 20.8437 31.9668 20.7975 31.9578 20.7425C31.949 20.6895 31.9399 20.6365 31.9297 20.5846C31.8509 20.2107 31.7469 19.8445 31.5799 19.5055C31.553 19.4607 31.5289 19.4216 31.5048 19.3827C31.4949 19.3666 31.4798 19.3615 31.466 19.3737C31.4557 19.3827 31.445 19.3966 31.4438 19.4085C31.4399 19.7127 31.4538 20.0157 31.4438 20.3196C31.4339 20.6096 31.5099 20.8967 31.4988 21.1875C31.4977 21.1946 31.5 21.2026 31.502 21.2097C31.5688 21.3726 31.5467 21.5396 31.5309 21.7066C31.5218 21.7976 31.5119 21.8917 31.5229 21.9815C31.5479 22.1836 31.4597 22.3537 31.3897 22.5306C31.3667 22.5887 31.3049 22.5927 31.2619 22.5405C31.2037 22.4705 31.1547 22.3917 31.0918 22.3265C30.744 21.9676 30.4648 21.5566 30.1898 21.1445C30.0217 20.8905 29.8709 20.6246 29.6767 20.3876C29.6478 20.3525 29.6229 20.3105 29.6098 20.2677C29.5429 20.0355 29.5188 19.8037 29.63 19.5746C29.6688 19.4927 29.7059 19.4077 29.7348 19.3215C29.7759 19.2027 29.7878 19.0766 29.7337 18.9626C29.63 18.7446 29.486 18.5536 29.2569 18.4586C29.1169 18.3997 28.9658 18.3606 28.817 18.3345C28.5278 18.2837 28.2727 18.3895 28.0408 18.5465Z" fill-rule="evenodd"  fill="#BE2C21" >
</path>
<path d="M27.6301 16.2893C27.6531 16.2924 27.676 16.2955 27.6993 16.2944C27.8691 16.2864 28.0332 16.3193 28.1962 16.3644C28.3011 16.3933 28.4043 16.3854 28.5123 16.3675C28.7061 16.3355 28.862 16.2184 29.0231 16.1603C29.1441 16.0923 29.1682 16.0543 29.1441 15.9755C29.065 15.7215 28.9922 15.4655 28.8691 15.2263C28.7813 15.0545 28.6262 14.9675 28.4371 15.0134C28.1831 15.0735 27.9272 15.1044 27.6661 15.1075C27.5442 15.1095 27.422 15.1183 27.3033 15.1483C27.242 15.1634 27.1842 15.1815 27.1443 15.2325C27.0782 15.3164 27.0062 15.3964 26.9512 15.4874C26.867 15.6274 26.8852 15.7955 26.9821 15.9174C27.0652 16.0194 27.5011 16.2714 27.6301 16.2893Z" fill-rule="evenodd"  fill="#BE2C21" >
</path>
<path d="M59.3033 13.1037C59.4144 13.2936 59.5533 13.4606 59.7174 13.6066C59.7824 13.6647 59.8595 13.6967 59.9414 13.7035C60.1874 13.7225 60.4304 13.7775 60.6812 13.7526C60.8524 13.7355 61.0273 13.7537 61.1994 13.7395C61.6833 13.7015 62.1592 13.7925 62.6383 13.8285C62.9373 13.8506 63.2352 13.8977 63.5354 13.9187C63.7684 13.9345 64.0023 13.9345 64.2333 13.9615C64.5613 14.0006 64.8884 14.0567 65.2152 14.1046C65.2444 14.1097 65.2753 14.1137 65.3034 14.1225C65.4395 14.1695 65.4984 14.2546 65.4774 14.3986C65.4653 14.4876 65.4434 14.5766 65.4103 14.6596C65.3094 14.9125 65.2512 15.1775 65.1812 15.4256C65.0942 15.7507 65.0154 16.0645 64.8615 16.3525C64.8073 16.4526 64.7643 16.5557 64.7353 16.6657C64.7223 16.7156 64.7025 16.7655 64.6744 16.8086C64.6305 16.8786 64.5443 16.8897 64.4774 16.8395C64.4544 16.8216 64.4323 16.7995 64.4153 16.7757C64.2875 16.5997 64.1562 16.4256 64.0343 16.2436C63.8753 16.0067 63.7242 15.7637 63.5714 15.5225C63.5014 15.4125 63.4923 15.3045 63.5655 15.1855C63.7013 14.9646 63.7072 14.7155 63.6964 14.4646C63.6953 14.4357 63.6874 14.4057 63.6763 14.3776C63.6284 14.2566 63.5113 14.2177 63.4014 14.2877C63.3634 14.3115 63.3274 14.3405 63.2942 14.3705C63.1964 14.4595 63.0813 14.4737 62.9574 14.4476C62.9203 14.4405 62.8863 14.4227 62.8494 14.4156C62.6782 14.3835 62.5203 14.4176 62.3783 14.5176C62.3055 14.5695 62.2885 14.6055 62.3313 14.6886C62.3843 14.7895 62.3574 14.8586 62.2774 14.9227C62.2482 14.9465 62.2193 14.9706 62.1893 14.9936C62.0294 15.1126 61.9143 15.2697 61.8193 15.4426C61.7493 15.5727 61.7153 15.7056 61.7734 15.8525C61.7972 15.9145 61.7992 15.9846 61.8114 16.0517C61.8273 16.1345 61.8502 16.1606 61.9285 16.1566C62.1864 16.1427 62.4373 16.1107 62.6363 15.9145C62.7692 15.7836 62.9104 15.6577 63.0564 15.5395C63.2123 15.4117 63.2775 15.4295 63.3685 15.6056C63.3713 15.6126 63.3753 15.6186 63.3784 15.6257C63.5054 15.9726 63.6953 16.2915 63.8112 16.6425C63.8793 16.8497 63.9533 17.0546 64.0272 17.2596C64.0454 17.3117 64.0454 17.3636 64.0292 17.4146C64.0054 17.4895 64.0173 17.5637 64.0374 17.6366C64.0774 17.7817 64.1222 17.9246 64.1644 18.0697C64.2053 18.2066 64.2923 18.3067 64.4125 18.3787C64.5823 18.4827 64.7643 18.5485 64.9652 18.5525C65.1654 18.5567 65.3354 18.4887 65.4684 18.3396C65.5432 18.2565 65.6084 18.1635 65.6753 18.0737C65.7952 17.9135 65.8624 17.7355 65.8873 17.5345C65.9163 17.3035 65.9644 17.0756 66.0064 16.8466C66.0583 16.5657 66.1124 16.2845 66.1663 16.0047C66.2272 15.6946 66.2873 15.3856 66.3514 15.0755C66.3723 14.9726 66.3993 14.8705 66.4273 14.7696C66.4384 14.7265 66.4514 14.6806 66.4752 14.6446C66.5654 14.5137 66.6734 14.3997 66.8043 14.3076C66.8494 14.2767 66.8965 14.2597 66.9523 14.2645C67.1094 14.2767 67.2712 14.2685 67.4234 14.3036C67.7304 14.3745 68.0422 14.4246 68.3424 14.5307C68.6534 14.6406 68.9714 14.7316 69.2872 14.8297C69.3445 14.8476 69.4043 14.8575 69.4632 14.8717C69.7552 14.9377 70.0614 14.9417 70.3374 15.0746C70.3573 15.0846 70.3814 15.0877 70.4032 15.0925C70.5294 15.1197 70.6433 15.0936 70.7403 15.0086C70.8304 14.9295 70.9143 14.8436 71.0033 14.7617C71.0543 14.7135 71.0555 14.6557 71.0373 14.5956C71.0263 14.5607 71.0093 14.5247 70.9874 14.4955C70.8624 14.3305 70.7113 14.2047 70.5084 14.1375C70.1643 14.0247 69.8082 13.9637 69.4584 13.8776C69.2084 13.8155 68.9553 13.7917 68.6985 13.8146C68.5474 13.8277 68.3983 13.8135 68.2494 13.7866C68.1312 13.7656 68.0102 13.7466 67.8914 13.7497C67.6343 13.7565 67.3803 13.7565 67.1323 13.6766C67.1184 13.6726 67.1023 13.6715 67.0884 13.6726C66.9472 13.6766 66.8874 13.5907 66.8605 13.4685C66.8523 13.4317 66.8435 13.3945 66.8435 13.3577C66.8463 13.1496 66.7973 12.9606 66.6864 12.7817C66.6414 12.7066 66.6003 12.6417 66.5175 12.6147C66.4194 12.5835 66.3483 12.5215 66.2913 12.4387C66.2694 12.4075 66.2422 12.3797 66.2133 12.3576C66.0954 12.2686 65.8842 12.2936 65.8094 12.4166C65.7062 12.5847 65.6214 12.7627 65.6634 12.9705C65.6883 13.0907 65.6784 13.2086 65.6594 13.3285C65.6223 13.5547 65.5874 13.5796 65.3612 13.5255C65.2152 13.4906 65.0732 13.4427 64.9213 13.4305C64.5692 13.4036 64.2183 13.3656 63.8662 13.3316C63.5145 13.2976 63.1624 13.2636 62.8115 13.2287C62.5864 13.2055 62.3593 13.1975 62.1394 13.1496C61.8624 13.0907 61.5875 13.0986 61.3094 13.1176C61.1073 13.1315 60.9043 13.1516 60.7014 13.1496C60.4003 13.1457 60.1013 13.1017 59.8203 12.9866C59.6843 12.9305 59.5434 12.9226 59.4022 12.9005C59.3745 12.8965 59.3424 12.9047 59.3144 12.9135C59.2764 12.9265 59.2503 12.9557 59.2614 12.9997C59.2713 13.0357 59.2843 13.0717 59.3033 13.1037Z" fill-rule="evenodd"  fill="#BE2C21" >
</path>
<path d="M66.4443 10.4119C66.4472 10.4119 66.4503 10.4128 66.4543 10.4128C66.4633 10.3768 66.4701 10.3399 66.4843 10.3048C66.5013 10.2589 66.5373 10.2217 66.5864 10.2367C66.7462 10.2838 66.8993 10.2438 67.0544 10.2177C67.1592 10.2007 67.2641 10.2098 67.3673 10.2328C67.4172 10.2438 67.4421 10.2827 67.4421 10.3328C67.4413 10.4088 67.4152 10.4788 67.3843 10.5477C67.3123 10.7059 67.2471 10.8657 67.1723 11.0208C67.1264 11.1169 67.1003 11.2187 67.0631 11.3167C67.0184 11.4347 66.9464 11.4639 66.8333 11.4069C66.7323 11.3567 66.6363 11.2989 66.5393 11.2408C66.4713 11.2008 66.4293 11.1387 66.4171 11.0599C66.4083 11.0007 66.3913 10.9409 66.3962 10.8819C66.4072 10.7249 66.4273 10.5687 66.4443 10.4119ZM66.6873 9.5417C66.6952 9.5139 66.7051 9.4847 66.7213 9.4598C66.8973 9.1627 67.1323 8.9257 67.4353 8.7588C67.5623 8.6879 67.6961 8.6437 67.8413 8.6337C67.9872 8.6238 68.0442 8.6919 68.0113 8.8407C68.0023 8.8849 67.9884 8.9277 67.9631 9.0207C67.9073 9.2177 67.7953 9.4479 67.6822 9.6769C67.6343 9.7738 67.5853 9.7818 67.5082 9.7129C67.4694 9.6777 67.4322 9.6409 67.3954 9.6029C67.2831 9.4887 67.1493 9.4669 67.0022 9.5148C66.9163 9.5428 66.8321 9.5757 66.7474 9.6049C66.7253 9.6128 66.7023 9.6057 66.6901 9.5848C66.6842 9.5737 66.6833 9.5547 66.6873 9.5417ZM63.0283 11.3289C63.0343 11.4267 63.0564 11.5228 63.0992 11.6118C63.1723 11.7598 63.2622 11.7938 63.4113 11.7269C63.5153 11.6799 63.6023 11.6067 63.6874 11.5327C63.7614 11.4687 63.8353 11.4057 63.9204 11.3559C64.3101 11.1277 64.6982 10.8978 65.0851 10.6668C65.2093 10.5928 65.3343 10.5239 65.4704 10.4797C65.5511 10.4527 65.6492 10.3827 65.7173 10.4717C65.7723 10.5437 65.7062 10.6279 65.6702 10.7008C65.6662 10.7079 65.6623 10.7138 65.6572 10.7198C65.5392 10.8728 65.5242 11.0489 65.5412 11.2337C65.5551 11.3839 65.5803 11.5327 65.6192 11.6779C65.6441 11.7728 65.6773 11.8647 65.7272 11.9497C65.7623 12.0087 65.8031 12.0617 65.8644 12.0957C65.9412 12.1399 66.0061 12.1317 66.0673 12.0688C66.0931 12.0418 66.1133 12.0098 66.1382 11.9817C66.1793 11.9378 66.2303 11.9268 66.2822 11.9557C66.4234 12.0339 66.5441 12.1328 66.5971 12.2938C66.6181 12.3579 66.6351 12.4237 66.6603 12.4869C66.6901 12.5637 66.7213 12.6408 66.7632 12.7117C66.8352 12.8347 66.9401 12.8438 67.0374 12.7349C67.0861 12.6799 67.1283 12.6159 67.1632 12.5487C67.2672 12.3488 67.3673 12.1479 67.4651 11.9449C67.6003 11.6657 67.6751 11.3649 67.7661 11.0707C67.8863 10.6829 68.0094 10.2968 68.1823 9.9278C68.3733 9.5179 68.5652 9.1117 68.8793 8.7749C68.9921 8.6527 69.0193 8.4957 69.0003 8.3327C68.9822 8.1757 68.8972 8.0697 68.7492 8.0147C68.6792 7.9889 68.6032 7.9727 68.5372 7.9378C68.3793 7.8537 68.2211 7.8568 68.0581 7.9169C67.9734 7.9478 67.8883 7.9778 67.8053 8.0118C67.5893 8.1017 67.3812 8.2077 67.1873 8.3387C67.1312 8.3778 67.0734 8.4129 67.0062 8.4288C66.9483 8.4438 66.8962 8.4169 66.8851 8.3608C66.8772 8.3168 66.8701 8.2709 66.8744 8.2267C66.8902 8.0039 66.9662 7.8009 67.0923 7.6178C67.1921 7.4707 67.3322 7.4188 67.5054 7.4608C67.5853 7.4798 67.6644 7.5058 67.7423 7.5328C67.8203 7.5597 67.8963 7.5929 67.9722 7.6238C68.0972 7.6598 68.2234 7.6907 68.3472 7.6309C68.4731 7.5708 68.5621 7.4679 68.6384 7.3548C68.6681 7.3097 68.6823 7.2547 68.6673 7.2028C68.6352 7.0928 68.6384 6.9809 68.6352 6.8678C68.6341 6.8247 68.6202 6.7768 68.5981 6.7399C68.5102 6.5897 68.4501 6.4278 68.3781 6.2697C68.3314 6.1668 68.2733 6.0707 68.1973 5.9859C68.0454 5.8178 67.8532 5.7509 67.6304 5.7577C67.5652 5.7597 67.5141 5.7909 67.4813 5.8439C67.4572 5.8819 67.4353 5.9247 67.4291 5.9678C67.4022 6.1557 67.2973 6.2997 67.1782 6.4377C67.0952 6.5347 67.0121 6.6328 66.9282 6.7289C66.8333 6.8377 66.7261 6.9298 66.5801 6.9658C66.4962 6.9857 66.4361 7.0407 66.3942 7.1189C66.2763 7.3409 66.1923 7.5719 66.2062 7.8287C66.2113 7.9339 66.2201 8.0388 66.2283 8.1439C66.2371 8.2638 66.2411 8.3837 66.2142 8.5028C66.1623 8.7298 66.1121 8.9577 66.0532 9.1837C66.0243 9.2928 66.0013 9.4008 65.9922 9.5148C65.9803 9.6639 65.9752 9.8147 65.9273 9.9598C65.8842 10.0908 65.8043 10.1829 65.6694 10.2209C65.5974 10.2407 65.5242 10.2637 65.4502 10.2747C65.1883 10.3127 64.9391 10.3989 64.6911 10.4868C64.5993 10.5199 64.5063 10.5497 64.4122 10.5769C64.3473 10.5948 64.2804 10.6067 64.2132 10.6177C64.1772 10.6237 64.1352 10.6268 64.1092 10.5939C64.0822 10.5579 64.1004 10.5199 64.1214 10.4887C64.1642 10.4267 64.2084 10.3669 64.2551 10.3079C64.4023 10.1248 64.5723 9.9657 64.7623 9.8288C64.8723 9.7489 64.9763 9.6579 65.0452 9.5397C65.2062 9.2647 65.1523 9.0898 64.9834 8.9288C64.9343 8.8818 64.8842 8.8347 64.8272 8.7999C64.6741 8.7069 64.5273 8.6017 64.3342 8.5958C64.2313 8.5929 64.1973 8.5017 64.2611 8.4169C64.3102 8.3509 64.3683 8.2908 64.4292 8.2358C64.5973 8.0847 64.7674 7.9359 64.9372 7.7887C65.0182 7.7199 65.0902 7.6439 65.1544 7.5597C65.2544 7.4287 65.3443 7.2887 65.4763 7.1838C65.5333 7.1379 65.5503 7.0707 65.5483 7.0018C65.5433 6.8207 65.3541 6.6237 65.1722 6.6067C65.0661 6.5968 64.9981 6.6328 64.9713 6.7408C64.9384 6.8697 64.8684 6.9718 64.7865 7.0719C64.6904 7.1889 64.5832 7.2947 64.4704 7.3927C64.1682 7.6518 63.9142 7.9639 63.5684 8.1737C63.4573 8.2417 63.4153 8.3738 63.3813 8.4997C63.3564 8.5958 63.3924 8.6768 63.4403 8.7548C63.4884 8.8327 63.5233 8.9127 63.5273 9.0068C63.5324 9.1097 63.5973 9.1689 63.6934 9.1959C63.7595 9.2149 63.8252 9.2299 63.8893 9.2509C64.0193 9.2928 64.0462 9.3359 64.0004 9.4708C63.9284 9.6789 63.8193 9.8668 63.6562 10.0199C63.5743 10.0967 63.4873 10.1687 63.4034 10.2447C63.3085 10.3297 63.2172 10.4187 63.1423 10.5247C63.0522 10.6509 63.0011 10.7889 63.0093 10.9457C63.0162 11.0738 63.0213 11.2008 63.0284 11.3289L63.0283 11.3289Z" fill-rule="evenodd"  fill="#BE2C21" >
</path>
<path d="M68.8708 9.34609C68.7208 9.40929 68.6497 9.51309 68.6599 9.6792C68.6659 9.7852 68.669 9.89009 68.6369 9.99129C68.6049 10.0913 68.6248 10.1832 68.6667 10.2753C68.7149 10.3782 68.7758 10.4712 68.8459 10.5602C68.9507 10.6923 68.9499 10.7682 68.8538 10.9063C68.7897 11.0001 68.705 11.0741 68.616 11.1433C68.5377 11.2031 68.4589 11.2612 68.4039 11.3442C68.347 11.4301 68.2687 11.4831 68.1627 11.4902C68.0907 11.4953 68.0289 11.5271 67.9997 11.5951C67.9087 11.8091 67.8149 12.0203 67.9048 12.2652C67.9529 12.3982 67.9739 12.5413 68.0068 12.6802C68.0249 12.7573 67.9938 12.8103 67.9249 12.8463C67.7778 12.9223 67.6329 13.0011 67.4858 13.0762C67.4129 13.1142 67.3339 13.1431 67.2738 13.2021C67.2658 13.2103 67.2638 13.2321 67.2689 13.2432C67.2738 13.2542 67.2899 13.2681 67.3018 13.2681C67.3458 13.2673 67.392 13.2661 67.4348 13.2582C67.7968 13.1902 68.1448 13.0703 68.4997 12.9742C68.6307 12.9393 68.7588 12.8971 68.8957 12.8922C69.0168 12.8883 69.1339 12.8611 69.2489 12.8262C69.3859 12.7831 69.5239 12.7471 69.6699 12.7601C69.8128 12.7732 69.8938 12.6921 69.95 12.5773C70.0299 12.4123 70.001 12.2712 69.8618 12.1513C69.8167 12.1121 69.7637 12.0801 69.7099 12.0572C69.5488 11.9871 69.3799 11.9551 69.2039 11.9803C69.0987 11.9942 68.995 12.0101 68.8909 12.0223C68.8359 12.0291 68.8079 11.9931 68.8198 11.9392C68.8277 11.9021 68.834 11.8633 68.851 11.8301C68.9638 11.6132 69.0947 11.4162 69.3487 11.3391C69.4638 11.3051 69.5738 11.2581 69.662 11.1682C69.7728 11.0551 69.8879 10.9471 70.0049 10.8411C70.1597 10.7011 70.2119 10.5281 70.1628 10.3311C70.1027 10.0922 70.0018 9.87619 69.7589 9.76509C69.7388 9.75629 69.7209 9.7412 69.7028 9.72819C69.6398 9.68229 69.6319 9.6301 69.6818 9.57709C69.7067 9.5502 69.734 9.5193 69.7668 9.5051C69.9769 9.41329 70.1308 9.2412 70.3207 9.1202C70.3709 9.0881 70.416 9.04619 70.4579 9.00419C70.634 8.82909 70.7918 8.6372 70.9358 8.43529C71.028 8.3061 71.1028 8.1663 71.1578 8.0181C71.21 7.8783 71.2139 7.7372 71.1079 7.6153C71.0067 7.4993 70.8777 7.4222 70.7329 7.3732C70.6288 7.3511 70.5228 7.3531 70.4188 7.3652C70.3559 7.3732 70.3088 7.4112 70.2918 7.4772C70.2629 7.5943 70.2328 7.7111 70.202 7.8273C70.1869 7.8843 70.1988 7.9282 70.2487 7.9651C70.2938 7.9991 70.2878 8.0441 70.255 8.0821C70.1489 8.2091 70.0429 8.3353 69.9329 8.45829C69.8768 8.52009 69.8298 8.58609 69.7787 8.6513C69.5488 8.95119 69.3048 9.2361 68.9139 9.3311C68.8989 9.3353 68.885 9.3401 68.8708 9.34609Z" fill-rule="evenodd"  fill="#BE2C21" >
</path>
<path d="M68.3132 16.2796C68.1242 16.1028 67.9252 15.9437 67.655 15.9106C67.5822 15.8916 67.5102 15.8726 67.437 15.8527C67.3713 15.8337 67.3203 15.8576 67.2752 15.9038C67.2242 15.9537 67.204 16.0177 67.2032 16.0877C67.2001 16.2017 67.2142 16.3137 67.2633 16.4177C67.333 16.5676 67.405 16.7167 67.4781 16.8647C67.5422 16.9937 67.6261 17.1076 67.7483 17.1918C67.7962 17.2256 67.8342 17.2746 67.8781 17.3146C67.9833 17.4118 68.089 17.5076 68.195 17.6026C68.2883 17.6856 68.3951 17.7018 68.5111 17.6658C68.6182 17.6318 68.7262 17.5977 68.8331 17.5626C68.9292 17.5306 68.9782 17.4597 68.987 17.3608C68.9952 17.2848 68.9791 17.2108 68.9553 17.1397C68.9011 16.9806 68.8161 16.8386 68.7121 16.7097C68.589 16.5566 68.4561 16.4137 68.3132 16.2796Z" fill-rule="evenodd"  fill="#BE2C21" >
</path>
</g>
<defs>
<clipPath id="clip-path-srEph2Q4KmrzgJY2UDefH">
<path d="M8.88672e-06 111.735L111.736 111.735L111.736 7.14111e-07L8.88672e-06 7.14111e-07L8.88672e-06 111.735Z" fill="white"/>
</clipPath>
</defs>
</svg>
