<svg width="88" height="88" viewBox="0 0 88 88" fill="none" xmlns="http://www.w3.org/2000/svg">
<path d="M24.6507 27.1067V57.31H63.1579V27.1067H24.6507ZM62.8184 57.111H25.0604V27.5828H62.8184V57.111Z" fill="#B00002"/>
<path d="M24.9942 28.5858H62.799V28.8941H24.9942V28.5858Z" fill="#B00002"/>
<path d="M24.9443 28.0743H62.753V28.3826H24.9443V28.0743Z" fill="#B00002"/>
<path d="M24.8889 32.0538H62.6976V32.3582H24.8889V32.0538Z" fill="#B00002"/>
<path d="M24.8889 31.5423H62.6976V31.8506H24.8889V31.5423Z" fill="#B00002"/>
<path d="M24.9443 35.5735H31.4727V35.8779H24.9443V35.5735Z" fill="#B00002"/>
<path d="M24.9443 35.0657H31.4727V35.3701H24.9443V35.0657Z" fill="#B00002"/>
<path d="M24.9443 38.4856H31.4727V38.7939H24.9443V38.4856Z" fill="#B00002"/>
<path d="M24.9443 37.9741H31.4727V38.2824H24.9443V37.9741Z" fill="#B00002"/>
<path d="M24.9443 41.5437H31.4727V41.848H24.9443V41.5437Z" fill="#B00002"/>
<path d="M24.9443 41.034H31.4727V41.3423H24.9443V41.034Z" fill="#B00002"/>
<path d="M24.9443 44.7605H31.4727V45.0649H24.9443V44.7605Z" fill="#B00002"/>
<path d="M24.9443 44.249H31.4727V44.5573H24.9443V44.249Z" fill="#B00002"/>
<path d="M24.9443 47.7188H31.4727V48.0271H24.9443V47.7188Z" fill="#B00002"/>
<path d="M24.9443 47.211H31.4727V47.5154H24.9443V47.211Z" fill="#B00002"/>
<path d="M24.9443 50.8821H31.4727V51.1903H24.9443V50.8821Z" fill="#B00002"/>
<path d="M24.9443 50.3706H31.4727V50.6788H24.9443V50.3706Z" fill="#B00002"/>
<path d="M24.9443 54.0435H31.4727V54.3479H24.9443V54.0435Z" fill="#B00002"/>
<path d="M24.9443 53.532H31.4727V53.8364H24.9443V53.532Z" fill="#B00002"/>
<path d="M56.2188 35.5735H62.7473V35.8779H56.2188V35.5735Z" fill="#B00002"/>
<path d="M56.2188 35.0657H62.7473V35.3701H56.2188V35.0657Z" fill="#B00002"/>
<path d="M56.2188 38.4856H62.7473V38.7939H56.2188V38.4856Z" fill="#B00002"/>
<path d="M56.2188 37.9741H62.7473V38.2824H56.2188V37.9741Z" fill="#B00002"/>
<path d="M56.2188 41.5437H62.7473V41.848H56.2188V41.5437Z" fill="#B00002"/>
<path d="M56.2188 41.034H62.7473V41.3423H56.2188V41.034Z" fill="#B00002"/>
<path d="M56.2188 44.7605H62.7473V45.0649H56.2188V44.7605Z" fill="#B00002"/>
<path d="M56.2188 44.249H62.7473V44.5573H56.2188V44.249Z" fill="#B00002"/>
<path d="M56.2188 47.7188H62.7473V48.0271H56.2188V47.7188Z" fill="#B00002"/>
<path d="M56.2188 47.211H62.7473V47.5154H56.2188V47.211Z" fill="#B00002"/>
<path d="M56.2188 50.8821H62.7473V51.1903H56.2188V50.8821Z" fill="#B00002"/>
<path d="M56.2188 50.3706H62.7473V50.6788H56.2188V50.3706Z" fill="#B00002"/>
<path d="M56.2188 54.0435H62.7473V54.3479H56.2188V54.0435Z" fill="#B00002"/>
<path d="M56.2188 53.532H62.7473V53.8364H56.2188V53.532Z" fill="#B00002"/>
<path d="M31.4315 32.9753L36.8244 34.6025V35.4454H51.0636V34.6064L56.2887 32.9753H31.4315ZM48.0589 34.8328H40.0594V34.384H48.0589V34.8328Z" fill="#B00002"/>
<path d="M31.4707 35.9465L36.865 36.5139L36.8332 36.8166L31.4389 36.2492L31.4707 35.9465Z" fill="#B00002"/>
<path d="M31.4733 35.1359L36.9053 35.7536L36.8709 36.056L31.4389 35.4383L31.4733 35.1359Z" fill="#B00002"/>
<path d="M31.5013 38.8753L36.9201 39.1934L36.902 39.5011L31.4832 39.183L31.5013 38.8753Z" fill="#B00002"/>
<path d="M31.4688 38.0665L36.8926 38.4301L36.872 38.7377L31.4481 38.3741L31.4688 38.0665Z" fill="#B00002"/>
<path d="M31.4282 45.0061L36.8524 45.208L36.8409 45.5161L31.4167 45.3142L31.4282 45.0061Z" fill="#B00002"/>
<path d="M31.3754 44.1991L36.8058 44.447L36.7917 44.755L31.3613 44.5071L31.3754 44.1991Z" fill="#B00002"/>
<path d="M31.4798 48.0974L36.904 48.2993L36.8927 48.6034L31.4684 48.4015L31.4798 48.0974Z" fill="#B00002"/>
<path d="M31.4252 47.2793L36.855 47.5288L36.841 47.8328L31.4112 47.5833L31.4252 47.2793Z" fill="#B00002"/>
<path d="M31.48 51.1332L36.9042 51.3389L36.8926 51.6431L31.4684 51.4374L31.48 51.1332Z" fill="#B00002"/>
<path d="M31.4234 50.3152L36.8533 50.5668L36.8392 50.8709L31.4094 50.6192L31.4234 50.3152Z" fill="#B00002"/>
<path d="M31.5076 54.0934L36.8549 54.2608L36.8453 54.5689L31.498 54.4015L31.5076 54.0934Z" fill="#B00002"/>
<path d="M31.4496 53.2716L36.8064 53.4925L36.7939 53.7966L31.4371 53.5757L31.4496 53.2716Z" fill="#B00002"/>
<path d="M31.4118 32.9753L31.6616 33.0494L31.6421 57.2277L31.4001 57.2511L31.4118 32.9753Z" fill="#B00002"/>
<path d="M56.2968 32.9605L56.0471 33.0698L56.0666 57.0724L56.3086 57.0958L56.2968 32.9605Z" fill="#B00002"/>
<path d="M36.684 34.388L36.9337 34.4855L36.9142 55.1478L36.6723 55.1634L36.684 34.388Z" fill="#B00002"/>
<path d="M51.069 34.641L50.8193 34.7346L50.8388 55.1511L51.0807 55.1628L51.069 34.641Z" fill="#B00002"/>
<path d="M32.6965 33.3298H32.9774V56.5715H32.6965V33.3298Z" fill="#B00002"/>
<path d="M33.7195 33.533H34.0005V56.1386H33.7195V33.533Z" fill="#B00002"/>
<path d="M34.737 33.677H35.0218V55.6154H34.737V33.677Z" fill="#B00002"/>
<path d="M35.9893 55.2958L35.7083 55.3856V33.8414H35.9893V55.2958Z" fill="#B00002"/>
<path d="M56.2991 36.2548L50.901 36.8225L50.8692 36.5198L56.2673 35.9521L56.2991 36.2548Z" fill="#B00002"/>
<path d="M56.2948 35.4401L50.8666 36.0575L50.8322 35.755L56.2604 35.1377L56.2948 35.4401Z" fill="#B00002"/>
<path d="M56.2582 39.1849L50.8355 39.5032L50.8174 39.1954L56.2401 38.8771L56.2582 39.1849Z" fill="#B00002"/>
<path d="M56.286 38.3685L50.8621 38.7327L50.8415 38.4251L56.2653 38.0609L56.286 38.3685Z" fill="#B00002"/>
<path d="M56.2756 42.1856L50.8536 42.4353L50.8396 42.1313L56.2616 41.8816L56.2756 42.1856Z" fill="#B00002"/>
<path d="M56.3243 41.373L50.8967 41.6665L50.8802 41.3626L56.3079 41.0691L56.3243 41.373Z" fill="#B00002"/>
<path d="M56.3196 45.316L50.8954 45.5179L50.8839 45.2099L56.3081 45.0079L56.3196 45.316Z" fill="#B00002"/>
<path d="M56.3671 44.4978L50.9368 44.7457L50.9227 44.4378L56.3531 44.1899L56.3671 44.4978Z" fill="#B00002"/>
<path d="M56.2696 48.4015L50.8454 48.6034L50.8341 48.2993L56.2583 48.0974L56.2696 48.4015Z" fill="#B00002"/>
<path d="M56.324 47.5889L50.8942 47.8384L50.8802 47.5343L56.3101 47.2848L56.324 47.5889Z" fill="#B00002"/>
<path d="M56.268 51.43L50.8438 51.6357L50.8322 51.3316L56.2564 51.1258L56.268 51.43Z" fill="#B00002"/>
<path d="M56.3186 50.6284L50.8888 50.8801L50.8747 50.5761L56.3045 50.3244L56.3186 50.6284Z" fill="#B00002"/>
<path d="M56.2411 54.4033L50.8899 54.5709L50.8802 54.2628L56.2314 54.0952L56.2411 54.4033Z" fill="#B00002"/>
<path d="M56.2963 53.5794L50.9389 53.8003L50.9264 53.4962L56.2838 53.2753L56.2963 53.5794Z" fill="#B00002"/>
<path d="M54.7563 33.3298H55.0334V56.5715H54.7563V33.3298Z" fill="#B00002"/>
<path d="M53.7333 33.533H54.0142V56.1386H53.7333V33.533Z" fill="#B00002"/>
<path d="M52.7158 33.677H52.9967V55.6154H52.7158V33.677Z" fill="#B00002"/>
<path d="M51.7463 33.8414H52.0234V55.5729H51.7463V33.8414Z" fill="#B00002"/>
<path d="M36.8994 47.0392H50.8811V47.3475H36.8994V47.0392Z" fill="#B00002"/>
<path d="M36.8994 47.6819H50.8811V47.9901H36.8994V47.6819Z" fill="#B00002"/>
<path d="M36.8994 48.5738H50.8811V48.8821H36.8994V48.5738Z" fill="#B00002"/>
<path d="M36.8994 49.318H50.8811V49.6223H36.8994V49.318Z" fill="#B00002"/>
<path d="M36.8994 50.4407H50.8811V50.749H36.8994V50.4407Z" fill="#B00002"/>
<path d="M36.8994 51.4601H50.8811V51.7644H36.8994V51.4601Z" fill="#B00002"/>
<path d="M36.8994 52.4129H50.8811V52.7173H36.8994V52.4129Z" fill="#B00002"/>
<path d="M36.8994 53.2291H50.8811V53.5335H36.8994V53.2291Z" fill="#B00002"/>
<path d="M36.868 54.8394H50.8497V55.1477H36.868V54.8394Z" fill="#B00002"/>
<path d="M35.7397 55.3786H51.9184V55.5698H35.7397V55.3786Z" fill="#B00002"/>
<path d="M34.508 55.9972H52.9421V56.1846H34.508V55.9972Z" fill="#B00002"/>
<path d="M34.4489 56.6029H52.8831V56.7902H34.4489V56.6029Z" fill="#B00002"/>
<path d="M38.9048 47.8241H39.416V55.0354H38.9048V47.8241Z" fill="#B00002"/>
<path d="M41.3867 47.8241H41.8979V55.0354H41.3867V47.8241Z" fill="#B00002"/>
<path d="M46.0494 47.8241H46.5567V55.0354H46.0494V47.8241Z" fill="#B00002"/>
<path d="M48.2229 47.8241H48.7341V55.0354H48.2229V47.8241Z" fill="#B00002"/>
<path d="M26.9344 39.457H22.5132L20.9796 39.8979L22.24 42.2119L23.1882 41.9739L22.7161 55.2688L22.4078 55.3742L22.478 56.8648L22.1737 57.0014L22.2751 57.3097H25.6076L25.7442 57.0131L25.471 56.9312V55.4795L25.2018 55.3351L25.0964 42.0168L25.912 42.0402L26.9344 39.457ZM26.2905 40.7018H25.791V40.4208H26.2866V40.7018H26.2905ZM25.3735 39.8472H25.873V40.1282H25.3735V39.8472ZM24.9872 40.4091H25.4867V40.6901H24.9872V40.4091ZM24.835 41.2754H24.3355V40.9944H24.8311V41.2754H24.835ZM24.3043 39.8472H24.7999V40.1282H24.3043V39.8472ZM23.9141 40.4091H24.4096V40.6901H23.9141V40.4091ZM23.9023 41.4042H24.3979V41.6851H23.9023V41.4042ZM23.8711 41.2754H23.3755V40.9944H23.8711V41.2754ZM23.3404 39.8472H23.836V40.1282H23.3404V39.8472ZM22.9541 40.4091H23.4497V40.6901H22.9541V40.4091ZM25.4867 41.7242H24.9872V41.4432H25.4867V41.7242ZM25.9081 41.2754H25.4086V40.9944H25.9081V41.2754Z" fill="#B00002"/>
<path d="M62.0849 42.0402L62.9005 42.0168L62.8029 55.3351L62.5298 55.4795V56.9312L62.2566 57.0131L62.3932 57.3097H65.7257L65.8311 57.0014L65.5228 56.8648L65.5891 55.3742L65.2809 55.2688L64.8126 41.9739L65.7569 42.2119L67.0174 39.8979L65.4838 39.457H61.0626L62.0849 42.0402ZM61.7064 40.4247H62.202V40.7057H61.7064V40.4247ZM62.6195 40.1242H62.1201V39.8433H62.6195V40.1242ZM63.0098 40.6901H62.5142V40.4091H63.0098V40.6901ZM63.1659 40.9983H63.6614V41.2793H63.1659V40.9983ZM63.6927 40.1242H63.1971V39.8433H63.6927V40.1242ZM64.079 40.6901H63.5834V40.4091H64.079V40.6901ZM64.0946 41.6851H63.599V41.4042H64.0946V41.6851ZM64.1258 40.9983H64.6214V41.2793H64.1258V40.9983ZM64.6526 40.1242H64.157V39.8433H64.6526V40.1242ZM65.0428 40.6901H64.5472V40.4091H65.0428V40.6901ZM62.5142 41.4432H63.0098V41.7242H62.5142V41.4432ZM62.0888 40.9983H62.5844V41.2793H62.0888V40.9983Z" fill="#B00002"/>
<path d="M35.5027 43.093L36.8646 40.7127L31.0659 40.779L32.3926 43.1282L32.7985 43.0774V55.4397L32.2366 55.5138L32.2327 57.2191H35.4364L35.4559 55.5802L34.9915 55.4826V43.1008H35.5027V43.093ZM34.9681 41.1614H35.5612V41.4853H34.9681V41.1614ZM32.8492 42.6716H32.2561V42.3477H32.8492V42.6716ZM32.8492 41.4853H32.2561V41.1614H32.8492V41.4853ZM33.5126 42.1097H32.9194V41.7897H33.5126V42.1097ZM34.1604 42.6716H33.5672V42.3477H34.1604V42.6716ZM34.1604 41.4853H33.5672V41.1614H34.1604V41.4853ZM34.9018 42.1097H34.3086V41.7897H34.9018V42.1097ZM34.9681 42.6716V42.3477H35.5612V42.6716H34.9681Z" fill="#B00002"/>
<path d="M55.7086 43.093L57.0704 40.7127L51.2717 40.779L52.5946 43.1282L53.0004 43.0774V55.4397L52.4385 55.5138L52.4346 57.2191H55.6383L55.6578 55.5802L55.1974 55.4826V43.1008H55.7086V43.093ZM55.1739 41.1614H55.7671V41.4853H55.1739V41.1614ZM53.055 42.6716H52.4619V42.3477H53.055V42.6716ZM53.055 41.4853H52.4619V41.1614H53.055V41.4853ZM53.7184 42.1097H53.1253V41.7897H53.7184V42.1097ZM54.3662 42.6716H53.773V42.3477H54.3662V42.6716ZM54.3662 41.4853H53.773V41.1614H54.3662V41.4853ZM55.1115 42.1097H54.5145V41.7897H55.1076V42.1097H55.1115ZM55.1739 42.6716V42.3477H55.7671V42.6716H55.1739Z" fill="#B00002"/>
<path d="M45.5583 43.8694L47.2675 41.5086H40.384L42.2414 43.8577L42.8346 43.8499V55.4786L42.2727 55.541L42.2688 57.1409H45.4725L45.492 55.6034L45.0315 55.5137V43.8694H45.5583ZM45.6871 43.526H45.1993V43.1475H45.9525L45.6871 43.526ZM46.1593 41.9066H46.85L46.5651 42.289H46.1593V41.9066ZM46.4051 42.5114L46.1203 42.8939H45.6481V42.5114H46.4051ZM40.8483 41.9066H41.5429V42.289H41.1371L40.8483 41.9066ZM41.3205 42.5114H42.0151V42.8939H41.6093L41.3205 42.5114ZM42.5146 43.526H42.1088L41.8239 43.1475H42.5146V43.526ZM42.737 42.289H42.0463V41.9066H42.737V42.289ZM42.7604 42.8939V42.5114H43.4511V42.8939H42.7604ZM44.1145 43.526H43.4238V43.1475H44.1145V43.526ZM44.173 42.289H43.4823V41.9066H44.173V42.289ZM44.9067 42.8939H44.2121V42.5114H44.9067V42.8939ZM44.7974 42.289V41.9066H45.492V42.289H44.7974Z" fill="#B00002"/>
<path d="M31.6144 57.0958L36.9142 55.1478L36.7575 54.9613L31.5442 56.8656L31.6144 57.0958Z" fill="#B00002"/>
<path d="M56.2973 57.2039L50.4869 55.1201L50.9981 55.1435L56.3051 56.9658L56.2973 57.2039Z" fill="#B00002"/>
<path d="M11.8711 56.8222C11.8711 56.6973 11.8281 56.5295 11.7384 56.3149L10.8331 56.6778L10.7316 56.7207C10.6536 56.7519 10.6067 56.7948 10.5833 56.8495C10.5599 56.9002 10.5638 56.9626 10.595 57.0368C10.638 57.146 10.7043 57.2397 10.794 57.3138C10.876 57.388 10.9814 57.4309 11.0945 57.4426C11.2077 57.4543 11.3247 57.4387 11.4379 57.3919C11.5667 57.3373 11.6759 57.2631 11.7579 57.1577C11.8359 57.0563 11.8711 56.9431 11.8711 56.8222Z" fill="#B00002"/>
<path d="M16.478 44.0187C16.677 59.0033 28.6334 71.1627 43.7429 71.268C59.145 71.3734 71.3746 59.1048 71.519 43.6129C71.2653 28.4722 59.3518 16.9294 45.4286 16.2583C28.8949 15.4622 16.279 28.8625 16.478 44.0187ZM70.3366 44.9904C69.841 58.3282 58.7157 70.1091 43.9692 70.1091C29.8353 70.191 16.8253 58.4063 17.6721 42.3057C18.3862 28.7688 29.129 17.4289 44.098 17.3821C58.306 17.3431 70.9375 28.8976 70.3366 44.9904Z" fill="#B00002"/>
<path d="M28.3535 73.8546C28.3067 73.7103 28.1779 73.5854 27.9672 73.4683L27.7526 73.363L27.1399 74.5414L27.2531 74.6C27.4365 74.6975 27.5848 74.7483 27.6941 74.7678C27.8033 74.7756 27.9048 74.76 28.0062 74.6936C28.1038 74.6273 28.1896 74.5258 28.2638 74.3893C28.3691 74.1824 28.3965 74.0068 28.3535 73.8546Z" fill="#B00002"/>
<path d="M43.0217 77.3051C42.9085 77.2192 42.7797 77.1685 42.6275 77.1646C42.3505 77.149 42.132 77.2778 41.972 77.5626C41.8432 77.7889 41.769 78.1245 41.7456 78.5538C41.7222 79.0767 41.7925 79.4591 41.9642 79.7167C42.0812 79.8962 42.2568 79.9898 42.4832 80.0015C42.6392 80.0093 42.768 79.9781 42.8734 79.9079C43.01 79.8259 43.1192 79.6737 43.2012 79.4669C43.2831 79.264 43.3338 78.9908 43.3533 78.6513C43.3729 78.2494 43.3534 77.9489 43.2831 77.746C43.2246 77.5392 43.1348 77.3948 43.0217 77.3051Z" fill="#B00002"/>
<path d="M43.8308 12.2318C44.381 12.1772 45.1108 12.0796 45.8405 12.0367C46.3673 12.0055 46.258 11.6504 46.1605 11.4006C45.9146 10.7841 45.1108 10.6514 44.5957 11.1119C44.3537 11.3265 44.0572 11.6621 43.784 11.5138C43.2884 11.2446 43.7684 10.987 43.9128 10.7217C44.0064 10.55 44.0064 10.1792 43.823 10.2456C43.3977 10.3939 42.8084 10.1519 42.5431 10.749C42.106 11.7401 42.465 12.2318 43.8308 12.2318Z" fill="#B00002"/>
<path d="M12.3737 33.1323C12.6351 33.144 12.7873 32.9957 12.7015 32.7733C12.6117 32.5235 12.6195 32.1606 12.2254 32.1177C11.9093 32.0787 11.9093 32.2855 11.9054 32.5001C11.9015 32.8357 11.9561 33.1128 12.3737 33.1323Z" fill="#B00002"/>
<path d="M73.6236 60.9461C73.2802 60.7666 72.9758 60.6729 72.7105 60.6729C72.5036 60.6729 72.3359 60.7275 72.2071 60.8251C72.1173 60.907 72.012 61.0475 71.8949 61.2661L73.9904 62.3821C74.0997 62.4406 74.1699 62.464 74.2011 62.4679C74.2323 62.4718 74.2597 62.464 74.287 62.4445C74.326 62.4211 74.365 62.3704 74.4001 62.3079C74.5172 62.0855 74.5289 61.8787 74.4392 61.6836C74.3221 61.4143 74.0489 61.1724 73.6236 60.9461Z" fill="#B00002"/>
<path d="M31.9791 9.7996C32.42 9.7996 32.4473 9.42108 32.6151 9.17914C32.5332 8.95671 32.5215 8.67575 32.2015 8.73038C31.8542 8.78892 31.5771 8.9333 31.5888 9.36254C31.5966 9.6357 31.663 9.7996 31.9791 9.7996Z" fill="#B00002"/>
<path d="M30.2312 11.9652C30.719 11.9457 31.0195 11.4345 31.0156 10.7126C31.0273 10.4121 30.8946 9.86974 30.4341 9.88535C29.9581 9.90096 29.5249 10.3068 29.5717 10.9233C29.6069 11.3916 29.7122 11.9887 30.2312 11.9652Z" fill="#B00002"/>
<path d="M12.2346 29.8616C12.4102 29.9435 12.539 29.7875 12.617 29.6314C12.7458 29.3738 12.7809 29.1007 12.5897 28.8782C12.098 28.3085 11.38 28.1368 10.8805 27.8871C10.4669 27.8168 10.2445 27.9066 10.143 28.1446C9.9713 28.5426 10.2718 28.8314 10.4552 29.1202C10.6269 29.405 10.822 29.2294 11.0249 29.0733C11.3917 28.7963 11.8093 28.5426 11.9068 29.2997C11.9341 29.5572 12.02 29.764 12.2346 29.8616Z" fill="#B00002"/>
<path d="M12.4205 56.8025C12.522 56.822 12.6313 56.8064 12.7561 56.7518C12.881 56.7011 12.9747 56.6347 13.0332 56.5567C13.0956 56.4747 13.1268 56.3772 13.1307 56.2679C13.1346 56.1626 13.0956 56.0065 13.0137 55.7997L11.9015 56.2562C11.9796 56.4513 12.0615 56.5879 12.1435 56.662C12.2254 56.7401 12.3191 56.783 12.4205 56.8025Z" fill="#B00002"/>
<path d="M46.3776 2.37822C21.1262 1.10219 2.32138 21.4445 2.57112 43.8589C2.6999 55.0505 6.59042 64.6852 14.3598 72.6496C22.3359 80.817 32.1696 85.0548 43.4665 85.1719C66.7941 85.4138 85.5833 66.6402 85.4155 43.7341C85.517 20.5353 66.9228 3.41231 46.3776 2.37822ZM78.6178 29.8889C78.8402 29.885 79.1485 29.8226 79.09 30.2011C78.9963 30.7865 78.6881 31.2781 78.1339 31.4889C77.8647 31.5903 77.6813 31.2977 77.654 30.9269C77.9115 30.5601 77.9037 29.9046 78.6178 29.8889ZM75.1526 30.486C75.496 30.1153 76.0033 30.0255 76.495 29.9943C76.6472 29.9865 76.9203 30.1075 76.8384 30.2675C76.2336 31.4537 77.5213 31.5942 77.8959 32.2303C77.9427 32.3083 77.9896 32.3786 78.0364 32.4527C77.1545 31.9923 76.4326 31.3913 75.418 31.3016C74.938 31.2586 74.8209 30.8411 75.1526 30.486ZM72.7918 34.158C73.0064 34.119 73.1469 34.1775 73.26 34.4116C73.42 34.755 73.6737 35.0165 74.1264 34.9579C74.9029 34.8604 75.1058 34.435 74.6961 33.7834C74.5556 33.5609 74.1029 33.3541 74.419 33.0654C74.778 32.7376 75.0668 33.0693 75.2619 33.3892C75.418 33.6468 75.6911 33.6546 75.9058 33.7795C76.2843 33.998 76.6199 33.9434 76.7799 33.6546C76.9867 33.28 76.5652 33.2058 76.3116 33.0732C76.2453 33.0381 76.2336 32.8976 76.1945 32.8C76.7838 32.8429 78.0247 33.877 78.0676 34.3804C78.0988 34.8136 77.8413 34.9579 77.4354 34.9618C77.1818 34.9618 76.9867 34.6302 76.7369 34.7901C76.6004 34.9814 76.7252 35.0711 76.7682 35.1921C76.8735 35.4847 77.2794 35.8281 76.9828 36.0779C76.6121 36.3862 76.4482 35.8633 76.2414 35.6564C75.7263 35.1492 75.2268 35.3599 74.6844 35.6096C73.4552 36.1793 72.542 35.7501 72.5967 34.6419C72.6045 34.4702 72.4913 34.2126 72.7918 34.158ZM65.12 20.9216C65.2058 20.5548 65.6 20.7187 65.7951 20.7889C66.3258 20.988 66.8682 20.9958 67.3833 20.8904C67.8594 20.7928 68.3745 20.5899 67.8984 19.8719C67.7189 19.6027 67.3052 19.1968 67.715 18.83C68.1598 18.432 68.4291 18.9081 68.7022 19.1656C69.1198 19.5558 69.4905 19.5675 69.869 19.1071C70.0602 18.8729 70.2905 18.6739 70.5012 18.4554C70.7704 18.1705 71.0943 17.874 71.4221 18.272C71.7031 18.6193 71.7343 19.0446 71.3324 19.4232C70.509 20.2036 70.5168 20.227 71.5314 20.7343C71.8435 20.8904 72.1323 21.0426 72.183 21.4172C72.2103 21.6474 72.226 21.8816 72.0035 22.065C71.7889 22.2445 71.6562 22.0767 71.4689 22.0064C69.3344 21.1831 69.3461 21.187 69.3383 23.4581C69.3383 24.1722 69.5061 24.8434 69.7793 25.4794C69.9431 25.8657 70.0251 26.2091 69.9549 26.615C68.7491 26.2482 68.0662 25.1516 68.3823 24.0239C68.4876 23.6571 68.5305 23.3098 68.5344 22.943C68.5423 21.6513 68.5423 21.6982 67.196 21.7333C66.6848 21.7489 66.1658 21.507 65.6507 21.3899C65.3775 21.3353 65.0459 21.2416 65.12 20.9216ZM72.0543 45.3028C71.2933 59.2923 59.3837 72.5872 42.4558 71.8145C28.5561 71.1785 15.0427 59.2806 15.9402 41.9429C16.6621 28.0276 28.6419 15.4234 44.0753 15.6497C59.2901 15.3609 72.9557 28.7222 72.0543 45.3028ZM59.3486 13.2537C59.1184 13.1055 58.9193 12.965 58.6228 13.164C58.3262 13.3669 58.334 13.5737 58.3808 13.6596C58.6774 14.1473 58.5486 14.2644 58.2287 14.2683C57.9828 14.2722 57.776 14.2722 57.7526 13.921C57.7136 13.3591 58.6891 11.8528 59.2627 11.6655C59.3447 11.6382 59.493 11.6421 59.5281 11.6889C59.653 11.8723 59.6413 12.0831 59.4852 12.2392C58.9311 12.7933 59.2627 12.9611 59.8208 13.043C60.6519 13.1679 60.8549 13.8352 60.531 14.3698C60.0315 15.201 59.4344 16.0048 58.6189 16.6058C58.2599 16.8711 57.9477 17.0545 57.5419 16.7657C57.1165 16.4575 56.9916 15.9424 56.8121 15.4975C56.7302 15.2946 57.0034 15.318 57.2297 15.4C58.2248 15.7707 59.4344 14.9863 59.6335 13.9015C59.6959 13.5932 59.5944 13.4098 59.3486 13.2537ZM54.783 13.722C55.8015 13.484 55.622 12.5006 55.5478 12.0128C55.419 11.1895 55.7859 11.1192 56.3322 11.0217C56.4961 10.9904 56.6678 11.0256 56.8356 11.0139C57.5028 10.9592 57.8657 10.7758 57.2219 10.1359C57.1126 10.0266 57.0736 9.84319 56.9721 9.63247C57.7097 9.65588 58.0843 9.27346 58.1779 8.59447C58.2248 8.25888 58.4433 8.1223 58.7477 8.18084C59.1769 8.26278 58.9428 8.58277 58.9389 8.8208C58.935 9.19932 58.256 9.55052 58.8413 9.94074C59.4305 10.3388 60.0588 10.2958 60.6168 9.85489C60.847 9.67539 61.05 9.44125 61.2139 9.19541C61.3621 8.96518 61.4597 8.68422 61.7914 8.86763C62.0724 9.01981 62.1504 9.38272 62.0177 9.57393C61.729 9.97976 61.6275 10.3466 61.8226 10.8031C61.8421 10.8539 61.7368 11.0295 61.686 11.0295C60.9641 11.049 60.1329 11.2831 59.5515 11.0021C58.3886 10.4402 57.5926 10.5222 57.2024 11.7592C57.0736 12.1728 56.3985 12.5826 56.937 13.1679C57.058 13.2967 56.8746 13.484 56.738 13.5737C56.2424 13.9132 55.7351 14.2332 55.2317 14.5649C54.861 14.8107 54.541 14.6156 54.3693 14.3386C54.1391 13.96 54.5254 13.7766 54.783 13.722ZM43.0178 5.64438C43.088 5.25416 43.4821 5.43367 43.8333 5.47269C44.6489 5.56634 45.4996 5.6717 46.3268 5.39074C46.5415 5.3166 46.7912 5.33611 47.0253 5.3244C47.3648 5.3127 47.7941 5.29709 47.7902 5.73804C47.7902 6.06192 47.3609 6.15168 47.08 6.12826C46.163 6.03461 45.2928 6.42093 44.4421 6.35069C44.1845 6.35069 43.9816 6.35069 43.7787 6.35069C43.3104 6.34289 42.9436 6.05802 43.0178 5.64438ZM42.011 6.53799C42.2841 6.50678 42.4753 6.49507 42.5846 6.8853C42.7368 7.4238 42.69 7.90378 42.5846 8.43058C42.5144 8.78958 42.37 9.35931 42.8461 9.50369C43.3963 9.66758 44.0362 9.76904 44.5708 9.3398C44.9025 9.07444 44.8674 8.75447 44.4772 8.68423C44.1143 8.61789 43.6343 8.93006 43.568 8.28229C43.5094 7.71647 43.8372 7.35746 44.3016 7.09992C44.4148 7.03748 44.524 6.97114 44.7582 6.83066C44.645 7.61501 44.7542 7.97012 45.4566 7.56038C45.5386 7.50965 45.6557 7.50965 45.7337 7.45112C46.0849 7.20138 46.4829 6.98285 46.7678 7.44722C47.1034 8.00133 46.5024 8.07157 46.2059 8.27449C46.0966 8.34863 45.96 8.38375 45.7337 8.48521C46.2605 8.87934 46.6351 8.72715 46.9707 8.77007C47.1385 8.78958 47.3297 8.78958 47.3765 8.9925C47.4195 9.18761 47.2478 9.28126 47.1112 9.37492C47.0605 9.41004 46.9707 9.39443 46.9239 9.43736C46.6 9.71051 45.8859 9.39053 45.8469 9.96416C45.8078 10.5495 46.6039 10.2256 46.7483 10.4636C47.1814 11.2012 47.5522 11.9972 47.7941 12.8167C47.8994 13.1757 47.3687 13.0625 47.1697 13.0235C45.5737 12.7269 43.9816 12.9259 42.3856 13.0547C41.8198 13.1016 41.7339 12.8713 41.7261 12.3718C41.691 11.0568 42.089 9.76904 41.9524 8.45399C41.9017 7.99353 42.0266 7.51745 41.7846 7.0687C41.6832 6.88529 41.6403 6.58092 42.011 6.53799ZM28.9775 9.99537C30.2926 9.32809 30.3706 9.14468 29.758 7.79842C29.5629 7.36917 29.6097 6.95944 29.9531 6.78774C30.3511 6.58482 30.7218 6.81896 30.8545 7.29893C30.9169 7.52136 30.9521 7.775 31.0886 7.9428C31.3618 8.27839 31.6662 8.70373 32.0681 8.02474C32.2164 7.7711 32.4895 7.62282 32.7627 7.48234C33.0007 7.36137 33.2114 7.29112 33.4144 7.45892C33.6446 7.64623 33.8904 7.96621 33.7383 8.21206C33.1802 9.11347 33.27 10.2568 32.6144 11.0997C32.3178 11.4821 32.3178 11.8606 32.5325 12.2157C33.0358 13.0586 32.9422 14.0771 33.3792 14.9395C33.4807 15.1463 33.5353 15.4507 33.2349 15.7277C32.4427 14.9473 32.353 13.8352 31.8457 12.9455C31.7013 12.6996 31.7598 12.3172 31.3852 12.2509C30.9599 12.1767 30.9013 12.5865 30.8155 12.8245C30.5852 13.4488 30.195 13.2342 29.8828 13.0079C29.2273 12.524 28.8097 11.8021 28.4156 11.1192C28.1464 10.6509 28.4976 10.2412 28.9775 9.99537ZM19.8814 15.0449C20.4394 15.1268 20.775 15.997 21.5477 15.5248C21.6023 15.4897 21.696 16.0477 21.5594 16.317C21.177 17.0584 21.8247 17.3355 22.1915 17.7218C22.5779 18.1276 22.8588 17.8779 23.1905 17.5618C23.3115 17.4486 23.6081 17.195 23.9007 17.4018C24.1739 17.5969 24.1114 17.8935 24.0802 18.1471C23.971 19.0251 22.8471 19.5285 22.1018 19.072C20.9506 18.3618 20.4511 17.0623 19.4678 16.1999C19.3741 16.118 19.4249 15.876 19.4093 15.7121C19.3936 15.3609 19.3663 14.9707 19.8814 15.0449ZM17.6103 18.3266C17.6845 18.0301 17.8952 17.7998 18.2074 17.7218C18.5234 17.6398 18.7342 17.8545 18.8512 18.0964C19.2141 18.8495 19.7331 19.4544 20.3653 20.0046C20.7711 20.3558 20.6502 20.9372 20.6385 21.2611C20.6385 21.6045 20.6385 21.7723 20.6385 21.9401C20.6424 22.4318 20.6346 22.8688 19.9322 22.8454C19.1712 22.822 19.4639 22.2757 19.4288 21.905C19.4132 21.7489 19.4756 21.5772 19.5341 21.425C19.6317 21.1597 19.7175 20.8358 19.46 20.6914C19.1166 20.4963 19.1049 20.8865 18.9761 21.0855C18.8161 21.3275 18.5898 21.4913 18.301 21.2767C18.0396 21.0816 17.8601 20.7928 18.0786 20.4963C18.5117 19.8953 18.7927 19.3841 17.8093 19.0407C17.5011 18.9276 17.544 18.5764 17.6103 18.3266ZM8.35423 30.7591C8.67812 29.7836 9.43515 30.5367 9.96195 30.326C10.3327 30.1738 10.5044 30.5523 10.4692 30.9621C10.4341 31.3718 10.5902 31.7386 11.0429 31.762C11.6945 31.7971 11.6672 31.1299 11.8623 30.7709C12.1394 30.2636 11.5775 30.3455 11.316 30.2284C10.9297 30.0489 10.5434 29.8694 10.1805 29.6509C9.12297 29.0148 8.92396 27.7037 9.79806 26.853C10.0907 26.5682 10.5044 26.1545 10.9999 26.654C12.3813 28.051 14.3051 28.4178 15.9792 29.2568C16.2172 29.3778 16.5411 29.3817 16.5567 29.6899C16.5684 30.0099 16.2328 30.1387 15.9948 30.1582C15.4251 30.2089 14.5783 30.8918 14.5002 29.569C14.4846 29.288 14.1295 29.0851 13.8096 29.0929C13.3764 29.1046 13.2828 29.5065 13.072 29.8031C12.8028 30.1816 13.0681 30.3728 13.2554 30.564C13.673 30.9894 14.3793 31.1338 14.5822 31.9259C13.911 31.8791 13.3647 31.0362 13.072 31.2742C12.6233 31.6411 13.4857 32.082 13.4623 32.6361C13.4193 33.6663 12.9159 34.1853 11.9443 33.8731C11.4643 33.7209 11.2653 33.9473 10.957 34.1346C10.8321 33.7873 10.9492 33.5883 11.0429 33.3697C11.2029 32.9951 10.918 32.7649 10.6487 32.6673C10.36 32.562 10.2975 32.8351 10.2819 33.081C10.2663 33.3463 10.1102 33.5648 9.84879 33.5063C9.5288 33.44 9.63807 33.1161 9.66928 32.9171C9.80196 32.121 9.54831 31.6411 8.70543 31.5045C8.3074 31.4303 8.20985 31.1962 8.35423 30.7591ZM12.9237 36.5579C12.8847 36.8349 12.7052 36.952 12.4438 36.9793C12.0926 37.0183 11.636 36.9442 11.5736 36.6593C11.4331 36.0623 11.5189 35.4145 11.1833 34.8448C11.1638 34.8097 11.316 34.6692 11.3668 34.5989C11.7492 34.6458 12.9667 36.2301 12.9237 36.5579ZM9.56782 35.4535C9.32589 35.3404 8.8186 35.5433 8.88493 35.0048C8.94737 34.517 9.39222 34.3024 9.80196 34.2321C10.2507 34.1541 10.2702 34.5287 10.3014 34.8838C10.36 35.4887 9.91512 35.3755 9.56782 35.4535ZM6.87919 33.5336C6.93772 33.0615 7.13673 32.4878 7.7767 32.5464C8.22546 32.5854 8.84981 32.7376 8.8303 33.28C8.80299 33.9629 8.1279 34.0526 7.57378 34.1619C7.05089 34.2634 6.84016 33.8419 6.87919 33.5336ZM8.87713 51.7571C8.84201 51.7844 8.8186 51.8273 8.80299 51.8819C8.78738 51.9366 8.79128 52.0029 8.80689 52.0887L8.8303 52.1785L8.74835 52.2058L8.36594 50.6605L8.44788 50.641L8.4713 50.7347C8.49081 50.8244 8.52593 50.8908 8.56495 50.9337C8.59617 50.9649 8.63909 50.9883 8.69372 50.9961C8.73275 51.0078 8.8264 50.9883 8.97469 50.9532L9.88781 50.723L9.62636 49.6811L8.71324 49.9074C8.56105 49.9464 8.4674 49.9776 8.43618 50.001C8.40496 50.0245 8.38155 50.0752 8.36594 50.1337C8.35033 50.1845 8.35423 50.2547 8.37374 50.3405L8.39715 50.4381L8.31521 50.4576L7.93279 48.9123L8.01474 48.8928L8.03815 48.9865C8.06156 49.0762 8.09278 49.1387 8.1357 49.1855C8.16302 49.2206 8.20985 49.2401 8.26058 49.2479C8.2996 49.2557 8.39325 49.2401 8.54154 49.2011L10.4809 48.7211C10.6331 48.6821 10.7229 48.6509 10.758 48.6314C10.7931 48.6002 10.8165 48.5611 10.836 48.5065C10.8517 48.4519 10.8478 48.3816 10.8282 48.2997L10.8048 48.2021L10.8868 48.1826L11.2692 49.724L11.1873 49.7474L11.1599 49.6459C11.1365 49.564 11.1053 49.4977 11.0624 49.4508C11.0351 49.4196 10.9882 49.3962 10.9375 49.3845C10.8946 49.3767 10.8009 49.3923 10.6526 49.4313L9.81757 49.6381L10.0751 50.6839L10.9102 50.4732C11.0624 50.4381 11.1521 50.403 11.1873 50.3835C11.2224 50.3562 11.2458 50.3132 11.2653 50.2586C11.2809 50.204 11.277 50.1376 11.2575 50.0518L11.238 49.9542L11.3199 49.9308L11.7023 51.4722L11.6204 51.4956L11.597 51.398C11.5775 51.3161 11.5424 51.2498 11.5033 51.2068C11.4721 51.1717 11.4292 51.1483 11.3746 51.1366C11.3355 51.1327 11.2419 51.1444 11.0936 51.1912L9.15419 51.6634C9.002 51.7102 8.91225 51.7375 8.87713 51.7571ZM9.25565 54.0243C9.1737 53.7784 9.14638 53.5716 9.1737 53.4155C9.20101 53.197 9.27516 53.0253 9.39222 52.9043C9.50929 52.7833 9.68879 52.6819 9.93073 52.6077L11.3433 52.1512C11.5072 52.0926 11.6087 52.0497 11.6438 52.0224C11.675 51.9873 11.7023 51.9444 11.7101 51.8975C11.718 51.839 11.7062 51.7532 11.6633 51.6322L11.7453 51.6088L12.2291 53.0994L12.1511 53.1267L12.1277 53.0526C12.0887 52.9394 12.0535 52.8653 12.0145 52.8302C11.9794 52.795 11.9326 52.7716 11.8897 52.7677C11.8428 52.7638 11.7336 52.7911 11.5736 52.8458L10.1571 53.3023C9.89951 53.3843 9.73562 53.4584 9.66148 53.5287C9.59124 53.5989 9.54441 53.6809 9.51319 53.7862C9.48978 53.8916 9.49368 54.0204 9.54051 54.153C9.59124 54.3091 9.66928 54.4262 9.77464 54.5198C9.88 54.6057 10.0049 54.6564 10.1493 54.6759C10.2897 54.6876 10.5122 54.6447 10.8204 54.5471L11.9989 54.1647C12.1277 54.1218 12.2135 54.0828 12.2604 54.0321C12.3033 53.9852 12.3345 53.9462 12.3423 53.8955C12.354 53.8174 12.3423 53.7238 12.3072 53.6106L12.3891 53.5833L12.713 54.5823L12.6311 54.6096L12.6077 54.5432C12.5803 54.4613 12.5413 54.4028 12.4945 54.3559C12.4438 54.313 12.3813 54.2896 12.3111 54.2896C12.2604 54.2779 12.1745 54.3013 12.0574 54.3403L10.957 54.6993C10.6175 54.8086 10.3639 54.8593 10.2 54.8671C10.0361 54.8671 9.86439 54.8086 9.68099 54.672C9.49368 54.5393 9.3532 54.3247 9.25565 54.0243ZM10.5044 57.2631L9.93073 55.8271L10.0088 55.7959C10.0634 55.9246 10.1102 56.0105 10.1532 56.0456C10.1961 56.0846 10.2429 56.1041 10.2858 56.1119C10.3327 56.1119 10.4341 56.0846 10.5824 56.0222L12.4126 55.2886C12.5686 55.23 12.6584 55.1793 12.6896 55.1481C12.7208 55.113 12.7403 55.0662 12.7442 55.0115C12.7481 54.9491 12.7247 54.8632 12.6701 54.7306L12.752 54.6993L13.2945 56.0534C13.4232 56.3812 13.4857 56.6192 13.4818 56.7792C13.4779 56.9353 13.4349 57.0797 13.353 57.1968C13.271 57.3216 13.1657 57.4114 13.033 57.4582C12.8964 57.5167 12.7559 57.5167 12.6116 57.4582C12.4672 57.3997 12.3111 57.2631 12.1511 57.0407C12.194 57.3333 12.194 57.5519 12.1472 57.6923C12.0848 57.9031 11.9521 58.0475 11.7492 58.1216C11.5385 58.2035 11.3316 58.1957 11.1248 58.0787C10.8751 57.9265 10.6644 57.6572 10.5044 57.2631ZM11.1365 58.8084L11.2107 58.7694L11.2575 58.8591C11.2965 58.9372 11.3394 58.9957 11.3902 59.0308C11.4253 59.0581 11.4721 59.0659 11.5267 59.0659C11.5697 59.0659 11.6555 59.0308 11.7921 58.9645L13.5871 58.0904C13.712 58.0279 13.7861 57.9967 13.8096 57.9694C13.8525 57.9343 13.8759 57.8914 13.8837 57.8445C13.8954 57.7743 13.8837 57.7001 13.8408 57.6026L13.7939 57.5167L13.8681 57.4777L14.9802 59.7644L14.1725 60.1586L14.1373 60.0844C14.3129 59.9517 14.43 59.823 14.4807 59.7098C14.5354 59.6005 14.5471 59.4679 14.5276 59.3196C14.5159 59.2337 14.4573 59.0776 14.3598 58.8786L14.2232 58.5977L13.1111 59.1401L13.1345 59.1947C13.2203 59.3664 13.3335 59.4679 13.4818 59.4913C13.6261 59.5186 13.8096 59.4874 14.0359 59.4093L14.071 59.4874L12.6428 60.1781L12.6038 60.1039C12.752 60.0103 12.8652 59.9166 12.9354 59.8152C13.0096 59.7137 13.0447 59.62 13.0486 59.5342C13.0486 59.4522 13.0174 59.343 12.9589 59.2142L12.1862 59.5888C12.034 59.6669 11.9482 59.7137 11.9209 59.741C11.8936 59.7722 11.8779 59.8113 11.8701 59.8503C11.8662 59.8971 11.8818 59.9595 11.9209 60.0376L11.9989 60.1976C12.1238 60.4512 12.2799 60.6307 12.475 60.7283C12.6662 60.8258 12.9003 60.8454 13.1774 60.7985L13.2125 60.8766L12.2838 61.177L11.1365 58.8084ZM13.5832 62.4297C13.4466 62.5077 13.3647 62.5584 13.3413 62.5936C13.314 62.6287 13.3023 62.6716 13.2984 62.7301C13.2984 62.7926 13.3218 62.855 13.3608 62.9291L13.4115 63.0189L13.3374 63.0618L12.5569 61.6765L12.6311 61.6336L12.6818 61.7194C12.7247 61.7975 12.7716 61.8482 12.8262 61.8794C12.8652 61.9068 12.9081 61.9146 12.9628 61.9068C13.0018 61.9068 13.0915 61.8638 13.2203 61.7936L14.9607 60.8102C15.0973 60.7361 15.1753 60.6854 15.2026 60.6502C15.23 60.6151 15.2417 60.5722 15.2417 60.5137C15.2417 60.4551 15.2222 60.3888 15.1792 60.3146L15.1285 60.2249L15.2026 60.182L15.9831 61.5634L15.909 61.6102L15.8582 61.5243C15.8153 61.4463 15.7685 61.3917 15.7138 61.3604C15.6748 61.337 15.6319 61.3292 15.5734 61.3292C15.5343 61.337 15.4485 61.3761 15.3158 61.4463L13.5832 62.4297ZM15.5695 66.2148C15.3548 66.1407 15.1597 65.9768 14.9763 65.7231C14.8241 65.5046 14.7383 65.3212 14.711 65.1612C14.6758 64.9466 14.6993 64.7593 14.7734 64.6071C14.8514 64.4549 14.9919 64.3105 15.1987 64.1661L16.4162 63.3077C16.5606 63.2062 16.6426 63.136 16.666 63.093C16.6894 63.054 16.6972 63.0111 16.6894 62.9565C16.6816 62.9018 16.6426 62.8238 16.5645 62.7184L16.6348 62.6638L17.5362 63.9476L17.4659 64.0023L17.423 63.932C17.3528 63.8384 17.2981 63.7798 17.2513 63.7564C17.2084 63.733 17.1616 63.7252 17.1147 63.733C17.0679 63.7486 16.9743 63.8032 16.8338 63.9008L15.6163 64.7554C15.3939 64.9154 15.2573 65.0363 15.2105 65.1183C15.1597 65.2002 15.1402 65.3017 15.1441 65.411C15.1519 65.5202 15.1948 65.6373 15.2807 65.7505C15.3743 65.887 15.4875 65.9807 15.6124 66.0314C15.7412 66.0821 15.8738 66.0978 16.0143 66.0704C16.1548 66.0392 16.3538 65.9378 16.6192 65.7505L17.6337 65.0363C17.743 64.9583 17.8132 64.892 17.8484 64.8295C17.8757 64.7749 17.8913 64.7203 17.8835 64.6773C17.8718 64.5993 17.8328 64.5095 17.7625 64.4159L17.8328 64.3691L18.4376 65.2315L18.3674 65.2822L18.3322 65.2315C18.2815 65.1612 18.2269 65.1105 18.1683 65.0871C18.1098 65.0598 18.0435 65.052 17.9732 65.0715C17.9225 65.0871 17.8445 65.13 17.7469 65.1963L16.8026 65.8597C16.5099 66.0626 16.2875 66.1953 16.1314 66.2499C15.9753 66.3046 15.7841 66.289 15.5695 66.2148ZM17.8679 69.3405L18.4415 66.1329L16.9782 67.3933C16.8416 67.5026 16.7791 67.6157 16.787 67.7172C16.7948 67.8147 16.8299 67.9045 16.8962 67.9786L16.943 68.0372L16.8767 68.0918L16.1704 67.2762L16.2367 67.2216C16.346 67.3426 16.4475 67.4128 16.5411 67.4206C16.6348 67.4245 16.744 67.3738 16.865 67.2684L18.4883 65.8714L18.5078 65.77C18.5273 65.6763 18.5312 65.5905 18.5156 65.5358C18.5039 65.4851 18.4688 65.4188 18.4103 65.3485L18.4766 65.2861L19.179 66.1056L18.7303 68.4742L19.7175 67.6157C19.8541 67.5026 19.9322 67.4011 19.9478 67.3153C19.9634 67.206 19.9165 67.085 19.8073 66.9601L19.8697 66.9055L20.5253 67.6664L20.4629 67.7211C20.3653 67.6391 20.2912 67.5884 20.2404 67.5689C20.1936 67.5533 20.139 67.5533 20.0765 67.5689C20.018 67.5962 19.9322 67.6469 19.8229 67.7406L17.9069 69.3951L17.8679 69.3405ZM19.6434 71.0341L18.5117 69.918L18.5703 69.8556L18.6444 69.9297C18.7069 69.9922 18.7654 70.0273 18.8278 70.0429C18.8707 70.0546 18.9137 70.0507 18.9683 70.0312C19.0073 70.0117 19.0776 69.9532 19.1868 69.8478L20.5916 68.4235C20.697 68.3142 20.7594 68.2362 20.775 68.201C20.7906 68.1581 20.7906 68.1152 20.775 68.0567C20.7594 67.9981 20.7204 67.9435 20.6619 67.885L20.5877 67.8108L20.6463 67.7484L21.7818 68.8644L21.7194 68.9269L21.6452 68.8566C21.5828 68.7942 21.5204 68.7552 21.4618 68.7396C21.4189 68.7279 21.376 68.7279 21.3213 68.7513C21.2862 68.763 21.2121 68.8293 21.1067 68.9347L19.7058 70.359C19.5966 70.4722 19.5341 70.5463 19.5185 70.5853C19.5029 70.6282 19.5029 70.6712 19.5185 70.7297C19.5341 70.7882 19.5731 70.8429 19.6317 70.9014L19.7058 70.9755L19.6434 71.0341ZM21.0053 72.3179L21.7467 69.7971C21.8364 69.4927 21.8833 69.3054 21.8833 69.2351C21.8833 69.1649 21.8403 69.0908 21.7584 69.0049L21.813 68.9386L22.933 69.8712L22.8783 69.9375L22.8393 69.9024C22.7379 69.8205 22.6598 69.7776 22.6013 69.7737C22.5584 69.7698 22.5232 69.7815 22.4998 69.8166C22.4803 69.84 22.4647 69.8634 22.4491 69.8985C22.4335 69.9376 22.4023 70.039 22.3554 70.2068L21.8833 71.7794L23.21 71.1316C23.37 71.0536 23.4715 70.9951 23.5183 70.9599C23.5651 70.9287 23.6042 70.8975 23.6276 70.8741C23.6549 70.839 23.6705 70.7999 23.6744 70.757C23.6783 70.7141 23.6705 70.6751 23.6471 70.6321C23.6159 70.5697 23.5573 70.5073 23.4754 70.437L23.53 70.3746L24.2948 71.0107L24.2402 71.0731C24.1466 71.0146 24.0295 70.999 23.9007 71.0224C23.8032 71.038 23.6198 71.1121 23.3505 71.2526L21.0638 72.3647L21.0053 72.3179ZM22.6676 73.5744L22.7105 73.5003L22.7964 73.5549C22.8666 73.6096 22.9369 73.633 22.9954 73.6369C23.0422 73.6408 23.0852 73.6291 23.132 73.5978C23.1671 73.5744 23.2256 73.5042 23.3076 73.3754L24.4158 71.7092C24.49 71.596 24.5368 71.5219 24.5446 71.4906C24.5602 71.436 24.5602 71.3931 24.5407 71.3424C24.5212 71.2721 24.4665 71.2175 24.3846 71.1667L24.2988 71.1043L24.3456 71.0341L26.4606 72.4389L25.9611 73.192L25.8909 73.1374C25.9767 72.9345 26.0118 72.7667 26.0001 72.6457C25.9923 72.5208 25.9377 72.3999 25.8401 72.2867C25.7855 72.2165 25.6606 72.1189 25.4694 71.9901L25.2119 71.8301L24.529 72.8603L24.5797 72.8954C24.7436 73.0008 24.8919 73.0281 25.0285 72.9735C25.1689 72.9228 25.3133 72.8057 25.4655 72.6223L25.5358 72.6691L24.6539 73.9959L24.5836 73.949C24.6656 73.7929 24.7124 73.6564 24.728 73.5315C24.7397 73.4105 24.728 73.3052 24.6851 73.2349C24.6421 73.1647 24.5602 73.0867 24.4392 73.0008L23.9632 73.7149C23.8734 73.8554 23.8188 73.949 23.811 73.9842C23.8032 74.0232 23.8071 74.0661 23.8227 74.1051C23.8422 74.1481 23.889 74.1871 23.9632 74.2339L24.1114 74.3315C24.3495 74.4914 24.5719 74.5617 24.7904 74.55C25.0051 74.5383 25.2197 74.4368 25.4304 74.2534L25.5006 74.3002L24.849 75.0339L22.6676 73.5744ZM28.1424 76.3333C28.162 76.4972 28.1893 76.6065 28.2088 76.6494C28.24 76.7235 28.2907 76.7743 28.3649 76.8211L28.3259 76.8913L27.4752 76.4543L27.2449 74.7724L27.0654 74.6788L26.6752 75.4319C26.5972 75.5763 26.5581 75.6777 26.5581 75.7207C26.5581 75.7714 26.5738 75.8104 26.6089 75.8611C26.644 75.908 26.722 75.9548 26.8469 76.025L26.8079 76.0992L25.4265 75.3812L25.4655 75.307C25.5904 75.3695 25.6801 75.4007 25.7348 75.4007C25.7933 75.4007 25.8362 75.3851 25.8753 75.3577C25.9104 75.3304 25.9689 75.2446 26.043 75.1002L26.9523 73.3559C27.0264 73.2076 27.0654 73.1101 27.0693 73.0632C27.0732 73.0164 27.0537 72.9657 27.0186 72.9228C26.9835 72.8759 26.9054 72.8213 26.7806 72.7589L26.8196 72.6847L28.0761 73.3325C28.4 73.5003 28.6263 73.6486 28.7551 73.7695C28.8839 73.8983 28.9619 74.0427 28.9931 74.2105C29.0283 74.3822 29.0009 74.55 28.9151 74.7139C28.8136 74.9129 28.6575 75.0417 28.4468 75.0963C28.3102 75.1314 28.1503 75.1275 27.9668 75.0846L28.1424 76.3333ZM31.0145 77.0435C30.9169 77.2738 30.7452 77.4415 30.4916 77.5352C30.2419 77.6328 29.9726 77.621 29.6877 77.5079C29.6019 77.4728 29.5199 77.4298 29.4458 77.383C29.3717 77.3284 29.2858 77.2581 29.1921 77.1606C29.1375 77.0981 29.0907 77.0669 29.0439 77.0513C29.0087 77.0357 28.9658 77.0318 28.9112 77.0474C28.8605 77.0591 28.8136 77.0864 28.7629 77.1333L28.6849 77.0982L29.1141 76.0367L29.1921 76.0719C29.1336 76.3957 29.157 76.665 29.2702 76.8991C29.3795 77.1294 29.5355 77.2815 29.7385 77.3596C29.8946 77.4259 30.035 77.4337 30.1599 77.383C30.2848 77.3323 30.3706 77.2542 30.4135 77.1411C30.4409 77.0708 30.4487 77.0084 30.437 76.9303C30.4253 76.8484 30.3979 76.7664 30.3472 76.6845C30.2965 76.6026 30.1989 76.4738 30.0545 76.3099C29.8516 76.0797 29.7072 75.9041 29.6331 75.7636C29.559 75.6231 29.5121 75.4982 29.5004 75.3656C29.4848 75.229 29.5004 75.1002 29.5551 74.9636C29.6448 74.7373 29.8009 74.5812 30.035 74.4876C30.2653 74.4017 30.5033 74.4056 30.753 74.5071C30.8428 74.5422 30.9286 74.589 31.0067 74.6475C31.0652 74.6905 31.1316 74.7529 31.2096 74.8349C31.2837 74.9168 31.3384 74.9636 31.3774 74.9831C31.4125 74.9948 31.4476 74.9948 31.475 74.9831C31.5062 74.9675 31.5452 74.9207 31.5998 74.8465L31.6662 74.8739L31.3072 75.8182L31.2252 75.7792C31.2798 75.5333 31.2564 75.307 31.155 75.1002C31.0574 74.8856 30.913 74.7529 30.7335 74.6788C30.5891 74.6202 30.4682 74.6124 30.3511 74.6553C30.2379 74.6983 30.1638 74.7685 30.1248 74.8661C30.1014 74.9285 30.0897 74.9909 30.1014 75.0534C30.117 75.1353 30.156 75.2212 30.2145 75.3226C30.2653 75.3929 30.3784 75.5373 30.5657 75.748C30.8311 76.0367 30.9911 76.2826 31.0496 76.4699C31.1003 76.665 31.0886 76.8523 31.0145 77.0435ZM33.5275 75.6543L33.4339 75.6192C33.348 75.5919 33.2739 75.5841 33.2154 75.5997C33.1724 75.6114 33.1334 75.6309 33.0944 75.6699C33.071 75.705 33.0319 75.7909 32.9851 75.9353L32.3686 77.8318C32.3178 77.98 32.2944 78.0776 32.2983 78.1166C32.3022 78.1595 32.3256 78.1986 32.3647 78.2415C32.4037 78.2844 32.4622 78.3195 32.5403 78.3469L32.6378 78.3781L32.6105 78.46L31.1003 77.9722L31.1277 77.8903L31.2213 77.9215C31.3033 77.9488 31.3735 77.9566 31.4359 77.9449C31.4789 77.9371 31.5179 77.9098 31.553 77.8669C31.5803 77.8357 31.6193 77.7537 31.6662 77.6093L32.2866 75.7089C32.3334 75.5607 32.3569 75.467 32.353 75.428C32.353 75.3851 32.3295 75.3421 32.2905 75.2992C32.2515 75.2563 32.193 75.2212 32.111 75.2017L32.0174 75.1665L32.0408 75.0846L33.5509 75.5802L33.5275 75.6543ZM36.2084 77.1177L36.1303 77.0942C36.1303 76.8952 36.1108 76.7508 36.0757 76.6572C36.0406 76.5674 35.9781 76.4777 35.8923 76.4114C35.8416 76.3684 35.7518 76.3294 35.6113 76.2982L35.3928 76.2435L34.827 78.5147C34.7879 78.6629 34.7723 78.7605 34.784 78.8034C34.788 78.8463 34.8153 78.8854 34.8543 78.9283C34.8972 78.9712 34.9596 79.0024 35.0455 79.018L35.1431 79.0453L35.1235 79.1234L33.5783 78.741L33.5978 78.659L33.6992 78.6824C33.7812 78.7098 33.8553 78.7098 33.9138 78.6902C33.9607 78.6824 33.9958 78.6512 34.0309 78.6083C34.0543 78.5771 34.0894 78.4873 34.1246 78.343L34.6904 76.068L34.4758 76.0133C34.2768 75.9626 34.1246 75.9704 34.0114 76.0328C33.8514 76.1148 33.7343 76.2709 33.6446 76.4777L33.5626 76.4543L33.7578 75.6543L36.4074 76.3138L36.2084 77.1177ZM39.7126 76.9421C39.6111 76.9421 39.5292 76.9577 39.4667 76.9928C39.3848 77.0474 39.2404 77.1996 39.0375 77.4415L38.218 78.4288L38.1009 79.1546C38.0775 79.3107 38.0697 79.4044 38.0814 79.4473C38.0931 79.4863 38.1205 79.5292 38.1634 79.5605C38.2102 79.5956 38.2687 79.619 38.3507 79.6346L38.5146 79.6619L38.5029 79.7439L36.821 79.4746L36.8327 79.3927L36.9888 79.42C37.0786 79.4356 37.1527 79.4278 37.2073 79.4083C37.2503 79.3927 37.2854 79.3575 37.3166 79.3185C37.3361 79.2834 37.3595 79.1897 37.3829 79.0415L37.4766 78.4444L36.9771 77.0435C36.8795 76.7743 36.8054 76.6065 36.7508 76.5518C36.7 76.5011 36.6259 76.466 36.5322 76.4465L36.544 76.3645L37.98 76.5948L37.9683 76.6767L37.9058 76.665C37.82 76.6572 37.7536 76.6572 37.7185 76.6728C37.6795 76.6962 37.6561 76.7157 37.6522 76.7508C37.6444 76.8055 37.6834 76.9499 37.7614 77.1762L38.1478 78.2532L38.8307 77.4376C38.9985 77.2308 39.0882 77.0981 39.0999 77.0318C39.1038 76.9889 39.0921 76.9538 39.057 76.9225C39.0141 76.8757 38.9243 76.8406 38.7955 76.8133L38.8111 76.7313L39.7243 76.8718L39.7126 76.9421ZM44.165 78.6473C44.1455 79.0297 44.0167 79.3653 43.7787 79.6502C43.4626 80.0209 43.0295 80.1965 42.4832 80.1692C41.9368 80.1419 41.5232 79.9351 41.2461 79.5565C41.0237 79.2483 40.9223 78.8971 40.9418 78.499C40.9613 78.0503 41.1369 77.6796 41.4569 77.3947C41.7808 77.1059 42.1632 76.9811 42.608 76.9928C43.0919 77.0201 43.4782 77.1879 43.7631 77.504C44.0557 77.8122 44.1845 78.1986 44.165 78.6473ZM46.9317 77.9839C46.9083 77.781 46.8536 77.6249 46.7678 77.5274C46.6819 77.4298 46.5571 77.3557 46.3971 77.3167C46.3073 77.2933 46.1434 77.2854 45.8976 77.2854H45.6166L45.6205 78.5303H45.7064C45.843 78.5303 45.9522 78.5069 46.0342 78.4678C46.1161 78.4288 46.1942 78.3625 46.2488 78.261C46.3073 78.1674 46.3464 78.0386 46.362 77.8747H46.44V79.4044H46.362C46.3347 79.1117 46.2566 78.9244 46.1317 78.8307C46.0069 78.7449 45.8625 78.6942 45.7025 78.6942H45.6166V79.6268C45.6166 79.7829 45.6244 79.8726 45.644 79.9195C45.6596 79.9507 45.6947 79.9858 45.7415 80.0131C45.7922 80.0443 45.8586 80.0599 45.9444 80.0599H46.042V80.1458H44.4577V80.0638H44.5552C44.645 80.0638 44.7152 80.0482 44.7699 80.017C44.8089 79.9975 44.8401 79.9624 44.8596 79.9117C44.8752 79.8726 44.883 79.7829 44.883 79.6307V77.6328C44.883 77.4728 44.8752 77.383 44.8557 77.3401C44.8401 77.3011 44.8089 77.2698 44.7582 77.2386C44.7074 77.2113 44.6411 77.1957 44.5552 77.1957H44.4577V77.1098H47.0175V77.9879H46.9317V77.9839ZM51.0485 79.6775C50.8769 79.779 50.6661 79.8453 50.4203 79.8804C50.0964 79.9273 49.8037 79.896 49.5384 79.7985C49.273 79.7087 49.0545 79.5448 48.8906 79.3224C48.7267 79.0922 48.6214 78.8463 48.5862 78.5771C48.5511 78.2883 48.5901 78.0074 48.7072 77.7303C48.8243 77.4571 48.9999 77.223 49.234 77.0513C49.472 76.8757 49.7335 76.7665 50.0223 76.7313C50.2369 76.704 50.4671 76.7235 50.713 76.7821C50.8573 76.8172 50.9471 76.8367 50.9822 76.8328C51.029 76.8211 51.0681 76.8016 51.0954 76.7626C51.1266 76.7235 51.1422 76.665 51.1461 76.587L51.232 76.5752L51.3685 77.621L51.2827 77.6328C51.1851 77.3713 51.0368 77.1762 50.8378 77.0591C50.6388 76.9303 50.432 76.8874 50.2018 76.9147C50.0145 76.942 49.8506 77.0162 49.7062 77.145C49.5618 77.2737 49.4642 77.4337 49.4174 77.6132C49.3511 77.8513 49.3355 78.1049 49.3745 78.382C49.4096 78.6473 49.4759 78.8893 49.5735 79.1039C49.6711 79.3185 49.7998 79.4746 49.9559 79.5683C50.1159 79.658 50.311 79.6892 50.5413 79.658C50.7286 79.6307 50.9003 79.5761 51.0446 79.4668C51.1929 79.3653 51.3412 79.2014 51.4895 78.9751L51.5207 79.2327C51.3763 79.42 51.2202 79.5722 51.0485 79.6775ZM53.9752 79.139L53.9557 79.0571L54.0494 79.0376C54.1391 79.0102 54.2015 78.979 54.2484 78.94C54.2796 78.9088 54.303 78.8659 54.3108 78.819C54.3186 78.7722 54.3069 78.6824 54.2679 78.5381L54.0455 77.621L52.9997 77.8708L53.2221 78.7839C53.2572 78.9361 53.2884 79.0297 53.3157 79.061C53.3431 79.0922 53.3821 79.1234 53.4367 79.139C53.4913 79.1585 53.5616 79.1546 53.6435 79.1312L53.745 79.1117L53.7645 79.1936L52.2192 79.5683L52.1997 79.4863L52.2973 79.459C52.3831 79.4395 52.4534 79.4044 52.4963 79.3653C52.5275 79.338 52.5509 79.2951 52.5587 79.2405C52.5665 79.2054 52.5509 79.1117 52.5158 78.9595L52.0475 77.024C52.0124 76.8718 51.9812 76.7782 51.9578 76.743C51.9305 76.7079 51.8914 76.6845 51.8368 76.665C51.7822 76.6494 51.7119 76.6533 51.63 76.6728L51.5324 76.6962L51.5129 76.6143L53.0582 76.2397L53.0777 76.3216L52.9802 76.3489C52.8943 76.3645 52.828 76.3996 52.785 76.4387C52.7538 76.466 52.7343 76.5089 52.7226 76.5674C52.7148 76.6026 52.7265 76.6923 52.7616 76.8445L52.9606 77.6796L54.0064 77.4337L53.8035 76.5909C53.7684 76.4426 53.7372 76.3528 53.7138 76.3216C53.6865 76.2826 53.6474 76.2553 53.5928 76.2435C53.5382 76.224 53.4679 76.224 53.3821 76.2435L53.2884 76.2709L53.2689 76.1889L54.8103 75.8182L54.8298 75.9002L54.7362 75.9197C54.6503 75.9431 54.584 75.9743 54.541 76.0133C54.5098 76.0484 54.4864 76.0875 54.4786 76.1382C54.4747 76.1811 54.4825 76.2748 54.5215 76.4192L54.9898 78.3586C55.0249 78.5108 55.06 78.6044 55.0796 78.6356C55.1069 78.6746 55.1459 78.6942 55.2005 78.7137C55.2551 78.7293 55.3254 78.7293 55.4073 78.7098L55.501 78.6864L55.5205 78.7683L53.9752 79.139ZM55.8756 78.62L55.8483 78.542L55.9419 78.5069C56.0239 78.4834 56.0863 78.4444 56.1254 78.3976C56.1527 78.3625 56.1722 78.3195 56.1761 78.2727C56.1839 78.2298 56.1605 78.1361 56.1097 77.9918L55.4659 76.1031C55.419 75.9548 55.3761 75.8689 55.3488 75.8377C55.3215 75.8026 55.2786 75.7831 55.22 75.7675C55.1615 75.7597 55.0952 75.7675 55.0132 75.7948L54.9196 75.8299L54.8922 75.7519L56.3985 75.2368L56.4258 75.3187L56.3322 75.3538C56.2463 75.3773 56.1839 75.4163 56.1449 75.4631C56.1136 75.4982 56.0941 75.5411 56.0902 75.5919C56.0863 75.6309 56.1097 75.7246 56.1605 75.8689L56.8004 77.7576C56.8512 77.9059 56.8902 77.9957 56.9214 78.023C56.9487 78.0581 56.9955 78.0776 57.0502 78.0893C57.1087 78.101 57.179 78.0932 57.257 78.0659L57.3507 78.0308L57.378 78.1127L55.8756 78.62ZM60.2149 76.9889L57.3077 75.5138L58.096 77.2776C58.1662 77.4376 58.2521 77.5274 58.3496 77.5469C58.4472 77.5742 58.5408 77.5664 58.6345 77.5235L58.7008 77.4923L58.7359 77.5703L57.7487 78.0074L57.7136 77.9293C57.8697 77.8591 57.9594 77.7849 57.9945 77.6913C58.0257 77.6054 58.0101 77.4845 57.9438 77.3401L57.0736 75.3812L56.9838 75.3304C56.8941 75.2797 56.82 75.2524 56.7614 75.2524C56.7029 75.2524 56.6326 75.268 56.5468 75.3031L56.5117 75.2251L57.4989 74.788L59.6335 75.9002L59.1028 74.6983C59.0286 74.5383 58.9545 74.4368 58.8764 74.3939C58.7789 74.3471 58.6501 74.3588 58.4979 74.429L58.4628 74.351L59.3798 73.9451L59.4149 74.0232C59.3057 74.0934 59.2354 74.1442 59.2003 74.191C59.173 74.2339 59.1574 74.2846 59.1574 74.3471C59.1613 74.4134 59.1925 74.5071 59.2471 74.6397L60.2773 76.946L60.2149 76.9889ZM61.0383 76.5089L60.9953 76.4348L61.0812 76.384C61.1553 76.3372 61.21 76.2904 61.2373 76.2318C61.2607 76.1967 61.2685 76.1499 61.2607 76.0953C61.2568 76.0523 61.2139 75.9704 61.1358 75.8416L60.1134 74.1285C60.0432 74.0076 59.9964 73.9412 59.9729 73.9139C59.9339 73.8788 59.8871 73.8515 59.8403 73.8515C59.77 73.8437 59.692 73.871 59.6061 73.9178L59.5203 73.9725L59.4774 73.8944L61.6587 72.595L62.1192 73.3676L62.045 73.4105C61.8928 73.2466 61.7602 73.1413 61.647 73.1023C61.5299 73.0554 61.4012 73.0554 61.2529 73.0906C61.167 73.1101 61.0227 73.1764 60.8236 73.2935L60.5583 73.4535L61.1904 74.5149L61.2451 74.4836C61.409 74.39 61.4987 74.2573 61.5104 74.1129C61.5221 73.9686 61.4792 73.7812 61.3778 73.5705L61.4519 73.5237L62.2675 74.8895L62.1972 74.9402C62.0919 74.7958 61.9865 74.6944 61.8772 74.628C61.7758 74.5656 61.6782 74.5344 61.5924 74.5422C61.5065 74.55 61.4012 74.589 61.2763 74.6593L61.7133 75.3968C61.7953 75.5372 61.8538 75.6192 61.885 75.6426C61.9163 75.666 61.9553 75.6855 62.0021 75.6855C62.0489 75.6855 62.1075 75.6582 62.1816 75.6153L62.3338 75.5255C62.5796 75.3812 62.7396 75.2095 62.8216 75.0066C62.9035 74.8036 62.9035 74.5734 62.8294 74.2963L62.8996 74.2534L63.2781 75.1548L61.0383 76.5089ZM65.3112 73.4457C65.2605 73.7071 65.1161 73.9334 64.8703 74.1168C64.7922 74.1754 64.7181 74.2183 64.6361 74.2534C64.5542 74.2924 64.4449 74.3276 64.3122 74.3588C64.2381 74.3744 64.1796 74.3978 64.1444 74.429C64.1132 74.4485 64.0898 74.4875 64.0703 74.5344C64.0508 74.5812 64.0547 74.6436 64.0703 74.71L64.0001 74.7646L63.3133 73.8476L63.3835 73.7969C63.6293 74.0076 63.8752 74.1364 64.1288 74.1559C64.3786 74.1832 64.5932 74.1285 64.7688 73.9998C64.9015 73.8983 64.9834 73.7774 65.0068 73.6525C65.0302 73.5159 65.0068 73.4027 64.9327 73.3013C64.8898 73.2466 64.8312 73.2037 64.761 73.1764C64.6907 73.1413 64.6049 73.1218 64.5112 73.1218C64.4137 73.1179 64.2576 73.1413 64.0391 73.1803C63.7386 73.2349 63.5084 73.2623 63.3523 73.2623C63.2001 73.2545 63.0596 73.2271 62.9386 73.1725C62.8138 73.1179 62.7123 73.0359 62.6265 72.9189C62.4821 72.7276 62.4314 72.513 62.4704 72.2633C62.5094 72.0252 62.6382 71.8223 62.8567 71.6623C62.9347 71.5999 63.0206 71.5531 63.1064 71.5179C63.1728 71.4906 63.2625 71.4633 63.3718 71.4399C63.4811 71.4204 63.5513 71.3931 63.5864 71.3697C63.6176 71.3463 63.6332 71.315 63.6371 71.2877C63.6411 71.2565 63.6254 71.198 63.5825 71.1121L63.6371 71.0692L64.2654 71.8652L64.1913 71.9199C64.004 71.7443 63.7971 71.6467 63.5708 71.6233C63.3445 71.5999 63.1494 71.6467 62.9933 71.7677C62.8723 71.8575 62.8021 71.9628 62.7787 72.0799C62.7552 72.1969 62.7748 72.3023 62.8411 72.3842C62.8801 72.4389 62.9308 72.4779 62.9855 72.5013C63.0635 72.5286 63.1572 72.5442 63.2781 72.5442C63.3601 72.5403 63.5435 72.513 63.8245 72.4623C64.2147 72.3842 64.5034 72.3803 64.6986 72.4311C64.8898 72.4818 65.0459 72.5833 65.1668 72.7433C65.3112 72.9462 65.3619 73.1842 65.3112 73.4457ZM66.076 73.114L66.0175 73.0554L66.0916 72.9852C66.158 72.9228 66.197 72.8681 66.2165 72.8057C66.2321 72.7628 66.2282 72.7198 66.2126 72.6652C66.2009 72.6262 66.1424 72.552 66.0409 72.4389L64.6908 70.9677C64.5971 70.8663 64.5386 70.8078 64.5112 70.7882C64.4644 70.7531 64.4176 70.7453 64.3708 70.7531C64.3005 70.7648 64.2264 70.7999 64.1561 70.8624L64.082 70.9326L64.0235 70.8702L65.8965 69.1532L66.5053 69.8166L66.4428 69.8751C66.2633 69.7463 66.1112 69.6683 65.9863 69.6527C65.8653 69.6332 65.7365 69.6566 65.6 69.719C65.518 69.758 65.3932 69.8556 65.2215 70.0078L64.9912 70.2224L65.8263 71.1316L65.8692 71.0848C66.0136 70.9599 66.0721 70.8195 66.0565 70.6712C66.037 70.5268 65.959 70.359 65.8146 70.1639L65.877 70.1093L66.9501 71.2838L66.8877 71.3384C66.7589 71.2253 66.6341 71.1433 66.517 71.1004C66.396 71.0614 66.2985 71.0458 66.2165 71.0692C66.1346 71.0965 66.0409 71.1511 65.9317 71.2526L66.5092 71.8848C66.6224 72.0018 66.6965 72.076 66.7355 72.0994C66.7706 72.115 66.8136 72.115 66.8565 72.1072C66.8994 72.1033 66.954 72.0682 67.0204 72.0096L67.1531 71.8887C67.3599 71.7014 67.4847 71.4945 67.5238 71.2877C67.5628 71.0731 67.5199 70.8468 67.3872 70.5892L67.4496 70.5346L68.0037 71.3345L66.076 73.114ZM70.9772 67.9474L70.9109 67.8967L70.9733 67.8186C71.028 67.7445 71.0592 67.6821 71.0709 67.6157C71.0748 67.5767 71.067 67.5299 71.0397 67.483C71.0202 67.444 70.9538 67.3855 70.8329 67.284L69.0691 65.8909L70.5168 68.5249L70.4817 68.5679L67.594 67.7874L69.2681 69.1142C69.3851 69.2039 69.4593 69.2625 69.4905 69.2781C69.5607 69.3093 69.6349 69.3132 69.7129 69.2937C69.791 69.2703 69.8729 69.2078 69.9588 69.0947L70.0251 69.1493L69.3773 69.9649L69.311 69.9102L69.3305 69.8868C69.3695 69.8322 69.4046 69.7775 69.4203 69.7151C69.4398 69.6566 69.4437 69.6059 69.4281 69.5551C69.4202 69.5083 69.389 69.4576 69.3461 69.4029C69.3344 69.3834 69.2759 69.3366 69.1705 69.2586L67.6603 68.0567C67.5433 67.9669 67.4613 67.9123 67.4184 67.8967C67.3794 67.8889 67.3326 67.8928 67.2779 67.9123C67.2233 67.9396 67.1687 67.9825 67.1179 68.0489L67.0594 68.1269L66.9931 68.0723L67.7657 67.0967L69.8651 67.6742L68.8076 65.7856L69.5763 64.8178L69.6466 64.8686L69.5802 64.9505C69.5256 65.0207 69.4944 65.0871 69.4827 65.1456C69.4788 65.1924 69.4866 65.2315 69.5139 65.2822C69.5295 65.3173 69.5959 65.3797 69.7168 65.4734L71.2855 66.7182C71.4065 66.8158 71.4884 66.8704 71.5314 66.8782C71.5704 66.8938 71.6172 66.8899 71.6718 66.8665C71.7265 66.8431 71.7811 66.8001 71.8357 66.7338L71.8982 66.6519L71.9645 66.7104L70.9772 67.9474ZM72.1713 66.3436L72.1011 66.3007L72.1557 66.2148C72.2025 66.1368 72.226 66.0704 72.2338 66.0119C72.2338 65.969 72.2221 65.9222 72.1908 65.8753C72.1674 65.8402 72.0933 65.7856 71.9645 65.7075L70.2787 64.6383C70.1656 64.5564 70.0914 64.5173 70.0602 64.5095C70.0056 64.4939 69.9588 64.4939 69.9119 64.5135C69.8456 64.5408 69.7871 64.5954 69.7324 64.6773L69.6778 64.7632L69.6076 64.7125L70.9694 62.5701L71.7304 63.054L71.6835 63.1243C71.4728 63.0462 71.3089 63.015 71.188 63.0267C71.067 63.0384 70.946 63.1008 70.8329 63.1906C70.7626 63.253 70.669 63.3818 70.5441 63.573L70.3763 63.8345L71.4221 64.4978L71.4533 64.4432C71.5548 64.2793 71.5782 64.1349 71.5236 63.9944C71.4689 63.8618 71.348 63.7174 71.1607 63.5691L71.2075 63.4989L72.5498 64.3496L72.5069 64.4237C72.3469 64.3418 72.2104 64.2988 72.0855 64.291C71.9606 64.2832 71.8631 64.2988 71.7889 64.3457C71.7148 64.3886 71.6367 64.4705 71.5587 64.5915L72.2845 65.052C72.425 65.1417 72.5147 65.1846 72.5537 65.1963C72.5928 65.2041 72.6357 65.2002 72.6747 65.1768C72.7137 65.1612 72.7567 65.1105 72.8074 65.0403L72.901 64.8881C73.0532 64.65 73.1196 64.4237 73.104 64.2091C73.0844 63.9906 72.9791 63.7798 72.7918 63.573L72.8386 63.5028L73.58 64.1349L72.1713 66.3436ZM74.7 62.0394C74.6727 62.1253 74.6141 62.2619 74.5244 62.4336L73.8883 63.6315L73.8103 63.5964L73.861 63.5067C73.9 63.4286 73.9195 63.3662 73.9195 63.3116C73.9195 63.2569 73.9039 63.2101 73.8688 63.1672C73.8493 63.1399 73.7673 63.0891 73.6269 63.015L71.8631 62.0785C71.7265 62.0043 71.6328 61.9692 71.5938 61.9692C71.5509 61.9614 71.5079 61.9809 71.4572 62.0082C71.4065 62.0394 71.3636 62.0902 71.3206 62.1682L71.2738 62.254L71.1997 62.215L71.8357 61.0092C72.0074 60.6932 72.1869 60.4512 72.382 60.3068C72.6123 60.1195 72.8698 60.0298 73.1508 60.022C73.4317 60.0103 73.7127 60.0805 73.982 60.2249C74.1732 60.3264 74.3293 60.4473 74.458 60.5917C74.5868 60.74 74.6766 60.8883 74.7273 61.0366C74.778 61.1848 74.8014 61.3487 74.8014 61.5048C74.7936 61.6609 74.7624 61.8365 74.7 62.0394ZM75.4843 60.5449L75.4063 60.5098L75.4492 60.4161C75.4843 60.3381 75.4999 60.2678 75.4921 60.2054C75.4921 60.1625 75.4726 60.1195 75.4336 60.0766C75.4102 60.0532 75.3243 59.9986 75.1878 59.9361L73.3732 59.105C73.2327 59.0386 73.1391 59.0074 73.1001 59.0074C73.0532 59.0074 73.0103 59.023 72.9635 59.0542C72.9166 59.0893 72.8776 59.144 72.8425 59.222L72.7996 59.3157L72.7215 59.2806L73.3849 57.8328L73.463 57.868L73.42 57.9616C73.3849 58.0396 73.3654 58.1138 73.3732 58.1762C73.3771 58.2192 73.3966 58.2582 73.4317 58.3011C73.4591 58.3323 73.541 58.3791 73.6776 58.4416L75.4921 59.2806C75.6326 59.3391 75.7263 59.3703 75.7692 59.3703C75.8121 59.3703 75.855 59.3547 75.9058 59.3196C75.9526 59.2845 75.9916 59.2337 76.0267 59.1557L76.0697 59.0659L76.1477 59.1011L75.4843 60.5449ZM76.9945 57.2319C76.8735 57.5363 76.7057 57.7782 76.4911 57.9655C76.2765 58.1528 76.0345 58.2621 75.7575 58.2972C75.4804 58.3401 75.2151 58.305 74.9614 58.2035C74.6922 58.0943 74.4658 57.9265 74.2785 57.6845C74.0951 57.4465 73.982 57.1851 73.9429 56.8924C73.9039 56.5997 73.939 56.3188 74.0483 56.0495C74.1263 55.8505 74.2551 55.6515 74.4307 55.472C74.5322 55.3705 74.5868 55.2964 74.6024 55.2613C74.618 55.2105 74.618 55.1715 74.6024 55.1286C74.5829 55.0778 74.5361 55.0388 74.4697 55.0037L74.5049 54.9179L75.4804 55.312L75.4492 55.3939C75.1721 55.351 74.9302 55.3861 74.7273 55.4993C74.5244 55.6086 74.38 55.7764 74.2941 55.9832C74.2239 56.1588 74.2122 56.3422 74.2551 56.5295C74.298 56.7207 74.3878 56.8768 74.5244 57.0095C74.6961 57.1851 74.9146 57.3177 75.176 57.4192C75.4258 57.5167 75.6677 57.5753 75.9019 57.5987C76.136 57.6143 76.3311 57.5753 76.4911 57.4855C76.6511 57.3919 76.7721 57.2397 76.8579 57.0212C76.932 56.8495 76.9555 56.67 76.9399 56.4905C76.9203 56.311 76.8501 56.0963 76.7252 55.8622L76.9672 55.9598C77.0686 56.1861 77.1233 56.3929 77.1311 56.5919C77.1311 56.787 77.0881 57.0016 76.9945 57.2319ZM78.45 53.1345L75.4024 54.2857L77.2364 54.8945C77.4042 54.9491 77.5252 54.9491 77.611 54.8945C77.693 54.832 77.7515 54.7579 77.7827 54.6603L77.8062 54.5901L77.8881 54.6135L77.5486 55.6398L77.4667 55.6125C77.5213 55.4525 77.5252 55.3354 77.4823 55.2496C77.4354 55.1637 77.3379 55.0974 77.1857 55.0466L75.1526 54.3715L75.0551 54.4067C74.9614 54.4418 74.8912 54.4847 74.8522 54.5198C74.8131 54.555 74.7741 54.6213 74.7429 54.711L74.6648 54.6837L75.0043 53.6535L77.2637 52.8224L76.0267 52.4165C75.855 52.3541 75.7263 52.3463 75.6482 52.3775C75.5468 52.4165 75.4687 52.518 75.418 52.678L75.3399 52.6507L75.656 51.6946L75.7341 51.7219C75.7106 51.8546 75.7028 51.9405 75.7146 51.9873C75.7263 52.0419 75.7536 52.0848 75.8004 52.1239C75.8472 52.1668 75.9409 52.2058 76.0775 52.2565L78.4773 53.0487L78.45 53.1345ZM78.6217 52.3541L78.5398 52.3385L78.5671 52.237C78.5905 52.1551 78.5944 52.0848 78.5788 52.0224C78.571 51.9795 78.5398 51.9405 78.4968 51.9053C78.4656 51.878 78.3798 51.8429 78.2315 51.8039L76.3038 51.2771C76.1711 51.2381 76.0892 51.2185 76.058 51.2146C76.0033 51.2185 75.9565 51.2342 75.9175 51.2693C75.8628 51.3122 75.8199 51.3785 75.7926 51.4722L75.7653 51.5736L75.6833 51.5463L76.3584 49.0996L77.2247 49.3377L77.2052 49.4196C76.9789 49.404 76.8111 49.4196 76.6979 49.4703C76.5847 49.5211 76.4872 49.6069 76.4053 49.7357C76.3584 49.8098 76.3038 49.9581 76.2414 50.1766L76.1594 50.4771L77.3496 50.8049L77.3652 50.7464C77.4159 50.5552 77.3964 50.4069 77.3028 50.2937C77.2091 50.1805 77.053 50.083 76.8306 49.9932L76.854 49.9113L78.3876 50.3405L78.3642 50.4186C78.1925 50.3913 78.0442 50.3874 77.9271 50.4108C77.8062 50.442 77.7125 50.4849 77.6579 50.5474C77.6032 50.6098 77.5525 50.7152 77.5135 50.8478L78.3369 51.082C78.5007 51.1249 78.5983 51.1444 78.6373 51.1405C78.6763 51.1405 78.7154 51.1249 78.7466 51.0898C78.7778 51.0586 78.809 51.0039 78.8285 50.9181L78.8754 50.7425C78.9495 50.4693 78.9495 50.2352 78.8676 50.0323C78.7856 49.8293 78.6256 49.6577 78.3837 49.5172L78.4071 49.4352L79.3007 49.8255L78.6217 52.3541ZM80.1748 36.4447C79.6636 36.234 79.0158 35.875 78.9339 35.2623C78.8715 34.8292 79.449 34.556 79.8275 34.5833C80.3855 34.6263 80.5533 35.1765 80.7367 35.6603C80.5845 35.9725 80.5143 36.5813 80.1748 36.4447ZM80.9436 34.0526C80.4753 33.8068 80.0851 33.678 79.5348 33.8497C79.1056 33.9824 78.9261 33.4322 78.6412 33.1863C78.2861 32.882 78.7076 32.8156 78.7934 32.6166C78.9885 32.16 79.1485 31.7074 79.5309 31.3562C79.8119 31.0947 80.1085 30.9308 80.3816 31.2781C80.6236 31.5942 80.6275 31.9923 80.2489 32.2459C80.0187 32.402 79.5192 32.402 79.7456 32.7883C79.8977 33.0459 80.3582 33.1473 80.7328 33.0224C80.9865 32.9405 81.2245 32.7844 81.482 32.7376C81.8879 32.6634 82.1181 32.8663 82.1298 33.198C82.1064 33.9512 81.5289 34.3609 80.9436 34.0526Z" fill="#B00002"/>
<path d="M46.0935 0.052058C21.1192 -1.15763 -0.0972207 18.8725 0.000335101 43.7258C0.168131 55.8852 4.45278 66.2963 13.1626 74.8305C21.8489 83.3452 32.2874 87.466 44.3999 87.4855C67.0953 87.5362 87.8864 68.8679 87.9996 43.9795C88.1049 20.3437 69.4327 1.18371 46.0935 0.052058ZM43.4673 85.749C32.0103 85.628 22.0362 81.3316 13.9508 73.0433C6.07221 64.9774 2.12705 55.2062 1.99828 43.8546C1.73683 21.1319 20.807 0.50862 46.4135 1.79636C67.2475 2.84606 86.1031 20.211 86.0055 43.7336C86.1733 66.9636 67.1187 85.9987 43.4673 85.749Z" fill="#B00002"/>
</svg>
