<svg width="831" height="832" viewBox="0 0 831 832" fill="none" xmlns="http://www.w3.org/2000/svg">
<path d="M606.118 677.118L606.434 676.881C606.671 675.655 605.881 674.786 605.763 673.719C605.17 674.549 605.96 675.616 605.328 676.406C605.526 676.841 605.842 676.881 606.118 677.118Z" fill="#1F296B"/>
<path d="M489.613 600.134C488.602 599.26 487.315 598.77 485.98 598.75C484.641 598.762 483.353 599.252 482.346 600.134C481.031 601.395 480.146 603.042 479.819 604.836C478.867 609.689 478.484 614.637 478.673 619.577C478.468 624.357 478.823 629.143 479.74 633.842C480.052 635.774 480.964 637.556 482.346 638.94C483.353 639.821 484.641 640.311 485.98 640.323C487.315 640.303 488.602 639.813 489.613 638.94C490.94 637.706 491.817 636.066 492.101 634.276C493.073 629.439 493.468 624.503 493.286 619.577C493.436 614.787 493.093 609.993 492.259 605.271C491.872 603.347 490.956 601.568 489.613 600.134Z" fill="#1F296B"/>
<path d="M716.379 260.44C718.179 260.873 720.079 260.559 721.639 259.572L723.059 258.82C725.629 256.884 727.009 255.106 726.649 253.683C726.369 251.927 725.799 250.23 724.949 248.664L712.039 255.343L713.379 258.07C714.019 259.237 715.099 260.094 716.379 260.44Z" fill="#1F296B"/>
<path d="M800.227 358.133C768.276 145.57 570.171 -0.834358 357.733 31.1306C156.405 61.4238 12.4845 241.929 27.6865 445.073C38.2945 578.918 116.6 698.028 235.227 760.778C355.407 823.611 504.18 818.83 619.581 747.184C751.877 665.122 822.846 512.304 800.227 358.212V358.133ZM748.367 315.771H749.196H749.946H750.777C758.507 315.407 765.357 320.691 766.977 328.259C768.067 332.373 767.667 336.747 765.826 340.588C763.526 344.831 759.377 347.754 754.607 348.492L753.507 348.729L750.657 336.874L752.167 336.517C753.667 336.236 755.047 335.49 756.107 334.384C756.887 333.58 757.357 332.533 757.456 331.419C757.477 331.209 757.477 330.998 757.456 330.788C757.466 330.643 757.466 330.498 757.456 330.353C757.146 329.414 756.497 328.625 755.637 328.139C754.747 327.534 753.627 327.359 752.596 327.666C751.036 327.991 749.687 328.969 748.887 330.353C747.977 331.903 747.277 333.563 746.787 335.293C746.517 336.043 746.277 336.795 746.037 337.663C745.807 338.533 745.566 339.284 745.326 340.154C744.456 342.988 743.127 345.659 741.377 348.056C739.227 350.954 736.096 352.974 732.576 353.747L731.227 354.103C724.906 355.605 720.207 354.933 717.057 352.088C713.867 349.179 711.656 345.355 710.737 341.141L710.137 339.323C709.197 335.364 709.927 331.188 712.156 327.784C714.867 324.354 718.747 322.046 723.057 321.303C723.327 321.317 723.607 321.317 723.887 321.303H724.637H724.987H725.307C725.507 321.341 725.697 321.341 725.897 321.303H726.417L729.257 333.158H728.977H728.627H728.227H727.917H727.207H726.607C724.667 333.499 722.887 334.471 721.557 335.925C720.637 336.912 720.227 338.27 720.447 339.6V339.837C720.487 339.954 720.487 340.077 720.447 340.193V340.549C720.977 341.499 721.767 342.27 722.737 342.761C723.966 343.392 725.387 343.492 726.687 343.038C728.207 342.734 729.536 341.82 730.357 340.509C731.286 339.05 732.026 337.484 732.576 335.846C732.926 335.016 733.247 334.068 733.557 333.158C733.847 332.231 734.196 331.32 734.586 330.432C735.636 327.378 737.147 324.5 739.047 321.896C741.257 318.729 744.586 316.536 748.367 315.771ZM735.777 249.737C737.767 253.132 738.547 257.103 737.987 260.999C737.047 264.927 734.397 268.223 730.757 269.971C728.147 271.444 725.247 272.322 722.267 272.539C719.667 272.62 717.136 271.733 715.156 270.05C715.617 271.825 715.617 273.688 715.156 275.463C714.636 277.008 713.527 278.285 712.077 279.02L700.424 285.659C699.141 286.201 698.023 287.074 697.187 288.188C696.807 288.728 696.705 289.417 696.91 290.045L695.37 290.875L690.039 280.482C689.249 278.941 688.932 277.873 689.208 277.162C689.485 276.451 690.473 275.7 692.25 274.792L702.242 269.535C703.573 268.983 704.671 267.993 705.362 266.73C705.768 265.303 705.523 263.769 704.69 262.541L703.307 259.854L684.272 269.654L678.19 257.798L726.927 232.626L735.777 249.737ZM696.673 188.643L688.775 195.401L677.4 182.281L669.502 189.157L680.125 201.407L671.476 208.955L660.853 196.665L652.005 204.371L663.458 217.609L655.205 224.762L635.103 201.526L676.453 165.565L696.673 188.643ZM605.048 106.684L615.83 114.31L599.557 148.77L626.927 122.017L637.828 129.723L596.241 167.461L583.247 158.333L605.048 106.684ZM546.952 77.9148L559.195 83.0916L537.987 133.635L525.784 128.498L546.952 77.9148ZM461.33 55.2317L474.363 57.6029L478.944 90.679L482.893 59.065L495.571 61.4361L485.658 115.378L472.427 112.887L467.688 80.9577L463.739 111.346L451.259 109.055L461.33 55.2317ZM385.383 53.5325L387.95 95.1049C387.962 96.3656 388.487 97.5661 389.411 98.4244C390.146 99.1544 391.141 99.5661 392.176 99.5704H392.452C392.452 99.5704 392.452 99.5704 392.768 99.5704C393.084 99.5704 392.768 99.5704 393.005 99.5704C394.048 99.38 394.98 98.8011 395.612 97.9503C396.473 96.8252 396.844 95.4006 396.639 93.9985L394.19 52.9793L407.578 52.1494L410.027 90.8766C410.422 97.4366 409.198 102.021 406.354 104.628C403.001 107.365 398.831 108.908 394.506 109.015C389.625 109.614 384.676 108.66 380.367 106.288C376.856 103.52 374.854 99.2598 374.957 94.7889L372.429 54.3624L385.383 53.5325ZM232.937 100.519L257.502 123.163L240.559 96.2906L251.775 90.0467L278.434 137.942L266.585 144.462L242.731 122.767L259.082 148.612L248.063 154.895L221.325 106.96L232.937 100.519ZM169.983 146.478L216.507 178.092L206.713 187.299L198.024 180.542L190.836 187.339L196.997 196.428L187.4 205.438L159.004 156.832L169.983 146.478ZM105.293 223.932L122.788 235.234L127.528 227.884L109.834 216.622L117.101 205.32L163.19 234.918L155.963 246.259L136.967 234.049L132.425 241.319L151.382 253.531L144.233 264.714L97.9856 235.116L105.293 223.932ZM68.3256 297.83C69.6476 293.763 72.3605 290.293 75.9875 288.029C80.1775 285.64 85.2596 285.405 89.6526 287.397L90.7585 287.753L86.8086 299.134L85.3476 298.621C83.8996 298.009 82.2915 297.884 80.7665 298.265C79.6835 298.51 78.7206 299.125 78.0416 300.004C78.0416 300.201 78.0416 300.359 77.7646 300.517C77.7496 300.675 77.7496 300.834 77.7646 300.991C77.5396 301.948 77.6516 302.953 78.0806 303.837C78.5536 304.819 79.4106 305.563 80.4506 305.891C81.9326 306.461 83.5896 306.36 84.9925 305.615C86.5915 304.76 88.0896 303.726 89.4546 302.532C90.0476 302.059 90.6795 301.545 91.2715 300.991L93.2065 299.292C95.5635 297.29 98.2316 295.688 101.106 294.55C104.491 293.277 108.227 293.277 111.612 294.55L112.915 294.985C119.076 297.079 122.67 300.162 123.815 304.232C124.917 308.422 124.708 312.848 123.223 316.917L122.749 318.577C121.414 322.423 118.558 325.551 114.85 327.231C110.711 328.619 106.209 328.465 102.172 326.797C101.9 326.715 101.636 326.61 101.383 326.48L100.672 326.203H100.316H99.9995C99.8565 326.058 99.6805 325.95 99.4865 325.887H98.9336L102.883 314.546C102.883 314.546 103.16 314.546 103.199 314.546C103.302 314.523 103.413 314.523 103.515 314.546H103.831H104.187C104.356 314.713 104.558 314.847 104.779 314.942H105.253C107.093 315.698 109.131 315.836 111.059 315.336C112.386 315.022 113.484 314.099 114.021 312.846C114.005 312.741 114.005 312.635 114.021 312.53V312.451C114.123 311.381 113.859 310.309 113.27 309.408C112.591 308.254 111.485 307.416 110.19 307.077C108.784 306.504 107.212 306.504 105.806 307.077C104.23 307.808 102.745 308.724 101.383 309.803L99.1706 311.543C98.4206 312.175 97.6306 312.767 96.7616 313.4C94.2226 315.347 91.4326 316.942 88.4676 318.142C85.0086 319.46 81.1846 319.46 77.7256 318.142C77.6496 318.111 77.5646 318.111 77.4886 318.142L76.6985 317.826L75.9485 317.51C72.8725 315.85 70.4916 313.145 69.2346 309.883C67.2906 306.16 66.9616 301.802 68.3256 297.83ZM52.0546 386.467L84.5576 378.92L52.9625 377.774L54.1075 364.971L108.689 369.989L107.465 383.346L76.1065 390.973L106.675 392.001L105.529 404.646L50.9485 399.627L52.0546 386.467ZM54.1865 464.08L106.517 443.571L108.531 456.849L97.9856 460.247L99.4865 470.008H110.466L112.48 483.048L56.3986 479.097L54.1865 464.08ZM111.414 553.073L88.5075 577.219L83.2935 565.047L96.3665 551.81L77.8435 552.244L72.8285 540.389L106.161 540.665L128.475 531.102L133.689 543.352L111.414 553.073ZM160.07 640.447H149.526L144.194 631.2L149.526 622.032H160.07L165.442 631.2L160.07 640.447ZM194.746 708.14C194.312 708.615 193.482 708.338 193.008 708.734C191.626 709.958 193.008 710.433 191.231 710.946C190.915 710.946 188.664 711.499 188.309 711.499C185.623 711.943 182.886 711.093 180.923 709.208C179.659 708.18 181.16 704.9 181.397 703.873C181.634 702.845 182.661 700.198 184.201 701.659C184.201 701.659 184.557 702.174 184.675 702.332C185.347 702.841 186.132 703.177 186.966 703.319C187.993 703.557 188.427 704.189 189.375 704.742C190.504 705.237 191.587 705.833 192.613 706.52L194.825 707.508C195.891 708.536 194.865 708.14 194.746 708.298V708.14ZM231.001 738.095C231.001 738.371 230.804 738.53 230.725 738.767V739.518C230.721 739.743 230.654 739.964 230.528 740.15C230.528 740.15 230.528 740.149 230.528 740.466C230.512 740.585 230.512 740.703 230.528 740.822C230.275 741.391 229.927 741.913 229.501 742.363C229.228 742.936 228.77 743.394 228.197 743.667C227.21 743.43 226.183 744.023 225.354 743.667C224.524 743.311 224.248 743.192 223.971 742.679C223.695 742.166 223.34 740.348 222.51 739.438C222.048 738.799 221.712 738.071 221.523 737.305C221.535 736.625 221.357 735.953 221.009 735.369C221.009 735.369 221.009 735.369 221.009 735.171C221.009 734.973 219.785 732.444 220.22 732.089C220.654 731.732 221.128 732.365 221.404 732.681C221.681 732.997 222.036 733.155 222.392 733.313V732.839C222.179 732.085 222.009 731.321 221.878 730.547C221.689 729.938 221.381 729.373 220.97 728.888C220.97 728.888 220.536 728.492 220.496 728.453C220.295 728.294 220.066 728.176 219.825 728.097C219.378 728.038 218.928 728.038 218.482 728.097H217.494C216.961 728.136 216.436 728.215 215.915 728.334H215.401C214.73 728.373 214.059 728.373 213.387 728.334H212.913H212.676C211.377 727.342 210.208 726.188 209.201 724.896L208.727 724.264C207.108 722.13 202.763 722.881 200.828 721.655V721.458C199.43 720.751 198.458 719.411 198.222 717.862C198.182 717.416 198.182 716.965 198.222 716.518C198.301 715.04 198.62 713.587 199.169 712.211C199.683 711.499 200.157 712.211 200.631 712.211C201.33 712.59 202.001 713.013 202.645 713.476C203.565 714.191 204.438 714.969 205.251 715.807L205.765 716.281C206.345 717.001 206.977 717.672 207.661 718.296C208.316 718.878 209.047 719.368 209.833 719.759C211.179 719.948 212.503 720.281 213.782 720.747H214.059L214.967 721.458C216.602 722.553 218.067 723.885 219.311 725.41C220.101 725.967 220.851 726.575 221.562 727.228C222.273 727.702 223.182 728.294 224.248 728.888L224.88 729.204L225.196 729.401C225.828 729.757 226.499 730.072 227.131 730.35L227.644 730.824L228 731.061L228.237 731.298L228.513 731.535C228.924 731.903 229.307 732.298 229.659 732.721C230.251 733.471 230.725 734.222 231.278 735.012C231.479 735.341 231.625 735.704 231.712 736.079V736.316C231.732 736.407 231.732 736.502 231.712 736.593C231.712 736.87 231.712 737.028 231.712 737.226C231.712 737.423 231.712 737.226 231.712 737.542C231.677 737.917 231.377 738.217 231.001 738.253V738.095ZM259.595 676.013C259.042 677.791 255.053 678.74 255.053 678.937C254.856 680.321 256.356 679.569 257.462 681.466C257.49 681.874 257.49 682.285 257.462 682.691C257.462 683.244 257.462 686.643 255.606 687.868C255.211 687.868 253.947 688.342 253.552 688.302C251.933 687.434 250.59 686.169 249.011 685.26C247.865 684.43 246.471 684.027 245.061 684.114C243.166 684.47 236.215 683.798 235.859 685.971C237.755 687.157 239.177 687.947 239.058 690.793C238.94 693.638 236.017 693.48 234.161 693.282C232.822 692.903 231.381 693.12 230.212 693.875C232.202 694.464 234.26 694.783 236.333 694.823C236.815 694.91 237.218 695.239 237.399 695.693C238.012 697.514 238.012 699.482 237.399 701.304C236.4 703.43 234.106 704.627 231.791 704.228C231.408 704.106 231.041 703.944 230.685 703.755C228.833 703.593 226.993 704.161 225.551 705.335C226.104 706.125 227.092 705.928 227.723 706.165C231.436 707.429 236.61 703.359 238.505 701.146C239.848 699.605 241.428 698.696 242.731 697.195C243.324 696.483 244.232 695.969 244.745 695.14C245.259 694.31 244.745 693.48 245.338 692.768C245.93 692.057 246.799 692.413 247.51 692.097C249.998 692.966 250.037 693.875 251.143 695.851C250.669 697.037 251.143 698.142 250.63 699.328C247.984 700.949 247.707 701.699 248.734 704.505C249.445 706.56 250.274 711.381 248.102 712.409C247.755 712.602 247.383 712.748 246.996 712.843C246.293 713.218 245.531 713.476 244.745 713.595C243.225 713.519 241.736 713.139 240.362 712.488C238.189 711.381 236.017 713.001 233.766 712.685C232.107 711.736 227.486 713.317 228.355 715.886C231.594 718.692 237.044 717.348 238.584 722.091C239.927 724.698 233.726 727.86 233.49 727.702C232.068 727.161 230.682 726.524 229.343 725.805C228.43 725.363 227.581 724.805 226.815 724.145C225.907 723.276 224.406 723.513 223.656 722.604C221.705 722.047 219.789 721.363 217.929 720.549L216.942 720.234C215.283 719.585 213.66 718.846 212.084 718.02C212.4 716.36 217.337 719.245 218.679 718.02C218.679 714.305 219.588 714.068 222.392 712.29C223.577 711.46 224.603 710.512 223.419 709.287C222.913 708.401 222.743 707.362 222.945 706.362C221.72 705.849 220.931 707.982 219.785 708.655C219.367 709.243 218.999 709.863 218.679 710.512C217.455 713.516 213.743 712.053 212.834 709.642C213.387 708.061 212.044 706.718 211.531 705.296C212.218 704.363 213.146 703.64 214.217 703.201C215.492 702.545 216.811 701.976 218.166 701.501C219.706 701.027 220.338 699.486 221.72 699.565C222.51 699.565 221.72 700.909 222.905 701.027C223.656 700.396 224.682 700.238 225.314 699.723C224.208 698.063 219.864 698.261 218.166 698.34C216.266 698.495 214.517 699.439 213.348 700.949C213.233 702.257 212.321 703.359 211.057 703.715C211.057 703.715 207.542 704.939 206.357 703.952C205.172 702.964 207.187 700.356 205.804 699.644C204.422 698.933 202.921 699.842 201.539 700.475C201.065 700.475 196.997 701.779 195.852 701.976C195.319 701.957 194.79 701.878 194.272 701.738C193.917 701.738 191.35 701.738 190.639 700.317C190.576 699.885 190.576 699.443 190.639 699.012C190.698 698.289 190.698 697.562 190.639 696.839C190.781 695.946 191.089 695.089 191.547 694.31C192.574 692.61 195.891 694.112 197.827 693.203C200.196 692.243 202.293 690.725 203.948 688.777C202.807 688.223 201.598 687.825 200.354 687.592C198.822 687.197 197.511 686.2 196.721 684.825C196.049 683.719 196.405 683.601 195.694 682.612C195.248 681.292 195.421 679.838 196.168 678.661C198.103 677.752 199.367 679.727 201.579 680.123C202.724 680.36 203.672 681.032 204.817 681.229C206.16 681.261 207.491 681.486 208.766 681.901C209.837 680.87 210.409 679.431 210.346 677.949C210.583 675.46 210.109 674.788 210.346 672.535C212.305 672.172 214.311 672.172 216.27 672.535C216.772 673.373 217.325 674.179 217.929 674.946C218.778 675.985 219.351 677.222 219.588 678.542C219.864 680.055 219.374 681.608 218.284 682.691C216.705 683.443 218.956 685.497 218.6 687.039C218.166 689.212 217.337 689.686 214.967 689.686C212.747 689.907 211.045 691.76 211.018 693.994C213.585 694.744 215.322 689.488 218.205 690.437C221.088 691.385 222.708 688.856 223.221 686.485C221.93 685.592 221.183 684.102 221.246 682.533L221.641 681.703C221.641 681.506 221.641 680.913 221.641 680.795C221.503 679.672 221.637 678.535 222.036 677.475C222.787 675.989 223.671 674.57 224.682 673.246C225.077 672.575 220.733 671.784 220.733 670.994C220.484 670.726 220.259 670.433 220.062 670.125C220.062 668.94 221.286 666.449 222.708 666.173C224.524 666.173 226.31 666.647 227.881 667.556C229.098 668.196 230.512 668.339 231.831 667.951C234.556 667.319 232.344 663.763 233.885 662.537C235.425 661.312 235.899 661.233 236.847 662.853C237.277 663.818 237.763 664.754 238.308 665.659C238.308 666.885 236.886 668.307 236.807 669.611C239.548 672.18 242.846 674.073 246.444 675.144C247.549 673.84 249.406 673.642 250.393 672.022C251.38 670.402 250.788 669.611 250.946 667.438C251.538 666.924 252.052 666.133 252.684 665.857C254.5 666.449 256.238 665.857 257.897 667.28C259.279 668.841 259.785 670.994 259.24 673.009C259.607 673.966 259.729 674.997 259.595 676.013ZM357.184 769.788C357.07 769.973 356.975 770.172 356.908 770.381C356.738 770.752 356.541 771.108 356.315 771.447C354.436 771.25 352.583 770.851 350.786 770.263C348.634 769.582 346.525 768.777 344.467 767.852H344.191C343.2 767.445 342.185 767.101 341.15 766.825C340.451 766.618 339.764 766.37 339.096 766.073C338.204 765.659 337.26 765.355 336.292 765.164L331.237 764.058C329.388 763.584 327.497 763.295 325.589 763.188C324.985 763.149 324.377 763.149 323.772 763.188H323.536C322.88 763.161 322.228 763.342 321.679 763.703C320.996 764.346 320.388 765.061 319.863 765.836L319.468 766.35C319.164 766.721 318.911 767.137 318.717 767.575C318.63 767.78 318.512 767.966 318.362 768.128C318.093 768.369 317.765 768.536 317.414 768.603C316.877 768.631 316.344 768.508 315.874 768.246L315.439 768.049C315.293 767.907 315.159 767.745 315.044 767.575C314.847 767.255 314.606 766.963 314.333 766.705L313.662 766.073C313.121 765.655 312.655 765.145 312.28 764.572C311.845 763.782 311.371 763.109 310.976 762.477C310.123 761.406 309.507 760.166 309.16 758.842C309.045 758.213 308.887 757.593 308.686 756.985C308.556 756.636 308.453 756.281 308.37 755.917C308.141 755.146 308.24 754.317 308.646 753.626C308.828 753.297 309.148 753.064 309.515 752.993H309.871C310.301 753.009 310.72 752.835 311.016 752.519C313.358 750.749 315.155 748.349 316.19 745.604C316.703 744.433 317.339 743.323 318.085 742.284C318.397 741.71 318.828 741.213 319.349 740.822C320.416 740.15 322.232 740.822 323.299 741.493C324.669 742.339 325.506 743.833 325.51 745.446V745.88C325.356 748.765 325.542 751.653 326.063 754.495V754.771L326.814 755.167C327.311 755.459 327.84 755.7 328.393 755.878C328.982 756.075 329.622 756.075 330.21 755.878C330.676 755.744 331.047 755.388 331.197 754.929C331.268 754.771 331.363 754.625 331.474 754.495C331.608 754.349 331.727 754.191 331.829 754.021C332.473 753.396 332.856 752.547 332.896 751.649C333.002 751.242 333.144 750.843 333.33 750.464C333.33 750.029 333.646 749.594 333.764 749.16C333.883 748.726 334.041 747.856 334.199 747.026C334.697 744.24 335.396 741.493 336.292 738.807C337.674 736.949 339.57 734.459 341.584 734.222C341.951 734.187 342.311 734.096 342.651 733.946C342.927 733.946 343.046 733.946 343.125 733.946C343.472 734.068 343.796 734.254 344.072 734.499C345.103 735.349 345.889 736.451 346.363 737.7L346.679 738.174C346.821 738.68 346.928 739.194 346.995 739.715C347.125 740.668 347.378 741.596 347.745 742.482C347.982 743.034 348.259 743.549 348.496 744.023C348.887 744.702 349.218 745.418 349.483 746.156C349.613 746.579 349.783 746.991 349.996 747.382C350.518 748.187 350.731 749.156 350.589 750.108C350.589 750.425 350.115 751.254 349.878 751.807C349.712 752.156 349.566 752.511 349.443 752.874C349.203 753.574 348.871 754.238 348.456 754.85C348.01 755.471 347.674 756.166 347.469 756.906C347.469 757.696 347.469 760.146 348.654 760.857C348.839 760.999 349.056 761.094 349.286 761.134H349.68H349.957C350.36 761.386 350.782 761.611 351.221 761.805C351.983 762.13 352.71 762.525 353.393 762.991C353.867 763.466 356.908 764.769 357.342 765.323C357.575 765.556 357.785 765.805 357.974 766.073C358.646 767.615 357.5 768.721 357.184 769.867V769.788ZM373.416 763.979C373.1 765.006 372.113 768.445 371.758 770.263C371.576 771.226 371.023 772.076 370.217 772.633C369.668 773.056 369.187 773.562 368.796 774.135C368.401 774.68 367.95 775.187 367.453 775.637V775.834C366.777 776.49 365.865 776.846 364.925 776.823C362.761 775.546 360.814 773.93 359.159 772.041C358.76 770.82 358.827 769.496 359.356 768.325L360.067 767.18C360.999 765.832 361.829 764.418 362.555 762.951C362.761 762.375 363.025 761.818 363.345 761.292C363.958 760.257 364.372 759.118 364.57 757.933V756.945V756.115C364.57 755.601 364.57 755.087 364.57 754.653C364.53 753.657 364.775 752.669 365.281 751.807C365.991 750.701 366.979 750.148 367.729 750.385H368.164C368.452 750.61 368.705 750.875 368.914 751.175L369.625 751.927L370.059 752.282C372.389 754.258 372.745 754.574 372.863 756.233C372.915 757.004 373.073 757.763 373.337 758.486L373.574 759.276V759.75C373.799 760.427 373.878 761.138 373.811 761.845C373.724 762.592 373.594 763.33 373.416 764.058V763.979ZM519.109 768.445C517.758 769.093 516.297 769.48 514.804 769.59C513.224 769.788 508.525 771.132 507.458 771.408C506.815 771.507 506.179 771.665 505.563 771.883C503.77 772.463 501.933 772.914 500.073 773.226C498.928 773.226 495.61 773.622 495.413 773.226C495.432 773.028 495.432 772.831 495.413 772.633C497.731 770.867 499.852 768.856 501.732 766.626C502.364 765.56 503.233 764.927 501.732 764.177C500.5 763.608 499.125 763.413 497.782 763.624C497.383 763.505 496.957 763.505 496.558 763.624C496.23 763.565 495.899 763.565 495.571 763.624H494.386C493.233 763.762 492.064 763.762 490.911 763.624C490.828 763.565 490.717 763.565 490.634 763.624H488.738C488.027 763.584 487.317 763.584 486.606 763.624L482.103 762.833C481.906 762.833 481.629 763.07 481.59 763.307C480.84 763.742 480.445 765.244 480.089 765.994L478.509 769.472C478.099 770.8 477.455 772.045 476.614 773.147C475.828 774.076 475.141 775.079 474.56 776.15C474.047 777.103 473.423 777.992 472.704 778.798C471.716 779.64 470.642 780.383 469.505 781.011C469.268 781.208 468.912 781.841 468.28 781.999C466.938 781.999 466.029 781.761 464.726 781.999C463.494 779.241 462.692 776.308 462.356 773.305C463.316 771.815 464.501 770.48 465.871 769.353C466.187 769.022 466.645 768.872 467.096 768.958C467.609 769.432 467.096 770.421 467.965 770.855C468.833 771.29 469.228 769.353 469.702 768.405C470.848 766.208 471.772 763.908 472.467 761.529C472.889 760.6 473.233 759.632 473.494 758.645C473.818 756.688 474.335 754.767 475.034 752.914C475.626 751.175 476.14 749.634 476.693 748.132C476.693 747.935 477.088 747.579 477.127 747.342C477.167 747.105 477.759 745.762 476.93 745.485C476.1 745.209 475.152 746.156 474.481 746.591C473.592 747.117 472.668 747.575 471.716 747.974C470.362 748.587 469.043 749.271 467.767 750.029C467.056 750.425 465.99 751.175 465.318 750.78C464.24 750.172 463.245 749.429 462.356 748.568C462.119 748.093 461.803 747.698 461.527 747.224C461.251 746.749 461.527 747.224 461.29 747.224C461.132 746.951 461.014 746.658 460.935 746.354C460.721 745.635 460.899 744.852 461.409 744.299C461.693 744.118 461.997 743.971 462.317 743.865C465.634 742.758 468.991 741.414 472.427 740.624C472.585 740.577 472.735 740.498 472.862 740.387L473.612 740.031H473.81C474.023 740.127 474.268 740.127 474.481 740.031H474.757L475.666 739.715C475.966 739.715 476.254 739.585 476.456 739.36C476.934 739.217 477.396 739.032 477.838 738.807C478.032 738.724 478.205 738.605 478.351 738.451C478.588 738.284 478.766 738.051 478.865 737.779V737.502C479.299 736.316 479.852 735.091 480.326 733.906C480.583 733.408 480.808 732.894 480.997 732.365C481.037 731.653 481.037 730.942 480.997 730.231C481.361 729.192 481.535 728.093 481.511 726.991C481.029 725.58 480.855 724.086 480.997 722.604C481.669 720.51 484.947 721.655 486.408 721.854C487.403 721.925 488.375 722.205 489.252 722.683C489.252 722.683 492.451 725.924 492.451 725.805C492.451 725.687 492.451 726.477 492.451 726.792H492.253C492.02 727.058 491.882 727.39 491.858 727.741C491.819 727.911 491.819 728.085 491.858 728.255C491.613 728.884 491.416 729.531 491.266 730.192C490.756 731.049 490.346 731.966 490.042 732.918C490.358 733.748 491.74 733.115 492.056 732.918C492.372 732.721 492.925 731.14 493.517 730.31C493.766 730.204 493.963 730.005 494.07 729.757H494.307C494.86 729.757 496.163 730.389 496.44 730.745C497.861 732.484 503.469 731.574 503.746 731.495C504.022 731.416 505.247 732.207 505.444 733.036C505.642 733.867 504.891 735.211 504.852 736.001C504.812 736.791 502.601 737.028 501.139 737.542L499.955 737.937C499.362 738.174 498.612 738.292 498.059 738.49C496.4 739.123 491.345 740.664 491.226 740.743C490.105 741.043 489.019 741.466 487.988 742.008C487.553 742.363 487.988 742.245 487.593 742.955C487.411 743.41 487.253 743.869 487.119 744.339C486.305 746.235 485.634 748.191 485.105 750.188C484.868 750.859 484.354 751.373 484.118 751.966C483.881 752.558 483.802 753.151 483.644 753.665C483.486 754.179 482.696 756.154 483.051 756.826C483.407 757.498 485.816 758.091 486.685 758.051C487.553 758.012 488.975 757.656 490.121 757.656C491.791 757.755 493.466 757.755 495.136 757.656C497.261 757.419 499.41 757.419 501.534 757.656C503.45 758.023 505.389 758.237 507.34 758.288C509.086 757.913 510.886 757.913 512.632 758.288C515.081 759.237 516.266 761.213 518.122 762.635C518.596 763.188 519.385 763.346 519.701 763.979C519.891 764.335 520.053 764.702 520.175 765.086C520.46 766.338 520.053 767.65 519.109 768.523V768.445ZM590.474 721.734C589.309 722.884 587.576 723.24 586.051 722.644C585.735 722.644 585.38 721.814 584.984 721.497C584.589 721.181 583.642 720.905 583.247 720.391C582.698 719.399 582.339 718.312 582.181 717.19C582.023 715.985 581.719 714.803 581.272 713.673C580.522 712.172 578.666 710.433 578.508 709.129C578.551 707.828 579.231 706.631 580.325 705.928C581.802 704.931 583.697 704.797 585.301 705.572C585.712 705.865 586.094 706.196 586.445 706.56C588.333 707.769 589.795 709.539 590.632 711.618C590.897 712.661 590.992 713.745 590.909 714.819C590.909 715.807 590.514 716.796 590.514 717.822C590.514 718.85 591.224 720.786 590.474 721.813V721.734ZM641.382 709.524C640.908 709.721 640.474 709.287 639.88 709.287C639.177 709.283 638.475 709.366 637.788 709.524C637.433 709.524 636.76 709.998 636.484 710.117C635.221 710.67 633.72 712.172 632.259 712.962C630.798 713.753 630.837 713.595 630.916 714.661C630.995 715.728 631.667 719.601 631.509 719.719C630.881 722.399 629.826 724.959 628.389 727.307C628.389 727.504 625.427 731.258 624.439 731.258C623.819 731.223 623.203 731.223 622.583 731.258C622.109 731.258 620.648 731.574 620.411 731.614C619.924 731.645 619.435 731.645 618.95 731.614C618.16 731.614 617.646 731.931 616.935 731.614C614.408 730.705 615 727.978 613.46 725.687C613.081 725.046 612.799 724.355 612.63 723.632C612.63 722.999 613.302 722.644 613.617 722.091C613.933 721.537 613.617 721.379 613.854 721.102C614.091 720.826 614.684 720.234 615 719.759C615.315 719.285 616.422 717.822 617.093 716.993C617.765 716.163 618.673 715.175 618.397 714.503C618.12 713.832 617.054 713.91 616.54 713.634C616.027 713.357 616.026 713.12 615.711 712.922C615.395 712.725 613.776 712.488 613.46 711.736C613.144 710.986 613.776 710.433 614.289 709.8C614.127 708.204 613.716 706.643 613.065 705.177C611.841 704.149 610.419 706.204 609.945 707.035C609.483 707.86 609.112 708.738 608.839 709.642C608.55 710.532 608.18 711.389 607.733 712.211C607.101 713.317 606.825 714.345 605.68 713.832C605.206 712.962 603.705 712.685 603.31 711.302C603.31 709.247 604.337 708.931 604.653 706.877C605.182 704.738 606.15 702.731 607.496 700.988C608.101 700.043 608.91 699.245 609.866 698.657C610.901 697.977 611.844 697.167 612.669 696.246C613.065 695.89 613.578 695.732 613.854 695.456C614.13 695.179 614.13 694.783 614.367 694.388C614.604 693.994 615 693.915 615.158 693.678C615.628 692.843 616.023 691.97 616.343 691.069C616.809 689.883 617.334 688.722 617.923 687.592C618.397 686.682 619.422 684.904 617.607 684.746C614.775 686.418 612.03 688.235 609.392 690.2C608.527 690.793 607.733 691.484 607.022 692.255C606.469 692.808 605.995 693.599 605.482 693.994C603.807 695.04 602.248 696.258 600.822 697.629C600.387 698.221 598.966 700.317 598.729 700.593L597.03 702.569C596.241 703.359 596.043 705.097 595.135 705.77C594.112 706.413 592.884 706.639 591.699 706.402C590.885 706.319 590.064 706.41 589.29 706.678C588.93 706.639 588.583 706.532 588.263 706.362C586.841 705.414 589.053 703.557 590.119 702.411C588.433 700.222 586.557 698.182 584.51 696.325C583.729 695.63 582.868 695.032 581.944 694.546C581.43 694.231 580.838 694.191 580.522 693.954C580.297 693.772 580.096 693.559 579.93 693.321C579.732 693.005 579.021 692.452 578.784 692.057C578.547 691.661 578.231 691.227 578.113 691.109C577.599 690.398 577.165 690.2 576.889 689.449C576.612 688.698 577.165 688.698 577.205 688.223C577.244 687.75 576.77 687.118 577.205 686.682C577.43 686.358 577.746 686.114 578.113 685.971C579.677 685.493 581.362 685.604 582.852 686.287C582.852 687.434 584.036 688.144 584.786 689.212C585.063 689.646 585.38 689.962 585.617 690.398C585.854 690.832 586.249 690.99 586.486 691.306C586.904 692.01 587.422 692.65 588.026 693.203C588.534 693.543 589.008 693.926 589.448 694.349L590.08 695.14C590.395 695.535 590.672 695.811 591.067 696.246C591.462 696.68 592.291 698.182 593.16 699.012C593.721 698.546 594.179 697.969 594.503 697.313C593.318 694.981 591.106 693.757 589.606 691.899C588.618 690.714 587.828 689.33 586.762 688.144C585.439 686.912 584.333 685.47 583.484 683.877C583.168 683.877 582.773 684.47 582.299 684.47C581.233 684.47 581.628 682.454 581.272 681.426C580.68 680.854 580.325 680.076 580.285 679.253C580.222 678.143 580.976 677.155 582.062 676.922C584.254 677.064 586.253 678.218 587.473 680.043C587.473 680.4 587.473 680.637 587.473 680.953C590.032 685.592 593.281 689.816 597.109 693.48C597.504 693.084 597.109 692.926 596.714 692.413C596.307 691.136 595.695 689.935 594.898 688.856C594.898 688.54 594.661 688.026 594.424 687.71C594.187 687.394 593.95 687.434 593.752 687.157C593.555 686.881 592.726 685.932 592.173 685.379C591.505 684.6 591.055 683.66 590.869 682.652C590.854 681.746 591.363 680.917 592.173 680.518C592.489 680.518 592.884 680.795 593.476 680.755C594.068 680.716 593.95 680.518 594.147 680.558C594.609 680.593 595.06 680.7 595.49 680.874C596.596 681.269 595.964 682.731 595.964 683.601C596.612 684.699 597.169 685.849 597.622 687.039C597.768 687.366 597.943 687.682 598.135 687.987C598.729 688.975 599.44 689.962 600.111 690.911C600.427 690.477 600.111 690.121 600.111 689.725C599.831 689.141 599.641 688.513 599.557 687.868C599.432 687.023 599.151 686.204 598.729 685.458C597.781 683.522 597.859 680.953 596.635 679.727C595.411 678.503 593.239 678.226 592.41 679.964C591.304 680.36 590.513 679.056 589.448 679.135C588.5 678.582 587.828 677.87 588.539 676.922C588.038 675.036 587.181 673.266 586.012 671.705C585.538 671.034 584.827 670.599 584.471 669.927C584.116 669.255 583.958 667.912 583.445 667.24C582.931 666.568 581.391 666.41 580.719 665.778C579.645 664.73 579.479 663.063 580.325 661.827C581.904 660.325 584.59 661.075 586.723 661.352C587.157 661.352 587.432 662.064 587.906 661.945C588.977 660.739 590.202 659.676 591.541 658.784C592.477 658.392 593.508 658.281 594.503 658.468C595.309 658.681 596.058 659.06 596.714 659.573C596.714 660.878 595.292 661.431 594.542 662.537C594.542 662.774 594.542 663.13 594.226 663.447C593.476 664.987 591.699 666.568 591.106 667.833C590.514 669.097 591.106 668.742 591.106 669.65C591.091 670.252 591.256 670.844 591.58 671.35C592.094 672.338 592.291 674.235 593.555 674.274C594.818 674.314 595.332 673.879 596.241 673.404C596.241 673.404 596.241 673.404 596.517 673.404C597.504 673.404 598.531 674.788 599.163 674.116C599.795 673.445 600.031 672.338 600.901 671.982C602.255 671.705 603.665 671.943 604.85 672.654C603.444 670.603 602.263 668.401 601.335 666.094C601.039 666.003 600.723 666.003 600.427 666.094C599.755 666.806 599.992 667.477 600.031 668.545C600.052 669.386 599.819 670.212 599.361 670.915C598.298 671.677 597.125 672.279 595.885 672.693C595.016 672.693 593.002 672.693 593.397 671.073C593.792 669.453 593.397 668.9 593.95 667.635C594.929 664.888 597.003 662.672 599.677 661.51L601.888 661.233C603.151 661.233 604.613 662.182 606.075 662.616C606.746 662.616 607.654 662.616 608.168 663.327C608.681 664.039 608.365 664.948 608.484 665.62C608.922 667.051 609.096 668.552 608.997 670.045C609.471 672.18 611.05 673.998 611.682 676.052C611.682 676.684 611.958 677.357 612.117 678.028C612.275 678.7 612.669 679.372 612.789 679.964C612.906 680.558 612.552 680.637 612.789 680.953C613.025 681.269 614.961 680.163 615.553 679.451C616.145 678.74 616.856 676.684 618.12 676.21C620.075 675.673 622.101 675.448 624.122 675.539C625.307 675.539 626.729 674.748 627.362 675.539C627.994 676.329 628.981 676.843 628.902 678.107C628.831 678.519 628.697 678.922 628.507 679.293C627.717 681.032 627.005 682.257 626.255 684.114C624.51 688.097 622.167 691.789 619.305 695.06C619.119 695.243 618.906 695.389 618.673 695.495C619.897 695.772 621.714 696.721 621.714 698.3C620.576 699.372 619.771 700.739 619.384 702.253C619.179 703.078 619.1 703.932 619.147 704.781C619.143 705.817 619.317 706.849 619.66 707.824C620.213 708.576 622.899 708.456 623.926 708.456C624.767 708.552 625.596 708.71 626.414 708.931C627.978 707.619 629.688 706.492 631.509 705.572C633.444 704.505 634.984 702.687 636.564 703.319C637.381 703.841 638.223 704.315 639.091 704.742C640.078 705.454 643.041 705.612 642.606 707.587C642.535 708.414 642.085 709.16 641.382 709.603V709.524ZM678.546 640.447H667.961L662.747 631.358L668.119 622.19H678.546L683.798 631.358L678.546 640.447ZM628.349 604.21C584.59 653.927 524.84 686.778 459.434 697.076C444.805 699.289 430.035 700.4 415.24 700.396C362.796 700.625 311.316 686.271 266.546 658.942C132.314 576.785 90.0606 401.302 172.167 266.994C223.999 182.206 316.225 130.551 415.556 130.671C433.02 130.671 450.449 132.311 467.609 135.571C532.537 147.787 591.185 182.244 633.483 233.021C675.971 284.427 699.375 348.963 699.714 415.671C699.742 485.155 674.407 552.26 628.468 604.367L628.349 604.21ZM747.816 554.141L729.257 553.509L742.206 566.866L736.997 578.721L714.527 554.141L692.29 544.301L697.7 532.09L719.937 541.93L753.227 542.246L747.816 554.141ZM767.247 494.232L756.547 492.335L758.247 482.811L714.797 475.146L717.087 461.947L760.537 469.573L762.316 459.417L773.017 461.314L767.247 494.232ZM720.767 411.641L720.367 398.403L775.186 396.703L775.586 410.021L720.767 411.641Z" fill="#1F296B"/>
<path d="M624.007 718.771C623.564 718.218 622.826 717.996 622.151 718.218C621.756 718.218 621.44 719.048 620.966 719.443C620.492 719.839 619.781 720.154 619.425 720.549C619.169 720.858 618.944 721.185 618.754 721.538C618.359 722.012 617.767 722.367 617.451 722.762C617.135 723.157 616.779 724.857 616.305 725.45C616.937 726.715 617.49 727.465 618.478 727.504C619.469 727.579 620.464 727.445 621.4 727.109C622.368 726.441 623.146 725.525 623.651 724.461C624.22 722.96 624.342 721.327 624.007 719.759C624.007 719.245 624.204 719.087 624.007 718.771Z" fill="#1F296B"/>
<path d="M663.345 304.864C662.278 302.572 661.173 300.201 659.988 297.909L230.65 279.178L646.718 273.606C618.744 227.853 577.88 191.393 529.263 168.805C493.221 152.303 454.051 143.758 414.415 143.751C385.991 143.684 357.741 148.153 330.727 156.99C267.972 177.799 214.801 220.512 180.927 277.32C175.714 286.262 171.018 295.499 166.867 304.982L669.348 319.643C667.491 314.585 665.517 309.645 663.345 304.864Z" fill="#1F296B"/>
<path d="M415.561 0.257814C186.145 0.235991 0.147002 186.309 0.125002 415.864C0.104002 645.418 186.066 831.525 415.482 831.549C644.898 831.572 830.892 645.497 830.922 415.943C830.922 415.915 830.922 415.891 830.922 415.864C830.892 186.34 644.945 0.279635 415.561 0.257814ZM503.159 811C370.933 839.768 229.822 800.488 132.904 705.409C35.745 609.752 -7.22999 471.853 18.372 337.895C43.885 208.397 134.089 95.5742 255.967 43.7271C380.807 -9.26591 528.04 3.02404 640.834 79.2929C752.382 154.927 819.492 280.724 820.212 415.548C820.242 467.15 810.402 518.285 791.222 566.188C741.272 688.851 632.817 782.705 503.159 811Z" fill="#1F296B"/>
<path d="M605.245 683.361C604.187 682.899 603.361 682.029 602.955 680.951C602.955 679.686 603.586 677.829 602.165 676.998C600.743 676.169 600.94 678.224 601.059 679.014C601.343 681.906 602.469 684.657 604.297 686.917C605.782 685.957 607.169 684.859 608.444 683.637C608.176 683.317 607.883 683.013 607.575 682.729C606.75 682.689 605.936 682.91 605.245 683.361Z" fill="#1F296B"/>
<path d="M170.852 158.844L184.833 179.077L189.888 174.255L170.852 158.844Z" fill="#1F296B"/>
<path d="M170.299 533.747L603.112 552.677L183.767 558.248C202.001 588.163 225.895 614.233 254.105 634.991C300.965 669.08 357.346 687.574 415.28 687.866C424.766 687.882 434.245 687.38 443.676 686.364C541.755 676.07 626.481 613.229 664.841 522.327L160.742 511.617C163.625 519.126 166.824 526.516 170.299 533.747ZM363.345 648.704H352.09V606.065C347.907 609.953 342.919 612.87 337.477 614.6V604.365C340.988 603.117 344.25 601.259 347.113 598.873C350.364 596.497 352.84 593.209 354.222 589.428H363.345V648.704ZM411.054 642.579C407.27 647.266 401.512 649.909 395.493 649.731C391.441 649.921 387.464 648.613 384.317 646.057C381.256 643.156 379.325 639.264 378.866 635.07L389.806 633.885C389.881 635.711 390.612 637.45 391.86 638.785C393.096 639.88 394.711 640.448 396.362 640.365C398.736 640.358 400.955 639.173 402.286 637.205C404.419 633.079 405.489 628.491 405.406 623.848C402.804 627.028 398.89 628.851 394.782 628.787C390.181 628.806 385.798 626.85 382.737 623.413C379.332 619.584 377.547 614.585 377.761 609.463C377.484 604.113 379.396 598.877 383.053 594.96C390.647 587.527 402.823 587.661 410.252 595.26C410.627 595.648 410.987 596.047 411.33 596.462C415.28 601.046 417.096 608.633 417.096 619.264C417.096 629.894 415.082 637.718 411.054 642.54V642.579ZM460.895 638.192V648.704H421.401C421.863 644.689 423.214 640.828 425.351 637.402C428.968 632.173 433.242 627.432 438.068 623.294C441.472 620.354 444.608 617.113 447.428 613.612C448.877 611.589 449.687 609.183 449.758 606.697C450.161 602.745 447.282 599.216 443.332 598.813C442.933 598.773 442.534 598.765 442.136 598.793C440.027 598.714 437.981 599.517 436.488 601.007C434.869 603.002 434.016 605.512 434.079 608.08L422.823 606.934C422.977 601.796 425.268 596.955 429.142 593.577C432.993 590.799 437.669 589.404 442.412 589.625C447.416 589.333 452.329 591.036 456.077 594.368C459.414 597.387 461.251 601.725 461.093 606.223C461.108 608.822 460.615 611.403 459.631 613.81C458.518 616.537 457.001 619.082 455.129 621.358C452.771 623.955 450.224 626.373 447.507 628.589C443.992 631.909 441.701 634.043 440.793 635.149C439.892 636.082 439.122 637.133 438.502 638.271L460.895 638.192ZM499.323 643.685C496.084 647.7 491.124 649.933 485.974 649.692C480.551 649.854 475.378 647.396 472.072 643.092C468.596 638.666 466.819 630.763 466.819 619.382C466.819 608.001 468.754 600.255 472.625 595.394C475.847 591.356 480.812 589.108 485.974 589.349C491.167 589.08 496.159 591.384 499.323 595.514C503.272 600.334 505.128 608.317 505.128 619.461C505.128 630.605 503.154 638.745 499.323 643.645V643.685Z" fill="#1F296B"/>
<path d="M65.0156 470.52L89.5806 470.361L88.5146 463.445L65.0156 470.52Z" fill="#1F296B"/>
<path d="M244.119 704.461C244.119 704.461 243.764 704.461 243.645 704.461C243.25 705.133 242.54 705.529 242.5 706.121C242.891 706.184 243.278 706.291 243.645 706.437C244.139 705.908 244.321 705.157 244.119 704.461Z" fill="#1F296B"/>
<path d="M233.255 679.648C231.758 680.846 230.427 682.241 229.305 683.798C230.924 682.968 232.82 682.968 234.281 682.019C234.518 682.019 235.901 681.348 236.572 680.992C236.375 680.716 236.296 680.479 236.098 680.162C235.032 678.66 235.071 678.265 233.255 679.648Z" fill="#1F296B"/>
<path d="M685.024 385.238L641.581 384.289C640.672 376.385 639.882 368.838 639.25 362.476L681.706 363.819C680.166 355.916 678.349 348.012 676.177 340.465L637.039 339.674L636.565 333.905L629.93 334.379C626.415 334.694 622.86 334.773 619.306 334.773C597.545 334.773 579.299 329.874 561.605 325.171C545.808 320.982 530.958 316.952 515.2 316.952C496.441 316.952 478.589 323.037 460.264 335.88L367.967 333.944C352.568 322.869 334.164 316.75 315.203 316.398C299.406 316.398 284.319 320.35 268.482 324.302C259.635 326.634 250.631 329.004 241.152 330.783L157.662 329.004C155.451 335.604 153.476 342.243 151.738 349L192.101 350.068C191.627 356.113 190.877 364.451 189.929 374.133L146.802 373.185C145.696 380.022 144.906 386.898 144.353 393.774L187.796 395.039C186.888 403.178 185.861 411.715 184.795 420.211L143.445 419.341C143.445 426.653 143.918 433.924 144.55 441.115L181.635 442.143C180.213 450.679 178.713 458.82 177.133 466.17L147.986 465.538C148.421 467.987 148.855 470.438 149.408 472.887C150.435 477.59 151.62 482.175 152.884 486.798L371.443 493.477C377.86 499.55 383.962 505.948 389.728 512.642L390.952 514.065L439.727 514.973L441.742 512.642C447.231 506.28 452.365 500.787 457.342 496.045L672.504 502.605C675.348 494.109 677.836 485.455 679.89 476.721L656.786 476.246C655.087 469.924 653.468 462.534 651.967 454.63L683.918 455.5C685.142 447.359 685.972 439.1 686.446 430.881L647.781 430.051C646.715 422.898 645.648 415.666 644.779 408.553L686.88 409.778C686.446 401.717 685.932 393.458 685.024 385.238ZM435.423 356.983C430.762 361.62 426.023 366.691 421.205 372.197H415.439H409.831C404.657 366.23 399.562 360.855 394.586 355.876L435.423 356.983ZM292.771 468.857C299.809 467.225 306.996 466.335 314.216 466.209C321.333 466.158 328.402 467.347 335.108 469.726L292.771 468.857ZM488.423 472.808C497.242 468.324 507.005 466.004 516.898 466.051C529.773 466.051 543.004 469.568 558.288 473.639L560.855 474.35L488.423 472.808ZM634.551 472.177C604.733 472.177 581.826 466.051 561.645 460.716C545.413 456.409 531.393 452.813 516.78 452.813C488.581 452.813 463.503 467.513 433.29 501.815H397.548C367.335 467.513 342.257 452.813 314.097 452.813C299.445 452.813 285.425 456.765 269.193 460.716C249.012 466.051 226.145 472.177 196.327 472.177H189.257C198.42 432.422 203.87 368.087 205.489 347.341H210.505C231.263 346.82 251.859 343.551 271.76 337.619C285.851 333.215 300.452 330.651 315.203 329.993C334.318 329.993 361.569 336.038 402.09 383.302L404.144 385.673H415.992H427.84L429.854 383.302C469.98 336.236 496.993 330.19 515.674 330.19C529.655 330.19 543.715 334.142 558.604 338.093C575.863 342.677 595.807 348.012 619.306 348.012H624.322C626.138 368.562 632.22 432.54 641.659 472.256L634.551 472.177Z" fill="#1F296B"/>
<path d="M396.088 598.829C394.066 598.802 392.146 599.706 390.875 601.279C388.067 606.444 388.142 612.7 391.072 617.797C392.446 619.485 394.508 620.457 396.68 620.446C398.829 620.485 400.87 619.52 402.209 617.837C403.852 615.68 404.638 612.992 404.421 610.29C404.611 607.278 403.726 604.298 401.933 601.872C400.562 600.006 398.402 598.881 396.088 598.829Z" fill="#1F296B"/>
</svg>
