<svg width="88" height="88" viewBox="0 0 88 88" fill="none" xmlns="http://www.w3.org/2000/svg">
<path fill-rule="evenodd" clip-rule="evenodd" d="M44 1.55027C20.5583 1.55027 1.55027 20.5608 1.55027 44C1.55027 67.4392 20.5583 86.4497 44 86.4497C67.4417 86.4497 86.4497 67.4392 86.4497 44C86.4497 20.5608 67.4417 1.55027 44 1.55027ZM44 12.0491C26.3595 12.0491 12.0516 26.357 12.0516 44C12.0516 61.643 26.3595 75.9509 44 75.9509C61.643 75.9509 75.9509 61.643 75.9509 44C75.9509 26.357 61.643 12.0491 44 12.0491ZM44 11.0987C25.8337 11.0987 11.0987 25.8312 11.0987 44C11.0987 62.1688 25.8337 76.9013 44 76.9013C62.1663 76.9013 76.9013 62.1688 76.9013 44C76.9013 25.8312 62.1663 11.0987 44 11.0987ZM46.9746 54.9827V58.9349C48.7273 60.6679 50.3763 61.7837 53.035 62.0972L52.9856 54.9827H46.9746ZM55.6739 55.0074V62.1342C57.1378 61.8454 58.9645 61.2085 61.6627 58.9078V55.0222L55.6739 55.0074ZM55.7011 52.0747H61.6627V47.4215H55.7011V52.0747ZM46.9722 47.461L46.9796 52.0574L52.9264 52.0254L52.9856 47.461H46.9722ZM42.5904 25.0709V27.5691L46.9919 27.6432V30.8597L53.8472 33.7727L61.1542 30.8918L61.2258 27.5913L64.9731 27.5222C65.178 30.6005 66.3505 34.2763 67.4762 35.713C68.1106 36.4807 70.1028 35.4933 69.2733 34.6959C68.3205 33.4345 67.9675 32.7309 67.533 30.5561C67.3034 29.7983 67.8119 27.8036 66.785 27.1766C66.5283 27.1322 65.2076 27.5839 65.2742 26.9865V25.1672L42.5904 25.0709ZM22.9751 38.3815C23.3676 45.1726 23.2392 51.5366 22.2024 63.7166L26.1127 63.882C26.8162 54.6717 27.3223 45.7749 26.8829 38.3939L22.9751 38.3815ZM22.6665 31.825L22.6542 35.629L29.3909 35.6044L29.3613 65.7976L33.5999 65.8593L33.9331 35.592L40.7439 35.5797L40.7489 31.7904L22.6665 31.825ZM22.8368 28.7392H40.3292V25.3548H22.8368V28.7392ZM35.7648 38.6925L36.2487 64.1905L40.4872 64.0054L39.8602 38.6407L35.7648 38.6925ZM43.7383 31.746L43.8099 38.5691C48.5447 44.2864 61.2085 42.0646 63.9511 38.3889L63.919 31.6719C62.8921 31.3855 61.285 31.5435 60.1939 31.7731L60.2161 36.4165C57.7253 39.7713 49.3544 39.564 47.4511 36.4437L47.4066 31.746C46.6982 31.3683 44.4493 31.4374 43.7383 31.746ZM43.094 44.4542V58.9028C45.533 67.3256 62.0552 68.8142 65.5334 58.9028L65.4693 44.3752L43.094 44.4542ZM44 13.9919C27.4309 13.9919 13.9919 27.4284 13.9919 44C13.9919 60.5716 27.4309 74.0081 44 74.0081C60.5716 74.0081 74.0081 60.5716 74.0081 44C74.0081 27.4284 60.5716 13.9919 44 13.9919ZM6.2702 45.8366C5.13959 45.8366 4.22127 46.7549 4.22127 47.8855C4.22127 49.0162 5.13959 49.9345 6.2702 49.9345C7.40081 49.9345 8.31912 49.0162 8.31912 47.8855C8.31912 46.7549 7.40081 45.8366 6.2702 45.8366ZM81.515 45.4441C80.3844 45.4441 79.4661 46.3624 79.4661 47.493C79.4661 48.6237 80.3844 49.542 81.515 49.542C82.6456 49.542 83.564 48.6237 83.564 47.493C83.564 46.3624 82.6456 45.4441 81.515 45.4441ZM80.5794 39.6232L83.0974 40.623C83.3739 40.7341 83.5565 40.8353 83.6454 40.934C83.7368 41.0525 83.8182 41.2352 83.8873 41.4771L84.2231 41.4105L83.8281 39.3714L83.4924 39.4381L83.5121 39.5393C83.559 39.7837 83.5343 39.9491 83.4356 40.0379C83.3344 40.1046 83.1566 40.0922 82.9073 40.0009L81.1423 39.3048L82.6802 37.5817C82.7962 37.4681 82.9073 37.436 83.0085 37.4854C83.0875 37.5397 83.1468 37.6656 83.1887 37.8656L83.2134 38.0013L83.5491 37.9347L83.0011 35.1279L82.6679 35.1921L82.6802 35.2588C82.7246 35.4834 82.732 35.6414 82.7024 35.7401C82.6753 35.8389 82.5839 35.9598 82.4284 36.1079L80.3449 38.4185L79.1403 38.6531C78.7453 38.7543 78.5034 38.579 78.417 38.1347L78.3701 37.9026L78.0368 37.9668L78.6095 40.9069L78.9428 40.8427L78.9181 40.7069C78.7922 40.1762 78.9551 39.8923 79.4093 39.8503L80.5794 39.6232ZM81.5002 31.9311L81.8508 32.8889C81.9742 33.232 81.9989 33.4641 81.9248 33.5875C81.868 33.7035 81.6335 33.8862 81.2163 34.1355L81.3348 34.454L82.8234 33.7677L82.7197 33.4814C82.5592 33.4419 82.458 33.3333 82.4185 33.1531L80.9966 29.2502C80.967 29.1663 80.9497 29.0873 80.9473 29.0132C80.9547 28.9639 80.9769 28.8972 81.0189 28.8083L80.925 28.5516L79.3303 28.9515L79.4587 29.3045C79.9376 29.2255 80.2338 29.2157 80.3523 29.2675C80.4906 29.3144 80.6165 29.4971 80.7325 29.818L81.0929 30.8104L77.3505 32.173C76.9531 32.3409 76.6717 32.2026 76.5088 31.7534L76.4026 31.467L76.0842 31.583L77.1555 34.5256L77.4764 34.4096L77.4048 34.217C77.1975 33.7134 77.316 33.4049 77.7579 33.2938L81.5002 31.9311ZM78.6515 25.1672L78.6984 25.2585C78.923 25.651 78.8292 25.9423 78.4145 26.1299L75.3189 27.7049C74.9659 27.9123 74.6869 27.811 74.4796 27.4087L74.4327 27.3173L74.1315 27.4704L75.3831 29.9291L75.6842 29.7736L75.625 29.6526C75.388 29.2379 75.4769 28.9392 75.8916 28.754L78.9576 27.1914C79.3402 26.9964 79.6364 27.1001 79.8413 27.5049L79.9031 27.6259L80.2067 27.4704L78.9551 25.0117L78.6515 25.1672ZM71.9271 23.765L72.0604 23.9625C72.1616 23.9502 72.2307 23.9724 72.2702 24.0267C72.2949 24.0662 72.3344 24.1625 72.3838 24.3205C72.5689 24.7969 72.7442 25.1598 72.9096 25.4042C73.5934 26.3398 74.3759 26.5619 75.2547 26.0806C75.5954 25.851 75.82 25.4955 75.9286 25.0092C76.0027 24.6315 75.9928 24.0884 75.9015 23.3849C75.8274 22.5851 75.9138 22.1037 76.1582 21.9383C76.5038 21.7605 76.8321 21.8815 77.1432 22.3012C77.5159 22.8961 77.4641 23.5108 76.9827 24.1329L77.1728 24.4167L78.2368 23.496L78.1405 23.3528C78.096 23.3281 78.0788 23.3256 78.0936 23.3454C78.0171 23.3133 77.9652 23.2787 77.9405 23.2417C77.9282 23.2219 77.9035 23.1454 77.864 23.0047C77.7307 22.6048 77.5727 22.2715 77.395 22.0074C76.7161 21.1237 75.9928 20.9015 75.2202 21.3384C74.6005 21.921 74.4154 22.6616 74.6647 23.5626C74.84 24.3476 74.7264 24.9302 74.3265 25.3104C73.8476 25.577 73.4304 25.4634 73.0676 24.9672C72.6602 24.3649 72.7392 23.7107 73.3021 23.0022L73.112 22.7208L71.9271 23.765ZM72.4924 16.2976L70.5916 17.9515L70.8137 18.2083C71.5592 19.0649 72.2406 19.208 72.8602 18.6403C73.4625 18.0873 73.4452 17.4257 72.8059 16.658L72.4924 16.2976ZM70.3348 18.1737L70.7816 18.6872C70.794 18.9785 70.7273 19.4549 70.5842 20.1214C70.4731 20.5806 70.4089 20.8891 70.399 21.0496C70.3793 21.3384 70.4237 21.6149 70.5348 21.8815C70.678 22.116 70.9223 22.4295 71.263 22.8245C71.4136 22.9973 71.5321 23.1331 71.621 23.2368L71.8259 23.0566C71.5321 22.6838 71.4161 22.2715 71.4778 21.8272C71.4975 21.5705 71.5543 21.2026 71.653 20.7287C71.7691 20.2053 71.8283 19.8079 71.8333 19.5339C72.5541 20.0177 73.1885 20.0399 73.7341 19.5931C74.0254 19.3413 74.1858 19.0229 74.2105 18.6378C74.2846 18.0651 73.9093 17.322 73.0873 16.4111C72.8799 16.1717 72.5491 15.8261 72.0974 15.3768C71.9789 15.2386 71.7765 15.0238 71.4926 14.73C71.4136 14.6782 71.3568 14.6239 71.3099 14.572L71.0507 14.7967L71.1643 14.925C71.5247 15.3052 71.5173 15.6261 71.147 15.8903L68.55 18.1465C68.2217 18.4601 67.8959 18.4132 67.57 18.0058L67.4811 17.9022L67.2244 18.1243L69.2116 20.4127L69.4684 20.1905L69.2906 19.9856C68.9919 19.64 69.0067 19.329 69.3326 19.0451L70.3348 18.1737ZM68.7722 13.2736C69.0709 13.439 69.0783 13.7722 68.7895 14.2659L69.061 14.4708L69.7399 13.4044L65.9037 10.5137L65.6988 10.7852L65.7803 10.8469C66.2123 11.1432 66.2888 11.4567 66.0099 11.7875L63.8992 14.5893C63.6573 14.9473 63.3537 14.9719 62.9859 14.6683L62.7143 14.4634L62.5094 14.735L66.6961 17.8923L67.5996 16.8653L67.3281 16.6605C66.8541 17.0999 66.4147 17.1369 66.0074 16.774L64.8348 15.8927C64.6102 15.7767 64.6077 15.5916 64.8299 15.3324L65.7729 14.0833L66.8072 14.8609C67.3034 15.1793 67.3923 15.5002 67.064 15.8236L67.3355 16.0285L68.3797 14.6412L68.1082 14.4363C67.8662 14.7942 67.57 14.8263 67.2244 14.535L66.0815 13.6735L67.2466 12.1232L68.7722 13.2736ZM59.3645 13.2538L59.8631 13.476L63.2303 10.3532C63.7264 9.85211 64.1609 9.7114 64.5361 9.92863L64.5682 9.94098L64.7065 9.62994L62.6847 8.73137L62.5465 9.04241L62.7316 9.12635C63.1587 9.33864 63.2599 9.55835 63.0352 9.78052L60.5197 12.1652L60.4679 8.93626C60.4556 8.63263 60.5099 8.44749 60.6407 8.38083C60.7691 8.31418 61.0011 8.35368 61.3319 8.5018L61.4553 8.55857L61.5961 8.24506L58.8263 7.01324L58.6881 7.32428L58.7498 7.35391C58.9769 7.45512 59.125 7.56867 59.1917 7.69951C59.2484 7.79825 59.283 8.02536 59.3003 8.38083L59.3645 13.2538ZM55.3752 6.31216L55.4715 6.34425C55.9109 6.46275 56.0491 6.73429 55.8862 7.15889L54.8124 10.4618C54.7087 10.8593 54.4396 10.9852 54.0101 10.8469L53.9114 10.8149L53.8077 11.1382L56.4293 11.9899L56.5355 11.6665L56.4046 11.6246C55.9455 11.4987 55.7949 11.2222 55.9578 10.7976L57.0218 7.52671C57.1551 7.11692 57.4365 6.98362 57.8685 7.12186L57.9969 7.16382L58.103 6.84044L55.4814 5.98878L55.3752 6.31216ZM48.6804 5.77401L52.1908 10.6371L52.6647 10.7038L53.309 6.11468C53.3312 5.7987 53.588 5.68514 54.0792 5.77648L54.1804 5.79129L54.2273 5.4531L52.0031 5.14206L51.9562 5.48025L52.055 5.49259C52.4154 5.54443 52.6351 5.61849 52.7116 5.72217C52.7906 5.82338 52.8054 6.03321 52.761 6.34672L52.3956 8.94614L49.3716 4.77177L47.6189 4.52491L47.5696 4.86311C47.8411 4.90013 48.0583 4.989 48.2213 5.12478L47.6609 9.1066C47.6338 9.46948 47.3943 9.62006 46.9475 9.55588L46.8784 9.54601L46.8315 9.88173L48.9224 10.1755L48.9693 9.83977C48.357 9.7978 48.1077 9.52132 48.2262 9.01032L48.6804 5.77401ZM44.3604 4.60637H44.4962C44.9948 4.58416 45.2343 4.87792 45.2096 5.49013V7.60076C45.1874 8.64744 44.6196 9.18066 43.5088 9.20287C42.4868 9.18066 41.9634 8.70175 41.9437 7.7711V5.18402C41.9437 4.79892 42.1461 4.60637 42.5559 4.60637H42.6892V4.26571H39.9663V4.60637H40.1367C40.5687 4.58416 40.7711 4.77671 40.7513 5.18402V7.7711C40.7711 9.06463 41.6228 9.72621 43.3039 9.74843C44.9158 9.72621 45.7329 8.97576 45.7552 7.49955V5.31979C45.7329 4.82114 45.9946 4.58416 46.5377 4.60637H46.6068V4.26571H44.3604V4.60637ZM27.7592 7.79825L27.8826 7.739C28.3196 7.49955 28.6627 7.66001 28.912 8.22038L29.8377 10.1187C30.2747 11.0667 30.0007 11.7949 29.0083 12.3034C28.0801 12.7305 27.4013 12.533 26.9742 11.7035L25.8411 9.37814C25.6708 9.03254 25.7695 8.7684 26.1373 8.59066L26.2583 8.53142L26.1077 8.22285L23.6614 9.41764L23.8095 9.72621L23.965 9.64969C24.3427 9.43986 24.6093 9.52379 24.7673 9.90148L25.9028 12.2269C26.4904 13.3797 27.542 13.5994 29.0626 12.8835C30.5043 12.1553 30.9091 11.1234 30.2821 9.78793L29.3267 7.82787C29.0873 7.39093 29.2181 7.06014 29.7168 6.84538L29.7785 6.81329L29.6304 6.50718L27.6086 7.49215L27.7592 7.79825ZM19.5833 15.3842C20.7386 16.7 21.8618 16.9888 22.9553 16.2482C23.8095 15.4978 23.8045 14.5375 22.943 13.3649C21.7877 12.0812 20.6867 11.8048 19.6425 12.533C18.7859 13.3155 18.7662 14.2659 19.5833 15.3842ZM18.8353 16.5148C20.0301 17.7392 21.4174 17.7713 22.9899 16.616C24.5525 15.2608 24.8018 13.8191 23.7354 12.2861C22.5604 11.0148 21.1706 10.9605 19.566 12.1133C18.0132 13.5155 17.7713 14.9843 18.8353 16.5148ZM18.0132 20.9064L18.2749 21.1261L20.0696 18.9859L19.8079 18.7686L19.7215 18.8723C19.4302 19.25 19.1216 19.287 18.7884 18.9785L16.1272 16.7444C15.7816 16.4852 15.7644 16.189 16.0729 15.8557L16.1816 15.7249L15.9199 15.5052L14.1252 17.6454L14.3869 17.8627L14.4313 17.8108C14.735 17.4134 15.0534 17.3714 15.3867 17.68L16.4309 18.5563L14.5696 20.7731L13.5007 19.8745C13.1551 19.6153 13.1427 19.3092 13.4686 18.9587L13.555 18.855L13.2958 18.6353L11.4987 20.7756L11.7603 20.9928L11.8492 20.8891C12.1257 20.5608 12.4219 20.5263 12.7329 20.7879L15.3941 23.0195C15.7249 23.2985 15.752 23.6021 15.4731 23.9329L15.3891 24.0366L15.6483 24.2563L17.443 22.116L17.1838 21.8988L17.0949 22.0025C16.8012 22.3505 16.4901 22.3851 16.1593 22.1086L14.9596 21.1014L16.8209 18.8822L17.996 19.8696C18.3416 20.1609 18.3786 20.4719 18.1021 20.8027L18.0132 20.9064ZM13.8636 23.9008L13.6932 24.197C14.0882 24.555 14.3202 24.8339 14.3918 25.0314C14.461 25.2289 14.4215 25.456 14.2733 25.7127L12.9304 28.0406L11.0074 22.4493L10.5927 22.2098L8.07226 26.5743L9.30655 27.3667L9.47688 27.0705C8.91158 26.6903 8.7684 26.2805 9.04735 25.8411L10.2224 23.807L12.1454 29.3959L12.5577 29.6353L15.3151 24.8586L13.8636 23.9008ZM6.83303 30.3487L6.88241 30.2228C7.0478 29.7513 7.41068 29.6403 7.97105 29.8921L9.92863 30.682C10.8889 31.0943 11.1703 31.82 10.7754 32.8618C10.3705 33.7998 9.73362 34.1059 8.86221 33.7776L6.46275 32.8074C6.1048 32.6643 6.00359 32.4026 6.15664 32.0224L6.20601 31.8965L5.89004 31.7706L4.86804 34.296L5.18649 34.4219L5.25067 34.2639C5.39138 33.8541 5.64565 33.7406 6.01593 33.9134L8.41539 34.8811C9.625 35.3452 10.5532 34.8045 11.2024 33.2543C11.7875 31.7509 11.3974 30.7141 10.0397 30.1389L8.01795 29.3218C7.54645 29.1564 7.42303 28.8256 7.64767 28.3294L7.67482 28.2653L7.35884 28.1394L6.51459 30.2228L6.83303 30.3487ZM4.62365 38.5741L4.89026 36.8905C4.9026 36.5251 5.17662 36.3844 5.71477 36.4708L5.76167 36.1672L4.55206 35.9746L3.86333 40.3144L4.16697 40.3638L4.18425 40.2626C4.22127 39.8775 4.49776 39.7368 5.00875 39.8404L8.47217 40.3885C8.83505 40.4255 8.97576 40.618 8.89924 40.9735L8.87702 41.1093L9.21275 41.1636L9.61759 38.6061L9.28187 38.5518L9.25471 38.7222C9.2325 39.1517 8.95601 39.3048 8.4228 39.1764L7.04533 38.9567L7.25763 37.6113C7.30206 37.1818 7.53658 37.0114 7.95871 37.1028L8.01302 36.7646L6.29735 36.493L6.24551 36.8312C6.69973 36.8559 6.86266 37.1349 6.73182 37.6656L6.53927 38.8777L4.62365 38.5741ZM69.8214 75.2029C69.6732 75.351 68.9179 75.7706 69.7942 75.8126C70.3965 75.7756 70.404 75.425 70.4632 75.3658C70.5274 75.235 70.478 74.5265 69.8214 75.2029ZM65.4347 69.772C65.3829 69.8905 65.3557 70.1398 65.4026 70.2311C65.4322 70.2904 65.4767 70.325 65.5384 70.3422C65.5705 70.3521 65.5803 70.362 65.6075 70.3817C65.7062 70.4632 65.8223 70.4681 65.9679 70.4706C66.2098 70.4706 66.311 70.5422 66.5357 70.4188C66.8591 70.2583 66.8788 69.5967 67.1652 69.1721C67.4293 68.5105 67.6614 68.8167 67.6416 69.0783C67.5725 69.9991 67.254 70.9051 66.9677 71.5765C66.5777 72.4899 65.6272 74.2105 65.8074 74.5462C66.2444 75.4004 66.9282 75.0177 66.8393 74.5117C66.8048 74.2302 66.827 74.055 67.0097 73.6872C67.3133 73.0453 67.7675 72.1542 68.1575 71.5543C68.7377 70.4805 69.6757 70.636 69.7325 71.458C69.5399 72.7318 69.0635 72.5516 68.281 73.2132C67.5429 74.2549 68.1946 74.0476 68.4538 73.8081C68.4785 73.7859 68.4933 73.7711 68.5204 73.7513C68.5352 73.739 68.555 73.7242 68.5723 73.7094C69.1598 73.1959 69.0043 74.2697 68.9746 74.6326C68.9697 74.7042 68.9672 74.7166 68.9993 74.7709C69.1845 75.0819 68.9845 75.2399 68.5723 75.5509C68.5525 75.5658 68.5402 75.5732 68.518 75.583C68.0267 75.7781 68.1526 76.0792 68.2908 76.215C68.3106 76.2323 68.3155 76.2372 68.3452 76.2372C68.671 76.2545 68.9179 76.3261 69.2042 76.3705C69.2166 76.3705 69.2264 76.373 69.2388 76.3779C69.5474 76.4717 69.8189 76.4149 70.1102 76.4347C70.6582 76.4125 71.2235 75.9015 71.2951 75.1264C71.3346 74.4524 70.794 74.3734 71.4704 73.9241C71.9197 73.5514 72.2406 72.8281 71.3519 72.991C71.3346 72.9935 71.3247 72.996 71.3074 73.0058C71.0976 73.1219 70.9742 73.3909 70.4434 73.8057C70.4114 73.8303 70.3842 73.855 70.3546 73.8797C70.1349 74.0895 69.577 74.4598 69.7053 73.5316C69.7078 73.5144 69.7078 73.4995 69.7078 73.4823C69.7004 72.8528 69.8041 72.8281 70.0189 72.559C70.6212 71.6753 70.7644 69.8683 69.5671 69.8979C69.1795 69.9127 68.3353 70.594 68.6266 69.693C68.6537 69.5696 68.6439 69.4906 68.6759 69.298C68.6759 69.2832 68.6784 69.2709 68.6784 69.2536C68.671 68.6636 68.9598 67.7453 68.202 67.928C68.1896 67.9304 68.1798 67.9304 68.1699 67.9329C68.0588 67.9354 68.007 67.9107 67.8662 67.965C67.8465 67.9724 67.8292 67.9798 67.8119 67.9921C67.5305 68.1723 67.2294 68.3698 67.0541 68.6439C67.0146 68.708 67.0047 68.7228 66.9455 68.7697C66.6245 69.0215 66.4987 69.3326 65.9803 69.4535C65.7803 69.5276 65.5655 69.493 65.4347 69.772ZM64.6744 70.6162C64.5312 70.8508 64.6176 71.1717 64.6793 71.3099C64.6941 71.3395 64.6991 71.3667 64.7065 71.3963C64.8077 71.7987 65.02 71.737 65.2372 71.7148C65.5976 71.6629 65.7778 71.658 65.8494 71.1569C65.8988 70.9174 65.9802 70.6854 65.5927 70.5891C65.5655 70.5842 65.5482 70.5768 65.5236 70.5669C65.4495 70.5323 65.3705 70.5274 65.2495 70.515C65.2298 70.5126 65.2224 70.5126 65.2076 70.5027C65.1088 70.441 64.9212 70.4212 64.7336 70.5545C64.7065 70.5743 64.6941 70.5866 64.6744 70.6162ZM19.7561 68.1501C19.6697 68.2908 19.7758 68.3353 19.8178 68.4044C19.8622 68.5229 19.8252 68.592 19.8721 68.7747C19.8795 68.8167 19.8869 68.9351 19.9289 69.0289C19.9313 69.0364 19.9338 69.0388 19.9338 69.0462C19.9239 69.2733 19.956 69.3104 19.9881 69.4313C19.9906 69.4363 19.9906 69.4412 19.998 69.4461C20.0227 69.4856 20.0893 69.5251 20.1979 69.5597C20.2103 69.5622 20.2226 69.5671 20.2325 69.5745C20.3757 69.656 20.5904 69.7276 20.7534 69.6757C20.82 69.6535 20.857 69.5646 20.8472 69.5202C20.8447 69.5128 20.8422 69.5054 20.8422 69.4955C20.8472 69.3128 20.7583 69.2462 20.7558 69.1351C20.7558 69.1252 20.7558 69.1153 20.7534 69.1055C20.7361 69.0018 20.704 68.8858 20.6842 68.7796C20.6818 68.7623 20.6793 68.7574 20.667 68.7426C20.5238 68.5599 20.3979 68.3748 20.2004 68.1798C20.193 68.1723 20.1881 68.1699 20.1782 68.1649C19.9239 68.0292 19.8425 68.086 19.7758 68.1353C19.7709 68.1378 19.7659 68.1403 19.7635 68.1427C19.761 68.1452 19.7585 68.1477 19.7561 68.1501ZM20.8274 70.1571C20.2226 70.0806 19.3043 70.1423 18.6501 70.0312C18.6353 70.0287 18.6279 70.0287 18.6131 70.0312C18.2601 70.0781 17.9589 70.0263 17.8873 69.9868C17.8725 69.9794 17.8651 69.9719 17.8503 69.9645C17.443 69.7893 17.6281 69.6436 17.4504 69.4955C17.4479 69.493 17.4455 69.4906 17.4405 69.4881C17.3541 69.4437 17.206 69.4215 17.0653 69.5918C17.0628 69.5967 17.0604 69.5992 17.0579 69.6041C16.8135 70.0682 16.8703 70.5175 17.0209 70.6385L17.0505 70.6681C17.2406 70.8755 17.5393 70.8903 17.717 70.8977C17.7219 70.8977 17.7269 70.8977 17.7318 70.9001C17.7343 70.9001 17.7368 70.9026 17.7392 70.9026C17.9096 70.9791 17.8404 71.0779 17.7368 71.184C17.7318 71.189 17.7269 71.1939 17.7195 71.1964C17.5812 71.2655 17.4677 71.2852 17.3739 71.3C17.3665 71.3025 17.3591 71.3025 17.3541 71.305C16.7641 71.5543 16.3149 71.5395 16.0581 71.5074C15.4928 71.4654 15.125 71.2803 14.6905 71.7296C14.6807 71.7394 14.6732 71.7493 14.6658 71.7617C14.4461 72.1517 14.4461 72.3813 14.5449 72.4627C14.73 72.6479 15.162 72.4479 15.4558 72.3887C15.4607 72.3862 15.4632 72.3862 15.4681 72.3838C15.6508 72.3319 15.7421 72.3048 15.947 72.3467C16.4161 72.4973 16.1198 72.7738 15.9717 72.8676C15.2015 73.4156 15.2509 73.8353 15.3694 73.9859C15.3768 73.9933 15.3817 73.9982 15.3891 74.0031C15.5842 74.1537 15.7101 74.0723 15.8236 74.0254C15.836 74.0204 15.8434 74.0155 15.8557 74.0106C15.9174 73.9686 15.989 73.9439 16.0483 73.8921C16.0631 73.8772 16.0754 73.8674 16.0952 73.8575C16.1396 73.8279 16.1495 73.8057 16.1717 73.7908C16.1816 73.7834 16.1939 73.776 16.2062 73.7662C16.2408 73.7464 16.2926 73.7316 16.3346 73.702C16.3568 73.6847 16.3815 73.6724 16.4013 73.6526C16.6086 73.4527 16.5642 73.3514 16.9123 72.9392C16.9493 72.8948 16.9789 72.8602 17.0061 72.8133C17.2159 72.4529 17.4158 72.7269 17.564 72.8873C17.6133 72.9417 17.6676 72.9861 17.7121 73.0429C17.8429 73.2107 17.9762 73.1638 18.1095 73.1811C18.1219 73.1811 18.1317 73.1836 18.1441 73.1811C18.3638 73.1614 18.9217 73.0651 18.8328 72.6824C18.7316 72.4751 18.5292 72.638 18.3712 72.6405C18.344 72.6405 18.3193 72.6454 18.2922 72.6479C18.0898 72.6676 17.8182 72.5615 17.8997 72.2307C17.8997 72.2258 17.8997 72.2233 17.9022 72.2184C17.9194 72.1048 17.8997 72.0061 18.0281 71.8728C18.0281 71.8703 18.033 71.8653 18.0379 71.8629C18.1342 71.7839 18.1638 71.7715 18.2552 71.7345C18.4329 71.6802 18.5366 71.6679 18.8353 71.5568C18.8501 71.5518 18.8575 71.5494 18.8723 71.5494C19.0007 71.542 19.0969 71.458 19.2179 71.4383C19.292 71.4309 19.3191 71.4161 19.371 71.3939C19.4425 71.3494 19.5215 71.3149 19.5981 71.2803C19.6079 71.2778 19.6178 71.2754 19.6252 71.2729C19.6869 71.2581 19.7264 71.2507 19.7956 71.2136C19.798 71.2112 19.803 71.2087 19.8054 71.2062C19.9239 71.1322 20.0325 71.0803 20.1115 71.0507C20.1189 71.0482 20.1263 71.0458 20.1313 71.0408C20.3905 70.8952 21.2545 70.752 21.178 70.4509C21.1755 70.4459 21.173 70.441 21.1706 70.436C21.094 70.3027 21.1138 70.2287 20.8422 70.1571H20.8274ZM23.7527 71.4951C23.6589 71.184 23.454 71.2482 23.3133 71.221C23.3059 71.221 23.3009 71.2186 23.2935 71.2186C22.8591 71.2161 22.5283 71.305 22.2814 71.2285C21.9457 71.105 21.7186 70.6014 21.3335 70.8187C21.3236 70.8236 21.3187 70.8285 21.3113 70.836C21.1607 71.0162 21.2446 71.2013 21.3755 71.3198C21.489 71.421 21.6421 71.421 21.689 71.5173C21.7778 71.6679 21.6322 71.732 21.5606 71.7617C21.373 71.8579 21.3014 71.9419 21.2619 71.9518C21.2545 71.9518 21.2471 71.9542 21.2397 71.9567C21.1434 71.9863 21.0422 71.9764 20.9533 72.053C20.9459 72.0579 20.9385 72.0604 20.9286 72.0628C20.7953 72.0974 20.625 72.1739 20.5016 72.2307C20.4078 72.2924 20.2522 72.3072 20.1263 72.3443C20.0424 72.3838 19.9955 72.3813 19.9239 72.406C19.8227 72.4504 19.7141 72.5146 19.64 72.5269C19.6203 72.5294 19.6129 72.5319 19.5931 72.5417C19.4895 72.5985 19.3956 72.6331 19.2772 72.7244C19.0846 72.8478 18.9686 72.9935 18.7958 73.0231C18.7785 73.0281 18.7736 73.0305 18.7588 73.0429C18.5292 73.2329 18.4082 73.4206 18.0503 73.6131C17.833 73.7489 17.5763 73.9834 17.3912 74.0328C17.3689 74.0402 17.364 74.0426 17.3492 74.0599C17.0184 74.3858 17.0505 74.7906 17.1616 74.8869C17.3862 75.0819 17.7244 74.5413 17.9787 74.3413C18.1786 74.1685 18.4107 74.1068 18.6156 73.9538C18.8254 73.7958 19.055 73.4749 19.2006 73.3934C19.5487 73.1811 19.9437 72.9836 20.2942 72.912C20.5509 72.8577 21.2619 72.68 21.1138 73.1095C21.0224 73.2478 20.7632 73.3613 20.5904 73.4872C20.2794 73.7736 20.2004 73.7439 20.0079 73.8698C19.7215 74.2697 19.9042 74.5956 20.0572 74.6055C20.9904 74.8869 21.5606 74.9338 21.4075 75.7139C20.8521 76.6519 20.5633 76.7235 20.035 77.0741C19.6252 77.1901 18.9883 77.237 18.8698 76.884C18.9562 76.6741 19.1019 76.7112 19.2105 76.5655C19.2525 76.4816 19.1562 76.3483 19.25 76.2594C19.3858 76.1113 19.4425 76.136 19.6376 76.02C19.8869 75.8719 20.156 75.6917 19.9906 75.467C19.803 74.8375 19.1414 75.0869 18.8229 75.1017C18.7118 75.1041 18.5835 75.1288 18.5316 74.9338C18.5168 74.8671 18.4749 74.7462 18.265 74.7264C18.0404 74.6721 17.8478 74.9264 17.6874 75.0696C17.6158 75.1387 17.5047 75.2547 17.5047 75.3337C17.5096 75.5386 17.5393 75.8719 17.6158 75.9558C17.7713 76.1113 17.954 76.1162 18.1317 76.2076C18.3119 76.3434 18.1194 76.5112 17.9145 76.5211C17.7837 76.5285 17.5269 76.4791 17.5022 76.6075C17.5245 76.768 17.7886 76.7951 17.875 76.8149C18.0824 76.8642 18.0898 77.0296 18.0824 77.1234V77.1382C18.1145 77.4542 18.2502 77.5456 18.4354 77.6739C18.4403 77.6789 18.4428 77.6813 18.4502 77.6838C18.8057 77.8541 19.2401 77.8862 19.7931 77.7998C20.1115 77.7282 20.2473 77.6764 20.5139 77.4147C20.5386 77.3925 20.5485 77.3851 20.5781 77.3703C20.7213 77.3061 20.8595 77.1851 20.9434 77.0839C20.9484 77.0765 20.9558 77.0716 20.9607 77.0667C21.1014 76.963 21.2668 76.842 21.3705 76.7038C21.6988 76.2594 22.2962 75.9311 22.0025 75.1708C21.7408 74.5536 21.2397 74.5734 20.8546 74.2821C20.8472 74.2772 20.8422 74.2697 20.8373 74.2648C20.8027 74.2253 20.7608 74.1364 20.8373 74.0402C20.8422 74.0328 20.8472 74.0303 20.8546 74.0254C20.9212 73.9809 20.978 73.9957 21.0669 73.9711C21.1434 73.9513 21.2372 73.9069 21.3261 73.8303C21.4347 73.7242 21.3754 73.586 21.5877 73.4798C21.8247 73.3564 22.2271 73.3366 22.2271 73.0281C22.2345 72.8898 22.1876 72.796 21.9161 72.6504C21.763 72.5664 21.6075 72.4998 21.5828 72.3739C21.5655 72.211 21.7778 72.2233 21.884 72.1566C21.8889 72.1517 21.8939 72.1517 21.9013 72.1492C22.0716 72.1122 22.195 72.0702 22.3678 71.9838C22.5925 71.9048 22.9183 71.8826 23.2145 71.8629C23.5305 71.8407 23.8095 71.8135 23.7527 71.4951ZM30.5734 79.4957C30.4796 79.6908 30.5092 79.8537 30.4845 80.0289C30.482 80.0462 30.482 80.0536 30.487 80.0685C30.6302 80.6436 30.9856 80.414 31.0918 80.1845C31.156 80.0981 31.2621 79.787 31.2053 79.4883C31.1955 79.3303 30.9708 78.8885 30.5734 79.4957ZM30.4574 78.2071C30.3413 78.3799 30.3858 78.4935 30.1118 78.7206C29.9019 79.0736 30.2228 79.007 30.3784 78.9033C30.5166 78.8095 30.4302 78.7576 30.7906 78.6194C31.0325 78.333 30.6845 77.9307 30.4574 78.2071ZM30.645 74.6943C30.4105 74.5364 29.9612 74.9782 29.6353 75.1831C29.5785 75.2177 29.5588 75.2424 29.5168 75.2917C29.2453 75.6176 28.7689 75.8768 28.3986 76.173C28.3813 76.1854 28.3665 76.1977 28.3541 76.215C28.011 76.61 27.6086 77.158 27.263 77.4295C27.2457 77.4419 27.2309 77.4518 27.2136 77.4592C26.6187 77.7751 25.6782 78.2664 25.382 79.3007C25.377 79.3229 25.3746 79.3402 25.3746 79.3624C25.3671 79.5574 25.3425 79.8833 25.6288 79.9722C25.6486 79.9796 25.656 79.982 25.6732 79.9648C25.7448 79.8808 25.9102 79.4513 26.0238 79.2242C26.0929 79.0859 26.3965 78.7823 26.715 78.4836C26.7792 78.4318 26.9717 78.3429 27.0606 78.5503C27.0976 78.6539 27.2038 78.7922 27.4728 78.6317C27.6185 78.5206 27.7074 78.4441 27.8135 78.3083C27.8308 78.2861 27.8407 78.2713 27.8505 78.2442C27.8974 78.1355 27.9912 77.9751 28.0875 77.8887C28.2282 77.7505 28.4307 77.5406 28.8182 77.4962C29.4304 77.4493 30.0871 77.6468 29.8501 78.0146C29.8427 78.0245 29.8353 78.0368 29.8279 78.0491C29.3737 78.8712 28.5936 79.4044 28.053 79.7994C26.8631 80.5103 26.5743 80.535 26.2534 80.2067C26.1028 80.0709 25.8584 80.0536 25.7374 80.0561C25.6831 80.0561 25.6683 80.0783 25.6436 80.1203C25.4511 80.4684 25.5745 80.656 25.6634 80.7646C25.6881 80.7967 25.7078 80.8238 25.73 80.8559C26.0263 81.325 26.6681 81.3101 26.9841 81.2583C26.9989 81.2558 27.0088 81.2509 27.0211 81.246C28.0505 80.8806 28.6183 80.6239 29.5267 79.6118C29.6032 79.5155 29.6452 79.4636 29.6896 79.4315C29.8896 79.3007 30.0525 79.1748 29.9217 79.6142C29.8279 79.8339 29.6625 80.1302 29.8106 80.5005C29.8575 80.6165 29.8674 80.6757 29.8846 80.8016C29.8995 80.9176 29.934 81.0411 30.018 81.162C30.05 81.2114 30.0871 81.2534 30.1192 81.3003C30.1537 81.3472 30.1858 81.3965 30.2228 81.4385C30.5314 81.7668 31.0399 81.32 31.1905 81.125C31.4004 80.9127 31.6299 80.5301 31.6102 80.1499C31.6423 79.6118 31.9657 79.8858 32.0545 80.0956C32.0718 80.1351 32.0866 80.1647 32.1113 80.2042C32.5927 80.9645 32.6519 82.4087 31.9632 83.0505C31.2127 83.8158 30.1661 83.2381 30.1389 83.4381C29.8945 83.7861 30.6771 84.265 31.1807 84.2009C31.2967 84.1885 31.4275 84.1391 31.5386 84.0996C32.1286 83.9071 33.0543 83.3393 32.9975 81.3867C32.8889 80.3844 32.4964 79.3106 31.625 78.7033C31.5213 78.5922 31.4571 78.4466 31.4028 78.3059C31.272 78.1232 31.151 77.8961 30.9363 77.7282C30.8351 77.5949 30.7857 77.4888 30.7635 77.3974C30.7561 77.3579 30.7585 77.3431 30.7684 77.3061C30.7906 77.195 30.7956 77.042 30.7709 76.9284C30.761 76.8864 30.7536 76.842 30.7437 76.7976C30.7116 76.647 30.6129 76.4026 30.4031 76.3779C30.1982 76.4026 30.1266 76.6544 30.1216 76.7581C30.4302 77.2962 29.8057 77.3481 29.4403 76.9802C29.1564 76.7951 29.0355 76.9827 28.8306 76.9235C28.754 76.8939 28.596 76.8025 28.8232 76.605C29.4304 75.9681 31.0572 75.156 30.645 74.6943ZM34.765 78.7996C34.6465 79.1205 34.6589 79.2513 34.6441 79.4785C34.5947 79.982 34.3059 79.9894 34.1158 80.2017C33.6863 80.5918 34.1355 80.6041 34.3577 80.5202C34.4022 80.5029 34.4466 80.4758 34.491 80.4535C34.7107 80.3474 34.8909 80.1869 35.1526 80.1376C35.2341 80.1228 35.2982 80.1178 35.3748 80.0857C35.6192 79.9919 36.0487 79.7747 35.8167 79.5698C35.7772 79.5352 35.7426 79.5155 35.708 79.476C35.6044 79.3575 35.4562 79.2193 35.4785 79.0045C35.4834 78.9403 35.5007 78.9033 35.4859 78.8366C35.3698 78.2664 34.9082 78.4614 34.765 78.7996ZM55.706 77.232C56.575 79.0613 56.454 79.1946 56.0812 79.5328C55.9751 79.6266 55.9381 79.671 55.8023 79.7031C54.7235 79.9574 54.8988 80.3079 54.8988 80.6412C54.8988 80.7177 54.884 80.7473 54.9358 80.8115C55.1086 81.0337 55.6517 81.2139 55.7579 81.204C55.9529 81.1991 56.1775 80.9868 56.3651 81.0164C56.6614 81.1373 56.5725 81.5101 56.5799 81.9767C56.5503 82.3321 56.686 82.7172 57.3007 82.7024C57.5352 82.6629 57.6389 82.263 57.6216 82.1914C57.5056 81.7002 56.9403 80.4289 57.6908 79.7475C57.7228 79.7204 57.7475 79.6957 57.7747 79.6636C58.3523 78.9971 58.967 78.2812 60.3716 77.6147C60.4333 77.5851 60.4506 77.5801 60.4803 77.5159C60.7123 77.0642 60.458 76.5779 59.5496 76.6174C59.4928 76.6198 59.4583 76.6223 59.4064 76.6495C59.1127 76.7926 58.9818 77.1308 58.7547 77.4295C58.5103 77.7455 58.1598 78.0171 57.8956 78.296C57.6167 78.533 57.2859 79.1205 57.0341 77.7899C57.0168 77.7035 57.0341 77.6616 57.0316 77.5801C57.0267 77.3481 56.6712 76.9506 56.4046 76.6544C56.3873 76.6347 56.3725 76.6174 56.3478 76.6026C56.2145 76.5137 55.7727 76.2644 55.627 76.8914C55.5925 77.0395 55.6418 77.0963 55.706 77.232ZM59.2139 79.9105C59.0386 80.851 59.9273 81.0954 60.3346 81.1818C60.4408 81.1793 61.0851 80.9818 61.0678 80.34C61.0283 80.1573 60.811 79.9352 60.11 79.8092C59.8039 79.7796 59.3398 79.5797 59.2139 79.9105ZM40.1441 79.6661L39.8034 79.634C39.4282 79.9796 38.9863 80.2511 38.4778 80.4511L38.5592 80.6313C38.7938 80.5868 39.048 80.5005 39.3196 80.3795L39.0776 83.1147C39.0653 83.2603 38.9838 83.3344 38.8357 83.3393L38.4457 83.3048L38.4259 83.5245L40.428 83.6997L40.4502 83.48L40.033 83.4455C39.8873 83.4307 39.8207 83.3344 39.8355 83.1566L40.1441 79.6661ZM42.4571 80.8658C42.4053 81.5521 42.5411 81.8903 42.8694 81.8829C43.015 81.8878 43.1878 81.8285 43.3878 81.7026C43.4298 81.441 43.452 81.2213 43.4569 81.0435C43.4767 80.2906 43.3088 79.9105 42.9484 79.9006C42.6225 79.8759 42.4571 80.1968 42.4571 80.8658ZM42.0572 83.6997C43.4051 83.4282 44.1382 82.6555 44.2567 81.3817C44.2543 80.3202 43.8198 79.7525 42.9533 79.6784C42.1683 79.7228 41.7314 80.1524 41.6425 80.967C41.6721 81.7026 42.0202 82.105 42.6892 82.1741C42.9015 82.1791 43.1162 82.1124 43.331 81.9717C43.1286 82.7987 42.6571 83.3171 41.9165 83.5269L42.0572 83.6997ZM45.3997 81.7545L45.575 81.8483C45.7354 81.7619 45.8983 81.7175 46.0613 81.715C46.5525 81.7372 46.8117 82.0408 46.8413 82.6284C46.8191 83.1542 46.629 83.4356 46.2711 83.4751C46.1403 83.4776 46.0144 83.3912 45.8983 83.2134C45.7799 83.0209 45.6465 82.9246 45.4984 82.9271C45.3009 82.932 45.1997 83.0406 45.1874 83.2554C45.2269 83.5467 45.5157 83.6948 46.0563 83.6997C47.0166 83.6306 47.5251 83.169 47.5696 82.3198C47.5029 81.5052 47.0364 81.0806 46.1699 81.0509C45.9921 81.0559 45.8193 81.083 45.6564 81.1349L45.6663 80.3745L47.1598 80.3425L47.2412 79.6044L47.0462 79.6093C47.0314 79.6908 46.9598 79.7327 46.829 79.7352L45.4318 79.7648L45.3997 81.7545ZM50.2603 80.3844C50.1764 79.9179 49.9369 79.7056 49.5494 79.7451C49.2112 79.8117 49.0581 80.0166 49.0927 80.3573C49.1248 80.7004 49.4457 80.9571 50.048 81.1349C50.2332 80.9423 50.3048 80.693 50.2603 80.3844ZM50.6849 82.6259C50.7047 82.2926 50.3418 82.0162 49.5987 81.794C49.3963 81.989 49.3272 82.2556 49.3939 82.5938C49.4704 83.127 49.7222 83.3714 50.1443 83.3245C50.5442 83.2332 50.7244 83.0011 50.6849 82.6259ZM50.8651 80.2733C50.717 79.7154 50.2751 79.4661 49.542 79.5229C48.836 79.6759 48.4978 80.0808 48.5274 80.7374C48.5693 81.125 48.8458 81.441 49.3593 81.6804C48.8878 81.9643 48.6829 82.3074 48.7421 82.7123C48.8952 83.3196 49.3568 83.5886 50.1245 83.5269C50.8923 83.364 51.2675 82.9295 51.2478 82.2235C51.1836 81.7866 50.8553 81.4632 50.2628 81.2509C50.7318 80.9522 50.9318 80.6264 50.8651 80.2733ZM44 0C68.2958 0 88 19.7042 88 44C88 68.2958 68.2958 88 44 88C19.7042 88 0 68.2958 0 44C0 19.7042 19.7042 0 44 0Z" fill="#E50012"/>
</svg>
