<?xml version="1.0" encoding="UTF-8"?><svg id="b" xmlns="http://www.w3.org/2000/svg" viewBox="0 0 100.1339 100.134"><g id="c"><path d="M50.067,0l2.5722.0627,2.5347.194,2.5033.3191,2.4595.4444,2.4157.5633,2.372.6759,2.3281.7886,2.2718.8949,2.2154,1.0076,2.1592,1.1077,2.0965,1.2079,2.034,1.3017,1.9589,1.402,1.8963,1.4895,1.815,1.5709,1.7398,1.6646,1.6647,1.7399,1.5709,1.8149,1.4895,1.8963,1.4019,1.9589,1.3018,2.034,1.2078,2.0965,1.1077,2.1592,1.0076,2.2154.895,2.2718.7885,2.3282.6759,2.3719.5633,2.4157.4443,2.4596.3192,2.5032.194,2.5347.0626,2.5722-.0626,2.5721-.194,2.5347-.3192,2.5033-.4443,2.4595-.5633,2.4157-.6759,2.3783-.7885,2.3219-.895,2.2718-1.0076,2.2154-1.1077,2.1592-1.2078,2.0965-1.3018,2.034-1.4019,1.9589-1.4895,1.8963-1.5709,1.8149-1.6647,1.7399-1.7398,1.6646-1.815,1.5709-1.8963,1.4896-1.9589,1.4018-2.034,1.3017-2.0965,1.2079-2.1592,1.1077-2.2154,1.0076-2.2718.8949-2.3281.7886-2.372.6759-2.4157.5633-2.4595.4444-2.5033.3191-2.5347.1941-2.5722.0625-2.5722-.0625-2.5347-.1941-2.5033-.3191-2.4595-.4444-2.4158-.5633-2.3782-.6759-2.3219-.7886-2.2718-.8949-2.2154-1.0076-2.1592-1.1077-2.0965-1.2079-2.034-1.3017-1.9588-1.4018-1.8963-1.4896-1.815-1.5709-1.7398-1.6646-1.6647-1.7399-1.5708-1.8149-1.4895-1.8963-1.4018-1.9589-1.3018-2.034-1.2078-2.0965-1.1077-2.1592-1.0077-2.2154-.8949-2.2718-.7885-2.3219-.6759-2.3783-.5633-2.4157-.4443-2.4595-.3192-2.5033-.194-2.5347-.0625-2.5721.0625-2.5722.194-2.5347.3192-2.5032.4443-2.4596.5633-2.4157.6759-2.3719.7885-2.3282.8949-2.2718,1.0077-2.2154,1.1077-2.1592,1.2078-2.0965,1.3018-2.034,1.4018-1.9589,1.4895-1.8963,1.5708-1.8149,1.6647-1.7399,1.7398-1.6646,1.815-1.5709,1.8963-1.4895,1.9588-1.402,2.034-1.3017,2.0965-1.2079,2.1592-1.1077,2.2154-1.0076,2.2718-.8949,2.3219-.7886,2.3782-.6759,2.4158-.5633,2.4595-.4444,2.5033-.3191,2.5347-.194,2.5722-.0627h0ZM50.067,2.8226l-2.422.0625-2.397.1815-2.3594.3004-2.3219.4193-2.2843.5257-2.2405.6383-2.1904.7448-2.1466.8511-2.0903.9449-2.034,1.0452-1.9776,1.1453-1.9213,1.2266-1.8525,1.3206-1.7837,1.4019-1.7147,1.4895-1.646,1.5645-1.5646,1.646-1.4895,1.7148-1.4018,1.7836-1.3206,1.8525-1.2328,1.9214-1.1391,1.9776-1.0451,2.034-.9451,2.0903-.8511,2.1466-.7447,2.1904-.6383,2.2405-.5258,2.2843-.4192,2.3218-.3004,2.3595-.1815,2.3969-.0625,2.422.0625,2.422.1815,2.3969.3004,2.3595.4192,2.3218.5258,2.2843.6383,2.2405.7447,2.1905.8511,2.1466.9451,2.0903,1.0451,2.034,1.1391,1.9775,1.2328,1.9214,1.3206,1.8525,1.4018,1.7836,1.4895,1.7148,1.5646,1.646,1.646,1.5645,1.7147,1.4895,1.7837,1.4019,1.8525,1.3206,1.9213,1.2329,1.9776,1.1391,2.034,1.0451,2.0903.945,2.1466.8512,2.1904.7447,2.2405.6383,2.2843.5257,2.3219.4193,2.3594.3004,2.397.1816,2.422.0625,2.422-.0625,2.3969-.1816,2.3594-.3004,2.3219-.4193,2.2843-.5257,2.2405-.6383,2.1904-.7447,2.1466-.8512,2.0903-.945,2.034-1.0451,1.9776-1.1391,1.9213-1.2329,1.8525-1.3206,1.7837-1.4019,1.7148-1.4895,1.6459-1.5645,1.5646-1.646,1.4895-1.7148,1.4019-1.7836,1.3206-1.8525,1.2266-1.9214,1.1453-1.9775,1.0452-2.034.945-2.0903.8511-2.1466.7447-2.1905.6384-2.2405.5258-2.2843.4193-2.3218.3004-2.3595.1815-2.3969.0625-2.422-.0625-2.422-.1815-2.3969-.3004-2.3595-.4193-2.3218-.5258-2.2843-.6384-2.2405-.7447-2.1904-.8511-2.1466-.945-2.0903-1.0452-2.034-1.1453-1.9776-1.2266-1.9214-1.3206-1.8525-1.4019-1.7836-1.4895-1.7148-1.5646-1.646-1.6459-1.5645-1.7148-1.4895-1.7837-1.4019-1.8525-1.3206-1.9213-1.2266-1.9776-1.1453-2.034-1.0452-2.0903-.9449-2.1466-.8511-2.1904-.7448-2.2405-.6383-2.2843-.5257-2.3219-.4193-2.3594-.3004-2.3969-.1815-2.422-.0625Z" fill="#952324" fill-rule="evenodd" stroke-width="0"/><path d="M9.35,65.9257l1.671,3.5235,1.8463,3.2795,2.0214,3.0352,2.1716,2.7913,2.3219,2.5472,2.4471,2.3093,2.5722,2.0778,2.6723,1.84,2.7662,1.6084,2.8538,1.3769,2.9164,1.1452,2.979.92,3.0166.6947,3.054.4694,3.0666.2504,3.0791.0313,3.0729-.194,3.0541-.4006,3.0228-.6196,2.979-.8323,2.9227-1.0389,2.8601-1.2516,2.7724-1.4583,2.6848-1.6585,2.5785-1.865,2.4595-2.0652,2.3282-2.2656,2.1904-2.4658,2.034-2.6536,1.865-2.8538,1.6835-3.0415,1.4957-3.2356H9.35ZM11.1524,67.0523h77.8542l-1.4269,2.9727-1.6146,2.7975-1.7836,2.6222-1.9401,2.4408-2.0903,2.2655-2.228,2.084-2.3532,1.8963-2.4658,1.7147-2.5597,1.5271-2.6536,1.3393-2.7349,1.1515-2.7912.9576-2.8475.7635-2.8913.5695-2.9164.3756-2.9351.1689-2.9414-.025-2.9352-.2316-2.9164-.4318-2.8851-.6383-2.8413-.8449-2.7912-1.0514-2.7224-1.2704-2.6472-1.477-2.5597-1.6898-2.4532-1.9088-2.3407-2.1279-2.2154-2.3406-2.0778-2.5659-1.9276-2.7912-1.7711-3.0166-1.5959-3.2355Z" fill="#952324" fill-rule="evenodd" stroke-width="0"/><path d="M9.35,34.2083l1.671-3.5235,1.8463-3.2794,2.0214-3.0352,2.1716-2.7913,2.3219-2.5471,2.4471-2.3094,2.5722-2.0778,2.6723-1.84,2.7662-1.6084,2.8538-1.3769,2.9164-1.1452,2.979-.92,3.0166-.6947,3.054-.4694,3.0666-.2503,3.0791-.0313,3.0729.1941,3.0541.4005,3.0228.6196,2.979.8323,2.9227,1.0389,2.8601,1.2516,2.7724,1.4583,2.6848,1.6585,2.5785,1.865,2.4595,2.0653,2.3282,2.2655,2.1904,2.4658,2.034,2.6536,1.865,2.8538,1.6835,3.0416,1.4957,3.2356H9.35ZM11.1524,33.0818h77.8542l-1.4269-2.9727-1.6146-2.7976-1.7836-2.6222-1.9401-2.4408-2.0903-2.2655-2.228-2.084-2.3532-1.8963-2.4658-1.7147-2.5597-1.5271-2.6536-1.3393-2.7349-1.1516-2.7912-.9575-2.8475-.7636-2.8913-.5695-2.9164-.3756-2.9351-.1689-2.9414.025-2.9352.2316-2.9164.4318-2.8851.6383-2.8413.8449-2.7912,1.0514-2.7224,1.2704-2.6472,1.477-2.5597,1.6898-2.4532,1.9088-2.3407,2.1279-2.2154,2.3406-2.0778,2.566-1.9276,2.7912-1.7711,3.0166-1.5959,3.2356Z" fill="#952324" fill-rule="evenodd" stroke-width="0"/><polygon points="11.6781 36.2548 43.1577 36.2548 36.6678 55.0425 44.3405 55.0425 41.299 63.8417 8.236 63.8417 14.1064 46.5812 7.9043 46.5812 11.6781 36.2548" fill="#952324" fill-rule="evenodd" stroke-width="0"/><polygon points="52.7768 36.2235 64.624 36.2235 55.155 63.9293 43.3078 63.9293 52.7768 36.2235" fill="#952324" fill-rule="evenodd" stroke-width="0"/><polygon points="66.6329 36.2047 75.2382 36.2047 72.9851 42.8323 64.4237 42.8323 66.6329 36.2047" fill="#952324" fill-rule="evenodd" stroke-width="0"/><polygon points="76.9341 36.2047 81.872 36.2047 79.6128 42.7885 74.7687 42.7885 76.9341 36.2047" fill="#952324" fill-rule="evenodd" stroke-width="0"/><polygon points="84.2252 36.2486 87.467 36.2486 85.2577 42.7885 81.9659 42.7885 84.2252 36.2486" fill="#952324" fill-rule="evenodd" stroke-width="0"/><polygon points="90.2145 36.2924 90.7839 36.2924 92.0169 42.7761 88.0678 42.7761 90.2145 36.2924" fill="#952324" fill-rule="evenodd" stroke-width="0"/><polygon points="59.4607 58.3718 62.6213 49.3473 72.666 49.3473 71.3078 53.3527 75.8828 53.3527 77.3472 49.3473 86.4281 49.3473 85.0763 53.24 92.4675 53.24 92.4675 58.4282 81.2399 58.4282 82.8733 53.5217 78.4737 53.5217 76.5587 58.4846 66.9645 58.4846 68.6606 53.4653 64.8242 53.4653 63.0719 58.3718 59.4607 58.3718" fill="#952324" fill-rule="evenodd" stroke-width="0"/><polygon points="35.7917 17.2044 30.6096 30.4908 41.0737 30.4908 36.455 19.157 46.5623 19.157 42.9699 30.5409 49.5851 30.5409 49.5851 9.9759 46.8188 18.5937 36.3548 18.5937 35.7917 17.2044" fill="#952324" fill-rule="evenodd" stroke-width="0"/><polygon points="64.3673 17.2044 69.5493 30.4908 59.0853 30.4908 63.7039 19.157 53.5967 19.157 57.189 30.5409 50.5739 30.5409 50.5739 9.9759 53.3401 18.5937 63.8041 18.5937 64.3673 17.2044" fill="#952324" fill-rule="evenodd" stroke-width="0"/><path d="M60.5498,68.1975l.0313-.0125h.0813l.0439.0063.05.0062.0438.0125.0375.0188.0313.0188.0188.0188.0125.0313.0125.0312.0125.0375.0125.0814.0062.1001v.0938l-.0062.0939-.0125.0813-.0125.0564-.0876.2253-.0813.2316-.0877.244-.0813.2504-.0376.1251-.0375.1251-.0312.1252-.0251.1189-.0188.1252-.0187.1189-.0063.1189-.0062.1189h.0188l.05.0062h.0813l.0376-.0125.0689-.0188.0625-.0125h.025l.0313.0062.025.0188.0313.0251.025.0375.0313.0501.0313.0688.0313.0876.0188.0689.0125.0751v.0375l-.0063.0375-.0062.0313-.0125.0375-.0125.0313-.0251.0375-.025.0313-.0314.0251-.0625.05-.0688.0501-.169.0876-.1439.0688-.0689.0314-.0563.0313-.0564.0313-.0438.0375-.0439.0438-.0375.0501-.025.0625-.025.0688-.0188.0876-.0125.1064-.0062.1189v.1378l.0062.0125.0063.0188.0125.0063.0125.0062.0814-.0125.1001-.0188.1002-.025.0813-.0125.1189-.0125.1251-.0188.1252-.0125.1314-.0125.1315-.0125.1251-.0062h.1252l.1188.0062.0251.0063.0313.0125.0251.0125.025.0125.05.0438.0501.0563.0438.0626.0376.0688.0312.0751.0251.0814.025.0813.0063.0814.0063.0751-.0063.0751-.0125.0375-.0063.0313-.0125.0313-.0188.0313-.0188.0251-.0188.025-.0251.0188-.0313.0188-.0313.0125-.0188.0063h-.0439l-.0125.0125-.0188.0188-.025.0375-.0125.0188-.025.0125-.0313.0125-.0375.0063-.0876.0125-.1001.0063-.194.0062-.1252.0125-.0751.0188-.0876.0312-.0939.0375-.1001.0438-.2065.1064-.2191.1189-.1064.0625-.1001.0689-.1001.0689-.0876.0625-.0814.0626-.0751.0688-.0563.0564-.0438.0563-.1189.1189-.169.1565-.0438.0438-.0375.0375-.0313.0438-.0251.0375-.0188.0375-.0062.0313v.0313l.0062.0188.0063.0125.0188.0125.0188.0125.0188.0125.0312.0063.0625.0188.0814.0125.0876.0125.1001.0063h.2065l.2128-.0063.1877-.0188.1502-.0188.0877-.0188h.05l.0626.0125h.0564l.0125-.0063.0063-.0062.0062-.0062v-.0125l.0062-.0625-.0062-.0688-.0062-.0626-.0188-.0563-.0376-.119-.0438-.1127-.0188-.0563-.0189-.0564-.0125-.0562-.0125-.0627-.0062-.0625.0062-.0626.0125-.0688.0188-.0751.0125-.0313.025-.025.0313-.0251.0313-.025.0689-.0375.0688-.0314.0438-.0125.0438-.0125h.1001l.1064.0125.1127.025.1064.0314.0939.0375.0814.0312.05.0251.1314.0626.1314.0689.0626.0375.0564.0501.0501.05.0438.0626.0438.0876.0313.0939.0312.1001.0251.0939.0125.1002.0063.1001v.1001l-.0063.1001-.0125.1001-.0188.0939-.0251.0876-.0312.0877-.0313.0814-.0438.0751-.0501.0688-.0501.0626-.025.0125h-.025l-.0313-.0062-.0375-.0062-.0375-.0125-.0313-.0062-.0251-.0063h-.0188l-.0438.0313-.0438.025-.0376-.0062-.0438-.0188-.0375.0125-.0438.0125-.0188.0125h-.0188l-.0188.0062-.0188-.0062-.0501-.0375-.05-.0375-.0251-.0125-.025-.0062h-.025l-.0125.0062-.0125.0125-.1001.0813-.1001.0689-.1126.0688-.1064.0564-.1189.0501-.1127.0438-.119.0439-.1126.0376-.1377.0375-.1565.0438-.169.0438-.1815.0376-.0876.0188-.0876.0125-.0814.0063-.0813.0062h-.0814l-.0689-.0062-.0626-.0125-.0563-.0125-.1252-.0501-.1314-.0625-.1377-.0625-.1439-.0751-.0626-.0439-.0626-.0375-.0626-.0438-.0563-.0439-.05-.0438-.0438-.0438-.0375-.05-.0313-.0439-.0438-.1001-.0375-.0938-.0188-.1001-.0125-.094v-.0939l.0062-.0876.0188-.0939.025-.0876.025-.0877.0314-.0813.0375-.0814.0438-.0813.0814-.1503.0876-.1377.0563-.075.0939-.1001.0939-.0939.0625-.0563.0062-.0062-.0062-.0125-.0062-.0125h-.0125l-.05.0188-.0564.0063-.0564.0062-.0625.0062h-.0564l-.0625.0063-.0626.0062-.0689.0188-.1064.025-.1127.0188-.1251.0188-.1315.0062h-.0563l-.0626-.0062-.0563-.0062-.05-.0188-.0438-.0188-.0439-.025-.0375-.0313-.0313-.0376-.0438-.0813-.025-.0814-.0188-.0688v-.0626l.0062-.0563.025-.0563.025-.0501.0375-.0438.0439-.0438.05-.0375.0563-.0376.0564-.0375.1251-.0688.1252-.0627.1565-.0813.194-.1127.2128-.1314.2191-.1439.1064-.0751.1001-.0751.1001-.0813.0876-.0751.0751-.0751.0689-.0751.0501-.0688.0375-.0689-.0063-.0125-.0125-.0062-.1377.0313-.1565.0438-.1815.05-.1877.0439-.094.025-.0876.0188-.0939.0125-.0813.0063-.0814.0062-.0751-.0062-.0688-.0125-.0626-.0188-.0563-.025-.0438-.0313-.0313-.0375-.025-.0375-.0125-.0439-.0062-.05.0062-.0563.0125-.0688.0125-.0563.0189-.0564.025-.0563.0313-.0563.0376-.0564.0375-.0562.0438-.0563.0438-.0501.0438-.05.0501-.0438.0563-.0439.05-.0375.0501-.0312.0563-.025.0563-.0188.0501-.0125v-.0313l.1189-.0063.1565-.0125.1689-.0188.1752-.0251.169-.0312.144-.0376.0626-.025.05-.025.0313-.0251.025-.0312.0689-.1628.0688-.1751.0689-.1878.0688-.1941.1314-.4067.1378-.4068.0813-.2003.0814-.1939.0876-.1879.0939-.1752.05-.0814.0563-.0813.0563-.075.0564-.0689.0626-.0689.0625-.0563.0626-.0563.0689-.0564h0ZM80.1322,68.9485l.05.0313.0626.0438.0626.0501.0625.0625.0313.0376.0251.0375.0188.0438.0125.0375.0063.0501v.05l-.0063.0501-.0188.0564-.05.1126-.0501.0939-.0563.0877-.0626.0813-.0751.0689-.0814.0625-.0876.0563-.1064.0438-.0439.0188-.05.0062h-.0438l-.0501-.0062h-.0939l-.05.0062-.0501.0125-.0625.0188-.0563.0125-.0626.0125h-.0501l-.0501-.0062-.0438-.0188-.0188-.0125-.0188-.0125-.0188-.0188-.0125-.0188-.0313-.0626-.0438-.0689-.0438-.0814-.0375-.0813-.0125-.0501-.0125-.0438-.0063-.0501-.0062-.0438.0062-.0501.0063-.0438.0187-.0501.0251-.05.0188-.0188.0188-.0188.0312-.0188.0314-.0125.0312-.0125.0251-.0125.0312-.0188.0188-.0188v-.0125l-.0062-.0063-.0876.0063-.1064.0187-.1251.0313-.1252.0375-.1251.0438-.1064.0501-.0438.025-.0376.0312-.0251.0251-.0187.025-.0814.169-.0814.1752-.0438.0814-.0564.0751-.0312.0313-.0313.0312-.0375.0251-.0376.0187-.0563.0188-.0689.0125-.0814.0063-.0813.0063-.0876-.0063-.0814-.0063-.075-.0125-.0626-.0188-.0439-.0187-.0438-.0251-.0438-.025-.0439-.025-.0751-.0626-.0751-.0626-.0688-.0688-.0751-.0688-.0689-.0627-.075-.0563-.0375-.0188-.0375-.0062-.0375-.0063h-.0376l-.0438.0063-.0439.0125-.0438.0188-.0438.0188-.0814.0439-.0688.0501-.0625.05-.0375.0375-.025.0314-.0125.025-.0062.0312-.0063.0251-.0125.0563-.0125.0563-.0313.0814-.0312.0689-.0375.0688-.0314.0627-.0438.0563-.0438.0501-.0438.05-.0501.0375-.0563.0375-.0564.0375-.0689.0314-.0625.025-.0751.0188-.0813.025-.0814.0125-.0876.0125-.0125.0063v.025l.0125.0062h.1001l.1126-.0125.1314-.0125.1377-.0188.1377-.025.1377-.0251.1189-.025.1064-.025.1627-.0314.1753-.0188.0876-.0062.0813-.0125.0814-.0125.0688-.0188.0876-.025.0876-.0188.0876-.0188.0877-.0125.1752-.025.1752-.0188.1752-.0188.1752-.0125.169-.025.1628-.0313.1189-.0251.1439-.0188.1628-.0125.1752-.0125.1752-.0062.1689-.0063.1565.0063.1314.0062.1877.0125h.2128l.2315.0062.2316.0188.1127.0125.1126.025.1064.0251.1001.0312.0876.0375.0814.0501.0375.0313.0375.0312.025.0313.0313.0375.0188.0376.0188.0438.0188.05.0062.0501.0125.1063v.1127l-.0125.1127-.0188.1127-.0188.1001-.025.0814-.0689.244-.0751.2191-.025.0501-.025.0501-.0313.0438-.0312.0438-.0375.0375-.0439.0313-.0438.0313-.0563.025-.0689.025-.0938.0251-.1127.0188-.1189.0125h-.0625l-.0564-.0062-.0563-.0062-.0501-.0063-.0438-.0188-.0439-.025-.0312-.025-.0251-.0375-.025-.0501-.0313-.075-.0313-.0939-.0313-.1001-.0188-.1002-.0188-.1001v-.0876l.0063-.0313.0062-.0313.0313-.05.0438-.0501.05-.05.0626-.0501.1314-.0938.1001-.0751v-.0125l-.0125-.0125h-.1503l-.2253.0063-.2941.0062-.3442.0125-.3943.0188-.4193.025-.4507.0313-.4568.0375-.4569.0439-.4506.0562-.2191.0313-.2065.0313-.2065.0313-.1941.0375-.1815.0438-.169.0438-.1565.0439-.144.0438-.1251.0501-.1126.0564-.0876.0563-.0689.0626-.05.0563-.0438.0625-.0251.0626-.0187.0689-.0063.0626-.0063.0688v.0627l.0063.0688.0188.1314.0188.119.0062.0562v.0563l-.0062.0501-.0125.0438-.0125.0313-.025.025-.0251.0313-.0375.0313-.0813.0625-.0939.0564-.0501.025-.05.0188-.0563.0188-.0438.0125-.0501.0062h-.0438l-.0375-.0062-.0376-.0125-.0375-.025-.0375-.0375-.0375-.0438-.025-.0501-.025-.0563-.0251-.0626-.0188-.0625-.0188-.0688-.025-.1377-.0188-.1377-.0063-.1189-.0062-.1064.0062-.1501.0125-.1314.0313-.1251.0312-.119.0439-.1001.0564-.0939.0563-.0876.0688-.0751.0751-.0688.0814-.0689.0876-.0563.0938-.0563.1002-.0438.1063-.0501.1064-.0438.1127-.0376.0625-.0188.0626-.0125.0688-.0125.0689-.0125.0751-.0062.0689-.0125.0626-.0125.0625-.0188v-.0188l-.0062-.0125v-.0063l-.0939-.0063-.0814-.0125-.0813-.0125-.0751-.0125-.075-.025-.0689-.0188-.0625-.0312-.0626-.0251-.0625-.0376-.0564-.0375-.0501-.0375-.0563-.0439-.0438-.05-.0501-.0563-.0438-.0564-.0375-.0626-.025-.0375-.0188-.0375-.0125-.0376-.0125-.0438-.0188-.0876-.0062-.0876v-.0938l.0125-.0876.0188-.0939.0312-.0876.0314-.0876.0375-.0814.0438-.0751.0438-.0689.0501-.0626.0501-.0563.0501-.0375.05-.0313.0438-.0188.0501-.0188.0564-.0125.0625-.0125.1314-.0125h.144l.144.0062.1314.0125.1189.025.0876.0313.1127.0438.1565.0626.0876.0251.0876.0125.0438.0063.0376-.0063h.0375l.0375-.0125.1001-.0375.1126-.0438.1251-.0501.1314-.0375.0751-.0188.0689-.0188.0751-.0125.0688-.0062.0751-.0063h.0751l.0813.0063.0751.0188.1064.0313.1189.0438.1127.0501.1126.05.0313.0062h.1064l.0563-.0125.144-.0251.1439-.0438.1565-.0438.144-.0375.1251-.0313.1001-.0125.1628-.0188.2002-.025.219-.0375.2254-.0313.1127-.0125.1063-.0063.1064-.0062h.1001l.0939.0125.0876.0125.0752.0188.0626.0313h0ZM69.1925,69.249l.0125.0563.0062.0564-.0062.0562v.0501l-.0251.0876-.0312.0877-.0062.025v.0251l.0062.0188.0062.0125.0188.0313.0188.0188.0062.025v.0313l-.0125.0313-.0125.0312-.0375.0626-.0438.0689-.1126.1314-.075.1001-.0689.1377-.0814.1252-.0876.1314-.0877.1314-.0814.1314-.0813.1439-.0688.144-.0689.1565-.0188.05-.025.0501-.0313.0563-.0313.0563v.025l.0125.0062.0314-.0062.0375-.0126.0375-.025.0438-.0188.0438-.0313.0501-.0187.0438-.0188.0438-.0125.0625-.0125.0689-.0125.0751-.0251.0751-.0188.1377-.0562.1189-.0376.0689-.0313.0626-.0375.05-.025.0376-.0188.2065-.0188.1752-.0251.0814-.0125.0751-.0188.0751-.0251.0688-.0312.0439-.0188.05-.0063h.0501l.0563.0063.0627.0125.0563.0188.0625.0188.0563.0251.1064.0501.0876.0563.0375.025.0314.025.0188.025.0062.0188.0062.0563v.0689l-.0062.075-.0125.0689-.0313.1314-.0188.0876-.0313.0501-.05.0814-.0564.0876-.0438.0688-.0313.0563-.05.0563-.0564.0501-.0625.0438-.0689.0438-.0814.0438-.0876.0375-.0876.0375-.2003.0689-.2065.0689-.2191.0563-.2254.0564-.219.05-.2128.0501-.194.0563-.1815.0563-.0751.025-.0751.0314-.0626.0313-.0563.0312-.0439.0313-.0375.0375-.025.0313-.0125.0439-.0188.0563-.025.0814-.0438.1001-.0438.1127-.0501.1064-.05.0939-.0438.0813-.0375.0563-.0501.0751-.0814.119-.0939.1439-.1002.1565-.1001.1565-.0814.1377-.0625.1064-.025.0564-.0313.0625-.0375.0688-.0563.0751-.0689.0877-.1565.1815-.1815.1878-.1877.1752-.1753.1627-.1502.1251-.1064.0752-.2253.1439-.2065.1377-.2065.1502-.2316.1627-.0751.0438-.075.0375-.0814.0313-.0813.0251-.0814.0313-.0814.0313-.0689.0313-.0626.0438-.0251.025-.025.0313-.0062.0188-.0125.0125-.0125.0125-.0188.0062-.0813.0188-.0877.0063h-.0438l-.0375-.0063-.0125-.0062-.0125-.0062-.0125-.0125-.0063-.0125-.0125-.05-.0062-.0563v-.1189l.0125-.0564.0125-.0563.0125-.05.0188-.0375.0188-.0438.0375-.0501.0375-.05.05-.0563.1064-.1127.1189-.1251.119-.1252.1064-.1252.0501-.0563.0375-.0626.0313-.0563.025-.0501.025-.05.025-.0564.0313-.0501.0313-.05.0876-.1064.1001-.1002.1126-.1063.1189-.1064.1314-.1127.1314-.1064.1314-.1126.1377-.1128.1252-.1126.119-.1126.1126-.1189.0939-.1127.0438-.0625.0375-.0564.0375-.0625.025-.0627.0313-.0625.0375-.0625.0438-.0626.0501-.0626.0939-.1251.0939-.1127-.0251.0063-.0876.0375-.144.0564-.169.0562-.1001.0251-.0938.0188-.1001.0125-.1002.0063h-.1001l-.0939-.0188-.0438-.0125-.0438-.0125-.0439-.0188-.0375-.025-.0562-.0438-.0439-.0564-.0438-.0563-.0312-.0625.025-.0251.0062-.0313-.0188-.0125h-.05l-.0125-.0062-.0126-.0125v-.0188l-.0125-.0814-.0063-.1126-.0062-.1251.0062-.1314v-.0688l.0063-.0626.0125-.0563.0126-.0564.0188-.0501.0188-.0438.025-.0375.0313-.025.1439-.1126.1189-.0938.0625-.0439.0751-.0375.0501-.0188.05-.0188.0626-.0125.0689-.0125.0626-.0062h.0688l.0689.0062.0625.0063.0688.0062.0625.0062h.0689l.0626-.0062.144-.0313.169-.0438.1752-.0376.1815-.0313.025-.0125.025-.0188.0189-.0313.0125-.025.0439-.1002.05-.1314.0501-.1565.05-.1752.1189-.388.1252-.4193.0751-.2003.075-.2002.0751-.1877.0814-.169.0438-.0751.0439-.0751.0438-.0626.0438-.0625.05-.0501.0501-.0438.0438-.0313.0501-.025.0625-.0188.0939-.0125.1189-.0062h.2566l.1064.0125.05.0125.0375.0125.025.0188.0125.0188h0ZM35.3723,73.2042l.1064-.0625.0939-.0689.0813-.0751.0751-.0876.0689-.0876.0626-.0939.0625-.1001.0501-.1127.1001-.2065.1064-.219.1064-.2128.1064-.2065v-.0313l-.0062-.0313.0062-.0438.0251-.0625.0313-.0688.0376-.0813.0876-.1377.0688-.094.0313-.025.0313-.025.0688-.1377.0625-.1314.0689-.1314.075-.1376.0376-.05.05-.0439.0501-.05.0375-.0439.0438-.0688.0439-.0689.0438-.0688.05-.0626.0564-.0688.0625-.0563.0626-.0626.0626-.0501.0688-.05.0751-.0439.0814-.0375.0814-.025.0876-.0188.0877-.0125h.0938l.1002.0125h.025l.0188.0125.0188.0125.0188.0125.0375.0375.025.0501.0313.05.0188.0501.0188.0564.0125.05.0063.0877-.0063.0876v.0626l-.0062.0563-.0125.0438-.0125.0439-.0188.0314-.0188.025-.0251.025-.025.0188-.0501.0313-.05.0313-.025.0188-.0251.025-.025.025-.025.0375-.0564.0876-.0688.1127-.0313.0563-.0188.05-.0062.0251v.0438l.0062.0125.0188.025.0188.025.025.0188.025.0251.0626.0376.0626.0375.0625.0375.0564.0375.025.0188.025.025.0188.025.0188.0251.0376.0688.0251.0751.0125.0751v.1439l-.0188.0689-.0188.0688-.025.0689-.0313.0625-.0375.0564-.0375.0625-.0438.0501-.0438.05-.0438.0439-.0438.0375-.0501.0313-.0375.025-.0438.025-.0501.0188-.05.0125-.1127.0313-.119.0188-.1189.0125-.1126.0063h-.1127l-.0876-.0063-.0627-.0062-.05.0062-.0564.0188-.0501.0251-.0439.0313-.0438.0375-.0376.0438-.0375.0501-.0312.0562-.025.0626-.0251.0688-.0188.0688-.0188.0751-.0062.0751-.0062.0814-.0063.0814.0063.0814.0125.0876.0125.0814.0188.0876.025.0813.0375.0814.0375.0813.0438.0752.0501.0751.0563.0751.0626.0625.0751.0625.0751.0626.0876.0501.0938.0438.1001.0438.0501.0125.0563.0188.0626.0125.0625.0063.144.0125h.1502l.1565-.0125.1627-.0125.169-.0313.1628-.0312.1627-.0438.1627-.0501.144-.0563.1377-.0688.0689-.0313.0563-.0375.0563-.0375.0564-.0438.0438-.0375.0438-.0438.0313-.0439.0314-.05.0312-.0563.025-.0626.0188-.0689.0188-.0688.0314-.144.0313-.1439.0188-.0626.025-.0688.0251-.0564.0312-.0563.0313-.0501.0438-.0376.0501-.0312.0626-.025.0751-.0125.0688-.0062h.0689l.0688.0125.0626.0188.0626.0313.0626.0313.0563.0439.0501.05.05.0501.0439.0564.0438.0625.0375.0689.0376.0689.0312.0688.0313.0751.025.0751.0188.075.0188.0751.0125.0751.0063.0751v.1377l-.0063.0689-.0062.0625-.0188.0626-.0188.0563-.025.0501-.0313.0438-.0312.0438-.0438.0313-.0439.025-.0688.0313-.0876.0563-.1064.0626-.1126.0751-.219.1439-.1628.1126-.1126.0689-.1064.0625-.1002.05-.0938.0438-.0876.0375-.0939.0376-.0813.0251-.0876.025-.1752.0375-.1878.0438-.2003.0501-.2315.0689-.0814.025-.0876.0188-.0814.0125-.0813.0062-.1751.0125h-.169l-.1753-.0125-.1689-.0062-.1752-.0125h-.1627l-.1565-.0062-.1377-.0125-.1314-.025-.1126-.025-.1064-.0375-.0938-.0439-.0814-.0501-.0751-.05-.0625-.0627-.0564-.0625-.0501-.0688-.0438-.0751-.0375-.0751-.0313-.0813-.0251-.0814-.0188-.0813-.0312-.1691-.025-.1689-.0125-.169-.0188-.1627-.0125-.0813-.0125-.0751-.0125-.0689-.0188-.0689-.0188-.0626-.025-.0563-.0313-.05-.0376-.0501-.0188-.0125-.0188-.0125h-.0188l-.0188.0062-.0375.0188-.0313.0313-.0376.0438-.0375.0375-.0313.0375-.0375.025-.1064.0626-.1815.0939-.2317.1252-.2503.1377-.2378.144-.2065.1314-.0814.0625-.0563.0501-.025.025-.0188.0188-.0062.0188-.0063.0188-.0125.1064-.0063.0939v.244l-.0062.0814-.0188.0813-.0188.0877-.0188.0313-.0312.05-.0439.0564-.0562.0564-.0501.0438-.05.0312-.0251.0125h-.0188l-.0125-.0125-.0125-.0188-.0438-.0876-.0564-.1314-.0688-.1314-.0564-.1001-.0125-.0063h-.0375l-.0188.0063-.0938.0814-.1502.1439-.1439.1315-.0626.0625-.0375.0438-.0438.0626-.0501.0689-.0563.0814-.1126.1815-.1189.1878-.0563.0939-.0626.0876-.0563.0814-.0625.0689-.0564.0626-.0563.0501-.025.0188-.025.0125-.0314.0125-.0188.0062h-.0688l-.0689-.0062-.0688-.0188-.0689-.025-.0625-.0375-.0563-.0439-.0564-.0438-.05-.0563-.0375-.0626-.0376-.0625-.0251-.0688-.0188-.0689-.0062-.0751.0062-.0751.0125-.0751.0313-.0751.0438-.1001.0563-.1127.0563-.1126.05-.0939.0626-.0939.0688-.0877.0689-.0876.0814-.0877.1627-.1689.169-.169.0813-.0939.0751-.0939.0751-.1001.0626-.1064.0563-.1126.05-.1252.0188-.0688.0188-.0689.0125-.0689.0125-.0751v-.025l-.0125-.025-.0125-.0314-.0188-.025-.025-.0188-.025-.025-.0313-.0125-.025-.0125-.0563-.0187-.0626-.0314-.0625-.0375-.0689-.0438-.0688-.0564-.0626-.0563-.0626-.0688-.0563-.0627-.0438-.0751-.0375-.0689-.0313-.0688-.0125-.0751v-.0625l.0062-.0375.0125-.0313.0125-.0313.0188-.025.025-.0313.0314-.025.1753-.1252.1689-.1189.0876-.0501.0938-.0438.1001-.0438.1064-.0375.0313-.0063h.0751l.0375.0063.0814.0125.0876.0188.0814.0125h.1064l.025-.0125.025-.0125.0188-.0251.0251-.05.025-.0501.0188-.0625.0125-.0563.0188-.1251.0063-.1314.0125-.1252.0063-.1251.0062-.0563.0062-.0563.0125-.0564.0188-.0438.0439-.1126.0438-.1002.0438-.1064.0439-.1064.0375-.0876.0563-.1126.0625-.1127.0564-.0814.0439-.0625.05-.0751.0501-.0689.0312-.0375.025-.0125.0313-.0062.025-.0062h.0627l.0375.0062.0312.0062.0376.0188.0313.0188.0375.025.025.0313.0313.0376.0188.0375.0188.0439.0188.0438.0125.0438.0188.0939.0063.1001v.0438l-.0063.0438-.0062.0375-.0125.0375-.0125.0689-.0188.0688-.0313.0689-.0375.0751-.0876.1502-.1002.1627-.1001.1565-.0813.1502-.0313.0751-.025.0751-.0188.0689-.0062.0626-.0063.1001-.0062.1064-.0125.1064-.0125.1128-.0313.2315-.0313.2378-.0125.1126-.0125.1126-.0062.1128v.1126l.0062.1064.0063.1001.025.0938.025.0876.0125.0375v.0814l-.0062.0439-.0063.0438v.0689l.0125.025h.0125l.0125-.0125.0188-.0312.0313-.0375.0438-.0314.05-.0375.119-.0813.1314-.0814.2628-.1439.194-.1001.0688-.0438.0752-.0439.0751-.05.0688-.0501.1502-.1063.1502-.0877h0ZM28.4943,69.7245l.0877.0063.0876.0125.0877.0188.0876.0188.1752.0626.1752.0688.1815.0751.1815.0689.0877.025.0938.025.0876.025.0939.0125.0563.0125.0625.0312.0314.0188.025.0188.0251.0188.0125.025.0188.025.0063.0313v.0313l-.0063.025-.0125.0313-.0125.0188-.0188.0188-.0125.0062-.0689.0188-.0751.0188-.0312.0063-.0314.0125-.0188.0125-.0125.0188-.0062.0625-.0062.0689v.1314l-.0062.0689-.0063.0625-.0062.0313-.0125.0313-.0125.025-.0188.0251-.0188.0125-.0314.0063h-.05l-.0563-.0063-.1439-.0125-.1565-.0251-.3004-.05-.1565-.0313-.1127-.0312-.1001-.0125-.0876-.0125-.0814-.0062-.1502-.0125-.1689-.025-.1001-.0188-.1002-.0062-.1001-.0062-.1064.0062-.2128.0188-.2252.025-.1127.0125-.1127.0062h-.244l-.1189-.0062-.1252-.0188-.1314-.0251-.1252-.0375-.1689-.0439-.1439-.0375-.1252-.0125-.1189-.0062-.1064.0062-.1001.0188-.1064.0188-.1189.0312-.1252.0313-.1502.0313-.169.0313-.2002.0313-.2378.025-.2691.0188-.3191.0062h-.3693l-.2127-.0062-.2065.0062-.2003.0188-.194.025-.0938.0188-.1001.0251-.0939.025-.0939.0313-.1002.0375-.1001.0376-.0939.0438-.1064.0501-.1251.0751-.144.0938-.1565.1001-.1565.1127-.3442.2379-.3567.2378-.1815.1064-.1752.0939-.0876.0438-.0877.0375-.0876.0313-.0876.025-.0813.025-.0814.0188-.0813.0063-.0751.0063-.0814-.0063-.0689-.0125-.0689-.0188-.0689-.025-.075-.0751-.0626-.0751-.0501-.0751-.0438-.075-.0313-.0751-.025-.0751-.0188-.0751-.0062-.0751v-.0751l.0062-.0751.0125-.0689.025-.075.025-.0751.0375-.0689.0375-.0688.0501-.0688.05-.0689.0563-.0689.0564-.0625.0689-.0626.0688-.0626.0689-.0625.0751-.0564.0814-.0625.1627-.1064.1752-.1001.1753-.0939.1815-.0814.1877-.0751.1878-.0688.1878-.0627.1878-.05.1815-.0501.1752-.0438.1815-.0312.1751-.0313.169-.025.169-.0188.169-.0188.1627-.0125.3254-.0188.3068-.0125.3441-.0063h.2692l.2127.0063.1752.0062h.3004l.1627-.0125.1878-.025.2066-.025.2002-.0251.1815-.0188.1815-.0188.3567-.0188.3692-.0062h.8887l.5695.0062h.6884ZM46.5185,69.7559h.1001l.1001.0063.0876.0125.0877.0125.0751.0188.0689.025.0625.0313.05.0375.0375.0438.0375.05.0063.0251.0125.0312.0062.0314v.0938l-.0187.0751-.0251.0813-.0438.0877-.0125.0188-.0188.0188-.025.0188-.025.0188-.0625.0313-.0814.0376-.1878.0688-.2127.0689-.219.0688-.2066.0626-.0938.0313-.0814.0313-.0688.025-.0563.0312-.0125.0125-.0125.0314-.0125.0438-.0125.0563-.0188.1314-.0188.1502-.0188.1501-.0063.1377v.0939l.0063.0375.0062.0125.0125.0062.0062.0063h.0313l.0313-.0063.0375-.0188.0689-.0312.0563-.0188.1001-.0063h.0877l.0876.0063.0877.0188.075.0125.0689.0251.0625.025.0564.0313.05.0312.0501.0377.0376.0438.0312.0375.0251.05.0188.0438.0125.0501.0125.0438v.0501l-.0063.0562-.0187.0501-.0188.05-.0251.0439-.0312.05-.0438.0501-.0439.0439-.0562.0438-.0564.0438-.0689.0375-.0751.0375-.0813.0313-.0877.0313-.1001.025-.1001.0188h-.0438l-.0501-.0062-.0563-.0125-.05-.0125-.0438-.0063h-.0439l-.0125.0063-.0188.0125-.0062.0125-.0125.0125-.0125.075-.0125.0689-.0125.0751-.0063.0688v.144l.0063.1502.0062.1439.0188.1502.0125.1502.0125.1439.0062.0063.0188.0063.0188-.0125.0125-.0063.0125-.0313.0188-.025.025-.025.0313-.0188.0563-.0375.0563-.0314.0876-.0813.1627-.1628.1628-.1627.0814-.0876.0501-.0814.0626-.0752.0688-.0751.0689-.0688.0688-.0751.0625-.0688.0627-.0751.0438-.0814.0814-.144.0876-.1314.0877-.1377.0876-.1439.0313-.0501.0438-.0563.0438-.0563.0563-.0626.1127-.1251.1127-.1378.0501-.0688.05-.0626.0438-.0689.0313-.0625.025-.0626.0125-.0625v-.0626l-.0062-.0251-.0063-.025-.0188-.0563-.0188-.0564-.0062-.0563-.0062-.0563-.0063-.0626v-.0626l.0063-.0626.0062-.0625.0125-.0626.0188-.0625.0125-.0625.0251-.0627.025-.0563.025-.0563.025-.0564.0313-.0563.0375-.0438.0313-.0501.0375-.0438.0375-.0375.0438-.0313.0439-.0313.0438-.0188.0438-.0188.0439-.0125.0501-.0063h.0438l.05.0063.0501.0188.0438.0188.0501.0312.05.0438.025.0313.0125.0188-.0062.0188v.0688l-.0063.0375-.0062.0438-.0125.0439-.0062.0376v.0563l.0125.0125.0062.0125.0125.0063.0438.025.0438.0125.0438.0125.0501.0125.0939.0125.0939-.0063.1001-.0062.1064-.0188.1001-.0313.1001-.0312.1001-.0375.0939-.0439.0939-.0438.0876-.0439.1627-.0813.1314-.0688.0564-.0438.0563-.0564.025-.025.0313-.0251.0314-.0125.0312-.0125.0689-.0125.0689.0063h.0688l.0689.0062.0876.0062.0751.0125.0688.0188.0564.0313.0563.0313.0438.0438.0376.0439.025.05.0188.0564.0125.0563.0062.0626v.0626l-.0125.0625-.0188.0689-.025.0625-.0313.0626-.0125.025-.0125.0125-.0125.0125-.0125.0063-.025.0062-.0312.0125-.0439.0188-.05.0062-.0501.0062-.0563.0063-.0501.0062-.0501.0125-.0187.0125-.0188.0125-.0188.0125-.0125.0125-.05.0939-.0439.0876-.0376.1002-.0501.0939-.0125.0125-.0125.0062h-.0438l-.0126-.0062-.0125-.0063-.0062-.0125-.0062-.0939-.0125-.0752h-.0062l-.0125.0125-.0375.0564-.0438.0626-.0564.0563-.05.0563-.0501.0563-.0314.0626-.0125.0251v.0625l.0062.0375.025.0438.0375.0375.0439.0375.0438.0375.05.0377.0438.0375.0375.0312.0313.0375.0376.0564.0313.0688.0375.0626.025.0689.025.0625.0251.0688.0125.0689.0188.075.0062.0689.0062.0751v.0689l-.0062.0751-.0125.0751-.0125.0688-.0251.0751-.0313.0751-.05.1251-.0626.1189-.0626.119-.0688.1189-.0689.1189-.0688.1126-.0689.1126-.0751.119v.0062l.0063.0125.0062.0125.0062.0063.0439.025.05.0188.0501.0188.0562.0188.1127.025.0939.0313h.1502l.1126.0313.1127.0312.1126.025.1189.0251.2441.05.2441.0438.2378.0501.2316.0625.1127.0313.1001.0438.1001.0438.0939.0501.0375.0312.0375.0251.0312.0314.0251.0312.0188.0375.0125.0313.0063.0376.0062.0312v.0751l-.0062.0313-.0125.0376-.0314.0688-.0438.0689-.0563.0625-.0626.0626-.0689.0501-.075.0438-.0813.0375-.0814.0251-.0375.0062-.0439.0063-.0376.0063-.0375-.0063-.0313-.0314-.0375-.0312h-.0312l-.0314.0062-.0375.0125-.0312.0125-.0751.0501-.0689.0501-.0688.0563-.0625.0563-.0313.0188-.0312.0188-.0251.0188-.0313.0063h-.0313l-.0689-.0063-.0877-.0125-.1064-.0251-.2565-.05-.2879-.0689-.2941-.075-.2628-.0627-.2003-.0501-.1127-.0312-.0813-.0251-.0939-.0313-.1001-.0313-.0876-.0125h-.0564l-.0751.0125-.0877.0125-.1001.025-.1878.0438-.1376.0439-.194.0751-.2315.0689-.1189.0375-.1251.0313-.1314.025-.1314.0251-.1314.0187-.1314.0188-.1251.0125-.1251.0062h-.1252l-.1126-.0062-.1064-.0125-.1001-.025h-.1877l-.1189-.025-.1252-.025-.0563-.0188-.0501-.0188-.025-.0188-.0188-.0125-.0188-.0188-.0125-.0188-.0188-.0814-.0375-.1628-.0125-.0939-.0062-.0814v-.0563l.0062-.0188.0125-.0125.075-.025.0939-.0188.0501-.0063.0375-.0125.0314-.0125.0125-.0188.0125-.05.0188-.0563.0125-.0251.0188-.025.0188-.0188.025-.0062.0877-.0063h.1001l.1251.0063.1314.0188.3005.0375.3066.0438.1502.0125.1377.0125.1314.0063.1127-.0063.05-.0062.0438-.0062.0376-.0125.0313-.0188.025-.0188.0188-.025.0125-.0251v-.0313l-.0125-.0689-.0188-.0689-.0312-.0688-.0375-.0625-.0501-.0564-.05-.0563-.0564-.0563-.0563-.0564-.1251-.1064-.119-.1126-.0501-.0564-.05-.0626-.0439-.0625-.0313-.0688-.025-.0689-.0188-.0688-.0125-.0689-.0125-.0751-.0125-.0625-.0188-.0626-.0188-.0563-.0313-.0501-.0125.0062-.0125.0125-.0563.0814-.0688.1002-.0813.1064-.0939.1189-.2129.2565-.2315.2629-.2441.2566-.2316.2378-.1126.1064-.1001.0939-.0939.0751-.0813.0625-.1815.1314-.2003.1314-.2002.1378-.2128.1377-.2128.1314-.2128.1189-.1064.0563-.1064.0438-.1001.05-.1002.0375-.0438.0125h-.0939l-.05-.0062-.1064-.0251-.1001-.0313-.1001-.0439-.0814-.05-.0625-.0375-.0376-.0376v-.05l-.1126-.1127-.0939-.1001-.0438-.0439-.0439-.0563-.05-.0625-.0501-.0814-.0125-.0313v-.0375l-.0063-.0438.0063-.05v-.1002l-.0063-.0438-.0062-.0375-.0751-.1815-.0813-.1878-.0375-.0939-.0376-.0876-.0313-.0876-.0188-.0814-.0125-.0688-.0125-.0689-.0062-.0625v-.1378l.0062-.0688.0062-.0625.0188-.0689.0313-.1064.0564-.1314.0313-.0688.0375-.0626.0375-.0689.0438-.0626.05-.0625.0439-.0501.0563-.05.0563-.0375.0563-.025.0564-.0188.0313-.0063h.0312l.0313.0063.0313.0062.1064.0125.1002.0062.0438.0062.05.0188.0439.0251.05.0438.0125.025.0125.0188.0063.0188v.0188l-.0063.025-.025.0313-.0563.05-.0438.0626-.025.0689-.0125.0751-.0125.075-.0188.0563-.0125.0563-.0062.0751v.0813l.0125.1001.0125.1064.0188.1063.025.119.025.1126.0314.1189.0375.1064.0312.1064.0375.0939.0376.0814.0375.0688.0375.0501.0313.025.0187.0062h.0251l.025-.0062.0313-.0062.0625-.0375.0689-.0501.1251-.1001.0939-.0626.0626-.0313.0813-.0251.0939-.0188.1001-.0188.0876-.0188.0814-.0188.0375-.0125.0251-.0188.025-.0125.0125-.0125.0125-.0251.0063-.025v-.0188l-.0063-.025-.025-.0501-.0313-.0562-.0375-.0501-.0376-.0564-.0312-.05-.0188-.0439-.0125-.0564-.0062-.0625-.0063-.0564v-.0625l.0063-.1314.0062-.1314.0125-.1314.0125-.1314v-.1314l-.0062-.1189-.0313-.0689-.05-.0939-.0251-.05-.0125-.0501-.0063-.0312v-.0251l.0063-.0312.0125-.0314.0501-.1439.0313-.1064.0188-.1189.0312-.169.0188-.1064.0188-.1064.0188-.1251.0125-.1252.0188-.1314.0125-.1251.0062-.1251v-.1189h-.0188l-.0438-.0063-.0751.0063-.094.0188-.1064.0188-.1064.025-.1001.025-.0813.0251-.0564.025-.0876.0438-.1252.0688-.1501.0751-.1565.0813-.1627.0689-.144.0625-.0689.025-.0626.0125-.0501.0063-.0438.0063-.2691-.0189-.2002-.0062-.0438-.0125-.0375-.0125-.0375-.0188-.0313-.0188-.0314-.0313-.0312-.0375-.0251-.0501-.025-.0563-.0188-.0564-.0062-.0562v-.0563l.0062-.0564.0188-.0501.025-.0563.0313-.0501.0376-.0563.0501-.05.05-.0501.0501-.05.0626-.0439.1314-.0938.1377-.0877.1502-.0813.1565-.0751.1502-.0751.1502-.0626.2628-.1126.2066-.0877.0625-.025.0751-.025.0813-.025.0939-.0251.1877-.0375.2065-.0313.2066-.025.2002-.0251.1878-.0125.1628-.0125.1189-.0063.1189-.025.1126-.0251.1189-.0312.1127-.0313.119-.025.1127-.0188.1189-.0125h0ZM55.8246,70.2064l.0626.0125.0563.0188.0564.025.0563.0312.0501.0375.0439.0376.0438.0439.0375.0501.0375.05.0313.0564.0313.0625.025.0564.025.0625.0188.0626.0125.0688.0125.0625.0062.0689v.1314l-.0062.0625-.0125.0626-.0125.0626-.0188.0562-.025.0564-.025.0501-.0376.05-.0375.0439-.0375.0438-.05.0375-.0501.025-.0563.025-.0626.0251-.05.0063-.0439.0062-.05.0063h-.0438l-.0939-.0063-.0876-.025-.0876-.025-.0814-.0439-.0751-.0438-.0751-.0626-.0626-.0625-.0626-.0689-.05-.0813-.0438-.0814-.0376-.0876-.0251-.0877-.0188-.0939v-.2566l.0125-.0814.0188-.0813.0125-.0376.0188-.0375.0125-.0375.025-.0375.0251-.0313.025-.0251.0375-.0313.0313-.0188.0814-.0438.0751-.0313.0626-.025.0626-.0188.0688-.0063h.0689l.0814.0063.0938.0062h0ZM49.7165,71.1202l-.0313.0188-.0313.0189-.0312.0062h-.0313l-.0376.0062h-.0375l-.0438.0063-.0438.0188-.0563.0125-.1251.0251-.1752.0312-.2003.0376-.2003.0438-.1752.0375-.0688.0188-.0564.0188-.0376.0125-.0188.0125-.0438.0689-.0563.1001-.0626.1126-.0625.119-.0501.1189-.0438.1064-.0188.0438-.0125.0375v.0563l.0125.0376.0125.0375.0188.0375.0187.0313.0501.0751.05.0688.0563.0689.0501.0626.0438.0688.0375.0689.0251.0814.0188.0938.0188.0939.0375.0814.0438.0563.0939.0814.1314.1064.144.1064.1439.1001.1377.0751.0564.0312.05.0125.0188.0062h.0375l.0063-.0062.0626-.0563.05-.0564.0438-.0563.0375-.0562.025-.0627.0313-.0625.0188-.0626.0188-.0689.0313-.1252.0375-.1251.0188-.0625.0188-.0625.0251-.0626.0313-.0563.0125-.025.0125-.0314.0062-.0375v-.0313l-.0062-.0751-.0125-.0751-.025-.0688-.0375-.0689-.0375-.0563-.0439-.05-.0188-.0188-.0063-.0313-.0125-.0375v-.0375l-.0063-.0814v-.0562l.0063-.119.0187-.144.0251-.1439.025-.1189.0313-.0688.0438-.0689.025-.0375.0188-.0375.0125-.0375.0063-.0314-.0063-.0125h-.0313l-.0125.0125h0ZM24.2073,71.2955l-.0688.0125-.0688.0188-.0876.0439-.0876.05-.0876.0438-.0751.0375-.0939.0375-.0939.025-.05.0125-.0439.0188-.0438.0188-.0375.0312-.0688.0439-.0751.0375-.0751.0377-.0813.0375-.1628.0751-.1565.0751-.2628.1439-.2629.1439-.1252.0751-.1188.0814-.1189.0813-.1127.0877-.1064.0939-.1001.1001-.0939.1064-.0876.1126-.075.1252-.0689.1377-.0313.0689-.0313.0751-.025.0814-.0251.0751-.0125.1815-.0062.1753.0062.1628.0188.1501.0312.144.0313.1376.05.1314.0501.1252.0625.1252.0689.1126.0813.1126.0814.1127.0939.1064.1002.1128.1001.1063.1126.1064.0939.0939.0814.1001.0876.1001.0814.1002.0876.0939.0939.0939.05.0375.0501.0375.0562.0376.0626.0313.0626.025.0813.0125.0877.0125.1001.0063.1001-.0063.1127-.0062.1127-.0125.1126-.0125.2191-.0375.194-.0438.1627-.0439.1127-.0375.0814-.0251.1001-.0313.1128-.0251.1126-.025.2315-.0438.2003-.0251h.0251l.0188.0063.0188.0062.0125.0125.0188.0312.0125.0439.0125.0438.0062.0438.0125.0501.025.0375.025.0376.0251.0312.0312.025.0313.0251.0313.0188.0313.0187.0313.0125.0312.0062.0689.0125.0688.0062.0751-.0062.0688-.0125.144-.0375.144-.0501.1251-.05.1189-.0376.1001-.0251.1001-.0312.0939-.0313.094-.0312.0938-.0376.0876-.0439.0814-.0375.0876-.05.0814-.0439.0751-.0501.0814-.0562.0751-.0564.1439-.1189.1439-.1314.1377-.1377.1314-.1502.1252-.1565.1314-.169.1251-.1815.1314-.1815.1314-.2002.1314-.2065.0313-.0563.0313-.0625.025-.0627.0188-.0625.0313-.1314.0375-.1377.0125-.0689.0063-.0688v-.0688l-.0063-.0689-.0062-.1377-.0062-.1377-.0063-.0688-.0125-.0751-.0188-.0814-.025-.0813-.0313-.0814-.0314-.0814-.0438-.0814-.0439-.0814-.0438-.0751-.0501-.0689-.0563-.0688-.0563-.0563-.0563-.0501-.0563-.0438-.0626-.0312-.0563-.0251-.0751-.0125-.0751-.0125-.0689-.0063h-.0688l-.0626.0063-.0563.0062-.0626.0125-.0563.0188-.1064.0375-.1126.0438-.1064.0438-.1126.0375-.0564.0125-.1126.0125-.1502.0125-.169.0125-.169.0125h-.2003l-.05-.0062-.0313-.0125-.0188-.0125-.0312-.0625-.0375-.0627-.0438-.0625-.0438-.0626-.0501-.0563-.0563-.0562-.0564-.0501-.0563-.0439-.0626-.0375-.0689-.025-.0625-.025-.0689-.0063h-.0688l-.0751.0063-.0688.025-.0751.0375-.0375.0313-.0375.0312-.0313.0376-.0313.0375-.0626.0814-.0751.0688-.0376.0375-.0375.0375-.0188.0188-.025.0125-.025.0125-.0314.0125h-.0312l-.0125-.0125-.0125-.0063-.0125-.0313-.0125-.0438-.0188-.0876-.0125-.0751-.0126-.0313-.0188-.0313-.0188-.0188-.025-.025-.025-.0188-.0313-.0125-.0313-.0125-.0313-.0063-.0689-.0125-.0751-.0063-.0751.0063-.0814.0062v-.0563h-.0563l-.0438-.0063v-.0251l.0125-.0062.0125-.0062.0313-.0063.0375-.025.0125-.0188v-.0501l-.0062-.0313-.0063-.025-.0062-.0313.0062-.025.0063-.0188.0814-.0438.0813-.0375.0126-.0375v-.0563l-.0063-.0063-.0501-.0125h-.1001l-.0439.0125h0ZM48.0017,71.4018l-.0188.0313-.0188.0313-.0062.0375-.0125.0313-.025.0438-.0376.0438-.0312.0313-.0375.0375-.0125.0188-.0062.0187v.0126l.0125.0125h.0188l.0188-.0125.0125-.0188.0375-.0375.0313-.0312.0063-.0063h0v.0125l-.0063.0125v.0125h0v.0063h.0063l.0062-.0063.0188-.0188.0438-.0438.0375-.0438.025-.0501.0125-.0438v-.0438l-.0062-.025-.0125-.0251h-.025l-.0125.0063-.0188.0062h0ZM47.7639,71.7773l-.0125.0188-.0063.0125v.0125l.0125.0125.0188-.0312.0188-.0439h-.0188l-.0125.0188h0ZM47.7201,71.8524l-.0188.0188-.0188.0313-.0062.0188-.0063.0125.0063.0062h.0062l.0188-.0125.025-.0251.0125-.0125.0125-.0188v-.0312h-.0125l-.0188.0125h0ZM23.9257,71.9526l-.0188.0188-.0188.0125-.0188.0125h-.0187l-.0439.0125-.05.0188-.1064.0688-.1816.1251-.0876.0625-.0688.0626-.0251.0188-.0188.0187-.0062.0125.0062.0062.0814.0063h.144l.0563-.0125.0501-.0188.0438-.0188.0376-.025.0375-.0313.1127-.1501.1251-.1815v-.0125l-.0063-.0062-.0188-.0063-.0063.0063h0ZM47.67,71.9526l-.0375.0438-.0125.025.0188-.0062.0125-.0125.0063-.0125.0062-.0188.0062-.0251v.0063h0ZM77.948,71.9526l-.1377.0062-.1439.0062-.1502.0125-.1502.0188-.144.025-.144.0251-.1377.0375-.1314.0439-.1251.0438-.144.05-.1502.0501-.1502.05-.1439.0564-.1314.0625-.0625.0375-.0563.0314-.0438.0375-.0439.0375-.0438.0563-.0438.0564-.0439.0625-.0375.0689-.0313.0688-.025.0689-.0188.0688-.0063.0751v.0626l.0063.0689.0125.0313.0125.025.0125.0313.0188.025.0188.025.025.0251.0312.025.0314.0188.0375.0188.0375.0188.0439.0125.05.0125.0501.0062.0625-.0062.0814-.0125.0876-.0187.2065-.0501.2191-.0688.2316-.0689.2065-.0689.1815-.0563.1314-.0375h.0125l.0063.0062-.0751.1941-.0814.194-.0125.05-.0188.0564-.0125.0563-.0063.0626-.0062.0625v.1378l.0125.0813v.0125l-.0063.0125-.0062.0125-.0062.0125-.0251.0188-.0375.0125-.0876.0188-.1127.0063-.1189.0062-.1189.0062-.0564.0062-.0438.0063-.0438.0062-.0314.0125-.1189.0376-.1252.0312-.1314.0313-.1377.0188-.1378.0312-.1251.0314-.0625.0188-.0626.025-.0563.025-.0501.0313-.1127.0688-.0813.0563-.0751.0564-.1001.0939-.0375.0438-.0439.0564-.0438.0751-.0376.0876-.0188.0438-.0125.0438-.0125.0501-.0062.0438v.1001l.0062.0501.0188.0438.0188.0564.0313.0562.0313.0439.0375.0438.0439.0375.0438.0375.0501.0312.05.025.0564.0188.0501.0188.0625.0125.0564.0062h.0563l.0625-.0062.0564-.0062.0562-.0125.1502-.05.1628-.0501.1627-.0563.1502-.0564.0564.0063.0625-.0063.1127-.05.1502-.0689.169-.0813.1815-.0689.0876-.0314.0939-.0312.0814-.0188.0876-.0125h.0751l.0688.0062.0314.0063.025.0125.0251.0125.025.0188.025.025.0188.0313.0125.0313.0062.0375v.0375l-.0062.0375-.0063.0438-.0125.0501-.0313.0938-.05.1001-.0564.1064-.0689.1064-.0688.1002-.0751.1001-.0751.0939-.0751.0813-.0751.0751-.0625.0625-.0625.0438-.0439.025-.0312.0125-.0251.0062h-.0312l-.0375-.0062-.0688-.0062-.0689-.0188-.0751-.0188-.0751-.0125h-.0689l-.0375.0063-.0312.0062-.0564.025-.0625.025-.0563.0313-.0564.0438-.0501.0438-.0438.0439-.0376.0563-.0312.0564-.0125.0438-.0062.0439-.0062.0563v.1126l.0062.0564.0125.0563.0125.0625.0188.05.0188.0563.025.0501.0313.0438.0312.0439.0375.0312.0376.0251.0438.0188.0501.0125.05.0063.0563.0062h.0501l.1064-.0125.1127-.0188.1063-.0313.1001-.0375.0939-.0501.0876-.0501.0375-.0312.0376-.0501.0375-.05.0439-.0626.0814-.1189.0876-.1001.1877-.1877.169-.1753.0813-.0939.0751-.0876.0688-.0876.0689-.0939.0625-.1001.0626-.1002.05-.1064.0501-.1127.05-.1251.0438-.1314.0375-.1377.0313-.1502.0125-.0314.0125-.0313.0125-.0188.0188-.0188.025-.0125.025-.0125.0251-.0062h.025l.0626-.0062h.0626l.0625-.0063.0564-.0125.0625-.0188.0626-.0125.0689-.0125.0688-.0062h.1314l.1377-.0062.0627-.0063.0625-.0125.0563-.0125.05-.0188.0501-.025.0375-.0313.0375-.0438.0313-.0563.025-.0814.0188-.0813.0063-.0814-.0063-.0751-.0125-.0814-.025-.075-.0251-.0689-.0376-.0751-.0375-.0626-.0438-.0625-.05-.0563-.0501-.0501-.05-.0438-.0501-.0375-.0501-.025-.0501-.0251-.0563-.0125-.0626-.0063-.0625.0063-.0626.0125-.1189.0251-.0876.0188-.1064.0188-.1127.025-.0563.0062h-.0563l-.0626-.0062-.0625-.0188-.0375-.0188-.0314-.0313-.0312-.0376-.0188-.0438-.0188-.0501v-.1001l.0125-.025.0063-.025.0375-.0626.0376-.0563.0439-.0564.0438-.0501.0939-.1064.1001-.1002.1001-.1001.0939-.1001.0375-.0564.0438-.0563.0313-.0626.0314-.0625.0187-.0688.0125-.0689v-.2065l-.0062-.0438-.0063-.0375-.0062-.0375-.0188-.0313-.0125-.0313-.0188-.0313-.0188-.025-.0501-.0501-.05-.0375-.0626-.0313-.0689-.025-.0751-.0251-.0814-.0125-.0814-.0125-.0876-.0062h-.3505ZM55.0424,72.7161l.0501.0563.0375.0501.0251.05.0188.0501.0125.0563.0063.0563v.3755l-.0125.0751-.0125.0375-.0125.0312-.0188.0376-.0251.0313-.025.025-.0376.0313-.0375.025-.0438.025-.0626.0188-.0939.0125-.1189.0125-.1189.0063-.1252.0062-.1063-.0062-.0939-.0063-.0563-.0125-.0688-.0376-.0563-.0375-.0501-.0501-.0438-.05-.0375-.0564-.0251-.0625-.025-.0626-.0125-.0625-.0062-.0689v-.0689l.0062-.0689.0125-.0688.0188-.0689.0188-.0626.0313-.0688.0313-.0626.0375-.0563.0438-.0563.05-.0438.0501-.0439.0564-.0438.0625-.0313.0626-.025.0689-.0125.0688-.0062h.0751l.0751.0125.0751.0188.0814.0313.0814.0439.0814.0563.0876.0688h0ZM47.282,72.641l-.1126.144-.1126.1439-.1127.1377-.119.1377-.1126.1378-.1126.1439-.1064.1501-.1001.1502-.0376.05-.05.0564-.0563.0563-.0627.0563-.0563.0626-.05.0563-.0188.0312-.0188.0313-.0125.025-.0125.0313.0062.0125h.0438l.0126-.0125.025-.0564.0313-.05.0375-.0439.0375-.0375.0438-.0376.0375-.0438.0375-.0375.0313-.0501.0626-.1064.0688-.1064.0751-.1001.0751-.0938.1565-.194.1565-.1941.0439-.05.0564-.0501.0625-.0688.0814-.0939.0313-.0501.0312-.0438.025-.0438.0188-.0376-.0062-.0062-.0063-.0063h-.0125ZM68.2914,73.2042l-.0313.0062-.0312.0063-.0188.0125-.0188.0188-.0375.0314-.0375.0313-.0375.025-.0314.0313-.025.0375-.0313.0376-.0438.0813-.0375.0814-.0125.0188-.0063.025v.0625l.0063.0626.0062.0689.0188.0626.0188.0563.0188.0439.0125.0313.0751.0939.1002.1189.1189.1439.1314.1502.1377.144.1189.1252.0563.0563.0501.0439.0438.0375.0376.0188.1252.0689.1126.0688.1064.0689.1126.0751.1127.0751.144.0813.169.0877.1753.0876.1815.0813.1753.0626.075.0313.0751.0188.0625.0188.0564.0062.0501.0125.05.0125.0438.0125.0439.0188.0813.0376.0814.0438.0877.0375.0939.0251.05.0125.0563.0063h.1251l.0563-.0564.1252-.1251.0813-.0688.0814-.0564.0375-.0188.0438-.0188.0376-.0062h.0375l.05.0375.0501.0375h.0375l.0312-.0062.0313-.0125.025-.0125.0188-.0188.0125-.0125.0125-.025.0062-.025v-.144l-.0062-.0876-.0125-.0814-.0313-.0814-.0376-.0751-.0438-.0751-.0563-.0625-.0564-.0625-.0688-.0626-.0689-.0563-.0688-.05-.0751-.0501-.0752-.0438-.1501-.0752-.1377-.0625-.1752-.0689-.1878-.075-.1878-.0689-.194-.0814-.1877-.0814-.1815-.0876-.0877-.0439-.0813-.05-.0814-.0501-.0688-.0501-.0814-.05-.1127-.0563-.1189-.0563-.0876-.0501-.0689-.0375-.0626-.0438-.0563-.0438-.05-.0501-.1001-.0938-.1001-.0876-.0563-.0375-.0564-.0313-.0626-.0313-.0688-.0188-.0814-.0188-.0876-.0063h-.0939l-.1064.0125h0ZM25.9034,73.4609l.1377-.0314.1877-.0313.2254-.0375.2378-.0375.1252-.0125.1189-.0125.1126-.0062h.1127l.1002.0062.0876.0063.0751.0188.0626.0188.0251.0188.025.0187.0188.0188.0188.0251.0313.0564.0251.0562.0125.0689.0125.0688.0062.0751.0062.0813v.0627l-.0125.0688-.0125.0814-.025.0876-.025.0939-.0313.0939-.0375.1001-.0438.0938-.0438.0939-.0438.094-.0501.0876-.0438.0751-.0501.0751-.0501.0564-.0438.05-.0439.0313-.075.0438-.0751.0375-.0813.0375-.0939.0312-.0876.0251-.1001.025-.094.0188-.1001.0125-.1001.0125-.1001.0063-.1001-.0063-.0939-.0062-.0939-.0125-.0876-.0188-.0814-.0313-.0813-.0313-.1502-.0939-.1501-.1001-.0877-.05-.0876-.0376-.0501-.0125-.0501-.0062-.0563-.0062h-.0564l-.0062-.0063-.0062-.0062v-.0125l.025-.0188.0313-.0125.0313-.0125.0251-.0062.0625-.0125.0626-.025.1064-.0689.1189-.0563.025-.0125.0313-.0063h.0563l.0313.0125.0313.0062.0313.0188.0313.0251.05.0188.0439.0062.0501.0062.0438-.0062.0501-.0062.05-.0125.0438-.0125.0501-.0188.0939-.0438.0938-.0501.0876-.0563.0876-.0501.0188-.0187.0125-.0251v-.0312l-.0062-.0125-.0063-.0125-.0188-.0062-.0188-.0062h-.0438l-.0438.0062h-.0438l-.0125-.0188-.0063-.025.0688-.0689.0563-.075.0438-.0689.0375-.0751.0313-.0688.0188-.0689.0062-.0689-.0062-.0625-.0062-.025-.0125-.0313-.0188-.025-.0125-.025-.025-.0251-.025-.025-.0314-.0188-.0313-.0188-.0375-.0188-.0439-.0125-.0438-.0125-.05-.0125-.1127-.0125-.1314-.0063-.0125-.0062-.0063-.0188v-.0188l.0063-.0125h0ZM24.5516,73.6298l.0438-.0125.1001-.025.0501-.0125.05-.0063h.0375l.0125.0063.0062.0063.0688.2128.0563.219.0188.0501.025.0438.0189.0438.0312.0439.0313.0313.0375.0251.0438.0187.0501.0125.0125.0062v.0313l-.0063.0125-.025.0188-.0313.0062-.0313.0062-.0439.0188-.1189.0625-.1251.0751-.0563.0375-.0563.0438-.0564.0501-.0438.0501-.025.0813-.0188.0626-.0689.0251-.1752.0438-.2441.0688-.2878.0751-.288.0751-.2503.0625-.1815.0438-.0688.0063-.0251-.0251-.025-.0438-.025-.0563-.0313-.0688-.0563-.169-.0564-.194-.025-.1001-.0188-.1002-.0188-.1001-.0188-.1001-.0063-.1001-.0063-.0876v-.0814l.0125-.0689.0125-.0438.025-.0376.0312-.0251.0375-.025.0501-.0125.0501-.0062.0563.0062.0626.0188.025.0125.0313.0188.025.0314.0251.0312.0563.0689.0501.0814.05.0813.0501.0689.025.0313.025.025.0251.025.025.0125.0751.025.0813.0188.0751.0062.0751-.0062.0689-.0062.0751-.0188.0688-.0251.0689-.0312.0626-.0313.0625-.0375.0563-.0438.0564-.0438.0939-.0814.0751-.0814.025-.0375.0125-.0438.0062-.0375v-.0438l.0063-.0439v-.0438l.0062-.0438.0188-.0375h0ZM55.906,74.1555l.0063.0188.0062.0251v.025l-.0062.025-.0125.0501-.0188.0438-.0188.05-.0125.0439-.0063.0188v.0313l.0063.0125.0876.1565.0877.1314.0751.1252.0814.1189.0689.1314.0688.1377.0313.0751.025.0877.0313.0876.025.1001.0125.0625.0125.05v.1565l-.0125.0501-.0125.0438-.0125.0439-.0188.0375-.025.0375-.025.0375-.0251.0313-.0313.0375-.0313.025-.0375.0313-.0375.025-.0814.0376-.0813.0375-.0939.025-.0939.0125-.1001.0062-.0939-.0062-.1001-.0125-.0939-.025-.0626-.025-.0626-.025-.0563-.0314-.05-.0313-.0501-.0375-.0438-.0439-.0375-.0438-.0376-.0501-.0375-.0438-.0312-.0564-.025-.0501-.0251-.0563-.0188-.0626-.0125-.0563-.0125-.0625-.0125-.0626-.0063-.0625v-.194l.0125-.1314.0312-.1252.0376-.1314.0501-.1189.025-.0563.0313-.0626.0313-.0501.0375-.0563.0438-.0501.0877-.0876.1189-.1064.1314-.1189.0689-.05.0625-.0501.0626-.0376.0563-.0312.0563-.0188.0438-.0063.0125.0063.0187.0062.0125.0125.0062.0187h0ZM33.0317,74.3183l-.0689.0564-.05.0625-.0501.0688-.0375.0751-.0313.0814-.025.0876-.0125.0939-.0125.0939.0063.0062h.025l.0063-.0062.0188-.0313.025-.025.0313-.025.0312-.0188.0689-.0438.0689-.0375.0688-.0375.0564-.0439.0188-.0313.0188-.0251.0062-.0375v-.0751l-.0125-.0438-.0187-.0501-.0188-.0375-.0251-.0376-.0313-.0188-.0125-.0063-.0125-.0062-.0187.0062-.0125.0063h0ZM78.0419,75.2883l.0125-.0063.0125.0063.0062.0188-.0062.0125-.0375.0876-.05.0939-.0188.0563-.0188.05-.0125.0439-.0062.0438-.0125.0188-.0251.0063-.0125-.0063v-.0125l.0188-.1001.0375-.1127.0188-.0625.0313-.0501.0313-.05.0313-.0375h0ZM77.7727,75.9641l.0063-.0062.0062.0062-.0062.0501-.0125.0501-.0125.0188-.0125.0125-.0188.0125-.0188.0125-.0125-.0062-.0125-.0125-.0063-.0125.0063-.0188.0438-.0563.05-.0501Z" fill="#952324" fill-rule="evenodd" stroke-width="0"/><path d="M26.537,79.4685v2.2012h-.0684l-1.4712-2.2109h-.0063v2.0742h.3779v.085h-.7944v-.085h.3315v-2.0645h-.355v-.085h.853l1.041,1.5664h.0068v-1.4814h-.3701v-.085h.7935v.085h-.3384Z" fill="#952324" stroke-width="0"/><path d="M28.2148,81.6697c-.2891,0-.5342-.1211-.7358-.3633s-.3022-.501-.3022-.7764c0-.3311.106-.6133.3174-.8472s.4575-.3506.7373-.3506c.2632,0,.499.1187.708.3564s.313.5073.313.8096c0,.311-.1045.584-.314.8188s-.4507.3525-.7236.3525ZM28.2211,79.4172c-.1221,0-.2314.0278-.3291.084-.0972.0562-.1631.1538-.1982.2925-.0347.1387-.0522.3809-.0522.7261,0,.2393.0098.4297.0298.5718s.0708.2598.1528.353c.0815.0933.2095.1401.3838.1401.1064,0,.2134-.0283.3208-.085.1069-.0566.1772-.168.21-.334s.0488-.4214.0488-.7656c0-.312-.02-.5278-.0605-.6465s-.1055-.2046-.1948-.2573-.1934-.0791-.311-.0791Z" fill="#952324" stroke-width="0"/><path d="M29.9989,81.5329v-2.0645h-.3516v-.085h1.2241c.1602,0,.2915.0142.394.042.103.0278.1914.085.2661.1724.0742.0874.1113.1875.1113.3008,0,.1411-.0542.2554-.1631.3433-.1089.0874-.2935.1538-.5532.1982v.0083c.1865.0366.3398.1074.459.2129.1196.106.1792.2847.1792.5366,0,.1445.0171.2368.0508.2773s.0806.061.1406.061c.0391,0,.0854-.0078.1401-.0234v.0815c-.0967.0332-.1899.0503-.2798.0503-.1836,0-.313-.0513-.3882-.1533-.0757-.1025-.1123-.2021-.1104-.2998l.0068-.2837c0-.0986-.0312-.1963-.0942-.292-.0625-.0962-.2051-.144-.4272-.144h-.208v1.061h.3516v.085h-1.0996v-.085h.3516ZM30.3954,79.4685v.9248h.2998c.1289,0,.2271-.0083.2949-.0259.0674-.0171.1216-.062.1621-.1348s.061-.1885.061-.3477c0-.1299-.0205-.2246-.0615-.2847-.0415-.0601-.0908-.0967-.1494-.1108-.0581-.0137-.1348-.021-.229-.021h-.3779Z" fill="#952324" stroke-width="0"/><path d="M32.1313,79.3835h1.9043l.0581.7598h-.085c-.0522-.2544-.1211-.4302-.207-.5278-.0864-.0977-.1992-.147-.3394-.147h-.1816v2.0645h.3999v.085h-1.1943v-.085h.3999v-2.0645h-.1816c-.1401,0-.2529.0493-.3394.147-.0859.0977-.1548.2734-.207.5278h-.085l.0581-.7598Z" fill="#952324" stroke-width="0"/><path d="M34.6938,81.5329v-2.0645h-.3516v-.085h1.1025v.085h-.3545v.9551h.9644v-.9551h-.3481v-.085h1.0962v.085h-.3516v2.0645h.3516v.085h-1.0962v-.085h.3481v-1.0244h-.9644v1.0244h.3545v.085h-1.1025v-.085h.3516Z" fill="#952324" stroke-width="0"/><path d="M38.8534,80.1335l.4053.9829.6113-1.6479h-.3252v-.085h.6499v.085h-.23l-.8247,2.2012h-.0581l-.4268-1.0347-.4165,1.0347h-.0615l-.896-2.2012h-.25v-.085h2.3306v.085h-.2397l-.2686.665ZM38.3622,81.1365l.2446-.6167-.4297-1.0513h-.4946l.6797,1.668ZM38.5839,79.4685l.2246.5483.2217-.5483h-.4463Z" fill="#952324" stroke-width="0"/><path d="M41.2011,79.4685v.958h.2017c.0713,0,.1313-.0068.1807-.0205.0493-.0142.0938-.0513.1333-.1128.0396-.061.062-.1562.0674-.2861h.0869v.9463h-.0869c-.0088-.1802-.0435-.2988-.104-.356s-.1528-.0859-.2773-.0859h-.2017v1.0215h.4551c.2573,0,.436-.0542.5356-.1626.0991-.1079.1582-.2749.1772-.5005h.085l-.0215.748h-1.981v-.085h.3545v-2.0645h-.3545v-.085h1.8989l.0386.5967h-.085c-.0288-.1812-.0884-.3115-.1782-.3916s-.2402-.1201-.4497-.1201h-.4751Z" fill="#952324" stroke-width="0"/><path d="M44.185,79.3586l.0098.5801h-.0781c-.1108-.3477-.3071-.5215-.5879-.5215-.1558,0-.2764.043-.3628.1289-.0859.0859-.1289.1753-.1289.2676,0,.0854.0356.1582.1074.2183s.2026.1064.3926.1392.3345.0728.4336.1196c.0996.0474.1836.126.252.2358s.1021.2363.1021.3784c0,.2188-.0713.4009-.2139.5464s-.3198.2183-.5308.2183c-.1719,0-.3438-.064-.5146-.1919l-.1567.1401h-.0581v-.625h.0718c.0654.1968.1567.3447.2749.4434.1177.0991.2466.1484.3862.1484.1387,0,.2661-.0459.3823-.1377.1162-.0913.1743-.2075.1743-.3472,0-.1177-.0405-.2168-.1211-.2974s-.2109-.1362-.3911-.1665c-.1807-.0308-.3193-.0664-.416-.1069s-.1792-.1108-.248-.2114-.1035-.2119-.1035-.334c0-.1689.0601-.3198.1802-.4526.1196-.1323.2827-.1987.4883-.1987.1719,0,.3325.0542.4814.1631.041-.0391.0767-.0845.1064-.1367h.0684Z" fill="#952324" stroke-width="0"/><path d="M44.6484,79.3835h1.9043l.0581.7598h-.085c-.0522-.2544-.1211-.4302-.207-.5278-.0864-.0977-.1992-.147-.3394-.147h-.1816v2.0645h.3999v.085h-1.1943v-.085h.3999v-2.0645h-.1816c-.1401,0-.2529.0493-.3394.147-.0859.0977-.1548.2734-.207.5278h-.085l.0581-.7598Z" fill="#952324" stroke-width="0"/><path d="M49.58,79.4685h-.3652v-.085h.7983v.085h-.3516v1.3516c0,.1953-.0146.3398-.0444.4331-.0293.0933-.083.1714-.1606.2349s-.1704.1094-.2788.1382-.2202.0435-.3359.0435c-.2441,0-.4229-.0386-.5361-.1152s-.1831-.1709-.2095-.2832c-.0259-.1118-.0391-.2627-.0391-.4512v-1.3516h-.3232v-.085h1.0679v.085h-.3516v1.313c0,.1812.0083.3232.0254.4268.0166.103.0615.189.1348.2583.0732.0688.1895.103.3481.103.1289,0,.2441-.0264.3467-.0791.1021-.0527.1733-.1235.2139-.2124s.061-.2544.061-.4966v-1.313Z" fill="#952324" stroke-width="0"/><path d="M52.2538,79.4685v2.2012h-.0684l-1.4712-2.2109h-.0063v2.0742h.3779v.085h-.7944v-.085h.3315v-2.0645h-.355v-.085h.853l1.041,1.5664h.0068v-1.4814h-.3701v-.085h.7935v.085h-.3384Z" fill="#952324" stroke-width="0"/><path d="M53.2519,81.5329v-2.0645h-.3652v-.085h1.1299v.085h-.3682v2.0645h.3682v.085h-1.1299v-.085h.3652Z" fill="#952324" stroke-width="0"/><path d="M54.2548,79.3835h1.0679v.085h-.355l.5796,1.5762h.0068l.5366-1.5762h-.3618v-.085h.7915v.085h-.3418l-.7495,2.2012h-.0449l-.8296-2.2012h-.2998v-.085Z" fill="#952324" stroke-width="0"/><path d="M57.5297,79.4685v.958h.2017c.0713,0,.1313-.0068.1807-.0205.0493-.0142.0938-.0513.1333-.1128.0396-.061.062-.1562.0674-.2861h.0869v.9463h-.0869c-.0088-.1802-.0435-.2988-.104-.356s-.1528-.0859-.2773-.0859h-.2017v1.0215h.4551c.2573,0,.436-.0542.5356-.1626.0991-.1079.1582-.2749.1772-.5005h.085l-.0215.748h-1.981v-.085h.3545v-2.0645h-.3545v-.085h1.8989l.0386.5967h-.085c-.0288-.1812-.0884-.3115-.1782-.3916s-.2402-.1201-.4497-.1201h-.4751Z" fill="#952324" stroke-width="0"/><path d="M59.5546,81.5329v-2.0645h-.3516v-.085h1.2241c.1602,0,.2915.0142.394.042.103.0278.1914.085.2661.1724.0742.0874.1113.1875.1113.3008,0,.1411-.0542.2554-.1631.3433-.1089.0874-.2935.1538-.5532.1982v.0083c.1865.0366.3398.1074.459.2129.1196.106.1792.2847.1792.5366,0,.1445.0171.2368.0508.2773s.0806.061.1406.061c.0391,0,.0854-.0078.1401-.0234v.0815c-.0967.0332-.1899.0503-.2798.0503-.1836,0-.313-.0513-.3882-.1533-.0757-.1025-.1123-.2021-.1104-.2998l.0068-.2837c0-.0986-.0312-.1963-.0942-.292-.0625-.0962-.2051-.144-.4272-.144h-.208v1.061h.3516v.085h-1.0996v-.085h.3516ZM59.9511,79.4685v.9248h.2998c.1289,0,.2271-.0083.2949-.0259.0674-.0171.1216-.062.1621-.1348s.061-.1885.061-.3477c0-.1299-.0205-.2246-.0615-.2847-.0415-.0601-.0908-.0967-.1494-.1108-.0581-.0137-.1348-.021-.229-.021h-.3779Z" fill="#952324" stroke-width="0"/><path d="M63.1064,79.3586l.0098.5801h-.0781c-.1108-.3477-.3071-.5215-.5879-.5215-.1558,0-.2764.043-.3628.1289-.0859.0859-.1289.1753-.1289.2676,0,.0854.0356.1582.1074.2183s.2026.1064.3926.1392.3345.0728.4336.1196c.0996.0474.1836.126.252.2358s.1021.2363.1021.3784c0,.2188-.0713.4009-.2139.5464s-.3198.2183-.5308.2183c-.1719,0-.3438-.064-.5146-.1919l-.1567.1401h-.0581v-.625h.0718c.0654.1968.1567.3447.2749.4434.1177.0991.2466.1484.3862.1484.1387,0,.2661-.0459.3823-.1377.1162-.0913.1743-.2075.1743-.3472,0-.1177-.0405-.2168-.1211-.2974s-.2109-.1362-.3911-.1665c-.1807-.0308-.3193-.0664-.416-.1069s-.1792-.1108-.248-.2114-.1035-.2119-.1035-.334c0-.1689.0601-.3198.1802-.4526.1196-.1323.2827-.1987.4883-.1987.1719,0,.3325.0542.4814.1631.041-.0391.0767-.0845.1064-.1367h.0684Z" fill="#952324" stroke-width="0"/><path d="M63.9477,81.5329v-2.0645h-.3652v-.085h1.1299v.085h-.3682v2.0645h.3682v.085h-1.1299v-.085h.3652Z" fill="#952324" stroke-width="0"/><path d="M65.0253,79.3835h1.9043l.0581.7598h-.085c-.0522-.2544-.1211-.4302-.207-.5278-.0864-.0977-.1992-.147-.3394-.147h-.1816v2.0645h.3999v.085h-1.1943v-.085h.3999v-2.0645h-.1816c-.1401,0-.2529.0493-.3394.147-.0859.0977-.1548.2734-.207.5278h-.085l.0581-.7598Z" fill="#952324" stroke-width="0"/><path d="M67.1811,79.3835h1.1162v.085h-.3682l.6548.9863.645-.9863h-.4053v-.085h.7915v.085h-.29l-.6997,1.0684v.9961h.3716v.085h-1.146v-.085h.3779v-.938l-.7495-1.1265h-.2983v-.085Z" fill="#952324" stroke-width="0"/><path d="M71.7162,81.6697c-.2891,0-.5342-.1211-.7358-.3633s-.3022-.501-.3022-.7764c0-.3311.106-.6133.3174-.8472s.4575-.3506.7373-.3506c.2632,0,.499.1187.708.3564s.313.5073.313.8096c0,.311-.1045.584-.314.8188s-.4507.3525-.7236.3525ZM71.7226,79.4172c-.1221,0-.2314.0278-.3291.084-.0972.0562-.1631.1538-.1982.2925-.0347.1387-.0522.3809-.0522.7261,0,.2393.0098.4297.0298.5718s.0708.2598.1528.353c.0815.0933.2095.1401.3838.1401.1064,0,.2134-.0283.3208-.085.1069-.0566.1772-.168.21-.334s.0488-.4214.0488-.7656c0-.312-.02-.5278-.0605-.6465s-.1055-.2046-.1948-.2573-.1934-.0791-.311-.0791Z" fill="#952324" stroke-width="0"/><path d="M73.4633,81.5329v-2.0645h-.3511v-.085h1.8857l.0283.6748h-.0752c0-.021-.019-.0972-.0581-.229-.0391-.1313-.0957-.2246-.1709-.2788-.0747-.0547-.2012-.082-.3789-.082h-.4849v.9683h.0918c.0977,0,.1748-.0068.2314-.02s.106-.0508.1475-.1118.0669-.1572.0757-.2881h.085v.9463h-.085c-.0088-.1421-.0312-.2451-.0674-.3091s-.082-.103-.1372-.1172c-.0557-.0146-.1392-.022-.25-.022h-.0918v1.0181h.3931v.085h-1.1392v-.085h.3511Z" fill="#952324" stroke-width="0"/><path d="M33.6015,84.6892v.938h.3613v.085h-1.1128v-.085h.355v-2.0645h-.355v-.085h1.1514c.2598,0,.4556.0581.5874.1733.1313.1157.1973.2578.1973.4268,0,.1733-.0664.3184-.1992.4355s-.3535.1758-.6621.1758h-.3232ZM33.6015,83.5627v1.04h.2148c.1123,0,.2056-.0098.2798-.0283.0747-.019.1387-.0688.1924-.1499.0542-.0815.0811-.207.0811-.377,0-.1499-.0234-.2598-.0708-.3306-.0474-.0703-.103-.1138-.1675-.1299s-.1445-.0244-.2397-.0244h-.29Z" fill="#952324" stroke-width="0"/><path d="M36.1288,85.7639c-.2891,0-.5342-.1211-.7358-.3633s-.3022-.501-.3022-.7764c0-.3311.106-.6133.3174-.8472s.4575-.3506.7373-.3506c.2632,0,.499.1187.708.3564s.313.5073.313.8096c0,.311-.1045.584-.314.8188s-.4507.3525-.7236.3525ZM36.1352,83.5115c-.1221,0-.2314.0278-.3291.084-.0972.0562-.1631.1538-.1982.2925-.0347.1387-.0522.3809-.0522.7261,0,.2393.0098.4297.0298.5718s.0708.2598.1528.353c.0815.0933.2095.1401.3838.1401.1064,0,.2134-.0283.3208-.085.1069-.0566.1772-.168.21-.334s.0488-.4214.0488-.7656c0-.312-.02-.5278-.0605-.6465s-.1055-.2046-.1948-.2573-.1934-.0791-.311-.0791Z" fill="#952324" stroke-width="0"/><path d="M38.2514,83.5627v2.0645h.5015c.0967,0,.1729-.0073.2285-.0215.0552-.0146.1099-.0498.1641-.105.0537-.0557.0952-.1216.125-.1982.0293-.0767.0605-.1836.0938-.3198h.0786l-.0615.7295h-1.8779v-.085h.3516v-2.0645h-.3516v-.085h1.1196v.085h-.3716Z" fill="#952324" stroke-width="0"/><path d="M40.0692,85.6272v-2.0645h-.3652v-.085h1.1299v.085h-.3682v2.0645h.3682v.085h-1.1299v-.085h.3652Z" fill="#952324" stroke-width="0"/><path d="M41.1469,83.4778h1.9043l.0581.7598h-.085c-.0522-.2544-.1211-.4302-.207-.5278-.0864-.0977-.1992-.147-.3394-.147h-.1816v2.0645h.3999v.085h-1.1943v-.085h.3999v-2.0645h-.1816c-.1401,0-.2529.0493-.3394.147-.0859.0977-.1548.2734-.207.5278h-.085l.0581-.7598Z" fill="#952324" stroke-width="0"/><path d="M43.7294,85.6272v-2.0645h-.3652v-.085h1.1299v.085h-.3682v2.0645h.3682v.085h-1.1299v-.085h.3652Z" fill="#952324" stroke-width="0"/><path d="M46.4648,83.4529v.6631h-.0718c-.0776-.4028-.2788-.6045-.603-.6045-.1743,0-.3013.0684-.3813.2046-.0801.1367-.1201.4243-.1201.8633,0,.3608.0171.6064.0518.7363.0342.1299.0942.2231.1792.2788.085.0562.1782.0845.2808.0845.1333,0,.2583-.0503.3755-.1509s.208-.2617.2725-.4839h.0781l-.0264.6812h-.0684c-.0259-.0708-.0654-.1309-.1201-.1797-.1753.1455-.356.2183-.5415.2183-.2354,0-.4502-.1118-.6445-.335s-.2915-.4966-.2915-.8198c0-.3296.0952-.6094.2866-.8389.1909-.229.4116-.3438.6631-.3438.1929,0,.3633.0693.5112.208.0435-.0688.0762-.1294.0981-.1816h.0718Z" fill="#952324" stroke-width="0"/><path d="M48.1147,85.0159h-.71l-.228.6113h.4131v.085h-.8101v-.085h.3086l.8145-2.2007h.0518l.7812,2.2007h.2998v.085h-1.0645v-.085h.3613l-.2178-.6113ZM47.4364,84.9309h.6479l-.3149-.8945h-.0063l-.3267.8945Z" fill="#952324" stroke-width="0"/><path d="M50.0151,83.5627v2.0645h.5015c.0967,0,.1729-.0073.2285-.0215.0552-.0146.1099-.0498.1641-.105.0537-.0557.0952-.1216.125-.1982.0293-.0767.0605-.1836.0938-.3198h.0786l-.0615.7295h-1.8779v-.085h.3516v-2.0645h-.3516v-.085h1.1196v.085h-.3716Z" fill="#952324" stroke-width="0"/><path d="M53.6772,83.4529l.0098.5801h-.0781c-.1108-.3477-.3071-.5215-.5879-.5215-.1558,0-.2764.043-.3628.1289-.0859.0859-.1289.1753-.1289.2676,0,.0854.0356.1582.1074.2183s.2026.1064.3926.1392.3345.0728.4336.1196c.0996.0474.1836.126.252.2358s.1021.2363.1021.3784c0,.2188-.0713.4009-.2139.5464s-.3198.2183-.5308.2183c-.1719,0-.3438-.064-.5146-.1919l-.1567.1401h-.0581v-.625h.0718c.0654.1968.1567.3447.2749.4434.1177.0991.2466.1484.3862.1484.1387,0,.2661-.0459.3823-.1377.1162-.0913.1743-.2075.1743-.3472,0-.1177-.0405-.2168-.1211-.2974s-.2109-.1362-.3911-.1665c-.1807-.0308-.3193-.0664-.416-.1069s-.1792-.1108-.248-.2114-.1035-.2119-.1035-.334c0-.1689.0601-.3198.1802-.4526.1196-.1323.2827-.1987.4883-.1987.1719,0,.3325.0542.4814.1631.041-.0391.0767-.0845.1064-.1367h.0684Z" fill="#952324" stroke-width="0"/><path d="M55.7978,83.4529v.6631h-.0718c-.0776-.4028-.2788-.6045-.603-.6045-.1743,0-.3013.0684-.3813.2046-.0801.1367-.1201.4243-.1201.8633,0,.3608.0171.6064.0518.7363.0342.1299.0942.2231.1792.2788.085.0562.1782.0845.2808.0845.1333,0,.2583-.0503.3755-.1509s.208-.2617.2725-.4839h.0781l-.0264.6812h-.0684c-.0259-.0708-.0654-.1309-.1201-.1797-.1753.1455-.356.2183-.5415.2183-.2354,0-.4502-.1118-.6445-.335s-.2915-.4966-.2915-.8198c0-.3296.0952-.6094.2866-.8389.1909-.229.4116-.3438.6631-.3438.1929,0,.3633.0693.5112.208.0435-.0688.0762-.1294.0981-.1816h.0718Z" fill="#952324" stroke-width="0"/><path d="M56.5463,85.6272v-2.0645h-.3652v-.085h1.1299v.085h-.3682v2.0645h.3682v.085h-1.1299v-.085h.3652Z" fill="#952324" stroke-width="0"/><path d="M58.4086,83.5627v.958h.2017c.0713,0,.1313-.0068.1807-.0205.0493-.0142.0938-.0513.1333-.1128.0396-.061.062-.1562.0674-.2861h.0869v.9463h-.0869c-.0088-.1802-.0435-.2988-.104-.356s-.1528-.0859-.2773-.0859h-.2017v1.0215h.4551c.2573,0,.436-.0542.5356-.1626.0991-.1079.1582-.2749.1772-.5005h.085l-.0215.748h-1.981v-.085h.3545v-2.0645h-.3545v-.085h1.8989l.0386.5967h-.085c-.0288-.1812-.0884-.3115-.1782-.3916s-.2402-.1201-.4497-.1201h-.4751Z" fill="#952324" stroke-width="0"/><path d="M61.9789,83.5627v2.2012h-.0684l-1.4712-2.2109h-.0063v2.0742h.3779v.085h-.7944v-.085h.3315v-2.0645h-.355v-.085h.853l1.041,1.5664h.0068v-1.4814h-.3701v-.085h.7935v.085h-.3384Z" fill="#952324" stroke-width="0"/><path d="M64.2563,83.4529v.6631h-.0718c-.0776-.4028-.2788-.6045-.603-.6045-.1743,0-.3013.0684-.3813.2046-.0801.1367-.1201.4243-.1201.8633,0,.3608.0171.6064.0518.7363.0342.1299.0942.2231.1792.2788.085.0562.1782.0845.2808.0845.1333,0,.2583-.0503.3755-.1509s.208-.2617.2725-.4839h.0781l-.0264.6812h-.0684c-.0259-.0708-.0654-.1309-.1201-.1797-.1753.1455-.356.2183-.5415.2183-.2354,0-.4502-.1118-.6445-.335s-.2915-.4966-.2915-.8198c0-.3296.0952-.6094.2866-.8389.1909-.229.4116-.3438.6631-.3438.1929,0,.3633.0693.5112.208.0435-.0688.0762-.1294.0981-.1816h.0718Z" fill="#952324" stroke-width="0"/><path d="M65.4106,83.5627v.958h.2017c.0713,0,.1313-.0068.1807-.0205.0493-.0142.0938-.0513.1333-.1128.0396-.061.062-.1562.0674-.2861h.0869v.9463h-.0869c-.0088-.1802-.0435-.2988-.104-.356s-.1528-.0859-.2773-.0859h-.2017v1.0215h.4551c.2573,0,.436-.0542.5356-.1626.0991-.1079.1582-.2749.1772-.5005h.085l-.0215.748h-1.981v-.085h.3545v-2.0645h-.3545v-.085h1.8989l.0386.5967h-.085c-.0288-.1812-.0884-.3115-.1782-.3916s-.2402-.1201-.4497-.1201h-.4751Z" fill="#952324" stroke-width="0"/><path d="M43.644,89.1106h-.71l-.228.6113h.4131v.085h-.8101v-.085h.3086l.8145-2.2007h.0518l.7812,2.2007h.2998v.085h-1.0645v-.085h.3613l-.2178-.6113ZM42.9657,89.0256h.6479l-.3149-.8945h-.0063l-.3267.8945Z" fill="#952324" stroke-width="0"/><path d="M46.7524,87.6575v2.2012h-.0684l-1.4712-2.2109h-.0063v2.0742h.3779v.085h-.7944v-.085h.3315v-2.0645h-.355v-.085h.853l1.041,1.5664h.0068v-1.4814h-.3701v-.085h.7935v.085h-.3384Z" fill="#952324" stroke-width="0"/><path d="M47.7235,89.7219v-2.0645h-.3481v-.085h1.0547c.2329,0,.4326.0332.5986.0991.166.0664.3047.1958.416.3882.1108.1929.1665.4019.1665.6274,0,.2388-.061.4521-.1831.6396-.1226.188-.2632.3149-.4224.3809-.1597.0659-.3535.0991-.5825.0991h-1.0479v-.085h.3481ZM48.12,87.6575v2.0645h.29c.1519,0,.2764-.0137.3721-.0415.0962-.0278.1758-.0884.2383-.1816.063-.0933.1055-.2119.1274-.355.0225-.1431.0337-.3306.0337-.5615,0-.2773-.0356-.4849-.106-.6216-.0708-.1362-.1567-.2212-.2593-.2539-.1021-.0327-.2354-.0493-.3999-.0493h-.2964Z" fill="#952324" stroke-width="0"/><path d="M51.5653,87.6575v2.0645h.5015c.0967,0,.1729-.0073.2285-.0215.0552-.0146.1099-.0498.1641-.105.0537-.0557.0952-.1216.125-.1982.0293-.0767.0605-.1836.0938-.3198h.0786l-.0615.7295h-1.8779v-.085h.3516v-2.0645h-.3516v-.085h1.1196v.085h-.3716Z" fill="#952324" stroke-width="0"/><path d="M54.2846,89.1106h-.71l-.228.6113h.4131v.085h-.8101v-.085h.3086l.8145-2.2007h.0518l.7812,2.2007h.2998v.085h-1.0645v-.085h.3613l-.2178-.6113ZM53.6064,89.0256h.6479l-.3149-.8945h-.0063l-.3267.8945Z" fill="#952324" stroke-width="0"/><path d="M56.7519,88.3225l.4053.9829.6113-1.6479h-.3252v-.085h.6499v.085h-.23l-.8247,2.2012h-.0581l-.4268-1.0347-.4165,1.0347h-.0615l-.896-2.2012h-.25v-.085h2.3306v.085h-.2397l-.2686.665ZM56.2607,89.3254l.2446-.6167-.4297-1.0513h-.4946l.6797,1.668ZM56.4823,87.6575l.2246.5483.2217-.5483h-.4463Z" fill="#952324" stroke-width="0"/></g></svg>