<svg width="88" height="88" viewBox="0 0 88 88" fill="none" xmlns="http://www.w3.org/2000/svg">
<path fill-rule="evenodd" clip-rule="evenodd" d="M34.0354 11.4659L34.4701 11.6832C34.6356 11.6521 35.091 11.6832 35.1323 11.828L35.1634 11.9419C35.2151 12.1799 34.8323 12.4282 34.6874 12.4593L34.5632 12.4903C34.4287 12.5214 34.3976 12.5007 34.2735 12.511L34.0354 11.4659ZM39.6545 5.74338C39.6234 4.95693 39.075 5.02937 38.4023 5.18459L38.1643 5.23633L38.1954 5.35016C38.2161 5.45364 38.4748 5.90895 38.5472 5.97104L39.1681 8.53736L38.9404 8.79606L38.9094 8.76502L38.8887 8.8892C38.5265 8.98233 38.5058 9.24103 38.3092 9.43764C38.2885 9.46869 37.5331 9.81017 37.4607 9.83087C37.4193 9.924 37.3675 9.95505 37.3882 10.0585L37.44 10.2965C37.4814 10.4828 37.8539 11.0209 38.0195 10.9899L38.2161 10.9485C38.3713 10.9174 38.7128 10.4621 38.7542 10.3379L38.7852 10.3483L39.4785 9.93435C39.5303 10.0275 39.551 10.0275 39.5717 10.131L39.7786 11.0312C39.582 11.0933 38.9197 12.2006 38.661 12.273C38.5989 12.5007 37.9263 12.9353 37.6055 13.0077L37.5641 13.0181C37.4503 13.0388 37.4607 13.0077 37.4193 12.9249L37.2227 12.9663C37.202 12.8629 37.2951 12.2523 37.3986 12.2316L37.678 12.1695C37.6987 11.9833 37.7918 12.1074 37.7504 11.9419L37.5331 10.9692L37.4089 11.0002C37.3158 11.0209 37.2847 11.0002 37.264 10.9071L37.0467 9.93435L36.6742 7.80265L36.8294 7.41977L36.7777 7.07828C36.7156 6.81958 36.0119 6.42636 35.7532 6.48844L35.4738 6.55053C35.3186 6.59192 35.2565 6.79889 35.1427 6.89202C35.1116 6.92306 34.7288 7.16107 34.7184 7.17142C34.3976 7.34733 34.0872 7.52325 34.1803 7.91648L34.2114 8.03031L34.3355 7.99926C34.5115 7.95787 34.5632 7.65778 34.915 7.58534L35.1117 7.54395C35.4221 7.47151 35.7532 7.74056 35.8153 8.04065L36.1465 9.48938C36.2292 9.83087 36.3534 10.4104 36.3845 10.7415C36.3948 10.8864 36.2189 11.6107 36.0844 11.6418L36.0016 11.6625C35.8774 11.6935 35.7325 11.59 35.7015 11.4452L35.6704 11.2899C35.7739 11.2382 35.8878 11.1244 35.8567 11.0002L35.7946 10.7312C35.7739 10.6173 35.5152 10.5242 35.3703 10.5345L35.4428 10.4518H35.1323C34.6874 10.5345 34.8012 10.3379 34.5942 10.3069L34.5632 10.1517C34.5322 10.0171 34.5632 9.99644 34.5425 9.87226L34.8943 9.74809L35.3807 9.6446L35.3497 9.53078C35.4738 9.49973 35.5566 9.49973 35.5256 9.36521L35.4842 9.16859C35.391 8.85815 35.2876 8.93059 35.2255 8.69258C35.0082 8.68223 34.8323 8.54771 34.4494 8.62015C34.1389 8.68223 33.7974 8.76502 33.487 8.83746C33.3421 8.78572 33.2386 8.77537 33.0213 8.81676L32.6592 8.89954C32.4625 8.94094 32.4005 9.08581 32.3487 9.22033C32.5143 9.9447 32.6799 10.6794 32.8454 11.4038C32.9282 11.7556 32.9593 12.1902 33.042 12.4696C33.1559 12.8422 33.4663 12.7594 33.7561 12.8422C33.5491 13.5665 31.7899 13.6907 31.9037 14.2081L31.9244 14.2909C31.9658 14.4875 32.5971 14.7979 32.9075 14.7255L33.1869 14.6634C33.3835 14.622 33.6526 14.353 33.9837 14.2805C33.9941 14.1357 34.6253 13.401 34.8736 13.3389C34.9461 13.639 34.7495 14.3737 34.5322 14.4461C34.5632 14.7048 34.1596 14.7566 34.201 15.0566L33.5077 15.6672L33.5387 15.6982C33.3939 15.7293 33.2904 15.7293 33.3214 15.8741C33.3525 15.988 33.6008 16.0604 33.7354 16.0294L34.0975 15.9466C34.5839 15.8328 34.9254 15.1705 35.153 14.8807C35.3393 14.6427 35.3703 14.3944 35.5152 14.2288C35.6497 14.0839 35.8878 13.8149 35.8981 13.6183C36.3534 13.5562 36.4362 13.8873 36.7363 14.115C36.9122 14.2495 37.3054 14.7359 37.5331 14.6841L37.6573 14.6531C37.8228 14.6117 37.8953 14.0529 37.9056 13.8666C37.9574 13.3285 37.7504 13.4423 38.4437 13.2871C38.599 13.1319 39.075 12.9249 39.3026 12.7697C39.5199 12.6248 39.8925 12.1902 40.0063 12.1592L40.2132 12.6455L40.3788 13.4734C40.3995 13.5872 40.2443 13.8356 40.1305 13.8563L40.0477 13.877C39.6545 13.9701 39.5717 13.7217 39.2612 13.7631L39.3233 13.9287C39.3854 14.2185 39.9856 14.4565 40.1926 14.591C40.3478 14.6945 40.4616 14.7255 40.6479 14.8911C40.7203 14.9532 41.0307 15.1808 41.1239 15.1705L41.2481 15.1394C41.2481 15.098 41.5275 14.6531 41.5895 14.5082C41.6723 14.3219 41.5895 13.9184 41.4964 13.6493C41.3101 13.1112 41.1446 12.4386 40.9997 11.828L40.8548 11.2072C40.772 10.8657 41.6516 10.2551 41.6102 10.0482L41.5585 9.81017L41.3412 9.71704L40.9894 9.72739L40.9066 9.75843C40.7617 9.78948 40.7824 9.924 40.8031 10.0689C40.6686 10.0999 40.6065 10.131 40.5754 9.99644L40.4202 9.29277C40.3788 9.08581 41.6309 8.46493 41.4964 7.89578L41.455 7.69917C41.424 7.56464 41.2687 7.20246 41.1446 7.2335L40.979 7.2749C40.8134 7.31629 40.7824 7.35768 40.772 7.48186L40.6065 7.5129C40.6375 7.75091 40.3995 7.92683 40.1615 7.97857C40.1098 7.98891 40.027 7.92683 40.0063 7.85439L39.9339 7.54395C39.8511 7.08863 39.6648 6.16765 39.6545 5.74338ZM33.7664 10.2758C33.725 10.0585 33.6733 9.84122 33.6319 9.62391C33.9216 9.52043 34.1803 9.44799 34.2528 9.65495C34.3252 9.9447 34.1182 10.131 33.7664 10.2758ZM36.0016 13.1423C35.8878 13.0181 35.836 12.8732 35.8774 12.6973C36.0119 12.511 36.1982 12.4075 36.4362 12.3972C36.6742 12.48 36.8087 12.6559 36.7156 13.0388C36.4259 13.1836 36.1879 13.2147 36.0016 13.1423Z" fill="#1971AF"/>
<path fill-rule="evenodd" clip-rule="evenodd" d="M23.0561 16.8158C23.1699 16.5881 23.6459 16.1018 23.9356 15.8845L24.1012 15.7706C24.3082 16.0707 24.1737 16.3812 24.2978 16.5985L23.4907 17.3435L23.3148 17.4574L23.0561 16.8158ZM21.0692 15.8741C20.9864 15.7603 21.5038 15.0049 21.6798 14.8497L21.7729 14.9738C21.8867 15.1291 21.9178 15.9983 22.0523 16.1846L22.0419 16.2259L21.2038 15.9983L21.0692 15.8741ZM21.9695 12.2005C21.6487 11.828 21.1727 11.9108 20.9761 11.6521C20.6863 11.7659 20.3759 11.2071 19.4756 11.8591C19.5067 11.9418 19.4963 11.9522 19.5584 12.0453L19.6308 12.1385C19.7964 12.3661 20.3863 12.3454 20.7174 12.8111L21.1727 13.4527C21.3486 13.701 20.8105 14.3322 20.6657 14.5806C20.5208 14.829 20.1069 15.4395 19.8378 15.6361L19.8895 15.7913C19.7654 15.9362 18.8237 16.6502 18.9375 16.8261L18.9582 16.8572C19.0203 16.94 19.4653 17.0227 19.5791 17.0641C19.724 17.1055 20.0862 17.1159 20.2517 16.9917L20.5104 16.8054C20.4897 16.7123 20.6863 16.3398 20.7795 16.2777L20.9451 16.1639L21.2969 16.6399C21.3797 16.7537 21.5659 17.1262 21.4521 17.209L21.3176 17.3021C21.3486 17.4263 20.8002 18.0679 20.645 18.1817L20.2517 18.4715C20.2931 18.637 20.1172 18.6267 20.231 18.7819L20.2724 18.844C20.3656 18.9785 20.5208 18.8337 20.7174 19.1131C20.8105 19.2476 21.0692 19.9823 21.0071 20.0651L21.7936 21.1516C22.0626 21.5242 22.6732 22.0726 23.025 21.8139L23.1285 21.7415C23.3562 21.5759 23.3665 21.0792 23.2423 20.924L21.7005 19.0199C21.4935 18.9785 21.2555 18.8337 21.0382 18.9164L20.9451 18.7923C21.1417 18.6163 21.4935 18.1507 21.6177 18.0576L21.8764 17.8713C21.9695 17.8092 21.9799 17.8195 22.0626 17.7885L22.1144 17.9437C22.2075 17.9644 22.2282 17.9437 22.28 18.0162L22.3731 18.1403L22.6835 18.1196L22.549 18.2542C22.4248 18.3473 22.4973 18.7302 22.6111 18.8957L22.7456 19.0924C22.8491 19.2269 23.2009 19.2062 23.3458 19.0924L23.6459 18.875C23.6045 18.7612 23.6149 18.6991 23.7494 18.606L23.8529 18.5336L23.9253 19.1544C23.739 19.3304 23.6873 19.4132 23.8632 19.6512C24.1116 20.003 24.6393 20.003 24.8359 20.1686L24.9705 20.0754L25.0739 20.1375L25.1981 20.0444C25.343 19.9409 25.1981 19.7546 25.4258 19.5891L25.4568 19.5684C25.6017 19.4649 26.088 19.8167 26.2122 19.9926C26.4295 19.9306 26.5848 20.3134 26.8228 20.1375L26.8538 20.1168C26.9159 20.0754 27.0401 19.3407 26.9573 19.2165L26.6158 18.7405L26.6779 18.6888L26.4399 18.2749C26.4295 18.0369 26.3157 18.1196 26.4295 17.9334C26.5227 17.7989 26.502 17.7989 26.5434 17.6333C26.6054 17.416 26.5434 17.1883 26.3778 16.9503C26.326 16.8779 26.2329 16.8572 26.1501 16.9193L25.7259 17.2297L25.6845 17.1676L25.5499 17.2608C25.4258 17.1159 25.3947 17.1883 25.3016 17.0538L25.2602 16.9917C25.2085 16.9193 25.2395 16.8986 25.2292 16.8158L25.6327 16.3915L25.4568 16.0707C25.3119 16.1328 25.2498 16.1432 25.1464 15.9983C24.9808 15.7706 25.136 15.3774 25.136 15.1704C25.1464 14.8703 25.136 14.6427 25.4775 14.3943L25.5189 14.2598L26.3985 13.463L26.8021 13.1836C26.9262 13.0905 26.8435 13.225 27.0504 13.1008C27.1953 13.2974 27.3195 13.3595 27.4333 13.5561L27.692 14.0011L27.899 14.9842L28.0542 15.3981L27.961 15.4602L28.137 16.2984L28.1059 16.7433L28.0542 17.0124L28.0956 17.0227C28.0335 17.0952 28.0438 17.1055 27.9507 17.178L27.7851 17.2918C27.692 17.2194 27.2781 17.1262 27.1022 17.2504C27.2056 17.3953 27.723 17.6229 27.8783 17.7161C28.0438 17.8092 28.0852 17.9851 28.2508 18.0679C28.3853 18.13 28.4888 18.0886 28.6647 18.1714L28.8303 18.0472C28.9131 18.0472 28.9338 18.0679 29.0062 18.0162L29.2649 17.8299C29.4615 17.685 29.358 17.3953 29.4822 17.2297L29.3684 17.0745C29.4822 16.8986 29.2959 15.9465 29.2959 15.6361C29.2959 15.4498 29.0165 14.3426 28.9027 14.146L29.0062 14.0735C28.8096 13.7941 28.8406 13.4216 28.644 13.1629L28.3853 12.8111C28.2611 12.6352 28.1887 12.749 28.0128 12.5006L27.9403 12.5524C27.8162 12.4179 27.1332 12.1592 26.9883 12.273L26.8538 12.3661C26.7814 12.3144 26.6882 12.2937 26.5951 12.3558L26.264 12.5938L25.7259 13.1008L25.6741 13.225L25.1671 13.6493C25.0739 13.7114 24.7118 13.1629 24.5048 13.1215C24.3703 13.0905 23.9149 13.0905 23.7804 13.1836L23.7494 13.2043C23.6769 13.256 23.6562 13.3492 23.708 13.432L23.9149 13.7217L23.9563 14.2184C23.7494 14.4047 24.0495 14.5392 23.8943 14.7772C23.8736 14.8083 23.4596 15.2636 23.4389 15.2843L23.0147 15.5947L22.9422 15.5016C22.9112 15.4498 22.756 14.7565 22.7663 14.6737C22.8181 14.3322 22.6628 14.146 22.787 13.908C22.6628 13.7321 22.6111 13.4837 22.6939 13.3181C22.7353 13.2457 23.0147 12.8628 23.0561 12.8318L23.025 12.7076C23.2423 12.542 23.4389 12.2419 23.5838 12.0453C23.6459 11.9625 23.8943 11.4244 23.8322 11.3417L23.7597 11.2485C23.7183 11.1968 22.9526 11.0519 22.9008 11.0933L22.4869 11.383C22.3627 11.4762 22.3834 11.5486 22.2386 11.7142C22.1454 11.8177 22.0523 11.9315 22.1351 12.066L21.9695 12.2005ZM24.1116 17.9748C24.1943 17.7575 24.2668 17.7264 24.3082 17.8816C24.3496 18.1196 24.4324 18.2128 24.5979 18.0576C24.7014 18.1196 24.7945 18.1817 24.7635 18.3473C24.7324 18.4922 24.66 18.6474 24.5151 18.7612C24.4013 18.8544 24.3082 18.8647 24.2357 18.8337C24.1323 18.5543 24.0288 18.2645 24.1116 17.9748Z" fill="#1971AF"/>
<path fill-rule="evenodd" clip-rule="evenodd" d="M74.3411 23.1799C74.5066 23.0971 74.8688 23.0453 74.9827 23.273L75.024 23.3454C75.0654 23.4282 75.0344 23.4386 75.0344 23.5317C75.0965 23.6559 75.1689 23.7387 75.0447 23.8111L74.8999 23.8835C74.8481 23.9146 74.2686 24.0595 74.2272 23.9974C74.0203 23.5938 74.1548 23.542 74.1031 23.3144L74.3411 23.1799ZM77.2903 23.1799C77.3524 23.1488 77.6731 23.2109 77.9422 23.035L78.3872 22.7556C78.3768 22.59 78.7701 22.3624 78.5114 21.8553C78.4389 21.7104 77.4455 22.3727 77.2385 22.1968C76.9281 22.352 76.5763 22.3003 76.2451 22.4762L76.1003 22.5486C76.1209 22.7349 75.7795 22.8901 75.8829 23.0867C75.9554 23.2213 76.0692 23.2523 76.2141 23.2006C76.2865 23.2937 76.4521 23.4075 76.4728 23.4386C76.5038 23.5007 76.4314 23.6145 76.4107 23.6559L75.6346 23.8421L75.5725 23.718C75.5001 23.5834 75.5208 23.2213 75.5621 23.1074C75.6656 22.828 75.4897 22.7763 75.3345 22.4865L76.0485 22.114C76.0071 21.9277 76.1313 21.7415 76.0382 21.5656L75.945 21.3793C75.8519 21.2034 75.6139 21.0792 75.4276 21.1827L75.3966 21.2034C75.3241 21.2448 75.3759 21.8243 75.1482 21.9381L75.0447 21.9898L72.7785 23.0557H72.6026L72.437 22.7556C72.675 22.6314 72.7061 22.7142 72.9027 22.6107L73.2545 22.4245L73.6995 22.1451L73.6684 22.114L73.9168 21.876L73.9478 21.7104L74.072 21.638C74.2376 21.5552 74.4652 21.2655 74.4239 21.0792L73.8133 21.2965L73.7202 21.2034C73.4201 21.3586 73.2649 21.2965 72.9441 21.4621L72.8717 21.5035L72.1473 21.9381C72.168 22.0519 72.0231 22.4141 71.961 22.4452C71.8679 22.4969 71.1228 21.876 71.0711 21.7829C71.0193 21.6794 71.6402 21.0482 71.5368 20.8412L71.4747 20.7274C71.2884 20.7791 71.04 20.8412 70.9159 20.6963C70.7089 20.7998 70.5433 20.7481 70.2536 20.9033L70.0777 20.9964L69.3533 21.431L69.3844 21.4931L69.2809 21.5449C69.1981 21.5863 69.2188 21.6173 69.1774 21.6897C68.5875 21.9898 68.8256 22.2071 68.4737 22.4245L68.5358 22.5383L68.4323 22.59L68.5255 22.7763L68.5462 22.7452L68.7428 22.8901L69.1256 22.8384L69.136 22.8901L70.5226 22.2382L70.8124 22.8073C70.9469 23.066 71.2056 23.0039 71.3815 23.1281C71.5678 23.2626 71.7023 23.4075 71.8886 23.542C72.1162 23.6973 72.2301 23.7076 72.4163 23.9767C72.4163 23.987 72.9027 24.4009 72.9234 24.4113C73.327 24.6493 73.6064 24.8666 73.9996 25.1357C74.1652 25.2495 74.3618 25.4047 74.517 25.5185C74.6929 25.6531 74.6205 25.6634 74.755 25.8393C74.8378 25.9428 74.962 25.9842 74.993 26.0463L75.1275 26.305C75.2517 26.2946 75.2931 26.3567 75.3655 26.5016L75.4276 26.6154C75.469 26.6982 75.4483 26.7913 75.3552 26.8327C75.2724 26.8741 74.9723 26.75 74.8895 26.6775C74.786 26.5844 74.548 26.3464 74.486 26.2946C74.4032 26.2325 74.3307 26.2532 74.2479 26.1912C74.1548 26.1291 74.1652 26.0877 74.0617 26.0152C73.9789 25.9635 73.8858 25.9221 73.834 25.8807C73.7719 25.829 73.7202 25.7462 73.6478 25.6944C73.5029 25.5806 72.882 25.1357 72.8096 25.0632C72.6647 24.8769 72.168 24.2975 72.0024 24.3182C71.9196 24.1629 71.6816 23.6869 71.5368 23.7697L71.3919 23.8421C71.4022 23.8835 71.3505 24.5148 71.3401 24.6182L71.5264 25.0839L71.5574 25.115C71.6713 25.3323 71.8058 25.2495 71.9714 25.5599L72.1783 25.6531L72.2611 25.7772C72.3335 25.9221 72.6647 25.7979 72.9234 26.2739L72.7785 26.3464C72.7578 26.3567 72.0231 26.2946 71.961 26.2739C71.7437 26.2015 71.4022 26.0566 71.2677 25.7876L71.1642 25.8393C71.0607 25.8911 71.1642 26.2119 70.8124 26.3981L70.4502 26.5844C70.3674 26.6258 70.1087 26.543 70.0673 26.4602L70.0052 26.3464C69.8293 26.3671 68.929 25.4978 68.7738 25.2081C68.6393 25.1357 68.5255 25.0736 68.422 24.8769L68.2461 24.5458C68.1322 24.5769 68.1633 24.5458 68.0805 24.5872C67.9563 24.6493 68.008 24.8976 67.9253 24.9908C68.1219 25.3737 67.9667 25.3323 68.0701 25.6117C68.1426 25.8083 68.215 26.0256 68.0287 26.1498C68.0494 26.2429 68.0391 26.2532 68.0908 26.3567L68.1529 26.4706C68.3185 26.7913 68.3909 26.4809 68.7221 26.8017C68.898 26.9776 69.0532 27.0604 69.1981 27.3294L69.2602 27.4433L68.6186 27.7744L68.5772 27.702L68.5048 27.7434H68.453L68.422 27.0811L67.0871 27.8986C67.025 27.971 66.9008 28.1469 66.9629 28.2711C67.1078 28.5609 67.2423 28.5505 67.4389 28.6954C67.6355 28.8403 67.8011 28.685 67.9977 28.861L68.1012 28.8092C68.215 28.7471 68.2047 28.861 68.4323 28.7989C68.66 28.7368 68.5462 28.7264 68.7428 28.7575L70.1087 28.1469L70.1398 28.2194L70.2432 28.1676C70.4088 28.3642 70.8434 28.7057 70.9159 28.8506L71.2056 29.3991C71.3919 29.3784 71.4436 29.6474 71.7541 29.4922L72.3232 29.1921C72.5095 29.099 72.4991 28.923 72.6543 28.7885L72.4474 28.3849C72.3439 28.178 71.5885 27.7744 71.5161 27.6502L71.4436 27.5054C71.3815 27.3915 71.7023 27.1432 71.7023 27.1328L72.0128 27.0293C72.0541 27.0707 72.6543 27.257 72.7475 27.2777C72.9027 27.2984 73.4201 27.3191 73.5753 27.2363L73.7926 27.1225C74.0099 27.0087 73.9375 26.8327 74.1652 26.6982L74.3411 26.812L74.4652 27.0087L74.6101 27.0293C74.7653 27.3087 74.9102 27.3708 75.1068 27.5881C75.2621 27.7537 75.3966 28.0435 75.5415 28.2401C75.8829 28.6954 76.0589 29.1714 76.6177 28.8817L76.7211 28.8299C77.0212 28.6747 77.4558 28.3229 77.2385 28.0021L76.7211 27.1949L76.7108 27.1535C76.6487 27.0397 76.5659 26.8327 76.7004 26.781L77.6938 26.4085C77.9319 26.543 78.7183 26.336 79.0184 26.6982L79.1633 26.6258C79.6289 26.3774 80.0636 25.4668 79.8256 25.0218C79.7635 24.8976 79.184 24.6596 79.0908 24.6596L78.2113 23.7801L78.0457 23.6766L77.9526 23.7076C77.8594 23.7594 77.6007 24.2457 77.6214 24.3906L77.4765 24.463C77.2696 24.5665 76.5556 24.701 76.4624 24.5251L76.421 24.4527C76.3589 24.3388 76.4521 24.2043 76.5763 24.1422L76.7522 24.0491C76.9902 23.9249 77.0212 24.1422 77.3524 23.9767L77.4972 23.9042L77.1765 23.2833L77.2903 23.1799ZM73.6271 23.2316C73.7616 23.2626 73.8547 23.3558 73.8858 23.5214C73.803 23.6455 73.6891 23.6973 73.5443 23.6869C73.3891 23.6248 73.327 23.511 73.2959 23.3765C73.3891 23.2626 73.4822 23.1902 73.6271 23.2316ZM75.5621 25.622C75.6449 25.4254 75.8105 25.3633 75.9968 25.3737C76.1313 25.4461 76.2348 25.5599 76.2555 25.7772C76.2348 26.1291 76.1623 26.3153 75.9864 26.1498C75.7898 26.0152 75.6449 25.8393 75.5621 25.622ZM75.6035 24.8459C75.4897 24.8045 75.4173 24.6389 75.3448 24.463C75.5104 24.3388 75.676 24.2664 75.8519 24.2043C75.9864 24.3078 76.0796 24.4527 76.1313 24.6182C76.0485 24.8563 75.8622 24.908 75.6035 24.8459ZM76.9281 25.7462C76.597 25.5289 76.5452 25.2598 76.9074 25.0218C77.2178 25.146 77.5283 25.2598 77.8387 25.3633C77.9629 25.3944 78.0353 25.2598 78.0974 25.146C78.2526 24.9494 78.3975 24.9908 78.5217 25.3633C78.5838 25.5703 78.5321 25.7048 78.2423 25.7048C77.7973 25.6944 77.3524 25.7048 76.9281 25.7462Z" fill="#1971AF"/>
<path fill-rule="evenodd" clip-rule="evenodd" d="M66.135 13.0387C66.0212 12.811 66.2075 12.9145 66.0109 12.6144C65.9281 12.5006 65.7625 12.3143 65.6383 12.2212L65.6073 12.2005C65.5142 12.1384 65.4107 12.1901 65.3486 12.2729C65.2347 12.4385 65.0795 12.6765 65.183 12.811L64.7174 13.6388C64.6035 13.8251 64.2931 14.0735 64.1172 14.3218C63.7032 14.9117 63.7343 14.3425 63.4859 14.6323C63.3617 14.5495 62.9168 14.3736 62.7616 14.3115C62.5856 14.239 62.2028 13.9907 62.0579 14.0735C61.7578 13.8562 61.4991 13.8251 61.2921 13.6802L61.1162 13.5561L61.0645 13.6285L60.6816 13.3594C60.5367 13.256 60.3401 13.1732 60.247 13.3077L60.1952 13.3698C59.9365 13.732 60.1952 13.8768 60.009 14.1459C60.0814 14.2804 60.1642 14.6633 60.2987 14.7564L60.5057 14.9013C60.5574 14.9427 60.7747 15.0151 60.93 15.0876C61.23 15.2428 61.1266 15.0669 61.2818 15.0358C61.3335 15.0255 62.0268 15.2635 62.0889 15.3049L62.2649 15.4291L62.3373 15.3256C62.4304 15.367 62.4408 15.3463 62.5339 15.4187L62.8133 15.6153C62.8961 15.6671 62.8961 15.7085 62.8443 15.7912L62.627 16.0913L61.8199 16.4639C61.7681 16.4639 60.7954 16.5984 60.6195 16.6191C60.0814 16.6915 59.8848 16.588 59.3777 16.5673C59.0466 16.3397 58.9638 16.4742 58.6223 16.2362L58.4878 16.1431L58.4361 16.2155L58.0946 15.9672C57.9808 15.8844 57.9497 15.9568 57.8773 16.0603C58.0428 16.2466 58.167 16.8674 58.3533 17.002L58.4568 17.0744L58.405 17.1468L58.7569 17.4573C59.1915 17.8402 59.4605 17.7574 59.7917 17.7884C59.9676 17.8091 60.1228 17.8816 60.2884 17.8712C60.3918 17.8712 60.6299 17.8505 60.7333 17.8712C60.961 17.9022 61.4784 17.8505 61.675 17.7677C61.7785 17.7263 62.5029 17.4262 62.5546 17.4573L62.6891 17.5504L62.6167 17.6539C62.6891 17.716 62.9789 18.6887 63.0513 18.875C63.2583 19.0198 63.3618 19.1233 63.2583 19.3199C63.5687 19.5786 63.4756 19.8477 63.6205 19.9822L63.4549 20.2202C63.279 20.1478 62.7926 19.827 62.7098 19.9512C62.5856 20.1374 63.3514 20.7894 63.4549 21.0274L63.6308 21.1515C63.6308 21.2654 63.7446 21.5344 63.8688 21.6172L64.3241 21.938C64.4793 22.0415 64.7484 22.145 64.8519 22.0104L64.9243 21.907C65.1416 21.6069 65.1002 21.4413 65.2968 21.1619C65.183 20.9446 64.8726 20.4789 64.945 20.2616L64.8105 20.1685C64.8208 20.065 64.6139 19.4338 64.5518 19.3096C64.4173 19.0716 64.5207 19.0819 64.438 18.875C64.3862 18.7404 64.3241 18.6577 64.262 18.4817C64.1999 18.3058 64.1999 18.2437 64.1275 18.0575C64.0758 17.9229 64.0033 17.8091 63.9309 17.6435C63.8481 17.4573 63.7032 17.478 63.6722 17.24C63.6515 17.0847 63.5377 16.9088 63.5894 16.8364L63.7653 16.557C64.1792 15.9672 64.4173 16.3293 64.9036 16.35L65.0381 16.4432C65.2451 16.4535 66.0626 16.7536 66.3213 16.8985C66.4662 16.9709 66.7352 17.0847 66.9836 17.2089C67.3354 17.3848 67.3871 17.1365 67.5838 17.1882L67.77 16.9192C67.977 16.6294 68.0701 16.2259 67.7804 16.0189L67.6459 15.9258C67.6252 15.9051 67.2526 15.9051 67.0871 15.8533C66.8904 15.7912 66.7456 15.7809 66.549 15.6878C66.2696 15.5636 65.659 15.1497 65.4521 15.2842L65.2451 15.1393C65.0692 15.0151 65.4624 14.6426 65.6073 14.4977C65.6487 14.446 65.8246 14.2597 65.8867 14.2287C66.0005 14.1873 66.0626 14.2804 66.1868 14.0942L66.2799 13.9596C66.3627 13.8355 66.1868 13.1525 66.135 13.0387Z" fill="#1971AF"/>
<path fill-rule="evenodd" clip-rule="evenodd" d="M14.2704 30.2063C14.3739 29.9683 14.2911 29.751 14.3636 29.6061L14.405 29.5337C14.4567 29.4302 14.5809 29.4612 14.6844 29.4509L15.1914 29.6061L15.2846 29.544C15.4294 29.6164 15.9261 29.5543 15.9779 29.5854C16.071 29.6371 16.071 29.6578 16.1331 29.7199C16.0089 29.9683 16.1227 29.989 16.0193 30.1752C15.9675 30.2684 14.6016 30.3925 14.4774 30.3305L14.2704 30.2063ZM14.8292 28.2505C14.6947 28.1781 14.9845 27.1122 15.0672 26.9673C15.0879 26.9363 15.15 26.9156 15.1811 26.9363C15.5433 27.1329 16.4539 28.2091 16.2883 28.5195L16.2055 28.6644L15.5019 28.4678C15.388 28.4471 15.0983 28.3954 14.9431 28.3126L14.8292 28.2505ZM12.801 30.0614C12.7803 29.8648 12.77 29.6061 12.9045 29.3681C12.9148 29.3474 12.9976 29.3163 13.039 29.2956C13.2977 29.4405 13.3909 29.3474 13.5564 29.4302C13.6806 29.4923 13.5564 30.02 13.5254 30.0718L13.3702 30.3615C13.3184 30.4443 12.9252 30.4443 12.8838 30.4236L12.8114 30.3822C12.7286 30.3408 12.7493 30.3098 12.7079 30.2373L12.801 30.0614ZM15.8847 23.6663C15.8744 23.6249 15.864 23.5421 15.8951 23.48L15.9779 23.3352L16.1227 23.4076C16.2159 23.4593 16.1952 23.5111 16.2055 23.5939C16.4332 23.718 16.6919 24.4114 16.7022 24.608C16.8988 24.7115 17.1369 25.1875 17.23 25.3737C17.3128 25.5393 17.3749 25.6221 17.4576 25.7877C17.5611 25.9843 17.468 26.1291 17.6232 26.1291C17.5818 26.3051 17.6646 26.2326 17.5922 26.3464L17.5301 26.4603C17.4783 26.5534 17.3024 26.5638 17.1472 26.9156C17.0644 27.1019 17.023 27.2364 16.8885 27.4744L16.8057 27.6193C16.7643 27.702 16.7229 27.7124 16.6401 27.671C16.5574 27.6296 16.6505 27.2881 16.3918 27.1122L16.4332 26.9466C16.2573 26.8225 15.9986 26.3464 15.8847 26.1912C15.7088 25.9429 15.2742 25.7359 15.4398 25.4255L15.5019 25.3116C15.4398 25.2392 15.5433 24.6494 15.5639 24.5045C15.5846 24.2458 15.7088 23.9974 15.8847 23.6663ZM13.6909 32.0586C14.0635 32.0586 14.3946 31.8827 14.7258 31.7999C15.0155 31.7274 14.9224 31.7068 15.2535 31.6757C15.5226 31.655 15.5329 31.655 15.7916 31.5826C16.0296 31.5205 16.0607 31.5826 16.3194 31.4274C16.4849 31.3239 16.7022 31.2825 16.7747 31.1376L16.8368 31.0238C16.9195 30.8789 16.6815 30.6409 16.8264 30.3615L16.9195 30.1752L17.0437 30.1959L17.3128 29.9476L17.3438 29.9786L17.5818 29.544C17.675 29.3784 17.5715 29.3991 17.6853 29.1818L17.5818 29.1197L17.913 28.4057L17.975 28.3022L17.9026 28.2608L18.2751 27.5675C18.3579 27.4123 18.8753 26.9673 18.9995 26.9777L19.1547 26.6879C19.2893 26.4396 18.8339 25.798 18.8753 25.4462C18.8857 25.2909 18.5752 24.3493 18.4821 24.2458C18.2027 23.925 17.5094 22.259 17.7267 21.8347C17.5611 21.6795 17.6232 21.3069 17.468 21.2242C16.9609 20.9551 16.6401 21.3069 16.2366 21.3173C15.6571 21.3276 16.071 21.3897 15.6571 21.5036C15.4501 21.5656 15.2328 21.4622 15.0879 21.7209L14.9948 21.9071L14.8189 22.3314L14.881 22.3624L14.7671 22.5798C14.7051 22.6936 14.7465 23.3145 14.674 23.6042C14.6326 23.7491 14.5912 24.639 14.3325 24.4941L14.1877 24.4217C13.929 24.2872 14.0635 24.0802 13.7427 23.9043L13.6703 23.8629C13.4012 23.718 13.3081 23.956 13.1322 24.1734C13.0908 24.2251 12.6458 24.5873 12.6251 24.6183L12.4906 24.877L12.5941 25.0219C13.0908 25.2909 13.9186 25.8187 14.1359 26.1291C14.2497 26.2844 14.1773 26.6776 14.1566 26.9052C14.1359 27.1226 14.0531 27.1432 14.0014 27.3502C13.96 27.5158 14.0117 27.6193 13.9393 27.7641C13.929 27.7848 13.8462 27.8159 13.8151 27.8366C12.4492 27.1019 12.7803 28.2608 12.4181 28.0642C12.2422 27.9711 12.0973 27.3295 12.1905 27.1432L12.1491 27.1536L11.9732 26.5431L12.0146 26.5327C11.8593 26.4292 11.4868 25.6531 11.5696 25.4979L12.056 24.5873C12.2526 24.2147 12.4492 23.9664 12.6251 23.6249C12.7079 23.4593 12.8217 22.8488 12.6768 22.766L12.4285 22.6315C12.1594 22.4866 11.5075 22.4038 11.3833 22.6315L11.2488 22.8902L10.7935 23.9147L10.8556 23.9457L10.659 24.3182L9.72764 26.3464L9.17919 27.3192C9.25163 27.3813 9.25163 27.4123 9.29302 27.4433L9.81042 27.6607C9.9139 27.5986 10.4313 27.5158 10.6279 27.4123C10.7211 27.2467 10.8349 26.8742 11.0108 26.957C11.0936 26.9984 11.0729 27.0294 11.1143 27.1019L11.2902 27.195C11.3833 27.3813 11.5592 27.7952 11.6317 27.9918C11.7662 28.385 11.6938 28.385 11.9525 28.7679L11.9111 28.8403L12.0146 28.9024L11.9214 29.275L12.1594 29.4612L12.2112 29.7406C12.0456 30.1131 12.3767 30.1649 12.118 30.6409C11.7559 31.3135 11.9939 31.1997 11.9007 31.5515L12.056 31.7999L12.2112 31.9034C12.2215 31.9758 12.2008 32.0379 12.294 32.0896L12.6147 32.2655C12.8114 32.0379 12.8941 32.1103 13.1322 32.1C13.3184 32.1 13.5564 32.0586 13.6909 32.0586Z" fill="#1971AF"/>
<path fill-rule="evenodd" clip-rule="evenodd" d="M51.8859 10.2965C51.9687 10.0481 52.2791 10.1102 52.5068 10.1309C52.6827 10.1516 53.1897 10.2034 53.138 10.4L52.8379 11.383C52.7965 11.5072 52.6827 11.6211 52.5585 11.59L52.2481 11.4969C51.7514 11.3417 51.6789 10.9898 51.8341 10.4931L51.8859 10.2965ZM52.7655 8.33036C52.9207 8.29932 53.0656 8.29932 53.2725 8.36141L53.4277 8.41315C53.5623 8.45454 53.6761 8.56837 53.6451 8.6822L53.4484 9.32378L52.9828 9.28239C52.8379 9.30308 52.7241 9.34447 52.5068 9.28239L52.2377 9.1996L52.693 8.50628L52.7655 8.33036ZM48.4089 8.87881C48.5435 8.45454 49.4023 7.94749 49.7231 7.78192C49.837 7.73018 51.2547 7.20242 51.2857 7.20242L51.3374 7.0472C51.3581 6.98512 51.265 6.84024 51.2339 6.71606C51.2029 6.59189 51.234 6.49876 51.1926 6.38493C51.1512 6.2711 50.9649 5.93996 50.7993 5.87787C50.7993 5.75369 50.6545 5.62952 50.5096 5.57778C50.3854 5.53638 49.5679 6.45736 49.1229 6.46771L49.0919 6.58154C49.0298 6.7885 47.4362 7.75087 47.2292 7.74052L47.1775 7.8647C47.043 8.28897 47.1361 8.36141 47.2292 8.67185C47.1672 8.85812 47.1879 9.03403 47.3534 9.08577L47.4362 9.10647C47.6018 9.15821 47.6018 9.07543 47.7673 9.12716L48.0778 9.2203C47.8812 9.86188 47.312 9.62387 47.1465 10.1309L47.1154 10.2448L47.1982 10.2655L47.1258 10.4931C47.0016 10.8863 47.2292 10.9381 47.1775 11.1347C47.3948 11.2589 47.2396 11.321 47.4776 11.3934L47.519 11.4037C47.6949 11.4555 48.4503 11.0105 48.4814 10.9174L48.5434 10.7311C48.7711 10.7208 48.8125 10.4931 49.1022 10.5759C48.9056 10.8967 48.7918 10.8449 49.2057 10.9381L48.8228 11.559L47.964 12.2419L47.8294 12.2109L47.9433 11.828C47.9743 11.7245 47.9536 11.7556 47.9019 11.6935L46.8981 13.0284C47.1775 13.2353 46.9085 13.5354 47.4466 13.7114L47.4259 13.7838L48.0364 14.0218C48.2537 14.1046 48.8436 13.2457 48.9781 12.9973C49.185 12.6041 49.4334 11.8901 49.5783 11.4244L49.6403 11.2382C49.9404 11.2485 50.5924 11.0002 50.6131 11.0002L50.6545 11.0105C50.7993 11.0623 50.7372 11.321 51.0373 11.4244L51.1201 11.4451C51.234 11.4762 51.3892 11.3623 51.4409 11.2589L51.6789 11.3313C51.6375 11.9625 51.8445 12.2419 52.5068 12.5006L52.4136 12.8007L52.2998 12.7593L51.7617 13.2043L51.6168 13.1733C51.5237 13.1422 50.8718 13.4009 50.7683 13.4527C50.5717 13.5354 50.075 13.5044 49.7852 13.432C49.7438 13.5147 49.7231 13.5044 49.6921 13.6079L49.6817 13.6493C49.599 13.908 49.6507 14.5082 49.9818 14.6116L50.3751 14.7358C50.7476 14.8496 51.5547 14.7772 51.6789 14.8083L51.8755 14.8703L51.948 14.7669C52.1963 14.8496 52.3826 14.7772 52.455 14.7979L53.3139 15.067C53.8831 15.2429 53.5519 15.4291 53.7796 15.5016L54.2038 15.6361L54.6799 15.7396C54.7833 15.7085 55.0006 15.6671 55.042 15.5223L55.1559 15.1497C55.1766 15.067 55.1455 14.7255 55.0006 14.6841L54.5764 14.5496L53.1276 14.146L53.3346 13.4941L53.5002 13.4423L53.8727 13.5354C54.1107 13.6079 54.535 13.4527 54.6074 13.225L54.6385 13.1112C54.6799 12.9663 54.5764 13.0905 54.6281 12.8628C54.4315 12.749 54.566 12.6559 54.2452 12.4179C54.1418 12.3454 53.8003 12.0867 53.8417 11.9832L53.9865 11.5279C54.0072 11.4451 54.1107 11.383 54.1935 11.4244L54.9386 11.7556L55.1352 11.8073L55.4974 11.8694C55.725 11.6521 55.6836 11.9625 55.9423 11.6107C56.0665 11.4348 56.1182 11.2382 56.2942 11.2485L56.3976 10.907H56.5218L56.8219 10.0895C56.8943 9.89292 56.8116 9.41691 56.6149 9.36517C56.2321 9.25134 55.5387 9.48935 55.042 9.33413C54.9799 9.37552 54.9593 9.42726 54.8454 9.39622L54.6488 9.33413L54.7833 8.9202C54.8351 8.74429 54.5867 8.75463 54.6695 8.46489C54.8558 8.50628 54.9179 8.34071 55.1145 8.39245C55.3111 8.45454 55.5698 8.55802 55.7457 8.65115C55.9941 8.77533 56.0665 8.7029 56.2942 8.72359L56.3769 8.45454C56.439 8.23723 56.3769 8.09236 56.3873 7.87505L56.2735 7.83366C56.3149 7.6267 56.1907 7.51287 55.963 7.45078L55.8802 7.43008C55.6319 7.35765 55.2904 7.39904 54.98 7.36799C54.4729 7.36799 54.4625 7.24382 54.0486 7.35765L52.1342 6.91268C52.0825 6.99546 52.0618 6.99546 52.0308 7.09894L51.9583 7.3266C51.8755 7.606 52.0101 8.13375 52.2791 8.21654L52.5171 8.28897C52.455 8.49593 52.2481 8.74429 52.0825 8.73394L52.0308 8.88916C51.6375 8.9616 52.0928 9.12717 51.4513 9.13751C51.4409 9.13751 51.1408 9.17891 51.1201 9.17891C51.0166 9.1996 50.9235 9.26169 50.8821 9.39622L50.789 9.69631L50.8718 9.71701L50.7786 10.0171L50.6648 9.97571L50.6027 10.1827L50.5199 10.6069L50.0543 10.7725L49.7956 10.7104C49.7542 10.7001 49.5162 10.4414 49.423 10.3896L49.4955 10.162C49.5265 10.0585 50.3647 9.66527 50.4165 9.66527L50.6027 9.10647C50.6131 9.06508 50.3026 8.4028 50.2716 8.25793L49.7749 8.05097L49.6921 8.15445L49.5472 8.11305L49.4644 8.37176L49.3506 8.33036C49.2057 8.67185 48.8332 8.65115 48.6469 8.9409L48.4089 8.87881ZM50.9856 13.7528C50.8407 13.5975 52.3101 13.1422 52.2688 13.2974L52.0928 13.9804C51.6686 13.939 51.296 13.8562 50.9856 13.7528ZM54.2659 10.4C54.5971 10.3275 54.9593 10.3379 55.3835 10.4828C55.5594 10.6483 55.5594 10.7932 55.3835 10.907C55.1248 11.1036 54.6592 11.083 54.1314 11.0002C54.1107 10.8449 54.1728 10.638 54.2659 10.4Z" fill="#1971AF"/>
<path d="M44 88C32.2446 88 21.1928 83.4261 12.8833 75.1166C4.57385 66.7968 0 55.7554 0 44C0 32.2446 4.57385 21.2032 12.8833 12.8833C21.1928 4.57385 32.2446 0 44 0C55.7554 0 66.8071 4.57385 75.1166 12.8833C83.4261 21.1928 88 32.2446 88 44C88 55.7554 83.4261 66.7968 75.1166 75.1166C66.7968 83.4261 55.7554 88 44 88ZM44 1.71778C20.6858 1.71778 1.71778 20.6858 1.71778 44C1.71778 67.3142 20.6858 86.2822 44 86.2822C67.3142 86.2822 86.2822 67.3142 86.2822 44C86.2822 20.6858 67.3142 1.71778 44 1.71778Z" fill="#1971AF"/>
<path d="M8.92048 41.0919C8.99292 41.1022 9.06535 41.1022 9.12744 41.1022C9.3758 41.1022 9.60345 41.0401 9.77937 40.9263C9.98633 40.7918 10.1622 40.5538 10.3071 40.233C10.3589 40.1399 10.4003 40.0467 10.4623 39.9536C10.5037 39.8398 10.5969 39.7259 10.721 39.6225C10.8349 39.5293 10.9797 39.4983 11.166 39.519C11.3833 39.5397 11.5489 39.6225 11.6627 39.757C11.7662 39.8812 11.8076 40.0157 11.7972 40.1709C11.7765 40.3468 11.6938 40.4814 11.5385 40.5745C11.373 40.6883 11.1453 40.7297 10.8866 40.6987L10.8142 40.6883L10.7521 41.185L10.8245 41.1954C10.897 41.2057 10.9694 41.2057 11.0315 41.2057C11.3419 41.2057 11.611 41.1333 11.8283 40.9781C12.087 40.8021 12.2422 40.5434 12.2733 40.233C12.3043 39.9329 12.2319 39.6535 12.0353 39.4258C11.8386 39.1878 11.5592 39.043 11.2178 39.0119C10.8866 38.9705 10.6176 39.0326 10.4106 39.1878C10.2554 39.3224 10.0898 39.55 9.93459 39.8812C9.78972 40.1916 9.64485 40.3986 9.51032 40.4917C9.3758 40.5952 9.18953 40.6262 8.94118 40.5952C8.72387 40.5745 8.5583 40.4813 8.42377 40.3365C8.2996 40.1916 8.2582 40.0467 8.2789 39.8708C8.2996 39.6535 8.40308 39.4879 8.58934 39.3638C8.77561 39.2396 9.02396 39.1878 9.31371 39.2189L9.38614 39.2292L9.44823 38.7325L9.34475 38.7222C8.91013 38.6704 8.54795 38.7532 8.26855 38.9498C7.98915 39.1465 7.83393 39.4362 7.78219 39.8087C7.7408 40.1295 7.83393 40.4089 8.04089 40.6573C8.24786 40.9056 8.54795 41.0505 8.92048 41.0919Z" fill="#1971AF"/>
<path d="M8.17543 43.4099C8.56866 43.6375 9.11711 43.7617 9.78973 43.7928C9.87252 43.7928 9.9553 43.7928 10.0381 43.7928C10.6072 43.7928 11.0832 43.71 11.4351 43.5341C11.8593 43.3374 12.0767 43.0477 12.087 42.6855C12.0974 42.3233 11.9007 42.0232 11.4972 41.8059C11.1039 41.5886 10.5555 41.4644 9.87252 41.4437C9.18954 41.4127 8.6411 41.4955 8.22717 41.6817C7.8029 41.8784 7.57524 42.1578 7.5649 42.5199C7.5649 42.8821 7.76151 43.1822 8.17543 43.4099ZM8.0616 42.5406C8.07195 42.344 8.21682 42.1888 8.51692 42.0853C8.79632 41.9922 9.1585 41.9404 9.59312 41.9404C9.6759 41.9404 9.75869 41.9404 9.85182 41.9404C10.4106 41.9611 10.8556 42.0439 11.1764 42.1888C11.4661 42.3233 11.6006 42.4785 11.5903 42.6752C11.5799 42.8718 11.4351 43.027 11.135 43.1408C10.8142 43.265 10.3589 43.3167 9.80008 43.296C9.24128 43.2754 8.79632 43.1822 8.47553 43.0373C8.19613 42.9028 8.0616 42.7373 8.0616 42.5406Z" fill="#1971AF"/>
<path d="M8.77563 46.3489C8.79632 46.3489 8.82737 46.3489 8.84806 46.3489L12.0249 46.2351L12.0042 45.7487L8.82737 45.8626C8.57901 45.8729 8.3824 45.8212 8.24788 45.7073C8.1237 45.6039 8.06161 45.459 8.05126 45.2727C8.04091 45.0865 8.103 44.9416 8.21683 44.8278C8.34101 44.7036 8.53762 44.6311 8.77563 44.6311L11.9525 44.5173L11.9318 44.031L8.75493 44.1448C8.3617 44.1551 8.06161 44.2793 7.8443 44.507C7.63734 44.7139 7.54421 44.983 7.55455 45.3038C7.5649 45.6142 7.67873 45.8729 7.89604 46.0695C8.13405 46.2558 8.42379 46.3489 8.77563 46.3489Z" fill="#1971AF"/>
<path d="M11.8076 48.7909L12.294 48.7288L12.0353 46.4108L11.5489 46.4729L11.6524 47.3835L7.86503 47.8078L7.91677 48.2838L11.7042 47.8699L11.8076 48.7909Z" fill="#1971AF"/>
<path d="M12.6766 50.7778L10.9071 51.1193L10.6795 49.9189L12.449 49.5671L12.3559 49.091L8.13384 49.9189L8.22697 50.3949L10.1931 50.012L10.4311 51.2124L8.46498 51.5953L8.55811 52.0816L12.7698 51.2538L12.6766 50.7778Z" fill="#1971AF"/>
<path d="M13.8253 54.855L10.8865 55.3517L13.5459 53.9754L13.3286 53.2614L10.338 53.6236L13.0492 52.3818L12.8526 51.7506L8.95138 53.6753L9.14799 54.3065L12.3352 53.9444L9.49982 55.4448L9.70679 56.1071L14.0116 55.4552L13.8253 54.855Z" fill="#1971AF"/>
<path d="M12.1387 56.9453L12.7389 58.3422L13.1839 58.1456L12.5941 56.759L13.8358 56.2209L14.5085 57.7731L14.9638 57.5868L14.1049 55.5793L10.1519 57.2764L11.0315 59.3357L11.4868 59.139L10.7935 57.5247L12.1387 56.9453Z" fill="#1971AF"/>
<path d="M13.9288 60.6187C14.022 60.3911 14.0427 60.1013 13.9806 59.7495C13.9702 59.646 13.9599 59.5425 13.9495 59.4287C13.9185 59.3045 13.9288 59.17 13.9806 59.0148C14.022 58.8699 14.1254 58.7664 14.291 58.6836C14.4876 58.5801 14.6635 58.5594 14.8395 58.6008C14.9947 58.6422 15.1085 58.725 15.1809 58.8699C15.2637 59.0251 15.2637 59.1803 15.1913 59.3562C15.1189 59.5425 14.9533 59.6977 14.7256 59.8219L14.6635 59.853L14.8912 60.2979L14.9636 60.2565C15.3258 60.0599 15.5638 59.8116 15.6776 59.5115C15.7915 59.2217 15.7811 58.9216 15.6363 58.6422C15.4914 58.3732 15.2741 58.1869 14.9843 58.1041C14.6842 58.0213 14.3841 58.0524 14.0737 58.2076C13.7839 58.3628 13.5873 58.5594 13.5045 58.8078C13.4321 59.0044 13.4218 59.2838 13.4839 59.646C13.5356 59.9875 13.5356 60.2358 13.4735 60.3911C13.4218 60.5463 13.2769 60.6808 13.0596 60.7946C12.863 60.8981 12.6767 60.9188 12.4904 60.8671C12.3145 60.8153 12.1903 60.7222 12.1076 60.567C12.0041 60.3704 11.9937 60.1841 12.0869 59.9771C12.1696 59.7598 12.3559 59.5839 12.6146 59.4494L12.6767 59.4183L12.418 58.9837L12.3249 59.0355C11.9316 59.2321 11.6833 59.5011 11.5591 59.8323C11.4453 60.153 11.466 60.4842 11.6419 60.8153C11.7868 61.1051 12.0248 61.2913 12.3249 61.3741C12.4284 61.4052 12.5422 61.4155 12.6457 61.4155C12.863 61.4155 13.0803 61.3534 13.2976 61.2396C13.6184 61.0844 13.8253 60.8671 13.9288 60.6187Z" fill="#1971AF"/>
<path d="M16.992 62.1813L17.4163 61.9226L16.1849 59.9358L15.7606 60.2049L16.2469 60.981L13.0183 62.9988L13.2771 63.4128L16.5056 61.3949L16.992 62.1813Z" fill="#1971AF"/>
<path d="M14.8602 64.8821L16.0295 64.0025L16.9298 65.2133L17.3334 64.9235L16.4331 63.7128L17.5196 62.8953L18.5234 64.2612L18.927 63.9612L17.6231 62.2123L14.1668 64.7786L15.5121 66.5792L15.9053 66.2895L14.8602 64.8821Z" fill="#1971AF"/>
<path d="M18.2957 67.0862C18.3578 66.962 18.3888 66.8275 18.3681 66.693C18.5233 66.7447 18.6785 66.7551 18.8441 66.724C19.0614 66.6826 19.2684 66.5792 19.4753 66.4032C19.7547 66.1652 19.8996 65.8858 19.91 65.565C19.9203 65.2753 19.8272 65.0062 19.6306 64.7786L18.927 63.9612L15.6569 66.7551L15.9777 67.1276L17.385 65.9272L17.7886 66.4032C17.9024 66.5378 17.9438 66.6619 17.9128 66.7551C17.8921 66.8379 17.799 66.9931 17.4885 67.2932L17.0953 67.6761C17.0229 67.7485 16.9608 67.8209 16.9194 67.8727C16.8676 67.9348 16.8366 67.9865 16.8055 68.0382L16.7848 68.0796L17.1056 68.4625L17.2298 68.359V68.328C17.2298 68.2969 17.2505 68.2555 17.2712 68.2141C17.3022 68.1624 17.354 68.1003 17.4161 68.0382L17.861 67.5933C18.0991 67.3656 18.2439 67.2 18.2957 67.0862ZM18.8648 64.6544L19.2994 65.1615C19.3926 65.2649 19.4236 65.3891 19.4029 65.5547C19.3822 65.741 19.2994 65.9065 19.1339 66.0411C18.9269 66.217 18.7406 66.2998 18.5544 66.2791C18.3991 66.2687 18.2439 66.1756 18.0991 65.9997L17.7576 65.6064L18.8648 64.6544Z" fill="#1971AF"/>
<path d="M21.7833 67.076L19.5998 69.2698L20.5933 66.9414L20.9244 66.2274L20.5829 65.8756L17.5406 68.9179L17.8717 69.2491L20.0552 67.0553L19.0514 69.3732L18.741 70.1183L19.0721 70.4494L22.1144 67.4071L21.7833 67.076Z" fill="#1971AF"/>
<path d="M25.1358 69.9114L24.753 69.6113L22.7972 72.1155C22.642 72.3122 22.4764 72.426 22.3005 72.4467C22.1452 72.4777 21.99 72.426 21.8451 72.3122C21.7003 72.1983 21.6175 72.0638 21.6071 71.8982C21.5968 71.7223 21.6589 71.5361 21.8141 71.3394L23.7699 68.8352L23.387 68.5351L21.4312 71.0393C21.1932 71.3498 21.0897 71.6602 21.1208 71.9707C21.1518 72.2604 21.2967 72.5088 21.5451 72.7054C21.752 72.871 21.9797 72.9434 22.2073 72.9434C22.2591 72.9434 22.3005 72.9434 22.3522 72.933C22.6626 72.8917 22.942 72.7157 23.1801 72.4053L25.1358 69.9114Z" fill="#1971AF"/>
<path d="M26.8433 71.0601L25.1359 73.6367L25.6429 71.1532L25.8292 70.3874L25.4256 70.1184L23.0456 73.7092L23.4388 73.9575L25.1462 71.3705L24.6185 73.8541L24.4633 74.6405L24.8565 74.8992L27.2262 71.3188L26.8433 71.0601Z" fill="#1971AF"/>
<path d="M27.7648 71.613L25.6098 75.3397L26.0309 75.5831L28.1859 71.8565L27.7648 71.613Z" fill="#1971AF"/>
<path d="M30.5687 75.6546L31.9657 76.2238L32.1519 75.7684L30.7549 75.1993L31.262 73.9368L32.8246 74.5784L33.0108 74.1127L30.9929 73.3056L30.6308 73.1297L28.4059 75.7788L29.151 72.4053L28.6957 72.1777L27.7643 76.5135L28.199 76.7205L30.8791 73.585L29.3786 77.2896L31.4586 78.1278L31.6449 77.6725L30.0202 77.0102L30.5687 75.6546Z" fill="#1971AF"/>
<path d="M34.1594 76.8032C34.3147 76.7618 34.4595 76.6894 34.5837 76.5859C34.7493 76.441 34.8735 76.234 34.9459 75.9857C35.0597 75.6442 35.0287 75.3234 34.8735 75.044C34.7286 74.7853 34.5113 74.6094 34.2215 74.5163L33.1971 74.1851L31.8829 78.283L32.3485 78.4278L32.9177 76.6687L33.5075 76.8549C33.6731 76.9067 33.7766 76.9894 33.7973 77.0929C33.818 77.1757 33.818 77.3516 33.7248 77.7759L33.5903 78.3036C33.5696 78.4071 33.5489 78.4899 33.5489 78.5624C33.5386 78.6451 33.5386 78.7072 33.5386 78.759L33.5489 78.8107L34.0249 78.9659L34.0767 78.8107L34.0663 78.7797C34.0456 78.7486 34.0456 78.7072 34.0456 78.6555C34.0456 78.5934 34.056 78.5106 34.0767 78.4278L34.2215 77.8173C34.294 77.5069 34.325 77.2895 34.3147 77.1654C34.3043 77.0412 34.2526 76.917 34.1594 76.8032ZM34.1077 76.3479C33.9628 76.4203 33.7869 76.4203 33.5696 76.3582L33.0729 76.203L33.5179 74.806L34.1491 75.013C34.2836 75.0544 34.3767 75.1475 34.4492 75.2924C34.532 75.4683 34.5423 75.6442 34.4802 75.8512C34.3871 76.0995 34.2629 76.2651 34.1077 76.3479Z" fill="#1971AF"/>
<path d="M36.488 75.044C36.1879 74.9715 35.9085 75.0233 35.6498 75.1888C35.3911 75.3544 35.2152 75.6131 35.1324 75.9442C35.0599 76.265 35.0806 76.5444 35.2048 76.7617C35.3083 76.948 35.5153 77.1343 35.8257 77.3309C36.1154 77.5172 36.3017 77.6827 36.3845 77.8276C36.4673 77.9725 36.4776 78.1691 36.4155 78.4071C36.3638 78.6244 36.2603 78.7796 36.0947 78.8831C35.9395 78.9866 35.7843 79.0176 35.6187 78.9762C35.4014 78.9245 35.2566 78.8003 35.1531 78.6141C35.0496 78.4071 35.0289 78.1587 35.1013 77.869L35.122 77.7965L34.6357 77.6827L34.615 77.7862C34.5115 78.2105 34.5425 78.583 34.7081 78.8831C34.8737 79.1832 35.1427 79.3798 35.5049 79.4626C35.598 79.4833 35.6912 79.4936 35.7843 79.4936C35.9913 79.4936 36.1982 79.4315 36.3845 79.3074C36.6535 79.1314 36.8398 78.852 36.9329 78.4795C37.0157 78.138 36.995 77.8483 36.8709 77.6103C36.757 77.393 36.5501 77.186 36.25 76.9997C36.1672 76.9377 36.0844 76.8859 35.9913 76.8135C35.8774 76.7514 35.7843 76.6583 35.7015 76.5237C35.6291 76.3996 35.6084 76.2443 35.6498 76.0788C35.7015 75.8615 35.7947 75.7166 35.9395 75.6131C36.074 75.52 36.2086 75.4993 36.3741 75.5303C36.5501 75.5717 36.6639 75.6752 36.7467 75.8408C36.8398 76.0167 36.8502 76.2443 36.7984 76.503L36.7777 76.5755L37.2537 76.679L37.2744 76.6065C37.3676 76.2133 37.3365 75.8615 37.1813 75.5821C37.0261 75.2923 36.7984 75.1164 36.488 75.044Z" fill="#1971AF"/>
<path d="M38.1285 75.4978L37.3833 79.7376L37.8623 79.8218L38.6075 75.582L38.1285 75.4978Z" fill="#1971AF"/>
<path d="M39.1164 76.1823L40.027 76.2857L39.6028 80.0731L40.0788 80.1249L40.5134 76.3478L41.4344 76.4513L41.4861 75.9546L39.1785 75.6959L39.1164 76.1823Z" fill="#1971AF"/>
<path d="M43.1003 77.869L42.3552 76.0064L41.7964 75.9857L42.8519 78.4278L42.8002 80.3112L43.2865 80.3319L43.3383 78.4485L44.4869 76.0581L43.9281 76.0374L43.1003 77.869Z" fill="#1971AF"/>
<path d="M48.2641 76.2857C48.0054 75.9028 47.695 75.7165 47.3328 75.7579C46.9706 75.7993 46.7119 76.0373 46.536 76.4616C46.3808 76.8858 46.3394 77.4446 46.4118 78.1173C46.4842 78.7899 46.6395 79.328 46.8775 79.7109C47.1051 80.0731 47.3845 80.2593 47.7053 80.2593C47.7364 80.2593 47.7674 80.2593 47.7984 80.2593C48.1606 80.2179 48.4297 79.9799 48.5952 79.5453C48.7608 79.121 48.8126 78.5622 48.7401 77.8896C48.678 77.1963 48.5125 76.6582 48.2641 76.2857ZM48.1917 79.2763C48.0985 79.5867 47.9537 79.7523 47.7571 79.773C47.5604 79.7937 47.3845 79.6591 47.2397 79.3797C47.0741 79.0693 46.9603 78.6347 46.9085 78.0759C46.8464 77.5171 46.8671 77.0618 46.9706 76.7306C47.0637 76.4305 47.1983 76.265 47.3949 76.2443C47.4052 76.2443 47.4259 76.2443 47.4363 76.2443C47.6122 76.2443 47.7778 76.3788 47.9226 76.6271C48.0985 76.9272 48.2124 77.3722 48.2641 77.931C48.3262 78.4898 48.2952 78.9348 48.1917 79.2763Z" fill="#1971AF"/>
<path d="M51.0476 77.1551L49.5781 77.4241L49.3298 76.0996L50.9855 75.7891L50.8923 75.3028L48.7606 75.696L49.5471 79.9284L50.0231 79.8353L49.6713 77.9105L51.1303 77.6415L51.0476 77.1551Z" fill="#1971AF"/>
<path d="M54.7314 76.1511L53.3033 76.5858L52.9101 75.2923L54.5141 74.8059L54.3692 74.3299L52.2996 74.9611L53.5517 79.0796L54.0174 78.9348L53.4482 77.0618L54.8763 76.6272L54.7314 76.1511Z" fill="#1971AF"/>
<path d="M55.1427 74.0489L54.6855 74.2147L56.153 78.2616L56.6102 78.0958L55.1427 74.0489Z" fill="#1971AF"/>
<path d="M57.1424 73.233L58.3531 76.0684L56.5629 74.2885L56.0248 73.709L55.5798 73.8953L57.2666 77.8482L57.6908 77.6723L56.4698 74.8163L58.2496 76.6272L58.8188 77.186L59.2534 76.9997L57.5667 73.0467L57.1424 73.233Z" fill="#1971AF"/>
<path d="M58.8914 72.281L60.0504 76.6272L60.4747 76.3996L60.1332 75.1474L60.9921 74.6818L61.8613 75.6545L62.2856 75.4268L59.2847 72.0637L58.8914 72.281ZM60.6609 74.3299L59.9987 74.6818L59.5434 73.0468L60.6609 74.3299Z" fill="#1971AF"/>
<path d="M61.7474 70.677L63.4134 73.2847L61.3541 71.8153L60.7229 71.3289L60.3193 71.598L62.6373 75.2198L63.0202 74.9714L61.3541 72.3534L63.4031 73.8435L64.0653 74.3092L64.4586 74.0505L62.1406 70.4286L61.7474 70.677Z" fill="#1971AF"/>
<path d="M65.8867 71.122L65.4935 71.4118L65.5349 71.4739C65.7108 71.7429 65.8039 72.0016 65.8143 72.25C65.8246 72.4673 65.7729 72.6122 65.6591 72.7053C65.4831 72.8398 65.2451 72.8295 64.9554 72.6846C64.6346 72.519 64.3035 72.1982 63.962 71.7533C63.6205 71.298 63.4135 70.9047 63.3411 70.5633C63.279 70.2528 63.3411 70.0355 63.517 69.901C63.6205 69.8182 63.7654 69.8078 63.9516 69.8596C64.1689 69.9217 64.3759 70.0458 64.5622 70.2528L64.6036 70.3046L64.9864 70.0148L64.9347 69.9527C64.676 69.6423 64.3759 69.4457 64.0551 69.3629C63.7343 69.2801 63.4549 69.3318 63.2169 69.5077C62.9168 69.7354 62.7823 70.0872 62.8444 70.5529C62.9065 71.0082 63.1445 71.5256 63.5584 72.0741C63.9723 72.6225 64.3966 72.995 64.8209 73.1917C65.0175 73.2744 65.2038 73.3262 65.3693 73.3262C65.5763 73.3262 65.7625 73.2641 65.9281 73.1399C66.1661 72.9537 66.2903 72.6846 66.2903 72.3328C66.2903 71.9706 66.1661 71.5981 65.9178 71.2152L65.8867 71.122Z" fill="#1971AF"/>
<path d="M67.1799 71.3497L66.2072 70.2424L67.3455 69.249L67.0247 68.8765L65.8864 69.8802L64.9862 68.8558L66.259 67.7382L65.9382 67.3657L64.2928 68.804L67.1385 72.043L68.8253 70.5529L68.4942 70.1803L67.1799 71.3497Z" fill="#1971AF"/>
<path d="M67.6873 65.441L70.264 69.1249L70.5847 68.7731L69.8293 67.7176L70.4813 66.9828L71.6299 67.5934L71.9507 67.2312L67.977 65.1098L67.6873 65.441ZM70.057 66.7552L69.5499 67.314L68.5565 65.9273L70.057 66.7552Z" fill="#1971AF"/>
<path d="M69.8292 62.9575L72.2817 64.8305L69.8499 64.1579L69.0944 63.9199L68.7944 64.3028L72.2092 66.9208L72.499 66.5483L70.0361 64.6649L72.4679 65.3686L73.244 65.5756L73.5234 65.203L70.1086 62.585L69.8292 62.9575Z" fill="#1971AF"/>
<path d="M73.306 61.633C72.7472 61.2708 72.2402 61.0846 71.7745 61.0846C71.3295 61.0846 70.988 61.2605 70.7707 61.5916L70.243 62.3988L73.8441 64.7478L74.3719 63.9406C74.5892 63.6095 74.6099 63.2266 74.434 62.823C74.2477 62.3988 73.8752 61.9952 73.306 61.633ZM70.926 62.2642L71.1433 61.9331C71.2985 61.6951 71.5158 61.5813 71.8055 61.5813H71.8469C72.1781 61.5916 72.5816 61.7468 73.0473 62.0469C73.5233 62.3574 73.8338 62.6575 73.9683 62.9576C74.1028 63.2266 74.0821 63.475 73.9165 63.7337L73.6992 64.0648L70.926 62.2642Z" fill="#1971AF"/>
<path d="M76.038 60.0911L74.7134 59.4599L75.3757 58.0939L74.9307 57.8766L74.2685 59.2426L73.0474 58.6527L73.7821 57.1316L73.3371 56.9142L72.3955 58.8804L76.2656 60.743L77.2487 58.7252L76.7934 58.5079L76.038 60.0911Z" fill="#1971AF"/>
<path d="M76.8968 55.7551L76.8244 55.7241L76.6485 56.1794L76.7106 56.2105C77.0003 56.3553 77.2176 56.5209 77.3521 56.7279C77.4763 56.9038 77.5074 57.059 77.4556 57.1935C77.3728 57.4005 77.1762 57.5143 76.8451 57.535C76.4829 57.5557 76.0379 57.4626 75.5102 57.2556C74.9824 57.0487 74.5996 56.8107 74.3616 56.5623C74.1442 56.3243 74.0822 56.107 74.1649 55.9C74.2167 55.7758 74.3305 55.6931 74.5168 55.6413C74.7341 55.5792 74.9721 55.5792 75.2411 55.662L75.3032 55.6827L75.4791 55.2377L75.4067 55.217C75.0238 55.0929 74.672 55.0722 74.3512 55.1757C74.0304 55.2791 73.8235 55.4654 73.7096 55.7345C73.5648 56.0863 73.6475 56.4588 73.9269 56.821C74.2167 57.1832 74.6824 57.4936 75.3239 57.7523C75.8413 57.9593 76.307 58.0628 76.7106 58.0628C76.8037 58.0628 76.8968 58.0524 76.9796 58.0421C77.4453 57.98 77.7557 57.773 77.9006 57.4108C78.0144 57.1314 77.973 56.8314 77.7971 56.5313C77.6212 56.2105 77.3108 55.9518 76.8968 55.7551Z" fill="#1971AF"/>
<path d="M77.0002 53.0336C76.3483 52.8267 75.7895 52.7646 75.3445 52.8474C74.8892 52.9302 74.5994 53.1475 74.496 53.489C74.3925 53.8305 74.5063 54.1719 74.8375 54.4927C75.1582 54.8032 75.655 55.0619 76.3069 55.2688C76.7932 55.4241 77.2175 55.4965 77.59 55.4965C77.7142 55.4965 77.8384 55.4861 77.9522 55.4654C78.4179 55.393 78.7076 55.1757 78.8111 54.8342C78.9146 54.4824 78.8008 54.1409 78.4696 53.8201C78.1488 53.4993 77.6521 53.2303 77.0002 53.0336ZM78.3455 54.6893C78.2834 54.8756 78.0971 54.9894 77.7867 55.0101C77.4348 55.0412 76.9899 54.9687 76.4518 54.8032C75.9137 54.6376 75.5101 54.441 75.241 54.2133C74.9927 54.0064 74.9099 53.8201 74.9616 53.6338C75.0237 53.4476 75.21 53.3337 75.5204 53.3027C75.5825 53.2924 75.655 53.2924 75.717 53.2924C76.0275 53.2924 76.4104 53.3648 76.845 53.4993C77.3831 53.6649 77.7867 53.8718 78.0557 54.0995C78.3144 54.3065 78.4075 54.5031 78.3455 54.6893Z" fill="#1971AF"/>
<path d="M75.3656 50.5708L78.3769 51.2641L75.883 51.6574L75.0966 51.7505L74.9931 52.2265L79.1841 53.1785L79.2875 52.7336L76.2659 52.0402L78.7598 51.6677L79.5566 51.5332L79.6601 51.0779L75.4691 50.1155L75.3656 50.5708Z" fill="#1971AF"/>
<path d="M79.5566 48.4701C79.1944 48.201 78.6666 48.0147 77.994 47.9216C77.3214 47.8181 76.7626 47.8388 76.328 47.994C75.8934 48.1493 75.6347 48.408 75.5829 48.7598C75.5312 49.1116 75.6967 49.4324 76.0693 49.7015C76.4418 49.9602 76.9696 50.1361 77.6422 50.2396C77.9319 50.281 78.1906 50.3017 78.4286 50.3017C78.7598 50.3017 79.0495 50.2603 79.2979 50.1878C79.7428 50.043 80.0015 49.7843 80.0533 49.4324C80.105 49.0599 79.9395 48.7391 79.5566 48.4701ZM79.5669 49.3496C79.5359 49.5463 79.3703 49.6808 79.0599 49.7532C78.7184 49.836 78.2631 49.836 77.7146 49.7532C77.1558 49.6704 76.7315 49.5359 76.4314 49.36C76.1624 49.1944 76.0382 49.0185 76.0693 48.8322C76.1003 48.6356 76.2659 48.5011 76.5763 48.4183C76.7522 48.3666 76.9592 48.3459 77.1972 48.3459C77.4145 48.3459 77.6629 48.3666 77.9216 48.408C78.4804 48.4908 78.9046 48.6253 79.2047 48.8115C79.4841 48.9771 79.598 49.153 79.5669 49.3496Z" fill="#1971AF"/>
<path d="M80.3532 44.8275L76.0588 44.5688L76.0174 45.2414L76.9384 45.5415L79.0494 46.1831L75.9243 46.7419L75.8829 47.4249L80.1773 47.6836L80.2084 47.1455L77.5282 46.9799L80.2498 46.5039L80.2808 46.0072L77.6317 45.2104L80.3222 45.3656L80.3532 44.8275Z" fill="#1971AF"/>
<path d="M80.3248 43.1524L76.0208 43.2298L76.0296 43.7161L80.3335 43.6386L80.3248 43.1524Z" fill="#1971AF"/>
<path d="M78.739 40.0572H78.6252L78.6666 40.5436H78.7597C79.0701 40.5436 79.3392 40.6057 79.5461 40.7298C79.7324 40.8333 79.8359 40.9575 79.8462 41.1024C79.8669 41.33 79.7324 41.5163 79.453 41.6819C79.1426 41.8578 78.6976 41.9716 78.1285 42.0233C77.5697 42.0647 77.1143 42.0233 76.7936 41.8992C76.4935 41.7853 76.3486 41.6094 76.3279 41.3921C76.3176 41.2576 76.3796 41.1334 76.5245 40.9989C76.6901 40.8437 76.9074 40.7505 77.1764 40.6988L77.2385 40.6884L77.1971 40.2124L77.1143 40.2228C76.7211 40.2745 76.39 40.4194 76.1416 40.6574C75.9036 40.8851 75.7898 41.1541 75.8105 41.4335C75.8415 41.8164 76.0692 42.1061 76.4831 42.3027C76.8143 42.458 77.2282 42.5407 77.7249 42.5407C77.8594 42.5407 78.0043 42.5304 78.1492 42.52C78.8321 42.4683 79.3806 42.3131 79.7635 42.0544C80.1567 41.7957 80.3429 41.4645 80.3119 41.0817C80.2912 40.7816 80.1256 40.5332 79.8255 40.347C79.5565 40.1503 79.184 40.0572 78.739 40.0572Z" fill="#1971AF"/>
<path d="M76.007 39.8192C76.2037 39.9537 76.4313 40.0261 76.6797 40.0261C76.7521 40.0261 76.8245 40.0158 76.9073 40.0054C77.2281 39.9537 77.4765 39.8295 77.6421 39.6226C77.7766 39.457 77.8697 39.1983 77.9318 38.8361C77.9939 38.4946 78.0767 38.267 78.1802 38.1324C78.2836 37.9979 78.4595 37.9151 78.7079 37.8841C78.9252 37.853 79.1115 37.8841 79.2667 37.9979C79.4219 38.1014 79.5047 38.2359 79.5357 38.4118C79.5668 38.6291 79.515 38.8154 79.3702 38.981C79.215 39.1569 78.9976 39.2707 78.7079 39.3121L78.6148 39.3225L78.6872 39.8192L78.7907 39.7985C79.2253 39.7364 79.5564 39.5605 79.7737 39.2914C79.9911 39.0327 80.0635 38.7016 80.0118 38.3394C79.96 38.0186 79.8048 37.7702 79.5461 37.584C79.277 37.3977 78.9459 37.3356 78.5734 37.3977C78.2319 37.4495 77.9628 37.584 77.7869 37.7909C77.6317 37.9772 77.5179 38.2463 77.4558 38.5981C77.4351 38.7016 77.4144 38.8051 77.3833 38.9085C77.373 39.0327 77.3213 39.1672 77.2281 39.2914C77.135 39.4052 77.0108 39.4777 76.8349 39.5087C76.6176 39.5398 76.4417 39.5087 76.2865 39.4156C76.1519 39.3328 76.0795 39.2086 76.0484 39.0431C76.0174 38.8671 76.0691 38.7223 76.1933 38.5774C76.3278 38.4222 76.5245 38.329 76.7832 38.2773L76.8556 38.267L76.7832 37.7702L76.7107 37.7806C76.3071 37.853 76.007 38.0083 75.8001 38.2566C75.5931 38.4946 75.5207 38.7844 75.5621 39.0948C75.6035 39.4052 75.7483 39.6432 76.007 39.8192Z" fill="#1971AF"/>
<path d="M42.0136 36.4872C42.5621 36.0526 43.2554 35.7835 44.0005 35.7835C44.7455 35.7835 45.4492 36.0526 45.9873 36.4872V28.1259H42.0136V36.4872Z" fill="#1971AF"/>
<path d="M42.5829 65.4308C42.376 65.4205 42.2207 65.5136 42.0966 65.7206C41.9931 65.8861 41.931 66.1034 41.9206 66.3621C41.9103 66.5794 41.931 66.7761 42.0034 66.952C42.1069 67.221 42.2932 67.3659 42.5622 67.3866C42.7071 67.3969 42.883 67.3452 43.0693 67.2314C43.121 67.0348 43.1521 66.8692 43.1521 66.7243C43.1728 66.3414 43.1314 66.031 43.0279 65.8033C42.9348 65.5653 42.7795 65.4412 42.5829 65.4308Z" fill="#1971AF"/>
<path d="M33.0627 57.6594H40.6374V32.3066H36.3223V48.8118C36.3223 52.1852 35.1012 55.2793 33.0627 57.6594Z" fill="#1971AF"/>
<path d="M34.4696 46.4213V41.5784H23.987C25.1874 31.5822 33.6831 23.8419 44.0002 23.8419C52.8788 23.8419 60.4226 29.585 63.113 37.5634H69.7255C66.8487 26.0356 56.4282 17.4881 44.0105 17.4881C30.1855 17.4881 18.8337 28.0742 17.6126 41.5784C17.5401 42.3752 17.4988 43.1824 17.4988 43.9999C17.4988 44.8174 17.5401 45.6245 17.6126 46.4213H34.4696Z" fill="#1971AF"/>
<path d="M70.3985 41.5784H53.5208V46.4213H64.0137C62.8237 56.4072 54.3176 64.1579 44.0005 64.1579C35.1219 64.1579 27.5781 58.4147 24.8876 50.4364H18.2752C21.152 61.9641 31.5725 70.5116 43.9902 70.5116C57.8152 70.5116 69.167 59.9256 70.3881 46.4213C70.4605 45.6245 70.5019 44.8174 70.5019 43.9999C70.5019 43.1824 70.4709 42.3752 70.3985 41.5784ZM40.151 65.6274L39.6543 68.1419C39.6129 68.3592 39.6129 68.5041 39.6543 68.5766C39.6957 68.649 39.8303 68.7111 40.0579 68.7732L39.9855 68.9698C39.7061 68.8973 39.437 68.8249 39.1576 68.7732C38.9714 68.7421 38.723 68.7007 38.4022 68.6593L38.4229 68.442C38.6299 68.4834 38.7748 68.4731 38.8679 68.4213C38.9507 68.3696 39.0128 68.2351 39.0542 68.0178L39.4991 65.7722C39.5509 65.5032 39.5095 65.3583 39.3853 65.3376C39.3749 65.3376 39.2922 65.3376 39.1576 65.3583L39.1266 65.1617C39.4267 65.0996 39.7992 65.0065 40.2235 64.8616L40.3166 64.9651C40.2338 65.2548 40.1821 65.4721 40.151 65.6274ZM43.1209 68.4627C42.6346 68.9905 42.0344 69.2492 41.31 69.2285L41.2686 69.0836C41.724 69.0215 42.0965 68.8559 42.3655 68.5766C42.5932 68.3489 42.7898 68.0178 42.945 67.5831C42.676 67.697 42.4276 67.7384 42.2 67.728C41.8792 67.7073 41.6412 67.5728 41.4652 67.3141C41.31 67.0864 41.2479 66.8277 41.2686 66.5276C41.2997 66.1137 41.4446 65.7722 41.7343 65.5135C42.0034 65.2755 42.3034 65.1617 42.6449 65.1824C42.9864 65.2031 43.2658 65.348 43.4935 65.617C43.7522 65.9274 43.8557 66.3414 43.8246 66.8588C43.7832 67.459 43.5556 67.9971 43.1209 68.4627ZM46.8359 69.125C46.2771 69.1457 45.8425 69.1664 45.5217 69.1871C45.0767 69.2285 44.7352 69.2699 44.5179 69.3113L44.4351 69.1457C45.5217 67.9867 46.0391 67.1071 45.9977 66.5069C45.977 66.2172 45.8839 66.0102 45.7183 65.8654C45.5734 65.7412 45.3768 65.6791 45.1492 65.6998C44.8284 65.7205 44.6318 65.9378 44.5593 66.3517L44.3627 66.3103C44.4145 65.9378 44.549 65.648 44.7766 65.4514C44.9525 65.2962 45.1595 65.2134 45.3872 65.1927C45.708 65.172 45.9874 65.2548 46.215 65.4411C46.4634 65.6377 46.5979 65.9171 46.6186 66.2586C46.66 66.807 46.184 67.6142 45.2009 68.6697L45.2216 68.68C45.3665 68.649 45.5527 68.6283 45.7804 68.6076C45.8011 68.6076 45.8735 68.6076 46.0081 68.6076C46.1322 68.6076 46.215 68.6076 46.2461 68.6076C46.4634 68.5973 46.6186 68.5559 46.7221 68.4938C46.8049 68.442 46.8876 68.3489 46.9704 68.204L47.1153 68.2558C47.0015 68.5041 46.9083 68.7939 46.8359 69.125ZM49.5057 68.3385C49.216 68.6386 48.8952 68.8146 48.564 68.887C48.3571 68.9284 48.1811 68.918 48.0363 68.8663C47.8811 68.8146 47.7983 68.7214 47.7776 68.5972C47.7362 68.3903 47.8293 68.2661 48.0466 68.2247C48.1398 68.204 48.2743 68.2351 48.4399 68.3178C48.6054 68.4006 48.7503 68.4317 48.8848 68.4006C49.0504 68.3696 49.1746 68.2765 49.2677 68.1419C49.3712 67.9764 49.4022 67.7797 49.3505 67.5521C49.216 66.8588 48.5847 66.569 47.4671 66.7036L47.8914 64.9444L49.3608 64.6546L49.2263 65.2962L48.057 65.5342L47.9638 65.9585C48.2743 65.8964 48.6054 65.9378 48.9469 66.093C49.4126 66.2896 49.692 66.6311 49.7851 67.1175C49.8886 67.6245 49.7954 68.0385 49.5057 68.3385Z" fill="#1971AF"/>
<path d="M47.3635 32.3066V57.6594H54.9383C52.8997 55.2793 51.6683 52.1956 51.6683 48.8118V32.3066H47.3635Z" fill="#1971AF"/>
</svg>
