<svg width="88" height="88" viewBox="0 0 88 88" fill="none" xmlns="http://www.w3.org/2000/svg">
<path fill-rule="evenodd" clip-rule="evenodd" d="M44.0031 0C68.2368 0 88.0062 19.7632 88.0062 43.9969C88.0062 68.2306 68.243 88 44.0031 88C19.7632 88 0 68.2368 0 44.0031C0 19.7632 19.7632 0 44.0031 0ZM44.0031 1.26663C20.471 1.26663 1.27284 20.4648 1.27284 43.9969C1.27284 67.5352 20.471 86.7272 44.0031 86.7272C67.5414 86.7272 86.7334 67.529 86.7334 43.9969C86.7334 20.4648 67.5352 1.26663 44.0031 1.26663Z" fill="#A4130E"/>
<path fill-rule="evenodd" clip-rule="evenodd" d="M44.0032 2.87469C66.6536 2.87469 85.1253 21.3464 85.1253 43.9968C85.1253 66.6472 66.6536 85.119 44.0032 85.119C21.3528 85.119 2.88106 66.6472 2.88106 43.9968C2.87485 21.3526 21.3528 2.87469 44.0032 2.87469ZM22.1786 15.3113C22.1041 15.4044 22.0234 15.4976 21.9427 15.5907C21.9923 15.6652 22.042 15.7397 22.0855 15.8204C22.1538 15.777 22.2158 15.7335 22.2841 15.6838C22.4021 15.5907 22.5139 15.4914 22.6256 15.392C22.6691 15.3548 22.7126 15.3175 22.756 15.2803C22.8492 15.361 22.843 15.51 22.8305 15.6155L22.8119 15.7211C22.7995 15.777 22.7809 15.8391 22.7684 15.8949C22.7064 16.0936 22.6319 16.2799 22.5573 16.4724C22.5449 16.5096 22.5263 16.5469 22.5139 16.5841L22.4083 16.4972C22.3462 16.4538 22.2904 16.4165 22.2283 16.3792L22.0979 16.3109C22.0296 16.2799 21.9675 16.2489 21.8992 16.224C21.8309 16.1992 21.7626 16.1743 21.6943 16.1557C21.6012 16.1309 21.508 16.1061 21.4149 16.0874C21.3218 16.0688 21.2286 16.0502 21.1293 16.0378C20.9865 16.0191 20.8499 16.0067 20.7071 16.0005C20.5643 15.9943 20.4215 15.9943 20.2786 15.9943L21.9427 17.7018C22.011 17.6893 22.0793 17.6769 22.1475 17.6583L22.2779 17.6148C22.3152 17.6024 22.3524 17.5838 22.3897 17.5652L22.4828 17.5031L22.5325 17.4534C22.5573 17.4286 22.576 17.3975 22.5946 17.3665L22.6256 17.3044C22.6381 17.2733 22.6505 17.2361 22.6567 17.205C22.6753 17.0995 22.6815 16.9877 22.6815 16.8822C22.7374 16.8822 22.7933 16.8822 22.8492 16.8822C22.9671 16.6959 23.0913 16.5158 23.2093 16.3296C23.2279 16.3482 23.2403 16.373 23.259 16.3917C23.3645 16.5531 23.4328 16.7332 23.5011 16.907C23.5446 17.0188 23.5818 17.1367 23.6315 17.2485C23.141 18.1923 22.6505 19.1298 22.1786 20.0798C21.9302 20.5765 21.6881 21.0795 21.4521 21.5824C21.4025 21.6569 21.3466 21.7252 21.2783 21.7873C21.241 21.8245 21.1976 21.8618 21.1603 21.899C21.061 21.986 20.9554 22.0667 20.8623 22.1598C20.825 22.1971 20.7878 22.2405 20.7505 22.284L20.8623 22.4454L20.9368 22.5261L21.0113 22.5944L21.092 22.6441L21.1789 22.6752L21.2659 22.6876L21.3466 22.6814L21.4273 22.6565L21.5018 22.6193L21.5701 22.5696L21.6322 22.5075L21.6943 22.4392L21.7502 22.3647L21.8061 22.284L21.8619 22.1971L21.9116 22.1039L22.0047 21.9115C22.0482 21.8121 22.0917 21.7128 22.1351 21.6134L22.2096 21.4209C22.2717 21.2347 22.3338 21.0546 22.3897 20.8621C22.5387 20.5144 22.6691 20.1667 22.8057 19.8128C22.9113 19.5396 23.0168 19.2726 23.1348 19.0056C23.2031 18.8566 23.2714 18.7076 23.3397 18.5586C23.3956 18.453 23.4452 18.3475 23.5011 18.2482C23.6129 18.0495 23.7308 17.857 23.8799 17.6831C23.8861 17.7018 23.8923 17.7204 23.8985 17.7328C23.8612 17.7639 23.8364 17.7949 23.8054 17.8321C23.8178 17.8694 23.8302 17.9067 23.8488 17.9377C23.8861 18.0122 23.9482 18.0557 24.0102 18.1053C24.0351 18.1302 24.0661 18.1488 24.091 18.1674L24.1841 18.1302L24.2276 18.1053L24.2648 18.0743C24.1841 18.1985 24.1096 18.3227 24.0289 18.4468L24.3331 18.3537L24.3952 18.3289L24.507 18.2792C24.5628 18.2482 24.6125 18.2171 24.6622 18.1861L24.7615 18.1116C24.8112 18.0743 24.8547 18.0308 24.8981 17.9874C24.9416 17.9439 24.9788 17.9004 25.0223 17.857C25.0844 17.7825 25.1465 17.7018 25.2024 17.6148C25.3017 17.4658 25.3949 17.3106 25.488 17.1554C25.5439 17.2485 25.5935 17.3354 25.6494 17.4286C25.7612 17.6273 25.8667 17.8259 25.9599 18.0308C25.9909 18.0991 26.022 18.1736 26.0344 18.2482L26.0282 18.2978C26.0778 18.391 26.1275 18.4779 26.1772 18.5648C26.4131 18.9746 26.6615 19.372 26.9161 19.7694C27.1023 20.0612 27.2948 20.353 27.4749 20.651C27.301 20.6821 27.1272 20.7193 26.9595 20.769C26.9533 20.5206 26.9533 20.2785 26.9595 20.0301L26.8912 19.9742C26.8415 19.937 26.7919 19.8997 26.7422 19.8687C26.6801 19.8314 26.618 19.8004 26.5559 19.7694C26.5187 19.7569 26.4814 19.7383 26.4442 19.7259C26.3821 19.7073 26.3138 19.6948 26.2517 19.6886C26.2144 19.6824 26.171 19.6824 26.1337 19.6824C26.022 19.6886 25.9164 19.7073 25.8109 19.7445C25.8419 19.7011 25.8605 19.6638 25.8729 19.6141C25.8854 19.552 25.8854 19.4837 25.8854 19.4217C26.022 19.3285 26.1586 19.2478 26.2952 19.1609C26.1896 18.9932 26.0841 18.8318 25.9785 18.6642C25.8916 18.6766 25.8046 18.689 25.7239 18.7076C25.5935 18.7387 25.4694 18.7697 25.3452 18.8194C25.2086 18.8691 25.0782 18.9311 24.9478 18.987L25.0285 19.105L25.072 19.1547C25.103 19.1857 25.1279 19.2043 25.1651 19.2292C25.1962 19.2478 25.2272 19.2602 25.252 19.2788C25.3079 19.3037 25.37 19.3285 25.4135 19.3782C25.4694 19.4527 25.4632 19.5458 25.4632 19.6328C25.519 19.7197 25.5749 19.8066 25.6308 19.8997C25.6122 19.9743 25.5935 20.055 25.5998 20.1295C25.5252 20.0363 25.4445 19.9494 25.3638 19.8625C25.2334 19.7259 25.103 19.5955 24.9664 19.4713C24.805 19.3223 24.6436 19.1733 24.4821 19.0181L24.3393 18.869C24.2648 18.9063 24.1841 18.9436 24.1034 18.9808C24.1593 19.0739 24.2214 19.1671 24.2772 19.2602C24.538 19.7135 24.7429 20.1978 25.0285 20.6448C25.0223 20.6883 25.0285 20.7255 25.0285 20.7628L25.0471 20.8249C25.0596 20.8683 25.0782 20.9056 25.103 20.9491C25.1217 20.9801 25.1403 21.0049 25.1589 21.036C25.1962 21.0857 25.2396 21.1291 25.2831 21.1664C25.3141 21.1912 25.339 21.2098 25.37 21.2347C25.4259 21.2719 25.4756 21.2968 25.5314 21.3278C25.5687 21.3402 25.5998 21.3526 25.637 21.3651L25.7612 21.3899L25.8605 21.2843L25.9102 21.2098L25.9475 21.1291L25.9723 21.0484C25.9847 21.2595 25.9909 21.4644 25.9971 21.6755C25.9909 21.7873 25.9785 21.9052 25.9661 22.0232C25.9537 22.1474 25.935 22.2716 25.9164 22.3958C25.8729 22.6441 25.8171 22.8863 25.7674 23.1346C25.7239 23.2216 25.6743 23.3085 25.6308 23.3954C25.6122 23.4389 25.5935 23.4823 25.5811 23.5258C25.5687 23.5693 25.5625 23.6065 25.5625 23.65C25.5625 23.7059 25.5687 23.7555 25.5811 23.8114C25.5998 23.8859 25.6246 23.9542 25.6432 24.0225L25.8233 23.8983L25.8978 23.8362L25.9661 23.7679L26.0344 23.6934L26.0965 23.6127L26.1586 23.5258L26.2144 23.4389L26.2703 23.3457L26.32 23.2464L26.4131 23.0415L26.4938 22.8242C26.5311 22.7124 26.5684 22.6007 26.6056 22.4889L26.6677 22.2592C26.7484 21.9363 26.8229 21.6134 26.8912 21.2906C26.9098 21.1912 26.9347 21.0919 26.9533 20.9925C27.0775 21.1167 27.2513 21.1726 27.419 21.2223C27.4997 21.2409 27.5804 21.2595 27.6611 21.2781C27.7791 21.2968 27.8971 21.3154 28.015 21.334C28.2262 21.3589 28.431 21.3775 28.6422 21.3899C28.8719 21.4023 29.0954 21.4209 29.3189 21.4396C29.4121 21.3961 29.499 21.3526 29.5735 21.2843C29.6232 21.2347 29.6542 21.185 29.6915 21.1291C29.7225 21.067 29.7598 20.9987 29.7908 20.9304C29.7225 20.8063 29.6542 20.6883 29.5859 20.5641L29.4866 20.5393L29.4245 20.5269C29.35 20.5144 29.2817 20.5144 29.2072 20.5082C29.0644 20.502 28.9278 20.502 28.785 20.5082C28.6918 20.5144 28.5987 20.5206 28.5118 20.5269C28.2696 20.5455 28.0337 20.5765 27.7977 20.6138C27.866 20.5579 27.9343 20.502 27.9964 20.4337C28.0213 20.4027 28.0461 20.3716 28.0709 20.3406C28.0896 20.3095 28.1082 20.2785 28.1268 20.2412L28.1516 20.1729L28.1703 20.1046L28.1765 20.0301C28.1765 19.9929 28.1703 19.9556 28.1641 19.9184L28.1392 19.8439C28.1268 19.8004 28.1082 19.7631 28.0896 19.7259C28.0647 19.6762 28.0337 19.6265 27.9964 19.5769L27.9405 19.552L27.9157 19.5396L27.8598 19.4962C27.8039 19.4403 27.7543 19.3844 27.7108 19.3161L27.6487 19.223C27.5866 19.1174 27.5307 19.0181 27.4811 18.9125C27.4128 18.7635 27.3507 18.6145 27.3072 18.4655C27.301 18.4468 27.2948 18.422 27.2948 18.4034L27.301 18.3661L27.1955 18.1985C27.0899 18.037 26.9844 17.8756 26.885 17.7142C26.8353 17.6335 26.7981 17.5527 26.7608 17.4658C26.7484 17.4224 26.736 17.3851 26.7236 17.3416C26.7112 17.2858 26.6987 17.2237 26.6925 17.1678C26.6863 17.0809 26.6801 16.9939 26.6863 16.9008C26.6925 16.8263 26.6987 16.7518 26.7049 16.6773L26.6553 16.5966C26.618 16.5469 26.587 16.4972 26.5497 16.4538C26.5125 16.4103 26.4752 16.3668 26.438 16.3296C26.4007 16.2923 26.3572 16.2551 26.32 16.224L26.2331 16.1619L26.0778 16.1557L25.9847 16.1185L25.8854 16.0936L25.786 16.0812H25.6805L25.5749 16.0936L25.4632 16.1123L25.3514 16.1433L25.2334 16.1868L25.0782 16.2613L25.0471 16.373C25.0161 16.4848 24.9851 16.5904 24.9478 16.7021C24.9043 16.8263 24.8609 16.9505 24.8112 17.0684C24.7615 17.1864 24.7057 17.3044 24.6498 17.4224C24.5566 17.5962 24.4635 17.7701 24.358 17.9377L24.3704 17.8942C24.3828 17.8446 24.389 17.7949 24.3952 17.739L24.4014 17.6273C24.4014 17.5714 24.4014 17.5155 24.3952 17.4596C24.3766 17.2671 24.3455 17.0871 24.3021 16.9008C24.2959 16.8635 24.2834 16.8263 24.2772 16.7828C24.3269 16.6959 24.3704 16.6028 24.42 16.5096C24.4946 16.3544 24.5753 16.2054 24.6684 16.0564C24.6436 16.1309 24.6311 16.1992 24.6249 16.2799C24.6187 16.3482 24.6249 16.4227 24.6249 16.4972C24.6994 16.4724 24.774 16.4475 24.8485 16.4165C24.8795 16.3979 24.9106 16.3855 24.9416 16.3668C24.9788 16.342 25.0099 16.3109 25.0471 16.2799C25.0782 16.2489 25.103 16.2178 25.1279 16.1806C25.1651 16.1309 25.1962 16.075 25.221 16.0191C25.2645 15.926 25.2955 15.8329 25.3266 15.7397C25.3328 15.7211 25.3328 15.7087 25.3452 15.6963C25.4507 15.5783 25.5563 15.4727 25.6494 15.3486C25.6867 15.2927 25.7177 15.243 25.7488 15.1809C25.7922 15.0878 25.8295 14.9884 25.8357 14.8829C25.8605 14.858 25.8792 14.8394 25.904 14.8146C25.9909 14.7214 26.0841 14.6345 26.1523 14.5228C26.1648 14.4979 26.1834 14.4669 26.1896 14.442C26.202 14.411 26.2082 14.38 26.2144 14.3489C26.2144 14.3179 26.2144 14.2868 26.2144 14.2496C26.2082 14.2123 26.202 14.1813 26.1896 14.1502C26.1772 14.113 26.1586 14.0819 26.1461 14.0447C26.1151 13.9888 26.0841 13.9329 26.0468 13.877L25.9412 13.9019C25.8357 13.9267 25.7239 13.9391 25.6122 13.9577C25.5128 13.9702 25.4135 13.9702 25.3141 13.9888C25.2831 13.995 25.2583 14.0012 25.2272 14.0136C25.0782 14.3179 24.9478 14.6345 24.805 14.945C24.6932 15.1995 24.5753 15.4541 24.4449 15.7025C24.3393 15.9012 24.2276 16.0936 24.0848 16.2675C24.0165 16.0874 23.9544 15.9012 23.8923 15.7149C23.9854 15.5783 24.091 15.4541 24.1965 15.3299C24.2338 15.2803 24.271 15.2368 24.3083 15.1871L24.3766 15.0691L24.4076 14.9822L24.4263 14.8891L24.4325 14.8394V14.7339L24.42 14.6221L24.389 14.4979C24.3642 14.4172 24.3331 14.3303 24.2959 14.2496L24.4573 13.9143L24.7119 13.3493C24.7802 13.2127 24.8485 13.0761 24.9292 12.9457L25.0471 12.7718L25.0037 12.6849L24.954 12.6104L24.9292 12.5793L24.836 12.5048L24.7988 12.4862C24.7615 12.4738 24.7243 12.4614 24.687 12.4552L24.6125 12.449C24.5753 12.449 24.538 12.449 24.5008 12.4552C24.4511 12.4614 24.4014 12.4738 24.3517 12.4862C24.24 12.5173 24.1406 12.5607 24.0413 12.6104L23.9419 12.6601L23.9482 12.7594V12.7967C23.9419 12.8339 23.9357 12.8712 23.9295 12.9084L23.9047 12.9829C23.8861 13.0264 23.8674 13.0636 23.8488 13.1009C23.8178 13.1568 23.7805 13.2065 23.7433 13.2561C23.5942 13.4486 23.4266 13.61 23.2528 13.7777L23.2093 13.8211C23.0044 13.4113 22.7995 13.0016 22.5946 12.5918L22.5822 12.5297L22.5449 12.3807L22.4953 12.2379L22.4332 12.1013L22.3587 11.9771L22.3152 11.915L22.2717 11.8591L22.2221 11.8032L22.1724 11.7535L22.0606 11.6542L21.9985 11.6107L21.8744 11.5362L21.8061 11.5052L21.7315 11.4804L21.6632 11.4555L21.5887 11.4369L21.5142 11.4245L21.4335 11.4121L21.3528 11.4058H21.2721L21.1914 11.4121L21.1044 11.4245L21.0175 11.4431L20.8437 11.4928L20.6512 11.5673C20.8002 11.7908 20.943 12.0143 21.0858 12.2379C21.2907 12.5607 21.4894 12.8898 21.6757 13.2189C21.7874 13.4176 21.8992 13.6225 22.0047 13.8274C22.1724 14.1564 22.34 14.4855 22.489 14.827C22.4145 14.9574 22.34 15.094 22.2531 15.2182C22.2221 15.2554 22.1972 15.2865 22.1786 15.3113ZM25.9102 20.7442C25.904 20.7007 25.904 20.651 25.904 20.6076C25.8729 20.5703 25.8357 20.5393 25.8046 20.5082L25.8419 20.5827L25.8792 20.6697L25.9102 20.7442ZM25.0409 18.7387C25.0968 18.7821 25.1527 18.8256 25.2086 18.869L25.2769 18.7697C25.3328 18.689 25.3886 18.6083 25.4321 18.5213C25.4632 18.4468 25.4818 18.3785 25.4942 18.2978C25.5004 18.2544 25.5004 18.2171 25.5066 18.1736L25.4197 18.1178L25.3762 18.0929L25.3328 18.0743L25.2893 18.0619L25.2024 18.0495H25.1589L25.0844 18.0681C25.0471 18.0805 25.0099 18.0867 24.9726 18.1053L24.9043 18.1364C24.8298 18.1799 24.7677 18.2295 24.6994 18.2854C24.6374 18.3351 24.5815 18.391 24.5194 18.4406C24.4697 18.4717 24.4138 18.4965 24.3642 18.5276C24.4325 18.6021 24.4946 18.6828 24.5628 18.7573C24.6994 18.7325 24.8298 18.7076 24.9664 18.6828C24.9913 18.7014 25.0161 18.72 25.0409 18.7387ZM47.7907 11.3189L47.7162 11.4431L47.6354 11.5611L47.4616 11.797L47.3623 11.9088L47.2567 12.0205L47.0332 12.2316L46.9152 12.331L46.791 12.4303L46.6606 12.5235L46.5303 12.6104L46.2571 12.7718L45.9714 12.9208L45.8224 12.9891L45.6796 13.0388L45.5306 13.0947L45.2202 13.194L45.0649 13.2375L44.9097 13.2748L44.7545 13.3058L44.5993 13.3306L44.444 13.3493L44.2888 13.3617L44.1087 13.3679C44.0839 13.3927 44.0529 13.4113 44.0342 13.4424C44.0032 13.4983 44.0032 13.5542 44.0094 13.6162C44.0094 13.6597 44.0094 13.7032 44.0156 13.7528C44.2453 13.7591 44.4813 13.7653 44.711 13.7715C44.8104 13.7715 44.9097 13.7715 45.0153 13.7715C45.1953 13.7653 45.3816 13.7528 45.5616 13.7404L45.661 13.7156L45.7603 13.6845L45.9714 13.61L46.195 13.5169L46.4309 13.4114L46.6731 13.2934L46.9152 13.163L47.1574 13.0202L47.3995 12.865L47.6292 12.7035L47.741 12.6166L47.9521 12.4427L48.0514 12.3558L48.1446 12.2689L48.2315 12.1758L48.3122 12.0826L48.3867 11.9895L48.455 11.8964L48.5171 11.8032L48.573 11.7101L48.6227 11.617L48.6475 11.5487C48.6848 11.648 48.722 11.7411 48.7593 11.8405C48.9269 12.2689 49.0884 12.6973 49.2808 13.1071L49.6285 13.8149L49.6782 13.846L49.7527 13.8832C49.7962 13.8956 49.8396 13.9081 49.8893 13.9205C50.1315 13.9639 50.3798 13.9764 50.622 13.9826C50.8393 13.9888 51.0566 13.9888 51.2739 14.0012C51.336 14.0074 51.4043 14.0136 51.4664 14.0198C51.4912 13.9081 51.5161 13.7901 51.5409 13.6783L51.3546 13.5914L51.2367 13.5355L51.1249 13.4734L50.9138 13.3493L50.7151 13.2127L50.622 13.1444L50.4481 13.0016L50.2805 12.8525C50.1998 12.778 50.1253 12.6973 50.0507 12.6166L49.9079 12.449C49.8148 12.3372 49.7217 12.2254 49.6347 12.1075C49.405 11.8032 49.1815 11.4928 48.9518 11.1885L48.8959 11.114C48.9083 11.0023 48.9766 10.9091 49.0325 10.8222C49.0573 10.7787 49.0884 10.7291 49.107 10.6794C49.374 10.5738 49.6472 10.4745 49.9141 10.3752C50.3426 10.2199 50.7772 10.0771 51.2056 9.92811C51.3484 9.87843 51.4912 9.83497 51.6278 9.7853C51.6775 9.76667 51.7272 9.74805 51.7768 9.72321L51.7644 9.6487C51.752 9.59282 51.752 9.53073 51.7458 9.47485L51.5844 9.45622L51.4912 9.45001H51.4105L51.3174 9.45622L51.2242 9.46864L51.0504 9.50589L50.9635 9.53073L50.8827 9.56178L50.7213 9.63007L50.5661 9.70458C50.386 9.79772 50.2122 9.89706 50.0321 9.9902L49.8831 10.0647L49.7341 10.133L49.5851 10.1889L49.5106 10.2137L49.4361 10.2323L49.3615 10.2448L49.2808 10.251L49.2187 10.2572C49.2498 10.1392 49.287 10.0212 49.3305 9.90327C49.3553 9.82876 49.3864 9.75425 49.4174 9.68596C49.4857 9.51831 49.5664 9.35067 49.6472 9.18924C49.7527 8.97192 49.8521 8.76082 49.9452 8.5435C49.9887 8.44416 50.0259 8.34481 50.0632 8.24547C50.0942 8.15854 50.119 8.06541 50.1501 7.97848C50.0818 7.87293 50.0073 7.77359 49.9328 7.67424C49.8831 7.61215 49.8334 7.55006 49.7713 7.49418C49.7279 7.45072 49.6968 7.43209 49.672 7.40726C49.641 7.38242 49.6099 7.36379 49.5789 7.34517C49.5416 7.32654 49.5106 7.30791 49.4733 7.28929C49.4361 7.27066 49.3988 7.25824 49.3553 7.24582C49.2932 7.2272 49.2374 7.21478 49.1753 7.20236C49.1008 7.18994 49.0325 7.17752 48.958 7.17132C48.9331 7.24582 48.9021 7.32033 48.8773 7.39484L48.9083 7.48176L48.9269 7.54385L48.9393 7.60594L48.958 7.73633L48.9642 7.87293V8.01574C48.958 8.09024 48.9518 8.16475 48.9455 8.24547C48.9331 8.32619 48.9207 8.40069 48.9083 8.48141C48.8772 8.64285 48.84 8.79807 48.8027 8.9595C48.7406 9.20786 48.6661 9.46243 48.604 9.71079L48.5916 9.75425C48.5482 9.81013 48.5109 9.87843 48.4799 9.94052C48.4178 10.0585 48.3619 10.1765 48.3122 10.2944C48.2874 10.3503 48.2626 10.4062 48.2439 10.4621C48.2191 10.4807 48.188 10.4869 48.157 10.4993C48.0018 10.549 47.8403 10.5863 47.6851 10.6235C47.0146 10.7912 46.3378 10.9464 45.661 11.1078C45.4561 11.0768 45.2574 11.0519 45.0525 11.0271L45.0215 11.1264L45.009 11.1947C45.0028 11.232 45.0028 11.263 45.0028 11.3003L45.009 11.3624C45.0153 11.3934 45.0277 11.4245 45.0401 11.4555L45.0711 11.5114L45.127 11.5859C45.1519 11.6107 45.1705 11.6294 45.1953 11.6542C45.2326 11.6853 45.2698 11.7039 45.3071 11.7287L45.5492 11.8343L45.6548 11.8653L47.9459 10.9588L47.9086 11.0581L47.8528 11.1885L47.7907 11.3189ZM34.9753 10.8098L34.9194 10.7787L34.8574 10.7539L34.7891 10.7353L34.5345 10.6856L34.6214 10.9153C34.6587 11.0209 34.6897 11.1327 34.7145 11.2444C34.727 11.3127 34.7394 11.3748 34.7456 11.4431C34.7518 11.5238 34.758 11.6045 34.7518 11.6915C34.7456 11.7411 34.7456 11.7846 34.7332 11.8343C34.727 11.8839 34.7145 11.9274 34.7021 11.9709C34.6773 12.0392 34.6525 12.1013 34.6152 12.1571C34.5531 11.8715 34.5097 11.5735 34.46 11.2879C34.4289 11.1078 34.3917 10.9278 34.342 10.7477C34.3234 10.6856 34.3048 10.6235 34.2799 10.5552C34.2551 10.4931 34.2302 10.431 34.2054 10.3752L34.1247 10.2137C33.9136 10.1827 33.6963 10.1454 33.4852 10.1082C33.4417 10.1392 33.3982 10.1703 33.361 10.2013C33.3051 10.2448 33.2492 10.2944 33.1933 10.3379C33.1996 10.4062 33.2058 10.4745 33.2182 10.5428C33.1933 10.5552 33.1685 10.5614 33.1437 10.5738C33.1188 10.5863 33.094 10.6049 33.0754 10.6173C33.063 10.8595 33.0505 11.1016 33.0381 11.3438C32.9884 11.9895 32.9139 12.6352 32.8084 13.2748L32.678 13.3244C32.5538 13.2313 32.4234 13.1506 32.2806 13.0823L32.2123 13.0574C32.144 13.0326 32.0819 13.014 32.0074 13.0016C31.9143 12.9891 31.8212 12.9829 31.728 12.9829C31.6349 12.9891 31.5418 12.9953 31.4486 13.0078C31.5169 13.1257 31.5852 13.2437 31.6535 13.3617C31.7342 13.4859 31.8149 13.61 31.9019 13.7342C31.9578 13.8087 32.0136 13.8832 32.0757 13.9577C32.1378 14.0322 32.1999 14.1005 32.2682 14.1688L32.4048 14.2992L32.5476 14.4172L32.6221 14.4669L32.7028 14.5165L32.7835 14.56L32.8643 14.5973L32.9512 14.6283L33.0381 14.6531L33.125 14.6718L33.2182 14.6842L33.3113 14.6904L33.4044 14.6842L33.4976 14.6718L33.5907 14.6531L33.6901 14.6221L33.8391 14.56L33.8639 14.4358L33.8763 14.2992C33.8763 14.2309 33.8701 14.1688 33.8639 14.1005L33.8453 13.9702C33.8204 13.846 33.7832 13.728 33.7397 13.6038C33.6963 13.4796 33.6528 13.3617 33.6093 13.2375C33.5783 13.1319 33.541 13.0202 33.5597 12.9084L33.5907 12.8277C33.5721 12.7532 33.5597 12.6725 33.5473 12.598C33.5348 12.5048 33.5286 12.4179 33.5224 12.3248L33.5162 11.4679L33.4727 10.8843C33.5721 11.0706 33.6404 11.2692 33.7211 11.4617L33.7025 11.5238L33.6901 11.5859L33.6839 11.648V11.7163L33.6963 11.797C33.7087 11.8715 33.7211 11.9398 33.7397 12.0081L33.7832 12.1571C33.8825 12.4614 34.0067 12.7656 34.0936 13.0761L34.1247 13.2127L34.1433 13.3306V13.43L34.1371 13.4734L34.1247 13.5107L34.0936 13.5852L34.1309 13.697L34.1682 13.8522L34.1992 14.0322L34.2178 14.2309C34.224 14.3365 34.224 14.442 34.224 14.5538C34.2178 14.6656 34.2178 14.7773 34.2054 14.8953C34.193 15.0133 34.1806 15.125 34.1682 15.243C34.1557 15.3548 34.1371 15.4727 34.1123 15.5845C34.0936 15.6963 34.0688 15.8018 34.044 15.9074C34.0129 16.0378 33.9757 16.1681 33.9322 16.2923C33.8888 16.4227 33.8391 16.5531 33.7646 16.6711C33.6652 16.7083 33.5659 16.7394 33.4603 16.7642C33.3672 16.7828 33.2741 16.7952 33.1871 16.8263L33.0381 16.8822C33.094 16.9815 33.1499 17.0809 33.1996 17.1802L33.3548 17.2299L33.4665 17.2547L33.5721 17.2671H33.6776L33.777 17.2547L33.8701 17.2361L33.957 17.205L34.044 17.1616L34.1185 17.1119L34.193 17.056L34.2613 16.9939L34.3234 16.9256L34.3793 16.8511L34.4289 16.7704L34.4786 16.6835L34.5221 16.5966L34.6028 16.4103L34.6711 16.2116C34.7145 16.075 34.7456 15.9446 34.7828 15.808C34.8449 15.5534 34.8946 15.3051 34.9567 15.0505L34.9629 14.8767C34.9629 14.7897 34.9567 14.709 34.9567 14.6283C34.9505 14.5165 34.9381 14.411 34.9257 14.3054C34.876 13.9205 34.7891 13.5417 34.7518 13.1506L34.7394 13.0078C34.7332 12.9146 34.7332 12.8215 34.7332 12.7284C34.8263 12.7656 34.9194 12.8029 35.0188 12.8215C35.0809 12.8339 35.1368 12.8401 35.1926 12.8401C35.3168 12.8339 35.4286 12.8029 35.5466 12.7656L35.739 12.7035L35.6831 12.5421C35.6086 12.2999 35.5528 12.0516 35.4907 11.8032C35.4596 11.679 35.4224 11.5611 35.3851 11.4431C35.3603 11.3748 35.3354 11.3065 35.3044 11.2444L35.2423 11.1202L35.1678 11.0085L35.0809 10.9091L35.0312 10.8657L34.9753 10.8098ZM39.2906 14.8643C39.3589 14.9574 39.421 15.0443 39.4955 15.1312L39.6321 15.2678C39.6693 15.2368 39.7066 15.2057 39.75 15.1747C39.7935 15.1374 39.8432 15.1002 39.8866 15.0691C39.1726 13.0202 38.4648 10.965 37.6824 8.94709L37.7259 8.86637L37.6887 8.77323C37.6141 8.58696 37.5334 8.41311 37.4403 8.23305C37.3968 8.15234 37.3534 8.07783 37.3099 7.99711C37.2602 7.91639 37.2106 7.84189 37.1609 7.76738L37.0491 7.63078L36.9932 7.56869L36.9312 7.51281L36.8753 7.45072L36.8132 7.40726L36.7449 7.37L36.6704 7.33896L36.5959 7.32033L36.5152 7.31412L36.4344 7.32033L36.3537 7.33896L36.2792 7.37L36.2047 7.41967L36.1302 7.48176L36.0619 7.55627L35.9626 7.68666L36.0184 7.82326C36.1054 8.00332 36.2233 8.17096 36.3351 8.34481C36.4779 8.56834 36.6207 8.79186 36.72 9.04022C36.7387 9.08989 36.7511 9.13336 36.7573 9.18303L36.7635 9.25753L36.7511 9.31342L36.7263 9.38792C36.8877 9.76667 37.0429 10.1454 37.2043 10.5242C37.074 10.4372 36.956 10.3503 36.8442 10.2448C36.7946 10.1889 36.7449 10.1392 36.7076 10.0709C36.689 10.0337 36.6704 10.0026 36.6517 9.95915C36.6269 9.89706 36.6145 9.83497 36.6021 9.76667C36.5897 9.69216 36.5897 9.61766 36.5835 9.54315L36.3351 9.56178L36.1364 9.58661L36.2171 9.81634L36.2606 10.3379C36.2109 10.3565 36.1674 10.3752 36.1178 10.3938C36.0557 10.282 35.9812 10.1827 35.8943 10.0957L35.8322 10.0399C35.8011 10.015 35.7701 9.9964 35.7328 9.97778C35.6956 9.95915 35.6645 9.94673 35.6273 9.92811C35.5776 9.90948 35.5279 9.90327 35.4782 9.89085C35.41 9.88464 35.3479 9.87843 35.2796 9.87843C35.1305 9.88464 34.9815 9.90948 34.8325 9.93432L35.025 10.1082C35.1243 10.2075 35.1988 10.3255 35.2734 10.4435L35.323 10.5366C35.4286 10.7415 35.5155 10.9526 35.5341 11.1823C35.5341 11.2196 35.5341 11.2506 35.5279 11.2879L35.4969 11.3872C35.6086 11.6232 35.7204 11.8591 35.826 12.1013C35.8632 12.1944 35.9005 12.2875 35.9377 12.3807C35.9812 12.4986 36.0184 12.6166 36.0557 12.7346C36.0867 12.8525 36.1178 12.9705 36.1364 13.0885C36.1488 13.163 36.155 13.2313 36.1674 13.3058C36.1737 13.3803 36.1737 13.4486 36.1737 13.5231L36.1674 13.728C36.2233 13.7715 36.2854 13.8149 36.3475 13.8584C36.4903 13.9515 36.6517 14.0074 36.807 14.0633C36.8691 14.0881 36.9312 14.1068 36.9932 14.1316L37.0926 14.0447C37.1423 14.0012 37.1795 13.9577 37.223 13.9081L37.2913 13.8211L37.341 13.728L37.3782 13.6349L37.3968 13.5417L37.403 13.4486L37.3968 13.3555C37.3844 13.2934 37.372 13.2375 37.3472 13.1816C37.2975 13.0388 37.2292 12.9022 37.1671 12.7594C37.1361 12.6911 37.1112 12.6228 37.0802 12.5545L37.0181 12.5235C36.987 12.5048 36.9684 12.48 36.9436 12.4552C36.8815 12.3807 36.8318 12.3061 36.7883 12.2254L36.7263 12.1013C36.5648 11.766 36.4468 11.4183 36.3289 11.0644L36.2978 10.965C36.4655 10.9836 36.6269 10.9898 36.7883 10.9712L36.8753 10.9588C36.9187 10.9464 36.9622 10.934 36.9995 10.9215L37.0802 10.8843L37.1547 10.8346L37.1857 10.8036L37.2168 10.7663L37.2416 10.7291L37.2602 10.6856L37.254 10.6483C37.7135 11.7349 38.173 12.8277 38.6386 13.9143L38.6697 13.9329L38.6883 13.9577C38.738 14.0198 38.7814 14.0819 38.8187 14.1502C38.9801 14.3862 39.1291 14.6283 39.2906 14.8643ZM60.1466 13.7777C60.1031 13.8274 60.0596 13.877 60.0162 13.9205L60.1093 14.0198L60.1528 14.0571L60.1962 14.0881L60.2832 14.1378L60.3328 14.1564L60.4322 14.1813L60.5315 14.1937H60.6309C60.6805 14.1875 60.7302 14.1813 60.7737 14.1688L60.873 14.144C60.9848 14.1068 61.0903 14.0633 61.2021 14.0136C61.3014 13.9702 61.4008 13.9205 61.5001 13.877C61.5746 13.9577 61.6119 14.0695 61.6305 14.1751C61.6367 14.2185 61.6367 14.2558 61.6367 14.2992C61.3387 14.2868 61.0407 14.293 60.7488 14.2806C60.5439 14.2744 60.339 14.2682 60.1279 14.2496C59.9417 14.2309 59.7492 14.2061 59.5629 14.1502C59.6623 14.0509 59.7306 13.9329 59.7926 13.8149L59.861 13.6597L59.923 13.4983L59.9727 13.3306L60.0162 13.1568L60.0472 12.9891L60.0658 12.8215L60.0721 12.6601V12.5856L60.0658 12.511L60.0534 12.4427L60.0348 12.3744L60.0162 12.3124L59.9913 12.2565L59.9603 12.2068L59.923 12.1633L59.8734 12.1261L59.6809 12.0205L59.6995 12.2379V12.2875L59.6871 12.3869L59.6747 12.4365C59.6561 12.4924 59.6374 12.5421 59.6188 12.598L59.5629 12.7097C59.5008 12.8277 59.4325 12.9333 59.358 13.045C59.1904 13.3182 59.0041 13.6225 59.0414 13.9577C59.0165 13.9577 58.9917 13.964 58.9669 13.964C58.9482 14.0136 58.9296 14.0633 58.911 14.113C58.9048 14.1378 58.8986 14.1626 58.8861 14.1875L58.9731 14.2806L59.0352 14.3427L59.1035 14.3986L59.1718 14.4483L59.2463 14.4979L59.3208 14.5414L59.4015 14.5848L59.4822 14.6221L59.6561 14.6842L59.8361 14.7401C59.9292 14.7649 60.0224 14.7835 60.1155 14.8022L60.308 14.8332C60.4073 14.8456 60.5005 14.8518 60.5998 14.8643C60.7302 14.8705 60.8606 14.8767 60.991 14.8829C61.2331 14.8891 61.4753 14.8829 61.7174 14.8767C61.7423 14.8891 61.7733 14.8953 61.8044 14.9015C61.7733 14.9636 61.7423 15.0195 61.7112 15.0816C61.6429 15.0878 61.5684 15.0878 61.5001 15.0878C61.3076 15.0878 61.1152 15.094 60.9165 15.1126C60.8606 15.1188 60.7985 15.125 60.7426 15.1374C60.6867 15.1499 60.6309 15.1623 60.575 15.1747L60.4694 15.212L60.3763 15.2554L60.3328 15.2803L60.2583 15.3423L60.2273 15.3796L60.1962 15.4231L60.1528 15.51L60.2211 15.6031L60.2645 15.6528L60.308 15.6963L60.3515 15.7335L60.4508 15.7956L60.5005 15.8204L60.606 15.8639C60.6619 15.8825 60.7116 15.8949 60.7675 15.9012L60.8792 15.9136C61.0965 15.9322 61.3201 15.926 61.5374 15.9508L61.587 15.957C61.3946 16.0129 61.2021 16.044 61.0034 16.075C60.8295 16.106 60.6557 16.1309 60.4818 16.1743C60.3763 16.2054 60.2521 16.2426 60.1714 16.3296C60.1466 16.342 60.1279 16.3544 60.1031 16.3668L60.0596 16.4041C60.0348 16.4289 60.01 16.46 59.9913 16.491C59.9789 16.5158 59.9665 16.5345 59.9603 16.5593C59.9292 16.6524 59.9168 16.7518 59.8982 16.8511C59.892 16.876 59.8858 16.907 59.8734 16.9318C59.2835 16.789 58.6999 16.6586 58.1038 16.5407C57.9237 16.5034 57.7437 16.4724 57.5574 16.4413C57.1911 16.3792 56.8186 16.3172 56.446 16.2675C56.1169 16.224 55.7816 16.1806 55.4526 16.1433C55.4153 16.0998 55.3843 16.0564 55.3346 16.0253C55.2787 15.9881 55.2042 15.9757 55.1421 15.9632L55.0676 16.0129L55.0304 16.044L54.9993 16.0812L54.9745 16.1185L54.9372 16.2054L54.9248 16.2489L54.9186 16.2923V16.3358L54.931 16.4227L54.9558 16.5096C54.9745 16.5531 54.9931 16.5966 55.0117 16.64L55.0614 16.7207C55.0924 16.7642 55.1173 16.8015 55.1483 16.8387C55.1918 16.8884 55.2353 16.9381 55.2849 16.9877C55.347 17.0436 55.4091 17.0933 55.4712 17.143L55.5705 17.205H55.7382C56.3032 17.1988 56.8682 17.1802 57.4394 17.1864C57.5636 17.1864 57.6878 17.1926 57.812 17.1988C57.9362 17.205 58.0603 17.2175 58.1783 17.2237C58.3025 17.2361 58.4267 17.2485 58.5508 17.2671C58.675 17.2858 58.7992 17.3106 58.9234 17.3354C59.1469 17.3851 59.3766 17.4348 59.594 17.5031C59.4698 17.7266 59.3704 17.9625 59.2773 18.1923C59.2152 18.3413 59.1531 18.4841 59.091 18.6269C58.9793 18.869 58.8551 19.105 58.6999 19.3223C58.5881 19.2851 58.4826 19.2292 58.3832 19.1733L58.2466 19.0802C58.1783 19.0305 58.11 18.9746 58.0479 18.9249L57.9175 18.807C57.7126 18.6083 57.5202 18.4034 57.3153 18.2047L57.1911 18.0929L57.0545 18.006L56.9241 17.9191L56.7875 17.8446L56.7192 17.8135L56.5329 17.7452L56.5267 17.9067L56.5329 17.9563L56.5578 18.006L56.6074 18.1116C56.7316 18.3413 56.8868 18.5524 57.0359 18.7635C57.1166 18.8815 57.2035 18.9932 57.2904 19.1112C57.5077 19.403 57.7251 19.6886 57.9237 19.9929C57.9672 20.0612 58.0045 20.1233 58.0479 20.1978C58.2404 20.2661 58.4329 20.3344 58.6192 20.4089L58.7371 20.3468L58.8861 20.2537L59.0165 20.1605L59.1345 20.0612L59.2401 19.9618C59.2897 19.9122 59.3332 19.8625 59.3766 19.8066L59.4574 19.7011C59.4946 19.6452 59.5319 19.5955 59.5629 19.5334C59.6871 19.3161 59.7926 19.0926 59.9106 18.869C59.9665 18.7697 60.0224 18.6704 60.0783 18.571V18.5462C60.0907 18.4903 60.1031 18.4344 60.1155 18.3785C60.159 18.1985 60.2087 18.0184 60.2645 17.8384C60.3266 17.8508 60.3825 17.8632 60.4446 17.8756C60.7364 17.9501 61.0158 18.0557 61.3076 18.124C61.3573 18.1364 61.4132 18.1488 61.4629 18.155C61.5374 18.1674 61.6057 18.1799 61.6802 18.1861C61.7423 18.1923 61.8044 18.1923 61.8665 18.1923L61.941 18.1488L61.9906 18.1116L62.0776 18.037L62.1148 17.9998L62.1645 17.9129L62.1769 17.8694L62.1893 17.8197V17.7328L62.1831 17.6893L62.1707 17.6459L62.1521 17.6024L62.1086 17.5217C62.0838 17.4844 62.0589 17.4534 62.0279 17.4161L61.9658 17.3541C61.9223 17.3106 61.8727 17.2796 61.823 17.2361C61.7671 17.1988 61.705 17.1616 61.6429 17.1305L61.5622 17.0933H61.4442C61.2393 17.0995 61.0282 17.1181 60.8171 17.0995C60.7799 17.0933 60.7488 17.0933 60.7116 17.0871C60.6495 17.0747 60.5936 17.0622 60.5315 17.0436C60.4632 17.0188 60.4011 16.9939 60.339 16.9629C60.339 16.8139 60.3453 16.6711 60.3453 16.5221C60.4446 16.5345 60.5377 16.5407 60.6371 16.5469C60.8296 16.5593 61.022 16.5717 61.2145 16.5717C61.3014 16.5717 61.3884 16.5655 61.4753 16.5655C61.5622 16.5593 61.6429 16.5531 61.7299 16.5407C61.7919 16.5283 61.8478 16.5158 61.9099 16.5034C61.9658 16.491 62.0217 16.4724 62.0776 16.4538L62.2017 16.3979L62.2576 16.2985L62.2887 16.224L62.3135 16.1557L62.3259 16.0874L62.3321 16.0253L62.3259 15.9632L62.3135 15.9012L62.2887 15.8453L62.2576 15.7956L62.2204 15.7521L62.1769 15.7149L62.1272 15.6776L62.0776 15.6466L62.0217 15.6155C61.9596 15.5907 61.9037 15.5659 61.8416 15.5472C61.7671 15.5224 61.6926 15.5038 61.6181 15.4914C61.8913 15.4852 62.1583 15.4852 62.4315 15.4852L62.5122 15.4976C62.5991 15.5038 62.6922 15.51 62.7792 15.5162C62.8661 15.5162 62.953 15.5162 63.0462 15.5162C63.1331 15.51 63.22 15.51 63.3131 15.5038C63.456 15.4914 63.605 15.4727 63.754 15.4541C64.1886 15.392 64.6232 15.2989 65.0579 15.2244L65.2876 15.1871L65.3249 15.0505L65.3373 14.9698L65.3311 14.8953L65.3186 14.827L65.2938 14.7649L65.2566 14.7028L65.2131 14.6531L65.1634 14.6097L65.1075 14.5724L65.0455 14.5352L64.9772 14.5103L64.8281 14.4607C64.7474 14.442 64.6667 14.4296 64.586 14.4172L64.4121 14.3986C64.1886 14.38 63.9589 14.3737 63.7291 14.3737C63.6733 14.3737 63.6174 14.3737 63.5677 14.3675C63.6298 14.3241 63.6857 14.2806 63.7478 14.2434C64.201 13.9267 64.6543 13.6225 65.1075 13.3058C65.2069 13.2375 65.3062 13.163 65.4056 13.0885C65.4677 13.0574 65.5235 13.0202 65.5794 12.9829L65.7347 12.8587C65.7595 12.8339 65.7843 12.8029 65.8092 12.778C65.8464 12.7284 65.8837 12.6849 65.9085 12.629C65.9271 12.598 65.9396 12.5669 65.952 12.5359C65.9706 12.48 65.9892 12.4303 65.9954 12.3682C66.0016 12.331 66.0078 12.2999 66.0078 12.2627C66.0078 12.2068 66.0078 12.1571 66.0078 12.1013L65.9147 12.064C65.7967 12.0143 65.6726 11.9647 65.5484 11.9274C65.4987 11.915 65.449 11.8964 65.3994 11.8839C65.2814 11.8529 65.1634 11.8281 65.0455 11.8094L64.8468 11.7908H64.6543L64.5177 11.8032L64.3749 11.8343L64.3625 11.9026L64.3563 12.0702L64.4308 12.1075C64.5115 12.1447 64.5922 12.182 64.6791 12.2068C64.7412 12.2254 64.8095 12.2441 64.8778 12.2627C64.8157 12.3434 64.7474 12.4241 64.6791 12.5048C64.6046 12.5856 64.5363 12.6601 64.4556 12.7408C64.3563 12.8339 64.2631 12.9208 64.1576 13.0078C63.9216 13.2065 63.6795 13.3865 63.4187 13.5479C63.3069 13.4983 63.2821 13.3679 63.2573 13.2561L63.2635 13.2499C63.2945 13.2685 63.3256 13.2872 63.3566 13.312C63.4622 13.281 63.5677 13.2437 63.6608 13.1878C63.7043 13.163 63.7354 13.1257 63.7664 13.0885C63.8099 13.0388 63.8409 12.9829 63.872 12.9333C63.8161 12.8153 63.7664 12.6973 63.6981 12.5793C63.6671 12.5297 63.636 12.4862 63.5988 12.4427C63.5801 12.4241 63.5615 12.4055 63.5429 12.3869C63.4622 12.3248 63.369 12.2751 63.2759 12.2316C63.3752 12.2192 63.4746 12.213 63.5739 12.1944C63.6546 12.182 63.7291 12.1696 63.8099 12.1447C63.8409 12.1323 63.872 12.1199 63.903 12.1075C63.934 12.0888 63.9589 12.0764 63.9899 12.0516C64.021 12.0267 64.0458 12.0081 64.0706 11.9771C64.0955 11.946 64.1141 11.915 64.1389 11.8839L64.201 11.766L64.1514 11.6852C64.0458 11.5238 63.9589 11.35 63.8533 11.1885C63.8037 11.1202 63.7602 11.0581 63.6981 10.9961C63.6671 10.965 63.636 10.9402 63.605 10.9091C63.5739 10.8843 63.5367 10.8595 63.4994 10.8346C63.4622 10.8098 63.4249 10.7912 63.3814 10.7725L63.22 10.7042L63.1828 10.7912C63.1766 10.8098 63.1703 10.8222 63.1703 10.8408C63.1703 10.9029 63.189 10.9588 63.2138 11.0209C63.2386 11.0954 63.2635 11.1761 63.2821 11.2506C63.2262 11.3251 63.1641 11.3934 63.0958 11.4617C63.071 11.4866 63.04 11.5114 63.0151 11.5362C62.8785 11.6604 62.7295 11.766 62.5867 11.8839C62.5743 11.8839 62.5619 11.8777 62.5494 11.8777C62.4377 11.8529 62.3197 11.8281 62.208 11.8094C62.1521 11.8777 62.0962 11.9522 62.0403 12.0267C62.0838 12.064 62.1272 12.1013 62.1707 12.1385C62.1086 12.2006 62.0279 12.2379 61.9534 12.2689C61.8913 12.2937 61.8354 12.3124 61.7733 12.331L61.7795 12.2813L61.7919 12.1758C61.7919 12.1199 61.7919 12.064 61.7857 12.0081L61.7733 11.8901C61.7609 11.8281 61.7485 11.7722 61.7361 11.7101C61.7236 11.648 61.705 11.5921 61.6864 11.53C61.6678 11.4741 61.6429 11.4183 61.6181 11.3562C61.5933 11.3003 61.5684 11.2506 61.5436 11.1947C61.5188 11.1451 61.4877 11.1016 61.4567 11.0519L61.3884 10.9712L61.3201 10.9029L61.1897 10.7974C61.1648 10.8657 61.1338 10.9278 61.1152 10.9961L61.1027 11.0581C61.0965 11.1202 61.0965 11.1823 61.0965 11.2444C61.1027 11.381 61.1214 11.5176 61.1152 11.6604C61.109 11.7225 61.1027 11.7846 61.0903 11.8467L61.0655 11.9336L61.0779 11.9895C61.0779 12.0578 61.0469 12.1323 61.0158 12.1944C60.9103 12.3931 60.7737 12.5669 60.6495 12.7532C60.6122 12.8029 60.5812 12.8587 60.5501 12.9146C60.6122 12.9457 60.6743 12.9705 60.7364 13.0016C60.8544 13.0512 60.9724 13.1009 61.0841 13.163C61.1338 13.194 61.1897 13.2251 61.2393 13.2685C61.289 13.312 61.3387 13.3617 61.3822 13.4114L61.3325 13.4548C61.2828 13.4921 61.2393 13.5169 61.1835 13.5479L61.0841 13.5852L60.9413 13.6225L60.7488 13.6473H60.3949L60.2707 13.6349L60.1466 13.7777ZM56.7813 15.5597L56.7999 15.6714C56.9055 15.7025 57.0172 15.7397 57.1228 15.777C57.1476 15.7832 57.1725 15.7956 57.1911 15.8018L57.2842 15.7894L57.3525 15.7646L57.4146 15.7335L57.4705 15.6963L57.5202 15.6528L57.5636 15.6031L57.6071 15.5472L57.6443 15.4852L57.6754 15.4169L57.7002 15.3486L57.7375 15.1995L57.7623 15.0443C57.7747 14.9636 57.7747 14.8891 57.7809 14.8084V14.6469C57.7809 14.5724 57.7747 14.4979 57.7685 14.4172C57.7499 14.2434 57.7251 14.0695 57.663 13.9081L57.6071 13.7901L57.4705 13.8708L57.3649 13.9453L57.2656 14.0322L57.1787 14.1254L57.0979 14.2247L57.0234 14.3303C56.9924 14.3862 56.9613 14.442 56.9303 14.5041L56.8806 14.6221C56.862 14.6842 56.8372 14.7401 56.8185 14.8084C56.8061 14.8705 56.7875 14.9326 56.7751 14.9946C56.7627 15.0567 56.7565 15.1188 56.7502 15.1809C56.7502 15.243 56.744 15.3051 56.7502 15.3672C56.7689 15.4417 56.7751 15.4976 56.7813 15.5597ZM62.5805 15.0567L62.537 15.0816C62.7419 15.0629 62.9344 15.0257 63.1393 14.9884L63.6422 14.8891L63.4435 14.8518L63.2883 14.8456L63.1331 14.858L62.9779 14.8891C62.9282 14.9015 62.8723 14.9201 62.8226 14.9388C62.773 14.9574 62.7233 14.9822 62.6736 15.0008L62.5805 15.0567ZM62.8413 13.9888C62.8164 13.964 62.7978 13.9391 62.7792 13.9081C62.7668 13.8832 62.7543 13.8522 62.7419 13.8274C62.6177 13.8025 62.4936 13.7839 62.3756 13.7653C62.4439 13.6783 62.4998 13.5852 62.5867 13.5107C62.5184 13.5045 62.4501 13.5045 62.3818 13.5169C62.3011 13.5355 62.2204 13.5728 62.1459 13.61C62.2079 13.7218 62.2576 13.8398 62.3073 13.9577C62.3197 13.995 62.3383 14.0322 62.3508 14.0695C62.3756 14.1316 62.4004 14.1999 62.4315 14.2558C62.5246 14.2558 62.6115 14.2558 62.7047 14.2371C62.7481 14.2247 62.7854 14.2123 62.8226 14.1813C62.8661 14.144 62.9034 14.1005 62.9344 14.0571C62.8971 14.0322 62.8661 14.0136 62.8413 13.9888ZM62.5494 12.7035C62.5805 12.7159 62.6053 12.7284 62.6364 12.747C62.5743 12.6911 62.4998 12.6476 62.4315 12.598C62.1893 12.6476 61.9534 12.7035 61.7174 12.7594C61.6864 12.8091 61.6616 12.8587 61.6305 12.9084C61.6429 12.927 61.6553 12.9457 61.6678 12.9643C61.7361 13.0699 61.8106 13.1754 61.9285 13.2375C62.0093 13.194 62.09 13.1444 62.1583 13.0761C62.1707 13.0636 62.1893 13.045 62.2017 13.0326C62.3011 12.9208 62.3756 12.7905 62.4501 12.6601L62.5494 12.7035ZM19.5522 65.4613L19.3473 65.6538L19.4777 65.7904C19.5832 65.9022 19.6329 65.9953 19.6205 66.076C19.6143 66.1567 19.5398 66.2623 19.397 66.3927L17.05 68.5906C16.9072 68.7272 16.7954 68.7831 16.7271 68.7707C16.6526 68.7583 16.5533 68.6838 16.4291 68.5472L16.3484 68.4665L16.1435 68.6527L17.3542 69.9442L17.5591 69.7517C17.379 69.5592 17.2797 69.4351 17.2611 69.3668C17.2424 69.2985 17.317 69.1867 17.497 69.0129L18.5836 67.9946L20.2103 69.7269L19.1548 70.7141C19.0306 70.8321 18.9437 70.9004 18.8878 70.9314C18.832 70.9625 18.7761 70.9625 18.7202 70.9376C18.6643 70.9128 18.5898 70.8383 18.4842 70.7327L18.3973 70.6396L18.1924 70.8321L19.3908 72.1111L19.5957 71.9187C19.4715 71.7821 19.3908 71.6827 19.3535 71.6144C19.3162 71.5461 19.31 71.4902 19.3411 71.4344C19.3721 71.3785 19.4404 71.2978 19.5522 71.1984L21.8681 69.0253C22.0234 68.8825 22.1351 68.8142 22.2158 68.8204C22.2904 68.8266 22.3835 68.8887 22.489 69.0004L22.5946 69.1122L22.7995 68.9197L21.6012 67.6407L21.3963 67.8331L21.5204 67.9635C21.6384 68.0939 21.6881 68.1933 21.6695 68.2678C21.6508 68.3423 21.5577 68.4603 21.4025 68.6093L20.4773 69.4785L18.8506 67.7462L19.8006 66.8521C19.9558 66.7031 20.0737 66.6348 20.1545 66.6348C20.2352 66.6348 20.3407 66.7093 20.4711 66.8521L20.5518 66.939L20.7567 66.7466L19.5522 65.4613ZM16.3235 60.9474L14.9762 61.0964L15.001 61.4068C15.4232 61.3882 15.7585 61.4379 16.0007 61.5559C16.2428 61.6738 16.485 61.9346 16.7271 62.3444L17.2176 63.1702L12.2256 62.6362L11.9834 62.779L13.7903 65.8338L15.3052 65.5482L15.2432 65.2316C14.7899 65.2875 14.4174 65.2564 14.1255 65.1322C13.8337 65.0143 13.5543 64.7162 13.2749 64.2506L12.7161 63.3068L17.7081 63.8346L17.9503 63.6917L16.3235 60.9474ZM14.3118 56.6632L14.0634 56.7998L14.1317 56.924C14.2249 57.0916 14.2497 57.2096 14.2063 57.2903C14.169 57.3648 14.0572 57.4579 13.8772 57.5511L11.1763 59.0226C10.9838 59.1281 10.8472 59.1654 10.7665 59.1406C10.6858 59.1157 10.605 59.0288 10.5243 58.886L10.456 58.7618L10.2077 58.8984L11.0459 60.4382L11.2942 60.3016L11.2321 60.1837C11.139 60.016 11.1142 59.8918 11.1576 59.8111C11.1949 59.7304 11.3004 59.6497 11.4681 59.5566L14.1069 58.1161C14.3242 57.9981 14.4857 57.9484 14.5788 57.9671C14.6719 57.9857 14.7589 58.0726 14.8334 58.2154L14.8955 58.3334L15.1438 58.1968L14.3118 56.6632ZM12.0766 50.0009L11.8096 50.0816L11.8593 50.2431C11.9089 50.4045 11.9089 50.5225 11.8655 50.5908C11.822 50.6591 11.704 50.7212 11.524 50.7833L9.33841 51.4538C8.79201 51.6215 8.4381 51.9195 8.27667 52.3541C8.11524 52.7888 8.10282 53.2234 8.23321 53.658C8.38843 54.1609 8.66783 54.5335 9.07142 54.7632C9.475 54.993 9.95931 55.024 10.5181 54.8501L12.5733 54.2168C12.7534 54.1609 12.8837 54.1547 12.9645 54.1982C13.0452 54.2417 13.1135 54.341 13.1631 54.5087L13.1942 54.6142L13.4612 54.5335L13.0079 53.0682L12.7409 53.1489L12.7782 53.2731C12.8341 53.4469 12.8279 53.5711 12.7658 53.6518C12.7099 53.7325 12.5919 53.7946 12.4181 53.8505L10.4933 54.4404C10.0897 54.5645 9.78545 54.6018 9.58056 54.5521C9.37566 54.5024 9.18939 54.3907 9.00933 54.2168C8.83548 54.043 8.7113 53.8505 8.643 53.627C8.58091 53.4221 8.56849 53.2048 8.61195 52.9812C8.64921 52.7577 8.74234 52.5652 8.89136 52.4038C9.03416 52.2486 9.30115 52.112 9.68611 51.994L11.6978 51.3793C11.8779 51.3234 12.0083 51.311 12.0828 51.3483C12.1635 51.3855 12.2318 51.4911 12.2877 51.6774L12.3187 51.7891L12.5857 51.7084L12.0766 50.0009ZM11.6233 46.9958L11.3129 46.8778C11.5736 46.5425 11.704 46.1451 11.7102 45.6795C11.7164 45.0524 11.4805 44.5184 11.0148 44.0713C10.5492 43.6243 9.97793 43.4008 9.30115 43.3946C8.59333 43.3884 8.00968 43.6057 7.56263 44.0403C7.10938 44.4749 6.87965 45.0151 6.87965 45.6671C6.87965 46.1762 7.04108 46.6729 7.36395 47.1448L6.95415 47.3186V47.6415L8.56849 47.6477C8.76097 47.6477 8.88515 47.6726 8.94724 47.7222C9.00933 47.7719 9.04037 47.8775 9.04037 48.0575V48.2065H9.31978L9.3322 46.35H9.05279C9.05279 46.6543 9.01554 46.8405 8.95345 46.9213C8.88515 47.002 8.72993 47.0392 8.48157 47.0392H8.25804C8.07798 47.0392 7.94759 47.0206 7.84825 46.9834C7.75511 46.9461 7.66198 46.8716 7.56263 46.7536C7.4695 46.6357 7.39499 46.4991 7.33911 46.3438C7.28323 46.1886 7.25839 46.021 7.25839 45.8533C7.25839 45.5491 7.34532 45.2635 7.51917 44.9903C7.68681 44.7233 7.94138 44.506 8.27667 44.3445C8.61195 44.1831 8.97208 44.1086 9.36324 44.1086C9.92205 44.1086 10.3939 44.2762 10.7851 44.5991C11.1763 44.922 11.3687 45.3131 11.3625 45.7664C11.3625 46.1141 11.257 46.4183 11.0459 46.6667C10.8348 46.9151 10.5181 47.1324 10.0835 47.3124L10.1828 47.6105L11.6233 47.2379V46.9958ZM30.2937 73.7317L30.2068 73.9987L30.3683 74.0546C30.5297 74.1104 30.629 74.1725 30.6601 74.2532C30.6911 74.334 30.6725 74.4581 30.6166 74.6444L29.8902 76.8113C29.7101 77.3515 29.7474 77.8172 30.0081 78.2022C30.2689 78.5871 30.6104 78.8479 31.045 78.9969C31.548 79.1646 32.0136 79.1521 32.4358 78.9597C32.8581 78.7672 33.1623 78.3884 33.3486 77.8358L34.0316 75.7931C34.0936 75.613 34.1619 75.5075 34.2427 75.464C34.3234 75.4205 34.4476 75.4267 34.6152 75.4826L34.7208 75.5199L34.8077 75.2529L33.3486 74.7624L33.2616 75.0294L33.3858 75.0728C33.5535 75.1287 33.659 75.2032 33.6839 75.3026C33.7149 75.3957 33.6963 75.5323 33.6404 75.7061L33.0009 77.6123C32.8643 78.0159 32.7152 78.2829 32.56 78.4195C32.3986 78.5561 32.1999 78.643 31.9578 78.6865C31.7156 78.7299 31.4859 78.7175 31.2623 78.643C31.0574 78.5747 30.8774 78.4567 30.716 78.2953C30.5545 78.1276 30.4552 77.9414 30.4117 77.7303C30.3683 77.5192 30.4117 77.2273 30.5359 76.8424L31.2065 74.8493C31.2686 74.6692 31.3306 74.5575 31.4052 74.514C31.4797 74.4706 31.6101 74.4768 31.7901 74.5388L31.8957 74.5761L31.9826 74.3091L30.2937 73.7317ZM23.2155 72.3657C22.8616 72.9618 22.7622 73.564 22.905 74.1849C23.0541 74.8058 23.4142 75.2901 23.9978 75.6316C24.5815 75.9793 25.1837 76.0725 25.7922 75.8986C26.4007 75.731 26.8912 75.3398 27.2513 74.7251C27.599 74.1415 27.6984 73.5454 27.5618 72.9307C27.4252 72.316 27.0775 71.8441 26.5187 71.5089C25.9226 71.155 25.3141 71.0618 24.6808 71.2233C24.0599 71.3971 23.5694 71.7759 23.2155 72.3657ZM26.6491 74.3712C26.9719 73.831 27.1085 73.3343 27.0589 72.8811C27.0092 72.434 26.7732 72.0801 26.3448 71.8255C25.8916 71.5523 25.4383 71.5027 24.9913 71.6579C24.5442 71.8193 24.1531 72.1856 23.8178 72.7507C23.4949 73.2908 23.3707 73.8 23.4452 74.2657C23.5197 74.7313 23.7619 75.0914 24.1841 75.3398C24.6001 75.5882 25.0347 75.6192 25.4942 75.4392C25.9412 75.2715 26.3262 74.9114 26.6491 74.3712ZM63.636 69.8697L63.8161 70.087C63.9589 69.969 64.0644 69.8945 64.1451 69.8635C64.2197 69.8324 64.288 69.8324 64.3376 69.8573C64.3873 69.8821 64.4556 69.9504 64.5363 70.0498L66.5791 72.5334C66.6908 72.6637 66.7467 72.7755 66.7467 72.8624C66.7467 72.9493 66.6722 73.0549 66.5232 73.1729L66.4239 73.2536L66.6039 73.4709L69.5966 71.0121L69.0627 69.5592L68.7584 69.6648C68.9012 70.118 68.9199 70.503 68.8205 70.8259C68.7212 71.1487 68.4852 71.4592 68.1127 71.7696L67.5787 72.2043C67.4483 72.3098 67.3614 72.3595 67.3055 72.3533C67.2496 72.3471 67.1689 72.2788 67.051 72.136L66.0824 70.9625L66.5108 70.6086C66.7281 70.4285 66.9144 70.3478 67.0634 70.3664C67.2124 70.385 67.3614 70.4906 67.5166 70.6769L67.6284 70.8135L67.8705 70.6148L66.5667 69.0315L66.3245 69.2302L66.3742 69.286C66.548 69.5034 66.635 69.6896 66.6225 69.8573C66.6101 70.0249 66.5046 70.1863 66.3059 70.3478L65.8775 70.7017L64.7909 69.3792L65.6477 68.6714C66.0327 68.3547 66.3555 68.187 66.6101 68.1622C66.8647 68.1374 67.1565 68.2243 67.4732 68.4168L67.6284 68.1498L66.517 67.4792L63.636 69.8697ZM76.3272 44.9406H76.6066C76.6066 44.7916 76.619 44.686 76.6438 44.6115C76.6687 44.5432 76.7742 44.4501 76.9791 44.3259L79.1585 43.0903L80.214 43.0779C80.4127 43.0779 80.5369 43.1027 80.599 43.1524C80.6611 43.2021 80.6921 43.3263 80.6983 43.5125V43.6553H80.9777L80.9591 41.8609L80.6797 41.8671C80.6797 42.0969 80.6611 42.2521 80.6238 42.3328C80.5866 42.4135 80.4437 42.457 80.2078 42.457L79.0281 42.4694L76.9108 41.2462C76.7432 41.1469 76.6438 41.0662 76.6128 40.9979C76.5818 40.9296 76.5631 40.8178 76.5631 40.6626H76.2837L76.2961 42.0783H76.5755V41.9106C76.5755 41.8051 76.5818 41.7305 76.6004 41.6871C76.6128 41.6436 76.6438 41.625 76.6935 41.625C76.737 41.625 76.8115 41.6498 76.9232 41.7119L78.6804 42.6867L77.004 43.5932C76.8798 43.6615 76.7929 43.6988 76.7308 43.6988C76.6438 43.6988 76.6004 43.6057 76.5942 43.4256V43.2393H76.3148L76.3272 44.9406ZM75.4828 50.7212L76.8115 51.3048L76.9481 51.0192C76.6128 50.8516 76.3769 50.6839 76.2278 50.5225C76.085 50.3548 76.0229 50.0941 76.054 49.7339C76.0602 49.6284 76.085 49.5601 76.1161 49.5415C76.1471 49.5166 76.2216 49.5104 76.3272 49.5228L79.6242 49.8022C79.7732 49.8147 79.8787 49.8333 79.9408 49.8643C80.0029 49.8892 80.0402 49.945 80.065 50.0258C80.0836 50.1065 80.0836 50.2369 80.0712 50.4169L80.3506 50.4418L80.4996 48.6784L80.2202 48.6536C80.2016 48.8709 80.1643 49.0199 80.1022 49.1006C80.0402 49.1813 79.8911 49.2124 79.6552 49.1938L76.4327 48.9268C76.2899 48.9144 76.2092 48.8895 76.1844 48.8585C76.1595 48.8212 76.1471 48.7405 76.1595 48.6039C76.1844 48.2935 76.2837 48.0575 76.4452 47.9085C76.6128 47.7595 76.8798 47.6291 77.2461 47.5235L77.1592 47.2193L75.756 47.5794L75.7373 47.8216L75.8926 47.8588L75.6752 50.4852L75.5138 50.5039L75.4828 50.7212ZM74.4831 55.0985L74.7563 55.1482L74.7812 55.0116C74.8184 54.8253 74.8743 54.7135 74.9488 54.6825C75.0295 54.6452 75.1661 54.6452 75.371 54.6825L78.3948 55.2475C78.6121 55.2848 78.7425 55.3407 78.7859 55.4152C78.8356 55.4835 78.8418 55.6014 78.8108 55.7629L78.7859 55.8995L79.0591 55.9491L79.382 54.2292L79.1088 54.1796L79.084 54.31C79.0467 54.5024 78.9908 54.6142 78.9101 54.6452C78.8294 54.6825 78.6928 54.6825 78.5065 54.6452L75.5511 54.0927C75.3027 54.0492 75.1537 53.9871 75.0916 53.9126C75.0357 53.8381 75.0233 53.7201 75.0481 53.5525L75.073 53.4221L74.7998 53.3724L74.4831 55.0985ZM73.8684 57.2034L74.0609 57.4952C73.6635 57.6131 73.3407 57.8739 73.0861 58.2713C72.8377 58.6563 72.7384 59.0412 72.7757 59.4262C72.8191 59.8111 72.9805 60.0967 73.2599 60.2768C73.5145 60.4382 73.7815 60.4879 74.0671 60.4258C74.3527 60.3637 74.6632 60.1837 74.9985 59.8918L75.6442 59.333C75.9174 59.0971 76.1471 58.9481 76.3396 58.886C76.5321 58.8239 76.7184 58.8487 76.9046 58.9667C77.1033 59.0909 77.2089 59.2958 77.2337 59.5814C77.2523 59.867 77.184 60.134 77.0288 60.3824C76.8363 60.6866 76.5445 60.9039 76.1595 61.0343C75.7746 61.1647 75.3462 61.1771 74.8743 61.0653L74.7563 61.3572L76.3334 62.0029L76.4576 61.8104L76.1595 61.4441C76.4265 61.3572 76.6501 61.2516 76.8363 61.1274C77.0226 61.0033 77.1902 60.817 77.3455 60.581C77.6124 60.1712 77.718 59.749 77.6621 59.3268C77.6062 58.9046 77.42 58.588 77.1033 58.3831C76.8425 58.2154 76.5631 58.1657 76.2713 58.2278C75.9795 58.2899 75.6628 58.47 75.3151 58.768L74.6383 59.3517C74.3714 59.5752 74.1478 59.718 73.9616 59.7801C73.7753 59.836 73.6014 59.8173 73.4524 59.718C73.2848 59.6062 73.1917 59.4386 73.173 59.2089C73.1544 58.9791 73.2227 58.7432 73.3779 58.5072C73.558 58.2278 73.8188 58.0229 74.154 57.8988C74.4893 57.7746 74.8743 57.7373 75.3089 57.7932L75.3958 57.489L73.9988 57.0047L73.8684 57.2034ZM68.3114 65.6041L68.5349 65.7718L68.6467 65.6165C68.7398 65.4924 68.8267 65.4241 68.9137 65.4241C69.0006 65.4241 69.1123 65.4675 69.2427 65.5669L71.7139 67.3799C71.9374 67.5413 72.0554 67.6655 72.0678 67.74C72.0802 67.8207 72.0368 67.9325 71.9374 68.0691L71.8443 68.1995L72.074 68.3671L73.1171 66.9453L72.8936 66.7776L72.8191 66.877C72.7011 67.0384 72.6018 67.1253 72.5211 67.1253C72.4466 67.1253 72.3162 67.0632 72.1423 66.939L70.9812 66.0884L71.3289 65.6165L74.123 65.5731L74.7377 64.7287L74.5079 64.561L74.4583 64.6231C74.3714 64.7411 74.272 64.8218 74.1603 64.8652C74.0485 64.9087 73.8871 64.9335 73.6822 64.946L71.7512 65.0329C72.0554 64.5983 72.2044 64.2071 72.1858 63.8594C72.1672 63.5117 72.0057 63.2199 71.6891 62.9901C71.0558 62.5245 70.3976 62.7604 69.7084 63.698L68.3114 65.6041ZM69.3172 64.8528L70.7329 65.8897L71.2917 65.126C71.5525 64.7721 71.6829 64.4741 71.6953 64.2257C71.7015 63.9836 71.5773 63.7663 71.3165 63.5738C71.0806 63.3999 70.8571 63.344 70.646 63.3937C70.4349 63.4496 70.2237 63.611 70.0189 63.8904L69.3172 64.8528ZM57.8803 73.4026L58.0045 73.6572C58.1535 73.5827 58.2714 73.5578 58.3584 73.5765C58.4453 73.6013 58.5633 73.6758 58.7061 73.8L61.8851 76.7058L62.3011 76.5009L61.8975 72.2043C61.8789 72.018 61.8851 71.8752 61.9223 71.7945C61.9596 71.7076 62.0527 71.6268 62.2017 71.5523L62.0776 71.304L60.8047 71.9373L60.9289 72.1856L61.0593 72.1173C61.1648 72.0615 61.2518 72.0366 61.3139 72.0428C61.3697 72.049 61.4194 72.0801 61.4504 72.1422C61.4753 72.1981 61.4939 72.285 61.5001 72.3968L61.8851 75.9048L59.3146 73.4895C59.2276 73.4088 59.1718 73.3343 59.1407 73.2784C59.1097 73.2225 59.1159 73.1667 59.1469 73.1232C59.178 73.0735 59.2525 73.0239 59.3766 72.9618L59.4946 72.8997L59.3704 72.6451L57.8803 73.4026ZM54.484 75.048L54.5771 75.315L54.7075 75.2653C54.8875 75.2032 55.0117 75.197 55.08 75.2467C55.1483 75.2963 55.2166 75.4205 55.2849 75.613L56.297 78.5188C56.3715 78.7237 56.3839 78.8665 56.3467 78.941C56.3094 79.0155 56.2101 79.0838 56.0548 79.1397L55.9182 79.1832L56.0114 79.4502L57.663 78.8727L57.5698 78.6057L57.4394 78.6492C57.2594 78.7113 57.129 78.7175 57.0607 78.6678C56.9924 78.6182 56.9241 78.5002 56.862 78.3201L55.8686 75.4826C55.7878 75.2467 55.763 75.0852 55.8003 74.9921C55.8375 74.9052 55.9307 74.8307 56.0921 74.781L56.2163 74.7375L56.1231 74.4706L54.484 75.048ZM48.0514 76.1532L48.0701 76.4326L48.188 76.4264C48.3371 76.414 48.4426 76.4202 48.5047 76.445C48.573 76.4699 48.6103 76.5133 48.6351 76.5816C48.6537 76.6499 48.6724 76.7741 48.6848 76.9479L48.9083 79.8972C48.9269 80.1331 48.9083 80.2946 48.8586 80.3753C48.809 80.456 48.6723 80.5057 48.455 80.5243L48.3743 80.5305L48.3929 80.8099L49.9452 80.692L49.9266 80.4126C49.6596 80.4312 49.4919 80.4063 49.4236 80.3256C49.3615 80.2511 49.3181 80.0959 49.2995 79.8662L49.0511 76.5381L51.8824 80.5429L52.2798 80.5119L51.9942 76.6934C51.9817 76.4823 52.0004 76.3395 52.0625 76.2525C52.1245 76.1656 52.2487 76.1159 52.4288 76.1035L52.5157 76.0973L52.4971 75.8179L50.9635 75.9359L50.9821 76.2153L51.0939 76.2091C51.2553 76.1966 51.3733 76.2277 51.454 76.296C51.5285 76.3705 51.5782 76.5133 51.5968 76.7244L51.7955 79.3819L49.4485 76.0476L48.0514 76.1532ZM40.7994 76.5816V76.861H40.967C41.1346 76.861 41.2526 76.8921 41.3023 76.9541C41.3582 77.0162 41.383 77.1466 41.383 77.3391V79.6302C41.383 80.2015 41.5693 80.6299 41.9356 80.9093C42.3019 81.1887 42.7117 81.3315 43.1712 81.3315C43.699 81.3315 44.1336 81.1701 44.4751 80.8534C44.8166 80.5367 44.9842 80.0835 44.9842 79.4998V77.3453C44.9842 77.159 45.0153 77.0287 45.0773 76.9666C45.1394 76.8983 45.2574 76.8672 45.4375 76.8672H45.543V76.5878H44.0094V76.8672H44.1398C44.3198 76.8672 44.4378 76.9045 44.4999 76.9852C44.5558 77.0659 44.5868 77.1963 44.5868 77.3764V79.3943C44.5868 79.8227 44.531 80.1207 44.4254 80.3008C44.3199 80.4809 44.1584 80.6299 43.9411 80.7478C43.7238 80.8658 43.5003 80.9279 43.2705 80.9279C43.0532 80.9279 42.8483 80.8782 42.6434 80.7727C42.4385 80.6671 42.2833 80.5243 42.1777 80.338C42.0722 80.1518 42.0163 79.86 42.0163 79.4564V77.3515C42.0163 77.1653 42.0411 77.0349 42.1032 76.9728C42.1591 76.9045 42.2833 76.8734 42.4758 76.8734H42.5875V76.594H40.7994V76.5816ZM44.0032 18.2419C29.8157 18.2419 18.2483 29.8093 18.2483 43.9968C18.2483 58.1844 29.8157 69.7517 44.0032 69.7517C58.1907 69.7517 69.7581 58.1844 69.7581 43.9968C69.7581 29.8155 58.1845 18.2419 44.0032 18.2419Z" fill="#A4130E"/>
<path fill-rule="evenodd" clip-rule="evenodd" d="M39.0236 62.984V67.4047C38.9987 67.6531 39.0919 67.7711 39.303 67.7462H39.8307V68.0257H37.2913V67.7462H37.788C37.968 67.7462 38.0674 67.6407 38.0674 67.4358V63.9712C37.7445 64.1761 37.4341 64.3127 37.1422 64.3748L37.0181 64.1637C37.6452 63.8718 38.1667 63.4807 38.6014 62.984H39.0236Z" fill="#A4130E"/>
<path fill-rule="evenodd" clip-rule="evenodd" d="M41.594 68.0877L41.414 67.8642C42.3205 67.5786 42.9041 66.9142 43.1463 65.8587C42.8793 66.0636 42.6061 66.1567 42.3391 66.1381C41.4761 66.1009 41.0166 65.5979 40.9793 64.648C41.0414 63.6173 41.5816 63.0647 42.5875 62.9777C43.6554 63.0647 44.2266 63.7601 44.2887 65.0826C44.1832 66.7093 43.2891 67.7152 41.594 68.0877ZM41.9976 64.4989C41.9604 65.3868 42.1404 65.8028 42.5502 65.7656C42.7303 65.7904 42.9538 65.7035 43.1959 65.5172C43.2332 65.2068 43.258 64.9212 43.258 64.679C43.2332 63.7539 43.0159 63.2758 42.575 63.2571C42.1777 63.2571 41.979 63.6731 41.9976 64.4989Z" fill="#A4130E"/>
<path fill-rule="evenodd" clip-rule="evenodd" d="M45.2201 65.5483C45.2574 63.965 45.8038 63.1143 46.8593 62.984C47.89 63.1081 48.4364 63.965 48.4985 65.5483C48.4612 67.1564 47.9148 68.0008 46.8593 68.0877C45.81 68.0257 45.2636 67.175 45.2201 65.5483ZM46.2446 64.4679V66.5355C46.2073 67.442 46.4122 67.8828 46.8593 67.8394C47.2939 67.8953 47.4988 67.4172 47.474 66.4113V64.648C47.474 63.7228 47.2691 63.2571 46.8593 63.2571C46.4247 63.2447 46.2198 63.6483 46.2446 64.4679Z" fill="#A4130E"/>
<path fill-rule="evenodd" clip-rule="evenodd" d="M49.3366 68.0257V67.7462C49.4608 67.6221 49.5725 67.4855 49.6781 67.3427C51.0006 66.0201 51.5843 65.1261 51.4415 64.6542C51.4042 64.0146 51.131 63.6731 50.6343 63.6359C50.1624 63.6731 49.8582 63.9774 49.7402 64.5362H49.4297C49.5974 63.5614 50.1189 63.046 51.0068 62.984C51.8699 63.046 52.3355 63.5117 52.3976 64.3748C52.3976 64.8901 52.0251 65.4924 51.28 66.1692C50.8268 66.5789 50.4853 66.9204 50.2555 67.1874H51.7457C52.0934 67.2247 52.2921 67.0322 52.3293 66.5914H52.5715L52.4225 68.0132H49.3366V68.0257Z" fill="#A4130E"/>
<path fill-rule="evenodd" clip-rule="evenodd" d="M30.6537 24.3331C31.1069 24.4262 31.6409 24.8174 32.0942 25.9226C32.0942 25.9226 32.2121 26.2082 33.187 26.2082L39.1786 26.0405C39.1786 26.0405 42.0596 26.382 40.3894 28.3999L39.3525 28.5738L33.9755 28.9091C32.0756 29.0271 31.7092 30.362 32.8393 30.362L39.812 30.1881C41.3952 30.1509 41.4511 32.7835 39.0731 32.8704L34.9751 33.0132C34.9751 33.0132 35.596 33.423 36.0679 33.8266C36.7323 34.3978 36.6826 34.6151 36.012 35.0994C35.6023 35.3975 34.8944 35.6707 33.8265 35.3788C33.8265 35.3788 29.9086 34.5717 29.3871 31.343C29.3871 31.343 29.1139 29.9708 29.0394 28.3379C28.9711 26.8104 28.9648 23.9978 30.6537 24.3331Z" fill="#A4130E"/>
<path fill-rule="evenodd" clip-rule="evenodd" d="M56.3776 22.967C55.9306 23.0974 55.44 23.532 55.0799 24.6745C55.0799 24.6745 54.993 24.9725 54.012 25.0532L48.0265 25.4009C48.0265 25.4009 45.1828 25.9846 47.0207 27.8535L48.0762 27.9404L53.4594 27.81C55.3593 27.7665 55.8436 29.0642 54.7136 29.1636L47.7533 29.5858C46.1762 29.6789 46.3439 32.3115 48.7219 32.1935L52.8198 31.9824C52.8198 31.9824 52.3542 32.3488 51.9382 32.7461C51.1434 33.5099 51.2303 33.9072 52.2983 34.3046C52.7391 34.466 53.36 34.5281 54.1672 34.2301C54.1672 34.2301 58.0044 33.0939 58.2403 29.8341C58.2403 29.8341 58.3955 28.4433 58.3272 26.8104C58.2713 25.2892 58.0354 22.4889 56.3776 22.967Z" fill="#A4130E"/>
<path fill-rule="evenodd" clip-rule="evenodd" d="M44.5868 20.5952C45.127 21.1788 45.3691 22.104 45.2077 23.5444L45.6858 35.385L61.6801 35.0373C64.3686 34.9814 63.9899 38.2349 61.854 38.2349H58.1348C58.1348 38.2349 59.1717 38.9241 59.1717 39.5326C59.1717 39.5326 59.1779 45.605 58.9792 49.7277C58.8302 52.8136 58.8364 54.6887 55.1855 55.7505C53.6829 56.1851 52.646 56.6259 52.1742 54.9681C52.0251 54.4466 51.9879 53.9312 52.4349 53.9312C52.4349 53.9312 56.3652 53.5587 54.9558 51.0441L49.6657 51.3483C47.7534 51.4601 46.9276 49.4173 48.3618 48.5977L55.1545 48.2438C55.8996 48.2065 55.9182 47.0641 55.1793 46.8965L48.2997 46.9647C46.5364 46.9834 46.3129 44.8785 48.1445 44.388C48.6537 44.2514 49.467 44.121 50.7337 44.0776L55.5829 43.8727C56.1169 43.8478 55.9803 42.4508 55.4773 42.4508L48.0576 42.5874C47.6416 42.5936 47.3249 42.5936 47.1138 42.4384C46.7165 42.1466 46.6295 41.0103 46.9089 40.6564C47.0455 40.4826 47.2691 40.3149 47.623 40.1535C47.623 40.1535 51.1062 39.5574 54.5149 39.4891C54.5149 39.4891 57.1848 39.1911 55.7754 38.0797L45.99 38.744V49.4111C45.99 49.4111 48.2873 54.5956 51.6216 57.1164C51.6216 57.1164 53.745 58.7929 55.0986 59.6621C55.8871 60.1713 56.8744 60.9039 55.1669 61.7421C54.6391 62.0029 53.7761 62.0029 52.3604 61.3386C52.3604 61.3386 47.3994 59.1157 44.8786 54.0057C44.8786 54.0057 40.9235 61.5745 35.9377 63.1205C34.8573 63.4558 33.8328 63.6918 33.808 62.1519C33.7955 61.2889 34.789 60.8481 35.5713 60.2768C37.8003 58.6439 41.8424 54.9185 42.4012 49.0448L42.2708 39.8368C42.2708 39.8368 42.2708 39.0607 40.7186 39.0607L31.7031 39.4519C31.7031 39.4519 30.8587 40.3584 32.9325 40.3584L40.5199 40.1659C40.5199 40.1659 43.5685 41.3332 40.582 43.2145L32.6717 43.6057V44.8351L40.4516 44.8972C40.4516 44.8972 43.109 45.8037 40.5137 47.7533L32.9946 48.1445C32.9946 48.1445 32.4109 49.1193 33.3175 49.1193L40.9048 48.9889C40.9048 48.9889 42.4881 51.0192 39.8059 52.0996L34.4227 52.5528C34.4227 52.5528 33.3112 52.5528 33.7272 53.3165C34.1867 54.161 34.9442 54.1796 35.8383 54.31C36.602 54.428 36.4778 54.31 36.8007 55.1358C37.1111 55.9429 37.3223 57.0854 35.9749 57.0854C35.9749 57.0854 29.7535 57.607 29.6852 51.1186L28.847 41.8485C28.847 41.8485 28.5862 40.4888 29.561 39.9672C29.561 39.9672 29.6231 39.7064 28.9153 39.7064C28.5365 39.7064 27.0774 39.6133 25.7797 39.5698C22.7498 39.4767 23.4948 36.2977 25.5438 36.2977L41.6934 35.7016L42.4012 35.4657C42.2274 31.5168 42.0535 27.5741 41.8859 23.6252C41.83 22.3834 41.8548 21.8308 42.1032 21.1602C42.662 19.6638 43.1525 19.0429 44.5868 20.5952Z" fill="#A4130E"/>
</svg>
