<?xml version="1.0" encoding="utf-8"?>
<!-- Generator: Adobe Illustrator 27.2.0, SVG Export Plug-In . SVG Version: 6.00 Build 0)  -->
<svg version="1.0" id="图层_1" xmlns="http://www.w3.org/2000/svg" xmlns:xlink="http://www.w3.org/1999/xlink" x="0px" y="0px"
	 viewBox="0 0 304.2 281.5" enable-background="new 0 0 304.2 281.5" xml:space="preserve">
<g>
	<g>
		<rect x="302.5" y="279.1" width="1.7" height="1.4"/>
		<path d="M234.9,269.3h-2.3v11.3h2.3c1.5,0,2.7-0.4,3.5-1.3c0.9-0.8,1.3-2.3,1.3-4.3c0-2-0.4-3.5-1.2-4.4
			C237.7,269.7,236.5,269.3,234.9,269.3z M237.3,278.4c-0.5,0.6-1.3,1-2.4,1h-0.7v-8.8h0.7c1.1,0,1.9,0.3,2.4,1
			c0.5,0.7,0.8,1.8,0.8,3.5S237.8,277.8,237.3,278.4z"/>
		<polygon points="229.5,277.5 229.4,277.5 225.7,269.3 224.1,269.3 224.1,280.6 225.6,280.6 225.6,272.4 225.7,272.4 229.4,280.6 
			231,280.6 231,269.3 229.5,269.3 		"/>
		<polygon points="254.8,275.3 258.3,275.3 258.3,274 254.8,274 254.8,270.5 258.6,270.5 258.6,269.3 253.6,269.3 253.6,280.6 
			258.9,280.6 258.9,279.3 254.8,279.3 		"/>
		<polygon points="245.8,270.5 248.3,270.5 248.3,280.6 249.7,280.6 249.7,270.5 252.1,270.5 252.1,269.3 245.8,269.3 		"/>
		<path d="M120.5,274.6c0.4-0.5,0.6-1.2,0.6-2.1c0-1.1-0.3-2-0.9-2.5c-0.6-0.5-1.4-0.7-2.4-0.7h-3.1v11.3h1.4v-4.9h1.6l2.2,4.9h1.5
			l-2.4-5.1C119.7,275.4,120.2,275,120.5,274.6z M116.1,274.4v-3.9h1.4c0.8,0,1.3,0.2,1.7,0.5c0.3,0.3,0.5,0.8,0.5,1.4
			c0,0.7-0.2,1.2-0.6,1.5c-0.3,0.3-0.8,0.4-1.3,0.4H116.1z"/>
		<path d="M286.4,269.1c-1.2,0-2.1,0.4-2.8,1.3c-0.7,0.9-1,2.3-1,4.4c0,2.1,0.3,3.6,1,4.5c0.7,0.9,1.6,1.4,2.8,1.4
			c1.2,0,2.1-0.4,2.8-1.4c0.7-0.9,1-2.4,1-4.5c0-2.1-0.3-3.5-1-4.4C288.5,269.6,287.6,269.1,286.4,269.1z M287.9,278.6
			c-0.4,0.6-0.9,0.9-1.5,0.9s-1.1-0.3-1.5-0.9c-0.4-0.6-0.6-1.8-0.6-3.7c0-1.8,0.2-3.1,0.6-3.6c0.4-0.6,0.9-0.8,1.5-0.8
			s1.1,0.2,1.5,0.8c0.4,0.5,0.6,1.8,0.6,3.6C288.5,276.8,288.3,278,287.9,278.6z"/>
		<polygon points="267.9,275.3 271.4,275.3 271.4,274 267.9,274 267.9,270.5 271.7,270.5 271.7,269.3 266.7,269.3 266.7,280.6 
			272,280.6 272,279.3 267.9,279.3 		"/>
		<path d="M279.4,278.8c-0.4,0.4-0.8,0.7-1.4,0.7c-0.7,0-1.2-0.3-1.7-1c-0.4-0.6-0.6-1.7-0.6-3.3c0-1.7,0.2-3,0.6-3.7
			c0.4-0.7,1-1.1,1.8-1.1c0.6,0,1.1,0.2,1.4,0.7c0.3,0.5,0.5,1.2,0.5,2.2h1.5c0-1.3-0.2-2.3-0.9-3.1c-0.7-0.7-1.5-1.1-2.5-1.1
			c-1.2,0-2.2,0.5-2.9,1.5c-0.8,1-1.1,2.5-1.1,4.6c0,1.9,0.4,3.3,1.1,4.2c0.8,0.8,1.7,1.3,2.8,1.3c1,0,1.8-0.3,2.5-1
			c0.7-0.7,1.1-1.9,1.1-3.6H280C280,277.4,279.8,278.3,279.4,278.8z"/>
		<path d="M218.5,269.1l-3.4,11.4h1.6l0.9-3.5h3.1l0.9,3.5h1.6l-3.3-11.4H218.5z M218,275.8l1.1-4h0.1l1.1,4H218z"/>
		<polygon points="261.2,269.3 260.1,269.3 260.1,280.6 265.5,280.6 265.5,279.3 261.2,279.3 		"/>
		<polygon points="296.5,276.8 296.3,276.8 294.7,269.3 292.4,269.3 292.4,280.6 293.9,280.6 293.9,272.5 294.1,272.5 295.8,280.6 
			297,280.6 298.7,272.5 298.9,272.5 298.9,280.6 300.4,280.6 300.4,269.3 298.1,269.3 		"/>
		<rect x="52.9" y="269.3" width="1.5" height="11.3"/>
		<path d="M47.7,269.1c-1.3,0-2.3,0.4-3,1.3c-0.7,0.9-1.1,2.4-1.1,4.4c0,2.1,0.3,3.6,1.1,4.5c0.7,0.9,1.7,1.3,3,1.3
			c0.3,0,0.6,0,0.9-0.1c0.2,0,0.5-0.1,0.7-0.3l0.6,1.1l1.2-1.1l-0.6-1c0.4-0.4,0.6-1,0.8-1.8c0.1-0.7,0.2-1.6,0.2-2.7
			c0-2-0.3-3.5-1-4.4C49.9,269.6,48.9,269.1,47.7,269.1z M49.8,276.6c0,0.3-0.1,0.7-0.2,1.2l-1-1.8l-1,1.1l1.2,2.1
			c-0.1,0.1-0.2,0.1-0.4,0.2c-0.2,0-0.4,0.1-0.6,0.1c-0.6,0-1.2-0.3-1.6-0.9c-0.4-0.6-0.7-1.8-0.7-3.7c0-1.8,0.2-3.1,0.7-3.6
			c0.4-0.6,1-0.8,1.6-0.8c0.6,0,1.1,0.2,1.6,0.8c0.4,0.5,0.6,1.8,0.6,3.6C49.9,275.6,49.9,276.2,49.8,276.6z"/>
		<polygon points="161.5,280.6 163,280.6 163,275.5 166.8,275.5 166.8,274.2 163,274.2 163,270.5 168,270.5 168,269.3 161.5,269.3 
					"/>
		<path d="M156.9,269.1c-1.1,0-1.9,0.4-2.5,1.3c-0.6,0.9-0.9,2.3-0.9,4.4c0,2.1,0.3,3.6,0.9,4.5c0.6,0.9,1.4,1.4,2.5,1.4
			c1,0,1.9-0.4,2.5-1.4c0.6-0.9,0.9-2.4,0.9-4.5c0-2.1-0.3-3.5-0.9-4.4C158.8,269.6,158,269.1,156.9,269.1z M158.3,278.6
			c-0.3,0.6-0.8,0.9-1.3,0.9c-0.5,0-1-0.3-1.4-0.9c-0.4-0.6-0.6-1.8-0.6-3.7c0-1.8,0.2-3.1,0.6-3.6c0.3-0.6,0.8-0.8,1.4-0.8
			c0.5,0,1,0.2,1.3,0.8c0.4,0.5,0.5,1.8,0.5,3.6C158.8,276.8,158.7,278,158.3,278.6z"/>
		<polygon points="144.3,274.1 144.2,274.1 142,269.3 140.6,269.3 143.5,275.5 143.5,280.6 145,280.6 145,275.5 147.8,269.3 
			146.4,269.3 		"/>
		<polygon points="133.2,270.5 135.6,270.5 135.6,280.6 137,280.6 137,270.5 139.5,270.5 139.5,269.3 133.2,269.3 		"/>
		<polygon points="13.5,274 9.8,274 9.8,269.3 8.3,269.3 8.3,280.6 9.8,280.6 9.8,275.3 13.5,275.3 13.5,280.6 15,280.6 15,269.3 
			13.5,269.3 		"/>
		<polygon points="31.1,277.5 31,277.5 27.5,269.3 25.8,269.3 25.8,280.6 27.3,280.6 27.3,272.4 27.4,272.4 30.9,280.6 32.6,280.6 
			32.6,269.3 31.1,269.3 		"/>
		<path d="M20.5,269.1c-1.1,0-2,0.4-2.7,1.3c-0.6,0.9-0.9,2.3-0.9,4.4c0,2.1,0.3,3.6,0.9,4.5c0.6,0.9,1.5,1.4,2.7,1.4
			c1.1,0,2-0.4,2.6-1.4c0.6-0.9,0.9-2.4,0.9-4.5c0-2.1-0.3-3.5-0.9-4.4C22.5,269.6,21.6,269.1,20.5,269.1z M21.9,278.6
			c-0.4,0.6-0.9,0.9-1.4,0.9s-1-0.3-1.4-0.9c-0.4-0.6-0.6-1.8-0.6-3.7c0-1.8,0.2-3.1,0.6-3.6c0.4-0.6,0.9-0.8,1.4-0.8s1,0.2,1.4,0.8
			c0.4,0.5,0.6,1.8,0.6,3.6C22.5,276.8,22.3,278,21.9,278.6z"/>
		<path d="M38.5,270.4c0.7,0,1.2,0.2,1.6,0.7c0.3,0.4,0.5,1.1,0.5,2.1h1.7c0-1.2-0.3-2.2-1-2.9c-0.7-0.7-1.6-1.1-2.8-1.1
			c-1.3,0-2.4,0.5-3.2,1.5c-0.8,1-1.1,2.6-1.1,4.6c0,1.9,0.4,3.3,1.2,4.2c0.9,0.8,1.8,1.3,2.9,1.3c0.5,0,1-0.1,1.4-0.2
			c0.4-0.2,0.7-0.4,1-0.7l0.2,0.9h1.3v-5.8h-4v1.3h2.4v0.7c0,0.9-0.2,1.5-0.6,2c-0.4,0.4-0.9,0.6-1.6,0.6c-0.7,0-1.3-0.3-1.8-0.9
			c-0.5-0.6-0.8-1.7-0.8-3.4c0-1.7,0.2-3,0.6-3.7C37.1,270.8,37.7,270.4,38.5,270.4z"/>
		<path d="M83.8,277.3c0,0.8-0.1,1.3-0.5,1.7c-0.3,0.3-0.7,0.5-1.3,0.5c-0.5,0-1-0.2-1.3-0.5c-0.3-0.3-0.5-0.9-0.5-1.7v-8h-1.4v8
			c0,1.1,0.2,1.9,0.8,2.5c0.5,0.6,1.3,0.9,2.4,0.9c1.1,0,1.9-0.3,2.4-0.9c0.5-0.6,0.8-1.4,0.8-2.5v-8h-1.4V277.3z"/>
		<path d="M125.4,274.1c-0.9-0.4-1.5-0.7-1.7-1c-0.2-0.3-0.3-0.6-0.3-1c0-0.5,0.1-0.9,0.4-1.1c0.2-0.3,0.6-0.4,1.1-0.4
			c0.5,0,0.9,0.2,1.2,0.6c0.3,0.4,0.4,0.8,0.4,1.3h1.4c0-0.8-0.2-1.5-0.7-2.2c-0.5-0.7-1.2-1-2.3-1c-0.8,0-1.5,0.3-2.1,0.9
			c-0.6,0.5-0.9,1.3-0.9,2.2c0,0.6,0.2,1.2,0.6,1.7c0.4,0.4,1.1,0.9,2.1,1.3c0.7,0.3,1.2,0.7,1.6,1c0.3,0.4,0.5,0.8,0.5,1.2
			c0,0.5-0.1,1-0.4,1.3c-0.3,0.4-0.8,0.6-1.5,0.6c-0.5,0-0.9-0.2-1.3-0.5c-0.3-0.3-0.5-0.9-0.5-1.5V277h-1.4v0.4
			c0,0.9,0.3,1.7,0.9,2.3c0.5,0.6,1.3,0.9,2.4,0.9c1,0,1.8-0.3,2.4-0.9c0.6-0.6,0.9-1.4,0.9-2.4c0-0.7-0.2-1.3-0.7-1.9
			C127,275,126.3,274.5,125.4,274.1z"/>
		<rect x="95.9" y="269.3" width="1.4" height="11.3"/>
		<rect x="130.2" y="269.3" width="1.4" height="11.3"/>
		<polygon points="108.4,275.3 112.5,275.3 112.5,274 108.4,274 108.4,270.5 112.9,270.5 112.9,269.3 106.9,269.3 106.9,280.6 
			113.2,280.6 113.2,279.3 108.4,279.3 		"/>
		<polygon points="102.9,278 102.9,278 100.7,269.3 99.2,269.3 102.3,280.7 103.5,280.7 106.6,269.3 105.2,269.3 		"/>
		<polygon points="61.5,277.5 61.4,277.5 57.9,269.3 56.2,269.3 56.2,280.6 57.7,280.6 57.7,272.4 57.8,272.4 61.4,280.6 63,280.6 
			63,269.3 61.5,269.3 		"/>
		<polygon points="92.7,277.5 92.7,277.5 89.3,269.3 87.7,269.3 87.7,280.6 89.2,280.6 89.2,272.4 89.2,272.4 92.6,280.6 
			94.1,280.6 94.1,269.3 92.7,269.3 		"/>
		<path d="M5,278.8c-0.4,0.4-0.8,0.7-1.3,0.7c-0.6,0-1.2-0.3-1.6-1c-0.4-0.6-0.6-1.7-0.6-3.3c0-1.7,0.2-3,0.6-3.7
			c0.4-0.7,0.9-1.1,1.6-1.1c0.6,0,1.1,0.2,1.4,0.7c0.3,0.5,0.4,1.2,0.4,2.2h1.4c0-1.3-0.2-2.3-0.9-3.1c-0.6-0.7-1.4-1.1-2.4-1.1
			c-1.1,0-2,0.5-2.7,1.5c-0.7,1-1.1,2.5-1.1,4.6c0,1.9,0.3,3.3,1.1,4.2c0.7,0.8,1.6,1.3,2.7,1.3c0.9,0,1.7-0.3,2.3-1
			c0.6-0.7,1-1.9,1-3.6H5.6C5.6,277.4,5.4,278.3,5,278.8z"/>
		<path d="M68.5,270.4c0.6,0,1.1,0.2,1.5,0.7c0.3,0.4,0.5,1.1,0.5,2.1h1.6c0-1.2-0.3-2.2-0.9-2.9c-0.6-0.7-1.5-1.1-2.7-1.1
			c-1.3,0-2.3,0.5-3,1.5c-0.7,1-1.1,2.6-1.1,4.6c0,1.9,0.4,3.3,1.2,4.2c0.8,0.8,1.7,1.3,2.8,1.3c0.5,0,0.9-0.1,1.4-0.2
			c0.4-0.2,0.7-0.4,0.9-0.7l0.2,0.9h1.2v-5.8h-3.8v1.3h2.3v0.7c0,0.9-0.2,1.5-0.6,2c-0.3,0.4-0.8,0.6-1.5,0.6s-1.2-0.3-1.7-0.9
			c-0.5-0.6-0.7-1.7-0.7-3.4c0-1.7,0.2-3,0.6-3.7C67.1,270.8,67.7,270.4,68.5,270.4z"/>
		<path d="M206.9,274.1c-0.9-0.4-1.5-0.7-1.7-1c-0.2-0.3-0.3-0.6-0.3-1c0-0.5,0.1-0.9,0.4-1.1c0.2-0.3,0.6-0.4,1.1-0.4
			c0.5,0,0.9,0.2,1.2,0.6c0.3,0.4,0.4,0.8,0.4,1.3h1.4c0-0.8-0.2-1.5-0.7-2.2c-0.5-0.7-1.2-1-2.3-1c-0.8,0-1.5,0.3-2.1,0.9
			c-0.6,0.5-0.9,1.3-0.9,2.2c0,0.6,0.2,1.2,0.6,1.7c0.4,0.4,1.1,0.9,2.1,1.3c0.7,0.3,1.2,0.7,1.6,1c0.3,0.4,0.5,0.8,0.5,1.2
			c0,0.5-0.1,1-0.4,1.3c-0.3,0.4-0.8,0.6-1.4,0.6c-0.5,0-0.9-0.2-1.3-0.5c-0.3-0.3-0.5-0.9-0.5-1.5V277h-1.4v0.4
			c0,0.9,0.3,1.7,0.8,2.3c0.6,0.6,1.4,0.9,2.4,0.9s1.8-0.3,2.4-0.9c0.6-0.6,0.9-1.4,0.9-2.4c0-0.7-0.2-1.3-0.7-1.9
			C208.5,275,207.8,274.5,206.9,274.1z"/>
		<path d="M183.6,269.1c-1,0-1.9,0.4-2.5,1.3c-0.6,0.9-0.9,2.3-0.9,4.4c0,2.1,0.3,3.6,0.9,4.5c0.6,0.9,1.4,1.4,2.5,1.4
			c1,0,1.9-0.4,2.5-1.4c0.6-0.9,0.8-2.4,0.8-4.5c0-2.1-0.2-3.5-0.8-4.4C185.5,269.6,184.7,269.1,183.6,269.1z M185,278.6
			c-0.3,0.6-0.8,0.9-1.3,0.9c-0.5,0-1-0.3-1.3-0.9c-0.4-0.6-0.6-1.8-0.6-3.7c0-1.8,0.2-3.1,0.6-3.6c0.3-0.6,0.8-0.8,1.3-0.8
			c0.5,0,1,0.2,1.3,0.8c0.3,0.5,0.5,1.8,0.5,3.6C185.5,276.8,185.3,278,185,278.6z"/>
		<polygon points="195.7,270.5 198.1,270.5 198.1,280.6 199.6,280.6 199.6,270.5 202,270.5 202,269.3 195.7,269.3 		"/>
		<path d="M191.7,274.1c-0.9-0.4-1.5-0.7-1.7-1c-0.2-0.3-0.3-0.6-0.3-1c0-0.5,0.1-0.9,0.4-1.1c0.2-0.3,0.6-0.4,1.1-0.4
			c0.5,0,0.9,0.2,1.2,0.6c0.3,0.4,0.4,0.8,0.4,1.3h1.4c0-0.8-0.2-1.5-0.7-2.2c-0.5-0.7-1.2-1-2.3-1c-0.8,0-1.5,0.3-2.1,0.9
			c-0.6,0.5-0.9,1.3-0.9,2.2c0,0.6,0.2,1.2,0.6,1.7c0.4,0.4,1.1,0.9,2.1,1.3c0.7,0.3,1.2,0.7,1.6,1c0.3,0.4,0.5,0.8,0.5,1.2
			c0,0.5-0.1,1-0.4,1.3c-0.3,0.4-0.8,0.6-1.4,0.6c-0.5,0-0.9-0.2-1.3-0.5c-0.3-0.3-0.5-0.9-0.5-1.5V277H188v0.4
			c0,0.9,0.3,1.7,0.8,2.3c0.6,0.6,1.4,0.9,2.4,0.9c1,0,1.8-0.3,2.4-0.9c0.6-0.6,0.9-1.4,0.9-2.4c0-0.7-0.2-1.3-0.7-1.9
			C193.2,275,192.6,274.5,191.7,274.1z"/>
		<path d="M176.1,269.3H173v11.3h1.4v-4.4h1.8c1,0,1.8-0.3,2.3-0.9c0.6-0.6,0.8-1.4,0.8-2.5c0-1-0.2-1.9-0.8-2.5
			C177.9,269.6,177.1,269.3,176.1,269.3z M177.4,274.4c-0.3,0.3-0.9,0.4-1.6,0.4h-1.4v-4.4h1.4c0.7,0,1.3,0.1,1.6,0.5
			c0.4,0.3,0.5,0.8,0.5,1.7C177.9,273.6,177.8,274.1,177.4,274.4z"/>
	</g>
	<g>
		<path d="M98.7,211c-1.1-2.8-1.8-5.9-6.1-5.4c0,1.4,0.3,2.9-1.5,2.5c-1.2-1.2-0.7-4.1-2.9-4.3c-4.3,3.8-6.9-4.5-11.5-1.5
			c-0.1,4.5,4.4,4.3,5.8,7.2c-3.2,3-9.7,2.6-15.9,2.6c-0.3,1.9,2.6,3.7,3.6,5.4c6.5-0.1,10.5-4.7,16.7-4
			c-10,12.4-21.3,23.3-31.1,35.8c-3.7,0.5-5,6.1-3.3,9.7c3.9,1.6,5.7-5.2,7.6-7.9c5.9-8.8,13.2-17.5,18.8-24.6
			c0.7,0.2,1.2,0.7,1.8,1.1c-0.3,0.8-0.9,1.2-0.7,2.6c0.7,1.4,2.1,2,2.9,3.3c0,1.1-2.2,0.2-1.8,1.8c0.7,1.1,3.1,0.5,2.9,2.5
			c-3.1,6.2-9.2,9.4-12.6,15.2c0.7,0.9,1.4,1.7,2.9,1.8c4.8-4.1,7.1-12.7,14.9-12.6c0,0.6,0,1.2,0,1.8c-0.8,0.5-2.4,0.2-2.9,1.1
			c1.5,3.9-1.5,5.9-5.8,5.1c0,0.7,0,1.5,0,2.2c1.5,0.8,4.4,0.2,6.5,0.4c0.7-0.6-0.2-2.9,1.4-2.6c1.1,0,0.7,1.5,0.7,2.6
			c2-0.1,4.4,0.2,5.8-0.4c0.1-0.8,0.6-1.3,0.4-2.5c-1.3-0.7-3.9,0-4.3-1.5c-1-4.5,2.8-4.2,3.3-7.2c-0.6-1.2-3-0.7-3.6-1.8
			c0-1.5,2.2-0.6,1.8-2.5c-0.4-1-3.1,0.4-2.9-1.1c1.7-1.5,4.7-1.8,7.6-2.2c1.8-2.8-0.3-5.9-3.6-5.8c-1.6,0.2-0.5,3.1-2.5,2.9
			c-0.5-0.2-0.9-0.6-1.1-1.1c1.5-2.7,4.5-4,7.2-5.4c0.9-1.5-1.3-3-2.2-4c-1.5,0-3,2.8-4.3,0.7c0.1-1.7,2.7-0.9,2.2-3.3
			c-5-1.5-5.6,8-10.5,5.4C86,217.4,91.5,213.3,98.7,211z M89.7,238.9c-1.3,0.5-2.7,0.9-4,1.5c-0.8,0-0.2-1.3-0.4-1.8
			c2.2,0.5,1.8-1.5,4-1.1C89.3,238.1,89.8,238.2,89.7,238.9z M87.2,235.6c-0.9,0-1.8,0-2.2-0.4c0.3-2.1,3.1-4.3,4.3-2.2
			C88.6,233.9,86.5,233.4,87.2,235.6z M90.1,223.3c-0.7,2.1-2.2,3.3-4,4.3C84.5,225.8,87.6,223.5,90.1,223.3z M82.4,229.1
			c1.2,0,2.4,0,3.6,0c-0.7,1-1.2,2.2-3.3,1.8C83,230,82.1,230.1,82.4,229.1z"/>
		<path d="M24.6,218.2c1.6-1.8,3.4-3.3,5.1-5.1c3-3.3,7.2-6.5,8.3-11.5c-1.3-1.6-2.9-2.9-2.9-5.8c-0.6,0-1.2,0-1.8,0
			c-0.7,1.1-2,2-2.2,2.9c-1.5,10-8.6,15.1-11.6,24.2C22.1,222.6,23.1,219.8,24.6,218.2z"/>
		<path d="M196.7,208.1c-1.6-5.9-5.2-2.2-11.2-2.5c-0.4,0.9-0.8,1.6-0.7,2.9C187.7,211.7,192.4,207.9,196.7,208.1z"/>
		<path d="M32.9,237.4c2-2.8,4.8-4.8,6.2-8.3c-1.3-0.7-2.1-1.8-3.6-2.2c-2,0.7-1.4,4-4.7,3.3c-0.9-5.4,9.8-4.7,4.7-9.8
			c-1.3-0.1-2.5,2.2-3.3,0.4c-0.4-1.8,2.2-0.7,1.8-2.6c-2.2-2.5-8.7-1.4-6.5,4c-8.5,5.6-19.2,9-27.5,14.8c2.7,1.6,6.6,2.1,9.4,3.6
			c2.2-2.2,4.7-4.7,7.2-6.9c2.6-2.2,5.1-5,8.3-5.4c-0.8,5.9-5.8,7.7-7.6,12.6c1,0.3,1.5,1.2,2.9,1.1c2.3-2,2.8-5.9,5.8-7.2
			c1.1,2.9-2.8,5.6-1.1,9c-0.8,0.3-2.8-0.7-2.6,0.7c-0.9,2.7,2.6,1.1,2.9,2.6c-1.3,3.3-3,6.2-4,9.7c3.5,5.2,9.6-0.9,13.4-2.9
			c-0.1-1.3,0.3-3.2-0.4-4c-3.9,0-3.6,4.1-7.6,4c0.1-3.5,2.9-4.3,3.2-7.6c-0.2-1.5-2.4-0.9-2.5-2.5c0.6-2.4,1.2-4.8,2.5-6.5
			C30.9,236.6,31.8,237.5,32.9,237.4z"/>
		<path d="M79.2,241c0.7-2.3,0-5.2-1.4-6.5c-1.9,1.9-4.1,3.4-5.5,5.8C73.9,241.2,77.5,241.3,79.2,241z"/>
		<path d="M232.9,244.6c1.5-3,3.6-5.6,4.7-9c3.5-2.3,6.2-5.4,7.2-10.1c3.9-2,8.5-9.9,3.6-14.1c1.3,8.1-3.7,11.8-7.6,13.4
			c-0.1-5.6,3.7-14.9-0.7-18.1c-0.3,0-0.5,0-0.7,0c-2.3,7.5-4.5,15.2-6.9,22.7c-5,2.2-11.4,2.9-15.2,6.2c1.1,4.3,9.3,0.9,12.6,2.2
			c0.1,6.3-6.2,8-5.4,13.7c0.3,0.1,0.7,0,0.7,0.4c4-0.7,4.6-4.8,7.6-6.5c4.1,0.7,9.8-0.2,12.3,2.2c-0.6,2.2-3,2.5-3.7,4.7
			c3.7-1,7.1-2.3,9.1-5C248.6,241.2,239,244.6,232.9,244.6z"/>
		<path d="M297.6,224c2.1-2,7.3-8.9,6.5-12.3c-0.4-1.5-2.4-3.1-3.6-3.2c-4.5-0.5-4.8,5.9-8.3,4.3c1.5-2.2,3.6-3.9,2.9-8.3
			c-1.5-4.3-10.9-2.2-6.5,2.6c1.2-0.3,0.3-2.6,1.8-2.6c3.2,5.2-2.1,10.7-8.3,10.1c-0.2,0.9,0.5,2.6-0.4,2.9
			c-3.5-1.5,1.5-10.9-4.7-10.5c-1.7,0.5-1.5,2.8-1.5,5.1c4.6-0.7,3.7,8.1,2.5,10.8c-2-1.3-0.7-5.9-4.3-5.4c-1.2,1.6,0.7,2.6,1.1,4.7
			c0.6,3.4-1.8,8.4,1.1,9.8c3.2,0.2,1.5-4.5,2.5-6.5c1.2-0.3,0.5,1.5,1.8,1.1c1-0.6,0.7-2.5,2.6-2.2c0.1,7.2-6.9,8.2-9.8,13.4
			c2.3-1.5,5.6-3.5,9-6.5c3.2-2.7,8.8-10.3,10.9-4.7c-10,3-14.2,11.5-22.8,15.9c-0.7-1.4,2-2.4,0.4-2.6c-3.3,1.1-4.5,4.4-7.2,6.2
			c2.3,5.4,6.1,0.4,9-2.2c4.2-3.8,7.3-7,11.2-10.5c1.6-1.5,4.9-5.3,6.5-1.8c-1.6,2.1-4.3,3.1-5.4,5.8c0.6,0.8,1.4,1.5,1.8,2.5
			c-0.7,4.8-6.3,4.5-9.8,6.5c-0.4,1.5-0.9,2.9-0.7,5.1c5.1-0.6,14.9,0.7,18.1-2.9c0.4-2.2-2-1.6-2.2-3.3c1.6-1.1,2.6-4.4,0.7-6.1
			c-1-0.2-2.9,0.4-3.2-0.4c-0.4-5.9,7.8-3.3,7.2-9.4c0.5-0.7-2.9-1.2-2.9-2.5C293.6,226,296.3,225.3,297.6,224z M278.4,248.6
			c1.4-3,7.6-2.6,10.5-2.9C286.2,247.2,281.6,250.1,278.4,248.6z M286,215.7c-0.3,1.3-1.2,1.9-2.6,2.2
			C283.7,216.6,284.2,215.5,286,215.7z M282,221.9c-0.7-0.7,0.1-1.7,0.4-2.5c1-0.3,0.7,0.7,1.4,0.7
			C283.8,221.2,283.2,221.8,282,221.9z M284.2,224.8c-1.1-0.1-0.9-1.7,0.4-1.5C284.7,224.1,284.3,224.3,284.2,224.8z M285.6,226.6
			c-1,0-0.6-1.1-0.4-1.8C286.4,224.2,286.2,226.6,285.6,226.6z M287.8,221.5c-2.1-0.1,0-1.7,0.7-2.2
			C289,220.8,287.3,220,287.8,221.5z M289.3,217.9c-1.3,0-1.5,0.9-2.6,1.1c-0.7-1.5,2-1.4,0.7-2.2c0-0.8,1.3-0.1,1.9-0.4
			C289.3,216.9,289.3,217.4,289.3,217.9z M289.6,223c-0.7-3.1,4-4,6.1-5.4C294.3,219.9,292.3,221.8,289.6,223z"/>
		<path d="M146.1,219c-1.9-2.7,0.5-5.9,0.4-7.6c-0.7-1.5-1.7-0.5-3.7-0.7c-1,1.9,0.5,6.3-1.1,7.6c-0.7-1,0-3.4-0.7-4.3
			c-0.9,0-2-0.1-2.5,0.4c0.1,2.2-0.7,4-1.5,6.1c-0.9,0-1.7-0.2-2.2-0.7c0-1.6,0-3.1,0-4.7c3.4-2.1,6.7-4.4,9.4-7.2
			c-4.3-0.9-5.7,4.1-9.7,4.7c0-1,0-1.9,0-2.9c2.2-1.1,4.4-2.2,5.1-4.7c-1.3-2.6-4.5-5.2-7.6-4.7c-0.6,1.4,0.9,3.3,0.4,5.8
			c-2.2,3.2-5.4,5.4-6.8,9.4c1.9-0.2,3.5-2.7,4.7-2.5c0,1.1,0,2.2,0,3.3c-4.9,5.2-10.1,10.1-15.2,15.2c-0.9,0-1.8,0-2.2,0.4
			c-1.1,1.1-1.5,3.4,0,4.3c6.3-0.7,5.2-8.7,11.2-9.7c0.4,2.2-0.6,3-1.1,4.3c0.4,0.6,1.2,0.7,1.1,1.8c-1.6,2.2-3,4.7-6.5,5.1
			c-0.1,2,2.5,1.3,4.4,1.5c2-1.9,2.6-5.3,5.4-6.5c0-2,0.3-3.8,2.5-3.6c-0.1,2-0.6,3.5-0.4,5.8c-1.1,0-2.8-0.4-2.6,1.1
			c0.1,1,2.5-0.3,2.6,0.7c-0.8,0.4-0.1,2.3-0.4,3.3c-1.5,0.6-3.4,0.7-3.6,2.6c0.4,1.5,1.6,2.2,3.2,2.5c2-3.3,6.5-4.1,9.4-6.5
			c0.2-1.7-0.7-4.6,1.1-4.7c3.5,5.8,3,15.5,2.9,24.9c-0.2,1.8-3.3,2.3-2.5,4c8.7,2.2,4.1-12,5.8-18.1c2.2,0.6,4.1,1.4,6.5,1.8
			c1.6-1.8,2.2-4.5,2.5-7.6c-4.7-3.7-7.3-16.3,0-19.2c0.2-1.5,0.2-1.1,0-2.6C150.9,214.3,148.7,218.2,146.1,219z M129.5,226.6
			c-6.8,0.8-3.1-6.1,0-6.5C130.1,221.4,130,225.2,129.5,226.6z M136,222.2c-0.3,1.5-1.1,2.5-2.2,3.3
			C132.8,224.2,134.3,220.8,136,222.2z M138.8,231.2c-2.4,2-3,5.7-6.5,6.5c0.3-4.3,4.2-5,5.1-8.7c-0.3-0.8-2-0.1-2.9-0.4
			c0.6-2.9,2.5-4.5,4-6.5c0.4,0.1,0.3,0.7,0.7,0.7C139.5,226.1,138.6,228.1,138.8,231.2z M141,221.9c0.4,0,0.7,0,1.1,0
			c-0.1,1.1,0.3,2.6-0.4,3.3C140.3,225.2,140.4,222.6,141,221.9z M141,233.8c-0.5-1.1-0.8-4.5,0.4-5.1
			C143.1,228.6,143.1,234.3,141,233.8z M148.3,230.2c0.8,4.1,5.9,8.7,2.5,12.3c-1.6,0.7-4.1,0.3-5.4-0.4c-0.8-5.8-0.1-13.1-0.4-19.5
			c1.3-1.6,2.2-3.7,5.1-3.6C150.2,223.8,147.2,225.2,148.3,230.2z"/>
		<path d="M196,247.2c-0.4,4.4-4.8,4.9-8.3,6.1c-2.6-7.1,5.1-10,9-13c0.3-7.3-4.8-3.3-9-2.9c-0.9-0.7,0.6-1.5-0.7-1.8
			c-1.8,3.9-12.5,8.5-8.6,13.4c2.3-1.3,4.5-5.8,6.8-1.1c0,1.6-3,0.4-2.5,2.5c2.7,0,1.4,4,2.2,5.8c5.7,1.1,10.6-3.8,14.8-6.5
			C199.3,247.9,198.2,247,196,247.2z M184.1,244.3c0.1-1.1-0.3-2.6,0.4-3.3c0.4,0,0.7,0,1.1,0C186,242.2,186.4,244.9,184.1,244.3z
			 M186.6,239.2c2.6,1.9,3.7-0.5,5.8-1.1c-0.2,1.9-1.2,5.8-4,6.2c0.1-1.1,0.4-2.1,0.7-2.9C189,240,186.4,240.9,186.6,239.2z"/>
		<path d="M200.7,209.9c-3.4-0.6-6.3,5.6-9,5.8c0-1.1,0.2-2.4-0.4-2.9c-1-0.5-2-0.9-3.6-0.7c0.1,2,0.6,3.7,0.4,6.1
			c-4.5,3-8,7-12.3,10.1c0.1-3,1.1-4.9,1.1-8c-3.3,4-4.7,9.8-7.6,14.1c3.5,5.2,8.5-2.3,11.6-5.8c3.1-3.5,5.3-7.1,7.6-7.9
			c-0.4,1-0.4,2.5-0.4,4c-0.7,0.7-2.4,0.5-2.5,1.8c0.4,1.2,2.3-1,2.5,0c-0.1,0.9-0.2,2-0.7,2.5c-1.9,0.7-4.5,0.8-6.2,1.8
			c-0.1,1.3,0,2.4,0.4,3.3c3.1,0.6,4.4-2.6,5.8-2.5c0.2,1.3-1.1,2.5,0.7,2.5c0.4-2.2,5-7.6,5.8-4c0.3,1.2-3.6,2.4-3.6,4.3
			c3.7-1.5,7.7-2.7,10.1-5.4c-1.1-1.9-1.9-4.1-4.3-4.7c-1.4,0.4-1.9,1.7-2.6,2.9c-0.8-0.2-2.6,0.5-2.9-0.4c0.2-0.9,0.5-1.6,0.4-2.9
			c2.2-2.7,12.2-5.9,12.6-9.7C203.8,212.7,202,210.1,200.7,209.9z M191.6,222.2c-1.6-4.9,3.5-8,6.9-7.9
			C196.8,217.5,193.8,219.4,191.6,222.2z"/>
	</g>
	<g>
		<g>
			<path fill="#FFE57A" d="M202.8,126.2c-2.5,0-4.5-2-4.5-4.5c0-1.5,0.8-2.9,1.9-3.7l-2.8-4.9c-0.6,0.3-1.2,0.4-1.9,0.4
				c-2.5,0-4.5-2-4.5-4.5c0-1.5,0.7-2.8,1.9-3.6l-2.7-4.8c-0.6,0.3-1.2,0.4-1.9,0.4c-2.5,0-4.5-2-4.5-4.5c0-1.5,0.8-2.8,1.9-3.6
				l-2.8-4.9c-0.6,0.3-1.2,0.4-1.9,0.4c-2.5,0-4.5-2-4.5-4.5c0-1.5,0.8-2.8,1.9-3.7l-2.8-4.8c-0.6,0.3-1.2,0.4-1.9,0.4
				c-2.5,0-4.5-2-4.5-4.5c0-1.5,0.8-2.8,1.9-3.6l-2.8-4.9c-0.6,0.3-1.2,0.4-1.8,0.4c-2.5,0-4.5-2-4.5-4.5c0-1.5,0.7-2.8,1.8-3.6
				l-2.8-4.9c-0.6,0.3-1.2,0.4-1.9,0.4c-2.5,0-4.5-2-4.5-4.5c0-1.5,0.8-2.8,1.9-3.6l-5.3-9.1l-5.3,9.2c1.1,0.8,1.8,2.1,1.8,3.6
				c0,2.5-2,4.5-4.5,4.5c-0.6,0-1.2-0.1-1.8-0.4l-2.8,4.9c1.1,0.8,1.8,2.1,1.8,3.5c0,2.5-2,4.5-4.5,4.5c-0.6,0-1.2-0.1-1.7-0.3
				l-2.8,4.9c1.1,0.8,1.8,2.1,1.8,3.6c0,2.5-2,4.5-4.5,4.5c-0.6,0-1.2-0.1-1.8-0.4l-2.8,4.8c1.1,0.8,1.8,2.1,1.8,3.6
				c0,2.5-2,4.5-4.5,4.5c-0.6,0-1.2-0.1-1.8-0.4l-2.9,4.9c1.1,0.8,1.8,2.1,1.8,3.6c0,2.5-2,4.5-4.5,4.5c-0.6,0-1.2-0.1-1.8-0.4
				l-2.8,4.8c1.1,0.8,1.8,2.1,1.8,3.5c0,2.5-2,4.5-4.5,4.5c-0.6,0-1.2-0.1-1.7-0.3l-2.8,4.9c1.1,0.8,1.8,2.1,1.8,3.6
				c0,2.5-2,4.5-4.5,4.5c-0.6,0-1.2-0.1-1.8-0.4l-5.2,9h10.5c0.2-2.2,2.1-4,4.4-4c2.3,0,4.2,1.7,4.4,4h5.6c0.2-2.2,2.1-4,4.4-4
				c2.3,0,4.2,1.7,4.4,4h5.7c0.2-2.2,2.1-4,4.4-4c2.3,0,4.2,1.7,4.4,4h5.6c0.2-2.2,2.1-4,4.4-4c2.3,0,4.2,1.7,4.4,4h5.6
				c0.2-2.2,2.1-4,4.4-4c2.3,0,4.2,1.7,4.4,4h5.6c0.2-2.2,2.1-4,4.4-4c2.3,0,4.2,1.7,4.4,4h5.7c0.2-2.2,2.1-4,4.4-4
				c2.3,0,4.2,1.7,4.4,4h10.6l-5.2-9.1C204.1,126.1,203.4,126.2,202.8,126.2z M166.8,78.9l4,6.9h-7.9L166.8,78.9z M159.2,65.7
				l3.8,6.6l-7.8,13.4h-7.7L159.2,65.7z M151.5,52.4l3.8,6.6L140,85.7h-7.8L151.5,52.4z M117,125.4h-7.9l19.3-33.1h38.5l-3.9,6.7
				h-30.8L117,125.4z M147.5,125.4H140l3.7-6.5h7.6L147.5,125.4z M139.9,112.3l-7.5,13.1h-7.8l11.4-19.9h23.1l-3.9,6.8H139.9z
				 M162.9,125.4h-7.7l19.3-33.1h0.2l3.7,6.4L162.9,125.4z M178.2,125.4h-7.7l11.6-20.2l3.8,6.6L178.2,125.4z M185.8,125.4l4-6.9
				l4,6.9H185.8z"/>
			<path fill="#FFE57A" d="M151.4,2.2C65.7,53.9,63.5,142,63.7,155.2c42.8,25.7,87.7,23.7,87.7,23.7s46.1,2,88.9-23.7
				C241.2,141.8,237.5,53.2,151.4,2.2z M211.8,146.1c-4.4,2.1-8.9,1.7-23.4-2.2c-14.5-3.9-36.9-3.8-36.9-3.8s-21.2-0.3-35.8,3.5
				c-14.5,3.9-19.1,4.3-23.5,2.2s-8.1-6.5-7.2-16.2c0.9-9.7,14.1-69.4,66.5-103.5c52,31.8,67,94.9,67.9,104.6
				C220.2,140.3,216.2,144,211.8,146.1z"/>
		</g>
		<path fill="#00784B" d="M230.2,92.1c-6.6-17.3-15.7-33.3-27-47.5c-13.8-17.3-30.9-32.1-50.8-44l-1-0.6l-1,0.6
			C62.5,53.6,61.7,145,61.9,155.2l0,1l0.9,0.5c37.1,22.3,75.5,24,86.3,24c1.3,0,2.1,0,2.3,0c0.3,0,1.1,0,2.4,0c0,0,0,0,0,0
			c11.1,0,50.4-1.7,87.5-24l0.8-0.5l0.1-1C242.2,155,243.9,127.6,230.2,92.1z M240.4,155.2c-42.8,25.7-88.9,23.7-88.9,23.7
			s-44.9,2-87.7-23.7c-0.2-13.2,2-101.3,87.7-153C237.5,53.2,241.2,141.8,240.4,155.2z"/>
		<g>
			<path d="M160.9,15.1l-5.5,4.3l0.9,0.6l1.3-1l2.1,1.4l-0.4,1.6l1.1,0.7l1.8-6.8L160.9,15.1z M160,19.4l-1.6-1.1l2.4-1.9L160,19.4z
				"/>
			<path d="M169.2,21.1l-2.8,3.7c0.1-0.5,0.1-0.8,0.1-0.8l0.6-4.5l-1-0.8l-4.1,5.3l0.8,0.6l3-3.8c0,0.2,0,0.3,0,0.4
				c0,0.2,0,0.3,0,0.4l-0.6,4.9l0.9,0.7l4.1-5.3L169.2,21.1z"/>
			<path d="M172.3,23.6l-4.4,5l1.6,1.4c0.8,0.7,1.6,1,2.4,0.9c0.8-0.1,1.6-0.5,2.2-1.2c0.6-0.7,0.9-1.5,1-2.3c0-0.8-0.3-1.6-1-2.2
				L172.3,23.6z M173.3,28.8c-0.5,0.6-1.1,0.9-1.6,1c-0.5,0.1-1-0.1-1.4-0.4l-0.7-0.7l3.1-3.5l0.9,0.8c0.4,0.4,0.6,0.8,0.5,1.4
				C173.9,27.8,173.7,28.4,173.3,28.8z"/>
			<polygon points="185.9,38.3 186.6,37.6 183.3,34.1 182.6,34.8 183.8,36.1 179.7,39.9 180.6,40.8 184.7,37 			"/>
			<polygon points="186,42.6 187.7,44.5 188.4,43.8 186.8,42 188.1,40.8 190.1,43.1 190.9,42.5 188.1,39.2 183.1,43.6 185.9,46.9 
				186.7,46.2 184.6,43.8 			"/>
			<polygon points="193.3,45.4 192.5,44.4 187.3,48.6 189.9,51.8 190.8,51.1 189,48.9 			"/>
			<polygon points="195.7,54.7 196.5,54.1 195,52.1 196.4,51 198.3,53.5 199.1,52.9 196.5,49.5 191.2,53.5 193.8,56.9 194.6,56.3 
				192.7,53.8 194.2,52.7 			"/>
			<path d="M198.1,60.7c-0.4,0-0.7-0.2-0.9-0.5c-0.3-0.4-0.3-0.8-0.1-1.2c0.2-0.5,0.6-0.9,1.3-1.4c0.7-0.5,1.2-0.7,1.7-0.7
				c0.5,0,0.9,0.1,1.1,0.5c0.4,0.6,0.2,1.2-0.5,2l0.7,0.8c0.6-0.5,0.9-1.1,1-1.7c0.1-0.6-0.1-1.2-0.4-1.7c-0.5-0.7-1.1-1.1-1.9-1.1
				c-0.8,0-1.6,0.2-2.4,0.8c-0.5,0.4-0.9,0.8-1.2,1.2c-0.3,0.5-0.5,0.9-0.5,1.4c0,0.5,0.1,1,0.5,1.5c0.4,0.6,0.9,0.9,1.5,1.1
				c0.6,0.1,1.2,0,1.8-0.3l-0.5-1C198.8,60.7,198.4,60.8,198.1,60.7z"/>
			<path d="M206.4,65.3c0.3-0.8,0.2-1.5-0.3-2.3c-0.5-0.7-1.1-1.1-1.9-1.2c-0.8-0.1-1.7,0.1-2.5,0.6c-0.8,0.5-1.4,1.2-1.7,1.9
				c-0.3,0.8-0.2,1.5,0.3,2.3c0.5,0.7,1.1,1.1,1.9,1.2c0.8,0.1,1.7-0.1,2.5-0.7C205.6,66.7,206.1,66,206.4,65.3z M202.2,66.8
				c-0.5-0.1-0.8-0.3-1-0.6c-0.3-0.4-0.3-0.8-0.1-1.3c0.2-0.4,0.6-0.9,1.3-1.3c1.4-0.9,2.4-0.9,2.9,0c0.3,0.4,0.3,0.9,0.1,1.3
				c-0.2,0.4-0.7,0.9-1.3,1.3C203.3,66.6,202.6,66.8,202.2,66.8z"/>
			<polygon points="211.2,71.7 206.8,72.6 209.8,69.3 208.9,67.7 203.2,71 203.6,71.8 208.7,68.9 204.6,73.4 204.9,74 210.8,72.7 
				205.8,75.6 206.4,76.6 212.2,73.3 			"/>
			<polygon points="215.7,80.1 211.3,80.8 214.5,77.6 213.6,75.9 207.7,79 208.2,79.9 213.3,77.2 209,81.5 209.3,82.1 215.3,81 
				210.1,83.7 210.7,84.8 216.6,81.7 			"/>
			<path d="M219.8,88.6l-0.4-0.9l-3.9,1.8c-0.5,0.2-0.9,0.3-1.2,0.2c-0.3-0.1-0.5-0.4-0.6-0.7c-0.1-0.3-0.2-0.6-0.1-0.9
				c0.1-0.3,0.4-0.6,0.9-0.8l3.9-1.8l-0.5-1.1l-4,1.8c-0.5,0.2-0.8,0.5-1.1,0.7c-0.2,0.3-0.4,0.6-0.4,1c0,0.4,0.1,0.8,0.3,1.3
				c0.2,0.5,0.5,0.9,0.9,1.1c0.4,0.2,0.7,0.4,1,0.3c0.3,0,0.8-0.1,1.3-0.4L219.8,88.6z"/>
			<path d="M222.5,95l-4.3,1.7c0.3-0.4,0.5-0.6,0.5-0.7l2.8-3.6l-0.5-1.2l-6.2,2.5l0.4,0.9l4.5-1.8c-0.1,0.1-0.2,0.2-0.2,0.3
				c-0.1,0.1-0.2,0.2-0.2,0.3l-3,3.9l0.4,1.1l6.2-2.5L222.5,95z"/>
			<rect x="217.6" y="99.8" transform="matrix(0.9449 -0.3274 0.3274 0.9449 -20.6901 77.8536)" width="6.6" height="1.2"/>
			<path d="M222.2,108.6l-0.2-1.1c-0.4,0.1-0.7,0-1.1-0.1c-0.3-0.2-0.6-0.4-0.7-0.7c-0.1-0.4,0-0.8,0.3-1.2c0.3-0.4,0.9-0.7,1.6-0.9
				c0.8-0.2,1.4-0.3,1.8-0.2c0.5,0.1,0.8,0.4,0.9,0.8c0.2,0.7-0.2,1.2-1.1,1.7l0.4,1c0.7-0.3,1.2-0.8,1.4-1.3
				c0.3-0.5,0.3-1.1,0.1-1.7c-0.2-0.8-0.7-1.4-1.5-1.6c-0.7-0.3-1.6-0.3-2.6,0c-0.6,0.2-1.1,0.4-1.6,0.8c-0.4,0.3-0.8,0.7-0.9,1.2
				c-0.2,0.4-0.2,1,0,1.5c0.2,0.7,0.6,1.2,1.1,1.5C221,108.6,221.6,108.7,222.2,108.6z"/>
			<path d="M227.5,111.2l-7-0.6l0.2,1l1.7,0.1l0.6,2.5l-1.4,0.9l0.3,1.2l6-3.7L227.5,111.2z M223.9,113.6l-0.4-1.9l3.1,0.3
				L223.9,113.6z"/>
			<polygon points="228.5,120.7 229.5,120.5 228.5,115.8 227.5,116 227.9,117.7 222.4,118.8 222.6,120 228.1,119 			"/>
			<rect x="223.3" y="123.2" transform="matrix(0.9865 -0.1635 0.1635 0.9865 -17.1894 38.734)" width="6.6" height="1.2"/>
			<path d="M225.3,131.9c0.7,0.4,1.6,0.6,2.6,0.4c1-0.1,1.7-0.5,2.3-1.1c0.6-0.6,0.8-1.3,0.7-2.2c-0.1-0.8-0.5-1.5-1.2-1.9
				c-0.7-0.4-1.6-0.6-2.5-0.5c-1,0.1-1.7,0.5-2.3,1.1c-0.6,0.6-0.8,1.3-0.7,2.2C224.2,130.9,224.6,131.5,225.3,131.9z M225.5,128.7
				c0.4-0.3,1-0.5,1.8-0.6c1.6-0.2,2.5,0.2,2.7,1.2c0.1,0.5-0.1,0.9-0.5,1.2c-0.4,0.3-1,0.5-1.7,0.6c-0.9,0.1-1.6,0.1-2-0.2
				c-0.4-0.2-0.6-0.6-0.7-1C225,129.4,225.2,129,225.5,128.7z"/>
			<path d="M231.9,138.6l-4.6,0.5c0.4-0.3,0.6-0.5,0.7-0.5l3.7-2.7l-0.1-1.3l-6.6,0.7l0.1,1l4.8-0.5c-0.1,0.1-0.2,0.2-0.3,0.2
				c-0.1,0.1-0.2,0.2-0.3,0.2l-4,2.9l0.1,1.2l6.6-0.7L231.9,138.6z"/>
			<path d="M232.5,144.4c0-0.7-0.3-1.2-0.7-1.7c-0.4-0.4-0.9-0.6-1.5-0.6c-0.3,0-0.6,0.1-0.8,0.2c-0.3,0.1-0.4,0.3-0.6,0.5
				c-0.1,0.2-0.2,0.5-0.3,1l-0.2,1.3c-0.1,0.3-0.2,0.6-0.3,0.7c-0.1,0.1-0.3,0.2-0.5,0.2c-0.2,0-0.5-0.1-0.7-0.3
				c-0.2-0.2-0.3-0.5-0.3-1c-0.1-0.9,0.2-1.5,0.9-1.7l-0.3-1.1c-0.6,0.2-1,0.6-1.2,1.1c-0.2,0.5-0.3,1.1-0.3,1.8
				c0.1,0.8,0.3,1.4,0.7,1.9c0.4,0.5,0.9,0.7,1.6,0.6c0.4,0,0.8-0.2,1.1-0.4c0.3-0.3,0.5-0.7,0.7-1.4l0.2-1.1c0.1-0.6,0.4-1,0.7-1
				c0.2,0,0.4,0.1,0.6,0.3c0.2,0.2,0.3,0.5,0.3,0.8c0,0.6-0.2,1.1-0.7,1.3l0.4,1.1c0.4-0.2,0.8-0.5,1-0.9
				C232.4,145.5,232.5,145,232.5,144.4z"/>
			<path d="M76.4,142.7l-0.2,1.1c0.4,0,0.7,0.2,1,0.5c0.3,0.3,0.4,0.6,0.4,0.9c0,0.4-0.2,0.8-0.7,1c-0.4,0.3-1,0.4-1.8,0.3
				c-0.8,0-1.4-0.2-1.8-0.4c-0.4-0.3-0.6-0.6-0.6-1.1c0-0.7,0.5-1.1,1.6-1.3l-0.1-1.1c-0.8,0.1-1.4,0.3-1.8,0.8
				c-0.4,0.4-0.6,1-0.7,1.6c0,0.8,0.3,1.5,0.9,2c0.6,0.5,1.4,0.8,2.4,0.8c0.6,0,1.2-0.1,1.7-0.2c0.5-0.2,1-0.5,1.3-0.8
				c0.3-0.4,0.5-0.9,0.5-1.5c0-0.7-0.2-1.3-0.6-1.8C77.6,143.1,77,142.8,76.4,142.7z"/>
			<polygon points="72.3,137.6 75,137.8 74.8,140.3 72.1,140.1 72,141.3 78.6,141.8 78.7,140.6 75.8,140.4 76,137.9 78.9,138.1 
				79,136.9 72.4,136.4 			"/>
			<path d="M76.5,129.8c-1-0.1-1.8,0-2.5,0.5c-0.7,0.4-1.1,1.1-1.2,1.9c-0.1,0.9,0.1,1.6,0.7,2.2c0.6,0.6,1.4,1,2.3,1.1
				c1,0.1,1.8,0,2.5-0.4c0.7-0.4,1.1-1.1,1.2-1.9c0.1-0.9-0.1-1.6-0.7-2.2C78.3,130.2,77.5,129.9,76.5,129.8z M78.6,132.9
				c-0.1,0.5-0.3,0.8-0.7,1c-0.4,0.2-1.1,0.3-1.9,0.2c-1.6-0.2-2.4-0.8-2.3-1.8c0.1-0.5,0.3-0.9,0.8-1.1c0.5-0.2,1.1-0.2,1.8-0.2
				c0.9,0.1,1.6,0.3,1.9,0.7C78.5,132.1,78.6,132.5,78.6,132.9z"/>
			<path d="M74,123.9l4.6,0.7c-0.5,0.2-0.7,0.3-0.8,0.3l-4.2,1.7l-0.2,1.3l6.6,1.1l0.2-1l-4.8-0.8c0.2-0.1,0.3-0.1,0.3-0.1
				c0.2-0.1,0.3-0.1,0.3-0.1l4.6-1.8l0.2-1.1l-6.6-1.1L74,123.9z"/>
			<path d="M78.2,119.4l0.9,0.2l0.3-1.3c0.5,0.1,0.8,0.3,1,0.6c0.2,0.3,0.3,0.7,0.2,1.1c-0.2,1-1.1,1.4-2.8,1
				c-0.8-0.2-1.3-0.4-1.6-0.8c-0.3-0.4-0.4-0.8-0.3-1.2c0.1-0.7,0.6-1.1,1.5-1.1l0-1.1c-0.6,0-1.1,0.2-1.6,0.5
				c-0.5,0.3-0.8,0.8-0.9,1.5c-0.2,0.9,0,1.6,0.5,2.3c0.5,0.6,1.3,1,2.2,1.2c0.9,0.2,1.7,0.1,2.5-0.2c0.8-0.3,1.2-0.9,1.4-1.8
				c0.2-0.8,0-1.4-0.6-2l1-0.2l0.1-0.5l-3.3-0.7L78.2,119.4z"/>
			<path d="M83.9,111.8c0,0.2-0.1,0.4-0.1,0.5c0,0.2-0.1,0.3-0.2,0.4c-0.1,0.1-0.2,0.1-0.3,0.1c-0.1,0-0.1-0.1-0.2-0.3
				c-0.4-1.1-1.2-1.8-2.6-2.1c-0.6-0.2-1.2-0.2-1.8-0.1c-0.5,0.1-1,0.3-1.4,0.6c-0.4,0.3-0.7,0.8-0.8,1.4c-0.2,0.9-0.1,1.6,0.4,2.3
				c0.5,0.6,1.2,1.1,2.2,1.3c1,0.2,1.8,0.2,2.6-0.1c0.8-0.3,1.2-0.9,1.5-1.8c0-0.1,0-0.2,0.1-0.4c0.8,0.2,1.4-0.2,1.6-1.1
				c0-0.1,0.1-0.3,0.1-0.7l-1-0.2C83.9,111.6,83.9,111.7,83.9,111.8z M82.1,113.7c-0.2,1-1.1,1.3-2.7,0.9c-1.6-0.4-2.3-1.1-2.1-2.1
				c0.1-0.4,0.4-0.7,0.8-0.9c0.4-0.2,1.1-0.2,1.9,0.1C81.7,112,82.4,112.7,82.1,113.7z"/>
			<rect x="80.4" y="105.2" transform="matrix(0.274 -0.9617 0.9617 0.274 -45.6244 156.6722)" width="1.2" height="6.6"/>
			<path d="M79.6,101.5l4.4,1.4c-0.5,0.1-0.8,0.2-0.8,0.2l-4.4,1l-0.4,1.3l6.3,2l0.3-0.9l-4.6-1.5c0.2,0,0.3-0.1,0.3-0.1
				c0.2,0,0.3-0.1,0.4-0.1l4.8-1.1l0.4-1.1l-6.3-2L79.6,101.5z"/>
			<path d="M84.4,97.7l0.9,0.3l0.5-1.3c0.4,0.2,0.7,0.4,0.9,0.8c0.2,0.3,0.2,0.7,0,1.1c-0.4,1-1.3,1.2-2.9,0.6
				c-0.7-0.3-1.2-0.6-1.5-1c-0.3-0.4-0.3-0.8-0.1-1.3c0.3-0.7,0.8-1,1.6-0.9l0.2-1c-0.6-0.1-1.1,0-1.6,0.3c-0.5,0.3-0.9,0.7-1.1,1.4
				c-0.3,0.8-0.2,1.6,0.2,2.3c0.5,0.7,1.1,1.2,2,1.5c0.9,0.3,1.7,0.4,2.5,0.2c0.8-0.2,1.4-0.7,1.7-1.5c0.3-0.8,0.2-1.4-0.3-2l1,0
				l0.2-0.5l-3.2-1.2L84.4,97.7z"/>
			<path d="M90.5,88.9c-0.2-0.2-0.6-0.5-1.1-0.7l-3.9-1.7l-0.4,0.9l3.9,1.7c0.5,0.2,0.8,0.5,0.9,0.8c0.1,0.3,0.1,0.6-0.1,0.9
				c-0.1,0.3-0.3,0.5-0.6,0.7c-0.3,0.2-0.7,0.1-1.2-0.1l-3.9-1.7l-0.5,1.1l4,1.7c0.5,0.2,0.9,0.3,1.3,0.3c0.4,0,0.7-0.1,1-0.4
				c0.3-0.2,0.6-0.6,0.8-1.1c0.2-0.5,0.3-1,0.2-1.4C90.9,89.5,90.7,89.1,90.5,88.9z"/>
			<path d="M87.9,81.3l4.2,2c-0.5,0-0.8,0.1-0.8,0.1l-4.5,0.4L86.1,85l6,2.9l0.4-0.9l-4.4-2.1c0.2,0,0.3,0,0.4,0c0.2,0,0.3,0,0.4,0
				l4.9-0.4l0.5-1l-6-2.9L87.9,81.3z"/>
			<rect x="91.7" y="76.6" transform="matrix(0.4575 -0.8892 0.8892 0.4575 -20.9906 125.4192)" width="1.2" height="6.6"/>
			<polygon points="92.1,73.2 95.9,77 90.7,75.9 90.1,77 96.9,78.4 97.4,77.3 92.6,72.3 			"/>
			<polygon points="98.6,73.2 97,72.3 98.2,70.2 97.4,69.7 96.1,71.8 94.6,70.9 96.2,68.2 95.3,67.7 93.1,71.4 98.9,74.8 
				101.1,71.1 100.2,70.5 			"/>
			<path d="M100.5,63.2c-0.5-0.3-1-0.4-1.5-0.3c-0.5,0.1-1,0.5-1.4,1.2L96,66.6l5.6,3.6l0.6-1l-2.3-1.5l0.9-1.4l2.9,0.6l0.7-1.1
				l-3.1-0.6C101.5,64.3,101.2,63.7,100.5,63.2z M100,65.9l-0.8,1.3l-1.7-1.1l0.9-1.3c0.2-0.3,0.4-0.5,0.7-0.6
				c0.3-0.1,0.5,0,0.8,0.1c0.3,0.2,0.4,0.4,0.5,0.7C100.3,65.2,100.2,65.5,100,65.9z"/>
			<path d="M106.2,59.8c-0.3-0.2-0.7-0.3-1.1-0.3c-0.4,0-0.9,0.2-1.4,0.7l-0.9,0.8c-0.5,0.4-0.9,0.5-1.2,0.3
				c-0.2-0.1-0.3-0.3-0.3-0.6c0-0.3,0.1-0.5,0.3-0.8c0.4-0.5,0.8-0.7,1.3-0.6l0.4-1.1c-0.4-0.2-0.9-0.1-1.4,0.1
				c-0.5,0.2-0.9,0.6-1.2,1c-0.4,0.6-0.6,1.1-0.5,1.7c0,0.6,0.3,1,0.8,1.4c0.2,0.2,0.5,0.3,0.8,0.3c0.3,0,0.5,0,0.8-0.1
				c0.2-0.1,0.5-0.3,0.9-0.6l1-0.9c0.3-0.2,0.5-0.3,0.7-0.3c0.2,0,0.4,0.1,0.5,0.2c0.2,0.1,0.3,0.4,0.3,0.6c0,0.3-0.1,0.6-0.4,0.9
				c-0.5,0.8-1.1,1-1.7,0.8l-0.5,1.1c0.6,0.2,1.1,0.2,1.6-0.1c0.5-0.2,1-0.6,1.3-1.2c0.4-0.6,0.7-1.3,0.6-1.9
				C107,60.6,106.7,60.1,106.2,59.8z"/>
			<rect x="105.6" y="54.3" transform="matrix(0.5931 -0.8051 0.8051 0.5931 -3.1666 108.9048)" width="1.2" height="6.6"/>
			<polygon points="108.2,51.2 107.3,50.5 104.4,54.4 105.2,55 106.3,53.6 110.7,57 111.5,56 107.1,52.6 			"/>
			<polygon points="111.3,45.7 110.6,46.6 111.7,49.5 108.6,49 107.7,50.1 112.1,50.8 114.2,52.6 115.1,51.6 112.9,49.8 			"/>
			<path d="M118.7,41.6c-0.7-0.7-1.5-1-2.3-1.1c-0.8-0.1-1.5,0.2-2.1,0.9c-0.6,0.6-0.8,1.4-0.7,2.2c0.1,0.8,0.6,1.6,1.3,2.2
				c0.7,0.7,1.5,1,2.3,1.1c0.8,0.1,1.5-0.2,2.1-0.9c0.6-0.6,0.8-1.4,0.7-2.2C119.9,43,119.5,42.3,118.7,41.6z M118.7,45.3
				c-0.3,0.4-0.7,0.5-1.2,0.4c-0.5-0.1-1-0.4-1.6-0.9c-1.2-1.1-1.5-2-0.8-2.8c0.3-0.4,0.8-0.5,1.3-0.4c0.5,0.1,1,0.4,1.6,0.9
				c0.7,0.6,1.1,1.2,1.1,1.6C119.1,44.6,118.9,45,118.7,45.3z"/>
			<polygon points="122.5,38.2 121.7,37.5 120.1,39.2 118.8,38 120.9,35.8 120.1,35.1 117.2,38.2 122,42.8 122.9,41.9 120.8,39.9 
							"/>
			<path d="M127.8,32.3c0-0.6-0.2-1-0.6-1.5c-0.4-0.4-0.8-0.6-1.4-0.6c-0.5,0-1.1,0.2-1.7,0.8l-2,1.9l4.6,4.8l0.9-0.8l-1.8-1.9
				l1.2-1.1C127.5,33.3,127.8,32.8,127.8,32.3z M126.2,33.2l-1,1l-1.4-1.4l0.9-0.9c0.3-0.3,0.6-0.5,0.9-0.5c0.3,0,0.5,0.1,0.7,0.3
				c0.2,0.2,0.3,0.5,0.3,0.7C126.6,32.7,126.4,32.9,126.2,33.2z"/>
			<path d="M130.9,26.1c-0.8-0.1-1.5,0.1-2.2,0.6c-0.6,0.6-0.9,1.3-0.9,2.1c0,0.8,0.4,1.6,1,2.3c0.7,0.7,1.4,1.2,2.2,1.3
				c0.8,0.2,1.5-0.1,2.2-0.6c0.6-0.6,0.9-1.3,0.9-2.1c0-0.8-0.4-1.6-1.1-2.4C132.4,26.7,131.7,26.3,130.9,26.1z M132.6,31.2
				c-0.4,0.3-0.8,0.4-1.2,0.3c-0.5-0.1-1-0.5-1.5-1.1c-1.1-1.2-1.3-2.2-0.5-2.9c0.4-0.3,0.8-0.4,1.3-0.3c0.5,0.2,1,0.5,1.5,1.1
				c0.6,0.7,0.9,1.3,1,1.7C133.1,30.5,133,30.9,132.6,31.2z"/>
			<path d="M137.5,24c-0.4-0.1-0.9,0-1.5,0.3l-1,0.5c-0.6,0.3-1,0.3-1.2,0c-0.2-0.2-0.2-0.4-0.2-0.6c0-0.2,0.2-0.5,0.5-0.7
				c0.5-0.4,1-0.5,1.4-0.2l0.7-1c-0.4-0.3-0.8-0.4-1.3-0.3c-0.5,0.1-1,0.3-1.4,0.7c-0.5,0.4-0.8,0.9-0.9,1.5c-0.1,0.6,0,1.1,0.4,1.5
				c0.2,0.2,0.4,0.4,0.7,0.5c0.3,0.1,0.5,0.2,0.8,0.1c0.3,0,0.6-0.1,1-0.3l1.2-0.6c0.3-0.2,0.6-0.2,0.7-0.2c0.2,0.1,0.3,0.1,0.4,0.3
				c0.2,0.2,0.2,0.4,0.1,0.7c-0.1,0.3-0.3,0.6-0.6,0.8c-0.7,0.6-1.3,0.7-1.9,0.3l-0.7,0.9c0.5,0.3,1,0.5,1.6,0.3
				c0.6-0.1,1.1-0.4,1.6-0.8c0.6-0.5,1-1.1,1.1-1.7c0.1-0.6,0-1.2-0.4-1.7C138.2,24.3,137.9,24.1,137.5,24z"/>
			<polygon points="140.5,18.7 139.8,17.9 136.1,20.9 136.7,21.7 138.1,20.6 141.6,25 142.6,24.2 139.1,19.8 			"/>
			<path d="M146.8,17.4c-0.4-0.1-0.9,0-1.6,0.2l-1.1,0.5c-0.6,0.3-1,0.2-1.2-0.1c-0.1-0.2-0.2-0.4-0.1-0.7c0.1-0.2,0.2-0.5,0.5-0.7
				c0.5-0.4,1-0.4,1.4-0.1l0.7-0.9c-0.4-0.3-0.8-0.4-1.3-0.3c-0.5,0.1-1,0.3-1.4,0.6c-0.5,0.4-0.9,0.9-1,1.5c-0.1,0.6,0,1.1,0.3,1.5
				c0.2,0.2,0.4,0.4,0.7,0.6c0.3,0.1,0.5,0.2,0.8,0.2c0.3,0,0.6-0.1,1-0.3l1.2-0.5c0.3-0.1,0.6-0.2,0.7-0.1c0.2,0.1,0.3,0.2,0.4,0.3
				c0.2,0.2,0.2,0.4,0.1,0.7c-0.1,0.3-0.3,0.5-0.6,0.8c-0.7,0.6-1.4,0.6-1.9,0.2l-0.8,0.9c0.5,0.4,1,0.5,1.6,0.4
				c0.6-0.1,1.1-0.3,1.6-0.7c0.6-0.5,1-1,1.2-1.6c0.2-0.6,0-1.2-0.4-1.7C147.5,17.8,147.2,17.6,146.8,17.4z"/>
		</g>
		<g>
			<polygon fill="#00784B" points="162.9,99 166.7,92.3 128.3,92.3 109,125.4 116.9,125.4 132.1,99 			"/>
			<polygon fill="#00784B" points="155.3,59.1 151.5,52.4 132.1,85.7 139.9,85.7 			"/>
			<polygon fill="#00784B" points="170.7,85.7 166.8,78.9 162.8,85.7 			"/>
			<polygon fill="#00784B" points="139.9,125.4 147.5,125.4 151.3,118.9 143.6,118.9 			"/>
			<polygon fill="#00784B" points="155.2,85.7 163,72.3 159.1,65.7 147.5,85.7 			"/>
			<polygon fill="#00784B" points="185.7,125.4 193.7,125.4 189.7,118.5 			"/>
			<polygon fill="#00784B" points="159,105.6 135.9,105.6 124.5,125.4 132.3,125.4 139.8,112.3 155.1,112.3 			"/>
			<polygon fill="#00784B" points="182,105.3 170.4,125.4 178.1,125.4 185.9,111.9 			"/>
			<path fill="#00784B" d="M219.3,130.6c-0.9-9.7-15.9-72.8-67.9-104.6C99,60.2,85.8,119.9,84.9,129.6c-0.9,9.7,2.8,14.1,7.2,16.2
				s9,1.7,23.5-2.2c14.5-3.9,35.8-3.5,35.8-3.5s22.4,0,36.9,3.8c14.5,3.9,19,4.3,23.4,2.2C216.1,144,220.2,140.3,219.3,130.6z
				 M199.2,134.9c-0.2-2.2-2.1-4-4.4-4c-2.3,0-4.2,1.7-4.4,4h-5.7c-0.2-2.2-2.1-4-4.4-4c-2.3,0-4.2,1.7-4.4,4h-5.6
				c-0.2-2.2-2.1-4-4.4-4c-2.3,0-4.2,1.7-4.4,4h-5.6c-0.2-2.2-2.1-4-4.4-4c-2.3,0-4.2,1.7-4.4,4h-5.6c-0.2-2.2-2.1-4-4.4-4
				c-2.3,0-4.2,1.7-4.4,4h-5.7c-0.2-2.2-2.1-4-4.4-4c-2.3,0-4.2,1.7-4.4,4h-5.6c-0.2-2.2-2.1-4-4.4-4c-2.3,0-4.2,1.7-4.4,4H93.1
				l5.2-9c0.5,0.2,1.1,0.4,1.8,0.4c2.5,0,4.5-2,4.5-4.5c0-1.5-0.7-2.8-1.8-3.6l2.8-4.9c0.5,0.2,1.1,0.3,1.7,0.3c2.5,0,4.5-2,4.5-4.5
				c0-1.4-0.7-2.7-1.8-3.5l2.8-4.8c0.5,0.2,1.1,0.4,1.8,0.4c2.5,0,4.5-2,4.5-4.5c0-1.5-0.7-2.8-1.8-3.6l2.9-4.9
				c0.5,0.2,1.1,0.4,1.8,0.4c2.5,0,4.5-2,4.5-4.5c0-1.5-0.7-2.8-1.8-3.6l2.8-4.8c0.5,0.2,1.1,0.4,1.8,0.4c2.5,0,4.5-2,4.5-4.5
				c0-1.5-0.7-2.8-1.8-3.6l2.8-4.9c0.5,0.2,1.1,0.3,1.7,0.3c2.5,0,4.5-2,4.5-4.5c0-1.4-0.7-2.7-1.8-3.5l2.8-4.9
				c0.5,0.2,1.2,0.4,1.8,0.4c2.5,0,4.5-2,4.5-4.5c0-1.5-0.7-2.8-1.8-3.6l5.3-9.2l5.3,9.1c-1.1,0.8-1.9,2.1-1.9,3.6
				c0,2.5,2,4.5,4.5,4.5c0.7,0,1.3-0.2,1.9-0.4l2.8,4.9c-1.1,0.8-1.8,2.1-1.8,3.6c0,2.5,2,4.5,4.5,4.5c0.7,0,1.3-0.1,1.8-0.4
				l2.8,4.9c-1.1,0.8-1.9,2.1-1.9,3.6c0,2.5,2,4.5,4.5,4.5c0.7,0,1.3-0.2,1.9-0.4l2.8,4.8c-1.2,0.8-1.9,2.1-1.9,3.7
				c0,2.5,2,4.5,4.5,4.5c0.7,0,1.3-0.2,1.9-0.4l2.8,4.9c-1.1,0.8-1.9,2.1-1.9,3.6c0,2.5,2,4.5,4.5,4.5c0.7,0,1.3-0.2,1.9-0.4
				l2.7,4.8c-1.1,0.8-1.9,2.1-1.9,3.6c0,2.5,2,4.5,4.5,4.5c0.7,0,1.3-0.1,1.9-0.4l2.8,4.9c-1.2,0.8-1.9,2.1-1.9,3.7
				c0,2.5,2,4.5,4.5,4.5c0.7,0,1.3-0.2,1.9-0.4l5.2,9.1H199.2z"/>
			<polygon fill="#00784B" points="174.5,92.3 174.4,92.3 155.1,125.4 162.8,125.4 178.2,98.7 			"/>
		</g>
		<g>
			<path d="M144.1,170.2v6.6h-0.8v-4.7h-1.6v-0.7c1.1,0,1.7-0.4,1.8-1.3H144.1z"/>
			<path d="M146.5,175.2h0.8c0.1,0.7,0.5,1.1,1.1,1.1c0.8,0,1.4-0.8,1.6-2.5h0c-0.3,0.5-0.8,0.7-1.5,0.8c-1.3,0-2-0.8-2.1-2.1
				c0.1-1.4,0.8-2.2,2.1-2.3c1.5,0,2.3,1,2.3,3c-0.1,2.4-0.9,3.6-2.4,3.7C147.2,176.9,146.6,176.3,146.5,175.2z M148.6,173.9
				c0.8,0,1.2-0.5,1.2-1.5c0-0.9-0.5-1.4-1.3-1.4c-0.8,0-1.3,0.5-1.3,1.5C147.2,173.4,147.7,173.9,148.6,173.9z"/>
			<path d="M153.3,171.1l-0.3,1.8c0.4-0.3,0.8-0.4,1.2-0.4c1.4,0.1,2.1,0.8,2.2,2.1c-0.1,1.4-0.9,2.2-2.4,2.2c-1.3,0-2-0.6-2.1-1.8
				h0.8c0.1,0.8,0.6,1.1,1.4,1.1c0.8,0,1.3-0.6,1.4-1.5c0-0.9-0.5-1.4-1.4-1.5c-0.5,0-0.9,0.2-1.2,0.6l-0.7,0l0.5-3.6h3.4v0.8H153.3
				z"/>
			<path d="M162.5,173.6c-0.1,2.2-0.8,3.3-2.3,3.3c-1.5,0-2.3-1.2-2.3-3.3c0-2.2,0.8-3.4,2.3-3.4
				C161.6,170.2,162.4,171.4,162.5,173.6z M161.6,173.6c0-1.7-0.5-2.6-1.4-2.6c-0.9,0-1.4,0.9-1.4,2.6c0,1.8,0.5,2.6,1.4,2.6
				C161.1,176.2,161.6,175.4,161.6,173.6z"/>
		</g>
		<g>
			<path d="M152.2,153.5c0.1-0.4,0.1-0.3,0-0.8c-1.1-0.7-1.7,0.4-2.5,0.7c-0.6-0.8,0.1-1.8,0.1-2.3c-0.2-0.5-0.5-0.2-1.1-0.2
				c-0.3,0.6,0.2,1.9-0.3,2.3c-0.2-0.3,0-1-0.2-1.3c-0.3,0-0.6,0-0.8,0.1c0,0.7-0.2,1.2-0.4,1.9c-0.3,0-0.5-0.1-0.7-0.2
				c0-0.5,0-1,0-1.4c1-0.7,2-1.3,2.9-2.2c-1.3-0.3-1.7,1.3-3,1.4c0-0.3,0-0.6,0-0.9c0.7-0.3,1.3-0.7,1.5-1.4
				c-0.4-0.8-1.4-1.6-2.3-1.4c-0.2,0.4,0.3,1,0.1,1.8c-0.7,1-1.6,1.7-2.1,2.9c0.6-0.1,1.1-0.8,1.4-0.8c0,0.3,0,0.7,0,1
				c-1.5,1.6-3.1,3.1-4.6,4.6c-0.3,0-0.5,0-0.7,0.1c-0.3,0.3-0.4,1,0,1.3c1.9-0.2,1.6-2.7,3.4-3c0.1,0.7-0.2,0.9-0.3,1.3
				c0.1,0.2,0.4,0.2,0.3,0.5c-0.5,0.7-0.9,1.4-2,1.6c0,0.6,0.8,0.4,1.3,0.4c0.6-0.6,0.8-1.6,1.6-2c0-0.6,0.1-1.2,0.8-1.1
				c0,0.6-0.2,1.1-0.1,1.8c-0.4,0-0.8-0.1-0.8,0.3c0,0.3,0.8-0.1,0.8,0.2c-0.2,0.1,0,0.7-0.1,1c-0.4,0.2-1,0.2-1.1,0.8
				c0.1,0.5,0.5,0.7,1,0.8c0.6-1,2-1.3,2.8-2c0.1-0.5-0.2-1.4,0.3-1.4l1,2.5v7.1l-0.8,1l0.6,0.5l1.2-1.1l0-6.7
				c0.1,0.2,1.3,0.4,2,0.5c0.5-0.5,0.7-1.4,0.8-2.3C150.8,158.2,150,154.4,152.2,153.5z M144.6,155.8c-2.1,0.3-1-1.8,0-2
				C144.8,154.2,144.8,155.3,144.6,155.8z M146.6,154.4c-0.1,0.5-0.3,0.8-0.7,1C145.6,155,146.1,154,146.6,154.4z M147.5,157.2
				c-0.7,0.6-0.9,1.7-2,2c0.1-1.3,1.3-1.5,1.5-2.6c-0.1-0.2-0.6,0-0.9-0.1c0.2-0.9,0.8-1.4,1.2-2c0.1,0,0.1,0.2,0.2,0.2
				C147.6,155.6,147.4,156.2,147.5,157.2z M148.1,154.3c0.1,0,0.2,0,0.3,0c0,0.3,0.1,0.8-0.1,1C147.9,155.3,147.9,154.5,148.1,154.3
				z M148.1,157.9c-0.2-0.3-0.3-1.4,0.1-1.5C148.8,156.4,148.8,158.1,148.1,157.9z M150.3,156.8c0.3,1.3,1.8,2.6,0.8,3.7
				c-0.5,0.2-1.3,0.1-1.6-0.1c-0.3-1.8-0.1-4-0.1-5.9c0.4-0.5,0.7-1.1,1.5-1.1C150.9,154.9,150,155.3,150.3,156.8z"/>
			<path d="M115.3,152.1c0.5-0.6,1.1-1,1.6-1.6c1-1,2.3-2.1,2.7-3.7c-0.4-0.5-0.9-0.9-0.9-1.8c-0.2,0-0.4,0-0.6,0
				c-0.2,0.3-0.7,0.6-0.7,0.9c-0.5,3.2-2.8,4.8-3.7,7.7C114.5,153.5,114.9,152.6,115.3,152.1z"/>
			<path d="M117.9,158.2c0.6-0.9,1.5-1.5,2-2.6c-0.4-0.2-0.7-0.6-1.1-0.7c-0.6,0.2-0.4,1.3-1.5,1c-0.3-1.7,3.1-1.5,1.5-3.1
				c-0.4,0-0.8,0.7-1,0.1c-0.1-0.6,0.7-0.2,0.6-0.8c-0.7-0.8-2.8-0.5-2.1,1.3c-2.7,1.7-6.1,2.8-8.8,4.7c0.9,0.5,2.1,0.7,3,1.2
				c0.7-0.7,1.5-1.5,2.3-2.2c0.8-0.7,1.6-1.6,2.7-1.7c-0.3,1.9-1.9,2.4-2.4,4c0.3,0.1,0.5,0.4,0.9,0.4c0.7-0.6,0.9-1.9,1.9-2.3
				c0.4,0.9-0.9,1.8-0.4,2.9c-0.3,0.1-0.9-0.2-0.8,0.2c-0.3,0.9,0.8,0.3,0.9,0.8c-0.4,1-0.9,2-1.3,3.1c1.1,1.7,3.1-0.3,4.3-0.9
				c0-0.4,0.1-1-0.1-1.3c-1.2,0-1.2,1.3-2.4,1.3c0-1.1,0.9-1.4,1.1-2.4c-0.1-0.5-0.8-0.3-0.8-0.8c0.2-0.8,0.4-1.5,0.8-2.1
				C117.3,157.9,117.6,158.2,117.9,158.2z"/>
			<path d="M136.9,150.4c-0.3-0.9-0.6-1.8-1.9-1.7c0,0.4,0.1,0.9-0.4,0.8c-0.4-0.4-0.2-1.2-0.9-1.3c-1.3,1.2-2.1-1.4-3.6-0.4
				c0,1.4,1.3,1.3,1.8,2.2c-1,0.9-3,0.8-4.9,0.8c-0.1,0.6,0.8,1.1,1.1,1.7c2,0,3.2-1.4,5.1-1.2c-3.1,3.8-6.5,7.1-9.6,11
				c-1.1,0.2-1.5,1.9-1,3c1.2,0.5,1.8-1.6,2.3-2.4c1.8-2.7,4.1-5.4,5.8-7.5c0.2,0.1,0.4,0.2,0.6,0.3c-0.1,0.2-0.3,0.4-0.2,0.8
				c0.2,0.4,0.6,0.6,0.9,1c0,0.4-0.7,0.1-0.6,0.6c0.2,0.3,1,0.2,0.9,0.8c-1,1.9-2.8,2.9-3.9,4.7c0.2,0.3,0.4,0.5,0.9,0.6
				c1.5-1.3,2.2-3.9,4.6-3.9c0,0.2,0,0.4,0,0.6c-0.2,0.2-0.7,0.1-0.9,0.3c0.5,1.2-0.5,1.8-1.8,1.6c0,0.2,0,0.4,0,0.7
				c0.5,0.2,1.4,0.1,2,0.1c0.2-0.2-0.1-0.9,0.4-0.8c0.3,0,0.2,0.5,0.2,0.8c0.6,0,1.3,0.1,1.8-0.1c0-0.3,0.2-0.4,0.1-0.8
				c-0.4-0.2-1.2,0-1.3-0.4c-0.3-1.4,0.9-1.3,1-2.2c-0.2-0.4-0.9-0.2-1.1-0.6c0-0.5,0.7-0.2,0.6-0.8c-0.1-0.3-1,0.1-0.9-0.3
				c0.5-0.5,1.4-0.6,2.3-0.7c0.6-0.9-0.1-1.8-1.1-1.8c-0.5,0.1-0.2,0.9-0.8,0.9c-0.2-0.1-0.3-0.2-0.3-0.3c0.5-0.8,1.4-1.2,2.2-1.7
				c0.3-0.5-0.4-0.9-0.7-1.2c-0.5,0-0.9,0.9-1.3,0.2c0-0.5,0.8-0.3,0.7-1c-1.5-0.5-1.7,2.5-3.2,1.7
				C133,152.4,134.7,151.1,136.9,150.4z M134,158.5c0,0.2,0.1,0.2,0.1,0.4c-0.4,0.2-0.8,0.3-1.2,0.4c-0.2,0-0.1-0.4-0.1-0.6
				C133.5,159,133.4,158.4,134,158.5z M133.4,158c-0.3,0-0.5,0-0.7-0.1c0.1-0.6,1-1.3,1.3-0.7C133.8,157.4,133.1,157.3,133.4,158z
				 M134.2,154.2c-0.2,0.6-0.7,1-1.2,1.3C132.5,154.9,133.5,154.2,134.2,154.2z M131.9,156c0.4,0,0.7,0,1.1,0
				c-0.2,0.3-0.4,0.7-1,0.6C132.1,156.2,131.8,156.3,131.9,156z"/>
			<path d="M130.9,159.6c0.2-0.7,0-1.6-0.4-2c-0.6,0.6-1.3,1-1.7,1.8C129.3,159.7,130.4,159.7,130.9,159.6z"/>
			<path d="M194.6,154.7c0.7-0.6,2.3-2.8,2.1-3.9c-0.1-0.5-0.8-1-1.1-1c-1.4-0.2-1.5,1.9-2.6,1.3c0.5-0.7,1.2-1.2,0.9-2.6
				c-0.5-1.4-3.4-0.7-2.1,0.8c0.4-0.1,0.1-0.8,0.6-0.8c1,1.7-0.7,3.4-2.7,3.2c-0.1,0.3,0.1,0.8-0.1,0.9c-1.1-0.5,0.5-3.4-1.4-3.3
				c-0.5,0.2-0.5,0.9-0.5,1.6c1.5-0.2,1.1,2.6,0.8,3.4c-0.6-0.4-0.2-1.8-1.4-1.7c-0.4,0.5,0.2,0.8,0.3,1.5c0.2,1.1-0.6,2.6,0.3,3.1
				c1,0.1,0.5-1.4,0.8-2c0.4-0.1,0.1,0.5,0.6,0.3c0.3-0.2,0.2-0.8,0.8-0.7c0,2.3-2.2,2.6-3.1,4.2c0.7-0.5,1.8-1.1,2.9-2
				c1-0.8,2.8-3.2,3.4-1.4c-3.1,0.9-4.5,3.6-7.2,4.9c-0.2-0.4,0.7-0.7,0.1-0.8c-1.1,0.4-1.5,1.4-2.3,1.9c0.7,1.7,1.9,0.2,2.9-0.7
				c1.3-1.2,2.3-2.2,3.6-3.3c0.5-0.4,1.6-1.6,2.1-0.5c-0.5,0.7-1.4,1-1.7,1.8c0.2,0.3,0.4,0.5,0.6,0.8c-0.2,1.5-2,1.4-3.1,2
				c-0.2,0.5-0.3,0.9-0.2,1.6c1.6-0.2,4.7,0.3,5.7-0.9c0.1-0.7-0.6-0.5-0.7-1c0.5-0.4,0.9-1.4,0.2-1.9c-0.3-0.1-0.9,0.1-1-0.1
				c-0.1-1.9,2.5-1,2.3-2.9c0.2-0.2-0.9-0.4-0.9-0.8C193.3,155.3,194.2,155.1,194.6,154.7z M188.5,162.4c0.4-0.9,2.4-0.8,3.3-0.9
				C190.9,161.9,189.5,162.8,188.5,162.4z M189.7,153.9c-0.2-0.2,0-0.5,0.1-0.8c0.3-0.1,0.2,0.2,0.5,0.2
				C190.2,153.7,190,153.9,189.7,153.9z M190.4,154.9c-0.3,0-0.3-0.5,0.1-0.5C190.5,154.6,190.4,154.7,190.4,154.9z M190.8,155.4
				c-0.3,0-0.2-0.3-0.1-0.6C191.1,154.7,191,155.4,190.8,155.4z M190.2,152.7c0.1-0.4,0.2-0.8,0.8-0.7
				C190.9,152.4,190.6,152.6,190.2,152.7z M191.5,153.8c-0.7,0,0-0.5,0.2-0.7C191.9,153.6,191.4,153.4,191.5,153.8z M192,152.7
				c-0.4,0-0.5,0.3-0.8,0.3c-0.2-0.5,0.6-0.4,0.2-0.7c0-0.2,0.4,0,0.6-0.1C192,152.4,192,152.5,192,152.7z M192.1,154.3
				c-0.2-1,1.3-1.2,2-1.7C193.6,153.4,192.9,153.9,192.1,154.3z"/>
			<path d="M163.7,149.3c-0.5-1.8-1.6-0.7-3.5-0.8c-0.1,0.3-0.3,0.5-0.2,0.9C161,150.4,162.4,149.2,163.7,149.3z"/>
			<path d="M165,149.9c-1.1-0.2-2,1.7-2.8,1.8c0-0.3,0.1-0.7-0.1-0.9c-0.3-0.1-0.6-0.3-1.1-0.2c0,0.6,0.2,1.2,0.1,1.9
				c-1.4,0.9-2.5,2.1-3.8,3.1c0-0.9,0.4-1.5,0.4-2.5c-1,1.2-1.5,3-2.4,4.3c1.1,1.6,2.6-0.7,3.6-1.7c1-1.1,1.7-2.2,2.4-2.4
				c-0.1,0.3-0.1,0.8-0.1,1.2c-0.2,0.2-0.7,0.1-0.8,0.5c0.1,0.4,0.7-0.3,0.8,0c0,0.3-0.1,0.6-0.2,0.8c-0.6,0.2-1.4,0.2-1.9,0.5
				c0,0.4,0,0.7,0.1,1c1,0.2,1.3-0.8,1.8-0.8c0.1,0.4-0.4,0.8,0.2,0.8c0.1-0.7,1.6-2.3,1.8-1.2c0.1,0.4-1.1,0.7-1.1,1.3
				c1.1-0.4,2.4-0.8,3.1-1.6c-0.3-0.6-0.6-1.3-1.3-1.5c-0.4,0.1-0.6,0.5-0.8,0.9c-0.3-0.1-0.8,0.1-0.9-0.1c0.1-0.3,0.2-0.5,0.1-0.9
				c0.7-0.8,3.8-1.8,3.9-3C165.9,150.8,165.4,150,165,149.9z M162.1,153.7c-0.5-1.5,1.1-2.5,2.2-2.4
				C163.7,152.2,162.8,152.8,162.1,153.7z"/>
			<path d="M163.4,161.4c-0.2,1.4-1.5,1.5-2.6,1.9c-0.8-2.2,1.6-3.1,2.8-4c0.1-2.2-1.5-1-2.8-0.9c-0.3-0.2,0.2-0.5-0.2-0.6
				c-0.6,1.2-3.9,2.6-2.7,4.1c0.7-0.4,1.4-1.8,2.1-0.3c0,0.5-0.9,0.1-0.8,0.8c0.8,0,0.4,1.2,0.6,1.8c1.8,0.4,3.3-1.1,4.6-2
				C164.4,161.6,164.1,161.3,163.4,161.4z M159.7,160.5c0-0.3-0.1-0.8,0.1-1c0.1,0,0.2,0,0.3,0C160.3,159.8,160.4,160.7,159.7,160.5
				z M160.5,158.9c0.8,0.6,1.1-0.1,1.8-0.3c-0.1,0.6-0.4,1.8-1.3,1.9c0-0.3,0.1-0.6,0.2-0.9C161.2,159.2,160.5,159.4,160.5,158.9z"
				/>
			<path d="M174.4,160.6c0.5-0.9,1.1-1.7,1.4-2.8c1.1-0.7,1.9-1.7,2.2-3.1c1.2-0.6,2.6-3,1.1-4.3c0.4,2.5-1.1,3.6-2.3,4.1
				c0-1.7,1.1-4.5-0.2-5.5c-0.1,0-0.1,0-0.2,0c-0.7,2.3-1.4,4.6-2.1,6.9c-1.5,0.7-3.5,0.9-4.6,1.9c0.3,1.3,2.8,0.3,3.9,0.7
				c0,1.9-1.9,2.4-1.7,4.2c0.1,0,0.2,0,0.2,0.1c1.2-0.2,1.4-1.5,2.3-2c1.3,0.2,3-0.1,3.7,0.7c-0.2,0.7-0.9,0.8-1.1,1.4
				c1.1-0.3,2.1-0.7,2.8-1.5C179.2,159.5,176.2,160.6,174.4,160.6z"/>
		</g>
	</g>
</g>
</svg>
