<svg xmlns="http://www.w3.org/2000/svg" xmlns:xlink="http://www.w3.org/1999/xlink" fill="none" version="1.1" width="4128.669921875" height="4128.669921875" viewBox="0 0 4128.669921875 4128.669921875"><g><g><path d="M1493.03925,2524.4083984375C1543.78925,2209.7283984375,1631.49925,1915.2983984375,1851.1992500000001,1693.2403984375L1855.13925,1693.2103984374999L1855.13925,1758.8183984375C1855.13925,1825.0283984375,1893.36925,1891.5083984375,1965.63925,1893.9083984375C1967.78025,1894.0083984375,1969.9092500000002,1894.1083984375,1972.05025,1894.1983984375L1972.05025,1965.8683984375L1971.75025,1965.8683984375C1837.38025,1995.3083984375,1724.13025,2046.8183984375,1647.79025,2148.7783984375C1597.64025,2215.7583984375,1694.51025,2262.7083984375,1738.14025,2228.9783984375C1816.11025,2168.7183984374997,1894.08025,2114.8283984375003,1972.05025,2099.9783984375L1972.05025,2180.3683984375C1805.1702500000001,2232.5683984375,1718.22025,2339.0983984375,1723.28025,2508.2183984374997C1725.14025,2570.5883984375,1831.14025,2561.9283984374997,1840.21025,2499.5883984375C1879.10025,2232.6783984374997,2203.83025,2246.3783984375,2241.83025,2513.8083984375C2250.14025,2572.5783984375003,2359.02625,2574.9383984375,2356.52625,2484.8683984375C2352.6862499999997,2346.9583984375,2282.83025,2238.1683984375,2097.77025,2180.2083984375L2097.77025,2099.8383984375L2098.0702499999998,2099.8383984375C2177.47025,2112.8383984375,2254.95025,2149.3383984375,2327.38025,2218.2783984375C2355.05625,2244.5883984375,2381.55625,2249.3783984375,2415.91625,2234.3883984374997C2447.60625,2220.5583984375,2466.38625,2191.1683984375,2441.1262500000003,2151.0183984375C2377.89625,2050.4883984375,2254.08025,1998.5983984375,2100.39025,1965.8683984375L2097.77025,1965.8683984375L2097.77025,1893.2083984375C2122.21025,1891.4183984375,2146.34025,1888.4883984375,2169.99025,1884.0883984375C2195.86125,1903.5083984375,2245.41025,1889.3783984375,2257.7602500000003,1859.3183984375C2267.55125,1835.5283984375,2259.98125,1812.7983984375,2235.04025,1791.1383984375L2235.04025,1690.5293984375L2236.99025,1690.5193984375C2278.08025,1721.6383984375,2305.88125,1754.7683984375,2334.59125,1795.2583984375C2468.69625,1984.2883984375,2538.91625,2240.6383984374997,2574.78625,2524.4083984375C2596.95625,2608.3683984375,2737.86625,2584.1283984375,2729.56625,2524.4083984375C2640.9362499999997,1967.2183984375,2465.71625,1570.0603984375,2126.72025,1475.5403984375L2126.80125,1402.4293984375L2380.40625,1402.4293984375C2391.20625,1418.5693984375,2406.4362499999997,1428.6293984375,2423.23625,1428.6293984375C2455.88625,1428.6293984375,2482.5162499999997,1390.6103984375,2482.5162499999997,1343.9793984375C2482.5162499999997,1297.3693984375,2455.88625,1259.3393984375,2423.23625,1259.3393984375C2409.45625,1259.3393984375,2396.71625,1266.1393984375,2386.6262500000003,1277.4793984375L2126.94125,1277.4793984375L2127.02125,1208.9693984374999L2326.15125,1208.9693984374999C2336.96125,1225.0993984375,2352.17625,1235.1703984375,2368.98625,1235.1703984375C2401.63625,1235.1703984375,2428.2662499999997,1197.1393984375,2428.2662499999997,1150.5193984375C2428.2662499999997,1103.9093984375,2401.63625,1065.8793984375,2368.98625,1065.8793984375C2355.19625,1065.8793984375,2342.47025,1072.6703984375,2332.38125,1084.0193984375L2127.16025,1084.0193984375L2127.25025,1012.4793984375L2286.09025,1012.4793984375C2296.72025,1026.8393984375,2311.0702499999998,1035.6493984375,2326.79025,1035.6493984375C2359.4362499999997,1035.6493984375,2386.06625,997.6293984375,2386.06625,950.9993984375C2386.06625,904.3883984375,2359.4362499999997,866.3693984375,2326.79025,866.3693984375C2311.83025,866.3693984375,2298.1102499999997,874.3793984375,2287.66025,887.5293984375L2127.39025,887.5293984375L2127.47025,816.5483984375C2136.97025,805.0483984375,2142.56025,791.0985984375,2142.56025,776.0985984375C2142.56025,736.8681984375,2104.40025,704.8583984375,2057.62025,704.8583984375C2010.85025,704.8583984375,1972.69025,736.8681984375,1972.69025,776.0985984375C1972.69025,787.0087984375,1975.6302500000002,797.3788984375,1980.9002500000001,806.6483984375L1981.78025,1478.8383984375C1607.62025,1601.8693984375,1436.15035,1997.3583984375,1343.79004,2497.8183984375C1329.60985,2574.6383984374997,1452.36025,2589.1383984374997,1493.04025,2524.4083984375L1493.03925,2524.4083984375ZM2038.6992500000001,1605.7903984375L2046.94025,1605.7903984375C2070.33025,1605.7903984375,2089.46925,1624.9293984375,2089.46925,1648.3203984375L2089.46925,1728.1483984375C2089.46925,1751.5383984375,2070.32925,1770.6783984375,2046.94025,1770.6783984375L2038.6992500000001,1770.6783984375C2015.30925,1770.6783984375,1996.1702500000001,1751.5383984375,1996.1702500000001,1728.1483984375L1996.1702500000001,1648.3203984375C1996.1702500000001,1624.9303984375001,2015.31025,1605.7903984375,2038.6992500000001,1605.7903984375Z" fill-rule="evenodd" fill="#E6232A" fill-opacity="1"/></g><g><path d="M2172.91953125,711.50977C2888.00953125,776.1494,3450.93953125,1361.95,3450.93953125,2071.1800000000003C3450.93953125,2823.41,2817.74953125,3436.87,2041.35953125,3436.87C1264.96953125,3436.87,631.76953125,2823.41,631.76953125,2071.1800000000003C631.76953125,1345.029,1221.86953125,748.25,1961.19953125,707.75L1961.19953125,734C1626.71953125,755.8496,1329.1095312500001,913.34,1125.25953125,1150.65L1101.9095312499999,1132.471L1071.03953125,1168.591L1094.45953125,1188.071C1022.6895312500001,1278.8609999999999,964.1095312499999,1380.1509999999998,921.6795312500001,1489.171L896.80953125,1478.031L876.07953125,1522.051L905.26953125,1534.001C874.52953125,1623.8609999999999,854.55953125,1718.52,846.96953125,1816.47L821.56953125,1816.47L821.56953125,1863.06L844.35953125,1863.06C843.81953125,1877.31,843.46953125,1891.59,843.46953125,1905.96C843.46953125,1990.87,852.75953125,2073.4700000000003,870.3395312499999,2152.98L833.06953125,2164.34L850.02953125,2220.02L884.37953125,2209.55C909.3395312499999,2300.04,945.1995312500001,2386.06,990.48953125,2466.26L956.26953125,2489.01L986.47953125,2534.4700000000003L1018.47953125,2513.21C1075.60953125,2604.0699999999997,1145.1795312499999,2686.6800000000003,1224.89953125,2758.91L1193.91953125,2792.31L1245.34953125,2840.01L1278.25953125,2804.52C1375.32953125,2882.68,1485.23953125,2946.39,1604.41953125,2992.38C1617.1095312500001,2972.09,1626.41953125,2956.21,1630.0895312500002,2929.19L1742.31953125,2929.5L1742.42953125,2888.65L1634.53953125,2889.64C1671.81953125,2845.55,1695.73953125,2798.82,1699.26953125,2745.7L1731.34953125,2769.34L2357.59953125,2769.34L2384.5495312499997,2745.7C2384.4895312500003,2795.16,2410.7395312500003,2843.28,2448.95953125,2888.22L2341.64953125,2888.09L2341.63953125,2930.62L2454.64953125,2930.88C2457.49953125,2953.5,2465.9895312500003,2976.15,2480.11953125,2998.79C2602.49953125,2951.29,2715.06953125,2884.51,2813.98953125,2802.35L2848.93953125,2840.03L2900.38953125,2792.26L2866.68953125,2755.95C2944.81953125,2682.9700000000003,3012.94953125,2599.76,3068.82953125,2508.58L3107.80953125,2534.48L3138.03953125,2488.9700000000003L3096.32953125,2461.27C3140.30953125,2381.3599999999997,3175.13953125,2295.9300000000003,3199.38953125,2206.3599999999997L3244.26953125,2220.0299999999997L3261.22953125,2164.3199999999997L3213.17953125,2149.69C3230.23953125,2071.02,3239.23953125,1989.5,3239.23953125,1905.96C3239.23953125,1891.59,3238.89953125,1877.3,3238.35953125,1863.06L3272.73953125,1863.06L3272.73953125,1816.47L3235.72953125,1816.47C3228.25953125,1720.04,3208.81953125,1626.78,3178.87953125,1538.161L3218.22953125,1522.051L3197.49953125,1478.031L3162.74953125,1493.5810000000001C3121.09953125,1385.221,3063.51953125,1284.391,2992.85953125,1193.8809999999999L3023.25953125,1168.591L2992.38953125,1132.471L2962.05953125,1156.0810000000001C2768.52953125,928.0409999999999,2488.92953125,772.5615,2172.91953125,738.4414L2172.91953125,711.51172L2172.91953125,711.50977ZM3133.37953125,1266.22L3120.28953125,1276.72L3135.79953125,1296.17L3149.26953125,1285.8899999999999L3133.37953125,1266.22ZM3292.90953125,1647.04L3276.47953125,1650.42L3281.42953125,1674.81L3298.10953125,1671.81L3292.90953125,1647.04ZM3327.85953125,1973.62L3307.27953125,1973.84L3306.72953125,2009.34L3327.93953125,2007.5L3327.85953125,1973.62ZM3236.52953125,2351.96L3218.59953125,2341.8900000000003L3201.59953125,2377.38L3220.81953125,2386.13L3236.52953125,2351.96ZM3036.93953125,2690.67L3021.21953125,2676.16L2995.43953125,2707.98L3012.79953125,2721.48L3036.93953125,2690.67L3036.93953125,2690.67ZM852.8395312499999,2346.3900000000003L870.75953125,2336.3199999999997L887.76953125,2371.81L868.53953125,2380.56L852.8395312499999,2346.3900000000003ZM1070.24953125,2701.81L1085.97953125,2687.3L1111.73953125,2719.1400000000003L1094.3795312500001,2732.6099999999997L1070.24953125,2701.81ZM949.74953125,1281.92L964.91953125,1293.53L949.57953125,1315.3600000000001L934.39953125,1303.75L949.74953125,1281.92ZM794.55953125,1656.28L814.05953125,1660.73L808.92953125,1688.15L789.42953125,1683.681L794.55953125,1656.28ZM768.53953125,1985.05L793.66953125,1981.73L797.88953125,2013.71L772.75953125,2017.02L768.53953125,1985.05ZM1720.43953125,3294.15L1846.17953125,3294.15L1846.17953125,3221.74C1830.90953125,3154.07,1739.74953125,3139.19,1720.43953125,3221.74L1720.43953125,3294.15ZM1939.27953125,3294.15L2147.56953125,3294.15L2147.56953125,3191.45C2122.28953125,3095.47,1971.26953125,3074.36,1939.27953125,3191.45L1939.27953125,3294.15ZM2235.86953125,3294.15L2366.4095312500003,3294.15L2366.4095312500003,3221.74C2350.55953125,3154.07,2255.91953125,3139.19,2235.86953125,3221.74L2235.86953125,3294.15Z" fill-rule="evenodd" fill="#E6232A" fill-opacity="1"/></g><g><path d="M445.32012499999996,1829.4003546875C451.400125,1831.9706546875,457.32012499999996,1835.1406546875,463.260125,1838.3203546875C469.180125,1841.4902546875,475.32012499999996,1845.0507546875,481.69012499999997,1848.9804546875C483.470125,1862.9706546875,480.950125,1882.2705546875,474.450125,1906.9500546875C470.32012499999996,1922.6010546875,464.170125,1936.1100546875,456.329125,1947.5600546875C448.390125,1959.3100546875,439.21912499999996,1968.4800546875,428.489125,1974.9900546875C418.069125,1981.5700546875,406.309125,1985.8800546875,393.289125,1987.5900546875C380.299125,1989.3100546875,366.709425,1988.3000546875,352.569625,1984.5700546875C339.309525,1981.0700546875,327.309525,1975.3300546875,316.309525,1966.9710546874999C305.629625,1958.6710546875,296.609625,1948.9000546875,289.579625,1937.7110546875C282.569585,1926.5010546875,278.039555,1914.3810546875,275.419675,1901.1410546875C272.779785,1887.8808546875,273.489746,1874.2206546875,277.059575,1860.6806546875C279.369625,1851.9609546875,281.259525,1844.7304546875,283.239505,1838.5009546875C285.209425,1832.2509546875,287.239525,1826.9912546875,289.409425,1822.4111546875C291.509525,1818.1308546875,293.919425,1813.9306546875,296.449425,1810.4208546875C299.279525,1806.9707046875,302.499525,1803.3310546875,306.329325,1799.8310546875C311.299325,1800.4814456875,316.269325,1801.1611346875,321.179425,1802.1210946875C326.359325,1803.1806646875,331.459425,1804.5312546875,336.529525,1806.1708946875L334.999525,1811.9013546875C322.229525,1812.7109546875,311.669425,1817.3310546875,302.889425,1825.0009546875C294.339325,1833.0410546875,288.309325,1843.6914546875,284.729525,1857.2314546875C281.959475,1867.7617546875,281.749515,1878.3310546875,283.959425,1888.2509546875C286.099325,1898.4706546875,290.649425,1908.0510546875,297.109325,1916.5200546875C303.869425,1925.0600546875,312.459425,1932.7800546875,323.239225,1939.5010546875C333.949225,1946.5010546875,346.419225,1951.7310546875,360.559325,1955.4710546874999C389.169125,1963.0110546875,412.779125,1962.4710546874999,430.799125,1954.0200546875C449.09912499999996,1945.6500546875,461.38912500000004,1929.5800546875,467.819125,1905.2110546875C475.199125,1877.2011546875,467.369125,1853.2412546875,444.289125,1833.3105546875L445.32012499999996,1829.4003546875L445.32012499999996,1829.4003546875Z" fill="#E6232A" fill-opacity="1"/></g><g><path d="M407.16996875,1544.0400390625C403.44996875,1542.4502390625,400.33986875,1541.8203390625,398.24996875,1541.9599390625C396.43996875,1542.2002390625,394.86006875,1543.5498390625,393.61006875,1545.7197390625L385.45016875,1560.2002390625L380.85006875,1558.2500390625C382.72016874999997,1554.6396390625,384.95016875,1550.1699390625,387.80006875,1544.2802390625C390.52006875,1538.6699390625,393.42996875,1531.7900390625,396.96996875,1523.4804390625C400.48996875,1515.1806390625,403.39986875,1508.2900390625,405.65986875,1502.1504390625C407.79976875,1496.3007790625,409.46996875,1491.5908190625,410.63986875,1488.0400390625L415.23996875,1489.9804690625L409.44996875,1511.5302390625C408.65986875,1514.2304390625,408.89986875,1516.0400390625,409.96996875,1517.5107390625C411.04006875,1518.9707390625,413.21996875,1520.2207390625,416.93996875,1521.8007390625L559.9394687500001,1582.4707390625C563.9394687500001,1584.1806390625,567.06046875,1584.8203390625,569.13946875,1584.7011390625C571.22046875,1584.5712390625,573.22046875,1583.0312390625,575.26046875,1579.8515390625L588.63046875,1559.4912390625L593.21046875,1561.4316390625C590.86046875,1566.1816390625,588.25046875,1571.5117390625,585.42046875,1577.4013390625C582.46046875,1583.5918390625,579.4104687500001,1590.7410390625,576.14046875,1598.4810390625C572.86046875,1606.2120390625,569.94046875,1613.0920390625,567.56046875,1619.5310390625C565.03046875,1626.2310390625,562.89046875,1632.0910390625,561.11046875,1637.0910390625L556.53046875,1635.1310390625L561.1894687500001,1616.1500390625001C561.89946875,1613.7400390625,561.34946875,1611.8300390625,559.69946875,1610.1100390625C558.07046875,1608.4000390625,555.03046875,1606.7700390625,550.44946875,1604.8300390625L484.27046874999996,1576.7500390625L440.62046875,1679.6200390625L506.80046875,1707.7100390625C511.67946875,1709.7800390625,514.94946875,1710.8200390625,517.03046875,1710.7000390625C519.40946875,1710.6810390625,521.15046875,1709.7500390625,522.54046875,1707.2800390625L532.9294687500001,1690.7400390625L537.53046875,1692.6810390625C535.1794687500001,1697.4310390625,532.44946875,1703.0300390625,529.50046875,1709.2210390625C526.40946875,1715.6810390625,523.37046875,1722.8510390625,520.08046875,1730.5910390625C516.8004687499999,1738.3310390625,513.89046875,1745.2010390625,511.62046875,1751.3510390625C509.22046875,1757.7800390625,507.21046875,1763.3410390625,505.43046875,1768.3410390625L500.84046875,1766.3910390625L506.20046875,1742.6100390625C506.95046875,1739.2210390625,506.66046875,1736.7210390625,505.31046875000004,1735.1410390625C503.95046875,1733.5410390625,501.33046875,1731.7700390625,497.33046875,1730.0700390625L354.04026875,1669.2800390625C350.31026875,1667.6900390625,347.20016875,1667.0500390625,345.13036875,1667.1810390625C343.32026875,1667.4210390625,341.74046875,1668.7800390625,340.47046875,1670.9610390625L332.31054875,1685.4210390625L327.73046875,1683.4610390625C329.60058875,1679.8610390625,331.81054875,1675.4110390625,334.66039875,1669.5200390625C337.50048875,1663.6100390625,340.55026875,1656.4400390625,344.19046875,1647.8600390625C347.84036875,1639.2610390625,350.88036875,1632.0910390625,353.14036875,1625.9400390625C355.28026875,1620.1010390625,356.95046875,1615.3810390625,358.12036875,1611.8300390625L362.72046875,1613.7700390625L356.33056875,1636.7700390625C355.52046875,1639.4710390625,355.77046875,1641.2610390625,356.84056875,1642.7210390625C357.91066875,1644.2010390625,360.08056875,1645.4610390625,363.82056875,1647.0410390625L432.29046875,1676.1010390625L475.94046875000004,1573.2109390625L407.16996875,1544.0400390625L407.16996875,1544.0400390625Z" fill="#E6232A" fill-opacity="1"/></g><g><path d="M570.64969765625,1402.4404609375001L623.41009765625,1457.6599609375C625.76009765625,1459.9199609375,627.81909765625,1461.3299609375,629.51009765625,1461.4999609375C631.1700976562499,1461.6499609375,633.71009765625,1459.4499609375,636.54009765625,1454.6099609375L647.91009765625,1435.9709609375L652.33009765625,1438.2609609375C651.08009765625,1440.0299609375,649.21009765625,1443.6499609375,646.08009765625,1449.0299609375C643.08009765625,1454.8399609375,639.24009765625,1462.3109609375,634.24009765625,1471.9899609375C629.25009765625,1481.6809609375,625.40009765625,1489.1499609375,622.55009765625,1494.6809609375C619.82009765625,1500.6309609375,617.97009765625,1504.2309609375,617.23009765625,1506.3109609375L612.82009765625,1504.0299609375L620.41009765625,1485.8799609375C623.00009765625,1479.5099609375,621.83009765625,1473.6489609375,616.75009765625,1467.8799609375L481.60009765625,1319.7294909375L485.73998765625,1311.7099609375L682.44009765625,1335.7402609375C686.19009765625,1335.9101609375,688.99009765625,1335.9706609375,690.65009765625,1335.4101609375C692.33009765625,1334.8906609375,694.44009765625,1333.5302609375,696.85009765625,1330.9003609375L709.38009765625,1318.1201209375L713.54009765625,1320.2597609375C708.15009765625,1329.3701609375,701.58009765625,1341.4101609375,694.02009765625,1356.0595609375L686.88009765625,1369.9091609375C684.74009765625,1374.0595609375,682.60009765625,1378.1992609375,681.04009765625,1381.9394609375C679.30009765625,1385.9589609375,677.45009765625,1389.5497609375,676.16009765625,1392.7490609375L672.00009765625,1390.5986609375L678.66009765625,1370.9081609375C679.6700976562499,1368.2880609375,680.25009765625,1365.7783609375,680.4200976562499,1364.1181609375C680.86009765625,1362.5878609375,680.58009765625,1361.0478609375,680.04009765625,1360.0683609375C679.35009765625,1359.3583609375,678.6700976562499,1358.6484609375,677.15009765625,1358.2285609375C675.90009765625,1357.9189609375,674.38009765625,1357.4882609375,672.00009765625,1357.3281609375L598.75009765625,1347.9081609375L570.65009765625,1402.4384609375L570.64969765625,1402.4404609375001ZM591.52009765625,1346.9999609375L506.87989765625,1335.9296609375L565.70999765625,1397.0800609375L591.52009765625,1346.9999609375Z" fill="#E6232A" fill-opacity="1"/></g><g><path d="M756.1796875,1220.0402578125C760.4596875,1223.1702578125,763.5896875,1224.6902578125,765.5796875,1224.5992578125001C767.8096875,1224.7102578125,770.2896875,1223.4292578125,772.9296875,1220.3592578125L792.3596875000001,1199.0592578125L796.3796875,1202.0102578125C788.5196875,1211.7002578125,780.9096875,1221.5592578125,773.5796875,1231.6092578125C766.2096875,1241.6492578125,758.0196875,1253.3992578125,748.7796875,1267.0792578125L744.7496874999999,1264.1382578125L752.3496875,1248.4882578125C755.5796875,1241.9682578125,756.8896875,1237.5382578125,756.9196875,1234.8582578125001C756.7696875,1232.4382578125,754.8096875,1229.8392578125,751.0296875,1227.0892578125L641.4796875,1146.9592578125C633.7096875,1141.2682578125,627.3695875,1137.7892578125,622.3097875,1136.7892578125C617.2597875,1135.7792578125,612.7897875,1137.1492578125,608.5397875,1141.3692578125L595.4396975,1154.5392578125L591.1796875,1151.4192578125L613.2296875,1121.2592578125C615.7997875,1117.7492578125,618.1396875,1115.5982578125,619.9897875,1114.6482578125C621.6596875,1113.9382578125,624.8996875,1113.2382578125,629.4897875,1112.7382578125L836.4296875,1089.7682578125L721.5196875,1009.5781578125C716.5696875,1006.3378578125,712.9996874999999,1004.8984578125,710.8296875,1005.2285578125C708.4796875,1005.8085578125,705.8096875,1007.3486578125,703.3596875000001,1010.1689578125L685.0397875,1029.9384578125L681.0197875,1027.0087578125C685.0097875,1022.5888578125,691.8796875,1013.7392578125,701.6296875,1000.4189578125C711.3596875000001,987.1093578125,717.7296875,977.8691378125,720.7196875,972.7392578125L724.7496874999999,975.6796878125L718.0096875,986.9599578125C716.2496874999999,989.9101578125,715.9796875,992.4101578125,717.1696875,994.4404578125C718.3896875,996.4804578125,721.4796875,999.1308578125,726.6696875,1002.5507578125L871.4796875,1104.6102578125L867.0696875,1110.6402578125L643.1300875,1137.3502578124999L756.1796875,1220.0402578125L756.1796875,1220.0402578125Z" fill="#E6232A" fill-opacity="1"/></g><g><path d="M1036.538890625,809.1200953125L1023.649890625,824.8603953125C1021.419890625,827.4999953125,1020.288890625,829.8905953125,1020.288890625,831.6698953125C1020.048890625,833.6396953125,1021.129890625,835.6298953125,1023.088890625,837.6200953125L1047.328890625,862.2601953125C1051.258890625,866.2501953125,1054.308890625,869.3701953125,1056.498890625,872.0191953125C1058.668890625,874.6891953125,1059.978890625,876.8991953125,1060.628890625,878.8891953125C1061.258890625,881.3001953125,1061.018890625,883.7391953125,1060.108890625,886.3591953125C1059.218890625,888.9891953125,1057.848890625,892.4991953125,1055.628890625,896.8891953125C1052.038890625,904.7791953125,1047.128890625,913.1091953125,1040.888890625,921.8591953125C1034.4488906249999,930.8401953125,1027.108890625,939.3591953125,1018.658890625,947.6591953125001C1006.688890625,959.4491953125,994.068890625,968.3591953125,981.018890625,974.6391953125C967.978890625,980.9201953125,954.758890625,984.3191953125,941.978890625,985.0991953125C929.209190625,985.8891953125,916.679190625,983.8091953125,904.399190625,978.8491953125C892.109090625,973.9091953125001,880.949190625,966.5501953125,870.679190625,956.1091953125C859.779290625,945.0191953125,851.939190625,932.6391953125,847.209230625,919.3891953125C842.469240625,906.1301953125001,840.599120625,892.2501953125,841.599120625,878.1791953125C842.819090625,864.3191953125,846.899170625,850.2694953125,853.619090625,836.2294953125C860.559090625,822.4394953125,870.119090625,809.5097953125,882.319090625,797.5097953125C902.069090625,778.0800953125,921.998990625,765.4697253125,942.068890625,759.7001953125L970.028890625,784.5897953125L967.588890625,788.3095953125C936.879190625,775.2792953125,910.879190625,779.0399953125,890.228990625,799.3495953125C880.019090625,809.3798953125,872.458990625,819.8896953125,867.309090625,831.0692953125C862.369090625,842.4696953125,859.619090625,853.8993953125,859.549090625,865.3491953125C859.669190625,877.0001953125,862.198990625,888.4791953125,867.409190625,899.5191953125C872.379190625,910.8001953125,879.999290625,921.6491953125001,890.029290625,931.8491953125C898.539290625,940.4891953125,908.399390625,947.4201953125,919.589390625,952.1301953125001C930.759290625,957.2691953125,942.189890625,960.0101953125,954.058890625,960.5501953125C965.738890625,961.3091953125,977.198890625,959.6491953125001,988.659890625,955.7801953125C1000.149890625,951.8901953125,1010.108890625,945.6101953125,1019.2098906250001,936.6501953125C1041.4098906250001,914.8301953125,1044.629890625,895.9201953125,1029.129890625,880.1501953125L1004.899890625,855.5302953125C1002.729890625,853.3105953125,1000.749890625,852.1806953125,998.749890625,852.3905953125C996.779890625,852.6005953125,994.559890625,853.9003953125,991.909890625,856.0810953125L969.078890625,875.4811953125L965.149890625,871.4911953124999C977.348890625,860.8011953125,988.889890625,849.8915953125,999.759890625,839.2011953125C1010.619890625,828.5106953125,1021.7198906250001,817.1513953125,1032.609890625,805.1308953125L1036.538890625,809.1200953125L1036.538890625,809.1200953125Z" fill="#E6232A" fill-opacity="1"/></g><g><path d="M1461.35941640625,532.95040625L1462.57961640625,609.31040625C1462.75971640625,612.56040625,1463.30961640625,615.00140625,1464.43941640625,616.27040625C1465.54931640625,617.50140625,1468.90971640625,617.62040625,1474.26951640625,616.00140625L1495.27931640625,610.05040625L1496.97951640625,614.72040625C1494.8496164062499,615.17040625,1491.02931640625,616.55040625,1485.06931640625,618.38040625C1478.91941640625,620.61140625,1471.02931640625,623.47040625,1460.77931640625,627.19040625C1450.52931640625,630.8904062500001,1442.63911640625,633.77040625,1436.77931640625,635.88040625C1430.75927640625,638.41140625,1426.94921640625,639.80040625,1424.98925640625,640.82140625L1423.29931640625,636.15140625L1441.18941640625,627.99140625C1447.42971640625,625.08140625,1450.54931640625,619.97140625,1450.73921640625,612.29140625L1452.18941640625,411.77148625L1460.67971640625,408.69140625L1588.70931640625,559.94140625C1591.34931640625,562.6214062500001,1593.34931640625,564.55140625,1594.94931640625,565.28140625C1596.55931640625,566.04140625,1599.00931640625,566.47140625,1602.57031640625,566.17040625L1620.46031640625,565.31040625L1622.04031640625,569.70040625C1611.89031640625,572.71940625,1598.9103164062499,577.11040625,1583.39031640625,582.73040625L1568.75031640625,588.0304062499999C1564.37031640625,589.62040625,1559.97031640625,591.22040625,1556.29931640625,592.8904062500001C1552.29031640625,594.6504062500001,1548.50031640625,596.04140625,1545.38031640625,597.50140625L1543.77931640625,593.1214062500001L1562.03931640625,583.18040625C1564.56931640625,581.94040625,1566.6893164062499,580.50140625,1567.9393164062499,579.38040625C1569.30931640625,578.55040625,1570.14931640625,577.26040625,1570.42931640625,576.16140625C1570.40031640625,575.18040625,1570.36931640625,574.20140625,1569.54931640625,572.85140625C1568.84031640625,571.78140625,1568.02031640625,570.42140625,1566.38931640625,568.69140625L1519.01951640625,512.04140625L1461.35941640625,532.95040625L1461.35941640625,532.95040625ZM1514.33931640625,506.45020625L1459.74951640625,440.81050625L1461.37941640625,525.64040625L1514.33931640625,506.45020625Z" fill="#E6232A" fill-opacity="1"/></g><g><path d="M1719.42968984375,514.17928125C1720.31978984375,519.41028125,1721.49948984375,522.67028125,1722.98978984375,524.00028125C1724.51948984375,525.6392812500001,1727.18998984375,526.45028125,1731.22998984375,526.09028125L1759.98958984375,524.38028125L1760.81958984375,529.30028125C1748.42968984375,530.75928125,1736.08988984375,532.51928125,1723.82958984375,534.59928125C1711.53958984375,536.67028125,1697.46968984375,539.35928125,1681.30958984375,542.71928125L1680.47948984375,537.80928125L1696.85938984375,531.8892812500001C1703.70948984375,529.46928125,1707.72948984375,527.21928125,1709.62938984375,525.30928125C1711.20948984375,523.46928125,1711.61958984375,520.22928125,1710.82958984375,515.6392812500001L1688.23978984375,381.79978125C1686.62988984375,372.29978125,1684.51948984375,365.37988125,1681.57958984375,361.14938125C1678.67968984375,356.89938125,1674.51948984375,354.75978125,1668.51948984375,354.81938125L1649.94970684375,355.12888125L1649.07958984375,349.90918125L1685.90968984375,343.68948125C1690.19968984375,342.96968125,1693.37988984375,343.05958125,1695.37988984375,343.65918125C1697.06978984375,344.32908125,1699.87008984375,346.06938125,1703.50978984375,348.91898125L1867.81958984375,476.80828125L1841.41958984375,339.21878125C1840.12058984375,333.41898125,1838.56958984375,329.89848125,1836.79958984375,328.62888125C1834.6895898437501,327.40918125,1831.7195898437499,326.63868125,1827.97958984375,326.95898125L1801.06958984375,328.34868125L1800.23958984375,323.43848125C1806.16958984375,323.05858125,1817.26958984375,321.50879125,1833.53958984375,318.76855125C1849.80958984375,316.00879125,1860.79958984375,313.83887125,1866.53958984375,312.23828125L1867.36958984375,317.14844125L1854.6895898437501,320.55859125C1851.35958984375,321.42871125,1849.41958984375,323.02828125,1848.85958984375,325.31838125C1848.29958984375,327.63868125,1848.65958984375,331.66798125,1850.01958984375,337.75878124999997L1882.56958984375,511.89828124999997L1875.19958984375,513.13828125L1696.11918984375,376.05858125L1719.42968984375,514.17928125L1719.42968984375,514.17928125Z" fill="#E6232A" fill-opacity="1"/></g><g><path d="M2263.5297953125,312.2099625L2262.9696953125,317.1503625L2243.2099953125,317.4404625C2239.4599953125,317.3505625,2236.8100953125,318.6201625,2235.0199953125,320.6005625C2233.1898953125,322.9101625,2231.8500953125,326.5107625,2231.2699953125,331.7607625L2218.8900953125,442.21056250000004C2216.6698953125,462.0005625,2219.1000953125,476.69156250000003,2226.4799953125,486.2815625C2233.8300953125,496.2015625,2246.6298953125,502.01156249999997,2265.4999953125,504.1215625C2278.4999953125,505.58056250000004,2289.1901953125,505.2205625,2297.8501953125,503.3615625C2306.5201953125,501.5315625,2313.5001953125,497.93156250000004,2318.8701953125,491.9515625C2324.2401953125,485.9705625,2328.5801953125,478.0005625,2331.5801953125,468.0005625C2334.5801953125,458.0005625,2336.9001953125,445.7205625,2338.5501953125,430.8715625L2348.1601953125,345.1806625C2349.1001953125,336.8408625,2345.3301953125,331.3906625,2337.1501953125,328.9208625L2319.2701953125,323.4706625L2319.8201953125,318.5107625C2322.2701953125,319.1103625,2326.2801953125,319.5605625,2331.8301953125,320.4804625C2337.3601953125,321.4208625,2343.8701953125,322.1503625,2351.2801953125,322.9804625C2367.0601953125,324.7499625,2377.9201953125,325.6503625,2383.2401953125,325.6201625L2382.6801953125,330.5703625L2364.3101953125,332.5800625C2359.5601953125,332.9804625,2356.8701953125,337.3798625,2355.9001953125,346.0605625L2345.3901953125,439.79056249999996C2343.7601953125,454.34056250000003,2341.1301953125,466.5505625,2337.5101953125,476.4915625C2333.5501953125,486.71056250000004,2328.5501953125,494.9115625,2322.2601953125,500.79056249999996C2315.9601953125,506.6615625,2308.3101953125,510.8105625,2298.9701953125,512.9015625C2289.6301953125,515.2815625000001,2278.3202953125,515.5915625,2265.6400953125,514.1815625C2239.9599953125,511.2915625,2221.0502953125,503.8515625,2208.9398953125,491.8415625C2196.7699953125,480.14156249999996,2191.6698953125,464.2215625,2193.9301953125,444.1115625L2206.9301953125,328.0917625C2207.4799953125,323.1620625,2207.2899953125,319.3818625,2206.5902953125,317.0917625C2205.9203953125,314.8222625,2203.8803953125,313.3613625,2201.1303953125,312.7314425L2179.4501953125,307.8017625L2180.0102543125,302.8515625C2193.5399953125,304.9814425,2208.9901953125,307.0312525,2226.3002953125,308.9814425C2243.6200953125,310.9218725,2256.0302953125,311.9912125,2263.5302953125,312.2119125L2263.5297953125,312.2099625Z" fill="#E6232A" fill-opacity="1"/></g><g><path d="M2482.80955546875,531.15021875C2480.76955546875,536.03021875,2480.00975546875,539.44021875,2480.56935546875,541.3502187500001C2480.97945546875,543.55121875,2482.79935546875,545.66021875,2486.39945546875,547.51121875L2511.62935546875,561.44021875L2509.69925546875,566.04021875C2498.44925546875,560.66021875,2487.08935546875,555.55021875,2475.61915546875,550.7502187499999C2464.11915546875,545.94021875,2450.78905546875,540.70021875,2435.33935546875,534.88921875L2437.26953546875,530.30021875L2454.25975546875,534.05021875C2461.33985546875,535.66021875,2465.95995546875,535.91021875,2468.57955546875,535.30921875C2470.89945546875,534.59921875,2472.95945546875,532.09021875,2474.76955546875,527.77921875L2527.19975546875,402.59961875C2530.9199554687502,393.69921875,2532.83985546875,386.72951875,2532.61965546875,381.58981875C2532.42965546875,376.43941875,2530.05955546875,372.41991875,2524.96975546875,369.26951875L2509.10985546875,359.57909875L2511.15965546875,354.69921875L2545.61035546875,369.12891875C2549.63035546875,370.81931875,2552.27035546875,372.59861875,2553.61935546875,374.17871875000003C2554.68935546875,375.63871875,2556.14935546875,378.60841875,2557.69935546875,382.96871875L2628.19035546875,578.8792187500001L2679.43035546875,448.47851875000003C2681.42035546875,442.90821875,2682.01035546875,439.09861875,2681.18035546875,437.05861875C2680.0503554687502,434.90821875,2677.96035546875,432.67871875000003,2674.63035546875,430.94821875L2651.15035546875,417.73831875L2653.0703554687498,413.13871875C2658.27035546875,415.98831875,2668.48035546875,420.60841875,2683.71035546875,426.98831875C2698.92035546875,433.35841875,2709.39035546875,437.38871875,2715.08035546875,439.10841875L2713.16035546875,443.71871875L2700.62035546875,439.79881875C2697.33035546875,438.75881875,2694.84035546875,439.07911875,2693.15035546875,440.71871875C2691.44035546875,442.37891875,2689.58035546875,445.98831875,2687.48035546875,451.84861875L2621.90035546875,616.41921875L2615.01035546875,613.5392187499999L2536.93035546875,401.94921875L2482.80955546875,531.15021875L2482.80955546875,531.15021875Z" fill="#E6232A" fill-opacity="1"/></g><g><path d="M2749.52974609375,656.9403125L2825.49974609375,515.0703125C2827.12974609375,512.0605125,2827.74974609375,509.5508125,2827.65974609375,507.7500125C2827.30074609375,505.7900125,2825.66974609375,504.2099125,2823.34974609375,502.6103125L2800.52004609375,487.2207025L2802.85984609375,482.8203125C2804.50974609375,484.4003925,2823.57974609375,494.9599125,2860.04974609375,514.5107125C2870.74974609375,520.2305125,2879.69974609375,524.6611125,2886.28974609375,527.4912125L2883.78974609375,532.1611125L2866.72974609375,525.1308125C2864.10974609375,524.0908125,2861.75974609375,523.1904125,2859.83974609375,522.1611125C2857.77974609375,521.3916125,2856.25974609375,520.9414125,2854.73974609375,520.4912125C2853.06974609375,520.2910125,2851.81974609375,520.6914125,2850.66974609375,521.4814125C2849.38974609375,522.5517125,2848.22974609375,524.0615125,2846.91974609375,526.5312125L2770.92964609375,668.4113125C2769.31984609375,671.4303125,2768.68944609375,673.9113125,2769.06984609375,675.1803125C2769.31004609375,676.7113125,2770.92964609375,678.2913125,2773.52004609375,680.0303125L2796.93014609375,694.3503125L2793.41014609375,700.9303125C2789.99024609375,698.7303125,2784.93014609375,695.6713125,2778.20994609375,691.7303125C2771.48974609375,687.7703125,2762.72994609375,683.0703125,2752.29984609375,677.5003125000001C2741.85984609375,671.9103125,2733.36964609375,667.3603125,2726.34964609375,663.9503125C2719.34960609375,660.5493125,2713.70947609375,657.8803125,2709.98974609375,656.2593125L2713.51953609375,649.6603125L2730.15964609375,657.5203125C2733.03954609375,658.7003125,2735.50974609375,660.0203125,2737.58984609375,660.7803125C2739.64994609375,661.5403125,2741.16994609375,662.0003125000001,2742.67964609375,662.4503125C2743.92964609375,662.7803125,2745.18944609375,662.3903124999999,2746.31984609375,661.5903125C2747.19974609375,660.6303125,2748.35984609375,659.1303125,2749.52974609375,656.9403125L2749.52974609375,656.9403125Z" fill="#E6232A" fill-opacity="1"/></g><g><path d="M3136.42998046875,719.311L3121.58998046875,710.931C3115.71998046875,707.78,3110.40998046875,707.921,3105.18998046875,710.9L2933.56982046875,809.601L2928.47998046875,805.511L2981.95018046875,618.2705C2983.58008046875,612.7705,2984.22998046875,608.5107,2984.18018046875,606.0703C2983.91018046875,603.4502,2982.74998046875,600.9199,2980.72018046875,598.4805L2969.49028046875,584.62012L2972.63038046875,580.75C2977.81058046875,585.71973,2988.76028046875,594.96,3005.48048046875,608.4502C3022.20068046875,621.9307,3034.73998046875,631.6602,3043.12998046875,637.6299L3040.00098046875,641.5098L3023.72068046875,629.96C3020.18068046875,627.9102,3017.36088046875,626.4404,3015.4609804687498,625.3096C3013.14108046875,624.2393,3011.35108046875,623.9795,3009.65088046875,624.5996C3007.93068046875,625.2295,3006.37108046875,627.1699,3005.15088046875,630.1895C3003.67088046875,632.9893,3002.13088046875,637.3594,3000.13088046875,643.3193L2958.60108046875,785.02L3084.16098046875,708.72C3088.11098046875,706.31,3090.98098046875,704.239,3093.23098046875,702.45C3095.23098046875,700.46,3096.36098046875,698.5699999999999,3096.60098046875,696.771C3096.86098046875,694.971,3095.74098046875,692.87,3093.92098046875,690.19C3092.08098046875,687.511,3089.07098046875,684.29,3085.29098046875,680.04L3076.58098046875,671.0205L3079.72098046875,667.1504C3083.68098046875,671.1406,3093.66098046875,679.5908,3109.65098046875,692.5C3125.40098046875,705.19,3135.54198046875,712.97,3139.56198046875,715.42L3136.43198046875,719.31L3136.42998046875,719.311Z" fill="#E6232A" fill-opacity="1"/></g><g><path d="M3230.729296875,1023.410546875C3213.769296875,1031.870546875,3199.189296875,1041.160546875,3186.759296875,1051.080546875C3170.349296875,1031.089546875,3150.669396875,1007.789546875,3128.099096875,981.620546875C3105.319296875,955.219546875,3085.369096875,932.549546875,3068.029296875,913.410546875L3072.039066875,909.950546875L3087.849096875,925.910546875C3090.319296875,928.289546875,3092.409196875,929.780546875,3094.369096875,930.140546875C3096.139196875,930.260546875,3098.668896875,928.910546875,3102.208996875,925.850546875L3220.758296875,823.600546875C3224.538296875,820.340846875,3226.959296875,817.440446875,3227.999296875,815.310546875C3228.829296875,812.950146875,3228.119296875,810.670946875,3226.529296875,808.350546875L3213.348296875,789.720706875L3217.589296875,786.060546875C3228.089296875,799.210946875,3246.149296875,820.610346875,3271.769296875,850.320346875C3297.179296875,879.780246875,3315.709296875,900.800546875,3326.969296875,912.879546875C3321.599296875,916.679546875,3315.979296875,921.139546875,3310.089296875,926.209546875C3304.199296875,931.289546875,3298.729296875,936.389546875,3293.989296875,940.910546875L3291.339296875,937.839546875C3295.719296875,929.559546875,3299.059296875,922.969546875,3301.169296875,918.2595468750001C3303.299296875,913.580546875,3304.469296875,909.669546875,3305.329296875,906.870546875C3305.959296875,904.270546875,3305.919296875,901.839546875,3305.369296875,900.259546875C3304.590296875,898.859546875,3303.419296875,897.0195468750001,3301.820296875,894.700546875L3254.650296875,840.009746875C3252.420296875,837.419946875,3250.070296875,836.139646875,3247.850296875,836.410146875C3245.400296875,836.900346875,3242.390296875,838.669946875,3238.850296875,841.709946875L3184.640296875,888.469546875L3230.380296875,941.499546875C3232.610296875,944.089546875,3234.920296875,945.809546875,3236.870296875,946.169546875C3238.611296875,946.7405468750001,3241.290296875,946.059546875,3244.980296875,944.120546875L3264.110296875,932.959546875L3268.190296875,937.690546875C3248.7602968749998,952.800546875,3229.880296875,969.060546875,3211.610296875,986.470546875L3209.160296875,983.640546875L3223.080296875,962.600546875C3224.820296875,959.860546875,3225.890296875,957.280546875,3226.070296875,955.090546875C3226.220296875,952.890546875,3225.950296875,950.661546875,3225.250296875,948.411546875C3224.070296875,946.1115468749999,3222.4902968750002,943.790546875,3220.470296875,941.000546875C3218.2402968750002,938.411546875,3215.401296875,935.100546875,3212.140296875,931.331546875L3179.220296875,893.151546875L3120.520496875,943.771546875C3116.980496875,946.821546875,3115.250496875,949.561546875,3115.070296875,951.761546875C3114.660196875,954.151546875,3116.390096875,957.591546875,3119.860396875,961.6115468749999L3165.000496875,1013.931546875C3168.040296875,1017.4715468750001,3171.170296875,1020.122546875,3174.110296875,1022.1015468749999C3177.050296875,1024.081546875,3180.710296875,1025.471546875,3185.290296875,1026.031546875C3189.880296875,1026.581546875,3195.420296875,1026.331546875,3202.140296875,1025.061546875C3208.620296875,1023.991546875,3216.710296875,1021.951546875,3226.660296875,1018.7115468750001L3230.730296875,1023.412546875L3230.729296875,1023.410546875Z" fill="#E6232A" fill-opacity="1"/></g><g><path d="M3237.419435,1109.98078125L3248.949175,1122.77078125C3252.899375,1127.19978125,3256.289075,1129.76078125,3259.069375,1130.4407812499999C3261.419475,1131.03978125,3265.519575,1129.23078125,3270.819375,1125.40978125L3388.939375,1040.14058125C3391.469375,1038.32028125,3393.739375,1036.68068125,3395.309375,1035.15038125C3396.889375,1033.62008125,3397.869375,1031.77048125,3398.579375,1030.11038125C3399.299375,1028.44038125,3399.209375,1026.19038125,3398.699375,1023.89058125C3397.989375,1021.31058125,3396.940375,1018.26078125,3395.069375,1014.60058125L3389.069375,1002.05078125C3389.829375,1001.49121125,3390.319375,1001.13086125,3391.089375,1000.59082125C3391.420375,999.96093725,3391.920375,999.59082025,3392.670375,999.05078125C3395.219375,1002.58105125,3397.400375,1005.60058125,3399.230375,1008.13086125C3400.810375,1010.84078125,3402.700375,1012.94038125,3404.230375,1014.50098125L3429.859375,1046.32128125C3433.460375,1050.23148125,3436.810375,1054.34078125,3440.069375,1058.88088125C3454.109375,1078.32128125,3461.730375,1094.71098125,3462.849375,1108.49078125C3463.779375,1122.03078125,3457.389375,1133.92078125,3443.269375,1144.11178125C3433.419375,1151.22178125,3423.779375,1154.35178125,3414.509375,1153.75078125C3405.049375,1152.89078125,3394.039375,1149.32178125,3381.769375,1142.44178125L3352.589375,1205.73178125C3348.509375,1214.44178125,3346.029375,1221.61178125,3344.489375,1226.95078125C3342.699375,1232.45078125,3342.129375,1237.48178125,3342.349375,1241.53078125C3342.349375,1245.78078125,3343.089375,1249.46078125,3344.939375,1253.12078125C3346.369375,1256.69178125,3348.599375,1260.84078125,3351.129375,1265.92078125L3347.079375,1268.84078125C3344.789375,1265.12078125,3342.049375,1261.32178125,3339.139375,1257.30078125C3336.039375,1252.99078125,3332.949175,1248.72078125,3329.489275,1243.9107812500001C3326.019075,1239.12078125,3323.299275,1235.34078125,3320.919475,1232.06178125C3318.549275,1228.78078125,3316.729475,1226.25178125,3315.199175,1224.6607812500001L3358.749375,1134.49078125C3362.048375,1127.88078125,3361.659375,1122.03078125,3357.469375,1116.22178125L3347.259375,1102.09178125L3287.449175,1145.26178125C3283.409175,1148.18178125,3280.929175,1151.13178125,3280.429175,1154.17178125C3279.769075,1156.96178125,3280.248975,1160.82178125,3282.159175,1165.59178125L3288.049275,1180.14178125L3284.019575,1183.06178125C3276.019575,1170.40178125,3267.539575,1158.11178125,3258.609375,1145.74078125C3249.689475,1133.37078125,3241.409175,1122.45078125,3233.359375,1112.90178125L3237.419435,1109.98078125L3237.419435,1109.98078125ZM3354.089375,1097.16018125C3377.419375,1132.15078125,3400.479375,1141.23978125,3423.189375,1124.82978125C3433.789375,1117.17978125,3439.649375,1107.19978125,3440.499375,1095.0702812499999C3441.319375,1082.95018125,3437.139375,1070.22068125,3427.659375,1057.10058125C3426.759375,1055.83108125,3425.659375,1054.31058125,3424.759375,1053.06058125C3423.400375,1051.74028125,3422.319375,1050.22068125,3420.969375,1048.88088125L3354.089375,1097.16018125L3354.089375,1097.16018125Z" fill="#E6232A" fill-opacity="1"/></g><g><path d="M3554.8789375,1355.5400671875C3576.4889375,1338.1699671875,3582.0889375,1318.6796671875,3571.4089375,1297.2304671875C3568.9089375,1292.2206671875,3565.7189375,1287.8906671875,3562.2389375,1284.4003671875C3558.4889375,1281.0605671875,3554.3189375,1278.2704671875,3550.2789375,1276.4599671875C3546.1089375,1274.3495671875,3541.7989375,1273.3701671875,3537.3389375,1273.5097671875C3532.7499374999998,1273.3593671875,3528.7099375,1274.3193671875,3524.8099375,1276.2695671875C3521.7399375,1277.7890671875,3518.9499375,1279.8691671875,3517.0099375,1282.2294671875C3514.7799375,1284.7490671875,3513.0899375,1288.3593671875,3511.8399375,1292.7997671875C3510.2899375,1297.4101671875,3509.4499375,1303.3798671875,3508.8799375,1310.6201671875C3508.2999375,1317.8701671875,3507.9999375,1327.0497671875,3507.5799375,1338.0497671875C3507.5499375,1349.1796671875,3507.3999375,1358.6396671875,3506.9599375,1366.8593671875C3506.4099375,1374.7893671875,3504.9899375,1381.7593671875,3503.1699375,1387.8693671875C3501.0699375,1394.1383671875,3497.9999375,1399.1383671875,3494.2399375,1403.4593671875C3490.4699375,1407.7583671875,3485.0299375,1411.5083671875,3478.0595375,1414.9683671875C3462.4697375,1422.7383671875,3447.2895375,1423.6883671875,3432.4096375,1417.5483671875C3417.2397375,1411.5393671875,3404.8696375,1398.5683671875,3395.1596375,1379.0483671875C3386.1396475,1360.9383671875,3382.4194375,1342.2792671875,3383.7094725,1323.1992671875L3426.7592375,1305.6093671875L3428.6894375,1309.5097671875C3422.4194375,1313.6796671875,3417.1196375,1318.4101671875,3412.7993375,1324.3701671875C3408.4692375,1330.3701671875,3405.5395375,1336.3300671875,3403.5791375,1342.8701671875C3401.4790375,1349.1396671875,3400.6289375,1355.8202671875,3400.7592375,1362.3603671875C3400.8794375,1368.9003671875,3402.5390375,1375.0403671875,3405.3090375,1380.6003671875C3407.8090375,1385.6303671875,3411.1391375,1390.2203671875,3415.1792375,1394.1203671875C3418.9389375,1398.1793671875,3423.3794375,1401.5203671875,3427.9790375,1403.7503671875C3432.5590375,1405.9903671875,3437.2890375,1407.1103671875,3442.5688375,1407.2593671875C3447.5986375,1407.5493671875,3452.5986375,1406.4503671875,3457.3486375,1404.0803671875C3461.7885375,1401.8703671875,3465.4184375,1399.3493671875,3468.0688375,1396.3103671875C3470.4487375,1393.3903671875,3472.6787375,1389.4903671875,3474.2187375,1384.9103671875C3475.6186375,1380.0303671875,3476.7485375,1373.9003671875,3477.3188375,1366.6703671875C3477.8886375,1359.4394671875,3478.3188375,1350.5195671875,3478.4790375000002,1339.6601671875C3478.9292375,1318.9199671875,3481.4589375,1302.3701671875,3485.7989375,1290.8300671875C3490.1389375,1279.2802671875,3497.6689375,1270.6503671875,3508.2589375,1265.3798871875C3514.9489375,1262.0498071875,3521.7789375,1260.3896483875,3528.7289375,1260.4101562475C3535.2789375,1260.2705081875,3541.9689375,1261.8203171875,3548.6389375,1264.7597671875C3555.1789375,1267.4101571875,3561.1389375,1271.7294671875,3566.7089375,1277.3193671875C3572.2689375,1282.8896671875,3577.1389375,1289.8691671875,3581.1589375,1297.9394671875C3589.1989375,1314.0995671875,3591.6889375,1329.5497671875,3589.0089375,1344.4492671875L3556.6789375,1359.1493671875L3554.8789375,1355.5400671875L3554.8789375,1355.5400671875Z" fill="#E6232A" fill-opacity="1"/></g><g><path d="M3492.0195703125,1534.669959375L3641.1495703125,1474.160159375C3644.3295703125,1472.870159375,3646.4095703125,1471.350559375,3647.4895703125,1469.900359375C3648.4695703125,1468.169959375,3648.2295703125,1465.910159375,3647.4595703125,1463.200159375L3639.7495703125,1436.770509375L3644.3695703125,1434.880859375C3644.6095703125,1437.140629375,3652.5195703125,1457.460959375,3668.0795703125,1495.810559375C3672.6395703125,1507.060559375,3676.6795703125,1516.190459375,3679.9495703125,1522.570359375L3675.0495703125,1524.560559375L3666.4095703125,1508.250959375C3665.0695703125,1505.781259375,3663.8295703125,1503.581059375,3663.0195703125,1501.581059375C3661.9195703125,1499.661159375,3661.0495703125,1498.340859375,3660.1595703125,1497.010759375C3659.0095703125,1495.810559375,3657.7895703125,1495.300759375,3656.3895703125,1495.190459375C3654.7195703125,1495.190459375,3652.8795703125,1495.610359375,3650.2795703125,1496.670859375L3501.1498703125,1557.151859375C3497.9897703125,1558.450859375,3495.8901703125,1559.960859375,3495.3798703125,1561.181859375C3494.6000703125,1562.501859375,3494.8198703125,1564.761859375,3495.7099703125,1567.761859375L3504.5698703125,1593.731859375L3497.6396703125,1596.540859375C3496.3993703125,1592.670859375,3494.4794703125,1587.070859375,3491.8398703125,1579.750859375C3489.2099703125,1572.410859375,3485.4496703125,1563.180859375,3481.0097703125,1552.231859375C3476.5698703125,1541.261859375,3472.9399703125,1532.331059375,3469.7197303125,1525.221659375C3466.5097703125,1518.131859375,3463.8896503125,1512.481459375,3462.0595703125,1508.851559375L3468.9897503125,1506.031259375L3476.7597703125,1522.710959375C3478.2299703125,1525.460959375,3479.2797703125,1528.071259375,3480.3896703125,1529.970659375C3481.4897703125,1531.880859375,3482.3696703125,1533.210959375,3483.2397703125,1534.520459375C3483.9897703125,1535.569859375,3485.1996703125,1536.079859375,3486.5995703125,1536.170859375C3487.8793703125,1536.010859375,3489.7197703125,1535.600859375,3492.0195703125,1534.669959375L3492.0195703125,1534.669959375Z" fill="#E6232A" fill-opacity="1"/></g><g><path d="M3717.83947265625,1605.40039065C3723.35947265625,1605.25000025,3726.50947265625,1605.88085925,3726.96947265625,1607.36035625C3727.44947265625,1608.83007625,3725.86947265625,1610.99023625,3722.67947265625,1614.30078625C3719.49947265625,1617.61030625,3717.80947265625,1620.46090625,3717.68947265625,1622.13090625C3717.28947265625,1623.89060625,3718.03947265625,1627.25100625,3719.46947265625,1631.70120625L3756.50947265625,1746.33090625C3757.66947265625,1749.89090625,3758.61947265625,1752.85090625,3759.57947265625,1754.81190625C3760.25947265625,1756.89190625,3761.02947265625,1758.28090625,3762.10847265625,1759.57090625C3763.07947265625,1760.57090625,3764.33847265625,1761.47190625,3765.81847265625,1761.97190625C3767.00847265625,1762.57090625,3769.06847265625,1762.89190625,3771.41847265625,1763.11090625C3775.73847265625,1763.34190625,3777.99947265625,1764.26190625,3778.67847265625,1766.32090625C3779.53847265625,1768.99090625,3777.83847265625,1770.84090625,3773.9984726562498,1772.09090625L3726.9984726562498,1786.62090625C3725.52847265625,1787.09090625,3724.2284726562502,1787.18090625,3723.2484726562498,1787.16090625C3722.16847265625,1786.86090625,3721.69847265625,1786.37090625,3721.69847265625,1785.39190625C3721.71847265625,1784.41090625,3722.20847265625,1782.9319062499999,3723.69847265625,1781.47190625C3724.88847265625,1780.10190625,3727.56847265625,1778.25190625,3731.13847265625,1776.12190625C3734.9984726562498,1773.90190625,3738.15847265625,1771.55190625,3740.83847265625,1769.71190625C3743.12847265625,1767.6719062500001,3745.01947265625,1765.4219062500001,3746.12847265625,1762.78190625C3747.22947265625,1760.13190625,3747.93847265625,1757.28190625,3747.76947265625,1753.73290625C3747.60847265625,1750.19190625,3746.57947265625,1745.94190625,3744.93847265625,1740.8929062500001L3732.97947265625,1703.89260625L3580.43897265625,1753.17290625C3575.09907265625,1754.90290625,3571.72897265625,1756.63290625,3570.42917265625,1758.68290625C3569.04927265625,1760.45190625,3568.42917265625,1763.59290625,3568.87937265625,1768.02290625L3571.30957265625,1792.75290625L3566.55957265625,1794.27290625C3563.80957265625,1783.73290625,3558.65967265625,1766.74190625,3551.08937265625,1743.33190625C3543.61914265625,1720.24190625,3538.82959265625,1706.4219062500001,3536.70947265625,1701.87210625L3541.45947265625,1700.33200625L3552.29927265625,1719.73290625C3555.29927265625,1724.97290625,3558.31937265625,1728.24190625,3561.25927265625,1729.27290625C3563.90917265625,1730.37190625,3567.74947265625,1730.11190625,3572.77927265625,1728.48290625L3725.03947265625,1679.29200625L3713.26947265625,1642.86230625C3712.41847265625,1639.20210625,3711.15947265625,1636.35250625,3709.79847265625,1634.15230625C3708.33847265625,1631.68260625,3706.39847265625,1629.71190625,3703.56847265625,1628.01270625C3700.71847265625,1626.30270625,3697.19847265625,1624.50290625,3693.06847265625,1622.88280625C3688.64847265625,1621.36330625,3683.06847265625,1619.24320625,3676.19847265625,1617.22270625C3671.4784726562502,1615.81250625,3668.52847265625,1614.80273625,3667.15847265625,1613.59277625C3665.80847265625,1612.40234625,3665.51847265625,1611.51269625,3666.29847265625,1610.93261625C3667.00847265625,1610.05273625,3668.49947265625,1609.57226625,3670.95947265625,1609.10253625C3673.12847265625,1608.71288625,3675.89847265625,1608.15234625,3678.73847265625,1607.88281625L3717.83847265625,1605.40234375L3717.83947265625,1605.40039065Z" fill="#E6232A" fill-opacity="1"/></g><g><path d="M3632.87935546875,2012.810921875L3635.18945546875,2036.290921875L3629.74955546875,2037.630921875C3624.57955546875,2014.220921875,3620.44975546875,1996.310921875,3617.45945546875,1984.230921875C3614.45947546875,1972.159921875,3611.00927546875,1959.550921875,3607.08935546875,1946.380921875L3611.93945546875,1945.190921875L3618.10935546875,1959.699921875C3619.96925546875,1964.680921875,3622.31935546875,1968.919921875,3624.78955546875,1972.469921875C3627.28955546875,1976.009921875,3630.45945546875,1977.159921875,3634.36965546875,1976.179921875L3684.83985546875,1963.659921875C3689.37985546875,1962.529921875,3694.04975546875,1959.440921875,3698.59965546875,1954.469921875L3765.90935546875,1880.679721875C3775.96935546875,1869.519521875,3780.66935546875,1861.299821875,3780.13935546875,1856.620121875L3778.64935546875,1842.879881875L3783.47935546875,1841.669921875C3783.85935546875,1845.740231875,3786.62935546875,1858.209921875,3791.86935546875,1879.339821875C3797.05935546875,1900.189421875,3801.04935546875,1914.919921875,3803.66935546875,1922.929721875L3798.81935546875,1924.139621875L3791.37935546875,1905.779321875C3789.11935546875,1900.569321875,3786.34935546875,1898.369121875,3783.61935546875,1899.039021875C3782.41935546875,1899.348621875,3781.26935546875,1899.949221875,3780.58935546875,1901.079121875L3710.71035546875,1976.158921875C3725.50035546875,1981.458921875,3740.29035546875,1986.778921875,3755.15035546875,1992.378921875C3769.64035546875,1997.778921875,3784.21035546875,2003.448921875,3798.54935546875,2009.518921875C3803.81935546875,2011.418921875,3807.52035546875,2012.107921875,3810.23035546875,2011.438921875C3813.86035546875,2010.527921875,3815.39035546875,2007.577921875,3815.00935546875,2002.228921875L3813.23035546875,1982.138921875L3818.06935546875,1980.938921875C3817.92035546875,1982.888921875,3820.07935546875,1992.938921875,3824.50935546875,2010.787921875C3826.75935546875,2019.8379218750001,3828.63035546875,2027.387921875,3830.36935546875,2033.047921875C3832.08935546875,2038.727921875,3833.36935546875,2042.566921875,3834.19935546875,2044.617921875L3829.36035546875,2045.8089218750001L3824.38935546875,2036.138921875C3822.06935546875,2030.628921875,3811.72935546875,2023.888921875,3793.54935546875,2016.538921875L3713.19035546875,1984.838921875C3710.71035546875,1983.857921875,3707.68035546875,1983.328921875,3704.49995546875,1983.478921875C3701.33985546875,1983.617921875,3696.43015546875,1984.518921875,3690.08985546875,1986.098921875L3640.54975546875,1998.388921875C3634.79005546875,1999.817921875,3632.13965546875,2004.638921875,3632.87985546875,2012.8089218750001L3632.87935546875,2012.810921875Z" fill="#E6232A" fill-opacity="1"/></g><g></g><g><path d="M1097.50951015625,709.7500046875L1053.09961015625,666.4404046875C1025.24951015625,639.2802746875,1059.47951015625,618.1504046875,1072.85961015625,650.3906046875L1097.50951015625,709.7500046875L1097.50951015625,709.7500046875Z" fill-rule="evenodd" fill="#E6232A" fill-opacity="1"/></g><g><path d="M1181.4403515625,3212.6103515625C1168.4903515625,3186.0703515625,1158.8103515625,3203.7500015625,1156.6403515625,3220.9501515625C1154.3903515625,3238.6503515625,1155.0793515625,3255.7099515625,1149.2603515625,3271.8105515625C1132.6903515625,3317.6008515625,1108.6803515625,3352.3408515625,1084.1203515625,3386.9208515625C1063.6903515625,3415.6708515625,1047.6303515625,3463.3308515625,1000.9903515625,3482.5308515625C957.1703515625,3500.5708515625,879.4301515625,3502.9108515625,858.0402515625,3508.6208515625C847.7202515625,3511.3708515625,845.4301515625,3517.2808515625,841.7402515625,3520.9708515625C836.3403315625,3526.3808515625,832.2202115625,3530.1308515625,831.1103515625,3537.6508515625C842.3203515625,3546.7708515625,860.2204515625,3551.8698515625,888.6704515625,3547.1308515625C920.9204515625,3541.7608515625,966.6403515625,3524.4408515625,1029.9703515625001,3498.7208515625C1038.9803515625,3495.0698515625,1048.0703515625,3493.2708515625,1056.9203515625,3494.5698515625C1029.9903515625,3533.7708515625,949.0403515625001,3569.8798515625,947.4003515625,3600.8498515625C958.3603515625,3617.0198515624998,973.3703515625,3608.7088515625,998.6003515625,3598.2198515625C1014.2403515625,3591.7198515625,1039.5003515624999,3584.1598515625,1052.9703515625001,3581.7198515625C1059.7703515625,3581.2788515624998,1059.7003515625,3583.9398515625,1060.7203515625001,3586.9398515625C1064.0103515625,3596.7088515625,1069.0703515625,3607.1898515625,1071.1103515625,3617.9788515625C1072.9203515625,3627.4878515625,1071.7203515625001,3637.3188515625,1074.6303515625,3645.9398515625C1089.5403515625,3642.3298515625,1100.4503515625,3636.4008515625,1097.0003515624999,3622.1388515625C1092.2503515624999,3606.0078515625,1071.9603515625,3590.0788515625,1079.5103515625,3576.7888515625C1083.3203515625,3570.0788515625,1092.1703515625,3570.3488515625,1105.8603515625,3565.5588515625C1117.5103515625,3561.4878515625,1123.7003515625,3563.1788515625,1129.5303515625,3551.5088515625002C1140.3903515625,3529.7688515625,1106.8103515625,3533.1988515625,1082.7103515625,3529.0588515625C1073.4103515625,3527.4588515625,1066.4103515625,3532.1688515625,1061.1403515625,3529.5988515625C1062.1503515625,3495.9588515625,1149.3203515625,3485.3088515625,1141.1003515625,3461.6178515625C1139.6803515625,3441.3588515625,1051.8603515625,3481.4678515625,1055.7403515625,3462.0478515625C1120.4503515625,3371.1978515625,1173.5403515625,3299.2978515625,1181.4403515625,3212.6074515625L1181.4403515625,3212.6103515625ZM1143.1003515625,3381.9098515625C1143.5493515625,3426.9008515625,1158.5493515625,3426.9598515625,1169.1803515625,3405.3298515625C1172.4303515625,3398.7198515625,1168.9703515625001,3385.8298515625,1172.5593515625,3376.9498515625L1189.2593515625,3370.2598515625C1208.4493515625,3385.3798515625,1232.5893515625,3370.4898515625,1195.6493515625,3335.8998515625C1187.4693515625,3333.1188515625,1182.0493515625,3342.7788515624998,1178.5193515625,3360.9398515625L1164.2093515625,3370.8998515625C1151.7593515625,3371.0788515625,1144.7193515625,3374.7488515625,1143.1003515625,3381.9098515625L1143.1003515625,3381.9098515625ZM1213.6503515625,3265.7304515625C1219.6503515625,3269.6806515625,1224.9603515625,3274.1806515625,1229.4503515625,3279.2900515625C1231.7903515625,3281.9501515625,1230.1303515625,3284.4902515625,1232.0103515625,3287.4902515625C1234.4303515625,3291.3603515625,1240.2403515625,3295.8203515625,1241.8503515625,3300.2998515625C1244.4803515625,3307.6498515625,1245.9803515625,3315.8498515625,1246.2103515625,3325.0198515625C1246.5903515625,3340.7888515625,1222.9703515625001,3333.2498515625,1218.0103515625,3325.4198515625C1218.2503515624999,3314.1508515625,1217.2803515625,3302.8898515625,1213.6503515625,3291.6396515625C1206.0303515625,3280.4492515625,1205.0103515625,3271.4697515625,1213.6503515625,3265.7304515625L1213.6503515625,3265.7304515625ZM1043.6303515625,3566.5698515625L1043.3293515625,3552.8198515625L1045.9893515625,3545.1008515625C1045.6103515625,3536.8198515625,1040.8993515625,3536.1098515625,1034.2393515625,3538.8408515625L1003.1893515625,3568.7308515625C999.8893515625,3580.0508515625,1025.7993515625,3578.4408515625,1043.6303515625,3566.5698515625ZM1075.1503515625,3546.0898515625C1078.8703515625,3547.5698515625,1084.0393515625,3550.5498515625,1085.6503515625,3553.4698515625C1087.2503515624999,3556.3898515625,1080.9303515625,3560.8598515625,1075.1503515625,3560.8598515625C1069.3603515625,3560.8598515625,1064.6403515625,3557.5388515625,1064.6403515625,3553.4698515625C1064.6403515625,3549.4098515625,1071.4203515625,3544.6098515625,1075.1503515625,3546.0898515625Z" fill-rule="evenodd" fill="#E6232A" fill-opacity="1"/></g><g><path d="M1828.45940625,3478.1201166875C1851.77940625,3476.3398446875,1870.1394062499999,3479.2402346875,1870.84940625,3498.8799046875L1856.8894062499999,3537.5498046875C1858.92940625,3547.5801046875,1878.26940625,3533.5801046875,1897.5894062500001,3532.9902046875C1902.15940625,3541.4707046875,1914.8104062500001,3549.7803046875,1911.29940625,3558.4307046875L1847.87940625,3612.3808046875C1839.67040625,3619.3808046875,1836.02040625,3607.8708046875,1838.75940625,3601.5508046875C1840.84940625,3598.5608046875,1844.73940625,3597.0608046875,1850.40940625,3597.0608046875L1873.00940625,3564.3906046875C1885.96040625,3545.6904046875,1869.23040625,3545.7510046875,1855.6194062499999,3551.0703046875C1843.88940625,3555.6504046875,1840.07940625,3562.2500046875,1835.21940625,3572.5000046875L1810.98940625,3623.6098046875C1802.8694062499999,3640.7288046875,1797.94940625,3650.8598046875,1800.42040625,3653.9998046875C1804.02940625,3658.5798046875,1820.27040625,3650.6508046875,1839.04040625,3647.6698046875C1877.76040625,3633.0198046875,1908.66040625,3627.5708046875,1930.14040625,3633.2088046875C1941.66040625,3640.8398046875,1937.53040625,3649.9078046875,1927.85040625,3655.0778046875C1918.73040625,3659.9468046875,1914.16040625,3656.9378046875,1907.24040625,3659.4378046875C1886.18040625,3667.0178046875,1871.02040625,3669.9668046875,1863.53040625,3661.0568046875C1836.13040625,3662.6078046875,1810.46040625,3669.3358046875,1785.57040625,3678.4378046875L1759.90040625,3731.2678046875C1750.8304062500001,3749.9278046875,1776.02040625,3755.1488046875,1783.37040625,3737.7578046875L1804.15040625,3688.5178046875L1822.84040625,3701.0278046875C1831.07040625,3706.5368046875,1829.80040625,3713.0178046875,1819.45040625,3715.5978046875L1803.27040625,3752.5368046875C1798.39040625,3759.3258046875,1814.35040625,3766.2678046875,1828.6094062500001,3774.1878046875C1843.77940625,3782.5978046875,1832.42940625,3810.3188046875002,1799.00040625,3788.4468046875C1795.89940625,3786.4178046875,1786.08940625,3782.3068046875,1783.47040625,3785.1968046875C1697.83010625,3879.8768046875,1633.13040625,3908.0368046875,1598.87011725,3876.1168046875C1652.61030625,3868.4668046875,1705.08040625,3845.9278046875,1754.20040625,3784.7268046875C1756.39040625,3781.9958046875,1760.14040625,3772.4568046875,1757.64040625,3769.8668046875C1754.78040625,3766.8868046875,1749.09040625,3767.9058046874998,1745.64940625,3765.2168046875C1741.21040625,3761.7558046875,1739.17040625,3754.6468046874998,1737.67940625,3751.2968046875C1730.90940625,3736.0758046875,1742.12940625,3721.2068046875,1753.6094062500001,3696.3668046875C1750.48040625,3688.8768046875,1735.10040625,3692.6368046875,1712.06940625,3699.9568046875C1691.08980625,3706.6268046875,1663.29980625,3715.9668046875,1641.66990625,3727.9958046875C1634.98970625,3731.7168046875,1629.02980625,3738.3868046875,1623.21000625,3742.0568046875C1615.45020625,3746.9568046875,1615.02980625,3736.2368046875,1607.81005625,3738.3068046875C1607.87988625,3726.8168046875,1605.22997625,3717.3578046875,1598.62988285,3710.8668046875C1597.18994625,3700.3868046875,1620.68990625,3704.4668046875,1631.71970625,3701.2678046875L1702.25940625,3680.8188046875002C1719.23940625,3675.8988046875,1761.42940625,3670.9378046875,1770.05940625,3661.1578046875L1797.20940625,3603.0388046875C1801.84940625,3593.0888046875,1802.77940625,3576.6689046875,1786.3694062499999,3588.7388046875C1778.3694062499999,3598.8788046875,1765.65940625,3603.9098046875,1759.53940625,3610.7398046875C1753.1194062499999,3617.9198046875,1752.75940625,3627.5998046875,1748.54940625,3631.5198046875C1733.79940625,3645.2598046875,1726.80940625,3639.7088046875,1730.78940625,3617.2788046875C1734.03940625,3598.9198046875,1743.14940625,3582.3788046875,1744.64940625,3563.1894046875C1746.71940625,3536.8096046875,1751.52940625,3530.6396046875,1757.34940625,3557.1797046875C1758.48940625,3562.3896046875,1757.30940625,3571.4102046875,1758.73940625,3578.9888046875C1756.49940625,3602.6098046875,1803.58940625,3571.2793046875,1810.94040625,3562.3496046875C1820.25040625,3551.0400046875,1824.50940625,3537.5293046875,1827.98040625,3522.9697046875C1829.73040625,3515.6094046875,1837.42040625,3503.5498046875,1837.35040625,3495.1894046875C1837.30040625,3488.4492046875,1829.82040625,3485.5791046875,1828.45940625,3478.1201166875L1828.45940625,3478.1201166875Z" fill-rule="evenodd" fill="#E6232A" fill-opacity="1"/></g><g><path d="M2393.8096046875,3654.310171875C2418.6094046875,3652.140171875,2441.9995046875,3641.441171875,2462.2798046875,3611.990171875L2467.8998046875,3537.410171875C2467.8698046875,3533.070271875,2467.8798046875,3526.240271875,2467.4498046875,3519.870071875C2466.6498046875,3508.129881875,2466.7598046875,3496.990231875,2479.3498046875,3499.080077875C2505.4998046875,3503.429691875,2489.5798046875,3540.339871875,2490.3698046875,3595.790071875C2507.9098046875,3593.740271875,2504.2798046875,3584.889671875,2510.5498046875,3582.610371875C2518.1198046875,3579.850571875,2524.9098046875,3580.690471875,2530.5098046875,3587.060571875C2538.8898046875,3599.400171875,2525.9698046875,3610.000171875,2488.1998046875,3628.451171875C2482.8898046875,3630.051171875,2481.6698046875,3640.861171875,2480.9198046875,3655.230171875C2480.3598046875,3665.9901718749998,2477.5898046875,3676.711171875,2476.2098046875,3686.849171875C2474.6398046875,3698.388171875,2485.8298046875,3700.170171875,2495.5798046875,3705.369171875C2534.6998046875,3726.279171875,2570.4998046875,3734.658171875,2601.4098046875,3724.459171875C2587.8408046875,3746.629171875,2576.1398046875,3766.068171875,2562.3408046875,3766.430171875C2541.7798046875,3766.959171875,2519.1398046875,3745.430171875,2473.4698046875,3703.699171875C2469.4998046875,3702.410171875,2467.5098046875,3707.529171875,2466.2298046875,3714.959171875C2445.8101046875,3788.209171875,2407.1401046875,3834.369171875,2364.0498046875,3873.959171875C2398.9297046875,3810.869171875,2435.0200046875,3748.359171875,2450.4897046875,3676.010171875C2459.0195046875,3642.2401718749998,2421.4497046875,3684.289171875,2393.8096046875,3654.310171875Z" fill-rule="evenodd" fill="#E6232A" fill-opacity="1"/></g><g><path d="M3004.7294921875,3440.6103515625C3013.8896521875,3442.2001915625,3019.7895921875,3453.7900515625,3022.8295921875,3474.1503515625C3024.1796921875,3483.2607515625,3022.1293921875,3500.8505515625,3028.2397921875,3506.7705515625C3037.6796921875,3515.9404515625,3041.2397921875,3504.7001515625,3040.5097921875,3478.5009515625C3040.4799921875,3477.2011515625,3038.5995921875,3474.0810515625,3038.9198921875,3471.5205515625C3039.3998921875,3467.7802515625,3042.5199921875,3465.2207515625,3045.9296921875,3471.1806515625C3051.8695921875,3481.5703515625,3049.3598921875,3518.9501515625,3052.7694921875,3537.4003515625C3052.2792921875,3540.9303515625,3050.7294921875,3544.1403515625,3048.1396921875,3547.0403515625C3041.1195921875,3554.8803515625,3034.9994921875,3550.5703515625,3027.5097921875,3544.6393515625C3019.4799921875,3538.2900515625,3014.0698221875,3528.7099515625,3010.9799821875,3516.2900515625C3012.2597621875,3490.8398515625,3011.5200221875,3465.5205515625,3004.7294921875,3440.6103515625L3004.7294921875,3440.6103515625Z" fill-rule="evenodd" fill="#E6232A" fill-opacity="1"/></g><g><path d="M3082.87939921875,3510.6303203125C3088.97949921875,3504.7503203125,3097.22949921875,3502.0993203125,3102.88919921875,3495.6793203125C3117.79929921875,3478.7392203125,3130.64889921875,3459.8301203125,3141.26899921875,3442.5898203125C3158.81879921875,3414.0996203125,3170.87889921875,3390.2802703125,3194.98919921875,3391.9902344125C3199.26919921875,3406.2998203125,3172.99899921875,3440.7705203125,3149.14939921875,3455.5703203125C3146.78959921875,3457.0303203125,3145.70949921875,3460.5703203125,3145.58939921875,3462.6904203125C3145.43949921875,3465.4004203125,3147.93949921875,3467.6601203125,3149.55959921875,3469.2900203125C3181.97919921875,3501.7593203124998,3211.97019921875,3535.8203203125,3214.22019921875,3573.8603203125C3214.82919921875,3584.1403203125,3212.19019921875,3581.0403203125,3201.51019921875,3584.2603203125L3116.79979921875,3580.4803203125C3127.11959921875,3563.6203203125,3193.70019921875,3572.9503203125,3178.65019921875,3537.2303203125C3170.66989921875,3518.3103203125,3160.53999921875,3500.1003203125,3148.14009921875,3482.6406203125C3146.20999921875,3479.9209203125,3138.51029921875,3471.0810203125,3134.70999921875,3475.1103203125C3117.50979921875,3493.3603203125,3101.48969921875,3533.9603203125,3082.91991921875,3526.1203203125C3073.27978921875,3522.0703203125,3076.41015621875,3516.8503203125,3082.87939921875,3510.6303203125L3082.87939921875,3510.6303203125Z" fill-rule="evenodd" fill="#E6232A" fill-opacity="1"/></g><g><path d="M2950.2998050625,3351.9999996875C2958.3696290625,3348.2499996875,2969.9096390625,3361.5800796875,2984.5698390625,3368.3798796875C2996.5400390625,3373.9296796875,2998.1098390625,3369.2099796875,3005.9399390625,3381.9696796875C3015.1001390625,3396.8896796875,3014.2397390625,3407.5800796875,3006.1098390625,3415.2001796875C2996.9897390625,3415.8398796875,2988.5498390625,3399.6005796875,2977.2900390625,3383.4404796875C2969.0698390625,3371.6601796875,2945.7998090625,3357.7900396875,2950.2998050625,3351.9999996875Z" fill-rule="evenodd" fill="#E6232A" fill-opacity="1"/></g><g><path d="M2922.8994140625,3276.99975C2936.5893140625,3266.30975,2968.2495140625,3291.16975,3007.2295140625,3330.48975C3017.6196140625,3327.4497499999998,3017.2993140625,3322.03975,3018.4795140625,3311.15075C3020.2197140625,3295.07075,3007.6294140625,3292.56075,2993.4297140625,3278.76075C2993.6797140625,3276.49075,2993.6997140625,3274.24075,2994.0796140625,3272.09075C2996.4595140625,3258.84085,2996.6797140625,3247.04105,2994.8296140625,3236.56055C2989.4394140625,3206.05075,2983.0498140625,3188.16015,2967.2998140625,3180.76075C2959.0796140625,3173.56055,2960.4697140625,3169.87109,2971.4599140625,3169.6709C2996.0400140625,3170.54102,3018.9897140625,3165.91113,3015.5498140625,3195.02055C3012.2798140625,3222.55075,3003.5498140625,3261.99025,3017.3999140625,3252.26075C3037.7594140625,3204.69045,3054.2794140625,3177.56055,3074.6404140625,3168.03027C3097.0704140625,3157.54004,3099.0804140625,3171.75,3102.6204140625,3190.79985C3107.0604140625,3214.62985,3107.9604140625,3249.83985,3107.5804140625,3289.20975C3109.3104140625,3313.55975,3114.3204140625,3320.09975,3122.5894140625,3308.83975C3130.4094140625,3297.51975,3169.7994140625,3237.96975,3179.0694140625,3278.87975C3185.3994140625,3306.74975,3162.6704140625,3339.23975,3129.6094140625,3373.38975C3132.4604140625,3398.69875,3129.3394140625,3424.00975,3122.8594140625,3449.32975C3122.2704140625,3447.33975,3119.0804140625,3446.77075,3118.8504140625,3445.11975C3117.2504140625,3433.4407499999998,3112.0704140625,3432.57075,3107.6704140625,3436.54975C3101.1994140625,3442.39975,3094.3394140625,3457.13975,3079.6004140625,3453.48975C3111.3504140625,3422.91975,3108.0504140625,3372.68075,3124.3794140625,3367.07975C3147.4204140625,3331.27075,3157.9294140625,3308.40975,3150.1294140625,3304.46975C3112.4694140625,3325.96975,3061.1294140625,3429.71975,3048.6994140625,3431.18975C3056.9494140625,3405.88975,3068.4404140625,3382.87975,3086.2994140625,3364.38975C3083.2994140625,3349.49975,3077.1094140625,3341.74975,3068.5404140625,3339.27975C3063.4104140625,3337.79875,3064.1904140625,3352.86875,3057.5304140625,3354.77975C3052.1004140625,3356.33875,3039.4304140625,3344.23975,3033.2004140625,3347.56975C3037.3704140625,3397.63975,3036.5004140625,3426.29975,3028.2504140625,3423.68975C3029.1094140625,3402.06975,3028.3794140625,3380.45875,3026.7104140625,3358.83975C3026.0094140625,3349.66975,3026.7194140625,3347.09975,3020.3100140625,3340.20975C3014.4101140625,3333.84975,3010.0303140625,3332.91975,3003.8301140625,3337.11075C3002.5102140625,3337.99975,3003.7300140625002,3344.86975,3001.5898140625,3346.57975C2994.0996140625,3352.53075,2953.9800140625,3300.9297500000002,2926.9199240625,3286.40075C2919.8500940625,3282.61075,2924.7299840625,3278.81075,2922.8994140625,3276.99975L2922.8994140625,3276.99975ZM3039.8294140625,3238.04985C3060.0494140625,3247.34965,3077.2394140625,3257.50975,3083.6494140625,3270.70975C3082.3294140625,3289.87975,3076.2194140625,3308.78975,3069.1094140625,3327.65075C3078.1294140625,3331.53975,3085.5694140625,3337.90075,3091.6994140625,3346.31075C3096.8194140625,3293.40075,3097.2294140625,3240.91015,3080.8394140625,3189.89065C3061.9894140625,3188.64065,3051.5594140625,3219.57035,3039.8294140625,3238.04985L3039.8294140625,3238.04985ZM3039.0194140625,3248.16995C3052.4294140625,3255.53025,3063.2694140625,3266.03975,3069.4294140625,3282.28075L3066.6894140625,3313.43075C3065.7394140625,3315.69075,3063.7594140625,3317.62075,3061.2194140625,3319.13075C3058.8494140625,3320.55075,3051.8294140625,3309.06075,3048.8194140625,3309.15075C3045.1094140625,3309.27075,3047.5294140625,3322.65975,3046.1594140625,3322.78975C3041.9294140625,3323.1797500000002,3038.1394140625,3321.32075,3036.1694140625,3318.69075C3033.3384140625,3302.40975,3044.8184140625,3277.28975,3027.6784140625,3269.85075C3021.7988140625,3266.08075,3024.2584140625,3259.76075,3026.8484140625,3253.41015C3031.0884140625,3243.00975,3027.6584140625,3241.94045,3039.0194140625,3248.16995L3039.0194140625,3248.16995Z" fill-rule="evenodd" fill="#E6232A" fill-opacity="1"/></g><g><path d="M2064.33,0C3204.24,0,4128.67,924.42,4128.67,2064.33C4128.67,3204.24,3204.24,4128.67,2064.33,4128.67C924.42,4128.67,0,3204.24,0,2064.33C0,924.42,924.42,0,2064.33,0L2064.33,0ZM2064.33,94.71C3151.95,94.71,4033.95,976.72,4033.95,2064.33C4033.95,3151.95,3151.95,4033.95,2064.33,4033.95C976.72,4033.95,94.7095,3151.95,94.7095,2064.33C94.7095,976.719,976.719,94.709,2064.33,94.71L2064.33,94.71Z" fill-rule="evenodd" fill="#E6232A" fill-opacity="1"/></g></g></svg>